<svg width="60" height="60" viewBox="0 0 60 60" fill="none" xmlns="http://www.w3.org/2000/svg">
<path d="M19.2101 0.12897C20.52 -0.30765 21.9358 0.40025 22.3724 1.71011L24.8724 9.21011C25.3089 10.52 24.6011 11.9358 23.2912 12.3724C21.9814 12.809 20.5656 12.1011 20.129 10.7912L17.629 3.29124C17.1924 1.98139 17.9003 0.56559 19.2101 0.12897Z" fill="#FDD304"/>
<path d="M52.1498 23.8651L42.4273 33.5878C41.4508 34.5641 39.8681 34.5641 38.8916 33.5878C37.9153 32.6116 37.9153 31.0286 38.8916 30.0523L48.6143 20.3296C51.0551 17.8888 52.4408 12.9408 50 10.5C47.5593 8.05923 42.2163 9.04995 39.7756 11.4907L30.0528 21.2135C29.0766 22.1898 27.4936 22.1898 26.5173 21.2135C25.5411 20.2372 25.5411 18.6542 26.5173 17.6779L36.2401 7.95521C40.6333 3.56181 47.7566 3.56181 52.1498 7.95521C56.5433 12.3486 56.5433 19.4717 52.1498 23.8651Z" fill="#058FA2"/>
<path d="M7.95521 36.2403L17.6779 26.5175C18.6542 25.541 20.2371 25.541 21.2135 26.5175C22.1898 27.4938 22.1898 29.0768 21.2135 30.053L11.4907 39.7758C9.04996 42.2165 9.04996 46.1738 11.4907 48.6145C13.9315 51.0553 17.8888 51.0553 20.3296 48.6145L30.0523 38.8918C31.0285 37.9155 32.6115 37.9155 33.5878 38.8918C34.5643 39.868 34.5643 41.451 33.5878 42.4273L23.8651 52.15C19.4717 56.5435 12.3486 56.5435 7.95521 52.15C3.56181 47.7568 3.56181 40.6335 7.95521 36.2403Z" fill="#058FA2"/>
<path d="M5.73223 5.73223C6.70853 4.75593 8.29145 4.75593 9.26775 5.73223L16.7677 13.2322C17.7441 14.2085 17.7441 15.7914 16.7677 16.7677C15.7914 17.7441 14.2085 17.7441 13.2322 16.7677L5.73223 9.26775C4.75593 8.29145 4.75593 6.70853 5.73223 5.73223Z" fill="#FDD304"/>
<path d="M50.7322 54.2677C51.7084 55.2442 53.2914 55.2442 54.2677 54.2677C55.2439 53.2914 55.2439 51.7084 54.2677 50.7322L46.7677 43.2322C45.7914 42.2559 44.2084 42.2559 43.2322 43.2322C42.2559 44.2084 42.2559 45.7914 43.2322 46.7677L50.7322 54.2677Z" fill="#FDD304"/>
<path d="M37.6289 58.2914C38.0657 59.6012 39.4814 60.3092 40.7912 59.8724C42.1012 59.4359 42.8089 58.0199 42.3724 56.7102L39.8724 49.2102C39.4357 47.9004 38.0199 47.1924 36.7102 47.6289C35.4002 48.0657 34.6924 49.4814 35.1289 50.7914L37.6289 58.2914Z" fill="#FDD304"/>
<path d="M0.12897 19.2101C-0.307649 20.52 0.400251 21.9358 1.71011 22.3724L9.21011 24.8724C10.52 25.3091 11.9358 24.6011 12.3724 23.2912C12.809 21.9814 12.1011 20.5656 10.7912 20.129L3.29124 17.629C1.98139 17.1924 0.565589 17.9003 0.12897 19.2101Z" fill="#FDD304"/>
<path d="M58.2912 37.6289C59.6012 38.0657 60.3089 39.4814 59.8724 40.7914C59.4357 42.1012 58.0199 42.8092 56.7102 42.3724L49.2102 39.8724C47.9002 39.4359 47.1924 38.0199 47.6289 36.7102C48.0657 35.4004 49.4814 34.6924 50.7912 35.1289L58.2912 37.6289Z" fill="#FDD304"/>
</svg>
