<svg width="83" height="86" viewBox="0 0 83 86" fill="none" xmlns="http://www.w3.org/2000/svg">
<path d="M25.0806 78.0078V76.7551C25.0806 73.2993 24.2665 69.892 22.7042 66.8095L20.2419 61.9512L17.0161 54.1399L15.6093 50.506C15.2066 49.4659 15 48.3602 15 47.2448V47.2448C15 45.7877 15.3525 44.3522 16.0275 43.0608L17.2163 40.7863C18.1524 38.9952 19.3615 37.3606 20.8003 35.9413L23.2058 33.5681C23.38 33.3963 23.5713 33.2428 23.7768 33.1101V33.1101C24.8352 32.4267 26.1754 32.3513 27.3038 32.9118L29.8798 34.1914C30.4421 34.4707 30.9723 34.8105 31.4608 35.2049L36.3523 39.1531C36.8999 39.5951 37.3863 40.1082 37.7986 40.6786L39.1043 42.4854C39.6712 43.2698 39.856 44.2673 39.6076 45.2027V45.2027C39.347 46.1846 38.6391 46.9863 37.697 47.3665L37.3235 47.5172C36.4476 47.8708 35.4753 47.9054 34.5764 47.6152L32.9386 47.0864C32.2722 46.8713 31.6341 46.5772 31.0376 46.2104L30.3887 45.8113C29.5421 45.2906 28.7699 44.6576 28.0934 43.9294V43.9294C27.1682 42.9337 26.4356 41.7751 25.9327 40.5123L25.4839 39.3852L26.5154 42.7158C27.1169 44.6578 26.5483 46.7725 25.054 48.151V48.151C24.8035 48.382 24.5313 48.5883 24.241 48.7668L21.8548 50.2342" stroke="#058FA2" stroke-width="2"/>
<path d="M55 85.5078V81.1944C55 78.7537 55.4061 76.33 56.2018 74.0226L60 63.0078L60.9751 60.8951C62.3091 58.0047 63 54.8592 63 51.6758V43.5078V31.0766C63 30.3714 62.8568 29.6736 62.579 29.0254L62.3452 28.4799C61.8161 27.2454 60.7131 26.3504 59.396 26.087V26.087C59.1327 26.0343 58.8647 26.0078 58.5961 26.0078H57.5985C57.2049 26.0078 56.8167 26.0995 56.4646 26.2755L56.0257 26.4949C54.9352 27.0402 53.6117 26.537 53.1589 25.405V25.405C53.054 25.1429 52.8971 24.9049 52.6975 24.7053L52.3373 24.3451C51.481 23.4889 50.3197 23.0078 49.1088 23.0078H47.8247C47.2785 23.0078 46.7358 23.0959 46.2176 23.2686V23.2686C44.8101 23.7378 43.2678 23.5685 41.9956 22.8052L41.8709 22.7304C41.624 22.5822 41.3657 22.4541 41.0984 22.3472L39.85 21.8478C39.2885 21.6232 38.6893 21.5078 38.0845 21.5078H37.9635C37.0135 21.5078 36.0892 21.8159 35.3292 22.3859L34.5857 22.9435C34.5294 22.9858 34.4836 23.0406 34.4521 23.1037V23.1037C34.2769 23.454 33.77 23.4329 33.6246 23.0692L33.1118 21.7874C33.0387 21.6045 32.9167 21.4453 32.7591 21.3271L31.9613 20.7288C31.3373 20.2608 30.5784 20.0078 29.7984 20.0078V20.0078C29.5998 20.0078 29.4016 20.0242 29.2057 20.0569L27.8891 20.2763C26.9856 20.4269 26.1519 20.856 25.5042 21.5036V21.5036C25.1703 21.8375 24.8923 22.2232 24.6811 22.6456L24.5926 22.8226C24.2029 23.602 24 24.4615 24 25.333V32.0078" stroke="#058FA2" stroke-width="2"/>
<path d="M30 55.0078L30.901 56.8099C31.9526 58.9129 32.5 61.2319 32.5 63.5832V63.5832C32.5 66.1571 31.844 68.6885 30.594 70.9385L30 72.0078" stroke="#058FA2" stroke-width="2"/>
<path d="M35 23.0078V22.0078H33V23.0078H34H35ZM33 34.0078C33 34.5601 33.4477 35.0078 34 35.0078C34.5523 35.0078 35 34.5601 35 34.0078H34H33ZM34 23.0078H33V34.0078H34H35V23.0078H34Z" fill="#058FA2"/>
<path d="M43 38.0078C43 38.5601 43.4477 39.0078 44 39.0078C44.5523 39.0078 45 38.5601 45 38.0078H44H43ZM44 24.0078H43V38.0078H44H45V24.0078H44Z" fill="#058FA2"/>
<line x1="54" y1="27.0078" x2="54" y2="37.0078" stroke="#058FA2" stroke-width="2" stroke-linecap="round"/>
<path d="M2 30.0078L10.8564 32.4868" stroke="#FDD304" stroke-width="3" stroke-linecap="round"/>
<path d="M17.4219 9.74219L21.9985 17.0083" stroke="#FDD304" stroke-width="3" stroke-linecap="round"/>
<path d="M40.25 10.0156V2.00001" stroke="#FDD304" stroke-width="3" stroke-linecap="round"/>
<path d="M65.3594 9.98438L61.0022 17.0068" stroke="#FDD304" stroke-width="3" stroke-linecap="round"/>
<path d="M81.0742 31.4883L73.0005 34.0088" stroke="#FDD304" stroke-width="3" stroke-linecap="round"/>
</svg>
