<svg width="58" height="60" viewBox="0 0 58 60" fill="none" xmlns="http://www.w3.org/2000/svg">
<path d="M46.1387 58.1377H56.0156C56.0156 54.7223 55.2771 52.23 54.1694 50.1992" stroke="#058FA2" stroke-width="1.84615"/>
<path d="M49.9231 45.3077C45.6769 42.6308 40.1385 41.8 38.2 40.7846C35.8 39.5846 32.6615 37.3692 32.6615 35.5231C32.6615 34.5077 33.0308 33.8615 33.4 33.6769C38.0154 31.0923 39.5846 22.6923 39.8615 22.6923C41.4308 22.6923 42.5385 18.7231 42.5385 16.1385C42.5385 14.0154 41.8923 14.1077 40.7846 13.4615V13.1846C40.7846 6.35385 35.3385 1 28.5077 1C21.7692 1 15.9538 6.44615 15.9538 13.3692V13.6462C14.8462 14.2923 14.3846 14.6615 14.3846 16.6923C14.3846 19.3692 15.3077 23.0615 16.8769 23.0615C17.1538 23.0615 19.1846 31.1846 23.6154 33.9538C23.8923 34.1385 24.3538 34.6 24.3538 35.5231C24.3538 37.7385 21.4 39.6769 18.9077 40.9692C15.8615 42.5385 1 43.8308 1 58.3231H44.5692" stroke="#058FA2" stroke-width="2"/>
<path fill-rule="evenodd" clip-rule="evenodd" d="M56.0152 46.1389L53.4306 43.5543C53.0614 43.185 52.5075 43.185 52.1383 43.5543L45.1229 50.7543L41.8921 47.5235C41.5229 47.1543 40.969 47.1543 40.5998 47.5235L38.0152 50.1081C37.646 50.4773 37.646 51.0312 38.0152 51.4004L44.3844 57.862C44.7537 58.2312 45.3075 58.2312 45.6767 57.862L55.9229 47.4312C56.3844 47.062 56.3844 46.5081 56.0152 46.1389Z" stroke="#FDD304" stroke-width="1.84615"/>
</svg>
