<svg width="64" height="83" viewBox="0 0 64 83" fill="none" xmlns="http://www.w3.org/2000/svg">
<path d="M62.8555 1.5V82.5H53.917V37.7393L53.2402 37.9961L49.0547 39.5811L48.4668 39.7773L48.4648 39.7783C45.0256 40.946 42.6372 41.7512 38.4014 40.7549H38.4004L38.3799 40.7451L38.3594 40.7373L37.8203 40.5264C35.2057 39.4465 33.7737 38.0235 32.3311 36.5811L32.3291 36.5791L32.0986 36.3525L31.6689 35.9287L31.332 36.4297L23.3047 48.3877L23.0117 48.8242L23.4619 49.0947C25.2424 50.1671 27.0207 50.9592 28.6699 51.6982V51.6992C31.1983 52.8281 33.4016 53.8165 35.0986 55.4307C36.7706 57.021 37.9823 59.2533 38.4141 62.9316V62.9326C38.5684 64.2365 38.4952 65.4668 38.418 66.8633L38.417 66.877V66.8906C38.4034 67.0913 38.3956 67.3308 38.3691 67.8184V67.8242L37.7549 82.4414C37.7548 82.4428 37.7554 82.4443 37.7549 82.4453C37.7541 82.4468 37.7519 82.4496 37.748 82.4531C37.7392 82.461 37.725 82.4672 37.708 82.4668H37.6953L29.9336 82.4854C29.9153 82.4852 29.9028 82.4796 29.8955 82.4727C29.8919 82.4692 29.8899 82.4665 29.8896 82.4658C29.9733 77.4353 30.1272 72.1679 30.3984 67.1484L30.4404 66.4678V66.4639C30.4818 65.6855 30.5264 64.9262 30.4824 64.2109L30.4814 64.209C30.4423 63.6033 30.3337 63.0116 30.0967 62.4355L29.9873 62.1904L29.9834 62.1826L29.9072 62.0293C29.7554 61.7129 29.5928 61.3713 29.4092 61.0859C29.227 60.8028 28.9815 60.5051 28.6318 60.3486L28.6299 60.3477C27.7445 59.9551 26.3618 59.4741 24.8115 58.9863H24.8105C23.0302 58.423 21.0427 57.8611 19.2969 57.3867L18.834 57.2607L18.6885 57.7178C18.0251 59.8152 17.8996 62.3063 17.7051 64.7686C17.5079 67.2632 17.2401 69.7627 16.3369 72.0166C15.5375 74.0137 14.0998 75.821 12.6152 77.5391C11.1583 79.2252 9.61977 80.861 8.7666 82.4346L8.7627 82.4414C8.76154 82.4426 8.75908 82.4454 8.75391 82.4482C8.74942 82.4507 8.74407 82.4521 8.73926 82.4531C8.73499 82.4541 8.73201 82.4542 8.73047 82.4541L8.71191 82.4531H8.69434L0.542969 82.4922C0.520706 82.4919 0.507515 82.4847 0.501953 82.4795C1.29135 80.6245 2.76619 78.6519 4.33008 76.4424C5.87509 74.2596 7.48502 71.8735 8.43457 69.2715C9.40487 66.6096 9.70422 63.7557 9.93164 61.082C10.1616 58.3785 10.3182 55.8905 10.9668 53.835L11.0498 53.5713L10.8701 53.3604C10.0894 52.443 9.36261 51.443 8.87402 50.3564L8.68555 49.9033C8.279 48.8393 8.11475 47.7201 8.34375 46.5391C8.71236 44.6381 9.56863 42.753 10.6533 40.8555C11.7407 38.9532 13.0324 37.08 14.2705 35.1719C15.0054 34.0395 15.6923 32.862 16.3574 31.709C17.0247 30.5523 17.6688 29.4234 18.3271 28.3711C19.6511 26.2547 20.9864 24.527 22.5684 23.5762C24.1066 22.6517 25.9313 22.4314 28.3438 23.458C30.7891 24.4987 33.8214 26.8156 37.6855 30.9678V30.9688C38.7995 32.1719 39.8614 33.3149 41.0312 33.8525L41.0342 33.8535C41.4484 34.0406 41.9145 33.9792 42.3115 33.876C42.7212 33.7695 43.1757 33.5843 43.6152 33.4082H43.6172C44.1671 33.1856 44.7069 32.9659 45.2744 32.8223L45.2988 32.8164L45.3213 32.8076C45.5174 32.7372 45.6698 32.6819 45.7939 32.6367C45.9188 32.5913 46.0134 32.5569 46.0957 32.5273L46.1006 32.5254C46.3205 32.444 46.4542 32.3954 46.5244 32.373L46.5371 32.3691L46.5498 32.3643L52.8945 29.959L53.3398 30.0225L53.9102 30.1035V1.5H62.8555Z" stroke="#058FA2"/>
<path d="M57.2139 28V36.8428H56.1855L56.1074 29.8301L56.1025 29.3984L56.0654 29.3926V28H57.2139Z" stroke="#FDD304"/>
<path d="M32.8105 7.99023C34.9023 7.3042 37.094 7.49974 38.9365 8.3623C40.7772 9.22416 42.2684 10.7613 42.9805 12.749C43.6917 14.7344 43.4907 16.8134 42.5947 18.5654C41.6992 20.3166 40.0944 21.7493 38.002 22.4355C35.9102 23.1215 33.7194 22.926 31.877 22.0635C30.0361 21.2017 28.5442 19.6646 27.832 17.6768C27.1209 15.6917 27.3222 13.6132 28.2178 11.8613C29.1208 10.1084 30.7192 8.67613 32.8105 7.99023Z" stroke="#058FA2"/>
<path d="M53.5638 29.7L53.5089 26.0709V19.295V10.4863V3.71036V1H60.7605H61.4198V36.2347V74.8574V81.6333H53.5089H52.8496V38.3078" stroke="#FDD304"/>
</svg>
