<svg width="64" height="83" viewBox="0 0 64 83" fill="none" xmlns="http://www.w3.org/2000/svg">
<path d="M62.3555 2V82H54.417V37.0146L53.0625 37.5283L48.8916 39.1074L48.3086 39.3027L48.3037 39.3047C44.8936 40.4625 42.6235 41.2245 38.5586 40.2773L38.5332 40.2686C35.6771 39.2065 34.2137 37.7565 32.6846 36.2275L32.6797 36.2227L32.4492 35.9961L31.5898 35.1484L30.917 36.1504L22.8896 48.1094L22.3047 48.9814L23.2041 49.5234C25.0144 50.6138 26.8194 51.4179 28.4648 52.1553H28.4668C31.0125 53.292 33.1305 54.2489 34.7539 55.793C36.3273 57.2895 37.4965 59.407 37.917 62.9902V62.9912C38.0654 64.2446 37.9966 65.4309 37.9189 66.8359L37.917 66.8633V66.8906C37.9043 67.09 37.8944 67.3438 37.8701 67.791L37.8691 67.8037L37.2744 81.9678L30.3994 81.9844C30.4847 77.108 30.6355 72.0272 30.8975 67.1797L30.9395 66.499V66.4902C30.9803 65.721 31.0275 64.9305 30.9814 64.1807L30.9805 64.1768C30.9328 63.4397 30.7863 62.6995 30.4375 61.9736L30.4346 61.9668L30.4307 61.959L30.3545 61.8057C30.2071 61.4985 30.0313 61.1297 29.8291 60.8154C29.6295 60.5052 29.319 60.1088 28.8359 59.8926L28.833 59.8906L28.4678 59.7354C27.566 59.3642 26.3194 58.9372 24.9609 58.5098C23.1711 57.9435 21.1763 57.3794 19.4277 56.9043L18.502 56.6523L18.2119 57.5674C17.5268 59.7336 17.3982 62.2983 17.2061 64.7295C17.0211 67.0696 16.7773 69.3513 16.0293 71.4199L15.873 71.8311C15.1076 73.7432 13.72 75.4949 12.2363 77.2119C10.8784 78.7834 9.37125 80.3938 8.46387 81.9541L1.2832 81.9893C2.08967 80.3937 3.35583 78.6846 4.73828 76.7314C6.18624 74.6857 7.724 72.4176 8.71387 69.9404L8.9043 69.4424C9.89994 66.711 10.2024 63.7965 10.4297 61.124C10.6621 58.392 10.8158 55.9744 11.4434 53.9854L11.6094 53.458L11.251 53.0371C10.4845 52.1365 9.79124 51.177 9.33008 50.1514V50.1504L9.15234 49.7256C8.77191 48.7304 8.6272 47.7064 8.83496 46.6348C9.18855 44.8109 10.0149 42.9805 11.0879 41.1035C12.166 39.2175 13.4417 37.3688 14.6904 35.4443C15.4331 34.3 16.1249 33.1119 16.79 31.959C17.4596 30.7984 18.0985 29.6787 18.751 28.6357C20.0704 26.5267 21.3534 24.89 22.8262 24.0049C24.2114 23.1724 25.8649 22.9467 28.1475 23.918C30.4962 24.9174 33.4708 27.1735 37.3184 31.3076V31.3086C38.4095 32.4871 39.5425 33.7186 40.8223 34.3066L40.8281 34.3096C41.4056 34.5704 42.0156 34.469 42.4375 34.3594C42.8845 34.2431 43.3725 34.045 43.8018 33.873L43.8047 33.8711C44.3609 33.6459 44.8687 33.4404 45.3975 33.3066L45.4443 33.2949L45.4902 33.2783C45.6873 33.2076 45.8403 33.1518 45.9648 33.1064C46.0907 33.0607 46.1837 33.0271 46.2646 32.998L46.2734 32.9951C46.4981 32.9119 46.62 32.8677 46.6768 32.8496L46.7021 32.8418L46.7275 32.832L52.9521 30.4717L53.2695 30.5176L54.4102 30.6797V2H62.3555Z" stroke="#058FA2" stroke-width="2"/>
<path d="M57.2139 28V36.8428H56.1855L56.1074 29.8301L56.1025 29.3984L56.0654 29.3926V28H57.2139Z" stroke="#FDD304"/>
<path d="M32.9668 8.46387C34.9323 7.8193 36.9916 8.0018 38.7236 8.8125C40.4526 9.6219 41.8457 11.0623 42.5098 12.916C43.1719 14.7647 42.9858 16.7004 42.1494 18.3359C41.3139 19.9698 39.8126 21.3129 37.8457 21.958C35.8802 22.6025 33.8208 22.4201 32.0889 21.6094C30.3599 20.8 28.9668 19.3596 28.3027 17.5059C27.6409 15.6582 27.8269 13.7239 28.6621 12.0889C29.5057 10.4511 31.0016 9.10838 32.9668 8.46387Z" stroke="#058FA2" stroke-width="2"/>
<path d="M53.7142 29.7L53.6592 26.0709V19.295V10.4863V3.71036V1H60.9109H61.5701V36.2347V74.8574V81.6333H53.6592H53V38.3078" stroke="#FDD304" stroke-width="2"/>
</svg>
