<svg width="115" height="112" viewBox="0 0 115 112" fill="none" xmlns="http://www.w3.org/2000/svg">
<path fill-rule="evenodd" clip-rule="evenodd" d="M26.4054 0.162939C20.8167 0.802895 14.879 3.35358 10.766 6.88113C5.20251 11.6527 1.61223 17.8162 0.379432 24.7122C-0.0100283 26.8898 -0.124301 31.5277 0.152615 33.9098C0.692133 38.5492 2.68953 43.7074 5.50905 47.7427C6.66262 49.3939 11.6172 54.5402 12.0531 54.5402C12.3638 54.5402 15.0851 51.9045 15.0851 51.6034C15.0851 51.5137 14.0762 50.4414 12.8431 49.2206C10.0369 46.4425 8.79502 44.8489 7.35194 42.1744C4.26391 36.4506 3.49659 30.1657 5.10552 23.7709C6.25563 19.1992 8.38705 15.49 11.8623 12.0119C15.5345 8.33654 19.9403 5.87583 24.7105 4.83544C27.0441 4.32674 33.233 4.37147 35.4466 4.91355C40.1441 6.06344 44.0722 8.14151 47.4167 11.2459C48.1633 11.939 48.9444 12.5087 49.1527 12.5124C49.361 12.5162 50.1343 11.9078 50.871 11.1606L52.2107 9.80208L51.1094 8.66381C48.4454 5.91069 43.7331 2.95166 40.0125 1.69548C35.8045 0.274916 30.5732 -0.314371 26.4054 0.162939ZM81.5993 0.149591C77.1687 0.67263 72.3498 2.41873 68.8343 4.77512C67.1518 5.90277 61.2336 11.5986 45.6061 27.1303L34.0134 38.6518L34.1615 39.5649C34.4623 41.422 38.1521 45.5781 41.4699 47.7973C44.3807 49.7441 48.8047 51.0796 52.3422 51.0796C54.3828 51.0796 57.7939 50.5054 59.8426 49.8168C63.0326 48.745 68.0317 46.0453 70.9867 43.7991C73.9143 41.5735 80.2419 35.8129 80.2419 35.3732C80.2419 35.0266 79.3635 34.051 78.5209 33.4619C77.375 32.6606 76.7745 32.8927 74.4197 35.0471C65.9817 42.7674 59.6282 46.2539 53.419 46.5713C48.4098 46.8271 44.8657 45.4204 40.9215 41.6106C39.5234 40.26 39.2805 39.9099 39.4843 39.5384C39.6191 39.2925 46.3182 32.5204 54.3707 24.4894C69.1539 9.74622 70.2105 8.79185 73.7265 7.00743C78.3652 4.65326 84.5254 3.77947 89.6373 4.75065C93.2414 5.4356 95.8464 6.48959 98.9769 8.53033C104.465 12.1078 108.334 17.4895 110.019 23.8895C110.608 26.128 110.702 26.9608 110.705 29.9455C110.708 33.7909 110.345 35.8557 109.092 39.1237C107.894 42.2498 105.503 46.1713 104.07 47.3628C103.093 48.1743 103.148 48.4916 104.516 49.9401C105.236 50.7027 105.998 51.3268 106.209 51.3268C106.669 51.3268 109 48.6288 110.39 46.4867C112.003 44.0011 113.437 40.5823 114.426 36.8666C114.96 34.862 115.186 28.567 114.823 25.841C113.85 18.5449 109.952 11.5274 104.305 6.90732C100.407 3.71718 96.6172 1.84724 91.7184 0.696361C89.1851 0.101144 84.2626 -0.164826 81.5993 0.149591ZM82.5668 38.8396C82.3459 39.1773 81.7881 39.6867 81.3271 39.9722C80.8658 40.2575 80.4887 40.6901 80.4887 40.9333C80.4887 41.1763 82.1142 42.9748 84.1007 44.9297C94.8733 55.5307 104.919 65.6224 105.292 66.2179C105.567 66.6561 105.661 67.1208 105.558 67.5324C105.354 68.3466 99.9715 73.7527 99.1625 73.9562C98.7785 74.0526 98.314 73.9535 97.9105 73.6885C97.5575 73.4569 94.0578 70.0502 90.1331 66.1178C81.778 57.7462 81.3942 57.4115 80.3808 57.6144C79.5407 57.7828 78.6251 58.5621 78.1159 59.5424C77.8123 60.1268 77.8121 60.3287 78.1147 61.0255C78.3106 61.4771 81.8925 65.2536 86.2558 69.6087C91.5241 74.8675 94.0946 77.6039 94.1946 78.0602C94.413 79.0563 94.0248 79.6058 91.0243 82.5458C88.4331 85.0846 88.2544 85.2114 87.3659 85.1412C86.5009 85.0727 85.8306 84.4679 78.3116 76.9721C69.1314 67.8201 69.5073 68.0722 67.6651 69.8272C66.8386 70.6148 66.6676 70.9401 66.6676 71.7239C66.6676 72.636 66.9603 72.9645 74.8122 80.8615C81.0561 87.1412 82.9563 89.1935 82.955 89.6555C82.9528 90.5525 82.2958 91.4016 79.4881 94.1382C76.9532 96.6088 76.9431 96.6154 75.8905 96.4965C75.2431 96.4234 74.5372 96.1263 74.0643 95.7278C73.6403 95.3706 73.1038 95.0782 72.872 95.0782C72.6403 95.0782 71.853 95.6843 71.1227 96.4251C69.6998 97.8679 69.6931 97.9507 70.9175 99.0297C71.5585 99.5947 72.059 100.733 71.9127 101.294C71.7676 101.849 67.7054 106.117 66.4129 107.073C65.9572 107.409 65.32 107.685 64.9969 107.685C64.3587 107.685 61.4846 110.234 61.4846 110.8C61.4846 111.42 63.2458 112.011 65.0633 112C67.5102 111.985 68.6413 111.305 72.1318 107.747C75.1525 104.668 75.6274 104.014 76.1225 102.255C76.4004 101.268 76.5393 101.12 77.4327 100.861C79.2744 100.327 80.1022 99.728 83.1352 96.7333C86.0209 93.8843 87.1524 92.3125 87.1524 91.1534C87.1524 90.3985 87.9479 89.6268 88.8771 89.4805C90.3074 89.2551 91.0875 88.7024 94.003 85.8491C97.0523 82.8649 98.1644 81.3952 98.4088 80.0263C98.6195 78.846 99.0868 78.3538 100.188 78.1524C101.713 77.873 102.943 76.9585 106.068 73.7792C109.375 70.4155 109.879 69.564 109.916 67.2701C109.955 64.8277 109.383 63.9126 104.988 59.387C102.848 57.1831 100.708 54.9792 100.233 54.4898C99.1339 53.3572 87.882 42.3672 85.4061 40.0078C84.3779 39.0278 83.4087 38.2261 83.2522 38.2261C83.096 38.2261 82.7874 38.5022 82.5668 38.8396ZM28.0424 49.8724C27.4995 50.3176 24.834 52.8611 22.1191 55.5245C19.4042 58.1879 16.0723 61.4196 14.7149 62.7061C9.30344 67.8352 8.74442 68.6712 9.03047 71.2085C9.26987 73.3345 10.0999 74.6723 12.8303 77.3339C15.5247 79.9602 16.0482 80.3365 17.5754 80.7455C19.0061 81.1287 19.1742 81.2923 19.5096 82.6259C19.8993 84.1762 20.2826 84.7217 22.8486 87.3777C25.1597 89.7699 27.0814 91.1169 28.1893 91.1211C28.9228 91.1235 29.6442 91.8048 29.6521 92.5023C29.6647 93.6129 30.7575 95.2364 33.154 97.7053C35.6946 100.322 37.4025 101.505 38.6413 101.505C39.3274 101.505 39.8805 102.185 40.1485 103.359C40.2416 103.767 40.5715 104.545 40.8815 105.089C41.578 106.31 46.0213 110.674 47.1795 111.274C48.3138 111.861 51.0781 112.056 51.9083 111.608C52.4552 111.312 60.5162 103.59 68.6469 95.5726C71.478 92.7806 71.6037 92.5428 71.6037 89.9719C71.6037 88.0085 70.8132 86.7041 67.8582 83.7916C65.3079 81.278 63.8323 80.2472 62.7841 80.2472C62.0039 80.2472 61.3373 79.4958 61.1285 78.381C60.8822 77.0665 59.9327 75.7913 57.2519 73.1751C54.8243 70.8056 54.0234 70.2635 52.5382 69.9844C51.4159 69.7736 51.2814 69.6077 50.7607 67.789C50.3848 66.4764 50.0664 66.0458 47.584 63.4917C44.8739 60.703 43.1413 59.4925 41.8512 59.4863C41.2051 59.4831 40.7537 59.031 40.7505 58.3839C40.7445 57.1238 39.5266 55.3534 36.8961 52.781C35.4202 51.3377 33.8239 49.9572 33.3488 49.7132C32.8566 49.4606 31.7416 49.2253 30.7573 49.1665C29.1027 49.0673 28.9879 49.0972 28.0424 49.8724ZM26.4382 56.8407C24.6057 58.6459 22.8287 60.5354 22.4893 61.0396C22.1499 61.5439 21.6684 62.0224 21.4191 62.103C20.7232 62.3282 13.6211 69.5885 13.4574 70.2423C13.2195 71.1917 13.4979 71.6262 15.9519 74.1366C19.4575 77.7225 18.4301 78.1872 27.9427 68.7105C32.2648 64.4045 35.9782 60.5077 36.1944 60.0512C36.5641 59.271 36.5582 59.1732 36.0964 58.4247C35.8262 57.9867 34.6667 56.711 33.5198 55.5897C30.5576 52.6942 30.6672 52.675 26.4382 56.8407ZM40.0059 64.0901C39.0241 64.7405 24.2155 79.5682 23.8697 80.2472C23.6967 80.5871 23.6209 81.123 23.7014 81.4379C23.8949 82.1955 28.3396 86.6463 29.0911 86.8351C29.4139 86.9162 29.8984 86.8843 30.1677 86.764C30.4369 86.6436 34.2614 82.9358 38.6667 78.5244C48.2255 68.9522 47.7403 69.9098 44.6401 66.7345C42.7375 64.7857 41.3667 63.686 40.8403 63.686C40.7169 63.686 40.3413 63.8679 40.0059 64.0901ZM50.2769 74.3569C49.4203 74.8549 34.3074 90.178 34.0786 90.7804C33.7204 91.7239 34.1607 92.4403 36.5666 94.8271C38.9169 97.1587 39.6687 97.5708 40.6308 97.0549C40.9499 96.8839 44.7729 93.1608 49.1266 88.7815C56.1793 81.6871 57.0421 80.7334 57.0421 80.0354C57.0421 79.3863 56.6719 78.8672 54.8826 77.0076C52.1598 74.1779 51.3683 73.7223 50.2769 74.3569ZM52.4291 92.6729C45.5681 99.5359 44.2082 101.01 44.2082 101.584C44.2082 102.718 49.0972 107.685 50.2125 107.685C50.577 107.685 53.3321 105.089 59.1096 99.3026C67.251 91.1487 67.4744 90.8993 67.3209 90.1303C67.2078 89.565 66.462 88.6431 64.7025 86.8945C62.6088 84.8137 62.1236 84.4493 61.4461 84.4493C60.7299 84.4493 59.8256 85.2739 52.4291 92.6729Z" fill="#058FA2"/>
<path fill-rule="evenodd" clip-rule="evenodd" d="M26.4054 0.162939C20.8167 0.802895 14.879 3.35358 10.766 6.88113C5.20251 11.6527 1.61223 17.8162 0.379432 24.7122C-0.0100282 26.8898 -0.124301 31.5277 0.152615 33.9098C0.692133 38.5492 2.68953 43.7074 5.50905 47.7427C6.66262 49.3939 11.6172 54.5402 12.0531 54.5402C12.3638 54.5402 15.0851 51.9045 15.0851 51.6034C15.0851 51.5137 14.0762 50.4414 12.8431 49.2206C10.0369 46.4425 8.79502 44.8489 7.35195 42.1744C4.26391 36.4506 3.49659 30.1657 5.10552 23.7709C6.25564 19.1992 8.38705 15.49 11.8623 12.0119C15.5345 8.33654 19.9403 5.87583 24.7106 4.83544C27.0441 4.32674 33.233 4.37147 35.4466 4.91355C40.1441 6.06344 44.0722 8.14151 47.4167 11.2459C48.1633 11.939 48.9444 12.5087 49.1527 12.5124C49.361 12.5162 50.1343 11.9078 50.871 11.1606L52.2107 9.80208L51.1094 8.66381C48.4454 5.91069 43.7331 2.95166 40.0125 1.69548C35.8045 0.274916 30.5732 -0.314371 26.4054 0.162939ZM82.5668 38.8396C82.3459 39.1773 81.7881 39.6867 81.3271 39.9722C80.8658 40.2575 80.4887 40.6901 80.4887 40.9333C80.4887 41.1763 82.1142 42.9748 84.1007 44.9297C94.8733 55.5307 104.919 65.6224 105.292 66.2179C105.567 66.6561 105.661 67.1208 105.558 67.5324C105.354 68.3466 99.9716 73.7528 99.1625 73.9562C98.7785 74.0526 98.314 73.9535 97.9105 73.6885C97.5575 73.4569 94.0579 70.0502 90.1331 66.1178C81.778 57.7462 81.3942 57.4115 80.3808 57.6144C79.5407 57.7828 78.6251 58.5621 78.1159 59.5424C77.8123 60.1268 77.8121 60.3287 78.1147 61.0255C78.3106 61.4772 81.8925 65.2536 86.2558 69.6087C91.5241 74.8675 94.0946 77.6039 94.1946 78.0602C94.413 79.0563 94.0248 79.6058 91.0243 82.5458C88.4331 85.0846 88.2544 85.2114 87.3659 85.1412C86.5009 85.0727 85.8306 84.4679 78.3116 76.9721C69.1314 67.8201 69.5073 68.0722 67.6652 69.8272C66.8386 70.6147 66.6676 70.9401 66.6676 71.7239C66.6676 72.636 66.9603 72.9645 74.8122 80.8615C81.0561 87.1412 82.9563 89.1935 82.955 89.6555C82.9528 90.5525 82.2958 91.4016 79.4881 94.1382C76.9532 96.6088 76.9431 96.6154 75.8905 96.4965C75.2431 96.4234 74.5372 96.1263 74.0643 95.7278C73.6403 95.3706 73.1038 95.0782 72.872 95.0782C72.6403 95.0782 71.853 95.6843 71.1227 96.4251C69.6998 97.8679 69.6932 97.9507 70.9176 99.0297C71.5585 99.5947 72.059 100.733 71.9127 101.294C71.7676 101.849 67.7054 106.117 66.4129 107.073C65.9573 107.409 65.32 107.685 64.9969 107.685C64.3587 107.685 61.4846 110.234 61.4846 110.8C61.4846 111.42 63.2458 112.011 65.0633 112C67.5102 111.985 68.6413 111.305 72.1319 107.747C75.1525 104.668 75.6274 104.014 76.1225 102.255C76.4004 101.268 76.5393 101.12 77.4327 100.861C79.2744 100.327 80.1022 99.728 83.1352 96.7333C86.0209 93.8843 87.1525 92.3125 87.1525 91.1534C87.1525 90.3985 87.9479 89.6268 88.8771 89.4805C90.3074 89.2551 91.0875 88.7024 94.0031 85.8491C97.0523 82.8649 98.1644 81.3952 98.4088 80.0263C98.6196 78.846 99.0868 78.3538 100.188 78.1524C101.713 77.873 102.943 76.9585 106.068 73.7792C109.375 70.4155 109.879 69.564 109.916 67.2701C109.955 64.8277 109.383 63.9126 104.988 59.387C102.848 57.1831 100.708 54.9792 100.233 54.4898C99.1339 53.3572 87.882 42.3672 85.4061 40.0078C84.3779 39.0278 83.4087 38.2261 83.2522 38.2261C83.096 38.2261 82.7874 38.5022 82.5668 38.8396Z" fill="#FDD304"/>
</svg>
