<svg width="159" height="152" viewBox="0 0 159 152" fill="none" xmlns="http://www.w3.org/2000/svg">
<path fill-rule="evenodd" clip-rule="evenodd" d="M36.9963 0.920984C36.5121 2.27024 37.8267 4.53168 39.0957 4.53168C40.6927 4.53168 41.192 3.23791 40.2641 1.50706C39.3446 -0.208592 37.52 -0.535455 36.9963 0.920984ZM93.2551 1.13611C92.3181 3.57389 92.7245 4.64494 94.4913 4.39485C95.7427 4.21698 96.204 3.64307 96.204 2.26188C96.204 0.0757023 93.9874 -0.77034 93.2551 1.13611ZM56.703 4.97408C56.1062 6.5263 56.1062 11.6588 56.703 13.211C56.9572 13.8724 57.8136 14.4136 58.606 14.4136C59.8825 14.4136 60.0469 13.8062 60.0469 9.09255C60.0469 4.37889 59.8825 3.77153 58.606 3.77153C57.8136 3.77153 56.9572 4.31276 56.703 4.97408ZM73.4951 4.27855C72.7499 5.02197 72.8983 12.3361 73.6831 13.5744C74.053 14.1574 74.9048 14.425 75.5747 14.168C76.5201 13.8062 76.7934 12.5877 76.7934 8.73605C76.7934 4.42906 76.6084 3.77153 75.3981 3.77153C74.63 3.77153 73.7737 3.99958 73.4951 4.27855ZM39.9147 7.50841C39.2022 8.65927 40.8913 12.1331 42.1641 12.1331C43.7839 12.1331 44.3563 10.3019 43.3325 8.3917C42.4556 6.75586 40.6668 6.29294 39.9147 7.50841ZM89.899 8.65471C89.2382 10.1028 89.293 10.6927 90.157 11.4087C91.6421 12.6386 93.5398 11.0743 93.5398 8.61974C93.5398 6.18195 91.0156 6.20628 89.899 8.65471ZM26.8023 17.1455C26.2283 18.6377 32.8226 25.5049 34.0824 24.7272C35.6725 23.7459 34.9273 21.5635 32.0408 18.7487C28.9024 15.6891 27.5239 15.2665 26.8023 17.1455ZM101.342 19.0467C97.8855 22.405 97.3656 23.8485 99.3386 24.6049C100.822 25.1734 107.561 18.792 107.061 17.2915C106.42 15.3706 104.528 15.9514 101.342 19.0467ZM51.1036 18.6111C42.158 21.0557 35.3848 26.5569 31.4494 34.5742C29.3934 38.7618 28.545 39.1814 28.545 46.8878C28.545 54.4429 29.417 56.2444 31.2804 60.0223C32.4146 62.3218 35.4114 66.5284 37.9409 69.3706C40.4704 72.2128 42.5393 74.6118 42.5393 74.7023C42.5393 74.7927 43.2244 76.7387 44.0617 79.026C45.1145 81.9024 45.5841 85.0783 45.5841 89.3222C45.5841 96.0905 45.7204 96.374 50.9909 100.565C53.5836 102.626 55.2179 103.351 57.2769 103.351H60.0599L59.8627 60.5924L59.6663 17.8342L57.3827 17.6769C56.1268 17.5902 53.3012 18.0106 51.1036 18.6111ZM74.1817 18.1299C73.8148 18.7228 73.4015 90.6517 73.7021 101.64C73.7813 104.553 78.0174 103.935 82.8974 100.299C85.1506 98.621 87.2622 96.8248 87.591 96.3087C87.9191 95.7918 88.1931 92.2252 88.2 88.3826C88.2061 84.5401 88.5151 81.2084 88.8866 80.9796C89.2573 80.7508 89.7764 79.4167 90.0398 78.0157C90.3351 76.4445 92.4505 73.163 95.5585 69.4557C103.044 60.5271 104.601 57.2843 104.614 47.9231C104.623 40.9358 104.383 39.4794 102.177 34.9375C98.5089 27.3862 93.2985 22.4506 86.163 19.7658C81.4047 17.9756 74.8325 17.0779 74.1817 18.1299ZM50.3797 22.6612C37.1249 27.2661 29.6712 40.3437 32.9703 53.2046C34.4242 58.8715 36.1262 61.7919 41.4432 67.7424C43.6126 70.1703 45.8026 73.2747 46.3103 74.6415C48.0047 79.2077 48.2316 79.3962 52.323 79.6356L56.2409 79.8659V51.3202C56.2409 35.6209 56.2592 22.519 56.2813 22.2051C56.3566 21.1302 54.3349 21.2868 50.3797 22.6612ZM77.1641 22.1473C76.9494 22.7052 76.8642 35.8162 76.9738 51.2837L77.174 79.4061L81.1923 79.6364C85.2069 79.8667 85.2115 79.8644 86.3647 76.9759C88.2685 72.2067 88.9026 71.2246 92.9004 66.8636C95.0081 64.5642 97.6411 60.9725 98.7517 58.8821C100.55 55.4964 100.769 54.2505 100.762 47.4799C100.752 38.6311 99.3356 34.841 93.9798 29.3375C89.1484 24.3738 78.1201 19.6586 77.1641 22.1473ZM120.591 27.7967C119.647 28.7393 119.569 29.2592 120.249 30.0771C121.349 31.4013 121.812 31.4013 123.623 30.0787C124.854 29.1802 124.92 28.8373 124.056 27.7982C122.781 26.2635 122.127 26.2627 120.591 27.7967ZM9.80769 28.8054C9.80769 30.4899 12.6089 31.6841 13.7911 30.5036C15.0585 29.2379 13.8238 27.3361 11.7343 27.3361C10.3375 27.3361 9.80769 27.7397 9.80769 28.8054ZM16.1302 30.8669C15.5441 32.3925 17.7531 34.1774 20.2293 34.1774C22.6667 34.1774 22.5418 31.6332 20.0481 30.499C17.4471 29.3155 16.6996 29.3854 16.1302 30.8669ZM112.533 31.0136C110.652 32.5355 111.045 34.1774 113.291 34.1774C115.226 34.1774 118.264 31.5815 117.594 30.4998C116.785 29.1939 114.496 29.4265 112.533 31.0136ZM15.3264 46.1101C14.8034 46.3063 14.3749 47.1219 14.3749 47.9231C14.3749 49.2085 14.9534 49.3803 19.2778 49.3803C24.1586 49.3803 25.9695 48.4924 24.3626 46.8878C23.5009 46.0273 17.033 45.4701 15.3264 46.1101ZM109.286 46.0714C108.999 46.3587 108.764 47.22 108.764 47.9869C108.764 49.1956 109.422 49.3803 113.735 49.3803C117.592 49.3803 118.812 49.1074 119.175 48.1633C119.432 47.4944 119.229 46.6909 118.723 46.3785C117.526 45.6404 109.964 45.3941 109.286 46.0714ZM18.3712 62.806C17.8483 63.0173 17.4197 63.8451 17.4197 64.6463C17.4197 66.4273 20.568 66.6706 21.9595 64.9967C23.6159 63.0029 21.3368 61.611 18.3712 62.806ZM111.28 63.5532C110.775 64.8683 112.8 66.8636 114.643 66.8636C116.365 66.8636 116.753 64.4585 115.212 63.3328C113.321 61.9523 111.864 62.0337 111.28 63.5532ZM10.935 66.4106C9.77572 67.2642 9.63413 67.731 10.323 68.4288C11.6391 69.7628 15.3028 68.6682 14.9877 67.0354C14.6565 65.3198 12.803 65.034 10.935 66.4106ZM119.167 65.8504C118.079 66.9374 118.741 68.9883 120.314 69.3987C123.361 70.1946 124.504 67.5995 121.754 66.1301C120.02 65.2035 119.835 65.183 119.167 65.8504ZM139.022 75.657C136.321 77.0602 135.406 77.9717 135.406 79.2624C135.406 80.8024 134.773 81.1209 129.559 82.2095L123.712 83.4295L112.622 80.0963C106.523 78.2628 100.767 76.7592 99.8319 76.7547C97.221 76.741 93.4599 80.506 93.383 83.2106C93.2665 87.3511 94.2629 88.6433 101.55 93.8025C108.15 98.4743 108.764 99.1204 108.764 101.396C108.764 104.94 107.345 108.536 105.746 109.043C104.404 109.468 93.6905 106.894 91.0659 105.517C90.3336 105.132 89.7338 104.166 89.7338 103.369C89.7338 101.602 88.7556 100.909 87.1381 101.529C85.3112 102.229 85.6811 104.578 88.0211 107.13C89.6508 108.908 91.649 109.817 97.0451 111.239C100.857 112.243 104.855 112.896 105.929 112.691C108.889 112.126 110.98 109.377 111.946 104.779C113.31 98.2797 112.722 97.2201 104.614 91.5745C97.4897 86.6145 96.1035 84.9635 97.0322 82.547C97.9464 80.1677 100.895 80.3669 111.384 83.5184C122.774 86.9406 124.527 87.1162 131.219 85.5024C133.731 84.8966 136.212 84.3888 136.732 84.3744C137.253 84.3592 139.741 88.4571 142.263 93.4817L146.848 102.616L144.362 104.776C138.873 109.547 113.992 129.956 113.664 129.956C112.826 129.956 80.8125 116.785 79.2673 115.805C77.9968 114.998 77.5515 113.986 77.5431 111.885C77.5287 108.419 76.5863 106.777 74.9672 107.397C72.9782 108.159 73.3147 114.941 75.4613 117.35C77.6147 119.767 109.976 132.996 113.734 132.996C115.95 132.996 118.523 131.146 132.337 119.624L148.37 106.252L149.731 107.931L151.092 109.609L155.047 107.607C158.907 105.654 160.089 103.719 157.93 102.892C157.34 102.666 155.803 103.025 154.516 103.69L152.174 104.898L145.747 92.0777L139.319 79.2563L141.983 77.9876C143.705 77.1674 144.561 76.2758 144.403 75.4655C144.034 73.5651 142.978 73.6023 139.022 75.657ZM31.8825 79.8013C30.8359 80.1616 27.498 81.1749 24.4639 82.0529C20.0557 83.3292 18.7328 84.0665 17.8718 85.7282C17.0498 87.3169 9.04649 124.902 9.04649 127.177C9.04649 127.431 8.21678 127.323 7.2021 126.937C5.03953 126.116 4.7183 126.424 1.90566 132.021C-0.485271 136.777 -0.603257 138.317 1.42154 138.317C2.46895 138.317 3.52245 137.152 4.86217 134.513L6.79257 130.708L9.25201 131.773C13.7347 133.716 32.2593 142.244 32.4884 142.472C32.6117 142.594 31.9617 144.239 31.0437 146.126C29.353 149.601 29.471 152 31.3306 152C31.8909 152 33.5244 149.574 34.9608 146.611C37.4667 141.438 37.5146 141.179 36.1536 140.185C34.8154 139.208 34.9616 138.878 38.7348 134.362C42.5492 129.798 43.2358 129.354 53.4846 124.818C67.3925 118.661 69.6069 116.158 66.4806 110.121C64.6834 106.651 62.444 106.165 53.0317 107.203C43.9788 108.202 43.4368 108.048 41.2757 103.876C40.4719 102.323 40.2633 100.626 40.6013 98.377C41.1973 94.4068 39.9147 93.1647 37.8488 95.7127C35.9245 98.0859 36.0965 101.585 38.3619 106.124C41.0733 111.557 42.4 111.992 52.9495 110.906C62.565 109.916 64.1171 110.352 63.7015 113.927C63.4579 116.018 60.6955 117.628 46.2814 124.083C40.5389 126.654 39.4412 127.497 35.6885 132.219C32.5516 136.166 31.1533 137.383 30.112 137.072C25.799 135.787 12.4932 129.084 12.618 128.26C13.5924 121.823 20.6837 87.6247 21.1382 87.1709C21.4731 86.8365 25.1406 85.5929 29.2883 84.4063C35.5469 82.6169 36.8714 81.9761 37.0739 80.6383C37.2642 79.3764 36.9331 79.0389 35.5515 79.086C34.5802 79.1187 32.9292 79.441 31.8825 79.8013ZM49.3901 83.9669C49.3901 84.8115 50.2785 85.1071 52.8155 85.1071C55.3526 85.1071 56.2409 84.8115 56.2409 83.9669C56.2409 83.1224 55.3526 82.8267 52.8155 82.8267C50.2785 82.8267 49.3901 83.1224 49.3901 83.9669ZM77.3011 83.3337C76.0626 84.5697 77.0621 85.1071 80.5994 85.1071C83.4752 85.1071 84.4054 84.8282 84.4054 83.9669C84.4054 83.1285 83.5315 82.8267 81.1071 82.8267C79.2924 82.8267 77.5797 83.0548 77.3011 83.3337ZM49.3917 89.8581C49.3924 90.4761 50.589 90.8105 52.8171 90.8143C55.0626 90.8181 56.2409 90.4913 56.2409 89.8641C56.2409 89.2378 55.0596 88.9079 52.8155 88.9079C50.5822 88.9079 49.3909 89.2385 49.3917 89.8581ZM76.7934 89.668C76.7934 90.0861 77.735 90.4563 78.8867 90.4913C80.0384 90.5262 81.7511 90.6403 82.6927 90.7444C83.7074 90.8569 84.4054 90.5209 84.4054 89.9212C84.4054 89.2119 83.2628 88.9079 80.5994 88.9079C78.5061 88.9079 76.7934 89.2499 76.7934 89.668ZM49.3901 94.5428C49.3901 94.967 55.6586 99.5499 56.2379 99.5499C56.4899 99.5499 56.5568 98.3527 56.3856 96.8894C56.0826 94.2996 55.9852 94.2289 52.7326 94.2289C50.8943 94.2289 49.3901 94.3703 49.3901 94.5428ZM77.3011 94.7359C76.6739 95.3615 76.6236 99.5499 77.2425 99.5499C78.0257 99.5499 83.6107 95.3942 83.6282 94.799C83.648 94.0936 77.9999 94.0373 77.3011 94.7359Z" fill="#058FA2"/>
<path fill-rule="evenodd" clip-rule="evenodd" d="M93.2551 1.13611C92.3181 3.57389 92.7245 4.64494 94.4913 4.39485C95.7427 4.21698 96.204 3.64307 96.204 2.26188C96.204 0.0757023 93.9874 -0.77034 93.2551 1.13611ZM73.4951 4.27855C72.7499 5.02197 72.8983 12.3361 73.6831 13.5744C74.053 14.1574 74.9048 14.425 75.5747 14.168C76.5201 13.8062 76.7934 12.5877 76.7934 8.73605C76.7934 4.42906 76.6084 3.77153 75.3981 3.77153C74.63 3.77153 73.7737 3.99958 73.4951 4.27855ZM89.899 8.65471C89.2382 10.1028 89.293 10.6927 90.157 11.4087C91.6421 12.6386 93.5398 11.0743 93.5398 8.61974C93.5398 6.18195 91.0156 6.20628 89.899 8.65471ZM101.342 19.0467C97.8855 22.405 97.3656 23.8485 99.3386 24.6049C100.822 25.1734 107.561 18.792 107.061 17.2915C106.42 15.3706 104.528 15.9514 101.342 19.0467ZM74.1817 18.1299C73.8148 18.7228 73.4015 90.6517 73.7021 101.64C73.7813 104.553 78.0174 103.935 82.8974 100.299C85.1506 98.621 87.2622 96.8248 87.591 96.3087C87.9191 95.7918 88.1931 92.2252 88.2 88.3826C88.2061 84.5401 88.5151 81.2084 88.8866 80.9796C89.2573 80.7508 89.7764 79.4167 90.0398 78.0157C90.3351 76.4445 92.4505 73.163 95.5585 69.4557C103.044 60.5271 104.601 57.2843 104.614 47.9231C104.623 40.9358 104.383 39.4794 102.177 34.9375C98.5089 27.3862 93.2985 22.4506 86.163 19.7658C81.4047 17.9756 74.8325 17.0779 74.1817 18.1299ZM77.1641 22.1473C76.9494 22.7052 76.8642 35.8162 76.9738 51.2837L77.174 79.4061L81.1923 79.6364C85.2069 79.8667 85.2115 79.8644 86.3647 76.9759C88.2685 72.2067 88.9026 71.2246 92.9004 66.8636C95.0081 64.5642 97.6411 60.9725 98.7517 58.8821C100.55 55.4964 100.769 54.2505 100.762 47.4799C100.752 38.6311 99.3356 34.841 93.9798 29.3375C89.1484 24.3738 78.1201 19.6586 77.1641 22.1473ZM120.591 27.7967C119.647 28.7393 119.569 29.2592 120.249 30.0771C121.349 31.4013 121.812 31.4013 123.623 30.0787C124.854 29.1802 124.92 28.8373 124.056 27.7982C122.781 26.2635 122.127 26.2627 120.591 27.7967ZM112.533 31.0136C110.652 32.5355 111.045 34.1774 113.291 34.1774C115.226 34.1774 118.264 31.5815 117.594 30.4998C116.785 29.1939 114.496 29.4265 112.533 31.0136ZM109.286 46.0714C108.999 46.3587 108.764 47.22 108.764 47.9869C108.764 49.1956 109.422 49.3803 113.735 49.3803C117.592 49.3803 118.812 49.1074 119.175 48.1633C119.432 47.4944 119.229 46.6909 118.723 46.3785C117.526 45.6404 109.964 45.3941 109.286 46.0714ZM111.28 63.5532C110.775 64.8683 112.8 66.8636 114.643 66.8636C116.365 66.8636 116.753 64.4585 115.212 63.3328C113.321 61.9523 111.864 62.0337 111.28 63.5532ZM119.167 65.8504C118.079 66.9374 118.741 68.9883 120.314 69.3987C123.361 70.1946 124.504 67.5995 121.754 66.1301C120.02 65.2035 119.835 65.183 119.167 65.8504ZM139.022 75.657C136.321 77.0602 135.406 77.9717 135.406 79.2624C135.406 80.8024 134.773 81.1209 129.559 82.2095L123.712 83.4295L112.622 80.0963C106.523 78.2628 100.767 76.7592 99.8319 76.7547C97.221 76.741 93.4599 80.506 93.383 83.2106C93.2665 87.3511 94.2629 88.6433 101.55 93.8025C108.15 98.4743 108.764 99.1204 108.764 101.396C108.764 104.94 107.345 108.536 105.746 109.043C104.404 109.468 93.6905 106.894 91.0659 105.517C90.3336 105.132 89.7338 104.166 89.7338 103.369C89.7338 101.602 88.7556 100.909 87.1381 101.529C85.3112 102.229 85.6811 104.578 88.0211 107.13C89.6508 108.908 91.649 109.817 97.0451 111.239C100.857 112.243 104.855 112.896 105.929 112.691C108.889 112.126 110.98 109.377 111.946 104.779C113.31 98.2797 112.722 97.2201 104.614 91.5745C97.4897 86.6145 96.1035 84.9635 97.0322 82.547C97.9464 80.1677 100.895 80.3669 111.384 83.5184C122.774 86.9406 124.527 87.1162 131.219 85.5024C133.731 84.8966 136.212 84.3888 136.732 84.3744C137.253 84.3592 139.741 88.4571 142.263 93.4817L146.848 102.616L144.362 104.776C138.873 109.547 113.992 129.956 113.664 129.956C112.826 129.956 80.8125 116.785 79.2673 115.805C77.9968 114.998 77.5515 113.986 77.5431 111.885C77.5287 108.419 76.5863 106.777 74.9672 107.397C72.9782 108.159 73.3147 114.941 75.4613 117.35C77.6147 119.767 109.976 132.996 113.734 132.996C115.95 132.996 118.523 131.146 132.337 119.624L148.37 106.252L149.731 107.931L151.092 109.609L155.047 107.607C158.907 105.654 160.089 103.719 157.93 102.892C157.34 102.666 155.803 103.025 154.516 103.69L152.174 104.898L145.747 92.0777L139.319 79.2563L141.983 77.9876C143.705 77.1674 144.561 76.2758 144.403 75.4655C144.034 73.5651 142.978 73.6023 139.022 75.657ZM77.3011 83.3337C76.0626 84.5697 77.0621 85.1071 80.5994 85.1071C83.4752 85.1071 84.4054 84.8282 84.4054 83.9669C84.4054 83.1285 83.5315 82.8267 81.1071 82.8267C79.2924 82.8267 77.5797 83.0548 77.3011 83.3337ZM76.7934 89.668C76.7934 90.0861 77.735 90.4563 78.8867 90.4913C80.0384 90.5262 81.7511 90.6403 82.6927 90.7444C83.7074 90.8569 84.4054 90.5209 84.4054 89.9212C84.4054 89.2119 83.2628 88.9079 80.5994 88.9079C78.5061 88.9079 76.7934 89.2499 76.7934 89.668ZM77.3011 94.7359C76.6739 95.3615 76.6236 99.5499 77.2425 99.5499C78.0257 99.5499 83.6107 95.3942 83.6282 94.799C83.648 94.0936 77.9999 94.0373 77.3011 94.7359Z" fill="#FDD304"/>
</svg>
