<svg width="91" height="91" viewBox="0 0 91 91" fill="none" xmlns="http://www.w3.org/2000/svg">
<g clip-path="url(#clip0_2_27606)">
<path d="M68.6758 58.1971C72.0041 59.2735 76.1173 55.7724 77.864 50.3787C79.6108 44.9851 77.8544 40.2365 74.5261 39.1582" stroke="#058FA2" stroke-width="3" stroke-linecap="round" stroke-linejoin="round"/>
<path d="M29.6366 14.166L90.0273 33.7101L87.727 40.8155L48.1276 35.8474L25.0377 28.3728L29.6366 14.166Z" stroke="#FDC114" stroke-width="3" stroke-linecap="round" stroke-linejoin="round"/>
<path d="M74.5273 39.1584L68.3954 58.1041L20.4376 42.5819L25.0364 28.373L48.1265 35.8476L74.5273 39.1584Z" stroke="#058FA2" stroke-width="3" stroke-linecap="round" stroke-linejoin="round"/>
<path d="M42.1992 50.4601L33.7123 47.5146L31.7112 60.1321L36.3742 61.7526L42.1992 50.4601Z" stroke="#058FA2" stroke-width="3" stroke-linecap="round" stroke-linejoin="round"/>
<path d="M32.2131 70.42C29.5154 70.42 27.3285 68.2331 27.3285 65.5355C27.3285 62.8378 29.5154 60.6509 32.2131 60.6509C34.9108 60.6509 37.0977 62.8378 37.0977 65.5355C37.0977 68.2331 34.9108 70.42 32.2131 70.42Z" stroke="#058FA2" stroke-width="3" stroke-linecap="round" stroke-linejoin="round"/>
<path d="M28.168 63.2451H6.79552V69.074H28.168" stroke="#058FA2" stroke-width="3" stroke-linecap="round" stroke-linejoin="round"/>
<path d="M0.968026 53.5303H6.79688V76.8457H0.968026V53.5303Z" stroke="#058FA2" stroke-width="3" stroke-linecap="round" stroke-linejoin="round"/>
</g>
<defs>
<clipPath id="clip0_2_27606">
<rect width="91" height="91" fill="white" transform="matrix(-1 0 0 1 91 0)"/>
</clipPath>
</defs>
</svg>
