<svg width="120" height="120" viewBox="0 0 120 120" fill="none" xmlns="http://www.w3.org/2000/svg">
<path d="M112.5 71.25H7.5V80.625H112.5V71.25Z" stroke="#058FA2" stroke-width="2" stroke-miterlimit="10" stroke-linecap="round" stroke-linejoin="round"/>
<path d="M105 80.625H15V108.75H105V80.625Z" stroke="#FDC114" stroke-width="2" stroke-miterlimit="10" stroke-linecap="round" stroke-linejoin="round"/>
<path d="M39.3274 39.3279C41.8902 36.7651 41.8902 32.6099 39.3274 30.0471C36.7646 27.4843 32.6095 27.4843 30.0466 30.0471C27.4838 32.6099 27.4838 36.7651 30.0466 39.3279C32.6095 41.8907 36.7646 41.8907 39.3274 39.3279Z" stroke="#058FA2" stroke-width="2" stroke-miterlimit="10" stroke-linecap="round" stroke-linejoin="round"/>
<path d="M15 67.5V71.25H54.375V67.5V68.4375C54.375 57.5644 45.5606 48.75 34.6875 48.75C23.8144 48.75 15 57.5644 15 68.4375V67.5Z" stroke="#058FA2" stroke-width="2" stroke-miterlimit="10" stroke-linecap="round" stroke-linejoin="round"/>
<path d="M22.5 63.75H30C32.0711 63.75 33.75 65.4289 33.75 67.5C33.75 69.5711 32.0711 71.25 30 71.25H22.5" stroke="#058FA2" stroke-width="2" stroke-miterlimit="10" stroke-linecap="round" stroke-linejoin="round"/>
<path d="M46.875 63.75H39.375C37.3039 63.75 35.625 65.4289 35.625 67.5C35.625 69.5711 37.3039 71.25 39.375 71.25H46.875" stroke="#058FA2" stroke-width="2" stroke-miterlimit="10" stroke-linecap="round" stroke-linejoin="round"/>
<path d="M105 52.5H78.75V71.25H105V52.5Z" stroke="#058FA2" stroke-width="2" stroke-miterlimit="10" stroke-linecap="round" stroke-linejoin="round"/>
<path d="M91.875 30C97.0527 30 101.25 25.8027 101.25 20.625C101.25 15.4473 97.0527 11.25 91.875 11.25C86.6973 11.25 82.5 15.4473 82.5 20.625C82.5 25.8027 86.6973 30 91.875 30Z" stroke="#058FA2" stroke-width="2" stroke-miterlimit="10" stroke-linecap="round" stroke-linejoin="round"/>
<path d="M91.875 16.875V20.625" stroke="#058FA2" stroke-width="2" stroke-miterlimit="10" stroke-linecap="round" stroke-linejoin="round"/>
<path d="M90 20.625H91.875" stroke="#058FA2" stroke-width="2" stroke-miterlimit="10" stroke-linecap="round" stroke-linejoin="round"/>
</svg>
