<svg width="109" height="103" viewBox="0 0 109 103" fill="none" xmlns="http://www.w3.org/2000/svg">
<path d="M107 62H2V71.375H107V62Z" stroke="#058FA2" stroke-width="4" stroke-miterlimit="10" stroke-linecap="round" stroke-linejoin="round"/>
<path d="M104 73H6V101H104V73Z" stroke="#FDD304" stroke-width="4" stroke-miterlimit="10" stroke-linecap="round" stroke-linejoin="round"/>
<path d="M33.8274 30.0779C36.3902 27.5151 36.3902 23.3599 33.8274 20.7971C31.2646 18.2343 27.1095 18.2343 24.5466 20.7971C21.9838 23.3599 21.9838 27.5151 24.5466 30.0779C27.1095 32.6407 31.2646 32.6407 33.8274 30.0779Z" stroke="#058FA2" stroke-width="4" stroke-miterlimit="10" stroke-linecap="round" stroke-linejoin="round"/>
<path d="M9.5 58.25V62H48.875V58.25V59.1875C48.875 48.3144 40.0606 39.5 29.1875 39.5C18.3144 39.5 9.5 48.3144 9.5 59.1875V58.25Z" stroke="#058FA2" stroke-width="4" stroke-miterlimit="10" stroke-linecap="round" stroke-linejoin="round"/>
<path d="M17 54.5H24.5C26.5711 54.5 28.25 56.1789 28.25 58.25C28.25 60.3211 26.5711 62 24.5 62H17" stroke="#058FA2" stroke-width="2" stroke-miterlimit="10" stroke-linecap="round" stroke-linejoin="round"/>
<path d="M41.375 54.5H33.875C31.8039 54.5 30.125 56.1789 30.125 58.25C30.125 60.3211 31.8039 62 33.875 62H41.375" stroke="#058FA2" stroke-width="2" stroke-miterlimit="10" stroke-linecap="round" stroke-linejoin="round"/>
<path d="M99.5 43.25H73.25V62H99.5V43.25Z" stroke="#058FA2" stroke-width="4" stroke-miterlimit="10" stroke-linecap="round" stroke-linejoin="round"/>
<path d="M86.375 20.75C91.5527 20.75 95.75 16.5527 95.75 11.375C95.75 6.19733 91.5527 2 86.375 2C81.1973 2 77 6.19733 77 11.375C77 16.5527 81.1973 20.75 86.375 20.75Z" stroke="#FDD304" stroke-width="3" stroke-miterlimit="10" stroke-linecap="round" stroke-linejoin="round"/>
<path d="M86.375 7.625V11.375" stroke="#FDD304" stroke-width="2" stroke-miterlimit="10" stroke-linecap="round" stroke-linejoin="round"/>
<path d="M84.5 11.375H86.375" stroke="#FDD304" stroke-width="2" stroke-miterlimit="10" stroke-linecap="round" stroke-linejoin="round"/>
</svg>
