<svg width="178" height="92" viewBox="0 0 178 92" fill="none" xmlns="http://www.w3.org/2000/svg">
<path d="M87 46.3998V91.9998H89H91V46.3998V0.799759H89H87V46.3998Z" fill="#FDD304"/>
<path fill-rule="evenodd" clip-rule="evenodd" d="M18.194 7.32957C12.9952 7.53225 12.5038 7.61891 11.502 8.50936C9.84149 9.98495 9.3399 13.7057 9.32825 24.6293C9.32163 31.0353 9.0803 36.3638 8.75975 37.1884C8.67368 37.4096 8.21249 37.6971 7.73441 37.8272C5.87207 38.3349 2.51978 41.5031 1.31429 43.8948C0.332323 45.8433 0.173191 47.7189 0.04488 58.8569C-0.11608 72.8292 0.0629168 74.2346 2.1563 75.4347L3.05676 75.951L37.8779 75.9549C77.6034 75.9591 73.7694 76.1756 74.9102 73.8644C75.8043 72.0532 76.0027 69.7865 76 61.4051C75.9959 48.7799 75.3066 44.4892 72.7602 41.2346C71.95 40.1992 69.563 38.5418 67.3744 37.4951L65.9566 36.817V23.4833V10.1495L64.7566 9.23248C62.9501 7.85187 62.2305 7.54981 60.1814 7.31132C58.0403 7.06195 24.6817 7.07651 18.194 7.32957ZM15.5374 11.0191C13.0016 11.2898 12.6388 11.5523 12.4493 13.2546C12.3668 13.9948 12.2326 19.6183 12.1509 25.7513L12.0022 36.9021H37.5325H63.0629L62.918 24.0437C62.8383 16.9717 62.7444 11.1567 62.7095 11.1215C62.5328 10.9438 17.1675 10.8451 15.5374 11.0191ZM5.50769 43.434L2.7143 46.2685V54.6425V63.0168H38.0181H73.3217L73.1922 56.6037C73.0568 49.8915 72.8564 48.2121 71.8758 45.5701C71.5082 44.5798 70.9968 43.8158 70.0808 42.8886C68.9196 41.7132 68.6616 41.5658 67.3212 41.312C65.1006 40.8914 50.2743 40.6272 28.0534 40.6127L8.30108 40.5997L5.50769 43.434ZM2.79809 68.1589C2.87343 68.9534 2.99991 70.3421 3.07937 71.245L3.22343 72.8866L30.003 73.0566C59.7179 73.2452 70.87 73.1128 72.0598 72.557C72.9849 72.1248 73.2596 71.2254 73.2611 68.6211L73.2625 66.7145H37.9619H2.6611L2.79809 68.1589Z" fill="#058FA2"/>
<rect x="23.0078" y="21.5375" width="31.4151" height="17.0755" stroke="#FDD304" stroke-width="3"/>
<rect x="3.86719" y="76.962" width="15.2075" height="8.03773" stroke="#FDD304" stroke-width="2"/>
<rect x="56.9219" y="76.962" width="15.2075" height="8.03773" stroke="#FDD304" stroke-width="2"/>
<path fill-rule="evenodd" clip-rule="evenodd" d="M120.194 7.32957C114.995 7.53225 114.504 7.61891 113.502 8.50936C111.841 9.98495 111.34 13.7057 111.328 24.6293C111.322 31.0353 111.08 36.3638 110.76 37.1884C110.674 37.4096 110.212 37.6971 109.734 37.8272C107.872 38.3349 104.52 41.5031 103.314 43.8948C102.332 45.8433 102.173 47.7189 102.045 58.8569C101.884 72.8292 102.063 74.2346 104.156 75.4347L105.057 75.951L139.878 75.9549C179.603 75.9591 175.769 76.1756 176.91 73.8644C177.804 72.0532 178.003 69.7865 178 61.4051C177.996 48.7799 177.307 44.4892 174.76 41.2346C173.95 40.1992 171.563 38.5418 169.374 37.4951L167.957 36.817V23.4833V10.1495L166.757 9.23248C164.95 7.85187 164.231 7.54981 162.181 7.31132C160.04 7.06195 126.682 7.07651 120.194 7.32957ZM117.537 11.0191C115.002 11.2898 114.639 11.5523 114.449 13.2546C114.367 13.9948 114.233 19.6183 114.151 25.7513L114.002 36.9021H139.532H165.063L164.918 24.0437C164.838 16.9717 164.744 11.1567 164.71 11.1215C164.533 10.9438 119.168 10.8451 117.537 11.0191ZM107.508 43.434L104.714 46.2685V54.6425V63.0168H140.018H175.322L175.192 56.6037C175.057 49.8915 174.856 48.2121 173.876 45.5701C173.508 44.5798 172.997 43.8158 172.081 42.8886C170.92 41.7132 170.662 41.5658 169.321 41.312C167.101 40.8914 152.274 40.6272 130.053 40.6127L110.301 40.5997L107.508 43.434ZM104.798 68.1589C104.873 68.9534 105 70.3421 105.079 71.245L105.223 72.8866L132.003 73.0566C161.718 73.2452 172.87 73.1128 174.06 72.557C174.985 72.1248 175.26 71.2254 175.261 68.6211L175.263 66.7145H139.962H104.661L104.798 68.1589Z" fill="#058FA2"/>
<rect x="125.008" y="21.5375" width="31.4151" height="17.0755" stroke="#FDD304" stroke-width="3"/>
<rect x="105.867" y="76.962" width="15.2075" height="8.03773" stroke="#FDD304" stroke-width="2"/>
<rect x="158.922" y="76.962" width="15.2075" height="8.03773" stroke="#FDD304" stroke-width="2"/>
</svg>
