<svg width="135" height="172" viewBox="0 0 135 172" fill="none" xmlns="http://www.w3.org/2000/svg">
<path d="M61.2996 0.458954C58.1458 1.26524 37.1768 9.0929 34.1237 10.6047C23.5888 15.8791 14.4966 24.2443 6.98129 35.5322C3.9953 40.0004 0.036335 47.8616 0.00278448 49.407C-0.030766 50.1461 0.237638 50.6836 0.875098 51.2548C2.75393 52.8673 4.09595 51.8931 6.00833 47.6601C12.1816 33.7517 24.2263 20.952 36.8077 14.9049C38.4852 14.0986 44.8934 11.5789 51.0667 9.32806C61.7357 5.43103 62.4403 5.19587 64.8224 5.19587C66.7348 5.19587 67.7077 5.39743 68.9156 5.96855C70.7944 6.87562 72.7068 8.85773 73.512 10.8062C74.1494 12.318 75.3908 17.0549 75.1895 17.2229C75.1224 17.2901 69.4859 19.373 62.6416 21.859L50.2279 26.3944L49.2214 25.5881C46.7722 23.6396 46.5038 23.606 42.981 24.9834C39.0556 26.4952 32.8152 29.7539 29.9298 31.8032C23.9579 36.0362 17.9859 41.7473 12.752 48.2984C9.73244 52.061 9.43048 52.565 9.59823 53.5056C9.83309 54.7486 10.9067 55.7229 12.0474 55.7229C13.0539 55.7229 14.2282 54.5471 17.8181 50.0789C22.9513 43.6959 30.0976 37.3464 36.2709 33.7181C39.0891 32.0719 44.6921 29.5187 45.4637 29.5187C45.665 29.5187 46.5374 30.0562 47.3426 30.6945C48.2149 31.4 49.1878 31.8704 49.7247 31.8704C50.5634 31.8704 50.7312 32.0719 51.5699 34.4572C52.5765 37.38 53.4823 38.5894 54.6566 38.5894C55.5624 38.5894 77.3703 30.7281 78.4774 29.9891C79.7524 29.1828 79.7524 28.0741 78.6116 24.9162C78.0413 23.3372 77.6387 21.9598 77.7058 21.8926C77.7729 21.7918 78.3432 21.4895 78.9807 21.1871C80.9602 20.1793 81.0273 19.5074 79.7859 14.4009C78.3768 8.62257 77.5716 7.01 75.0217 4.38958C71.2641 0.593334 66.3322 -0.817657 61.2996 0.458954ZM73.6126 26.5288C73.4113 26.6967 69.4859 28.1413 59.6892 31.6688L56.4348 32.8446L55.9315 31.6352C55.6295 30.9633 55.4618 30.2578 55.5289 30.0898C55.5624 29.9219 59.4543 28.3765 64.1514 26.6631L72.7068 23.5724L73.2771 24.9498C73.5791 25.6889 73.7133 26.428 73.6126 26.5288Z" fill="#058FA2"/>
<path d="M75.7594 33.2479C74.8199 33.987 74.6186 35.1292 75.2896 36.3387C76.1284 37.9512 82.0333 45.5101 82.7043 45.8797C83.8115 46.518 84.5496 46.3836 85.4555 45.4765C86.8981 44.0655 86.5962 43.2929 82.6037 37.884C80.5571 35.1628 78.6447 32.8448 78.3763 32.744C77.4369 32.3744 76.6652 32.5424 75.7594 33.2479Z" fill="#FDC114"/>
<path d="M66.5662 36.6745C66.1636 37.1113 65.8281 37.8168 65.8281 38.2871C65.8281 38.7574 66.9688 42.2177 68.3444 46.014C70.8943 53.069 71.4982 54.0432 73.1086 54.0432C74.0816 54.0432 75.5578 52.6658 75.5578 51.7587C75.5578 50.6501 70.6258 37.4808 69.9213 36.6745C69.0154 35.6667 67.5057 35.6667 66.5662 36.6745Z" fill="#FDC114"/>
<path d="M57.5085 39.5973C56.133 40.1684 55.9987 41.1426 56.3343 46.8538C56.6027 51.7587 56.7033 52.1618 57.4079 52.7329C58.4479 53.5728 59.8235 53.5392 60.7965 52.6322C61.5681 51.9267 61.5681 51.8595 61.3333 46.753C61.1991 43.8974 60.9307 41.2098 60.7294 40.7731C60.5281 40.3364 59.9242 39.7988 59.3538 39.5973C58.817 39.4293 58.3473 39.2613 58.3137 39.2949C58.2802 39.2949 57.9447 39.4293 57.5085 39.5973Z" fill="#FDC114"/>
<path d="M93.7423 42.4865C92.8029 43.1584 92.7023 45.2749 93.6081 46.0811C93.9436 46.3835 95.5876 46.8874 97.2316 47.1562C111.222 49.6086 122.294 59.1496 126.555 72.4197C128.4 78.1981 128.4 77.9629 128.4 111.02V141.592L127.394 143.608C126.588 145.153 125.951 145.892 124.374 146.967C122.562 148.177 122.361 148.445 122.26 149.588C122.126 151.267 122.898 152.141 124.542 152.141C125.515 152.141 126.286 151.771 127.83 150.663C130.111 148.949 131.654 146.9 132.728 144.145C133.433 142.23 133.433 142.13 133.433 110.987C133.433 87.7391 133.332 79.1387 133.03 77.3582C132.292 73.2596 130.95 69.1274 129.071 65.2975C123.3 53.4721 112.564 45.1741 99.5801 42.4865C96.3928 41.8146 94.6818 41.8146 93.7423 42.4865Z" fill="#058FA2"/>
<path d="M49.5546 61.9044C47.5751 63.8865 44.7904 71.1431 43.8845 76.7199C43.3813 79.7098 43.3142 83.6068 43.4148 111.659L43.5155 143.238L44.5891 145.489C45.7634 148.009 47.9442 150.394 50.0243 151.435C51.8025 152.342 52.5741 152.309 53.5806 151.301C54.6207 150.293 54.6543 148.949 53.6813 148.076C53.2451 147.74 52.2051 146.799 51.2992 146.027C48.179 143.305 48.3803 145.926 48.3803 110.819C48.3803 84.0772 48.4474 79.609 48.9171 77.1902C49.5546 73.7299 50.8966 69.7657 52.5406 66.5741C53.9833 63.7186 54.0168 63.0131 52.9096 61.938C51.8696 60.863 50.5947 60.863 49.5546 61.9044Z" fill="#058FA2"/>
<path d="M95.6211 77.123C95.3192 77.459 94.6817 78.5676 94.1784 79.5755C90.3537 87.2015 83.3752 93.6518 75.625 96.6754C71.0286 98.4895 69.0491 98.7919 61.0305 99.027C53.4817 99.2286 53.3475 99.2286 52.71 100.035C51.1331 101.983 52.4751 104.1 55.3269 104.1H57.0045L57.2058 110.046C57.4071 116.362 57.8097 118.579 59.353 122.476C62.037 129.229 67.5058 135.007 74.1488 138.031L75.927 138.837L75.8263 142.701L75.7257 146.564L73.0416 147.303C62.7416 150.159 53.683 155.5 46.5031 162.958C42.2758 167.359 41.6719 168.166 41.6719 169.409C41.6719 170.249 41.9067 170.753 42.5442 171.256C44.2217 172.567 44.9598 172.197 48.4155 168.267C55.3605 160.405 65.694 154.123 75.2224 151.939C79.8524 150.864 79.953 150.831 80.4563 149.621C80.7582 148.849 80.926 147.169 80.926 144.515V140.551H88.4748H96.0237V145.153C96.0237 150.696 96.0573 150.763 100.15 151.637C107.431 153.216 115.651 157.147 121.69 161.984C122.629 162.69 125.246 165.243 127.561 167.628C132.091 172.264 132.862 172.701 134.271 171.29C135.546 170.013 135.177 168.569 132.963 166.016C128.903 161.279 123.334 156.475 118.771 153.787C113.94 150.898 106.089 147.639 102.264 146.934L101.056 146.698V142.667V138.669L102.935 137.829C109.276 135.041 114.711 129.128 117.53 122.006C119.274 117.572 119.543 114.85 119.442 102.252L119.341 90.9306L118.503 90.2587C117.832 89.7212 117.395 89.6204 116.154 89.7884C112.262 90.3595 111.39 90.3931 109.712 89.9899C107.263 89.3852 105.586 88.5118 103.673 86.6976C101.828 84.9843 100.251 81.9607 99.882 79.4747C99.7814 78.5676 99.3788 77.5598 99.0097 77.1902C98.2045 76.3839 96.3257 76.3503 95.6211 77.123ZM99.7143 89.9899C102.969 93.2487 106.861 94.962 111.558 95.2644L114.477 95.4659V104.469C114.477 114.246 114.175 116.799 112.665 120.561C109.914 127.281 104.21 132.488 97.0302 134.739C94.7488 135.444 93.91 135.511 88.1393 135.511C82.0667 135.478 81.6305 135.444 79.0807 134.537C72.2364 132.185 67.0361 127.516 64.3185 121.368C62.9094 118.176 62.4396 115.69 62.2383 110.013C62.0035 103.932 61.9364 104.1 64.8553 104.1C65.8953 104.1 68.009 103.865 69.5524 103.596C79.5169 101.748 88.6762 96.1714 94.5139 88.3774L96.527 85.7234L97.4664 87.168C97.9696 87.9742 98.9762 89.2508 99.7143 89.9899Z" fill="#058FA2"/>
</svg>
