<svg width="84" height="80" viewBox="0 0 84 80" fill="none" xmlns="http://www.w3.org/2000/svg">
<path d="M80.4582 69.3907H73.5901C74.1401 68.0697 74.3255 66.5654 74.1184 65.1041C73.9113 63.6427 73.323 62.3034 72.4418 61.2876C72.4814 61.2391 72.5227 61.195 72.5605 61.1465C73.0905 60.4972 73.5089 59.7238 73.7906 58.8723C74.0723 58.0208 74.2117 57.1086 74.2005 56.1897C74.1892 55.2709 74.0276 54.3642 73.7252 53.5234C73.4228 52.6827 72.9858 51.925 72.4401 51.2955C72.4814 51.2492 72.5227 51.2029 72.5605 51.1544C73.0905 50.5052 73.5088 49.732 73.7905 48.8807C74.0722 48.0294 74.2116 47.1173 74.2003 46.1987C74.1891 45.28 74.0275 44.3735 73.7251 43.5329C73.4227 42.6923 72.9857 41.9349 72.4401 41.3055L72.5605 41.1644C73.0914 40.5153 73.5106 39.7418 73.7929 38.89C74.0753 38.0381 74.2151 37.1253 74.204 36.2059C74.1929 35.2864 74.0312 34.3791 73.7285 33.5378C73.4258 32.6965 72.9882 31.9386 72.4418 31.309L72.5622 31.1679C73.3454 30.2078 73.8789 28.9845 74.0954 27.6525C74.3119 26.3206 74.2016 24.9398 73.7785 23.6848C73.3554 22.4297 72.6384 21.3566 71.7183 20.6013C70.7981 19.8459 69.7161 19.4421 68.6089 19.4409H58.0839V13.7582C58.083 12.5215 57.6821 11.3358 56.9692 10.4613C56.2563 9.58687 55.2897 9.09508 54.2815 9.09391H50.1484C49.9699 6.611 49.0396 4.30019 47.541 2.61692C46.0424 0.933641 44.0841 0 42.0521 0C40.0202 0 38.0619 0.933641 36.5633 2.61692C35.0646 4.30019 34.1344 6.611 33.9558 9.09391H29.8227C28.8147 9.09566 27.8484 9.58764 27.1356 10.462C26.4228 11.3363 26.0217 12.5217 26.0203 13.7582V19.4387H15.3804C14.2574 19.4359 13.1598 19.8476 12.2301 20.6202C11.3005 21.3928 10.5819 22.4907 10.1677 23.771C9.75346 25.0513 9.66286 26.4549 9.90764 27.7993C10.1524 29.1436 10.7213 30.3665 11.5402 31.309C11.5007 31.3553 11.4593 31.3993 11.4198 31.4478C10.8897 32.0972 10.4714 32.8706 10.1897 33.722C9.90793 34.5735 9.76855 35.4858 9.77978 36.4046C9.79101 37.3235 9.95262 38.2302 10.255 39.0709C10.5574 39.9117 10.9945 40.6693 11.5402 41.2989C11.5007 41.3452 11.4593 41.3893 11.4198 41.4378C10.8897 42.0871 10.4714 42.8605 10.1897 43.712C9.90793 44.5635 9.76855 45.4757 9.77978 46.3946C9.79101 47.3134 9.95262 48.2201 10.255 49.0609C10.5574 49.9016 10.9945 50.6593 11.5402 51.2888L11.4198 51.4299C10.8896 52.0793 10.4712 52.8527 10.1895 53.7043C9.90778 54.5559 9.76848 55.4683 9.77988 56.3872C9.79128 57.3061 9.95314 58.2129 10.2558 59.0536C10.5586 59.8943 10.9959 60.6517 11.542 61.281C10.659 62.2982 10.0697 63.64 9.86287 65.1041C9.65607 66.5681 9.84302 68.075 10.3955 69.3973H3.52744C3.12248 69.3978 2.73425 69.5954 2.4479 69.9467C2.16155 70.2979 2.00048 70.7742 2 71.2709C2.0019 73.5849 2.75199 75.8035 4.08571 77.44C5.41943 79.0764 7.22787 79.9971 9.11427 80H74.8714C76.7578 79.9971 78.5662 79.0764 79.8999 77.44C81.2337 75.8035 81.9837 73.5849 81.9856 71.2709C81.9861 71.0244 81.947 70.7802 81.8704 70.5522C81.7939 70.3243 81.6815 70.117 81.5396 69.9424C81.3978 69.7678 81.2293 69.6292 81.0437 69.5345C80.8581 69.4398 80.6592 69.3909 80.4582 69.3907ZM71.1498 46.2983C71.1493 47.1263 70.8809 47.9202 70.4034 48.5055C69.9259 49.0908 69.2785 49.4196 68.6035 49.4196H54.9356V43.1682H68.6035C68.9383 43.1684 69.2697 43.2497 69.5789 43.4071C69.8881 43.5646 70.1689 43.7953 70.4054 44.086C70.6419 44.3767 70.8293 44.7217 70.9571 45.1013C71.0848 45.4809 71.1503 45.8876 71.1498 46.2983ZM71.1498 36.3083C71.1493 37.1364 70.8809 37.9303 70.4034 38.5156C69.9259 39.1009 69.2785 39.4296 68.6035 39.4296H54.9356V33.1782H68.6035C69.2784 33.1788 69.9255 33.5078 70.4029 34.0929C70.8802 34.6781 71.1489 35.4717 71.1498 36.2995V36.3083ZM71.1498 26.3184C71.1493 27.1464 70.8809 27.9403 70.4034 28.5256C69.9259 29.1109 69.2785 29.4397 68.6035 29.4397H54.9356V23.1861H68.6035C69.2787 23.1867 69.9261 23.5159 70.4035 24.1016C70.8809 24.6872 71.1493 25.4814 71.1498 26.3096V26.3184ZM42.0476 3.75507C43.2693 3.75484 44.4502 4.29429 45.3742 5.2747C46.2982 6.25511 46.9034 7.61089 47.0792 9.09391H46.2687C46.0145 7.96181 47.9703 11.343 46 8.5C45.2389 7.78775 47.6313 9.0956 46.674 9.09391C46.5072 9.09391 45.6179 8.85531 45.5 9C45.382 9.14469 46 8.77745 46 8.98207C50.5741 12.1885 50.3506 11.0275 45.6919 8.40099C45.8099 8.54568 49.7501 11.26 45.6919 8.95343C45.1776 8.5256 46.3134 8.9544 45.6919 8.95343C46.2063 9.38125 44.7101 8.38609 44.9408 9.09391H37.034C37.2093 7.61463 37.812 6.26182 38.7322 5.2819C39.6525 4.30197 40.829 3.76012 42.0476 3.75507ZM29.0662 13.7582C29.0667 13.5152 29.1456 13.2823 29.2857 13.1105C29.4258 12.9386 29.6156 12.8418 29.8137 12.8412H54.2815C54.4798 12.8412 54.6699 12.9378 54.8101 13.1098C54.9503 13.2818 55.0291 13.515 55.0291 13.7582V19.4387H53.4118C53.0068 19.4393 52.6186 19.6369 52.3322 19.9882C52.0459 20.3394 51.8848 20.8157 51.8843 21.3124V50.1889C51.8849 50.3197 51.8641 50.4494 51.8232 50.5702C51.7806 50.6893 51.7196 50.7971 51.6435 50.8877C51.6062 50.9336 51.5653 50.975 51.5213 51.0111C51.3661 51.1373 51.1802 51.194 50.9949 51.1715C50.8096 51.149 50.6363 51.0487 50.5042 50.8877C50.4287 50.7966 50.3677 50.6889 50.3245 50.5702C50.2831 50.4495 50.2617 50.3199 50.2617 50.1889V21.3124C50.2617 20.8155 50.1007 20.3389 49.8143 19.9875C49.5278 19.6361 49.1393 19.4387 48.7342 19.4387H44.1645C43.7595 19.4393 43.3713 19.6369 43.0849 19.9882C42.7986 20.3394 42.6375 20.8157 42.637 21.3124V40.4326C42.637 40.4546 42.637 40.4745 42.637 40.4943C42.6351 40.5762 42.623 40.6572 42.6011 40.7346C42.5622 40.8845 42.4944 41.0206 42.4034 41.1314C42.3661 41.1773 42.3252 41.2187 42.2812 41.2548C42.1488 41.3633 41.993 41.4209 41.8338 41.4201C41.7732 41.4192 41.7129 41.4096 41.6541 41.3915C41.5086 41.3505 41.3754 41.2604 41.2695 41.1314C41.2356 41.0929 41.2037 41.0517 41.1743 41.0079C41.1244 40.9241 41.0856 40.8311 41.0593 40.7324C41.0386 40.6539 41.0265 40.5723 41.0233 40.4899C41.0242 40.4694 41.0242 40.4488 41.0233 40.4282V21.3124C41.0233 20.8155 40.8624 20.3389 40.576 19.9875C40.2895 19.6361 39.901 19.4387 39.4959 19.4387H31.8048V14.8472C31.8048 14.6425 31.7385 14.4463 31.6206 14.3016C31.5026 14.1569 31.3427 14.0757 31.1759 14.0757C31.0091 14.0757 30.8491 14.1569 30.7311 14.3016C30.6132 14.4463 30.5469 14.6425 30.5469 14.8472V19.4387H29.0662V13.7582ZM47.2158 29.4309H45.6919V23.1861H47.2158V29.4309ZM45.6919 33.1782H47.2158V39.4208H45.6919V33.1782ZM12.834 26.3096C12.834 25.4812 13.1023 24.6867 13.5798 24.1009C14.0574 23.5152 14.705 23.1861 15.3804 23.1861H37.9721V29.4309H15.3804C14.7055 29.4303 14.0584 29.1013 13.581 28.5162C13.1036 27.931 12.835 27.1374 12.834 26.3096ZM12.834 36.2995C12.8338 35.8894 12.8995 35.4832 13.0274 35.1042C13.1553 34.7252 13.3429 34.3809 13.5794 34.091C13.8159 33.8011 14.0967 33.5712 14.4058 33.4146C14.7148 33.258 15.046 33.1776 15.3804 33.1782H37.9721V39.4208H15.3804C14.7055 39.4202 14.0584 39.0913 13.581 38.5061C13.1036 37.9209 12.835 37.1274 12.834 36.2995ZM12.834 46.2895C12.8338 45.8793 12.8995 45.4731 13.0274 45.0941C13.1553 44.7152 13.3429 44.3709 13.5794 44.0809C13.8159 43.791 14.0967 43.5612 14.4058 43.4045C14.7148 43.2479 15.046 43.1676 15.3804 43.1682H38.6819L38.7106 43.2122C38.7573 43.2894 38.8041 43.3643 38.8526 43.4327L38.9065 43.512C38.9694 43.6024 39.0341 43.6906 39.1024 43.7743C39.7477 44.5683 40.6023 45.0548 41.5132 45.1469C42.4241 45.239 43.332 44.9306 44.0746 44.2769C44.2483 44.1274 44.4112 43.96 44.5616 43.7765C44.6317 43.6906 44.6982 43.6024 44.7611 43.5098L44.8096 43.4393C44.8617 43.3621 44.9138 43.2806 44.9623 43.1968L44.9839 43.1637H47.2158V49.4064H15.3804C14.7073 49.4058 14.0619 49.0786 13.5848 48.4963C13.1077 47.914 12.8378 47.1238 12.834 46.2983V46.2895ZM48.0747 53.1581L48.0837 53.1713C48.1664 53.2948 48.2544 53.4138 48.3461 53.5284C49.0233 54.3585 49.9277 54.8506 50.8839 54.9092C51.8401 54.9679 52.78 54.5889 53.5214 53.8458C53.6207 53.7465 53.7155 53.6405 53.8053 53.5284C53.8988 53.4138 53.985 53.2948 54.0677 53.1713L54.0784 53.1581H68.6035C69.2783 53.1581 69.9255 53.4869 70.4027 54.0723C70.8799 54.6577 71.148 55.4516 71.148 56.2794C71.148 57.1072 70.8799 57.9011 70.4027 58.4865C69.9255 59.0719 69.2783 59.4007 68.6035 59.4007H15.3804C14.7055 59.4007 14.0583 59.0719 13.5811 58.4865C13.1039 57.9011 12.8358 57.1072 12.8358 56.2794C12.8358 55.4516 13.1039 54.6577 13.5811 54.0723C14.0583 53.4869 14.7055 53.1581 15.3804 53.1581H48.0747ZM12.8358 66.2693C12.8363 65.4417 13.1045 64.6481 13.5816 64.0629C14.0587 63.4777 14.7057 63.1486 15.3804 63.148H68.6053C69.2801 63.148 69.9273 63.4769 70.4045 64.0622C70.8817 64.6476 71.1498 65.4415 71.1498 66.2693C71.1498 67.0972 70.8817 67.8911 70.4045 68.4764C69.9273 69.0618 69.2801 69.3907 68.6053 69.3907H15.3804C14.7057 69.3901 14.0587 69.061 13.5816 68.4758C13.1045 67.8906 12.8363 67.097 12.8358 66.2693ZM74.8714 76.2461H9.11427C8.30656 76.245 7.51742 75.9488 6.84753 75.3952C6.17765 74.8416 5.65741 74.0558 5.35318 73.138H78.6325C78.3278 74.0555 77.8075 74.841 77.1377 75.3945C76.4679 75.948 75.679 76.2444 74.8714 76.2461Z" fill="#058FA2"/>
<path d="M81.6914 71H2.80989C2.006 74.2768 5.48951 76.6889 7.33176 77.4854C28.0989 77.9405 70.8389 78.5094 75.6622 77.1441C80.4856 75.7787 81.6914 72.4791 81.6914 71Z" stroke="#F9BF02" stroke-width="4"/>
<circle cx="42" cy="7" r="5" stroke="#F9BF02" stroke-width="4"/>
</svg>
