<svg width="96" height="70" viewBox="0 0 96 70" fill="none" xmlns="http://www.w3.org/2000/svg">
<mask id="path-1-outside-1_3305_8436" maskUnits="userSpaceOnUse" x="0" y="0" width="96" height="70" fill="black">
<rect fill="white" width="96" height="70"/>
<path fill-rule="evenodd" clip-rule="evenodd" d="M28.2851 1.03088C28.052 1.07124 27.3271 1.19164 26.6743 1.29852C25.0794 1.55933 23.288 2.16406 21.6143 3.0065C10.9138 8.39176 7.71654 22.3438 14.9911 31.9086C16.1195 33.3922 18.6046 35.6497 20.1274 36.5744C21.7754 37.575 24.1696 38.5727 25.9132 38.9851C27.5938 39.3827 31.0885 39.5159 32.8852 39.2508C39.9742 38.2054 46.1377 33.0084 48.2806 26.2697C49.2319 23.2786 49.4779 19.5582 48.9165 16.657C47.1822 7.69417 39.8204 1.33358 30.8286 1.02917C29.6628 0.98966 28.5183 0.990344 28.2851 1.03088ZM27.0828 3.242C23.558 3.91667 20.3577 5.66775 17.906 8.26315C9.88014 16.7589 12.2303 30.3959 22.6235 35.6391C24.9306 36.8028 26.6457 37.2225 29.4721 37.3147C32.2503 37.4054 34.1952 37.1042 36.3401 36.2513C40.3303 34.6646 43.9933 31.1357 45.7504 27.1859C46.9625 24.4613 47.4742 21.0731 47.1074 18.2018C46.191 11.0284 41.2159 5.33033 34.2495 3.47561C32.5226 3.01574 28.8839 2.89722 27.0828 3.242ZM28.2955 6.07136C22.8928 6.82265 18.5023 10.5244 16.7396 15.814C16.0388 17.9171 15.8731 20.7584 16.3199 23.0082C17.0509 26.6896 19.2029 29.9191 22.3312 32.0295C24.0283 33.1745 25.6856 33.8411 27.7278 34.2003C29.5672 34.5238 30.7434 34.5221 32.6145 34.1929C41.5072 32.6289 46.5913 23.1963 43.1482 14.6497C41.9163 11.5919 39.1635 8.73089 36.0304 7.25208C33.8676 6.23143 30.6627 5.74231 28.2955 6.07136ZM27.0982 8.39056C22.8934 9.51707 19.353 13.1548 18.3753 17.3532C17.9324 19.2553 17.9223 19.2344 19.2887 19.2344C20.3132 19.2344 20.5004 19.2839 20.73 19.6146C21.3667 20.5313 20.7872 21.1547 19.204 21.2564C17.9297 21.3382 17.9509 21.2829 18.4459 23.2348C19.3147 26.661 21.7611 29.6448 24.9787 31.2024C26.1117 31.7509 28.2711 32.403 28.9544 32.403C29.0621 32.403 29.133 31.9378 29.133 31.2324C29.133 29.9338 29.397 29.4957 30.1798 29.4957C30.8962 29.4957 31.1677 29.9812 31.1677 31.2621C31.1677 31.9467 31.2391 32.403 31.3462 32.403C31.4444 32.403 32.0738 32.2782 32.7451 32.1258C37.2559 31.1009 40.8742 27.4891 41.9346 22.9528C42.3273 21.2725 42.3333 21.2867 41.2454 21.2867C39.9269 21.2867 39.3148 20.9301 39.3092 20.1588C39.3044 19.5059 39.8238 19.2344 41.0772 19.2344H42.2276L42.1086 18.4339C41.4151 13.7693 38.0673 9.90666 33.4813 8.47984C32.8419 8.28094 32.0599 8.11813 31.7433 8.11813H31.1677L31.1651 9.18701C31.1623 10.3694 31.0971 10.5345 30.5106 10.8462C30.1668 11.0291 30.0428 11.0114 29.6628 10.726C29.272 10.4325 29.2116 10.2531 29.1675 9.2549L29.1175 8.11813L28.5741 8.12942C28.2753 8.13557 27.6111 8.25306 27.0982 8.39056ZM29.5041 12.7423C29.1489 13.076 29.133 13.2231 29.133 16.1628V19.2344H27.2798C25.2291 19.2344 24.8939 19.3774 24.8939 20.2518C24.8939 21.0532 25.2556 21.1952 27.468 21.2621C28.5754 21.2956 29.7439 21.2734 30.0647 21.2126C31.1616 21.005 31.1677 20.9811 31.1677 16.8403V13.1025L30.7209 12.7482C30.1629 12.3054 29.9701 12.3044 29.5041 12.7423ZM61.3265 16.3298C61.1739 16.4198 60.9986 16.7646 60.937 17.096C60.8753 17.4274 60.5996 18.1789 60.3244 18.7659C59.7236 20.0465 59.6818 21.0462 60.1831 22.1418C61.0718 24.0839 61.0728 24.0972 60.417 25.5624C59.7528 27.046 59.6633 27.9283 60.1336 28.3575C60.7831 28.9505 61.8582 28.4754 61.8582 27.5956C61.8582 27.439 62.1034 26.7828 62.403 26.1372C63.1237 24.5846 63.1221 23.6647 62.3963 22.0754C61.7492 20.6587 61.7411 20.4822 62.2745 19.4207C62.5034 18.9651 62.7795 18.2369 62.8878 17.8025C63.0555 17.1309 63.0435 16.9484 62.8069 16.5843C62.5138 16.133 61.8533 16.0196 61.3265 16.3298ZM69.0137 16.3613C68.9018 16.4742 68.8102 16.6709 68.8102 16.7986C68.8102 16.9262 68.5432 17.6812 68.2168 18.4765C67.4682 20.3006 67.4521 21.0842 68.132 22.5967C68.4118 23.2191 68.6407 23.9163 68.6407 24.1463C68.6407 24.3762 68.4118 25.0904 68.132 25.7332C67.3128 27.6156 67.5321 28.7225 68.7012 28.607C69.1178 28.566 69.2614 28.4477 69.3876 28.042C69.4753 27.7598 69.8096 26.9227 70.1304 26.1818C70.846 24.5296 70.8239 23.6774 70.018 21.8387L69.4729 20.5949L70.0742 19.2519C70.7212 17.8064 70.8341 16.8535 70.409 16.4248C70.0936 16.1068 69.3018 16.0707 69.0137 16.3613ZM76.7211 16.4689C76.5668 16.6409 76.4405 16.9294 76.4403 17.1102C76.4403 17.2908 76.199 17.939 75.9042 18.5504C75.501 19.3863 75.368 19.8953 75.368 20.6026C75.368 21.3099 75.501 21.8189 75.9042 22.6549C76.5495 23.9931 76.5633 24.3033 76.0242 25.376C75.7953 25.8316 75.5193 26.5598 75.4109 26.9942C75.2432 27.6657 75.2553 27.8482 75.4918 28.2123C75.9608 28.9344 77.2883 28.6573 77.2883 27.8375C77.2883 27.6914 77.5554 26.9753 77.8818 26.2463C78.6497 24.5308 78.648 23.867 77.8711 22.0424L77.2669 20.6236L77.8114 19.3733C78.4857 17.8251 78.6249 16.8446 78.2273 16.4436C77.8512 16.0642 77.0724 16.0774 76.7211 16.4689ZM55.8288 32.1326C55.5143 32.3644 55.4975 32.6712 55.4498 39.0513L55.4 45.7274L48.9217 45.7778L42.4435 45.8281L41.1718 46.4416C38.5817 47.6912 37.1956 49.673 36.7145 52.8145L36.5089 54.1571L35.6861 53.4259C34.9331 52.7566 34.8714 52.6443 34.9584 52.1037C35.0832 51.3281 34.8027 50.8135 33.6633 49.7265C32.6037 48.7156 30.9325 47.5857 29.213 46.7172C28.5627 46.3889 27.4967 45.8433 26.8439 45.5049C25.3711 44.7413 23.6592 44.3744 21.5692 44.3744C19.5539 44.3744 17.6465 44.7568 16.3311 45.4243C12.4444 47.397 11.2583 48.0974 9.96289 49.1847C8.48465 50.4255 7.94901 51.2274 8.05685 52.038C8.13892 52.6563 8.08839 52.7377 6.8957 53.9045C5.13599 55.6264 4.48929 56.7585 4.43825 58.2069L4.3984 59.3387L2.8693 59.4242C2.02845 59.4713 1.25372 59.5973 1.14809 59.7045C1.02007 59.8342 0.974965 60.5492 1.01312 61.8423C1.06517 63.6036 1.12011 63.8892 1.60065 64.8969C2.27075 66.3025 3.0743 67.2275 4.23071 67.9253C6.14743 69.0814 2.87269 69.0019 48.2866 68.9973C75.3836 68.9943 89.6656 68.934 90.1554 68.8201C91.4904 68.5097 92.6992 67.783 93.731 66.6705C95.0412 65.2579 95.4478 64.1882 95.5607 61.857C95.6914 59.1561 96.7647 59.4242 85.8248 59.4242C80.7567 59.4242 76.6145 59.3666 76.6199 59.296C76.6251 59.2253 77.1259 58.7829 77.7325 58.3126C78.3392 57.8423 79.2696 56.9027 79.8 56.2246C80.5483 55.2681 80.9352 54.9271 81.5273 54.7029C84.3759 53.6237 87.4952 51.5792 89.213 49.6653C91.27 47.3734 92.4508 43.8769 92.0925 41.1392C91.5621 37.0873 88.8919 34.9782 84.2827 34.9709L82.7142 34.9683V33.6061C82.7142 32.4345 82.6685 32.2193 82.3863 32.067C82.1684 31.9495 77.7107 31.8899 69.1082 31.8899C58.195 31.8899 56.1062 31.9281 55.8288 32.1326ZM57.4496 39.7536V45.5651L57.8312 45.6485C58.0411 45.6944 59.548 45.7537 61.18 45.7804C64.1241 45.8286 64.1563 45.8332 65.2983 46.3783C66.92 47.1525 68.3299 48.5571 69.1178 50.1831L69.7423 51.4718L69.8001 54.733C69.848 57.4322 69.811 58.107 69.5862 58.6498C69.4368 59.0105 69.3423 59.3337 69.3762 59.368C69.5076 59.5005 71.9269 59.0641 72.9282 58.727C76.468 57.5356 79.3346 54.4402 80.4389 50.6167C80.6968 49.7241 80.7443 48.5721 80.8043 41.7664L80.8733 33.9422H69.1614H57.4496V39.7536ZM83.3077 36.9908C82.8365 37.1006 82.799 37.1654 82.799 37.8688V38.6283L84.3251 38.6401C85.5668 38.6499 86.0034 38.727 86.6677 39.0542C88.7543 40.0816 89.0472 42.6983 87.4214 45.7889C86.8132 46.9452 85.0842 48.658 83.6192 49.5555C82.6661 50.1395 82.5869 50.2384 82.3314 51.1643C82.1817 51.7068 82.0847 52.1765 82.1159 52.208C82.1472 52.2395 82.5043 52.0958 82.9098 51.8887C85.6873 50.4701 88.0559 48.2963 89.0475 46.2557C91.0056 42.2269 90.1968 38.5693 87.0889 37.3965C86.076 37.0142 84.1111 36.8034 83.3077 36.9908ZM83.2229 40.7649L82.799 40.8837L82.7527 44.0344C82.7271 45.7674 82.7456 47.2888 82.7938 47.4152C82.8648 47.6019 82.9528 47.5946 83.264 47.3758C84.174 46.7359 85.4052 45.3327 85.8367 44.4439C86.3668 43.3517 86.5835 41.8774 86.2939 41.3316C85.9797 40.7396 84.372 40.4428 83.2229 40.7649ZM18.6627 46.6909C17.8482 46.9122 16.4159 47.5487 16.4159 47.6897C16.4159 48.0654 19.5234 58.9286 19.725 59.2576C19.7812 59.3493 20.6127 59.4242 21.5729 59.4242H23.3187L24.1836 56.4741C25.3972 52.3351 26.3874 48.6561 26.4508 48.0514C26.4971 47.6117 26.42 47.4966 25.9113 47.2467C24.2571 46.4342 20.6317 46.1561 18.6627 46.6909ZM43.037 47.8976C41.9267 48.1969 40.5217 49.0954 39.9199 49.891C38.9151 51.2199 38.7299 51.947 38.6679 54.8067C38.6041 57.7407 38.7349 58.27 39.7005 58.9845C40.1732 59.3344 40.3358 59.3392 53.0521 59.3856C65.8165 59.4321 65.9309 59.4295 66.6188 59.0755C67.1375 58.8087 67.4 58.5197 67.6581 57.931C67.9682 57.224 67.9948 56.8976 67.9194 54.7352C67.8639 53.1474 67.7437 52.0786 67.5665 51.5982C66.8693 49.7067 65.3305 48.3513 63.3127 47.8511L62.139 47.5602L61.4837 48.3188C61.1232 48.7361 60.545 49.6506 60.1987 50.3512C59.6 51.5626 59.5685 51.7105 59.5563 53.3761C59.5422 55.303 59.3988 55.6618 58.6422 55.6618C57.8349 55.6618 57.5419 55.1213 57.4747 53.5088C57.4037 51.8036 57.7935 50.2969 58.6959 48.7881C59.0161 48.2528 59.2355 47.7719 59.1834 47.7192C59.1314 47.6667 58.2264 47.6238 57.1726 47.6238H55.2564L54.5824 48.5241C54.2117 49.0193 53.6564 49.962 53.3483 50.6191C52.8361 51.7117 52.7882 51.9541 52.7876 53.4548C52.7867 55.2211 52.6195 55.6618 51.9506 55.6618C51.3003 55.6618 51.0097 55.2835 50.8373 54.2129C50.5653 52.5249 51.0438 50.4123 52.1156 48.5675C52.3448 48.1731 52.5324 47.7993 52.5324 47.737C52.5324 47.6748 51.6566 47.6238 50.5863 47.6238H48.6404L47.9325 48.5217C47.5432 49.0154 46.9882 49.9198 46.6993 50.5312C46.2205 51.5443 46.1727 51.8003 46.161 53.419C46.1499 54.9459 46.1036 55.2281 45.8318 55.4285C45.3749 55.7656 44.8333 55.7155 44.4621 55.3018C44.1891 54.9975 44.1391 54.6729 44.1391 53.2068C44.1391 51.2462 44.3856 50.3225 45.3325 48.7368C45.6553 48.1959 45.9195 47.7242 45.9195 47.6886C45.9195 47.5241 43.8717 47.6727 43.037 47.8976ZM13.1883 49.4052C12.4921 49.8189 11.5035 50.5389 10.9914 51.0052L10.0606 51.853L10.4621 53.116C10.9513 54.6553 11.9578 56.7219 12.9724 58.2698L13.729 59.4242H15.5528C16.5559 59.4242 17.418 59.3827 17.4683 59.3319C17.5187 59.2811 17.2252 58.1074 16.816 56.7238C16.4069 55.3401 15.7585 53.0537 15.3753 51.6428C14.9919 50.2319 14.6279 48.9819 14.5661 48.8651C14.4859 48.7132 14.0942 48.8666 13.1883 49.4052ZM28.352 49.1187C28.1437 50.0116 25.9243 57.8045 25.6766 58.513C25.5401 58.9031 25.4735 59.2677 25.5286 59.3233C25.5837 59.3787 26.4568 59.4242 27.469 59.4242H29.3093L30.1674 58.0988C31.4687 56.0892 32.8633 52.9679 32.8633 52.0654C32.8633 51.5458 30.8214 49.8546 29.1789 49.0137L28.462 48.6467L28.352 49.1187ZM7.82286 55.8755C6.8372 56.8972 6.41177 57.647 6.41177 58.363C6.41177 59.2727 6.79515 59.4242 9.09575 59.4242C10.2308 59.4242 11.1595 59.3784 11.1595 59.3223C11.1595 59.2664 11.0076 59.0054 10.8221 58.7425C10.6364 58.4797 10.1301 57.525 9.69685 56.621C9.26362 55.7172 8.85955 54.9777 8.79919 54.9777C8.73866 54.9777 8.29932 55.3818 7.82286 55.8755ZM33.5788 56.1321C33.2918 56.7669 32.78 57.7675 32.4416 58.3553L31.8263 59.4242H33.9293C35.7514 59.4242 36.0699 59.3825 36.313 59.1114C36.7535 58.6206 36.6643 57.6926 36.1012 56.9089C35.5671 56.1651 34.4099 54.9777 34.2189 54.9777C34.154 54.9777 33.8659 55.4973 33.5788 56.1321ZM2.93221 62.3743C3.18367 64.3729 4.59425 66.1831 6.29783 66.6934C7.04525 66.9173 12.276 66.9491 48.3178 66.9491C89.4173 66.9491 89.4855 66.9486 90.414 66.5982C92.1127 65.957 93.5662 63.8969 93.5662 62.1301V61.4765H48.1926H2.81911L2.93221 62.3743Z"/>
</mask>
<path fill-rule="evenodd" clip-rule="evenodd" d="M28.2851 1.03088C28.052 1.07124 27.3271 1.19164 26.6743 1.29852C25.0794 1.55933 23.288 2.16406 21.6143 3.0065C10.9138 8.39176 7.71654 22.3438 14.9911 31.9086C16.1195 33.3922 18.6046 35.6497 20.1274 36.5744C21.7754 37.575 24.1696 38.5727 25.9132 38.9851C27.5938 39.3827 31.0885 39.5159 32.8852 39.2508C39.9742 38.2054 46.1377 33.0084 48.2806 26.2697C49.2319 23.2786 49.4779 19.5582 48.9165 16.657C47.1822 7.69417 39.8204 1.33358 30.8286 1.02917C29.6628 0.98966 28.5183 0.990344 28.2851 1.03088ZM27.0828 3.242C23.558 3.91667 20.3577 5.66775 17.906 8.26315C9.88014 16.7589 12.2303 30.3959 22.6235 35.6391C24.9306 36.8028 26.6457 37.2225 29.4721 37.3147C32.2503 37.4054 34.1952 37.1042 36.3401 36.2513C40.3303 34.6646 43.9933 31.1357 45.7504 27.1859C46.9625 24.4613 47.4742 21.0731 47.1074 18.2018C46.191 11.0284 41.2159 5.33033 34.2495 3.47561C32.5226 3.01574 28.8839 2.89722 27.0828 3.242ZM28.2955 6.07136C22.8928 6.82265 18.5023 10.5244 16.7396 15.814C16.0388 17.9171 15.8731 20.7584 16.3199 23.0082C17.0509 26.6896 19.2029 29.9191 22.3312 32.0295C24.0283 33.1745 25.6856 33.8411 27.7278 34.2003C29.5672 34.5238 30.7434 34.5221 32.6145 34.1929C41.5072 32.6289 46.5913 23.1963 43.1482 14.6497C41.9163 11.5919 39.1635 8.73089 36.0304 7.25208C33.8676 6.23143 30.6627 5.74231 28.2955 6.07136ZM27.0982 8.39056C22.8934 9.51707 19.353 13.1548 18.3753 17.3532C17.9324 19.2553 17.9223 19.2344 19.2887 19.2344C20.3132 19.2344 20.5004 19.2839 20.73 19.6146C21.3667 20.5313 20.7872 21.1547 19.204 21.2564C17.9297 21.3382 17.9509 21.2829 18.4459 23.2348C19.3147 26.661 21.7611 29.6448 24.9787 31.2024C26.1117 31.7509 28.2711 32.403 28.9544 32.403C29.0621 32.403 29.133 31.9378 29.133 31.2324C29.133 29.9338 29.397 29.4957 30.1798 29.4957C30.8962 29.4957 31.1677 29.9812 31.1677 31.2621C31.1677 31.9467 31.2391 32.403 31.3462 32.403C31.4444 32.403 32.0738 32.2782 32.7451 32.1258C37.2559 31.1009 40.8742 27.4891 41.9346 22.9528C42.3273 21.2725 42.3333 21.2867 41.2454 21.2867C39.9269 21.2867 39.3148 20.9301 39.3092 20.1588C39.3044 19.5059 39.8238 19.2344 41.0772 19.2344H42.2276L42.1086 18.4339C41.4151 13.7693 38.0673 9.90666 33.4813 8.47984C32.8419 8.28094 32.0599 8.11813 31.7433 8.11813H31.1677L31.1651 9.18701C31.1623 10.3694 31.0971 10.5345 30.5106 10.8462C30.1668 11.0291 30.0428 11.0114 29.6628 10.726C29.272 10.4325 29.2116 10.2531 29.1675 9.2549L29.1175 8.11813L28.5741 8.12942C28.2753 8.13557 27.6111 8.25306 27.0982 8.39056ZM29.5041 12.7423C29.1489 13.076 29.133 13.2231 29.133 16.1628V19.2344H27.2798C25.2291 19.2344 24.8939 19.3774 24.8939 20.2518C24.8939 21.0532 25.2556 21.1952 27.468 21.2621C28.5754 21.2956 29.7439 21.2734 30.0647 21.2126C31.1616 21.005 31.1677 20.9811 31.1677 16.8403V13.1025L30.7209 12.7482C30.1629 12.3054 29.9701 12.3044 29.5041 12.7423ZM61.3265 16.3298C61.1739 16.4198 60.9986 16.7646 60.937 17.096C60.8753 17.4274 60.5996 18.1789 60.3244 18.7659C59.7236 20.0465 59.6818 21.0462 60.1831 22.1418C61.0718 24.0839 61.0728 24.0972 60.417 25.5624C59.7528 27.046 59.6633 27.9283 60.1336 28.3575C60.7831 28.9505 61.8582 28.4754 61.8582 27.5956C61.8582 27.439 62.1034 26.7828 62.403 26.1372C63.1237 24.5846 63.1221 23.6647 62.3963 22.0754C61.7492 20.6587 61.7411 20.4822 62.2745 19.4207C62.5034 18.9651 62.7795 18.2369 62.8878 17.8025C63.0555 17.1309 63.0435 16.9484 62.8069 16.5843C62.5138 16.133 61.8533 16.0196 61.3265 16.3298ZM69.0137 16.3613C68.9018 16.4742 68.8102 16.6709 68.8102 16.7986C68.8102 16.9262 68.5432 17.6812 68.2168 18.4765C67.4682 20.3006 67.4521 21.0842 68.132 22.5967C68.4118 23.2191 68.6407 23.9163 68.6407 24.1463C68.6407 24.3762 68.4118 25.0904 68.132 25.7332C67.3128 27.6156 67.5321 28.7225 68.7012 28.607C69.1178 28.566 69.2614 28.4477 69.3876 28.042C69.4753 27.7598 69.8096 26.9227 70.1304 26.1818C70.846 24.5296 70.8239 23.6774 70.018 21.8387L69.4729 20.5949L70.0742 19.2519C70.7212 17.8064 70.8341 16.8535 70.409 16.4248C70.0936 16.1068 69.3018 16.0707 69.0137 16.3613ZM76.7211 16.4689C76.5668 16.6409 76.4405 16.9294 76.4403 17.1102C76.4403 17.2908 76.199 17.939 75.9042 18.5504C75.501 19.3863 75.368 19.8953 75.368 20.6026C75.368 21.3099 75.501 21.8189 75.9042 22.6549C76.5495 23.9931 76.5633 24.3033 76.0242 25.376C75.7953 25.8316 75.5193 26.5598 75.4109 26.9942C75.2432 27.6657 75.2553 27.8482 75.4918 28.2123C75.9608 28.9344 77.2883 28.6573 77.2883 27.8375C77.2883 27.6914 77.5554 26.9753 77.8818 26.2463C78.6497 24.5308 78.648 23.867 77.8711 22.0424L77.2669 20.6236L77.8114 19.3733C78.4857 17.8251 78.6249 16.8446 78.2273 16.4436C77.8512 16.0642 77.0724 16.0774 76.7211 16.4689ZM55.8288 32.1326C55.5143 32.3644 55.4975 32.6712 55.4498 39.0513L55.4 45.7274L48.9217 45.7778L42.4435 45.8281L41.1718 46.4416C38.5817 47.6912 37.1956 49.673 36.7145 52.8145L36.5089 54.1571L35.6861 53.4259C34.9331 52.7566 34.8714 52.6443 34.9584 52.1037C35.0832 51.3281 34.8027 50.8135 33.6633 49.7265C32.6037 48.7156 30.9325 47.5857 29.213 46.7172C28.5627 46.3889 27.4967 45.8433 26.8439 45.5049C25.3711 44.7413 23.6592 44.3744 21.5692 44.3744C19.5539 44.3744 17.6465 44.7568 16.3311 45.4243C12.4444 47.397 11.2583 48.0974 9.96289 49.1847C8.48465 50.4255 7.94901 51.2274 8.05685 52.038C8.13892 52.6563 8.08839 52.7377 6.8957 53.9045C5.13599 55.6264 4.48929 56.7585 4.43825 58.2069L4.3984 59.3387L2.8693 59.4242C2.02845 59.4713 1.25372 59.5973 1.14809 59.7045C1.02007 59.8342 0.974965 60.5492 1.01312 61.8423C1.06517 63.6036 1.12011 63.8892 1.60065 64.8969C2.27075 66.3025 3.0743 67.2275 4.23071 67.9253C6.14743 69.0814 2.87269 69.0019 48.2866 68.9973C75.3836 68.9943 89.6656 68.934 90.1554 68.8201C91.4904 68.5097 92.6992 67.783 93.731 66.6705C95.0412 65.2579 95.4478 64.1882 95.5607 61.857C95.6914 59.1561 96.7647 59.4242 85.8248 59.4242C80.7567 59.4242 76.6145 59.3666 76.6199 59.296C76.6251 59.2253 77.1259 58.7829 77.7325 58.3126C78.3392 57.8423 79.2696 56.9027 79.8 56.2246C80.5483 55.2681 80.9352 54.9271 81.5273 54.7029C84.3759 53.6237 87.4952 51.5792 89.213 49.6653C91.27 47.3734 92.4508 43.8769 92.0925 41.1392C91.5621 37.0873 88.8919 34.9782 84.2827 34.9709L82.7142 34.9683V33.6061C82.7142 32.4345 82.6685 32.2193 82.3863 32.067C82.1684 31.9495 77.7107 31.8899 69.1082 31.8899C58.195 31.8899 56.1062 31.9281 55.8288 32.1326ZM57.4496 39.7536V45.5651L57.8312 45.6485C58.0411 45.6944 59.548 45.7537 61.18 45.7804C64.1241 45.8286 64.1563 45.8332 65.2983 46.3783C66.92 47.1525 68.3299 48.5571 69.1178 50.1831L69.7423 51.4718L69.8001 54.733C69.848 57.4322 69.811 58.107 69.5862 58.6498C69.4368 59.0105 69.3423 59.3337 69.3762 59.368C69.5076 59.5005 71.9269 59.0641 72.9282 58.727C76.468 57.5356 79.3346 54.4402 80.4389 50.6167C80.6968 49.7241 80.7443 48.5721 80.8043 41.7664L80.8733 33.9422H69.1614H57.4496V39.7536ZM83.3077 36.9908C82.8365 37.1006 82.799 37.1654 82.799 37.8688V38.6283L84.3251 38.6401C85.5668 38.6499 86.0034 38.727 86.6677 39.0542C88.7543 40.0816 89.0472 42.6983 87.4214 45.7889C86.8132 46.9452 85.0842 48.658 83.6192 49.5555C82.6661 50.1395 82.5869 50.2384 82.3314 51.1643C82.1817 51.7068 82.0847 52.1765 82.1159 52.208C82.1472 52.2395 82.5043 52.0958 82.9098 51.8887C85.6873 50.4701 88.0559 48.2963 89.0475 46.2557C91.0056 42.2269 90.1968 38.5693 87.0889 37.3965C86.076 37.0142 84.1111 36.8034 83.3077 36.9908ZM83.2229 40.7649L82.799 40.8837L82.7527 44.0344C82.7271 45.7674 82.7456 47.2888 82.7938 47.4152C82.8648 47.6019 82.9528 47.5946 83.264 47.3758C84.174 46.7359 85.4052 45.3327 85.8367 44.4439C86.3668 43.3517 86.5835 41.8774 86.2939 41.3316C85.9797 40.7396 84.372 40.4428 83.2229 40.7649ZM18.6627 46.6909C17.8482 46.9122 16.4159 47.5487 16.4159 47.6897C16.4159 48.0654 19.5234 58.9286 19.725 59.2576C19.7812 59.3493 20.6127 59.4242 21.5729 59.4242H23.3187L24.1836 56.4741C25.3972 52.3351 26.3874 48.6561 26.4508 48.0514C26.4971 47.6117 26.42 47.4966 25.9113 47.2467C24.2571 46.4342 20.6317 46.1561 18.6627 46.6909ZM43.037 47.8976C41.9267 48.1969 40.5217 49.0954 39.9199 49.891C38.9151 51.2199 38.7299 51.947 38.6679 54.8067C38.6041 57.7407 38.7349 58.27 39.7005 58.9845C40.1732 59.3344 40.3358 59.3392 53.0521 59.3856C65.8165 59.4321 65.9309 59.4295 66.6188 59.0755C67.1375 58.8087 67.4 58.5197 67.6581 57.931C67.9682 57.224 67.9948 56.8976 67.9194 54.7352C67.8639 53.1474 67.7437 52.0786 67.5665 51.5982C66.8693 49.7067 65.3305 48.3513 63.3127 47.8511L62.139 47.5602L61.4837 48.3188C61.1232 48.7361 60.545 49.6506 60.1987 50.3512C59.6 51.5626 59.5685 51.7105 59.5563 53.3761C59.5422 55.303 59.3988 55.6618 58.6422 55.6618C57.8349 55.6618 57.5419 55.1213 57.4747 53.5088C57.4037 51.8036 57.7935 50.2969 58.6959 48.7881C59.0161 48.2528 59.2355 47.7719 59.1834 47.7192C59.1314 47.6667 58.2264 47.6238 57.1726 47.6238H55.2564L54.5824 48.5241C54.2117 49.0193 53.6564 49.962 53.3483 50.6191C52.8361 51.7117 52.7882 51.9541 52.7876 53.4548C52.7867 55.2211 52.6195 55.6618 51.9506 55.6618C51.3003 55.6618 51.0097 55.2835 50.8373 54.2129C50.5653 52.5249 51.0438 50.4123 52.1156 48.5675C52.3448 48.1731 52.5324 47.7993 52.5324 47.737C52.5324 47.6748 51.6566 47.6238 50.5863 47.6238H48.6404L47.9325 48.5217C47.5432 49.0154 46.9882 49.9198 46.6993 50.5312C46.2205 51.5443 46.1727 51.8003 46.161 53.419C46.1499 54.9459 46.1036 55.2281 45.8318 55.4285C45.3749 55.7656 44.8333 55.7155 44.4621 55.3018C44.1891 54.9975 44.1391 54.6729 44.1391 53.2068C44.1391 51.2462 44.3856 50.3225 45.3325 48.7368C45.6553 48.1959 45.9195 47.7242 45.9195 47.6886C45.9195 47.5241 43.8717 47.6727 43.037 47.8976ZM13.1883 49.4052C12.4921 49.8189 11.5035 50.5389 10.9914 51.0052L10.0606 51.853L10.4621 53.116C10.9513 54.6553 11.9578 56.7219 12.9724 58.2698L13.729 59.4242H15.5528C16.5559 59.4242 17.418 59.3827 17.4683 59.3319C17.5187 59.2811 17.2252 58.1074 16.816 56.7238C16.4069 55.3401 15.7585 53.0537 15.3753 51.6428C14.9919 50.2319 14.6279 48.9819 14.5661 48.8651C14.4859 48.7132 14.0942 48.8666 13.1883 49.4052ZM28.352 49.1187C28.1437 50.0116 25.9243 57.8045 25.6766 58.513C25.5401 58.9031 25.4735 59.2677 25.5286 59.3233C25.5837 59.3787 26.4568 59.4242 27.469 59.4242H29.3093L30.1674 58.0988C31.4687 56.0892 32.8633 52.9679 32.8633 52.0654C32.8633 51.5458 30.8214 49.8546 29.1789 49.0137L28.462 48.6467L28.352 49.1187ZM7.82286 55.8755C6.8372 56.8972 6.41177 57.647 6.41177 58.363C6.41177 59.2727 6.79515 59.4242 9.09575 59.4242C10.2308 59.4242 11.1595 59.3784 11.1595 59.3223C11.1595 59.2664 11.0076 59.0054 10.8221 58.7425C10.6364 58.4797 10.1301 57.525 9.69685 56.621C9.26362 55.7172 8.85955 54.9777 8.79919 54.9777C8.73866 54.9777 8.29932 55.3818 7.82286 55.8755ZM33.5788 56.1321C33.2918 56.7669 32.78 57.7675 32.4416 58.3553L31.8263 59.4242H33.9293C35.7514 59.4242 36.0699 59.3825 36.313 59.1114C36.7535 58.6206 36.6643 57.6926 36.1012 56.9089C35.5671 56.1651 34.4099 54.9777 34.2189 54.9777C34.154 54.9777 33.8659 55.4973 33.5788 56.1321ZM2.93221 62.3743C3.18367 64.3729 4.59425 66.1831 6.29783 66.6934C7.04525 66.9173 12.276 66.9491 48.3178 66.9491C89.4173 66.9491 89.4855 66.9486 90.414 66.5982C92.1127 65.957 93.5662 63.8969 93.5662 62.1301V61.4765H48.1926H2.81911L2.93221 62.3743Z" fill="#058FA2"/>
<path fill-rule="evenodd" clip-rule="evenodd" d="M28.2851 1.03088C28.052 1.07124 27.3271 1.19164 26.6743 1.29852C25.0794 1.55933 23.288 2.16406 21.6143 3.0065C10.9138 8.39176 7.71654 22.3438 14.9911 31.9086C16.1195 33.3922 18.6046 35.6497 20.1274 36.5744C21.7754 37.575 24.1696 38.5727 25.9132 38.9851C27.5938 39.3827 31.0885 39.5159 32.8852 39.2508C39.9742 38.2054 46.1377 33.0084 48.2806 26.2697C49.2319 23.2786 49.4779 19.5582 48.9165 16.657C47.1822 7.69417 39.8204 1.33358 30.8286 1.02917C29.6628 0.98966 28.5183 0.990344 28.2851 1.03088ZM27.0828 3.242C23.558 3.91667 20.3577 5.66775 17.906 8.26315C9.88014 16.7589 12.2303 30.3959 22.6235 35.6391C24.9306 36.8028 26.6457 37.2225 29.4721 37.3147C32.2503 37.4054 34.1952 37.1042 36.3401 36.2513C40.3303 34.6646 43.9933 31.1357 45.7504 27.1859C46.9625 24.4613 47.4742 21.0731 47.1074 18.2018C46.191 11.0284 41.2159 5.33033 34.2495 3.47561C32.5226 3.01574 28.8839 2.89722 27.0828 3.242ZM28.2955 6.07136C22.8928 6.82265 18.5023 10.5244 16.7396 15.814C16.0388 17.9171 15.8731 20.7584 16.3199 23.0082C17.0509 26.6896 19.2029 29.9191 22.3312 32.0295C24.0283 33.1745 25.6856 33.8411 27.7278 34.2003C29.5672 34.5238 30.7434 34.5221 32.6145 34.1929C41.5072 32.6289 46.5913 23.1963 43.1482 14.6497C41.9163 11.5919 39.1635 8.73089 36.0304 7.25208C33.8676 6.23143 30.6627 5.74231 28.2955 6.07136ZM27.0982 8.39056C22.8934 9.51707 19.353 13.1548 18.3753 17.3532C17.9324 19.2553 17.9223 19.2344 19.2887 19.2344C20.3132 19.2344 20.5004 19.2839 20.73 19.6146C21.3667 20.5313 20.7872 21.1547 19.204 21.2564C17.9297 21.3382 17.9509 21.2829 18.4459 23.2348C19.3147 26.661 21.7611 29.6448 24.9787 31.2024C26.1117 31.7509 28.2711 32.403 28.9544 32.403C29.0621 32.403 29.133 31.9378 29.133 31.2324C29.133 29.9338 29.397 29.4957 30.1798 29.4957C30.8962 29.4957 31.1677 29.9812 31.1677 31.2621C31.1677 31.9467 31.2391 32.403 31.3462 32.403C31.4444 32.403 32.0738 32.2782 32.7451 32.1258C37.2559 31.1009 40.8742 27.4891 41.9346 22.9528C42.3273 21.2725 42.3333 21.2867 41.2454 21.2867C39.9269 21.2867 39.3148 20.9301 39.3092 20.1588C39.3044 19.5059 39.8238 19.2344 41.0772 19.2344H42.2276L42.1086 18.4339C41.4151 13.7693 38.0673 9.90666 33.4813 8.47984C32.8419 8.28094 32.0599 8.11813 31.7433 8.11813H31.1677L31.1651 9.18701C31.1623 10.3694 31.0971 10.5345 30.5106 10.8462C30.1668 11.0291 30.0428 11.0114 29.6628 10.726C29.272 10.4325 29.2116 10.2531 29.1675 9.2549L29.1175 8.11813L28.5741 8.12942C28.2753 8.13557 27.6111 8.25306 27.0982 8.39056ZM29.5041 12.7423C29.1489 13.076 29.133 13.2231 29.133 16.1628V19.2344H27.2798C25.2291 19.2344 24.8939 19.3774 24.8939 20.2518C24.8939 21.0532 25.2556 21.1952 27.468 21.2621C28.5754 21.2956 29.7439 21.2734 30.0647 21.2126C31.1616 21.005 31.1677 20.9811 31.1677 16.8403V13.1025L30.7209 12.7482C30.1629 12.3054 29.9701 12.3044 29.5041 12.7423ZM61.3265 16.3298C61.1739 16.4198 60.9986 16.7646 60.937 17.096C60.8753 17.4274 60.5996 18.1789 60.3244 18.7659C59.7236 20.0465 59.6818 21.0462 60.1831 22.1418C61.0718 24.0839 61.0728 24.0972 60.417 25.5624C59.7528 27.046 59.6633 27.9283 60.1336 28.3575C60.7831 28.9505 61.8582 28.4754 61.8582 27.5956C61.8582 27.439 62.1034 26.7828 62.403 26.1372C63.1237 24.5846 63.1221 23.6647 62.3963 22.0754C61.7492 20.6587 61.7411 20.4822 62.2745 19.4207C62.5034 18.9651 62.7795 18.2369 62.8878 17.8025C63.0555 17.1309 63.0435 16.9484 62.8069 16.5843C62.5138 16.133 61.8533 16.0196 61.3265 16.3298ZM69.0137 16.3613C68.9018 16.4742 68.8102 16.6709 68.8102 16.7986C68.8102 16.9262 68.5432 17.6812 68.2168 18.4765C67.4682 20.3006 67.4521 21.0842 68.132 22.5967C68.4118 23.2191 68.6407 23.9163 68.6407 24.1463C68.6407 24.3762 68.4118 25.0904 68.132 25.7332C67.3128 27.6156 67.5321 28.7225 68.7012 28.607C69.1178 28.566 69.2614 28.4477 69.3876 28.042C69.4753 27.7598 69.8096 26.9227 70.1304 26.1818C70.846 24.5296 70.8239 23.6774 70.018 21.8387L69.4729 20.5949L70.0742 19.2519C70.7212 17.8064 70.8341 16.8535 70.409 16.4248C70.0936 16.1068 69.3018 16.0707 69.0137 16.3613ZM76.7211 16.4689C76.5668 16.6409 76.4405 16.9294 76.4403 17.1102C76.4403 17.2908 76.199 17.939 75.9042 18.5504C75.501 19.3863 75.368 19.8953 75.368 20.6026C75.368 21.3099 75.501 21.8189 75.9042 22.6549C76.5495 23.9931 76.5633 24.3033 76.0242 25.376C75.7953 25.8316 75.5193 26.5598 75.4109 26.9942C75.2432 27.6657 75.2553 27.8482 75.4918 28.2123C75.9608 28.9344 77.2883 28.6573 77.2883 27.8375C77.2883 27.6914 77.5554 26.9753 77.8818 26.2463C78.6497 24.5308 78.648 23.867 77.8711 22.0424L77.2669 20.6236L77.8114 19.3733C78.4857 17.8251 78.6249 16.8446 78.2273 16.4436C77.8512 16.0642 77.0724 16.0774 76.7211 16.4689ZM55.8288 32.1326C55.5143 32.3644 55.4975 32.6712 55.4498 39.0513L55.4 45.7274L48.9217 45.7778L42.4435 45.8281L41.1718 46.4416C38.5817 47.6912 37.1956 49.673 36.7145 52.8145L36.5089 54.1571L35.6861 53.4259C34.9331 52.7566 34.8714 52.6443 34.9584 52.1037C35.0832 51.3281 34.8027 50.8135 33.6633 49.7265C32.6037 48.7156 30.9325 47.5857 29.213 46.7172C28.5627 46.3889 27.4967 45.8433 26.8439 45.5049C25.3711 44.7413 23.6592 44.3744 21.5692 44.3744C19.5539 44.3744 17.6465 44.7568 16.3311 45.4243C12.4444 47.397 11.2583 48.0974 9.96289 49.1847C8.48465 50.4255 7.94901 51.2274 8.05685 52.038C8.13892 52.6563 8.08839 52.7377 6.8957 53.9045C5.13599 55.6264 4.48929 56.7585 4.43825 58.2069L4.3984 59.3387L2.8693 59.4242C2.02845 59.4713 1.25372 59.5973 1.14809 59.7045C1.02007 59.8342 0.974965 60.5492 1.01312 61.8423C1.06517 63.6036 1.12011 63.8892 1.60065 64.8969C2.27075 66.3025 3.0743 67.2275 4.23071 67.9253C6.14743 69.0814 2.87269 69.0019 48.2866 68.9973C75.3836 68.9943 89.6656 68.934 90.1554 68.8201C91.4904 68.5097 92.6992 67.783 93.731 66.6705C95.0412 65.2579 95.4478 64.1882 95.5607 61.857C95.6914 59.1561 96.7647 59.4242 85.8248 59.4242C80.7567 59.4242 76.6145 59.3666 76.6199 59.296C76.6251 59.2253 77.1259 58.7829 77.7325 58.3126C78.3392 57.8423 79.2696 56.9027 79.8 56.2246C80.5483 55.2681 80.9352 54.9271 81.5273 54.7029C84.3759 53.6237 87.4952 51.5792 89.213 49.6653C91.27 47.3734 92.4508 43.8769 92.0925 41.1392C91.5621 37.0873 88.8919 34.9782 84.2827 34.9709L82.7142 34.9683V33.6061C82.7142 32.4345 82.6685 32.2193 82.3863 32.067C82.1684 31.9495 77.7107 31.8899 69.1082 31.8899C58.195 31.8899 56.1062 31.9281 55.8288 32.1326ZM57.4496 39.7536V45.5651L57.8312 45.6485C58.0411 45.6944 59.548 45.7537 61.18 45.7804C64.1241 45.8286 64.1563 45.8332 65.2983 46.3783C66.92 47.1525 68.3299 48.5571 69.1178 50.1831L69.7423 51.4718L69.8001 54.733C69.848 57.4322 69.811 58.107 69.5862 58.6498C69.4368 59.0105 69.3423 59.3337 69.3762 59.368C69.5076 59.5005 71.9269 59.0641 72.9282 58.727C76.468 57.5356 79.3346 54.4402 80.4389 50.6167C80.6968 49.7241 80.7443 48.5721 80.8043 41.7664L80.8733 33.9422H69.1614H57.4496V39.7536ZM83.3077 36.9908C82.8365 37.1006 82.799 37.1654 82.799 37.8688V38.6283L84.3251 38.6401C85.5668 38.6499 86.0034 38.727 86.6677 39.0542C88.7543 40.0816 89.0472 42.6983 87.4214 45.7889C86.8132 46.9452 85.0842 48.658 83.6192 49.5555C82.6661 50.1395 82.5869 50.2384 82.3314 51.1643C82.1817 51.7068 82.0847 52.1765 82.1159 52.208C82.1472 52.2395 82.5043 52.0958 82.9098 51.8887C85.6873 50.4701 88.0559 48.2963 89.0475 46.2557C91.0056 42.2269 90.1968 38.5693 87.0889 37.3965C86.076 37.0142 84.1111 36.8034 83.3077 36.9908ZM83.2229 40.7649L82.799 40.8837L82.7527 44.0344C82.7271 45.7674 82.7456 47.2888 82.7938 47.4152C82.8648 47.6019 82.9528 47.5946 83.264 47.3758C84.174 46.7359 85.4052 45.3327 85.8367 44.4439C86.3668 43.3517 86.5835 41.8774 86.2939 41.3316C85.9797 40.7396 84.372 40.4428 83.2229 40.7649ZM18.6627 46.6909C17.8482 46.9122 16.4159 47.5487 16.4159 47.6897C16.4159 48.0654 19.5234 58.9286 19.725 59.2576C19.7812 59.3493 20.6127 59.4242 21.5729 59.4242H23.3187L24.1836 56.4741C25.3972 52.3351 26.3874 48.6561 26.4508 48.0514C26.4971 47.6117 26.42 47.4966 25.9113 47.2467C24.2571 46.4342 20.6317 46.1561 18.6627 46.6909ZM43.037 47.8976C41.9267 48.1969 40.5217 49.0954 39.9199 49.891C38.9151 51.2199 38.7299 51.947 38.6679 54.8067C38.6041 57.7407 38.7349 58.27 39.7005 58.9845C40.1732 59.3344 40.3358 59.3392 53.0521 59.3856C65.8165 59.4321 65.9309 59.4295 66.6188 59.0755C67.1375 58.8087 67.4 58.5197 67.6581 57.931C67.9682 57.224 67.9948 56.8976 67.9194 54.7352C67.8639 53.1474 67.7437 52.0786 67.5665 51.5982C66.8693 49.7067 65.3305 48.3513 63.3127 47.8511L62.139 47.5602L61.4837 48.3188C61.1232 48.7361 60.545 49.6506 60.1987 50.3512C59.6 51.5626 59.5685 51.7105 59.5563 53.3761C59.5422 55.303 59.3988 55.6618 58.6422 55.6618C57.8349 55.6618 57.5419 55.1213 57.4747 53.5088C57.4037 51.8036 57.7935 50.2969 58.6959 48.7881C59.0161 48.2528 59.2355 47.7719 59.1834 47.7192C59.1314 47.6667 58.2264 47.6238 57.1726 47.6238H55.2564L54.5824 48.5241C54.2117 49.0193 53.6564 49.962 53.3483 50.6191C52.8361 51.7117 52.7882 51.9541 52.7876 53.4548C52.7867 55.2211 52.6195 55.6618 51.9506 55.6618C51.3003 55.6618 51.0097 55.2835 50.8373 54.2129C50.5653 52.5249 51.0438 50.4123 52.1156 48.5675C52.3448 48.1731 52.5324 47.7993 52.5324 47.737C52.5324 47.6748 51.6566 47.6238 50.5863 47.6238H48.6404L47.9325 48.5217C47.5432 49.0154 46.9882 49.9198 46.6993 50.5312C46.2205 51.5443 46.1727 51.8003 46.161 53.419C46.1499 54.9459 46.1036 55.2281 45.8318 55.4285C45.3749 55.7656 44.8333 55.7155 44.4621 55.3018C44.1891 54.9975 44.1391 54.6729 44.1391 53.2068C44.1391 51.2462 44.3856 50.3225 45.3325 48.7368C45.6553 48.1959 45.9195 47.7242 45.9195 47.6886C45.9195 47.5241 43.8717 47.6727 43.037 47.8976ZM13.1883 49.4052C12.4921 49.8189 11.5035 50.5389 10.9914 51.0052L10.0606 51.853L10.4621 53.116C10.9513 54.6553 11.9578 56.7219 12.9724 58.2698L13.729 59.4242H15.5528C16.5559 59.4242 17.418 59.3827 17.4683 59.3319C17.5187 59.2811 17.2252 58.1074 16.816 56.7238C16.4069 55.3401 15.7585 53.0537 15.3753 51.6428C14.9919 50.2319 14.6279 48.9819 14.5661 48.8651C14.4859 48.7132 14.0942 48.8666 13.1883 49.4052ZM28.352 49.1187C28.1437 50.0116 25.9243 57.8045 25.6766 58.513C25.5401 58.9031 25.4735 59.2677 25.5286 59.3233C25.5837 59.3787 26.4568 59.4242 27.469 59.4242H29.3093L30.1674 58.0988C31.4687 56.0892 32.8633 52.9679 32.8633 52.0654C32.8633 51.5458 30.8214 49.8546 29.1789 49.0137L28.462 48.6467L28.352 49.1187ZM7.82286 55.8755C6.8372 56.8972 6.41177 57.647 6.41177 58.363C6.41177 59.2727 6.79515 59.4242 9.09575 59.4242C10.2308 59.4242 11.1595 59.3784 11.1595 59.3223C11.1595 59.2664 11.0076 59.0054 10.8221 58.7425C10.6364 58.4797 10.1301 57.525 9.69685 56.621C9.26362 55.7172 8.85955 54.9777 8.79919 54.9777C8.73866 54.9777 8.29932 55.3818 7.82286 55.8755ZM33.5788 56.1321C33.2918 56.7669 32.78 57.7675 32.4416 58.3553L31.8263 59.4242H33.9293C35.7514 59.4242 36.0699 59.3825 36.313 59.1114C36.7535 58.6206 36.6643 57.6926 36.1012 56.9089C35.5671 56.1651 34.4099 54.9777 34.2189 54.9777C34.154 54.9777 33.8659 55.4973 33.5788 56.1321ZM2.93221 62.3743C3.18367 64.3729 4.59425 66.1831 6.29783 66.6934C7.04525 66.9173 12.276 66.9491 48.3178 66.9491C89.4173 66.9491 89.4855 66.9486 90.414 66.5982C92.1127 65.957 93.5662 63.8969 93.5662 62.1301V61.4765H48.1926H2.81911L2.93221 62.3743Z" stroke="#058FA2" stroke-width="0.2" mask="url(#path-1-outside-1_3305_8436)"/>
<path fill-rule="evenodd" clip-rule="evenodd" d="M28.2955 6.07136C22.8928 6.82265 18.5023 10.5244 16.7396 15.814C16.0388 17.9171 15.8731 20.7584 16.3199 23.0082C17.0509 26.6896 19.2029 29.9191 22.3312 32.0295C24.0283 33.1745 25.6856 33.8411 27.7278 34.2003C29.5672 34.5238 30.7434 34.5221 32.6145 34.1929C41.5072 32.6289 46.5913 23.1963 43.1482 14.6497C41.9163 11.5919 39.1635 8.73089 36.0303 7.25208C33.8676 6.23143 30.6627 5.74231 28.2955 6.07136ZM27.0982 8.39056C22.8934 9.51707 19.353 13.1548 18.3753 17.3532C17.9324 19.2553 17.9223 19.2344 19.2887 19.2344C20.3132 19.2344 20.5004 19.2839 20.73 19.6146C21.3667 20.5313 20.7872 21.1547 19.204 21.2564C17.9297 21.3382 17.9509 21.2829 18.4459 23.2348C19.3147 26.661 21.7611 29.6448 24.9787 31.2024C26.1117 31.7509 28.2711 32.403 28.9544 32.403C29.0621 32.403 29.1329 31.9378 29.1329 31.2324C29.1329 29.9338 29.397 29.4957 30.1798 29.4957C30.8962 29.4957 31.1677 29.9812 31.1677 31.2621C31.1677 31.9467 31.2391 32.403 31.3462 32.403C31.4444 32.403 32.0738 32.2782 32.7451 32.1258C37.2559 31.1009 40.8742 27.4891 41.9346 22.9528C42.3273 21.2725 42.3333 21.2867 41.2454 21.2867C39.9269 21.2867 39.3147 20.9301 39.3092 20.1588C39.3044 19.5059 39.8238 19.2344 41.0772 19.2344H42.2276L42.1086 18.4339C41.4151 13.7693 38.0673 9.90666 33.4813 8.47984C32.8419 8.28094 32.0599 8.11813 31.7433 8.11813H31.1677L31.1651 9.18701C31.1623 10.3694 31.0971 10.5345 30.5106 10.8462C30.1668 11.0291 30.0428 11.0114 29.6628 10.726C29.272 10.4325 29.2116 10.2531 29.1675 9.2549L29.1175 8.11813L28.5741 8.12942C28.2753 8.13557 27.6111 8.25306 27.0982 8.39056ZM29.5041 12.7423C29.1489 13.076 29.1329 13.2231 29.1329 16.1628V19.2344H27.2798C25.2291 19.2344 24.8939 19.3774 24.8939 20.2518C24.8939 21.0532 25.2556 21.1952 27.468 21.2621C28.5754 21.2956 29.7439 21.2734 30.0647 21.2126C31.1616 21.005 31.1677 20.9811 31.1677 16.8403V13.1025L30.7209 12.7482C30.1629 12.3054 29.9701 12.3044 29.5041 12.7423ZM61.3265 16.3298C61.1739 16.4198 60.9985 16.7646 60.937 17.096C60.8753 17.4274 60.5996 18.1789 60.3244 18.7659C59.7236 20.0464 59.6817 21.0462 60.1831 22.1418C61.0718 24.0839 61.0728 24.0972 60.417 25.5624C59.7528 27.046 59.6633 27.9283 60.1336 28.3575C60.783 28.9504 61.8582 28.4754 61.8582 27.5956C61.8582 27.439 62.1034 26.7828 62.403 26.1372C63.1237 24.5846 63.1221 23.6647 62.3962 22.0754C61.7492 20.6587 61.7411 20.4822 62.2745 19.4207C62.5034 18.9651 62.7794 18.2369 62.8878 17.8025C63.0555 17.1309 63.0435 16.9484 62.8069 16.5843C62.5137 16.133 61.8533 16.0196 61.3265 16.3298ZM69.0137 16.3613C68.9018 16.4742 68.8102 16.6709 68.8102 16.7986C68.8102 16.9262 68.5432 17.6812 68.2168 18.4765C67.4682 20.3006 67.452 21.0842 68.132 22.5967C68.4118 23.219 68.6407 23.9163 68.6407 24.1463C68.6407 24.3762 68.4118 25.0903 68.132 25.7332C67.3128 27.6156 67.5321 28.7225 68.7012 28.607C69.1178 28.566 69.2614 28.4476 69.3876 28.042C69.4753 27.7598 69.8096 26.9227 70.1304 26.1818C70.846 24.5296 70.8239 23.6774 70.018 21.8387L69.4729 20.5949L70.0741 19.2519C70.7212 17.8064 70.8341 16.8535 70.409 16.4248C70.0936 16.1068 69.3018 16.0707 69.0137 16.3613ZM76.7211 16.4689C76.5668 16.6409 76.4405 16.9294 76.4403 17.1102C76.4403 17.2908 76.199 17.939 75.9042 18.5504C75.5009 19.3863 75.368 19.8953 75.368 20.6026C75.368 21.3099 75.5009 21.8189 75.9042 22.6549C76.5495 23.9931 76.5632 24.3033 76.0242 25.376C75.7953 25.8316 75.5192 26.5598 75.4109 26.9941C75.2432 27.6657 75.2552 27.8482 75.4918 28.2123C75.9608 28.9344 77.2883 28.6573 77.2883 27.8374C77.2883 27.6914 77.5553 26.9753 77.8817 26.2463C78.6497 24.5308 78.648 23.867 77.8711 22.0424L77.2669 20.6236L77.8114 19.3733C78.4857 17.8251 78.6249 16.8446 78.2273 16.4436C77.8512 16.0642 77.0724 16.0774 76.7211 16.4689Z" fill="#FDC114"/>
</svg>
