<svg width="72" height="72" viewBox="0 0 72 72" fill="none" xmlns="http://www.w3.org/2000/svg">
<g clip-path="url(#clip0_1087_7928)">
<mask id="path-1-inside-1_1087_7928" fill="white">
<path d="M70.6251 62.456H64.4427C64.9377 61.2669 65.1046 59.9128 64.9182 58.5973C64.7318 57.2819 64.2022 56.0763 63.409 55.1619C63.4446 55.1183 63.4818 55.0786 63.5158 55.0349C63.993 54.4504 64.3695 53.7542 64.6231 52.9878C64.8767 52.2213 65.0022 51.4001 64.9921 50.573C64.982 49.7459 64.8365 48.9297 64.5643 48.1729C64.2921 47.4161 63.8987 46.7341 63.4074 46.1674C63.4446 46.1257 63.4818 46.084 63.5158 46.0404C63.9929 45.456 64.3695 44.76 64.623 43.9937C64.8766 43.2274 65.0021 42.4064 64.992 41.5794C64.9819 40.7525 64.8364 39.9365 64.5642 39.1798C64.292 38.4232 63.8986 37.7413 63.4074 37.1748L63.5158 37.0478C63.9938 36.4635 64.3711 35.7672 64.6252 35.0004C64.8794 34.2336 65.0052 33.412 64.9953 32.5843C64.9853 31.7566 64.8398 30.9399 64.5673 30.1826C64.2948 29.4253 63.9009 28.743 63.409 28.1763L63.5174 28.0493C64.2224 27.1851 64.7026 26.0839 64.8975 24.8849C65.0924 23.686 64.9931 22.443 64.6122 21.3133C64.2314 20.1835 63.586 19.2176 62.7577 18.5376C61.9294 17.8577 60.9554 17.4942 59.9588 17.4932H50.4846V12.3778C50.4837 11.2646 50.1229 10.1972 49.4811 9.41007C48.8394 8.62289 47.9693 8.1802 47.0618 8.17915H43.3414C43.1806 5.94413 42.3432 3.86403 40.9942 2.34881C39.6452 0.833592 37.8825 -0.00683594 36.0534 -0.00683594C34.2243 -0.00683594 32.4615 0.833592 31.1125 2.34881C29.7635 3.86403 28.9261 5.94413 28.7654 8.17915H25.045C24.1376 8.18073 23.2677 8.62359 22.6261 9.41064C21.9845 10.1977 21.6234 11.2647 21.6222 12.3778V17.4912H12.0445C11.0337 17.4886 10.0456 17.8592 9.20879 18.5547C8.37196 19.2502 7.72506 20.2384 7.35221 21.3909C6.97937 22.5434 6.89781 23.8069 7.11815 25.017C7.3385 26.2271 7.85054 27.3279 8.58772 28.1763C8.55213 28.218 8.51493 28.2576 8.47934 28.3013C8.00218 28.8858 7.62562 29.582 7.37202 30.3485C7.11842 31.1149 6.99295 31.9361 7.00306 32.7632C7.01316 33.5903 7.15865 34.4065 7.43086 35.1633C7.70308 35.9201 8.09649 36.6021 8.58772 37.1688C8.55213 37.2105 8.51493 37.2502 8.47934 37.2939C8.00218 37.8784 7.62562 38.5745 7.37202 39.341C7.11842 40.1075 6.99295 40.9287 7.00306 41.7558C7.01316 42.5829 7.15865 43.3991 7.43086 44.1559C7.70308 44.9127 8.09649 45.5947 8.58772 46.1614L8.47934 46.2884C8.00208 46.8729 7.62546 47.5691 7.37187 48.3357C7.11828 49.1023 6.99289 49.9236 7.00315 50.7508C7.01341 51.5779 7.15911 52.3942 7.4316 53.1509C7.70408 53.9077 8.0978 54.5895 8.58934 55.156C7.79452 56.0716 7.26402 57.2795 7.07786 58.5973C6.8917 59.9152 7.05998 61.2716 7.55732 62.4619H1.37494C1.01042 62.4624 0.660942 62.6403 0.403184 62.9565C0.145425 63.2727 0.000428099 63.7014 0 64.1485C0.00171214 66.2315 0.676915 68.2286 1.87748 69.7016C3.07804 71.1747 4.70592 72.0035 6.40399 72.0061H65.596C67.2941 72.0035 68.922 71.1747 70.1225 69.7016C71.3231 68.2286 71.9983 66.2315 72 64.1485C72.0004 63.9266 71.9652 63.7068 71.8963 63.5016C71.8274 63.2964 71.7262 63.1098 71.5985 62.9526C71.4708 62.7954 71.3191 62.6707 71.1521 62.5854C70.9851 62.5002 70.806 62.4562 70.6251 62.456ZM62.246 41.6691C62.2456 42.4145 62.0039 43.1291 61.5741 43.656C61.1443 44.1828 60.5615 44.4788 59.9539 44.4788H47.6506V38.8515H59.9539C60.2553 38.8517 60.5536 38.9248 60.8319 39.0666C61.1102 39.2084 61.363 39.416 61.5759 39.6777C61.7888 39.9394 61.9575 40.2499 62.0725 40.5916C62.1875 40.9333 62.2464 41.2994 62.246 41.6691ZM62.246 32.6765C62.2456 33.4219 62.0039 34.1365 61.5741 34.6634C61.1443 35.1903 60.5615 35.4862 59.9539 35.4862H47.6506V29.8589H59.9539C60.5614 29.8594 61.1439 30.1556 61.5736 30.6823C62.0033 31.2091 62.2452 31.9234 62.246 32.6686V32.6765ZM62.246 23.684C62.2456 24.4293 62.0039 25.144 61.5741 25.6708C61.1443 26.1977 60.5615 26.4937 59.9539 26.4937H47.6506V20.8644H59.9539C60.5617 20.8649 61.1444 21.1613 61.5742 21.6885C62.004 22.2156 62.2456 22.9305 62.246 23.676V23.684ZM36.0493 3.37333C37.1491 3.37312 38.2121 3.85872 39.0438 4.74125C39.8755 5.62377 40.4203 6.84419 40.5786 8.17915H39.849C39.6202 7.16008 39.1253 6.26113 38.4402 5.61999C37.7551 4.97885 36.9175 4.63087 36.0558 4.62935C35.9057 4.62935 35.7617 4.70252 35.6555 4.83276C35.5493 4.963 35.4897 5.13965 35.4897 5.32383C35.4897 5.50802 35.5493 5.68467 35.6555 5.81491C35.7617 5.94515 35.9057 6.01832 36.0558 6.01832C36.6152 6.0192 37.1616 6.22547 37.6246 6.61058C38.0876 6.99569 38.446 7.542 38.6536 8.17915H31.5363C31.6941 6.84757 32.2366 5.62982 33.0649 4.74772C33.8933 3.86563 34.9524 3.37788 36.0493 3.37333ZM24.364 12.3778C24.3644 12.159 24.4354 11.9494 24.5615 11.7947C24.6876 11.64 24.8585 11.5529 25.0369 11.5524H47.0618C47.2403 11.5524 47.4114 11.6393 47.5376 11.7941C47.6638 11.9489 47.7347 12.1589 47.7347 12.3778V17.4912H46.2789C45.9144 17.4917 45.5649 17.6696 45.3071 17.9857C45.0494 18.3019 44.9044 18.7306 44.904 19.1778V45.1713C44.9045 45.2891 44.8858 45.4058 44.849 45.5145C44.8106 45.6217 44.7557 45.7187 44.6872 45.8003C44.6536 45.8416 44.6167 45.8789 44.5772 45.9114C44.4375 46.025 44.2701 46.076 44.1033 46.0558C43.9365 46.0355 43.7805 45.9453 43.6617 45.8003C43.5936 45.7183 43.5388 45.6214 43.4999 45.5145C43.4626 45.4059 43.4433 45.2892 43.4433 45.1713V19.1778C43.4433 18.7305 43.2984 18.3015 43.0406 17.9852C42.7827 17.6689 42.433 17.4912 42.0683 17.4912H37.9548C37.5903 17.4917 37.2408 17.6696 36.9831 17.9857C36.7253 18.3019 36.5803 18.7306 36.5799 19.1778V36.389C36.5799 36.4089 36.5799 36.4267 36.5799 36.4446C36.5782 36.5183 36.5672 36.5912 36.5476 36.6609C36.5126 36.7958 36.4515 36.9183 36.3696 37.018C36.336 37.0594 36.2992 37.0966 36.2596 37.1292C36.1404 37.2269 36.0002 37.2787 35.8568 37.278C35.8023 37.2772 35.748 37.2685 35.6951 37.2522C35.5642 37.2153 35.4442 37.1342 35.3489 37.018C35.3183 36.9834 35.2897 36.9463 35.2632 36.9069C35.2183 36.8314 35.1834 36.7477 35.1597 36.6589C35.141 36.5882 35.1301 36.5148 35.1273 36.4406C35.1281 36.4221 35.1281 36.4036 35.1273 36.3851V19.1778C35.1273 18.7305 34.9825 18.3015 34.7246 17.9852C34.4668 17.6689 34.117 17.4912 33.7524 17.4912H26.8291V13.358C26.8291 13.1738 26.7695 12.9972 26.6633 12.8669C26.5571 12.7367 26.4131 12.6635 26.263 12.6635C26.1128 12.6635 25.9688 12.7367 25.8627 12.8669C25.7565 12.9972 25.6968 13.1738 25.6968 13.358V17.4912H24.364V12.3778ZM40.7015 26.4857H39.3298V20.8644H40.7015V26.4857ZM39.3298 29.8589H40.7015V35.4783H39.3298V29.8589ZM9.75238 23.676C9.75238 22.9303 9.99387 22.2152 10.4237 21.6879C10.8536 21.1606 11.4366 20.8644 12.0445 20.8644H32.3807V26.4857H12.0445C11.437 26.4852 10.8545 26.1891 10.4248 25.6623C9.99505 25.1356 9.75323 24.4212 9.75238 23.676ZM9.75238 32.6686C9.75216 32.2994 9.81132 31.9337 9.92645 31.5926C10.0416 31.2515 10.2104 30.9416 10.4233 30.6806C10.6362 30.4196 10.889 30.2127 11.1672 30.0717C11.4454 29.9307 11.7435 29.8584 12.0445 29.8589H32.3807V35.4783H12.0445C11.437 35.4778 10.8545 35.1816 10.4248 34.6549C9.99505 34.1281 9.75323 33.4138 9.75238 32.6686ZM9.75238 41.6612C9.75216 41.2919 9.81132 40.9263 9.92645 40.5852C10.0416 40.244 10.2104 39.9341 10.4233 39.6731C10.6362 39.4121 10.889 39.2052 11.1672 39.0643C11.4454 38.9233 11.7435 38.851 12.0445 38.8515H33.0196L33.0455 38.8912C33.0876 38.9606 33.1296 39.0281 33.1733 39.0896L33.2218 39.161C33.2784 39.2424 33.3367 39.3217 33.3981 39.3971C33.979 40.1119 34.7483 40.5498 35.5682 40.6327C36.3882 40.7156 37.2055 40.438 37.874 39.8496C38.0303 39.715 38.1769 39.5643 38.3123 39.3991C38.3754 39.3217 38.4353 39.2424 38.4919 39.159L38.5356 39.0955C38.5825 39.0261 38.6294 38.9527 38.673 38.8773L38.6925 38.8475H40.7015V44.4669H12.0445C11.4387 44.4664 10.8576 44.1719 10.4282 43.6477C9.99874 43.1235 9.75579 42.4122 9.75238 41.6691V41.6612ZM41.4747 47.844L41.4828 47.8559C41.5572 47.9671 41.6365 48.0742 41.7189 48.1774C42.3286 48.9246 43.1427 49.3675 44.0034 49.4203C44.8642 49.4731 45.7102 49.132 46.3776 48.4631C46.4669 48.3737 46.5523 48.2783 46.6332 48.1774C46.7173 48.0742 46.7949 47.9671 46.8693 47.8559L46.879 47.844H59.9539C60.5614 47.844 61.144 48.1401 61.5735 48.667C62.0031 49.1939 62.2444 49.9085 62.2444 50.6537C62.2444 51.3989 62.0031 52.1135 61.5735 52.6405C61.144 53.1674 60.5614 53.4634 59.9539 53.4634H12.0445C11.437 53.4634 10.8544 53.1674 10.4249 52.6405C9.99531 52.1135 9.75399 51.3989 9.75399 50.6537C9.75399 49.9085 9.99531 49.1939 10.4249 48.667C10.8544 48.1401 11.437 47.844 12.0445 47.844H41.4747ZM9.75399 59.6463C9.75442 58.9013 9.99588 58.1869 10.4253 57.6601C10.8548 57.1333 11.4371 56.8371 12.0445 56.8366H59.9555C60.563 56.8366 61.1456 57.1326 61.5751 57.6595C62.0047 58.1865 62.246 58.9011 62.246 59.6463C62.246 60.3915 62.0047 61.1061 61.5751 61.633C61.1456 62.1599 60.563 62.456 59.9555 62.456H12.0445C11.4371 62.4554 10.8548 62.1592 10.4253 61.6324C9.99588 61.1056 9.75442 60.3913 9.75399 59.6463ZM65.596 68.6269H6.40399C5.67692 68.626 4.96657 68.3593 4.36356 67.861C3.76056 67.3627 3.29226 66.6554 3.0184 65.8292H68.9816C68.7074 66.655 68.239 67.3621 67.6361 67.8604C67.0331 68.3586 66.323 68.6255 65.596 68.6269Z"/>
</mask>
<path d="M70.6251 62.456H64.4427C64.9377 61.2669 65.1046 59.9128 64.9182 58.5973C64.7318 57.2819 64.2022 56.0763 63.409 55.1619C63.4446 55.1183 63.4818 55.0786 63.5158 55.0349C63.993 54.4504 64.3695 53.7542 64.6231 52.9878C64.8767 52.2213 65.0022 51.4001 64.9921 50.573C64.982 49.7459 64.8365 48.9297 64.5643 48.1729C64.2921 47.4161 63.8987 46.7341 63.4074 46.1674C63.4446 46.1257 63.4818 46.084 63.5158 46.0404C63.9929 45.456 64.3695 44.76 64.623 43.9937C64.8766 43.2274 65.0021 42.4064 64.992 41.5794C64.9819 40.7525 64.8364 39.9365 64.5642 39.1798C64.292 38.4232 63.8986 37.7413 63.4074 37.1748L63.5158 37.0478C63.9938 36.4635 64.3711 35.7672 64.6252 35.0004C64.8794 34.2336 65.0052 33.412 64.9953 32.5843C64.9853 31.7566 64.8398 30.9399 64.5673 30.1826C64.2948 29.4253 63.9009 28.743 63.409 28.1763L63.5174 28.0493C64.2224 27.1851 64.7026 26.0839 64.8975 24.8849C65.0924 23.686 64.9931 22.443 64.6122 21.3133C64.2314 20.1835 63.586 19.2176 62.7577 18.5376C61.9294 17.8577 60.9554 17.4942 59.9588 17.4932H50.4846V12.3778C50.4837 11.2646 50.1229 10.1972 49.4811 9.41007C48.8394 8.62289 47.9693 8.1802 47.0618 8.17915H43.3414C43.1806 5.94413 42.3432 3.86403 40.9942 2.34881C39.6452 0.833592 37.8825 -0.00683594 36.0534 -0.00683594C34.2243 -0.00683594 32.4615 0.833592 31.1125 2.34881C29.7635 3.86403 28.9261 5.94413 28.7654 8.17915H25.045C24.1376 8.18073 23.2677 8.62359 22.6261 9.41064C21.9845 10.1977 21.6234 11.2647 21.6222 12.3778V17.4912H12.0445C11.0337 17.4886 10.0456 17.8592 9.20879 18.5547C8.37196 19.2502 7.72506 20.2384 7.35221 21.3909C6.97937 22.5434 6.89781 23.8069 7.11815 25.017C7.3385 26.2271 7.85054 27.3279 8.58772 28.1763C8.55213 28.218 8.51493 28.2576 8.47934 28.3013C8.00218 28.8858 7.62562 29.582 7.37202 30.3485C7.11842 31.1149 6.99295 31.9361 7.00306 32.7632C7.01316 33.5903 7.15865 34.4065 7.43086 35.1633C7.70308 35.9201 8.09649 36.6021 8.58772 37.1688C8.55213 37.2105 8.51493 37.2502 8.47934 37.2939C8.00218 37.8784 7.62562 38.5745 7.37202 39.341C7.11842 40.1075 6.99295 40.9287 7.00306 41.7558C7.01316 42.5829 7.15865 43.3991 7.43086 44.1559C7.70308 44.9127 8.09649 45.5947 8.58772 46.1614L8.47934 46.2884C8.00208 46.8729 7.62546 47.5691 7.37187 48.3357C7.11828 49.1023 6.99289 49.9236 7.00315 50.7508C7.01341 51.5779 7.15911 52.3942 7.4316 53.1509C7.70408 53.9077 8.0978 54.5895 8.58934 55.156C7.79452 56.0716 7.26402 57.2795 7.07786 58.5973C6.8917 59.9152 7.05998 61.2716 7.55732 62.4619H1.37494C1.01042 62.4624 0.660942 62.6403 0.403184 62.9565C0.145425 63.2727 0.000428099 63.7014 0 64.1485C0.00171214 66.2315 0.676915 68.2286 1.87748 69.7016C3.07804 71.1747 4.70592 72.0035 6.40399 72.0061H65.596C67.2941 72.0035 68.922 71.1747 70.1225 69.7016C71.3231 68.2286 71.9983 66.2315 72 64.1485C72.0004 63.9266 71.9652 63.7068 71.8963 63.5016C71.8274 63.2964 71.7262 63.1098 71.5985 62.9526C71.4708 62.7954 71.3191 62.6707 71.1521 62.5854C70.9851 62.5002 70.806 62.4562 70.6251 62.456ZM62.246 41.6691C62.2456 42.4145 62.0039 43.1291 61.5741 43.656C61.1443 44.1828 60.5615 44.4788 59.9539 44.4788H47.6506V38.8515H59.9539C60.2553 38.8517 60.5536 38.9248 60.8319 39.0666C61.1102 39.2084 61.363 39.416 61.5759 39.6777C61.7888 39.9394 61.9575 40.2499 62.0725 40.5916C62.1875 40.9333 62.2464 41.2994 62.246 41.6691ZM62.246 32.6765C62.2456 33.4219 62.0039 34.1365 61.5741 34.6634C61.1443 35.1903 60.5615 35.4862 59.9539 35.4862H47.6506V29.8589H59.9539C60.5614 29.8594 61.1439 30.1556 61.5736 30.6823C62.0033 31.2091 62.2452 31.9234 62.246 32.6686V32.6765ZM62.246 23.684C62.2456 24.4293 62.0039 25.144 61.5741 25.6708C61.1443 26.1977 60.5615 26.4937 59.9539 26.4937H47.6506V20.8644H59.9539C60.5617 20.8649 61.1444 21.1613 61.5742 21.6885C62.004 22.2156 62.2456 22.9305 62.246 23.676V23.684ZM36.0493 3.37333C37.1491 3.37312 38.2121 3.85872 39.0438 4.74125C39.8755 5.62377 40.4203 6.84419 40.5786 8.17915H39.849C39.6202 7.16008 39.1253 6.26113 38.4402 5.61999C37.7551 4.97885 36.9175 4.63087 36.0558 4.62935C35.9057 4.62935 35.7617 4.70252 35.6555 4.83276C35.5493 4.963 35.4897 5.13965 35.4897 5.32383C35.4897 5.50802 35.5493 5.68467 35.6555 5.81491C35.7617 5.94515 35.9057 6.01832 36.0558 6.01832C36.6152 6.0192 37.1616 6.22547 37.6246 6.61058C38.0876 6.99569 38.446 7.542 38.6536 8.17915H31.5363C31.6941 6.84757 32.2366 5.62982 33.0649 4.74772C33.8933 3.86563 34.9524 3.37788 36.0493 3.37333ZM24.364 12.3778C24.3644 12.159 24.4354 11.9494 24.5615 11.7947C24.6876 11.64 24.8585 11.5529 25.0369 11.5524H47.0618C47.2403 11.5524 47.4114 11.6393 47.5376 11.7941C47.6638 11.9489 47.7347 12.1589 47.7347 12.3778V17.4912H46.2789C45.9144 17.4917 45.5649 17.6696 45.3071 17.9857C45.0494 18.3019 44.9044 18.7306 44.904 19.1778V45.1713C44.9045 45.2891 44.8858 45.4058 44.849 45.5145C44.8106 45.6217 44.7557 45.7187 44.6872 45.8003C44.6536 45.8416 44.6167 45.8789 44.5772 45.9114C44.4375 46.025 44.2701 46.076 44.1033 46.0558C43.9365 46.0355 43.7805 45.9453 43.6617 45.8003C43.5936 45.7183 43.5388 45.6214 43.4999 45.5145C43.4626 45.4059 43.4433 45.2892 43.4433 45.1713V19.1778C43.4433 18.7305 43.2984 18.3015 43.0406 17.9852C42.7827 17.6689 42.433 17.4912 42.0683 17.4912H37.9548C37.5903 17.4917 37.2408 17.6696 36.9831 17.9857C36.7253 18.3019 36.5803 18.7306 36.5799 19.1778V36.389C36.5799 36.4089 36.5799 36.4267 36.5799 36.4446C36.5782 36.5183 36.5672 36.5912 36.5476 36.6609C36.5126 36.7958 36.4515 36.9183 36.3696 37.018C36.336 37.0594 36.2992 37.0966 36.2596 37.1292C36.1404 37.2269 36.0002 37.2787 35.8568 37.278C35.8023 37.2772 35.748 37.2685 35.6951 37.2522C35.5642 37.2153 35.4442 37.1342 35.3489 37.018C35.3183 36.9834 35.2897 36.9463 35.2632 36.9069C35.2183 36.8314 35.1834 36.7477 35.1597 36.6589C35.141 36.5882 35.1301 36.5148 35.1273 36.4406C35.1281 36.4221 35.1281 36.4036 35.1273 36.3851V19.1778C35.1273 18.7305 34.9825 18.3015 34.7246 17.9852C34.4668 17.6689 34.117 17.4912 33.7524 17.4912H26.8291V13.358C26.8291 13.1738 26.7695 12.9972 26.6633 12.8669C26.5571 12.7367 26.4131 12.6635 26.263 12.6635C26.1128 12.6635 25.9688 12.7367 25.8627 12.8669C25.7565 12.9972 25.6968 13.1738 25.6968 13.358V17.4912H24.364V12.3778ZM40.7015 26.4857H39.3298V20.8644H40.7015V26.4857ZM39.3298 29.8589H40.7015V35.4783H39.3298V29.8589ZM9.75238 23.676C9.75238 22.9303 9.99387 22.2152 10.4237 21.6879C10.8536 21.1606 11.4366 20.8644 12.0445 20.8644H32.3807V26.4857H12.0445C11.437 26.4852 10.8545 26.1891 10.4248 25.6623C9.99505 25.1356 9.75323 24.4212 9.75238 23.676ZM9.75238 32.6686C9.75216 32.2994 9.81132 31.9337 9.92645 31.5926C10.0416 31.2515 10.2104 30.9416 10.4233 30.6806C10.6362 30.4196 10.889 30.2127 11.1672 30.0717C11.4454 29.9307 11.7435 29.8584 12.0445 29.8589H32.3807V35.4783H12.0445C11.437 35.4778 10.8545 35.1816 10.4248 34.6549C9.99505 34.1281 9.75323 33.4138 9.75238 32.6686ZM9.75238 41.6612C9.75216 41.2919 9.81132 40.9263 9.92645 40.5852C10.0416 40.244 10.2104 39.9341 10.4233 39.6731C10.6362 39.4121 10.889 39.2052 11.1672 39.0643C11.4454 38.9233 11.7435 38.851 12.0445 38.8515H33.0196L33.0455 38.8912C33.0876 38.9606 33.1296 39.0281 33.1733 39.0896L33.2218 39.161C33.2784 39.2424 33.3367 39.3217 33.3981 39.3971C33.979 40.1119 34.7483 40.5498 35.5682 40.6327C36.3882 40.7156 37.2055 40.438 37.874 39.8496C38.0303 39.715 38.1769 39.5643 38.3123 39.3991C38.3754 39.3217 38.4353 39.2424 38.4919 39.159L38.5356 39.0955C38.5825 39.0261 38.6294 38.9527 38.673 38.8773L38.6925 38.8475H40.7015V44.4669H12.0445C11.4387 44.4664 10.8576 44.1719 10.4282 43.6477C9.99874 43.1235 9.75579 42.4122 9.75238 41.6691V41.6612ZM41.4747 47.844L41.4828 47.8559C41.5572 47.9671 41.6365 48.0742 41.7189 48.1774C42.3286 48.9246 43.1427 49.3675 44.0034 49.4203C44.8642 49.4731 45.7102 49.132 46.3776 48.4631C46.4669 48.3737 46.5523 48.2783 46.6332 48.1774C46.7173 48.0742 46.7949 47.9671 46.8693 47.8559L46.879 47.844H59.9539C60.5614 47.844 61.144 48.1401 61.5735 48.667C62.0031 49.1939 62.2444 49.9085 62.2444 50.6537C62.2444 51.3989 62.0031 52.1135 61.5735 52.6405C61.144 53.1674 60.5614 53.4634 59.9539 53.4634H12.0445C11.437 53.4634 10.8544 53.1674 10.4249 52.6405C9.99531 52.1135 9.75399 51.3989 9.75399 50.6537C9.75399 49.9085 9.99531 49.1939 10.4249 48.667C10.8544 48.1401 11.437 47.844 12.0445 47.844H41.4747ZM9.75399 59.6463C9.75442 58.9013 9.99588 58.1869 10.4253 57.6601C10.8548 57.1333 11.4371 56.8371 12.0445 56.8366H59.9555C60.563 56.8366 61.1456 57.1326 61.5751 57.6595C62.0047 58.1865 62.246 58.9011 62.246 59.6463C62.246 60.3915 62.0047 61.1061 61.5751 61.633C61.1456 62.1599 60.563 62.456 59.9555 62.456H12.0445C11.4371 62.4554 10.8548 62.1592 10.4253 61.6324C9.99588 61.1056 9.75442 60.3913 9.75399 59.6463ZM65.596 68.6269H6.40399C5.67692 68.626 4.96657 68.3593 4.36356 67.861C3.76056 67.3627 3.29226 66.6554 3.0184 65.8292H68.9816C68.7074 66.655 68.239 67.3621 67.6361 67.8604C67.0331 68.3586 66.323 68.6255 65.596 68.6269Z" stroke="#058FA2" stroke-width="3" mask="url(#path-1-inside-1_1087_7928)"/>
</g>
<defs>
<clipPath id="clip0_1087_7928">
<rect width="72" height="72" fill="white"/>
</clipPath>
</defs>
</svg>
