<svg width="81" height="81" viewBox="0 0 81 81" fill="none" xmlns="http://www.w3.org/2000/svg">
<path d="M9.9162 6.63403C8.65793 7.0946 7.39966 8.23246 6.91777 9.39742C6.59651 10.1289 6.54297 15.466 6.54297 40.8242V71.384L7.15872 72.4677C7.47998 73.0366 8.28313 73.9036 8.89887 74.3641L10.0768 75.1769L39.954 75.2311C59.1493 75.2853 70.206 75.204 70.8485 75.0143C72.1335 74.6892 73.365 73.6326 74.0075 72.3051C74.543 71.3027 74.543 70.5171 74.543 40.9055C74.543 14.1114 74.4894 10.4269 74.1414 9.53288C73.5792 8.20537 72.7493 7.33843 71.4642 6.7424C70.4469 6.25474 69.0012 6.22765 40.6768 6.25474C16.1272 6.25474 10.7729 6.30893 9.9162 6.63403ZM69.9918 7.17587C69.9918 7.23006 69.6705 7.60935 69.2957 7.98864C68.6532 8.63885 68.5997 8.85558 68.7603 10.1018L68.9209 11.5106L60.5949 19.9362C55.0264 25.5714 52.376 28.4431 52.5902 28.5786C52.8044 28.714 55.776 25.8965 61.2642 20.3697L69.5902 11.9441L70.6879 12.1066C71.6516 12.2421 71.8926 12.1337 72.7493 11.3751L73.7398 10.5082V40.77V71.0589L73.0973 70.3545C72.3477 69.5418 71.3571 69.2166 70.3398 69.4876C69.6705 69.6501 68.9745 68.9999 61.2642 61.1974C55.776 55.6435 52.8044 52.826 52.5902 52.9614C52.376 53.0969 55.08 56.0228 60.7288 61.7392C67.3682 68.4852 69.1083 70.3816 68.9209 70.7067C68.439 71.4382 68.6264 72.7657 69.2957 73.4972C69.8044 74.0661 69.8579 74.2287 69.5367 74.337C69.028 74.5538 12.0579 74.5538 11.5493 74.337C11.228 74.2287 11.2816 74.0661 11.7902 73.4972C12.4595 72.7657 12.6469 71.4382 12.165 70.7067C11.9776 70.3816 13.7178 68.4852 20.3571 61.7392C25.8453 56.1854 28.7099 53.0969 28.4957 52.9614C28.3083 52.8531 25.176 55.8061 19.902 61.1161C11.6296 69.4605 11.6028 69.4876 10.5587 69.4063C9.38076 69.2979 8.4973 69.6772 7.82801 70.5442C7.37289 71.086 7.34612 69.5688 7.34612 40.7158V10.3456L8.28313 11.2939C9.13982 12.1608 9.32722 12.2421 10.3713 12.1066L11.4957 11.9441L19.8217 20.3697C25.3099 25.8965 28.2816 28.714 28.4957 28.5786C28.7099 28.4431 26.0595 25.5714 20.491 19.9362L12.165 11.5106L12.3256 10.1018C12.4863 8.74721 12.4595 8.63884 11.6296 7.85317L10.7729 7.04041H40.3823C56.6595 7.04041 69.9918 7.0946 69.9918 7.17587ZM72.4815 8.34083C73.5256 9.26196 72.5886 11.6461 71.143 11.6461C70.7949 11.6461 70.206 11.348 69.8579 10.9688C68.7871 9.91217 69.028 8.55757 70.3398 7.98864C71.2233 7.60935 71.7319 7.69062 72.4815 8.34083ZM11.3619 8.39501C12.0847 9.1265 12.0312 10.1831 11.228 10.9688C10.4249 11.7815 9.78234 11.8086 8.84533 11.0771C8.04218 10.4269 7.93509 9.37033 8.57761 8.4492C9.11305 7.66353 10.6123 7.63643 11.3619 8.39501ZM11.228 70.5712C12.9682 72.3051 10.7461 74.6892 8.73824 73.2534C7.88155 72.6573 7.93509 71.1944 8.84533 70.4629C9.78234 69.7314 10.4249 69.7585 11.228 70.5712ZM72.2406 70.4629C73.5792 71.5466 72.8028 73.6868 71.0627 73.6868C70.1256 73.6868 69.1886 72.7657 69.1886 71.8717C69.1886 71.086 70.313 69.8939 71.0091 69.8939C71.3036 69.8939 71.839 70.1378 72.2406 70.4629Z" stroke="#058FA2" stroke-width="2"/>
<path d="M5.33657 1.58749C3.71385 2.31491 2.65069 3.32211 1.7554 5.05673L1 6.45563V40.3088V74.162L1.7554 75.5889C2.59474 77.2116 3.79778 78.3307 5.47645 79.0861C6.53961 79.5897 8.27424 79.6177 40.3089 79.6177C72.3435 79.6177 74.0781 79.5897 75.1413 79.0861C76.8199 78.3307 78.023 77.2116 78.8623 75.5889L79.6177 74.162V40.3088V6.45563L78.8623 5.05673C77.967 3.32211 76.9039 2.31491 75.2812 1.58749C74.0501 1.02793 73.6305 0.999947 40.3089 0.999947C6.98726 0.999947 6.56759 1.02793 5.33657 1.58749ZM74.4698 1.89524C75.9247 2.31491 77.6313 3.79773 78.3307 5.28056C78.9183 6.4836 78.9183 6.56754 78.9183 40.2249C78.9183 77.0157 79.0302 74.8055 77.3235 76.8199C76.9039 77.3235 75.9247 78.0229 75.1413 78.3867L73.7424 79.0581H40.3648C3.99363 79.0581 6.20388 79.1421 4.02161 77.4914C3.51801 77.0997 2.79058 76.1764 2.39889 75.421L1.69945 74.0501V40.2529C1.69945 6.51158 1.69945 6.4836 2.28698 5.28056C2.95845 3.90964 4.55319 2.4548 5.9241 1.95119C7.26704 1.47557 72.8751 1.41962 74.4698 1.89524Z" fill="#058FA2" stroke="#058FA2" stroke-width="2"/>
<path d="M31.4035 44.179L31.4031 44.178C30.8907 43.0326 30.6593 41.6207 30.6811 40.2274C30.7029 38.8339 30.9787 37.419 31.518 36.265C32.8725 33.3499 35.64 31.224 38.7494 30.7498C46.41 29.5427 52.4111 37.4952 49.04 44.416C48.1261 46.3024 46.2577 48.2034 44.4478 49.0941C43.4198 49.6075 41.816 49.8317 40.2855 49.8245C38.7551 49.8174 37.1633 49.5784 36.1628 49.0625C35.208 48.5702 34.2215 47.7919 33.3795 46.9283C32.539 46.0661 31.8127 45.0883 31.4035 44.179ZM43.027 32.9754L43.025 32.9747C42.3006 32.7205 41.2858 32.5904 40.2456 32.5972C39.2057 32.604 38.1961 32.7472 37.4833 33.0017L37.4834 33.0018L37.4779 33.0036C36.7149 33.2663 35.8234 33.8604 35.0183 34.6218C34.2149 35.3814 33.5411 36.2664 33.1837 37.0705C31.8167 40.1462 32.6069 43.8311 35.0758 46.0643C36.6061 47.436 38.2495 48.0622 40.3088 48.0622C42.3683 48.0622 44.0119 47.4359 45.5423 46.0638C48.9579 42.9893 48.9582 37.6291 45.5431 34.5543C44.8208 33.9126 43.6745 33.1995 43.027 32.9754Z" fill="#FDD304" stroke="#FDD304"/>
<circle cx="10" cy="71.2437" r="3" stroke="#FDD304" stroke-width="2"/>
<circle cx="10" cy="10.2437" r="3" stroke="#FDD304" stroke-width="2"/>
<circle cx="71" cy="71.2437" r="3" stroke="#FDD304" stroke-width="2"/>
<circle cx="71" cy="10.2437" r="3" stroke="#FDD304" stroke-width="2"/>
</svg>
