<svg width="90" height="101" viewBox="0 0 90 101" fill="none" xmlns="http://www.w3.org/2000/svg">
<path d="M21.7134 7.58202C20.7342 8.3654 20.7062 9.82025 21.6854 10.7715C23.0563 12.1424 25.1827 11.2191 25.1827 9.23271C25.1827 8.39338 25.0148 8.02967 24.4552 7.58202C24.0356 7.24629 23.42 6.99449 23.0843 6.99449C22.7486 6.99449 22.1331 7.24629 21.7134 7.58202ZM24.0076 8.00169C25.1827 8.81305 24.4832 10.9114 23.0284 10.9114C22.4128 10.9114 21.5455 9.84822 21.5455 9.1208C21.5455 8.44933 22.4408 7.55404 23.0843 7.55404C23.2522 7.55404 23.6718 7.74989 24.0076 8.00169Z" fill="#058FA2"/>
<path d="M26.9985 7.69393C25.8514 8.81305 26.2151 10.5756 27.67 11.1912C29.3766 11.8906 31.0833 10.3798 30.6077 8.56124C30.216 6.96651 28.2016 6.49088 26.9985 7.69393ZM29.6564 8.1136C29.9642 8.42136 30.216 8.869 30.216 9.09282C30.216 9.65238 28.957 10.9114 28.3974 10.9114C27.8099 10.9114 26.8586 9.90418 26.8586 9.23271C26.8586 8.92496 27.1104 8.42136 27.4182 8.1136C27.7259 7.80584 28.2295 7.55404 28.5373 7.55404C28.8451 7.55404 29.3487 7.80584 29.6564 8.1136Z" fill="#058FA2"/>
<path d="M32.5679 7.63798C32.0083 8.11361 31.8125 8.56125 31.8125 9.23272C31.8125 10.3239 32.9316 11.4709 34.0227 11.4709C35.002 11.4709 36.0931 10.2959 36.0931 9.23272C36.0931 8.16956 35.002 6.99449 34.0227 6.99449C33.6311 6.99449 32.9876 7.30225 32.5679 7.63798ZM34.974 8.11361C35.2818 8.42136 35.5336 8.92496 35.5336 9.23272C35.5336 9.84823 34.6103 10.9114 34.0507 10.9114C32.7078 10.9114 31.9804 9.09283 32.9316 8.05765C33.5191 7.38618 34.2745 7.41416 34.974 8.11361Z" fill="#058FA2"/>
<path d="M37.9104 7.69394C37.4627 8.11361 37.2109 8.70114 37.2109 9.23272C37.2109 10.2959 38.3021 11.4709 39.2813 11.4709C41.2118 11.4709 42.191 8.89699 40.7361 7.63798C39.7569 6.79865 38.7497 6.82663 37.9104 7.69394ZM40.4004 8.08563C41.0999 8.84103 40.876 10.1 39.9807 10.6036C39.3093 10.9673 39.1694 10.9673 38.4979 10.5477C37.5467 9.93217 37.4907 8.61721 38.386 8.0017C39.2253 7.41416 39.8129 7.44214 40.4004 8.08563Z" fill="#058FA2"/>
<path d="M43.6207 7.27424C42.8094 7.74987 42.4177 9.12078 42.8094 10.044C43.7326 12.2823 47.0061 11.4429 47.0061 8.98089C47.0061 7.60998 44.8797 6.54682 43.6207 7.27424ZM45.9149 8.14156C47.1459 9.37258 45.4673 11.6388 44.0404 10.6875C43.3969 10.2679 43.0892 9.28865 43.341 8.5892C43.7886 7.44211 44.9916 7.21829 45.9149 8.14156Z" fill="#058FA2"/>
<path d="M48.8524 7.58203C48.2929 8.02967 48.125 8.39338 48.125 9.23272C48.125 10.4637 49.1042 11.4709 50.2793 11.4709C51.2305 11.4709 52.3217 10.2959 52.3217 9.23272C52.3217 8.16956 51.2305 6.99449 50.2793 6.99449C49.9156 6.99449 49.2721 7.24629 48.8524 7.58203ZM51.1466 8.0017C52.0419 8.61721 51.9859 9.93217 51.0347 10.5477C50.3632 10.9673 50.2233 10.9673 49.5519 10.6036C48.6566 10.1 48.4328 8.84103 49.1322 8.08563C49.7197 7.44214 50.3073 7.41416 51.1466 8.0017Z" fill="#058FA2"/>
<path d="M54.1369 7.69394C53.6893 8.11361 53.4375 8.70114 53.4375 9.23272C53.4375 10.2959 54.5286 11.4709 55.5079 11.4709C56.599 11.4709 57.7181 10.3239 57.7181 9.23272C57.7181 8.56125 57.5223 8.11361 56.9627 7.63798C55.9835 6.79865 54.9763 6.82663 54.1369 7.69394ZM56.571 8.02967C57.5782 8.95294 56.8508 10.9114 55.4799 10.9114C54.9203 10.9114 53.9971 9.84823 53.9971 9.23272C53.9971 8.56125 54.9483 7.55405 55.5918 7.55405C55.8436 7.55405 56.2912 7.74989 56.571 8.02967Z" fill="#058FA2"/>
<path d="M59.6772 7.55402C58.4182 8.72909 58.67 10.5756 60.1808 11.1911C61.1321 11.6108 62.503 11.1632 62.9506 10.3238C64.0977 8.22549 61.3839 5.93131 59.6772 7.55402ZM62.1113 8.11358C62.419 8.42134 62.6708 8.92494 62.6708 9.23269C62.6708 9.90416 61.7196 10.9114 61.1321 10.9114C60.5725 10.9114 59.3135 9.68034 59.3135 9.14876C59.3135 8.56123 60.3767 7.55402 60.9922 7.55402C61.2999 7.55402 61.8035 7.80582 62.1113 8.11358Z" fill="#058FA2"/>
<path d="M65.079 7.58202C64.5194 8.02967 64.3516 8.39338 64.3516 9.23271C64.3516 11.2191 66.4779 12.1424 67.8488 10.7715C69.2477 9.40058 68.3244 6.99449 66.4499 6.99449C66.1142 6.99449 65.4987 7.24629 65.079 7.58202ZM67.3732 8.00169C68.2685 8.6172 68.1286 10.0441 67.1214 10.6036C66.4499 10.9673 66.31 10.9673 65.6385 10.5477C64.6873 9.93216 64.6313 8.6172 65.5266 8.00169C66.31 7.44213 66.5898 7.44213 67.3732 8.00169Z" fill="#058FA2"/>
<path d="M9.7936 12.3382C8.17088 13.0656 7.10772 14.0728 6.21243 15.8075L5.45703 17.2064V51.0595V84.9127L6.21243 86.3396C7.05177 87.9623 8.25482 89.0814 9.93349 89.8368C10.9966 90.3404 12.7313 90.3684 44.7659 90.3684C76.8005 90.3684 78.5351 90.3404 79.5983 89.8368C81.277 89.0814 82.48 87.9623 83.3194 86.3396L84.0748 84.9127V51.0595V17.2064L83.3194 15.8075C82.4241 14.0728 81.3609 13.0656 79.7382 12.3382C78.5072 11.7787 78.0875 11.7507 44.7659 11.7507C11.4443 11.7507 11.0246 11.7787 9.7936 12.3382ZM78.9268 12.646C80.3817 13.0656 82.0883 14.5485 82.7878 16.0313C83.3753 17.2343 83.3753 17.3183 83.3753 50.9756C83.3753 87.7665 83.4872 85.5562 81.7806 87.5706C81.3609 88.0742 80.3817 88.7737 79.5983 89.1374L78.1994 89.8089H44.8218C8.45066 89.8089 10.6609 89.8928 8.47864 88.2421C7.97504 87.8504 7.24761 86.9271 6.85592 86.1717L6.15648 84.8008V51.0036C6.15648 17.2623 6.15648 17.2343 6.74401 16.0313C7.41548 14.6604 9.01022 13.2055 10.3811 12.7019C11.7241 12.2263 77.3321 12.1703 78.9268 12.646Z" fill="#058FA2"/>
<path d="M12.7596 15.8074C11.4446 16.283 10.1297 17.4581 9.62606 18.6611C9.29033 19.4165 9.23438 24.9282 9.23438 51.1154V82.6744L9.87787 83.7935C10.2136 84.3811 11.0529 85.2764 11.6964 85.752L12.9274 86.5913L44.1507 86.6473C64.2108 86.7032 75.7657 86.6193 76.4371 86.4235C77.7801 86.0877 79.0671 84.9966 79.7385 83.6257C80.2981 82.5905 80.2981 81.7791 80.2981 51.1994C80.2981 23.5293 80.2421 19.7243 79.8784 18.801C79.2909 17.4301 78.4236 16.5348 77.0806 15.9193C76.0175 15.4157 74.5067 15.3877 44.9061 15.4157C19.2504 15.4157 13.6549 15.4717 12.7596 15.8074ZM75.5419 16.367C75.5419 16.4229 75.2061 16.8146 74.8144 17.2063C74.143 17.8778 74.087 18.1016 74.2549 19.3886L74.4227 20.8434L65.7216 29.5445C59.9022 35.3639 57.1324 38.3296 57.3563 38.4694C57.5801 38.6093 60.6856 35.6996 66.4211 29.9922L75.1222 21.2911L76.2693 21.4589C77.2765 21.5988 77.5283 21.4869 78.4236 20.7035L79.4587 19.8082V51.0595V82.3387L78.7873 81.6113C78.0039 80.7719 76.9687 80.4362 75.9056 80.716C75.2061 80.8839 74.4787 80.2124 66.4211 72.1548C60.6856 66.4193 57.5801 63.5096 57.3563 63.6495C57.1324 63.7894 59.9582 66.811 65.8615 72.7143C72.8 79.6808 74.6186 81.6393 74.4227 81.975C73.9191 82.7304 74.115 84.1013 74.8144 84.8567C75.346 85.4442 75.402 85.6121 75.0662 85.724C74.5347 85.9478 14.9978 85.9478 14.4662 85.724C14.1305 85.6121 14.1865 85.4442 14.718 84.8567C15.4175 84.1013 15.6133 82.7304 15.1097 81.975C14.9139 81.6393 16.7324 79.6808 23.6709 72.7143C29.4064 66.9789 32.4 63.7894 32.1762 63.6495C31.9804 63.5376 28.707 66.5872 23.1953 72.0708C14.5502 80.688 14.5222 80.716 13.4311 80.6321C12.2 80.5201 11.2768 80.9118 10.5773 81.8071C10.1017 82.3667 10.0737 80.7999 10.0737 51.0035V19.6404L11.0529 20.6196C11.9482 21.5149 12.1441 21.5988 13.2352 21.4589L14.4103 21.2911L23.1114 29.9922C28.8468 35.6996 31.9524 38.6093 32.1762 38.4694C32.4 38.3296 29.6302 35.3639 23.8108 29.5445L15.1097 20.8434L15.2776 19.3886C15.4455 17.9897 15.4175 17.8778 14.5502 17.0664L13.6549 16.2271H44.5984C61.6089 16.2271 75.5419 16.283 75.5419 16.367ZM78.1438 17.57C79.2349 18.5213 78.2557 20.9833 76.7449 20.9833C76.3812 20.9833 75.7657 20.6755 75.402 20.2839C74.2829 19.1927 74.5347 17.7938 75.9056 17.2063C76.8288 16.8146 77.3604 16.8985 78.1438 17.57ZM14.2704 17.626C15.0258 18.3814 14.9698 19.4725 14.1305 20.2839C13.2912 21.1232 12.6197 21.1512 11.6405 20.3958C10.8011 19.7243 10.6892 18.6332 11.3607 17.6819C11.9202 16.8706 13.487 16.8426 14.2704 17.626ZM14.1305 81.8351C15.9491 83.6257 13.6269 86.0877 11.5286 84.6049C10.6333 83.9894 10.6892 82.4786 11.6405 81.7232C12.6197 80.9678 13.2912 80.9958 14.1305 81.8351ZM77.892 81.7232C79.2909 82.8423 78.4795 85.0526 76.661 85.0526C75.6817 85.0526 74.7025 84.1013 74.7025 83.178C74.7025 82.3667 75.8776 81.1357 76.605 81.1357C76.9128 81.1357 77.4723 81.3875 77.892 81.7232Z" fill="#058FA2"/>
<path d="M43.283 41.9947C40.3453 42.4424 37.7154 44.4568 36.4284 47.2266C35.4212 49.3809 35.3653 52.5983 36.3165 54.7246C37.0719 56.4033 39.0584 58.4457 40.8489 59.369C42.6395 60.2922 46.8362 60.3202 48.6827 59.3969C50.3894 58.5576 52.18 56.739 53.0473 54.9485C56.2368 48.4016 50.5573 40.8476 43.283 41.9947ZM47.6476 43.2537C48.375 43.5055 49.578 44.2609 50.3334 44.9324C53.9705 48.2058 53.9705 53.9133 50.3334 57.1867C48.7107 58.6415 46.9481 59.313 44.7658 59.313C42.5836 59.313 40.821 58.6415 39.1982 57.1867C36.5683 54.8086 35.729 50.8917 37.1838 47.6183C37.9672 45.8557 40.0656 43.8692 41.7722 43.2817C43.339 42.7221 46.0528 42.6942 47.6476 43.2537Z" fill="#058FA2"/>
<path d="M41.9407 45.5479C39.8143 46.667 38.8071 48.1778 38.6673 50.5C38.4994 53.2698 39.4506 55.1443 41.6889 56.4592C44.4027 58.082 48.2637 57.1587 50.0263 54.5008C50.6977 53.4656 50.7817 53.0739 50.7817 51.0315C50.7817 48.9332 50.6977 48.6254 49.9423 47.5343C48.8232 45.9676 46.585 44.7645 44.7664 44.7645C43.8432 44.7645 42.9758 45.0163 41.9407 45.5479ZM46.4731 45.9116C47.6761 46.3313 49.1869 47.7302 49.6905 48.8772C50.1661 49.9684 50.1941 51.9828 49.7745 53.0739C49.103 54.8645 46.7249 56.5152 44.7664 56.5152C42.808 56.5152 40.4299 54.8645 39.7584 53.0739C39.5905 52.6263 39.4506 51.731 39.4506 51.0595C39.4506 48.7933 40.5418 47.1146 42.6681 46.1354C43.9551 45.5479 45.1301 45.464 46.4731 45.9116Z" fill="#058FA2"/>
<path d="M21.7134 91.2357C20.7342 92.0191 20.7062 93.4739 21.6854 94.4252C23.0563 95.7961 25.1827 94.8728 25.1827 92.8864C25.1827 92.0471 25.0148 91.6834 24.4552 91.2357C24.0356 90.9 23.42 90.6482 23.0843 90.6482C22.7486 90.6482 22.1331 90.9 21.7134 91.2357ZM24.0076 91.6554C25.1827 92.4667 24.4832 94.5651 23.0284 94.5651C22.4128 94.5651 21.5455 93.5019 21.5455 92.7745C21.5455 92.103 22.4408 91.2077 23.0843 91.2077C23.2522 91.2077 23.6718 91.4036 24.0076 91.6554Z" fill="#058FA2"/>
<path d="M26.9983 91.3476C25.8791 92.4387 26.2429 94.2573 27.7257 94.8728C30.1318 95.852 31.9224 92.2429 29.6282 91.0678C28.5091 90.4803 27.7816 90.5362 26.9983 91.3476ZM29.6561 91.7672C30.4115 92.5226 30.3556 93.306 29.4603 93.9775C27.8376 95.2924 25.9351 93.2501 27.4179 91.7672C27.7257 91.4595 28.2293 91.2077 28.537 91.2077C28.8448 91.2077 29.3484 91.4595 29.6561 91.7672Z" fill="#058FA2"/>
<path d="M32.5679 91.2917C32.0083 91.7673 31.8125 92.2149 31.8125 92.8864C31.8125 93.9775 32.9316 95.1246 34.0227 95.1246C35.002 95.1246 36.0931 93.9496 36.0931 92.8864C36.0931 91.8232 35.002 90.6482 34.0227 90.6482C33.6311 90.6482 32.9876 90.9559 32.5679 91.2917ZM34.974 91.7673C35.8693 92.6626 35.6455 93.8656 34.4704 94.3133C32.8477 94.9288 31.6446 92.6346 33.0715 91.6554C33.9108 91.0678 34.3025 91.0958 34.974 91.7673Z" fill="#058FA2"/>
<path d="M37.9104 91.3476C37.4627 91.7673 37.2109 92.3548 37.2109 92.8864C37.2109 93.9496 38.3021 95.1246 39.2813 95.1246C41.2118 95.1246 42.191 92.5507 40.7361 91.2917C39.7569 90.4523 38.7497 90.4803 37.9104 91.3476ZM40.2325 91.6554C41.1278 92.2709 40.9879 93.6978 39.9807 94.2573C39.3093 94.621 39.1694 94.621 38.4979 94.2014C37.5467 93.5859 37.4907 92.2709 38.386 91.6554C39.1694 91.0958 39.4492 91.0958 40.2325 91.6554Z" fill="#058FA2"/>
<path d="M43.6207 90.9279C42.8094 91.4036 42.4177 92.7745 42.8094 93.6977C43.7326 95.936 47.0061 95.0966 47.0061 92.6346C47.0061 91.2637 44.8797 90.2005 43.6207 90.9279ZM45.8869 91.7673C46.6144 92.4947 46.5864 93.0542 45.7471 93.8656C44.9077 94.7329 44.6279 94.7329 43.7606 93.8656C43.257 93.334 43.1171 92.9983 43.229 92.5227C43.6487 91.2077 44.9357 90.816 45.8869 91.7673Z" fill="#058FA2"/>
<path d="M48.8524 91.2357C48.2929 91.6834 48.125 92.0471 48.125 92.8864C48.125 94.1174 49.1042 95.1246 50.2793 95.1246C51.2305 95.1246 52.3217 93.9496 52.3217 92.8864C52.3217 91.8232 51.2305 90.6482 50.2793 90.6482C49.9156 90.6482 49.2721 90.9 48.8524 91.2357ZM51.1466 91.6554C52.0419 92.2709 51.902 93.6978 50.8948 94.2573C50.2233 94.621 50.0834 94.621 49.412 94.2014C48.4607 93.5859 48.4048 92.2709 49.3001 91.6554C50.0834 91.0958 50.3632 91.0958 51.1466 91.6554Z" fill="#058FA2"/>
<path d="M54.1369 91.3476C53.6893 91.7673 53.4375 92.3548 53.4375 92.8864C53.4375 93.9496 54.5286 95.1246 55.5079 95.1246C56.599 95.1246 57.7181 93.9775 57.7181 92.8864C57.7181 92.2149 57.5223 91.7673 56.9627 91.2917C55.9835 90.4523 54.9763 90.4803 54.1369 91.3476ZM56.4591 91.6554C57.886 92.6346 56.6829 94.9288 55.0602 94.3133C53.8851 93.8656 53.6613 92.6626 54.5566 91.7673C55.2281 91.0958 55.6198 91.0678 56.4591 91.6554Z" fill="#058FA2"/>
<path d="M59.7072 91.1518C57.7208 92.7466 59.5114 95.7961 61.8335 94.8449C62.3092 94.649 62.8128 94.2574 62.9527 93.9776C64.0718 91.9072 61.5258 89.669 59.7072 91.1518ZM62.1133 91.7673C63.4563 93.1103 62.0294 95.0128 60.2948 94.2294C59.9031 94.0615 59.5953 93.8377 59.5953 93.7538C59.5953 93.6698 59.5114 93.3061 59.4274 92.9704C59.2316 92.2709 60.1549 91.2078 60.9942 91.2078C61.302 91.2078 61.8056 91.4596 62.1133 91.7673Z" fill="#058FA2"/>
<path d="M65.079 91.2357C64.5194 91.6834 64.3516 92.0471 64.3516 92.8864C64.3516 93.7257 64.5194 94.0895 65.079 94.5371C65.4987 94.8728 66.1142 95.1246 66.4499 95.1246C66.7856 95.1246 67.4011 94.8728 67.8208 94.5371C68.3804 94.0895 68.5482 93.7257 68.5482 92.8864C68.5482 92.0471 68.3804 91.6834 67.8208 91.2357C67.4011 90.9 66.7856 90.6482 66.4499 90.6482C66.1142 90.6482 65.4987 90.9 65.079 91.2357ZM67.3732 91.6554C68.2685 92.2709 68.1286 93.6978 67.1214 94.2573C66.4499 94.621 66.31 94.621 65.6385 94.2014C64.6873 93.5859 64.6313 92.2709 65.5266 91.6554C66.31 91.0958 66.5898 91.0958 67.3732 91.6554Z" fill="#058FA2"/>
</svg>
