<svg width="82" height="82" viewBox="0 0 82 82" fill="none" xmlns="http://www.w3.org/2000/svg">
<path d="M0.359598 0.613029C0.0481769 1.00225 -0.0296782 12.0173 0.00924936 41.5595L0.126032 82H41H81.874L81.9907 41.5595C82.0297 12.0173 81.9518 1.00225 81.6404 0.613029C80.9786 -0.204343 1.02137 -0.204343 0.359598 0.613029ZM39.6375 21.2809V39.7691H21.1469H2.65633V21.5533C2.65633 11.5113 2.77311 3.18191 2.92882 3.06515C3.0456 2.90946 11.3761 2.79269 21.4194 2.79269H39.6375V21.2809ZM64.3176 6.76279C64.5901 7.26878 65.0572 8.35861 65.3297 9.2149C65.6022 10.0712 66.2251 11.2 66.7311 11.7449C68.4829 13.6131 68.8332 15.209 68.8332 21.0473C68.8332 26.1462 68.8722 26.5354 69.6507 26.9246C71.0521 27.7031 71.9474 29.6492 71.9474 32.0624C71.9474 35.6044 72.3756 35.4876 60.0745 35.4876C47.8902 35.4876 48.2016 35.5654 48.2016 32.3349C48.2016 29.8438 48.9802 28.0534 50.4983 26.9636C51.1601 26.4965 51.7051 25.8348 51.7051 25.5234C51.7051 24.4336 53.1843 22.0593 54.975 20.3467C55.9482 19.4126 56.6489 18.4785 56.5321 18.3228C56.4543 18.1671 55.7536 18.206 54.975 18.4395C51.7829 19.2958 48.9802 17.4665 48.9802 14.4694C48.9802 11.5113 51.5883 9.79874 57.2328 9.02029C59.2181 8.70891 59.8799 8.43645 61.0088 7.3077C62.6048 5.67296 63.5391 5.55619 64.3176 6.76279ZM79.3437 60.9818V79.47H60.8531H42.3625V60.9818V42.4937H60.8531H79.3437V60.9818ZM23.2879 47.7482C24.6115 48.4099 25.8572 50.0835 26.2464 51.6794C26.4022 52.3021 26.8693 53.0417 27.2586 53.3141C28.2318 54.0147 28.1539 54.6375 26.9471 55.7662C25.1954 57.401 24.7283 58.6854 25.2733 60.3202C26.0907 62.889 28.7378 67.7933 29.2828 67.7933C29.5942 67.7933 30.3728 68.416 31.0345 69.1556C32.1245 70.4011 32.2413 70.8292 32.2413 72.97C32.2413 74.3712 32.0467 75.6167 31.7742 75.8892C31.4238 76.2395 28.3485 76.3562 20.2905 76.3562C7.87262 76.3562 8.49546 76.5119 8.49546 73.2424C8.49546 70.946 9.3908 69.0777 11.0258 68.1436C12.0768 67.5208 12.7775 66.5478 13.9843 64.0956C16.2421 59.4249 16.3199 58.5297 14.5682 56.6225C12.9721 54.8321 12.8164 53.859 13.9453 52.886C14.3735 52.5357 14.7239 51.9129 14.7239 51.5626C14.7239 50.5506 16.0085 48.7602 17.2931 47.9039C18.6556 47.0087 21.6919 46.9308 23.2879 47.7482Z" fill="#058FA2"/>
<path d="M7.87177 6.60716C5.26362 8.24191 5.18576 11.5114 7.6382 13.73C9.07852 15.0144 9.15638 15.209 10.2074 20.775L11.3363 26.4966L10.0906 27.8978C8.92281 29.2601 8.84496 29.4547 8.96174 32.1014L9.07852 34.9038L20.134 35.0206C27.9584 35.0984 31.3451 34.9817 31.6955 34.6703C32.3572 34.1254 32.4351 30.9727 31.8512 29.3768C31.6176 28.793 30.9948 27.9367 30.4498 27.4696L29.4766 26.6912L30.6833 20.6971C31.5397 16.3767 32.0458 14.5863 32.5129 14.3138C36.3668 12.1731 35.5104 6.60716 31.2673 6.06225C27.3356 5.51733 24.8442 10.3048 27.5302 13.1851L28.3088 14.0024L26.6738 16.0264L25.0778 18.0115L24.3771 17.1162C24.0267 16.6102 23.4817 15.715 23.2482 15.1312C22.8589 14.1971 22.8978 13.9246 23.6374 13.1461C25.5449 11.1222 24.8831 7.61915 22.3528 6.41255C18.0319 4.34966 14.1002 9.9545 17.409 13.4575L18.1876 14.2749L17.0198 16.1432C16.3969 17.1552 15.8519 17.9725 15.7741 17.9725C15.6962 17.9725 14.9955 17.1162 14.178 16.0264L12.6988 14.0803L13.5163 13.0683C14.762 11.5114 14.6452 8.98144 13.2827 7.46346C11.8813 5.86763 9.62351 5.51733 7.87177 6.60716ZM10.8692 9.02036C11.6867 9.48743 11.8424 10.5773 11.1417 11.2779C10.441 11.9785 9.35102 11.8228 8.88389 10.9276C8.53354 10.3048 8.57246 9.9545 9.11745 9.37066C9.896 8.51437 9.896 8.51437 10.8692 9.02036ZM21.4964 9.48743C22.3139 10.6551 21.6521 11.8228 20.2507 11.6671C18.9272 11.5114 18.5379 9.91558 19.6279 9.13713C20.5622 8.43652 20.7957 8.47544 21.4964 9.48743ZM31.6176 9.13713C33.019 10.1491 31.4619 12.4066 30.0216 11.5114C29.0873 10.9276 28.9705 10.0323 29.7101 9.25389C30.4887 8.51437 30.7223 8.47544 31.6176 9.13713ZM22.5864 19.5684C24.3381 22.2929 25.0778 22.4486 26.7906 20.3857L28.0363 18.9456L27.8027 20.23C27.6859 20.9306 27.3745 22.6432 27.102 24.0055L26.6349 26.5355L20.4065 26.4576L14.1391 26.3409L13.5163 22.8378C13.1659 20.8917 12.8934 19.2959 12.9713 19.2181C13.0491 19.1402 13.5552 19.724 14.1391 20.4636C15.813 22.6432 16.5915 22.3708 18.6547 18.9456C20.0172 16.6102 20.4454 16.1821 20.7568 16.6492C20.9904 16.9605 21.8078 18.2839 22.5864 19.5684ZM28.6591 29.7271C28.9316 29.9996 29.1262 30.7002 29.1262 31.284V32.3739H20.3675H11.6088V31.284C11.6088 30.7002 11.8035 29.9996 12.0759 29.7271C12.7377 29.0654 27.9973 29.0654 28.6591 29.7271Z" fill="#FDD304"/>
<path d="M61.6323 10.8888C61.1262 11.3948 59.8416 11.784 57.9342 12.0175C53.9246 12.5624 52.0172 13.4187 52.1729 14.5475C52.2897 15.3649 52.4454 15.4427 54.0414 15.287C58.2067 14.8978 58.012 14.8589 59.2966 17.311L60.4645 19.5296L58.2067 21.5146C56.1046 23.3829 54.82 25.1344 54.82 26.1464C54.82 26.4188 56.6106 26.5356 60.3866 26.4578L65.9143 26.341L66.0311 23.2272C66.2647 17.7781 65.8365 15.3649 64.3961 13.769C63.6954 12.9517 62.9558 11.8618 62.7612 11.2391C62.4108 10.1882 62.4108 10.1882 61.6323 10.8888Z" fill="#058FA2"/>
<path d="M51.55 30.2722C51.4332 30.5836 51.3164 31.2063 51.3164 31.6345C51.3164 32.3351 51.7057 32.374 60.114 32.374H68.8727L68.756 31.0896L68.6392 29.8441L60.2308 29.7273C52.7957 29.6494 51.7835 29.7273 51.55 30.2722Z" fill="#058FA2"/>
<path d="M54.704 47.4368C54.5483 47.5536 54.4315 49.6943 54.4315 52.1854V56.7004L55.8329 57.8291C57.4678 59.1136 57.4678 59.3082 55.21 64.0567C54.0033 66.5867 53.3415 67.5208 52.2905 68.1436C51.473 68.6107 50.6555 69.5448 50.3441 70.3233C49.6045 72.0359 49.5655 75.3443 50.3052 75.9281C50.6555 76.2395 54.0422 76.3562 61.8667 76.2784L72.9221 76.1616L73.0389 73.3592C73.1557 70.1676 72.6496 68.961 70.82 68.1825C69.9247 67.8322 69.3018 66.8981 67.9004 63.901C66.9272 61.7992 66.1098 59.8531 66.1098 59.5417C66.1098 59.2303 66.7326 58.413 67.4722 57.6734L68.8736 56.3112L68.7568 51.8351L68.6401 47.359H67.4722C66.4212 47.359 66.3044 47.5147 66.1876 48.6045C66.0708 49.8111 65.9541 49.8889 64.5137 49.8889C63.1902 49.8889 62.9956 49.7722 62.9956 48.9937C62.9956 47.7093 62.4116 47.0865 61.3995 47.2422C60.6599 47.3201 60.4263 47.6314 60.3485 48.6045C60.2317 49.8111 60.1149 49.8889 58.6746 49.8889C57.4289 49.8889 57.1564 49.7333 57.1564 49.1494C57.1564 47.826 56.6893 47.1644 55.8329 47.1644C55.3268 47.1644 54.8208 47.2811 54.704 47.4368ZM66.1098 54.0147C66.1098 54.6764 65.5259 55.6884 64.5137 56.7782C63.1513 58.2573 62.9566 58.6465 63.1902 59.7363C63.5016 61.0597 65.6037 66.1586 66.1487 66.8592C66.7715 67.6376 65.993 67.7933 61.3217 67.7933C57.7793 67.7933 56.7282 67.6765 56.8839 67.2873C57.0007 67.0538 57.7403 65.419 58.48 63.7064C60.3096 59.6196 60.3096 58.2184 58.5189 56.5058C57.5846 55.6106 57.1564 54.8321 57.1564 54.0926V53.0027H61.6331H66.1098V54.0147ZM69.9247 70.9849C70.1972 71.2574 70.3918 71.958 70.3918 72.5418V73.6317H61.6331H52.8744V72.3472C52.8744 71.6077 52.9912 70.9071 53.1469 70.7903C53.614 70.2843 69.4186 70.4789 69.9247 70.9849Z" fill="#FDD304"/>
<path d="M19.16 50.3173C18.2647 50.7843 17.3304 52.3802 17.7197 52.7694C17.8754 52.8862 19.16 53.0029 20.6393 53.0029C23.5199 53.0029 23.9092 52.6526 22.6246 51.1346C21.7682 50.1227 20.25 49.7724 19.16 50.3173Z" fill="#058FA2"/>
<path d="M18.4988 56.5838C19.1995 58.53 18.8102 60.9432 17.3309 64.057C16.5524 65.7306 15.8906 67.1708 15.8906 67.2486C15.8906 67.3265 17.9538 67.4043 20.523 67.4043H25.1165L23.8319 64.7186C22.0412 60.9821 21.5741 59.036 22.0801 57.5958C22.703 55.7665 22.664 55.7275 20.3284 55.7275C18.2652 55.7275 18.1874 55.7665 18.4988 56.5838Z" fill="#058FA2"/>
<path d="M12.0765 70.9852C11.804 71.2576 11.6094 71.8415 11.6094 72.3475V73.2427H20.3681H29.1268V72.3475C29.1268 71.8415 28.9322 71.2576 28.6597 70.9852C27.9979 70.3235 12.7383 70.3235 12.0765 70.9852Z" fill="#058FA2"/>
</svg>
