<svg width="88" height="86" viewBox="0 0 88 86" fill="none" xmlns="http://www.w3.org/2000/svg">
<path fill-rule="evenodd" clip-rule="evenodd" d="M19.8033 0.259538C16.7719 0.891577 14.8312 1.96739 13.8619 3.55214C13.1099 4.78111 12.9052 5.99103 12.6372 10.7821C12.4605 13.9469 12.3048 17.3013 12.2914 18.2362C12.2717 19.5845 11.9095 20.3727 10.5421 22.0437C8.45985 24.5888 7.95867 25.8046 8.3154 27.4452C8.68553 29.1489 11.176 31.8276 12.9349 32.4144C14.1173 32.8087 14.6231 33.3794 15.6749 35.5048C16.3842 36.9389 17.4251 38.7314 17.9874 39.4882C18.5501 40.2451 19.2012 41.4178 19.4348 42.0946C19.8314 43.2445 19.7095 43.4768 17.5746 45.6339C15.8018 47.4251 14.5984 48.2035 12.2081 49.1071C10.5132 49.7476 8.10312 50.6652 6.85246 51.1467C3.69713 52.3608 1.93733 54.0395 1.20377 56.5351C0.7993 57.9121 0.500767 61.948 0.299791 68.7638L0 78.9365L21.7297 78.9864C33.6816 79.0143 43.7425 78.9978 44.088 78.95C44.935 78.8328 46.6002 77.2329 46.6002 76.5361C46.6002 76.0834 44.3279 75.9751 34.8451 75.9751H23.0901L23.2262 67.523L23.3623 59.0704L24.4777 57.9443C25.4662 56.9463 26.0541 56.7792 29.6495 56.4725C34.859 56.0283 37.4394 55.2515 40.6341 53.1655L43.212 51.4817L47.1344 52.7204C51.754 54.1795 53.6582 55.356 54.6593 57.3693C55.4875 59.0345 55.6274 62.454 54.9239 63.8403C54.666 64.3484 53.8655 65.3993 53.1445 66.1751C51.8959 67.5188 52.0035 67.4836 55.4172 65.4301L59 63.2747L58.6843 60.2858C58.3196 56.8388 57.0635 53.9062 55.4616 52.7636C54.8482 52.3261 52.3678 51.2545 49.9498 50.3822C44.4962 48.4155 43.7706 48.0389 42.2038 46.3615C41.5129 45.622 40.4348 44.7463 39.8084 44.4155C38.7998 43.8833 38.7173 43.6862 39.0883 42.7C39.3185 42.0875 40.0655 40.8741 40.7476 40.0039C41.43 39.1337 42.4383 37.4398 42.988 36.2405C44.1286 33.7533 45.2097 32.4009 46.0579 32.4009C48.3956 32.4009 50.7595 29.1514 50.778 25.9129C50.7859 24.4847 50.4979 24.0092 48.3796 21.9536L45.9721 19.6175L45.7628 11.3134L45.5534 3.00937L43.5566 2.05243C42.4588 1.52615 40.7631 0.891152 39.7883 0.640706C37.4679 0.044627 22.2267 -0.246431 19.8033 0.259538ZM21.4781 3.41719C21.1327 3.50519 20.1328 3.69556 19.2565 3.84024C16.5332 4.29037 16.035 5.17412 16.035 9.55609V13.3635H29.6428H43.2506V10.2182C43.2506 3.84786 42.687 3.54072 30.6895 3.37531C25.9687 3.31016 21.8235 3.3292 21.4781 3.41719ZM16.035 17.8056V18.8632H29.6428H43.2506V17.8056V16.748H29.6428H16.035V17.8056ZM17.454 23.7647C17.1412 25.0245 17.5645 30.6363 18.1377 32.8302C19.21 36.9322 23.3438 40.8005 27.6439 41.7262C29.4217 42.1086 30.2465 42.0735 32.0403 41.5383C34.8912 40.688 38.0775 38.2157 39.6644 35.622C40.8564 33.6742 40.9284 33.2935 41.088 28.1204L41.2559 22.6707H29.4908H17.7257L17.454 23.7647ZM12.7582 24.0727C11.2585 25.6858 11.7781 29.0164 13.5295 29.0164C14.0503 29.0164 14.4393 28.6332 14.6085 27.9533C14.9171 26.7104 14.4561 23.0937 13.9888 23.0937C13.8129 23.0937 13.259 23.5345 12.7582 24.0727ZM44.5912 26.1566C44.7261 29.0126 45.4215 29.7238 46.7589 28.373C47.7415 27.3801 47.5925 25.7501 46.4097 24.5554C44.7901 22.9186 44.4526 23.2164 44.5912 26.1566ZM23.1529 44.8775C23.1529 46.0244 25.0065 47.7415 27.6405 49.0344L29.4334 49.9147L31.2711 49.0124C33.7427 47.7991 36.1326 45.6204 36.1326 44.5801C36.1326 43.9375 35.9555 43.8072 35.3999 44.042C34.1258 44.5792 26.3635 44.7891 24.723 44.3305C23.2337 43.9142 23.1529 43.9421 23.1529 44.8775ZM19.1983 48.4391C18.6803 49.2857 19.8121 50.5349 22.0781 51.618C24.3818 52.7192 26.3514 53.0639 25.8732 52.2821C25.5759 51.7965 20.9602 48.5741 20.0633 48.2264C19.7367 48.0999 19.3473 48.1955 19.1983 48.4391ZM37.1911 49.3707C36.283 49.8623 34.5901 50.928 33.4291 51.7381L31.3176 53.2116L32.9924 52.9252C35.7169 52.459 39.901 50.2642 39.901 49.3013C39.901 48.2437 39.2415 48.2606 37.1911 49.3707ZM11.2815 52.9028C3.8173 55.5375 3.89266 55.3911 3.89266 67.289V75.9751H11.5817H19.2707L19.537 74.0122C19.6836 72.933 19.8046 69.8392 19.8058 67.1376C19.8083 61.4556 20.3426 57.5487 21.2562 56.5287C22.1811 55.4961 22.1049 55.3666 19.908 54.2409C18.8143 53.6803 17.5603 52.8207 17.1215 52.3299C16.6827 51.8396 16.1175 51.4403 15.8654 51.4424C15.6134 51.4449 13.5504 52.1019 11.2815 52.9028ZM24.9898 60.9285C24.5405 62.1122 25.1581 62.927 26.3953 62.7831C27.3119 62.6765 27.5493 62.4311 27.5493 61.5914C27.5493 60.7516 27.3119 60.5063 26.3953 60.3996C25.6429 60.3121 25.1539 60.4961 24.9898 60.9285ZM41.0524 62.8944C40.04 63.49 40.1342 64.8459 41.2295 65.4378C42.2599 65.9953 47.4242 65.6624 48.7334 64.9542C49.7597 64.3992 49.7538 63.4338 48.7213 62.8753C47.6833 62.3144 42.0141 62.3283 41.0524 62.8944ZM24.9793 66.0334C24.5844 67.0729 25.1518 67.9371 26.2287 67.9371C27.6154 67.9371 28.4595 66.8867 27.7586 66.0334C27.4718 65.6844 26.7835 65.3988 26.2287 65.3988C25.6739 65.3988 25.1116 65.6844 24.9793 66.0334ZM24.9793 71.11C24.5844 72.1495 25.1518 73.0138 26.2287 73.0138C27.45 73.0138 28.2874 72.1034 27.9303 71.1638C27.5949 70.2804 25.3101 70.239 24.9793 71.11Z" fill="#058FA2"/>
<path fill-rule="evenodd" clip-rule="evenodd" d="M64.4865 55.0786C63.7571 55.272 63.0168 55.6963 62.5877 56.1666C62.0237 56.785 61.5242 58.05 61.5201 58.8712C61.5144 60.017 60.9516 60.4946 58.8122 61.1692C56.6158 61.8621 55.4665 62.7178 52.2395 66.0635C50.212 68.1657 49.8968 68.5801 48.8179 70.5638C48.1643 71.7655 47.5353 73.0706 47.4201 73.4639C47.3048 73.8571 47.1117 74.202 46.991 74.2303C46.8702 74.2585 45.9228 75.2972 44.8856 76.5384L43 78.7953L43.0575 79.8601C43.1375 81.3388 44.1013 83.3341 45.0981 84.0839C45.9664 84.737 47.4612 85.2304 49.34 85.4839C51.4595 85.7698 61.5559 85.9819 73.5009 85.9915L84.2124 86L85.6041 84.5172C87.783 82.1958 88.4792 80.2451 87.6785 78.7057C87.3377 78.0507 86.2776 77.3271 85.6518 77.3224C85.1006 77.3185 84.4894 76.6242 84.2543 75.735C83.5705 73.1495 83.3122 72.384 82.6455 70.9681C80.481 66.3717 76.6385 62.9655 71.2972 60.9085C70.8423 60.7333 70.2121 60.3411 69.897 60.037C69.4241 59.5809 69.3236 59.3575 69.3236 58.7611C69.3236 57.3943 68.522 56.098 67.2692 55.4386C66.5511 55.0607 65.2087 54.8869 64.4865 55.0786ZM65.1595 58.7537C65.0163 58.9908 65.2099 59.7854 65.4109 59.7854C65.4957 59.7854 65.7257 59.5766 65.9219 59.3214C66.1979 58.9627 66.2294 58.8255 66.0616 58.7165C65.7552 58.5176 65.2905 58.5368 65.1595 58.7537ZM62.9146 63.4502C61.5196 63.6881 60.0641 64.2433 58.0371 65.311C55.754 66.5135 54.1776 68.0256 52.4754 70.6462C51.0983 72.7663 50.4133 74.2691 50.0992 75.8595L49.8621 77.0593L63.2842 77.1077C76.2828 77.1544 80.5284 77.0388 80.9313 76.6266C81.19 76.3621 80.6693 74.4599 79.9201 72.9332C78.1154 69.255 75.802 66.8335 72.4635 65.1283C69.475 63.602 65.807 62.9574 62.9146 63.4502ZM50.0051 80.9659C46.0216 81.1373 45.6672 81.2675 47.8716 81.7501C49.9668 82.2088 57.4967 82.4023 68.9842 82.2932C74.9118 82.2367 80.4093 82.1136 81.2008 82.0197C82.9174 81.8161 84.2592 81.5052 84.2592 81.3114C84.2592 81.2343 83.8202 81.1267 83.2833 81.0722C81.6404 80.9057 53.4985 80.8158 50.0051 80.9659Z" fill="#FFCC09"/>
<circle cx="26.5" cy="61.5" r="1.5" fill="#FFCC09"/>
<circle cx="26.5" cy="66.5" r="1.5" fill="#FFCC09"/>
<circle cx="26.5" cy="71.5" r="1.5" fill="#FFCC09"/>
</svg>
