<svg width="120" height="120" viewBox="0 0 120 120" fill="none" xmlns="http://www.w3.org/2000/svg">
<path d="M46.0662 69.642V70.642H47.0662H57.5666C60.7944 70.642 63.4968 73.3443 63.4968 76.5722V81.6123C63.4968 90.8415 61.0473 99.8599 56.3583 107.654C56.0266 107.959 55.68 108.123 55.4665 108.123H11.9951C11.8052 108.123 11.4492 107.972 11.1471 107.519C11.0241 107.334 11 107.209 11 107.128C11 107.047 11.0241 106.922 11.1471 106.738L11.1545 106.727L11.1616 106.715C15.8885 99.1953 18.2452 90.3983 18.2452 81.6123V76.5722C18.2452 73.3443 20.9476 70.642 24.1755 70.642H34.6758H35.6758V69.642V11.8901C35.6758 11.3923 36.0681 11 36.5659 11H45.1762C45.6739 11 46.0662 11.3923 46.0662 11.8901V28.2706C46.0662 28.7683 45.6739 29.1607 45.1762 29.1607C44.6784 29.1607 44.2861 28.7684 44.2861 28.2706V13.7801V12.7801H43.2861H38.6659H37.6659V13.7801V59.1416V60.1416H38.6659H43.2861H44.2861V59.1416V45.7012C44.2861 45.2034 44.6784 44.8111 45.1762 44.8111C45.6739 44.8111 46.0662 45.2034 46.0662 45.7012V69.642ZM38.4559 61.9217H37.4559V62.9217V69.642V70.642H38.4559H43.0761H44.0761V69.642V62.9217V61.9217H43.0761H38.4559ZM60.7167 80.7223H61.7167V79.7223V76.5722C61.7167 74.3398 59.7989 72.4221 57.5666 72.4221H24.1755C21.6898 72.4221 20.0254 74.3842 20.0254 76.5722V79.7223V80.7223H21.0254H60.7167ZM54.2064 106.343H54.7822L55.0712 105.845C58.9287 99.2019 61.2862 91.4891 61.7151 83.7679L61.7738 82.7124H60.7167H21.2354H20.2628L20.2358 83.6846C20.0299 91.0947 18.178 98.2934 14.6821 104.874L13.9016 106.343H15.5652H25.6455H26.2304L26.5171 105.833C28.4385 102.418 30.1562 98.558 31.2327 94.4672L31.2328 94.4673L31.2358 94.4553C31.2929 94.2268 31.7426 93.8217 32.3506 93.9279C32.5805 94.0022 32.9607 94.4407 32.862 95.0294C31.8278 98.5375 30.5947 101.814 28.9633 104.873L28.179 106.343H29.8456H39.926H40.5108L40.7976 105.833C42.7189 102.418 44.4367 98.558 45.5132 94.4672L45.5133 94.4673L45.5163 94.4553C45.5734 94.2268 46.023 93.8217 46.6311 93.9279C46.861 94.0022 47.2411 94.4407 47.1425 95.0294C46.1083 98.5375 44.8751 101.814 43.2438 104.873L42.4594 106.343H44.1261H54.2064Z" stroke="#058FA2" stroke-width="2"/>
<path d="M77.3069 85.1826C75.4168 85.1826 73.5268 86.0226 72.2667 87.2827C71.4267 88.1227 71.4267 89.1727 72.2667 90.0128C73.1068 90.8528 74.1568 90.8528 74.9968 90.0128C75.6268 89.3828 76.4669 88.9627 77.3069 88.9627C78.1469 88.9627 78.987 89.3828 79.617 90.0128C80.247 90.6428 80.667 91.4828 80.667 92.3228C80.667 93.1629 80.247 94.0029 79.617 94.6329C78.777 95.473 78.777 96.523 79.617 97.363C80.037 97.783 80.457 97.993 81.087 97.993C81.507 97.993 82.1371 97.783 82.5571 97.363C83.8171 96.103 84.6571 94.2129 84.6571 92.3228C84.6571 90.4328 83.8171 88.5427 82.5571 87.2827C81.087 85.8126 79.197 85.1826 77.3069 85.1826Z" fill="#FFCC09"/>
<path d="M75.6285 61.4515C77.5186 61.4515 78.9886 62.9216 78.9886 64.8116C78.9886 65.8617 79.8286 66.7017 80.8787 66.7017C81.9287 66.7017 82.7687 65.8617 82.7687 64.8116C82.7687 60.8215 79.6186 57.6714 75.6285 57.6714C71.6384 57.6714 68.4883 60.8215 68.4883 64.8116C68.4883 65.8617 69.3283 66.7017 70.3783 66.7017C71.4284 66.7017 72.2684 65.8617 72.2684 64.8116C72.2684 62.9216 73.7384 61.4515 75.6285 61.4515Z" fill="#FFCC09"/>
<path d="M101.668 84.5525C102.508 82.8724 103.138 80.9824 103.138 79.0923C103.138 72.7921 98.098 67.752 91.7978 67.752C88.8577 67.752 85.9176 68.802 83.8175 70.9021C82.9775 71.7421 82.9775 72.7921 83.8175 73.6321C84.6575 74.4722 85.7076 74.4722 86.5476 73.6321C88.0177 72.3721 89.9077 71.5321 91.7978 71.5321C95.9979 71.5321 99.358 74.8922 99.358 79.0923C99.358 80.9824 98.518 82.8724 97.258 84.3425C96.838 84.7625 96.6279 85.6025 96.8379 86.2326C97.048 86.8626 97.678 87.4926 98.308 87.4926C102.508 88.3326 105.658 91.9027 105.658 96.3129C105.658 101.353 101.668 105.343 96.6279 105.343C93.4778 105.343 90.5377 103.663 89.0677 101.143C88.4377 100.303 87.3876 99.883 86.3376 100.513C85.4976 101.143 85.0776 102.193 85.7076 103.243C88.0177 107.023 92.2178 109.333 96.6279 109.333C103.768 109.333 109.438 103.663 109.438 96.5229C109.228 91.2727 106.288 86.6526 101.668 84.5525Z" fill="#FFCC09"/>
<path d="M44.9633 34.9907C44.5433 34.9907 43.9133 35.2007 43.4933 35.6207C43.0733 36.0408 42.8633 36.4608 42.8633 37.0908C42.8633 37.5108 43.0733 38.1408 43.4933 38.5608C43.9133 38.9809 44.3333 39.1909 44.9633 39.1909C45.3834 39.1909 46.0134 38.9809 46.4334 38.5608C46.8534 38.1408 47.0634 37.7208 47.0634 37.0908C47.0634 36.6708 46.8534 36.0408 46.4334 35.6207C46.0134 35.2007 45.5934 34.9907 44.9633 34.9907Z" fill="#CCCCCC"/>
</svg>
