<svg width="120" height="120" viewBox="0 0 120 120" fill="none" xmlns="http://www.w3.org/2000/svg">
<mask id="path-1-inside-1_5105_7844" fill="white">
<path d="M97.4922 44.8906H95.2656V47.1172H97.4922V44.8906Z"/>
</mask>
<path d="M95.2656 44.8906V41.8906H92.2656V44.8906H95.2656ZM97.4922 44.8906H100.492V41.8906H97.4922V44.8906ZM97.4922 47.1172V50.1172H100.492V47.1172H97.4922ZM95.2656 47.1172H92.2656V50.1172H95.2656V47.1172ZM95.2656 44.8906V47.8906H97.4922V44.8906V41.8906H95.2656V44.8906ZM97.4922 44.8906H94.4922V47.1172H97.4922H100.492V44.8906H97.4922ZM97.4922 47.1172V44.1172H95.2656V47.1172V50.1172H97.4922V47.1172ZM95.2656 47.1172H98.2656V44.8906H95.2656H92.2656V47.1172H95.2656Z" fill="#FDC114" mask="url(#path-1-inside-1_5105_7844)"/>
<mask id="path-3-inside-2_5105_7844" fill="white">
<path d="M97.4922 38.4453H95.2656V40.6719H97.4922V38.4453Z"/>
</mask>
<path d="M95.2656 38.4453V35.4453H92.2656V38.4453H95.2656ZM97.4922 38.4453H100.492V35.4453H97.4922V38.4453ZM97.4922 40.6719V43.6719H100.492V40.6719H97.4922ZM95.2656 40.6719H92.2656V43.6719H95.2656V40.6719ZM95.2656 38.4453V41.4453H97.4922V38.4453V35.4453H95.2656V38.4453ZM97.4922 38.4453H94.4922V40.6719H97.4922H100.492V38.4453H97.4922ZM97.4922 40.6719V37.6719H95.2656V40.6719V43.6719H97.4922V40.6719ZM95.2656 40.6719H98.2656V38.4453H95.2656H92.2656V40.6719H95.2656Z" fill="#FDC114" mask="url(#path-3-inside-2_5105_7844)"/>
<mask id="path-5-inside-3_5105_7844" fill="white">
<path d="M97.4922 89.8965H95.2656V92.123H97.4922V89.8965Z"/>
</mask>
<path d="M95.2656 89.8965V86.8965H92.2656V89.8965H95.2656ZM97.4922 89.8965H100.492V86.8965H97.4922V89.8965ZM97.4922 92.123V95.123H100.492V92.123H97.4922ZM95.2656 92.123H92.2656V95.123H95.2656V92.123ZM95.2656 89.8965V92.8965H97.4922V89.8965V86.8965H95.2656V89.8965ZM97.4922 89.8965H94.4922V92.123H97.4922H100.492V89.8965H97.4922ZM97.4922 92.123V89.123H95.2656V92.123V95.123H97.4922V92.123ZM95.2656 92.123H98.2656V89.8965H95.2656H92.2656V92.123H95.2656Z" fill="#FDC114" mask="url(#path-5-inside-3_5105_7844)"/>
<mask id="path-7-inside-4_5105_7844" fill="white">
<path d="M97.4922 83.4512H95.2656V85.6777H97.4922V83.4512Z"/>
</mask>
<path d="M95.2656 83.4512V80.4512H92.2656V83.4512H95.2656ZM97.4922 83.4512H100.492V80.4512H97.4922V83.4512ZM97.4922 85.6777V88.6777H100.492V85.6777H97.4922ZM95.2656 85.6777H92.2656V88.6777H95.2656V85.6777ZM95.2656 83.4512V86.4512H97.4922V83.4512V80.4512H95.2656V83.4512ZM97.4922 83.4512H94.4922V85.6777H97.4922H100.492V83.4512H97.4922ZM97.4922 85.6777V82.6777H95.2656V85.6777V88.6777H97.4922V85.6777ZM95.2656 85.6777H98.2656V83.4512H95.2656H92.2656V85.6777H95.2656Z" fill="#FDC114" mask="url(#path-7-inside-4_5105_7844)"/>
<mask id="path-9-inside-5_5105_7844" fill="white">
<path d="M78.0369 70.8781C78.0369 68.2217 76.0955 66.0116 73.5577 65.5883C74.1955 64.6906 74.5437 63.6212 74.5437 62.4957C74.5437 59.5377 72.1372 57.1311 69.1791 57.1311H63.3596V59.4748H69.1791C70.8448 59.4748 72.2 60.8298 72.2 62.4957C72.2 63.3036 71.8859 64.0613 71.3143 64.6311C70.7452 65.2002 69.9868 65.5138 69.1794 65.5138V67.8575H72.6725C74.3377 67.8575 75.6934 69.2129 75.6934 70.8784C75.6934 71.6827 75.3788 72.4402 74.8077 73.0112C74.2367 73.5826 73.4783 73.8969 72.6727 73.8969H70.1464V76.2406H72.6727C74.338 76.2406 75.6936 77.5946 75.6936 79.2587C75.6936 80.0647 75.3791 80.8229 74.8065 81.3955C74.2384 81.9655 73.4804 82.2793 72.6727 82.2793H69.1796V84.623C70.8453 84.623 72.2005 85.977 72.2005 87.6416C72.2005 88.449 71.8864 89.2072 71.3148 89.7765C70.7438 90.3474 69.9859 90.6617 69.1798 90.6617H57.5384C55.8741 90.6617 54.5202 89.3068 54.5202 87.6413C54.5202 85.9768 55.8741 84.6228 57.5384 84.6228H65.2496V82.2791H57.5384C55.8741 82.2791 54.5202 80.9241 54.5202 79.2582C54.5202 78.4923 54.8049 77.7786 55.2978 77.2348C56.1887 77.6848 57.1939 77.9398 58.258 77.9398C59.4521 77.9398 60.4843 77.2449 60.9795 76.2402H67.4119V73.8964H61.2929V67.857H65.2691V65.5133H61.2929V63.0631C61.2929 59.2234 58.1689 56.0996 54.3294 56.0996H44.3422C39.3774 56.0996 34.5852 58.1809 31.194 61.8097C27.7032 65.5452 22.8772 67.6873 17.9532 67.6873H8.41016V70.0311H17.953C23.5236 70.0311 28.9738 67.6177 32.9063 63.41C35.8559 60.2537 40.0241 58.4434 44.3419 58.4434H54.3291C56.8763 58.4434 58.9489 60.5157 58.9489 63.0631V74.9045C58.9489 75.2858 58.6386 75.5961 58.2573 75.5961C55.9154 75.5961 54.0102 73.6909 54.0102 71.349V62.547H51.6664V71.349C51.6664 73.0728 52.3325 74.6436 53.4195 75.819C52.6278 76.7637 52.1755 77.9701 52.1755 79.2582C52.1755 80.9537 52.9665 82.4666 54.1979 83.4505C52.9665 84.4341 52.1755 85.9466 52.1755 87.6413C52.1755 89.9314 53.618 91.8903 55.6419 92.6584V94.0166H36.6104C34.8856 94.0166 33.2457 93.4714 31.8683 92.4404C29.2796 90.5005 26.2841 89.4751 23.2053 89.4751H8.41016V91.8188H23.2053C25.7731 91.8188 28.2828 92.6823 30.4632 94.3163C32.2494 95.6534 34.3752 96.3603 36.6106 96.3603H55.6421V114.937H62.8913V93.0055H69.1791C70.6114 93.0055 71.9581 92.4474 72.9704 91.4349C73.9848 90.4238 74.5437 89.0764 74.5437 87.6413C74.5437 86.4887 74.1772 85.4206 73.5554 84.5455C74.6537 84.3643 75.6657 83.8529 76.4645 83.0509C77.4784 82.0374 78.0369 80.6902 78.0369 79.2582C78.0369 77.5637 77.2454 76.0515 76.0135 75.0683C76.1696 74.9434 76.3213 74.8114 76.4645 74.6682C77.4784 73.655 78.0369 72.3088 78.0369 70.8781ZM60.5476 112.594H57.9859V109.781H60.5476V112.594ZM60.5476 107.437H57.9859V93.0055H60.5476V107.437Z"/>
</mask>
<path d="M73.5577 65.5883L71.1121 63.8508L68.3357 67.7587L73.0642 68.5474L73.5577 65.5883ZM63.3596 57.1311V54.1311H60.3596V57.1311H63.3596ZM63.3596 59.4748H60.3596V62.4748H63.3596V59.4748ZM71.3143 64.6311L69.1965 62.5063L69.193 62.5098L71.3143 64.6311ZM69.1794 65.5138V62.5138H66.1794V65.5138H69.1794ZM69.1794 67.8575H66.1794V70.8575H69.1794V67.8575ZM74.8077 73.0112L72.6868 70.8894L72.6855 70.8907L74.8077 73.0112ZM70.1464 73.8969V70.8969H67.1464V73.8969H70.1464ZM70.1464 76.2406H67.1464V79.2406H70.1464V76.2406ZM74.8065 81.3955L72.6852 79.2741L72.6817 79.2776L74.8065 81.3955ZM69.1796 82.2793V79.2793H66.1796V82.2793H69.1796ZM69.1796 84.623H66.1796V87.623H69.1796V84.623ZM71.3148 89.7765L69.1978 87.6508L69.1934 87.6552L71.3148 89.7765ZM65.2496 84.6228V87.6228H68.2496V84.6228H65.2496ZM65.2496 82.2791H68.2496V79.2791H65.2496V82.2791ZM55.2978 77.2348L56.6504 74.5571L54.6102 73.5265L53.0751 75.22L55.2978 77.2348ZM60.9795 76.2402V73.2402H59.1136L58.2886 74.9139L60.9795 76.2402ZM67.4119 76.2402V79.2402H70.4119V76.2402H67.4119ZM67.4119 73.8964H70.4119V70.8964H67.4119V73.8964ZM61.2929 73.8964H58.2929V76.8964H61.2929V73.8964ZM61.2929 67.857V64.857H58.2929V67.857H61.2929ZM65.2691 67.857V70.857H68.2691V67.857H65.2691ZM65.2691 65.5133H68.2691V62.5133H65.2691V65.5133ZM61.2929 65.5133H58.2929V68.5133H61.2929V65.5133ZM31.194 61.8097L29.0021 59.7614L29.0021 59.7614L31.194 61.8097ZM8.41016 67.6873V64.6873H5.41016V67.6873H8.41016ZM8.41016 70.0311H5.41016V73.0311H8.41016V70.0311ZM32.9063 63.41L35.0981 65.4584L35.0982 65.4583L32.9063 63.41ZM54.0102 62.547H57.0102V59.547H54.0102V62.547ZM51.6664 62.547V59.547H48.6664V62.547H51.6664ZM53.4195 75.819L55.7189 77.7459L57.4155 75.7213L55.622 73.7821L53.4195 75.819ZM54.1979 83.4505L56.0703 85.7944L59.0042 83.4507L56.0706 81.1067L54.1979 83.4505ZM55.6419 92.6584H58.6419V90.5881L56.7063 89.8535L55.6419 92.6584ZM55.6419 94.0166V97.0166H58.6419V94.0166H55.6419ZM31.8683 92.4404L30.0692 94.8411L30.0706 94.8421L31.8683 92.4404ZM8.41016 89.4751V86.4751H5.41016V89.4751H8.41016ZM8.41016 91.8188H5.41016V94.8188H8.41016V91.8188ZM30.4632 94.3163L28.6641 96.717L28.6654 96.718L30.4632 94.3163ZM55.6421 96.3603H58.6421V93.3603H55.6421V96.3603ZM55.6421 114.937H52.6421V117.937H55.6421V114.937ZM62.8913 114.937V117.937H65.8913V114.937H62.8913ZM62.8913 93.0055V90.0055H59.8913V93.0055H62.8913ZM72.9704 91.4349L70.8525 89.3102L70.8488 89.3138L72.9704 91.4349ZM73.5554 84.5455L73.0671 81.5855L68.3277 82.3673L71.1098 86.283L73.5554 84.5455ZM76.4645 83.0509L74.3436 80.929L74.3388 80.9339L76.4645 83.0509ZM76.0135 75.0683L74.139 72.726L71.2083 75.0715L74.1421 77.413L76.0135 75.0683ZM76.4645 74.6682L74.3439 72.5461L74.3431 72.5469L76.4645 74.6682ZM60.5476 112.594V115.594H63.5476V112.594H60.5476ZM57.9859 112.594H54.9859V115.594H57.9859V112.594ZM57.9859 109.781V106.781H54.9859V109.781H57.9859ZM60.5476 109.781H63.5476V106.781H60.5476V109.781ZM60.5476 107.437V110.437H63.5476V107.437H60.5476ZM57.9859 107.437H54.9859V110.437H57.9859V107.437ZM57.9859 93.0055V90.0055H54.9859V93.0055H57.9859ZM60.5476 93.0055H63.5476V90.0055H60.5476V93.0055ZM78.0369 70.8781H81.0369C81.0369 66.728 78.0083 63.2892 74.0513 62.6292L73.5577 65.5883L73.0642 68.5474C74.1828 68.734 75.0369 69.7155 75.0369 70.8781H78.0369ZM73.5577 65.5883L76.0034 67.3258C76.9983 65.9253 77.5437 64.2496 77.5437 62.4957H74.5437H71.5437C71.5437 62.9927 71.3926 63.456 71.1121 63.8508L73.5577 65.5883ZM74.5437 62.4957H77.5437C77.5437 57.8808 73.794 54.1311 69.1791 54.1311V57.1311V60.1311C70.4803 60.1311 71.5437 61.1945 71.5437 62.4957H74.5437ZM69.1791 57.1311V54.1311H63.3596V57.1311V60.1311H69.1791V57.1311ZM63.3596 57.1311H60.3596V59.4748H63.3596H66.3596V57.1311H63.3596ZM63.3596 59.4748V62.4748H69.1791V59.4748V56.4748H63.3596V59.4748ZM69.1791 59.4748V62.4748C69.1835 62.4748 69.1849 62.4752 69.1843 62.4751C69.1839 62.475 69.1836 62.4749 69.1836 62.4749C69.1842 62.4752 69.1881 62.477 69.1929 62.4819C69.1978 62.4868 69.1997 62.4907 69.1999 62.4912C69.1999 62.4912 69.1998 62.4909 69.1997 62.4905C69.1996 62.4899 69.2 62.4913 69.2 62.4957H72.2H75.2C75.2 59.1728 72.5015 56.4748 69.1791 56.4748V59.4748ZM72.2 62.4957H69.2C69.2 62.503 69.1993 62.5064 69.1993 62.5066C69.1992 62.5068 69.1995 62.5056 69.2003 62.5035C69.2012 62.5014 69.202 62.5001 69.2022 62.4998C69.2024 62.4996 69.201 62.5018 69.1965 62.5063L71.3143 64.6311L73.4321 66.7559C74.5698 65.622 75.2 64.0992 75.2 62.4957H72.2ZM71.3143 64.6311L69.193 62.5098C69.191 62.5118 69.1895 62.5131 69.1886 62.5138C69.1882 62.5141 69.1879 62.5144 69.1877 62.5145C69.1874 62.5147 69.1873 62.5148 69.1873 62.5148C69.1873 62.5148 69.1874 62.5147 69.1876 62.5146C69.1877 62.5145 69.1879 62.5144 69.1882 62.5143C69.1887 62.514 69.1893 62.5137 69.19 62.5134C69.1915 62.5128 69.1921 62.5127 69.1913 62.5129C69.1905 62.5131 69.1868 62.5138 69.1794 62.5138V65.5138V68.5138C70.7796 68.5138 72.3019 67.8861 73.4356 66.7524L71.3143 64.6311ZM69.1794 65.5138H66.1794V67.8575H69.1794H72.1794V65.5138H69.1794ZM69.1794 67.8575V70.8575H72.6725V67.8575V64.8575H69.1794V67.8575ZM72.6725 67.8575V70.8575C72.6767 70.8575 72.6779 70.8579 72.6773 70.8577C72.6768 70.8576 72.6764 70.8575 72.6765 70.8575C72.6771 70.8578 72.6811 70.8597 72.6861 70.8648C72.6912 70.8698 72.6931 70.8738 72.6933 70.8744C72.6934 70.8744 72.6932 70.874 72.6931 70.8735C72.693 70.8729 72.6934 70.8742 72.6934 70.8784H75.6934H78.6934C78.6934 67.5559 75.9944 64.8575 72.6725 64.8575V67.8575ZM75.6934 70.8784H72.6934C72.6934 70.8836 72.6929 70.8857 72.693 70.8852C72.6931 70.8848 72.6934 70.8835 72.6941 70.8818C72.6948 70.8801 72.6952 70.8795 72.6948 70.8802C72.6944 70.8808 72.6921 70.884 72.6868 70.8894L74.8077 73.0112L76.9285 75.1329C78.0602 74.0018 78.6934 72.482 78.6934 70.8784H75.6934ZM74.8077 73.0112L72.6855 70.8907C72.6805 70.8957 72.6776 70.8977 72.6771 70.898C72.6767 70.8983 72.6773 70.8978 72.6789 70.8972C72.6804 70.8965 72.6815 70.8963 72.6814 70.8963C72.6814 70.8963 72.6788 70.8969 72.6727 70.8969V73.8969V76.8969C74.2754 76.8969 75.797 76.2654 76.9298 75.1316L74.8077 73.0112ZM72.6727 73.8969V70.8969H70.1464V73.8969V76.8969H72.6727V73.8969ZM70.1464 73.8969H67.1464V76.2406H70.1464H73.1464V73.8969H70.1464ZM70.1464 76.2406V79.2406H72.6727V76.2406V73.2406H70.1464V76.2406ZM72.6727 76.2406V79.2406C72.6771 79.2406 72.6786 79.241 72.6781 79.2409C72.6778 79.2409 72.6776 79.2408 72.6777 79.2408C72.6785 79.2412 72.6825 79.2431 72.6874 79.248C72.6896 79.2503 72.6913 79.2524 72.6925 79.2541C72.6936 79.2558 72.694 79.2567 72.694 79.2566C72.6939 79.2564 72.6936 79.2557 72.6935 79.2549C72.6933 79.2539 72.6936 79.2548 72.6936 79.2587H75.6936H78.6936C78.6936 75.9349 75.9919 73.2406 72.6727 73.2406V76.2406ZM75.6936 79.2587H72.6936C72.6936 79.2618 72.6934 79.264 72.6933 79.2653C72.6932 79.2666 72.6931 79.2672 72.6931 79.2672C72.693 79.2673 72.6931 79.267 72.6933 79.2664C72.6935 79.2658 72.6937 79.2652 72.694 79.2645C72.6946 79.263 72.695 79.2626 72.6943 79.2636C72.6937 79.2645 72.6911 79.2682 72.6852 79.2741L74.8065 81.3955L76.9278 83.5168C78.0607 82.3839 78.6936 80.8635 78.6936 79.2587H75.6936ZM74.8065 81.3955L72.6817 79.2776C72.6781 79.2812 72.6766 79.2821 72.6773 79.2816C72.678 79.2812 72.6795 79.2803 72.6815 79.2794C72.6835 79.2786 72.6846 79.2784 72.6841 79.2785C72.6837 79.2786 72.6801 79.2793 72.6727 79.2793V82.2793V85.2793C74.274 85.2793 75.7976 84.6507 76.9313 83.5133L74.8065 81.3955ZM72.6727 82.2793V79.2793H69.1796V82.2793V85.2793H72.6727V82.2793ZM69.1796 82.2793H66.1796V84.623H69.1796H72.1796V82.2793H69.1796ZM69.1796 84.623V87.623C69.1841 87.623 69.1856 87.6235 69.1852 87.6234C69.1849 87.6233 69.1847 87.6232 69.1848 87.6233C69.1855 87.6236 69.1894 87.6255 69.1942 87.6303C69.1964 87.6325 69.1981 87.6346 69.1992 87.6363C69.2004 87.638 69.2007 87.6388 69.2007 87.6388C69.2006 87.6386 69.2004 87.638 69.2003 87.6373C69.2001 87.6365 69.2005 87.6375 69.2005 87.6416H72.2005H75.2005C75.2005 84.3179 72.4999 81.623 69.1796 81.623V84.623ZM72.2005 87.6416H69.2005C69.2005 87.6486 69.1998 87.652 69.1998 87.6522C69.1997 87.6524 69.2 87.6512 69.2008 87.6491C69.2017 87.6471 69.2025 87.6457 69.2028 87.6452C69.2031 87.6448 69.2019 87.6467 69.1978 87.6508L71.3148 89.7765L73.4317 91.9022C74.5705 90.768 75.2005 89.2441 75.2005 87.6416H72.2005ZM71.3148 89.7765L69.1934 87.6552C69.1883 87.6603 69.1852 87.6624 69.1847 87.6627C69.1842 87.6631 69.1848 87.6626 69.1864 87.662C69.1879 87.6613 69.189 87.6611 69.1889 87.6611C69.1889 87.6611 69.1861 87.6617 69.1798 87.6617V90.6617V93.6617C70.7831 93.6617 72.3037 93.0302 73.4361 91.8978L71.3148 89.7765ZM69.1798 90.6617V87.6617H57.5384V90.6617V93.6617H69.1798V90.6617ZM57.5384 90.6617V87.6617C57.5344 87.6617 57.5334 87.6614 57.5342 87.6615C57.5349 87.6617 57.5356 87.6619 57.5357 87.662C57.5358 87.662 57.5349 87.6616 57.5332 87.6605C57.5315 87.6594 57.5294 87.6577 57.5272 87.6555C57.5225 87.6507 57.5206 87.6469 57.5203 87.6462C57.5203 87.6462 57.5204 87.6464 57.5205 87.6468C57.5206 87.6473 57.5202 87.6458 57.5202 87.6413H54.5202H51.5202C51.5202 90.9617 54.2153 93.6617 57.5384 93.6617V90.6617ZM54.5202 87.6413H57.5202C57.5202 87.6371 57.5205 87.6359 57.5204 87.6366C57.5203 87.6368 57.5203 87.637 57.5202 87.6373C57.5201 87.6376 57.52 87.6377 57.5201 87.6377C57.5202 87.6374 57.5219 87.6338 57.5266 87.6291C57.5312 87.6245 57.5348 87.6228 57.5351 87.6227C57.5351 87.6227 57.5349 87.6227 57.5346 87.6228C57.5343 87.6229 57.534 87.623 57.5338 87.623C57.5331 87.6232 57.5343 87.6228 57.5384 87.6228V84.6228V81.6228C54.2171 81.6228 51.5202 84.3201 51.5202 87.6413H54.5202ZM57.5384 84.6228V87.6228H65.2496V84.6228V81.6228H57.5384V84.6228ZM65.2496 84.6228H68.2496V82.2791H65.2496H62.2496V84.6228H65.2496ZM65.2496 82.2791V79.2791H57.5384V82.2791V85.2791H65.2496V82.2791ZM57.5384 82.2791V79.2791C57.5344 79.2791 57.5334 79.2787 57.5343 79.2789C57.535 79.279 57.5356 79.2793 57.5358 79.2793C57.5359 79.2794 57.535 79.279 57.5333 79.2779C57.5316 79.2767 57.5295 79.2751 57.5274 79.2729C57.5226 79.2681 57.5207 79.2643 57.5204 79.2636C57.5203 79.2634 57.5204 79.2635 57.5204 79.2636C57.5204 79.2637 57.5204 79.2637 57.5205 79.2638C57.5205 79.2638 57.5205 79.2639 57.5205 79.2639C57.5205 79.2639 57.5205 79.2639 57.5205 79.2639C57.5205 79.2639 57.5205 79.2639 57.5205 79.2639C57.5205 79.2639 57.5205 79.2639 57.5205 79.2639C57.5205 79.2638 57.5205 79.2638 57.5204 79.2637C57.5204 79.2636 57.5204 79.2633 57.5203 79.2629C57.5203 79.2622 57.5202 79.2607 57.5202 79.2582H54.5202H51.5202C51.5202 82.5787 54.215 85.2791 57.5384 85.2791V82.2791ZM54.5202 79.2582H57.5202C57.5202 79.2529 57.5206 79.2501 57.5208 79.2493C57.5209 79.2484 57.521 79.2483 57.5208 79.2488C57.5204 79.25 57.5199 79.2504 57.5205 79.2497L55.2978 77.2348L53.0751 75.22C52.088 76.309 51.5202 77.7386 51.5202 79.2582H54.5202ZM55.2978 77.2348L53.9452 79.9126C55.242 80.5676 56.7091 80.9398 58.258 80.9398V77.9398V74.9398C57.6787 74.9398 57.1354 74.802 56.6504 74.5571L55.2978 77.2348ZM58.258 77.9398V80.9398C60.6478 80.9398 62.6941 79.5473 63.6704 77.5665L60.9795 76.2402L58.2886 74.9139C58.2868 74.9175 58.2839 74.9222 58.2795 74.9271C58.2751 74.932 58.2707 74.9355 58.2674 74.9376C58.2644 74.9395 58.2632 74.9397 58.2638 74.9395C58.2652 74.9391 58.2641 74.9398 58.258 74.9398V77.9398ZM60.9795 76.2402V79.2402H67.4119V76.2402V73.2402H60.9795V76.2402ZM67.4119 76.2402H70.4119V73.8964H67.4119H64.4119V76.2402H67.4119ZM67.4119 73.8964V70.8964H61.2929V73.8964V76.8964H67.4119V73.8964ZM61.2929 73.8964H64.2929V67.857H61.2929H58.2929V73.8964H61.2929ZM61.2929 67.857V70.857H65.2691V67.857V64.857H61.2929V67.857ZM65.2691 67.857H68.2691V65.5133H65.2691H62.2691V67.857H65.2691ZM65.2691 65.5133V62.5133H61.2929V65.5133V68.5133H65.2691V65.5133ZM61.2929 65.5133H64.2929V63.0631H61.2929H58.2929V65.5133H61.2929ZM61.2929 63.0631H64.2929C64.2929 57.5664 59.8257 53.0996 54.3294 53.0996V56.0996V59.0996C56.5121 59.0996 58.2929 60.8803 58.2929 63.0631H61.2929ZM54.3294 56.0996V53.0996H44.3422V56.0996V59.0996H54.3294V56.0996ZM44.3422 56.0996V53.0996C38.5461 53.0996 32.9603 55.5257 29.0021 59.7614L31.194 61.8097L33.3859 63.858C36.21 60.836 40.2087 59.0996 44.3422 59.0996V56.0996ZM31.194 61.8097L29.0021 59.7614C26.0541 62.916 22.0111 64.6873 17.9532 64.6873V67.6873V70.6873C23.7433 70.6873 29.3523 68.1744 33.3859 63.858L31.194 61.8097ZM17.9532 67.6873V64.6873H8.41016V67.6873V70.6873H17.9532V67.6873ZM8.41016 67.6873H5.41016V70.0311H8.41016H11.4102V67.6873H8.41016ZM8.41016 70.0311V73.0311H17.953V70.0311V67.0311H8.41016V70.0311ZM17.953 70.0311V73.0311C24.3858 73.0311 30.62 70.2499 35.0981 65.4584L32.9063 63.41L30.7146 61.3616C27.3275 64.9856 22.6614 67.0311 17.953 67.0311V70.0311ZM32.9063 63.41L35.0982 65.4583C37.4808 62.9087 40.8554 61.4434 44.3419 61.4434V58.4434V55.4434C39.1927 55.4434 34.231 57.5986 30.7144 61.3617L32.9063 63.41ZM44.3419 58.4434V61.4434H54.3291V58.4434V55.4434H44.3419V58.4434ZM54.3291 58.4434V61.4434C55.2196 61.4434 55.9489 62.1727 55.9489 63.0631H58.9489H61.9489C61.9489 58.8588 58.5331 55.4434 54.3291 55.4434V58.4434ZM58.9489 63.0631H55.9489V74.9045H58.9489H61.9489V63.0631H58.9489ZM58.9489 74.9045H55.9489C55.9489 73.629 56.9817 72.5961 58.2573 72.5961V75.5961V78.5961C60.2955 78.5961 61.9489 76.9426 61.9489 74.9045H58.9489ZM58.2573 75.5961V72.5961C57.5722 72.5961 57.0102 72.034 57.0102 71.349H54.0102H51.0102C51.0102 75.3477 54.2585 78.5961 58.2573 78.5961V75.5961ZM54.0102 71.349H57.0102V62.547H54.0102H51.0102V71.349H54.0102ZM54.0102 62.547V59.547H51.6664V62.547V65.547H54.0102V62.547ZM51.6664 62.547H48.6664V71.349H51.6664H54.6664V62.547H51.6664ZM51.6664 71.349H48.6664C48.6664 73.8609 49.6401 76.1508 51.217 77.8559L53.4195 75.819L55.622 73.7821C55.0249 73.1364 54.6664 72.2847 54.6664 71.349H51.6664ZM53.4195 75.819L51.1202 73.8921C49.8796 75.3724 49.1755 77.2596 49.1755 79.2582H52.1755H55.1755C55.1755 78.6806 55.376 78.1551 55.7189 77.7459L53.4195 75.819ZM52.1755 79.2582H49.1755C49.1755 81.9088 50.4157 84.2685 52.3252 85.7942L54.1979 83.4505L56.0706 81.1067C55.5173 80.6646 55.1755 79.9986 55.1755 79.2582H52.1755ZM54.1979 83.4505L52.3255 81.1065C50.4161 82.6318 49.1755 84.991 49.1755 87.6413H52.1755H55.1755C55.1755 86.9021 55.5169 86.2365 56.0703 85.7944L54.1979 83.4505ZM52.1755 87.6413H49.1755C49.1755 91.2219 51.4304 94.2689 54.5774 95.4632L55.6419 92.6584L56.7063 89.8535C55.8057 89.5118 55.1755 88.641 55.1755 87.6413H52.1755ZM55.6419 92.6584H52.6419V94.0166H55.6419H58.6419V92.6584H55.6419ZM55.6419 94.0166V91.0166H36.6104V94.0166V97.0166H55.6419V94.0166ZM36.6104 94.0166V91.0166C35.5322 91.0166 34.5233 90.6804 33.666 90.0387L31.8683 92.4404L30.0706 94.8421C31.9681 96.2624 34.2391 97.0166 36.6104 97.0166V94.0166ZM31.8683 92.4404L33.6673 90.0397C30.5877 87.7318 26.9671 86.4751 23.2053 86.4751V89.4751V92.4751C25.601 92.4751 27.9715 93.2691 30.0692 94.8411L31.8683 92.4404ZM23.2053 89.4751V86.4751H8.41016V89.4751V92.4751H23.2053V89.4751ZM8.41016 89.4751H5.41016V91.8188H8.41016H11.4102V89.4751H8.41016ZM8.41016 91.8188V94.8188H23.2053V91.8188V88.8188H8.41016V91.8188ZM23.2053 91.8188V94.8188C25.0835 94.8188 26.9692 95.4467 28.6641 96.717L30.4632 94.3163L32.2623 91.9157C29.5965 89.9178 26.4627 88.8188 23.2053 88.8188V91.8188ZM30.4632 94.3163L28.6654 96.718C30.9714 98.4442 33.7282 99.3603 36.6106 99.3603V96.3603V93.3603C35.0221 93.3603 33.5273 92.8626 32.261 91.9147L30.4632 94.3163ZM36.6106 96.3603V99.3603H55.6421V96.3603V93.3603H36.6106V96.3603ZM55.6421 96.3603H52.6421V114.937H55.6421H58.6421V96.3603H55.6421ZM55.6421 114.937V117.937H62.8913V114.937V111.937H55.6421V114.937ZM62.8913 114.937H65.8913V93.0055H62.8913H59.8913V114.937H62.8913ZM62.8913 93.0055V96.0055H69.1791V93.0055V90.0055H62.8913V93.0055ZM69.1791 93.0055V96.0055C71.4072 96.0055 73.5171 95.1312 75.092 93.556L72.9704 91.4349L70.8488 89.3138C70.3992 89.7636 69.8156 90.0055 69.1791 90.0055V93.0055ZM72.9704 91.4349L75.0883 93.5597C76.6684 91.9847 77.5437 89.8723 77.5437 87.6413H74.5437H71.5437C71.5437 88.2805 71.3011 88.863 70.8525 89.3102L72.9704 91.4349ZM74.5437 87.6413H77.5437C77.5437 85.8422 76.9694 84.1709 76.001 82.8079L73.5554 84.5455L71.1098 86.283C71.385 86.6703 71.5437 87.1352 71.5437 87.6413H74.5437ZM73.5554 84.5455L74.0437 87.5055C75.7519 87.2237 77.3398 86.4233 78.5901 85.1678L76.4645 83.0509L74.3388 80.9339C73.9916 81.2825 73.5555 81.5049 73.0671 81.5855L73.5554 84.5455ZM76.4645 83.0509L78.5853 85.1727C80.1615 83.5972 81.0369 81.487 81.0369 79.2582H78.0369H75.0369C75.0369 79.8935 74.7953 80.4776 74.3436 80.9291L76.4645 83.0509ZM78.0369 79.2582H81.0369C81.0369 76.6074 79.7951 74.2481 77.8849 72.7235L76.0135 75.0683L74.1421 77.413C74.6956 77.8548 75.0369 78.52 75.0369 79.2582H78.0369ZM76.0135 75.0683L77.888 77.4105C78.1076 77.2348 78.3462 77.0291 78.5858 76.7895L76.4645 74.6682L74.3431 72.5469C74.2963 72.5937 74.2316 72.6519 74.139 72.726L76.0135 75.0683ZM76.4645 74.6682L78.585 76.7903C80.1608 75.2156 81.0369 73.1065 81.0369 70.8781H78.0369H75.0369C75.0369 71.5111 74.7959 72.0944 74.3439 72.5461L76.4645 74.6682ZM60.5476 112.594V109.594H57.9859V112.594V115.594H60.5476V112.594ZM57.9859 112.594H60.9859V109.781H57.9859H54.9859V112.594H57.9859ZM57.9859 109.781V112.781H60.5476V109.781V106.781H57.9859V109.781ZM60.5476 109.781H57.5476V112.594H60.5476H63.5476V109.781H60.5476ZM60.5476 107.437V104.437H57.9859V107.437V110.437H60.5476V107.437ZM57.9859 107.437H60.9859V93.0055H57.9859H54.9859V107.437H57.9859ZM57.9859 93.0055V96.0055H60.5476V93.0055V90.0055H57.9859V93.0055ZM60.5476 93.0055H57.5476V107.437H60.5476H63.5476V93.0055H60.5476Z" fill="#058FA2" mask="url(#path-9-inside-5_5105_7844)"/>
<mask id="path-11-inside-6_5105_7844" fill="white">
<path d="M50.3975 62.4668H48.0538C48.0538 70.8471 41.2358 77.6651 32.8555 77.6651V80.0088C42.5284 80.0088 50.3975 72.1395 50.3975 62.4668Z"/>
</mask>
<path d="M50.3975 62.4668H53.3975V59.4668H50.3975V62.4668ZM48.0538 62.4668V59.4668H45.0538V62.4668H48.0538ZM32.8555 77.6651V74.6651H29.8555V77.6651H32.8555ZM32.8555 80.0088H29.8555V83.0088H32.8555V80.0088ZM50.3975 62.4668V59.4668H48.0538V62.4668V65.4668H50.3975V62.4668ZM48.0538 62.4668H45.0538C45.0538 69.1903 39.5789 74.6651 32.8555 74.6651V77.6651V80.6651C42.8926 80.6651 51.0538 72.504 51.0538 62.4668H48.0538ZM32.8555 77.6651H29.8555V80.0088H32.8555H35.8555V77.6651H32.8555ZM32.8555 80.0088V83.0088C44.1852 83.0088 53.3975 73.7963 53.3975 62.4668H50.3975H47.3975C47.3975 70.4826 40.8715 77.0088 32.8555 77.0088V80.0088Z" fill="#058FA2" mask="url(#path-11-inside-6_5105_7844)"/>
<mask id="path-13-inside-7_5105_7844" fill="white">
<path d="M35.793 48.102C35.793 49.9051 37.2599 51.372 39.063 51.372C40.866 51.372 42.333 49.9051 42.333 48.102C42.333 46.299 40.866 44.832 39.063 44.832C37.2599 44.832 35.793 46.299 35.793 48.102ZM39.063 47.1758C39.5739 47.1758 39.9892 47.5913 39.9892 48.102C39.9892 48.6127 39.5739 49.0283 39.063 49.0283C38.552 49.0283 38.1367 48.6127 38.1367 48.102C38.1367 47.5913 38.5523 47.1758 39.063 47.1758Z"/>
</mask>
<path d="M35.793 48.102H32.793C32.793 51.5619 35.6031 54.372 39.063 54.372V51.372V48.372C38.9168 48.372 38.793 48.2482 38.793 48.102H35.793ZM39.063 51.372V54.372C42.5229 54.372 45.333 51.5619 45.333 48.102H42.333H39.333C39.333 48.2482 39.2092 48.372 39.063 48.372V51.372ZM42.333 48.102H45.333C45.333 44.6421 42.5229 41.832 39.063 41.832V44.832V47.832C39.2092 47.832 39.333 47.9558 39.333 48.102H42.333ZM39.063 44.832V41.832C35.6031 41.832 32.793 44.6421 32.793 48.102H35.793H38.793C38.793 47.9558 38.9168 47.832 39.063 47.832V44.832ZM39.063 47.1758V50.1758C37.9166 50.1758 36.9892 49.2477 36.9892 48.102H39.9892H42.9892C42.9892 45.935 41.2313 44.1758 39.063 44.1758V47.1758ZM39.9892 48.102H36.9892C36.9892 46.9564 37.9166 46.0283 39.063 46.0283V49.0283V52.0283C41.2313 52.0283 42.9892 50.2691 42.9892 48.102H39.9892ZM39.063 49.0283V46.0283C40.2094 46.0283 41.1367 46.9564 41.1367 48.102H38.1367H35.1367C35.1367 50.2691 36.8947 52.0283 39.063 52.0283V49.0283ZM38.1367 48.102H41.1367C41.1367 49.2482 40.2091 50.1758 39.063 50.1758V47.1758V44.1758C36.8954 44.1758 35.1367 45.9345 35.1367 48.102H38.1367Z" fill="#058FA2" mask="url(#path-13-inside-7_5105_7844)"/>
<mask id="path-15-inside-8_5105_7844" fill="white">
<path d="M43.0002 24.6392C44.8787 24.6392 46.4068 23.1111 46.4068 21.2326C46.4068 19.3543 44.8784 17.8262 43.0002 17.8262C41.1219 17.8262 39.5938 19.3543 39.5938 21.2326C39.5938 23.1111 41.1216 24.6392 43.0002 24.6392ZM43.0002 20.1699C43.5863 20.1699 44.063 20.6466 44.063 21.2326C44.063 21.8185 43.5863 22.2955 43.0002 22.2955C42.4142 22.2955 41.9375 21.8188 41.9375 21.2326C41.9375 20.6466 42.4142 20.1699 43.0002 20.1699Z"/>
</mask>
<path d="M43.0002 24.6392V27.6392C46.5355 27.6392 49.4068 24.7679 49.4068 21.2326H46.4068H43.4068C43.4068 21.4542 43.2218 21.6392 43.0002 21.6392V24.6392ZM46.4068 21.2326H49.4068C49.4068 17.6972 46.535 14.8262 43.0002 14.8262V17.8262V20.8262C43.2219 20.8262 43.4068 21.0114 43.4068 21.2326H46.4068ZM43.0002 17.8262V14.8262C39.465 14.8262 36.5938 17.6974 36.5938 21.2326H39.5938H42.5938C42.5938 21.0112 42.7787 20.8262 43.0002 20.8262V17.8262ZM39.5938 21.2326H36.5938C36.5938 24.7677 39.4645 27.6392 43.0002 27.6392V24.6392V21.6392C42.7788 21.6392 42.5938 21.4545 42.5938 21.2326H39.5938ZM43.0002 20.1699V23.1699C41.9299 23.1699 41.063 22.3039 41.063 21.2326H44.063H47.063C47.063 18.9894 45.2428 17.1699 43.0002 17.1699V20.1699ZM44.063 21.2326H41.063C41.063 20.1621 41.929 19.2955 43.0002 19.2955V22.2955V25.2955C45.2436 25.2955 47.063 23.4749 47.063 21.2326H44.063ZM43.0002 22.2955V19.2955C44.0715 19.2955 44.9375 20.1623 44.9375 21.2326H41.9375H38.9375C38.9375 23.4752 40.757 25.2955 43.0002 25.2955V22.2955ZM41.9375 21.2326H44.9375C44.9375 22.3035 44.0711 23.1699 43.0002 23.1699V20.1699V17.1699C40.7574 17.1699 38.9375 18.9898 38.9375 21.2326H41.9375Z" fill="#058FA2" mask="url(#path-15-inside-8_5105_7844)"/>
<mask id="path-17-inside-9_5105_7844" fill="white">
<path d="M32.9175 41.8448C35.3728 41.8448 37.3702 39.8474 37.3702 37.3921C37.3702 34.937 35.3728 32.9395 32.9175 32.9395C30.4622 32.9395 28.4648 34.9368 28.4648 37.3921C28.4648 39.8474 30.4622 41.8448 32.9175 41.8448ZM32.9175 35.2834C34.0805 35.2834 35.0264 36.2294 35.0264 37.3923C35.0264 38.5553 34.0805 39.5012 32.9175 39.5012C31.7545 39.5012 30.8086 38.5551 30.8086 37.3923C30.8086 36.2296 31.7545 35.2834 32.9175 35.2834Z"/>
</mask>
<path d="M28.4648 37.3921H31.4648H28.4648ZM32.9175 41.8448V44.8448C37.0297 44.8448 40.3702 41.5043 40.3702 37.3921H37.3702H34.3702C34.3702 38.1906 33.716 38.8448 32.9175 38.8448V41.8448ZM37.3702 37.3921H40.3702C40.3702 33.2803 37.0298 29.9395 32.9175 29.9395V32.9395V35.9395C33.7159 35.9395 34.3702 36.5938 34.3702 37.3921H37.3702ZM32.9175 32.9395V29.9395C28.8053 29.9395 25.4648 33.2799 25.4648 37.3921H28.4648H31.4648C31.4648 36.5937 32.119 35.9395 32.9175 35.9395V32.9395ZM28.4648 37.3921L25.4648 37.3921C25.4648 41.5043 28.8053 44.8448 32.9175 44.8448V41.8448V38.8448C32.119 38.8448 31.4648 38.1906 31.4648 37.3921L28.4648 37.3921ZM32.9175 35.2834V38.2834C32.4236 38.2834 32.0264 37.8862 32.0264 37.3923H35.0264H38.0264C38.0264 34.5725 35.7373 32.2834 32.9175 32.2834V35.2834ZM35.0264 37.3923H32.0264C32.0264 36.8985 32.4236 36.5012 32.9175 36.5012V39.5012V42.5012C35.7373 42.5012 38.0264 40.2122 38.0264 37.3923H35.0264ZM32.9175 39.5012V36.5012C33.4116 36.5012 33.8086 36.8984 33.8086 37.3923H30.8086H27.8086C27.8086 40.2117 30.0975 42.5012 32.9175 42.5012V39.5012ZM30.8086 37.3923H33.8086C33.8086 37.8862 33.4116 38.2834 32.9175 38.2834V35.2834V32.2834C30.0975 32.2834 27.8086 34.573 27.8086 37.3923H30.8086Z" fill="#058FA2" mask="url(#path-17-inside-9_5105_7844)"/>
<mask id="path-19-inside-10_5105_7844" fill="white">
<path d="M55.6438 53.9577H57.9875V40.3248L54.3008 31.8873V14.125H51.957V32.377L55.6438 40.8145V53.9577Z"/>
</mask>
<path d="M55.6438 53.9577H52.6438V56.9577H55.6438V53.9577ZM57.9875 53.9577V56.9577H60.9875V53.9577H57.9875ZM57.9875 40.3248H60.9875V39.698L60.7365 39.1237L57.9875 40.3248ZM54.3008 31.8873H51.3008V32.5141L51.5517 33.0885L54.3008 31.8873ZM54.3008 14.125H57.3008V11.125H54.3008V14.125ZM51.957 14.125V11.125H48.957V14.125H51.957ZM51.957 32.377H48.957V33.0038L49.208 33.5781L51.957 32.377ZM55.6438 40.8145H58.6438V40.1876L58.3928 39.6133L55.6438 40.8145ZM55.6438 53.9577V56.9577H57.9875V53.9577V50.9577H55.6438V53.9577ZM57.9875 53.9577H60.9875V40.3248H57.9875H54.9875V53.9577H57.9875ZM57.9875 40.3248L60.7365 39.1237L57.0498 30.6862L54.3008 31.8873L51.5517 33.0885L55.2385 41.526L57.9875 40.3248ZM54.3008 31.8873H57.3008V14.125H54.3008H51.3008V31.8873H54.3008ZM54.3008 14.125V11.125H51.957V14.125V17.125H54.3008V14.125ZM51.957 14.125H48.957V32.377H51.957H54.957V14.125H51.957ZM51.957 32.377L49.208 33.5781L52.8947 42.0156L55.6438 40.8145L58.3928 39.6133L54.7061 31.1758L51.957 32.377ZM55.6438 40.8145H52.6438V53.9577H55.6438H58.6438V40.8145H55.6438Z" fill="#058FA2" mask="url(#path-19-inside-10_5105_7844)"/>
<mask id="path-21-inside-11_5105_7844" fill="white">
<path d="M75.7967 27.6705L75.7958 10.6307C75.7958 8.06664 73.7098 5.98047 71.1453 5.98047C69.7953 5.98047 68.5815 6.56242 67.7314 7.48445H59.2063V5.98047H51.957V11.5469H54.3008V8.32422H56.8625V32.3373L60.5492 40.8522V53.9577H62.893V40.3666L59.2063 31.8517V29.4766H68.2974C70.1042 32.0577 73.0974 33.7502 76.4804 33.7502H79.5427V31.4064C77.4833 31.4062 75.8028 29.7306 75.7967 27.6705ZM59.2063 9.8282H66.5696C66.5239 10.0895 66.4955 10.3565 66.4955 10.6307V12.3965H59.2063V9.8282ZM59.2063 14.7402H66.4955V17.3085H59.2063V14.7402ZM59.2063 19.6523H66.4955V22.2205H59.2063V19.6523ZM59.2063 27.1328V24.5645H66.5305C66.6015 25.4587 66.7895 26.3202 67.0817 27.1328H59.2063ZM68.8393 23.7651V10.6307C68.8393 9.35898 69.8738 8.32422 71.1455 8.32422C72.4173 8.32422 73.4523 9.35898 73.4523 10.6307V27.4202L73.4532 27.6777C73.457 28.9738 73.8683 30.1762 74.5655 31.1634C71.2759 30.3116 68.8393 27.3175 68.8393 23.7651Z"/>
</mask>
<path d="M75.7967 27.6705L72.7967 27.6706L72.7967 27.6793L75.7967 27.6705ZM75.7958 10.6307L72.7958 10.6307L72.7958 10.6309L75.7958 10.6307ZM67.7314 7.48445V10.4845H69.046L69.937 9.51797L67.7314 7.48445ZM59.2063 7.48445H56.2063V10.4845H59.2063V7.48445ZM59.2063 5.98047H62.2063V2.98047H59.2063V5.98047ZM51.957 5.98047V2.98047H48.957V5.98047H51.957ZM51.957 11.5469H48.957V14.5469H51.957V11.5469ZM54.3008 11.5469V14.5469H57.3008V11.5469H54.3008ZM54.3008 8.32422V5.32422H51.3008V8.32422H54.3008ZM56.8625 8.32422H59.8625V5.32422H56.8625V8.32422ZM56.8625 32.3373H53.8625V32.9589L54.1095 33.5293L56.8625 32.3373ZM60.5492 40.8522H63.5492V40.2306L63.3022 39.6602L60.5492 40.8522ZM60.5492 53.9577H57.5492V56.9577H60.5492V53.9577ZM62.893 53.9577V56.9577H65.893V53.9577H62.893ZM62.893 40.3666H65.893V39.745L65.646 39.1746L62.893 40.3666ZM59.2063 31.8517H56.2063V32.4733L56.4532 33.0437L59.2063 31.8517ZM59.2063 29.4766V26.4766H56.2063V29.4766H59.2063ZM68.2974 29.4766L70.7551 27.7562L69.8594 26.4766H68.2974V29.4766ZM79.5427 33.7502V36.7502H82.5427V33.7502H79.5427ZM79.5427 31.4064H82.5427V28.4067L79.5431 28.4064L79.5427 31.4064ZM59.2063 9.8282V6.8282H56.2063V9.8282H59.2063ZM66.5696 9.8282L69.5248 10.345L70.1398 6.8282H66.5696V9.8282ZM66.4955 12.3965V15.3965H69.4955V12.3965H66.4955ZM59.2063 12.3965H56.2063V15.3965H59.2063V12.3965ZM59.2063 14.7402V11.7402H56.2063V14.7402H59.2063ZM66.4955 14.7402H69.4955V11.7402H66.4955V14.7402ZM66.4955 17.3085V20.3085H69.4955V17.3085H66.4955ZM59.2063 17.3085H56.2063V20.3085H59.2063V17.3085ZM59.2063 19.6523V16.6523H56.2063V19.6523H59.2063ZM66.4955 19.6523H69.4955V16.6523H66.4955V19.6523ZM66.4955 22.2205V25.2205H69.4955V22.2205H66.4955ZM59.2063 22.2205H56.2063V25.2205H59.2063V22.2205ZM59.2063 27.1328H56.2063V30.1328H59.2063V27.1328ZM59.2063 24.5645V21.5645H56.2063V24.5645H59.2063ZM66.5305 24.5645L69.521 24.327L69.3016 21.5645H66.5305V24.5645ZM67.0817 27.1328V30.1328H71.3489L69.9047 26.1175L67.0817 27.1328ZM73.4523 27.4202L70.4522 27.4202L70.4523 27.4311L73.4523 27.4202ZM73.4532 27.6777L76.4532 27.6691L76.4532 27.6668L73.4532 27.6777ZM74.5655 31.1634L73.8136 34.0676L81.739 36.1195L77.016 29.4326L74.5655 31.1634ZM75.7967 27.6705L78.7967 27.6703L78.7958 10.6305L75.7958 10.6307L72.7958 10.6309L72.7967 27.6706L75.7967 27.6705ZM75.7958 10.6307H78.7958C78.7958 6.40979 75.3667 2.98047 71.1453 2.98047V5.98047V8.98047C72.053 8.98047 72.7958 9.7235 72.7958 10.6307H75.7958ZM71.1453 5.98047V2.98047C68.9121 2.98047 66.9124 3.94693 65.5258 5.45094L67.7314 7.48445L69.937 9.51797C70.2506 9.17791 70.6785 8.98047 71.1453 8.98047V5.98047ZM67.7314 7.48445V4.48445H59.2063V7.48445V10.4845H67.7314V7.48445ZM59.2063 7.48445H62.2063V5.98047H59.2063H56.2063V7.48445H59.2063ZM59.2063 5.98047V2.98047H51.957V5.98047V8.98047H59.2063V5.98047ZM51.957 5.98047H48.957V11.5469H51.957H54.957V5.98047H51.957ZM51.957 11.5469V14.5469H54.3008V11.5469V8.54687H51.957V11.5469ZM54.3008 11.5469H57.3008V8.32422H54.3008H51.3008V11.5469H54.3008ZM54.3008 8.32422V11.3242H56.8625V8.32422V5.32422H54.3008V8.32422ZM56.8625 8.32422H53.8625V32.3373H56.8625H59.8625V8.32422H56.8625ZM56.8625 32.3373L54.1095 33.5293L57.7962 42.0442L60.5492 40.8522L63.3022 39.6602L59.6155 31.1454L56.8625 32.3373ZM60.5492 40.8522H57.5492V53.9577H60.5492H63.5492V40.8522H60.5492ZM60.5492 53.9577V56.9577H62.893V53.9577V50.9577H60.5492V53.9577ZM62.893 53.9577H65.893V40.3666H62.893H59.893V53.9577H62.893ZM62.893 40.3666L65.646 39.1746L61.9593 30.6597L59.2063 31.8517L56.4532 33.0437L60.1399 41.5586L62.893 40.3666ZM59.2063 31.8517H62.2063V29.4766H59.2063H56.2063V31.8517H59.2063ZM59.2063 29.4766V32.4766H68.2974V29.4766V26.4766H59.2063V29.4766ZM68.2974 29.4766L65.8397 31.1969C68.181 34.5417 72.0725 36.7502 76.4804 36.7502V33.7502V30.7502C74.1223 30.7502 72.0274 29.5738 70.7551 27.7562L68.2974 29.4766ZM76.4804 33.7502V36.7502H79.5427V33.7502V30.7502H76.4804V33.7502ZM79.5427 33.7502H82.5427V31.4064H79.5427H76.5427V33.7502H79.5427ZM79.5427 31.4064L79.5431 28.4064C79.1371 28.4064 78.7979 28.0687 78.7967 27.6616L75.7967 27.6705L72.7967 27.6793C72.8077 31.3925 75.8295 34.406 79.5424 34.4064L79.5427 31.4064ZM59.2063 9.8282V12.8282H66.5696V9.8282V6.8282H59.2063V9.8282ZM66.5696 9.8282L63.6145 9.31138C63.5454 9.7063 63.4955 10.1493 63.4955 10.6307H66.4955H69.4955C69.4955 10.5637 69.5024 10.4728 69.5248 10.345L66.5696 9.8282ZM66.4955 10.6307H63.4955V12.3965H66.4955H69.4955V10.6307H66.4955ZM66.4955 12.3965V9.39648H59.2063V12.3965V15.3965H66.4955V12.3965ZM59.2063 12.3965H62.2063V9.8282H59.2063H56.2063V12.3965H59.2063ZM59.2063 14.7402V17.7402H66.4955V14.7402V11.7402H59.2063V14.7402ZM66.4955 14.7402H63.4955V17.3085H66.4955H69.4955V14.7402H66.4955ZM66.4955 17.3085V14.3085H59.2063V17.3085V20.3085H66.4955V17.3085ZM59.2063 17.3085H62.2063V14.7402H59.2063H56.2063V17.3085H59.2063ZM59.2063 19.6523V22.6523H66.4955V19.6523V16.6523H59.2063V19.6523ZM66.4955 19.6523H63.4955V22.2205H66.4955H69.4955V19.6523H66.4955ZM66.4955 22.2205V19.2205H59.2063V22.2205V25.2205H66.4955V22.2205ZM59.2063 22.2205H62.2063V19.6523H59.2063H56.2063V22.2205H59.2063ZM59.2063 27.1328H62.2063V24.5645H59.2063H56.2063V27.1328H59.2063ZM59.2063 24.5645V27.5645H66.5305V24.5645V21.5645H59.2063V24.5645ZM66.5305 24.5645L63.5399 24.8021C63.632 25.9618 63.8764 27.085 64.2588 28.1482L67.0817 27.1328L69.9047 26.1175C69.7025 25.5555 69.571 24.9555 69.521 24.327L66.5305 24.5645ZM67.0817 27.1328V24.1328H59.2063V27.1328V30.1328H67.0817V27.1328ZM68.8393 23.7651H71.8393V10.6307H68.8393H65.8393V23.7651H68.8393ZM68.8393 10.6307H71.8393C71.8393 11.0154 71.5311 11.3242 71.1455 11.3242V8.32422V5.32422C68.2166 5.32422 65.8393 7.70253 65.8393 10.6307H68.8393ZM71.1455 8.32422V11.3242C70.7608 11.3242 70.4523 11.0162 70.4523 10.6307H73.4523H76.4523C76.4523 7.70173 74.0737 5.32422 71.1455 5.32422V8.32422ZM73.4523 10.6307H70.4523V27.4202H73.4523H76.4523V10.6307H73.4523ZM73.4523 27.4202L70.4523 27.4311L70.4532 27.6886L73.4532 27.6777L76.4532 27.6668L76.4522 27.4092L73.4523 27.4202ZM73.4532 27.6777L70.4532 27.6864C70.4588 29.6215 71.075 31.4215 72.1151 32.8941L74.5655 31.1634L77.016 29.4326C76.6616 28.9309 76.4551 28.3261 76.4532 27.6691L73.4532 27.6777ZM74.5655 31.1634L75.3175 28.2591C73.3165 27.7411 71.8393 25.9146 71.8393 23.7651H68.8393H65.8393C65.8393 28.7204 69.2352 32.8822 73.8136 34.0676L74.5655 31.1634Z" fill="#058FA2" mask="url(#path-21-inside-11_5105_7844)"/>
<mask id="path-23-inside-12_5105_7844" fill="white">
<path d="M101.215 72.9146L101.215 55.8748C101.215 53.3108 99.1286 51.2246 96.5645 51.2246C94.0002 51.2246 91.9141 53.3105 91.9141 55.8748V69.0095C91.9141 74.5149 96.3932 78.9943 101.899 78.9943H104.962V76.6505C102.902 76.6503 101.221 74.975 101.215 72.9146ZM94.2578 69.0095V55.8748C94.2578 54.6031 95.2928 53.5684 96.5645 53.5684C97.8363 53.5684 98.8708 54.6031 98.8708 55.8748V72.6643L98.8717 72.9221C98.8755 74.218 99.2868 75.4205 99.9845 76.4075C96.6946 75.5553 94.2578 72.5616 94.2578 69.0095Z"/>
</mask>
<path d="M101.215 72.9146L98.2155 72.9148L98.2155 72.9231L101.215 72.9146ZM101.215 55.8748L98.2145 55.8748L98.2145 55.875L101.215 55.8748ZM104.962 78.9943V81.9943H107.962V78.9943H104.962ZM104.962 76.6505H107.962V73.6509L104.962 73.6505L104.962 76.6505ZM98.8708 72.6643L95.8708 72.6643L95.8708 72.6752L98.8708 72.6643ZM98.8717 72.9221L101.872 72.9134L101.872 72.9112L98.8717 72.9221ZM99.9845 76.4075L99.2323 79.3117L107.164 81.3662L102.434 74.6757L99.9845 76.4075ZM101.215 72.9146L104.215 72.9144L104.215 55.8747L101.215 55.8748L98.2145 55.875L98.2155 72.9148L101.215 72.9146ZM101.215 55.8748H104.215C104.215 51.6541 100.786 48.2246 96.5645 48.2246V51.2246V54.2246C97.4715 54.2246 98.2145 54.9674 98.2145 55.8748H101.215ZM96.5645 51.2246V48.2246C92.3436 48.2246 88.9141 51.6535 88.9141 55.8748H91.9141H94.9141C94.9141 54.9676 95.6569 54.2246 96.5645 54.2246V51.2246ZM91.9141 55.8748H88.9141V69.0095H91.9141H94.9141V55.8748H91.9141ZM91.9141 69.0095H88.9141C88.9141 76.1717 94.7363 81.9943 101.899 81.9943V78.9943V75.9943C98.0501 75.9943 94.9141 72.8581 94.9141 69.0095H91.9141ZM101.899 78.9943V81.9943H104.962V78.9943V75.9943H101.899V78.9943ZM104.962 78.9943H107.962V76.6505H104.962H101.962V78.9943H104.962ZM104.962 76.6505L104.962 73.6505C104.555 73.6505 104.217 73.3127 104.215 72.9061L101.215 72.9146L98.2155 72.9231C98.226 76.6373 101.248 79.6501 104.961 79.6505L104.962 76.6505ZM94.2578 69.0095H97.2578V55.8748H94.2578H91.2578V69.0095H94.2578ZM94.2578 55.8748H97.2578C97.2578 56.2604 96.9493 56.5684 96.5645 56.5684V53.5684V50.5684C93.6364 50.5684 91.2578 52.9459 91.2578 55.8748H94.2578ZM96.5645 53.5684V56.5684C96.179 56.5684 95.8708 56.2596 95.8708 55.8748H98.8708H101.871C101.871 52.9467 99.4935 50.5684 96.5645 50.5684V53.5684ZM98.8708 55.8748H95.8708V72.6643H98.8708H101.871V55.8748H98.8708ZM98.8708 72.6643L95.8708 72.6752L95.8717 72.933L98.8717 72.9221L101.872 72.9112L101.871 72.6534L98.8708 72.6643ZM98.8717 72.9221L95.8717 72.9308C95.8773 74.8656 96.4935 76.6662 97.5349 78.1393L99.9845 76.4075L102.434 74.6757C102.08 74.1749 101.874 73.5703 101.872 72.9134L98.8717 72.9221ZM99.9845 76.4075L100.737 73.5033C98.7348 72.9848 97.2578 71.1582 97.2578 69.0095H94.2578H91.2578C91.2578 73.9651 94.6544 78.1258 99.2323 79.3117L99.9845 76.4075Z" fill="#FDC114" mask="url(#path-23-inside-12_5105_7844)"/>
<mask id="path-25-inside-13_5105_7844" fill="white">
<path d="M109.133 28.9988L109.126 28.7761L103.76 16.2333H103.22V11.3409H100.741V5.0625H92.0335V11.3409H89.5538V16.2333H89.0141L83.6478 28.7761L81.1719 114.938H111.589L109.133 28.9988ZM94.377 7.40625H98.3966V11.3409H94.377V7.40625ZM91.8973 13.6847H92.0333H100.74H100.876V16.2333H91.8971V13.6847H91.8973ZM90.5602 18.577H102.214L106.185 27.8604H86.5883L90.5602 18.577ZM83.7552 106.637H102.708V104.293H83.8224L85.951 30.2039H106.822L108.94 104.293H105.093V106.637H109.008L109.178 112.594H83.5838L83.7552 106.637Z"/>
</mask>
<path d="M109.133 28.9988L106.134 29.084L106.134 29.0845L109.133 28.9988ZM109.126 28.7761L112.125 28.6908L112.109 28.1206L111.884 27.5961L109.126 28.7761ZM103.76 16.2333L106.518 15.0532L105.74 13.2333H103.76V16.2333ZM103.22 16.2333H100.22V19.2333H103.22V16.2333ZM103.22 11.3409H106.22V8.34094H103.22V11.3409ZM100.741 11.3409H97.7405V14.3409H100.741V11.3409ZM100.741 5.0625H103.741V2.0625H100.741V5.0625ZM92.0335 5.0625V2.0625H89.0335V5.0625H92.0335ZM92.0335 11.3409V14.3409H95.0335V11.3409H92.0335ZM89.5538 11.3409V8.34094H86.5538V11.3409H89.5538ZM89.5538 16.2333V19.2333H92.5538V16.2333H89.5538ZM89.0141 16.2333V13.2333H87.0345L86.2559 15.0532L89.0141 16.2333ZM83.6478 28.7761L80.8896 27.5961L80.6654 28.1201L80.649 28.6899L83.6478 28.7761ZM81.1719 114.938L78.1731 114.851L78.0844 117.938H81.1719V114.938ZM111.589 114.938V117.938H114.676L114.588 114.852L111.589 114.938ZM94.377 7.40625V4.40625H91.377V7.40625H94.377ZM98.3966 7.40625H101.397V4.40625H98.3966V7.40625ZM98.3966 11.3409V14.3409H101.397V11.3409H98.3966ZM94.377 11.3409H91.377V14.3409H94.377V11.3409ZM100.876 13.6847H103.876V10.6847H100.876V13.6847ZM100.876 16.2333V19.2333H103.876V16.2333H100.876ZM91.8971 16.2333H88.8971V19.2333H91.8971V16.2333ZM91.8971 13.6847V10.6847H88.8971V13.6847H91.8971ZM90.5602 18.577V15.577H88.5807L87.8021 17.3969L90.5602 18.577ZM102.214 18.577L104.972 17.3971L104.193 15.577H102.214V18.577ZM106.185 27.8604V30.8604H110.731L108.943 26.6804L106.185 27.8604ZM86.5883 27.8604L83.8301 26.6803L82.0416 30.8604H86.5883V27.8604ZM83.7552 106.637V103.637H80.8402L80.7564 106.551L83.7552 106.637ZM102.708 106.637V109.637H105.708V106.637H102.708ZM102.708 104.293H105.708V101.293H102.708V104.293ZM83.8224 104.293L80.8237 104.207L80.735 107.293H83.8224V104.293ZM85.951 30.2039V27.2039H83.036L82.9523 30.1178L85.951 30.2039ZM106.822 30.2039L109.821 30.1182L109.738 27.2039H106.822V30.2039ZM108.94 104.293V107.293H112.027L111.939 104.207L108.94 104.293ZM105.093 104.293V101.293H102.093V104.293H105.093ZM105.093 106.637H102.093V109.637H105.093V106.637ZM109.008 106.637L112.006 106.551L111.923 103.637H109.008V106.637ZM109.178 112.594V115.594H112.265L112.177 112.508L109.178 112.594ZM83.5838 112.594L80.5851 112.508L80.4963 115.594H83.5838V112.594ZM109.133 28.9988L112.131 28.9135L112.125 28.6908L109.126 28.7761L106.127 28.8614L106.134 29.084L109.133 28.9988ZM109.126 28.7761L111.884 27.5961L106.518 15.0532L103.76 16.2333L101.002 17.4133L106.368 29.9561L109.126 28.7761ZM103.76 16.2333V13.2333H103.22V16.2333V19.2333H103.76V16.2333ZM103.22 16.2333H106.22V11.3409H103.22H100.22V16.2333H103.22ZM103.22 11.3409V8.34094H100.741V11.3409V14.3409H103.22V11.3409ZM100.741 11.3409H103.741V5.0625H100.741H97.7405V11.3409H100.741ZM100.741 5.0625V2.0625H92.0335V5.0625V8.0625H100.741V5.0625ZM92.0335 5.0625H89.0335V11.3409H92.0335H95.0335V5.0625H92.0335ZM92.0335 11.3409V8.34094H89.5538V11.3409V14.3409H92.0335V11.3409ZM89.5538 11.3409H86.5538V16.2333H89.5538H92.5538V11.3409H89.5538ZM89.5538 16.2333V13.2333H89.0141V16.2333V19.2333H89.5538V16.2333ZM89.0141 16.2333L86.2559 15.0532L80.8896 27.5961L83.6478 28.7761L86.406 29.9561L91.7722 17.4133L89.0141 16.2333ZM83.6478 28.7761L80.649 28.6899L78.1731 114.851L81.1719 114.938L84.1706 115.024L86.6466 28.8623L83.6478 28.7761ZM81.1719 114.938V117.938H111.589V114.938V111.938H81.1719V114.938ZM111.589 114.938L114.588 114.852L112.131 28.913L109.133 28.9988L106.134 29.0845L108.591 115.023L111.589 114.938ZM94.377 7.40625V10.4063H98.3966V7.40625V4.40625H94.377V7.40625ZM98.3966 7.40625H95.3966V11.3409H98.3966H101.397V7.40625H98.3966ZM98.3966 11.3409V8.34094H94.377V11.3409V14.3409H98.3966V11.3409ZM94.377 11.3409H97.377V7.40625H94.377H91.377V11.3409H94.377ZM91.8973 13.6847V16.6847H92.0333V13.6847V10.6847H91.8973V13.6847ZM92.0333 13.6847V16.6847H100.74V13.6847V10.6847H92.0333V13.6847ZM100.74 13.6847V16.6847H100.876V13.6847V10.6847H100.74V13.6847ZM100.876 13.6847H97.8762V16.2333H100.876H103.876V13.6847H100.876ZM100.876 16.2333V13.2333H91.8971V16.2333V19.2333H100.876V16.2333ZM91.8971 16.2333H94.8971V13.6847H91.8971H88.8971V16.2333H91.8971ZM91.8971 13.6847V16.6847H91.8973V13.6847V10.6847H91.8971V13.6847ZM90.5602 18.577V21.577H102.214V18.577V15.577H90.5602V18.577ZM102.214 18.577L99.4554 19.757L103.427 29.0404L106.185 27.8604L108.943 26.6804L104.972 17.3971L102.214 18.577ZM106.185 27.8604V24.8604H86.5883V27.8604V30.8604H106.185V27.8604ZM86.5883 27.8604L89.3464 29.0405L93.3184 19.7571L90.5602 18.577L87.8021 17.3969L83.8301 26.6803L86.5883 27.8604ZM83.7552 106.637V109.637H102.708V106.637V103.637H83.7552V106.637ZM102.708 106.637H105.708V104.293H102.708H99.7079V106.637H102.708ZM102.708 104.293V101.293H83.8224V104.293V107.293H102.708V104.293ZM83.8224 104.293L86.8212 104.379L88.9498 30.2901L85.951 30.2039L82.9523 30.1178L80.8237 104.207L83.8224 104.293ZM85.951 30.2039V33.2039H106.822V30.2039V27.2039H85.951V30.2039ZM106.822 30.2039L103.824 30.2896L105.942 104.379L108.94 104.293L111.939 104.207L109.821 30.1182L106.822 30.2039ZM108.94 104.293V101.293H105.093V104.293V107.293H108.94V104.293ZM105.093 104.293H102.093V106.637H105.093H108.093V104.293H105.093ZM105.093 106.637V109.637H109.008V106.637V103.637H105.093V106.637ZM109.008 106.637L106.009 106.723L106.179 112.68L109.178 112.594L112.177 112.508L112.006 106.551L109.008 106.637ZM109.178 112.594V109.594H83.5838V112.594V115.594H109.178V112.594ZM83.5838 112.594L86.5826 112.68L86.7539 106.723L83.7552 106.637L80.7564 106.551L80.5851 112.508L83.5838 112.594Z" fill="#FDC114" mask="url(#path-25-inside-13_5105_7844)"/>
</svg>
