<svg width="52" height="68" viewBox="0 0 52 68" fill="none" xmlns="http://www.w3.org/2000/svg">
<path d="M6.38462 20.8769C5.81986 21.2508 5.20447 21.4368 4.53846 21.4368C3.56377 21.4368 2.73077 21.1569 2.03846 20.5969C1.34616 20.037 1 19.2671 1 18.2873C1 17.5414 1.25608 16.7715 1.76923 15.9777C2.2814 15.1848 2.89678 14.4268 3.61538 13.703C4.333 12.9801 5.06377 12.3382 5.80769 11.7783C6.5503 11.2184 7.17883 10.7754 7.69231 10.4485L8.38462 10.0986C8.12722 9.67864 7.94839 9.23568 7.84615 8.76879C7.74293 8.30279 7.69231 7.81287 7.69231 7.29902C7.69231 5.52626 8.31986 4.03376 9.57692 2.81972C10.833 1.60687 12.4099 1 14.3077 1C15.7426 1 17.0122 1.34995 18.1154 2.04984C19.2176 2.74973 19.9734 3.68351 20.3846 4.8494H23V7.57897H28.3077V6.03922L51 3.02968V18.7072L28.3077 15.6977V14.2279H23.0769V14.5779C24.6657 15.2778 26.0506 16.1526 27.2308 17.2025C28.4096 18.2523 29.3583 19.5471 30.0769 21.0869C30.1792 21.3668 30.358 21.8218 30.6154 22.4517C30.8711 23.0816 31 23.5834 31 23.9564V64.2004C31 64.4804 30.8968 64.784 30.6923 65.11C30.4865 65.4372 30.2308 65.7399 29.9227 66.0202C29.6151 66.3001 29.2811 66.534 28.9227 66.72C28.5634 66.907 28.2558 67 27.9997 67H8.46121C7.94806 67 7.49967 66.872 7.11506 66.6151C6.73044 66.3593 6.39612 66.0321 6.11506 65.6355C5.83268 65.2395 5.62689 64.8306 5.49967 64.4104C5.37081 63.9905 5.30736 63.6178 5.30736 63.2906V25.4965C5.30769 23.8634 5.66601 22.3236 6.38462 20.8769ZM15.0769 15.3478C12.7176 16.1416 10.7426 17.4244 9.15385 19.1972C7.56377 20.9708 6.76923 23.0705 6.76923 25.4962V63.2903C6.76923 63.7102 6.90993 64.2121 7.19231 64.795C7.47337 65.3792 7.89678 65.6702 8.46154 65.6702H28C28.2561 65.6702 28.5769 65.4949 28.9615 65.145C29.3462 64.795 29.5385 64.4801 29.5385 64.2004V23.9564C29.5385 23.7234 29.4352 23.3388 29.2308 22.8016C29.0253 22.2656 28.8711 21.8807 28.7692 21.6468C28.0506 20.154 27.1275 18.9172 26 17.9374C24.8715 16.9575 23.5122 16.1419 21.9231 15.4877L21.6154 15.3478V12.8981H29.7692V14.5079L49.5388 17.1675V4.56944L29.7692 7.22903V8.90877H21.5385V6.17919H19.2308C19.0769 5.05937 18.5385 4.13874 17.6154 3.41462C16.6923 2.6917 15.5888 2.32979 14.3077 2.32979C12.8199 2.32979 11.5769 2.81972 10.5769 3.79956C9.57692 4.77941 9.07692 5.94619 9.07692 7.29902C9.07692 8.4658 9.53846 9.49261 10.4615 10.3785V10.4485C10.4615 10.4955 10.4349 10.5185 10.3846 10.5185L8.46154 11.6383C8 11.9183 7.43491 12.3032 6.76923 12.7932C6.10224 13.2831 5.44839 13.843 4.80769 14.4729C4.16568 15.1028 3.61538 15.7447 3.15385 16.3976C2.69231 17.0517 2.46154 17.6813 2.46154 18.2873C2.46154 18.8472 2.66601 19.2791 3.07692 19.5821C3.48685 19.8863 3.9737 20.037 4.53846 20.037C5 20.037 5.43524 19.8863 5.84615 19.5821C6.25608 19.2791 6.65385 18.9064 7.03846 18.4623C7.42308 18.0193 7.78139 17.5763 8.11539 17.1325C8.44839 16.6898 8.79421 16.3276 9.15385 16.0477C9.71762 15.5347 10.2945 15.1378 10.8846 14.8578C11.4737 14.5779 12.1275 14.2749 12.8462 13.948C13.0506 13.855 13.4352 13.738 14 13.598C14.5638 13.4581 14.8968 13.3881 15 13.3881H15.0769V15.3478ZM9.26923 9.25871C9.1407 9.30567 9.07692 9.46868 9.07692 9.74863L10.0769 9.18872C9.66601 9.18872 9.39678 9.21265 9.26923 9.25871ZM12.5769 5.5143C13.0122 5.16435 13.5891 4.98938 14.3077 4.98938C14.9231 4.98938 15.4484 5.17632 15.8846 5.54929C16.3199 5.92316 16.5385 6.43612 16.5385 7.08905C16.5385 7.69592 16.3199 8.20887 15.8846 8.62881C15.4484 9.04874 14.9231 9.25871 14.3077 9.25871C13.5888 9.25871 13.0122 9.03768 12.5769 8.59382C12.1407 8.15085 11.9231 7.62593 11.9231 7.01906C11.9231 6.36613 12.1407 5.86424 12.5769 5.5143ZM13.6538 7.64896C13.833 7.8359 14.0506 7.92892 14.3077 7.92892C14.5638 7.92892 14.7692 7.84786 14.9231 7.68396C15.0769 7.52095 15.1538 7.32295 15.1538 7.08905C15.1538 6.5764 14.8715 6.31917 14.3077 6.31917C14.0503 6.31917 13.833 6.37809 13.6538 6.49414C13.4737 6.61109 13.3846 6.78606 13.3846 7.01906C13.3846 7.25326 13.4737 7.46292 13.6538 7.64896Z" fill="#058FA2" stroke="#058FA2" stroke-width="1.6"/>
<circle cx="14.5" cy="7.5" r="2.5" stroke="#FDD304" stroke-width="2"/>
<path d="M30 5V17" stroke="#FDC114" stroke-width="2" stroke-linecap="round"/>
<path d="M11 33V47" stroke="#FDC114" stroke-width="2"/>
<path d="M11 24V30" stroke="#FDC114" stroke-width="2"/>
</svg>
