<svg width="72" height="96" viewBox="0 0 72 96" fill="none" xmlns="http://www.w3.org/2000/svg">
<mask id="path-1-inside-1_2_27831" fill="white">
<path d="M7.75385 28.9119C6.94059 29.4557 6.05444 29.7263 5.09538 29.7263C3.69183 29.7263 2.49231 29.3191 1.49539 28.5046C0.498464 27.6902 0 26.5704 0 25.1452C0 24.0601 0.368759 22.9403 1.10769 21.7857C1.84521 20.6324 2.73136 19.5299 3.76615 18.4771C4.79953 17.4256 5.85183 16.492 6.92308 15.6776C7.99243 14.8631 8.89752 14.2188 9.63692 13.7433L10.6338 13.2343C10.2632 12.6235 10.0057 11.9792 9.85846 11.3001C9.70982 10.6222 9.63692 9.90963 9.63692 9.1622C9.63692 6.58365 10.5406 4.41274 12.3508 2.64686C14.1595 0.882721 16.4303 0 19.1631 0C21.2293 0 23.0575 0.509016 24.6462 1.52704C26.2334 2.54506 27.3217 3.90329 27.9138 5.59912H31.68V9.56942H39.3231V7.32977L72 2.95226V25.756L39.3231 21.3785V19.2406H31.7908V19.7496C34.0786 20.7677 36.0729 22.0402 37.7723 23.5672C39.4698 25.0943 40.836 26.9776 41.8708 29.2173C42.018 29.6245 42.2755 30.2862 42.6461 31.2024C43.0144 32.1186 43.2 32.8486 43.2 33.3912V91.9279C43.2 92.3351 43.0514 92.7767 42.7569 93.2509C42.4606 93.7268 42.0923 94.1671 41.6488 94.5748C41.2057 94.982 40.7247 95.3222 40.2088 95.5928C39.6914 95.8647 39.2483 96 38.8795 96H10.7441C10.0052 96 9.35953 95.8138 8.80568 95.4401C8.25184 95.0681 7.77042 94.5922 7.36568 94.0153C6.95906 93.4393 6.66272 92.8446 6.47953 92.2333C6.29397 91.6225 6.20261 91.0804 6.20261 90.6045V35.6312C6.20308 33.2558 6.71906 31.0162 7.75385 28.9119ZM20.2708 20.8695C16.8734 22.0241 14.0293 23.89 11.7415 26.4686C9.45183 29.0485 8.30769 32.1025 8.30769 35.6308V90.604C8.30769 91.2149 8.5103 91.9449 8.91693 92.7928C9.32166 93.6424 9.93136 94.0658 10.7446 94.0658H38.88C39.2488 94.0658 39.7108 93.8108 40.2646 93.3018C40.8185 92.7928 41.0954 92.3347 41.0954 91.9279V33.3912C41.0954 33.0522 40.9467 32.4928 40.6523 31.7114C40.3564 30.9318 40.1344 30.3719 39.9877 30.0317C38.9529 27.8603 37.6237 26.0614 36 24.6362C34.3749 23.2109 32.4175 22.0245 30.1292 21.0731L29.6862 20.8695V17.3064H41.4277V19.6478L69.8959 23.5163V5.19192L41.4277 9.06041V11.5037H29.5754V7.53337H26.2523C26.0308 5.90454 25.2554 4.56544 23.9262 3.51218C22.5969 2.46066 21.0078 1.93424 19.1631 1.93424C17.0206 1.93424 15.2308 2.64686 13.7908 4.07209C12.3508 5.49732 11.6308 7.19446 11.6308 9.1622C11.6308 10.8593 12.2954 12.3529 13.6246 13.6415V13.7433C13.6246 13.8116 13.5863 13.8451 13.5138 13.8451L10.7446 15.474C10.08 15.8812 9.26627 16.4411 8.30769 17.1537C7.34722 17.8663 6.40568 18.6807 5.48308 19.5969C4.55858 20.5132 3.76615 21.4468 3.10154 22.3965C2.43692 23.348 2.10462 24.2638 2.10462 25.1452C2.10462 25.9596 2.39905 26.5878 2.99077 27.0285C3.58107 27.471 4.28213 27.6902 5.09538 27.6902C5.76 27.6902 6.38675 27.471 6.97846 27.0285C7.56876 26.5878 8.14154 26.0457 8.69539 25.3997C9.24923 24.7554 9.76521 24.111 10.2462 23.4654C10.7257 22.8215 11.2237 22.2947 11.7415 21.8875C12.5534 21.1414 13.3841 20.5641 14.2338 20.1569C15.0821 19.7496 16.0237 19.3089 17.0585 18.8334C17.3529 18.6981 17.9067 18.528 18.72 18.3244C19.5318 18.1208 20.0114 18.019 20.16 18.019H20.2708V20.8695ZM11.9077 12.0127C11.7226 12.081 11.6308 12.3181 11.6308 12.7253L13.0708 11.9109C12.4791 11.9109 12.0914 11.9457 11.9077 12.0127ZM16.6708 6.56625C17.2975 6.05724 18.1283 5.80273 19.1631 5.80273C20.0492 5.80273 20.8057 6.07464 21.4338 6.61715C22.0606 7.16097 22.3754 7.90708 22.3754 8.8568C22.3754 9.73952 22.0606 10.4856 21.4338 11.0964C20.8057 11.7073 20.0492 12.0127 19.1631 12.0127C18.1278 12.0127 17.2975 11.6912 16.6708 11.0456C16.0426 10.4012 15.7292 9.63772 15.7292 8.755C15.7292 7.80528 16.0426 7.07526 16.6708 6.56625ZM18.2215 9.67122C18.4795 9.94312 18.7929 10.0784 19.1631 10.0784C19.5318 10.0784 19.8277 9.96053 20.0492 9.72212C20.2708 9.48501 20.3815 9.19701 20.3815 8.8568C20.3815 8.11112 19.9749 7.73697 19.1631 7.73697C18.7924 7.73697 18.4795 7.82268 18.2215 7.99148C17.9621 8.16159 17.8338 8.41609 17.8338 8.755C17.8338 9.09565 17.9621 9.40061 18.2215 9.67122Z"/>
</mask>
<path d="M7.75385 28.9119C6.94059 29.4557 6.05444 29.7263 5.09538 29.7263C3.69183 29.7263 2.49231 29.3191 1.49539 28.5046C0.498464 27.6902 0 26.5704 0 25.1452C0 24.0601 0.368759 22.9403 1.10769 21.7857C1.84521 20.6324 2.73136 19.5299 3.76615 18.4771C4.79953 17.4256 5.85183 16.492 6.92308 15.6776C7.99243 14.8631 8.89752 14.2188 9.63692 13.7433L10.6338 13.2343C10.2632 12.6235 10.0057 11.9792 9.85846 11.3001C9.70982 10.6222 9.63692 9.90963 9.63692 9.1622C9.63692 6.58365 10.5406 4.41274 12.3508 2.64686C14.1595 0.882721 16.4303 0 19.1631 0C21.2293 0 23.0575 0.509016 24.6462 1.52704C26.2334 2.54506 27.3217 3.90329 27.9138 5.59912H31.68V9.56942H39.3231V7.32977L72 2.95226V25.756L39.3231 21.3785V19.2406H31.7908V19.7496C34.0786 20.7677 36.0729 22.0402 37.7723 23.5672C39.4698 25.0943 40.836 26.9776 41.8708 29.2173C42.018 29.6245 42.2755 30.2862 42.6461 31.2024C43.0144 32.1186 43.2 32.8486 43.2 33.3912V91.9279C43.2 92.3351 43.0514 92.7767 42.7569 93.2509C42.4606 93.7268 42.0923 94.1671 41.6488 94.5748C41.2057 94.982 40.7247 95.3222 40.2088 95.5928C39.6914 95.8647 39.2483 96 38.8795 96H10.7441C10.0052 96 9.35953 95.8138 8.80568 95.4401C8.25184 95.0681 7.77042 94.5922 7.36568 94.0153C6.95906 93.4393 6.66272 92.8446 6.47953 92.2333C6.29397 91.6225 6.20261 91.0804 6.20261 90.6045V35.6312C6.20308 33.2558 6.71906 31.0162 7.75385 28.9119ZM20.2708 20.8695C16.8734 22.0241 14.0293 23.89 11.7415 26.4686C9.45183 29.0485 8.30769 32.1025 8.30769 35.6308V90.604C8.30769 91.2149 8.5103 91.9449 8.91693 92.7928C9.32166 93.6424 9.93136 94.0658 10.7446 94.0658H38.88C39.2488 94.0658 39.7108 93.8108 40.2646 93.3018C40.8185 92.7928 41.0954 92.3347 41.0954 91.9279V33.3912C41.0954 33.0522 40.9467 32.4928 40.6523 31.7114C40.3564 30.9318 40.1344 30.3719 39.9877 30.0317C38.9529 27.8603 37.6237 26.0614 36 24.6362C34.3749 23.2109 32.4175 22.0245 30.1292 21.0731L29.6862 20.8695V17.3064H41.4277V19.6478L69.8959 23.5163V5.19192L41.4277 9.06041V11.5037H29.5754V7.53337H26.2523C26.0308 5.90454 25.2554 4.56544 23.9262 3.51218C22.5969 2.46066 21.0078 1.93424 19.1631 1.93424C17.0206 1.93424 15.2308 2.64686 13.7908 4.07209C12.3508 5.49732 11.6308 7.19446 11.6308 9.1622C11.6308 10.8593 12.2954 12.3529 13.6246 13.6415V13.7433C13.6246 13.8116 13.5863 13.8451 13.5138 13.8451L10.7446 15.474C10.08 15.8812 9.26627 16.4411 8.30769 17.1537C7.34722 17.8663 6.40568 18.6807 5.48308 19.5969C4.55858 20.5132 3.76615 21.4468 3.10154 22.3965C2.43692 23.348 2.10462 24.2638 2.10462 25.1452C2.10462 25.9596 2.39905 26.5878 2.99077 27.0285C3.58107 27.471 4.28213 27.6902 5.09538 27.6902C5.76 27.6902 6.38675 27.471 6.97846 27.0285C7.56876 26.5878 8.14154 26.0457 8.69539 25.3997C9.24923 24.7554 9.76521 24.111 10.2462 23.4654C10.7257 22.8215 11.2237 22.2947 11.7415 21.8875C12.5534 21.1414 13.3841 20.5641 14.2338 20.1569C15.0821 19.7496 16.0237 19.3089 17.0585 18.8334C17.3529 18.6981 17.9067 18.528 18.72 18.3244C19.5318 18.1208 20.0114 18.019 20.16 18.019H20.2708V20.8695ZM11.9077 12.0127C11.7226 12.081 11.6308 12.3181 11.6308 12.7253L13.0708 11.9109C12.4791 11.9109 12.0914 11.9457 11.9077 12.0127ZM16.6708 6.56625C17.2975 6.05724 18.1283 5.80273 19.1631 5.80273C20.0492 5.80273 20.8057 6.07464 21.4338 6.61715C22.0606 7.16097 22.3754 7.90708 22.3754 8.8568C22.3754 9.73952 22.0606 10.4856 21.4338 11.0964C20.8057 11.7073 20.0492 12.0127 19.1631 12.0127C18.1278 12.0127 17.2975 11.6912 16.6708 11.0456C16.0426 10.4012 15.7292 9.63772 15.7292 8.755C15.7292 7.80528 16.0426 7.07526 16.6708 6.56625ZM18.2215 9.67122C18.4795 9.94312 18.7929 10.0784 19.1631 10.0784C19.5318 10.0784 19.8277 9.96053 20.0492 9.72212C20.2708 9.48501 20.3815 9.19701 20.3815 8.8568C20.3815 8.11112 19.9749 7.73697 19.1631 7.73697C18.7924 7.73697 18.4795 7.82268 18.2215 7.99148C17.9621 8.16159 17.8338 8.41609 17.8338 8.755C17.8338 9.09565 17.9621 9.40061 18.2215 9.67122Z" stroke="#058FA2" stroke-width="4" mask="url(#path-1-inside-1_2_27831)"/>
</svg>
