<svg width="72" height="72" viewBox="0 0 72 72" fill="none" xmlns="http://www.w3.org/2000/svg">
<path d="M26.9283 20.1353L26.9283 20.1353L26.9321 20.1297L31.2071 13.7172L31.375 13.4653V13.1625V3.375C31.375 3.09654 31.4683 2.83796 31.625 2.6291V3.375V13.5347L27.0679 20.3703C24.7285 23.8794 23.75 26.8817 23.75 30.375V64.125C23.75 65.7022 24.2801 67.0943 25.2804 68.0946C26.2807 69.0949 27.6728 69.625 29.25 69.625H42.75C44.3272 69.625 45.7193 69.0949 46.7196 68.0946C47.7199 67.0943 48.25 65.7022 48.25 64.125V30.375C48.25 26.8923 47.2779 23.7737 44.9277 20.3638L40.375 13.5347V3.375V2.6291C40.5317 2.83796 40.625 3.09654 40.625 3.375V13.1625V13.4653L40.7929 13.7172L45.0679 20.1297C47.4579 23.7146 48.5 26.7873 48.5 30.375V64.125C48.5 67.5102 46.1352 69.875 42.75 69.875H29.25C25.8648 69.875 23.5 67.5102 23.5 64.125V30.375C23.5 26.7792 24.4349 23.8211 26.9283 20.1353ZM32.625 2.375H31.8791C32.088 2.21827 32.3465 2.125 32.625 2.125H39.375C39.6535 2.125 39.912 2.21827 40.1209 2.375H39.375H32.625Z" fill="#058FA2" stroke="#058FA2" stroke-width="2"/>
<path d="M32.5 8V7.75H39.5V8H32.5Z" fill="#058FA2" stroke="#FDC114" stroke-width="2"/>
<path d="M24.625 37.25V37H47.375V37.25H24.625Z" fill="#058FA2" stroke="#058FA2" stroke-width="2"/>
<path d="M24.625 55.25V55H47.375V55.25H24.625Z" fill="#058FA2" stroke="#058FA2" stroke-width="2"/>
<path d="M35.9196 41.5446L35.9431 41.5211L35.9651 41.496L36 41.4561L36.0273 41.4873C36.0919 41.5645 36.1777 41.6634 36.2802 41.7815C36.6939 42.2585 37.3794 43.0487 38.0359 43.985C38.4451 44.5687 38.8207 45.1794 39.091 45.7652C39.3665 46.3624 39.5 46.8647 39.5 47.25C39.5 48.4557 39.1422 49.303 38.5976 49.8476C38.053 50.3922 37.2057 50.75 36 50.75C34.8772 50.75 34.0193 50.3801 33.4446 49.8054C32.8699 49.2307 32.5 48.3728 32.5 47.25C32.5 46.8578 32.6307 46.3513 32.8978 45.7551C33.1601 45.1696 33.5256 44.5597 33.9263 43.9787C34.7297 42.8138 35.6168 41.8474 35.9196 41.5446ZM36.7682 42.6723L36 41.7505L35.2318 42.6723C34.6472 43.3738 34.0515 44.1758 33.5956 44.9355C33.3679 45.3151 33.1646 45.7014 33.0156 46.0717C32.8724 46.4277 32.75 46.8397 32.75 47.25C32.75 48.1542 32.9958 49.0068 33.6195 49.6305C34.2432 50.2542 35.0958 50.5 36 50.5C36.9042 50.5 37.7568 50.2542 38.3805 49.6305C39.0042 49.0068 39.25 48.1542 39.25 47.25C39.25 46.8397 39.1276 46.4277 38.9844 46.0717C38.8354 45.7014 38.6321 45.3151 38.4044 44.9355C37.9485 44.1758 37.3528 43.3738 36.7682 42.6723Z" fill="#FDC114" stroke="#FDC114" stroke-width="2"/>
</svg>
