<svg width="120" height="120" viewBox="0 0 120 120" fill="none" xmlns="http://www.w3.org/2000/svg">
<path d="M100 67.4503C100 66.6491 99.3504 65.9995 98.5492 65.9995H21.4508C20.6496 65.9995 20 66.6491 20 67.4503V80.9487C20 81.7499 20.6496 82.3995 21.4508 82.3995H98.5492C99.3504 82.3995 100 81.7499 100 80.9487V67.4503Z" stroke="#058FA2" stroke-width="3" stroke-miterlimit="10" stroke-linecap="round" stroke-linejoin="round"/>
<path d="M29.4 58C24.3192 58 20 61.9188 20 67V80.7492C20 81.5504 20.8496 82.4 21.6508 82.4H98.7492C99.5504 82.4 100 81.5504 100 80.7492V67C100 61.9188 96.0808 58 91 58H29.4Z" stroke="#058FA2" stroke-width="3" stroke-miterlimit="10" stroke-linecap="round" stroke-linejoin="round"/>
<path d="M92.1016 73.8511C92.1016 74.4034 91.6538 74.8511 91.1016 74.8511C90.5493 74.8511 90.1016 74.4034 90.1016 73.8511C90.1016 73.2988 90.5493 72.8511 91.1016 72.8511C91.6538 72.8511 92.1016 73.2988 92.1016 73.8511Z" fill="#F9BF02" stroke="#F9BF02" stroke-width="3"/>
<path d="M83.5273 73.8511C83.5273 74.4034 83.0796 74.8511 82.5273 74.8511C81.9751 74.8511 81.5273 74.4034 81.5273 73.8511C81.5273 73.2988 81.9751 72.8511 82.5273 72.8511C83.0796 72.8511 83.5273 73.2988 83.5273 73.8511Z" fill="#F9BF02" stroke="#F9BF02" stroke-width="3"/>
<path d="M74.9531 73.8511C74.9531 74.4034 74.5054 74.8511 73.9531 74.8511C73.4008 74.8511 72.9531 74.4034 72.9531 73.8511C72.9531 73.2988 73.4008 72.8511 73.9531 72.8511C74.5054 72.8511 74.9531 73.2988 74.9531 73.8511Z" fill="#F9BF02" stroke="#F9BF02" stroke-width="3"/>
<path d="M26.1992 38L30.5872 53.5388" stroke="#F9BF02" stroke-width="3" stroke-miterlimit="10" stroke-linecap="round" stroke-linejoin="round"/>
</svg>
