<svg width="96" height="84" viewBox="0 0 96 84" fill="none" xmlns="http://www.w3.org/2000/svg">
<circle cx="91" cy="15" r="5" fill="#FDC114"/>
<mask id="path-2-inside-1_2982_8512" fill="white">
<path d="M22.7586 0C19.0776 0 15.9935 0.91875 13.8977 2.9925C11.8018 5.06625 10.8733 8.11781 10.8733 11.76V13.44H5.77959C5.72653 13.44 5.67347 13.44 5.62041 13.44C4.68524 13.4859 3.95567 14.2734 4.0021 15.1987C4.04853 16.1241 4.84442 16.8459 5.77959 16.8H10.8733V48.405C10.8269 48.6281 10.8269 48.8644 10.8733 49.0875V58.485C10.8269 58.7081 10.8269 58.9444 10.8733 59.1675V68.88C10.8733 69.8053 11.636 70.56 12.5712 70.56H21.0607V82.32C21.0607 83.2453 21.8234 84 22.7586 84H77.0915C78.0266 84 78.7894 83.2453 78.7894 82.32V18.7425C78.796 18.6572 78.796 18.5653 78.7894 18.48V16.8H87.2789C87.8891 16.8066 88.4595 16.4916 88.7712 15.9666C89.0763 15.4416 89.0763 14.7984 88.7712 14.2734C88.4595 13.7484 87.8891 13.4334 87.2789 13.44H78.7894V11.76C78.7894 8.295 77.6751 5.29594 75.5527 3.2025C73.4304 1.10906 70.3927 0 66.9041 0H22.7586ZM22.7586 3.36H66.9041C69.6897 3.36 71.759 4.18031 73.1651 5.565C73.9278 6.31969 74.4783 7.30406 74.863 8.4525C73.3839 7.33688 71.7524 6.72 70.2999 6.72C68.5887 6.72 66.3005 7.17938 64.5694 9.03C62.8384 10.8806 61.8104 13.8666 61.8104 18.48V43.8375C60.2716 44.1656 58.9319 44.8941 57.6717 45.5175C55.9738 46.3575 54.455 47.04 53.3208 47.04C52.1867 47.04 50.6679 46.3575 48.97 45.5175C47.2721 44.6775 45.3951 43.68 43.1334 43.68C40.8718 43.68 38.9948 44.6775 37.2969 45.5175C35.599 46.3575 34.0802 47.04 32.946 47.04C31.8119 47.04 30.2931 46.3575 28.5951 45.5175C26.8972 44.6775 25.0203 43.68 22.7586 43.68C20.497 43.68 18.62 44.6775 16.9221 45.5175C15.967 45.99 15.0783 46.4428 14.2691 46.725V15.435C14.3155 15.2119 14.3155 14.9756 14.2691 14.7525V11.76C14.2691 8.68219 15.0385 6.69375 16.3384 5.4075C17.6384 4.12125 19.648 3.36 22.7586 3.36ZM70.2999 10.08C71.3478 10.08 72.4952 10.3819 73.4834 11.4975C73.888 11.9569 74.2727 12.6066 74.5977 13.44H65.8959C66.2276 12.4425 66.6321 11.7469 67.0632 11.2875C68.005 10.2834 69.1326 10.08 70.2999 10.08ZM65.2592 16.8H75.2875C75.3339 17.3184 75.3936 17.8762 75.3936 18.48C75.3936 18.5325 75.3936 18.585 75.3936 18.6375V80.64H24.4565V70.56H63.5083C64.4434 70.56 65.2062 69.8053 65.2062 68.88V55.755C65.2526 55.5319 65.2526 55.2956 65.2062 55.0725V45.675C65.2526 45.4519 65.2526 45.2156 65.2062 44.9925V18.48C65.2062 17.8828 65.2261 17.3184 65.2592 16.8ZM22.7586 47.04C23.8928 47.04 25.4116 47.7225 27.1095 48.5625C28.8074 49.4025 30.6844 50.4 32.946 50.4C35.2077 50.4 37.0847 49.4025 38.7826 48.5625C40.4805 47.7225 41.9993 47.04 43.1334 47.04C44.2676 47.04 45.7864 47.7225 47.4843 48.5625C49.1822 49.4025 51.0592 50.4 53.3208 50.4C55.5825 50.4 57.4595 49.4025 59.1574 48.5625C60.1125 48.09 61.0012 47.6372 61.8104 47.355V53.9175C60.2716 54.2456 58.9319 54.9741 57.6717 55.5975C55.9738 56.4375 54.455 57.12 53.3208 57.12C52.1867 57.12 50.6679 56.4375 48.97 55.5975C47.2721 54.7575 45.3951 53.76 43.1334 53.76C40.8718 53.76 38.9948 54.7575 37.2969 55.5975C35.599 56.4375 34.0802 57.12 32.946 57.12C31.8119 57.12 30.2931 56.4375 28.5951 55.5975C26.8972 54.7575 25.0203 53.76 22.7586 53.76C20.497 53.76 18.62 54.7575 16.9221 55.5975C15.967 56.07 15.0783 56.5228 14.2691 56.805V50.2425C15.8078 49.9144 17.1476 49.1859 18.4077 48.5625C20.1056 47.7225 21.6245 47.04 22.7586 47.04ZM22.7586 57.12C23.8928 57.12 25.4116 57.8025 27.1095 58.6425C28.8074 59.4825 30.6844 60.48 32.946 60.48C35.2077 60.48 37.0847 59.4825 38.7826 58.6425C40.4805 57.8025 41.9993 57.12 43.1334 57.12C44.2676 57.12 45.7864 57.8025 47.4843 58.6425C49.1822 59.4825 51.0592 60.48 53.3208 60.48C55.5825 60.48 57.4595 59.4825 59.1574 58.6425C60.1125 58.17 61.0012 57.7172 61.8104 57.435V67.2H14.2691V60.3225C15.8078 59.9944 17.1476 59.2659 18.4077 58.6425C20.1056 57.8025 21.6245 57.12 22.7586 57.12Z"/>
</mask>
<path d="M22.7586 0C19.0776 0 15.9935 0.91875 13.8977 2.9925C11.8018 5.06625 10.8733 8.11781 10.8733 11.76V13.44H5.77959C5.72653 13.44 5.67347 13.44 5.62041 13.44C4.68524 13.4859 3.95567 14.2734 4.0021 15.1987C4.04853 16.1241 4.84442 16.8459 5.77959 16.8H10.8733V48.405C10.8269 48.6281 10.8269 48.8644 10.8733 49.0875V58.485C10.8269 58.7081 10.8269 58.9444 10.8733 59.1675V68.88C10.8733 69.8053 11.636 70.56 12.5712 70.56H21.0607V82.32C21.0607 83.2453 21.8234 84 22.7586 84H77.0915C78.0266 84 78.7894 83.2453 78.7894 82.32V18.7425C78.796 18.6572 78.796 18.5653 78.7894 18.48V16.8H87.2789C87.8891 16.8066 88.4595 16.4916 88.7712 15.9666C89.0763 15.4416 89.0763 14.7984 88.7712 14.2734C88.4595 13.7484 87.8891 13.4334 87.2789 13.44H78.7894V11.76C78.7894 8.295 77.6751 5.29594 75.5527 3.2025C73.4304 1.10906 70.3927 0 66.9041 0H22.7586ZM22.7586 3.36H66.9041C69.6897 3.36 71.759 4.18031 73.1651 5.565C73.9278 6.31969 74.4783 7.30406 74.863 8.4525C73.3839 7.33688 71.7524 6.72 70.2999 6.72C68.5887 6.72 66.3005 7.17938 64.5694 9.03C62.8384 10.8806 61.8104 13.8666 61.8104 18.48V43.8375C60.2716 44.1656 58.9319 44.8941 57.6717 45.5175C55.9738 46.3575 54.455 47.04 53.3208 47.04C52.1867 47.04 50.6679 46.3575 48.97 45.5175C47.2721 44.6775 45.3951 43.68 43.1334 43.68C40.8718 43.68 38.9948 44.6775 37.2969 45.5175C35.599 46.3575 34.0802 47.04 32.946 47.04C31.8119 47.04 30.2931 46.3575 28.5951 45.5175C26.8972 44.6775 25.0203 43.68 22.7586 43.68C20.497 43.68 18.62 44.6775 16.9221 45.5175C15.967 45.99 15.0783 46.4428 14.2691 46.725V15.435C14.3155 15.2119 14.3155 14.9756 14.2691 14.7525V11.76C14.2691 8.68219 15.0385 6.69375 16.3384 5.4075C17.6384 4.12125 19.648 3.36 22.7586 3.36ZM70.2999 10.08C71.3478 10.08 72.4952 10.3819 73.4834 11.4975C73.888 11.9569 74.2727 12.6066 74.5977 13.44H65.8959C66.2276 12.4425 66.6321 11.7469 67.0632 11.2875C68.005 10.2834 69.1326 10.08 70.2999 10.08ZM65.2592 16.8H75.2875C75.3339 17.3184 75.3936 17.8762 75.3936 18.48C75.3936 18.5325 75.3936 18.585 75.3936 18.6375V80.64H24.4565V70.56H63.5083C64.4434 70.56 65.2062 69.8053 65.2062 68.88V55.755C65.2526 55.5319 65.2526 55.2956 65.2062 55.0725V45.675C65.2526 45.4519 65.2526 45.2156 65.2062 44.9925V18.48C65.2062 17.8828 65.2261 17.3184 65.2592 16.8ZM22.7586 47.04C23.8928 47.04 25.4116 47.7225 27.1095 48.5625C28.8074 49.4025 30.6844 50.4 32.946 50.4C35.2077 50.4 37.0847 49.4025 38.7826 48.5625C40.4805 47.7225 41.9993 47.04 43.1334 47.04C44.2676 47.04 45.7864 47.7225 47.4843 48.5625C49.1822 49.4025 51.0592 50.4 53.3208 50.4C55.5825 50.4 57.4595 49.4025 59.1574 48.5625C60.1125 48.09 61.0012 47.6372 61.8104 47.355V53.9175C60.2716 54.2456 58.9319 54.9741 57.6717 55.5975C55.9738 56.4375 54.455 57.12 53.3208 57.12C52.1867 57.12 50.6679 56.4375 48.97 55.5975C47.2721 54.7575 45.3951 53.76 43.1334 53.76C40.8718 53.76 38.9948 54.7575 37.2969 55.5975C35.599 56.4375 34.0802 57.12 32.946 57.12C31.8119 57.12 30.2931 56.4375 28.5951 55.5975C26.8972 54.7575 25.0203 53.76 22.7586 53.76C20.497 53.76 18.62 54.7575 16.9221 55.5975C15.967 56.07 15.0783 56.5228 14.2691 56.805V50.2425C15.8078 49.9144 17.1476 49.1859 18.4077 48.5625C20.1056 47.7225 21.6245 47.04 22.7586 47.04ZM22.7586 57.12C23.8928 57.12 25.4116 57.8025 27.1095 58.6425C28.8074 59.4825 30.6844 60.48 32.946 60.48C35.2077 60.48 37.0847 59.4825 38.7826 58.6425C40.4805 57.8025 41.9993 57.12 43.1334 57.12C44.2676 57.12 45.7864 57.8025 47.4843 58.6425C49.1822 59.4825 51.0592 60.48 53.3208 60.48C55.5825 60.48 57.4595 59.4825 59.1574 58.6425C60.1125 58.17 61.0012 57.7172 61.8104 57.435V67.2H14.2691V60.3225C15.8078 59.9944 17.1476 59.2659 18.4077 58.6425C20.1056 57.8025 21.6245 57.12 22.7586 57.12Z" stroke="#058FA2" stroke-width="6" mask="url(#path-2-inside-1_2982_8512)"/>
<path d="M67 13C65.8954 13 65 13.8954 65 15C65 16.1046 65.8954 17 67 17V13ZM67 17L90 17V13L67 13V17Z" fill="#FDC114"/>
<circle cx="4" cy="15" r="4" fill="#FDC114"/>
</svg>
