<svg width="116" height="116" viewBox="0 0 116 116" fill="none" xmlns="http://www.w3.org/2000/svg">
<path d="M32.625 15.7234C32.625 16.1766 35.525 19.4391 39.0594 22.9734L45.5391 29.4531H33.9844C23.336 29.4531 22.3391 29.5437 21.1157 30.3141C18.5329 32.0359 18.6235 31.0844 18.5782 60.4016C18.5782 90.1266 18.5329 89.4016 21.2969 90.8516C22.4297 91.4406 25.9641 91.5312 45.9016 91.5312C58.6797 91.5312 69.2829 91.3953 69.4641 91.2594C69.6 91.1234 69.6 90.7156 69.4641 90.3531C69.2829 89.8094 65.5219 89.7188 45.9016 89.7188H22.611L21.5235 88.5859L20.3907 87.4984V60.6281C20.436 32.2625 20.3907 32.9422 22.5204 31.8094C23.925 31.0391 92.0751 31.0391 93.4797 31.8094C95.6094 32.9422 95.5641 32.2625 95.6094 60.5375C95.6094 86.275 95.5641 87.4078 94.7485 88.4047C93.9329 89.4469 93.525 89.4922 87.1813 89.7188C81.2454 89.9 80.4297 90.0359 80.2938 90.7609C80.1579 91.4859 80.7016 91.5312 86.7735 91.5312C91.8032 91.5312 93.7063 91.35 94.7032 90.8516C97.4672 89.4016 97.4219 90.1266 97.4219 60.4016C97.3766 31.0844 97.4672 32.0359 94.8844 30.3141C93.661 29.5437 92.6641 29.4531 82.0157 29.4531H70.461L76.9407 22.9734C82.786 17.0828 84.3719 14.9531 82.786 14.9531C82.4688 14.9531 78.9797 18.2156 74.9922 22.2031L67.7422 29.4531H58H48.2579L41.0079 22.2031C37.0204 18.2156 33.5313 14.9531 33.2141 14.9531C32.8969 14.9531 32.625 15.3156 32.625 15.7234Z" fill="#058FA2"/>
<path d="M26.9156 37.3375L25.375 38.8781V60.2656C25.375 79.4328 25.4656 81.7891 26.1453 82.9219C27.5953 85.4141 27.6859 85.4141 46.4 85.4141C62.35 85.4141 63.6641 85.3687 63.8 84.6437C63.9359 83.9187 62.7125 83.8281 46.7172 83.7375L29.5438 83.6016L28.3656 82.5141L27.1875 81.4266V60.7188C27.1875 40.4641 27.1875 39.9656 28.1391 38.7875L29.0453 37.6094H57.8188H86.5922L87.6797 38.7422L88.8125 39.8297V60.6281V81.4266L87.6344 82.5141C86.6375 83.4656 85.9578 83.6016 82.65 83.7828C79.3422 83.9187 78.7984 84.0547 78.9344 84.6891C79.0703 85.2781 79.75 85.4141 82.9672 85.4141C87.3172 85.4141 88.7219 84.9156 89.8547 82.9219C90.5344 81.7891 90.625 79.4328 90.625 60.2656V38.8781L89.0844 37.3375L87.5438 35.7969H58H28.4563L26.9156 37.3375Z" fill="#058FA2"/>
<path d="M38.3352 44.225C35.2539 45.1766 32.0368 48.4844 31.0852 51.7016C29.2727 57.7281 31.2664 64.3438 36.4774 69.6C40.0118 73.1797 43.5914 74.9922 48.9383 75.9437C51.2039 76.3062 53.9227 76.9406 54.9649 77.3031C59.6321 78.9344 64.9336 82.7406 70.4618 88.3141C73.2258 91.1234 73.8149 91.5312 75.2649 91.5312C77.2586 91.5312 78.3914 90.3984 78.3914 88.4047C78.3914 87.1359 77.7118 86.1844 73.8602 82.1516C66.7008 74.6297 63.8914 69.3734 62.6227 61.0359C60.8555 49.5719 48.5758 41.0984 38.3352 44.225ZM50.0711 47.3062C57.4118 50.9312 62.2602 59.3141 60.7649 65.8844C59.3602 72.0922 53.7868 75.3094 47.1711 73.6781C41.3711 72.2281 36.4774 68.15 33.8039 62.5312C32.6711 60.0844 32.4446 59.0422 32.3993 56.1422C32.3993 53.1062 32.5352 52.4719 33.7586 50.5234C37.1571 45.0406 43.1383 43.8625 50.0711 47.3062ZM63.7102 71.6844L64.7524 73.8141L63.7555 74.1312C62.2149 74.5844 61.1727 75.7172 61.1727 76.85V77.8469L58.4539 76.6687C56.9586 75.9891 55.7352 75.3547 55.7352 75.2188C55.7352 75.0828 56.5961 74.4937 57.593 73.95C58.7258 73.3156 59.9946 71.9562 60.8555 70.5969C61.6711 69.3281 62.3508 68.6031 62.4414 68.9203C62.5774 69.2828 63.1211 70.5062 63.7102 71.6844ZM70.8696 81.9703C74.9477 86.0484 76.6243 88.0422 76.4883 88.6312C76.1258 90.7156 74.6758 89.8094 68.8305 84.0094C63.4836 78.6625 62.4414 77.2578 63.3024 76.4422C64.118 75.5812 65.5227 76.6234 70.8696 81.9703Z" fill="#058FA2"/>
<path d="M41.3709 48.7563C41.1896 49.2094 41.824 50.161 43.0928 51.475L45.0412 53.4688L42.685 55.825L40.3287 58.1813L38.335 56.2328C37.0209 54.9641 36.0693 54.3297 35.6162 54.511C34.4834 54.9641 34.7553 55.7797 36.7943 57.8641L38.6975 59.8125L37.474 61.0813C35.0725 63.5735 36.5678 65.0235 39.06 62.6672L40.374 61.4438L42.685 63.8L45.0412 66.111L43.8178 67.425C42.5037 68.7844 42.1865 70.2344 43.1834 70.2344C43.5006 70.2344 44.3615 69.6453 45.0865 68.875L46.3553 67.5156L48.5303 69.5547C49.935 70.8688 50.9771 71.5031 51.385 71.3219C52.4725 70.9141 52.2912 70.3703 50.0709 68.0141L48.0771 65.8844L50.4334 63.5281L52.835 61.1719L54.8287 63.211C55.9162 64.3438 57.0943 65.25 57.4115 65.25C58.5443 65.25 57.9553 63.6641 56.0975 61.761L54.1943 59.8125L55.6443 58.3172C56.46 57.5016 57.0943 56.5953 57.0943 56.2781C57.0943 55.2813 55.5537 55.6891 54.149 57.0938L52.7443 58.4531L50.3881 56.0516L48.0318 53.65L49.3912 52.336C50.9318 50.886 51.2037 49.3906 49.935 49.3906C49.4818 49.3906 48.5303 50.025 47.8053 50.75L46.4912 52.1094L44.4068 50.0703C42.1412 47.85 41.7787 47.6688 41.3709 48.7563ZM49.1646 57.5469L51.4303 59.8125L49.0287 62.2141L46.6725 64.5703L44.3162 62.2141L41.9146 59.8125L44.1803 57.5469C45.4037 56.3235 46.5365 55.2813 46.6725 55.2813C46.8084 55.2813 47.9412 56.3235 49.1646 57.5469Z" fill="#058FA2"/>
<path d="M61.1719 47.5781C61.1719 48.4391 61.4891 48.4844 65.7031 48.4844C69.9172 48.4844 70.2344 48.4391 70.2344 47.5781C70.2344 46.7172 69.9172 46.6719 65.7031 46.6719C61.4891 46.6719 61.1719 46.7172 61.1719 47.5781Z" fill="#058FA2"/>
<path d="M72.6821 47.9859C68.4227 49.9344 67.018 55.3719 69.6008 59.7672C71.9571 63.8 78.1649 64.525 81.6993 61.2172C83.6024 59.4953 84.2821 57.9094 84.2821 55.2359C84.2821 49.1188 78.3461 45.4031 72.6821 47.9859ZM78.8446 49.6172C80.4758 50.4328 80.4758 50.6141 79.2071 51.9734C77.8477 53.4234 77.8477 56.55 79.2071 58.4078C80.4305 60.0844 80.2946 60.4922 78.1196 61.1719C76.8508 61.625 76.0352 61.625 74.7211 61.2172C72.5008 60.5375 72.2289 60.0844 73.3618 58.6344C74.0414 57.7734 74.3133 56.7766 74.3133 55.2813C74.3133 53.7859 74.0414 52.7891 73.3618 51.9281C72.3649 50.6594 72.5008 49.9797 74.0414 49.3906C75.5368 48.7563 77.3946 48.8922 78.8446 49.6172ZM72.5008 55.0094C72.5008 56.8219 71.1868 58.8156 70.643 57.9547C70.1899 57.2297 70.0993 53.8766 70.5071 52.7891C70.9602 51.6109 72.5008 53.2875 72.5008 55.0094ZM82.4243 55.2813C82.4243 56.1422 82.243 57.1844 82.0164 57.5469C81.6539 58.1359 81.518 58.1359 80.8383 57.4563C79.7961 56.4141 79.8414 54.1484 80.8836 52.9703C81.6993 52.1094 81.7899 52.1094 82.0618 52.8797C82.243 53.3328 82.4243 54.4203 82.4243 55.2813Z" fill="#058FA2"/>
<path d="M68.9639 65.5671C69.0998 66.2468 69.6889 66.4281 72.2264 66.5187C74.3561 66.6093 75.4889 66.4734 75.7154 66.0656C76.3498 65.0687 75.6701 64.7968 72.2264 64.7968C69.2358 64.7968 68.8279 64.8874 68.9639 65.5671Z" fill="#058FA2"/>
</svg>
