<svg width="120" height="120" viewBox="0 0 120 120" fill="none" xmlns="http://www.w3.org/2000/svg">
<path d="M58.9891 16.35L50.1016 3.75L23.8516 85.8375L34.4266 89.5875C35.3791 89.7767 36.2832 90.1577 37.084 90.7072C37.8847 91.2567 38.5653 91.9634 39.0844 92.7841C39.6035 93.6049 39.9503 94.5227 40.1037 95.4816C40.2571 96.4406 40.2138 97.4208 39.9766 98.3625L34.8766 116.25H83.6266L84.1891 115.312C90.1563 104.027 93.4293 91.5123 93.7516 78.75C93.7516 49.575 83.3641 30.9 58.9891 16.35ZM28.5766 83.475L51.4141 12.225L55.6516 18.1875L33.7516 85.35L28.5766 83.475ZM81.4141 112.5H39.8641L43.6141 99.3C44.3291 96.826 44.0996 94.1746 42.9701 91.8603C41.8406 89.5459 39.8917 87.7336 37.5016 86.775L58.7641 20.625C80.5891 34.275 90.0016 51.75 90.0016 78.75C89.6698 90.4966 86.7369 102.023 81.4141 112.5Z" fill="#058FA2"/>
<path d="M64.6642 75.8455L58.8672 94.9739L62.456 96.0615L68.2531 76.9331L64.6642 75.8455Z" fill="#FDC114"/>
<path d="M66.1875 48.4126L64.0125 46.7251L45.375 108.75H76.275L76.7625 107.588C80.1012 99.6165 82.042 91.13 82.5 82.5001C82.5 66.6376 78.375 58.0126 66.1875 48.4126ZM73.6875 105H50.4L66 53.1376C75.6 61.2751 78.75 68.7751 78.75 82.5001C78.3423 90.228 76.6439 97.8331 73.725 105H73.6875Z" fill="#FDC114"/>
</svg>
