<svg width="52" height="50" viewBox="0 0 52 50" fill="none" xmlns="http://www.w3.org/2000/svg">
<path d="M50.75 39.625H19.25V44.125H50.75V39.625Z" stroke="#058FA2" stroke-width="2" stroke-miterlimit="10" stroke-linecap="round" stroke-linejoin="round"/>
<path d="M22.625 48.625C23.8676 48.625 24.875 47.6176 24.875 46.375C24.875 45.1324 23.8676 44.125 22.625 44.125C21.3824 44.125 20.375 45.1324 20.375 46.375C20.375 47.6176 21.3824 48.625 22.625 48.625Z" stroke="#FDD304" stroke-width="2" stroke-miterlimit="10" stroke-linecap="round" stroke-linejoin="round"/>
<path d="M47.375 48.625C48.6176 48.625 49.625 47.6176 49.625 46.375C49.625 45.1324 48.6176 44.125 47.375 44.125C46.1324 44.125 45.125 45.1324 45.125 46.375C45.125 47.6176 46.1324 48.625 47.375 48.625Z" stroke="#FDD304" stroke-width="2" stroke-miterlimit="10" stroke-linecap="round" stroke-linejoin="round"/>
<path d="M49.625 25.0001V39.6251H20.375V25.0001C20.375 18.3063 25.235 12.76 31.625 11.6913V13.7501H38.375V11.6913C44.765 12.76 49.625 18.3063 49.625 25.0001Z" stroke="#058FA2" stroke-width="2" stroke-miterlimit="10" stroke-linecap="round" stroke-linejoin="round"/>
<path d="M38.375 9.25H31.625V13.75H38.375V9.25Z" stroke="#058FA2" stroke-width="2" stroke-miterlimit="10" stroke-linecap="round" stroke-linejoin="round"/>
<path d="M28.25 24.125H23.75V37.625H28.25V24.125Z" stroke="#FDD304" stroke-width="2" stroke-miterlimit="10" stroke-linecap="round" stroke-linejoin="round"/>
<path d="M37.25 24.125H32.75V37.625H37.25V24.125Z" stroke="#FDD304" stroke-width="2" stroke-miterlimit="10" stroke-linecap="round" stroke-linejoin="round"/>
<path d="M46.25 24.125H41.75V37.625H46.25V24.125Z" stroke="#FDD304" stroke-width="2" stroke-miterlimit="10" stroke-linecap="round" stroke-linejoin="round"/>
<path d="M26 26.125V22.75" stroke="#FDD304" stroke-width="2" stroke-miterlimit="10" stroke-linecap="round" stroke-linejoin="round"/>
<path d="M35 26.125V22.75" stroke="#FDD304" stroke-width="2" stroke-miterlimit="10" stroke-linecap="round" stroke-linejoin="round"/>
<path d="M44 26.125V22.75" stroke="#FDD304" stroke-width="2" stroke-miterlimit="10" stroke-linecap="round" stroke-linejoin="round"/>
<path d="M6.875 31.75H3.5C2.25736 31.75 1.25 30.7426 1.25 29.5V14.875C1.25 13.6324 2.25736 12.625 3.5 12.625H6.875C8.11764 12.625 9.125 13.6324 9.125 14.875V29.5C9.125 30.7426 8.11764 31.75 6.875 31.75Z" stroke="#058FA2" stroke-width="2" stroke-miterlimit="10" stroke-linecap="round" stroke-linejoin="round"/>
<path d="M8 31.75V45.8125C8 47.365 6.74001 48.625 5.1875 48.625C3.63499 48.625 2.375 47.365 2.375 45.8125V31.75H8Z" stroke="#058FA2" stroke-width="2" stroke-miterlimit="10" stroke-linecap="round" stroke-linejoin="round"/>
<path d="M20.375 21.0625C20.375 22.6158 19.1158 23.875 17.5625 23.875H9.125V18.25H17.5625C19.1158 18.25 20.375 19.5092 20.375 21.0625Z" stroke="#058FA2" stroke-width="2" stroke-miterlimit="10" stroke-linecap="round" stroke-linejoin="round"/>
<path d="M5.1875 9.25C7.36212 9.25 9.125 7.48712 9.125 5.3125C9.125 3.13788 7.36212 1.375 5.1875 1.375C3.01288 1.375 1.25 3.13788 1.25 5.3125C1.25 7.48712 3.01288 9.25 5.1875 9.25Z" stroke="#058FA2" stroke-width="2" stroke-miterlimit="10" stroke-linecap="round" stroke-linejoin="round"/>
</svg>
