<svg width="49" height="74" viewBox="0 0 49 74" fill="none" xmlns="http://www.w3.org/2000/svg">
<path fill-rule="evenodd" clip-rule="evenodd" d="M16.2059 2.38462H9.98529H8.63474C7.46803 2.38462 6.52941 3.31923 6.52941 4.46154V23.2798C6.24603 23.3823 5.98615 23.5443 5.76773 23.7575C5.36962 24.148 5.14706 24.6783 5.14706 25.2308V25.9231H3.07353C1.92894 25.9231 1 26.8535 1 28V66.7692C1 67.9157 1.92894 68.8462 3.07353 68.8462H6.64968C6.57226 69.0635 6.52941 69.2962 6.52941 69.5385V70.9231C6.52941 72.0654 7.46665 73 8.63197 73C10.1581 73 12.5772 73 14.1033 73C15.2686 73 16.2059 72.0654 16.2059 70.9231V69.5385C16.2059 69.2962 16.163 69.0635 16.0856 68.8462H32.9144C32.837 69.0635 32.7941 69.2962 32.7941 69.5385V70.9231C32.7941 72.0654 33.7327 73 34.8994 73C36.4283 73 38.8488 73 40.3777 73C41.5444 73 42.483 72.0654 42.483 70.9231V69.5385C42.483 69.2962 42.4402 69.0635 42.3628 68.8462H45.9265C47.0711 68.8462 48 67.9157 48 66.7692V47.3846V28C48 26.8535 47.0711 25.9231 45.9265 25.9231H43.8529V25.2308C43.8529 24.6783 43.6304 24.148 43.2323 23.7575C43.0139 23.5443 42.754 23.3823 42.4706 23.2798V4.46154C42.4706 3.31923 41.5334 2.38462 40.368 2.38462H39.0341H39.0189L32.7941 2.35138V1.69231C32.7941 1.31015 32.4845 1 32.1029 1H16.8971C16.5155 1 16.2059 1.31015 16.2059 1.69231V2.38462ZM34.8994 68.8462H40.3777C40.7731 68.8462 41.1007 69.1522 41.1007 69.5385V70.9231C41.1007 71.3094 40.7731 71.6154 40.3777 71.6154H34.8994C34.5041 71.6154 34.1765 71.3094 34.1765 70.9231V69.5385C34.1765 69.1522 34.5041 68.8462 34.8994 68.8462ZM8.63197 68.8462H14.1033C14.4973 68.8462 14.8235 69.1522 14.8235 69.5385V70.9231C14.8235 71.3094 14.4973 71.6154 14.1033 71.6154H8.63197C8.238 71.6154 7.91177 71.3094 7.91177 70.9231V69.5385C7.91177 69.1522 8.238 68.8462 8.63197 68.8462ZM5.14706 27.3077H3.07353C2.692 27.3077 2.38235 27.6178 2.38235 28V66.7692C2.38235 67.1514 2.692 67.4615 3.07353 67.4615H45.9265C46.308 67.4615 46.6176 67.1514 46.6176 66.7692V28C46.6176 27.6178 46.308 27.3077 45.9265 27.3077H43.8529V30.7692C43.8529 31.1514 43.5433 31.4615 43.1618 31.4615H5.83824C5.45671 31.4615 5.14706 31.1514 5.14706 30.7692V27.3077ZM41.7504 24.5385H7.22888C7.04365 24.544 6.86671 24.6174 6.73538 24.7462C6.60406 24.8749 6.52941 25.0494 6.52941 25.2308V30.0769H42.4706V25.2308C42.4706 25.0494 42.3959 24.8749 42.2646 24.7462C42.1278 24.6132 41.9425 24.5385 41.7504 24.5385ZM39.7059 3.76923H40.368C40.762 3.76923 41.0882 4.07523 41.0882 4.46154V23.1538H39.7059V3.76923ZM16.3261 6.53985H10.6792V23.1538H38.3235V6.53846H32.6739C32.3863 7.34292 31.6094 7.92308 30.6916 7.92308H18.3084C17.3906 7.92308 16.6151 7.34431 16.3261 6.53985ZM9.29412 3.76923H8.63474C8.23938 3.76923 7.91177 4.07523 7.91177 4.46154V23.1538H9.29688V5.91677C9.2955 5.89323 9.29412 5.86969 9.29412 5.84754V3.76923ZM17.5882 5.84615V2.38462H31.4118V5.84615C31.4118 6.23246 31.0855 6.53846 30.6916 6.53846H18.3084C17.9145 6.53846 17.5882 6.23246 17.5882 5.84615ZM16.2059 3.76923H10.6792V5.15523H16.2059V3.76923ZM38.3235 3.76508L32.7941 3.736V5.15385H38.3235V3.76508Z" fill="#058FA2" stroke="#058FA2"/>
<path d="M12.4014 34.5H13.8242C14.7239 34.5 15.4579 35.234 15.458 36.1426V63.2861C15.4578 64.1946 14.7239 64.9287 13.8242 64.9287H12.4014C11.5018 64.9286 10.7678 64.1945 10.7676 63.2861V36.1426C10.7677 35.2341 11.5018 34.5001 12.4014 34.5ZM23.7822 34.5H25.2051C26.1047 34.5001 26.8387 35.2341 26.8389 36.1426V63.2861C26.8386 64.1946 26.1046 64.9286 25.2051 64.9287H23.7822C22.8826 64.9287 22.1487 64.1946 22.1484 63.2861V36.1426C22.1486 35.234 22.8826 34.5 23.7822 34.5ZM35.1631 34.5H36.5859C37.4855 34.5002 38.2196 35.2341 38.2197 36.1426V63.2861C38.2195 64.1945 37.4854 64.9285 36.5859 64.9287H35.1631C34.2634 64.9287 33.5295 64.1946 33.5293 63.2861V36.1426C33.5294 35.234 34.2634 34.5 35.1631 34.5Z" stroke="#FDC114"/>
</svg>
