<svg width="71" height="68" viewBox="0 0 71 68" fill="none" xmlns="http://www.w3.org/2000/svg">
<path d="M64.467 44.3094H54.1201V36.7188H57.4514H58.4514V36.5219H58.492H60.5732H60.6139V36.7188H61.6139H64.467V44.3094ZM51.2201 27.1281V44.2812H45.7951V27.1281H47.1576H48.1576V26.1281V24.85H48.8576V26.1281V27.1281H49.8576H51.2201ZM59.0107 7.14375V7.94632L59.7943 8.12004C65.4686 9.37814 69.9232 15.2276 69.9232 22.4719V59.0188H40.7326V38.3344V37.3344H39.7326H39.7324H39.7323H39.7321H39.732H39.7318H39.7316H39.7315H39.7313H39.7311H39.731H39.7308H39.7307H39.7305H39.7304H39.7302H39.73H39.7299H39.7297H39.7296H39.7294H39.7293H39.7291H39.729H39.7288H39.7287H39.7285H39.7284H39.7282H39.7281H39.7279H39.7278H39.7276H39.7275H39.7274H39.7272H39.7271H39.7269H39.7268H39.7266H39.7265H39.7264H39.7262H39.7261H39.7259H39.7258H39.7257H39.7255H39.7254H39.7253H39.7251H39.725H39.7248H39.7247H39.7246H39.7244H39.7243H39.7242H39.724H39.7239H39.7238H39.7237H39.7235H39.7234H39.7233H39.7231H39.723H39.7229H39.7228H39.7226H39.7225H39.7224H39.7223H39.7221H39.722H39.7219H39.7218H39.7216H39.7215H39.7214H39.7213H39.7211H39.721H39.7209H39.7208H39.7207H39.7205H39.7204H39.7203H39.7202H39.7201H39.72H39.7198H39.7197H39.7196H39.7195H39.7194H39.7193H39.7192H39.719H39.7189H39.7188H39.7187H39.7186H39.7185H39.7184H39.7183H39.7181H39.718H39.7179H39.7178H39.7177H39.7176H39.7175H39.7174H39.7173H39.7172H39.7171H39.717H39.7168H39.7167H39.7166H39.7165H39.7164H39.7163H39.7162H39.7161H39.716H39.7159H39.7158H39.7157H39.7156H39.7155H39.7154H39.7153H39.7152H39.7151H39.715H39.7149H39.7148H39.7147H39.7146H39.7145H39.7144H39.7143H39.7142H39.7141H39.714H39.7139H39.7138H39.7137H39.7136H39.7135H39.7134H39.7133H39.7132H39.7131H39.713H39.7129H39.7129H39.7128H39.7127H39.7126H39.7125H39.7124H39.7123H39.7122H39.7121H39.712H39.7119H39.7118H39.7117H39.7117H39.7116H39.7115H39.7114H39.7113H39.7112H39.7111H39.711H39.7109H39.7108H39.7107H39.7107H39.7106H39.7105H39.7104H39.7103H39.7102H39.7101H39.71H39.71H39.7099H39.7098H39.7097H39.7096H39.7095H39.7094H39.7093H39.7093H39.7092H39.7091H39.709H39.7089H39.7088H39.7087H39.7087H39.7086H39.7085H39.7084H39.7083H39.7082H39.7081H39.7081H39.708H39.7079H39.7078H39.7077H39.7076H39.7076H39.7075H39.7074H39.7073H39.7072H39.7071H39.707H39.707H39.7069H39.7068H39.7067H39.7066H39.7065H39.7065H39.7064H39.7063H39.7062H39.7061H39.7061H39.706H39.7059H39.7058H39.7057H39.7056H39.7056H39.7055H39.7054H39.7053H39.7052H39.7051H39.7051H39.705H39.7049H39.7048H39.7047H39.7046H39.7046H39.7045H39.7044H39.7043H39.7042H39.7042H39.7041H39.704H39.7039H39.7038H39.7037H39.7037H39.7036H39.7035H39.7034H39.7033H39.7032H39.7032H39.7031H39.703H39.7029H39.7028H39.7027H39.7027H39.7026H39.7025H39.7024H39.7023H39.7022H39.7022H39.7021H39.702H39.7019H39.7018H39.7017H39.7017H39.7016H39.7015H39.7014H39.7013H39.7012H39.7012H39.7011H39.701H39.7009H39.7008H39.7007H39.7006H39.7006H39.7005H39.7004H39.7003H39.7002H39.7001H39.7001H39.7H39.6999H39.6998H39.6997H39.6996H39.6995H39.6994H39.6994H39.6993H39.6992H39.6991H39.699H39.6989H39.6988H39.6987H39.6987H39.6986H39.6985H39.6984H39.6983H39.6982H39.6981H39.698H39.6979H39.6979H39.6978H39.6977H39.6976H39.6975H39.6974H39.6973H39.6972H39.6971H39.697H39.6969H39.6969H39.6968H39.6967H39.6966H39.6965H39.6964H39.6963H39.6962H39.6961H39.696H39.6959H39.6958H39.6957H39.6956H39.6955H39.6954H39.6953H39.6952H39.6952H39.6951H39.695H39.6949H39.6948H39.6947H39.6946H39.6945H39.6944H39.6943H39.6942H39.6941H39.694H39.6939H39.6938H39.6937H39.6936H39.6935H39.6934H39.6933H39.6932H39.6931H39.693H39.6928H39.6927H39.6926H39.6925H39.6924H39.6923H39.6922H39.6921H39.692H39.6919H39.6918H39.6917H39.6916H39.6915H39.6914H39.6913H39.6911H39.691H39.6909H39.6908H39.6907H39.6906H39.6905H39.6904H39.6903H39.6902H39.69H39.6899H39.6898H39.6897H39.6896H39.6895H39.6894H39.6892H39.6891H39.689H39.6889H39.6888H39.6887H39.6885H39.6884H39.6883H39.6882H39.6881H39.6879H39.6878H39.6877H39.6876H39.6875H39.6873H39.6872H39.6871H39.687H39.6868H39.6867H39.6866H39.6865H39.6863H39.6862H39.6861H39.686H39.6858H39.6857H39.6856H39.6854H39.6853H39.6852H39.685H39.6849H39.6848H39.6847H39.6845H39.6844H39.6842H39.6841H39.684H39.6838H39.6837H39.6836H39.6834H39.6833H39.6832H39.683H39.6829H39.6827H39.6826H39.6825H39.6823H39.6822H39.682H39.6819H39.6817H39.6816H39.6815H39.6813H39.6812H39.681H39.6809H39.6807H39.6806H39.6804H39.6803H39.6801H39.68H39.6798H39.6797H39.6795H39.6794H39.6792H39.6791H39.6789H39.6788H39.6786H39.6784H39.6783H39.6781H39.678H39.6778H39.6777H39.6775H39.6773H39.6772H39.677H39.6768H39.6767H39.6765H39.6764C39.5659 37.3344 39.4694 37.346 39.4132 37.3538C39.3617 37.3446 39.2871 37.3344 39.1982 37.3344H29.3545C28.6122 37.3344 28.0034 36.7449 27.9921 35.9931L28.1877 31.9989L26.2753 31.5432L22.9566 38.9963L22.7252 39.516L23.0536 39.9805L29.4091 48.9678C29.7937 49.6529 30.1831 50.6559 30.1037 51.7802L28.2246 64.5134L28.2233 64.5223L28.2221 64.5312C28.0182 66.1086 26.9053 66.825 25.9589 66.8412C25.4813 66.8493 25.056 66.6831 24.755 66.3723C24.4666 66.0746 24.212 65.56 24.2218 64.7154L26.1809 51.6735L26.2435 51.2564L25.9885 50.9204L20.0542 43.1017L18.7711 41.4112L18.2843 43.4768L19.2576 43.7063L18.2843 43.4769L18.2842 43.4772L18.2839 43.4784L18.2829 43.4829L18.2786 43.5008L18.2622 43.5707L18.1997 43.8359L17.9766 44.7826C17.7921 45.5662 17.5459 46.6113 17.2998 47.6573C17.0537 48.7032 16.8075 49.7503 16.6229 50.5378C16.5306 50.9314 16.4535 51.2606 16.3995 51.4924C16.3726 51.6082 16.3511 51.7005 16.3364 51.7647L16.3331 51.7791C16.2421 51.9851 16.1558 52.1278 16.0627 52.2339C16.0329 52.2571 15.9975 52.2853 15.9639 52.3121C15.8886 52.3722 15.7996 52.4434 15.7031 52.5173C15.6059 52.5919 15.5105 52.6619 15.4266 52.7181C15.3356 52.779 15.2964 52.7975 15.3004 52.796L4.24376 57.3586C3.24615 57.6469 2.54566 57.552 2.08453 57.3408C1.61565 57.126 1.29487 56.7468 1.12823 56.2903C0.777812 55.3303 1.14163 54.2252 2.09794 53.7958L12.3196 49.6679L12.8253 49.4636L12.9274 48.9278L11.9451 48.7406C12.9274 48.9278 12.9274 48.9278 12.9275 48.9277L12.9276 48.9272L12.9279 48.9253L12.9293 48.9179L12.9349 48.8885L12.9569 48.7735L13.0403 48.336L13.34 46.7657C13.5891 45.4611 13.924 43.7097 14.2667 41.9223C14.9277 38.4746 15.6121 34.925 15.7736 34.1566C15.7849 34.1313 15.8047 34.0882 15.8363 34.0224C15.8953 33.8998 15.9776 33.735 16.0817 33.5313C16.2892 33.1249 16.5741 32.5812 16.9115 31.9454C17.5856 30.6746 18.4619 29.0491 19.3316 27.445C20.2011 25.8414 21.0627 24.2612 21.7071 23.0819C22.0293 22.4922 22.2971 22.0028 22.4843 21.6609L22.7015 21.2645L22.7556 21.1658C23.7294 19.7418 25.3083 18.9077 27.0617 19.1325L27.0701 19.1336L27.0784 19.1345C27.5036 19.1817 28.0398 19.395 28.5694 19.753C29.0945 20.1081 29.5357 20.5536 29.8002 20.9769L29.8387 21.0385L29.8857 21.0939C30.485 21.8002 30.717 22.7612 30.717 23.4281V33.4125V34.4125H31.717H39.1139H39.1142H39.1145H39.1148H39.1152H39.1155H39.1158H39.1162H39.1165H39.1168H39.1172H39.1175H39.1179H39.1182H39.1185H39.1189H39.1192H39.1196H39.1199H39.1202H39.1206H39.1209H39.1213H39.1216H39.1219H39.1223H39.1226H39.123H39.1233H39.1237H39.124H39.1244H39.1247H39.1251H39.1254H39.1258H39.1261H39.1265H39.1268H39.1272H39.1275H39.1279H39.1283H39.1286H39.129H39.1293H39.1297H39.13H39.1304H39.1308H39.1311H39.1315H39.1318H39.1322H39.1326H39.1329H39.1333H39.1337H39.134H39.1344H39.1347H39.1351H39.1355H39.1358H39.1362H39.1366H39.137H39.1373H39.1377H39.1381H39.1384H39.1388H39.1392H39.1396H39.1399H39.1403H39.1407H39.141H39.1414H39.1418H39.1422H39.1426H39.1429H39.1433H39.1437H39.1441H39.1445H39.1448H39.1452H39.1456H39.146H39.1464H39.1467H39.1471H39.1475H39.1479H39.1483H39.1487H39.1491H39.1494H39.1498H39.1502H39.1506H39.151H39.1514H39.1518H39.1522H39.1526H39.1529H39.1533H39.1537H39.1541H39.1545H39.1549H39.1553H39.1557H39.1561H39.1565H39.1569H39.1573H39.1577H39.1581H39.1585H39.1589H39.1593H39.1597H39.1601H39.1605H39.1609H39.1613H39.1617H39.1621H39.1625H39.1629H39.1633H39.1637H39.1641H39.1645H39.1649H39.1653H39.1657H39.1661H39.1665H39.167H39.1674H39.1678H39.1682H39.1686H39.169H39.1694H39.1698H39.1702H39.1707H39.1711H39.1715H39.1719H39.1723H39.1727H39.1731H39.1736H39.174H39.1744H39.1748H39.1752H39.1756H39.1761H39.1765H39.1769H39.1773H39.1777H39.1782H39.1786H39.179H39.1794H39.1798H39.1803H39.1807H39.1811H39.1815H39.182H39.1824H39.1828H39.1832H39.1837H39.1841H39.1845H39.1849H39.1854H39.1858H39.1862H39.1867H39.1871H39.1875H39.188H39.1884H39.1888H39.1892H39.1897H39.1901H39.1905H39.191H39.1914H39.1918H39.1923H39.1927H39.1931H39.1936H39.194H39.1945H39.1949H39.1953H39.1958H39.1962H39.1966H39.1971H39.1975H39.198H39.1984H39.1988H39.1993H39.1997H39.2002H39.2006H39.201H39.2015H39.2019H39.2024H39.2028H39.2033H39.2037H39.2041H39.2046H39.205H39.2055H39.2059H39.2064H39.2068H39.2073H39.2077H39.2082H39.2086H39.209H39.2095H39.2099H39.2104H39.2108H39.2113H39.2117H39.2122H39.2126H39.2131H39.2136H39.214H39.2145H39.2149H39.2154H39.2158H39.2163H39.2167H39.2172H39.2176H39.2181H39.2185H39.219H39.2194H39.2199H39.2204H39.2208H39.2213H39.2217H39.2222H39.2226H39.2231H39.2236H39.224H39.2245H39.2249H39.2254H39.2259H39.2263H39.2268H39.2272H39.2277H39.2282H39.2286H39.2291H39.2295H39.23H39.2305H39.2309H39.2314H39.2319H39.2323H39.2328H39.2333H39.2337H39.2342H39.2346H39.2351H39.2356H39.236H39.2365H39.237H39.2374H39.2379H39.2384H39.2388H39.2393H39.2398H39.2402H39.2407H39.2412H39.2417H39.2421H39.2426H39.2431H39.2435H39.244H39.2445H39.2449H39.2454H39.2459H39.2464H39.2468H39.2473H39.2478H39.2482H39.2487H39.2492H39.2497H39.2501H39.2506H39.2511H39.2516H39.252H39.2525H39.253H39.2535H39.2539H39.2544H39.2549H39.2554H39.2558H39.2563H39.2568H39.2573H39.2577H39.2582H39.2587H39.2592H39.2597H39.2601H39.2606H39.2611H39.2616H39.2621H39.2625H39.263H39.2635H39.264H39.2644H39.2649H39.2654H39.2659H39.2664H39.2668H39.2673H39.2678H39.2683H39.2688H39.2693H39.2697H39.2702H39.2707H39.2712H39.2717H39.2721H39.2726H39.2731H39.2736H39.2741H39.2746H39.275H39.2755H39.276H39.2765H39.277H39.2775H39.278H39.2784H39.2789H39.2794H39.2799H39.2804H39.2809H39.2813H39.2818H39.2823H39.2828H39.2833H39.2838H39.2843H39.2848H39.2852H39.2857H39.2862H39.2867H39.2872H39.2877H39.2882H39.2887H39.2891H39.2896H39.2901H39.2906H39.2911H39.2916H39.2921H39.2926H39.293H39.2935H39.294H39.2945H39.295H39.2955H39.296H39.2965H39.297H39.2975H39.2979H39.2984H39.2989H39.2994H39.2999H39.3004H39.3009H39.3014H39.3019H39.3024H39.3028H39.3033H39.3038H39.3043H39.3048H39.3053H39.3058H39.3063H39.3068H39.3073H39.3078H39.3083H39.3087H39.3092H39.3097H39.3102H39.3107H39.3112H39.3117H39.3122H39.3127H39.3132H39.3137H39.3142H39.3147H39.3151H39.3156H39.3161H39.3166H39.3171H39.3176H39.3181H39.3186H39.3191H39.3196H39.3201H39.3206H39.3211H39.3216H39.3221H39.3225H39.323H39.3235H39.324H39.3245H39.325H39.3255H39.326H39.3265H39.327H39.3275H39.328H39.3285H39.329H39.3295H39.33H39.3305H39.3309H39.3314H39.3319H39.3324H39.3329H39.3334H39.3339H39.3344H39.3349H39.3354H39.3359H39.3364H39.3369H39.3374H39.3379H39.3384H39.3389H39.367C39.4271 34.4125 39.4631 34.4127 39.4943 34.4145C39.5005 34.4148 39.5053 34.4152 39.5089 34.4155L40.7326 34.7214V33.4406V22.4719C40.7326 15.2558 45.1873 9.40571 50.8344 8.14796L51.617 7.97365V7.17188C51.617 5.34463 52.9606 3.83511 54.7169 3.5461L55.4951 3.41804V3.42453L56.2526 3.61389C57.8429 4.01148 59.0107 5.44776 59.0107 7.14375ZM68.5045 58.6281H69.5037L69.5045 57.6289L69.5326 22.4727V22.4719C69.5326 14.8134 64.3257 8.28125 57.5357 8.28125H53.1201C46.3301 8.28125 41.1232 14.8134 41.1232 22.4719V57.6281V58.6281H42.1232H68.5045ZM63.3732 64.7438C63.3732 63.5804 64.3036 62.65 65.467 62.65C66.6303 62.65 67.5607 63.5804 67.5607 64.7438C67.5607 65.9071 66.6303 66.8375 65.467 66.8375C64.3036 66.8375 63.3732 65.9071 63.3732 64.7438ZM32.2795 9.35313C34.5678 9.35313 36.3982 11.1835 36.3982 13.4719C36.3982 15.7602 34.5678 17.5906 32.2795 17.5906C29.9911 17.5906 28.1607 15.7602 28.1607 13.4719C28.1607 11.1835 29.9911 9.35313 32.2795 9.35313ZM43.0951 64.7438C43.0951 63.5804 44.0255 62.65 45.1889 62.65C46.3522 62.65 47.2826 63.5804 47.2826 64.7438C47.2826 65.9071 46.3522 66.8375 45.1889 66.8375C44.0255 66.8375 43.0951 65.9071 43.0951 64.7438ZM46.1889 48.7281H64.467V54.5188H46.1889V48.7281Z" stroke="#058FA2" stroke-width="2"/>
<path d="M64.467 44.3094H54.1201V36.7188H57.4514H58.4514V36.5219H58.492H60.5732H60.6139V36.7188H61.6139H64.467V44.3094ZM51.2201 27.1281V44.2812H45.7951V27.1281H47.1576H48.1576V26.1281V24.85H48.8576V26.1281V27.1281H49.8576H51.2201ZM63.3732 64.7438C63.3732 63.5804 64.3036 62.65 65.467 62.65C66.6303 62.65 67.5607 63.5804 67.5607 64.7438C67.5607 65.9071 66.6303 66.8375 65.467 66.8375C64.3036 66.8375 63.3732 65.9071 63.3732 64.7438ZM32.2795 9.35313C34.5678 9.35313 36.3982 11.1835 36.3982 13.4719C36.3982 15.7602 34.5678 17.5906 32.2795 17.5906C29.9911 17.5906 28.1607 15.7602 28.1607 13.4719C28.1607 11.1835 29.9911 9.35313 32.2795 9.35313ZM43.0951 64.7438C43.0951 63.5804 44.0255 62.65 45.1889 62.65C46.3522 62.65 47.2826 63.5804 47.2826 64.7438C47.2826 65.9071 46.3522 66.8375 45.1889 66.8375C44.0255 66.8375 43.0951 65.9071 43.0951 64.7438ZM46.1889 48.7281H64.467V54.5188H46.1889V48.7281Z" stroke="#FDD304" stroke-width="2"/>
</svg>
