<svg width="105" height="80" viewBox="0 0 105 80" fill="none" xmlns="http://www.w3.org/2000/svg">
<path d="M17.7125 1.29952C16.3719 3.14985 14.0563 7.87846 13.0406 10.9623C11.2938 16.2666 11.0094 22.7633 12.3906 27.3686L12.9188 29.1778H10.075C5.64688 29.1778 5.6875 29.1367 5.6875 35.14C5.6875 39.5808 5.60625 40.2798 5.0375 40.2798C3.7375 40.2798 1.625 41.6367 0.8125 42.9525C0.040625 44.2271 0 44.9673 0 59.6466C0 74.2847 0.040625 75.1071 0.8125 76.3818C1.25938 77.1219 2.19375 78.0676 2.925 78.5199C4.225 79.3012 5.0375 79.3423 36.9688 79.3423C68.0875 79.3423 69.7531 79.3012 71.0938 78.561C73.8156 77.0808 74.1406 76.0117 74.2625 66.9656L74.3844 58.9064L77.9594 62.4837C82.225 66.76 85.9219 68.8982 88.4813 68.5693C89.8219 68.3637 93.7219 66.3077 100.994 61.9903C104.609 59.811 105.016 58.2897 103.553 51.5051C100.831 38.7995 93.3563 24.6137 82.9156 12.3193C76.9438 5.28801 75.075 3.84886 72.3125 4.21893C71.5 4.30116 68.3313 5.82254 65.2844 7.54951C62.2781 9.27649 59.5969 10.6745 59.3938 10.6745C59.15 10.6745 58.5 11.2502 57.9313 11.9081C56.9156 13.1416 56.8344 13.1827 55.1688 12.6893C52.5281 11.9903 48.7094 12.5248 43.3469 14.3752C35.0188 17.2946 30.7125 17.0068 26.7719 13.265C24.4563 11.0857 22.2219 6.85051 21.5312 3.39656C21.2469 2.08077 20.8406 0.764977 20.6375 0.47715C19.9063 -0.386337 18.7688 -0.0573883 17.7125 1.29952ZM19.0938 7.0561C19.0938 8.24854 21.5313 12.6893 23.2781 14.6219C24.2938 15.7732 26.2844 17.3357 27.7063 18.117C30.1844 19.4739 30.4281 19.515 34.7344 19.515C38.9188 19.515 39.5281 19.3916 44.0781 17.788C46.7594 16.8423 49.6844 15.9788 50.5781 15.8143C52.1219 15.5676 55.4125 16.061 55.9406 16.5956C56.0625 16.7189 56.3063 18.3637 56.5094 20.214C56.7938 23.2979 57.7688 27.9031 58.3375 28.8077C58.4594 29.0133 49.5219 29.1367 37.4969 29.0956L16.4531 28.9722L15.6813 26.7107C14.7063 23.7502 14.6656 17.5824 15.6 14.1696C16.9406 9.31761 19.0938 4.95906 19.0938 7.0561ZM76.5781 10.3456C85.9219 20.0495 94.7781 34.3176 98.475 45.6252C100.141 50.7239 101.278 56.1515 100.994 57.385C100.831 58.0018 99.6531 58.9064 97.3375 60.1811C95.4688 61.2091 93.8031 62.0725 93.6813 62.0725C93.5594 62.0725 93.4375 61.1679 93.4375 60.0577C93.4375 47.7633 79.5844 21.7354 68.6156 13.3883C67.1938 12.2781 66.0156 11.3324 66.0156 11.2091C66.0156 10.9212 72.5156 7.42616 73.125 7.38505C73.45 7.38505 74.9938 8.74196 76.5781 10.3456ZM65.7313 15.4854C72.0688 19.885 81.3313 33.2897 86.0031 44.8028C90.3906 55.617 91.4875 64.2107 88.5219 65.1564C87.425 65.5265 84.0531 63.5939 81.3313 61.0446C70.8906 51.2584 59.7188 29.1367 59.7188 18.1992C59.7188 13.1416 61.3438 12.4015 65.7313 15.4854ZM59.7188 33.2485C59.9219 33.7008 60.125 34.1531 60.125 34.2765C60.125 34.3999 48.6281 34.5232 34.5312 34.5232C9.99375 34.5232 8.9375 34.4821 8.9375 33.7831C8.9375 33.3719 9.05938 32.8785 9.22188 32.7551C9.34375 32.5906 20.6781 32.4673 34.3688 32.4673C58.5813 32.4673 59.3125 32.5084 59.7188 33.2485ZM62.075 38.7173C63.6188 40.2798 63.4969 40.2798 35.75 40.2798H8.9375V39.2518V38.2239H35.2625C55.2094 38.2239 61.7094 38.3472 62.075 38.7173ZM66.5438 47.1466C67.6813 49.1614 69.0625 51.3818 69.6313 52.163L70.6875 53.6022V64.1696C70.6875 74.6548 70.6875 74.7781 69.7938 75.3949C68.9813 75.9706 65.2031 76.0528 36.9688 76.0528C5.40312 76.0528 5.0375 76.0528 4.14375 75.2304C3.25 74.367 3.25 74.2847 3.25 59.811C3.25 45.7485 3.29062 45.1729 4.0625 44.3916C4.875 43.5693 5.40312 43.5693 34.6938 43.5693H64.5125L66.5438 47.1466Z" fill="#058FA2"/>
<path fill-rule="evenodd" clip-rule="evenodd" d="M70.2469 5.89724C69.2263 6.37428 66.8403 7.63544 64.9449 8.6999C63.0494 9.76437 61.0595 10.8325 60.5227 11.0737C59.9861 11.3149 58.974 12.0397 58.2736 12.6843L57 13.8565L57.0146 17.434C57.0292 21.02 57.5061 24.5652 58.3685 27.4971C58.6041 28.2979 58.822 29.1318 58.8533 29.3502C59.0036 30.4078 62.0438 38.2903 62.4958 38.7946C62.7798 39.1114 62.9362 39.4934 62.8431 39.6435C62.6682 39.9265 64.0268 42.5836 64.8221 43.5131C65.071 43.8042 66.0225 45.3529 66.936 46.9545C67.8496 48.5561 69.1173 50.6167 69.7533 51.5337C70.3893 52.4508 70.9097 53.422 70.9097 53.6923C70.9097 54.832 77.84 62.194 81.7171 65.1733C83.8535 66.8148 86.3898 67.9997 87.7672 68C89.0315 68.0003 92.2912 66.4802 97.4199 63.4983C102.37 60.6205 102.972 60.1596 103.582 58.7817C104.282 57.2023 104.108 54.5482 103.017 50.1312C99.5362 36.0472 90.6486 20.5488 79.3062 8.78382C75.3952 4.72715 73.8226 4.22602 70.2469 5.89724ZM70.0019 9.8377C68.2634 10.7481 66.7979 11.6214 66.7454 11.7787C66.6929 11.9359 67.7128 12.9122 69.0121 13.9481C71.9133 16.2618 74.2489 18.7534 77.2456 22.732C85.8052 34.0973 92.744 49.6356 93.3519 58.801C93.446 60.2207 93.6292 61.3821 93.7588 61.3821C94.3415 61.3821 99.0102 58.7446 100.005 57.8533C100.805 57.1362 100.791 55.4737 99.9535 51.8519C97.2441 40.1357 90.8035 27.7838 81.3886 16.2486C78.7005 12.9551 74.0275 8.16939 73.5074 8.17707C73.3178 8.17998 71.7405 8.9273 70.0019 9.8377ZM61.1375 14.9363C59.5423 16.9612 60.4453 23.712 63.38 31.7039C64.7238 35.3642 68.932 43.7606 71.355 47.6163C77.3227 57.1136 84.0272 63.9709 87.8452 64.4823C88.8271 64.6139 88.9443 64.5591 89.4498 63.7313C90.1826 62.531 90.186 59.0083 89.4581 55.5581C88.7754 52.3239 86.6978 46.2048 84.9638 42.3218C79.6816 30.4941 70.2623 17.978 64.4385 15.0488C62.5213 14.0844 61.8272 14.0606 61.1375 14.9363Z" fill="#FDD304"/>
</svg>
