<svg width="120" height="120" viewBox="0 0 120 120" fill="none" xmlns="http://www.w3.org/2000/svg">
<path d="M91.5025 94.5V42.8C91.5025 37.8139 89.1258 33.0321 84.8952 29.5064C80.6645 25.9807 74.9262 24 68.9434 24C62.9603 24 57.2223 25.9807 52.9916 29.5064C48.8899 32.9245 46.5308 37.5234 46.3906 42.3443" stroke="#058FA2" stroke-width="3" stroke-linecap="round" stroke-linejoin="round"/>
<path d="M29.4609 56.8998C29.4609 53.1601 31.2435 49.5738 34.4165 46.9296C37.5895 44.2853 41.893 42.7998 46.3804 42.7998C50.8677 42.7998 55.1713 44.2853 58.3443 46.9296C61.5173 49.5738 63.2999 53.1601 63.2999 56.8998H29.4609Z" stroke="#058FA2" stroke-width="3" stroke-linecap="round" stroke-linejoin="round"/>
<path d="M32.2808 66.3003L29.4609 73.3504" stroke="#FDC114" stroke-width="3" stroke-linecap="round" stroke-linejoin="round"/>
<path d="M23.8199 87.4497L21 94.4998" stroke="#FDC114" stroke-width="3" stroke-linecap="round" stroke-linejoin="round"/>
<path d="M60.4805 66.3003L63.3004 73.3504" stroke="#FDC114" stroke-width="3" stroke-linecap="round" stroke-linejoin="round"/>
<path d="M68.9414 87.4497L71.7613 94.4998" stroke="#FDC114" stroke-width="3" stroke-linecap="round" stroke-linejoin="round"/>
<path d="M46.375 66.3003V73.3504" stroke="#FDC114" stroke-width="3" stroke-linecap="round" stroke-linejoin="round"/>
<path d="M46.375 94.4998V87.4497" stroke="#FDC114" stroke-width="3" stroke-linecap="round" stroke-linejoin="round"/>
</svg>
