<svg width="136" height="136" viewBox="0 0 136 136" fill="none" xmlns="http://www.w3.org/2000/svg">
<g clip-path="url(#clip0_1088_8126)">
<path d="M30.3251 0.208099C19.9891 1.51259 11.2014 6.88321 5.64985 15.2791C1.8 21.0938 -0.166766 28.1436 0.0424652 35.3183C0.126158 38.191 0.446978 40.6334 1.86975 49.2653C6.22175 75.6604 9.49969 98.2808 10.5319 109.008C11.1875 115.989 11.5362 117.834 12.694 120.762C13.9772 123.968 15.6092 126.508 17.9666 128.95C20.296 131.337 22.6115 132.961 25.5128 134.21C31.0365 136.569 37.5924 136.569 43.1161 134.21C45.9616 132.989 48.04 131.545 50.4252 129.144C54.1216 125.439 56.479 120.776 57.3856 115.392C57.5112 114.698 57.7065 112.949 57.8181 111.506C58.4457 104.082 60.0917 91.7028 62.9093 73.2734C63.9694 66.3346 65.7828 54.955 67.0103 47.4612C67.345 45.435 67.7077 43.2563 67.8053 42.604C67.9867 41.4661 67.9867 41.4383 68.0983 41.9795C68.4888 43.9363 72.4921 69.1101 73.9288 78.7412C76.328 94.8252 77.5973 104.54 78.1832 111.367C78.4482 114.504 78.6016 115.572 79.048 117.404C81.0566 125.661 87.1104 132.433 94.6706 134.876C97.2092 135.695 98.8133 135.931 101.826 135.917C104.881 135.917 106.192 135.709 108.912 134.806C115.412 132.642 120.755 127.41 123.377 120.596C124.381 118.015 124.856 115.739 125.19 111.839C126.125 101.001 129.556 77.0481 134.187 48.9183C135.54 40.6889 135.875 38.1493 135.959 35.3599C136.363 21.6906 129.054 9.4228 116.989 3.5526C113.083 1.65137 109.819 0.707703 105.355 0.194229C103.054 -0.0833282 98.9528 -6.10352e-05 96.6652 0.346878C85.6736 2.03993 76.4535 8.50688 71.432 18.0408C70.0371 20.7052 68.7678 24.1469 68.2098 26.853L68.0285 27.6857L67.5124 25.7289C66.801 23.0089 66.1036 21.1077 64.9179 18.7485C62.5606 14.0024 59.199 9.97791 55.0423 6.88321C50.3136 3.37219 45.2503 1.24892 39.336 0.346878C37.2995 0.0276947 32.3477 -0.0417023 30.3251 0.208099ZM38.5688 2.16484C51.5411 3.74689 62.2956 13.1697 65.6154 25.8677C66.4244 28.9624 66.5918 30.4612 66.6057 34.3469C66.6057 38.3159 66.6057 38.2881 65.2109 46.8367C63.3557 58.1885 62.7141 62.2408 61.1657 72.2187C60.817 74.4253 60.5241 76.2432 60.5102 76.2571C60.4823 76.2848 59.8825 75.8824 59.185 75.3689C54.8609 72.2742 49.8394 69.8734 44.8457 68.5134C36.5323 66.2375 28.1212 66.6677 19.8775 69.7624C16.4601 71.053 12.1918 73.3289 9.31836 75.4244C8.17457 76.2571 8.09087 76.2987 8.03508 76.0073C7.99323 75.8408 7.8398 74.8555 7.68636 73.8285C6.91918 68.8187 5.30113 58.5216 4.11549 51.2775C2.45559 41.0775 2.10688 38.6212 1.98134 36.4008C1.26995 23.8832 7.19816 12.573 17.7294 6.36974C24.0064 2.67831 31.0505 1.24892 38.5688 2.16484ZM105.913 2.16484C113.097 3.01137 119.987 6.43912 125.093 11.7126C130.519 17.3191 133.671 24.6881 134.034 32.6122C134.201 36.4424 133.992 38.4824 132.374 48.3632C131.063 56.3706 130.086 62.4906 129.026 69.3183C128.496 72.8293 128.022 75.8408 127.98 76.0073C127.91 76.3126 127.855 76.2848 126.892 75.591C118.704 69.6097 108.661 66.515 99.4689 67.1534C91.016 67.7363 83.4976 70.5257 76.2722 75.7575C75.8258 76.0767 75.4632 76.3126 75.4632 76.271C75.4632 76.1877 73.5243 63.6563 73.0222 60.5755C72.8269 59.3542 72.5479 57.5779 72.3945 56.6065C72.241 55.6489 71.7389 52.5681 71.2786 49.7371C69.7163 40.342 69.4513 38.3297 69.3676 35.4571C69.2839 32.4734 69.4373 30.3363 69.9534 27.8106C72.1992 16.7363 79.6338 7.93791 90.1093 3.9828C95.103 2.09546 100.25 1.49872 105.913 2.16484ZM37.8156 69.1101C40.9819 69.4293 44.3436 70.1787 47.4123 71.275C49.128 71.8857 54.1495 74.2587 54.7912 74.7722L55.112 75.022L54.6238 79.1159C53.7032 86.8179 52.8523 95.8244 52.0991 105.886C51.4435 114.684 51.3598 115.295 50.5508 117.626C47.9703 125.12 41.6096 129.894 34.2308 129.894C29.7672 129.894 25.6802 128.131 22.4302 124.787C20.3797 122.677 18.9848 120.402 18.0642 117.64C17.1854 114.989 17.1994 115.086 16.3904 104.498C15.6092 94.3812 14.9397 87.2759 14.0051 79.2546C13.5867 75.7297 13.5309 75.022 13.6983 74.8693C14.2423 74.342 18.5664 72.2465 20.8261 71.4138C23.7832 70.3175 27.5633 69.4293 30.5483 69.124C32.25 68.9575 36.1417 68.9436 37.8156 69.1101ZM105.258 69.124C110.586 69.6514 115.984 71.3306 120.894 74.0089C122.707 74.9942 122.582 74.7167 122.261 77.1591C121.354 84.084 120.169 96.6848 119.332 108.245C118.927 113.935 118.746 115.184 117.993 117.46C117.142 120.041 115.789 122.414 114.101 124.26C110.712 127.993 106.527 129.894 101.743 129.894C93.7778 129.894 87.0964 124.329 84.9623 115.947C84.5717 114.379 84.4322 113.171 84.1114 108.592C83.3303 97.6285 82.3538 87.1371 81.3216 78.4775L80.9032 75.0081L81.2101 74.7722C81.8238 74.3004 85.6457 72.4269 87.3475 71.7608C90.9184 70.3591 94.4334 69.4848 97.9904 69.124C99.6503 68.9575 103.528 68.9575 105.258 69.124ZM11.7733 76.5624C11.8152 76.7844 12.1081 79.1714 12.415 81.8775C13.2658 89.4546 14.312 101.32 14.9257 110.188C15.2884 115.447 15.8464 117.862 17.4784 121.082C19.2498 124.593 21.9838 127.535 25.2757 129.436C27.0332 130.463 29.6835 131.337 31.9432 131.629C33.8402 131.892 34.984 131.892 36.7834 131.615C38.8896 131.309 40.438 130.824 42.335 129.894C47.0636 127.562 50.7321 123.219 52.4199 117.959C53.2289 115.433 53.3405 114.67 53.8427 107.898C54.5959 97.7395 55.4468 88.3028 56.2279 81.5999C56.3813 80.2677 56.5766 78.5746 56.6603 77.8252C56.744 77.0897 56.8556 76.4097 56.9114 76.3126C56.9951 76.1877 57.288 76.3265 57.9854 76.8122C59.4361 77.8391 60.2451 78.5469 60.1893 78.7273C60.1475 78.8244 59.5895 82.613 58.9479 87.151C57.274 98.7803 56.3534 106.316 55.7955 112.894C55.0562 121.526 50.2718 128.742 42.9906 132.197C38.3735 134.39 32.808 134.709 27.8283 133.072C20.5471 130.671 14.8978 124.079 13.2519 116.03C13.0985 115.267 12.8474 113.282 12.694 111.617C11.9965 104.082 10.9783 96.102 8.9557 82.1967L8.4117 78.5469L8.77436 78.2138C9.24862 77.7836 11.4525 76.1877 11.592 76.1877C11.6478 76.1877 11.7315 76.3542 11.7733 76.5624ZM79.2572 77.1036C80.1499 84.0979 81.3216 96.3379 82.0749 106.718C82.2701 109.355 82.4654 112.006 82.5212 112.616C82.9118 117.682 85.0041 122.497 88.3378 125.953C91.1136 128.853 94.28 130.629 98.1019 131.448C99.985 131.837 103.277 131.878 105.034 131.517C112.971 129.866 118.788 123.802 120.504 115.364C120.685 114.504 120.936 112.103 121.145 109.189C121.926 98.5722 122.903 87.8587 123.795 80.1428C124.214 76.5069 124.256 76.1877 124.423 76.1877C124.493 76.1877 125.19 76.6734 125.985 77.2563C126.767 77.853 127.464 78.3665 127.52 78.4081C127.562 78.4497 127.143 81.6693 126.585 85.555C124.953 96.8375 124.144 103.11 123.586 108.869C122.959 115.517 122.694 117.057 121.689 119.735C120.531 122.858 118.816 125.481 116.333 127.965C113.906 130.38 111.702 131.809 108.661 132.905C103.11 134.917 96.7629 134.376 91.6018 131.462C86.8732 128.797 83.2326 124.273 81.4053 118.792C80.7358 116.78 80.3871 114.92 80.136 111.95C79.5781 105.455 77.4439 88.8579 76.0909 80.4203C75.7561 78.3665 75.6724 78.5608 77.3881 77.2979C78.2111 76.6873 78.9504 76.2155 79.0201 76.2293C79.1038 76.2571 79.2014 76.6457 79.2572 77.1036Z" fill="#058FA2"/>
<path d="M33.1287 47.5445C31.0504 47.8498 28.8186 48.5714 26.9216 49.5706C25.3314 50.4032 24.9688 50.7085 24.9688 51.2359C24.9688 51.6939 25.4012 52.1796 25.8336 52.1796C25.987 52.1796 26.6007 51.902 27.1866 51.569C29.8508 50.0424 32.4732 49.3069 34.8444 49.4457C36.6717 49.5428 38.2758 50.0285 40.6611 51.2081C41.7351 51.7494 42.7255 52.1796 42.8371 52.1796C43.13 52.1796 43.66 51.5967 43.66 51.2914C43.66 50.8196 43.3532 50.5143 42.2931 49.8898C40.9819 49.1265 38.778 48.2522 37.2436 47.8914C36.0998 47.6139 33.9099 47.4334 33.1287 47.5445Z" fill="#058FA2"/>
<path d="M30.9676 56.1347C27.2015 56.7314 23.1145 58.1747 19.1531 60.3257C16.9352 61.533 16.5586 61.8383 16.5586 62.449C16.5586 63.4343 17.4095 63.5314 18.7764 62.6988C21.1756 61.2555 25.165 59.5208 27.9686 58.7159C33.4505 57.1477 38.1791 57.5363 44.5258 60.0759C45.8927 60.6171 48.6685 61.991 49.8681 62.7265C51.2212 63.5592 52.0302 63.4204 52.0302 62.3657C52.0302 61.9216 51.9465 61.8383 51.0817 61.2832C48.2361 59.4375 43.7307 57.5363 40.2435 56.6759C37.2166 55.9404 33.6039 55.7322 30.9676 56.1347Z" fill="#058FA2"/>
<path d="M100.179 47.6C98.2123 47.8775 95.5341 48.8351 93.6092 49.9453C92.6188 50.5281 92.3398 50.8196 92.3398 51.3192C92.3398 51.6106 92.8838 52.1796 93.1768 52.1796C93.2884 52.1796 94.2648 51.7494 95.3388 51.2081C99.9 48.9461 102.801 48.8351 107.195 50.7502C107.809 51.0139 108.66 51.4441 109.092 51.7077C109.999 52.249 110.362 52.2906 110.752 51.902C111.185 51.4718 111.115 50.889 110.585 50.4449C110.069 50.0008 107.418 48.7241 106.163 48.3077C104.196 47.6416 101.867 47.3641 100.179 47.6Z" fill="#058FA2"/>
<path d="M98.4096 56.1347C94.7969 56.6759 90.0961 58.3412 86.5671 60.3118C84.2516 61.6163 83.9727 61.8384 83.9727 62.3657C83.9727 62.9069 84.3353 63.2816 84.8375 63.2816C85.0467 63.2816 85.7023 62.9902 86.3021 62.6294C87.9899 61.6302 91.4073 60.0481 93.2207 59.4098C99.1768 57.342 103.571 57.2449 109.15 59.0628C111.814 59.9232 115.162 61.4359 117.38 62.782C118.538 63.4759 119.263 63.4204 119.458 62.6432C119.612 62.0743 119.249 61.6996 117.784 60.8392C114.283 58.7853 109.931 57.0922 106.151 56.3151C104.394 55.9543 100.209 55.8571 98.4096 56.1347Z" fill="#058FA2"/>
</g>
<defs>
<clipPath id="clip0_1088_8126">
<rect width="136" height="136" fill="white"/>
</clipPath>
</defs>
</svg>
