<svg width="142" height="142" viewBox="0 0 142 142" fill="none" xmlns="http://www.w3.org/2000/svg">
<path d="M64.4759 21.0282C63.0257 22.5993 63.207 24.4724 64.9593 25.8622C65.8053 26.5269 66.47 27.4937 66.47 27.9771C66.47 28.7627 64.9593 28.9439 56.6206 29.1252C46.8317 29.3065 46.7713 29.3065 42.6019 31.361C33.2359 36.0137 26.71 45.138 24.5347 56.8001C23.87 60.2444 23.6283 60.7278 22.4198 60.7278C21.6342 60.7278 20.7278 61.1507 20.3653 61.6946C19.5193 63.0239 22.8427 68.4018 25.0785 69.3686C26.1057 69.852 31.0002 70.0937 39.3389 70.0937H52.0887L51.6657 72.0273C50.6385 77.0427 49.9134 78.795 47.3151 82.6018C45.1398 85.7439 44.2938 87.6776 43.6896 90.8801C43.2666 93.1763 42.7832 95.1703 42.6623 95.3516C42.5415 95.4724 41.6955 95.1099 40.8496 94.5661C40.0036 93.9618 38.8555 93.7201 38.1304 93.9618C36.4385 94.5056 31.3023 101.455 31.7253 102.663C31.9066 103.328 30.3959 105.564 27.4955 109.068C25.0181 112.089 22.9636 114.869 22.9636 115.232C22.9636 117.165 25.0785 115.594 29.3083 110.579L33.961 105.141L37.3449 107.981C49.6717 118.374 53.4785 121.758 53.4181 122.362C53.3576 122.724 51.4844 125.323 49.1883 128.042C46.8921 130.821 45.0189 133.359 45.0189 133.722C45.0189 135.595 46.8317 134.266 51.001 129.432C54.2036 125.685 56.1372 123.933 57.2853 123.691C58.4334 123.449 59.944 122.12 61.8776 119.643C64.4759 116.319 64.7176 115.775 64.1134 114.446C63.7508 113.661 63.207 112.996 62.8444 112.996C60.9108 112.996 63.2674 110.821 71.0019 105.503C75.8359 102.24 80.1262 98.9771 80.5491 98.252C80.9721 97.5269 82.7245 93.9618 84.4164 90.3363C87.0147 84.7771 87.6793 82.6018 88.4649 77.1635C89.0087 73.5984 89.4317 70.5167 89.4317 70.3959C89.4317 70.2146 94.9908 70.0937 101.819 70.0937C109.856 70.0937 114.69 69.852 115.717 69.3686C117.953 68.4018 121.276 63.0239 120.43 61.6946C120.067 61.1507 119.161 60.7278 118.376 60.7278C117.107 60.7278 116.865 60.3048 116.502 57.8273C114.931 46.6486 107.741 36.0741 98.6164 31.6027L94.024 29.3065L84.1747 29.1252C75.8359 28.9439 74.3253 28.7627 74.3253 27.9771C74.3253 27.4937 74.99 26.5269 75.8359 25.8622C77.5883 24.4724 77.7696 22.3576 76.2589 20.9678C74.567 19.4571 65.8657 19.5176 64.4759 21.0282ZM74.9296 23.2639C74.9296 23.989 74.0232 24.1703 70.3976 24.1703C66.7721 24.1703 65.8657 23.989 65.8657 23.2639C65.8657 22.5388 66.7721 22.3576 70.3976 22.3576C74.0232 22.3576 74.9296 22.5388 74.9296 23.2639ZM71.9083 27.7958C71.9083 28.7022 71.4853 29.0044 70.3976 29.0044C69.31 29.0044 68.887 28.7022 68.887 27.7958C68.887 26.8895 69.31 26.5873 70.3976 26.5873C71.4853 26.5873 71.9083 26.8895 71.9083 27.7958ZM97.7704 33.7176C104.659 37.2827 109.856 43.8086 112.696 52.2682C113.602 54.8061 114.206 57.7065 114.085 58.6733L113.904 60.4256H70.3976H26.8913L26.71 58.6733C26.4683 56.2563 29.1874 48.2801 31.6044 44.5337C35.4717 38.5516 41.333 33.778 47.1338 31.9652C47.9798 31.7235 58.8564 31.5422 71.304 31.6027L93.9636 31.7235L97.7704 33.7176ZM117.469 63.3261C117.59 63.5678 117.046 64.6554 116.261 65.7431L114.75 67.6767H70.3976H26.0453L24.5347 65.7431C23.7491 64.6554 23.2053 63.5678 23.3261 63.3261C23.7491 62.7218 117.046 62.7218 117.469 63.3261ZM59.4606 76.8614C59.2793 80.6078 59.0376 84.052 58.8564 84.475C58.4334 85.8648 59.7627 88.2214 61.7568 89.4903C63.3279 90.4571 64.4759 90.6384 67.2555 90.4571C70.7602 90.2758 70.8206 90.2154 75.3525 85.6231C79.824 81.212 80.0657 80.8495 81.5159 75.7133C83.0266 70.5167 83.1474 70.3958 85.081 70.2146C87.3168 69.9729 87.2564 69.6103 86.1083 77.2239C84.9602 85.0188 79.9449 96.1371 76.3193 98.9167C72.2104 102.119 60.5483 109.975 59.944 109.975C59.5815 109.975 56.0164 107.195 52.0283 103.872C46.8317 99.521 44.7772 97.4665 44.9585 96.7414C45.1398 96.1976 45.5627 94.0222 45.8649 91.9073C46.3483 88.8256 47.1338 87.1337 49.43 83.629C51.7261 80.3056 52.693 78.1907 53.4181 74.6861L54.4453 70.0937H57.1644H59.8232L59.4606 76.8614ZM73.721 75.0486C72.6334 79.8827 70.5185 85.8648 69.31 87.4359C68.3432 88.7048 63.63 88.4027 62.2402 87.0129C60.9108 85.6835 60.9108 84.052 61.9985 73.2359L62.3006 70.0937H68.5849H74.8087L73.721 75.0486ZM80.3679 70.698C80.3679 71.0605 79.824 73.2963 79.1593 75.6529C78.3134 78.6741 77.3466 80.6078 76.0172 81.9976C73.7815 84.2937 73.4189 84.2333 74.3253 81.8163C74.6879 80.8495 75.413 78.1907 75.8964 75.8341C76.3798 73.538 76.8632 71.2418 77.0444 70.8188C77.3466 69.9729 80.3679 69.7916 80.3679 70.698ZM51.2427 106.228L62.2402 115.534L59.7627 118.495C57.6479 121.032 57.1644 121.335 56.2581 120.67C52.8138 118.192 34.4444 102.421 34.4444 101.938C34.4444 100.729 38.7951 96.0767 39.4598 96.4997C39.8827 96.7414 45.1398 101.092 51.2427 106.228Z" fill="#058FA2"/>
<path d="M76.5 23.5C76.5 24.0039 76.1936 24.705 75.1939 25.3714C74.2082 26.0286 72.7313 26.5 71 26.5C69.2687 26.5 67.7918 26.0286 66.8061 25.3714C65.8064 24.705 65.5 24.0039 65.5 23.5C65.5 22.9961 65.8064 22.295 66.8061 21.6286C67.7918 20.9714 69.2687 20.5 71 20.5C72.7313 20.5 74.2082 20.9714 75.1939 21.6286C76.1936 22.295 76.5 22.9961 76.5 23.5Z" stroke="#FDD304" stroke-width="4"/>
<path fill-rule="evenodd" clip-rule="evenodd" d="M67.661 20.6705C66.1765 20.9447 66.0215 21.0197 66.0215 21.4641C66.0215 22.1401 66.853 22.28 70.8731 22.28C73.9547 22.28 74.492 22.2247 74.8466 21.872C75.22 21.5004 75.2235 21.4312 74.8869 21.0962C74.5965 20.8071 73.8446 20.7106 71.3818 20.6453C69.6575 20.5996 67.9831 20.6111 67.661 20.6705ZM36.6995 94.0779C35.4338 94.9339 32.3323 98.8327 31.2577 100.918C31.038 101.345 30.8101 102.091 30.7513 102.576C30.652 103.397 30.7227 103.523 31.757 104.365C32.3688 104.864 32.9396 105.249 33.0255 105.222C33.1717 105.175 43.731 113.974 47.8695 117.591C50.9633 120.295 52.9052 122.254 52.9052 122.67C52.9052 122.886 53.4284 123.498 54.0678 124.031L55.2303 125L56.9593 124.183C58.3229 123.539 59.0415 122.99 60.3602 121.585C62.4086 119.402 64.3819 116.517 64.3819 115.705C64.3819 114.822 63.2874 113.081 62.7326 113.081C62.4803 113.081 62.274 112.947 62.274 112.783C62.274 112.484 58.971 109.65 52.8007 104.653C51.0042 103.198 48.3152 100.854 46.8253 99.4437C43.3485 96.1524 42.373 95.3787 40.3976 94.3448C38.4899 93.3466 37.8493 93.3002 36.6995 94.0779ZM37.5233 96.9938C36.4135 97.806 34.5074 100.036 33.9701 101.15L33.5973 101.923L34.4487 102.665C34.9169 103.073 37.601 105.417 40.4135 107.875C46.04 112.791 54.2334 119.635 55.716 120.658C56.978 121.529 57.297 121.362 59.5893 118.638C60.5967 117.441 61.5664 116.289 61.7446 116.078C62.0341 115.735 61.2085 114.971 53.9149 108.839C43.9465 100.459 38.881 96.2965 38.6503 96.2965C38.5543 96.2965 38.0472 96.6103 37.5233 96.9938Z" fill="#FDD304"/>
</svg>
