<svg width="181" height="148" viewBox="0 0 181 148" fill="none" xmlns="http://www.w3.org/2000/svg">
<path d="M83.6131 8.90473C78.3356 10.1415 73.388 13.9343 71.7388 17.8507C70.9142 19.8295 70.6256 20.0769 68.1518 21.19C62.5033 23.746 59.6172 27.7861 59.6172 33.1042C59.6172 35.7426 59.7821 36.2373 62.091 40.7309C64.3999 45.2245 64.6473 45.5543 65.8017 45.5543C66.6263 45.5543 67.0386 45.307 67.1211 44.8123C67.2035 44.4 66.214 41.9677 64.9359 39.4529C62.6682 35.0006 62.5858 34.7532 62.7919 32.3209C63.1217 28.1983 64.7297 26.3432 70.2958 23.6223C73.3468 22.1382 73.5529 21.9733 74.1714 20.0769C75.4083 16.3666 78.2532 13.9343 83.242 12.2852C90.2924 9.93537 99.1568 11.7081 103.651 16.3253C104.97 17.6858 105.341 18.3866 106.207 21.1487C106.496 22.0557 107.114 22.5504 108.64 23.21C112.639 24.859 115.154 26.8379 116.391 29.2702C118.04 32.4446 117.793 34.4646 115.278 39.8239C113.093 44.4412 113.01 45.4719 114.742 45.678C115.814 45.8017 116.02 45.5543 118.04 41.3493C120.143 36.9794 120.184 36.8145 120.184 33.1866C120.184 30.1772 120.019 29.1465 119.277 27.8273C117.958 25.3125 115.69 23.2925 112.144 21.4785C109.712 20.2006 108.887 19.5409 108.681 18.7164C107.609 14.5526 102.167 10.3476 95.9821 8.8635C92.7662 8.12144 86.7466 8.12144 83.6131 8.90473Z" fill="#058FA2"/>
<path d="M35.9106 19.7471C35.1685 20.2418 34.8386 23.581 35.4571 24.6941C35.7869 25.3537 36.2404 25.5599 37.0238 25.4774C38.0546 25.3537 38.137 25.2301 38.2607 22.9627C38.4256 19.8707 37.5598 18.7164 35.9106 19.7471Z" fill="#FDC114"/>
<path d="M28.1604 26.2608C27.5007 26.5081 27.4595 28.1159 28.1192 28.7756C28.7788 29.4352 33.0668 29.4352 33.7264 28.7756C34.4274 28.0747 34.3449 26.5081 33.5615 26.2196C32.8194 25.931 28.9025 25.931 28.1604 26.2608Z" fill="#FDC114"/>
<path d="M39.9093 26.4257C38.9198 26.9616 38.9611 28.3221 39.9506 28.858C40.4041 29.0641 41.641 29.2703 42.6718 29.2703C44.9806 29.2703 46.1763 28.6931 46.1763 27.6212C46.1763 27.1678 45.8052 26.6318 45.3929 26.3845C44.3622 25.8485 40.8164 25.8485 39.9093 26.4257Z" fill="#FDC114"/>
<path d="M35.4989 30.4657C34.3032 32.6919 35.7463 36.6083 37.3955 35.6189C37.9727 35.2479 38.1376 34.6295 38.1376 32.527C38.1376 29.971 38.0964 29.8885 37.0244 29.7649C36.2823 29.6824 35.7875 29.8885 35.4989 30.4657Z" fill="#FDC114"/>
<path d="M88.7247 30.878C88.5598 31.3315 88.5185 33.6814 88.6422 36.1549C88.8072 40.0301 88.9308 40.6073 89.5905 40.7309C91.1573 41.0607 91.5283 40.1126 91.5283 35.6602C91.5283 33.3103 91.4046 31.1254 91.281 30.7543C90.9099 29.8061 89.0958 29.9298 88.7247 30.878Z" fill="#058FA2"/>
<path d="M73.3056 30.9605C70.7905 32.4034 74.7486 38.175 80.191 40.9371C82.9534 42.3388 84.0254 39.5354 81.3042 38.0101C78.8304 36.6496 75.9855 33.9287 75.6557 32.692C75.3671 31.4964 74.7074 30.507 74.2539 30.507C74.1302 30.507 73.6766 30.7131 73.3056 30.9605Z" fill="#058FA2"/>
<path d="M105.383 31.1665C105.012 31.4963 104.723 32.1147 104.723 32.527C104.723 33.4752 102.167 36.0312 99.4869 37.8039C97.1368 39.288 96.6832 40.4423 98.1675 41.2256C98.8272 41.5966 99.3632 41.4729 100.889 40.566C106.166 37.4741 109.341 32.4033 107.032 30.8367C106.372 30.3833 106.084 30.4245 105.383 31.1665Z" fill="#058FA2"/>
<path d="M68.6455 45.1009C65.2234 46.585 64.6461 52.068 67.6559 54.5828L68.9341 55.6547H90.1263H111.319L112.597 54.5003C113.71 53.5109 113.957 52.975 114.122 50.9137C114.287 49.0998 114.122 48.1516 113.586 47.1622C112.143 44.5237 112.349 44.5237 90.0026 44.5237C74.2115 44.565 69.5937 44.6886 68.6455 45.1009ZM110.906 48.6051C111.525 49.8006 111.401 51.1611 110.618 52.0268C109.999 52.7276 108.804 52.7689 90.0439 52.7689C72.5211 52.7689 70.0885 52.6864 69.5113 52.1093C68.7279 51.3672 68.6455 49.0173 69.3464 48.3165C69.7174 47.9455 74.9124 47.8218 90.1676 47.8218C109.793 47.8218 110.494 47.863 110.906 48.6051Z" fill="#058FA2"/>
<path d="M69.5525 59.5711C68.5629 60.5605 67.862 63.1989 68.1919 64.848C68.5629 66.868 70.0472 68.9293 71.8613 69.8775C73.1807 70.5783 73.4281 70.9906 73.8404 72.8869C74.5413 76.2262 77.18 81.1321 79.6538 83.6056C80.8495 84.8012 82.9935 86.3677 84.4365 87.0686C86.6217 88.1404 87.5288 88.3466 90.0026 88.3466C92.5588 88.3466 93.4247 88.1404 95.6923 87.0273C101.176 84.3477 104.928 79.0296 106.536 71.6502C106.701 70.9081 107.278 70.2897 108.267 69.8363C111.112 68.4758 112.679 64.6831 111.607 61.6736C110.865 59.5298 109.711 58.7466 108.639 59.5298C107.896 60.0658 107.896 60.2719 108.35 61.5087C109.422 64.5594 108.721 66.2496 105.752 67.5688C104.351 68.1872 103.856 68.6407 103.691 69.5477C102.413 75.6491 101.052 78.6173 98.0837 81.5856C95.7748 83.8942 93.5896 84.9661 90.6623 85.2134C88.7244 85.4195 87.9411 85.2546 86.0033 84.3889C81.5504 82.3276 77.5923 76.8446 76.7677 71.609C76.3967 69.3003 75.4071 67.6101 74.3764 67.6101C74.0878 67.6101 73.2632 67.1154 72.5623 66.497C71.3666 65.5076 71.2841 65.2602 71.4903 63.5287C72.0263 59.4886 71.985 59.1588 71.078 59.0351C70.5832 58.9527 69.8823 59.2 69.5525 59.5711Z" fill="#058FA2"/>
<path d="M148.054 67.3215C147.807 67.6513 147.601 68.8469 147.56 70.0424C147.436 72.6396 148.219 73.7527 149.621 73.0106C150.363 72.5984 150.487 72.1449 150.487 70.0836C150.487 68.1048 150.322 67.5689 149.704 67.1978C148.673 66.6619 148.632 66.6619 148.054 67.3215Z" fill="#FDC114"/>
<path d="M68.4401 73.1755C68.0278 73.6702 68.069 74.0824 68.605 75.1955C69.3884 76.8446 69.1823 77.5866 67.3681 79.6479C65.6777 81.5443 65.3066 82.9047 65.9251 84.8836C66.9558 88.429 69.2235 90.3666 70.5016 88.8412C70.9964 88.2228 70.9139 87.8518 69.9656 86.1616C68.4813 83.5643 68.5638 82.7811 70.4192 80.761C71.821 79.1944 71.9447 78.8234 71.9447 76.6797C71.9447 74.907 71.7385 74.0824 71.1613 73.4228C70.2542 72.3922 69.141 72.3097 68.4401 73.1755Z" fill="#058FA2"/>
<path d="M140.263 73.8763C139.562 74.5772 139.645 76.1438 140.428 76.4323C140.799 76.556 141.954 76.6797 143.067 76.6797C145.664 76.6797 146.365 76.3911 146.365 75.278C146.365 73.8351 145.541 73.3816 143.067 73.3816C141.789 73.3816 140.552 73.5878 140.263 73.8763Z" fill="#FDC114"/>
<path d="M151.973 74.0412C150.407 75.6078 151.561 76.6797 154.818 76.6797C156.22 76.6797 157.539 76.4736 157.828 76.185C158.57 75.4429 158.405 74.2886 157.539 73.7939C156.261 73.1343 152.715 73.2992 151.973 74.0412Z" fill="#FDC114"/>
<path d="M108.846 74.3711C107.444 76.0613 106.785 82.3276 107.65 85.4607C108.228 87.522 110.248 89.7482 111.98 90.2429C115.567 91.2323 118.989 88.3878 118.164 85.0897C117.793 83.6468 116.103 82.039 114.907 82.039C112.928 82.039 112.227 84.224 114 84.9248C114.618 85.1722 115.031 85.6256 115.031 86.1616C115.031 87.9343 112.103 87.6869 111.196 85.8318C110.166 83.8529 110.042 81.8329 110.743 78.3699C111.279 75.6903 111.32 74.907 110.908 74.4123C110.248 73.629 109.506 73.629 108.846 74.3711Z" fill="#058FA2"/>
<path d="M147.601 78.1226C147.354 78.7822 147.313 80.019 147.519 81.1321C147.766 82.6574 148.013 83.1109 148.673 83.1933C150.034 83.3995 150.529 82.3688 150.405 79.6892C150.281 77.4218 150.24 77.2981 149.168 77.1744C148.261 77.0507 147.931 77.2568 147.601 78.1226Z" fill="#FDC114"/>
<path d="M31.6206 85.1722C31.4557 85.3371 31.332 86.5327 31.332 87.8107C31.332 90.4079 31.9505 91.3561 33.3935 90.9026C34.1769 90.6552 34.2594 90.3667 34.1357 87.8931C34.012 85.2959 33.9708 85.131 32.9812 85.0073C32.404 84.9249 31.7856 85.0073 31.6206 85.1722Z" fill="#FDC114"/>
<path d="M77.0973 91.4797C76.8911 91.9332 76.685 93.2524 76.685 94.4067C76.685 95.561 76.5201 96.839 76.2727 97.2513C76.0253 97.7048 71.3663 99.9722 64.4397 102.899C54.0909 107.352 52.8128 108.011 50.6276 109.99C49.267 111.268 47.8239 113.123 47.2467 114.319C46.6695 115.514 45.2677 120.255 44.1132 124.872C41.928 133.777 41.928 134.396 43.9483 134.396C45.0203 134.396 44.7729 135.096 47.4116 124.501C49.4319 116.256 49.9679 115.02 52.3593 112.546C54.0085 110.856 55.3691 110.155 65.5941 105.826C77.1798 100.879 78.6228 100.055 79.5299 97.5811C80.1483 96.0145 80.1071 91.8095 79.4886 91.1911C78.7465 90.4491 77.5921 90.614 77.0973 91.4797Z" fill="#058FA2"/>
<path d="M100.723 90.9438C100.352 91.1087 100.188 92.1393 100.188 94.0769C100.188 96.468 100.394 97.3337 101.218 98.7354C102.331 100.632 101.507 100.22 117.092 106.939C125.791 110.691 128.306 112.381 129.956 115.597C130.45 116.504 131.77 121.08 132.924 125.738L135.027 134.189H136.264C137.253 134.189 137.542 133.983 137.624 133.2C137.831 131.798 134.037 116.792 132.924 114.525C131.687 112.093 129.832 109.949 127.647 108.465C126.698 107.846 121.215 105.332 115.443 102.858C109.67 100.426 104.558 98.0758 104.146 97.6635C103.527 97.0864 103.28 96.1382 103.115 93.912C102.909 91.2736 102.744 90.9025 102.043 90.8201C101.589 90.7789 100.971 90.8613 100.723 90.9438Z" fill="#058FA2"/>
<path d="M23.7059 92.3455C23.2523 93.8296 24.2006 94.4067 27.0043 94.4067C29.8079 94.4067 30.7562 93.8296 30.3027 92.3455C30.0553 91.6034 29.6842 91.5209 27.0043 91.5209C24.3243 91.5209 23.9532 91.6034 23.7059 92.3455Z" fill="#FDC114"/>
<path d="M35.6215 92.0981C35.4978 92.4279 35.4565 93.0462 35.539 93.4585C35.6627 94.0769 36.1162 94.2006 38.7549 94.2006H41.8472V92.9638V91.727L38.8374 91.6033C36.4873 91.5209 35.7864 91.6033 35.6215 92.0981Z" fill="#FDC114"/>
<path d="M31.8268 95.3137C31.5794 95.561 31.332 96.7566 31.332 97.9521C31.332 100.22 31.9505 101.168 33.2698 100.92C33.8883 100.797 34.012 100.343 34.012 97.9109C34.012 95.3137 33.9295 95.0251 33.1874 94.9014C32.7339 94.8602 32.1154 95.0251 31.8268 95.3137Z" fill="#FDC114"/>
<path d="M82.871 114.484C81.8403 114.566 79.0779 114.896 76.6453 115.226C66.9975 116.504 64.0289 117.782 62.2972 121.327C61.4726 123.017 61.4314 123.677 61.5139 131.345L61.6375 139.549H62.8744H64.1114L64.3175 131.427C64.5237 124.089 64.6061 123.223 65.3895 122.152C66.6264 120.42 68.4817 119.719 74.2127 118.647C78.7068 117.864 80.7683 117.74 90.0863 117.74C99.4868 117.699 101.425 117.823 105.96 118.647C115.319 120.379 115.566 120.709 115.855 131.716L116.061 139.549H117.298H118.535L118.659 131.922C118.782 123.43 118.535 121.945 116.597 119.719C114.742 117.617 112.804 116.792 107.527 115.844C99.2806 114.401 90.3337 113.906 82.871 114.484Z" fill="#058FA2"/>
<path d="M91.3223 131.84C87.9002 135.138 85.6325 136.663 81.963 138.065C81.0972 138.394 80.8086 138.765 80.8086 139.549C80.8086 140.909 81.7157 141.239 83.8184 140.579C87.4054 139.549 93.5075 134.932 96.1049 131.386C97.012 130.108 97.1769 129.613 96.8471 128.995C96.6409 128.542 96.1462 128.212 95.7339 128.212C95.3628 128.253 93.3425 129.861 91.3223 131.84Z" fill="#058FA2"/>
</svg>
