<svg width="136" height="133" viewBox="0 0 136 133" fill="none" xmlns="http://www.w3.org/2000/svg">
<path d="M60.6131 0.904728C55.3356 2.1415 50.388 5.93426 48.7388 9.85069C47.9142 11.8295 47.6256 12.0769 45.1518 13.19C39.5033 15.746 36.6172 19.7861 36.6172 25.1042C36.6172 27.7426 36.7821 28.2373 39.091 32.7309C41.3999 37.2245 41.6473 37.5543 42.8017 37.5543C43.6263 37.5543 44.0386 37.307 44.1211 36.8123C44.2035 36.4 43.214 33.9677 41.9359 31.4529C39.6682 27.0006 39.5858 26.7532 39.7919 24.3209C40.1217 20.1983 41.7297 18.3432 47.2958 15.6223C50.3468 14.1382 50.5529 13.9733 51.1714 12.0769C52.4083 8.36657 55.2532 5.93426 60.242 4.28523C67.2924 1.93537 76.1568 3.70807 80.6509 8.32534C81.9703 9.68579 82.3413 10.3866 83.2072 13.1487C83.4958 14.0557 84.1142 14.5504 85.6397 15.21C89.6391 16.859 92.1541 18.8379 93.391 21.2702C95.0402 24.4446 94.7928 26.4646 92.2778 31.8239C90.0926 36.4412 90.0101 37.4719 91.7418 37.678C92.8138 37.8017 93.0199 37.5543 95.0402 33.3493C97.1429 28.9794 97.1842 28.8145 97.1842 25.1866C97.1842 22.1772 97.0192 21.1465 96.2771 19.8273C94.9577 17.3125 92.6901 15.2925 89.1443 13.4785C86.7117 12.2006 85.8871 11.5409 85.681 10.7164C84.609 6.55264 79.1666 2.34763 72.9821 0.863503C69.7662 0.121441 63.7466 0.121441 60.6131 0.904728Z" fill="#058FA2"/>
<path d="M12.9106 11.7471C12.1685 12.2418 11.8386 15.581 12.4571 16.6941C12.7869 17.3537 13.2404 17.5599 14.0238 17.4774C15.0546 17.3537 15.137 17.2301 15.2607 14.9627C15.4256 11.8707 14.5598 10.7164 12.9106 11.7471Z" fill="#FDC114"/>
<path d="M5.16039 18.2608C4.50071 18.5081 4.45948 20.1159 5.11916 20.7756C5.77884 21.4352 10.0668 21.4352 10.7264 20.7756C11.4274 20.0747 11.3449 18.5081 10.5615 18.2196C9.81939 17.931 5.90253 17.931 5.16039 18.2608Z" fill="#FDC114"/>
<path d="M16.9093 18.4257C15.9198 18.9616 15.9611 20.3221 16.9506 20.858C17.4041 21.0641 18.641 21.2703 19.6718 21.2703C21.9806 21.2703 23.1763 20.6931 23.1763 19.6212C23.1763 19.1678 22.8052 18.6318 22.3929 18.3845C21.3622 17.8485 17.8164 17.8485 16.9093 18.4257Z" fill="#FDC114"/>
<path d="M12.4989 22.4657C11.3032 24.6919 12.7463 28.6083 14.3955 27.6189C14.9727 27.2479 15.1376 26.6295 15.1376 24.527C15.1376 21.971 15.0964 21.8885 14.0244 21.7649C13.2823 21.6824 12.7875 21.8885 12.4989 22.4657Z" fill="#FDC114"/>
<path d="M65.7247 22.878C65.5598 23.3315 65.5185 25.6814 65.6422 28.1549C65.8072 32.0301 65.9308 32.6073 66.5905 32.7309C68.1573 33.0607 68.5283 32.1126 68.5283 27.6602C68.5283 25.3103 68.4046 23.1254 68.281 22.7543C67.9099 21.8061 66.0958 21.9298 65.7247 22.878Z" fill="#058FA2"/>
<path d="M50.3056 22.9605C47.7905 24.4034 51.7486 30.175 57.191 32.9371C59.9534 34.3388 61.0254 31.5354 58.3042 30.0101C55.8304 28.6496 52.9855 25.9287 52.6557 24.692C52.3671 23.4964 51.7074 22.507 51.2539 22.507C51.1302 22.507 50.6766 22.7131 50.3056 22.9605Z" fill="#058FA2"/>
<path d="M82.3828 23.1665C82.0117 23.4963 81.7231 24.1147 81.7231 24.527C81.7231 25.4752 79.1668 28.0312 76.4869 29.8039C74.1368 31.288 73.6832 32.4423 75.1675 33.2256C75.8272 33.5966 76.3632 33.4729 77.8887 32.566C83.1661 29.4741 86.3409 24.4033 84.032 22.8367C83.3723 22.3833 83.0837 22.4245 82.3828 23.1665Z" fill="#058FA2"/>
<path d="M45.6455 37.1009C42.2234 38.585 41.6461 44.068 44.6559 46.5828L45.9341 47.6547H67.1263H88.3186L89.5967 46.5003C90.7099 45.5109 90.9573 44.975 91.1222 42.9137C91.2871 41.0998 91.1222 40.1516 90.5862 39.1622C89.1432 36.5237 89.3493 36.5237 67.0026 36.5237C51.2115 36.565 46.5937 36.6886 45.6455 37.1009ZM87.9063 40.6051C88.5247 41.8006 88.401 43.1611 87.6177 44.0268C86.9992 44.7276 85.8035 44.7689 67.0439 44.7689C49.5211 44.7689 47.0885 44.6864 46.5113 44.1093C45.7279 43.3672 45.6455 41.0173 46.3464 40.3165C46.7174 39.9455 51.9124 39.8218 67.1676 39.8218C86.7931 39.8218 87.494 39.863 87.9063 40.6051Z" fill="#FDD304"/>
<path d="M46.5525 51.5711C45.5629 52.5605 44.862 55.1989 45.1919 56.848C45.5629 58.868 47.0472 60.9293 48.8613 61.8775C50.1807 62.5783 50.4281 62.9906 50.8404 64.8869C51.5413 68.2262 54.18 73.1321 56.6538 75.6056C57.8495 76.8012 59.9935 78.3677 61.4365 79.0686C63.6217 80.1404 64.5288 80.3466 67.0026 80.3466C69.5588 80.3466 70.4247 80.1404 72.6923 79.0273C78.1759 76.3477 81.9279 71.0296 83.5358 63.6502C83.7008 62.9081 84.278 62.2897 85.2675 61.8363C88.1124 60.4758 89.6791 56.6831 88.6071 53.6736C87.865 51.5298 86.7105 50.7466 85.6386 51.5298C84.8964 52.0658 84.8964 52.2719 85.35 53.5087C86.4219 56.5594 85.721 58.2496 82.7525 59.5688C81.3506 60.1872 80.8559 60.6407 80.691 61.5477C79.4128 67.6491 78.0522 70.6173 75.0837 73.5856C72.7748 75.8942 70.5896 76.9661 67.6623 77.2134C65.7244 77.4195 64.9411 77.2546 63.0033 76.3889C58.5504 74.3276 54.5923 68.8446 53.7677 63.609C53.3967 61.3003 52.4071 59.6101 51.3764 59.6101C51.0878 59.6101 50.2632 59.1154 49.5623 58.497C48.3666 57.5076 48.2841 57.2602 48.4903 55.5287C49.0263 51.4886 48.985 51.1588 48.078 51.0351C47.5832 50.9527 46.8823 51.2 46.5525 51.5711Z" fill="#058FA2"/>
<path d="M125.054 59.3215C124.807 59.6513 124.601 60.8469 124.56 62.0424C124.436 64.6396 125.219 65.7527 126.621 65.0106C127.363 64.5984 127.487 64.1449 127.487 62.0836C127.487 60.1048 127.322 59.5689 126.704 59.1978C125.673 58.6619 125.632 58.6619 125.054 59.3215Z" fill="#FDC114"/>
<path d="M45.4401 65.1755C45.0278 65.6702 45.069 66.0824 45.605 67.1955C46.3884 68.8446 46.1823 69.5866 44.3681 71.6479C42.6777 73.5443 42.3066 74.9047 42.9251 76.8836C43.9558 80.429 46.2235 82.3666 47.5016 80.8412C47.9964 80.2228 47.9139 79.8518 46.9656 78.1616C45.4813 75.5643 45.5638 74.7811 47.4192 72.761C48.821 71.1944 48.9447 70.8234 48.9447 68.6797C48.9447 66.907 48.7385 66.0824 48.1613 65.4228C47.2542 64.3922 46.141 64.3097 45.4401 65.1755Z" fill="#058FA2"/>
<path d="M117.263 65.8763C116.562 66.5772 116.645 68.1438 117.428 68.4323C117.799 68.556 118.954 68.6797 120.067 68.6797C122.664 68.6797 123.365 68.3911 123.365 67.278C123.365 65.8351 122.541 65.3816 120.067 65.3816C118.789 65.3816 117.552 65.5878 117.263 65.8763Z" fill="#FDC114"/>
<path d="M128.973 66.0412C127.407 67.6078 128.561 68.6797 131.818 68.6797C133.22 68.6797 134.539 68.4736 134.828 68.185C135.57 67.4429 135.405 66.2886 134.539 65.7939C133.261 65.1343 129.715 65.2992 128.973 66.0412Z" fill="#FDC114"/>
<path d="M85.8462 66.3711C84.4443 68.0613 83.7847 74.3276 84.6505 77.4607C85.2277 79.522 87.248 81.7482 88.9796 82.2429C92.5667 83.2323 95.9888 80.3878 95.1642 77.0897C94.7931 75.6468 93.1027 74.039 91.907 74.039C89.9279 74.039 89.227 76.224 90.9999 76.9248C91.6184 77.1722 92.0307 77.6256 92.0307 78.1616C92.0307 79.9343 89.1033 79.6869 88.1963 77.8318C87.1655 75.8529 87.0418 73.8329 87.7427 70.3699C88.2787 67.6903 88.32 66.907 87.9077 66.4123C87.248 65.629 86.5058 65.629 85.8462 66.3711Z" fill="#058FA2"/>
<path d="M124.601 70.1226C124.354 70.7822 124.313 72.019 124.519 73.1321C124.766 74.6574 125.013 75.1109 125.673 75.1933C127.034 75.3995 127.529 74.3688 127.405 71.6892C127.281 69.4218 127.24 69.2981 126.168 69.1744C125.261 69.0507 124.931 69.2568 124.601 70.1226Z" fill="#FDC114"/>
<path d="M8.62064 77.1722C8.45572 77.3371 8.33203 78.5327 8.33203 79.8107C8.33203 82.4079 8.95048 83.3561 10.3935 82.9026C11.1769 82.6552 11.2594 82.3667 11.1357 79.8931C11.012 77.2959 10.9708 77.131 9.98123 77.0073C9.40401 76.9249 8.78556 77.0073 8.62064 77.1722Z" fill="#FDC114"/>
<path d="M54.0973 83.4797C53.8911 83.9332 53.685 85.2524 53.685 86.4067C53.685 87.561 53.5201 88.839 53.2727 89.2513C53.0253 89.7048 48.3663 91.9722 41.4397 94.8992C31.0909 99.3516 29.8128 100.011 27.6276 101.99C26.267 103.268 24.8239 105.123 24.2467 106.319C23.6695 107.514 22.2677 112.255 21.1132 116.872C18.928 125.777 18.928 126.396 20.9483 126.396C22.0203 126.396 21.7729 127.096 24.4116 116.501C26.4319 108.256 26.9679 107.02 29.3593 104.546C31.0085 102.856 32.3691 102.155 42.5941 97.8262C54.1798 92.8792 55.6228 92.0546 56.5299 89.5811C57.1483 88.0145 57.1071 83.8095 56.4886 83.1911C55.7465 82.4491 54.5921 82.614 54.0973 83.4797Z" fill="#058FA2"/>
<path d="M77.7235 82.9438C77.3524 83.1087 77.1875 84.1393 77.1875 86.0769C77.1875 88.468 77.3937 89.3337 78.2183 90.7354C79.3315 92.6318 78.5069 92.2195 94.0918 98.9393C102.791 102.691 105.306 104.381 106.956 107.597C107.45 108.504 108.77 113.08 109.924 117.738L112.027 126.189H113.264C114.253 126.189 114.542 125.983 114.624 125.2C114.831 123.798 111.037 108.792 109.924 106.525C108.687 104.093 106.832 101.949 104.647 100.465C103.698 99.8463 98.2148 97.3315 92.4426 94.858C86.6704 92.4257 81.5579 90.0758 81.1456 89.6635C80.5271 89.0864 80.2798 88.1382 80.1148 85.912C79.9087 83.2736 79.7438 82.9025 79.0429 82.8201C78.5893 82.7789 77.9709 82.8613 77.7235 82.9438Z" fill="#058FA2"/>
<path d="M0.705856 84.3455C0.252325 85.8296 1.20062 86.4067 4.00426 86.4067C6.80791 86.4067 7.7562 85.8296 7.30267 84.3455C7.05529 83.6034 6.68422 83.5209 4.00426 83.5209C1.32431 83.5209 0.953236 83.6034 0.705856 84.3455Z" fill="#FDC114"/>
<path d="M12.6215 84.0981C12.4978 84.4279 12.4565 85.0462 12.539 85.4585C12.6627 86.0769 13.1162 86.2006 15.7549 86.2006H18.8472V84.9638V83.727L15.8374 83.6033C13.4873 83.5209 12.7864 83.6033 12.6215 84.0981Z" fill="#FDC114"/>
<path d="M8.82679 87.3137C8.57941 87.561 8.33203 88.7566 8.33203 89.9521C8.33203 92.2195 8.95048 93.1677 10.2698 92.9204C10.8883 92.7967 11.012 92.3432 11.012 89.9109C11.012 87.3137 10.9295 87.0251 10.1874 86.9014C9.73385 86.8602 9.1154 87.0251 8.82679 87.3137Z" fill="#FDC114"/>
<path d="M59.871 106.484C58.8403 106.566 56.0779 106.896 53.6453 107.226C43.9975 108.504 41.0289 109.782 39.2972 113.327C38.4726 115.017 38.4314 115.677 38.5139 123.345L38.6375 131.549H39.8744H41.1114L41.3175 123.427C41.5237 116.089 41.6061 115.223 42.3895 114.152C43.6264 112.42 45.4817 111.719 51.2127 110.647C55.7068 109.864 57.7683 109.74 67.0863 109.74C76.4868 109.699 78.4246 109.823 82.9599 110.647C92.3191 112.379 92.5665 112.709 92.8551 123.716L93.0612 131.549H94.2981H95.535L95.6587 123.922C95.7824 115.43 95.535 113.945 93.5972 111.719C91.7419 109.617 89.8041 108.792 84.5266 107.844C76.2806 106.401 67.3337 105.906 59.871 106.484Z" fill="#058FA2"/>
<path d="M68.3223 123.84C64.9002 127.138 62.6325 128.663 58.963 130.065C58.0972 130.394 57.8086 130.765 57.8086 131.549C57.8086 132.909 58.7157 133.239 60.8184 132.579C64.4054 131.549 70.5075 126.932 73.1049 123.386C74.012 122.108 74.1769 121.613 73.8471 120.995C73.6409 120.542 73.1462 120.212 72.7339 120.212C72.3628 120.253 70.3425 121.861 68.3223 123.84Z" fill="#058FA2"/>
</svg>
