<svg width="114" height="95" viewBox="0 0 114 95" fill="none" xmlns="http://www.w3.org/2000/svg">
<path d="M66.2225 4.05754C66.0955 4.39625 66.0531 5.11601 66.1378 5.66641C66.2648 6.59786 66.4765 6.6402 70.3717 6.85189L74.4785 7.06359L73.039 9.39222L71.5995 11.7208L68.9322 11.9325L66.2648 12.1442V13.6261C66.2648 15.0233 66.3495 15.1079 67.8314 15.3196L69.3979 15.5313L67.7043 18.2833C66.5612 20.1886 66.0531 21.4164 66.1378 22.3055L66.2648 23.5757H72.8273H79.3898V22.0938V20.612L75.283 20.4003L71.1761 20.1886L72.6156 17.86L74.0551 15.5313L76.7225 15.3196L79.3898 15.1079V13.6261C79.3898 12.2289 79.3051 12.1442 77.8233 11.9325L76.2568 11.7208L77.9503 8.96883C79.0934 7.06359 79.6015 5.83576 79.5168 4.94665L79.3898 3.67649L72.912 3.54947C67.5773 3.4648 66.4342 3.54947 66.2225 4.05754Z" fill="#FDC114"/>
<path d="M42.5076 12.5252C42.3806 12.8639 42.3383 13.5837 42.423 14.1341C42.55 15.0655 42.7193 15.1079 46.4875 15.2349L50.425 15.3619L49.2395 17.0131C48.181 18.4526 47.8 18.6643 46.1488 18.7913C44.3282 18.9183 44.2435 19.003 44.1165 20.3155C44.0318 21.247 44.2012 21.755 44.6246 21.9244C45.175 22.1361 45.048 22.5595 43.7778 24.253C42.7193 25.6925 42.3383 26.6663 42.423 27.4708L42.55 28.6562H49.1125H55.675V27.1744V25.6925L51.7375 25.5655L47.8 25.4385L48.9855 23.7873C50.0439 22.3478 50.425 22.1361 52.0762 22.0091C53.8968 21.8821 53.9814 21.7974 54.1084 20.4849C54.1931 19.5534 54.0238 19.0454 53.6004 18.876C53.05 18.6643 53.177 18.2409 54.4472 16.5474C55.5056 15.1079 55.8867 14.1341 55.802 13.3296L55.675 12.1442L49.1972 12.0171C43.8625 11.9325 42.7193 12.0171 42.5076 12.5252Z" fill="#FDC114"/>
<path d="M22.1873 24.3801C22.0603 24.7188 22.018 25.4385 22.1026 25.9889C22.2297 26.8781 22.4837 26.9627 25.151 27.1744L28.0724 27.3861L25.024 30.9849C22.5684 33.9063 22.018 34.8377 22.1026 35.8539L22.2297 37.124H27.9454H33.6611V35.6422V34.1603L30.7397 33.9486L27.8184 33.7369L30.8668 30.1381C33.3224 27.2168 33.8728 26.2853 33.7881 25.2692L33.6611 23.999L28.0301 23.872C23.4575 23.7873 22.399 23.872 22.1873 24.3801Z" fill="#FDC114"/>
<path d="M21.381 43.1782C18.2056 44.279 15.5806 45.9302 13.2944 48.3435C11.3468 50.3758 8.93347 54.2709 8.89113 55.4141C8.89113 55.7951 8.00202 55.9645 5.88508 55.9645C3.04839 55.9645 2.79435 56.0492 1.43952 57.404L0 58.8435V66.1258V73.408L1.43952 74.8475C2.79435 76.2024 3.04839 76.2871 5.88508 76.2871C8.00202 76.2871 8.89113 76.4564 8.89113 76.7951C8.89113 78.404 11.6431 82.9342 14.0988 85.3475C18.9677 90.1742 23.371 91.7407 31.3306 91.4443C35.5222 91.3173 36.5383 91.1479 38.6552 90.1318C42.0423 88.5653 44.2016 86.7871 46.1915 83.8657C48.1391 80.9867 49.748 80.0129 52.5 80.0129C55.252 80.0129 56.8609 80.9867 58.8085 83.8657C60.7984 86.7871 62.9577 88.5653 66.3448 90.1318C68.4617 91.1479 69.4778 91.3173 73.6694 91.4443C81.629 91.7407 86.1169 90.1318 90.9012 85.3899C93.3145 82.9342 96.1089 78.404 96.1089 76.7951C96.1089 76.4564 96.998 76.2871 99.1149 76.2871C101.952 76.2871 102.206 76.2024 103.56 74.8475L105 73.408V66.1258V58.8435L103.56 57.404C102.206 56.0492 101.952 55.9645 99.1573 55.9645C96.3206 55.9645 96.1936 55.9221 95.8972 54.8213C95.0081 51.1802 90.6472 46.4806 85.9899 44.1943L82.8145 42.6278L53.1774 42.5431C25.869 42.4584 23.3286 42.5008 21.381 43.1782ZM79.3851 46.2266C83.3226 46.8193 86.371 48.4282 89.123 51.3919C92.8064 55.3717 93.2298 57.0229 93.0605 66.9725C92.9335 75.1016 92.9335 75.2709 91.7056 77.7689C90.0968 80.9867 86.4133 84.7125 83.3226 86.152C77.6069 88.8617 69.7319 88.4383 65.4133 85.2205C64.5665 84.5854 62.873 82.7225 61.6452 81.1137C58.8085 77.2608 56.9456 76.2871 52.4577 76.2871C48.0968 76.2871 46.2339 77.3032 43.3548 81.156C39.4597 86.3637 36.2843 87.9302 29.8488 87.8455C22.1855 87.7608 16.5121 84.2467 13.2097 77.5572C12.1089 75.3133 12.0665 74.9746 11.9395 66.9725C11.8125 59.3516 11.8548 58.5048 12.7016 56.2608C14.5645 51.3072 19.8992 47.031 25.1915 46.2689C28.7903 45.7608 75.7439 45.7185 79.3851 46.2266ZM8.46774 66.1258V72.9H6.77419C3.81048 72.9 3.3871 72.0532 3.3871 66.1258C3.3871 60.1983 3.81048 59.3516 6.77419 59.3516H8.46774V66.1258ZM100.766 60.1983C101.528 60.9604 101.613 61.5955 101.613 66.1258C101.613 72.0532 101.19 72.9 98.2258 72.9H96.5323V66.1258V59.3516H98.2258C99.3689 59.3516 100.216 59.6479 100.766 60.1983Z" fill="#058FA2"/>
<path d="M17.2339 64.7286C17.0645 64.8556 16.9375 65.533 16.9375 66.1681C16.9375 67.0149 17.2762 67.5653 18.2077 68.1157C19.3085 68.7507 19.4778 69.0471 19.2238 69.9362C19.0544 70.529 18.8851 71.7568 18.8851 72.6882C18.8427 74.3394 18.8851 74.3818 20.3246 74.3818C21.6371 74.3818 21.8488 74.2124 22.4415 72.6036C23.246 70.4019 23.373 70.2749 24.6008 70.5713C25.5323 70.783 25.6169 71.037 25.6169 73.4503C25.6169 76.033 25.6593 76.0753 26.8448 76.2024C28.4113 76.414 28.7923 75.9907 29.131 73.4927L29.4274 71.4181L31.4597 71.2911L33.4496 71.164V73.0269C33.4496 75.3979 34.1694 76.414 35.7782 76.2024C37.0484 76.0753 37.0484 76.033 37.0484 73.4503C37.0484 71.037 37.1331 70.783 38.0645 70.5713C39.2923 70.2749 39.4194 70.4019 40.2238 72.6036C40.8165 74.2124 41.0282 74.3818 42.3407 74.3818C43.7802 74.3818 43.8226 74.3394 43.7802 72.6882C43.7802 71.7568 43.6109 70.529 43.4415 69.9362C43.1875 69.0471 43.3569 68.7507 44.4577 68.1157C45.5585 67.4382 45.7702 67.0995 45.6431 65.9987C45.5585 64.8979 45.3044 64.6015 44.373 64.5169C43.7802 64.4322 42.5101 64.7709 41.621 65.2366C35.9052 68.1157 26.8024 68.158 21.0867 65.2366C19.5202 64.4322 17.7419 64.1782 17.2339 64.7286Z" fill="#058FA2"/>
<path d="M59.5698 64.7286C59.4005 64.8556 59.2734 65.533 59.2734 66.1681C59.2734 67.0149 59.6121 67.5653 60.5436 68.1157C61.6444 68.7507 61.8138 69.0471 61.5597 69.9362C61.3904 70.529 61.221 71.7568 61.221 72.6882C61.1787 74.3394 61.221 74.3818 62.6605 74.3818C63.973 74.3818 64.1847 74.2124 64.7775 72.6036C65.5819 70.4019 65.7936 70.2326 66.8521 70.5713C67.5718 70.783 67.7412 71.2487 67.8259 73.4503C67.9529 75.9907 67.9952 76.0753 69.223 76.2024C70.8319 76.414 71.5517 75.3979 71.5517 73.0269V71.164L73.5416 71.2911L75.5738 71.4181L75.8702 73.4927C76.2089 75.9907 76.59 76.414 78.1565 76.2024C79.342 76.0753 79.3843 76.033 79.3843 73.4503C79.3843 71.037 79.469 70.783 80.4005 70.5713C81.6283 70.2749 81.7553 70.4019 82.5597 72.6036C83.1525 74.2124 83.3642 74.3818 84.6767 74.3818C86.1162 74.3818 86.1585 74.3394 86.1162 72.6882C86.1162 71.7568 85.9468 70.529 85.7775 69.9362C85.5234 69.0471 85.6928 68.7507 86.7936 68.1157C87.8944 67.4382 88.1061 67.0995 87.9791 65.9987C87.8097 64.1782 86.5819 64.0511 83.4488 65.4483C82.1363 65.9987 80.1464 66.7185 78.9609 66.9725C74.2613 68.031 67.4025 67.2689 63.4226 65.2366C61.8561 64.4322 60.0779 64.1782 59.5698 64.7286Z" fill="#058FA2"/>
</svg>
