<svg width="74" height="76" viewBox="0 0 74 76" fill="none" xmlns="http://www.w3.org/2000/svg">
<path d="M3.66667 0.526039C2.5 0.987846 1.36667 2.10937 0.633333 3.52777C0.0666667 4.61632 0 5.50694 0 10.9167C0 16.5573 0.0666667 17.25 0.7 18.5694C1.73333 20.6476 3.43333 21.6372 6.26667 21.8681L8.53333 22L13.0333 28.7951C18.5667 37.1736 19.6333 38.526 21.4333 39.3837C22.8333 40.0434 23.4 40.0764 36.7667 40.0764C52.2 40.0764 51.9667 40.1094 54.1 37.9323C54.8 37.2396 57.5333 33.3472 60.2333 29.2899L65.1 21.934L66.8 21.901C67.7333 21.901 69 21.7031 69.6 21.4722C71.1333 20.9444 72.9333 19.0972 73.3333 17.6788C73.5 17.0191 73.6667 13.9514 73.6667 10.8837C73.6333 3.62674 73.1667 2.2743 70.2667 0.789928C69.0667 0.196178 67.8 0.163193 36.7667 0.196178C16.1667 0.196178 4.2 0.328121 3.66667 0.526039ZM69.5667 3.13194C71.1333 4.05555 71.4 5.375 71.2667 11.7413C71.1667 16.6892 71.1 17.316 70.5 17.9757C68.9667 19.658 69.9 19.625 36.6333 19.625C2.6 19.625 4.13333 19.724 2.9 17.6788C2.43333 16.8872 2.33333 15.7986 2.33333 10.9826C2.33333 5.86979 2.4 5.17708 3 4.1875C3.36667 3.59375 4 2.96701 4.43333 2.80208C4.83333 2.63715 18.8333 2.50521 36.8333 2.50521C67.6667 2.47222 68.5333 2.50521 69.5667 3.13194ZM19.2667 28.0365C22.3 34.1059 22.5 34.3368 24 34.1389C24.6333 34.0729 25.3333 33.1823 25.3333 32.4566C25.3333 32.1597 24.3 29.7187 23 27.0799C21.7333 24.408 20.6667 22.1649 20.6667 22.066C20.6667 22 21.9333 21.934 23.5 21.934C25.0667 21.934 26.3333 22.033 26.3333 22.1649C26.3333 23.3194 28.3667 33.3142 28.7 33.6771C29.3333 34.4358 30.9 34.2378 31.5 33.3472C31.9667 32.6545 31.9333 32.1267 31.0667 27.2448L30.1333 21.934H32.5667H35V27.3437C35 30.3125 35.1 33.0174 35.2 33.3142C35.5667 34.2049 36.9667 34.5677 37.8667 33.974C38.6667 33.4792 38.6667 33.3802 38.6667 27.7066V21.934H41.2C43.6667 21.934 43.7333 21.967 43.5667 22.6597C43.4667 23.0885 43.0333 25.4306 42.6333 27.9045C41.7333 33.1163 41.9 34.1389 43.6333 34.1389C44.1667 34.1389 44.8 33.908 45.0333 33.6111C45.3 33.3142 45.9667 30.6094 46.5 27.5747L47.5333 22.099L50.4333 22L53.3667 21.901L52.3333 23.9462C49.6667 29.125 48.3333 32.2917 48.5333 32.8854C48.6333 33.2153 49.0667 33.7101 49.5 34.0069C50.8667 34.8976 51.4667 34.1719 54.6667 27.8715L57.6667 21.934H59.8667C61.6333 21.934 62.0333 22.033 61.9 22.3958C61.4667 23.5174 53 35.7222 52.0333 36.6128L50.9667 37.6024L37.1333 37.7014C23.7 37.8003 23.2333 37.7674 22.1667 37.1076C21 36.4149 19.7 34.6337 14.5667 26.783L11.3667 21.934H13.7667H16.1667L19.2667 28.0365Z" fill="#058FA2"/>
<path d="M27.2317 46.7393C26.3984 47.1682 26.5317 47.9598 27.8317 49.939C29.8317 53.0397 29.6984 55.6456 27.465 58.8782C24.6317 62.9685 23.7984 66.2011 24.6317 70.1265C25.165 72.5675 27.165 75.7671 28.0984 75.6352C29.4317 75.4373 29.5317 74.5796 28.3984 72.8314C25.9984 69.1369 26.1984 64.7168 28.9317 60.9893C31.3317 57.7567 32.165 54.59 31.365 51.7862C30.965 50.2689 28.865 46.8383 28.2317 46.5744C27.9984 46.4755 27.5317 46.5414 27.2317 46.7393Z" fill="#FDC114"/>
<path d="M36.2333 46.7396C35.4 47.1684 35.5333 47.8281 36.8667 50.0052C38.9667 53.3368 38.8 55.5139 36.1333 59.3403C33.9667 62.5069 33.5 63.8594 33.5 67.2899C33.5 70.4896 33.8 71.5781 35.4333 74.151C36.4667 75.8333 37.4 76.0972 38.1 75.0087C38.3667 74.5798 38.2 74.085 37.4 72.8646C34.9667 69.1041 35.2667 64.5191 38.1667 60.6927C40 58.2517 40.5 56.8663 40.5 54.0955C40.5 51.3576 40 49.9722 38.2333 47.5972C37.4333 46.5087 36.9667 46.3107 36.2333 46.7396Z" fill="#FDC114"/>
<path d="M44.7648 47.2344C44.6648 47.5312 44.7981 48.158 45.0981 48.6198C48.0315 53.1719 47.9981 55.6128 44.8648 59.8351C41.7648 64.0243 41.5648 69.7639 44.3648 74.0851C45.4648 75.8003 46.3981 76.1302 47.0981 75.0087C47.3648 74.5799 47.1981 74.0851 46.3981 72.8646C45.0981 70.8194 44.5648 68.4774 44.8315 66.1354C45.0981 64.0903 45.4648 63.2656 47.5315 60.1979C50.4315 55.8437 50.3315 51.7535 47.2315 47.5972C46.4648 46.5746 45.0981 46.3437 44.7648 47.2344Z" fill="#FDC114"/>
</svg>
