<svg width="102" height="90" viewBox="0 0 102 90" fill="none" xmlns="http://www.w3.org/2000/svg">
<path d="M73.8607 39.8966V47.5C68 47 73.1125 48 72.5 48L28.5 47.5C27.8853 47.5 28.5 46.1198 28.5 45.5L28 40L9.90236 39.8966V86.8813C9.90236 87.4966 9.40345 88 8.78873 88C8.174 88 7.67509 87.4966 7.67509 86.8813V39.8966H3.11364C2.50114 39.8966 2 39.3931 2 38.7756C2 38.1581 2.49891 37.657 3.11364 37.657H27.0323H42.013C43.8995 36.2452 45.3071 34.3188 46.1178 32.1172H37.7299C33.4313 32.1172 29.9345 28.6046 29.9345 24.2864V9.83079C29.9345 5.51267 33.4313 2 37.7299 2H64.2723C68.571 2 72.0678 5.51267 72.0678 9.83079V24.2887C72.0678 28.6068 68.571 32.1195 64.2723 32.1195H55.8844C56.6974 34.321 58.1028 36.2474 59.9915 37.6592H74.9744H98.8864C99.4989 37.6592 100 38.1604 100 38.7779C100 39.3954 99.4989 39.8966 98.8864 39.8966H94.3205V86.8813C94.3205 87.4966 93.8193 88 93.2068 88C92.5899 88 92.0932 87.4966 92.0932 86.8813V39.8966H73.8607ZM73.8607 39.8966V48.4254H28.146V39.8966H73.8607ZM32.1617 24.2887V9.83079C32.1617 6.7477 34.6607 4.23737 37.7299 4.23737H64.2723C67.3437 4.23737 69.8405 6.7477 69.8405 9.83079V24.2864C69.8405 27.3695 67.3437 29.8799 64.2723 29.8799H37.7299C34.6607 29.8821 32.1617 27.3718 32.1617 24.2887ZM48.4565 32.1195H53.5435C54.1739 34.189 55.2363 36.0818 56.6885 37.6592H45.3115C46.7637 36.0796 47.8261 34.189 48.4565 32.1195Z" stroke="#058FA2" stroke-width="2.6"/>
<rect x="29.5" y="39.5" width="43" height="9" stroke="#F9BF02" stroke-width="3"/>
<circle cx="64" cy="31" r="2" fill="#F9BF02"/>
</svg>
