<svg width="77" height="71" viewBox="0 0 77 71" fill="none" xmlns="http://www.w3.org/2000/svg">
<mask id="path-1-inside-1_5108_7892" fill="white">
<path d="M75.3446 0H2.15559C1.9939 -2.67252e-07 1.8338 0.0318834 1.68445 0.0938267C1.53509 0.15577 1.39942 0.246556 1.28519 0.36099C1.17097 0.475425 1.08043 0.611263 1.01876 0.760728C0.957083 0.910193 0.925489 1.07035 0.925783 1.23204V57.0406C0.925783 57.3668 1.05535 57.6796 1.28599 57.9102C1.51662 58.1408 1.82942 58.2704 2.15559 58.2704H29.3969V68.5404H23.9298C23.6165 68.5593 23.3222 68.6971 23.107 68.9256C22.8918 69.1542 22.772 69.4563 22.772 69.7702C22.772 70.0841 22.8918 70.3862 23.107 70.6147C23.3222 70.8433 23.6165 70.9811 23.9298 71H53.5726C53.886 70.9811 54.1803 70.8433 54.3955 70.6147C54.6106 70.3862 54.7305 70.0841 54.7305 69.7702C54.7305 69.4563 54.6106 69.1542 54.3955 68.9256C54.1803 68.6971 53.886 68.5593 53.5726 68.5404H48.1033V58.2704H75.3446C75.6708 58.2704 75.9836 58.1408 76.2142 57.9102C76.4449 57.6796 76.5744 57.3668 76.5744 57.0406V1.23204C76.5747 1.07035 76.5431 0.910193 76.4815 0.760728C76.4198 0.611263 76.3293 0.475425 76.215 0.36099C76.1008 0.246556 75.9651 0.15577 75.8158 0.0938267C75.6664 0.0318834 75.5063 -2.67252e-07 75.3446 0ZM45.6437 68.5404H31.8565V58.2704H45.6437V68.5404ZM74.1148 55.8108H3.38539V46.3905H74.1148V55.8108ZM74.1148 43.9309H3.38539V2.46184H74.1148V43.9309Z"/>
</mask>
<path d="M75.3446 0H2.15559C1.9939 -2.67252e-07 1.8338 0.0318834 1.68445 0.0938267C1.53509 0.15577 1.39942 0.246556 1.28519 0.36099C1.17097 0.475425 1.08043 0.611263 1.01876 0.760728C0.957083 0.910193 0.925489 1.07035 0.925783 1.23204V57.0406C0.925783 57.3668 1.05535 57.6796 1.28599 57.9102C1.51662 58.1408 1.82942 58.2704 2.15559 58.2704H29.3969V68.5404H23.9298C23.6165 68.5593 23.3222 68.6971 23.107 68.9256C22.8918 69.1542 22.772 69.4563 22.772 69.7702C22.772 70.0841 22.8918 70.3862 23.107 70.6147C23.3222 70.8433 23.6165 70.9811 23.9298 71H53.5726C53.886 70.9811 54.1803 70.8433 54.3955 70.6147C54.6106 70.3862 54.7305 70.0841 54.7305 69.7702C54.7305 69.4563 54.6106 69.1542 54.3955 68.9256C54.1803 68.6971 53.886 68.5593 53.5726 68.5404H48.1033V58.2704H75.3446C75.6708 58.2704 75.9836 58.1408 76.2142 57.9102C76.4449 57.6796 76.5744 57.3668 76.5744 57.0406V1.23204C76.5747 1.07035 76.5431 0.910193 76.4815 0.760728C76.4198 0.611263 76.3293 0.475425 76.215 0.36099C76.1008 0.246556 75.9651 0.15577 75.8158 0.0938267C75.6664 0.0318834 75.5063 -2.67252e-07 75.3446 0ZM45.6437 68.5404H31.8565V58.2704H45.6437V68.5404ZM74.1148 55.8108H3.38539V46.3905H74.1148V55.8108ZM74.1148 43.9309H3.38539V2.46184H74.1148V43.9309Z" fill="#058FA2"/>
<path d="M75.3446 0L75.3446 3L75.3446 3L75.3446 0ZM2.15559 0L2.15558 3H2.15559V0ZM0.925783 1.23204L3.92579 1.23204L3.92578 1.22659L0.925783 1.23204ZM29.3969 58.2704H32.3969V55.2704H29.3969V58.2704ZM29.3969 68.5404V71.5404H32.3969V68.5404H29.3969ZM23.9298 68.5404V65.5404H23.8394L23.7492 65.5458L23.9298 68.5404ZM22.772 69.7702L19.772 69.7702L22.772 69.7702ZM23.9298 71L23.7492 73.9946L23.8394 74H23.9298V71ZM53.5726 71V74H53.663L53.7533 73.9946L53.5726 71ZM54.7305 69.7702L51.7305 69.7702L54.7305 69.7702ZM53.5726 68.5404L53.7533 65.5458L53.663 65.5404H53.5726V68.5404ZM48.1033 68.5404H45.1033V71.5404H48.1033V68.5404ZM48.1033 58.2704V55.2704H45.1033V58.2704H48.1033ZM75.3446 58.2704V55.2704V58.2704ZM76.5744 1.23204L73.5744 1.22659V1.23204H76.5744ZM45.6437 68.5404V71.5404H48.6437V68.5404H45.6437ZM31.8565 68.5404H28.8565V71.5404H31.8565V68.5404ZM31.8565 58.2704V55.2704H28.8565V58.2704H31.8565ZM45.6437 58.2704H48.6437V55.2704H45.6437V58.2704ZM74.1148 55.8108V58.8108H77.1148V55.8108H74.1148ZM3.38539 55.8108H0.385394V58.8108H3.38539V55.8108ZM3.38539 46.3905V43.3905H0.385394V46.3905H3.38539ZM74.1148 46.3905H77.1148V43.3905H74.1148V46.3905ZM74.1148 43.9309V46.9309H77.1148V43.9309H74.1148ZM3.38539 43.9309H0.385394V46.9309H3.38539V43.9309ZM3.38539 2.46184V-0.538155H0.385394V2.46184H3.38539ZM74.1148 2.46184H77.1148V-0.538155H74.1148V2.46184ZM75.3446 0V-3H2.15559V0V3H75.3446V0ZM2.15559 0L2.15559 -3C1.59948 -3 1.04883 -2.89034 0.535139 -2.67729L1.68445 0.0938267L2.83375 2.86494C2.61877 2.95411 2.38832 3 2.15558 3L2.15559 0ZM1.68445 0.0938267L0.535139 -2.67729C0.0214603 -2.46425 -0.445172 -2.152 -0.838052 -1.7584L1.28519 0.36099L3.40844 2.48038C3.24401 2.64511 3.04872 2.77579 2.83375 2.86494L1.68445 0.0938267ZM1.28519 0.36099L-0.838052 -1.7584C-1.23093 -1.36481 -1.54234 -0.897604 -1.75445 -0.383543L1.01876 0.760728L3.79196 1.905C3.70319 2.12013 3.57287 2.31566 3.40844 2.48038L1.28519 0.36099ZM1.01876 0.760728L-1.75445 -0.383543C-1.96655 0.130513 -2.07522 0.681365 -2.07421 1.23749L0.925783 1.23204L3.92578 1.22659C3.9262 1.45934 3.88072 1.68987 3.79196 1.905L1.01876 0.760728ZM0.925783 1.23204H-2.07422V57.0406H0.925783H3.92578V1.23204H0.925783ZM0.925783 57.0406H-2.07422C-2.07422 58.1624 -1.62857 59.2383 -0.835335 60.0315L1.28599 57.9102L3.40731 55.7889C3.73928 56.1208 3.92578 56.5711 3.92578 57.0406H0.925783ZM1.28599 57.9102L-0.835335 60.0315C-0.0420821 60.8248 1.03379 61.2704 2.15559 61.2704V58.2704V55.2704C2.62506 55.2704 3.07532 55.4569 3.40731 55.7889L1.28599 57.9102ZM2.15559 58.2704V61.2704H29.3969V58.2704V55.2704H2.15559V58.2704ZM29.3969 58.2704H26.3969V68.5404H29.3969H32.3969V58.2704H29.3969ZM29.3969 68.5404V65.5404H23.9298V68.5404V71.5404H29.3969V68.5404ZM23.9298 68.5404L23.7492 65.5458C22.6729 65.6108 21.6619 66.0841 20.9227 66.8692L23.107 68.9256L25.2913 70.9821C24.9825 71.3101 24.5601 71.5078 24.1105 71.5349L23.9298 68.5404ZM23.107 68.9256L20.9227 66.8692C20.1836 67.6543 19.772 68.6919 19.772 69.7702L22.772 69.7702L25.772 69.7702C25.772 70.2207 25.6001 70.6541 25.2913 70.9821L23.107 68.9256ZM22.772 69.7702L19.772 69.7702C19.772 70.8485 20.1836 71.8861 20.9227 72.6712L23.107 70.6147L25.2913 68.5583C25.6 68.8862 25.772 69.3197 25.772 69.7702L22.772 69.7702ZM23.107 70.6147L20.9227 72.6712C21.6619 73.4563 22.6728 73.9296 23.7492 73.9946L23.9298 71L24.1105 68.0054C24.5602 68.0326 24.9825 68.2303 25.2913 68.5583L23.107 70.6147ZM23.9298 71V74H53.5726V71V68H23.9298V71ZM53.5726 71L53.7533 73.9946C54.8296 73.9296 55.8406 73.4563 56.5797 72.6712L54.3955 70.6147L52.2112 68.5583C52.52 68.2303 52.9423 68.0326 53.392 68.0054L53.5726 71ZM54.3955 70.6147L56.5797 72.6712C57.3188 71.8861 57.7305 70.8485 57.7305 69.7702L54.7305 69.7702L51.7305 69.7702C51.7305 69.3197 51.9024 68.8862 52.2112 68.5583L54.3955 70.6147ZM54.7305 69.7702H57.7305C57.7305 68.6919 57.3189 67.6543 56.5797 66.8692L54.3955 68.9256L52.2112 70.9821C51.9024 70.6541 51.7305 70.2207 51.7305 69.7702H54.7305ZM54.3955 68.9256L56.5797 66.8692C55.8406 66.0841 54.8296 65.6108 53.7533 65.5458L53.5726 68.5404L53.392 71.5349C52.9423 71.5078 52.52 71.3101 52.2112 70.9821L54.3955 68.9256ZM53.5726 68.5404V65.5404H48.1033V68.5404V71.5404H53.5726V68.5404ZM48.1033 68.5404H51.1033V58.2704H48.1033H45.1033V68.5404H48.1033ZM48.1033 58.2704V61.2704H75.3446V58.2704V55.2704H48.1033V58.2704ZM75.3446 58.2704L75.3446 61.2704C76.4665 61.2704 77.5423 60.8248 78.3356 60.0315L76.2142 57.9102L74.0929 55.7889C74.4249 55.4569 74.8752 55.2704 75.3446 55.2704L75.3446 58.2704ZM76.2142 57.9102L78.3356 60.0315C79.1288 59.2383 79.5744 58.1624 79.5744 57.0406H76.5744H73.5744C73.5744 56.5711 73.761 56.1208 74.0929 55.7889L76.2142 57.9102ZM76.5744 57.0406H79.5744V1.23204H76.5744H73.5744V57.0406H76.5744ZM76.5744 1.23204L79.5744 1.23749C79.5755 0.681343 79.4668 0.130493 79.2547 -0.383543L76.4815 0.760728L73.7083 1.905C73.6195 1.68989 73.574 1.45936 73.5745 1.22659L76.5744 1.23204ZM76.4815 0.760728L79.2547 -0.383543C79.0426 -0.897621 78.7311 -1.36482 78.3383 -1.7584L76.215 0.36099L74.0918 2.48038C73.9274 2.31567 73.797 2.12015 73.7083 1.905L76.4815 0.760728ZM76.215 0.36099L78.3383 -1.7584C77.9454 -2.152 77.4788 -2.46425 76.9651 -2.67729L75.8158 0.0938267L74.6665 2.86494C74.4515 2.77579 74.2562 2.64511 74.0918 2.48038L76.215 0.36099ZM75.8158 0.0938267L76.9651 -2.67729C76.4514 -2.89034 75.9008 -3 75.3446 -3L75.3446 0L75.3446 3C75.1119 3 74.8814 2.9541 74.6665 2.86494L75.8158 0.0938267ZM45.6437 68.5404V65.5404H31.8565V68.5404V71.5404H45.6437V68.5404ZM31.8565 68.5404H34.8565V58.2704H31.8565H28.8565V68.5404H31.8565ZM31.8565 58.2704V61.2704H45.6437V58.2704V55.2704H31.8565V58.2704ZM45.6437 58.2704H42.6437V68.5404H45.6437H48.6437V58.2704H45.6437ZM74.1148 55.8108V52.8108H3.38539V55.8108V58.8108H74.1148V55.8108ZM3.38539 55.8108H6.38539V46.3905H3.38539H0.385394V55.8108H3.38539ZM3.38539 46.3905V49.3905H74.1148V46.3905V43.3905H3.38539V46.3905ZM74.1148 46.3905H71.1148V55.8108H74.1148H77.1148V46.3905H74.1148ZM74.1148 43.9309V40.9309H3.38539V43.9309V46.9309H74.1148V43.9309ZM3.38539 43.9309H6.38539V2.46184H3.38539H0.385394V43.9309H3.38539ZM3.38539 2.46184V5.46184H74.1148V2.46184V-0.538155H3.38539V2.46184ZM74.1148 2.46184H71.1148V43.9309H74.1148H77.1148V2.46184H74.1148Z" fill="#058FA2" mask="url(#path-1-inside-1_5108_7892)"/>
<path d="M65.4111 50.5479C65.4568 50.557 65.4993 50.5794 65.5322 50.6123C65.5651 50.6453 65.5876 50.6878 65.5967 50.7334C65.6056 50.779 65.6008 50.8262 65.583 50.8691C65.5651 50.9123 65.5349 50.9496 65.4961 50.9756C65.4574 51.0014 65.4117 51.0146 65.3652 51.0146C65.3028 51.0146 65.2425 50.9903 65.1982 50.9463C65.1541 50.9021 65.129 50.8418 65.1289 50.7793C65.1289 50.7326 65.143 50.6863 65.1689 50.6475C65.1949 50.6089 65.2314 50.5784 65.2744 50.5605C65.3175 50.5427 65.3654 50.5387 65.4111 50.5479Z" fill="#FDC114" stroke="#058FA2" stroke-width="4"/>
<mask id="path-4-inside-2_5108_7892" fill="white">
<path d="M29.6243 39.8934C29.9505 39.8934 30.2633 39.7639 30.4939 39.5332C30.7246 39.3026 30.8541 38.9898 30.8541 38.6636V34.4756C30.8541 32.3798 31.6867 30.3699 33.1686 28.888C34.6505 27.4061 36.6604 26.5735 38.7562 26.5735C40.852 26.5735 42.8619 27.4061 44.3438 28.888C45.8257 30.3699 46.6583 32.3798 46.6583 34.4756V38.6636C46.6583 38.9898 46.7878 39.3026 47.0185 39.5332C47.2491 39.7639 47.5619 39.8934 47.8881 39.8934C48.2142 39.8934 48.527 39.7639 48.7577 39.5332C48.9883 39.3026 49.1179 38.9898 49.1179 38.6636V34.4756C49.1123 32.5163 48.5505 30.5988 47.498 28.9462C46.4455 27.2937 44.9454 25.9738 43.1723 25.1402C44.4899 24.2037 45.4756 22.8726 45.9871 21.3392C46.4986 19.8057 46.5093 18.1494 46.0178 16.6094C45.5263 15.0695 44.5579 13.7257 43.2526 12.7721C41.9473 11.8186 40.3727 11.3047 38.7562 11.3047C37.1397 11.3047 35.5651 11.8186 34.2598 12.7721C32.9545 13.7257 31.9861 15.0695 31.4946 16.6094C31.003 18.1494 31.0138 19.8057 31.5253 21.3392C32.0368 22.8726 33.0225 24.2037 34.3401 25.1402C32.5669 25.9738 31.0669 27.2937 30.0144 28.9462C28.9619 30.5988 28.4001 32.5163 28.3945 34.4756V38.6636C28.3945 38.9898 28.5241 39.3026 28.7547 39.5332C28.9854 39.7639 29.2982 39.8934 29.6243 39.8934ZM33.5933 18.9532C33.5928 17.932 33.8952 16.9335 34.4623 16.0842C35.0293 15.2349 35.8355 14.5728 36.7789 14.1817C37.7222 13.7905 38.7604 13.688 39.7621 13.8869C40.7637 14.0859 41.6839 14.5775 42.4062 15.2994C43.1284 16.0214 43.6204 16.9413 43.8198 17.9429C44.0192 18.9445 43.9171 19.9827 43.5264 20.9262C43.1356 21.8698 42.4739 22.6762 41.6248 23.2436C40.7757 23.811 39.7774 24.1139 38.7562 24.1139C37.3878 24.1121 36.076 23.5679 35.1082 22.6005C34.1404 21.6332 33.5956 20.3216 33.5933 18.9532Z"/>
</mask>
<path d="M30.8541 34.4756H27.8541H30.8541ZM38.7562 26.5735L38.7562 23.5735L38.7562 26.5735ZM46.6583 34.4756H43.6583H46.6583ZM49.1179 34.4756L52.1179 34.4756L52.1179 34.467L49.1179 34.4756ZM43.1723 25.1402L41.4343 22.695L37.2484 25.6703L41.896 27.8552L43.1723 25.1402ZM38.7562 11.3047L38.7562 8.30469L38.7562 11.3047ZM34.3401 25.1402L35.6164 27.8552L40.264 25.6703L36.0781 22.695L34.3401 25.1402ZM28.3945 34.4756L25.3945 34.467V34.4756H28.3945ZM33.5933 18.9532L30.5933 18.9545L30.5933 18.9584L33.5933 18.9532ZM38.7562 24.1139L38.7523 27.1139L38.7562 27.1139L38.7562 24.1139ZM29.6243 39.8934V42.8934C30.7461 42.8934 31.822 42.4478 32.6153 41.6545L30.4939 39.5332L28.3726 37.4119C28.7046 37.0799 29.1549 36.8934 29.6243 36.8934V39.8934ZM30.4939 39.5332L32.6153 41.6545C33.4085 40.8613 33.8541 39.7854 33.8541 38.6636H30.8541H27.8541C27.8541 38.1941 28.0406 37.7439 28.3726 37.4119L30.4939 39.5332ZM30.8541 38.6636H33.8541V34.4756H30.8541H27.8541V38.6636H30.8541ZM30.8541 34.4756L33.8541 34.4756C33.8541 33.1755 34.3706 31.9286 35.2899 31.0093L33.1686 28.888L31.0473 26.7667C29.0027 28.8112 27.8541 31.5842 27.8541 34.4756L30.8541 34.4756ZM33.1686 28.888L35.2899 31.0093C36.2092 30.09 37.4561 29.5735 38.7562 29.5735L38.7562 26.5735L38.7562 23.5735C35.8648 23.5735 33.0918 24.7221 31.0473 26.7667L33.1686 28.888ZM38.7562 26.5735L38.7562 29.5735C40.0563 29.5735 41.3032 30.09 42.2225 31.0093L44.3438 28.888L46.4651 26.7667C44.4206 24.7221 41.6476 23.5735 38.7562 23.5735L38.7562 26.5735ZM44.3438 28.888L42.2225 31.0093C43.1418 31.9286 43.6583 33.1755 43.6583 34.4756L46.6583 34.4756L49.6583 34.4756C49.6583 31.5842 48.5097 28.8112 46.4651 26.7667L44.3438 28.888ZM46.6583 34.4756H43.6583V38.6636H46.6583H49.6583V34.4756H46.6583ZM46.6583 38.6636H43.6583C43.6583 39.7854 44.1039 40.8613 44.8971 41.6545L47.0185 39.5332L49.1398 37.4119C49.4717 37.7439 49.6583 38.1941 49.6583 38.6636H46.6583ZM47.0185 39.5332L44.8971 41.6545C45.6904 42.4478 46.7662 42.8934 47.8881 42.8934V39.8934V36.8934C48.3575 36.8934 48.8078 37.0799 49.1398 37.4119L47.0185 39.5332ZM47.8881 39.8934V42.8934C49.0098 42.8934 50.0857 42.4478 50.879 41.6545L48.7577 39.5332L46.6363 37.4119C46.9683 37.0799 47.4186 36.8934 47.8881 36.8934V39.8934ZM48.7577 39.5332L50.879 41.6545C51.6722 40.8613 52.1179 39.7854 52.1179 38.6636H49.1179H46.1179C46.1179 38.1942 46.3044 37.7439 46.6363 37.4119L48.7577 39.5332ZM49.1179 38.6636H52.1179V34.4756H49.1179H46.1179V38.6636H49.1179ZM49.1179 34.4756L52.1179 34.467C52.1106 31.9397 51.386 29.4664 50.0284 27.3347L47.498 28.9462L44.9676 30.5578C45.715 31.7313 46.1139 33.0929 46.1179 34.4842L49.1179 34.4756ZM47.498 28.9462L50.0284 27.3347C48.6708 25.203 46.7358 23.5005 44.4487 22.4253L43.1723 25.1402L41.896 27.8552C43.1551 28.4471 44.2202 29.3843 44.9676 30.5578L47.498 28.9462ZM43.1723 25.1402L44.9104 27.5855C46.7465 26.2804 48.1202 24.4254 48.833 22.2884L45.9871 21.3392L43.1412 20.3899C42.8311 21.3198 42.2333 22.1271 41.4343 22.695L43.1723 25.1402ZM45.9871 21.3392L48.833 22.2884C49.5458 20.1515 49.5607 17.8432 48.8758 15.6972L46.0178 16.6094L43.1599 17.5217C43.4579 18.4555 43.4514 19.46 43.1412 20.3899L45.9871 21.3392ZM46.0178 16.6094L48.8758 15.6972C48.1908 13.5512 46.8413 11.6785 45.0223 10.3497L43.2526 12.7721L41.483 15.1946C42.2745 15.7728 42.8618 16.5878 43.1599 17.5217L46.0178 16.6094ZM43.2526 12.7721L45.0223 10.3497C43.2033 9.02083 41.0089 8.30469 38.7562 8.30469L38.7562 11.3047L38.7562 14.3047C39.7365 14.3047 40.6914 14.6163 41.483 15.1946L43.2526 12.7721ZM38.7562 11.3047L38.7562 8.30469C36.5035 8.30469 34.3091 9.02083 32.4901 10.3497L34.2598 12.7721L36.0294 15.1946C36.821 14.6163 37.7759 14.3047 38.7562 14.3047L38.7562 11.3047ZM34.2598 12.7721L32.4901 10.3497C30.6711 11.6785 29.3216 13.5512 28.6366 15.6972L31.4946 16.6094L34.3525 17.5217C34.6506 16.5878 35.2379 15.7728 36.0294 15.1946L34.2598 12.7721ZM31.4946 16.6094L28.6366 15.6972C27.9517 17.8432 27.9666 20.1515 28.6794 22.2884L31.5253 21.3392L34.3711 20.3899C34.061 19.46 34.0544 18.4555 34.3525 17.5217L31.4946 16.6094ZM31.5253 21.3392L28.6794 22.2884C29.3922 24.4254 30.7659 26.2804 32.602 27.5855L34.3401 25.1402L36.0781 22.695C35.2791 22.1271 34.6813 21.3198 34.3711 20.3899L31.5253 21.3392ZM34.3401 25.1402L33.0637 22.4253C30.7766 23.5005 28.8416 25.203 27.484 27.3347L30.0144 28.9462L32.5448 30.5578C33.2922 29.3843 34.3573 28.4471 35.6164 27.8552L34.3401 25.1402ZM30.0144 28.9462L27.484 27.3347C26.1264 29.4664 25.4018 31.9397 25.3945 34.467L28.3945 34.4756L31.3945 34.4842C31.3985 33.0929 31.7974 31.7313 32.5448 30.5578L30.0144 28.9462ZM28.3945 34.4756H25.3945V38.6636H28.3945H31.3945V34.4756H28.3945ZM28.3945 38.6636H25.3945C25.3945 39.7854 25.8402 40.8613 26.6334 41.6545L28.7547 39.5332L30.8761 37.4119C31.208 37.7439 31.3945 38.1941 31.3945 38.6636H28.3945ZM28.7547 39.5332L26.6334 41.6545C27.4267 42.4478 28.5025 42.8934 29.6243 42.8934V39.8934V36.8934C30.0938 36.8934 30.5441 37.0799 30.8761 37.4119L28.7547 39.5332ZM33.5933 18.9532L36.5933 18.9519C36.5931 18.5241 36.7198 18.1058 36.9573 17.75L34.4623 16.0842L31.9672 14.4184C31.0707 15.7613 30.5926 17.3399 30.5933 18.9545L33.5933 18.9532ZM34.4623 16.0842L36.9573 17.75C37.1949 17.3942 37.5326 17.1168 37.9278 16.9529L36.7789 14.1817L35.6299 11.4104C34.1384 12.0288 32.8638 13.0756 31.9672 14.4184L34.4623 16.0842ZM36.7789 14.1817L37.9278 16.9529C38.323 16.7891 38.758 16.7461 39.1776 16.8295L39.7621 13.8869L40.3465 10.9444C38.7629 10.6299 37.1214 10.792 35.6299 11.4104L36.7789 14.1817ZM39.7621 13.8869L39.1776 16.8295C39.5972 16.9128 39.9827 17.1187 40.2853 17.4212L42.4062 15.2994L44.527 13.1776C43.3851 12.0362 41.9302 11.259 40.3465 10.9444L39.7621 13.8869ZM42.4062 15.2994L40.2853 17.4212C40.5879 17.7237 40.794 18.1091 40.8775 18.5286L43.8198 17.9429L46.762 17.3571C46.4468 15.7736 45.669 14.3191 44.527 13.1776L42.4062 15.2994ZM43.8198 17.9429L40.8775 18.5286C40.961 18.9482 40.9183 19.3832 40.7546 19.7785L43.5264 20.9262L46.2981 22.074C46.9158 20.5822 47.0773 18.9407 46.762 17.3571L43.8198 17.9429ZM43.5264 20.9262L40.7546 19.7785C40.5909 20.1737 40.3137 20.5116 39.958 20.7493L41.6248 23.2436L43.2917 25.738C44.6341 24.8408 45.6804 23.5658 46.2981 22.074L43.5264 20.9262ZM41.6248 23.2436L39.958 20.7493C39.6023 20.987 39.184 21.1139 38.7562 21.1139L38.7562 24.1139L38.7562 27.1139C40.3708 27.1139 41.9492 26.6351 43.2917 25.738L41.6248 23.2436ZM38.7562 24.1139L38.7601 21.1139C38.1858 21.1132 37.6352 20.8848 37.2291 20.4788L35.1082 22.6005L32.9873 24.7223C34.5167 26.2511 36.5899 27.1111 38.7523 27.1139L38.7562 24.1139ZM35.1082 22.6005L37.2291 20.4788C36.8229 20.0728 36.5942 19.5223 36.5932 18.948L33.5933 18.9532L30.5933 18.9584C30.597 21.1208 31.4579 23.1936 32.9873 24.7223L35.1082 22.6005Z" fill="#FDC114" mask="url(#path-4-inside-2_5108_7892)"/>
</svg>
