<svg width="87" height="81" viewBox="0 0 87 81" fill="none" xmlns="http://www.w3.org/2000/svg">
<path d="M83.8041 1H2.36838C2.18847 1 2.01033 1.03548 1.84415 1.1044C1.67797 1.17332 1.52701 1.27434 1.39991 1.40167C1.27281 1.52899 1.17207 1.68014 1.10345 1.84644C1.03483 2.01275 0.999675 2.19095 1 2.37086V64.4677C1 64.8306 1.14417 65.1787 1.40079 65.4353C1.65741 65.6919 2.00546 65.8361 2.36838 65.8361H32.6791V77.2633H26.5961C26.2474 77.2843 25.9199 77.4376 25.6805 77.6919C25.4411 77.9462 25.3078 78.2823 25.3078 78.6316C25.3078 78.9809 25.4411 79.317 25.6805 79.5713C25.9199 79.8256 26.2474 79.979 26.5961 80H59.5789C59.9275 79.979 60.255 79.8256 60.4944 79.5713C60.7339 79.317 60.8672 78.9809 60.8672 78.6316C60.8672 78.2823 60.7339 77.9462 60.4944 77.6919C60.255 77.4376 59.9275 77.2843 59.5789 77.2633H53.4933V65.8361H83.8041C84.167 65.8361 84.515 65.6919 84.7717 65.4353C85.0283 65.1787 85.1725 64.8306 85.1725 64.4677V2.37086C85.1728 2.19095 85.1376 2.01275 85.069 1.84644C85.0004 1.68014 84.8997 1.52899 84.7726 1.40167C84.6455 1.27434 84.4945 1.17332 84.3283 1.1044C84.1621 1.03548 83.984 1 83.8041 1ZM50.7566 77.2633H35.4159V65.8361H50.7566V77.2633ZM82.4357 63.0993H3.73675V52.6176H82.4357V63.0993ZM82.4357 49.8808H3.73675V3.73924H82.4357V49.8808Z" stroke="#058FA2" stroke-width="2"/>
<path d="M73.5216 58.7388C73.277 58.9023 72.9893 58.9896 72.695 58.9896C72.3004 58.9896 71.9219 58.8328 71.6428 58.5538C71.3638 58.2747 71.207 57.8963 71.207 57.5016C71.207 57.2073 71.2943 56.9197 71.4578 56.675C71.6213 56.4303 71.8537 56.2396 72.1256 56.1269C72.3975 56.0143 72.6966 55.9849 72.9853 56.0423C73.2739 56.0997 73.539 56.2414 73.7471 56.4495C73.9552 56.6576 74.0969 56.9227 74.1544 57.2113C74.2118 57.5 74.1823 57.7991 74.0697 58.071C73.9571 58.3429 73.7663 58.5753 73.5216 58.7388Z" fill="#FDC114" stroke="#FDC114" stroke-width="2"/>
<path d="M47.4221 28.16L46.0268 29.1517L47.576 29.88C49.3776 30.727 50.9017 32.068 51.9711 33.7471C53.0403 35.4258 53.611 37.3735 53.6169 39.3638V44.0222C53.6169 44.1199 53.5781 44.2136 53.5091 44.2827C53.44 44.3518 53.3463 44.3906 53.2486 44.3906C53.1509 44.3906 53.0572 44.3518 52.9881 44.2827C52.919 44.2136 52.8802 44.1199 52.8802 44.0222V39.3623C52.8802 36.7651 51.8485 34.2744 50.0121 32.438C48.1756 30.6015 45.6849 29.5698 43.0878 29.5698C40.4907 29.5698 37.9999 30.6015 36.1635 32.438C34.327 34.2744 33.2953 36.7651 33.2953 39.3623V44.0222C33.2953 44.1199 33.2565 44.2136 33.1874 44.2827C33.1184 44.3518 33.0247 44.3906 32.927 44.3906C32.8293 44.3906 32.7356 44.3518 32.6665 44.2827C32.5974 44.2136 32.5586 44.1199 32.5586 44.0222V39.3637C32.5646 37.3735 33.1353 35.4258 34.2044 33.7471C35.2738 32.068 36.7979 30.727 38.5995 29.88L40.1487 29.1517L38.7534 28.16C37.4602 27.2408 36.4927 25.9343 35.9907 24.4293C35.4887 22.9242 35.4782 21.2985 35.9606 19.7871C36.443 18.2757 37.3935 16.9567 38.6746 16.0208C39.9557 15.0849 41.5012 14.5806 43.0878 14.5806C44.6743 14.5806 46.2198 15.0849 47.501 16.0208C48.7821 16.9567 49.7325 18.2757 50.215 19.7871C50.6974 21.2985 50.6868 22.9242 50.1848 24.4293C49.6828 25.9343 48.7153 27.2408 47.4221 28.16ZM36.3431 22.0913L36.3431 22.0926C36.3462 23.8798 37.0577 25.593 38.3218 26.8565C39.5858 28.12 41.2992 28.8308 43.0865 28.8331H43.0878C44.4219 28.8331 45.726 28.4374 46.8352 27.6962C47.9444 26.9549 48.8089 25.9014 49.3193 24.6688C49.8297 23.4362 49.9631 22.0799 49.7026 20.7715C49.4422 19.4631 48.7995 18.2613 47.8559 17.3181C46.9124 16.375 45.7103 15.7329 44.4018 15.4729C43.0933 15.213 41.737 15.347 40.5047 15.858C39.2723 16.3689 38.2191 17.2338 37.4784 18.3434C36.7376 19.4529 36.3425 20.7572 36.3431 22.0913Z" fill="#FDC114" stroke="#FDD304" stroke-width="2"/>
</svg>
