<svg width="84" height="84" viewBox="0 0 84 84" fill="none" xmlns="http://www.w3.org/2000/svg">
<mask id="path-1-inside-1_1088_7970" fill="white">
<path d="M68.8494 15.9517H15.1484C15.0298 15.9517 14.9123 15.9751 14.8027 16.0205C14.6932 16.066 14.5936 16.1326 14.5098 16.2165C14.426 16.3005 14.3596 16.4002 14.3143 16.5098C14.2691 16.6195 14.2459 16.737 14.2461 16.8556V57.804C14.2461 58.0433 14.3412 58.2728 14.5104 58.4421C14.6796 58.6113 14.9091 58.7063 15.1484 58.7063H35.1362V66.2417H31.1248C30.8949 66.2556 30.679 66.3567 30.5211 66.5244C30.3632 66.6921 30.2753 66.9138 30.2753 67.1441C30.2753 67.3744 30.3632 67.5961 30.5211 67.7637C30.679 67.9314 30.8949 68.0326 31.1248 68.0464H52.8746C53.1045 68.0326 53.3205 67.9314 53.4784 67.7637C53.6362 67.5961 53.7242 67.3744 53.7242 67.1441C53.7242 66.9138 53.6362 66.6921 53.4784 66.5244C53.3205 66.3567 53.1045 66.2556 52.8746 66.2417H48.8616V58.7063H68.8494C69.0887 58.7063 69.3182 58.6113 69.4874 58.4421C69.6567 58.2728 69.7517 58.0433 69.7517 57.804V16.8556C69.7519 16.737 69.7288 16.6195 69.6835 16.5098C69.6383 16.4002 69.5718 16.3005 69.488 16.2165C69.4042 16.1326 69.3046 16.066 69.1951 16.0205C69.0855 15.9751 68.968 15.9517 68.8494 15.9517ZM47.057 66.2417H36.9409V58.7063H47.057V66.2417ZM67.947 56.9017H16.0508V49.9897H67.947V56.9017ZM67.947 48.185H16.0508V17.758H67.947V48.185Z"/>
</mask>
<path d="M68.8494 15.9517H15.1484C15.0298 15.9517 14.9123 15.9751 14.8027 16.0205C14.6932 16.066 14.5936 16.1326 14.5098 16.2165C14.426 16.3005 14.3596 16.4002 14.3143 16.5098C14.2691 16.6195 14.2459 16.737 14.2461 16.8556V57.804C14.2461 58.0433 14.3412 58.2728 14.5104 58.4421C14.6796 58.6113 14.9091 58.7063 15.1484 58.7063H35.1362V66.2417H31.1248C30.8949 66.2556 30.679 66.3567 30.5211 66.5244C30.3632 66.6921 30.2753 66.9138 30.2753 67.1441C30.2753 67.3744 30.3632 67.5961 30.5211 67.7637C30.679 67.9314 30.8949 68.0326 31.1248 68.0464H52.8746C53.1045 68.0326 53.3205 67.9314 53.4784 67.7637C53.6362 67.5961 53.7242 67.3744 53.7242 67.1441C53.7242 66.9138 53.6362 66.6921 53.4784 66.5244C53.3205 66.3567 53.1045 66.2556 52.8746 66.2417H48.8616V58.7063H68.8494C69.0887 58.7063 69.3182 58.6113 69.4874 58.4421C69.6567 58.2728 69.7517 58.0433 69.7517 57.804V16.8556C69.7519 16.737 69.7288 16.6195 69.6835 16.5098C69.6383 16.4002 69.5718 16.3005 69.488 16.2165C69.4042 16.1326 69.3046 16.066 69.1951 16.0205C69.0855 15.9751 68.968 15.9517 68.8494 15.9517ZM47.057 66.2417H36.9409V58.7063H47.057V66.2417ZM67.947 56.9017H16.0508V49.9897H67.947V56.9017ZM67.947 48.185H16.0508V17.758H67.947V48.185Z" fill="#058FA2"/>
<path d="M68.8494 15.9517V17.9517H68.8494L68.8494 15.9517ZM15.1484 15.9517L15.1484 17.9517H15.1484V15.9517ZM14.2461 16.8556H16.2461L16.2461 16.852L14.2461 16.8556ZM35.1362 58.7063H37.1362V56.7063H35.1362V58.7063ZM35.1362 66.2417V68.2417H37.1362V66.2417H35.1362ZM31.1248 66.2417V64.2417H31.0646L31.0044 64.2454L31.1248 66.2417ZM30.2753 67.1441H28.2753H30.2753ZM31.1248 68.0464L31.0044 70.0428L31.0646 70.0464H31.1248V68.0464ZM52.8746 68.0464V70.0464H52.9349L52.9951 70.0428L52.8746 68.0464ZM53.7242 67.1441H51.7242H53.7242ZM52.8746 66.2417L52.9951 64.2454L52.9349 64.2417H52.8746V66.2417ZM48.8616 66.2417H46.8616V68.2417H48.8616V66.2417ZM48.8616 58.7063V56.7063H46.8616V58.7063H48.8616ZM68.8494 58.7063V56.7063V58.7063ZM69.7517 16.8556L67.7517 16.852V16.8556H69.7517ZM47.057 66.2417V68.2417H49.057V66.2417H47.057ZM36.9409 66.2417H34.9409V68.2417H36.9409V66.2417ZM36.9409 58.7063V56.7063H34.9409V58.7063H36.9409ZM47.057 58.7063H49.057V56.7063H47.057V58.7063ZM67.947 56.9017V58.9017H69.947V56.9017H67.947ZM16.0508 56.9017H14.0508V58.9017H16.0508V56.9017ZM16.0508 49.9897V47.9897H14.0508V49.9897H16.0508ZM67.947 49.9897H69.947V47.9897H67.947V49.9897ZM67.947 48.185V50.185H69.947V48.185H67.947ZM16.0508 48.185H14.0508V50.185H16.0508V48.185ZM16.0508 17.758V15.758H14.0508V17.758H16.0508ZM67.947 17.758H69.947V15.758H67.947V17.758ZM68.8494 13.9517H15.1484V17.9517H68.8494V13.9517ZM15.1484 13.9517C14.7669 13.9517 14.389 14.0269 14.0365 14.1731L15.569 17.8679C15.4356 17.9232 15.2927 17.9517 15.1484 17.9517L15.1484 13.9517ZM14.0365 14.1731C13.6841 14.3193 13.3639 14.5335 13.0943 14.8036L15.9253 17.6295C15.8233 17.7316 15.7023 17.8126 15.569 17.8679L14.0365 14.1731ZM13.0943 14.8036C12.8247 15.0737 12.6111 15.3943 12.4655 15.747L16.1631 17.2727C16.1081 17.4061 16.0273 17.5273 15.9253 17.6295L13.0943 14.8036ZM12.4655 15.747C12.32 16.0997 12.2454 16.4777 12.2461 16.8593L16.2461 16.852C16.2464 16.9963 16.2182 17.1393 16.1631 17.2727L12.4655 15.747ZM12.2461 16.8556V57.804H16.2461V16.8556H12.2461ZM12.2461 57.804C12.2461 58.5738 12.5519 59.312 13.0962 59.8563L15.9246 57.0278C16.1304 57.2337 16.2461 57.5129 16.2461 57.804H12.2461ZM13.0962 59.8563C13.6405 60.4006 14.3787 60.7063 15.1484 60.7063V56.7063C15.4395 56.7063 15.7187 56.822 15.9246 57.0278L13.0962 59.8563ZM15.1484 60.7063H35.1362V56.7063H15.1484V60.7063ZM33.1362 58.7063V66.2417H37.1362V58.7063H33.1362ZM35.1362 64.2417H31.1248V68.2417H35.1362V64.2417ZM31.0044 64.2454C30.2659 64.2899 29.5721 64.6147 29.0649 65.1534L31.9773 67.8954C31.7858 68.0987 31.524 68.2213 31.2453 68.2381L31.0044 64.2454ZM29.0649 65.1534C28.5577 65.6922 28.2753 66.4042 28.2753 67.1441H32.2753C32.2753 67.4233 32.1687 67.6921 31.9773 67.8954L29.0649 65.1534ZM28.2753 67.1441C28.2753 67.884 28.5577 68.596 29.0649 69.1347L31.9773 66.3928C32.1687 66.5961 32.2753 66.8648 32.2753 67.1441H28.2753ZM29.0649 69.1347C29.5721 69.6734 30.2658 69.9982 31.0044 70.0428L31.2453 66.0501C31.524 66.0669 31.7859 66.1895 31.9773 66.3928L29.0649 69.1347ZM31.1248 70.0464H52.8746V66.0464H31.1248V70.0464ZM52.9951 70.0428C53.7336 69.9982 54.4273 69.6734 54.9345 69.1347L52.0222 66.3928C52.2136 66.1895 52.4754 66.0669 52.7542 66.0501L52.9951 70.0428ZM54.9345 69.1347C55.4417 68.596 55.7242 67.884 55.7242 67.1441H51.7242C51.7242 66.8648 51.8308 66.5961 52.0222 66.3928L54.9345 69.1347ZM55.7242 67.1441C55.7242 66.4042 55.4417 65.6922 54.9345 65.1534L52.0222 67.8954C51.8308 67.6921 51.7242 67.4233 51.7242 67.1441H55.7242ZM54.9345 65.1534C54.4273 64.6147 53.7336 64.2899 52.9951 64.2454L52.7542 68.2381C52.4754 68.2213 52.2136 68.0987 52.0222 67.8954L54.9345 65.1534ZM52.8746 64.2417H48.8616V68.2417H52.8746V64.2417ZM50.8616 66.2417V58.7063H46.8616V66.2417H50.8616ZM48.8616 60.7063H68.8494V56.7063H48.8616V60.7063ZM68.8494 60.7063C69.6191 60.7063 70.3573 60.4006 70.9016 59.8563L68.0732 57.0278C68.2791 56.822 68.5583 56.7063 68.8494 56.7063V60.7063ZM70.9016 59.8563C71.4459 59.312 71.7517 58.5738 71.7517 57.804H67.7517C67.7517 57.5129 67.8674 57.2337 68.0732 57.0278L70.9016 59.8563ZM71.7517 57.804V16.8556H67.7517V57.804H71.7517ZM71.7517 16.8593C71.7524 16.4777 71.6778 16.0997 71.5323 15.747L67.8347 17.2727C67.7797 17.1393 67.7515 16.9963 67.7517 16.852L71.7517 16.8593ZM71.5323 15.747C71.3868 15.3942 71.1731 15.0737 70.9035 14.8036L68.0725 17.6295C67.9706 17.5273 67.8897 17.4061 67.8347 17.2727L71.5323 15.747ZM70.9035 14.8036C70.6339 14.5335 70.3137 14.3193 69.9613 14.1731L68.4289 17.8679C68.2956 17.8126 68.1745 17.7316 68.0725 17.6295L70.9035 14.8036ZM69.9613 14.1731C69.6088 14.0269 69.231 13.9517 68.8494 13.9517L68.8494 17.9517C68.7051 17.9517 68.5622 17.9232 68.4289 17.8679L69.9613 14.1731ZM47.057 64.2417H36.9409V68.2417H47.057V64.2417ZM38.9409 66.2417V58.7063H34.9409V66.2417H38.9409ZM36.9409 60.7063H47.057V56.7063H36.9409V60.7063ZM45.057 58.7063V66.2417H49.057V58.7063H45.057ZM67.947 54.9017H16.0508V58.9017H67.947V54.9017ZM18.0508 56.9017V49.9897H14.0508V56.9017H18.0508ZM16.0508 51.9897H67.947V47.9897H16.0508V51.9897ZM65.947 49.9897V56.9017H69.947V49.9897H65.947ZM67.947 46.185H16.0508V50.185H67.947V46.185ZM18.0508 48.185V17.758H14.0508V48.185H18.0508ZM16.0508 19.758H67.947V15.758H16.0508V19.758ZM65.947 17.758V48.185H69.947V17.758H65.947Z" fill="#058FA2" mask="url(#path-1-inside-1_1088_7970)"/>
<path d="M61.8793 53.7431C61.774 53.8135 61.6501 53.8511 61.5234 53.8511C61.3535 53.8511 61.1906 53.7836 61.0704 53.6634C60.9503 53.5433 60.8828 53.3804 60.8828 53.2104C60.8828 53.0837 60.9204 52.9599 60.9908 52.8545C61.0612 52.7492 61.1612 52.6671 61.2783 52.6186C61.3953 52.5701 61.5241 52.5574 61.6484 52.5821C61.7727 52.6069 61.8868 52.6679 61.9764 52.7575C62.066 52.8471 62.127 52.9612 62.1518 53.0855C62.1765 53.2097 62.1638 53.3385 62.1153 53.4556C62.0668 53.5727 61.9847 53.6727 61.8793 53.7431Z" fill="#FDC114" stroke="#FDC114" stroke-width="2"/>
<path d="M43.0438 34.5309C43.202 34.4956 43.3582 34.4523 43.512 34.4012L43.2736 34.5706C43.1973 34.5561 43.1207 34.5428 43.0438 34.5309ZM40.4866 34.3986C40.6421 34.4506 40.8004 34.4947 40.961 34.5305C40.8832 34.5426 40.8057 34.5559 40.7286 34.5706L40.4866 34.3986Z" fill="#058FA2" stroke="#058FA2" stroke-width="2"/>
</svg>
