<svg width="55" height="61" viewBox="0 0 55 61" fill="none" xmlns="http://www.w3.org/2000/svg">
<mask id="path-1-inside-1_14_30310" fill="white">
<path d="M4.24609 56.6043H50.7559V43.2012H4.24609V56.6043ZM5.38516 44.3406H49.6169V55.4652H5.38516V44.3406Z"/>
</mask>
<path d="M4.24609 56.6043H1.24609V59.6043H4.24609V56.6043ZM50.7559 56.6043V59.6043H53.7559V56.6043H50.7559ZM50.7559 43.2012H53.7559V40.2012H50.7559V43.2012ZM4.24609 43.2012V40.2012H1.24609V43.2012H4.24609ZM5.38516 44.3406V41.3406H2.38516V44.3406H5.38516ZM49.6169 44.3406H52.6169V41.3406H49.6169V44.3406ZM49.6169 55.4652V58.4652H52.6169V55.4652H49.6169ZM5.38516 55.4652H2.38516V58.4652H5.38516V55.4652ZM4.24609 56.6043V59.6043H50.7559V56.6043V53.6043H4.24609V56.6043ZM50.7559 56.6043H53.7559V43.2012H50.7559H47.7559V56.6043H50.7559ZM50.7559 43.2012V40.2012H4.24609V43.2012V46.2012H50.7559V43.2012ZM4.24609 43.2012H1.24609V56.6043H4.24609H7.24609V43.2012H4.24609ZM5.38516 44.3406V47.3405H49.6169V44.3406V41.3406H5.38516V44.3406ZM49.6169 44.3406H46.6169V55.4652H49.6169H52.6169V44.3406H49.6169ZM49.6169 55.4652V52.4652H5.38516V55.4652V58.4652H49.6169V55.4652ZM5.38516 55.4652H8.38516V44.3406H5.38516H2.38516V55.4652H5.38516Z" fill="#058FA2" mask="url(#path-1-inside-1_14_30310)"/>
<mask id="path-3-inside-2_14_30310" fill="white">
<path d="M52.9462 0.601562H2.05593C1.16999 0.601562 0.449219 1.3225 0.449219 2.20827V38.9361C0.449219 39.0986 0.473899 39.2557 0.519145 39.4036H0.449219V60.4004H54.5528V39.4036H54.483C54.5281 39.2555 54.5528 39.0986 54.5528 38.9361V29.7843V18.6468V2.20827C54.5528 1.3225 53.832 0.601562 52.9462 0.601562ZM1.58828 2.20827C1.58828 1.9504 1.79806 1.74063 2.05593 1.74063H26.5432V7.50935H1.58828V2.20827ZM9.01434 12.4453C9.57264 12.4453 10.0268 12.8995 10.0268 13.4578V25.9479C10.0268 25.9698 10.0091 25.9875 9.98729 25.9875H8.04139C8.01956 25.9875 8.00184 25.9696 8.00184 25.9479V13.4578C8.00184 12.8995 8.45604 12.4453 9.01434 12.4453ZM1.58828 8.64841H8.24357V11.4515C7.43737 11.7622 6.86277 12.5432 6.86277 13.4578V25.9479C6.86277 26.5978 7.39133 27.1265 8.04139 27.1265H9.98729C10.6372 27.1265 11.1659 26.5978 11.1659 25.9479V13.4578C11.1659 12.3972 10.3939 11.5157 9.38279 11.3401V8.64841H17.9574V11.388C17.0526 11.6424 16.3868 12.4728 16.3868 13.4578V25.9479C16.3868 26.5978 16.9155 27.1265 17.5654 27.1265H19.5113C20.1612 27.1265 20.6899 26.5978 20.6899 25.9479V13.4578C20.6899 12.4647 20.0126 11.629 19.0965 11.3822V8.64841H26.5434V18.6468L26.5428 29.7843L26.5434 39.4036H21.7029C21.8204 39.1533 21.8881 38.8749 21.8881 38.5804C21.8881 38.2922 21.8234 38.0193 21.7105 37.773H22.1398C23.2132 37.773 24.0865 36.8995 24.0865 35.8263C24.0865 34.753 23.2132 33.8796 22.1398 33.8796H21.4819C21.5948 33.6331 21.6595 33.3604 21.6595 33.0721C21.6595 31.9987 20.7861 31.1254 19.7128 31.1254H7.40604C6.33264 31.1254 5.45935 31.9987 5.45935 33.0721C5.45935 34.1454 6.33264 35.0188 7.40604 35.0188H8.06401C7.95106 35.2651 7.88635 35.538 7.88635 35.8263C7.88635 36.1145 7.95106 36.3874 8.06401 36.6338H7.63465C6.56124 36.6338 5.68796 37.5072 5.68796 38.5804C5.68796 38.8749 5.75567 39.1533 5.87306 39.4036H2.05593C1.79806 39.4036 1.58828 39.194 1.58828 38.9361V8.64841ZM18.5382 12.4453C19.0965 12.4453 19.5507 12.8995 19.5507 13.4578V25.9479C19.5507 25.9698 19.5329 25.9875 19.5111 25.9875H17.5652C17.5434 25.9875 17.5257 25.9696 17.5257 25.9479V13.4578C17.5257 12.8995 17.9799 12.4453 18.5382 12.4453ZM19.9414 36.6339H9.83288C9.38754 36.6339 9.02541 36.2716 9.02541 35.8264C9.02541 35.3811 9.3877 35.019 9.83288 35.019H19.7128H22.1397C22.585 35.019 22.9471 35.3811 22.9471 35.8264C22.9471 36.2716 22.5848 36.6339 22.1397 36.6339H19.9414ZM20.7491 38.5804C20.7491 39.0256 20.3868 39.3879 19.9416 39.3879H7.63481C7.18946 39.3879 6.82734 39.0256 6.82734 38.5804C6.82734 38.1353 7.18962 37.773 7.63481 37.773H9.8332H19.9417C20.3868 37.773 20.7491 38.1353 20.7491 38.5804ZM7.40604 33.8796C6.9607 33.8796 6.59858 33.5173 6.59858 33.0721C6.59858 32.6269 6.96086 32.2645 7.40604 32.2645H19.7128C20.158 32.2645 20.5203 32.6269 20.5203 33.0721C20.5203 33.5173 20.158 33.8796 19.7128 33.8796H9.83288H7.40604ZM53.4137 59.2614H1.58828V40.543H2.05593H52.9462H53.4137V59.2614ZM53.4137 38.9361C53.4137 39.194 53.2041 39.4036 52.9462 39.4036H27.6823V29.7843H53.4136L53.4137 38.9361ZM53.4137 28.6453H27.6823V19.7859H53.4136L53.4137 28.6453ZM53.4137 18.6468H27.6823V1.74063H52.9461C53.204 1.74063 53.4136 1.9504 53.4136 2.20827L53.4137 18.6468Z"/>
</mask>
<path d="M52.9462 0.601562H2.05593C1.16999 0.601562 0.449219 1.3225 0.449219 2.20827V38.9361C0.449219 39.0986 0.473899 39.2557 0.519145 39.4036H0.449219V60.4004H54.5528V39.4036H54.483C54.5281 39.2555 54.5528 39.0986 54.5528 38.9361V29.7843V18.6468V2.20827C54.5528 1.3225 53.832 0.601562 52.9462 0.601562ZM1.58828 2.20827C1.58828 1.9504 1.79806 1.74063 2.05593 1.74063H26.5432V7.50935H1.58828V2.20827ZM9.01434 12.4453C9.57264 12.4453 10.0268 12.8995 10.0268 13.4578V25.9479C10.0268 25.9698 10.0091 25.9875 9.98729 25.9875H8.04139C8.01956 25.9875 8.00184 25.9696 8.00184 25.9479V13.4578C8.00184 12.8995 8.45604 12.4453 9.01434 12.4453ZM1.58828 8.64841H8.24357V11.4515C7.43737 11.7622 6.86277 12.5432 6.86277 13.4578V25.9479C6.86277 26.5978 7.39133 27.1265 8.04139 27.1265H9.98729C10.6372 27.1265 11.1659 26.5978 11.1659 25.9479V13.4578C11.1659 12.3972 10.3939 11.5157 9.38279 11.3401V8.64841H17.9574V11.388C17.0526 11.6424 16.3868 12.4728 16.3868 13.4578V25.9479C16.3868 26.5978 16.9155 27.1265 17.5654 27.1265H19.5113C20.1612 27.1265 20.6899 26.5978 20.6899 25.9479V13.4578C20.6899 12.4647 20.0126 11.629 19.0965 11.3822V8.64841H26.5434V18.6468L26.5428 29.7843L26.5434 39.4036H21.7029C21.8204 39.1533 21.8881 38.8749 21.8881 38.5804C21.8881 38.2922 21.8234 38.0193 21.7105 37.773H22.1398C23.2132 37.773 24.0865 36.8995 24.0865 35.8263C24.0865 34.753 23.2132 33.8796 22.1398 33.8796H21.4819C21.5948 33.6331 21.6595 33.3604 21.6595 33.0721C21.6595 31.9987 20.7861 31.1254 19.7128 31.1254H7.40604C6.33264 31.1254 5.45935 31.9987 5.45935 33.0721C5.45935 34.1454 6.33264 35.0188 7.40604 35.0188H8.06401C7.95106 35.2651 7.88635 35.538 7.88635 35.8263C7.88635 36.1145 7.95106 36.3874 8.06401 36.6338H7.63465C6.56124 36.6338 5.68796 37.5072 5.68796 38.5804C5.68796 38.8749 5.75567 39.1533 5.87306 39.4036H2.05593C1.79806 39.4036 1.58828 39.194 1.58828 38.9361V8.64841ZM18.5382 12.4453C19.0965 12.4453 19.5507 12.8995 19.5507 13.4578V25.9479C19.5507 25.9698 19.5329 25.9875 19.5111 25.9875H17.5652C17.5434 25.9875 17.5257 25.9696 17.5257 25.9479V13.4578C17.5257 12.8995 17.9799 12.4453 18.5382 12.4453ZM19.9414 36.6339H9.83288C9.38754 36.6339 9.02541 36.2716 9.02541 35.8264C9.02541 35.3811 9.3877 35.019 9.83288 35.019H19.7128H22.1397C22.585 35.019 22.9471 35.3811 22.9471 35.8264C22.9471 36.2716 22.5848 36.6339 22.1397 36.6339H19.9414ZM20.7491 38.5804C20.7491 39.0256 20.3868 39.3879 19.9416 39.3879H7.63481C7.18946 39.3879 6.82734 39.0256 6.82734 38.5804C6.82734 38.1353 7.18962 37.773 7.63481 37.773H9.8332H19.9417C20.3868 37.773 20.7491 38.1353 20.7491 38.5804ZM7.40604 33.8796C6.9607 33.8796 6.59858 33.5173 6.59858 33.0721C6.59858 32.6269 6.96086 32.2645 7.40604 32.2645H19.7128C20.158 32.2645 20.5203 32.6269 20.5203 33.0721C20.5203 33.5173 20.158 33.8796 19.7128 33.8796H9.83288H7.40604ZM53.4137 59.2614H1.58828V40.543H2.05593H52.9462H53.4137V59.2614ZM53.4137 38.9361C53.4137 39.194 53.2041 39.4036 52.9462 39.4036H27.6823V29.7843H53.4136L53.4137 38.9361ZM53.4137 28.6453H27.6823V19.7859H53.4136L53.4137 28.6453ZM53.4137 18.6468H27.6823V1.74063H52.9461C53.204 1.74063 53.4136 1.9504 53.4136 2.20827L53.4137 18.6468Z" stroke="#058FA2" stroke-width="6" stroke-miterlimit="3.8637" mask="url(#path-3-inside-2_14_30310)"/>
<mask id="path-4-inside-3_14_30310" fill="white">
<path d="M29.8336 49.332H24.6445V50.4713H29.8336V49.332Z"/>
</mask>
<path d="M24.6445 49.332V46.332H21.6445V49.332H24.6445ZM29.8336 49.332H32.8336V46.332H29.8336V49.332ZM29.8336 50.4713V53.4713H32.8336V50.4713H29.8336ZM24.6445 50.4713H21.6445V53.4713H24.6445V50.4713ZM24.6445 49.332V52.332H29.8336V49.332V46.332H24.6445V49.332ZM29.8336 49.332H26.8336V50.4713H29.8336H32.8336V49.332H29.8336ZM29.8336 50.4713V47.4713H24.6445V50.4713V53.4713H29.8336V50.4713ZM24.6445 50.4713H27.6445V49.332H24.6445H21.6445V50.4713H24.6445Z" fill="#058FA2" mask="url(#path-4-inside-3_14_30310)"/>
<rect x="4.5" y="43.5" width="46" height="13" stroke="#FDC114"/>
</svg>
