<svg width="88" height="86" viewBox="0 0 88 86" fill="none" xmlns="http://www.w3.org/2000/svg">
<path fill-rule="evenodd" clip-rule="evenodd" d="M31.6322 0.154254C29.5473 0.662957 27.9299 1.99337 27.096 3.8862L26.6136 4.98105H16.5492C5.14785 4.98105 5.15107 4.98059 3.21682 6.72428C2.55099 7.32426 1.87459 8.22665 1.54857 8.9504L1 10.1672V45.5481V80.9291L1.55708 82.0638C2.2659 83.5079 3.46765 84.7125 4.91817 85.4334L6.05807 86H32.9578H59.8576L61.0713 85.45C62.5643 84.7738 64.1645 83.0494 64.6646 81.5782C64.9669 80.6887 65.0306 79.3143 65.0306 73.6842V66.8671L75.507 56.3805C81.2691 50.6128 86.1697 45.5309 86.3968 45.0872C87.0686 43.7759 87.1691 42.6702 86.7488 41.2208C86.4256 40.1059 86.0943 39.638 84.4879 38.0273C82.8812 36.4169 82.4145 36.0847 81.3024 35.7606C79.7744 35.3153 78.6704 35.4439 77.3309 36.2237C76.8251 36.5183 73.9291 39.2552 70.8952 42.306C67.8613 45.3568 65.3031 47.8531 65.2099 47.8531C65.1171 47.8531 65.0127 39.2702 64.9782 28.7796L64.9157 9.70619L64.2365 8.47696C63.4946 7.13433 62.7182 6.38384 61.2637 5.60385C60.334 5.10529 60.1344 5.09514 49.8557 5.02991L39.3938 4.96376L38.9535 3.89634C37.8311 1.17581 34.4752 -0.539305 31.6322 0.154254ZM31.3034 3.58794C30.3817 4.15127 29.869 4.92688 29.5873 6.18308C29.1882 7.9648 29.1532 7.97748 24.6453 7.97748H20.6575V11.2044V14.4313H33.0792H45.5009L45.437 11.262L45.3731 8.09273L41.303 7.97748C38.6599 7.90257 37.1392 7.76819 36.9661 7.59417C36.8194 7.44688 36.6095 6.84299 36.4994 6.25223C36.2621 4.97851 35.5866 3.95166 34.6755 3.47937C33.7492 2.99925 32.1842 3.0495 31.3034 3.58794ZM6.40317 8.23633C6.08704 8.36287 5.58583 8.6934 5.28902 8.97091C4.03254 10.1471 4.10382 7.9436 4.10474 45.5942C4.10543 79.9864 4.11187 80.4785 4.56249 81.2193C4.81379 81.6326 5.35638 82.1766 5.76861 82.4285C6.50479 82.8786 6.98048 82.8867 32.9266 82.8874L59.3352 82.8883L60.2287 82.3849C61.8679 81.4613 62.0418 80.7484 62.0418 74.9519V69.9269L61.1582 70.7272L60.2746 71.5275L56.1576 71.692C53.8932 71.7824 51.8566 71.7851 51.6318 71.6982C50.8188 71.3832 50.734 70.7751 50.8988 66.4462L51.0584 62.259L56.5537 56.7172L62.0491 51.1757L61.9879 30.7866L61.9268 10.3977L61.3748 9.6216C60.3241 8.14505 59.5911 7.98832 53.7074 7.98255L48.4769 7.97748V12.2416C48.4769 16.1985 48.4438 16.539 48.0171 16.9668C47.5669 17.4181 47.2508 17.4278 32.9935 17.4278C19.1762 17.4278 18.4101 17.4061 18.0492 17.0062C17.7236 16.6457 17.6687 15.9623 17.6687 12.2811V7.97748L12.3232 7.992C9.3472 8.0003 6.72298 8.10863 6.40317 8.23633ZM77.8312 39.7777L76.6412 40.9221L79.1208 43.408L81.6004 45.8939L82.7419 44.7008C83.6958 43.704 83.8834 43.3661 83.8834 42.6444C83.8834 41.8844 83.6949 41.5917 82.3136 40.2071C80.9325 38.8223 80.6405 38.6333 79.8825 38.6333C79.1626 38.6333 78.8256 38.8214 77.8312 39.7777ZM64.1769 53.4426L54.0139 63.642L53.975 66.1491L53.9364 68.6562L56.4372 68.6175L58.9379 68.579L69.1667 58.3332L79.3958 48.0873L76.9879 45.6652C75.6636 44.3332 74.5262 43.2432 74.4602 43.2432C74.3943 43.2432 69.7668 47.833 64.1769 53.4426ZM20.5874 59.4034C19.6928 59.925 19.6542 61.3882 20.5196 61.9674C20.6587 62.0606 26.3175 62.1382 33.0946 62.1403C44.7427 62.1435 45.4377 62.1207 45.7973 61.7222C46.3134 61.1506 46.2767 60.1684 45.718 59.6083C45.2696 59.1589 44.9565 59.1476 33.1303 59.1543C25.087 59.1591 20.8626 59.243 20.5874 59.4034ZM20.2145 69.4355C19.9524 69.7695 19.7379 70.1703 19.7379 70.3263C19.7379 70.4824 19.9524 70.8832 20.2145 71.2172L20.6909 71.8246H32.9746C44.9517 71.8246 45.2696 71.813 45.718 71.3636C46.3429 70.7371 46.3171 69.6436 45.6667 69.187C45.22 68.8731 43.6225 68.8281 32.9233 68.8281H20.6909L20.2145 69.4355Z" fill="white"/>
<path fill-rule="evenodd" clip-rule="evenodd" d="M29.0032 23.5481C23.7205 24.8029 19.311 29.299 18.09 34.6757C17.5943 36.8592 17.7461 40.208 18.4363 42.3212C19.6623 46.0732 22.483 49.2614 26.0672 50.9461C28.6541 52.162 30.0094 52.463 32.8984 52.463C37.098 52.463 40.267 51.1708 43.3004 48.2214C45.5537 46.0306 46.9241 43.5721 47.5148 40.6598C47.9654 38.4395 47.9677 37.3089 47.5266 35.0233C46.4811 29.605 41.9578 24.905 36.4746 23.5393C34.7379 23.1069 30.8418 23.1113 29.0032 23.5481ZM29.6869 26.5328C26.4133 27.4144 23.5229 29.7722 22.0887 32.7308C20.4579 36.0951 20.4567 39.5378 22.0845 42.8975C22.8164 44.4077 24.8356 46.9311 25.3122 46.9311C25.4296 46.9311 25.5256 46.3646 25.5256 45.6722C25.5256 43.9907 26.2608 42.155 27.431 40.915C28.1921 40.1085 28.3344 39.8303 28.1269 39.5553C27.9836 39.3651 27.5907 38.6527 27.2541 37.9722C25.7447 34.9212 27.5759 30.9889 30.9653 30.0027C32.4239 29.5783 33.0831 29.5585 34.3434 29.9012C38.3261 30.9846 40.1411 35.8362 37.7655 39.0491L37.0921 39.9598L37.9993 40.8276C39.1483 41.9271 39.8557 43.5315 40.039 45.4543L40.1825 46.9606L41.3379 45.851C42.8682 44.3812 44.2697 41.6037 44.5724 39.44C45.5615 32.3735 39.9665 26.1285 32.717 26.2071C31.6732 26.2186 30.3094 26.365 29.6869 26.5328ZM31.9863 32.888C30.2082 33.3886 29.3041 35.4509 30.1798 37.0083C31.1784 38.7843 33.3694 39.0618 34.8605 37.6009C35.538 36.9371 35.6418 36.6817 35.6418 35.6777C35.6418 34.0301 34.8485 33.1358 33.0539 32.7605C32.8598 32.72 32.3794 32.7773 31.9863 32.888ZM31.0542 42.0504C29.2404 42.8912 28.584 44.1836 28.584 46.9148V48.7573L29.8031 49.1118C31.3775 49.5701 34.2749 49.5657 35.866 49.1026L37.1164 48.7389L36.9985 46.7105C36.8623 44.3705 36.3454 43.2208 35.0339 42.3403C33.9305 41.5995 32.2851 41.4797 31.0542 42.0504ZM20.0429 59.4034C19.1275 59.925 19.088 61.3882 19.9735 61.9674C20.1158 62.0606 25.9063 62.1382 32.841 62.1403C44.76 62.1435 45.4711 62.1207 45.8391 61.7222C46.3672 61.1506 46.3296 60.1684 45.7579 59.6083C45.2992 59.1589 44.9787 59.1476 32.8775 59.1543C24.6472 59.1591 20.3245 59.243 20.0429 59.4034ZM19.6613 69.4355C19.3931 69.7695 19.1736 70.1703 19.1736 70.3263C19.1736 70.4824 19.3931 70.8832 19.6613 71.2172L20.1488 71.8246H32.7182C44.9738 71.8246 45.2992 71.813 45.7579 71.3636C46.3974 70.7371 46.371 69.6436 45.7055 69.187C45.2484 68.8731 43.6138 68.8281 32.6657 68.8281H20.1488L19.6613 69.4355Z" fill="#FDD304"/>
</svg>
