<svg width="61" height="93" viewBox="0 0 61 93" fill="none" xmlns="http://www.w3.org/2000/svg">
<path fill-rule="evenodd" clip-rule="evenodd" d="M9.12945 0.117124C4.77908 0.651065 1.2696 3.77076 0.271641 7.99093C0.0398669 8.97103 0.00242522 13.8759 5.08623e-05 43.4921C-0.00195821 68.0326 0.0553915 78.1318 0.200593 78.8211C0.852993 81.9191 3.13877 84.741 6.05831 86.0528C7.90793 86.8837 8.75138 86.9793 14.2392 86.9793H19.331L19.7094 86.4995C20.1799 85.9032 20.1876 85.5033 19.7392 84.9508L19.3905 84.5209L13.8489 84.4298L8.30756 84.3388L7.07965 83.7587C5.37304 82.9527 4.1581 81.7636 3.32616 80.0853L2.64563 78.7124L2.5976 44.0248C2.54536 6.1795 2.49386 8.19197 3.55885 6.38018C4.23919 5.22252 5.60828 3.98601 6.92513 3.33952L8.11724 2.75441H27.8465H47.5758L48.807 3.33588C50.3771 4.07761 51.6312 5.32632 52.4304 6.94435L53.055 8.20854L53.1464 15.0829C53.2359 21.8169 53.2457 21.9653 53.6309 22.349C54.1087 22.8251 54.8586 22.8548 55.3441 22.4166C55.6886 22.1057 55.7034 21.8246 55.7034 15.5737C55.7034 11.5517 55.6267 8.68548 55.503 8.08999C54.7755 4.58587 51.7561 1.42666 48.1089 0.3535C47.1149 0.0610351 45.5486 0.0328084 28.6722 0.00348903C18.5766 -0.0141754 9.7824 0.0369969 9.12945 0.117124ZM9.47702 5.57071C7.84748 5.86245 6.6466 6.81287 5.90727 8.39593L5.48025 9.3103L5.47842 33.3112L5.47659 57.3123L5.94233 57.7767C6.30488 58.1382 6.51766 58.2145 6.90121 58.1207C8.0188 57.8477 7.93387 59.7096 8.03359 33.3271L8.12491 9.18938L8.72143 8.65799L9.31794 8.1266H13.505H17.6923L18.5166 9.19448C19.9154 11.0072 19.6044 10.9493 27.9417 10.9493H35.156L35.851 10.5186C36.2331 10.2817 36.88 9.64647 37.2884 9.10725L38.0308 8.1266H42.228H46.4251L47.0461 8.74576L47.6671 9.36493V31.8489C47.6671 54.3195 47.6673 54.3332 48.0457 54.8127C48.5087 55.3998 49.3331 55.4524 49.8588 54.9283C50.2202 54.5679 50.2241 54.3219 50.223 32.0283C50.2224 17.0655 50.1585 9.26441 50.033 8.81405C49.73 7.72614 48.7746 6.64296 47.5811 6.03417L46.5064 5.48603L42.7279 5.42247C38.7698 5.356 37.2842 5.51772 36.6172 6.08826C36.4163 6.26017 35.9259 6.80959 35.5275 7.30911C35.1292 7.80882 34.7182 8.27847 34.6143 8.35277C34.5104 8.42707 31.4292 8.46805 27.7669 8.44383L21.1084 8.39976L20.2334 7.31676C18.7476 5.47765 18.7913 5.49113 14.2456 5.45325C12.0846 5.43522 9.93874 5.48803 9.47702 5.57071ZM37.3478 17.5962C36.3471 18.5978 35.4656 19.4173 35.3893 19.4173C35.3129 19.4173 34.8594 19.1174 34.3815 18.7508C32.5565 17.3515 30.0921 16.5036 27.8503 16.5036C25.1332 16.5036 22.4028 17.6443 20.4515 19.5947C18.2514 21.7936 17.2554 24.3732 17.3907 27.5211C17.5875 32.0909 20.3819 35.6338 25.0194 37.1925C26.5592 37.71 29.2854 37.6649 31.0375 37.0927C35.3579 35.6821 38.3791 31.6143 38.4166 27.1578C38.4308 25.4416 38.141 24.1091 37.4256 22.6042L36.9061 21.5115L38.9077 19.5054C41.0591 17.3495 41.287 16.8802 40.544 16.1393C39.808 15.4054 39.3097 15.6327 37.3478 17.5962ZM25.7499 19.3022C23.1438 20.0618 21.1276 21.9837 20.2645 24.5314C19.9386 25.4933 19.8809 26.0096 19.9381 27.4504C20.0009 29.0317 20.0734 29.3338 20.6887 30.575C23.1634 35.5675 29.8998 36.5848 33.6611 32.5338C34.8903 31.2102 35.5531 29.8612 35.7889 28.2038C35.9841 26.8309 35.7955 25.1229 35.3243 23.9986L35.0519 23.3488L31.4495 26.9373C28.3729 30.0019 27.7672 30.5259 27.3008 30.5253C26.8979 30.525 26.3947 30.2243 25.3847 29.3806C23.8092 28.0647 23.6048 27.5491 24.36 26.7961C24.9786 26.1793 25.3567 26.217 26.383 26.9984L27.2511 27.6593L30.3361 24.5875C32.0327 22.8979 33.4209 21.4458 33.4209 21.3606C33.4209 21.069 32.5992 20.4884 31.2627 19.8358C30.0773 19.257 29.7367 19.1764 28.249 19.1228C27.2213 19.0859 26.2535 19.1554 25.7499 19.3022ZM53.525 26.6351C53.1491 27.1113 53.1464 27.221 53.1464 41.6505C53.1464 51.9154 53.2059 56.3164 53.3491 56.6298C53.7295 57.462 54.6309 57.6113 55.3837 56.9667C55.6833 56.7101 55.7034 55.7595 55.7034 41.8289C55.7034 25.3039 55.7676 26.1553 54.5191 26.1553C54.0716 26.1553 53.8 26.2862 53.525 26.6351ZM32.9643 42.0513C32.4621 42.2915 31.735 42.8375 31.3485 43.265C30.0028 44.7534 30.0486 44.397 29.9851 53.8557L29.9281 62.3438L28.6437 62.4512C26.1335 62.661 23.8382 64.2293 22.7237 66.4962L22.1884 67.5848L22.1342 74.1932C22.0752 81.3939 22.1795 82.5998 23.1069 85.4314C23.6351 87.044 25.993 92.1692 26.4372 92.6702C27.0821 93.3975 28.5411 92.8306 28.5309 91.8567C28.5283 91.628 27.9029 90.1201 27.1411 88.5058C26.3791 86.8914 25.535 84.8017 25.265 83.862C24.7797 82.1735 24.7732 82.0746 24.6994 75.4155C24.6471 70.7014 24.6873 68.469 24.8327 67.9833C25.3019 66.4175 27.3524 64.9495 29.0753 64.9461L29.9348 64.9443L29.9885 70.2414L30.042 75.5386L30.5545 75.9778C31.1965 76.5282 31.4446 76.5282 32.0866 75.9776L32.599 75.5382L32.6904 60.4353C32.7895 44.0219 32.7207 45.0065 33.8096 44.4451C34.8753 43.8955 36.2857 44.2854 36.7967 45.2706C37.0342 45.7284 37.0738 47.1875 37.0738 55.4747C37.0738 63.6052 37.1164 65.2265 37.341 65.6596C37.7704 66.4878 38.5696 66.6442 39.231 66.0298C39.6083 65.6794 39.6308 65.5028 39.6319 62.8885C39.6324 61.3649 39.717 59.8163 39.8198 59.4472C40.2615 57.8619 42.276 57.2753 43.509 58.3731L44.1055 58.9039L44.1969 63.1243C44.2869 67.2887 44.2938 67.3492 44.7194 67.6923C45.277 68.1421 45.8536 68.1337 46.3541 67.6688C46.7206 67.3284 46.7539 67.123 46.7539 65.2045C46.7539 62.8817 46.9542 62.1475 47.761 61.5148C48.3604 61.0446 49.4469 60.9925 50.2301 61.3963C51.1831 61.8876 51.3199 62.4244 51.3199 65.672C51.3199 68.5411 51.3294 68.6125 51.7683 69.0499C52.3309 69.611 52.9663 69.6204 53.4799 69.0756C53.8263 68.7077 53.8769 68.4466 53.8773 67.0269C53.8775 65.0468 54.1916 64.2829 55.2089 63.7873C56.0922 63.3572 56.9713 63.5025 57.7661 64.2104L58.3517 64.7317L58.443 70.6818L58.5343 76.632L58.9655 76.9798C59.5416 77.4445 60.12 77.4185 60.6029 76.9062C60.9936 76.4914 61 76.3903 61 70.6393V64.794L60.4064 63.6562C59.3495 61.6301 57.1125 60.575 55.1078 61.1568C54.5816 61.3096 54.0218 61.4899 53.8638 61.5576C53.6671 61.6417 53.5135 61.5419 53.3758 61.2406C52.4275 59.1653 49.6526 58.0427 47.4274 58.834C46.7458 59.0764 46.7277 59.0715 46.5562 58.5984C46.0361 57.1635 44.696 55.8434 43.3898 55.4788C42.5852 55.2541 40.9024 55.3002 40.0417 55.5703L39.6308 55.6992L39.6268 50.5335C39.6231 45.7332 39.5965 45.3098 39.2511 44.5482C38.4622 42.8085 36.998 41.8082 35.0647 41.6884C34.0885 41.6279 33.7152 41.6924 32.9643 42.0513ZM5.84188 61.8903C5.46783 62.2906 5.46308 62.4126 5.51513 70.2218C5.56664 77.9484 5.57778 78.1653 5.96279 78.8755C6.42835 79.7342 7.32384 80.6127 8.21624 81.0859C8.78371 81.387 9.39173 81.4314 13.6279 81.4815L18.4006 81.5378L18.7876 81.0472C19.2933 80.4063 19.2765 79.9622 18.7264 79.4136L18.2782 78.9666H13.9688C10.4739 78.9666 9.55793 78.9143 9.12342 78.6903C8.04126 78.1323 8.03359 78.0699 8.03359 69.8949C8.03359 62.6326 8.02391 62.4317 7.65498 61.9641C7.1759 61.3566 6.37118 61.324 5.84188 61.8903ZM58.8914 81.0526L58.443 81.4995V86.8457C58.443 91.9742 58.4582 92.208 58.8154 92.5903C59.2852 93.0931 60.1485 93.1094 60.6347 92.6247C60.9837 92.2767 61 92.0177 61 86.8105V81.3604L60.5187 80.9831C59.8868 80.4874 59.4389 80.5065 58.8914 81.0526Z" fill="white"/>
<path fill-rule="evenodd" clip-rule="evenodd" d="M37.3478 17.5962C36.3471 18.5978 35.4656 19.4173 35.3893 19.4173C35.3129 19.4173 34.8594 19.1174 34.3815 18.7508C32.5565 17.3515 30.0921 16.5036 27.8503 16.5036C25.1332 16.5036 22.4028 17.6443 20.4515 19.5947C18.2514 21.7936 17.2554 24.3732 17.3907 27.5211C17.5875 32.0909 20.3819 35.6338 25.0194 37.1925C26.5592 37.71 29.2854 37.6649 31.0375 37.0927C35.3579 35.6821 38.3791 31.6143 38.4166 27.1578C38.4308 25.4416 38.141 24.1091 37.4256 22.6042L36.9061 21.5115L38.9077 19.5054C41.0591 17.3495 41.287 16.8802 40.544 16.1393C39.808 15.4054 39.3097 15.6327 37.3478 17.5962ZM25.7499 19.3022C23.1438 20.0618 21.1276 21.9837 20.2645 24.5314C19.9386 25.4933 19.8809 26.0096 19.9381 27.4504C20.0009 29.0317 20.0734 29.3338 20.6887 30.575C23.1634 35.5675 29.8998 36.5848 33.6611 32.5338C34.8903 31.2102 35.5531 29.8612 35.7889 28.2038C35.9841 26.8309 35.7955 25.1229 35.3243 23.9986L35.0519 23.3488L31.4495 26.9373C28.3729 30.0019 27.7672 30.5259 27.3008 30.5253C26.8979 30.525 26.3947 30.2243 25.3847 29.3806C23.8092 28.0647 23.6048 27.5491 24.36 26.7961C24.9786 26.1793 25.3567 26.217 26.383 26.9984L27.2511 27.6593L30.3361 24.5875C32.0327 22.8979 33.4209 21.4458 33.4209 21.3606C33.4209 21.069 32.5992 20.4884 31.2627 19.8358C30.0773 19.257 29.7367 19.1764 28.249 19.1228C27.2213 19.0859 26.2535 19.1554 25.7499 19.3022ZM32.9643 42.0513C32.4621 42.2915 31.735 42.8375 31.3485 43.265C30.0028 44.7534 30.0486 44.397 29.9851 53.8557L29.9281 62.3438L28.6437 62.4512C26.1335 62.661 23.8382 64.2293 22.7237 66.4962L22.1884 67.5848L22.1342 74.1932C22.0752 81.3939 22.1795 82.5998 23.1069 85.4314C23.6351 87.044 25.993 92.1692 26.4372 92.6702C27.0821 93.3975 28.5411 92.8306 28.5309 91.8567C28.5283 91.628 27.9029 90.1201 27.1411 88.5058C26.3791 86.8914 25.535 84.8017 25.265 83.862C24.7797 82.1735 24.7732 82.0746 24.6994 75.4155C24.6471 70.7014 24.6873 68.469 24.8327 67.9833C25.3019 66.4175 27.3525 64.9496 29.0753 64.9461L29.9348 64.9443L29.9885 70.2414L30.042 75.5386L30.5545 75.9778C31.1965 76.5282 31.4446 76.5282 32.0866 75.9776L32.599 75.5382L32.6904 60.4353C32.7895 44.0219 32.7207 45.0065 33.8096 44.4451C34.8753 43.8955 36.2857 44.2854 36.7967 45.2706C37.0342 45.7284 37.0738 47.1875 37.0738 55.4747C37.0738 63.6052 37.1164 65.2265 37.341 65.6596C37.7704 66.4878 38.5696 66.6442 39.231 66.0298C39.6083 65.6794 39.6308 65.5028 39.6319 62.8885C39.6324 61.3649 39.717 59.8163 39.8198 59.4472C40.2615 57.8619 42.276 57.2753 43.509 58.3731L44.1055 58.9039L44.1969 63.1243C44.2869 67.2887 44.2938 67.3492 44.7194 67.6923C45.277 68.1421 45.8536 68.1337 46.3541 67.6688C46.7206 67.3284 46.7539 67.123 46.7539 65.2045C46.7539 62.8817 46.9542 62.1475 47.761 61.5148C48.3604 61.0446 49.4469 60.9925 50.2301 61.3963C51.1831 61.8876 51.3199 62.4244 51.3199 65.672C51.3199 68.5411 51.3294 68.6125 51.7683 69.0499C52.3309 69.611 52.9663 69.6204 53.4799 69.0756C53.8263 68.7077 53.8769 68.4466 53.8773 67.0269C53.8775 65.0468 54.1916 64.2829 55.2089 63.7873C56.0922 63.3572 56.9713 63.5025 57.7661 64.2104L58.3517 64.7318L58.443 70.6818L58.5343 76.632L58.9655 76.9798C59.5416 77.4445 60.12 77.4185 60.6029 76.9062C60.9936 76.4914 61 76.3903 61 70.6393V64.794L60.4064 63.6562C59.3495 61.6301 57.1125 60.5749 55.1078 61.1568C54.5816 61.3096 54.0218 61.4899 53.8638 61.5576C53.6671 61.6417 53.5135 61.5419 53.3758 61.2406C52.4275 59.1653 49.6526 58.0427 47.4274 58.834C46.7458 59.0764 46.7277 59.0715 46.5562 58.5984C46.0361 57.1635 44.696 55.8434 43.3898 55.4788C42.5852 55.2541 40.9024 55.3002 40.0417 55.5703L39.6308 55.6992L39.6268 50.5335C39.6231 45.7332 39.5965 45.3098 39.2511 44.5482C38.4622 42.8085 36.998 41.8082 35.0647 41.6884C34.0885 41.6279 33.7152 41.6924 32.9643 42.0513ZM58.8914 81.0526L58.443 81.4995V86.8457C58.443 91.9742 58.4582 92.208 58.8154 92.5903C59.2852 93.0931 60.1485 93.1094 60.6347 92.6247C60.9837 92.2767 61 92.0177 61 86.8105V81.3604L60.5187 80.9831C59.8868 80.4874 59.439 80.5065 58.8914 81.0526Z" fill="#FDD304"/>
</svg>
