<svg width="75" height="83" viewBox="0 0 75 83" fill="none" xmlns="http://www.w3.org/2000/svg">
<path fill-rule="evenodd" clip-rule="evenodd" d="M23.1529 0.0970332C18.4488 0.694326 14.4068 3.9329 12.8677 8.33767C12.3745 9.74917 12.19 11.0185 12.2446 12.6229L12.2917 14.0067L6.63809 14.0359L0.984544 14.065L0.636169 14.3126C-0.0193508 14.7783 0.000435654 14.5238 0.000435654 22.482C0.000435654 30.5592 -0.0425543 30.0808 0.725568 30.5575C1.06648 30.7692 1.22114 30.7835 3.31533 30.7983L5.54252 30.814L5.59504 56.4938C5.62394 70.6177 5.65885 82.1837 5.67273 82.196C5.68661 82.2082 5.83454 82.3574 6.00153 82.5276C6.16851 82.6977 6.4365 82.8735 6.59717 82.9181C6.75773 82.9627 20.6874 82.9993 37.5519 82.9993C71.0919 82.9993 68.6555 83.0461 69.1238 82.3923L69.3541 82.0705L69.4059 56.4526L69.4577 30.8347L71.6849 30.8086C73.7952 30.7839 73.9319 30.7703 74.2896 30.5487C75.0303 30.0898 74.9998 30.4383 74.9998 22.4307C74.9998 14.5286 75.0194 14.7781 74.3641 14.3126L74.0157 14.065L68.3671 14.0359L62.7187 14.0068L62.7594 12.6158C62.8587 9.2301 61.7107 6.28275 59.3431 3.84466C57.1097 1.54486 54.2214 0.228917 50.9536 0.0223201C48.5322 -0.130821 46.1116 0.648714 43.7046 2.35669C41.4833 3.933 39.2548 6.46024 37.9076 8.93104C37.7141 9.28583 37.5308 9.57601 37.5001 9.57601C37.4695 9.57601 37.2851 9.28583 37.0903 8.93104C34.9679 5.06474 31.4025 1.79263 28.0141 0.601244C26.3885 0.0296471 24.8997 -0.124733 23.1529 0.0970332ZM23.2047 3.12178C20.2 3.61299 17.5022 5.56296 16.1737 8.20383C15.9965 8.55593 15.7264 9.2525 15.5733 9.75175C15.3283 10.5508 15.294 10.8388 15.2875 12.1559C15.2833 12.9789 15.3135 13.7334 15.3545 13.8328C15.4246 14.0031 16.0127 14.0134 25.6428 14.0134C35.3212 14.0134 35.8539 14.0039 35.804 13.8328C35.7751 13.7334 35.6977 13.4432 35.632 13.1878C35.0845 11.0592 33.1386 7.9768 31.1868 6.14664C28.5 3.62692 25.9727 2.66927 23.2047 3.12178ZM49.2849 3.07813C45.4254 3.72547 40.9963 8.16461 39.4798 12.9053C39.3026 13.4593 39.1576 13.9354 39.1576 13.963C39.1576 13.9907 43.766 14.0134 49.3986 14.0134H59.6396L59.7049 13.4716C60.1827 9.50914 58.1929 5.83323 54.5749 3.9945C53.064 3.22663 50.7693 2.82912 49.2849 3.07813ZM3.00455 22.3718V27.7383H14.1923C20.3456 27.7383 25.415 27.7383 25.4578 27.7383C25.5005 27.7383 25.5354 25.3351 25.5354 22.398V17.0576L14.27 17.0314L3.00455 17.0051V22.3718ZM28.5828 17.049C28.559 17.0726 28.552 19.4874 28.5673 22.4151L28.5951 27.7383H37.4502H46.3053V22.3722V17.0061H37.4656C32.6037 17.0061 28.6065 17.0253 28.5828 17.049ZM49.3785 17.0749C49.3405 17.1127 49.3094 19.5274 49.3094 22.441V27.7383L60.29 27.7477C66.3293 27.7529 71.422 27.7613 71.6072 27.7665L71.9439 27.7759L71.9707 22.391L71.9976 17.0061H60.7226C54.5213 17.0061 49.4164 17.037 49.3785 17.0749ZM8.63634 30.8858C8.6148 30.9425 8.6091 42.0065 8.62371 55.4724L8.65023 79.9557L37.526 79.9812L66.4018 80.0066V55.3946V30.7826H37.5388C18.3919 30.7826 8.66245 30.8174 8.63634 30.8858ZM26.22 38.9983C23.1283 39.6448 20.5053 41.5517 18.9254 44.3014C18.3489 45.3049 17.7724 46.9884 17.6033 48.1624C17.3307 50.0561 17.6743 52.4416 18.4687 54.1696C19.2778 55.9294 20.1229 56.9114 23.2574 59.7342C25.6299 61.8707 36.1688 71.3857 36.4785 71.6708C36.8265 71.9909 37.4393 72.1344 37.9145 72.0068C38.2745 71.9101 38.5334 71.6821 47.3335 63.7134C54.3417 57.3672 54.7283 57.0036 55.3384 56.184C56.1315 55.1184 56.8039 53.7312 57.1502 52.4462C57.3983 51.5257 57.4262 51.2433 57.4259 49.6673C57.4255 47.7481 57.3294 47.2221 56.6667 45.5102C56.3006 44.5645 55.4025 43.1418 54.6455 42.3083C53.5392 41.0904 51.6911 39.8894 50.0864 39.3457C47.8369 38.5834 45.1235 38.5859 42.9904 39.3524C41.3199 39.9526 40.3671 40.5459 38.7071 42.0194C38.0925 42.5649 37.55 43.0112 37.5015 43.0112C37.4222 43.0112 37.1407 42.7711 35.8104 41.5687C34.8309 40.6835 33.2694 39.7751 31.9659 39.3322C30.2619 38.7532 28.0162 38.6227 26.22 38.9983ZM26.7785 41.9243C21.9663 42.9699 19.2258 48.209 21.1268 52.7288C21.6673 54.0134 22.2783 54.7765 24.0681 56.4018C24.9891 57.2382 25.7659 57.947 25.7944 57.9771C25.8229 58.007 26.7994 58.8894 27.9642 59.938C29.1292 60.9864 30.6445 62.3551 31.3315 62.9794C32.0186 63.6038 33.07 64.5527 33.6679 65.0883C34.2658 65.6239 35.2211 66.4888 35.7909 67.0103C36.3606 67.5319 36.9778 68.0843 37.1624 68.2378L37.4981 68.517L37.784 68.294C37.9412 68.1714 38.3263 67.8298 38.6396 67.5349C38.953 67.2399 39.6988 66.5614 40.2971 66.027C40.8953 65.4925 42.3404 64.189 43.5084 63.1302C44.6763 62.0714 47.1806 59.8032 49.0733 58.0896C52.6187 54.8801 53.0858 54.3749 53.7121 53.0727C54.2811 51.8895 54.4302 51.1825 54.4302 49.6673C54.4302 47.6908 54.0191 46.4346 52.8684 44.8951C51.888 43.5837 50.3502 42.537 48.6361 42.0144C47.6599 41.7168 45.3696 41.7445 44.3407 42.0663C42.7282 42.5708 42.0066 43.0447 39.8737 45.0003C39.0996 45.7101 38.3211 46.3655 38.1436 46.4569C37.3938 46.8431 36.8699 46.6132 35.3922 45.2491C33.5216 43.5223 32.9001 43.0454 31.8835 42.5568C31.3386 42.295 30.5763 42.0252 30.1237 41.9338C29.1707 41.7417 27.6391 41.7374 26.7785 41.9243Z" fill="white"/>
<path fill-rule="evenodd" clip-rule="evenodd" d="M23.1529 0.0970332C18.4488 0.694326 14.4068 3.9329 12.8677 8.33767C12.3745 9.74917 12.19 11.0185 12.2446 12.6229L12.2917 14.0067L6.63809 14.0359L0.984544 14.065L0.636169 14.3126C-0.0193508 14.7783 0.000435654 14.5238 0.000435654 22.482C0.000435654 30.5592 -0.0425543 30.0808 0.725568 30.5575C1.06648 30.7692 1.22114 30.7835 3.31533 30.7983L5.54252 30.814L5.59504 56.4938C5.62394 70.6177 5.65885 82.1837 5.67273 82.196C5.68661 82.2082 5.83454 82.3574 6.00153 82.5276C6.16851 82.6977 6.4365 82.8735 6.59717 82.9181C6.75773 82.9627 20.6874 82.9993 37.5519 82.9993C71.0919 82.9993 68.6555 83.0461 69.1238 82.3923L69.3541 82.0705L69.4059 56.4526L69.4577 30.8347L71.6849 30.8086C73.7952 30.7839 73.9319 30.7703 74.2896 30.5487C75.0303 30.0898 74.9998 30.4383 74.9998 22.4307C74.9998 14.5286 75.0194 14.7781 74.3641 14.3126L74.0157 14.065L68.3671 14.0359L62.7187 14.0068L62.7594 12.6158C62.8587 9.2301 61.7107 6.28275 59.3431 3.84466C57.1097 1.54486 54.2214 0.228917 50.9536 0.0223201C48.5322 -0.130821 46.1116 0.648714 43.7046 2.35669C41.4833 3.933 39.2548 6.46024 37.9076 8.93104C37.7141 9.28583 37.5308 9.57601 37.5001 9.57601C37.4695 9.57601 37.2851 9.28583 37.0903 8.93104C34.9679 5.06474 31.4025 1.79263 28.0141 0.601244C26.3885 0.0296471 24.8997 -0.124733 23.1529 0.0970332ZM23.2047 3.12178C20.2 3.61299 17.5022 5.56296 16.1737 8.20383C15.9965 8.55593 15.7264 9.2525 15.5733 9.75175C15.3283 10.5508 15.294 10.8388 15.2875 12.1559C15.2833 12.9789 15.3135 13.7334 15.3545 13.8328C15.4246 14.0031 16.0127 14.0134 25.6428 14.0134C35.3212 14.0134 35.8539 14.0039 35.804 13.8328C35.7751 13.7334 35.6977 13.4432 35.632 13.1878C35.0845 11.0592 33.1386 7.9768 31.1868 6.14664C28.5 3.62692 25.9727 2.66927 23.2047 3.12178ZM49.2849 3.07813C45.4254 3.72547 40.9963 8.16461 39.4798 12.9053C39.3026 13.4593 39.1576 13.9354 39.1576 13.963C39.1576 13.9907 43.766 14.0134 49.3986 14.0134H59.6396L59.7049 13.4716C60.1827 9.50914 58.1929 5.83323 54.5749 3.9945C53.064 3.22663 50.7693 2.82912 49.2849 3.07813ZM3.00455 22.3718V27.7383H14.1923C20.3456 27.7383 25.415 27.7383 25.4578 27.7383C25.5005 27.7383 25.5354 25.3351 25.5354 22.398V17.0576L14.27 17.0314L3.00455 17.0051V22.3718ZM28.5828 17.049C28.559 17.0726 28.552 19.4874 28.5673 22.4151L28.5951 27.7383H37.4502H46.3053V22.3722V17.0061H37.4656C32.6037 17.0061 28.6065 17.0253 28.5828 17.049ZM49.3785 17.0749C49.3405 17.1127 49.3094 19.5274 49.3094 22.441V27.7383L60.29 27.7477C66.3293 27.7529 71.422 27.7613 71.6072 27.7665L71.9439 27.7759L71.9707 22.391L71.9976 17.0061H60.7226C54.5213 17.0061 49.4164 17.037 49.3785 17.0749ZM8.63634 30.8858C8.6148 30.9425 8.6091 42.0065 8.62371 55.4724L8.65023 79.9557L37.526 79.9812L66.4018 80.0066V55.3946V30.7826H37.5388C18.3919 30.7826 8.66245 30.8174 8.63634 30.8858ZM26.22 38.9983C23.1283 39.6448 20.5053 41.5517 18.9254 44.3014C18.3489 45.3049 17.7724 46.9884 17.6033 48.1624C17.3307 50.0561 17.6743 52.4416 18.4687 54.1696C19.2778 55.9294 20.1229 56.9114 23.2574 59.7342C25.6299 61.8707 36.1688 71.3857 36.4785 71.6708C36.8265 71.9909 37.4393 72.1344 37.9145 72.0068C38.2745 71.9101 38.5334 71.6821 47.3335 63.7134C54.3417 57.3672 54.7283 57.0036 55.3384 56.184C56.1315 55.1184 56.8039 53.7312 57.1502 52.4462C57.3983 51.5257 57.4262 51.2433 57.4259 49.6673C57.4255 47.7481 57.3294 47.2221 56.6667 45.5102C56.3006 44.5645 55.4025 43.1418 54.6455 42.3083C53.5392 41.0904 51.6911 39.8894 50.0864 39.3457C47.8369 38.5834 45.1235 38.5859 42.9904 39.3524C41.3199 39.9526 40.3671 40.5459 38.7071 42.0194C38.0925 42.5649 37.55 43.0112 37.5015 43.0112C37.4222 43.0112 37.1407 42.7711 35.8104 41.5687C34.8309 40.6835 33.2694 39.7751 31.9659 39.3322C30.2619 38.7532 28.0162 38.6227 26.22 38.9983ZM26.7785 41.9243C21.9663 42.9699 19.2258 48.209 21.1268 52.7288C21.6673 54.0134 22.2783 54.7765 24.0681 56.4018C24.9891 57.2382 25.7659 57.947 25.7944 57.9771C25.8229 58.007 26.7994 58.8894 27.9642 59.938C29.1292 60.9864 30.6445 62.3551 31.3315 62.9794C32.0186 63.6038 33.07 64.5527 33.6679 65.0883C34.2658 65.6239 35.2211 66.4888 35.7909 67.0103C36.3606 67.5319 36.9778 68.0843 37.1624 68.2378L37.4981 68.517L37.784 68.294C37.9412 68.1714 38.3263 67.8298 38.6396 67.5349C38.953 67.2399 39.6988 66.5614 40.2971 66.027C40.8953 65.4925 42.3404 64.189 43.5084 63.1302C44.6763 62.0714 47.1806 59.8032 49.0733 58.0896C52.6187 54.8801 53.0858 54.3749 53.7121 53.0727C54.2811 51.8895 54.4302 51.1825 54.4302 49.6673C54.4302 47.6908 54.0191 46.4346 52.8684 44.8951C51.888 43.5837 50.3502 42.537 48.6361 42.0144C47.6599 41.7168 45.3696 41.7445 44.3407 42.0663C42.7282 42.5708 42.0066 43.0447 39.8737 45.0003C39.0996 45.7101 38.3211 46.3655 38.1436 46.4569C37.3938 46.8431 36.8699 46.6132 35.3922 45.2491C33.5216 43.5223 32.9001 43.0454 31.8835 42.5568C31.3386 42.295 30.5763 42.0252 30.1237 41.9338C29.1707 41.7417 27.6391 41.7374 26.7785 41.9243Z" fill="white"/>
<path fill-rule="evenodd" clip-rule="evenodd" d="M26.22 38.9982C23.1283 39.6448 20.5053 41.5517 18.9254 44.3014C18.3489 45.3049 17.7724 46.9884 17.6033 48.1624C17.3307 50.0561 17.6743 52.4416 18.4687 54.1696C19.2778 55.9294 20.1229 56.9114 23.2574 59.7342C25.6299 61.8707 36.1688 71.3857 36.4785 71.6708C36.8265 71.9909 37.4393 72.1344 37.9145 72.0068C38.2745 71.9101 38.5334 71.6821 47.3335 63.7134C54.3417 57.3672 54.7283 57.0036 55.3384 56.184C56.1315 55.1184 56.8039 53.7312 57.1502 52.4462C57.3983 51.5257 57.4262 51.2433 57.4259 49.6673C57.4255 47.7481 57.3294 47.2221 56.6667 45.5102C56.3006 44.5645 55.4025 43.1418 54.6455 42.3083C53.5392 41.0904 51.6911 39.8894 50.0863 39.3457C47.8369 38.5834 45.1235 38.5859 42.9904 39.3524C41.3199 39.9526 40.3671 40.5459 38.7071 42.0194C38.0925 42.5649 37.55 43.0112 37.5015 43.0112C37.4222 43.0112 37.1407 42.7711 35.8104 41.5687C34.8309 40.6835 33.2694 39.7751 31.9659 39.3322C30.2619 38.7532 28.0162 38.6227 26.22 38.9982ZM26.7785 41.9243C21.9663 42.9699 19.2258 48.209 21.1269 52.7288C21.6673 54.0134 22.2783 54.7765 24.0681 56.4018C24.9891 57.2382 25.7659 57.947 25.7944 57.9771C25.8229 58.007 26.7994 58.8894 27.9642 59.938C29.1292 60.9864 30.6445 62.3551 31.3315 62.9794C32.0186 63.6038 33.07 64.5527 33.6679 65.0883C34.2658 65.6239 35.2211 66.4888 35.7909 67.0103C36.3606 67.5319 36.9778 68.0843 37.1624 68.2378L37.4981 68.517L37.784 68.294C37.9412 68.1714 38.3263 67.8298 38.6396 67.5349C38.953 67.2399 39.6988 66.5614 40.2971 66.027C40.8953 65.4925 42.3404 64.189 43.5084 63.1302C44.6763 62.0714 47.1806 59.8032 49.0733 58.0896C52.6187 54.8801 53.0858 54.3749 53.7121 53.0727C54.2811 51.8895 54.4302 51.1825 54.4302 49.6673C54.4302 47.6908 54.0191 46.4346 52.8684 44.8951C51.888 43.5837 50.3502 42.537 48.6361 42.0144C47.6599 41.7168 45.3696 41.7445 44.3407 42.0663C42.7282 42.5708 42.0066 43.0447 39.8737 45.0003C39.0996 45.7101 38.3211 46.3656 38.1436 46.4569C37.3938 46.8431 36.8699 46.6132 35.3922 45.2491C33.5216 43.5223 32.9001 43.0453 31.8835 42.5568C31.3386 42.295 30.5763 42.0252 30.1237 41.9338C29.1707 41.7417 27.6391 41.7374 26.7785 41.9243Z" fill="#FDD304"/>
</svg>
