<svg width="326" height="693" viewBox="0 0 326 693" fill="none" xmlns="http://www.w3.org/2000/svg">
<path d="M190.128 280L273.5 3H211.863L164.5 183.327" stroke="#058FA2" stroke-width="6"/>
<path d="M125 285L127.567 277.955L99.1881 171.926L54.5 4H112.562L184.976 254.639L191 284" stroke="#058FA2" stroke-width="6"/>
<rect x="3.5" y="283" width="319" height="407" stroke="#058FA2" stroke-width="6"/>
<rect x="31.5" y="319" width="266" height="354" stroke="#FFD14B" stroke-width="6"/>
<rect x="107.5" y="406" width="114" height="108" stroke="#FFD14B" stroke-width="6"/>
<rect x="122" y="296" width="83" height="8" rx="4" stroke="#058FA2" stroke-width="4"/>
<path d="M202.5 516V503.333C202.5 496.615 200.472 490.171 196.862 485.42C193.252 480.669 188.355 478 183.25 478H144.75C139.645 478 134.748 480.669 131.138 485.42C127.528 490.171 125.5 496.615 125.5 503.333V516" stroke="#FFD14B" stroke-width="6" stroke-linecap="round" stroke-linejoin="round"/>
<path d="M164.5 468C174.993 468 183.5 460.165 183.5 450.5C183.5 440.835 174.993 433 164.5 433C154.007 433 145.5 440.835 145.5 450.5C145.5 460.165 154.007 468 164.5 468Z" stroke="#FFD14B" stroke-width="6" stroke-linecap="round" stroke-linejoin="round"/>
<line x1="106.5" y1="537" x2="223.5" y2="537" stroke="#058FA2" stroke-width="6"/>
<line x1="106.5" y1="555" x2="223.5" y2="555" stroke="#058FA2" stroke-width="6"/>
<line x1="106.5" y1="574" x2="223.5" y2="574" stroke="#058FA2" stroke-width="6"/>
<line x1="106.5" y1="592" x2="223.5" y2="592" stroke="#058FA2" stroke-width="6"/>
<line x1="106.5" y1="610" x2="223.5" y2="610" stroke="#058FA2" stroke-width="6"/>
<mask id="path-14-outside-1_368_4105" maskUnits="userSpaceOnUse" x="120.5" y="365" width="94" height="26" fill="black">
<rect fill="white" x="120.5" y="365" width="94" height="26"/>
<path d="M122.142 389V367.182H129.514C131.226 367.182 132.625 367.491 133.712 368.109C134.805 368.719 135.615 369.547 136.141 370.591C136.666 371.635 136.929 372.8 136.929 374.085C136.929 375.371 136.666 376.539 136.141 377.59C135.622 378.641 134.82 379.479 133.733 380.104C132.646 380.722 131.254 381.031 129.557 381.031H124.273V378.688H129.472C130.643 378.688 131.585 378.485 132.295 378.08C133.005 377.675 133.52 377.129 133.839 376.44C134.166 375.744 134.33 374.959 134.33 374.085C134.33 373.212 134.166 372.43 133.839 371.741C133.52 371.053 133.001 370.513 132.284 370.122C131.567 369.724 130.615 369.526 129.429 369.526H124.784V389H122.142ZM141.335 389V367.182H148.707C150.412 367.182 151.811 367.473 152.905 368.055C153.998 368.631 154.808 369.423 155.334 370.431C155.859 371.44 156.122 372.587 156.122 373.872C156.122 375.158 155.859 376.298 155.334 377.292C154.808 378.286 154.002 379.067 152.915 379.636C151.829 380.197 150.44 380.477 148.75 380.477H142.784V378.091H148.665C149.829 378.091 150.767 377.92 151.477 377.58C152.194 377.239 152.713 376.756 153.032 376.131C153.359 375.499 153.523 374.746 153.523 373.872C153.523 372.999 153.359 372.235 153.032 371.582C152.706 370.928 152.184 370.424 151.466 370.069C150.749 369.707 149.801 369.526 148.622 369.526H143.977V389H141.335ZM151.605 379.199L156.974 389H153.906L148.622 379.199H151.605ZM160.674 389V367.182H173.842V369.526H163.317V376.898H173.16V379.241H163.317V386.656H174.013V389H160.674ZM190.686 372.636C190.558 371.557 190.04 370.719 189.131 370.122C188.221 369.526 187.106 369.227 185.785 369.227C184.819 369.227 183.974 369.384 183.25 369.696C182.533 370.009 181.971 370.438 181.567 370.985C181.169 371.532 180.97 372.153 180.97 372.849C180.97 373.432 181.109 373.933 181.386 374.352C181.67 374.763 182.032 375.108 182.472 375.385C182.913 375.655 183.374 375.879 183.857 376.056C184.34 376.227 184.784 376.365 185.189 376.472L187.405 377.068C187.973 377.217 188.605 377.423 189.301 377.686C190.004 377.949 190.675 378.308 191.315 378.762C191.961 379.21 192.494 379.785 192.913 380.488C193.332 381.191 193.541 382.054 193.541 383.077C193.541 384.256 193.232 385.321 192.614 386.273C192.003 387.224 191.109 387.981 189.93 388.542C188.758 389.103 187.334 389.384 185.658 389.384C184.095 389.384 182.742 389.131 181.599 388.627C180.462 388.123 179.567 387.42 178.914 386.518C178.268 385.616 177.902 384.568 177.817 383.375H180.544C180.615 384.199 180.892 384.881 181.375 385.42C181.865 385.953 182.483 386.351 183.229 386.614C183.981 386.869 184.791 386.997 185.658 386.997C186.666 386.997 187.572 386.834 188.374 386.507C189.177 386.173 189.812 385.712 190.281 385.122C190.75 384.526 190.984 383.83 190.984 383.034C190.984 382.31 190.782 381.72 190.377 381.266C189.972 380.811 189.44 380.442 188.779 380.158C188.119 379.874 187.405 379.625 186.638 379.412L183.953 378.645C182.248 378.155 180.899 377.455 179.905 376.546C178.91 375.637 178.413 374.447 178.413 372.977C178.413 371.756 178.744 370.69 179.404 369.781C180.072 368.865 180.967 368.155 182.089 367.651C183.218 367.139 184.479 366.884 185.871 366.884C187.277 366.884 188.527 367.136 189.621 367.64C190.714 368.137 191.581 368.819 192.22 369.685C192.866 370.552 193.207 371.536 193.243 372.636H190.686ZM209.967 372.636C209.839 371.557 209.321 370.719 208.411 370.122C207.502 369.526 206.387 369.227 205.066 369.227C204.1 369.227 203.255 369.384 202.531 369.696C201.813 370.009 201.252 370.438 200.848 370.985C200.45 371.532 200.251 372.153 200.251 372.849C200.251 373.432 200.389 373.933 200.666 374.352C200.95 374.763 201.313 375.108 201.753 375.385C202.193 375.655 202.655 375.879 203.138 376.056C203.621 376.227 204.065 376.365 204.47 376.472L206.686 377.068C207.254 377.217 207.886 377.423 208.582 377.686C209.285 377.949 209.956 378.308 210.595 378.762C211.242 379.21 211.774 379.785 212.193 380.488C212.612 381.191 212.822 382.054 212.822 383.077C212.822 384.256 212.513 385.321 211.895 386.273C211.284 387.224 210.389 387.981 209.21 388.542C208.039 389.103 206.615 389.384 204.938 389.384C203.376 389.384 202.023 389.131 200.879 388.627C199.743 388.123 198.848 387.42 198.195 386.518C197.549 385.616 197.183 384.568 197.098 383.375H199.825C199.896 384.199 200.173 384.881 200.656 385.42C201.146 385.953 201.764 386.351 202.509 386.614C203.262 386.869 204.072 386.997 204.938 386.997C205.947 386.997 206.852 386.834 207.655 386.507C208.458 386.173 209.093 385.712 209.562 385.122C210.031 384.526 210.265 383.83 210.265 383.034C210.265 382.31 210.063 381.72 209.658 381.266C209.253 380.811 208.72 380.442 208.06 380.158C207.399 379.874 206.686 379.625 205.919 379.412L203.234 378.645C201.529 378.155 200.18 377.455 199.186 376.546C198.191 375.637 197.694 374.447 197.694 372.977C197.694 371.756 198.024 370.69 198.685 369.781C199.352 368.865 200.247 368.155 201.37 367.651C202.499 367.139 203.759 366.884 205.151 366.884C206.558 366.884 207.808 367.136 208.901 367.64C209.995 368.137 210.862 368.819 211.501 369.685C212.147 370.552 212.488 371.536 212.524 372.636H209.967Z"/>
</mask>
<path d="M122.142 389V367.182H129.514C131.226 367.182 132.625 367.491 133.712 368.109C134.805 368.719 135.615 369.547 136.141 370.591C136.666 371.635 136.929 372.8 136.929 374.085C136.929 375.371 136.666 376.539 136.141 377.59C135.622 378.641 134.82 379.479 133.733 380.104C132.646 380.722 131.254 381.031 129.557 381.031H124.273V378.688H129.472C130.643 378.688 131.585 378.485 132.295 378.08C133.005 377.675 133.52 377.129 133.839 376.44C134.166 375.744 134.33 374.959 134.33 374.085C134.33 373.212 134.166 372.43 133.839 371.741C133.52 371.053 133.001 370.513 132.284 370.122C131.567 369.724 130.615 369.526 129.429 369.526H124.784V389H122.142ZM141.335 389V367.182H148.707C150.412 367.182 151.811 367.473 152.905 368.055C153.998 368.631 154.808 369.423 155.334 370.431C155.859 371.44 156.122 372.587 156.122 373.872C156.122 375.158 155.859 376.298 155.334 377.292C154.808 378.286 154.002 379.067 152.915 379.636C151.829 380.197 150.44 380.477 148.75 380.477H142.784V378.091H148.665C149.829 378.091 150.767 377.92 151.477 377.58C152.194 377.239 152.713 376.756 153.032 376.131C153.359 375.499 153.523 374.746 153.523 373.872C153.523 372.999 153.359 372.235 153.032 371.582C152.706 370.928 152.184 370.424 151.466 370.069C150.749 369.707 149.801 369.526 148.622 369.526H143.977V389H141.335ZM151.605 379.199L156.974 389H153.906L148.622 379.199H151.605ZM160.674 389V367.182H173.842V369.526H163.317V376.898H173.16V379.241H163.317V386.656H174.013V389H160.674ZM190.686 372.636C190.558 371.557 190.04 370.719 189.131 370.122C188.221 369.526 187.106 369.227 185.785 369.227C184.819 369.227 183.974 369.384 183.25 369.696C182.533 370.009 181.971 370.438 181.567 370.985C181.169 371.532 180.97 372.153 180.97 372.849C180.97 373.432 181.109 373.933 181.386 374.352C181.67 374.763 182.032 375.108 182.472 375.385C182.913 375.655 183.374 375.879 183.857 376.056C184.34 376.227 184.784 376.365 185.189 376.472L187.405 377.068C187.973 377.217 188.605 377.423 189.301 377.686C190.004 377.949 190.675 378.308 191.315 378.762C191.961 379.21 192.494 379.785 192.913 380.488C193.332 381.191 193.541 382.054 193.541 383.077C193.541 384.256 193.232 385.321 192.614 386.273C192.003 387.224 191.109 387.981 189.93 388.542C188.758 389.103 187.334 389.384 185.658 389.384C184.095 389.384 182.742 389.131 181.599 388.627C180.462 388.123 179.567 387.42 178.914 386.518C178.268 385.616 177.902 384.568 177.817 383.375H180.544C180.615 384.199 180.892 384.881 181.375 385.42C181.865 385.953 182.483 386.351 183.229 386.614C183.981 386.869 184.791 386.997 185.658 386.997C186.666 386.997 187.572 386.834 188.374 386.507C189.177 386.173 189.812 385.712 190.281 385.122C190.75 384.526 190.984 383.83 190.984 383.034C190.984 382.31 190.782 381.72 190.377 381.266C189.972 380.811 189.44 380.442 188.779 380.158C188.119 379.874 187.405 379.625 186.638 379.412L183.953 378.645C182.248 378.155 180.899 377.455 179.905 376.546C178.91 375.637 178.413 374.447 178.413 372.977C178.413 371.756 178.744 370.69 179.404 369.781C180.072 368.865 180.967 368.155 182.089 367.651C183.218 367.139 184.479 366.884 185.871 366.884C187.277 366.884 188.527 367.136 189.621 367.64C190.714 368.137 191.581 368.819 192.22 369.685C192.866 370.552 193.207 371.536 193.243 372.636H190.686ZM209.967 372.636C209.839 371.557 209.321 370.719 208.411 370.122C207.502 369.526 206.387 369.227 205.066 369.227C204.1 369.227 203.255 369.384 202.531 369.696C201.813 370.009 201.252 370.438 200.848 370.985C200.45 371.532 200.251 372.153 200.251 372.849C200.251 373.432 200.389 373.933 200.666 374.352C200.95 374.763 201.313 375.108 201.753 375.385C202.193 375.655 202.655 375.879 203.138 376.056C203.621 376.227 204.065 376.365 204.47 376.472L206.686 377.068C207.254 377.217 207.886 377.423 208.582 377.686C209.285 377.949 209.956 378.308 210.595 378.762C211.242 379.21 211.774 379.785 212.193 380.488C212.612 381.191 212.822 382.054 212.822 383.077C212.822 384.256 212.513 385.321 211.895 386.273C211.284 387.224 210.389 387.981 209.21 388.542C208.039 389.103 206.615 389.384 204.938 389.384C203.376 389.384 202.023 389.131 200.879 388.627C199.743 388.123 198.848 387.42 198.195 386.518C197.549 385.616 197.183 384.568 197.098 383.375H199.825C199.896 384.199 200.173 384.881 200.656 385.42C201.146 385.953 201.764 386.351 202.509 386.614C203.262 386.869 204.072 386.997 204.938 386.997C205.947 386.997 206.852 386.834 207.655 386.507C208.458 386.173 209.093 385.712 209.562 385.122C210.031 384.526 210.265 383.83 210.265 383.034C210.265 382.31 210.063 381.72 209.658 381.266C209.253 380.811 208.72 380.442 208.06 380.158C207.399 379.874 206.686 379.625 205.919 379.412L203.234 378.645C201.529 378.155 200.18 377.455 199.186 376.546C198.191 375.637 197.694 374.447 197.694 372.977C197.694 371.756 198.024 370.69 198.685 369.781C199.352 368.865 200.247 368.155 201.37 367.651C202.499 367.139 203.759 366.884 205.151 366.884C206.558 366.884 207.808 367.136 208.901 367.64C209.995 368.137 210.862 368.819 211.501 369.685C212.147 370.552 212.488 371.536 212.524 372.636H209.967Z" fill="#E5BD47"/>
<path d="M122.142 389H121.142V390H122.142V389ZM122.142 367.182V366.182H121.142V367.182H122.142ZM133.712 368.109L133.217 368.978L133.224 368.982L133.712 368.109ZM136.141 370.591L135.247 371.041L135.247 371.041L136.141 370.591ZM136.141 377.59L135.246 377.143L135.244 377.148L136.141 377.59ZM133.733 380.104L134.227 380.974L134.232 380.971L133.733 380.104ZM124.273 381.031H123.273V382.031H124.273V381.031ZM124.273 378.688V377.688H123.273V378.688H124.273ZM132.295 378.08L131.8 377.211L131.8 377.211L132.295 378.08ZM133.839 376.44L132.934 376.015L132.932 376.019L133.839 376.44ZM133.839 371.741L132.932 372.162L132.936 372.17L133.839 371.741ZM132.284 370.122L131.799 370.997L131.806 371L132.284 370.122ZM124.784 369.526V368.526H123.784V369.526H124.784ZM124.784 389V390H125.784V389H124.784ZM122.142 389H123.142V367.182H122.142H121.142V389H122.142ZM122.142 367.182V368.182H129.514V367.182V366.182H122.142V367.182ZM129.514 367.182V368.182C131.114 368.182 132.327 368.472 133.217 368.978L133.712 368.109L134.206 367.239C132.923 366.51 131.338 366.182 129.514 366.182V367.182ZM133.712 368.109L133.224 368.982C134.156 369.502 134.818 370.188 135.247 371.041L136.141 370.591L137.034 370.141C136.412 368.906 135.454 367.936 134.199 367.236L133.712 368.109ZM136.141 370.591L135.247 371.041C135.696 371.932 135.929 372.94 135.929 374.085H136.929H137.929C137.929 372.659 137.636 371.338 137.034 370.141L136.141 370.591ZM136.929 374.085H135.929C135.929 375.23 135.696 376.243 135.246 377.143L136.141 377.59L137.035 378.037C137.636 376.835 137.929 375.511 137.929 374.085H136.929ZM136.141 377.59L135.244 377.148C134.819 378.009 134.162 378.704 133.234 379.238L133.733 380.104L134.232 380.971C135.478 380.255 136.425 379.274 137.037 378.033L136.141 377.59ZM133.733 380.104L133.239 379.235C132.347 379.742 131.14 380.031 129.557 380.031V381.031V382.031C131.368 382.031 132.946 381.703 134.227 380.974L133.733 380.104ZM129.557 381.031V380.031H124.273V381.031V382.031H129.557V381.031ZM124.273 381.031H125.273V378.688H124.273H123.273V381.031H124.273ZM124.273 378.688V379.688H129.472V378.688V377.688H124.273V378.688ZM129.472 378.688V379.688C130.746 379.688 131.877 379.469 132.79 378.949L132.295 378.08L131.8 377.211C131.292 377.501 130.541 377.688 129.472 377.688V378.688ZM132.295 378.08L132.79 378.949C133.666 378.45 134.333 377.753 134.747 376.86L133.839 376.44L132.932 376.019C132.707 376.505 132.344 376.901 131.8 377.211L132.295 378.08ZM133.839 376.44L134.745 376.865C135.142 376.019 135.33 375.086 135.33 374.085H134.33H133.33C133.33 374.832 133.191 375.469 132.934 376.015L133.839 376.44ZM134.33 374.085H135.33C135.33 373.085 135.142 372.154 134.743 371.313L133.839 371.741L132.936 372.17C133.19 372.707 133.33 373.338 133.33 374.085H134.33ZM133.839 371.741L134.747 371.321C134.33 370.422 133.653 369.729 132.762 369.244L132.284 370.122L131.806 371C132.35 371.297 132.71 371.683 132.932 372.162L133.839 371.741ZM132.284 370.122L132.769 369.248C131.852 368.739 130.714 368.526 129.429 368.526V369.526V370.526C130.516 370.526 131.282 370.71 131.799 370.997L132.284 370.122ZM129.429 369.526V368.526H124.784V369.526V370.526H129.429V369.526ZM124.784 369.526H123.784V389H124.784H125.784V369.526H124.784ZM124.784 389V388H122.142V389V390H124.784V389ZM141.335 389H140.335V390H141.335V389ZM141.335 367.182V366.182H140.335V367.182H141.335ZM152.905 368.055L152.435 368.938L152.439 368.94L152.905 368.055ZM155.334 370.431L154.447 370.893L154.447 370.893L155.334 370.431ZM155.334 377.292L154.449 376.825L154.449 376.825L155.334 377.292ZM152.915 379.636L153.374 380.524L153.379 380.522L152.915 379.636ZM142.784 380.477H141.784V381.477H142.784V380.477ZM142.784 378.091V377.091H141.784V378.091H142.784ZM151.477 377.58L151.048 376.676L151.044 376.678L151.477 377.58ZM153.032 376.131L152.144 375.672L152.142 375.675L153.032 376.131ZM151.466 370.069L151.016 370.962L151.023 370.965L151.466 370.069ZM143.977 369.526V368.526H142.977V369.526H143.977ZM143.977 389V390H144.977V389H143.977ZM151.605 379.199L152.482 378.718L152.197 378.199H151.605V379.199ZM156.974 389V390H158.662L157.851 388.52L156.974 389ZM153.906 389L153.026 389.475L153.309 390H153.906V389ZM148.622 379.199V378.199H146.947L147.742 379.673L148.622 379.199ZM141.335 389H142.335V367.182H141.335H140.335V389H141.335ZM141.335 367.182V368.182H148.707V367.182V366.182H141.335V367.182ZM148.707 367.182V368.182C150.306 368.182 151.53 368.456 152.435 368.938L152.905 368.055L153.375 367.173C152.092 366.49 150.517 366.182 148.707 366.182V367.182ZM152.905 368.055L152.439 368.94C153.369 369.43 154.024 370.081 154.447 370.893L155.334 370.431L156.22 369.969C155.593 368.764 154.628 367.832 153.37 367.17L152.905 368.055ZM155.334 370.431L154.447 370.893C154.889 371.741 155.122 372.726 155.122 373.872H156.122H157.122C157.122 372.447 156.83 371.138 156.22 369.969L155.334 370.431ZM156.122 373.872H155.122C155.122 375.018 154.889 375.994 154.449 376.825L155.334 377.292L156.218 377.759C156.83 376.601 157.122 375.297 157.122 373.872H156.122ZM155.334 377.292L154.449 376.825C154.027 377.624 153.376 378.266 152.452 378.749L152.915 379.636L153.379 380.522C154.628 379.869 155.589 378.949 156.218 377.759L155.334 377.292ZM152.915 379.636L152.456 378.747C151.555 379.212 150.338 379.477 148.75 379.477V380.477V381.477C150.542 381.477 152.102 381.181 153.374 380.524L152.915 379.636ZM148.75 380.477V379.477H142.784V380.477V381.477H148.75V380.477ZM142.784 380.477H143.784V378.091H142.784H141.784V380.477H142.784ZM142.784 378.091V379.091H148.665V378.091V377.091H142.784V378.091ZM148.665 378.091V379.091C149.913 379.091 151.016 378.91 151.91 378.481L151.477 377.58L151.044 376.678C150.518 376.931 149.745 377.091 148.665 377.091V378.091ZM151.477 377.58L151.906 378.483C152.795 378.06 153.49 377.432 153.923 376.586L153.032 376.131L152.142 375.675C151.936 376.079 151.594 376.417 151.048 376.676L151.477 377.58ZM153.032 376.131L153.921 376.59C154.336 375.787 154.523 374.87 154.523 373.872H153.523H152.523C152.523 374.622 152.383 375.21 152.144 375.672L153.032 376.131ZM153.523 373.872H154.523C154.523 372.873 154.335 371.951 153.927 371.134L153.032 371.582L152.138 372.029C152.383 372.519 152.523 373.124 152.523 373.872H153.523ZM153.032 371.582L153.927 371.134C153.493 370.267 152.803 369.615 151.91 369.173L151.466 370.069L151.023 370.965C151.565 371.233 151.918 371.589 152.138 372.029L153.032 371.582ZM151.466 370.069L151.917 369.176C151.01 368.718 149.89 368.526 148.622 368.526V369.526V370.526C149.712 370.526 150.488 370.695 151.016 370.962L151.466 370.069ZM148.622 369.526V368.526H143.977V369.526V370.526H148.622V369.526ZM143.977 369.526H142.977V389H143.977H144.977V369.526H143.977ZM143.977 389V388H141.335V389V390H143.977V389ZM151.605 379.199L150.728 379.679L156.097 389.48L156.974 389L157.851 388.52L152.482 378.718L151.605 379.199ZM156.974 389V388H153.906V389V390H156.974V389ZM153.906 389L154.786 388.525L149.502 378.724L148.622 379.199L147.742 379.673L153.026 389.475L153.906 389ZM148.622 379.199V380.199H151.605V379.199V378.199H148.622V379.199ZM160.674 389H159.674V390H160.674V389ZM160.674 367.182V366.182H159.674V367.182H160.674ZM173.842 367.182H174.842V366.182H173.842V367.182ZM173.842 369.526V370.526H174.842V369.526H173.842ZM163.317 369.526V368.526H162.317V369.526H163.317ZM163.317 376.898H162.317V377.898H163.317V376.898ZM173.16 376.898H174.16V375.898H173.16V376.898ZM173.16 379.241V380.241H174.16V379.241H173.16ZM163.317 379.241V378.241H162.317V379.241H163.317ZM163.317 386.656H162.317V387.656H163.317V386.656ZM174.013 386.656H175.013V385.656H174.013V386.656ZM174.013 389V390H175.013V389H174.013ZM160.674 389H161.674V367.182H160.674H159.674V389H160.674ZM160.674 367.182V368.182H173.842V367.182V366.182H160.674V367.182ZM173.842 367.182H172.842V369.526H173.842H174.842V367.182H173.842ZM173.842 369.526V368.526H163.317V369.526V370.526H173.842V369.526ZM163.317 369.526H162.317V376.898H163.317H164.317V369.526H163.317ZM163.317 376.898V377.898H173.16V376.898V375.898H163.317V376.898ZM173.16 376.898H172.16V379.241H173.16H174.16V376.898H173.16ZM173.16 379.241V378.241H163.317V379.241V380.241H173.16V379.241ZM163.317 379.241H162.317V386.656H163.317H164.317V379.241H163.317ZM163.317 386.656V387.656H174.013V386.656V385.656H163.317V386.656ZM174.013 386.656H173.013V389H174.013H175.013V386.656H174.013ZM174.013 389V388H160.674V389V390H174.013V389ZM190.686 372.636L189.693 372.754L189.797 373.636H190.686V372.636ZM189.131 370.122L188.582 370.958L188.582 370.958L189.131 370.122ZM183.25 369.696L182.854 368.778L182.851 368.779L183.25 369.696ZM181.567 370.985L180.763 370.39L180.758 370.397L181.567 370.985ZM181.386 374.352L180.551 374.903L180.557 374.911L180.562 374.919L181.386 374.352ZM182.472 375.385L181.94 376.231L181.95 376.238L182.472 375.385ZM183.857 376.056L183.512 376.995L183.524 376.999L183.857 376.056ZM185.189 376.472L185.449 375.506L185.443 375.505L185.189 376.472ZM187.405 377.068L187.145 378.034L187.151 378.035L187.405 377.068ZM189.301 377.686L188.948 378.622L188.951 378.623L189.301 377.686ZM191.315 378.762L190.735 379.577L190.745 379.584L191.315 378.762ZM192.913 380.488L193.772 379.976L193.772 379.976L192.913 380.488ZM192.614 386.273L191.776 385.728L191.773 385.733L192.614 386.273ZM189.93 388.542L189.5 387.639L189.498 387.64L189.93 388.542ZM181.599 388.627L181.193 389.541L181.195 389.542L181.599 388.627ZM178.914 386.518L178.101 387.1L178.104 387.104L178.914 386.518ZM177.817 383.375V382.375H176.743L176.819 383.446L177.817 383.375ZM180.544 383.375L181.54 383.289L181.461 382.375H180.544V383.375ZM181.375 385.42L180.63 386.087L180.639 386.098L181.375 385.42ZM183.229 386.614L182.896 387.557L182.907 387.561L183.229 386.614ZM188.374 386.507L188.751 387.433L188.758 387.43L188.374 386.507ZM190.281 385.122L191.064 385.745L191.067 385.74L190.281 385.122ZM190.377 381.266L191.124 380.601L191.124 380.601L190.377 381.266ZM188.779 380.158L188.384 381.076L188.384 381.076L188.779 380.158ZM186.638 379.412L186.363 380.373L186.37 380.375L186.638 379.412ZM183.953 378.645L183.677 379.606L183.678 379.606L183.953 378.645ZM179.905 376.546L179.23 377.284L179.23 377.284L179.905 376.546ZM179.404 369.781L178.596 369.192L178.595 369.193L179.404 369.781ZM182.089 367.651L182.499 368.563L182.501 368.562L182.089 367.651ZM189.621 367.64L189.202 368.548L189.207 368.55L189.621 367.64ZM192.22 369.685L191.415 370.279L191.418 370.283L192.22 369.685ZM193.243 372.636V373.636H194.276L194.242 372.604L193.243 372.636ZM190.686 372.636L191.679 372.519C191.516 371.146 190.835 370.045 189.679 369.286L189.131 370.122L188.582 370.958C189.244 371.393 189.6 371.968 189.693 372.754L190.686 372.636ZM189.131 370.122L189.679 369.286C188.575 368.562 187.259 368.227 185.785 368.227V369.227V370.227C186.954 370.227 187.868 370.49 188.582 370.958L189.131 370.122ZM185.785 369.227V368.227C184.713 368.227 183.728 368.401 182.854 368.778L183.25 369.696L183.646 370.614C184.221 370.366 184.926 370.227 185.785 370.227V369.227ZM183.25 369.696L182.851 368.779C181.997 369.151 181.287 369.682 180.763 370.39L181.567 370.985L182.37 371.58C182.656 371.194 183.068 370.866 183.649 370.613L183.25 369.696ZM181.567 370.985L180.758 370.397C180.232 371.12 179.97 371.949 179.97 372.849H180.97H181.97C181.97 372.358 182.106 371.944 182.375 371.573L181.567 370.985ZM180.97 372.849H179.97C179.97 373.596 180.15 374.296 180.551 374.903L181.386 374.352L182.22 373.8C182.067 373.569 181.97 373.268 181.97 372.849H180.97ZM181.386 374.352L180.562 374.919C180.926 375.447 181.389 375.885 181.94 376.231L182.472 375.385L183.005 374.538C182.674 374.331 182.413 374.08 182.209 373.784L181.386 374.352ZM182.472 375.385L181.95 376.238C182.446 376.542 182.967 376.794 183.512 376.995L183.857 376.056L184.202 375.118C183.781 374.963 183.379 374.768 182.995 374.532L182.472 375.385ZM183.857 376.056L183.524 376.999C184.028 377.177 184.498 377.324 184.934 377.439L185.189 376.472L185.443 375.505C185.07 375.406 184.653 375.276 184.19 375.113L183.857 376.056ZM185.189 376.472L184.929 377.437L187.145 378.034L187.405 377.068L187.665 376.103L185.449 375.506L185.189 376.472ZM187.405 377.068L187.151 378.035C187.678 378.174 188.276 378.368 188.948 378.622L189.301 377.686L189.654 376.751C188.934 376.479 188.268 376.261 187.659 376.101L187.405 377.068ZM189.301 377.686L188.951 378.623C189.569 378.854 190.163 379.171 190.735 379.577L191.315 378.762L191.894 377.947C191.187 377.444 190.439 377.044 189.651 376.749L189.301 377.686ZM191.315 378.762L190.745 379.584C191.269 379.947 191.705 380.415 192.054 381L192.913 380.488L193.772 379.976C193.282 379.155 192.653 378.472 191.884 377.94L191.315 378.762ZM192.913 380.488L192.054 381C192.36 381.514 192.541 382.19 192.541 383.077H193.541H194.541C194.541 381.918 194.303 380.868 193.772 379.976L192.913 380.488ZM193.541 383.077H192.541C192.541 384.07 192.284 384.945 191.776 385.728L192.614 386.273L193.453 386.817C194.18 385.697 194.541 384.441 194.541 383.077H193.541ZM192.614 386.273L191.773 385.733C191.277 386.504 190.537 387.145 189.5 387.639L189.93 388.542L190.359 389.445C191.68 388.816 192.729 387.945 193.456 386.813L192.614 386.273ZM189.93 388.542L189.498 387.64C188.494 388.121 187.226 388.384 185.658 388.384V389.384V390.384C187.441 390.384 189.022 390.085 190.361 389.444L189.93 388.542ZM185.658 389.384V388.384C184.2 388.384 182.991 388.148 182.002 387.712L181.599 388.627L181.195 389.542C182.493 390.115 183.99 390.384 185.658 390.384V389.384ZM181.599 388.627L182.004 387.713C181.01 387.272 180.262 386.674 179.724 385.931L178.914 386.518L178.104 387.104C178.873 388.165 179.915 388.974 181.193 389.541L181.599 388.627ZM178.914 386.518L179.727 385.935C179.196 385.195 178.887 384.328 178.814 383.304L177.817 383.375L176.819 383.446C176.917 384.809 177.339 386.036 178.101 387.1L178.914 386.518ZM177.817 383.375V384.375H180.544V383.375V382.375H177.817V383.375ZM180.544 383.375L179.548 383.461C179.634 384.469 179.982 385.364 180.63 386.087L181.375 385.42L182.12 384.754C181.802 384.398 181.595 383.929 181.54 383.289L180.544 383.375ZM181.375 385.42L180.639 386.098C181.25 386.761 182.011 387.245 182.896 387.557L183.229 386.614L183.561 385.67C182.955 385.457 182.48 385.145 182.111 384.743L181.375 385.42ZM183.229 386.614L182.907 387.561C183.772 387.854 184.692 387.997 185.658 387.997V386.997V385.997C184.891 385.997 184.191 385.884 183.55 385.667L183.229 386.614ZM185.658 386.997V387.997C186.774 387.997 187.811 387.816 188.751 387.433L188.374 386.507L187.997 385.581C187.332 385.852 186.558 385.997 185.658 385.997V386.997ZM188.374 386.507L188.758 387.43C189.693 387.042 190.475 386.486 191.064 385.745L190.281 385.122L189.498 384.5C189.15 384.938 188.661 385.305 187.99 385.584L188.374 386.507ZM190.281 385.122L191.067 385.74C191.682 384.958 191.984 384.042 191.984 383.034H190.984H189.984C189.984 383.617 189.818 384.093 189.495 384.504L190.281 385.122ZM190.984 383.034H191.984C191.984 382.114 191.722 381.272 191.124 380.601L190.377 381.266L189.63 381.931C189.842 382.168 189.984 382.506 189.984 383.034H190.984ZM190.377 381.266L191.124 380.601C190.606 380.019 189.945 379.571 189.174 379.239L188.779 380.158L188.384 381.076C188.934 381.313 189.339 381.603 189.63 381.931L190.377 381.266ZM188.779 380.158L189.174 379.239C188.468 378.935 187.711 378.672 186.905 378.448L186.638 379.412L186.37 380.375C187.098 380.578 187.769 380.812 188.384 381.076L188.779 380.158ZM186.638 379.412L186.912 378.45L184.228 377.683L183.953 378.645L183.678 379.606L186.363 380.373L186.638 379.412ZM183.953 378.645L184.229 377.684C182.628 377.223 181.43 376.586 180.579 375.808L179.905 376.546L179.23 377.284C180.368 378.325 181.869 379.086 183.677 379.606L183.953 378.645ZM179.905 376.546L180.579 375.808C179.813 375.107 179.413 374.195 179.413 372.977H178.413H177.413C177.413 374.7 178.008 376.167 179.23 377.284L179.905 376.546ZM178.413 372.977H179.413C179.413 371.947 179.688 371.092 180.213 370.369L179.404 369.781L178.595 369.193C177.799 370.288 177.413 371.564 177.413 372.977H178.413ZM179.404 369.781L180.212 370.37C180.769 369.606 181.521 369.002 182.499 368.563L182.089 367.651L181.679 366.738C180.412 367.308 179.374 368.124 178.596 369.192L179.404 369.781ZM182.089 367.651L182.501 368.562C183.486 368.116 184.603 367.884 185.871 367.884V366.884V365.884C184.354 365.884 182.95 366.163 181.676 366.74L182.089 367.651ZM185.871 366.884V367.884C187.156 367.884 188.26 368.114 189.202 368.548L189.621 367.64L190.039 366.732C188.794 366.158 187.397 365.884 185.871 365.884V366.884ZM189.621 367.64L189.207 368.55C190.164 368.985 190.889 369.565 191.415 370.279L192.22 369.685L193.025 369.092C192.273 368.073 191.265 367.289 190.034 366.73L189.621 367.64ZM192.22 369.685L191.418 370.283C191.94 370.983 192.214 371.768 192.243 372.669L193.243 372.636L194.242 372.604C194.2 371.303 193.793 370.121 193.022 369.087L192.22 369.685ZM193.243 372.636V371.636H190.686V372.636V373.636H193.243V372.636ZM209.967 372.636L208.974 372.754L209.078 373.636H209.967V372.636ZM208.411 370.122L207.863 370.958L207.863 370.958L208.411 370.122ZM202.531 369.696L202.135 368.778L202.131 368.779L202.531 369.696ZM200.848 370.985L200.044 370.39L200.039 370.397L200.848 370.985ZM200.666 374.352L199.832 374.903L199.838 374.911L199.843 374.919L200.666 374.352ZM201.753 375.385L201.221 376.231L201.23 376.238L201.753 375.385ZM203.138 376.056L202.793 376.995L202.805 376.999L203.138 376.056ZM204.47 376.472L204.73 375.506L204.724 375.505L204.47 376.472ZM206.686 377.068L206.426 378.034L206.432 378.035L206.686 377.068ZM208.582 377.686L208.229 378.622L208.232 378.623L208.582 377.686ZM210.595 378.762L210.016 379.577L210.026 379.584L210.595 378.762ZM212.193 380.488L213.052 379.976L213.052 379.976L212.193 380.488ZM211.895 386.273L211.056 385.728L211.054 385.733L211.895 386.273ZM209.21 388.542L208.781 387.639L208.779 387.64L209.21 388.542ZM200.879 388.627L200.474 389.541L200.476 389.542L200.879 388.627ZM198.195 386.518L197.382 387.1L197.385 387.104L198.195 386.518ZM197.098 383.375V382.375H196.024L196.1 383.446L197.098 383.375ZM199.825 383.375L200.821 383.289L200.742 382.375H199.825V383.375ZM200.656 385.42L199.91 386.087L199.92 386.098L200.656 385.42ZM202.509 386.614L202.177 387.557L202.188 387.561L202.509 386.614ZM207.655 386.507L208.032 387.433L208.039 387.43L207.655 386.507ZM209.562 385.122L210.345 385.745L210.348 385.74L209.562 385.122ZM209.658 381.266L210.405 380.601L210.405 380.601L209.658 381.266ZM208.06 380.158L207.665 381.076L207.665 381.076L208.06 380.158ZM205.919 379.412L205.644 380.373L205.651 380.375L205.919 379.412ZM203.234 378.645L202.958 379.606L202.959 379.606L203.234 378.645ZM199.186 376.546L198.511 377.284L198.511 377.284L199.186 376.546ZM198.685 369.781L197.877 369.192L197.876 369.193L198.685 369.781ZM201.37 367.651L201.779 368.563L201.782 368.562L201.37 367.651ZM208.901 367.64L208.483 368.548L208.488 368.55L208.901 367.64ZM211.501 369.685L210.696 370.279L210.699 370.283L211.501 369.685ZM212.524 372.636V373.636H213.556L213.523 372.604L212.524 372.636ZM209.967 372.636L210.96 372.519C210.797 371.146 210.116 370.045 208.96 369.286L208.411 370.122L207.863 370.958C208.525 371.393 208.881 371.968 208.974 372.754L209.967 372.636ZM208.411 370.122L208.96 369.286C207.856 368.562 206.54 368.227 205.066 368.227V369.227V370.227C206.235 370.227 207.149 370.49 207.863 370.958L208.411 370.122ZM205.066 369.227V368.227C203.994 368.227 203.009 368.401 202.135 368.778L202.531 369.696L202.927 370.614C203.501 370.366 204.207 370.227 205.066 370.227V369.227ZM202.531 369.696L202.131 368.779C201.278 369.151 200.568 369.682 200.044 370.39L200.848 370.985L201.651 371.58C201.937 371.194 202.349 370.866 202.93 370.613L202.531 369.696ZM200.848 370.985L200.039 370.397C199.513 371.12 199.251 371.949 199.251 372.849H200.251H201.251C201.251 372.358 201.387 371.944 201.656 371.573L200.848 370.985ZM200.251 372.849H199.251C199.251 373.596 199.431 374.296 199.832 374.903L200.666 374.352L201.501 373.8C201.348 373.569 201.251 373.268 201.251 372.849H200.251ZM200.666 374.352L199.843 374.919C200.207 375.447 200.67 375.885 201.221 376.231L201.753 375.385L202.286 374.538C201.955 374.331 201.694 374.08 201.49 373.784L200.666 374.352ZM201.753 375.385L201.23 376.238C201.727 376.542 202.248 376.794 202.793 376.995L203.138 376.056L203.483 375.118C203.062 374.963 202.66 374.768 202.276 374.532L201.753 375.385ZM203.138 376.056L202.805 376.999C203.308 377.177 203.779 377.324 204.215 377.439L204.47 376.472L204.724 375.505C204.351 375.406 203.933 375.276 203.471 375.113L203.138 376.056ZM204.47 376.472L204.21 377.437L206.426 378.034L206.686 377.068L206.946 376.103L204.73 375.506L204.47 376.472ZM206.686 377.068L206.432 378.035C206.959 378.174 207.557 378.368 208.229 378.622L208.582 377.686L208.935 376.751C208.215 376.479 207.549 376.261 206.939 376.101L206.686 377.068ZM208.582 377.686L208.232 378.623C208.85 378.854 209.444 379.171 210.016 379.577L210.595 378.762L211.175 377.947C210.468 377.444 209.72 377.044 208.932 376.749L208.582 377.686ZM210.595 378.762L210.026 379.584C210.55 379.947 210.986 380.415 211.334 381L212.193 380.488L213.052 379.976C212.563 379.155 211.933 378.472 211.165 377.94L210.595 378.762ZM212.193 380.488L211.334 381C211.641 381.514 211.822 382.19 211.822 383.077H212.822H213.822C213.822 381.918 213.584 380.868 213.052 379.976L212.193 380.488ZM212.822 383.077H211.822C211.822 384.07 211.565 384.945 211.056 385.728L211.895 386.273L212.734 386.817C213.461 385.697 213.822 384.441 213.822 383.077H212.822ZM211.895 386.273L211.054 385.733C210.558 386.504 209.818 387.145 208.781 387.639L209.21 388.542L209.64 389.445C210.961 388.816 212.01 387.945 212.737 386.813L211.895 386.273ZM209.21 388.542L208.779 387.64C207.775 388.121 206.507 388.384 204.938 388.384V389.384V390.384C206.722 390.384 208.302 390.085 209.642 389.444L209.21 388.542ZM204.938 389.384V388.384C203.481 388.384 202.272 388.148 201.283 387.712L200.879 388.627L200.476 389.542C201.774 390.115 203.271 390.384 204.938 390.384V389.384ZM200.879 388.627L201.285 387.713C200.291 387.272 199.543 386.674 199.005 385.931L198.195 386.518L197.385 387.104C198.154 388.165 199.195 388.974 200.474 389.541L200.879 388.627ZM198.195 386.518L199.008 385.935C198.477 385.195 198.168 384.328 198.095 383.304L197.098 383.375L196.1 383.446C196.197 384.809 196.62 386.036 197.382 387.1L198.195 386.518ZM197.098 383.375V384.375H199.825V383.375V382.375H197.098V383.375ZM199.825 383.375L198.828 383.461C198.915 384.469 199.263 385.364 199.911 386.087L200.656 385.42L201.401 384.754C201.082 384.398 200.876 383.929 200.821 383.289L199.825 383.375ZM200.656 385.42L199.92 386.098C200.531 386.761 201.292 387.245 202.177 387.557L202.509 386.614L202.842 385.67C202.236 385.457 201.761 385.145 201.392 384.743L200.656 385.42ZM202.509 386.614L202.188 387.561C203.053 387.854 203.972 387.997 204.938 387.997V386.997V385.997C204.172 385.997 203.471 385.884 202.831 385.667L202.509 386.614ZM204.938 386.997V387.997C206.055 387.997 207.092 387.816 208.032 387.433L207.655 386.507L207.278 385.581C206.613 385.852 205.839 385.997 204.938 385.997V386.997ZM207.655 386.507L208.039 387.43C208.974 387.042 209.755 386.486 210.345 385.745L209.562 385.122L208.779 384.5C208.431 384.938 207.942 385.305 207.271 385.584L207.655 386.507ZM209.562 385.122L210.348 385.74C210.963 384.958 211.265 384.042 211.265 383.034H210.265H209.265C209.265 383.617 209.099 384.093 208.776 384.504L209.562 385.122ZM210.265 383.034H211.265C211.265 382.114 211.003 381.272 210.405 380.601L209.658 381.266L208.911 381.931C209.123 382.168 209.265 382.506 209.265 383.034H210.265ZM209.658 381.266L210.405 380.601C209.886 380.019 209.226 379.571 208.455 379.239L208.06 380.158L207.665 381.076C208.215 381.313 208.62 381.603 208.911 381.931L209.658 381.266ZM208.06 380.158L208.455 379.239C207.749 378.935 206.992 378.672 206.186 378.448L205.919 379.412L205.651 380.375C206.379 380.578 207.05 380.812 207.665 381.076L208.06 380.158ZM205.919 379.412L206.193 378.45L203.509 377.683L203.234 378.645L202.959 379.606L205.644 380.373L205.919 379.412ZM203.234 378.645L203.51 377.684C201.909 377.223 200.711 376.586 199.86 375.808L199.186 376.546L198.511 377.284C199.649 378.325 201.15 379.086 202.958 379.606L203.234 378.645ZM199.186 376.546L199.86 375.808C199.093 375.107 198.694 374.195 198.694 372.977H197.694H196.694C196.694 374.7 197.289 376.167 198.511 377.284L199.186 376.546ZM197.694 372.977H198.694C198.694 371.947 198.968 371.092 199.494 370.369L198.685 369.781L197.876 369.193C197.08 370.288 196.694 371.564 196.694 372.977H197.694ZM198.685 369.781L199.493 370.37C200.05 369.606 200.802 369.002 201.779 368.563L201.37 367.651L200.96 366.738C199.693 367.308 198.655 368.124 197.877 369.192L198.685 369.781ZM201.37 367.651L201.782 368.562C202.767 368.116 203.884 367.884 205.151 367.884V366.884V365.884C203.635 365.884 202.231 366.163 200.957 366.74L201.37 367.651ZM205.151 366.884V367.884C206.437 367.884 207.541 368.114 208.483 368.548L208.901 367.64L209.32 366.732C208.075 366.158 206.678 365.884 205.151 365.884V366.884ZM208.901 367.64L208.488 368.55C209.445 368.985 210.169 369.565 210.696 370.279L211.501 369.685L212.306 369.092C211.554 368.073 210.546 367.289 209.315 366.73L208.901 367.64ZM211.501 369.685L210.699 370.283C211.221 370.983 211.495 371.768 211.524 372.669L212.524 372.636L213.523 372.604C213.481 371.303 213.073 370.121 212.302 369.087L211.501 369.685ZM212.524 372.636V371.636H209.967V372.636V373.636H212.524V372.636Z" fill="#FDC114" mask="url(#path-14-outside-1_368_4105)"/>
</svg>
