<svg width="30" height="29" viewBox="0 0 30 29" fill="none" xmlns="http://www.w3.org/2000/svg">
<path fill-rule="evenodd" clip-rule="evenodd" d="M6.70086 0.050745C4.44174 0.349791 2.71839 1.92258 2.06959 4.27755L1.95786 4.68322L1.94365 12.8951C1.93075 20.3604 1.93683 21.127 2.01071 21.328C2.15823 21.7293 2.63261 21.9705 3.04746 21.8552C3.3151 21.7808 3.61028 21.4812 3.68367 21.2094C3.72332 21.0626 3.73908 18.7105 3.73848 13.0316C3.73752 4.18885 3.71584 4.78166 4.0687 4.00907C4.51387 3.03427 5.29835 2.34561 6.34951 2.00682L6.72596 1.88549H15.9365C26.0802 1.88549 25.3537 1.8616 26.1007 2.21966C27.001 2.65118 27.6755 3.4274 28.0169 4.42469L28.1587 4.83865L28.1719 14.3706C28.1848 23.7234 28.1832 23.9102 28.0857 24.3083C27.7708 25.5936 26.8862 26.5493 25.5988 26.9952L25.2474 27.1169L18.3207 27.1428C11.8046 27.1671 11.3843 27.1741 11.2306 27.2608C11.032 27.3728 10.8353 27.6714 10.79 27.9295C10.7183 28.3389 11.0339 28.8383 11.4369 28.9532C11.5899 28.9969 13.4496 29.0079 18.4713 28.9949C26.0678 28.9751 25.5325 29.0003 26.5023 28.6178C28.2969 27.9098 29.5867 26.2983 29.9171 24.3512C30.0276 23.6997 30.0276 5.30271 29.9171 4.65115C29.5039 2.21614 27.5941 0.355023 25.1973 0.0518841C24.6562 -0.0165566 7.21741 -0.017644 6.70086 0.050745ZM15.4848 7.89869C15.4157 7.91081 15.2012 7.94713 15.0079 7.97941C14.2733 8.10204 13.4857 8.45378 12.8476 8.94426C11.4544 10.0151 10.6662 11.6015 10.6662 13.3344C10.6662 14.8459 11.1829 16.1198 12.2377 17.2085C12.483 17.4617 12.6758 17.676 12.6662 17.6849C12.6566 17.6937 12.5246 17.7646 12.3728 17.8424C11.2851 18.4 10.2328 19.4818 10.1751 20.1018C10.1253 20.6371 10.5277 21.1045 11.0362 21.1019C11.3888 21.1 11.5612 20.9909 11.9067 20.5511C12.2927 20.0598 12.6918 19.7329 13.2501 19.4512C14.6013 18.7694 16.468 18.6589 17.9945 19.1703C18.9013 19.4741 19.4834 19.8725 20.0213 20.5571C20.2339 20.8279 20.3873 20.9698 20.5453 21.0419C21.2798 21.3773 22.0352 20.5023 21.6527 19.7591C21.3308 19.1337 20.4775 18.3392 19.6636 17.9072C19.436 17.7863 19.2496 17.6736 19.2495 17.6568C19.2494 17.6398 19.3611 17.5287 19.4978 17.4097C20.3131 16.7001 20.9838 15.464 21.1792 14.311C21.6717 11.405 19.8337 8.60548 17.0342 7.99765C16.6833 7.92143 15.7091 7.85921 15.4848 7.89869ZM15.284 9.80876C14.1993 10.0465 13.316 10.7401 12.8504 11.7199C12.555 12.3415 12.4731 12.6939 12.4731 13.3438C12.4731 14.0475 12.5338 14.3212 12.8302 14.9563C13.0393 15.4041 13.1419 15.5541 13.4732 15.8961C13.9139 16.351 14.3398 16.6228 14.9243 16.8222C15.2543 16.9348 15.402 16.9539 15.9616 16.956C16.5483 16.9582 16.6546 16.944 17.0157 16.8148C18.1082 16.424 18.8801 15.6492 19.2784 14.5435C19.4572 14.0468 19.5074 13.0559 19.3804 12.5303C19.0831 11.3013 18.1654 10.2882 17.0045 9.90741C16.5172 9.74758 15.761 9.70421 15.284 9.80876ZM7.75528 21.7335C7.38074 21.9011 7.2019 22.1805 7.20456 22.5939C7.20667 22.9188 7.25189 23.0133 7.56721 23.353C7.69806 23.4939 7.80513 23.6232 7.80513 23.6404C7.80513 23.6575 6.20856 23.6715 4.25723 23.6715C0.754312 23.6715 0.706527 23.6729 0.491347 23.7804C0.371434 23.8404 0.211818 23.9726 0.136678 24.0743C0.0195257 24.2328 0 24.3086 0 24.6041C0 24.9043 0.0187224 24.9743 0.144759 25.1448C0.44552 25.5519 0.260305 25.5342 4.25392 25.5355C6.20711 25.5362 7.80513 25.5551 7.80513 25.5777C7.80513 25.6002 7.70168 25.7227 7.57524 25.8497C7.27628 26.15 7.2028 26.303 7.2028 26.6247C7.2028 27.2126 7.67276 27.6204 8.24809 27.5317C8.47255 27.4971 8.53213 27.4449 9.62294 26.326C10.25 25.6828 10.7978 25.0812 10.8401 24.9891C10.9296 24.7944 10.9402 24.4666 10.8637 24.2577C10.7848 24.0421 8.67659 21.8674 8.43255 21.7499C8.19051 21.6333 7.98989 21.6285 7.75528 21.7335Z" fill="#F8C02D"/>
</svg>
