<svg version="1.2" xmlns="http://www.w3.org/2000/svg" viewBox="0 0 270 163" width="270" height="163">
	<title>loyalty-illustration</title>
	<style>
		.s0 { fill: #ffffff;stroke: #cccccc;stroke-linecap: round;stroke-linejoin: round } 
		.s1 { fill: none;stroke: #cccccc;stroke-linecap: round;stroke-linejoin: round } 
		.s2 { fill: #ffffff;stroke: #ffcc09;stroke-linecap: round;stroke-linejoin: round } 
		.s3 { fill: #ffffff;stroke: #ffcc09;stroke-linecap: square;stroke-linejoin: round } 
		.s4 { fill: none;stroke: #ffcc09;stroke-linecap: round;stroke-linejoin: round } 
		.s5 { fill: #ffffff } 
		.s6 { fill: #ffcc09 } 
	</style>
	<path class="s0" d="m95.1 85.7h15c1.4 0.2 2.7-0.9 2.9-2.3 0.2-1.4-0.9-2.7-2.4-2.9h-0.2q-0.2-0.3-0.3-0.7-0.5-0.8-1.1-1.6c-1.3-1.8-3.4-3-5.7-3.3-2.2-0.1-4.4 0.4-6.3 1.7-1.3 1-2.6 2.5-2.6 4.3l-0.5 0.2c-1 0.5-1.5 1.7-1.2 2.7 0.3 1.1 1.3 1.9 2.4 1.9z"/>
	<path class="s0" d="m41.7 148.8h-21.1c-0.2 0-0.4-0.1-0.5-0.3-0.1-0.2-0.1-0.4 0-0.6l10.4-22.3c0.2-0.2 0.4-0.4 0.6-0.4 0.3 0 0.5 0.2 0.7 0.4l10.4 22.3c0.1 0.2 0.1 0.4 0 0.6-0.1 0.2-0.3 0.3-0.5 0.3z"/>
	<path class="s1" d="m31.1 141.8v19.7"/>
	<path class="s1" d="m34 141.8l-3.2 3.2"/>
	<path class="s1" d="m27 140.5l3.8 6.4"/>
	<path class="s0" d="m76.1 113.1h-38.9v49.1h38.9z"/>
	<path class="s0" d="m37.2 113.1v-19.4c0-1.4 1.2-2.6 2.6-2.6h4.9q0.6 0.1 1-0.2l7.4-3.6q0.5-0.3 1-0.3h19.7c1.2 0 2.3 1 2.3 2.3v23.8z"/>
	<path class="s0" d="m51.4 97.8h3.4c0.4 0 0.8 0.3 0.9 0.7v2.5c0 0.4-0.4 0.7-0.9 0.7h-3.4c-0.4 0-0.8-0.3-0.8-0.7v-2.5c0-0.4 0.4-0.7 0.8-0.7zm8.3 0h3.4c0.4 0 0.8 0.3 0.9 0.7v2.5c0 0.4-0.4 0.7-0.9 0.7h-3.4c-0.4 0-0.8-0.3-0.8-0.7v-2.5c0.1-0.4 0.4-0.7 0.8-0.7zm8.3 0h3.4c0.4 0 0.8 0.3 0.8 0.7v2.5c0 0.4-0.4 0.7-0.8 0.7h-3.4c-0.4 0-0.8-0.3-0.9-0.7v-2.5c0.1-0.4 0.5-0.7 0.9-0.7zm-25.5 0h3.4c0.4 0 0.8 0.3 0.9 0.7v2.5c0 0.4-0.4 0.7-0.9 0.7h-3.4c-0.4 0-0.8-0.3-0.8-0.7v-2.5c0-0.4 0.4-0.7 0.8-0.7z"/>
	<path class="s0" d="m44.4 118.9h8.5c1.2 0 2.1 0.9 2.1 2.1v8.5c0 1.2-0.9 2.1-2.1 2.1h-8.5c-1.2 0-2.1-0.9-2.1-2.1v-8.5c0-1.2 0.9-2.1 2.1-2.1zm17.2 0h8.5c1.2 0 2.1 0.9 2.1 2.1v8.5c0 1.2-0.9 2.1-2.1 2.1h-8.5c-1.2 0-2.1-0.9-2.1-2.1v-8.5c0-0.6 0.2-1.1 0.6-1.5 0.4-0.4 1-0.6 1.5-0.6z"/>
	<path class="s2" d="m52 144.3h9.9c1.9 0 3.3 1.5 3.3 3.3v14.6h-16.5v-14.6c0-1.8 1.5-3.3 3.3-3.3z"/>
	<path class="s2" d="m65.2 147.6v14.6h-8.2v-17.9h4.9c1.8 0 3.3 1.5 3.3 3.3z"/>
	<path class="s2" d="m58.6 155.8h-3.3c-0.8 0-1.5-0.7-1.5-1.6 0-0.9 0.7-1.6 1.5-1.6h3.3c0.8 0 1.5 0.7 1.5 1.6 0 0.9-0.7 1.6-1.5 1.6z"/>
	<path class="s3" d="m197.8 29c3.1 0 5.7-2.5 5.7-5.7 0-3.2-2.6-5.7-5.7-5.7-3.2 0-5.8 2.5-5.8 5.7 0 3.2 2.6 5.7 5.8 5.7z"/>
	<path class="s4" d="m197.4 8v4.5m11.2 0l-3.2 3.1m7.6 7.4h-4.4m0 11.1l-3.2-3.2m-8 7.7v-4.5m-10.5 0l3.2-3.2m-7.6-7.9h4.4m0-10.5l3.2 3.1"/>
	<path class="s1" d="m150 114.7h4.4"/>
	<path class="s5" d="m166.5 94v68.2h12.1v-57.9c0-5.7-4.1-10.3-9.3-10.3zm-59.3 68.2h59.3v-113.5c0-5.3-3.5-9.5-7.8-9.5h-43.7c-4.3 0-7.8 4.2-7.8 9.5z"/>
	<path class="s1" d="m166.5 162.2v-68.2h2.8c5.2 0 9.3 4.6 9.3 10.3v57.9zm0 0h-59.2v-113.5c0-5.3 3.5-9.5 7.8-9.5h43.7c4.2 0 7.7 4.2 7.7 9.5z"/>
	<path class="s2" d="m120 161.9l35.1 0.3v-21.5c0-1.9-1.5-3.4-3.3-3.4h-28.4c-1.8 0-3.3 1.5-3.3 3.4v21.2z"/>
	<path class="s0" d="m107.3 94v68.2h-12.1v-57.9c0-5.7 4.2-10.3 9.3-10.3zm14.7 1.9c1.4 0 2.5 1.2 2.5 2.6v3.1c0 1.5-1.1 2.6-2.5 2.6-1.4 0-2.6-1.1-2.6-2.6v-3.1c0-1.4 1.2-2.6 2.6-2.6zm0 13.4c1.4 0 2.5 1.2 2.5 2.6v3.1c0 1.4-1.1 2.6-2.5 2.6-1.4 0-2.6-1.2-2.6-2.6v-3.1c0-0.7 0.3-1.4 0.8-1.9 0.4-0.5 1.1-0.7 1.8-0.7zm10.2-13.4c1.4 0 2.5 1.2 2.5 2.6v3.1c0 1.5-1.1 2.6-2.5 2.6-1.4 0-2.6-1.1-2.6-2.6v-3.1c0-1.4 1.2-2.6 2.6-2.6zm0 13.4c1.4 0 2.5 1.2 2.5 2.6v3.1c0 1.4-1.1 2.6-2.5 2.6-1.4 0-2.6-1.2-2.6-2.6v-3.1c0-0.7 0.3-1.4 0.8-1.9 0.4-0.5 1.1-0.7 1.8-0.7zm10.2-13.4c1.4 0 2.5 1.2 2.5 2.6v3.1c0 1.5-1.1 2.6-2.5 2.6-1.4 0-2.6-1.1-2.6-2.6v-3.1c0.1-1.4 1.2-2.5 2.6-2.6zm0 13.4c1.4 0 2.5 1.1 2.5 2.6v3.1c0 1.4-1.1 2.6-2.5 2.6-1.4 0-2.6-1.2-2.6-2.6v-3.1c0.1-1.4 1.2-2.6 2.6-2.6zm9.5-13.4c1.4 0 2.6 1.2 2.6 2.6v3.1c0 1.5-1.2 2.6-2.6 2.6-1.4 0-2.5-1.1-2.5-2.6v-3.1c0-1.4 1.1-2.5 2.5-2.6zm0 13.4c1.4 0 2.6 1.1 2.6 2.6v3.1c0 1.4-1.2 2.6-2.6 2.6-1.4 0-2.5-1.2-2.5-2.6v-3.1c0-1.4 1.1-2.6 2.5-2.6zm-29.9 12.7c1.4 0 2.5 1.2 2.5 2.6v3.2c0 0.6-0.2 1.3-0.7 1.8-0.5 0.5-1.1 0.7-1.8 0.7-1.4 0-2.6-1.1-2.6-2.5v-3.2c0-1.4 1.2-2.6 2.6-2.6zm10.2 0c1.4 0 2.5 1.2 2.5 2.6v3.2c0 1.4-1.1 2.5-2.5 2.5-1.4 0-2.6-1.1-2.6-2.5v-3.2c0-1.4 1.2-2.6 2.6-2.6zm10.2 0c1.4 0 2.5 1.2 2.5 2.6v3.2c0 1.4-1.1 2.5-2.5 2.5-1.4 0-2.6-1.1-2.6-2.5v-3.2c0.1-1.4 1.2-2.5 2.6-2.6zm9.5 0c1.4 0 2.6 1.2 2.6 2.6v3.2c0 1.4-1.2 2.5-2.6 2.5-1.4 0-2.5-1.1-2.5-2.5v-3.2c0-1.4 1.1-2.5 2.5-2.6z"/>
	<path class="s4" d="m137.5 137.3v24.2"/>
	<path class="s2" d="m139.8 151.4c0.3 0 0.6-0.3 0.6-0.7 0-0.3-0.3-0.6-0.6-0.6-0.4 0-0.7 0.3-0.7 0.6 0 0.4 0.3 0.7 0.7 0.7z"/>
	<path class="s2" d="m128.4 35.4h18.3c4.6 0 8.4 3.8 8.4 8.4v36.7c0 4.7-3.8 8.4-8.4 8.4h-18.3c-4.6 0-8.4-3.7-8.4-8.4v-36.7c0-4.6 3.8-8.4 8.4-8.4z"/>
	<path class="s6" d="m142.4 51c-0.5-0.4-1.2-0.4-1.8-0.1-1.3 0.3-7.3 2.1-8 2.5-0.7 0.4-1.2 1.2-1.1 2.1v13.7c0.1 0.9 0.7 1.7 1.6 2 0.6 0.3 7.3 2.1 7.5 2.2 0.6 0.2 1.3 0.1 1.8-0.3 0.7-0.5 1.1-1.4 1.1-2.3v-17.6c0-0.9-0.4-1.7-1.1-2.2zm0 19.8c0 0.5-0.3 1.1-0.7 1.5-0.2 0.1-0.5 0.1-0.7 0-1.9-0.5-7-2-7.5-2.2-0.1 0-0.2-0.1-0.3-0.2q-0.1-0.1-0.1-0.2 0.1-0.1 0.2-0.1h5.8c0.2 0 0.5 0 0.7-0.2 0.2-0.2 0.3-0.5 0.2-0.7v-13.1q0-0.4-0.3-0.6-0.3-0.3-0.6-0.3h-5.8q-0.1 0-0.2-0.1 0-0.2 0.1-0.2l0.1-0.1c0.4-0.3 4.3-1.5 7.7-2.4 0.3-0.2 0.6-0.2 0.9 0 0.3 0.3 0.5 0.8 0.5 1.3v17.6zm-4.3-8.3c0-0.3 0.1-0.5 0.4-0.6 0.2-0.1 0.4 0 0.6 0.1 0.2 0.2 0.2 0.5 0.1 0.7-0.1 0.2-0.3 0.3-0.5 0.3-0.3 0-0.6-0.2-0.6-0.5z"/>
	<path class="s0" d="m221.1 73l-27.2 10.8v78.4h54.8v-78.4z"/>
	<path class="s0" d="m222.1 139.9h9.3c0.4 0 0.8 0.3 0.8 0.8v20.7c0 0.4-0.4 0.8-0.8 0.8h-9.3c-0.4 0-0.8-0.4-0.8-0.8v-20.7c0-0.5 0.4-0.8 0.8-0.8zm-11.5 0h9.3q0.4 0 0.6 0.2 0.2 0.2 0.2 0.6v20.7q0 0.3-0.2 0.6-0.2 0.2-0.6 0.2h-9.3c-0.4 0-0.7-0.4-0.7-0.8v-20.7c0-0.5 0.3-0.8 0.7-0.8z"/>
	<path class="s0" d="m218.8 149.4h5.1c1.4 0 2.5 0.4 2.5 0.8v1.6c0 0.5-1.1 0.8-2.5 0.8h-5.2c-1.3 0-2.5-0.3-2.5-0.8v-1.6c0-0.4 1.2-0.8 2.5-0.8z"/>
	<path class="s2" d="m207.3 117.4v7.2h-8.3v-7.2c0-2.3 1.9-4.3 4.2-4.3 2.3 0 4.1 2 4.1 4.3zm17.2 0v7.2h-8.3v-7.2c0-2.3 1.9-4.3 4.2-4.3 2.3 0 4.1 2 4.1 4.3zm17.2 0v7.2h-8.3v-7.2c0-2.3 1.9-4.3 4.2-4.3 2.3 0 4.1 2 4.1 4.3zm-34.4-19.1v7.2h-8.3v-7.2c0-2.4 1.9-4.3 4.2-4.3 2.3 0 4.1 1.9 4.1 4.3zm17.2 0v7.2h-8.3v-7.2c0-2.4 1.9-4.3 4.2-4.3 2.3 0 4.1 1.9 4.1 4.3zm17.2 0v7.2h-8.3v-7.2c0-2.4 1.9-4.3 4.2-4.3 2.3 0 4.1 1.9 4.1 4.3z"/>
	<path class="s0" d="m221 69.1l-27.3 11.5c-0.4 0.1-0.7 0.5-0.7 0.9v3.7c0 0.8 1.1 1.2 2 0.9l26-10.9c0.4-0.2 0.9-0.2 1.3 0l26 10.9c0.9 0.3 2-0.2 2-0.9v-3.7c0-0.4-0.3-0.8-0.7-0.9l-27.2-11.5c-0.5-0.1-1-0.1-1.4 0z"/>
</svg>