<svg width="122" height="122" viewBox="0 0 122 122" fill="none" xmlns="http://www.w3.org/2000/svg">
<path fill-rule="evenodd" clip-rule="evenodd" d="M79.6962 0.983395C79.2051 1.53779 77.8809 3.82733 76.754 6.07197L74.7044 10.1531L69.6032 10.8629C63.9113 11.6551 62.4766 12.5203 62.4766 15.1628C62.4766 16.5692 63.2518 17.7079 66.2733 20.7372L70.0694 24.5443L69.1236 29.5684C68.2593 34.159 68.2564 34.7122 69.0947 35.9851C70.6959 38.4168 72.4627 38.3645 77.528 35.7335L82.1074 33.3559L86.9552 35.7485C90.5656 37.5303 92.1901 38.0444 93.321 37.7617C95.8705 37.125 96.2494 35.6282 95.4071 29.5206L94.6597 24.1039L98.1735 20.8196C102.215 17.0413 102.908 15.5237 101.54 13.4455C100.371 11.6712 100.177 11.5963 94.5249 10.7414L89.9553 10.0506L87.5887 5.53542C86.2871 3.05244 84.8553 0.789388 84.4069 0.507297C83.0671 -0.337249 80.6502 -0.0925805 79.6962 0.983395ZM80.369 11.5773C78.9176 14.6613 76.8396 16.0954 73.8233 16.0954C70.442 16.0954 70.3396 16.6809 73.213 19.5841L75.9406 22.3394L75.5339 26.4458L75.1272 30.5517L78.6324 28.7365L82.1375 26.9214L85.9631 28.7026C88.3095 29.7952 89.6736 30.1861 89.4908 29.7129C89.3276 29.2886 89.0118 27.4942 88.7896 25.7256L88.3858 22.5098L91.1216 19.5991C94.0858 16.4454 94.076 16.4218 89.5463 15.8191C86.6 15.427 84.7511 13.818 83.3344 10.415C82.9213 9.42309 82.3995 8.61136 82.1745 8.61136C81.9489 8.61136 81.1367 9.9464 80.369 11.5773ZM16.3258 12.9619C14.5538 14.1968 14.5538 17.4183 16.3258 18.6532C17.3931 19.3976 19.7395 19.5496 30.1675 19.5496H42.7238L43.9224 18.0326C45.4763 16.0672 45.4341 15.2025 43.7015 13.4789C42.283 12.0667 42.272 12.0655 29.9465 12.0655C19.7181 12.0655 17.3913 12.2187 16.3258 12.9619ZM50.3282 12.8111C48.2704 13.8358 47.9812 17.3308 49.8468 18.6313C51.6078 19.8593 52.9806 19.7885 54.3777 18.3982C57.343 15.4472 54.0791 10.9429 50.3282 12.8111ZM31.6166 25.7838C30.352 27.1741 30.4 29.4999 31.7173 30.6864C32.5393 31.4268 33.9549 31.6392 38.0675 31.6392C43.0113 31.6392 43.4191 31.5488 44.2672 30.261C45.3542 28.6099 44.8972 26.1114 43.3578 25.2916C42.7788 24.983 40.1159 24.7308 37.4398 24.7308C33.4609 24.7308 32.3993 24.9225 31.6166 25.7838ZM49.5501 25.7838C48.341 27.1136 48.3167 29.5552 49.5015 30.7348C51.6234 32.8458 55.5346 31.1285 55.5346 28.0848C55.5346 25.1367 51.5366 23.599 49.5501 25.7838ZM3.64274 38.49C-0.138903 40.8543 -0.0012194 39.2959 0.0010946 79.8249C0.00283009 115.238 0.0433301 116.62 1.13264 118.397C2.74203 121.025 5.34989 122.211 8.7908 121.882C13.6606 121.417 16.1967 118.039 16.1967 112.018C16.1967 109.396 16.4663 108.021 17.1056 107.384C17.916 106.578 22.6921 106.48 60.9818 106.48C110.381 106.48 105.864 105.905 105.864 112.195C105.864 114.317 106.247 116.608 106.793 117.753C109.505 123.438 118.436 123.409 121.156 117.705C122.003 115.928 122.09 112.954 121.941 90.7689L121.773 65.8303L119.594 61.4453C116.144 54.5006 110.165 49.883 102.598 48.3177C100.717 47.9285 92.3081 47.7656 79.7471 47.8744C60.1615 48.0442 59.8421 48.0655 57.7329 49.3706C56.5563 50.0994 54.9943 51.6538 54.262 52.8248C52.9933 54.8558 52.9181 55.6054 52.6422 68.9633C52.3732 81.982 52.2737 83.0292 51.23 83.7874C50.3264 84.4437 47.0411 84.6032 34.4096 84.6032C18.7497 84.6032 18.7092 84.6003 17.4544 83.271C16.2153 81.9579 16.1967 81.6574 16.1967 62.805C16.1967 42.2044 16.1771 42.0552 13.0746 39.171C10.9752 37.2194 6.22342 36.8763 3.64274 38.49ZM6.4288 43.9372C5.95443 44.5054 5.81559 54.4212 5.92377 79.9993C6.06261 112.878 6.14186 115.321 7.08539 115.913C7.82124 116.375 8.37428 116.376 9.11013 115.916C9.88764 115.431 10.1931 114.216 10.4274 110.689C10.7675 105.568 11.6862 103.64 14.6371 101.849C16.427 100.763 17.8958 100.727 60.7504 100.725C102.826 100.723 105.114 100.776 107.03 101.795C109.959 103.354 111.263 105.964 111.628 111.001C111.968 115.697 112.972 117.17 114.975 115.913C115.908 115.327 116 113.45 116.139 92.0492C116.309 65.9316 116.265 65.5753 112.202 60.4602C110.609 58.4545 108.835 57.089 106.047 55.7228L102.132 53.8035L82.0866 53.6262L62.041 53.4483L60.379 54.8702L58.7164 56.2916L58.4271 70.4071C58.1095 85.9037 58.098 85.9543 54.1561 88.8852C52.6398 90.013 51.6899 90.0809 35.1941 90.2404L17.8287 90.4091L15.3325 88.9537C13.6548 87.975 12.4394 86.6809 11.6243 85.005C10.4684 82.6291 10.4118 81.6263 10.4118 63.5235C10.4118 49.522 10.2295 44.3534 9.71756 43.8439C8.79312 42.924 7.23638 42.9683 6.4288 43.9372ZM28.056 50.2819C22.8125 52.7488 19.7036 57.557 19.6805 63.2357C19.6625 67.5833 20.6732 70.4532 23.2469 73.3627C31.8098 83.0436 47.53 78.3304 49.4627 65.5033C50.3536 59.5892 46.5193 52.8052 40.7627 50.1127C37.1378 48.4167 31.8712 48.4869 28.056 50.2819ZM30.2068 55.6244C27.5585 56.9237 25.8953 59.4988 25.5771 62.7935C25.1166 67.5626 27.6209 71.2079 32.2275 72.4739C37.1459 73.825 42.8031 70.1693 43.6667 65.0802C44.1862 62.0192 42.2228 57.827 39.3957 55.9629C37.0273 54.4016 33.0027 54.2531 30.2068 55.6244Z" fill="white"/>
<path fill-rule="evenodd" clip-rule="evenodd" d="M79.6962 0.983395C79.2051 1.53779 77.8809 3.82733 76.754 6.07197L74.7043 10.1531L69.6032 10.8629C63.9113 11.6551 62.4766 12.5203 62.4766 15.1628C62.4766 16.5692 63.2518 17.7079 66.2733 20.7372L70.0694 24.5443L69.1236 29.5684C68.2593 34.159 68.2564 34.7123 69.0947 35.9851C70.6959 38.4169 72.4627 38.3645 77.528 35.7335L82.1074 33.3559L86.9552 35.7485C90.5656 37.5303 92.19 38.0444 93.321 37.7617C95.8705 37.125 96.2494 35.6282 95.4071 29.5206L94.6597 24.1039L98.1735 20.8196C102.215 17.0413 102.908 15.5237 101.54 13.4455C100.371 11.6712 100.177 11.5963 94.5249 10.7414L89.9553 10.0506L87.5887 5.53542C86.287 3.05244 84.8553 0.789388 84.4069 0.507297C83.0671 -0.337249 80.6502 -0.0925804 79.6962 0.983395ZM80.369 11.5773C78.9175 14.6613 76.8396 16.0954 73.8233 16.0954C70.442 16.0954 70.3396 16.6809 73.213 19.5841L75.9406 22.3394L75.5339 26.4458L75.1272 30.5517L78.6324 28.7365L82.1375 26.9214L85.9631 28.7026C88.3095 29.7952 89.6736 30.1861 89.4908 29.7129C89.3276 29.2886 89.0118 27.4942 88.7896 25.7256L88.3858 22.5098L91.1216 19.5991C94.0858 16.4454 94.076 16.4218 89.5463 15.8191C86.6 15.427 84.7511 13.818 83.3344 10.415C82.9213 9.42309 82.3995 8.61136 82.1745 8.61136C81.9489 8.61136 81.1367 9.9464 80.369 11.5773ZM16.3258 12.9619C14.5538 14.1968 14.5538 17.4184 16.3258 18.6532C17.3931 19.3976 19.7395 19.5496 30.1675 19.5496H42.7238L43.9224 18.0326C45.4763 16.0672 45.4341 15.2025 43.7015 13.4789C42.283 12.0667 42.272 12.0655 29.9465 12.0655C19.7181 12.0655 17.3913 12.2187 16.3258 12.9619ZM50.3282 12.8111C48.2704 13.8358 47.9812 17.3308 49.8468 18.6313C51.6078 19.8593 52.9806 19.7885 54.3776 18.3982C57.343 15.4472 54.0791 10.9429 50.3282 12.8111ZM31.6166 25.7838C30.352 27.1741 30.4 29.4999 31.7173 30.6864C32.5393 31.4268 33.9549 31.6392 38.0675 31.6392C43.0113 31.6392 43.4191 31.5488 44.2672 30.261C45.3542 28.6099 44.8972 26.1114 43.3578 25.2916C42.7788 24.983 40.1159 24.7308 37.4398 24.7308C33.4609 24.7308 32.3993 24.9225 31.6166 25.7838ZM49.5501 25.7838C48.341 27.1136 48.3167 29.5552 49.5015 30.7348C51.6234 32.8458 55.5346 31.1286 55.5346 28.0848C55.5346 25.1367 51.5366 23.599 49.5501 25.7838ZM28.056 50.2819C22.8125 52.7488 19.7036 57.557 19.6805 63.2357C19.6625 67.5833 20.6732 70.4532 23.2469 73.3627C31.8098 83.0436 47.53 78.3304 49.4627 65.5033C50.3536 59.5892 46.5193 52.8052 40.7627 50.1127C37.1378 48.4167 31.8712 48.4869 28.056 50.2819ZM30.2068 55.6244C27.5585 56.9237 25.8953 59.4988 25.5771 62.7935C25.1166 67.5626 27.6209 71.2079 32.2275 72.4739C37.1459 73.825 42.803 70.1694 43.6667 65.0802C44.1862 62.0192 42.2228 57.827 39.3957 55.9629C37.0273 54.4016 33.0027 54.2531 30.2068 55.6244Z" fill="#F8CC16"/>
</svg>
