<svg width="124" height="112" viewBox="0 0 124 112" fill="none" xmlns="http://www.w3.org/2000/svg">
<path fill-rule="evenodd" clip-rule="evenodd" d="M50.0481 0.0372863C49.7815 0.141055 48.7687 1.04258 47.797 2.04104C46.3985 3.4776 45.5154 4.11692 43.5606 5.10753C41.9294 5.93414 41.0196 6.54991 40.8803 6.92171C40.7644 7.23099 40.5282 8.50937 40.3555 9.76219C40.0966 11.6407 39.8253 12.4597 38.8084 14.4323C38.1302 15.7481 37.5752 16.9746 37.5752 17.1579C37.5752 17.3409 38.1272 18.5992 38.8016 19.9538C39.7617 21.8821 40.0948 22.8841 40.3356 24.5682C40.8139 27.9139 40.8588 27.9817 43.4806 29.2943C45.2415 30.1758 46.2569 30.9108 47.8293 32.4417C50.1551 34.7059 50.1202 34.6963 53.665 34.0707C55.4853 33.7495 56.0092 33.7495 57.8295 34.0707C61.373 34.696 61.3712 34.6966 63.4151 32.5647C64.8578 31.0598 65.6707 30.4613 67.5402 29.5281C68.8208 28.8888 70.0378 28.107 70.2445 27.7906C70.4512 27.4742 70.7831 26.128 70.9822 24.7988C71.271 22.8715 71.5794 21.913 72.5057 20.0636C73.1442 18.7883 73.6669 17.4707 73.6669 17.1356C73.6669 16.8005 73.1588 15.5684 72.5377 14.3976C71.6013 12.6325 71.3379 11.8168 70.9959 9.62349C70.7495 8.04419 70.4164 6.78833 70.169 6.50714C69.9414 6.24797 68.8463 5.58082 67.7358 5.02401C66.2749 4.29206 65.1495 3.45988 63.6652 2.01522C61.3387 -0.249723 61.2223 -0.280854 57.5445 0.378711C56.5201 0.562457 55.4979 0.669769 55.273 0.617379C53.6464 0.237484 50.4463 -0.117861 50.0481 0.0372863ZM49.8146 5.34746C48.8113 6.37275 47.6501 7.22467 46.3677 7.87664C44.258 8.94925 44.3806 8.75082 43.9003 11.8712C43.7436 12.8907 43.2959 14.1397 42.67 15.3034L41.6859 17.1328L42.6758 19.1057C43.3653 20.4802 43.7709 21.7308 44.0129 23.2304C44.204 24.4141 44.3953 25.4136 44.4382 25.4518C44.4808 25.49 45.3677 25.944 46.4088 26.4609C47.6198 27.062 48.8666 27.9554 49.8696 28.9412L51.4375 30.482L53.7816 30.174C55.7003 29.9219 56.4696 29.9295 58.0188 30.2155L59.9117 30.5648L61.4815 29.0366C62.4141 28.1288 63.8485 27.0916 65.015 26.4814L66.9786 25.4541L67.3784 23.1762C67.6502 21.627 68.0843 20.2927 68.7357 19.0052L69.6935 17.1118L68.6789 15.2088C67.899 13.7461 67.5911 12.7998 67.3486 11.1223L67.0328 8.93913L65.2389 8.0862C64.0516 7.52154 62.8424 6.65647 61.6628 5.52741L59.8806 3.8213L57.7507 4.19715C55.6738 4.56338 55.0393 4.53376 51.9599 3.92608C51.4425 3.82409 51.0523 4.08275 49.8146 5.34746ZM60.1641 10.1145C58.7525 11.0041 48.4747 21.6138 48.2869 22.3757C48.0234 23.4447 48.832 24.4184 50.07 24.5227C51.0182 24.6024 51.1114 24.5232 57.0488 18.5691C62.7084 12.8935 63.0665 12.4794 63.0665 11.6095C63.0665 10.912 62.9032 10.5559 62.4015 10.1603C61.5805 9.51264 61.134 9.50353 60.1641 10.1145ZM49.5637 11.4534C48.7437 12.4306 48.8419 13.5093 49.83 14.3812C51.0437 15.4523 52.9965 14.7912 53.347 13.1906C53.6486 11.813 52.6633 10.669 51.1636 10.6561C50.4297 10.6498 50.1005 10.8138 49.5637 11.4534ZM58.6384 20.1277C57.2772 21.4924 58.2373 23.8089 60.1641 23.8089C61.395 23.8089 62.3094 22.892 62.3094 21.6576C62.3094 21.0302 62.1176 20.5564 61.6898 20.1277C61.2622 19.6987 60.7897 19.5063 60.1641 19.5063C59.5384 19.5063 59.0659 19.6987 58.6384 20.1277ZM39.8164 39.7018C37.1113 41.1188 36.0571 44.3901 37.4114 47.1655L38.0651 48.5056L37.4417 49.7407C36.6108 51.3864 36.6055 53.1671 37.4266 54.7935L38.0351 55.999L37.4291 57.3042C36.6222 59.042 36.6209 60.7906 37.4253 62.3841L38.0328 63.587L37.3932 64.9879C36.8574 66.1618 36.7741 66.6444 36.8801 67.9679L37.0066 69.5472L34.83 69.8673C30.2648 70.5393 24.9732 72.6152 22.0227 74.892L20.73 75.8895L20.5932 74.3757C20.4122 72.3735 19.4267 70.7572 17.8909 69.9438C16.7685 69.3492 16.6908 69.3442 10.0476 69.4178C3.39135 69.492 3.33103 69.4976 2.43303 70.1149C1.17083 70.9827 0.279895 72.4686 0.095903 74.0128C0.0105954 74.7283 -0.0244866 82.4889 0.0181672 91.2586L0.0953982 107.204L0.726372 108.332C1.12994 109.054 1.80483 109.738 2.59961 110.23L3.84161 111H10.2975C16.5012 111 16.7945 110.978 17.8111 110.433C19.5602 109.495 20.6651 107.594 20.6651 105.521V104.546H38.2759C48.7349 104.546 56.7553 104.441 58.0253 104.287C63.4656 103.627 68.6865 102.08 73.1904 99.7917C76.8828 97.9158 120.187 70.8941 121.406 69.7059C125.615 65.5994 124.551 58.4996 119.305 55.6958C117.966 54.9801 117.381 54.8249 115.674 54.7351C113.941 54.6439 113.417 54.7194 112.141 55.2448C110.959 55.7312 93.0176 66.872 80.1028 75.1385L78.0837 76.4311L77.5918 75.113C77.2483 74.1925 76.5959 73.2856 75.4278 72.1052C73.8706 70.5312 73.7777 70.3748 74.0745 69.8273C74.8801 68.3409 74.6931 65.6574 73.6916 64.3337C73.2479 63.747 73.2512 63.7014 73.8108 62.6886C74.127 62.1153 74.4634 61.2226 74.5581 60.7043C74.7635 59.579 74.3264 57.5798 73.6916 56.7408C73.2479 56.1542 73.2512 56.1086 73.8108 55.0957C74.127 54.5225 74.4634 53.6298 74.5581 53.1115C74.7635 51.9862 74.3264 49.987 73.6916 49.148C73.2479 48.5613 73.2512 48.5158 73.8108 47.5029C75.0381 45.2797 74.8201 42.8824 73.2194 41.0072C71.4423 38.9253 72.1498 39.0065 55.7129 39.0002L41.1662 38.9946L39.8164 39.7018ZM41.2689 43.3157C40.4658 43.9492 40.3904 45.0013 41.0862 45.8633L41.5685 46.4609L55.351 46.5305C64.7068 46.5778 69.294 46.5138 69.6335 46.3318C69.9086 46.1843 70.3172 45.7821 70.5421 45.4381C70.8873 44.9097 70.9015 44.694 70.6337 44.0454C70.4593 43.6232 70.1125 43.1684 69.8631 43.0345C69.5885 42.8872 63.9837 42.791 55.6718 42.791C42.1558 42.791 41.9231 42.7994 41.2689 43.3157ZM41.1526 50.9695C40.4754 51.6926 40.4494 52.6673 41.0865 53.4562L41.5688 54.0537H55.6206H69.6723L70.3 53.322C71.0239 52.478 70.9477 51.5506 70.0948 50.8268C69.6113 50.4165 68.5421 50.3839 55.6372 50.3839H41.7015L41.1526 50.9695ZM41.1526 58.5624C40.4754 59.2854 40.4494 60.2601 41.0865 61.049L41.5688 61.6466H55.6206H69.6723L70.3 60.9149C71.0239 60.0708 70.9477 59.1435 70.0948 58.4196C69.6113 58.0093 68.5421 57.9767 55.6372 57.9767H41.7015L41.1526 58.5624ZM113.166 58.9668C112.611 59.2267 104.49 64.2727 95.12 70.1799L78.0837 80.9202L77.3508 82.3753C76.4094 84.2441 74.6694 85.9814 72.9102 86.809L71.5216 87.4622L59.6055 87.5348C47.9048 87.6062 47.6801 87.5981 47.1754 87.0919C46.4144 86.3288 46.4878 84.9781 47.3263 84.317C47.9762 83.8042 48.2435 83.7923 59.1351 83.7923C70.1907 83.7923 70.2877 83.7878 71.4015 83.2229C75.3473 81.2209 75.2973 75.624 71.3159 73.6913C70.247 73.1722 69.9336 73.1624 54.721 73.1631C45.0081 73.1636 38.3672 73.2677 36.9442 73.4418C30.9293 74.178 26.0756 76.2101 22.68 79.4133L20.6651 81.314V91.0319V100.75H38.0671C56.5693 100.75 58.6989 100.642 63.1927 99.4751C65.9468 98.7598 69.112 97.5857 71.4656 96.4061C73.4044 95.4339 117.776 67.9114 118.682 67.1182C119.931 66.0259 120.494 63.3398 119.838 61.5997C118.892 59.0888 115.643 57.8066 113.166 58.9668ZM41.1526 66.1552C40.5075 66.8441 40.4474 67.7639 40.9969 68.5502L41.3896 69.1129H55.617H69.8445L70.3818 68.4277C71.0103 67.6264 70.8997 66.6955 70.0948 66.0124C69.6113 65.6022 68.5421 65.5695 55.6372 65.5695H41.7015L41.1526 66.1552ZM4.22752 73.5807C3.73208 74.1793 3.59023 105.359 4.07861 106.318L4.40066 106.95L10.1983 107.021C15.8112 107.089 16.0096 107.075 16.4263 106.564C16.8215 106.08 16.8576 104.737 16.8677 90.1615C16.8775 76.196 16.8316 74.219 16.4861 73.7245C16.0999 73.1717 15.9985 73.1624 10.3338 73.1624C5.28478 73.1624 4.53139 73.214 4.22752 73.5807Z" fill="#58BEBF"/>
<path fill-rule="evenodd" clip-rule="evenodd" d="M50.048 0.25213C49.7815 0.355899 48.7687 1.25742 47.797 2.25588C46.3985 3.69244 45.5154 4.33176 43.5606 5.32237C41.9294 6.14898 41.0196 6.76476 40.8803 7.13655C40.7644 7.44584 40.5282 8.72422 40.3555 9.97703C40.0966 11.8555 39.8253 12.6745 38.8084 14.6471C38.1302 15.963 37.5752 17.1895 37.5752 17.3727C37.5752 17.5557 38.1272 18.8141 38.8016 20.1686C39.7617 22.097 40.0948 23.099 40.3356 24.7831C40.8139 28.1287 40.8588 28.1965 43.4806 29.5091C45.2415 30.3906 46.2569 31.1256 47.8293 32.6566C50.1551 34.9208 50.1202 34.9111 53.665 34.2855C55.4853 33.9643 56.0092 33.9643 57.8295 34.2855C61.373 34.9109 61.3712 34.9114 63.4151 32.7796C64.8578 31.2747 65.6707 30.6761 67.5402 29.743C68.8208 29.1036 70.0378 28.3218 70.2445 28.0055C70.4512 27.6891 70.7831 26.3429 70.9822 25.0136C71.271 23.0863 71.5794 22.1278 72.5057 20.2785C73.1442 19.0031 73.6669 17.6855 73.6669 17.3504C73.6669 17.0153 73.1588 15.7833 72.5377 14.6125C71.6013 12.8474 71.3379 12.0317 70.9959 9.83834C70.7495 8.25903 70.4164 7.00317 70.169 6.72199C69.9414 6.46282 68.8463 5.79566 67.7358 5.23885C66.2749 4.5069 65.1495 3.67473 63.6652 2.23006C61.3387 -0.0348794 61.2223 -0.0660101 57.5445 0.593554C56.5201 0.777301 55.4979 0.884613 55.273 0.832223C53.6464 0.452328 50.4463 0.0969831 50.048 0.25213ZM49.8146 5.56231C48.8113 6.58759 47.6501 7.43951 46.3677 8.09148C44.258 9.1641 44.3806 8.96567 43.9003 12.0861C43.7436 13.1055 43.2959 14.3546 42.67 15.5183L41.6859 17.3477L42.6758 19.3205C43.3653 20.6951 43.7709 21.9456 44.0129 23.4452C44.204 24.6289 44.3953 25.6284 44.4382 25.6666C44.4808 25.7048 45.3677 26.1589 46.4088 26.6757C47.6198 27.2768 48.8666 28.1702 49.8696 29.156L51.4375 30.6969L53.7816 30.3889C55.7003 30.1368 56.4696 30.1444 58.0188 30.4304L59.9117 30.7796L61.4815 29.2514C62.4141 28.3436 63.8484 27.3064 65.015 26.6962L66.9786 25.6689L67.3784 23.391C67.6502 21.8419 68.0843 20.5075 68.7357 19.22L69.6935 17.3266L68.6789 15.4236C67.899 13.961 67.5911 13.0147 67.3486 11.3372L67.0328 9.15397L65.2389 8.30104C64.0516 7.73639 62.8424 6.87131 61.6628 5.74226L59.8806 4.03615L57.7507 4.41199C55.6738 4.77822 55.0393 4.74861 51.9599 4.14093C51.4425 4.03893 51.0523 4.29759 49.8146 5.56231ZM60.1641 10.3293C58.7525 11.219 48.4747 21.8287 48.2869 22.5905C48.0234 23.6596 48.832 24.6332 50.07 24.7375C51.0182 24.8172 51.1114 24.738 57.0488 18.784C62.7084 13.1083 63.0665 12.6943 63.0665 11.8244C63.0665 11.1268 62.9032 10.7707 62.4015 10.3752C61.5805 9.72748 61.134 9.71837 60.1641 10.3293ZM49.5637 11.6682C48.7437 12.6454 48.8419 13.7241 49.83 14.596C51.0437 15.6671 52.9965 15.006 53.347 13.4055C53.6486 12.0279 52.6633 10.8839 51.1636 10.871C50.4297 10.8646 50.1005 11.0286 49.5637 11.6682ZM58.6384 20.3425C57.2772 21.7072 58.2373 24.0238 60.1641 24.0238C61.395 24.0238 62.3094 23.1068 62.3094 21.8725C62.3094 21.2451 62.1176 20.7713 61.6898 20.3425C61.2622 19.9135 60.7897 19.7212 60.1641 19.7212C59.5384 19.7212 59.0659 19.9135 58.6384 20.3425Z" fill="#FDC91E"/>
<rect x="2" y="71.2148" width="17" height="38" rx="3" stroke="#FDC91E" stroke-width="4"/>
</svg>
