<svg width="117" height="103" viewBox="0 0 117 103" fill="none" xmlns="http://www.w3.org/2000/svg">
<path fill-rule="evenodd" clip-rule="evenodd" d="M34.9266 0.224986C30.2895 0.898311 26.0134 2.9192 22.771 5.96944L21.4024 7.25683L22.5394 8.25679L23.6763 9.25675L25.4006 7.80707C27.4257 6.10461 30.5063 4.49561 33.0764 3.79789C34.7508 3.34339 35.4465 3.30099 41.2025 3.30099C46.9971 3.30099 47.6429 3.34111 49.3285 3.80587C56.0834 5.66811 61.0277 10.4826 62.9613 17.08C63.3657 18.4597 63.4804 19.5773 63.5745 23.0512L63.6901 27.3251H61.8312H59.9725L59.9686 25.1027C59.9633 22.2366 59.5057 20.1355 58.3921 17.8657C56.7269 14.4717 54.3319 12.1287 50.9308 10.5669C48.2243 9.32376 47.3698 9.20409 41.2025 9.20409C35.1269 9.20409 34.2152 9.32581 31.6238 10.4837C28.2454 11.9934 25.5842 14.5688 23.9963 17.8657C22.8955 20.1517 22.4416 22.2576 22.4363 25.1027L22.4325 27.3251H20.6012H18.77L18.773 23.849C18.7769 19.4717 19.2596 16.9423 20.6454 14.0384C21.1865 12.9044 21.5267 11.9421 21.4015 11.8999C21.276 11.8577 20.7168 11.5215 20.1585 11.153C19.6005 10.7841 19.0463 10.5425 18.9273 10.6157C18.4798 10.8913 16.7067 14.9962 16.2347 16.85C15.8458 18.3767 15.7199 19.7095 15.6283 23.2623L15.5125 27.7474L14.8432 28.0234C13.9081 28.4091 12.6956 29.8953 12.3694 31.055C12.1863 31.7062 12.1202 33.4663 12.1707 36.345C12.2442 40.5385 12.2632 40.6881 12.8536 41.6851C13.1878 42.2494 13.88 42.967 14.3925 43.2806C14.921 43.6038 15.3269 44.0294 15.3303 44.2644C15.3422 45.0601 13.795 47.9886 11.5133 51.4897C7.97909 56.9126 6.89455 59.2941 6.40332 62.7122C6.14191 64.5298 6.41248 66.8381 7.11246 68.7623C7.84243 70.7686 7.83121 70.8101 6.40378 71.3923C3.52556 72.5659 1.79597 74.337 0.912406 77.0145C0.226842 79.0924 0.0107584 83.1228 0.00480695 93.9395L0 103H30.9018H61.8037V101.404V99.8089H32.6079H3.41225L3.4839 89.2668C3.54799 79.8088 3.5972 78.6194 3.96207 77.6999C4.51968 76.2943 5.58156 75.2489 7.21043 74.502C8.82717 73.7605 24.6723 70.0292 24.9467 70.3251C25.0456 70.4317 26.5932 74.0577 28.3858 78.3828C30.1785 82.7079 31.7126 86.3727 31.795 86.527C31.9001 86.7233 32.3394 86.5286 33.2605 85.8781C33.984 85.3668 34.7021 84.9976 34.8564 85.0573C35.0104 85.117 36.5015 86.362 38.1695 87.824L41.2025 90.4822L44.2354 87.824C45.9034 86.362 47.3945 85.117 47.5486 85.0573C47.7028 84.9976 48.4209 85.3668 49.1445 85.8781C50.0656 86.5286 50.5048 86.7233 50.6099 86.527C50.6923 86.3727 52.2264 82.7079 54.0192 78.3828C55.8117 74.0577 57.3589 70.4322 57.4571 70.3262C57.6297 70.14 61.9813 71.0059 62.308 71.2913C62.3963 71.3688 62.5877 72.201 62.7333 73.141C63.0583 75.2403 64.2578 78.9545 65.243 80.912C67.7524 85.8991 72.3959 90.5955 77.191 92.9963L78.9714 93.8875V96.8482V99.8089H75.5379H72.1043V101.404V103H77.2546H82.4049V99.0318V95.0635L83.6067 95.3801C86.0145 96.0147 89.343 96.2446 92.0861 95.9666C103.012 94.8581 111.964 87.8641 115.577 77.6126C117.625 71.8016 117.453 64.724 115.121 58.918C113.207 54.1536 110.237 50.2557 106.233 47.2545C95.6774 39.3414 81.5195 39.8896 71.5634 48.597L69.9925 49.971L69.5575 49.418C68.8573 48.5277 67.0685 44.8746 67.0685 44.335C67.0685 44.0043 67.3312 43.6993 67.8598 43.4158C68.7623 42.9319 69.7212 41.6668 70.0495 40.5271C70.366 39.4283 70.3335 32.0233 70.0073 30.9397C69.6795 29.8504 68.4574 28.3929 67.5617 28.0234L66.8924 27.7474L66.7766 23.2623C66.6441 18.1132 66.2716 16.1947 64.7961 13.0596C61.5006 6.05674 55.3775 1.45083 47.8406 0.305676C45.436 -0.0597066 37.2392 -0.110992 34.9266 0.224986ZM35.381 12.5468C33.4427 12.9156 31.1223 14.143 29.4907 15.6629C26.8945 18.0813 25.6472 21.145 25.6405 25.1207L25.6371 27.1334L26.2666 27.003C26.6129 26.9314 29.3593 26.4548 32.37 25.944C35.3808 25.4334 38.3551 24.8221 38.98 24.5855C41.3554 23.6867 42.7659 22.2475 43.2759 20.202L43.5457 19.1193H45.0908H46.6359L46.7598 20.0395C47.0292 22.0392 48.8128 23.4273 53.6191 25.3771L56.6534 26.6084L56.72 24.9338C56.9565 18.9787 52.6659 13.5998 46.8257 12.5301C45.1973 12.2318 36.9746 12.2439 35.381 12.5468ZM44.3011 24.7503C43.3553 25.8815 41.5447 27.0249 39.6874 27.664C38.5268 28.0633 26.7237 30.2882 25.7657 30.2882C25.695 30.2882 25.6371 33.0889 25.6371 36.5118V42.7354L26.2853 43.7534C27.5107 45.6774 29.4749 46.8444 32.5518 47.4767C33.5221 47.6761 34.3976 47.8366 34.4974 47.8332C34.5972 47.8298 34.9356 47.4126 35.2494 46.9062C35.9681 45.7464 37.5142 44.7141 38.8258 44.5183C39.3811 44.4353 40.8417 44.4078 42.0711 44.457C43.9829 44.5333 44.4572 44.6341 45.3458 45.1527C46.9312 46.0778 47.6957 47.3377 47.8013 49.1988C47.8697 50.4039 47.7905 50.9172 47.4275 51.6201C46.8433 52.7514 45.9021 53.6433 44.815 54.0955C43.6904 54.5632 38.7818 54.5913 37.6877 54.1361C36.6606 53.7087 35.3657 52.5401 35.0331 51.7405C34.7815 51.1358 34.6162 51.0596 33.0535 50.8283C31.0119 50.5258 28.8619 49.8388 27.5075 49.0558C26.9627 48.7408 26.4696 48.5298 26.4122 48.587C26.3547 48.6444 26.5241 49.2674 26.7887 49.9715C28.3519 54.132 32.7047 57.926 37.3111 59.1432C39.2813 59.6636 43.1097 59.6695 45.0256 59.1548C50.3029 57.7373 54.2897 54.0094 56.0248 48.8698L56.6419 47.0416L56.6477 38.5363L56.6534 30.0311L52.8765 28.4962C48.9739 26.91 47.0697 25.8505 45.9094 24.6192C45.5397 24.2269 45.1792 23.9133 45.1082 23.9224C45.0373 23.9315 44.6742 24.304 44.3011 24.7503ZM16.3242 30.7457C15.4505 31.0963 15.3365 31.6823 15.3365 35.8269C15.3365 41.2002 15.1817 41.0012 19.359 41.0012H22.4325V35.7587V30.5162L19.6284 30.5305C18.0863 30.5385 16.5993 30.6354 16.3242 30.7457ZM59.9725 35.7412V41.0012H63.046C67.2296 41.0012 67.0685 41.2116 67.0685 35.7532C67.0685 30.391 67.2715 30.6559 63.0835 30.5556L59.9725 30.4808V35.7412ZM18.3417 45.3031C17.8853 47.0767 16.8598 49.0248 14.441 52.7133C11.6104 57.0297 10.6987 58.701 10.0742 60.7178C9.51983 62.508 9.40378 65.3627 9.82244 66.9108C10.2168 68.3691 10.9795 69.9501 11.2842 69.9408C11.4357 69.936 15.8858 68.9342 21.1735 67.7143L30.7874 65.4962L30.8513 62.6329L30.9149 59.7695L29.5138 58.6734C25.7779 55.7506 23.2219 51.1506 22.5977 46.226L22.34 44.1924H20.4838H18.6276L18.3417 45.3031ZM59.8072 46.226C59.183 51.1506 56.6271 55.7506 52.8911 58.6734L51.49 59.7695L51.5537 62.6327L51.6175 65.4958L56.7678 66.6883C59.6005 67.3443 62.047 67.8848 62.2043 67.8893C62.3929 67.8948 62.4904 67.5408 62.4904 66.8509C62.4904 65.1372 63.3751 61.3314 64.3402 58.8943C65.1074 56.9564 65.9148 55.4435 67.508 52.9577C67.7737 52.543 67.6892 52.3108 66.7448 50.857C65.4467 48.8587 64.4436 46.7815 64.0632 45.3031L63.7773 44.1924H61.9211H60.065L59.8072 46.226ZM85.3211 45.2222C76.128 46.9536 68.875 53.6816 66.3252 62.8433C65.9125 64.3262 65.8363 65.235 65.8255 68.8095C65.8109 73.6987 66.1435 75.3641 67.8575 78.9807C69.2082 81.8304 70.4805 83.64 72.6585 85.8088C76.7098 89.843 81.4857 92.1096 87.3108 92.7622C92.6678 93.3626 98.2512 92.0135 102.901 88.9953C108.366 85.4482 112.062 80.0108 113.401 73.5488C113.91 71.0877 113.878 66.5317 113.331 63.9089C111.464 54.9455 104.525 47.7655 95.5668 45.5269C93.1066 44.912 87.8047 44.7542 85.3211 45.2222ZM38.3721 48.0839C37.6025 48.6866 37.5267 50.1055 38.2267 50.8025C38.6291 51.2032 38.9897 51.2584 41.2025 51.2584C43.4153 51.2584 43.7758 51.2032 44.1782 50.8025C44.8782 50.1055 44.8024 48.6866 44.0328 48.0839C43.5167 47.6793 43.1092 47.6114 41.2025 47.6114C39.2957 47.6114 38.8883 47.6793 38.3721 48.0839ZM93.1633 51.7143V53.3098H94.8801H96.5969V51.7143V50.1187H94.8801H93.1633V51.7143ZM100.03 55.1333V56.7289H101.747H103.464V55.1333V53.5378H101.747H100.03V55.1333ZM79.7858 60.0191C77.883 60.7216 76.5478 62.2221 76.0932 64.1687C75.7411 65.6774 75.7755 65.7276 77.3217 65.9585C77.8836 66.0424 78.477 66.162 78.6406 66.2245C78.8459 66.3031 78.9867 66.0145 79.0955 65.2918C79.3898 63.337 80.8353 62.4168 82.3704 63.2073C83.6843 63.8838 83.8818 64.9836 82.9996 66.7086C82.4539 67.7758 78.9185 72.6607 77.449 74.378C76.7703 75.171 76.6824 75.4261 76.6824 76.6004V77.927H82.0616H87.4408V76.3378V74.7486L84.3801 74.6853L81.3197 74.6219L83.2303 72.0006C86.424 67.6188 87.1382 65.8283 86.5531 63.6689C86.2384 62.5066 84.9215 60.9566 83.7381 60.3553C82.5285 59.7411 80.9118 59.6034 79.7858 60.0191ZM93.5616 66.986L89.752 73.5962H93.9755H98.1992V75.7616V77.927H99.8015H101.404V75.7616V73.5962H102.434H103.464V72.0006V70.4051H102.402H101.34L101.452 65.3905L101.564 60.3759H99.4676H97.371L93.5616 66.986ZM34.3354 63.9419V66.4171L37.7117 71.1408C39.5688 73.7389 41.1395 75.8646 41.2025 75.8646C41.2654 75.8646 42.8364 73.7389 44.6932 71.1408L48.0695 66.4171V63.9419C48.0695 61.673 48.0361 61.4807 47.669 61.6334C44.1352 63.1038 38.2698 63.1038 34.736 61.6334C34.3688 61.4807 34.3354 61.673 34.3354 63.9419ZM96.8258 67.6055C96.1334 68.8236 95.5336 69.9519 95.4929 70.1126C95.4386 70.3267 95.7921 70.4051 96.8091 70.4051H98.1992V67.8978C98.1992 66.5187 98.1733 65.3905 98.142 65.3905C98.1106 65.3905 97.5182 66.3872 96.8258 67.6055ZM29.7573 68.9688C28.939 69.1596 28.2301 69.3522 28.1818 69.3969C28.1127 69.4607 33.1098 81.7114 33.317 81.9861C33.3639 82.0483 38.2853 78.7824 38.7582 78.3751C39.0524 78.1219 32.0953 68.5779 31.6339 68.6016C31.4201 68.6128 30.5757 68.7781 29.7573 68.9688ZM46.9202 73.3974C45.0162 76.046 43.543 78.286 43.6467 78.3751C44.1196 78.7824 49.041 82.0483 49.0879 81.9861C49.2939 81.7128 54.2923 69.4612 54.2231 69.3987C54.1162 69.3021 50.932 68.5816 50.6113 68.5816C50.4854 68.5816 48.8242 70.7486 46.9202 73.3974ZM39.2854 81.8536L37.4826 83.0414L38.8276 84.2561C39.5672 84.9242 40.4041 85.6315 40.6874 85.8279C41.3009 86.2535 41.4646 86.1644 43.5789 84.2547L44.9256 83.0387L43.1079 81.8504C42.1082 81.197 41.2448 80.6629 41.1892 80.6638C41.1336 80.6647 40.2768 81.2001 39.2854 81.8536ZM65.2372 101.404V103H66.954H68.6708V101.404V99.8089H66.954H65.2372V101.404Z" fill="#58BEBF"/>
<path fill-rule="evenodd" clip-rule="evenodd" d="M93.1634 51.7143V53.3098H94.8801H96.5969V51.7143V50.1187H94.8801H93.1634V51.7143ZM100.03 55.1333V56.7289H101.747H103.464V55.1333V53.5378H101.747H100.03V55.1333ZM79.7858 60.0191C77.883 60.7216 76.5478 62.2221 76.0932 64.1687C75.7411 65.6774 75.7754 65.7276 77.3217 65.9585C77.8836 66.0424 78.477 66.162 78.6406 66.2245C78.846 66.3031 78.9867 66.0146 79.0955 65.2918C79.3898 63.337 80.8353 62.4168 82.3704 63.2073C83.6843 63.8838 83.8818 64.9836 82.9996 66.7086C82.4539 67.7758 78.9185 72.6607 77.449 74.378C76.7703 75.171 76.6824 75.4261 76.6824 76.6004V77.927H82.0616H87.4408V76.3378V74.7486L84.3801 74.6853L81.3197 74.6219L83.2303 72.0006C86.424 67.6188 87.1382 65.8283 86.5531 63.6689C86.2384 62.5066 84.9215 60.9566 83.7381 60.3553C82.5285 59.7411 80.9118 59.6034 79.7858 60.0191ZM93.5616 66.986L89.752 73.5962H93.9755H98.1992V75.7616V77.927H99.8015H101.404V75.7616V73.5962H102.434H103.464V72.0006V70.4051H102.402H101.34L101.452 65.3905L101.564 60.3759H99.4676H97.371L93.5616 66.986ZM96.8258 67.6055C96.1334 68.8236 95.5336 69.9519 95.4929 70.1126C95.4386 70.3267 95.7921 70.4051 96.8091 70.4051H98.1992V67.8978C98.1992 66.5187 98.1733 65.3905 98.142 65.3905C98.1106 65.3905 97.5182 66.3872 96.8258 67.6055ZM65.2372 101.404V103H66.954H68.6708V101.404V99.8089H66.954H65.2372V101.404Z" fill="#F8CC16"/>
<rect x="36.85" y="45.85" width="9.3" height="7.3" rx="3.15" stroke="#F8CC16" stroke-width="3.7"/>
<path d="M36 50C32.8333 49.6667 25.5 47.5 22 41" stroke="#F8CC16" stroke-width="3.7"/>
</svg>
