<svg width="73" height="71" viewBox="0 0 73 71" fill="none" xmlns="http://www.w3.org/2000/svg">
<path fill-rule="evenodd" clip-rule="evenodd" d="M6.0945 0.0831573C3.57724 0.412449 1.45208 2.59296 1.11804 5.18926C0.960653 6.41189 0.960653 64.5613 1.11804 65.7839C1.46926 68.5138 3.57655 70.5725 6.36148 70.9064C6.98896 70.9816 16.822 71.017 30.1526 70.9921C50.9657 70.953 52.9292 70.93 53.5295 70.7173C55.1508 70.1433 56.4073 69.0146 57.1272 67.4856L57.5848 66.5139L57.6291 62.5921C57.6534 60.435 57.6998 58.6703 57.7319 58.6703C57.7642 58.6703 58.8822 59.2161 60.2162 59.8832C61.7556 60.653 62.6418 61.1727 62.6419 61.3061C62.6422 61.7948 63.4692 63.2169 64.0799 63.7789C65.0644 64.6847 65.8084 64.9669 67.2138 64.9676C68.2314 64.968 68.5005 64.914 69.1936 64.5703C70.5677 63.8892 71.5689 62.5446 71.7588 61.125C71.8298 60.5947 71.8746 61.026 71.9295 62.7656C71.9704 64.0636 72.0021 51.7256 71.9999 35.3478C71.9977 18.6204 71.8318 27 71.9255 17.5088C71.8868 24.0752 71.817 29.1595 71.7703 28.8072C71.6603 27.9754 71.1575 26.9794 70.5102 26.3111C68.9406 24.6906 66.2868 24.4809 64.4316 25.8309C63.6799 26.378 62.9651 27.4053 62.7552 28.2404L62.6046 28.8401L60.2694 30.0116C58.9851 30.6559 57.8727 31.183 57.7975 31.183C57.7088 31.183 57.6474 26.4933 57.6228 17.8212L57.5848 4.45932L57.1272 3.48755C56.4073 1.95868 55.151 0.830033 53.5295 0.255716C52.9281 0.0427594 50.9831 0.0219357 29.8755 0.00222266C17.2262 -0.00957742 6.52469 0.0267946 6.0945 0.0831573ZM5.31393 2.66543C4.51784 3.06289 3.98249 3.62401 3.60246 4.45932C3.39159 4.92286 3.34934 5.3875 3.34684 7.27052L3.34379 9.52641H29.3906H55.4373V7.44932C55.4373 5.71429 55.3919 5.2502 55.1611 4.63243C54.8378 3.76645 54.1028 2.99514 53.2206 2.59588C52.6018 2.31573 52.422 2.31365 29.3138 2.3106L6.03063 2.30754L5.31393 2.66543ZM7.32465 5.04932C6.96222 5.45233 6.88809 6.01596 7.14579 6.41008C7.46528 6.89861 8.00173 7.0831 8.50078 6.87598C9.62328 6.41008 9.26029 4.80638 8.03235 4.80638C7.7421 4.80638 7.45433 4.90522 7.32465 5.04932ZM12.2425 4.89926C11.9503 5.01712 11.6443 5.74997 11.7354 6.11383C11.9424 6.94039 13.1034 7.25538 13.6141 6.62346C14.3707 5.68722 13.3794 4.441 12.2425 4.89926ZM16.7828 5.08403C16.3644 5.50328 16.368 6.23863 16.7907 6.67357C17.3381 7.23692 18.516 6.87778 18.5889 6.12521C18.6709 5.27811 18.2974 4.80638 17.5448 4.80638C17.2446 4.80638 16.9543 4.91217 16.7828 5.08403ZM23.8728 5.12762C23.576 5.44428 23.4892 5.95668 23.6576 6.39662C23.8815 6.98121 24.2955 7.02757 29.2937 7.02757C32.2644 7.02757 34.217 6.97274 34.477 6.88181C35.1939 6.63137 35.4117 5.79551 34.9223 5.17218L34.6352 4.80638H29.4047H24.1741L23.8728 5.12762ZM1.05653 35.4866C1.05653 51.8644 1.0726 58.5645 1.09241 50.3755C1.11208 42.1867 1.11208 28.7866 1.09241 20.5977C1.0726 12.4088 1.05653 19.1088 1.05653 35.4866ZM3.34379 38.8606V65.9734L3.70097 66.6916C4.09763 67.4892 4.65763 68.0257 5.49127 68.4064C6.02051 68.6481 7.09176 68.6595 29.3213 68.6595C52.4253 68.6595 52.6017 68.6574 53.2206 68.3773C54.1028 67.978 54.8378 67.2067 55.1611 66.3407C55.4139 65.6638 55.4373 65.2568 55.4373 61.5446V57.4882L51.2111 55.3721L46.9847 53.2561H45.8078H44.6307V57.8101V62.364L44.2719 63.0856C43.511 64.6156 42.4897 65.0562 39.7045 65.0562C37.7207 65.0562 37.0371 64.9046 36.2266 64.2852C35.3188 63.5915 35.1433 63.0746 34.1762 58.2487C33.6794 55.7701 33.2412 53.6065 33.2024 53.4409C33.1511 53.2229 32.9307 53.0748 32.4041 52.9046C32.004 52.7754 31.4176 52.5213 31.1012 52.3402C30.2716 51.8652 29.0658 50.4678 28.6838 49.5384C28.3739 48.7842 28.3552 48.558 28.3116 45.0334L28.2657 41.3226L18.3332 41.2851L8.40075 41.2478L7.93426 40.9145C7.67781 40.7311 7.35181 40.325 7.20994 40.0121C6.96554 39.4727 6.95196 38.8684 6.94905 28.3674C6.94656 19.3219 6.98064 17.2085 7.13498 16.8384C7.37592 16.2606 8.05632 15.6858 8.71677 15.502C9.37556 15.3187 49.167 15.3071 49.9541 15.4899C50.6353 15.6483 51.1323 16.0145 51.4888 16.621C51.7566 17.0765 51.7672 17.381 51.8064 25.6628L51.847 34.2331L53.6422 33.3319L55.4373 32.4305V22.0891V11.7476H29.3906H3.34379V38.8606ZM9.16275 27.7124C9.16275 33.2099 9.20058 37.7078 9.24671 37.7078C9.29285 37.7078 11.9043 35.5578 15.0499 32.9301C18.1954 30.3023 20.9601 28.0534 21.1936 27.9325C21.7291 27.6549 22.6363 27.6499 23.2069 27.9214C23.4486 28.0362 24.4177 28.9051 25.3607 29.8521L27.075 31.574L30.461 28.6573C32.3232 27.053 34.0132 25.6537 34.2164 25.5473C34.7533 25.2667 35.8878 25.3012 36.3872 25.6133C36.6158 25.7561 38.2368 27.2018 39.9894 28.8259C41.742 30.45 44.2468 32.7708 45.5555 33.9834L47.935 36.1879L48.7074 35.8084L49.4798 35.4287V26.5729V17.7171H29.3213H9.16275V27.7124ZM14.6137 20.2341C12.5027 20.607 11.2727 22.5697 11.8666 24.6172C12.1811 25.7009 13.0825 26.6189 14.141 26.9335C15.0741 27.2108 15.3023 27.2117 16.2117 26.9411C18.5066 26.2581 19.3452 23.5115 17.8858 21.4578C17.2695 20.5906 15.77 20.0299 14.6137 20.2341ZM14.352 22.7779C13.8959 23.2348 13.8821 24.0729 14.3236 24.4828C15.1079 25.2111 16.3672 24.6931 16.3672 23.6424C16.3672 22.5951 15.0838 22.0445 14.352 22.7779ZM66.0403 27.4739C65.3129 27.8866 64.8959 28.5365 64.791 29.42C64.7439 29.817 64.7242 37.0761 64.7474 45.5514L64.7892 60.9609L65.1173 61.5345C65.8698 62.8504 67.5915 63.1556 68.7504 62.1784C69.6137 61.4505 69.5691 62.3923 69.5691 44.9086V28.9169L69.2247 28.328C68.5882 27.2396 67.1383 26.8507 66.0403 27.4739ZM28.4961 33.3076L21.8521 39.0266L25.6196 39.0635L29.3872 39.1005L29.8608 38.5777C30.1211 38.2901 30.6674 37.8545 31.0746 37.6095C32.4583 36.7775 32.8466 36.736 39.2565 36.736C42.441 36.736 45.0416 36.6892 45.0359 36.6319C45.0232 36.5053 35.4428 27.6715 35.2656 27.623C35.1966 27.6041 32.1504 30.1623 28.4961 33.3076ZM16.7562 34.4171C13.8079 36.8759 11.392 38.9346 11.3875 38.9919C11.3831 39.0492 12.9397 39.096 14.8466 39.096H18.3138L21.7648 36.146C23.6628 34.5236 25.2199 33.1324 25.225 33.0548C25.234 32.9165 22.3157 29.9275 22.1839 29.94C22.1471 29.9435 19.7046 31.9581 16.7562 34.4171ZM55.2641 35.0086L48.2329 38.5413V44.9622V51.3832L55.3681 54.9571L62.5032 58.531V44.9959C62.5032 37.5515 62.4565 31.4641 62.3993 31.4683C62.3421 31.4725 59.1314 33.0656 55.2641 35.0086ZM33.2362 39.1075C32.5424 39.2715 31.7089 39.814 31.2747 40.3845C30.5829 41.2933 30.4988 41.7992 30.5003 45.0483C30.5016 47.9032 30.5175 48.0842 30.8256 48.7443C31.1964 49.5385 31.8383 50.2161 32.5622 50.5774C33.0181 50.8048 33.6316 50.83 39.5391 50.8654L46.0162 50.904V44.9307V38.9572L39.8855 38.9711C36.5137 38.9789 33.5215 39.0402 33.2362 39.1075ZM7.54467 43.9811C7.15521 44.1698 6.90458 44.7823 7.02318 45.2557C7.22518 46.0625 6.92495 46.0372 16.3378 46.0372C21.6024 46.0372 25.0725 45.985 25.2243 45.9037C25.3612 45.8303 25.5498 45.5851 25.6433 45.3588C25.8546 44.8478 25.6186 44.2609 25.0956 43.9957C24.6431 43.7664 8.01656 43.7525 7.54467 43.9811ZM7.6882 48.6738C7.30609 48.8283 6.94601 49.3452 6.94601 49.7393C6.94601 49.9089 7.09647 50.2229 7.28032 50.4371L7.61463 50.8267L16.1127 50.8635C24.003 50.8975 24.6448 50.8826 25.0873 50.6552C25.6747 50.3533 25.8842 49.8154 25.6251 49.2739C25.2687 48.529 25.4049 48.5397 16.3672 48.5469C11.757 48.5507 7.85155 48.6077 7.6882 48.6738ZM7.81469 53.3516C7.42164 53.4303 6.94601 54.0301 6.94601 54.4471C6.94601 54.6234 7.09647 54.943 7.28046 55.1572L7.61477 55.5467H16.3514H25.088L25.3965 55.2374C25.8119 54.8214 25.8119 54.0509 25.3967 53.6348L25.0881 53.3255L16.6059 53.3078C11.9406 53.2979 7.98455 53.3176 7.81469 53.3516ZM35.5305 53.5685C35.5711 53.7403 35.9575 55.6563 36.3891 57.8262C36.8208 59.9962 37.2304 61.9202 37.2992 62.1017C37.4961 62.6208 38.214 62.835 39.7565 62.835C40.5095 62.835 41.3179 62.7678 41.5529 62.6858C42.4016 62.3894 42.4139 62.3159 42.4139 57.5645V53.2561H38.9353H35.4566L35.5305 53.5685ZM7.37744 58.3579C6.9043 58.7516 6.85803 59.3852 7.26757 59.8624L7.61463 60.2668L16.1819 60.301C25.4449 60.3382 25.2645 60.3517 25.6276 59.5929C25.8453 59.1382 25.6461 58.4747 25.2243 58.2485C25.0725 58.1672 21.5968 58.115 16.3224 58.115C8.28506 58.115 7.64871 58.1323 7.37744 58.3579ZM7.40834 63.0401C6.79056 63.4735 6.89641 64.5849 7.5854 64.8993C7.82869 65.0105 10.4054 65.0562 16.4243 65.0562C24.6873 65.0562 24.9292 65.0487 25.2692 64.7808C25.4614 64.6293 25.6581 64.3476 25.7065 64.1548C25.8075 63.7515 25.4964 63.0512 25.1587 62.9212C25.0354 62.8739 21.0567 62.835 16.3174 62.835C8.9426 62.835 7.65827 62.8646 7.40834 63.0401Z" fill="#58BEBF"/>
<path fill-rule="evenodd" clip-rule="evenodd" d="M6.50281 4.97199C6.13017 5.37547 6.05396 5.93976 6.31891 6.33434C6.6474 6.82344 7.19896 7.00815 7.71207 6.80078C8.86619 6.33434 8.49297 4.72876 7.23044 4.72876C6.93201 4.72876 6.63615 4.82772 6.50281 4.97199ZM11.5592 4.82175C11.2588 4.93975 10.9441 5.67346 11.0378 6.03774C11.2507 6.86527 12.4444 7.18064 12.9694 6.54797C13.7474 5.61064 12.7281 4.36295 11.5592 4.82175ZM16.2274 5.00674C15.7972 5.42648 15.8009 6.16269 16.2355 6.59814C16.7983 7.16215 18.0094 6.80259 18.0844 6.04914C18.1687 5.20104 17.7847 4.72876 17.0109 4.72876C16.7022 4.72876 16.4038 4.83467 16.2274 5.00674ZM23.5171 5.05038C23.212 5.36741 23.1227 5.88041 23.2959 6.32086C23.5261 6.90614 23.9517 6.95256 29.0907 6.95256C32.1451 6.95256 34.1527 6.89766 34.42 6.80662C35.1571 6.55589 35.381 5.71905 34.8779 5.09499L34.5827 4.72876H29.2048H23.8269L23.5171 5.05038ZM0.0581194 35.4449C0.0581194 51.842 0.0746435 58.5499 0.0950137 50.3513C0.115242 42.1529 0.115242 28.7371 0.0950137 20.5386C0.0746435 12.3401 0.0581194 19.0479 0.0581194 35.4449ZM13.9972 20.1746C11.8267 20.5479 10.5621 22.5129 11.1727 24.5628C11.4961 25.6477 12.4229 26.5669 13.5112 26.8818C14.4706 27.1595 14.7052 27.1603 15.6402 26.8894C17.9998 26.2056 18.862 23.4558 17.3614 21.3997C16.7278 20.5315 15.1861 19.9701 13.9972 20.1746ZM13.7281 22.7214C13.2592 23.1788 13.2449 24.0178 13.6989 24.4283C14.5053 25.1574 15.8001 24.6388 15.8001 23.5868C15.8001 22.5383 14.4805 21.9871 13.7281 22.7214ZM28.2706 33.2634L21.4395 38.9891L25.3131 39.0261L29.1869 39.0631L29.6738 38.5396C29.9414 38.2518 30.5031 37.8156 30.9218 37.5703C32.3444 36.7374 32.7437 36.6958 39.3341 36.6958C42.6083 36.6958 45.2822 36.649 45.2764 36.5916C45.2633 36.4648 35.4131 27.6207 35.2309 27.5722C35.1599 27.5532 32.0279 30.1144 28.2706 33.2634ZM16.2001 34.3742C13.1687 36.8359 10.6847 38.897 10.6801 38.9544C10.6756 39.0118 12.276 39.0586 14.2367 39.0586H17.8015L21.3497 36.1051C23.3012 34.4808 24.9021 33.088 24.9074 33.0103C24.9167 32.8719 21.9161 29.8793 21.7807 29.8918C21.7428 29.8953 19.2315 31.9123 16.2001 34.3742ZM6.72902 43.9494C6.3286 44.1383 6.07091 44.7515 6.19284 45.2255C6.40054 46.0333 6.09185 46.008 15.7699 46.008C21.1828 46.008 24.7506 45.9557 24.9067 45.8743C25.0474 45.8007 25.2413 45.5553 25.3375 45.3287C25.5547 44.8171 25.3121 44.2295 24.7744 43.964C24.3091 43.7344 7.21421 43.7205 6.72902 43.9494ZM6.8766 48.6476C6.48373 48.8023 6.1135 49.3198 6.1135 49.7143C6.1135 49.8842 6.2682 50.1986 6.45723 50.413L6.80096 50.803L15.5384 50.8399C23.651 50.8739 24.3108 50.859 24.7658 50.6314C25.3698 50.3291 25.5852 49.7905 25.3188 49.2485C24.9523 48.5027 25.0923 48.5134 15.8001 48.5206C11.0601 48.5243 7.04455 48.5815 6.8766 48.6476ZM7.00666 53.3309C6.60253 53.4097 6.1135 54.0102 6.1135 54.4277C6.1135 54.6042 6.2682 54.9241 6.45737 55.1386L6.8011 55.5286H15.7838H24.7665L25.0838 55.2189C25.5108 54.8024 25.5108 54.031 25.0839 53.6145L24.7667 53.3048L16.0455 53.287C11.2488 53.2771 7.1813 53.2969 7.00666 53.3309ZM6.55709 58.3431C6.07062 58.7373 6.02304 59.3716 6.44412 59.8493L6.80096 60.2542L15.6096 60.2885C25.1335 60.3257 24.948 60.3392 25.3214 59.5795C25.5452 59.1243 25.3403 58.46 24.9067 58.2336C24.7506 58.1521 21.177 58.0999 15.754 58.0999C7.49027 58.0999 6.836 58.1172 6.55709 58.3431ZM6.58885 63.0307C5.95367 63.4646 6.0625 64.5774 6.7709 64.8922C7.02105 65.0035 9.67032 65.0492 15.8587 65.0492C24.3546 65.0492 24.6033 65.0417 24.9529 64.7735C25.1504 64.6218 25.3527 64.3398 25.4024 64.1468C25.5063 63.743 25.1865 63.0418 24.8392 62.9117C24.7124 62.8643 20.6217 62.8254 15.7489 62.8254C8.16634 62.8254 6.84583 62.855 6.58885 63.0307Z" fill="#F8CC16"/>
</svg>
