<svg width="70" height="90" viewBox="0 0 70 90" fill="none" xmlns="http://www.w3.org/2000/svg">
<path fill-rule="evenodd" clip-rule="evenodd" d="M30.4085 0.181237C16.5397 2.11679 5.64876 11.7078 2.11348 25.099C0.81028 30.036 0.797177 36.6068 2.08125 41.4637C3.55196 47.0277 5.76173 51.2212 9.38767 55.3284C10.3828 56.4556 11.1969 57.4414 11.1969 57.5197C11.1969 57.5977 8.73572 61.961 5.72738 67.2155C2.71904 72.47 0.161159 77.0722 0.0432335 77.443C-0.0948774 77.8763 0.100602 78.3878 0.591073 78.8765C1.24196 79.525 1.62089 79.6065 3.17658 79.4322C4.17948 79.32 6.8606 79.1242 9.13518 78.9968L13.2707 78.7657L15.9465 84.089C18.6747 89.5157 19.4772 90.4789 20.7188 89.817C21.0864 89.6208 24.2916 84.3762 27.8414 78.1617C31.3916 71.9472 34.419 66.8627 34.5695 66.8627C34.72 66.8627 37.7475 71.9472 41.2977 78.1617C44.8475 84.3762 48.0527 89.6208 48.4203 89.817C49.6619 90.4789 50.4643 89.5157 53.1925 84.089L55.8684 78.7657L60.0039 78.9968C62.2785 79.1242 64.9596 79.32 65.9625 79.4322C67.5182 79.6065 67.8971 79.525 68.548 78.8765C69.0385 78.3878 69.234 77.8763 69.0958 77.443C68.9779 77.0722 66.42 72.47 63.4117 67.2155C60.4034 61.961 57.9421 57.5977 57.9421 57.5197C57.9421 57.4414 58.7563 56.4556 59.7514 55.3284C63.3773 51.2212 65.5871 47.0277 67.0578 41.4637C68.3419 36.6068 68.3288 30.036 67.0256 25.099C63.2325 10.7308 50.9467 0.777146 36.1001 0.0443435C34.1871 -0.0502117 31.6256 0.0115314 30.4085 0.181237ZM29.3419 3.72353C20.0105 5.39129 11.6856 11.7498 7.49095 20.4132C5.13315 25.2832 4.68093 27.3545 4.66924 33.345C4.6572 39.2752 5.0857 41.2591 7.45093 46.2229C10.4278 52.4716 15.0768 57.156 21.2896 60.168C26.5297 62.7079 28.4827 63.1454 34.5695 63.1412C40.6478 63.1366 43.5053 62.4786 48.3565 59.9658C55.8811 56.0679 61.5387 49.044 63.8303 40.7542C64.717 37.5467 64.7213 29.1701 63.8381 25.9359C62.2133 19.9874 57.985 13.5534 53.3006 9.90171C50.4222 7.65744 45.4098 5.10586 42.1833 4.24146C39.6449 3.56158 31.9787 3.25251 29.3419 3.72353ZM33.5071 9.35344C33.1176 9.74153 32.7989 10.2178 32.7989 10.4119C32.7989 10.8695 34.1102 12.176 34.5695 12.176C35.0288 12.176 36.3402 10.8695 36.3402 10.4119C36.3402 9.95428 35.0288 8.6478 34.5695 8.6478C34.3748 8.6478 33.8967 8.96534 33.5071 9.35344ZM25.6447 10.4186C22.3602 11.7477 19.8303 13.438 17.2171 16.0492C13.065 20.198 11.0184 24.3538 10.1232 30.4547C8.69181 40.2073 14.3675 50.7852 23.3996 55.1986C27.5588 57.2308 30.1482 57.8253 34.7466 57.8031C41.6366 57.7702 47.0898 55.5073 51.952 50.6631C56.8305 45.8027 59.1044 40.353 59.1048 33.5214C59.1048 29.0174 58.4935 26.271 56.6605 22.5439C54.2758 17.6937 50.1261 13.5636 45.3705 11.307C41.899 9.65968 41.5271 9.58453 40.5859 10.3441C39.2161 11.4492 39.8259 12.635 42.268 13.6155C45.0086 14.7159 47.1436 16.0905 49.2252 18.0956C51.5076 20.294 52.36 21.4392 53.666 24.0617C60.5737 37.9352 50.18 54.5035 34.5695 54.5035C24.7491 54.5035 16.0832 47.6225 13.8101 38.0199C13.1478 35.2224 13.3281 29.9319 14.1773 27.2483C16.1278 21.0829 20.8619 15.9956 26.8711 13.6074C29.3061 12.6396 29.9244 11.4502 28.5635 10.3523C27.6059 9.57994 27.7242 9.57712 25.6447 10.4186ZM33.4236 19.4969C33.1226 19.8364 32.1236 21.6227 31.2032 23.4661C30.2828 25.3096 29.5087 26.843 29.4825 26.8736C29.4562 26.9043 27.602 27.1968 25.3621 27.5235C23.1223 27.8503 21.0906 28.2814 20.847 28.4811C20.6037 28.6811 20.4043 29.2612 20.4043 29.7703C20.4043 30.4763 21.125 31.37 23.4431 33.5384L26.4819 36.381L25.7297 40.5033C24.577 46.8234 25.2262 47.2729 31.0597 44.1942L34.5695 42.3419L38.0793 44.1942C43.9129 47.2729 44.562 46.8234 43.4093 40.5033L42.6572 36.381L45.696 33.5384C48.0141 31.37 48.7348 30.4763 48.7348 29.7703C48.7348 29.2612 48.5357 28.6811 48.2921 28.4811C48.0488 28.2814 46.0168 27.8503 43.7769 27.5235C41.5371 27.1968 39.6828 26.9043 39.6566 26.8736C39.6304 26.843 38.8563 25.3096 37.9359 23.4661C36.0714 19.7309 35.4464 18.8795 34.5695 18.8795C34.2402 18.8795 33.7246 19.1575 33.4236 19.4969ZM33.3265 27.0014C32.0474 29.668 31.6246 30.0282 29.4346 30.3164C28.4608 30.4445 27.2072 30.6393 26.6487 30.7494L25.6334 30.9494L27.8329 33.1602L30.0321 35.3709L29.5947 38.0717C29.3543 39.5567 29.2438 40.8579 29.3493 40.9631C29.4545 41.0682 30.6635 40.5679 32.0357 39.852L34.5309 38.5498L37.0616 39.8545C38.4536 40.5725 39.68 41.0724 39.7869 40.9659C39.8939 40.8593 39.7848 39.5567 39.5444 38.0717L39.107 35.3709L41.3062 33.1602L43.5057 30.9494L42.4904 30.7494C41.9319 30.6393 40.6783 30.4445 39.7044 30.3164C37.5145 30.0282 37.0916 29.668 35.8125 27.0014C35.2519 25.8332 34.6928 24.8774 34.5695 24.8774C34.4463 24.8774 33.8871 25.8332 33.3265 27.0014ZM9.31508 67.7821C6.81917 72.1673 4.82718 75.7893 4.88845 75.8306C4.94971 75.8719 7.19419 75.7597 9.87637 75.5812C13.7435 75.3236 14.8682 75.3515 15.3094 75.7163C15.6154 75.9693 16.8085 78.0498 17.9608 80.34C19.1128 82.6298 20.1171 84.5036 20.1918 84.5036C20.3611 84.5036 30.32 67.0532 30.32 66.7569C30.32 66.6387 29.7226 66.4404 28.992 66.3162C28.2618 66.192 26.6703 65.8039 25.4556 65.4539L23.2473 64.8174L21.7741 67.5158C19.8306 71.0753 18.7367 72.5078 17.9622 72.5078C17.3092 72.5078 16.1519 71.4712 16.1586 70.8922C16.1608 70.7137 17.0376 68.9934 18.1074 67.0695C19.1769 65.1455 20.0119 63.5416 19.9627 63.5046C19.9135 63.4679 19.0763 62.9866 18.1025 62.4355C17.1286 61.8841 15.8389 61.067 15.2361 60.6196C14.6334 60.1722 14.0757 59.8071 13.9967 59.8078C13.9177 59.8085 11.811 63.397 9.31508 67.7821ZM53.8696 60.6259C53.2853 61.0726 52.0105 61.888 51.0366 62.438C50.0627 62.9877 49.2263 63.4672 49.1781 63.5032C49.1296 63.5392 49.9788 65.1773 51.0653 67.1432C53.1168 70.8555 53.2853 71.9002 51.9039 72.337C50.5893 72.7526 49.9625 72.1458 47.9302 68.4906L45.8883 64.8185L43.6817 65.4543C42.4681 65.8042 40.8777 66.192 40.1471 66.3162C39.4169 66.4404 38.8191 66.6387 38.8191 66.7569C38.8191 67.0532 48.778 84.5036 48.9472 84.5036C49.022 84.5036 50.0263 82.6298 51.1783 80.34C52.3306 78.0498 53.5237 75.9693 53.8296 75.7163C54.2709 75.3515 55.3956 75.3236 59.2627 75.5812C61.9449 75.7597 64.1894 75.8719 64.2506 75.8306C64.4079 75.7244 55.3248 59.8081 55.1091 59.8116C55.0117 59.8131 54.454 60.1796 53.8696 60.6259Z" fill="#5FB8B9"/>
<path fill-rule="evenodd" clip-rule="evenodd" d="M33.5071 9.35344C33.1176 9.74153 32.7989 10.2178 32.7989 10.4119C32.7989 10.8695 34.1102 12.176 34.5695 12.176C35.0288 12.176 36.3402 10.8695 36.3402 10.4119C36.3402 9.95428 35.0288 8.6478 34.5695 8.6478C34.3748 8.6478 33.8967 8.96534 33.5071 9.35344ZM25.6447 10.4186C22.3602 11.7477 19.8303 13.438 17.2171 16.0492C13.065 20.198 11.0184 24.3538 10.1232 30.4547C8.69181 40.2073 14.3675 50.7852 23.3996 55.1986C27.5588 57.2308 30.1482 57.8253 34.7466 57.8031C41.6366 57.7702 47.0898 55.5073 51.952 50.6631C56.8305 45.8027 59.1044 40.353 59.1048 33.5214C59.1048 29.0174 58.4935 26.271 56.6605 22.5439C54.2758 17.6937 50.1261 13.5636 45.3705 11.307C41.899 9.65968 41.5271 9.58453 40.5859 10.3441C39.2161 11.4492 39.8259 12.635 42.268 13.6155C45.0086 14.7159 47.1436 16.0905 49.2252 18.0956C51.5076 20.294 52.36 21.4392 53.666 24.0617C60.5737 37.9352 50.18 54.5035 34.5695 54.5035C24.7491 54.5035 16.0832 47.6225 13.8101 38.0199C13.1478 35.2224 13.3281 29.9319 14.1773 27.2483C16.1278 21.0829 20.8619 15.9956 26.8711 13.6074C29.3061 12.6396 29.9244 11.4502 28.5635 10.3523C27.6059 9.57994 27.7242 9.57712 25.6447 10.4186ZM33.4236 19.4969C33.1226 19.8364 32.1236 21.6227 31.2032 23.4661C30.2828 25.3096 29.5087 26.843 29.4825 26.8736C29.4562 26.9043 27.602 27.1968 25.3621 27.5235C23.1223 27.8503 21.0906 28.2814 20.847 28.4811C20.6037 28.6811 20.4043 29.2612 20.4043 29.7703C20.4043 30.4763 21.125 31.37 23.4431 33.5384L26.4819 36.381L25.7297 40.5033C24.577 46.8234 25.2262 47.2729 31.0597 44.1942L34.5695 42.3419L38.0793 44.1942C43.9129 47.2729 44.562 46.8234 43.4093 40.5033L42.6572 36.381L45.696 33.5384C48.0141 31.37 48.7348 30.4763 48.7348 29.7703C48.7348 29.2612 48.5357 28.6811 48.2921 28.4811C48.0488 28.2814 46.0168 27.8503 43.7769 27.5235C41.537 27.1968 39.6828 26.9043 39.6566 26.8736C39.6304 26.843 38.8563 25.3096 37.9359 23.4661C36.0714 19.7309 35.4464 18.8795 34.5695 18.8795C34.2402 18.8795 33.7246 19.1575 33.4236 19.4969ZM33.3265 27.0014C32.0474 29.668 31.6246 30.0282 29.4346 30.3164C28.4608 30.4445 27.2072 30.6393 26.6487 30.7494L25.6334 30.9494L27.8329 33.1602L30.0321 35.3709L29.5947 38.0717C29.3543 39.5567 29.2438 40.8579 29.3493 40.9631C29.4545 41.0682 30.6635 40.5679 32.0357 39.852L34.5309 38.5498L37.0616 39.8545C38.4536 40.5725 39.68 41.0724 39.7869 40.9659C39.8939 40.8593 39.7848 39.5567 39.5444 38.0717L39.107 35.3709L41.3062 33.1602L43.5057 30.9494L42.4904 30.7494C41.9319 30.6393 40.6783 30.4445 39.7044 30.3164C37.5145 30.0282 37.0916 29.668 35.8125 27.0014C35.2519 25.8332 34.6928 24.8774 34.5695 24.8774C34.4463 24.8774 33.8871 25.8332 33.3265 27.0014Z" fill="#F8CC16"/>
</svg>
