<svg width="103" height="115" viewBox="0 0 103 115" fill="none" xmlns="http://www.w3.org/2000/svg">
<path fill-rule="evenodd" clip-rule="evenodd" d="M22.031 2.24142C6.47201 8.21442 -2.03999 27.3714 3.48001 43.9914C5.75101 50.8294 14.252 60.0434 20.947 62.9234C28.036 65.9724 36.402 66.6444 43.085 64.7024C49.275 62.9024 57.996 57.5234 57.996 55.5044C57.996 52.8374 56.105 53.1014 51.101 56.4684C31.858 69.4184 6.04201 56.2504 6.00601 33.4674C5.98601 21.2174 11.695 11.9894 22.438 6.90742C33.144 1.84242 44.668 3.47742 53.585 11.3264C58.038 15.2464 62.965 23.5554 62.986 27.1824C63 29.4164 65.914 30.4174 66.67 28.4474C66.999 27.5904 66.717 25.0514 66.044 22.8054C60.71 5.00242 40.02 -4.66458 22.031 2.24142ZM20.996 11.5124C20.996 12.4034 22.987 16.5994 25.42 20.8364C30.967 30.4944 30.756 32.7784 23.86 37.7324C19.024 41.2074 17.552 44.0394 20.583 44.0394C21.455 44.0394 24.127 42.6334 26.519 40.9154C29.644 38.6714 31.541 37.9594 33.249 38.3884C36.606 39.2304 39.996 36.5934 39.996 33.1374C39.996 30.2304 37.365 27.0574 34.917 27.0144C34.136 27.0004 31.471 23.2914 28.996 18.7734C24.772 11.0624 20.996 7.63542 20.996 11.5124ZM72.496 25.0394C71.307 26.9634 73.151 28.0394 77.635 28.0394H82.156L77.064 33.7524C74.263 36.8954 72.126 39.9324 72.314 40.5024C72.503 41.0734 76.363 41.6704 80.908 41.8314C88.384 42.0954 89.127 41.9544 88.818 40.3314C88.558 38.9604 87.352 38.4674 83.689 38.2324L78.899 37.9254L83.948 32.4024C90.976 24.7124 90.743 24.0394 81.055 24.0394C76.687 24.0394 72.836 24.4894 72.496 25.0394ZM33.663 31.7064C32.512 32.8564 32.934 34.0394 34.496 34.0394C35.321 34.0394 35.996 33.3644 35.996 32.5394C35.996 30.9774 34.813 30.5554 33.663 31.7064ZM49.732 34.6374C48.352 36.0174 50.427 38.0394 53.223 38.0394H56.237L52.697 42.3604C48.122 47.9424 48.899 49.2404 56.579 48.8444C61.255 48.6024 62.546 48.1764 62.81 46.7894C63.068 45.4304 62.457 45.0394 60.069 45.0394C56.224 45.0394 56.21 44.1674 59.996 40.5394C61.646 38.9584 62.996 36.8494 62.996 35.8524C62.996 34.2924 62.111 34.0394 56.663 34.0394C53.179 34.0394 50.06 34.3084 49.732 34.6374ZM66.84 55.2944C61.934 59.4414 60.782 64.1884 63.443 69.2894L64.877 72.0394L38.687 72.0614C15.024 72.0814 12.088 72.2684 8.26701 74.0034C2.79601 76.4864 0.00500671 81.0174 6.70588e-06 87.4214C-0.00499329 93.8154 2.78601 98.2754 8.53401 101.057C12.547 103 12.996 103.567 12.996 106.694C12.996 112.023 14.511 114.039 18.517 114.039C21.441 114.039 22.376 113.422 24.641 109.999C26.763 106.793 27.059 105.708 26.073 104.749C25.096 103.796 24.248 104.231 22.091 106.789C18.543 110.996 16.996 110.928 16.996 106.565V103.09L50.996 102.815L84.997 102.539L84.996 106.289C84.996 110.959 82.856 111.303 80.337 107.039C79.362 105.389 78.013 104.039 77.339 104.039C74.849 104.039 74.877 106.26 77.415 110.097C79.573 113.357 80.593 114.039 83.31 114.039C87.666 114.039 88.996 112.497 88.996 107.445C88.996 103.442 89.212 103.144 93.729 100.895C96.617 99.4574 99.216 97.2224 100.396 95.1614C104.159 88.5884 102.041 78.8624 96.055 75.2214C93.222 73.4984 93.219 73.4824 95.104 71.1554C96.332 69.6374 96.996 67.2424 96.996 64.3284C96.996 60.5564 96.453 59.2964 93.596 56.4394L90.196 53.0394L79.846 53.0444C70.579 53.0484 69.218 53.2844 66.84 55.2944ZM69.691 58.1504C65.066 60.8414 65.729 69.2274 70.717 71.1234C72.042 71.6274 76.492 72.0394 80.607 72.0394C87.215 72.0394 88.373 71.7534 90.541 69.5844C93.691 66.4354 93.75 62.0964 90.682 59.2134C88.676 57.3294 87.241 57.0434 79.932 57.0694C75.292 57.0864 70.684 57.5724 69.691 58.1504ZM6.89701 80.1454C2.45501 84.9004 3.10101 92.0044 8.36301 96.2674C10.305 97.8404 14.15 97.9974 51.323 98.0174L92.15 98.0394L95.073 95.1164C97.466 92.7234 97.996 91.3494 97.996 87.5394C97.996 83.7294 97.466 82.3554 95.073 79.9624L92.15 77.0394H50.974H9.79801L6.89701 80.1454Z" fill="white"/>
<path fill-rule="evenodd" clip-rule="evenodd" d="M22.031 2.24142C6.47201 8.21442 -2.03999 27.3714 3.48001 43.9914C5.75101 50.8294 14.252 60.0434 20.947 62.9234C28.036 65.9724 36.402 66.6444 43.085 64.7024C49.275 62.9024 57.996 57.5234 57.996 55.5044C57.996 52.8374 56.105 53.1014 51.101 56.4684C31.858 69.4184 6.04201 56.2504 6.00601 33.4674C5.98601 21.2174 11.695 11.9894 22.438 6.90742C33.144 1.84242 44.668 3.47742 53.585 11.3264C58.038 15.2464 62.965 23.5554 62.986 27.1824C63 29.4164 65.914 30.4174 66.67 28.4474C66.999 27.5904 66.717 25.0514 66.044 22.8054C60.71 5.00242 40.02 -4.66458 22.031 2.24142ZM20.996 11.5124C20.996 12.4034 22.987 16.5994 25.42 20.8364C30.967 30.4944 30.756 32.7784 23.86 37.7324C19.024 41.2074 17.552 44.0394 20.583 44.0394C21.455 44.0394 24.127 42.6334 26.519 40.9154C29.644 38.6714 31.541 37.9594 33.249 38.3884C36.606 39.2304 39.996 36.5934 39.996 33.1374C39.996 30.2304 37.365 27.0574 34.917 27.0144C34.136 27.0004 31.471 23.2914 28.996 18.7734C24.772 11.0624 20.996 7.63542 20.996 11.5124ZM33.663 31.7064C32.512 32.8564 32.934 34.0394 34.496 34.0394C35.321 34.0394 35.996 33.3644 35.996 32.5394C35.996 30.9774 34.813 30.5554 33.663 31.7064Z" fill="#F8CC16"/>
</svg>
