<svg xmlns="http://www.w3.org/2000/svg" width="72" height="40" viewBox="0 0 72 40">
  <g fill="none" transform="matrix(1 0 0 -1 2 40)">
    <path fill="#000A12" d="M33.2501294,0.393509942 C24.5787529,0.393509942 16.7450735,2.56638053 10.5660971,6.58379229 L0.173214706,6.59298641 C0.173214706,6.59298641 2.62535559,9.85022171 3.42119735,13.1347511 C1.39641794,15.874457 0.181254706,19.2441629 0.181254706,22.899457 C0.181254706,32.0047511 7.63066941,39.4012217 16.7850371,39.4012217 C22.0147024,39.4012217 26.6789665,36.9865746 29.7252988,33.2165158 L33.2562185,38.4681041 L36.8217221,33.1716923 C38.4231009,35.2011041 40.4879621,36.8406923 42.9149779,37.9488099 C46.9460921,39.7922217 51.4551132,39.972457 55.6146309,38.4474335 C64.2038338,35.2930217 68.6086897,25.7744923 65.4370279,17.236257 C64.8761493,15.7244923 64.1062306,14.3477276 63.1854732,13.1197864 C63.9680726,9.81460994 66.4496541,6.51449229 66.4496541,6.51449229 L55.3745541,6.50645112 C49.1612894,2.513157 41.6119659,0.393509942 33.2491835,0.393509942 L33.2501294,0.393509942 Z" transform="matrix(1 0 0 -1 0 39.868)"/>
    <path fill="#FCC40F" d="M49.3336765,33.4044118 C47.5941397,33.3522059 45.8324338,33.0375 44.1084154,32.4073529 C39.9472721,30.875 36.6366838,27.8272059 34.7811287,23.8176471 C33.943136,22.0088235 33.4694559,20.0963235 33.3179669,18.1720588 C32.7016654,26.6073529 25.7050919,33.2992647 17.1123419,33.4683824 C21.8661397,35.4911765 27.3263934,36.5919118 33.2462868,36.5919118 C39.2046066,36.5919118 44.5850515,35.5227941 49.3336765,33.4044118"/>
    <path fill="#FFF" d="M16.7846824,3.71882219 C9.47892353,3.71882219 3.53405294,9.63117513 3.53405294,16.9023516 C3.53405294,24.165881 9.47951471,30.0788222 16.7846824,30.0788222 C24.0863029,30.0788222 30.0294,24.1652928 30.0294,16.9023516 C30.0294,9.63117513 24.0863029,3.71882219 16.7846824,3.71882219 Z M48.9381794,3.7774163 C47.4258318,3.78047513 45.8891868,4.04288101 44.3900224,4.59312219 C41.0676106,5.81223983 38.4244606,8.24694572 36.9435635,11.4437104 C35.4656224,14.6414751 35.3273462,18.2219457 36.5532925,21.5242987 L36.5532925,21.5265928 C37.7755498,24.8272987 40.2181136,27.4577692 43.4328131,28.9301222 C46.6495225,30.4073575 50.2496689,30.5491222 53.5685336,29.332234 C60.4214513,26.807234 63.9371778,19.2075281 61.4098984,12.3951751 C59.4325904,7.06599866 54.3400189,3.7663516 48.9384395,3.7774163 L48.9381794,3.7774163 Z" transform="matrix(1 0 0 -1 0 33.87)"/>
    <path fill="#000A12" d="M16.5783618,8.95823529 C12.0529059,8.95823529 8.37342353,12.6178235 8.37342353,17.1117647 C8.37342353,21.6081176 12.0528468,25.27 16.5783618,25.27 C21.0919941,25.27 24.7661559,21.608 24.7661559,17.1117647 C24.7661559,12.6176471 21.0922306,8.95823529 16.5783618,8.95823529 L16.5783618,8.95823529 Z M49.8296735,8.95823529 C45.3086515,8.95823529 41.6306471,12.6178235 41.6306471,17.1117647 C41.6306471,21.6081176 45.3087106,25.27 49.8296735,25.27 C54.3477397,25.27 58.0227882,21.608 58.0227882,17.1117647 C58.0227882,12.6176471 54.3475032,8.95823529 49.8296735,8.95823529 L49.8296735,8.95823529 Z" transform="matrix(1 0 0 -1 0 34.228)"/>
    <path fill="#FFF" d="M16.5783618,11.7649412 C13.6091779,11.7649412 11.1942812,14.1632941 11.1942812,17.1095882 C11.1942812,20.0573529 13.6091779,22.4611765 16.5783618,22.4611765 C19.5342441,22.4611765 21.9416921,20.0574118 21.9416921,17.1095882 C21.9416921,14.1632353 19.5342441,11.7649412 16.5783618,11.7649412 Z M49.8296735,11.7649412 C46.8664015,11.7649412 44.4548153,14.1632941 44.4548153,17.1095882 C44.4548153,20.0573529 46.8664015,22.4611765 49.8296735,22.4611765 C52.7907582,22.4611765 55.1987382,20.0574118 55.1987382,17.1095882 C55.1987382,14.1632353 52.7906991,11.7649412 49.8296735,11.7649412 Z" transform="matrix(1 0 0 -1 0 34.226)"/>
    <path fill="#EF6A45" d="M19.3240809,17.1176471 C19.3240809,15.6058824 18.0870441,14.3713235 16.5662426,14.3713235 C15.0395294,14.3713235 13.8069265,15.6058824 13.8069265,17.1176471 C13.8069265,18.6338235 15.0395294,19.8617647 16.5662426,19.8617647 C18.0870441,19.8617647 19.3240809,18.6338235 19.3240809,17.1176471"/>
    <path fill="#00B087" d="M49.8302647,14.3705882 C48.3020735,14.3705882 47.0741409,15.5991176 47.0741409,17.1152941 C47.0741409,18.6270588 48.3020735,19.8611765 49.8302647,19.8611765 C51.3532535,19.8611765 52.5852653,18.6270588 52.5852653,17.1152941 C52.5852653,15.5991176 51.3533126,14.3705882 49.8302647,14.3705882 L49.8302647,14.3705882 Z" transform="matrix(1 0 0 -1 0 34.232)"/>
  </g>
</svg>
