<svg width="250" height="250" viewBox="0 0 250 250" fill="none" xmlns="http://www.w3.org/2000/svg">
<g clip-path="url(#clip0_5013_8170)">
<path d="M155.893 121.612H111.975C111.005 121.612 110.219 120.828 110.219 119.861V28.1073C110.219 27.1401 111.005 26.356 111.975 26.356H228.99C229.96 26.356 230.747 27.1401 230.747 28.1073V119.861C230.747 120.325 230.562 120.771 230.232 121.099C229.903 121.427 229.456 121.612 228.99 121.612H155.893Z" fill="white" stroke="#43AFAD" stroke-width="2.16" stroke-linecap="round" stroke-linejoin="round"/>
<path d="M153.699 109.948H132.293C131.38 109.948 130.639 109.211 130.639 108.302V103.849C130.639 102.94 129.899 102.203 128.985 102.203H124.51C123.596 102.203 122.855 101.466 122.855 100.557V46.4387C122.855 45.5297 123.596 44.7929 124.51 44.7929H128.985C129.899 44.7929 130.639 44.056 130.639 43.1471V38.6937C130.639 37.7847 131.38 37.0479 132.293 37.0479H209.646C210.559 37.0479 211.3 37.7847 211.3 38.6937V43.1471C211.3 44.056 212.04 44.7929 212.954 44.7929H217.429C218.343 44.7929 219.083 45.5297 219.083 46.4387V100.557C219.083 101.466 218.343 102.203 217.429 102.203H212.954C212.04 102.203 211.3 102.94 211.3 103.849V108.302C211.3 109.211 210.559 109.948 209.646 109.948H188.24" fill="white"/>
<path d="M153.699 109.948H132.293C131.38 109.948 130.639 109.211 130.639 108.302V103.849C130.639 102.94 129.899 102.203 128.985 102.203H124.51C123.596 102.203 122.855 101.466 122.855 100.557V46.4387C122.855 45.5297 123.596 44.7929 124.51 44.7929H128.985C129.899 44.7929 130.639 44.056 130.639 43.1471V38.6937C130.639 37.7847 131.38 37.0479 132.293 37.0479H209.646C210.559 37.0479 211.3 37.7847 211.3 38.6937V43.1471C211.3 44.056 212.04 44.7929 212.954 44.7929H217.429C218.343 44.7929 219.083 45.5297 219.083 46.4387V100.557C219.083 101.466 218.343 102.203 217.429 102.203H212.954C212.04 102.203 211.3 102.94 211.3 103.849V108.302C211.3 109.211 210.559 109.948 209.646 109.948H188.24" stroke="#43AFAD" stroke-width="2.16" stroke-linecap="round" stroke-linejoin="round"/>
<path d="M183.947 99.2002L183.075 104.818C182.992 105.372 183.214 105.927 183.656 106.271L188.305 109.661C188.711 109.952 188.952 110.421 188.952 110.92C188.952 111.419 188.711 111.888 188.305 112.179L183.656 115.569C183.174 115.881 182.942 116.463 183.075 117.022L183.947 122.64C184.06 123.128 183.913 123.64 183.559 123.995C183.204 124.35 182.692 124.496 182.203 124.383L176.586 123.511C176.032 123.428 175.477 123.651 175.133 124.092L171.743 128.742C171.452 129.147 170.983 129.388 170.484 129.388C169.984 129.388 169.516 129.147 169.224 128.742L165.834 124.092C165.522 123.611 164.94 123.378 164.382 123.511L158.764 124.383C158.275 124.496 157.763 124.35 157.408 123.995C157.054 123.64 156.907 123.128 157.02 122.64L157.892 117.022C157.975 116.468 157.753 115.913 157.311 115.569L152.662 112.179C152.256 111.888 152.016 111.419 152.016 110.92C152.016 110.421 152.256 109.952 152.662 109.661L157.311 106.271C157.793 105.958 158.026 105.376 157.892 104.818L157.02 99.2002C156.907 98.7117 157.054 98.1993 157.408 97.8448C157.763 97.4902 158.275 97.3435 158.764 97.4568L164.382 98.3285C164.935 98.4114 165.491 98.1893 165.834 97.7473L169.224 93.0982C169.516 92.6925 169.984 92.4519 170.484 92.4519C170.983 92.4519 171.452 92.6925 171.743 93.0982L175.133 97.7473C175.445 98.2291 176.027 98.4619 176.586 98.3285L182.203 97.4568C182.683 97.3919 183.165 97.5546 183.507 97.8967C183.849 98.2387 184.012 98.7208 183.947 99.2002Z" fill="white" stroke="#FFCC0A" stroke-width="2.16" stroke-linecap="round" stroke-linejoin="round"/>
<path d="M170.97 118.696C174.996 118.696 178.26 115.432 178.26 111.406C178.26 107.38 174.996 104.116 170.97 104.116C166.944 104.116 163.68 107.38 163.68 111.406C163.68 115.432 166.944 118.696 170.97 118.696Z" fill="white" stroke="#43AFAD" stroke-width="2.16" stroke-linecap="round" stroke-linejoin="round"/>
<path d="M137.434 71.554H203.53" stroke="#43AFAD" stroke-width="2.16" stroke-linecap="round" stroke-linejoin="round"/>
<path d="M137.434 81.2739H203.53" stroke="#43AFAD" stroke-width="2.16" stroke-linecap="round" stroke-linejoin="round"/>
<path d="M170.97 61.3479C174.46 61.3479 177.288 58.5192 177.288 55.0299C177.288 51.5406 174.46 48.7119 170.97 48.7119C167.481 48.7119 164.652 51.5406 164.652 55.0299C164.652 58.5192 167.481 61.3479 170.97 61.3479Z" fill="white" stroke="#FFCC0A" stroke-width="2.16" stroke-linecap="round" stroke-linejoin="round"/>
<path d="M170.969 14.6919V4.97192" stroke="#FFCC0A" stroke-width="2.16" stroke-linecap="round" stroke-linejoin="round"/>
<path d="M152.016 5.94385L161.736 15.6638" stroke="#FFCC0A" stroke-width="2.16" stroke-linecap="round" stroke-linejoin="round"/>
<path d="M188.95 5.94385L179.23 15.6638" stroke="#FFCC0A" stroke-width="2.16" stroke-linecap="round" stroke-linejoin="round"/>
<path d="M232 164.193V253.804H17.748V164.193C17.748 163.223 18.545 162.436 19.5282 162.436H230.22C231.203 162.436 232 163.223 232 164.193ZM16.9789 144.94H232.769C237.176 144.94 240.748 148.857 240.748 153.688C240.748 158.519 237.176 162.436 232.769 162.436H16.9789C12.5723 162.436 9 158.519 9 153.688C9 148.857 12.5723 144.94 16.9789 144.94Z" fill="white" stroke="#43AFAD" stroke-width="2.16" stroke-linecap="round" stroke-linejoin="round"/>
<path d="M218.34 176.212H32.0898V239.852H218.34V176.212Z" fill="white" stroke="#FFCC09" stroke-width="2.16"/>
<path fill-rule="evenodd" clip-rule="evenodd" d="M40.5416 112.864C38.625 112.864 37.1875 113.544 37.1875 114.419V119.668H43.9915V114.419C43.9915 113.544 42.4582 112.864 40.5416 112.864Z" stroke="#FFCC09" stroke-width="2.16"/>
<path d="M40.1015 139.108V138.331L37.1855 139.108L22.6055 135.22C22.6055 125.557 30.4387 117.724 40.1015 117.724C49.7642 117.724 57.5975 125.557 57.5975 135.22L40.1015 139.108Z" fill="white" stroke="#FFCC09" stroke-width="2.16"/>
<path d="M62.4588 135.22H18.7188V144.94H62.4588V135.22Z" fill="white" stroke="#43AFAD" stroke-width="2.16" stroke-linecap="round" stroke-linejoin="round"/>
<path d="M114.526 193.897C113.152 192.206 113.1 192.258 111.545 193.975C111.338 194.209 111.001 194.313 110.379 194.677C112.789 197.721 115.07 200.557 117.325 203.393C118.413 204.745 119.294 203.549 120.098 203.08C121.056 202.534 120.59 201.728 120.072 201.051C118.232 198.658 116.418 196.238 114.526 193.897Z" fill="#F9BF02"/>
<path d="M125.203 190.306C124.581 190.514 123.907 191.347 123.752 191.997C123.493 193.012 123.674 194.131 123.648 195.223C123.622 198.658 123.363 198.449 127.043 198.892C127.147 198.892 127.25 198.84 127.821 198.684C127.821 196.68 127.769 194.547 127.847 192.414C127.924 190.098 127.432 189.578 125.203 190.306Z" fill="#F9BF02"/>
<path d="M135.544 201.78C137.306 200.01 138.964 198.137 140.597 196.238C141.608 195.067 140.701 194.339 139.923 193.532C139.068 192.622 138.394 193.038 137.798 193.74C135.647 196.238 133.522 198.736 131.345 201.311C133.341 203.523 133.729 203.601 135.544 201.78Z" fill="#F9BF02"/>
<path d="M144.64 207.243C143.552 207.217 142.463 207.243 141.401 207.243C141.401 207.243 141.401 207.243 141.401 207.217C140.364 207.217 139.353 207.295 138.317 207.191C136.917 207.087 136.477 207.919 136.554 209.038C136.658 210.391 137.513 211.171 138.861 211.328C140.286 211.484 141.712 211.432 143.111 211.692C144.407 211.926 144.977 211.093 145.547 210.313C145.806 209.949 145.521 209.194 145.755 208.752C146.402 207.451 145.677 207.269 144.64 207.243Z" fill="#F9BF02"/>
<path d="M139.742 222.645C137.41 220.069 135.051 217.52 132.667 214.996C132.382 214.71 131.656 214.554 131.319 214.71C130.594 215.048 129.972 215.646 129.272 216.193C131.76 220.147 134.792 223.633 138.887 226.001C139.042 225.871 139.224 225.741 139.379 225.611C139.25 225.038 139.146 224.466 139.016 223.894C139.379 223.972 139.768 224.076 140.52 224.258C140.157 223.477 140.053 222.957 139.742 222.645Z" fill="#F9BF02"/>
<path d="M122.819 217.52C121.367 217.363 121.886 218.638 121.704 219.341C121.497 220.095 121.367 220.902 121.367 221.708C121.367 222.983 121.341 224.336 121.678 225.533C121.86 226.183 122.819 226.938 123.467 226.99C124.4 227.094 125.177 226.417 125.203 225.22C125.229 224.206 125.358 223.191 125.436 222.281C125.436 221.292 125.462 220.459 125.436 219.601C125.359 217.884 124.063 217.65 122.819 217.52Z" fill="#F9BF02"/>
<path d="M114.837 215.438C112.556 218.092 110.379 220.85 108.124 223.633C110.638 225.559 110.638 225.559 112.167 223.685C113.826 221.656 115.51 219.653 117.065 217.546C117.454 217.025 117.765 215.802 117.506 215.568C116.78 214.866 115.64 214.476 114.837 215.438Z" fill="#F9BF02"/>
<path d="M115.329 209.194C115.588 207.581 115.744 207.243 114.033 207.139C112.737 207.061 111.416 207.113 110.12 207.113C110.12 207.061 110.12 206.983 110.12 206.931C108.98 206.931 107.839 206.931 106.699 206.931C104.911 206.957 104.652 207.373 105.377 208.934C105.507 209.194 105.611 209.559 105.533 209.845C105.144 211.198 105.87 211.458 106.984 211.432C108.643 211.406 110.275 211.432 111.934 211.406C113.489 211.328 114.966 211.51 115.329 209.194Z" fill="#F9BF02"/>
</g>
<defs>
<clipPath id="clip0_5013_8170">
<rect width="250" height="250" fill="white"/>
</clipPath>
</defs>
</svg>
