<svg width="324" height="373" viewBox="0 0 324 373" fill="none" xmlns="http://www.w3.org/2000/svg">
<path d="M230.5 184.5L218 204.5L204.033 229.816C202.719 232.196 200.595 234.046 198.061 235.032V235.032C194.869 236.273 191.268 236.038 188.274 234.374L187.695 234.053C185.334 232.741 183.607 230.526 182.911 227.916V227.916C182.322 225.706 182.511 223.361 183.448 221.275L193 200L211.639 160.059C213.203 156.709 215.3 153.635 217.85 150.957L221.023 147.626C222.975 145.576 225.421 144.063 228.126 143.23V143.23C229.7 142.746 231.337 142.5 232.984 142.5H297.598C299.523 142.5 301.439 142.768 303.29 143.297V143.297C306.066 144.09 308.646 145.455 310.863 147.303L313.635 149.612C315.527 151.189 317.096 153.118 318.255 155.291V155.291C319.729 158.055 320.5 161.138 320.5 164.27V249V249C320.5 251.268 319.744 253.472 318.351 255.263L317.923 255.813C317.312 256.599 316.578 257.282 315.749 257.834V257.834C314.598 258.602 313.289 259.102 311.919 259.297L311.756 259.321C310.922 259.44 310.076 259.453 309.239 259.36L306 259V259C303.345 258.336 300.788 257.327 298.396 255.998L297.5 255.5" stroke="#058FA2" stroke-width="6"/>
<path d="M73.5 37V3H136V37" stroke="#FFD14B" stroke-width="6"/>
<path d="M74 89L103.5 132.5L134.5 89" stroke="#058FA2" stroke-width="6"/>
<path d="M95 120C95.425 119.173 106.51 98.9889 112 89" stroke="#058FA2" stroke-width="6"/>
<path d="M113 119L96 88.5" stroke="#058FA2" stroke-width="6"/>
<path d="M70.5 131V186" stroke="#058FA2" stroke-width="6"/>
<path d="M134.5 131V185" stroke="#058FA2" stroke-width="6"/>
<path d="M153 237H194.5" stroke="#FFD14B" stroke-width="6"/>
<path d="M165.625 237V256.006" stroke="#FFD14B" stroke-width="6"/>
<path d="M185.5 237V256" stroke="#FFD14B" stroke-width="6"/>
<path d="M153.5 364V372.5" stroke="#058FA2" stroke-width="6"/>
<path d="M191.5 364V372.5" stroke="#058FA2" stroke-width="6"/>
<path d="M160.5 282.5V337" stroke="#058FA2" stroke-width="6"/>
<path d="M187.5 283V337.5" stroke="#058FA2" stroke-width="6"/>
<path d="M3.5 200.5H54.5H114.5H138.5" stroke="#058FA2" stroke-width="6"/>
<path d="M148 200H182" stroke="#058FA2" stroke-width="6"/>
<path d="M3 359.5V297.5V200.5V185.5H66H189" stroke="#058FA2" stroke-width="6"/>
<rect x="134.5" y="259" width="78" height="102" rx="7" stroke="#FFD14B" stroke-width="6"/>
<path d="M66.5 91H138.5C149.546 91 158.5 99.9543 158.5 111V183H46.5V111C46.5 100.127 55.1765 91.2808 65.9834 91.0068L66.5 91Z" stroke="#058FA2" stroke-width="6"/>
<path d="M105 70C100.888 70 96.8114 69.143 93.002 67.4736C89.1921 65.804 85.7185 63.3523 82.7852 60.249C79.8515 57.1453 77.5161 53.4509 75.9199 49.374C74.6859 46.2222 73.9158 42.8921 73.6289 39.5H136.371C136.084 42.8921 135.314 46.2222 134.08 49.374C132.484 53.4509 130.149 57.1453 127.215 60.249C124.282 63.3523 120.808 65.804 116.998 67.4736C113.189 69.143 109.112 70 105 70Z" stroke="#058FA2" stroke-width="6"/>
<path d="M231 183V204V267.5V349.635C231 352.81 231.923 355.916 233.657 358.575V358.575C236.678 363.207 241.835 366 247.365 366H247.643C251.129 366 254.529 364.921 257.376 362.911L257.584 362.764C260.148 360.954 262.185 358.494 263.483 355.636L264 354.5M264 354.5L263 239.5M264 354.5L265.752 358.222C267.204 361.308 269.698 363.783 272.794 365.213V365.213C273.927 365.735 275.122 366.11 276.35 366.326L280.323 367.028C282.091 367.34 283.903 367.307 285.658 366.93V366.93C288.482 366.325 291.049 364.856 293.001 362.726L293.161 362.551C294.699 360.874 295.826 358.861 296.451 356.672L296.755 355.607C297.249 353.877 297.5 352.088 297.5 350.289V178.5" stroke="#058FA2" stroke-width="6"/>
<circle cx="264.5" cy="93" r="26" stroke="#FFD14B" stroke-width="6"/>
</svg>
