<svg width="207" height="207" viewBox="0 0 207 207" fill="none" xmlns="http://www.w3.org/2000/svg">
<path fill-rule="evenodd" clip-rule="evenodd" d="M90.2031 0.57235C81.5601 1.77435 70.0191 5.52735 60.2031 10.3273C36.2861 22.0223 18.4441 41.5923 9.64606 65.7823C4.67706 79.4443 3.40306 88.2053 3.96306 104.855C4.52406 121.492 6.94006 131.448 13.7831 145.319L17.7471 153.355L8.69906 179.746C3.72306 194.261 -0.188944 206.297 0.00705552 206.492C0.202056 206.687 12.4331 203.024 27.1861 198.351C41.9391 193.678 54.5531 189.855 55.2181 189.855C55.8831 189.855 59.5211 191.258 63.3031 192.973C79.0231 200.101 100.709 203.254 118.068 200.934C158.747 195.499 191.415 167.32 203.367 127.355C205.812 119.177 206.065 116.801 206.127 101.355C206.186 86.5793 205.893 83.2433 203.885 75.8553C193.389 37.2283 162.707 8.81335 123.453 1.36735C116.108 -0.02565 97.6721 -0.46665 90.2031 0.57235ZM91.3631 16.9034C64.5881 21.3974 41.5341 38.0864 29.2521 61.8654C22.0111 75.8854 20.1961 83.7493 20.2511 100.855C20.2861 111.557 20.7651 117.043 22.0781 121.797C24.2071 129.506 28.6521 139.541 32.7971 146.002L35.8171 150.707L30.6211 165.809C27.7631 174.114 25.6161 181.101 25.8501 181.335C26.0831 181.569 33.2331 179.5 41.7391 176.739L57.2031 171.718L65.2031 175.732C69.6031 177.94 77.2531 180.95 82.2031 182.422C94.4571 186.066 113.978 186.321 126.203 182.998C159.081 174.06 183.512 147.83 189.168 115.394C191.1 104.314 191.104 97.4173 189.183 86.4033C185.027 62.5693 169.616 40.2103 148.835 27.8643C132.189 17.9753 110.088 13.7604 91.3631 16.9034ZM63.8251 58.3634C57.8851 63.7304 55.3681 70.5603 55.9211 79.8113C56.4721 89.0263 59.3021 95.4433 67.9711 107.136C83.0951 127.536 95.4611 136.991 116.55 144.279C131.604 149.482 140.626 148.965 149.226 142.406C154.476 138.401 155.961 135.517 156.089 129.073L156.203 123.355L145.703 118.214C130.432 110.737 131.77 110.73 125.728 118.323C119.672 125.934 118.636 126.17 110.113 121.881C99.2551 116.416 88.6291 106.487 82.4801 96.0593L80.7561 93.1363L85.2301 87.3753C87.6901 84.2073 89.7031 81.0353 89.7031 80.3283C89.7031 78.6293 81.0231 57.9453 79.5811 56.2083C78.8921 55.3783 76.3811 54.8554 73.0831 54.8554C68.3431 54.8554 67.2501 55.2694 63.8251 58.3634Z" fill="white"/>
</svg>
