<svg width="195" height="49" viewBox="0 0 195 49" fill="none" xmlns="http://www.w3.org/2000/svg">
<path d="M17.0304 0H5.90323C3.43585 0.00146484 1.22989 1.5379 0.373047 3.85172L15.9501 23.0833L17.0304 0Z" fill="#FDC114"/>
<path d="M37.5171 0H17.8496L18.9267 23.0848L37.5171 0Z" fill="#FDC114"/>
<path d="M0.222717 4.31628C0.0761108 4.83392 0.00115967 5.36923 0 5.90726V21.2075L13.5438 24.8333L0.222717 4.31628Z" fill="#FDC114"/>
<path d="M48.9992 17.8204V5.90405C48.9992 2.6427 46.3549 -0.000884788 43.0936 2.22145e-07H38.1982L21.334 24.8301L48.9992 17.8204Z" fill="#FDC114"/>
<path d="M48.9979 38.5506V18.1942L22.2539 27.662L48.9979 38.5506Z" fill="#FDC114"/>
<path d="M2.99805 48.2315C3.88309 48.736 4.8844 49.0009 5.90314 49H16.8331L15.9501 32.2408L2.99805 48.2315Z" fill="#FDC114"/>
<path d="M0 22.8128V32.5113L12.6259 27.662L0 22.8128Z" fill="#FDC114"/>
<path d="M21.3359 30.4923L33.3509 49H43.0939C46.3549 49 48.9987 46.3569 48.9996 43.0959V38.9801L21.3359 30.4923Z" fill="#FDC114"/>
<path d="M18.0488 49H32.5011L18.927 32.2424L18.0488 49Z" fill="#FDC114"/>
<path d="M0.0078125 34.1165V43.0927C0.0078125 44.9315 0.866089 46.6638 2.32825 47.7771L13.5516 30.4892L0.0078125 34.1165Z" fill="#FDC114"/>
<path d="M62.297 34.4311H63.1167V37.8965H67.3226V34.4311H68.1483V42.6923H67.3226V38.7063H63.1167V42.6923H62.291L62.297 34.4311Z" fill="white"/>
<path d="M78.698 34.2252C79.8731 34.1952 81.0088 34.65 81.8385 35.4825C83.0849 36.7252 83.4579 38.5972 82.7832 40.2226C82.1084 41.8481 80.5193 42.9056 78.7594 42.9003C77.5966 42.9263 76.4746 42.4714 75.6585 41.6428C74.8365 40.8461 74.3819 39.7439 74.4031 38.5994C74.3979 37.8257 74.5966 37.0641 74.9793 36.3915C75.3502 35.7314 75.8928 35.1841 76.5495 34.8074C77.201 34.4253 77.9428 34.2244 78.698 34.2252ZM78.7356 35.0271C77.4877 35.0412 76.3396 35.7117 75.7139 36.7915C75.4042 37.3418 75.2451 37.964 75.2525 38.5953C75.2451 39.5232 75.6091 40.4154 76.2633 41.0734C76.9175 41.7313 77.8078 42.1003 78.7356 42.0984C79.3605 42.1024 79.9753 41.9411 80.5178 41.631C81.0516 41.3307 81.4928 40.8896 81.793 40.3557C82.1022 39.8075 82.2607 39.1871 82.2523 38.5577C82.2616 37.9332 82.1029 37.3179 81.7929 36.7757C81.4854 36.243 81.0392 35.8037 80.5019 35.5044C79.9662 35.1908 79.3564 35.026 78.7356 35.0271Z" fill="white"/>
<path d="M88.5078 41.1538L89.2088 40.734C89.7038 41.6422 90.2748 42.097 90.9216 42.0983C91.1947 42.098 91.4634 42.03 91.7038 41.9003C91.9343 41.7839 92.1267 41.6038 92.2582 41.3815C92.3862 41.1736 92.4547 40.9345 92.4562 40.6904C92.4513 40.3961 92.3528 40.1111 92.175 39.8766C91.7702 39.3678 91.2932 38.9209 90.7592 38.5499C90.0702 38.0298 89.6418 37.6536 89.4742 37.4212C89.1914 37.0607 89.0374 36.616 89.0365 36.1579C89.0309 35.8106 89.1199 35.4683 89.2939 35.1677C89.4665 34.8718 89.7181 34.6297 90.0206 34.4688C90.3335 34.2985 90.6844 34.2107 91.0404 34.2133C91.424 34.2109 91.8012 34.3108 92.1335 34.5024C92.5607 34.7798 92.9265 35.1417 93.2087 35.5658L92.5354 36.0766C92.3218 35.7605 92.0536 35.4849 91.7434 35.2628C91.5279 35.1322 91.2805 35.0636 91.0285 35.0648C90.7264 35.0528 90.4321 35.1619 90.2107 35.3678C90.0034 35.5599 89.8881 35.8317 89.8939 36.1142C89.8939 36.2945 89.9324 36.4727 90.0067 36.637C90.1082 36.8443 90.2472 37.0309 90.4167 37.1875C90.5236 37.2925 90.88 37.5677 91.482 38.0132C92.1988 38.5399 92.6879 39.0033 92.9532 39.4212C93.2039 39.7873 93.3416 40.219 93.3493 40.6627C93.3521 41.2565 93.104 41.8239 92.6661 42.225C92.2253 42.661 91.6266 42.8996 91.0067 42.8864C90.5227 42.8929 90.0478 42.7551 89.6425 42.4903C89.1624 42.1424 88.7732 41.6839 88.5078 41.1538Z" fill="white"/>
<path d="M99.6836 34.4311H101.333C101.973 34.4075 102.613 34.4493 103.244 34.5559C103.697 34.6611 104.104 34.9122 104.4 35.2707C104.995 36.0801 105 37.1808 104.412 37.9953C104.102 38.3642 103.676 38.6181 103.204 38.7161C102.83 38.8072 102.129 38.8508 101.103 38.8508H100.509V42.6923H99.6836V34.4311ZM100.509 35.2409V38.0429L101.907 38.0607C102.327 38.0811 102.747 38.0289 103.149 37.9063C103.403 37.8107 103.62 37.6357 103.767 37.4073C103.916 37.1784 103.995 36.9104 103.992 36.6369C103.994 36.3667 103.916 36.102 103.767 35.8766C103.626 35.6542 103.418 35.4828 103.173 35.3875C102.783 35.2702 102.375 35.2207 101.969 35.2409H100.509Z" fill="white"/>
<path d="M110.979 34.4311H111.804V42.6923H110.979V34.4311Z" fill="white"/>
<path d="M117.479 35.241V34.4311H122.005V35.241H120.164V42.6923H119.322V35.241H117.479Z" fill="white"/>
<path d="M130.244 34.4311L134.095 42.6923H133.204L131.905 39.9756H128.341L127.054 42.6923H126.133L130.046 34.4311H130.244ZM130.139 36.1876L128.723 39.1775H131.547L130.139 36.1876Z" fill="white"/>
<path d="M139.973 34.4311H140.798V41.8964H143.977V42.6883H139.973V34.4311Z" fill="white"/>
<path d="M149.768 34.4311H150.593V42.6923H149.768V34.4311Z" fill="white"/>
<path d="M156.268 35.241V34.4311H160.794V35.241H158.957V42.6923H158.113V35.241H156.268Z" fill="white"/>
<path d="M165.932 34.4311H166.876L168.991 37.839L171.07 34.4311H172.025L169.409 38.7458V42.6923H168.595V38.7458L165.932 34.4311Z" fill="white"/>
<path d="M62.291 22.2118L63.8751 21.2553C64.9985 23.3226 66.2962 24.3556 67.7681 24.3543C68.3893 24.3591 69.0019 24.2087 69.5502 23.9167C70.0753 23.6481 70.5133 23.2362 70.8136 22.7286C71.0977 22.254 71.2482 21.7115 71.2492 21.1584C71.2358 20.4893 71.0121 19.8415 70.6096 19.3069C70.0235 18.4713 68.9516 17.4667 67.3939 16.2932C65.8361 15.1195 64.8612 14.2674 64.4692 13.7368C63.8296 12.9154 63.4813 11.9046 63.4791 10.8635C63.4724 10.079 63.6776 9.30744 64.0732 8.62995C64.4669 7.95893 65.0393 7.41053 65.7266 7.04584C66.4371 6.65876 67.2342 6.45844 68.0433 6.46369C68.9146 6.46113 69.7712 6.68854 70.5265 7.12305C71.2947 7.56263 72.1092 8.3686 72.97 9.54072L71.4393 10.7012C70.7324 9.7685 70.1304 9.14875 69.6334 8.85175C69.1415 8.55585 68.5777 8.40107 68.0037 8.40418C67.3179 8.378 66.6499 8.62678 66.1483 9.09528C65.6769 9.53211 65.4146 10.1497 65.4276 10.7923C65.4273 11.2017 65.5136 11.6066 65.681 11.9803C65.9151 12.449 66.2309 12.8721 66.6137 13.2298C66.8592 13.4701 67.6671 14.0958 69.0374 15.107C70.6624 16.3056 71.7772 17.373 72.3818 18.3088C72.9534 19.1406 73.2687 20.1216 73.2888 21.1306C73.2949 22.479 72.7319 23.7674 71.7383 24.679C70.7363 25.6706 69.3755 26.2142 67.9661 26.186C66.8648 26.1964 65.7852 25.8786 64.8652 25.2731C63.9253 24.6618 63.0672 23.6414 62.291 22.2118ZM82.544 6.93293H84.4192V18.2693C84.3996 19.1077 84.4254 19.9465 84.4964 20.7821C84.562 21.444 84.7847 22.0809 85.1459 22.6395C85.5492 23.1883 86.0911 23.6202 86.7161 23.8909C87.3804 24.2165 88.1091 24.389 88.8488 24.3959C89.4647 24.3962 90.0731 24.261 90.6309 23.9999C91.1847 23.7487 91.6732 23.3732 92.0586 22.9028C92.4565 22.4042 92.7434 21.8264 92.9002 21.2078C93.0322 20.7286 93.0982 19.7498 93.0982 18.2713V6.93293H94.9635V18.2693C94.9635 19.9445 94.7991 21.2989 94.4704 22.3326C94.1107 23.4144 93.4244 24.358 92.5061 25.0335C91.4839 25.8118 90.2262 26.2171 88.9418 26.182C87.4277 26.182 86.13 25.8203 85.0489 25.0969C84.0098 24.4267 83.2427 23.4091 82.8846 22.2257C82.6535 21.493 82.5387 20.1729 82.54 18.2654L82.544 6.93293ZM104.836 25.7108V6.93293H105.244L117.735 21.3267V6.93293H119.587V25.7108H119.161L106.767 11.4932V25.7108H104.836ZM127.438 22.2118L129.034 21.2553C130.157 23.3226 131.455 24.3556 132.927 24.3543C133.548 24.3588 134.161 24.2084 134.709 23.9167C135.234 23.6481 135.672 23.2362 135.972 22.7286C136.255 22.2535 136.405 21.7111 136.406 21.1583C136.392 20.4897 136.169 19.8421 135.768 19.3069C135.18 18.4713 134.107 17.4667 132.551 16.2932C130.994 15.1195 130.02 14.2615 129.628 13.7189C128.988 12.8975 128.64 11.8867 128.638 10.8458C128.631 10.0613 128.836 9.28962 129.232 8.61213C129.625 7.94025 130.197 7.39155 130.885 7.02802C131.591 6.64912 132.38 6.45368 133.18 6.45972C134.052 6.45716 134.908 6.68458 135.663 7.11909C136.432 7.55872 137.247 8.36457 138.109 9.53681L136.576 10.6972C135.869 9.76453 135.267 9.14472 134.77 8.84772C134.279 8.5517 133.716 8.39686 133.143 8.40021C132.456 8.37348 131.787 8.62226 131.285 9.09131C130.814 9.529 130.552 10.1473 130.567 10.7902C130.567 11.1997 130.654 11.6044 130.82 11.9784C131.055 12.4467 131.37 12.8696 131.753 13.2279C132.001 13.4681 132.809 14.0938 134.178 15.105C135.803 16.3037 136.918 17.371 137.523 18.307C138.093 19.1392 138.407 20.1199 138.428 21.1286C138.435 22.4772 137.872 23.7661 136.877 24.6771C135.878 25.6669 134.521 26.2104 133.115 26.1839C132.013 26.1942 130.932 25.8757 130.012 25.2691C129.08 24.6606 128.222 23.6414 127.438 22.2118ZM145.762 8.77253V6.93293H156.051V8.77253H151.863V25.7107H149.95V8.77253H145.762ZM182.936 6.93293H186.674C188.76 6.93293 190.173 7.01813 190.914 7.18842C191.978 7.41492 192.935 7.99396 193.63 8.83192C194.341 9.70521 194.713 10.8055 194.678 11.9309C194.697 12.8798 194.447 13.8149 193.957 14.6279C193.467 15.4112 192.747 16.0245 191.896 16.3842C191.001 16.7802 189.766 16.9822 188.193 16.9901L194.947 25.7028H192.628L185.874 16.9901H184.815V25.7028H182.938L182.936 6.93293ZM184.813 8.77253V15.1466L188.044 15.1744C189.298 15.1744 190.222 15.0535 190.816 14.8179C191.395 14.5953 191.888 14.1945 192.224 13.6734C192.561 13.15 192.736 12.5391 192.727 11.9169C192.733 11.307 192.555 10.7095 192.216 10.2022C191.895 9.70295 191.426 9.3166 190.874 9.0973C190.319 8.87549 189.399 8.7652 188.114 8.76655L184.813 8.77253ZM161.221 25.7107L177.722 12.6852L160.451 23.2197L161.221 25.7107ZM177.215 25.7107L168.459 6.93293H167.999L159.12 25.7107H161.213L168.229 10.9229L175.193 25.7107H177.215Z" fill="white"/>
</svg>
