<svg width="145" height="146" viewBox="0 0 145 146" fill="none" xmlns="http://www.w3.org/2000/svg">
<path fill-rule="evenodd" clip-rule="evenodd" d="M67.1658 0.289882C58.2005 1.31064 49.1377 5.08621 41.7881 10.8625C41.0083 11.4754 39.1134 13.2226 37.5771 14.7456C29.2776 22.9716 24.2217 33.4632 22.9511 45.0968C22.7846 46.6198 22.6485 48.3847 22.6485 49.0184V50.1704H24.8752H27.1017L27.2968 47.1044C28.4792 28.5009 40.8286 12.3801 58.1262 6.85963C63.622 5.10561 66.1807 4.72058 72.4114 4.70831C78.7896 4.69605 80.9627 5.00635 86.4471 6.71104C104.276 12.2526 116.574 28.196 117.825 47.3862L118.006 50.1704H120.232H122.458L122.456 48.9582C122.444 42.8642 120.288 34.3145 117.211 28.1578C112.87 19.4698 106.104 12.0935 97.9308 7.13543C88.798 1.59585 77.5944 -0.897151 67.1658 0.289882ZM57.7377 27.6552L43.0641 35.0555V51.2561V67.4568L57.8095 76.0917L72.5546 84.7269L87.2986 76.0772L102.042 67.4277V51.2416V35.0555L87.2989 27.6395C79.1899 23.5608 72.5229 20.2307 72.4834 20.2393C72.4437 20.2478 65.8084 23.585 57.7377 27.6552ZM61.2586 31.0181L50.1057 36.6481L61.1483 43.124C67.2219 46.6857 72.3539 49.5999 72.5532 49.5999C72.7525 49.5999 77.8845 46.6857 83.9581 43.124L95.0006 36.6481L83.8478 31.0181C77.7138 27.9219 72.6312 25.3884 72.5532 25.3884C72.4752 25.3884 67.3926 27.9219 61.2586 31.0181ZM47.6043 52.6568L47.608 64.8585L57.5829 70.7053C63.0693 73.921 68.1715 76.9077 68.9215 77.342L70.2848 78.1321V65.9306V53.7292L59.6086 47.4577C53.7366 44.0084 48.6327 41.0218 48.2666 40.8207L47.6009 40.4551L47.6043 52.6568ZM86.0935 47.1132L74.8233 53.7354L74.8224 65.9338L74.8216 78.1321L76.1849 77.342C76.9349 76.9077 82.0371 73.921 87.5235 70.7053L97.4984 64.8585L97.5021 52.6659C97.5038 45.9601 97.4735 40.4773 97.4346 40.4821C97.3958 40.487 92.2922 43.4711 86.0935 47.1132ZM6.48765 46.0654C3.59971 47.1212 1.28084 49.505 0.397586 52.3262C-0.00108419 53.5997 -0.0441837 56.0935 0.0298227 73.5742L0.113753 93.3793L0.771587 95.1541C2.02346 98.5321 3.40207 100.19 13.2908 110.206C24.1295 121.186 24.6039 121.819 24.8543 125.648L24.9875 127.686L24.0805 127.886C22.9264 128.141 21.2591 129.605 20.7632 130.799C20.476 131.49 20.3801 133.51 20.3801 138.861V146H22.6485H24.9169V139.155V132.31H39.6615H54.406V139.155V146H56.6744H58.9428V138.861C58.9428 133.51 58.847 131.49 58.5598 130.799C58.0732 129.628 56.4034 128.143 55.2981 127.898L54.4466 127.71L54.3366 118.245C54.2132 107.631 54.1483 107.188 52.0971 102.934C50.9484 100.551 50.7131 100.292 38.4187 87.8653L25.9094 75.2213L23.2156 75.3253C20.0022 75.4494 18.3825 76.1108 16.4014 78.1084C14.4387 80.0872 13.7788 81.7291 13.6453 84.9656L13.5336 87.6751L21.7766 95.9436L30.0197 104.212L31.6481 102.574L33.2765 100.936L25.6564 93.2675L18.0363 85.5988L18.1693 83.9871C18.3865 81.3506 20.0229 79.8333 22.65 79.8325L23.9271 79.8319L35.5897 91.5967C42.5219 98.5897 47.5529 103.892 47.9933 104.669C49.5999 107.505 49.8693 109.576 49.8693 119.094V127.747H39.702H29.5348L29.3718 125.536C29.1702 122.807 28.3411 120.328 26.8465 117.986C26.1158 116.842 22.249 112.698 16.1261 106.499C8.0622 98.3344 6.39777 96.5088 5.59589 94.9479L4.64317 93.094L4.56859 73.2721C4.49912 54.8124 4.52861 53.3829 4.99392 52.4723C5.8301 50.836 6.81005 50.313 9.03818 50.313C11.2674 50.313 12.2499 50.838 13.0782 52.4723C13.5217 53.347 13.5741 54.4824 13.5744 63.2186L13.575 72.9869H15.8567H18.1384L18.0542 62.7908C17.9717 52.8 17.9569 52.5681 17.3158 51.2724C15.1935 46.9814 10.351 44.6527 6.48765 46.0654ZM133.459 46.1004C130.566 47.1956 128.418 49.3949 127.455 52.2481C127.066 53.4018 126.995 55.1099 126.995 63.2999V72.9869H129.263H131.531L131.532 63.2186C131.532 54.4824 131.585 53.347 132.028 52.4723C132.856 50.838 133.839 50.313 136.068 50.313C138.296 50.313 139.276 50.836 140.112 52.4723C140.578 53.3829 140.607 54.8124 140.538 73.2721L140.463 93.094L139.508 94.9479C138.705 96.5048 137.018 98.3553 128.979 106.499C122.883 112.674 118.99 116.846 118.262 117.986C116.766 120.326 115.936 122.805 115.735 125.536L115.572 127.747H105.404H95.2371V119.094C95.2371 109.779 95.4677 107.867 96.9498 104.882C97.3592 104.057 101.487 99.6886 109.368 91.7393L121.173 79.8319L122.453 79.8325C125.084 79.8333 126.72 81.3492 126.937 83.9871L127.07 85.5988L119.45 93.2675L111.83 100.936L113.458 102.574L115.087 104.212L123.33 95.9436L131.573 87.6751L131.461 84.9656C131.328 81.728 130.667 80.0846 128.705 78.1115C126.745 76.1405 125.11 75.4742 121.891 75.3365L119.197 75.2213L106.688 87.8653C94.3933 100.292 94.1579 100.551 93.0093 102.934C90.9581 107.188 90.8932 107.631 90.7698 118.245L90.6598 127.71L89.8083 127.898C88.703 128.143 87.0332 129.628 86.5466 130.799C86.2594 131.49 86.1636 133.51 86.1636 138.861V146H88.4319H90.7003V139.155V132.31H105.445H120.189V139.155V146H122.458H124.726V138.861C124.726 133.51 124.63 131.49 124.343 130.799C123.847 129.605 122.18 128.141 121.026 127.886L120.119 127.686L120.252 125.648C120.503 121.81 120.971 121.184 131.814 110.206C141.861 100.034 143.156 98.4636 144.344 95.0021L145 93.094V72.8443V52.5946L144.3 51.1686C142.239 46.9686 137.284 44.6524 133.459 46.1004ZM22.6485 57.0153V59.297H24.9169H27.1853V57.0153V54.7337H24.9169H22.6485V57.0153ZM117.921 57.0153V59.297H120.189H122.458V57.0153V54.7337H120.189H117.921V57.0153ZM22.6485 66.142V68.4236H24.9169H27.1853V66.142V63.8603H24.9169H22.6485V66.142ZM117.921 66.142V68.4236H120.189H122.458V66.142V63.8603H120.189H117.921V66.142Z" fill="#058FA2"/>
<path fill-rule="evenodd" clip-rule="evenodd" d="M67.1658 0.289882C58.2005 1.31064 49.1377 5.08621 41.7881 10.8625C41.0083 11.4754 39.1134 13.2226 37.5771 14.7456C29.2776 22.9716 24.2217 33.4632 22.9511 45.0968C22.7846 46.6198 22.6485 48.3847 22.6485 49.0184V50.1703H24.8752H27.1017L27.2968 47.1044C28.4792 28.5009 40.8286 12.3801 58.1262 6.85963C63.622 5.10561 66.1807 4.72058 72.4114 4.70831C78.7896 4.69605 80.9627 5.00635 86.4471 6.71104C104.276 12.2526 116.574 28.196 117.825 47.3862L118.006 50.1703H120.232H122.458L122.456 48.9582C122.444 42.8642 120.288 34.3145 117.211 28.1578C112.87 19.4698 106.104 12.0935 97.9308 7.13543C88.798 1.59585 77.5944 -0.897151 67.1658 0.289882ZM57.7378 27.6552L43.0641 35.0555V51.2561V67.4568L57.8095 76.0917L72.5546 84.7269L87.2986 76.0771L102.042 67.4277V51.2416V35.0555L87.2989 27.6395C79.1899 23.5608 72.5228 20.2307 72.4834 20.2393C72.4437 20.2478 65.8084 23.585 57.7378 27.6552ZM61.2586 31.0181L50.1057 36.6481L61.1483 43.124C67.2219 46.6857 72.3539 49.5999 72.5532 49.5999C72.7525 49.5999 77.8845 46.6857 83.9581 43.124L95.0006 36.6481L83.8478 31.0181C77.7138 27.9219 72.6312 25.3884 72.5532 25.3884C72.4752 25.3884 67.3926 27.9219 61.2586 31.0181ZM47.6043 52.6568L47.608 64.8585L57.5829 70.7053C63.0693 73.921 68.1715 76.9077 68.9215 77.342L70.2848 78.1321V65.9306V53.7292L59.6086 47.4577C53.7366 44.0084 48.6327 41.0218 48.2666 40.8207L47.6009 40.4551L47.6043 52.6568ZM86.0935 47.1132L74.8233 53.7354L74.8224 65.9338L74.8216 78.1321L76.1849 77.342C76.9349 76.9077 82.0371 73.921 87.5235 70.7053L97.4984 64.8585L97.5021 52.6659C97.5038 45.9601 97.4735 40.4773 97.4346 40.4821C97.3958 40.487 92.2922 43.4711 86.0935 47.1132ZM22.6485 57.0153V59.297H24.9169H27.1853V57.0153V54.7337H24.9169H22.6485V57.0153ZM117.921 57.0153V59.297H120.189H122.458V57.0153V54.7337H120.189H117.921V57.0153ZM22.6485 66.142V68.4236H24.9169H27.1853V66.142V63.8603H24.9169H22.6485V66.142ZM117.921 66.142V68.4236H120.189H122.458V66.142V63.8603H120.189H117.921V66.142Z" fill="#FDD304"/>
</svg>
