<svg width="49" height="59" viewBox="0 0 49 59" fill="none" xmlns="http://www.w3.org/2000/svg">
<path d="M8.69392 2.10275L6.60352 4.19315L7.29232 4.88195L7.98111 5.55935L8.81932 4.73255C9.27892 4.27295 9.69232 3.90575 9.73792 3.90575C9.78412 3.90575 9.81832 4.77875 9.81832 5.85815V7.81055H10.7945H11.7707V5.83535V3.86015L12.6323 4.70975L13.4939 5.57135L14.2175 4.84775L14.9297 4.13555L12.8627 2.06795L10.7957 0.000946999L8.69392 2.10275Z" fill="#FDD304"/>
<path d="M2.067 8.72869L0 10.7957L2.067 12.8627L4.134 14.9297L4.8228 14.2409L5.5116 13.5521L4.6734 12.7139C4.2252 12.2543 3.8466 11.8409 3.8466 11.7953C3.8466 11.7491 4.7538 11.7149 5.8566 11.7149H7.878L7.8438 10.7615L7.8096 9.81949L5.7996 9.78529L3.8016 9.76249L4.6512 8.90089L5.5128 8.03929L4.8234 7.35049L4.1346 6.66169L2.067 8.72869Z" fill="#FDD304"/>
<path d="M16.6526 7.35049L15.9752 8.03929L16.8248 8.90089L17.675 9.76249H15.6998H13.7246V10.7387V11.7149H15.7574H17.8016L16.883 12.6335L15.9758 13.5521L16.6532 14.2409L17.342 14.9297L19.4324 12.8393L21.5342 10.7375L19.5014 8.70469C18.3758 7.57909 17.4344 6.66049 17.3996 6.66049C17.3648 6.66169 17.0318 6.97129 16.6526 7.35049Z" fill="#FDD304"/>
<path d="M9.81892 15.6766C9.81892 16.7794 9.78471 17.6866 9.73851 17.6866C9.69231 17.6866 9.27892 17.3074 8.81992 16.8598L7.98172 16.0216L7.29232 16.7104L6.60352 17.3992L8.67051 19.4662L10.7375 21.5332L12.8045 19.4662L14.8715 17.3992L14.1827 16.7104L13.4939 16.0216L12.6323 16.8832L11.7707 17.7328L11.7479 15.7348L11.7137 13.7248L10.7717 13.6906L9.81832 13.6564V15.6766H9.81892Z" fill="#FDD304"/>
<path d="M25.3808 14.873L23.543 15.941L23.486 26.1968L23.4284 36.4526L21.9812 33.926L20.5232 31.4108L18.2492 31.3766L15.9638 31.3538L14.8382 33.3176L13.7012 35.2808L15.1712 37.8188C17.9162 42.5618 17.6516 41.9648 18.2492 44.9624L18.7772 47.6036L22.1078 50.9342L25.4384 54.2648V56.5388V58.8008H26.4146H27.3908V56.1362V53.4602L23.9912 50.0606L20.5916 46.661L20.075 44.0888L19.5584 41.516L17.7896 38.4494C16.8134 36.761 16.0208 35.3258 16.0208 35.2568C16.0208 35.1878 16.262 34.7168 16.5488 34.2116L17.0774 33.293L18.2372 33.3272L19.3856 33.3614L22.3832 38.5526L25.3808 43.7438L25.4384 30.4106L25.496 17.066L26.4494 16.5032L27.3914 15.9518L28.3676 16.5032L29.3438 17.0546V25.1744V33.3056H30.32H31.2962V31.319V29.3438L32.261 28.7924C32.789 28.4936 33.26 28.2524 33.2948 28.2524C33.3404 28.2524 33.7772 28.4936 34.2824 28.781L35.201 29.321V31.3076V33.3056H36.1772H37.1534V31.9388V30.572L38.1524 29.9864L39.1514 29.4008L40.1966 29.9636L41.2304 30.515L41.1842 31.916L41.1494 33.3056H42.137H43.1246V32.3294V31.3532L43.5608 31.0892C43.7906 30.9398 44.2154 30.6872 44.5028 30.5264L45.0308 30.2276L46.0298 30.8018L47.0288 31.376V37.2908V43.205L45.0764 48.419L43.124 53.633V56.2172V58.8008H44.1002H45.077V56.3894V53.9774L47.0294 48.7748L48.9818 43.5608V36.9116V30.2624L47.018 29.1254L45.0542 27.9998L44.5142 28.2986C44.2268 28.4708 43.7678 28.7234 43.5038 28.85L43.01 29.1026L41.0924 28.1378L39.1748 27.1844L38.7614 27.4028C38.543 27.5294 38.0954 27.782 37.7738 27.9656L37.1882 28.2872L35.477 27.2768C34.535 26.7254 33.6626 26.1974 33.536 26.117C33.3296 25.991 33.1916 26.0366 32.33 26.5304L31.3538 27.0932L31.2962 21.512L31.2386 15.9422L29.4014 14.8628C28.391 14.2772 27.4832 13.7948 27.3914 13.7948C27.299 13.7936 26.3918 14.2874 25.3808 14.873Z" fill="#058FA2"/>
</svg>
