<svg width="60" height="60" viewBox="0 0 60 60" fill="none" xmlns="http://www.w3.org/2000/svg">
<path d="M19.2891 0.366211C20.4678 -0.0267209 21.7417 0.610335 22.1348 1.78906L24.6348 9.28906C25.0277 10.4679 24.3908 11.7418 23.2119 12.1348C22.0331 12.5277 20.7592 11.8908 20.3662 10.7119L17.8662 3.21191C17.4734 2.03315 18.1103 0.75919 19.2891 0.366211Z" fill="#FDD304" stroke="white" stroke-width="0.5"/>
<path d="M36.417 8.13184C40.7125 3.83629 47.6771 3.83639 51.9727 8.13184C56.2685 12.4276 56.2685 19.3927 51.9727 23.6885L42.251 33.4111C41.427 34.2349 40.1231 34.2862 39.2393 33.5654L39.0684 33.4111C38.1898 32.5326 38.1899 31.1081 39.0684 30.2295L48.791 20.5068C50.0495 19.2484 51.0287 17.3541 51.3838 15.4609C51.7382 13.5712 51.4786 11.6251 50.1768 10.3232C48.8796 9.02606 46.8414 8.66438 44.8564 8.91699C42.8674 9.17016 40.8658 10.0463 39.5986 11.3135L29.876 21.0371C28.9974 21.9154 27.5729 21.9154 26.6943 21.0371C25.8157 20.1584 25.8157 18.7332 26.6943 17.8545L36.417 8.13184Z" fill="#058FA2" stroke="white" stroke-width="0.5"/>
<path d="M17.8545 26.6943C18.7332 25.8155 20.1584 25.8155 21.0371 26.6943C21.9154 27.5729 21.9154 28.9974 21.0371 29.876L11.3135 39.5986C8.77525 42.1369 8.77547 46.2526 11.3135 48.791C13.8519 51.3294 17.9674 51.3293 20.5059 48.791L30.2295 39.0684C31.1081 38.1901 32.5326 38.1899 33.4111 39.0684C34.2899 39.9469 34.2897 41.3714 33.4111 42.25V42.251L23.6885 51.9736C19.3927 56.2693 12.4276 56.2693 8.13184 51.9736C3.83608 47.678 3.83611 40.7126 8.13184 36.417L17.8545 26.6943Z" fill="#058FA2" stroke="white" stroke-width="0.5"/>
<path d="M5.90918 5.90918C6.78785 5.03051 8.21215 5.03051 9.09082 5.90918L16.5908 13.4092C17.4695 14.2878 17.4695 15.7122 16.5908 16.5908C15.7122 17.4695 14.2878 17.4695 13.4092 16.5908L5.90918 9.09082C5.03051 8.21215 5.03051 6.78785 5.90918 5.90918Z" fill="#FDD304" stroke="white" stroke-width="0.5"/>
<path d="M43.4092 43.4092C44.2878 42.5306 45.7122 42.5306 46.5908 43.4092L54.0908 50.9092C54.9694 51.7878 54.9694 53.2122 54.0908 54.0908C53.2122 54.9696 51.7878 54.9696 50.9092 54.0908L43.4092 46.5908C42.5306 45.7122 42.5306 44.2878 43.4092 43.4092Z" fill="#FDD304" stroke="white" stroke-width="0.5"/>
<path d="M36.7891 47.8662C37.9678 47.4734 39.2426 48.1103 39.6357 49.2891L42.1348 56.7891C42.5276 57.9679 41.8909 59.2419 40.7119 59.6348C39.5332 60.0278 38.2593 59.3907 37.8662 58.2119L35.3662 50.7119C34.9736 49.533 35.6103 48.2593 36.7891 47.8662Z" fill="#FDD304" stroke="white" stroke-width="0.5"/>
<path d="M0.366211 19.2891C0.759189 18.1103 2.03315 17.4734 3.21191 17.8662L10.7119 20.3662C11.8908 20.7592 12.5277 22.0331 12.1348 23.2119C11.7418 24.3908 10.4679 25.0278 9.28906 24.6348L1.78906 22.1348C0.610335 21.7417 -0.0267197 20.4678 0.366211 19.2891Z" fill="#FDD304" stroke="white" stroke-width="0.5"/>
<path d="M47.8662 36.7891C48.2594 35.6104 49.5333 34.9735 50.7119 35.3662L58.2119 37.8662C59.3908 38.2593 60.0274 39.5329 59.6348 40.7119C59.2417 41.8907 57.9678 42.5278 56.7891 42.1348L49.2891 39.6348C48.1103 39.2418 47.4734 37.9678 47.8662 36.7891Z" fill="#FDD304" stroke="white" stroke-width="0.5"/>
</svg>
