<svg width="82" height="85" viewBox="0 0 82 85" fill="none" xmlns="http://www.w3.org/2000/svg">
<path d="M24.0806 77.0078V75.7551C24.0806 72.2993 23.2665 68.892 21.7042 65.8095L19.2419 60.9512L16.0161 53.1399L14.6093 49.506C14.2066 48.4659 14 47.3602 14 46.2448V46.2448C14 44.7877 14.3525 43.3522 15.0275 42.0608L16.2163 39.7863C17.1524 37.9952 18.3615 36.3606 19.8003 34.9413L22.2058 32.5681C22.38 32.3963 22.5713 32.2428 22.7768 32.1101V32.1101C23.8352 31.4267 25.1754 31.3513 26.3038 31.9118L28.8798 33.1914C29.4421 33.4707 29.9723 33.8105 30.4608 34.2049L35.3523 38.1531C35.8999 38.5951 36.3863 39.1082 36.7986 39.6786L38.1043 41.4854C38.6712 42.2698 38.856 43.2673 38.6076 44.2027V44.2027C38.347 45.1846 37.6391 45.9863 36.697 46.3665L36.3235 46.5172C35.4476 46.8708 34.4753 46.9054 33.5764 46.6152L31.9386 46.0864C31.2722 45.8713 30.6341 45.5772 30.0376 45.2104L29.3887 44.8113C28.5421 44.2906 27.7699 43.6576 27.0934 42.9294V42.9294C26.1682 41.9337 25.4356 40.7751 24.9327 39.5123L24.4839 38.3852L25.5154 41.7158C26.1169 43.6578 25.5483 45.7725 24.054 47.151V47.151C23.8035 47.382 23.5313 47.5883 23.241 47.7668L20.8548 49.2342" stroke="#058FA2" stroke-width="2"/>
<path d="M54 84.5078V80.1944C54 77.7537 54.4061 75.33 55.2018 73.0226L59 62.0078L59.9751 59.8951C61.3091 57.0047 62 53.8592 62 50.6758V42.5078V30.0766C62 29.3714 61.8568 28.6736 61.579 28.0254L61.3452 27.4799C60.8161 26.2454 59.7131 25.3504 58.396 25.087V25.087C58.1327 25.0343 57.8647 25.0078 57.5961 25.0078H56.5985C56.2049 25.0078 55.8167 25.0995 55.4646 25.2755L55.0257 25.4949C53.9352 26.0402 52.6117 25.537 52.1589 24.405V24.405C52.054 24.1429 51.8971 23.9049 51.6975 23.7053L51.3373 23.3451C50.481 22.4889 49.3197 22.0078 48.1088 22.0078H46.8247C46.2785 22.0078 45.7358 22.0959 45.2176 22.2686V22.2686C43.8101 22.7378 42.2678 22.5685 40.9956 21.8052L40.8709 21.7304C40.624 21.5822 40.3657 21.4541 40.0984 21.3472L38.85 20.8478C38.2885 20.6232 37.6893 20.5078 37.0845 20.5078H36.9635C36.0135 20.5078 35.0892 20.8159 34.3292 21.3859L33.5857 21.9435C33.5294 21.9858 33.4836 22.0406 33.4521 22.1037V22.1037C33.2769 22.454 32.77 22.4329 32.6246 22.0692L32.1118 20.7874C32.0387 20.6045 31.9167 20.4453 31.7591 20.3271L30.9613 19.7288C30.3373 19.2608 29.5784 19.0078 28.7984 19.0078V19.0078C28.5998 19.0078 28.4016 19.0242 28.2057 19.0569L26.8891 19.2763C25.9856 19.4269 25.1519 19.856 24.5042 20.5036V20.5036C24.1703 20.8375 23.8923 21.2232 23.6811 21.6456L23.5926 21.8226C23.2029 22.602 23 23.4615 23 24.333V31.0078" stroke="#058FA2" stroke-width="2"/>
<path d="M29 54.0078L29.901 55.8099C30.9526 57.9129 31.5 60.2319 31.5 62.5832V62.5832C31.5 65.1571 30.844 67.6885 29.594 69.9385L29 71.0078" stroke="#058FA2" stroke-width="2"/>
<path d="M34 22.0078V21.0078H32V22.0078H34ZM32 33.0078C32 33.5601 32.4477 34.0078 33 34.0078C33.5523 34.0078 34 33.5601 34 33.0078H32ZM33 22.0078H32V33.0078H33H34V22.0078H33Z" fill="#058FA2"/>
<path d="M42 37.0078C42 37.5601 42.4477 38.0078 43 38.0078C43.5523 38.0078 44 37.5601 44 37.0078H42ZM43 23.0078H42V37.0078H43H44V23.0078H43Z" fill="#058FA2"/>
<line x1="53" y1="26.0078" x2="53" y2="36.0078" stroke="#058FA2" stroke-width="2" stroke-linecap="round"/>
<path d="M1 29.0078L9.85644 31.4868" stroke="#FDD304" stroke-width="2" stroke-linecap="round"/>
<path d="M16.4219 8.74219L20.9985 16.0083" stroke="#FDD304" stroke-width="2" stroke-linecap="round"/>
<path d="M39.25 9.01562V1.00001" stroke="#FDD304" stroke-width="2" stroke-linecap="round"/>
<path d="M64.3594 8.98438L60.0022 16.0068" stroke="#FDD304" stroke-width="2" stroke-linecap="round"/>
<path d="M80.0742 30.4883L72.0005 33.0088" stroke="#FDD304" stroke-width="2" stroke-linecap="round"/>
</svg>
