<svg width="82" height="83" viewBox="0 0 82 83" fill="none" xmlns="http://www.w3.org/2000/svg">
<path d="M0 81.1555H10.9333V75.0075V71.9335H26.1825V65.0536H42.007V58.1737H58.6947V51.001H74.2316V44.1211H82" stroke="#FDD304" stroke-width="3"/>
<path d="M20.0049 15.1641C21.6495 15.1641 22.9208 16.4406 22.9209 17.9395C22.9209 19.4384 21.6496 20.7148 20.0049 20.7148C18.3603 20.7147 17.0898 19.4383 17.0898 17.9395C17.0899 16.4407 18.3604 15.1643 20.0049 15.1641Z" stroke="#FDD304" stroke-width="2"/>
<path d="M48.4873 1.375C50.132 1.375 51.4032 2.65153 51.4033 4.15039C51.4033 5.64933 50.132 6.92578 48.4873 6.92578C46.8428 6.92559 45.5723 5.64922 45.5723 4.15039C45.5724 2.65164 46.8428 1.37519 48.4873 1.375Z" stroke="#FDD304" stroke-width="2"/>
<path d="M46.5 32.5L46.5674 38.083V48.1832V53.8814C46.5674 54.367 46.702 54.843 46.9561 55.2568L47.0485 55.4072C47.2051 55.6621 47.4199 55.8763 47.6753 56.0323V56.0323C47.8935 56.1655 48.1365 56.2532 48.3896 56.2899L48.6491 56.3277C48.8903 56.3627 49.1354 56.3598 49.3757 56.3191V56.3191C49.7055 56.2631 50.0195 56.137 50.2964 55.9492L50.673 55.6937C50.7171 55.6638 50.7582 55.6295 50.7956 55.5915V55.5915C50.944 55.4405 51.0271 55.2373 51.0271 55.0256V54.7704V49.7934V34.4078C51.0271 34.324 51.06 34.2435 51.1188 34.1838V34.1838C51.231 34.0695 51.4105 34.056 51.5386 34.1521L54.7931 36.5921C56.0448 37.5306 56.7815 39.0037 56.7815 40.5682V46.0449C56.7815 46.571 56.9881 47.0761 57.3569 47.4513V47.4513L57.843 47.946C57.9024 48.0064 57.9677 48.0608 58.0378 48.1084V48.1084C58.2503 48.2526 58.5012 48.3296 58.758 48.3296H59.2271H59.7543C59.8806 48.3296 60.0051 48.2998 60.1176 48.2425V48.2425C60.1948 48.2033 60.2651 48.1518 60.3257 48.09L60.6222 47.7884C60.7463 47.6621 60.8494 47.5167 60.9275 47.3578L61.0327 47.1436C61.0752 47.0571 61.0973 46.9621 61.0973 46.8658V46.8658L61.1796 40.7492C61.2181 37.8913 59.8379 35.2001 57.4946 33.5638L55.0847 31.8809C54.3428 31.3629 53.8929 30.5219 53.8735 29.6173L53.7896 25.6867C53.7771 25.1038 54.4193 24.7422 54.9113 25.055V25.055L56.903 26.4483C57.1087 26.5922 57.3337 26.7062 57.5715 26.7868L58.0347 26.9439C58.3398 27.0474 58.6721 27.0375 58.9705 26.916V26.916C59.1398 26.8472 59.2932 26.7444 59.4213 26.6141L59.7088 26.3214C59.7709 26.2583 59.8224 26.1856 59.8615 26.1061V26.1061C59.9174 25.9924 59.9464 25.8675 59.9464 25.7408V24.9164C59.9464 24.814 59.9341 24.712 59.9096 24.6127V24.6127C59.8403 24.3306 59.6766 24.0807 59.4457 23.9045L58.6517 23.2985L54.0482 20.2245V20.2245C53.8716 20.1347 53.7604 19.9533 53.7604 19.7553V16.4359C53.7604 15.565 53.5062 14.7131 53.029 13.9847V13.9847C52.7514 13.561 52.4038 13.1876 52.0012 12.8803L51.919 12.8176C51.6131 12.5841 51.2817 12.3862 50.931 12.2277L50.8453 12.1889C50.3941 11.9848 49.9127 11.8552 49.4199 11.8051L49.3079 11.7937C48.9217 11.7544 48.5319 11.7737 48.1515 11.8511L48.0779 11.8661C47.5572 11.9721 47.0673 12.1946 46.6449 12.5169V12.5169C46.3083 12.7738 46.0208 13.0893 45.7963 13.4484L45.2965 14.2475C45.1849 14.4259 45.0878 14.6131 45.0061 14.8071V14.8071C44.8023 15.291 44.6973 15.8108 44.6973 16.3359V27.5435V30.032V30.032C44.6973 30.4099 44.8319 30.7755 45.0769 31.0633L46.5674 32.8132" stroke="#058FA2" stroke-width="2"/>
<path d="M15.6884 51.5441V45.9816L15.5497 38.2183C15.5468 38.0586 15.4166 37.9307 15.2568 37.9307C15.0753 37.9307 14.9039 38.0145 14.7924 38.1578L12.2358 41.4438L11.4333 42.4936C11.2981 42.6705 11.1313 42.8207 10.9413 42.9367C10.6589 43.1092 10.3344 43.2004 10.0035 43.2004H9.79016H9.59586C9.26825 43.2004 8.96269 43.0353 8.78314 42.7612L8.62026 42.4298C8.44494 42.073 8.37738 41.6728 8.42585 41.2782C8.47136 40.9078 8.61738 40.5568 8.84808 40.2634L9.07086 39.98L10.7972 37.6379L13.0989 35.003L14.4202 33.2553C14.4981 33.1522 14.5882 33.0589 14.6884 32.9773C15.0495 32.6833 15.2659 32.2475 15.2817 31.782L15.3717 29.1259C15.3907 28.5646 15.5552 28.0179 15.8491 27.5394C16.0286 27.2473 16.2532 26.9855 16.5147 26.7638L16.6619 26.639C16.8756 26.4578 17.1059 26.2972 17.3498 26.1593L17.4042 26.1286C17.9811 25.8024 18.616 25.5917 19.2735 25.508L19.4288 25.4883H19.8989C20.5355 25.4883 21.1631 25.6388 21.7305 25.9274L22.4313 26.3349C22.6345 26.4531 22.821 26.5979 22.9858 26.7656C23.2022 26.9858 23.3782 27.2424 23.5058 27.5235L23.7018 27.9558C24.0144 28.6449 24.1761 29.3929 24.1761 30.1496V34.4175V42.9895C24.1761 43.4151 24.0621 43.8329 23.846 44.1994C23.7785 44.3139 23.7015 44.4225 23.6159 44.5241L22.8814 45.3961L20.0235 48.9649C19.8248 49.2131 19.7165 49.5216 19.7165 49.8396C19.7165 50.2688 19.9135 50.6743 20.2509 50.9396L22.8814 53.0079L27.341 56.6674L29.173 58.1321C29.294 58.2288 29.4034 58.3391 29.4991 58.4608L29.6375 58.6369C29.8273 58.8783 29.9305 59.1765 29.9305 59.4836C29.9305 59.5578 29.9245 59.6318 29.9125 59.705L29.8303 60.207C29.8013 60.3841 29.7535 60.5575 29.6879 60.7245L29.5972 60.9553C29.5323 61.1202 29.4349 61.2704 29.3107 61.3968C29.063 61.6488 28.7244 61.7908 28.3711 61.7908H27.8625C27.5227 61.7908 27.1907 61.6888 26.9095 61.498L25.1831 60.1806L23.4568 58.7168L22.0182 57.5457C21.0754 56.8262 19.7165 57.4985 19.7165 58.6846V68.1392C19.7165 68.3926 19.6584 68.6425 19.5467 68.8699C19.4686 69.0288 19.3655 69.1742 19.2414 69.3005L18.9972 69.549C18.7172 69.8339 18.3516 70.0192 17.9563 70.0767L17.8692 70.0893C17.6634 70.1193 17.4542 70.1168 17.2491 70.082L17.1994 70.0736C16.8698 70.0177 16.5621 69.8718 16.3102 69.6521C15.9151 69.3076 15.6884 68.809 15.6884 68.2848V68.2315V59.7414V51.5441Z" stroke="#058FA2" stroke-width="2"/>
</svg>
