<svg width="99" height="97" viewBox="0 0 99 97" fill="none" xmlns="http://www.w3.org/2000/svg">
<path d="M0 94.5306H13.2V87.108V83.3967H31.6105V75.0905H50.7158V66.7843H70.8632V58.1246H89.6211V49.8184H99" stroke="#FDD304" stroke-width="3"/>
<path d="M24.1533 17.4004C26.3756 17.4006 28.1299 19.1313 28.1299 21.209C28.1297 23.2865 26.3755 25.0164 24.1533 25.0166C21.931 25.0166 20.1759 23.2867 20.1758 21.209C20.1758 19.1312 21.9309 17.4004 24.1533 17.4004Z" stroke="#FDD304" stroke-width="1.5"/>
<path d="M58.54 0.75C60.7623 0.750205 62.5166 2.48092 62.5166 4.55859C62.5164 6.63615 60.7622 8.36601 58.54 8.36621C56.3177 8.36621 54.5627 6.63627 54.5625 4.55859C54.5625 2.48079 56.3176 0.75 58.54 0.75Z" stroke="#FDD304" stroke-width="1.5"/>
<path d="M56.2227 37.987V44.5259V56.7202V63.5997C56.2227 64.1859 56.3852 64.7606 56.692 65.2602L56.8035 65.4418C56.9926 65.7496 57.2519 66.0082 57.5602 66.1964V66.1964C57.8237 66.3573 58.1171 66.4631 58.4226 66.5075L58.736 66.5531C59.0271 66.5954 59.3231 66.5919 59.6131 66.5427V66.5427C60.0114 66.4752 60.3905 66.3229 60.7247 66.0961L61.1795 65.7877C61.2327 65.7515 61.2823 65.7102 61.3275 65.6643V65.6643C61.5066 65.482 61.607 65.2367 61.607 64.9811V64.673V58.6642V40.0889C61.607 39.9877 61.6467 39.8905 61.7176 39.8184V39.8184C61.8532 39.6805 62.0698 39.6641 62.2245 39.7801L66.1537 42.726C67.6649 43.8591 68.5543 45.6376 68.5543 47.5264V54.1385C68.5543 54.7737 68.8038 55.3835 69.2491 55.8365V55.8365L69.836 56.4337C69.9077 56.5067 69.9865 56.5724 70.0711 56.6298V56.6298C70.3277 56.8039 70.6306 56.8969 70.9406 56.8969H71.507H72.1435C72.2959 56.8969 72.4462 56.8609 72.5821 56.7917V56.7917C72.6753 56.7443 72.7601 56.6822 72.8334 56.6076L73.1913 56.2435C73.3411 56.091 73.4656 55.9155 73.5598 55.7236L73.6869 55.465C73.7382 55.3606 73.7649 55.2459 73.7649 55.1296V55.1296L73.8643 47.7449C73.9107 44.2946 72.2444 41.0454 69.4153 39.0699L66.5057 37.0381C65.6101 36.4127 65.0668 35.3973 65.0435 34.3052L64.9421 29.5598C64.9271 28.856 65.7024 28.4194 66.2964 28.7971V28.7971L68.701 30.4792C68.9493 30.6529 69.2211 30.7905 69.5081 30.8879L70.0673 31.0776C70.4358 31.2025 70.8369 31.1906 71.1972 31.0439V31.0439C71.4016 30.9608 71.5867 30.8367 71.7414 30.6793L72.0886 30.326C72.1635 30.2498 72.2257 30.162 72.2729 30.0661V30.0661C72.3403 29.9289 72.3754 29.778 72.3754 29.625V28.6297C72.3754 28.5061 72.3605 28.383 72.331 28.263V28.263C72.2473 27.9224 72.0497 27.6207 71.7709 27.408L70.8122 26.6764L65.2543 22.9651V22.9651C65.0412 22.8566 64.907 22.6378 64.907 22.3986V18.391C64.907 17.3396 64.6 16.3111 64.0238 15.4317V15.4317C63.6887 14.9202 63.2691 14.4693 62.783 14.0983L62.6838 14.0226C62.3145 13.7408 61.9143 13.5018 61.491 13.3104L61.3875 13.2636C60.8427 13.0172 60.2615 12.8607 59.6666 12.8002L59.5313 12.7864C59.0651 12.739 58.5944 12.7624 58.1352 12.8558L58.0463 12.8739C57.4177 13.0018 56.8262 13.2705 56.3163 13.6596V13.6596C55.9099 13.9698 55.5628 14.3507 55.2917 14.7842L54.6884 15.749C54.5536 15.9644 54.4363 16.1904 54.3377 16.4246V16.4246C54.0916 17.0088 53.9648 17.6364 53.9648 18.2703V31.8015V34.8059V34.8059C53.9648 35.2622 54.1273 35.7036 54.4232 36.051L56.2227 38.1637" stroke="#058FA2" stroke-width="1.5"/>
<path d="M18.9399 60.7799V54.0642L18.7724 44.6915C18.769 44.4987 18.6117 44.3442 18.4189 44.3442C18.1997 44.3442 17.9928 44.4453 17.8582 44.6183L14.7715 48.5856L13.8027 49.8531C13.6394 50.0667 13.438 50.248 13.2086 50.3881C12.8677 50.5963 12.4759 50.7064 12.0765 50.7064H11.8189H11.5843C11.1888 50.7064 10.8199 50.5071 10.6031 50.1762L10.4064 49.776C10.1948 49.3452 10.1132 48.8621 10.1717 48.3857C10.2267 47.9385 10.403 47.5147 10.6815 47.1605L10.9505 46.8184L13.0347 43.9907L15.8136 40.8096L17.4088 38.6995C17.5029 38.575 17.6116 38.4624 17.7326 38.3639C18.1686 38.0089 18.4298 37.4827 18.4488 36.9208L18.5575 33.714C18.5805 33.0364 18.7791 32.3764 19.134 31.7986C19.3506 31.446 19.6218 31.1299 19.9375 30.8622L20.1152 30.7115C20.3732 30.4928 20.6513 30.2988 20.9458 30.1324L21.0114 30.0953C21.708 29.7015 22.4745 29.4471 23.2683 29.3461L23.4557 29.3223H24.0233C24.7919 29.3223 25.5496 29.5039 26.2347 29.8525L27.0808 30.3444C27.3261 30.4871 27.5513 30.6619 27.7502 30.8644C28.0115 31.1302 28.224 31.44 28.378 31.7795L28.6147 32.3013C28.9921 33.1333 29.1873 34.0364 29.1873 34.9499V40.1027V50.4518C29.1873 50.9656 29.0497 51.47 28.7887 51.9125C28.7072 52.0507 28.6143 52.1819 28.5109 52.3046L27.6241 53.3573L24.1738 57.666C23.9338 57.9657 23.8031 58.3381 23.8031 58.722C23.8031 59.2403 24.0409 59.7298 24.4483 60.0501L27.6241 62.5472L33.0083 66.9654L35.2201 68.7337C35.3662 68.8504 35.4983 68.9836 35.6138 69.1306L35.7809 69.3431C36.0101 69.6346 36.1347 69.9946 36.1347 70.3654C36.1347 70.4549 36.1274 70.5444 36.1129 70.6327L36.0136 71.2388C35.9786 71.4525 35.921 71.662 35.8418 71.8636L35.7322 72.1422C35.654 72.3413 35.5363 72.5226 35.3864 72.6752C35.0873 72.9795 34.6786 73.1509 34.2519 73.1509H33.638C33.2277 73.1509 32.8268 73.0277 32.4873 72.7974L30.4031 71.2069L28.3189 69.4396L26.582 68.0258C25.4437 67.157 23.8031 67.9688 23.8031 69.4007V80.8155C23.8031 81.1213 23.7329 81.4231 23.5981 81.6976C23.5038 81.8895 23.3793 82.065 23.2295 82.2175L22.9347 82.5175C22.5966 82.8614 22.1552 83.0852 21.678 83.1546L21.5728 83.1699C21.3243 83.206 21.0718 83.203 20.8242 83.161L20.7642 83.1508C20.3663 83.0834 19.9948 82.9073 19.6906 82.642C19.2137 82.226 18.9399 81.6241 18.9399 80.9912V80.9269V70.6767V60.7799Z" stroke="#058FA2" stroke-width="1.5"/>
</svg>
