<svg width="102" height="142" viewBox="0 0 102 142" fill="none" xmlns="http://www.w3.org/2000/svg">
<path fill-rule="evenodd" clip-rule="evenodd" d="M35.9128 0.235408C33.0527 0.94171 30.8717 2.71729 27.1942 7.33377C25.2298 9.79979 23.8364 11.1485 22.46 11.9167C21.8735 12.2442 19.985 13.0669 18.2635 13.7453C14.7776 15.1188 13.7856 15.5901 12.4226 16.5205C9.90954 18.2356 8.46829 20.5035 7.78974 23.8102C7.64717 24.5048 7.42012 26.8095 7.2851 28.9315C6.92368 34.6155 6.75782 35.1348 3.87187 39.6185C0.951469 44.1559 0.182364 45.9913 0.0306102 48.7858C-0.0425597 50.1331 0.00501738 50.6984 0.28769 51.8408C0.703905 53.5231 1.8743 55.9474 3.35591 58.1967C4.99764 60.6889 5.99199 62.3938 6.37113 63.3664C6.82426 64.5285 7.15828 66.7769 7.28395 69.5088C7.55957 75.4976 8.3103 78.0653 10.4867 80.4623C11.9755 82.1022 13.7634 83.1077 18.5055 84.9725C23.2905 86.8539 24.0878 87.42 26.9012 90.9322C29.9155 94.6954 31.023 95.8144 33.278 97.3753C33.3179 97.4027 33.2348 97.5416 33.0936 97.6837C32.8605 97.9182 32.7661 97.8879 32.0741 97.3563C31.6546 97.0339 31.0363 96.6932 30.7 96.5993C30.3318 96.4964 27.7686 96.428 24.2528 96.4275C17.8403 96.4264 17.5026 96.4691 16.3501 97.4253C16.0225 97.6971 15.564 98.3113 15.3313 98.7902L14.9082 99.6606L14.912 119.202C14.9158 138.527 14.9195 138.751 15.2514 139.507C15.6962 140.519 16.2952 141.137 17.2922 141.612C18.1093 142 18.1356 142.002 24.2646 142C29.8664 141.998 30.4755 141.971 31.073 141.697C32.3921 141.091 33.1038 140.251 33.5392 138.785C33.7031 138.233 33.7995 138.131 34.1268 138.165C34.3421 138.187 41.443 138.949 49.9066 139.858L65.2951 141.512L73.1533 141.519C78.5889 141.525 81.2279 141.468 81.7134 141.337C83.741 140.787 85.6313 139.266 86.5254 137.464C87.0098 136.487 87.0169 136.435 87.0169 133.831C87.0169 130.862 86.8597 130.195 85.8445 128.856L85.2815 128.114L85.7239 127.587C85.9672 127.297 86.3536 126.651 86.5828 126.152C86.9478 125.356 87.0075 124.968 87.0661 123.015C87.1493 120.247 86.9701 119.376 86.0274 117.961L85.3108 116.885L85.8629 116.157C86.8456 114.861 87.0989 113.885 87.0989 111.395C87.0989 108.873 86.9127 108.11 85.9311 106.61L85.3008 105.647L85.7823 105.041C86.9163 103.615 87.356 101.371 87.0645 98.4994C86.7836 95.7344 84.6133 93.299 81.7646 92.552C81.0468 92.3639 79.9332 92.298 77.4671 92.298C75.6362 92.298 74.1383 92.2536 74.1383 92.1995C74.1383 91.9747 76.9847 88.6394 77.7842 87.9273C78.791 87.0308 81.0781 85.8682 83.9818 84.7769C89.2028 82.8147 91.5989 81.0966 93.068 78.2612C94.1027 76.2643 94.3987 74.735 94.7297 69.6739C94.8633 67.6303 95.0808 65.4518 95.2129 64.8329C95.5397 63.3019 96.2975 61.7998 98.2685 58.7747C101.249 54.2014 102.145 51.7905 101.982 48.7858C101.83 45.9913 101.061 44.1559 98.1404 39.6185C95.269 35.1576 95.092 34.6087 94.7268 29.0379C94.2943 22.4394 93.612 20.2553 91.2468 17.8977C89.5665 16.2227 87.8401 15.3013 82.5873 13.2753C78.8013 11.8152 77.8323 11.0618 74.6248 7.08606C71.7108 3.47379 70.1875 2.05277 68.0836 0.98382C66.4911 0.174471 65.1852 -0.0633292 62.9003 0.0397179C60.9021 0.129884 60.2114 0.268271 55.2716 1.56792C53.1369 2.12972 52.6908 2.19297 50.9241 2.18521C49.1421 2.17745 48.7065 2.10991 46.3305 1.47263C41.9652 0.301795 40.2808 -0.0131272 38.4557 0.000414192C37.5533 0.00701977 36.409 0.112874 35.9128 0.235408ZM37.2835 4.60682C35.3993 5.00612 34.0062 6.18241 30.9279 9.97369C26.9872 14.8268 25.8955 15.631 20.1674 17.901C16.3429 19.4165 15.0679 20.089 13.9664 21.171C12.677 22.4374 12.2113 23.8621 11.9578 27.3156C11.5567 32.7766 11.4458 33.8304 11.1319 35.1598C10.7051 36.9681 9.72776 38.9638 7.85684 41.8479C5.36349 45.6917 4.84244 46.7603 4.57798 48.5717C4.28513 50.5774 4.97221 52.2996 7.84847 56.7709C11.0084 61.683 11.4336 63.0195 11.7962 69.1785C12.0221 73.0178 12.2754 74.6219 12.858 75.9035C13.7062 77.7699 15.4683 78.9416 19.9991 80.6519C22.5023 81.5967 24.805 82.6754 25.8206 83.3787C27.1504 84.2997 28.6873 85.8705 30.7505 88.4173C33.0232 91.2228 34.69 92.9104 35.7011 93.4296C36.0811 93.6248 36.4546 93.7843 36.5316 93.7843C36.7767 93.7843 39.0369 90.2052 40.0034 88.287C40.8422 86.622 42.3079 82.6415 42.1342 82.5002C42.0961 82.4693 41.3267 82.2014 40.4244 81.905C29.9296 78.4572 21.6472 69.9552 18.4414 59.3392C14.837 47.4027 17.8591 34.614 26.3913 25.6974C29.4758 22.4741 32.2516 20.4082 35.9948 18.5507C45.4723 13.8474 56.4647 13.8485 66.0174 18.5538C69.7655 20.3999 72.4979 22.4323 75.6148 25.6925C83.3366 33.7693 86.6018 45.0795 84.3885 56.0833C81.9283 68.3137 73.1403 78.1771 61.3172 81.9782L59.4057 82.5926L59.294 84.2665C59.1982 85.7019 58.7936 89.2033 58.4471 91.5962L58.3456 92.298H63.0885H67.8316L68.8269 91.2659C69.3744 90.6983 70.5714 89.296 71.4866 88.1497C74.9374 83.8284 76.3165 82.8536 82.2111 80.569C89.0937 77.9013 89.755 76.9604 90.2109 69.1861C90.5732 63.0082 91.0601 61.4919 94.2448 56.6279C97.5307 51.6092 98.0785 49.6009 96.948 46.7195C96.4994 45.5764 96.1226 44.9208 94.1472 41.8479C91.0028 36.9567 90.571 35.6058 90.2155 29.545C89.8946 24.0736 89.4527 22.4728 87.8582 21.0058C86.7303 19.9681 85.5433 19.3447 82.3852 18.1308C76.2081 15.7564 75.06 14.9267 71.0547 9.94214C67.9594 6.0901 66.6025 4.97854 64.523 4.59162C63.3313 4.36984 61.797 4.59839 58.2247 5.52962C54.1943 6.58007 53.1571 6.75578 50.9831 6.75578C48.8697 6.75578 47.7354 6.55596 43.1313 5.3724C40.0958 4.59195 38.4005 4.37017 37.2835 4.60682ZM46.6911 19.885C43.3494 20.4311 40.8857 21.2327 37.7994 22.7779C28.8404 27.2638 22.7614 36.0547 21.6431 46.1416C20.2806 58.4319 26.9926 70.6052 38.1275 76.0392C40.0042 76.9549 42.7702 77.9709 42.9994 77.8284C43.0719 77.7833 43.1321 77.472 43.1333 77.1368C43.1421 74.3434 45.3394 71.6185 48.3694 70.6431C49.7079 70.2123 52.0064 70.1647 53.2409 70.5424C54.9399 71.0623 56.4184 72.0675 57.3371 73.3272C58.0078 74.247 58.8282 76.1378 58.9852 77.1255C59.1106 77.9146 59.2494 77.926 60.9615 77.2874C68.275 74.5599 73.9928 69.4522 77.4231 62.5815C78.7355 59.953 79.6843 56.997 80.2352 53.8205C80.5689 51.8965 80.5184 46.5333 80.1466 44.4076C79.0473 38.1237 76.0524 32.4161 71.56 28.0434C67.333 23.9293 62.7633 21.478 56.9122 20.1856C55.3084 19.8314 54.5089 19.7599 51.5803 19.709C49.1219 19.6662 47.7215 19.7166 46.6911 19.885ZM49.883 30.327C49.3936 30.58 49.0459 31.1946 46.6838 35.9817C45.2262 38.9357 44.0336 41.3647 44.0336 41.3796C44.0336 41.3945 41.4133 41.7878 38.2107 42.2538C34.5763 42.7826 32.2457 43.1948 32.0097 43.3505C31.1372 43.9259 30.7202 45.3938 31.1784 46.2763C31.2814 46.4746 33.2371 48.4948 35.5244 50.7655L39.6831 54.8939L38.6993 60.5842C38.0734 64.2034 37.7523 66.4732 37.8171 66.8208C37.9576 67.5744 38.6704 68.2871 39.5114 68.515C40.1793 68.6961 40.2856 68.6722 41.5506 68.0569C42.2846 67.6999 44.7135 66.4384 46.948 65.2536L51.0105 63.0997L55.9712 65.7291C58.6995 67.1752 61.1531 68.4185 61.4238 68.492C62.5241 68.7908 63.7395 68.158 64.1142 67.0915C64.3289 66.4803 64.2791 66.0663 63.3395 60.6661L62.3351 54.8939L66.4957 50.7655C68.7841 48.4948 70.7385 46.4746 70.8388 46.2763C71.2899 45.3844 70.8722 43.9241 70.0019 43.35C69.7767 43.2014 67.9968 42.8616 65.6056 42.5105C61.4013 41.8932 58.2079 41.4351 58.11 41.4351C58.0782 41.4351 56.9063 39.1129 55.5056 36.2745C54.1048 33.4362 52.7478 30.8992 52.4899 30.6369C51.8968 30.0337 50.7203 29.8938 49.883 30.327ZM49.0374 41.3936C47.5235 44.4079 47.0535 45.205 46.6586 45.428C46.3516 45.6014 44.7778 45.9005 42.4751 46.2228C40.4449 46.507 38.6455 46.7942 38.4763 46.8609C38.2194 46.9621 38.6474 47.4471 41.0724 49.8029C43.3018 51.9685 44.0286 52.7772 44.2025 53.2853C44.4108 53.8942 44.3767 54.2502 43.7772 57.7235C43.4186 59.8002 43.1451 61.626 43.1694 61.7806C43.2047 62.0065 43.9067 61.6894 46.7406 60.167C51.2507 57.7441 50.6855 57.7403 55.3537 60.2255C58.1216 61.6992 58.8076 62.0047 58.8428 61.7796C58.8671 61.6255 58.5936 59.8002 58.235 57.7235C57.6355 54.2502 57.6014 53.8942 57.8098 53.2853C57.9837 52.7772 58.7106 51.9685 60.9403 49.8024C63.6104 47.2087 63.813 46.9717 63.4544 46.8624C63.2399 46.797 61.4422 46.5085 59.4595 46.2213C57.4769 45.9341 55.6463 45.5906 55.3919 45.4582C54.8101 45.1553 54.7189 45.0011 52.7356 40.9631C51.8371 39.1337 51.0619 37.637 51.013 37.637C50.9641 37.6372 50.0751 39.3277 49.0374 41.3936ZM49.6725 75.042C48.6409 75.3749 47.7786 76.3424 47.6611 77.2988C47.1724 81.2775 46.8527 82.857 45.9968 85.5219C43.9723 91.8257 40.0677 97.7136 34.879 102.287L33.6159 103.4V118.414C33.6159 130.28 33.6589 133.442 33.821 133.495C33.9339 133.532 41.3741 134.35 50.3551 135.313L66.684 137.065L73.6514 137.017L80.6186 136.968L81.3328 136.557C82.3102 135.993 82.6693 135.239 82.6693 133.749C82.6693 132.314 82.3978 131.622 81.5925 131.004L80.9728 130.528L73.1595 130.445C65.9869 130.369 65.309 130.338 64.8946 130.065C63.4373 129.103 63.487 127.073 64.9906 126.151C65.5034 125.836 65.8307 125.823 72.9961 125.822C80.4198 125.821 80.4716 125.819 81.1895 125.45C82.3867 124.834 82.5873 124.413 82.5873 122.519C82.5873 120.624 82.3867 120.203 81.1895 119.587C80.4716 119.218 80.4198 119.216 72.9961 119.215C65.8307 119.215 65.5034 119.201 64.9906 118.886C64.3278 118.48 63.804 117.641 63.8035 116.986C63.803 116.325 64.2702 115.437 64.8398 115.016C65.2887 114.685 65.5384 114.672 73.1377 114.592L80.9728 114.509L81.5925 114.033C82.4662 113.362 82.7125 112.664 82.6439 111.051C82.5783 109.508 82.2502 108.885 81.2371 108.378C80.6668 108.093 80.0182 108.062 72.9079 107.986C66.4328 107.917 65.1358 107.864 64.8144 107.656C64.3422 107.351 63.8027 106.332 63.8027 105.747C63.8027 105.077 64.296 104.183 64.8559 103.839C65.3292 103.548 65.812 103.528 72.4977 103.521C76.4228 103.517 79.9473 103.452 80.3297 103.378C81.2904 103.191 82.125 102.574 82.421 101.832C82.5639 101.473 82.6693 100.695 82.6693 99.9982C82.6693 99.0121 82.6001 98.6838 82.2963 98.2302C81.8005 97.4897 80.9348 96.9213 80.3072 96.9246C80.0273 96.9259 74.6674 96.9068 68.3963 96.8818C57.0111 96.8367 56.9929 96.8361 56.0811 96.466C54.4592 95.8076 53.7951 94.7487 53.7951 92.8214C53.7951 92.195 53.8697 91.2861 53.9611 90.8014C54.275 89.1356 54.6056 86.2445 54.7768 83.6669C55.1045 78.7394 54.4441 76.1418 52.6229 75.1937C51.9063 74.8207 50.5709 74.752 49.6725 75.042ZM19.506 101.023C19.3992 101.059 19.3429 107.375 19.3429 119.312V137.546H24.2646H29.1864V119.303V101.06L24.4277 101.014C21.8105 100.989 19.5957 100.993 19.506 101.023Z" fill="#058FA2"/>
<path fill-rule="evenodd" clip-rule="evenodd" d="M49.883 30.327C49.3936 30.58 49.0459 31.1946 46.6838 35.9817C45.2262 38.9357 44.0336 41.3647 44.0336 41.3796C44.0336 41.3945 41.4133 41.7878 38.2107 42.2538C34.5763 42.7826 32.2457 43.1948 32.0097 43.3505C31.1372 43.9259 30.7202 45.3938 31.1784 46.2763C31.2814 46.4746 33.2371 48.4948 35.5244 50.7655L39.6831 54.894L38.6993 60.5842C38.0734 64.2034 37.7523 66.4732 37.8171 66.8208C37.9576 67.5744 38.6704 68.2871 39.5114 68.515C40.1793 68.6961 40.2856 68.6722 41.5506 68.0569C42.2846 67.6999 44.7135 66.4384 46.948 65.2536L51.0105 63.0997L55.9712 65.7291C58.6995 67.1752 61.1531 68.4185 61.4238 68.492C62.5241 68.7908 63.7395 68.158 64.1142 67.0915C64.3289 66.4803 64.2791 66.0663 63.3395 60.6661L62.3351 54.894L66.4957 50.7655C68.7841 48.4948 70.7385 46.4746 70.8388 46.2763C71.2899 45.3844 70.8722 43.9241 70.0019 43.35C69.7767 43.2014 67.9968 42.8616 65.6056 42.5105C61.4013 41.8932 58.2079 41.4351 58.11 41.4351C58.0782 41.4351 56.9063 39.1129 55.5056 36.2745C54.1048 33.4362 52.7478 30.8992 52.4899 30.6369C51.8968 30.0337 50.7203 29.8938 49.883 30.327ZM49.0374 41.3936C47.5235 44.4079 47.0535 45.205 46.6586 45.428C46.3516 45.6014 44.7778 45.9005 42.4751 46.2228C40.4449 46.507 38.6455 46.7942 38.4763 46.8609C38.2194 46.9621 38.6474 47.4471 41.0724 49.8029C43.3018 51.9685 44.0286 52.7772 44.2025 53.2853C44.4108 53.8942 44.3767 54.2502 43.7772 57.7234C43.4186 59.8002 43.1451 61.626 43.1694 61.7806C43.2047 62.0065 43.9067 61.6894 46.7406 60.167C51.2507 57.7441 50.6855 57.7403 55.3537 60.2255C58.1216 61.6992 58.8076 62.0047 58.8428 61.7796C58.8671 61.6255 58.5936 59.8002 58.235 57.7234C57.6355 54.2502 57.6014 53.8942 57.8098 53.2853C57.9837 52.7772 58.7106 51.9685 60.9403 49.8024C63.6104 47.2087 63.813 46.9717 63.4544 46.8624C63.2399 46.797 61.4422 46.5085 59.4595 46.2213C57.4769 45.9341 55.6463 45.5906 55.3919 45.4582C54.8101 45.1553 54.7189 45.0011 52.7356 40.9631C51.8371 39.1337 51.0619 37.637 51.013 37.637C50.9641 37.6372 50.0751 39.3277 49.0374 41.3936Z" fill="#FDD304"/>
</svg>
