<svg width="60" height="60" viewBox="0 0 60 60" fill="none" xmlns="http://www.w3.org/2000/svg">
<path d="M26.5368 50.683C26.1565 50.683 25.431 50.0631 24.638 48.3161C24.3652 47.7149 23.6566 47.4489 23.0557 47.7217C22.4546 47.9946 22.1884 48.703 22.4613 49.3041C22.5601 49.522 22.661 49.7299 22.7634 49.9291C19.8175 48.733 17.1466 46.1528 15.1009 42.4898C15.5524 42.6325 16.0094 42.7678 16.4721 42.8932C16.5768 42.9217 16.6821 42.9352 16.7856 42.9352C17.312 42.9352 17.7942 42.5847 17.9386 42.0525C18.1113 41.4153 17.7349 40.7589 17.0978 40.586C15.8997 40.2612 14.7398 39.8733 13.6426 39.4313C12.814 37.378 12.1953 35.1692 11.7954 32.8412C12.6717 32.9927 13.5865 33.1315 14.5323 33.2553C14.5849 33.2623 14.6373 33.2655 14.689 33.2655C15.2801 33.2655 15.7939 32.8272 15.8727 32.2253C15.9584 31.5707 15.4971 30.9706 14.8426 30.885C13.6556 30.7296 12.5214 30.5505 11.4568 30.3513C11.3289 29.0907 11.2632 27.8116 11.2632 26.5368C11.2632 25.2621 11.3289 23.9829 11.4568 22.7223C13.1585 22.4034 15.0163 22.1399 16.9955 21.9382C17.6522 21.8713 18.1304 21.2847 18.0635 20.628C17.9965 19.9713 17.4106 19.4941 16.7532 19.56C15.0048 19.7381 13.345 19.9638 11.7954 20.2324C12.1954 17.9045 12.814 15.6955 13.6426 13.6423C15.6957 12.8139 17.9045 12.1951 20.2325 11.7953C20.0936 12.5969 19.9658 13.4284 19.8508 14.2844C19.763 14.9387 20.2221 15.5403 20.8765 15.6281C20.9305 15.6354 20.9839 15.6389 21.037 15.6389C21.6264 15.6389 22.1395 15.2029 22.2201 14.6026C22.3672 13.5066 22.5357 12.4527 22.7222 11.4571C25.2418 11.202 27.8319 11.202 30.3515 11.4571C30.5727 12.6385 30.7686 13.8997 30.9344 15.2214C31.0103 15.8259 31.5251 16.268 32.1189 16.268C32.1685 16.268 32.2187 16.2648 32.2692 16.2585C32.9242 16.1763 33.3886 15.5787 33.3064 14.9238C33.1705 13.8404 33.0148 12.7942 32.8419 11.7957C35.1694 12.1955 37.3779 12.8142 39.4307 13.6423C39.9627 14.9621 40.414 16.3631 40.7731 17.8154C40.9077 18.36 41.3957 18.7242 41.9325 18.7242C42.0274 18.7242 42.124 18.7127 42.2203 18.6891C42.8611 18.5306 43.2522 17.8827 43.0938 17.2418C42.9143 16.5158 42.712 15.8018 42.4905 15.1016C46.1542 17.1478 48.7348 19.8194 49.9303 22.766C49.4546 22.5208 48.9254 22.2852 48.3427 22.0598C47.7269 21.8214 47.035 22.1275 46.7967 22.7431C46.5585 23.3588 46.8644 24.0509 47.48 24.2892C50.0085 25.2676 50.6833 26.1626 50.6833 26.5372C50.6833 27.1973 51.2184 27.7324 51.8785 27.7324C52.5387 27.7324 53.0738 27.1973 53.0738 26.5372C53.0738 19.449 50.3135 12.785 45.3013 7.77283C40.289 2.76019 33.625 0 26.5368 0C19.4486 0 12.7846 2.76019 7.77247 7.77247C2.76031 12.7845 0 19.4485 0 26.5367C0 33.625 2.76031 40.289 7.77247 45.3011C12.7846 50.3132 19.4486 53.0735 26.5368 53.0735C27.197 53.0735 27.7321 52.5384 27.7321 51.8783C27.7321 51.2181 27.197 50.683 26.5368 50.683ZM48.5597 16.638C46.6542 14.7568 44.1888 13.1162 41.2541 11.8196C39.9574 8.88489 38.3168 6.41945 36.4356 4.51398C41.8054 6.93711 46.1364 11.2681 48.5597 16.638ZM37.9709 10.5805C36.1796 10.0134 34.2996 9.58435 32.3493 9.29677C31.775 6.71145 31.0983 4.65992 30.3225 3.14972C33.2627 4.3476 35.9284 6.92432 37.9709 10.5805ZM26.5369 2.3905C27.0373 2.3905 28.5217 3.62842 29.8289 9.0086C27.6471 8.83051 25.4266 8.83051 23.245 9.0086C24.5521 3.62842 26.0366 2.3905 26.5369 2.3905ZM22.7511 3.14972C21.9754 4.66004 21.2986 6.71157 20.7243 9.29677C18.774 9.58423 16.894 10.0134 15.1027 10.5805C17.1454 6.92432 19.8109 4.3476 22.7511 3.14972ZM16.638 4.51398C14.7568 6.41945 13.1162 8.88489 11.8196 11.8196C8.88489 13.1162 6.41945 14.7568 4.51398 16.638C6.93723 11.2681 11.2682 6.93711 16.638 4.51398ZM10.5805 15.1028C10.0134 16.894 9.58435 18.774 9.29677 20.7243C6.71145 21.2986 4.65992 21.9753 3.14972 22.7511C4.3476 19.8109 6.92432 17.1454 10.5805 15.1028ZM2.3905 26.5367C2.3905 26.0364 3.6283 24.552 9.00824 23.2449C8.91872 24.3368 8.87258 25.4384 8.87258 26.5367C8.87258 27.635 8.91872 28.7366 9.00824 29.8285C3.6283 28.5214 2.3905 27.037 2.3905 26.5367ZM9.29677 32.3492C9.58423 34.2995 10.0134 36.1795 10.5805 37.9708C6.92432 35.9283 4.3476 33.2626 3.14972 30.3224C4.66004 31.0981 6.71157 31.7749 9.29677 32.3492ZM4.51398 36.4355C6.41945 38.3167 8.88489 39.9572 11.8196 41.2539C13.1162 44.1886 14.7568 46.6541 16.638 48.5595C11.2682 46.1363 6.93723 41.8053 4.51398 36.4355Z" fill="#058FA2"/>
<path d="M19.4421 17.9859C19.3907 18.5751 19.344 19.1792 19.3035 19.7815C19.2592 20.44 19.7572 21.0099 20.4159 21.0542C20.4433 21.0559 20.4705 21.0569 20.4973 21.0569C21.1209 21.0569 21.6462 20.5732 21.6886 19.9417C21.7281 19.3552 21.7734 18.767 21.8235 18.1937C21.8808 17.5361 21.3943 16.9565 20.7366 16.8991C20.0803 16.8419 19.4994 17.3283 19.4421 17.9859Z" fill="#058FA2"/>
<path d="M59.0571 54.2485L46.9698 42.1611C46.0804 41.2716 45.8183 39.9394 46.3021 38.7671C47.0623 36.925 47.4316 34.9718 47.3997 32.9619C47.3383 29.0906 45.7937 25.4725 43.0504 22.7738C40.3077 20.0757 36.6647 18.5898 32.7926 18.5898C28.9392 18.5898 25.3035 20.0769 22.5551 22.7769C19.8104 25.4734 18.2588 29.0751 18.1862 32.9184C18.1119 36.8594 19.6004 40.5885 22.3772 43.4191C25.1524 46.2481 28.8498 47.8067 32.7883 47.8078C32.7898 47.8078 32.7912 47.8078 32.7929 47.8078C34.9964 47.8078 37.1148 47.3289 39.0893 46.3844C40.2929 45.8087 41.7255 46.0458 42.6542 46.9746L54.4927 58.813C55.1023 59.4226 55.9128 59.7582 56.7749 59.7582C57.637 59.7582 58.4475 59.4225 59.0572 58.8129C60.3155 57.5546 60.3155 55.5069 59.0571 54.2485ZM57.3669 57.1227C57.2088 57.2808 56.9984 57.3679 56.7748 57.3679C56.5511 57.3679 56.3409 57.2808 56.1828 57.1228L44.3445 45.2844C43.2958 44.2358 41.8883 43.6833 40.4571 43.6833C39.6445 43.6833 38.824 43.8615 38.0576 44.2281C36.4078 45.0174 34.6366 45.4175 32.7929 45.4175C32.7917 45.4175 32.7903 45.4175 32.789 45.4175C29.4975 45.4165 26.4059 44.1124 24.0836 41.7452C21.7597 39.3764 20.5141 36.2577 20.5763 32.9636C20.7009 26.3561 26.1812 20.9805 32.7926 20.9805C39.5362 20.9805 44.9025 26.26 45.0096 33C45.0362 34.6826 44.7277 36.3161 44.0925 37.8554C43.2389 39.9233 43.7048 42.277 45.2795 43.8517L57.3668 55.9388C57.6932 56.2652 57.6932 56.7964 57.3669 57.1227Z" fill="#FDD304"/>
<path d="M32.7911 22.7363C27.0218 22.7363 22.3281 27.4301 22.3281 33.1993C22.3281 38.9685 27.0219 43.6623 32.7911 43.6623C38.5603 43.6623 43.2541 38.9687 43.2541 33.1993C43.2541 27.43 38.5605 22.7363 32.7911 22.7363ZM32.7911 41.2718C28.3399 41.2718 24.7186 37.6505 24.7186 33.1993C24.7186 28.7481 28.3399 25.1268 32.7911 25.1268C37.2422 25.1268 40.8636 28.7481 40.8636 33.1993C40.8636 37.6504 37.2422 41.2718 32.7911 41.2718Z" fill="#FDD304"/>
</svg>
