<svg width="60" height="60" viewBox="0 0 60 60" fill="none" xmlns="http://www.w3.org/2000/svg">
<path d="M52.0462 35.8262C52.6798 33.4977 52.3687 31.062 51.1703 28.9676C48.6964 24.6439 43.1662 23.1391 38.8426 25.613C34.519 28.0868 33.0141 33.617 35.488 37.9407C36.6864 40.0351 38.6286 41.5376 40.9571 42.1712C41.7461 42.3859 42.5473 42.4921 43.3436 42.4921C44.897 42.4921 46.4309 42.0876 47.8157 41.2953C49.9101 40.0969 51.4126 38.1546 52.0462 35.8262ZM49.4149 29.972C50.345 31.5976 50.5863 33.488 50.0947 35.2951C50.0178 35.5776 49.9227 35.8517 49.8136 36.1185C48.3184 35.2731 46.6564 34.5395 44.8522 33.9358C44.2548 33.7358 43.6461 33.5519 43.0282 33.3827C43.4828 31.1619 43.7539 28.8297 43.8288 26.4642C46.0791 26.6286 48.2124 27.8707 49.4149 29.972ZM39.8471 27.3684C40.4727 27.0104 41.1307 26.7603 41.7998 26.6112C41.7205 28.7644 41.4716 30.8839 41.0624 32.9038C39.5669 32.583 38.0214 32.3481 36.4352 32.2008C36.794 30.2361 37.9819 28.4357 39.8471 27.3684ZM37.2435 36.9363C36.7511 36.0755 36.4631 35.1531 36.3618 34.225C37.8167 34.3643 39.2336 34.5814 40.6047 34.8741C40.4282 35.5426 40.2335 36.1969 40.0206 36.834C39.7584 37.6179 39.47 38.3737 39.1601 39.0937C38.3879 38.5231 37.7346 37.7946 37.2435 36.9363ZM46.8113 39.5398C45.1858 40.4699 43.2953 40.7114 41.4881 40.2196C41.3055 40.17 41.1268 40.1116 40.9507 40.0484C41.3086 39.2299 41.6399 38.3687 41.9387 37.4753C42.1691 36.7856 42.3796 36.0774 42.5697 35.3537C43.1255 35.5073 43.6727 35.6738 44.2103 35.8538C45.8789 36.4122 47.4113 37.0865 48.7853 37.8605C48.2447 38.5294 47.5803 39.0998 46.8113 39.5398Z" fill="#FDD304"/>
<path d="M59.3854 55.6024L51.7282 42.2199C53.3062 40.7131 54.4505 38.8013 55.0381 36.6419C55.8892 33.5143 55.4714 30.2426 53.8615 27.4292C52.9174 25.7792 51.6416 24.4351 50.1659 23.4321C49.3041 10.3489 38.4837 0.101128 25.3047 0.00202255C25.1763 -0.000674184 25.045 -0.000674184 24.9166 0.00202255C18.251 0.0521819 11.9927 2.68514 7.29346 7.41657C2.59022 12.152 0 18.4363 0 25.1112C0 31.7869 2.59022 38.0713 7.29346 42.8071C11.9923 47.5384 18.2509 50.1713 24.9161 50.2218C24.9804 50.2231 25.0449 50.2232 25.1107 50.2232C25.1765 50.2232 25.2409 50.2231 25.3052 50.2218C30.747 50.1804 35.8898 48.438 40.2124 45.1771C41.2323 45.4484 42.2874 45.5882 43.3497 45.5882C44.4448 45.5882 45.5472 45.4384 46.6267 45.1337L54.2861 58.52C54.6758 59.2011 55.3073 59.6896 56.0644 59.8956C56.3208 59.9655 56.5815 60 56.8404 60C57.3455 60 57.8442 59.8685 58.2944 59.6109C58.9755 59.2212 59.464 58.5897 59.6701 57.8326C59.8762 57.0755 59.7751 56.2835 59.3854 55.6024ZM24.0999 34.2921C20.4746 34.3779 16.9226 34.9238 13.7122 35.8878C12.8119 32.8757 12.3001 29.5376 12.2156 26.1225H24.0999V34.2921ZM12.2156 24.0999C12.3001 20.6855 12.8119 17.348 13.7124 14.3357C16.9226 15.2994 20.4746 15.8454 24.0999 15.9311V24.0999H12.2156ZM26.1225 2.09631C30.0325 2.6637 33.6619 6.50103 35.8678 12.417C32.8596 13.3137 29.5292 13.8235 26.1225 13.9079V2.09631ZM24.0999 2.09617V13.9078C20.6933 13.8233 17.3628 13.3134 14.3549 12.4167C16.5597 6.50089 20.1889 2.66343 24.0999 2.09617ZM10.1923 24.0999H2.04548C2.2476 19.3836 3.86173 14.9184 6.68414 11.1962C8.19431 12.1618 9.90566 12.9995 11.7927 13.6963C10.8258 16.9096 10.2782 20.4678 10.1923 24.0999ZM10.1922 26.1225C10.2781 29.7554 10.8257 33.3139 11.7924 36.5273C9.90458 37.2247 8.1931 38.0624 6.68387 39.0272C3.86159 35.3048 2.24746 30.8392 2.04534 26.1224L10.1922 26.1225ZM24.0999 36.3156V48.1279C20.1903 47.5609 16.5609 43.7233 14.3549 37.8068C17.3625 36.91 20.6926 36.4 24.0999 36.3156ZM26.1225 48.1263V36.3147C28.0113 36.3609 29.8722 36.538 31.6756 36.8407C31.938 37.744 32.3095 38.6306 32.7968 39.4823C33.2041 40.1942 33.6739 40.8486 34.1941 41.4437C32.0133 45.309 29.1321 47.6884 26.1225 48.1263ZM31.2625 34.7286C29.5843 34.4798 27.8645 34.3319 26.1224 34.2912V26.1226H33.6614C31.8041 28.5783 30.9443 31.6691 31.2625 34.7286ZM35.6005 24.1001H26.1225V15.9313C29.7483 15.8455 33.3008 15.2995 36.5115 14.3356C37.2846 16.9134 37.7657 19.6796 37.9434 22.5825C37.7279 22.6894 37.5142 22.8024 37.3028 22.9234C36.6928 23.2723 36.1251 23.6671 35.6005 24.1001ZM39.9174 21.8099C39.6996 18.9656 39.2006 16.2462 38.4309 13.6962C40.3197 12.9987 42.0323 12.16 43.5426 11.1935C45.9272 14.3466 47.5218 18.1354 48.027 22.2733C45.4971 21.2139 42.6308 21.0149 39.9174 21.8099ZM42.2425 9.6221C40.9213 10.4454 39.4298 11.1675 37.7875 11.7777C36.5749 8.50389 34.9218 5.72801 32.9709 3.70909C32.8088 3.54136 32.6446 3.38023 32.479 3.22341C36.2653 4.49546 39.6172 6.72149 42.2425 9.6221ZM17.7471 3.21775C17.5798 3.37605 17.4142 3.53974 17.2505 3.70909C15.2998 5.72814 13.647 8.50403 12.4349 11.7775C10.7956 11.1683 9.30617 10.4476 7.98572 9.62587C8.22667 9.35997 8.47396 9.09825 8.72853 8.84206C11.301 6.25185 14.3818 4.34593 17.7471 3.21775ZM7.98572 40.5979C9.30537 39.7768 10.7949 39.056 12.4352 38.4463C13.6478 41.7203 15.3008 44.4962 17.2512 46.515C17.4157 46.6853 17.5826 46.8484 17.7507 47.0075C14.3841 45.8795 11.302 43.973 8.72867 41.382C8.47396 41.1257 8.22667 40.8639 7.98572 40.5979ZM32.4716 47.0087C33.6557 45.8908 34.7347 44.5115 35.6952 42.8891C36.3902 43.4501 37.1412 43.9273 37.931 44.3183C36.2231 45.4636 34.3919 46.3643 32.4716 47.0087ZM43.3463 43.5662C39.8353 43.5659 36.4173 41.7376 34.5522 38.478C31.7831 33.6383 33.4675 27.4481 38.3072 24.6789C39.8873 23.7748 41.6103 23.3457 43.3122 23.3457C46.8232 23.3457 50.2412 25.1743 52.1062 28.4339C53.4477 30.7783 53.7959 33.5047 53.0866 36.1111C52.3774 38.7173 50.6957 40.8915 48.3513 42.2329C46.7711 43.1369 45.0482 43.5663 43.3463 43.5662ZM57.7187 57.3016C57.6544 57.5375 57.5024 57.7342 57.2902 57.8556C57.0782 57.9769 56.8316 58.0085 56.5956 57.9443C56.3598 57.8801 56.1632 57.728 56.0419 57.5159L48.5441 44.4122C48.8176 44.2818 49.0886 44.1414 49.3558 43.9885C49.6224 43.836 49.8794 43.6718 50.1313 43.5016L57.63 56.6071C57.7513 56.8192 57.7827 57.0658 57.7187 57.3016Z" fill="#058FA2"/>
</svg>
