<svg width="137" height="125" viewBox="0 0 137 125" fill="none" xmlns="http://www.w3.org/2000/svg">
<path fill-rule="evenodd" clip-rule="evenodd" d="M72.3626 3.0183C66.3706 6.5733 55.6036 10.0263 47.9376 10.8503L42.3626 11.4503L42.4446 23.9503C42.5176 35.1173 42.8446 37.3613 45.5046 44.9943C48.9656 54.9263 54.2546 63.3653 60.4166 68.7883C65.3646 73.1443 75.7166 78.9553 78.5026 78.9413C81.8516 78.9243 91.2376 72.7533 97.6226 66.3723C108.089 55.9123 113.399 42.2223 114.536 22.7733L115.16 12.0963L111.262 11.4843C101.269 9.9133 93.7096 7.6423 86.2106 3.9563C81.7266 1.7533 77.9016 -0.0266968 77.7106 0.000303153C77.5186 0.0283032 75.1126 1.3863 72.3626 3.0183ZM71.1446 9.50331C67.7256 11.2963 61.4256 13.5353 57.1446 14.4783C52.8646 15.4203 48.7346 16.3733 47.9666 16.5953C46.8506 16.9183 46.6986 18.6443 47.2076 25.2253C48.8706 46.7363 57.3566 61.9403 72.6906 70.8833L78.0186 73.9903L83.0556 71.2483C97.6426 63.3093 107.106 47.0153 108.697 27.0963C109.532 16.6453 109.401 15.9503 106.594 15.9503C102.301 15.9503 91.1546 12.5843 84.6376 9.3193C80.9386 7.4663 77.7886 6.0163 77.6376 6.0963C77.4866 6.1763 74.5646 7.70931 71.1446 9.50331ZM84.8296 39.4713L74.3086 49.9923L68.6736 44.9693C64.8786 41.5873 62.5016 40.1513 61.3966 40.5753C60.4946 40.9213 59.8936 41.9423 60.0596 42.8423C60.3756 44.5483 73.1916 56.9503 74.6386 56.9503C75.0936 56.9503 80.9646 51.3873 87.6856 44.5893C96.4796 35.6933 99.7296 31.7683 99.2776 30.5893C98.0376 27.3583 95.1946 29.1063 84.8296 39.4713ZM1.53564 69.2003C-0.0113556 70.3323 -0.147358 72.8633 0.0946425 95.9503L0.362644 121.45H12.8626H25.3626L25.6726 117.7C25.9826 113.96 25.9956 113.95 30.5426 113.95C33.0496 113.95 44.2386 116.425 55.4066 119.45C66.5746 122.475 77.0396 124.95 78.6616 124.95C85.0096 124.95 90.3126 121.703 111.361 104.929C134.047 86.8483 136.863 84.1253 136.863 80.2653C136.863 77.0553 134.309 72.2593 131.918 70.9803C127.214 68.4623 122.522 70.3963 103.601 82.6543C97.6326 86.5213 96.9606 87.2653 97.8856 88.9933C98.4616 90.0693 99.2546 90.9503 99.6476 90.9493C100.041 90.9493 106.186 87.3493 113.304 82.9493C120.421 78.5503 126.808 74.9503 127.497 74.9503C129.549 74.9503 131.795 78.9613 130.979 81.1673C129.777 84.4153 86.9876 117.758 82.3626 119.05C78.7346 120.063 76.3996 119.636 57.2706 114.457C45.6696 111.316 33.9696 108.608 31.2706 108.438L26.3626 108.131L26.0846 94.5403L25.8066 80.9503H29.5296C32.2236 80.9503 34.0416 80.1943 36.1046 78.2183C40.3606 74.1403 44.1846 74.7503 59.8626 82.0063C71.2506 87.2763 74.5096 88.3473 80.6966 88.8563C86.3406 89.3203 88.3566 89.9053 89.4466 91.3953C91.3676 94.0233 91.2286 95.5843 88.8626 97.9503C85.7196 101.093 76.5106 100.664 65.0266 96.8383C58.0386 94.5103 55.3996 94.0133 54.5466 94.8663C52.4156 96.9973 55.3106 99.2513 63.8826 102.131C70.4356 104.333 74.1096 104.95 80.6676 104.95C88.8816 104.95 89.1356 104.877 92.4626 101.55C97.1926 96.8203 97.1926 92.0803 92.4626 87.3503C89.3586 84.2463 88.5446 83.9503 83.1196 83.9503C77.8986 83.9503 75.2586 83.0863 61.3866 76.8353C43.5996 68.8203 40.4696 68.4273 33.2836 73.3103C28.0316 76.8793 25.8626 76.7843 25.8626 72.9853C25.8626 71.0773 25.1726 69.6513 23.9286 68.9853C21.1376 67.4923 3.64164 67.6603 1.53564 69.2003ZM5.30964 75.2283C5.03964 75.9313 4.94164 85.4943 5.09064 96.4783L5.36264 116.45L12.6126 116.744L19.8626 117.038V95.4943V73.9503H12.8316C8.04565 73.9503 5.64364 74.3583 5.30964 75.2283ZM9.86264 110.016C9.86264 112.772 10.1416 113.051 12.6126 112.766C14.7726 112.518 15.4306 111.86 15.6786 109.7C15.9636 107.229 15.6846 106.95 12.9286 106.95C10.1736 106.95 9.86264 107.261 9.86264 110.016Z" fill="#058FA2"/>
<path fill-rule="evenodd" clip-rule="evenodd" d="M72.3626 3.0183C66.3706 6.5733 55.6036 10.0263 47.9376 10.8503L42.3626 11.4503L42.4446 23.9503C42.5176 35.1173 42.8446 37.3613 45.5046 44.9943C48.9656 54.9263 54.2546 63.3653 60.4166 68.7883C65.3646 73.1443 75.7166 78.9553 78.5026 78.9413C81.8516 78.9243 91.2376 72.7533 97.6226 66.3723C108.089 55.9123 113.399 42.2223 114.536 22.7733L115.16 12.0963L111.262 11.4843C101.269 9.9133 93.7096 7.6423 86.2106 3.9563C81.7266 1.7533 77.9016 -0.0266968 77.7106 0.000303153C77.5186 0.0283032 75.1126 1.3863 72.3626 3.0183ZM71.1446 9.50331C67.7256 11.2963 61.4256 13.5353 57.1446 14.4783C52.8646 15.4203 48.7346 16.3733 47.9666 16.5953C46.8506 16.9183 46.6986 18.6443 47.2076 25.2253C48.8706 46.7363 57.3566 61.9403 72.6906 70.8833L78.0186 73.9903L83.0556 71.2483C97.6426 63.3093 107.106 47.0153 108.697 27.0963C109.532 16.6453 109.401 15.9503 106.594 15.9503C102.301 15.9503 91.1546 12.5843 84.6376 9.3193C80.9386 7.4663 77.7886 6.0163 77.6376 6.0963C77.4866 6.1763 74.5646 7.70931 71.1446 9.50331ZM84.8296 39.4713L74.3086 49.9923L68.6736 44.9693C64.8786 41.5873 62.5016 40.1513 61.3966 40.5753C60.4946 40.9213 59.8936 41.9423 60.0596 42.8423C60.3756 44.5483 73.1916 56.9503 74.6386 56.9503C75.0936 56.9503 80.9646 51.3873 87.6856 44.5893C96.4796 35.6933 99.7296 31.7683 99.2776 30.5893C98.0376 27.3583 95.1946 29.1063 84.8296 39.4713Z" fill="#FDD304"/>
</svg>
