<svg width="110" height="149" viewBox="0 0 110 149" fill="none" xmlns="http://www.w3.org/2000/svg">
<path fill-rule="evenodd" clip-rule="evenodd" d="M47.512 0.608056C46.8511 1.02421 46.5933 2.61754 46.4446 7.20743C46.2362 13.63 46.7652 15.6911 48.6228 15.6911C50.743 15.6911 51.2871 14.0775 51.2708 7.84557C51.2522 0.742521 50.2772 -1.13365 47.512 0.608056ZM21.9909 4.93306C21.049 6.06503 21.38 7.31813 24.2678 13.557C26.6557 18.716 27.7683 19.8312 29.4442 18.7462C30.9203 17.791 30.4348 15.2674 27.687 9.60525C25.0611 4.19522 23.6006 2.99718 21.9909 4.93306ZM72.0307 4.82351C71.7044 5.22228 70.4832 8.02061 69.3171 11.0432C66.9403 17.2033 66.9456 19.1687 69.3369 19.1687C70.6225 19.1687 71.1039 18.5451 73.0301 14.387C75.5213 9.00942 76.1113 6.61217 75.3111 5.11969C74.6758 3.93498 72.8902 3.77385 72.0307 4.82351ZM1.78211 18.9728C0.118995 19.6428 1.11663 22.0267 4.4928 25.4493C9.12502 30.1453 10.5175 31.021 12.0506 30.2021C14.0772 29.1194 13.4286 27.7219 8.73769 23.0677C4.47364 18.836 3.51781 18.2738 1.78211 18.9728ZM91.8104 20.4363C84.6539 26.4526 83.2387 28.793 85.9001 30.2142C86.9482 30.7741 87.4267 30.5915 89.2391 28.9379C97.3729 21.5161 98.0912 20.4409 95.7481 19.189C94.2209 18.3735 94.2911 18.3509 91.8104 20.4363ZM40.2242 22.2945C30.2815 24.1933 22.1326 27.8361 15.3681 33.4049C8.31785 39.2097 2.78207 48.3837 0.750792 57.6289C-0.440217 63.0517 -0.183546 72.5259 1.30304 77.9985C2.5045 82.4209 6.10946 89.9952 9.11747 94.417C16.4232 105.155 18.8854 113.774 19.5857 131.07C20.0746 143.157 20.6826 145.333 24.2249 147.688C26.1725 148.983 26.4414 149 44.8988 149C63.3563 149 63.6251 148.983 65.5728 147.688C68.8293 145.524 69.8345 142.699 69.7213 136.03C69.6115 129.529 70.439 126.701 72.7026 125.842C73.4935 125.542 76.854 125.45 80.1698 125.637C87.3878 126.045 89.3274 125.529 93.1309 122.187C98.0372 117.876 98.9721 113.473 97.1615 103.211C95.8997 96.0601 95.8509 96.256 98.8752 96.256C102.703 96.256 107.008 95.1867 108.403 93.8895C110.967 91.5056 110.525 89.0637 106.486 83.2903C105.399 81.7381 102.906 77.5174 100.945 73.9117C97.7202 67.9824 97.3021 66.8122 96.5715 61.6647C95.2888 52.6252 92.5955 46.0206 87.3687 39.0961C81.7777 31.6887 72.6085 25.731 62.9004 23.197C56.9419 21.6413 45.9365 21.2037 40.2242 22.2945ZM41.309 26.7609C29.4296 28.7403 18.2518 35.0052 12.115 43.1232C6.87191 50.0587 4.56307 57.0922 4.54913 66.1688C4.53461 75.5219 6.79817 82.3676 13.2509 92.4886C17.5318 99.2027 19.1624 102.72 21.1408 109.506C23.1877 116.528 24.2609 124.826 24.2736 133.721C24.2858 142.445 24.7045 143.468 28.6393 144.378C32.1955 145.2 60.4824 145.093 62.336 144.25C64.8661 143.1 65.5136 141.03 65.5136 134.095C65.5136 126.743 66.3469 124.551 69.9292 122.478C71.9802 121.291 72.842 121.181 79.1599 121.303C87.4076 121.461 89.8866 120.573 92.0851 116.668C93.7186 113.767 93.7523 110.576 92.25 100.893C91.3656 95.1907 91.2773 93.4948 91.8348 92.9309C92.2279 92.5327 95.1976 91.9896 98.5145 91.7096C101.799 91.4326 104.751 90.9417 105.074 90.6188C105.47 90.2235 104.723 88.64 102.777 85.7542C101.19 83.4016 98.3072 78.4732 96.37 74.8026C93.1727 68.744 92.7935 67.6416 92.2477 62.8343C90.8488 50.5062 85.3293 40.8807 75.8494 34.2355C66.3056 27.5457 53.3828 24.7491 41.309 26.7609ZM43.4471 34.4471C31.6555 37.6511 23.9014 49.3754 25.9385 60.9187C26.7776 65.675 28.7206 69.5919 32.3773 73.903C35.887 78.0403 36.9549 81.0043 37.5739 88.3259C38.0408 93.8518 39.0274 96.5134 40.8682 97.2188C41.3287 97.395 42.2056 98.6666 42.8159 100.044C44.0731 102.881 46.3645 104.37 49.4712 104.37C51.7487 104.37 54.7637 102.213 55.3787 100.143C55.5877 99.4398 56.662 98.0818 57.7653 97.1254C60.0701 95.1287 60.8262 92.6555 60.868 86.9824C60.9034 82.1531 62.5346 78.1904 66.7981 72.5775C73.7264 63.4557 74.3018 53.2448 68.4031 44.0702C63.2285 36.0213 52.6564 31.9449 43.4471 34.4471ZM44.8988 38.6851C33.7744 41.1282 27.3299 53.6986 31.6613 64.5042C32.1752 65.7857 34.2483 69.0471 36.2685 71.7521C39.5826 76.189 40.4147 77.9429 42.0517 83.9395C42.1678 84.3666 43.2102 84.664 44.5905 84.664H46.9313V75.3903C46.9313 68.9967 46.7315 66.1166 46.2884 66.1166C44.8686 66.1166 38.1929 62.5109 37.614 61.4311C36.7888 59.8923 37.4508 58.0022 38.8149 58.0022C39.4176 58.0022 40.8734 58.6537 42.0494 59.45C46.6618 62.5747 51.2331 62.6564 55.9071 59.6975C58.947 57.7732 59.8349 57.6289 60.8825 58.889C62.2088 60.484 60.6526 62.5156 56.6597 64.401C54.6627 65.344 52.7022 66.1161 52.3027 66.1161C51.7522 66.1166 51.5768 68.358 51.5768 75.3903V84.664H53.8305C56.0366 84.664 56.0993 84.6054 56.7665 81.9108C57.6608 78.2993 58.8588 76.0505 62.8209 70.5442C64.7743 67.8288 66.4793 64.6839 67.039 62.7613C69.8868 52.9845 64.1809 41.9709 54.8102 39.1558C52.1035 38.3426 47.462 38.1223 44.8988 38.6851ZM77.1229 45.3958C74.7292 47.0227 73.9261 48.2764 74.4325 49.5933C74.9789 51.0145 78.3568 50.4157 80.956 48.437C83.0506 46.8419 83.3741 45.9215 82.2376 44.7872C81.1726 43.7242 79.2441 43.9537 77.1229 45.3958ZM77.2727 61.7574C75.7263 62.8784 75.6543 63.4041 76.8784 64.6265C77.5543 65.3006 78.9822 65.537 82.3747 65.537C86.2508 65.537 87.0475 65.3707 87.5371 64.4578C87.9447 63.6974 87.8954 63.0778 87.3687 62.3591C86.2775 60.8695 79.0885 60.4417 77.2727 61.7574ZM72.2136 77.1048C71.2282 78.1915 71.2317 78.3196 72.2944 80.1477C72.9047 81.1968 74.3465 82.5658 75.4986 83.1889C77.2616 84.1423 77.7396 84.2003 78.5217 83.5523C79.0322 83.1292 79.4474 82.4893 79.4439 82.1299C79.4363 81.3069 74.5434 75.9699 73.796 75.9699C73.4917 75.9699 72.7798 76.4805 72.2136 77.1048ZM42.2857 90.6339C42.2857 93.5771 43.0464 93.9376 49.2541 93.9376C55.3008 93.9376 56.2224 93.5487 56.2224 90.9961C56.2224 89.0811 54.8334 88.7212 47.4394 88.7212H42.2857V90.6339ZM47.0689 98.6973C47.3662 99.5876 50.5211 99.7064 50.8115 98.8382C50.9224 98.5055 50.0699 98.1693 48.9167 98.0922C47.4208 97.9914 46.8912 98.1647 47.0689 98.6973Z" fill="#058FA2"/>
<path fill-rule="evenodd" clip-rule="evenodd" d="M47.512 0.608056C46.8511 1.02421 46.5933 2.61754 46.4446 7.20743C46.2362 13.63 46.7652 15.6911 48.6228 15.6911C50.743 15.6911 51.2871 14.0775 51.2708 7.84557C51.2522 0.742521 50.2772 -1.13365 47.512 0.608056ZM21.9909 4.93306C21.049 6.06503 21.38 7.31813 24.2678 13.557C26.6557 18.716 27.7683 19.8312 29.4442 18.7462C30.9203 17.791 30.4348 15.2674 27.687 9.60525C25.0611 4.19523 23.6006 2.99718 21.9909 4.93306ZM72.0307 4.82351C71.7044 5.22228 70.4832 8.02061 69.3171 11.0432C66.9403 17.2033 66.9456 19.1687 69.3369 19.1687C70.6225 19.1687 71.1039 18.5451 73.0301 14.387C75.5213 9.00942 76.1113 6.61217 75.3111 5.11969C74.6758 3.93498 72.8902 3.77385 72.0307 4.82351ZM1.78211 18.9728C0.118995 19.6428 1.11663 22.0267 4.4928 25.4493C9.12502 30.1453 10.5175 31.021 12.0506 30.2021C14.0772 29.1194 13.4286 27.7219 8.73769 23.0677C4.47364 18.836 3.51781 18.2738 1.78211 18.9728ZM91.8104 20.4363C84.6539 26.4526 83.2387 28.793 85.9001 30.2142C86.9482 30.7741 87.4267 30.5915 89.2391 28.9379C97.3729 21.5161 98.0912 20.4409 95.7481 19.189C94.2209 18.3735 94.2911 18.3509 91.8104 20.4363ZM43.4471 34.4471C31.6555 37.6511 23.9014 49.3754 25.9385 60.9187C26.7776 65.675 28.7206 69.5919 32.3773 73.903C35.887 78.0403 36.9549 81.0043 37.5739 88.3259C38.0408 93.8518 39.0274 96.5134 40.8682 97.2188C41.3287 97.395 42.2056 98.6666 42.8159 100.044C44.0731 102.881 46.3645 104.37 49.4712 104.37C51.7487 104.37 54.7637 102.213 55.3787 100.143C55.5877 99.4398 56.662 98.0818 57.7653 97.1254C60.0701 95.1287 60.8262 92.6555 60.868 86.9824C60.9034 82.1531 62.5346 78.1904 66.7981 72.5775C73.7264 63.4557 74.3018 53.2448 68.4031 44.0702C63.2285 36.0213 52.6564 31.9449 43.4471 34.4471ZM44.8988 38.6851C33.7744 41.1282 27.3299 53.6986 31.6613 64.5042C32.1752 65.7857 34.2483 69.0471 36.2685 71.7521C39.5825 76.189 40.4147 77.9429 42.0517 83.9395C42.1678 84.3666 43.2102 84.664 44.5905 84.664H46.9313V75.3903C46.9313 68.9967 46.7315 66.1166 46.2884 66.1166C44.8686 66.1166 38.1929 62.5109 37.614 61.4311C36.7888 59.8923 37.4508 58.0022 38.8149 58.0022C39.4176 58.0022 40.8734 58.6537 42.0494 59.45C46.6618 62.5747 51.2331 62.6564 55.9071 59.6975C58.947 57.7732 59.8349 57.6289 60.8825 58.889C62.2088 60.484 60.6525 62.5155 56.6597 64.401C54.6627 65.344 52.7022 66.1161 52.3027 66.1161C51.7522 66.1166 51.5768 68.358 51.5768 75.3903V84.664H53.8305C56.0366 84.664 56.0993 84.6054 56.7665 81.9108C57.6608 78.2993 58.8588 76.0505 62.8209 70.5442C64.7743 67.8288 66.4793 64.6839 67.039 62.7613C69.8868 52.9845 64.1809 41.9709 54.8102 39.1558C52.1035 38.3426 47.462 38.1223 44.8988 38.6851ZM77.1228 45.3958C74.7292 47.0227 73.9261 48.2764 74.4325 49.5933C74.9789 51.0145 78.3568 50.4157 80.956 48.437C83.0506 46.8419 83.374 45.9215 82.2376 44.7872C81.1726 43.7242 79.2441 43.9537 77.1228 45.3958ZM77.2727 61.7574C75.7263 62.8784 75.6543 63.4041 76.8784 64.6265C77.5543 65.3006 78.9822 65.537 82.3747 65.537C86.2508 65.537 87.0475 65.3707 87.5371 64.4578C87.9447 63.6974 87.8953 63.0778 87.3687 62.3591C86.2775 60.8695 79.0885 60.4417 77.2727 61.7574ZM72.2136 77.1048C71.2282 78.1915 71.2317 78.3196 72.2944 80.1477C72.9047 81.1968 74.3465 82.5658 75.4986 83.1889C77.2616 84.1423 77.7395 84.2003 78.5217 83.5523C79.0322 83.1292 79.4474 82.4893 79.4439 82.1299C79.4363 81.3069 74.5434 75.9699 73.796 75.9699C73.4917 75.9699 72.7798 76.4805 72.2136 77.1048ZM42.2857 90.6339C42.2857 93.5771 43.0464 93.9376 49.2541 93.9376C55.3008 93.9376 56.2224 93.5487 56.2224 90.9961C56.2224 89.0811 54.8334 88.7212 47.4394 88.7212H42.2857V90.6339ZM47.0689 98.6973C47.3662 99.5876 50.5211 99.7064 50.8115 98.8382C50.9224 98.5055 50.0699 98.1693 48.9167 98.0922C47.4208 97.9914 46.8912 98.1647 47.0689 98.6973Z" fill="#FDD304"/>
</svg>
