<svg width="60" height="60" viewBox="0 0 60 60" fill="none" xmlns="http://www.w3.org/2000/svg">
<path d="M29.9982 33.8663C32.1355 33.8663 33.8682 32.1337 33.8682 29.9963C33.8682 27.8589 32.1356 26.1263 29.9982 26.1263C27.8609 26.1263 26.1282 27.859 26.1282 29.9963C26.1282 32.1336 27.8609 33.8663 29.9982 33.8663ZM35.8031 29.9963C35.8031 33.2023 33.2043 35.8012 29.9982 35.8012C26.7922 35.8012 24.1934 33.2023 24.1934 29.9963C24.1934 26.7903 26.7922 24.1914 29.9982 24.1914C33.2043 24.1914 35.8031 26.7903 35.8031 29.9963Z" fill="#FDD304"/>
<path d="M46.4453 29.9924C46.4453 26.7864 49.0442 24.1875 52.2502 24.1875C55.4562 24.1875 58.0551 26.7864 58.0551 29.9924C58.0551 33.1984 55.4562 35.7973 52.2502 35.7973C49.0444 35.7973 46.4453 33.1983 46.4453 29.9924ZM48.3803 29.9924C48.3803 32.1296 50.1129 33.8624 52.2503 33.8624C54.3876 33.8624 56.1203 32.1298 56.1203 29.9924C56.1203 27.855 54.3876 26.1224 52.2503 26.1224C50.113 26.1225 48.3803 27.855 48.3803 29.9924Z" fill="#FDD304"/>
<path d="M7.74629 35.7973C4.54027 35.7973 1.94141 33.1984 1.94141 29.9924C1.94141 26.7864 4.54027 24.1875 7.74629 24.1875C10.9523 24.1875 13.5512 26.7864 13.5512 29.9924C13.5512 33.1984 10.9523 35.7973 7.74629 35.7973ZM7.74629 26.1225C5.60902 26.1225 3.87629 27.8552 3.87629 29.9925C3.87629 32.1298 5.60902 33.8625 7.74629 33.8625C9.88355 33.8625 11.6163 32.1299 11.6163 29.9925C11.6163 27.8551 9.88355 26.1225 7.74629 26.1225Z" fill="#FDD304"/>
<path d="M52.2528 5.80621C51.1842 5.80621 50.3178 6.67258 50.3178 7.74121C50.3178 8.80984 51.1842 9.67621 52.2528 9.67621C53.3214 9.67621 54.1878 8.80984 54.1878 7.74121C54.1878 6.67258 53.3214 5.80621 52.2528 5.80621ZM52.2528 11.6111C50.1155 11.6111 48.3828 9.87836 48.3828 7.74109C48.3828 5.60383 50.1155 3.87109 52.2528 3.87109C54.3901 3.87109 56.1228 5.60383 56.1228 7.74109C56.1228 9.87836 54.3901 11.6111 52.2528 11.6111Z" fill="#058FA2"/>
<path d="M52.2529 28.0561C51.1843 28.0561 50.3179 28.9225 50.3179 29.9911C50.3179 31.0597 51.1843 31.9261 52.2529 31.9261C53.3216 31.9261 54.1879 31.0597 54.1879 29.9911C54.1878 28.9225 53.3216 28.0561 52.2529 28.0561ZM48.3828 29.9911C48.3828 27.8538 50.1154 26.1211 52.2528 26.1211C54.3901 26.1211 56.1228 27.8538 56.1228 29.9911C56.1228 32.1284 54.3901 33.8611 52.2528 33.8611C50.1155 33.8611 48.3828 32.1284 48.3828 29.9911Z" fill="#058FA2"/>
<path d="M52.2529 50.31C51.1843 50.31 50.3179 51.1764 50.3179 52.245C50.3179 53.3136 51.1843 54.18 52.2529 54.18C53.3216 54.18 54.1879 53.3136 54.1879 52.245C54.1878 51.1763 53.3216 50.31 52.2529 50.31ZM48.3828 52.245C48.3828 50.1077 50.1154 48.375 52.2528 48.375C54.3901 48.375 56.1228 50.1076 56.1228 52.245C56.1228 54.3823 54.3901 56.115 52.2528 56.115C50.1155 56.115 48.3828 54.3823 48.3828 52.245Z" fill="#058FA2"/>
<path d="M52.2518 24.1889C49.0458 24.1889 46.447 26.7878 46.447 29.9938C46.447 33.1998 49.0458 35.7987 52.2518 35.7987C55.4578 35.7987 58.0567 33.1998 58.0567 29.9938C58.0567 26.7878 55.4577 24.1889 52.2518 24.1889ZM44.5117 29.9938C44.5117 25.7191 47.977 22.2539 52.2516 22.2539C56.5262 22.2539 59.9915 25.7191 59.9915 29.9938C59.9915 34.2684 56.5262 37.7337 52.2516 37.7337C47.977 37.7337 44.5117 34.2684 44.5117 29.9938Z" fill="#058FA2"/>
<path d="M33.8709 7.74109C33.8709 9.87836 32.1382 11.6111 30.0009 11.6111C27.8635 11.6111 26.1309 9.87836 26.1309 7.74109C26.1309 5.60383 27.8636 3.87109 30.0009 3.87109C32.1381 3.87109 33.8709 5.60383 33.8709 7.74109ZM31.9359 7.74109C31.9359 6.67246 31.0695 5.80609 30.0009 5.80609C28.9322 5.80609 28.0659 6.67246 28.0659 7.74109C28.0659 8.80973 28.9322 9.67609 30.0009 9.67609C31.0696 9.67609 31.9359 8.80973 31.9359 7.74109Z" fill="#058FA2"/>
<path d="M33.8709 29.9911C33.8709 32.1284 32.1382 33.8611 30.0009 33.8611C27.8635 33.8611 26.1309 32.1285 26.1309 29.9911C26.1309 27.8537 27.8636 26.1211 30.0009 26.1211C32.1382 26.1212 33.8709 27.8537 33.8709 29.9911ZM31.9359 29.9911C31.9359 28.9225 31.0695 28.0561 30.0009 28.0561C28.9322 28.0561 28.0659 28.9225 28.0659 29.9911C28.0659 31.0597 28.9322 31.9261 30.0009 31.9261C31.0696 31.9261 31.9359 31.0597 31.9359 29.9911Z" fill="#058FA2"/>
<path d="M33.8709 52.245C33.8709 54.3823 32.1382 56.115 30.0009 56.115C27.8635 56.115 26.1309 54.3824 26.1309 52.245C26.1309 50.1077 27.8636 48.375 30.0009 48.375C32.1382 48.3749 33.8709 50.1076 33.8709 52.245ZM31.9359 52.245C31.9359 51.1764 31.0695 50.31 30.0009 50.31C28.9322 50.31 28.0659 51.1764 28.0659 52.245C28.0659 53.3136 28.9322 54.18 30.0009 54.18C31.0696 54.18 31.9359 53.3136 31.9359 52.245Z" fill="#058FA2"/>
<path d="M7.74695 5.80621C6.67832 5.80621 5.81195 6.67258 5.81195 7.74121C5.81195 8.80984 6.67832 9.67621 7.74695 9.67621C8.81559 9.67621 9.68195 8.80984 9.68195 7.74121C9.68195 6.67258 8.81559 5.80621 7.74695 5.80621ZM3.87695 7.74109C3.87695 5.60383 5.60969 3.87109 7.74695 3.87109C9.88422 3.87109 11.617 5.60383 11.617 7.74109C11.617 9.87836 9.88422 11.6111 7.74695 11.6111C5.60969 11.6111 3.87695 9.87836 3.87695 7.74109Z" fill="#058FA2"/>
<path d="M7.74695 28.0561C6.67832 28.0561 5.81195 28.9225 5.81195 29.9911C5.81195 31.0597 6.67832 31.9261 7.74695 31.9261C8.81559 31.9261 9.68195 31.0597 9.68195 29.9911C9.68195 28.9225 8.81559 28.0561 7.74695 28.0561ZM3.87695 29.9911C3.87695 27.8538 5.60969 26.1211 7.74695 26.1211C9.88422 26.1211 11.617 27.8538 11.617 29.9911C11.617 32.1284 9.88422 33.8611 7.74695 33.8611C5.60969 33.8611 3.87695 32.1284 3.87695 29.9911Z" fill="#058FA2"/>
<path d="M7.74695 50.31C6.67832 50.31 5.81195 51.1764 5.81195 52.245C5.81195 53.3136 6.67832 54.18 7.74695 54.18C8.81559 54.18 9.68195 53.3136 9.68195 52.245C9.68195 51.1763 8.81559 50.31 7.74695 50.31ZM3.87695 52.245C3.87695 50.1077 5.60969 48.375 7.74695 48.375C9.88422 48.375 11.617 50.1076 11.617 52.245C11.617 54.3823 9.88422 56.115 7.74695 56.115C5.60969 56.115 3.87695 54.3823 3.87695 52.245Z" fill="#058FA2"/>
<path d="M7.74769 24.1889C4.54168 24.1889 1.94281 26.7878 1.94281 29.9938C1.94281 33.1998 4.54168 35.7987 7.74769 35.7987C10.9537 35.7987 13.5526 33.1998 13.5526 29.9938C13.5526 26.7878 10.9537 24.1889 7.74769 24.1889ZM0.0078125 29.9938C0.0078125 25.7191 3.47305 22.2539 7.74769 22.2539C12.0223 22.2539 15.4876 25.7191 15.4876 29.9938C15.4876 34.2684 12.0223 37.7337 7.74769 37.7337C3.47305 37.7337 0.0078125 34.2684 0.0078125 29.9938Z" fill="#058FA2"/>
<path d="M7.74784 46.4402C4.54183 46.4402 1.94296 49.0391 1.94296 52.2451C1.94296 55.4511 4.54183 58.05 7.74784 58.05C10.9539 58.05 13.5527 55.4511 13.5527 52.2451C13.5527 49.0392 10.9539 46.4402 7.74784 46.4402ZM7.74784 1.93581C4.54183 1.93581 1.94296 4.53468 1.94296 7.74069C1.94296 10.9467 4.54183 13.5456 7.74784 13.5456C10.9539 13.5456 13.5527 10.9467 13.5527 7.74069C13.5527 4.53468 10.9539 1.93581 7.74784 1.93581ZM52.2524 46.4402C49.0464 46.4402 46.4475 49.0391 46.4475 52.2451C46.4475 55.4511 49.0464 58.05 52.2524 58.05C55.4584 58.05 58.0573 55.4511 58.0573 52.2451C58.0573 49.0392 55.4583 46.4402 52.2524 46.4402ZM52.2524 1.93581C49.0464 1.93581 46.4475 4.53468 46.4475 7.74069C46.4475 10.9467 49.0464 13.5456 52.2524 13.5456C55.4584 13.5456 58.0573 10.9467 58.0573 7.74069C58.0573 4.53468 55.4583 1.93581 52.2524 1.93581ZM30.0001 58.0501C33.2061 58.0501 35.805 55.4512 35.805 52.2452C35.805 49.0392 33.2061 46.4403 30.0001 46.4403C26.7941 46.4403 24.1952 49.0392 24.1952 52.2452C24.1951 55.4511 26.7941 58.0501 30.0001 58.0501ZM30.0001 35.7978C33.2061 35.7978 35.805 33.199 35.805 29.993C35.805 26.7869 33.2061 24.1881 30.0001 24.1881C26.7941 24.1881 24.1952 26.7869 24.1952 29.993C24.1952 33.199 26.7941 35.7978 30.0001 35.7978ZM30.0001 13.5457C33.2061 13.5457 35.805 10.9468 35.805 7.74081C35.805 4.5348 33.2061 1.93593 30.0001 1.93593C26.7941 1.93593 24.1952 4.5348 24.1952 7.74081C24.1952 10.9468 26.7941 13.5457 30.0001 13.5457ZM0.00796071 7.74069C0.0371404 3.46616 3.52593 0.0246013 7.80046 0.053781C11.6605 0.0801482 14.9112 2.94667 15.42 6.77331H22.3278C22.8921 2.53605 26.7845 -0.441453 31.0217 0.122804C34.4858 0.584054 37.211 3.30925 37.6723 6.77331H44.5801C45.1145 2.53218 48.9858 -0.472742 53.2268 0.0615154C57.4678 0.595773 60.4728 4.46718 59.9386 8.7082C59.4506 12.5808 56.1555 15.4841 52.2524 15.4807C50.5335 15.4828 48.8638 14.9069 47.5117 13.8457L36.105 25.2524C37.1664 26.6045 37.7422 28.2742 37.74 29.9931C37.74 34.2677 34.2748 37.733 30.0001 37.733C28.2812 37.7351 26.6115 37.1592 25.2594 36.098L13.8527 47.5046C14.7062 48.5978 15.2478 49.9017 15.42 51.278H22.3278C22.8921 47.0407 26.7845 44.0632 31.0217 44.6275C34.4858 45.0887 37.211 47.8139 37.6723 51.278H44.5801C45.1145 47.0368 48.9858 44.0319 53.2268 44.5662C57.4679 45.1005 60.4728 48.9718 59.9386 53.2128C59.4042 57.454 55.5329 60.4589 51.2919 59.9245C47.7844 59.4826 45.0221 56.7203 44.5801 53.2128H37.6723C37.108 57.4501 33.2156 60.4276 28.9783 59.8633C25.5143 59.4021 22.7891 56.6769 22.3278 53.2128H15.42C14.8856 57.454 11.0143 60.4589 6.77331 59.9245C2.53218 59.3901 -0.472742 55.5189 0.0615154 51.2778C0.549484 47.4053 3.84456 44.5019 7.74773 44.5053C9.46663 44.5032 11.1363 45.0791 12.4884 46.1403L23.8951 34.7337C22.8337 33.3816 22.2579 31.7119 22.2601 29.993C22.2601 25.7183 25.7253 22.2531 30 22.2531C31.7189 22.251 33.3886 22.8268 34.7407 23.8881L46.1474 12.4814C45.2939 11.3883 44.7523 10.0843 44.5801 8.70831H37.6723C37.108 12.9456 33.2156 15.9231 28.9783 15.3588C25.5143 14.8976 22.7891 12.1724 22.3278 8.70831H15.42C14.8564 12.9456 10.9648 15.9238 6.72737 15.3603C2.90085 14.8515 0.0342107 11.6007 0.00796071 7.74069Z" fill="#058FA2"/>
</svg>
