<svg width="90" height="78" viewBox="0 0 90 78" fill="none" xmlns="http://www.w3.org/2000/svg">
<path fill-rule="evenodd" clip-rule="evenodd" d="M26.0204 0.844724C22.8925 2.24111 22.0188 3.91367 19.4988 13.3304C17.2702 21.6586 17.1429 22.5342 18.0307 23.4321C19.5588 24.9777 20.9694 23.5819 22.2472 19.2603C22.8656 17.1685 23.6921 15.4656 24.0839 15.4761C25.9764 15.5263 83.5616 31.5038 83.4967 31.9602C83.4551 32.2494 81.9802 37.991 80.2182 44.719C78.4561 51.4477 77.1722 57.3688 77.3657 57.8778C77.5586 58.3869 78.3925 58.8036 79.219 58.8036C81.0184 58.8036 80.662 59.8154 85.9941 39.5539C88.1969 31.1806 90 23.4339 90 22.3391C90 19.6578 88.5049 16.9059 86.4692 15.8414C84.6808 14.9064 30.2039 -0.0407861 28.7327 8.3657e-05C28.2509 0.0137069 27.0307 0.393299 26.0204 0.844724ZM27.0986 5.25742C25.9286 6.08658 24.1543 10.3705 24.7372 10.96C25.2374 11.4659 84.6655 27.2509 84.9576 26.9555C85.1345 26.7766 85.4063 25.2898 85.5624 23.6513C85.7669 21.4963 85.5931 20.461 84.9337 19.9074C84.1818 19.2757 30.4268 4.3106 28.9115 4.3106C28.6494 4.3106 27.8339 4.73664 27.0986 5.25742ZM3.89822 29.6486C-0.0611689 32.0903 5.50954e-05 31.7237 5.50954e-05 53.1177C5.50954e-05 74.3948 0.0655658 74.8171 3.69801 76.9869C5.20475 77.8879 8.71842 78 35.3608 78H65.329L67.4094 76.585C70.7192 74.3347 70.9488 72.8281 70.9727 53.2305C70.9916 37.3488 70.8802 35.3295 69.8602 33.0581C67.7614 28.3841 68.3406 28.4603 35.1117 28.4634C7.35311 28.4652 5.71597 28.5278 3.89822 29.6486ZM5.29903 33.9282C4.69719 34.6007 4.28577 36.1091 4.28577 37.6436V40.2264H35.5102H66.7347V37.7495C66.7347 36.098 66.3263 34.8595 65.5102 34.0341C64.32 32.8303 63.4696 32.7956 35.299 32.7956C7.99474 32.7956 6.25352 32.8612 5.29903 33.9282ZM4.28577 58.3701C4.28577 68.2848 4.49271 72.3885 5.02046 72.9222C5.57148 73.4796 13.1351 73.6653 35.2917 73.6653H64.8288L65.7814 72.2888C66.5718 71.1481 66.7347 68.66 66.7347 57.7366V44.5611H35.5102H4.28577V58.3701ZM33.5204 63.8071C31.9947 64.7062 32.0719 68.4637 33.6331 69.309C34.2845 69.6613 35.1111 69.9499 35.4698 69.9499C36.4415 69.9499 38.5715 67.611 38.5715 66.5441C38.5715 65.409 36.4096 63.1315 35.3572 63.1568C34.9366 63.1674 34.11 63.4597 33.5204 63.8071ZM44.2182 64.1024C42.3888 65.3979 42.4574 67.7987 44.3596 69.0594C45.5798 69.8682 47.2421 70.0162 53.2084 69.8477C57.7574 69.7189 60.8278 69.3635 61.2723 68.9127C62.3621 67.8073 62.13 64.8864 60.878 63.9606C59.187 62.7098 46.0249 62.8218 44.2182 64.1024ZM34.2857 66.5441C34.2857 67.1819 34.6868 67.4853 35.3572 67.3553C36.6478 67.1039 36.5664 66.0047 35.2366 65.7248C34.6819 65.6078 34.2857 65.949 34.2857 66.5441Z" fill="#058FA2"/>
<path fill-rule="evenodd" clip-rule="evenodd" d="M26.0204 0.844724C22.8925 2.24111 22.0188 3.91367 19.4988 13.3304C17.2702 21.6586 17.1429 22.5342 18.0307 23.4321C19.5588 24.9777 20.9694 23.5819 22.2472 19.2603C22.8656 17.1685 23.6921 15.4656 24.0839 15.4761C25.9764 15.5263 83.5616 31.5038 83.4967 31.9602C83.4551 32.2494 81.9802 37.991 80.2182 44.719C78.4561 51.4477 77.1722 57.3688 77.3657 57.8778C77.5586 58.3869 78.3925 58.8036 79.219 58.8036C81.0184 58.8036 80.662 59.8154 85.9941 39.5539C88.1969 31.1806 90 23.4339 90 22.3391C90 19.6578 88.5049 16.9059 86.4692 15.8414C84.6808 14.9064 30.2039 -0.0407861 28.7327 8.3657e-05C28.2509 0.0137069 27.0307 0.393299 26.0204 0.844724ZM27.0986 5.25742C25.9286 6.08658 24.1543 10.3705 24.7372 10.96C25.2374 11.4659 84.6655 27.2509 84.9576 26.9555C85.1345 26.7766 85.4063 25.2898 85.5624 23.6513C85.7669 21.4963 85.5931 20.461 84.9337 19.9074C84.1818 19.2757 30.4268 4.3106 28.9115 4.3106C28.6494 4.3106 27.8339 4.73664 27.0986 5.25742ZM33.5204 63.8071C31.9947 64.7062 32.0719 68.4637 33.6331 69.309C34.2845 69.6613 35.1111 69.9499 35.4698 69.9499C36.4415 69.9499 38.5715 67.611 38.5715 66.5441C38.5715 65.409 36.4096 63.1315 35.3572 63.1568C34.9366 63.1674 34.11 63.4597 33.5204 63.8071ZM44.2182 64.1024C42.3888 65.3979 42.4574 67.7987 44.3596 69.0594C45.5798 69.8682 47.2421 70.0162 53.2084 69.8477C57.7574 69.7189 60.8278 69.3635 61.2723 68.9127C62.3621 67.8073 62.13 64.8864 60.878 63.9606C59.187 62.7098 46.0249 62.8218 44.2182 64.1024ZM34.2857 66.5441C34.2857 67.1819 34.6868 67.4853 35.3572 67.3553C36.6478 67.1039 36.5664 66.0047 35.2366 65.7248C34.6819 65.6078 34.2857 65.949 34.2857 66.5441Z" fill="#FDD304"/>
<rect x="4" y="40" width="63" height="5" fill="#FDD304"/>
</svg>
