<svg width="29" height="33" viewBox="0 0 29 33" fill="none" xmlns="http://www.w3.org/2000/svg">
<path fill-rule="evenodd" clip-rule="evenodd" d="M12.6683 0.252735C8.09542 1.23124 4.14659 4.28711 1.86963 8.60918C0.71277 10.8051 0 13.5729 0 15.869C0 16.8823 0.0624619 17.119 0.431955 17.5041C0.973878 18.0694 1.65515 18.0801 2.18124 17.5315C2.49988 17.1992 2.6139 16.8152 2.7119 15.7425C3.05799 11.9557 4.43392 8.86587 6.79603 6.57108C9.39638 4.04491 12.2934 2.85357 15.8354 2.85357C18.768 2.85357 21.1466 3.63612 23.4714 5.36616C25.2065 6.65713 25.1966 6.61878 24.0916 7.78553L23.1403 8.79009L26.042 8.73945L28.9436 8.68881L28.992 5.79899C29.0187 4.2095 28.9762 2.90917 28.8975 2.90917C28.8189 2.90917 28.3649 3.32163 27.8888 3.82565L27.0231 4.74214L26.4877 4.22454C24.3922 2.19873 21.7776 0.832534 18.8551 0.236772C17.2749 -0.0854203 14.2116 -0.0775306 12.6683 0.252735ZM10.4618 8.66441C8.88068 9.43209 7.92281 11.0377 7.92932 12.9089C7.93442 14.3738 8.17459 15.0029 9.49931 17.0198C10.9254 19.1909 13.2423 21.607 15.3243 23.0941C17.2581 24.4751 17.8585 24.7247 19.2759 24.7353C21.6208 24.7531 23.7382 22.7157 23.7487 20.4316L23.7522 19.6977L21.6317 18.8894L19.5112 18.0812L18.7664 18.8435C18.3566 19.2628 17.9452 19.6057 17.8521 19.6054C17.2796 19.6033 12.8467 14.9807 12.8448 14.3837C12.8445 14.2866 13.1733 13.8576 13.5753 13.4303L14.3064 12.6536L13.5314 10.4423L12.7563 8.23103L12.0525 8.23231C11.6654 8.23304 10.9497 8.42753 10.4618 8.66441ZM1.42044 21.3737C0.957691 21.9871 0.957691 22.5456 1.42044 23.159C2.02095 23.9553 3.16268 23.8045 3.62737 22.8675C4.34225 21.4259 2.38182 20.0991 1.42044 21.3737ZM5.11765 25.8743C4.53438 26.0993 4.23492 26.5635 4.22841 27.2528C4.22172 27.948 4.89508 28.5965 5.62351 28.5965C6.55076 28.5965 7.16605 27.3301 6.68976 26.4019C6.45451 25.9435 5.64357 25.6714 5.11765 25.8743ZM25.5726 25.9358C24.6432 26.3433 24.4879 27.7035 25.2974 28.3445C25.7839 28.73 26.54 28.6427 27.0161 28.146C28.0845 27.0321 26.9688 25.3235 25.5726 25.9358ZM9.73262 29.1482C8.86783 29.5117 8.69347 30.9089 9.43703 31.5188C10.052 32.0233 10.653 31.9991 11.1807 31.4487C11.8743 30.7256 11.7411 29.6874 10.8962 29.2319C10.3337 28.9286 10.267 28.9238 9.73262 29.1482ZM20.85 29.1753C20.2961 29.4913 20.0582 29.9027 20.0582 30.5448C20.0582 31.2199 20.7199 31.8991 21.3778 31.8991C21.9972 31.8991 22.6974 31.2186 22.6974 30.6164C22.6974 29.8443 22.5352 29.5307 21.981 29.2319C21.3943 28.9155 21.3127 28.9113 20.85 29.1753ZM14.7926 30.7313C14.592 30.9971 14.4278 31.4136 14.4278 31.6569C14.4278 32.2885 15.1735 33 15.8354 33C16.5109 33 17.243 32.2844 17.243 31.6239C17.243 30.3962 15.5189 29.7682 14.7926 30.7313Z" fill="white"/>
</svg>
