<svg width="81" height="141" viewBox="0 0 81 141" fill="none" xmlns="http://www.w3.org/2000/svg">
<path fill-rule="evenodd" clip-rule="evenodd" d="M60.4221 1.54957C59.9307 2.72535 58.6742 8.03767 57.6292 13.3537C56.5842 18.6697 55.6282 23.1123 55.5039 23.2263C55.3796 23.3404 50.224 23.5805 44.0456 23.7604L32.8118 24.0878L36.3475 19.9521C39.1042 16.7271 39.6513 15.5383 38.8335 14.5527C36.8945 12.2159 30.5084 9.56117 25.6143 9.05581C7.34342 7.16975 -5.88408 26.7972 2.65607 43.1237C6.59418 50.6512 7.45376 50.7987 12.9896 44.8892C15.585 42.1185 17.7121 40.1184 17.7168 40.4448C17.7205 40.7703 17.1066 44.3171 16.3518 48.3266C12.7012 67.7185 12.8097 73.3962 16.9935 81.7732C20.6238 89.042 30.7041 96.5594 39.0514 98.2238C46.043 99.6184 45.5423 98.5818 45.5423 111.665V123.544L38.3726 124.61C18.4382 127.575 18.2703 136.533 38.0916 139.595C50.7322 141.548 67.2941 138.868 70.2243 134.396C71.5994 132.296 71.5994 131.932 70.216 129.821C68.5496 127.278 62.4844 125.232 53.6559 124.237L48.3241 123.636V111.666V99.6954L50.8741 99.1724C64.3964 96.3962 72.6278 90.7269 77.763 80.6512C81.3525 73.6076 81.4164 66.9044 78.0801 47.2695C74.8171 28.063 74.4044 27.3582 65.281 25.4063C62.3295 24.7749 59.6692 24.0108 59.3678 23.7094C59.0674 23.4071 59.6933 18.8784 60.7587 13.6439L62.6967 4.12738L67.5287 7.38487C72.7029 10.8733 74.2876 11.3536 74.2876 9.43413C74.2876 8.76928 71.8878 6.5494 68.9558 4.50014C61.2187 -0.905839 61.4171 -0.83722 60.4221 1.54957ZM17.3616 12.7157C12.4508 14.0148 5.23388 21.1122 3.91252 25.9423C2.17111 32.3108 2.91663 37.8262 6.2956 43.553C8.30592 46.9598 8.4209 44.432 6.43747 40.4244C0.14317 27.7013 8.93368 13.4242 23.0615 13.4242C25.6904 13.4242 29.0193 14.1827 31.1418 15.2648C34.7748 17.1166 36.035 17.1499 34.9315 15.3649C34.2064 14.191 25.5503 11.5325 22.8872 11.6651C21.8329 11.718 19.346 12.1909 17.3616 12.7157ZM16.8396 17.6683C15.0778 18.4324 13.4356 19.2585 13.1908 19.5033C12.653 20.0402 19.6418 27.3332 20.6942 27.3332C21.1004 27.3332 21.4333 24.8296 21.4333 21.7696C21.4333 18.7096 21.1198 16.2227 20.7378 16.2421C20.3558 16.2625 18.6014 16.9042 16.8396 17.6683ZM24.2151 21.306C24.2151 24.1109 24.5507 26.4059 24.9606 26.4059C25.8916 26.4059 31.6332 20.5428 31.6332 19.5914C31.6332 18.973 25.975 16.206 24.7084 16.206C24.4367 16.206 24.2151 18.501 24.2151 21.306ZM9.55773 23.8726C9.03104 24.5069 8.31334 26.1704 7.9619 27.5706L7.32301 30.115H13.1314H18.9389L17.1725 28.1603C13.761 24.3854 10.6065 22.6088 9.55773 23.8726ZM34.9723 27.4306C29.1454 28.2809 25.1423 30.2819 25.1423 32.3442C25.1423 34.1672 32.4715 35.7843 43.352 36.362L52.7518 36.8618L53.7838 32.0521C54.3504 29.4066 54.8149 27.0541 54.8149 26.8241C54.8149 26.1417 40.8846 26.5673 34.9723 27.4306ZM57.2685 30.1345C56.3134 34.9108 56.5276 35.6786 58.8189 35.6786C61.7936 35.6786 70.3745 33.0498 71.069 31.926C71.7571 30.8123 66.582 28.5331 61.5321 27.7254C57.9806 27.158 57.849 27.2321 57.2685 30.1345ZM7.52423 34.7977C7.52423 36.2758 10.256 41.2422 11.0692 41.2422C11.4623 41.2422 13.4142 39.5732 15.406 37.5332L19.0279 33.8241H13.2761C9.87857 33.8241 7.52423 34.2228 7.52423 34.7977ZM21.9238 36.8377C21.4249 38.3631 18.6515 52.3472 18.6515 53.3348C18.6515 53.7557 19.7985 54.2333 21.2014 54.3946C24.6991 54.7971 24.42 56.4773 20.7981 56.8287C17.9579 57.1032 17.8197 57.3127 17.2021 62.2514C15.8149 73.3582 18.5087 81.1278 26.1364 88.0192C32.5994 93.8583 37.2386 95.4865 47.3968 95.4819C55.1265 95.4791 56.7743 95.1787 60.8422 93.0293C71.5373 87.3785 77.2141 78.3877 77.1779 67.1548C77.1445 56.4216 77.903 57.0058 63.9958 57.0058C55.1877 57.0058 51.8792 57.3155 51.6177 58.1649C51.4211 58.8029 51.0094 60.471 50.7016 61.874C50.3947 63.2769 49.5249 64.424 48.7701 64.424C47.0036 64.424 46.9906 64.5964 49.715 51.9958C50.99 46.0983 52.0331 40.9112 52.0331 40.4689C52.0331 40.0257 47.3393 39.422 41.6014 39.1271C35.8569 38.8323 29.3466 37.9375 27.1119 37.1354C22.2354 35.3847 22.3958 35.394 21.9238 36.8377ZM66.8694 37.0547C64.5744 37.6991 61.0425 38.5921 59.021 39.039C55.4251 39.8337 55.3212 39.9719 54.1937 45.4149C52.2204 54.9426 51.3776 54.224 64.5281 54.224H76.0958L75.6127 51.674C75.3475 50.2711 74.6084 46.2319 73.9705 42.6962C73.3325 39.1605 72.4127 36.1812 71.9268 36.0755C71.4399 35.9689 69.1644 36.4102 66.8694 37.0547ZM25.7905 48.321C25.4344 48.678 25.1423 53.0278 25.1423 57.9887C25.1423 65.3568 25.4103 67.1103 26.6093 67.5702C28.7828 68.4038 43.034 68.2258 44.4184 67.3467C45.2928 66.7922 45.5413 64.1254 45.3457 57.3925L45.0786 48.1968L35.7586 47.9343C30.6336 47.7906 26.1475 47.964 25.7905 48.321ZM28.8514 57.9331V64.424H35.3423H41.8332V57.9331V51.4422H35.3423H28.8514V57.9331ZM49.1614 69.676C45.6405 73.0744 42.7604 76.3199 42.7604 76.8874C42.7604 78.1995 54.9921 90.3875 56.3088 90.3875C56.8494 90.3875 60.1393 87.4388 63.6184 83.8345L69.9452 77.2815L63.0992 70.3891C59.3335 66.5984 56.0974 63.4967 55.9073 63.4967C55.7172 63.4967 52.6813 66.2776 49.1614 69.676ZM20.506 69.1846C20.506 74.1798 22.5488 79.213 26.3116 83.4877C29.9168 87.5834 32.5605 88.7796 32.5605 86.314C32.5605 85.6037 31.9337 84.7812 31.1668 84.4873C28.7207 83.5489 24.3968 75.6105 23.744 70.8583C23.017 65.5738 20.506 64.2765 20.506 69.1846ZM50.8397 72.5691L46.4695 77.0061L51.3701 81.8446L56.2698 86.684L60.8394 82.0448L65.409 77.4057L60.8422 72.7694C58.3302 70.2194 56.0352 68.133 55.7422 68.133C55.4492 68.133 53.2423 70.1294 50.8397 72.5691ZM33.1818 128.807C30.718 129.469 28.0326 130.682 27.2129 131.502C25.8443 132.87 26.0205 133.121 29.3735 134.576C34.925 136.986 56.446 137.35 62.6355 135.139C65.1521 134.241 67.3794 132.978 67.5853 132.333C68.1481 130.572 61.8983 128.347 54.6907 127.743L48.3241 127.209V130.126C48.3241 132.1 47.8743 133.042 46.9332 133.042C46.0059 133.042 45.5423 132.115 45.5423 130.26C45.5423 127.596 45.3763 127.481 41.6014 127.54C39.4334 127.576 35.6446 128.145 33.1818 128.807Z" fill="#058FA2"/>
<path fill-rule="evenodd" clip-rule="evenodd" d="M17.3616 12.7157C12.4508 14.0148 5.23388 21.1122 3.91252 25.9423C2.17111 32.3108 2.91663 37.8262 6.2956 43.553C8.30592 46.9598 8.4209 44.432 6.43747 40.4244C0.14317 27.7013 8.93368 13.4242 23.0615 13.4242C25.6904 13.4242 29.0193 14.1827 31.1418 15.2648C34.7748 17.1166 36.035 17.1499 34.9315 15.3649C34.2064 14.191 25.5503 11.5325 22.8872 11.6651C21.8329 11.718 19.346 12.1909 17.3616 12.7157ZM25.7905 48.321C25.4344 48.678 25.1423 53.0278 25.1423 57.9887C25.1423 65.3568 25.4103 67.1103 26.6093 67.5702C28.7828 68.4038 43.034 68.2258 44.4184 67.3467C45.2928 66.7922 45.5413 64.1254 45.3457 57.3925L45.0786 48.1968L35.7586 47.9343C30.6336 47.7906 26.1475 47.964 25.7905 48.321ZM28.8514 57.9331V64.424H35.3423H41.8332V57.9331V51.4422H35.3423H28.8514V57.9331ZM49.1614 69.676C45.6405 73.0744 42.7604 76.3199 42.7604 76.8874C42.7604 78.1995 54.9921 90.3875 56.3088 90.3875C56.8494 90.3875 60.1393 87.4388 63.6184 83.8345L69.9452 77.2815L63.0992 70.3891C59.3335 66.5984 56.0974 63.4967 55.9073 63.4967C55.7172 63.4967 52.6813 66.2776 49.1614 69.676ZM20.506 69.1846C20.506 74.1798 22.5488 79.213 26.3116 83.4877C29.9168 87.5834 32.5605 88.7796 32.5605 86.314C32.5605 85.6037 31.9337 84.7812 31.1668 84.4873C28.7207 83.5489 24.3968 75.6105 23.744 70.8583C23.017 65.5738 20.506 64.2765 20.506 69.1846ZM50.8397 72.5691L46.4695 77.0061L51.3701 81.8446L56.2698 86.684L60.8394 82.0448L65.409 77.4057L60.8422 72.7694C58.3302 70.2194 56.0352 68.133 55.7422 68.133C55.4492 68.133 53.2423 70.1294 50.8397 72.5691Z" fill="#FDD304"/>
</svg>
