<svg width="144" height="124" viewBox="0 0 144 124" fill="none" xmlns="http://www.w3.org/2000/svg">
<path fill-rule="evenodd" clip-rule="evenodd" d="M68.0856 0.549572C64.0185 2.02557 61.4004 5.95006 61.4004 10.5716C61.4004 16.8901 65.8328 21.2193 72.2721 21.1901C77.6871 21.1658 82.5996 16.0753 82.5996 10.4883C82.5996 6.59838 79.8896 2.49012 76.1957 0.780293C74.1658 -0.15898 70.3385 -0.267919 68.0856 0.549572ZM68.9089 3.51663C66.0801 4.70921 64.492 7.29409 64.492 10.7044C64.492 16.5597 70.6698 20.0037 75.7832 16.999C77.9035 15.7533 79.508 12.9846 79.508 10.5716C79.508 8.42733 78.0056 5.64937 76.1736 4.40586C74.3968 3.19955 70.7258 2.75051 68.9089 3.51663ZM67.5738 22.9318C61.9918 23.7192 57.6521 25.778 54.8525 28.9673C52.5104 31.635 51.6841 34.1996 51.6841 38.7989V42.5126L53.1195 42.3736L54.5548 42.235L54.7946 38.2494C55.0716 33.6469 55.7005 32.1771 58.3725 29.8831C64.6112 24.5292 78.5656 24.4574 85.3767 29.745C87.8897 31.6957 88.8662 33.9994 89.1276 38.597L89.3493 42.5033L90.7224 42.3691L92.0951 42.235L92.0624 38.1922C92.0346 34.7243 91.8579 33.7966 90.8209 31.6714C88.8891 27.7119 85.2429 25.0951 79.6026 23.6204C76.4677 22.8007 70.8018 22.4766 67.5738 22.9318ZM14.3647 26.4591C9.03042 27.8664 5.13197 33.1447 5.1651 38.9145C5.20661 46.1462 10.6689 51.5431 17.8979 51.4948C28.8393 51.4213 34.3401 38.6785 27.1363 30.0939C24.614 27.0888 18.5356 25.3586 14.3647 26.4591ZM121.845 26.7655C119.022 27.637 115.655 30.7693 114.396 33.6974C112.282 38.6103 113.341 44.1011 117.115 47.7958C119.87 50.4931 122.341 51.5121 126.102 51.5041C131.223 51.4931 135.493 48.6806 137.702 43.8642C138.608 41.8891 138.755 40.9937 138.613 38.3286C138.144 29.5408 130.324 24.1479 121.845 26.7655ZM14.396 29.803C11.7452 30.791 9.29408 33.5092 8.58612 36.2464C7.1883 41.65 10.2096 46.7932 15.6437 48.2607C21.3829 49.8103 27.381 44.7959 27.3907 38.4393C27.3947 36.0812 25.2871 32.2794 23.1557 30.7985C20.9258 29.2499 17.0587 28.8101 14.396 29.803ZM122.569 29.8309C121.554 30.1878 120.016 31.3144 118.954 32.4791C113.308 38.6732 117.654 48.3927 126.061 48.3732C129.115 48.3657 130.737 47.6687 132.788 45.4832C134.821 43.3164 135.599 41.4671 135.588 38.8251C135.56 31.9552 129.141 27.521 122.569 29.8309ZM64.9336 43.6104C49.6834 44.9841 37.6153 48.3834 28.6105 53.8415C26.7265 54.9836 25.1851 56.0557 25.1851 56.2235C25.1851 56.3918 25.5517 56.983 25.9995 57.5379L26.8143 58.5467L29.5106 56.9042C37.0668 52.3017 46.7403 49.111 58.0836 47.4805C64.7808 46.5177 78.9348 46.5368 85.8652 47.5181C97.178 49.1199 110.948 53.8096 114.992 57.4383C115.756 58.1238 115.861 58.1039 116.649 57.1283C117.755 55.7581 117.719 55.5225 116.236 54.4637C110.375 50.2797 97.3353 45.9248 86.158 44.4191C81.3992 43.7783 68.5198 43.2872 64.9336 43.6104ZM11.7148 52.4177C11.4719 52.4983 10.7303 52.6843 10.0665 52.8309C8.36485 53.2069 5.75868 55.6359 4.80957 57.7305C3.58532 60.4332 3.71384 61.0559 5.49678 61.0559C6.79965 61.0559 7.0452 60.8818 7.28458 59.7898C7.8256 57.32 11.2943 55.019 13.6223 55.5858C15.5602 56.0575 15.4021 55.9025 27.9807 69.6103L32.3222 74.3412H42.0031C47.3277 74.3412 51.6841 74.4506 51.6841 74.5848C51.6841 75.0599 50.2417 77.6749 49.5328 78.4845C49.1371 78.9366 48.0758 79.6841 47.1749 80.1451C45.7443 80.8771 44.5144 80.9839 37.4952 80.9839H29.4541L25.4214 76.6661C23.203 74.2912 20.4895 71.3755 19.3911 70.1869C17.5998 68.2481 17.2946 68.0785 16.4312 68.5417C15.9021 68.826 15.4688 69.3672 15.4688 69.7445C15.4688 70.1222 16.6745 71.7909 18.1478 73.4533L20.8265 76.4757L20.3561 83.1937C20.0973 86.8883 19.8853 91.1675 19.8853 92.7029C19.8853 95.3954 19.9286 95.503 21.0972 95.7266C21.7641 95.8546 22.438 95.8794 22.5953 95.782C22.7529 95.6841 23.0268 92.1156 23.2039 87.8515C23.381 83.5869 23.6632 80.0982 23.831 80.0982C23.9993 80.0982 24.7205 80.7204 25.4337 81.4812C27.6597 83.8548 28.7519 84.0855 37.6476 84.0643C43.2292 84.051 46.2333 83.8619 47.3789 83.4518C51.4862 81.982 54.2558 78.3476 54.6582 73.8984L54.8984 71.2413H44.3046H33.7107L31.3249 68.6772C24.6383 61.4912 19.6031 55.9569 19.0833 55.2223C18.0158 53.7148 13.2601 51.9045 11.7148 52.4177ZM129.194 52.5966C126.904 53.1741 126.111 53.8154 121.634 58.715C119.234 61.3419 116.142 64.6872 114.765 66.1486C113.387 67.61 111.832 69.3539 111.31 70.0235L110.36 71.2413H99.5709H88.7827V72.4892C88.7827 76.7255 91.6826 81.1955 95.6283 83.0418C97.6926 84.008 98.374 84.0754 106.089 84.0794C110.628 84.082 114.807 83.9062 115.376 83.6892C115.946 83.4718 117.228 82.4515 118.225 81.421L120.038 79.5477L120.36 83.1897C120.537 85.1927 120.688 88.8036 120.697 91.2145L120.712 95.5977H122.477H124.241L123.96 91.28C123.806 88.905 123.548 84.5085 123.387 81.5095L123.096 76.0568L125.287 73.7597C128.814 70.062 128.818 70.0545 127.658 68.8163C126.882 67.9882 126.537 67.8659 126.137 68.2756C125.853 68.5669 123.354 71.2966 120.584 74.3412C117.815 77.3858 115.24 80.1194 114.863 80.4161C113.837 81.2239 98.9433 81.1871 97.0495 80.3723C95.2233 79.5867 92.9033 77.1218 92.5195 75.559L92.2201 74.3412H101.899H111.578L119.713 65.4197C124.867 59.7676 128.383 56.274 129.31 55.8861C132.08 54.7254 135.628 56.5574 136.422 59.5586C136.696 60.5949 137.036 60.8615 138.229 60.9779L139.697 61.1214L139.449 59.265C138.87 54.9366 133.573 51.4922 129.194 52.5966ZM67.3627 59.4297C63.6952 60.8716 61.4309 62.9136 59.5291 66.4931C58.0938 69.1953 58.0938 75.5014 59.5291 78.2037C62.1265 83.0927 66.4794 85.8543 71.5902 85.8547C73.1863 85.8551 75.4113 85.5412 76.534 85.1577C79.0708 84.291 82.2299 81.5503 83.8212 78.8365C84.9192 76.9633 85.0287 76.3756 85.0287 72.3484C85.0287 68.6325 84.8723 67.6268 84.0571 66.0985C82.7295 63.6106 79.054 60.4 76.5561 59.5466C74.1738 58.7327 69.2936 58.6707 67.3627 59.4297ZM67.2532 62.8733C61.8094 65.5751 59.7999 72.5636 62.9824 77.7254C64.9429 80.905 67.4068 82.4523 70.8614 82.6729C74.3637 82.8965 76.4589 82.2283 78.7515 80.1553C81.1135 78.0203 82.1385 75.6578 82.1385 72.3484C82.1385 67.9665 79.7408 64.2435 75.8786 62.6284C73.4941 61.6311 69.5294 61.7436 67.2532 62.8733ZM0.116154 79.7439L0.231867 95.7749L1.55682 95.7753H2.88177L2.99836 81.5153C3.12644 65.8448 3.06064 66.1596 5.72864 68.4106C7.87683 70.2232 8.03759 70.8613 7.9815 77.3694C7.95279 80.6969 8.06276 86.2161 8.22529 89.6344L8.52075 95.8488L10.0559 95.669L11.5911 95.4897L11.3924 83.2548C11.2731 75.8801 11.0024 70.5558 10.7113 69.8512C9.32014 66.4856 5.36561 63.7408 1.88275 63.7227L0 63.7129L0.116154 79.7439ZM138.91 64.2541C136.725 65.0308 135.228 66.3115 133.943 68.5023L132.727 70.577L132.591 83.0874L132.456 95.5977H134.027H135.598V83.8446C135.598 73.0817 135.67 71.9498 136.455 70.4056C137.338 68.6719 139.027 67.2557 140.213 67.2557C140.798 67.2557 140.9 69.0775 141.002 81.316L141.118 95.3763H142.443H143.768L143.884 79.5446L144 63.7129L142.118 63.7479C141.082 63.767 139.639 63.995 138.91 64.2541ZM25.8727 87.5986C25.447 88.0703 25.2341 88.6765 25.3997 88.9453C26.4403 90.633 37.073 95.8497 42.5441 97.3563C44.7679 97.9687 45.2029 97.8097 45.6838 96.2093C45.9404 95.3546 45.5443 95.1243 41.2616 93.6413C36.1747 91.8792 32.2179 90.0166 29.3013 88.0105C27.1147 86.507 26.8832 86.4791 25.8727 87.5986ZM114.793 87.8156C111.824 89.8385 103.58 93.837 101.259 94.3795C99.0462 94.8971 98.9407 94.9875 98.9407 96.367C98.9407 98.2172 99.2454 98.2083 104.591 96.2066C109.857 94.2342 115.122 91.6197 116.973 90.0578C118.333 88.9103 118.346 88.863 117.595 87.8271C116.643 86.5145 116.702 86.5145 114.793 87.8156ZM63.8295 89.5795C57.8292 90.7477 53.5086 92.9163 50.2744 96.3833C46.1198 100.837 45.3977 103.786 45.5884 115.526L45.7218 123.718L47.1196 123.854L48.5175 123.99L48.6654 114.333C48.8085 104.99 48.8509 104.597 49.9674 102.24C53.267 95.2758 61.7497 91.6591 73.5458 92.1874C82.2547 92.5775 87.2042 94.3409 91.2484 98.4944C94.3254 101.655 94.9654 103.664 94.968 110.18C94.9693 112.998 95.0987 117.247 95.2555 119.622C95.5254 123.706 95.5938 123.94 96.5239 123.94C98.5158 123.94 98.6381 123.234 98.2994 113.68C98.0017 105.29 97.9063 104.561 96.6988 101.416C95.6941 98.8004 94.9075 97.5852 93.087 95.8386C90.5573 93.4105 86.4738 91.2153 82.3492 90.0662C78.7471 89.0627 67.9426 88.7788 63.8295 89.5795ZM64.7128 97.1419C59.1104 98.6653 55.7906 100.997 53.8778 104.751C52.8487 106.772 52.7807 107.365 52.6513 115.445L52.5144 124L53.9763 123.859L55.4381 123.718L55.659 115.526C55.9032 106.47 56.1041 105.71 58.9126 103.237C61.5104 100.95 64.9128 99.9248 70.6865 99.6892C78.9255 99.3526 84.3662 101.373 86.9114 105.714C88.0787 107.705 88.1277 108.05 88.341 115.747L88.5619 123.718H89.8868H91.2118L91.2078 115.304C91.2038 107.38 91.1447 106.779 90.1885 104.975C88.1322 101.097 84.2708 98.4054 78.9644 97.1512C75.5253 96.3382 67.6882 96.3333 64.7128 97.1419Z" fill="#058FA2"/>
<path fill-rule="evenodd" clip-rule="evenodd" d="M64.9336 43.6104C49.6834 44.9841 37.6153 48.3834 28.6105 53.8415C26.7265 54.9836 25.1851 56.0557 25.1851 56.2235C25.1851 56.3918 25.5517 56.983 25.9995 57.5379L26.8143 58.5467L29.5106 56.9042C37.0668 52.3017 46.7403 49.111 58.0836 47.4805C64.7808 46.5177 78.9348 46.5368 85.8652 47.5181C97.178 49.1199 110.948 53.8096 114.992 57.4383C115.756 58.1238 115.861 58.1039 116.649 57.1283C117.755 55.7581 117.719 55.5225 116.236 54.4637C110.375 50.2797 97.3353 45.9248 86.158 44.4191C81.3992 43.7783 68.5198 43.2872 64.9336 43.6104ZM25.8727 87.5986C25.447 88.0703 25.2341 88.6765 25.3997 88.9453C26.4403 90.633 37.073 95.8497 42.5441 97.3563C44.7679 97.9687 45.2029 97.8097 45.6838 96.2093C45.9404 95.3546 45.5443 95.1243 41.2616 93.6413C36.1747 91.8792 32.2179 90.0166 29.3013 88.0105C27.1147 86.507 26.8832 86.4791 25.8727 87.5986ZM114.793 87.8156C111.824 89.8385 103.58 93.837 101.259 94.3795C99.0462 94.8971 98.9407 94.9875 98.9407 96.367C98.9407 98.2172 99.2454 98.2083 104.591 96.2066C109.857 94.2342 115.122 91.6197 116.973 90.0578C118.333 88.9103 118.346 88.863 117.595 87.8271C116.643 86.5145 116.702 86.5145 114.793 87.8156Z" fill="#FDD304"/>
</svg>
