<svg width="114" height="104" viewBox="0 0 114 104" fill="none" xmlns="http://www.w3.org/2000/svg">
<path fill-rule="evenodd" clip-rule="evenodd" d="M54.3295 0.271708C46.3618 1.34032 39.9855 6.57265 38.9588 12.884C38.7285 14.301 38.8507 14.9737 39.4239 15.4418C40.8423 16.5989 41.9556 15.903 42.3538 13.6105C43.5505 6.71945 51.8174 2.40102 61.3132 3.70638C65.2221 4.24365 70.0084 6.63443 71.801 8.94415C72.509 9.85657 73.3532 11.7605 73.6775 13.1756C74.301 15.898 75.3122 16.637 76.7774 15.4418C78.0998 14.3623 76.7699 9.54123 74.3282 6.56524C72.6975 4.57827 68.5925 2.0926 65.4846 1.20983C61.1095 -0.0327613 58.3385 -0.265562 54.3295 0.271708ZM54.5809 10.4986C52.0573 11.1535 49.1434 12.8474 47.3076 14.7256C46.3492 15.7062 44.7387 16.7269 43.728 16.9948C38.6435 18.3402 36.2084 23.8103 38.6676 28.3595C39.7361 30.3361 42.4031 32.3058 44.0121 32.3058C44.6844 32.3058 45.7227 33.0546 46.6901 34.2379C47.6078 35.3604 49.5723 36.8101 51.38 37.6978C57.3238 40.6174 64.313 39.4564 68.7363 34.8137C69.8531 33.6413 71.4405 32.5766 72.4909 32.2954C76.1801 31.3078 78.4649 28.2963 78.4649 24.4217C78.4649 20.7349 76.1992 17.9809 72.3229 16.9548C71.1448 16.6429 69.7238 15.7443 68.8344 14.7488C65.8295 11.3849 59.0057 9.34995 54.5809 10.4986ZM54.4376 14.1449C53.529 14.431 51.7928 15.5244 50.579 16.5747C44.968 21.4294 45.6212 30.0653 51.9089 34.1548C53.7709 35.3663 54.4668 35.5185 58.1464 35.5185C61.9412 35.5185 62.4686 35.3935 64.4462 34.0273C67.35 32.0211 69.4181 28.1351 69.403 24.7118C69.3704 17.195 61.7763 11.8332 54.4376 14.1449ZM42.2985 21.7457C41.7253 22.4619 41.2562 23.747 41.2562 24.6011C41.2562 26.0745 42.4192 28.3526 43.1704 28.3506C43.362 28.3501 43.5189 26.5703 43.5189 24.396C43.5189 22.2217 43.4786 20.4428 43.4299 20.4428C43.3806 20.4433 42.8712 21.0295 42.2985 21.7457ZM72.6784 24.3609C72.6804 26.5535 72.8393 28.3482 73.0309 28.3492C73.223 28.3506 73.7318 27.8574 74.1622 27.2529C75.2971 25.6608 75.1412 23.1939 73.8098 21.6721L72.6744 20.3746L72.6784 24.3609ZM9.90078 24.3471C7.79749 25.7103 6.56809 27.8252 6.56759 30.0816C6.56709 32.5692 11.7049 52.1625 12.7809 53.7773C13.2209 54.4367 14.399 55.5903 15.3996 56.3406C18.054 58.3305 21.6351 58.4709 27.7811 56.825C30.4274 56.1162 32.9068 55.5364 33.2905 55.5364C33.8235 55.5364 34.3751 58.4333 35.6201 67.7696C36.5171 74.4981 37.2472 80.281 37.2421 80.6206C37.2356 81.1005 33.9472 81.2384 22.501 81.2384C11.7124 81.2384 7.60692 81.3971 7.16494 81.8315C6.82352 82.1671 6.56155 83.7755 6.56155 85.5386V88.6524H3.89661C2.43089 88.6524 0.960136 88.9193 0.628274 89.2456C-0.209425 90.069 -0.209425 102.558 0.628274 103.382C1.39105 104.131 111.96 104.237 113.159 103.489C113.739 103.128 113.865 102.301 113.705 99.9139C113.396 95.3177 113.45 92.488 113.87 91.321C114.46 89.679 113.012 88.6524 110.107 88.6524H107.628V85.5386C107.628 83.7755 107.366 82.1671 107.025 81.8315C106.653 81.4663 104.833 81.2384 102.291 81.2384H98.1599L97.9829 70.4881C97.7405 55.7435 97.8853 56.0421 86.7614 47.3666C77.9012 40.4568 80.3459 40.9555 55.3351 40.9555C34.4776 40.9555 33.8526 40.9837 29.2785 42.1314C26.6276 42.7966 24.4187 43.1189 24.1925 42.8728C23.9727 42.634 22.9334 38.9908 21.883 34.7771C20.1221 27.712 19.828 26.9716 18.1033 25.2624C16.451 23.6244 15.9487 23.4094 13.7861 23.4124C12.2364 23.4144 10.8109 23.7574 9.90078 24.3471ZM11.0869 27.8574C10.5338 28.4011 10.0813 29.4108 10.0813 30.1013C10.0813 31.4828 14.3055 48.5381 15.1895 50.7272C16.0488 52.8545 18.4176 54.5464 20.5535 54.5578C21.5692 54.5632 25.3987 53.8485 29.0633 52.9697C34.8935 51.5719 35.8136 51.4622 36.4226 52.0948C36.8706 52.5604 37.8023 57.8827 39.0362 67.0282L40.9535 81.2384H42.7641C45.2873 81.2384 45.7815 81.9427 45.7815 85.5386V88.6524H57.095H68.4085V85.9013C68.4085 82.2289 68.9998 81.2384 71.1916 81.2384C72.15 81.2384 72.9379 81.0714 72.9434 80.8677C73.0193 77.8912 76.0342 54.7624 76.3923 54.4105C77.24 53.5771 79.1185 54.4475 82.1304 57.0711C86.873 61.2022 87.2039 62.1646 87.4251 72.4651L87.6132 81.2384H91.0842H94.5551L94.5431 71.7237C94.5305 61.6757 94.2047 59.1238 92.6706 57.0573C91.4462 55.4089 80.8261 46.9233 78.2135 45.5062C76.25 44.4411 75.7305 44.4119 56.3408 44.2607L36.4794 44.1055L29.6234 45.6945C25.8523 46.5684 22.4401 47.16 22.0404 47.0093C21.5763 46.8338 20.5118 43.5657 19.0918 37.9543C17.8695 33.1248 16.4571 28.6546 15.9527 28.021C14.8043 26.5767 12.4697 26.4981 11.0869 27.8574ZM78.9637 59.0966C78.9617 59.1772 78.399 63.9143 77.7137 69.6231C77.0278 75.3319 76.4642 80.281 76.4601 80.6206C76.4556 81.0605 77.5397 81.2384 80.2247 81.2384H83.9959V73.427C83.9959 66.0629 83.9235 65.4762 82.7323 63.1709C82.0374 61.8265 80.9061 60.3264 80.2182 59.838C79.5303 59.3497 78.9662 59.0161 78.9637 59.0966ZM10.0813 86.6754V88.6524H26.1716H42.2618V86.6754V84.6983H26.1716H10.0813V86.6754ZM71.9282 86.6754V88.6524H88.0185H104.109V86.6754V84.6983H88.0185H71.9282V86.6754ZM102.64 91.4945C102.608 91.9843 92.3382 92.1123 53.0724 92.1123H3.54463V96.3161V100.519L56.9693 100.394L110.394 100.268L110.542 96.6843C110.64 94.3019 110.893 93.0984 111.296 93.0935C111.671 93.0885 111.615 92.9027 111.148 92.6066C110.733 92.3432 108.772 92.1242 106.79 92.1197C104.384 92.1148 103.103 91.9072 102.933 91.4945C102.73 91.0002 102.672 91.0002 102.64 91.4945Z" fill="#058FA2"/>
<mask id="path-2-inside-1_2872_5231" fill="white">
<path fill-rule="evenodd" clip-rule="evenodd" d="M54.3295 0.271708C46.3618 1.34032 39.9855 6.57265 38.9588 12.884C38.7285 14.301 38.8507 14.9737 39.4239 15.4418C40.8423 16.5989 41.9556 15.903 42.3538 13.6105C43.5505 6.71945 51.8174 2.40102 61.3132 3.70638C65.2221 4.24365 70.0084 6.63443 71.801 8.94415C72.509 9.85657 73.3532 11.7605 73.6775 13.1756C74.301 15.898 75.3122 16.637 76.7774 15.4418C78.0998 14.3623 76.7699 9.54123 74.3282 6.56524C72.6975 4.57827 68.5925 2.0926 65.4846 1.20983C61.1095 -0.0327612 58.3385 -0.265562 54.3295 0.271708ZM54.5809 10.4986C52.0573 11.1535 49.1434 12.8474 47.3076 14.7256C46.3492 15.7062 44.7387 16.7269 43.728 16.9948C38.6435 18.3402 36.2084 23.8103 38.6676 28.3595C39.7361 30.3361 42.4031 32.3058 44.0121 32.3058C44.6844 32.3058 45.7227 33.0546 46.6901 34.2379C47.6078 35.3604 49.5723 36.8101 51.38 37.6978C57.3238 40.6174 64.313 39.4564 68.7363 34.8137C69.8531 33.6413 71.4405 32.5766 72.4909 32.2954C76.1801 31.3078 78.4649 28.2963 78.4649 24.4217C78.4649 20.7349 76.1992 17.9809 72.3229 16.9548C71.1448 16.6429 69.7238 15.7443 68.8344 14.7488C65.8295 11.3849 59.0057 9.34995 54.5809 10.4986ZM54.4376 14.1449C53.529 14.431 51.7928 15.5244 50.579 16.5747C44.968 21.4294 45.6212 30.0653 51.9089 34.1548C53.7709 35.3663 54.4668 35.5185 58.1464 35.5185C61.9412 35.5185 62.4687 35.3935 64.4462 34.0273C67.35 32.0211 69.4181 28.1351 69.403 24.7118C69.3704 17.195 61.7763 11.8332 54.4376 14.1449ZM42.2985 21.7457C41.7253 22.4619 41.2562 23.747 41.2562 24.6011C41.2562 26.0745 42.4192 28.3526 43.1704 28.3506C43.362 28.3501 43.5189 26.5703 43.5189 24.396C43.5189 22.2217 43.4786 20.4428 43.4299 20.4428C43.3806 20.4433 42.8712 21.0295 42.2985 21.7457ZM72.6784 24.3609C72.6804 26.5535 72.8393 28.3482 73.0309 28.3492C73.223 28.3506 73.7318 27.8574 74.1622 27.2529C75.2971 25.6608 75.1412 23.1939 73.8098 21.6721L72.6744 20.3746L72.6784 24.3609Z"/>
</mask>
<path fill-rule="evenodd" clip-rule="evenodd" d="M54.3295 0.271708C46.3618 1.34032 39.9855 6.57265 38.9588 12.884C38.7285 14.301 38.8507 14.9737 39.4239 15.4418C40.8423 16.5989 41.9556 15.903 42.3538 13.6105C43.5505 6.71945 51.8174 2.40102 61.3132 3.70638C65.2221 4.24365 70.0084 6.63443 71.801 8.94415C72.509 9.85657 73.3532 11.7605 73.6775 13.1756C74.301 15.898 75.3122 16.637 76.7774 15.4418C78.0998 14.3623 76.7699 9.54123 74.3282 6.56524C72.6975 4.57827 68.5925 2.0926 65.4846 1.20983C61.1095 -0.0327612 58.3385 -0.265562 54.3295 0.271708ZM54.5809 10.4986C52.0573 11.1535 49.1434 12.8474 47.3076 14.7256C46.3492 15.7062 44.7387 16.7269 43.728 16.9948C38.6435 18.3402 36.2084 23.8103 38.6676 28.3595C39.7361 30.3361 42.4031 32.3058 44.0121 32.3058C44.6844 32.3058 45.7227 33.0546 46.6901 34.2379C47.6078 35.3604 49.5723 36.8101 51.38 37.6978C57.3238 40.6174 64.313 39.4564 68.7363 34.8137C69.8531 33.6413 71.4405 32.5766 72.4909 32.2954C76.1801 31.3078 78.4649 28.2963 78.4649 24.4217C78.4649 20.7349 76.1992 17.9809 72.3229 16.9548C71.1448 16.6429 69.7238 15.7443 68.8344 14.7488C65.8295 11.3849 59.0057 9.34995 54.5809 10.4986ZM54.4376 14.1449C53.529 14.431 51.7928 15.5244 50.579 16.5747C44.968 21.4294 45.6212 30.0653 51.9089 34.1548C53.7709 35.3663 54.4668 35.5185 58.1464 35.5185C61.9412 35.5185 62.4687 35.3935 64.4462 34.0273C67.35 32.0211 69.4181 28.1351 69.403 24.7118C69.3704 17.195 61.7763 11.8332 54.4376 14.1449ZM42.2985 21.7457C41.7253 22.4619 41.2562 23.747 41.2562 24.6011C41.2562 26.0745 42.4192 28.3526 43.1704 28.3506C43.362 28.3501 43.5189 26.5703 43.5189 24.396C43.5189 22.2217 43.4786 20.4428 43.4299 20.4428C43.3806 20.4433 42.8712 21.0295 42.2985 21.7457ZM72.6784 24.3609C72.6804 26.5535 72.8393 28.3482 73.0309 28.3492C73.223 28.3506 73.7318 27.8574 74.1622 27.2529C75.2971 25.6608 75.1412 23.1939 73.8098 21.6721L72.6744 20.3746L72.6784 24.3609Z" fill="#FDD304"/>
<path d="M9.90078 24.3471L9.62891 23.9274L9.62884 23.9275L9.90078 24.3471ZM6.56759 30.0816L6.06759 30.0815V30.0815L6.56759 30.0816ZM12.7809 53.7773L12.3649 54.0546L12.365 54.0548L12.7809 53.7773ZM15.3996 56.3406L15.0997 56.7406L15.0997 56.7407L15.3996 56.3406ZM27.7811 56.825L27.9104 57.308L27.9104 57.308L27.7811 56.825ZM7.16494 81.8315L6.81443 81.475L7.16494 81.8315ZM6.56155 88.6524V89.1524H7.06155V88.6524H6.56155ZM0.628274 89.2456L0.277766 88.889L0.628274 89.2456ZM0.628274 103.382L0.277766 103.738H0.277766L0.628274 103.382ZM113.159 103.489L112.895 103.065L112.895 103.065L113.159 103.489ZM113.705 99.9139L113.206 99.9474L113.206 99.9475L113.705 99.9139ZM113.87 91.321L114.34 91.4903L114.34 91.4902L113.87 91.321ZM107.628 88.6524H107.128V89.1524H107.628V88.6524ZM107.025 81.8315L106.675 82.1881L107.025 81.8315ZM29.2785 42.1314L29.1568 41.6464L29.1568 41.6464L29.2785 42.1314ZM24.1925 42.8728L24.5606 42.5344L24.5603 42.5341L24.1925 42.8728ZM21.883 34.7771L21.3978 34.898L21.3978 34.8981L21.883 34.7771ZM18.1033 25.2624L17.7513 25.6175L17.7513 25.6176L18.1033 25.2624ZM13.7861 23.4124L13.7867 23.9124H13.7868L13.7861 23.4124ZM15.1895 50.7272L14.7258 50.9144L14.7258 50.9145L15.1895 50.7272ZM20.5535 54.5578L20.5562 54.0578H20.5562L20.5535 54.5578ZM29.0633 52.9697L28.9467 52.4835L28.9467 52.4835L29.0633 52.9697ZM72.9434 80.8677L73.4432 80.8813L73.4432 80.8805L72.9434 80.8677ZM76.3923 54.4105L76.0417 54.0539L76.3923 54.4105ZM78.2135 45.5062L77.975 45.9457L77.9751 45.9457L78.2135 45.5062ZM56.3408 44.2607L56.3369 44.7606H56.3369L56.3408 44.2607ZM36.4794 44.1055L36.4833 43.6055L36.4241 43.605L36.3665 43.6184L36.4794 44.1055ZM29.6234 45.6945L29.7363 46.1816L29.7363 46.1816L29.6234 45.6945ZM22.0404 47.0093L21.8636 47.477L21.8639 47.4771L22.0404 47.0093ZM19.0918 37.9543L19.5766 37.8316L19.5766 37.8316L19.0918 37.9543ZM15.9527 28.021L15.5614 28.3322L15.5615 28.3323L15.9527 28.021ZM110.542 96.6843L111.041 96.7049L111.041 96.7049L110.542 96.6843ZM111.296 93.0935L111.302 93.5934L111.303 93.5934L111.296 93.0935ZM111.148 92.6066L110.88 93.0287L110.88 93.0288L111.148 92.6066ZM106.79 92.1197L106.791 91.6197H106.791L106.79 92.1197ZM102.933 91.4945L102.47 91.6842L102.471 91.6844L102.933 91.4945ZM9.62884 23.9275C7.40201 25.3707 6.06813 27.6346 6.06759 30.0815L7.06759 30.0817C7.06805 28.0159 8.19296 26.0498 10.1727 24.7666L9.62884 23.9275ZM6.06759 30.0815C6.06752 30.4449 6.15701 31.0667 6.2985 31.838C6.44273 32.6242 6.64918 33.6071 6.89913 34.7163C7.39917 36.9355 8.07648 39.6743 8.78691 42.3836C9.49733 45.0928 10.2421 47.7772 10.8773 49.8876C11.1948 50.9422 11.4861 51.8577 11.7331 52.5628C11.8565 52.9151 11.9703 53.2194 12.0721 53.4643C12.1701 53.7002 12.2687 53.9102 12.3649 54.0546L13.197 53.5001C13.1587 53.4426 13.091 53.3102 12.9956 53.0806C12.9038 52.8599 12.797 52.5751 12.6769 52.2323C12.4369 51.5471 12.1504 50.6475 11.8349 49.5993C11.2041 47.504 10.4627 44.8318 9.75421 42.13C9.04575 39.4282 8.37144 36.7012 7.87467 34.4965C7.6262 33.3938 7.42293 32.4253 7.28208 31.6575C7.13849 30.8748 7.06754 30.3402 7.06759 30.0817L6.06759 30.0815ZM12.365 54.0548C12.8491 54.7804 14.0767 55.9735 15.0997 56.7406L15.6996 55.9406C14.7214 55.2071 13.5927 54.093 13.1968 53.4998L12.365 54.0548ZM15.0997 56.7407C17.9525 58.8793 21.7413 58.9601 27.9104 57.308L27.6517 56.342C21.5289 57.9817 18.1555 57.7817 15.6995 55.9405L15.0997 56.7407ZM27.9104 57.308C29.2294 56.9547 30.5056 56.6339 31.4982 56.4018C31.9948 56.2856 32.4175 56.1923 32.7378 56.1284C32.8982 56.0964 33.0295 56.0724 33.1298 56.0567C33.1799 56.0488 33.2196 56.0434 33.2495 56.0401C33.282 56.0365 33.2933 56.0364 33.2905 56.0364V55.0364C33.1344 55.0364 32.8534 55.0856 32.542 55.1478C32.2068 55.2147 31.7724 55.3107 31.2704 55.428C30.2658 55.663 28.9791 55.9865 27.6517 56.342L27.9104 57.308ZM36.7422 80.6138C36.7458 80.3462 36.9734 80.2839 36.8749 80.3273C36.8209 80.3511 36.6974 80.3878 36.4644 80.4262C36.0085 80.5014 35.2652 80.5628 34.1405 80.6099C31.8989 80.7039 28.2256 80.7384 22.501 80.7384V81.7384C28.2225 81.7384 31.9165 81.704 34.1824 81.609C35.3114 81.5617 36.1067 81.4987 36.627 81.4129C36.8821 81.3709 37.106 81.3182 37.2778 81.2425C37.4051 81.1865 37.7368 81.0149 37.7421 80.6274L36.7422 80.6138ZM22.501 80.7384C17.1067 80.7384 13.3745 80.778 10.9337 80.8724C9.71483 80.9195 8.80623 80.9807 8.16928 81.0593C7.85186 81.0985 7.58831 81.1436 7.38184 81.1976C7.20307 81.2443 6.9726 81.3195 6.81443 81.475L7.51545 82.1881C7.46777 82.235 7.46229 82.2101 7.63478 82.165C7.77957 82.1272 7.99356 82.0886 8.29176 82.0518C8.88604 81.9785 9.76098 81.9185 10.9723 81.8717C13.3919 81.7781 17.1067 81.7384 22.501 81.7384V80.7384ZM6.81443 81.475C6.636 81.6504 6.52611 81.9168 6.45066 82.1512C6.36783 82.4086 6.29817 82.7226 6.24171 83.0694C6.12852 83.7647 6.06155 84.6349 6.06155 85.5386H7.06155C7.06155 84.6792 7.12558 83.8636 7.22872 83.2301C7.28043 82.9125 7.34028 82.6512 7.40259 82.4576C7.47228 82.241 7.52318 82.1805 7.51545 82.1881L6.81443 81.475ZM6.06155 85.5386V88.6524H7.06155V85.5386H6.06155ZM6.56155 88.1524H3.89661V89.1524H6.56155V88.1524ZM3.89661 88.1524C3.13635 88.1524 2.37221 88.2214 1.74796 88.3347C1.4364 88.3913 1.14968 88.4606 0.911145 88.5421C0.691648 88.6171 0.44554 88.7241 0.277766 88.889L0.978782 89.6021C0.976939 89.604 1.03912 89.5552 1.23453 89.4884C1.4109 89.4281 1.6457 89.3696 1.92652 89.3186C2.48705 89.2169 3.19115 89.1524 3.89661 89.1524V88.1524ZM0.277766 88.889C0.135273 89.0291 0.0562104 89.2248 0.00686351 89.3723C-0.0492126 89.5399 -0.0967518 89.7417 -0.138153 89.9641C-0.221255 90.4106 -0.28837 90.9887 -0.341316 91.6458C-0.447444 92.9629 -0.5 94.6412 -0.5 96.3136C-0.5 97.9861 -0.447444 99.6644 -0.341316 100.981C-0.28837 101.639 -0.221255 102.217 -0.138153 102.663C-0.0967518 102.886 -0.0492126 103.087 0.00686351 103.255C0.0562104 103.402 0.135273 103.598 0.277766 103.738L0.978782 103.025C1.01656 103.062 0.997458 103.064 0.955181 102.938C0.919634 102.831 0.882095 102.68 0.844961 102.48C0.770994 102.083 0.707219 101.544 0.655453 100.901C0.552157 99.6192 0.5 97.9693 0.5 96.3136C0.5 94.6579 0.552157 93.008 0.655453 91.7261C0.707219 91.0836 0.770994 90.5445 0.844961 90.1471C0.882095 89.9476 0.919634 89.7959 0.955181 89.6896C0.997458 89.5633 1.01656 89.565 0.978782 89.6021L0.277766 88.889ZM0.277766 103.738C0.340356 103.8 0.40465 103.831 0.433084 103.845C0.467721 103.861 0.499474 103.871 0.522445 103.878C0.568443 103.892 0.615838 103.902 0.65685 103.909C0.740869 103.924 0.846798 103.936 0.967157 103.948C1.21049 103.971 1.55184 103.993 1.98008 104.014C2.83859 104.056 4.07112 104.095 5.62159 104.132C8.72377 104.205 13.1128 104.268 18.3594 104.32C28.8533 104.424 42.785 104.484 56.7295 104.497C70.6741 104.51 84.6331 104.477 95.1816 104.393C100.455 104.352 104.879 104.297 108.022 104.23C109.593 104.197 110.847 104.16 111.729 104.119C112.169 104.099 112.522 104.078 112.778 104.055C112.904 104.044 113.014 104.032 113.102 104.018C113.145 104.011 113.191 104.002 113.234 103.991C113.264 103.984 113.344 103.963 113.424 103.914L112.895 103.065C112.932 103.042 112.961 103.031 112.97 103.028C112.974 103.027 112.983 103.024 112.984 103.023C112.985 103.023 112.99 103.022 112.988 103.022C112.987 103.023 112.988 103.022 112.986 103.023C112.982 103.024 112.981 103.024 112.977 103.025C112.969 103.026 112.959 103.028 112.946 103.03C112.891 103.039 112.807 103.049 112.689 103.059C112.455 103.08 112.119 103.1 111.684 103.12C110.814 103.16 109.569 103.197 108 103.23C104.864 103.298 100.446 103.352 95.1737 103.394C84.6292 103.477 70.6734 103.51 56.7305 103.497C42.7876 103.484 28.8591 103.424 18.3693 103.32C13.124 103.268 8.74042 103.205 5.6452 103.132C4.09696 103.096 2.8746 103.057 2.02906 103.015C1.60528 102.994 1.28232 102.973 1.06243 102.952C0.951175 102.942 0.875763 102.932 0.830385 102.924C0.806699 102.92 0.802382 102.918 0.809862 102.92C0.813574 102.921 0.829367 102.926 0.851368 102.936C0.867167 102.944 0.922152 102.969 0.978782 103.025L0.277766 103.738ZM113.424 103.914C113.884 103.627 114.108 103.168 114.204 102.537C114.297 101.926 114.284 101.073 114.203 99.8802L113.206 99.9475C113.286 101.142 113.29 101.896 113.215 102.386C113.144 102.856 113.015 102.99 112.895 103.065L113.424 103.914ZM114.203 99.8804C114.05 97.589 113.987 95.7485 114.014 94.3411C114.041 92.9156 114.161 91.9896 114.34 91.4903L113.399 91.1517C113.159 91.8194 113.042 92.8917 113.014 94.3219C112.986 95.7701 113.051 97.6425 113.206 99.9474L114.203 99.8804ZM114.34 91.4902C114.516 91.0024 114.554 90.5188 114.418 90.0677C114.283 89.6149 113.988 89.2461 113.588 88.9631C112.811 88.4117 111.596 88.1524 110.107 88.1524V89.1524C111.523 89.1524 112.485 89.4065 113.01 89.7789C113.262 89.9577 113.4 90.1535 113.461 90.355C113.522 90.5582 113.519 90.8187 113.399 91.1518L114.34 91.4902ZM110.107 88.1524H107.628V89.1524H110.107V88.1524ZM108.128 88.6524V85.5386H107.128V88.6524H108.128ZM108.128 85.5386C108.128 84.6349 108.062 83.7647 107.948 83.0694C107.892 82.7226 107.822 82.4086 107.739 82.1512C107.664 81.9168 107.554 81.6504 107.376 81.475L106.675 82.1881C106.667 82.1805 106.718 82.241 106.787 82.4576C106.85 82.6512 106.91 82.9125 106.961 83.2301C107.064 83.8636 107.128 84.6792 107.128 85.5386H108.128ZM107.376 81.475C107.184 81.2866 106.889 81.1775 106.62 81.1029C106.325 81.0212 105.957 80.9548 105.534 80.9019C104.687 80.7958 103.574 80.7384 102.291 80.7384V81.7384C103.55 81.7384 104.618 81.795 105.41 81.8941C105.807 81.9438 106.122 82.0028 106.353 82.0666C106.608 82.1375 106.68 82.1939 106.675 82.1881L107.376 81.475ZM102.291 80.7384H98.1599V81.7384H102.291V80.7384ZM87.0689 46.9724C82.6841 43.5527 80.9711 41.8483 77.2047 41.08C75.3448 40.7005 72.989 40.5469 69.5599 40.4856C66.1275 40.4243 61.5818 40.4555 55.3351 40.4555V41.4555C61.5939 41.4555 66.1216 41.4243 69.542 41.4854C72.9657 41.5466 75.242 41.7001 77.0048 42.0598C80.4838 42.7695 81.9785 44.2707 86.4539 47.7609L87.0689 46.9724ZM55.3351 40.4555C34.5053 40.4555 33.8054 40.48 29.1568 41.6464L29.4002 42.6163C33.8998 41.4873 34.45 41.4555 55.3351 41.4555V40.4555ZM29.1568 41.6464C27.8425 41.9762 26.6448 42.2192 25.7541 42.3491C25.3068 42.4143 24.9497 42.4491 24.6991 42.4544C24.5722 42.4571 24.4896 42.4518 24.4434 42.4447C24.4204 42.4411 24.42 42.4391 24.4337 42.4443C24.4426 42.4476 24.5011 42.4697 24.5606 42.5344L23.8243 43.2111C23.9121 43.3066 24.0144 43.355 24.0818 43.3803C24.154 43.4075 24.2268 43.4231 24.2911 43.433C24.4193 43.4528 24.5671 43.4575 24.7205 43.4542C25.0306 43.4476 25.4339 43.4063 25.8984 43.3386C26.8315 43.2026 28.0635 42.9518 29.4002 42.6163L29.1568 41.6464ZM24.5603 42.5341C24.6003 42.5776 24.6101 42.6081 24.5911 42.5694C24.5793 42.5451 24.5617 42.5051 24.5384 42.4459C24.4921 42.3283 24.4328 42.1604 24.3617 41.9437C24.2199 41.5117 24.0386 40.9094 23.83 40.1784C23.4133 38.7176 22.8923 36.7589 22.3682 34.6562L21.3978 34.8981C21.9241 37.0089 22.4479 38.9787 22.8684 40.4527C23.0785 41.189 23.2638 41.8056 23.4116 42.2556C23.4852 42.4798 23.5513 42.6686 23.608 42.8125C23.6362 42.8839 23.6645 42.9508 23.6926 43.0082C23.7135 43.0511 23.7571 43.1381 23.8246 43.2114L24.5603 42.5341ZM22.3682 34.6562C21.4909 31.1364 20.9687 29.147 20.4442 27.8267C19.9021 26.462 19.3497 25.7937 18.4553 24.9073L17.7513 25.6176C18.5816 26.4404 19.0386 26.9969 19.5149 28.1959C20.0089 29.4395 20.5142 31.3528 21.3978 34.898L22.3682 34.6562ZM18.4553 24.9074C17.6322 24.0913 17.0332 23.5625 16.333 23.2625C15.6271 22.96 14.8677 22.9109 13.7854 22.9124L13.7868 23.9124C14.8671 23.9109 15.4402 23.9679 15.9392 24.1816C16.4439 24.3979 16.9221 24.7955 17.7513 25.6175L18.4553 24.9074ZM13.7854 22.9124C12.1788 22.9144 10.6474 23.2675 9.62891 23.9274L10.1727 24.7667C10.9743 24.2473 12.294 23.9143 13.7867 23.9124L13.7854 22.9124ZM10.7364 27.5008C10.4047 27.8269 10.1212 28.2719 9.92043 28.7198C9.7212 29.1644 9.5813 29.6614 9.5813 30.1013H10.5813C10.5813 29.8507 10.6677 29.4977 10.833 29.1288C10.9968 28.7633 11.2161 28.4315 11.4374 28.2139L10.7364 27.5008ZM9.5813 30.1013C9.5813 30.3331 9.65992 30.8047 9.77373 31.3899C9.89227 31.9995 10.0619 32.7928 10.2673 33.7085C10.6782 35.5407 11.2347 37.8743 11.8186 40.2316C12.4024 42.589 13.0142 44.9728 13.5356 46.9054C14.0528 48.822 14.4909 50.3327 14.7258 50.9144L15.6531 50.54C15.446 50.0271 15.0246 48.585 14.5011 46.6449C13.9819 44.7208 13.3719 42.3439 12.7892 39.9912C12.2065 37.6383 11.6518 35.3123 11.243 33.4897C11.0386 32.578 10.8713 31.7951 10.7553 31.199C10.6347 30.5786 10.5813 30.215 10.5813 30.1013H9.5813ZM14.7258 50.9145C15.1963 52.0791 16.0702 53.1059 17.1022 53.8429C18.1326 54.5788 19.3573 55.0514 20.5509 55.0578L20.5562 54.0578C19.6138 54.0528 18.5861 53.6738 17.6833 53.0291C16.7821 52.3854 16.0419 51.5026 15.6531 50.5399L14.7258 50.9145ZM20.5509 55.0578C21.1158 55.0608 22.3774 54.8723 23.9068 54.5868C25.4581 54.2973 27.3399 53.8971 29.1799 53.4559L28.9467 52.4835C27.1221 52.921 25.2569 53.3176 23.7234 53.6038C22.168 53.8941 21.007 54.0602 20.5562 54.0578L20.5509 55.0578ZM29.1798 53.4559C32.1056 52.7545 33.7606 52.3862 34.7599 52.2673C35.2591 52.208 35.5482 52.2175 35.73 52.2568C35.8857 52.2904 35.9713 52.347 36.0623 52.4416L36.7828 51.7481C36.5694 51.5263 36.3116 51.3594 35.9413 51.2793C35.5971 51.205 35.1776 51.2106 34.6419 51.2743C33.5713 51.4016 31.8512 51.7871 28.9467 52.4835L29.1798 53.4559ZM40.9535 81.7384H42.7641V80.7384H40.9535V81.7384ZM68.9085 88.6524V85.9013H67.9085V88.6524H68.9085ZM68.9085 85.9013C68.9085 84.9932 68.9453 84.2705 69.0298 83.6963C69.1146 83.1197 69.2435 82.7236 69.4074 82.449C69.5635 82.1875 69.7596 82.0215 70.023 81.9127C70.3008 81.7979 70.6748 81.7384 71.1916 81.7384V80.7384C70.6125 80.7384 70.0906 80.8028 69.6411 80.9884C69.1772 81.1801 68.8145 81.4913 68.5488 81.9365C68.2909 82.3685 68.1349 82.9086 68.0404 83.5507C67.9456 84.195 67.9085 84.9733 67.9085 85.9013H68.9085ZM71.1916 81.7384C71.6953 81.7384 72.1681 81.6949 72.5284 81.6186C72.7046 81.5813 72.88 81.5308 73.0237 81.4598C73.0947 81.4247 73.1829 81.3726 73.2602 81.2948C73.3384 81.2162 73.4379 81.0771 73.4432 80.8813L72.4436 80.8541C72.4475 80.7092 72.5211 80.6198 72.5515 80.5894C72.581 80.5598 72.5992 80.5541 72.5806 80.5633C72.5451 80.5809 72.4625 80.6104 72.3212 80.6403C72.0466 80.6984 71.6462 80.7384 71.1916 80.7384V81.7384ZM73.4432 80.8805C73.4804 79.4255 74.2478 72.934 75.0579 66.7195C75.4616 63.6219 75.874 60.6078 76.2077 58.3473C76.3746 57.2165 76.5213 56.2775 76.637 55.6119C76.695 55.2782 76.7443 55.019 76.7836 54.8405C76.8035 54.7502 76.8191 54.689 76.8301 54.6522C76.8358 54.6331 76.8376 54.6298 76.835 54.6361C76.8336 54.6393 76.8283 54.6518 76.8185 54.6692C76.8111 54.6823 76.7873 54.7233 76.7428 54.767L76.0417 54.0539C75.9577 54.1366 75.9197 54.2327 75.9121 54.2509C75.8958 54.2901 75.8826 54.3305 75.8721 54.3656C75.8506 54.4371 75.8289 54.5261 75.8071 54.6253C75.7629 54.8257 75.7106 55.1024 75.6518 55.4406C75.5338 56.1189 75.3857 57.0678 75.2184 58.2013C74.8836 60.4694 74.4704 63.4896 74.0662 66.5902C73.2604 72.7723 72.4824 79.3334 72.4436 80.855L73.4432 80.8805ZM76.7428 54.767C76.9252 54.5878 77.3209 54.4722 78.2395 54.8981C79.1258 55.309 80.3054 56.1445 81.802 57.4481L82.4588 56.6941C80.9435 55.3742 79.6779 54.4627 78.6601 53.9908C77.6745 53.5339 76.7071 53.3999 76.0417 54.0539L76.7428 54.767ZM87.6132 81.7384H91.0842V80.7384H87.6132V81.7384ZM91.0842 81.7384H94.5551V80.7384H91.0842V81.7384ZM93.072 56.7591C92.8905 56.5148 92.5618 56.1756 92.1496 55.7835C91.7294 55.3838 91.1977 54.9062 90.5903 54.3788C89.3751 53.3236 87.8456 52.0595 86.2747 50.8044C83.1509 48.3084 79.8054 45.8008 78.4519 45.0667L77.9751 45.9457C79.2342 46.6287 82.5051 49.0724 85.6505 51.5856C87.2143 52.8351 88.7327 54.0901 89.9347 55.1338C90.5359 55.6559 91.0552 56.1227 91.4604 56.5081C91.8735 56.9011 92.1446 57.1877 92.2692 57.3554L93.072 56.7591ZM78.4519 45.0667C77.9479 44.7933 77.5033 44.5681 76.8139 44.3981C76.1402 44.2318 75.248 44.1217 73.8404 44.0415C71.0256 43.8813 66.0315 43.8362 56.3447 43.7607L56.3369 44.7606C66.0398 44.8363 71.0003 44.8815 73.7835 45.0399C75.1749 45.1191 75.9926 45.2254 76.5744 45.369C77.1406 45.5087 77.4973 45.6866 77.975 45.9457L78.4519 45.0667ZM56.3447 43.7607L36.4833 43.6055L36.4755 44.6054L56.3369 44.7606L56.3447 43.7607ZM36.3665 43.6184L29.5105 45.2074L29.7363 46.1816L36.5923 44.5925L36.3665 43.6184ZM29.5105 45.2074C27.632 45.6427 25.8455 46.0071 24.4822 46.2435C23.7996 46.3618 23.2292 46.447 22.8088 46.4934C22.5978 46.5166 22.4327 46.5291 22.3139 46.5321C22.2543 46.5336 22.2137 46.5324 22.1889 46.5305C22.1556 46.5279 22.175 46.5257 22.2168 46.5415L21.8639 47.4771C21.9557 47.5117 22.0486 47.5226 22.1111 47.5275C22.182 47.533 22.2594 47.5337 22.3387 47.5318C22.4978 47.5278 22.6943 47.512 22.9183 47.4873C23.368 47.4378 23.9612 47.3487 24.653 47.2288C26.0385 46.9886 27.8437 46.6202 29.7363 46.1816L29.5105 45.2074ZM22.2172 46.5416C22.286 46.5676 22.3153 46.6026 22.3066 46.5936C22.3022 46.589 22.2855 46.5699 22.2576 46.5271C22.2018 46.4414 22.1289 46.3042 22.04 46.1054C21.8634 45.7105 21.6488 45.1296 21.4 44.3655C20.9034 42.8406 20.2855 40.6331 19.5766 37.8316L18.6071 38.0769C19.3182 40.8869 19.9424 43.1192 20.4491 44.6751C20.7019 45.4513 20.9292 46.071 21.1271 46.5136C21.2255 46.7336 21.3229 46.9243 21.4197 47.0729C21.4681 47.1472 21.5233 47.2218 21.5862 47.2871C21.6448 47.348 21.7367 47.429 21.8636 47.477L22.2172 46.5416ZM19.5766 37.8316C18.9634 35.409 18.3021 33.0747 17.7298 31.2635C17.4438 30.3585 17.1785 29.5794 16.9513 28.9832C16.8378 28.6854 16.7319 28.428 16.6358 28.2211C16.5447 28.025 16.4468 27.8388 16.3439 27.7096L15.5615 28.3323C15.5847 28.3615 15.6413 28.4537 15.7288 28.6422C15.8112 28.8198 15.9079 29.0534 16.0169 29.3393C16.2345 29.9104 16.4933 30.6694 16.7763 31.5648C17.3418 33.3546 17.9979 35.67 18.6071 38.077L19.5766 37.8316ZM16.3441 27.7098C14.994 26.012 12.3111 25.9528 10.7364 27.5008L11.4374 28.2139C12.6282 27.0434 14.6145 27.1414 15.5614 28.3322L16.3441 27.7098ZM75.9602 80.6154C75.9564 80.9832 76.2004 81.2158 76.4281 81.3409C76.6467 81.461 76.9333 81.5354 77.2529 81.5879C77.9028 81.6945 78.8809 81.7384 80.2247 81.7384V80.7384C78.8835 80.7384 77.9771 80.6933 77.4148 80.6011C77.1283 80.554 76.9769 80.5015 76.9096 80.4645C76.8514 80.4325 76.9616 80.4779 76.9601 80.6257L75.9602 80.6154ZM80.2247 81.7384H83.9959V80.7384H80.2247V81.7384ZM83.1765 62.9413C82.8147 62.2413 82.3425 61.5064 81.8718 60.8824C81.4099 60.2699 80.9172 59.7211 80.5077 59.4303L79.9288 60.2458C80.2071 60.4433 80.624 60.8887 81.0734 61.4845C81.5141 62.0688 81.9551 62.7561 82.2881 63.4005L83.1765 62.9413ZM80.5077 59.4303C80.1567 59.1812 79.8316 58.9673 79.5884 58.8236C79.4702 58.7537 79.3559 58.6912 79.2619 58.6507C79.2236 58.6341 79.1467 58.6023 79.059 58.5901C79.024 58.5852 78.9078 58.5704 78.7771 58.6253C78.7013 58.6571 78.616 58.7147 78.5515 58.81C78.4875 58.9045 78.4664 59.0031 78.4639 59.081L79.4634 59.1122C79.4612 59.1851 79.4413 59.2795 79.3796 59.3706C79.3174 59.4624 79.2355 59.5174 79.1641 59.5474C79.0424 59.5985 78.9391 59.5831 78.9212 59.5806C78.8675 59.5731 78.8405 59.5579 78.8661 59.569C78.9001 59.5837 78.9704 59.6199 79.0795 59.6844C79.291 59.8094 79.5918 60.0065 79.9288 60.2458L80.5077 59.4303ZM9.5813 86.6754V88.6524H10.5813V86.6754H9.5813ZM42.7618 88.6524V86.6754H41.7618V88.6524H42.7618ZM42.7618 86.6754V84.6983H41.7618V86.6754H42.7618ZM9.5813 84.6983V86.6754H10.5813V84.6983H9.5813ZM104.609 88.6524V86.6754H103.609V88.6524H104.609ZM104.609 86.6754V84.6983H103.609V86.6754H104.609ZM3.04463 92.1123V96.3161H4.04463V92.1123H3.04463ZM3.04463 96.3161V100.519H4.04463V96.3161H3.04463ZM110.894 100.288L111.041 96.7049L110.042 96.6637L109.894 100.247L110.894 100.288ZM111.041 96.7049C111.09 95.5207 111.177 94.6577 111.294 94.1001C111.353 93.817 111.414 93.6475 111.461 93.5604C111.52 93.4529 111.484 93.5912 111.302 93.5934L111.29 92.5935C110.907 92.5982 110.688 92.8888 110.583 93.0828C110.466 93.2972 110.382 93.5784 110.315 93.8946C110.18 94.5356 110.092 95.4656 110.042 96.6638L111.041 96.7049ZM111.303 93.5934C111.414 93.5919 111.588 93.5797 111.743 93.4921C111.831 93.442 111.938 93.3532 111.999 93.2078C112.06 93.06 112.048 92.9181 112.016 92.814C111.962 92.6358 111.836 92.5081 111.757 92.4369C111.663 92.3513 111.546 92.2669 111.416 92.1844L110.88 93.0288C110.984 93.0944 111.049 93.1442 111.085 93.1768C111.102 93.1929 111.106 93.1985 111.102 93.1936C111.1 93.1911 111.076 93.1606 111.059 93.1044C111.04 93.0423 111.028 92.9379 111.076 92.8228C111.123 92.7101 111.202 92.6491 111.25 92.6218C111.274 92.6083 111.294 92.6008 111.306 92.597C111.318 92.5931 111.325 92.5917 111.326 92.5915C111.328 92.5911 111.317 92.5931 111.289 92.5935L111.303 93.5934ZM111.416 92.1845C111.228 92.0648 110.945 91.9879 110.674 91.9308C110.38 91.8687 110.017 91.8143 109.612 91.7691C108.803 91.6787 107.799 91.622 106.791 91.6197L106.789 92.6197C107.764 92.6219 108.732 92.677 109.501 92.763C109.887 92.806 110.216 92.8561 110.468 92.9092C110.594 92.9358 110.695 92.962 110.77 92.9863C110.852 93.0125 110.881 93.0293 110.88 93.0287L111.416 92.1845ZM106.791 91.6197C105.596 91.6173 104.706 91.5642 104.103 91.4665C103.8 91.4173 103.593 91.3605 103.465 91.3058C103.319 91.2434 103.362 91.2215 103.396 91.3046L102.471 91.6844C102.589 91.9739 102.855 92.1327 103.073 92.2254C103.308 92.3258 103.604 92.3987 103.943 92.4536C104.625 92.5641 105.578 92.6173 106.789 92.6197L106.791 91.6197ZM103.396 91.3048C103.344 91.1793 103.293 91.0626 103.243 90.9727C103.219 90.9298 103.182 90.8689 103.131 90.8125C103.1 90.7781 102.96 90.6238 102.722 90.6238C102.435 90.6238 102.294 90.835 102.256 90.9047C102.211 90.9857 102.191 91.0668 102.182 91.1125C102.16 91.213 102.149 91.3375 102.141 91.4625L103.139 91.5265C103.147 91.4044 103.155 91.3435 103.16 91.3205C103.163 91.3043 103.158 91.3391 103.131 91.3892C103.109 91.4281 102.988 91.6238 102.722 91.6238C102.608 91.6238 102.523 91.5836 102.476 91.5539C102.429 91.5248 102.4 91.4948 102.388 91.4814C102.365 91.4559 102.359 91.4414 102.37 91.4603C102.389 91.4939 102.421 91.5626 102.47 91.6842L103.396 91.3048ZM54.3295 0.271708L54.1967 -0.719431L54.1966 -0.719418L54.3295 0.271708ZM38.9588 12.884L37.9718 12.7234L37.9717 12.7236L38.9588 12.884ZM39.4239 15.4418L38.7914 16.2164L38.7918 16.2167L39.4239 15.4418ZM42.3538 13.6105L43.3391 13.7817L43.3391 13.7816L42.3538 13.6105ZM61.3132 3.70638L61.177 4.69707L61.177 4.69707L61.3132 3.70638ZM71.801 8.94415L72.5911 8.33112L72.591 8.33104L71.801 8.94415ZM73.6775 13.1756L74.6523 12.9523L74.6523 12.9522L73.6775 13.1756ZM76.7774 15.4418L77.4095 16.2167L77.4098 16.2165L76.7774 15.4418ZM74.3282 6.56524L75.1013 5.93094L75.1012 5.93085L74.3282 6.56524ZM65.4846 1.20983L65.7578 0.247882L65.7578 0.247877L65.4846 1.20983ZM54.5809 10.4986L54.8321 11.4666L54.8322 11.4665L54.5809 10.4986ZM47.3076 14.7256L46.5925 14.0266L46.5924 14.0267L47.3076 14.7256ZM43.728 16.9948L43.9838 17.9615L43.9842 17.9614L43.728 16.9948ZM38.6676 28.3595L39.5473 27.884L39.5473 27.884L38.6676 28.3595ZM46.6901 34.2379L47.4644 33.6049L47.4643 33.6049L46.6901 34.2379ZM51.38 37.6978L51.8208 36.8002L51.8208 36.8002L51.38 37.6978ZM68.7363 34.8137L69.4603 35.5035L69.4604 35.5034L68.7363 34.8137ZM72.4909 32.2954L72.2323 31.3294L72.2322 31.3294L72.4909 32.2954ZM72.3229 16.9548L72.067 17.9215L72.067 17.9215L72.3229 16.9548ZM68.8344 14.7488L68.0886 15.415L68.0887 15.4152L68.8344 14.7488ZM54.4376 14.1449L54.738 15.0987L54.738 15.0986L54.4376 14.1449ZM50.579 16.5747L51.2333 17.3309L51.2333 17.3309L50.579 16.5747ZM51.9089 34.1548L52.4543 33.3166L52.4541 33.3165L51.9089 34.1548ZM64.4462 34.0273L65.0146 34.8501L65.0147 34.85L64.4462 34.0273ZM69.403 24.7118L68.4031 24.7162V24.7162L69.403 24.7118ZM42.2985 21.7457L43.0792 22.3706L43.0795 22.3703L42.2985 21.7457ZM43.1704 28.3506L43.1678 27.3506H43.1678L43.1704 28.3506ZM43.4299 20.4428V19.4428L43.4198 19.4429L43.4299 20.4428ZM72.6784 24.3609L73.6784 24.36V24.3599L72.6784 24.3609ZM73.0309 28.3492L73.0386 27.3492L73.036 27.3492L73.0309 28.3492ZM74.1622 27.2529L73.3479 26.6724L73.3476 26.6728L74.1622 27.2529ZM73.8098 21.6721L74.5624 21.0136L74.5623 21.0135L73.8098 21.6721ZM72.6744 20.3746L73.4269 19.7161L71.6717 17.7103L71.6744 20.3756L72.6744 20.3746ZM54.1966 -0.719418C45.9387 0.38811 39.0904 5.84727 37.9718 12.7234L39.9458 13.0445C40.8807 7.29803 46.7849 2.29253 54.4624 1.26283L54.1966 -0.719418ZM37.9717 12.7236C37.8518 13.4616 37.8014 14.1214 37.9061 14.6976C38.0213 15.3312 38.3172 15.8292 38.7914 16.2164L40.0564 14.6672C39.9574 14.5864 39.9055 14.514 39.8739 14.3399C39.8318 14.1085 39.8355 13.7234 39.9458 13.0444L37.9717 12.7236ZM38.7918 16.2167C39.6479 16.9151 40.7652 17.3154 41.8015 16.6677C42.6879 16.1137 43.1295 14.9882 43.3391 13.7817L41.3686 13.4394C41.1799 14.5253 40.8658 14.894 40.7414 14.9718C40.7157 14.9878 40.6925 15 40.6191 14.9854C40.5203 14.9657 40.3314 14.8916 40.056 14.6669L38.7918 16.2167ZM43.3391 13.7816C43.8725 10.7097 45.9906 8.13951 49.1844 6.47114C52.3806 4.80147 56.6076 4.06892 61.177 4.69707L61.4494 2.7157C56.523 2.03849 51.8686 2.81247 48.2583 4.69844C44.6455 6.58572 42.0318 9.62024 41.3686 13.4394L43.3391 13.7816ZM61.177 4.69707C63.0027 4.948 65.0716 5.64011 66.9039 6.55523C68.7552 7.47982 70.2474 8.57332 71.011 9.55726L72.591 8.33104C71.5621 7.00526 69.7648 5.74852 67.7975 4.76597C65.8113 3.77396 63.5326 3.00204 61.4493 2.7157L61.177 4.69707ZM71.0109 9.55718C71.6099 10.3291 72.4028 12.0902 72.7028 13.399L74.6523 12.9522C74.3036 11.4308 73.4081 9.38407 72.5911 8.33112L71.0109 9.55718ZM72.7028 13.3988C72.8681 14.1207 73.0681 14.7529 73.3152 15.2745C73.5585 15.7879 73.8789 16.2614 74.3217 16.5851C74.7982 16.9334 75.3588 17.0642 75.9408 16.9587C76.4814 16.8608 76.9732 16.5726 77.4095 16.2167L76.1453 14.6669C75.849 14.9086 75.665 14.9762 75.5844 14.9908C75.5452 14.9979 75.5394 14.9978 75.502 14.9705C75.4309 14.9185 75.29 14.7715 75.1226 14.4181C74.9589 14.0728 74.7987 13.5917 74.6523 12.9523L72.7028 13.3988ZM77.4098 16.2165C78.0813 15.6683 78.2691 14.7928 78.2953 14.0535C78.3233 13.2679 78.1809 12.3642 77.9283 11.4488C77.4229 9.61682 76.4202 7.53847 75.1013 5.93094L73.5551 7.19953C74.6779 8.56799 75.561 10.3882 76.0004 11.9807C76.2202 12.7775 76.3149 13.4675 76.2966 13.9824C76.2766 14.5436 76.1347 14.6756 76.1451 14.6671L77.4098 16.2165ZM75.1012 5.93085C74.1818 4.81054 72.638 3.62306 70.9783 2.61807C69.3067 1.6058 67.4206 0.720171 65.7578 0.247882L65.2113 2.17178C66.6565 2.58226 68.3769 3.38085 69.9424 4.32885C71.5199 5.28413 72.8439 6.33297 73.5552 7.19963L75.1012 5.93085ZM65.7578 0.247877C61.2672 -1.02754 58.3575 -1.27705 54.1967 -0.719431L54.4623 1.26285C58.3195 0.745922 60.9519 0.962014 65.2113 2.17178L65.7578 0.247877ZM54.3297 9.53069C51.6283 10.2317 48.5545 12.0193 46.5925 14.0266L48.0227 15.4246C49.7324 13.6755 52.4862 12.0753 54.8321 11.4666L54.3297 9.53069ZM46.5924 14.0267C46.179 14.4497 45.6013 14.903 45.0021 15.2829C44.3915 15.6699 43.8354 15.9318 43.4718 16.0282L43.9842 17.9614C44.6314 17.7899 45.3858 17.4076 46.0728 16.9721C46.7711 16.5295 47.4778 15.9822 48.0228 15.4246L46.5924 14.0267ZM43.4722 16.0281C37.7842 17.5332 35.01 23.6964 37.788 28.8351L39.5473 27.884C37.4067 23.9242 39.5028 19.1473 43.9838 17.9615L43.4722 16.0281ZM37.788 28.8351C38.4094 29.9846 39.4567 31.076 40.5432 31.8783C41.5953 32.6552 42.8807 33.3058 44.0121 33.3058V31.3058C43.5345 31.3058 42.682 30.9715 41.7312 30.2694C40.8148 29.5928 39.9944 28.711 39.5473 27.884L37.788 28.8351ZM44.0121 33.3058C44.0024 33.3058 44.0558 33.3054 44.1843 33.3605C44.3076 33.4133 44.4665 33.5028 44.6554 33.6391C45.034 33.9122 45.4737 34.3299 45.916 34.8708L47.4643 33.6049C46.9391 32.9625 46.376 32.4142 45.8255 32.0171C45.3104 31.6455 44.669 31.3058 44.0121 31.3058V33.3058ZM45.9159 34.8708C46.9525 36.1387 49.0494 37.6674 50.9392 38.5954L51.8208 36.8002C50.0952 35.9527 48.2631 34.582 47.4644 33.6049L45.9159 34.8708ZM50.9391 38.5953C57.2572 41.6988 64.7223 40.4764 69.4603 35.5035L68.0123 34.1239C63.9037 38.4363 57.3904 39.536 51.8208 36.8002L50.9391 38.5953ZM69.4604 35.5034C69.9642 34.9744 70.5832 34.4615 71.1955 34.0509C71.8211 33.6313 72.3757 33.3615 72.7495 33.2614L72.2322 31.3294C71.5557 31.5106 70.7914 31.9137 70.0815 32.3899C69.3582 32.8749 68.6251 33.4805 68.0122 34.124L69.4604 35.5034ZM72.7495 33.2614C76.8849 32.1544 79.4649 28.7396 79.4649 24.4217H77.4649C77.4649 27.853 75.4752 30.4613 72.2323 31.3294L72.7495 33.2614ZM79.4649 24.4217C79.4649 22.3646 78.829 20.5253 77.6198 19.0552C76.4145 17.59 74.6847 16.5455 72.5788 15.9881L72.067 17.9215C73.8374 18.3901 75.1786 19.2358 76.0752 20.3258C76.9679 21.4109 77.4649 22.792 77.4649 24.4217H79.4649ZM72.5788 15.9881C71.6079 15.731 70.3522 14.9466 69.58 14.0825L68.0887 15.4152C69.0955 16.542 70.6818 17.5548 72.067 17.9215L72.5788 15.9881ZM69.5802 14.0827C67.9146 12.218 65.2703 10.7916 62.5259 9.97318C59.7802 9.15443 56.7734 8.8963 54.3296 9.53071L54.8322 11.4665C56.8132 10.9523 59.4308 11.1373 61.9544 11.8898C64.4792 12.6427 66.7493 13.9157 68.0886 15.415L69.5802 14.0827ZM54.1372 13.191C53.5565 13.3739 52.8071 13.7753 52.0899 14.227C51.3542 14.6903 50.575 15.2557 49.9246 15.8185L51.2333 17.3309C51.7968 16.8433 52.4926 16.3369 53.1556 15.9194C53.837 15.4903 54.4101 15.202 54.738 15.0987L54.1372 13.191ZM49.9247 15.8184C43.7984 21.119 44.5315 30.5494 51.3637 34.9931L52.4541 33.3165C46.7108 29.5811 46.1376 21.7398 51.2333 17.3309L49.9247 15.8184ZM51.3636 34.993C52.329 35.6212 53.0891 36.0398 54.1324 36.2679C55.1219 36.4842 56.3241 36.5185 58.1464 36.5185V34.5185C56.2891 34.5185 55.3035 34.4767 54.5596 34.3141C53.8696 34.1632 53.3508 33.8999 52.4543 33.3166L51.3636 34.993ZM58.1464 36.5185C60.0152 36.5185 61.2195 36.4924 62.2081 36.2583C63.2548 36.0106 64.0107 35.5436 65.0146 34.8501L63.8779 33.2046C62.9042 33.8772 62.4076 34.1558 61.7474 34.3121C61.0292 34.4822 60.0724 34.5185 58.1464 34.5185V36.5185ZM65.0147 34.85C68.1798 32.6632 70.4196 28.4729 70.403 24.7074L68.4031 24.7162C68.4166 27.7974 66.5202 31.3789 63.8778 33.2046L65.0147 34.85ZM70.403 24.7075C70.3673 16.4815 62.0843 10.6877 54.1371 13.1911L54.738 15.0986C61.4682 12.9786 68.3735 17.9085 68.4031 24.7162L70.403 24.7075ZM41.5178 21.1209C41.1444 21.5873 40.8371 22.1922 40.623 22.7788C40.4103 23.3615 40.2562 24.0174 40.2562 24.6011H42.2562C42.2562 24.3307 42.3366 23.917 42.5018 23.4646C42.6655 23.0161 42.8794 22.6203 43.0792 22.3706L41.5178 21.1209ZM40.2562 24.6011C40.2562 25.5502 40.614 26.6475 41.0409 27.4838C41.2585 27.91 41.5212 28.3226 41.8142 28.6452C41.9607 28.8065 42.1367 28.9696 42.3415 29.0979C42.5421 29.2236 42.8278 29.3515 43.173 29.3506L43.1678 27.3506C43.248 27.3504 43.3095 27.3655 43.3472 27.3783C43.384 27.3909 43.4029 27.4028 43.4035 27.4032C43.4044 27.4037 43.3942 27.3974 43.3736 27.3793C43.3533 27.3615 43.3267 27.3358 43.2946 27.3004C43.1582 27.1503 42.9893 26.9018 42.8222 26.5744C42.4799 25.9039 42.2562 25.1255 42.2562 24.6011H40.2562ZM43.173 29.3506C43.6013 29.3495 43.8646 29.098 43.9646 28.9815C44.0717 28.8568 44.1308 28.731 44.16 28.6626C44.222 28.5174 44.2598 28.3621 44.2849 28.2413C44.3383 27.9835 44.3799 27.6479 44.4126 27.2763C44.4791 26.5222 44.5189 25.5031 44.5189 24.396H42.5189C42.5189 25.4632 42.4802 26.4211 42.4203 27.1007C42.3899 27.4459 42.3564 27.6912 42.3265 27.8353C42.3099 27.9153 42.304 27.9162 42.3208 27.8769C42.3274 27.8615 42.3635 27.7761 42.4472 27.6786C42.5239 27.5893 42.7634 27.3517 43.1678 27.3506L43.173 29.3506ZM44.5189 24.396C44.5189 23.3037 44.5088 22.3076 44.4924 21.5815C44.4842 21.22 44.4744 20.9178 44.4629 20.7019C44.4574 20.5969 44.4507 20.4965 44.4418 20.4151C44.438 20.3799 44.4305 20.3166 44.4157 20.2491C44.41 20.2233 44.3918 20.1412 44.3501 20.0461C44.3309 20.0025 44.2814 19.8957 44.1837 19.7844C44.0915 19.6795 43.84 19.4428 43.4299 19.4428V21.4428C43.0212 21.4428 42.7712 21.207 42.6806 21.1038C42.5844 20.9943 42.5364 20.8901 42.5187 20.8499C42.48 20.7616 42.4648 20.6898 42.4621 20.6776C42.4533 20.6372 42.4516 20.6142 42.4536 20.6319C42.4562 20.6563 42.4607 20.7119 42.4657 20.8076C42.4756 20.9932 42.4849 21.2716 42.4929 21.6266C42.5088 22.3335 42.5189 23.314 42.5189 24.396H44.5189ZM43.4198 19.4429C43.203 19.4451 43.0451 19.5176 42.997 19.5403C42.9294 19.5722 42.8786 19.6052 42.851 19.6241C42.7948 19.6625 42.7511 19.7002 42.7282 19.7205C42.6781 19.7647 42.6301 19.8132 42.5918 19.853C42.511 19.937 42.4122 20.0473 42.3055 20.1702C42.0893 20.419 41.81 20.7555 41.5175 21.1212L43.0795 22.3703C43.3598 22.0198 43.6214 21.705 43.8155 21.4816C43.9138 21.3683 43.9874 21.2872 44.0339 21.2388C44.0592 21.2124 44.0635 21.2094 44.053 21.2187C44.0499 21.2215 44.0227 21.2458 43.9796 21.2753C43.9586 21.2896 43.9135 21.3193 43.8508 21.3489C43.8076 21.3693 43.6536 21.4406 43.4399 21.4428L43.4198 19.4429ZM71.6784 24.3618C71.6794 25.478 71.7203 26.5052 71.7875 27.265C71.8206 27.6395 71.8625 27.9773 71.916 28.2362C71.9411 28.3578 71.9787 28.5131 72.0403 28.6581C72.0692 28.7263 72.1278 28.8518 72.2338 28.9764C72.3319 29.0917 72.5948 29.3469 73.0257 29.3491L73.036 27.3492C73.4431 27.3513 73.6822 27.5924 73.757 27.6802C73.8396 27.7773 73.8751 27.862 73.8814 27.8768C73.8975 27.9149 73.8913 27.9127 73.8746 27.8316C73.8444 27.6853 73.8105 27.4371 73.7797 27.0888C73.719 26.4028 73.6794 25.4364 73.6784 24.36L71.6784 24.3618ZM73.0232 29.3491C73.2457 29.3508 73.4226 29.2852 73.5185 29.2431C73.6258 29.1961 73.7184 29.1395 73.7912 29.0899C73.9369 28.9907 74.0775 28.8681 74.2031 28.7464C74.4581 28.4992 74.7318 28.177 74.9768 27.8329L73.3476 26.6728C73.1622 26.9332 72.9663 27.1599 72.8112 27.3101C72.7319 27.387 72.6823 27.4254 72.6652 27.437C72.6565 27.443 72.6745 27.4294 72.7155 27.4114C72.7451 27.3984 72.8641 27.3478 73.0386 27.3492L73.0232 29.3491ZM74.9765 27.8333C76.3935 25.8456 76.184 22.867 74.5624 21.0136L73.0572 22.3305C74.0985 23.5208 74.2008 25.476 73.3479 26.6724L74.9765 27.8333ZM74.5623 21.0135L73.4269 19.7161L71.9218 21.0332L73.0572 22.3306L74.5623 21.0135ZM71.6744 20.3756L71.6784 24.3619L73.6784 24.3599L73.6744 20.3736L71.6744 20.3756Z" fill="#FDD304" mask="url(#path-2-inside-1_2872_5231)"/>
</svg>
