<svg width="69" height="76" viewBox="0 0 69 76" fill="none" xmlns="http://www.w3.org/2000/svg">
<path fill-rule="evenodd" clip-rule="evenodd" d="M21.5598 0.806229L20.8177 1.61246V5.77103V9.9296L11.9952 9.93567C3.84442 9.94119 3.09088 9.98201 2.09895 10.4713C1.47896 10.7769 0.808706 11.3865 0.51293 11.9133C0.00820494 12.8128 0.00084115 13.2328 7.94929e-05 41.2029C-0.00093605 69.5351 -0.000173867 69.5814 0.531463 70.5156C1.66785 72.5134 0.158758 72.3879 24.8799 72.5413L47.0949 72.6792L48.4912 73.7226C51.5079 75.9772 56.1395 76.643 59.7104 75.3356C65.6389 73.1655 69.3713 67.1476 68.9706 60.4051C68.7513 56.7104 67.848 54.2951 65.6163 51.4373L64.2321 49.6646L64.2311 31.2451C64.2304 13.4745 64.2128 12.7946 63.7355 11.9442C62.6979 10.0954 62.6354 10.0821 54.3425 9.9296L46.841 9.79169L46.7849 5.72028C46.7254 1.39842 46.5627 0.685143 45.5395 0.262583C44.6545 -0.102882 41.9709 -0.065922 41.3022 0.320781C40.2135 0.950759 40.1295 1.33498 40.1211 5.72331L40.113 9.9296H33.9106H27.7084L27.6269 5.62981L27.5457 1.33001L26.8333 0.665007C26.2171 0.089642 25.8632 0 24.2114 0C22.4395 0 22.2486 0.0581986 21.5598 0.806229ZM22.9595 2.56653C22.8896 2.76457 22.8645 4.47135 22.9041 6.35908L22.9757 9.79169L24.1817 9.87582L25.3876 9.95994V6.08326V2.20658H24.2373C23.5249 2.20658 23.0382 2.34366 22.9595 2.56653ZM42.3254 2.37759C42.2256 2.48571 42.1441 4.22918 42.1441 6.25206V9.9296H43.4206H44.6972L44.6266 6.13705L44.556 2.34449L43.5313 2.26257C42.9677 2.21761 42.4249 2.26919 42.3254 2.37759ZM2.65674 12.8095C2.04513 13.4739 2.03015 13.5914 2.03015 17.7092V21.9279H32.1156H62.201V17.6038V13.2795L61.5283 12.7044C60.8702 12.1422 60.648 12.1312 51.5632 12.2018L42.271 12.2741L42.1441 14.4523C42.0466 16.1257 41.9143 16.7005 41.5728 16.933C41.2501 17.1531 41.0069 17.1531 40.6842 16.933C40.3428 16.7005 40.2105 16.1257 40.113 14.4523L39.986 12.2741L31.6251 12.2013C25.1048 12.1445 23.2192 12.2051 23.0603 12.4771C22.9483 12.6688 22.8549 13.7233 22.8526 14.8202C22.849 16.7187 22.818 16.823 22.2108 16.9887C21.1528 17.277 20.8461 16.7253 20.7644 14.3872L20.6907 12.2741L11.987 12.2016L3.28307 12.129L2.65674 12.8095ZM2.59454 24.426L2.03015 24.8552V46.844C2.03015 66.2991 2.07559 68.9034 2.42545 69.4457L2.8205 70.0589H23.7381H44.6558L43.9068 68.512C43.4948 67.6611 42.9789 66.2966 42.7603 65.4794L42.3627 63.9938L41.7236 64.8191C40.6804 66.1659 38.8839 66.5965 34.2736 66.6045C29.8946 66.6119 28.0831 66.2611 26.8962 65.176C25.332 63.7464 26.2313 62.0584 28.9928 61.2394L30.5923 60.765L30.755 59.1368C30.8446 58.2415 30.9305 55.4993 30.9454 53.0431L30.9731 48.577L29.4531 47.6968C25.48 45.3962 23.3213 40.5952 24.1083 35.8103C24.6034 32.8 25.4031 32.1399 29.4193 31.425C31.6187 31.0336 37.2888 31.118 39.4862 31.5748C43.0489 32.3151 43.6872 32.931 44.2399 36.1589C45.0046 40.6261 42.6633 45.594 38.7801 47.7443L37.3203 48.5527V54.4451C37.3203 58.8293 37.4015 60.4076 37.6376 60.6111C37.8123 60.7614 38.5615 61.0389 39.3026 61.2279C40.0439 61.4165 40.9866 61.8782 41.3971 62.2539L42.1441 62.9366L42.1484 61.6019C42.1669 56.0355 45.21 50.7761 49.8457 48.2998C53.8162 46.1784 57.2137 46.1307 61.7567 48.1321C62.1757 48.3169 62.201 47.6596 62.201 36.5917V24.8552L61.6367 24.426C61.134 24.0434 57.9129 23.9965 32.1156 23.9965C6.31828 23.9965 3.09723 24.0434 2.59454 24.426ZM29.1429 33.7389C28.206 33.9306 27.3669 34.1661 27.2783 34.2624C26.5773 35.0242 35.5748 35.6285 38.8045 35.0366C39.8025 34.8537 40.6794 34.5978 40.7533 34.4679C41.2232 33.642 32.3418 33.0843 29.1429 33.7389ZM26.1891 38.5053C26.3598 41.7079 28.0156 44.4179 30.6697 45.8381C32.4152 46.7723 35.9061 46.7571 37.6815 45.8077C40.163 44.481 41.9108 41.7763 42.2401 38.753C42.4678 36.6645 42.3043 36.5379 40.0909 37.0849C36.3654 38.0053 30.2307 37.8687 26.6898 36.7864C26.0917 36.6038 26.0884 36.6149 26.1891 38.5053ZM54.5845 49.012C50.3387 49.5308 46.2875 53.0991 44.9366 57.5098C44.4664 59.045 44.3887 59.8041 44.4715 62.0476C44.5616 64.4839 44.6608 64.9396 45.5076 66.8006C46.6686 69.3528 48.5874 71.4005 50.9643 72.6237C52.5856 73.4578 52.8415 73.5066 55.6 73.5066C58.3514 73.5066 58.6174 73.4562 60.2157 72.6337C66.121 69.5944 68.5479 62.2509 65.775 55.8126C63.8498 51.3435 59.1044 48.4595 54.5845 49.012ZM33.0042 54.9024C33.0042 61.12 32.8856 61.8176 31.6842 62.6671C31.3631 62.8941 30.6717 63.1666 30.148 63.272C29.6245 63.3776 29.1959 63.577 29.1959 63.7149C29.1959 64.1527 31.0041 64.4045 34.1467 64.4045C37.3114 64.4045 39.0975 64.1524 39.0975 63.7058C39.0975 63.5627 38.6316 63.3647 38.0624 63.2659C37.4005 63.1509 36.7135 62.7647 36.1582 62.1957L35.2892 61.3054V55.2009V49.0964H34.1467H33.0042V54.9024ZM54.8891 53.2889C54.6853 53.5103 54.5845 54.7416 54.5845 57.0125V60.4051H51.4198C48.5509 60.4051 48.2307 60.455 47.9923 60.9385C47.6524 61.6286 47.6564 61.6653 48.1284 62.1783C48.4465 62.5237 49.1414 62.6117 51.5559 62.6117H54.5845V65.9019C54.5845 68.525 54.6655 69.2799 54.9833 69.6255C55.4652 70.1491 55.631 70.1612 56.1809 69.7141C56.5287 69.4316 56.6176 68.7719 56.674 66.0594L56.7425 62.7496L59.8625 62.6117C62.2584 62.5057 63.0384 62.3778 63.2227 62.06C63.9653 60.7796 63.2735 60.4357 59.7734 60.3452L56.7425 60.2672L56.6707 56.9744C56.6303 55.1258 56.4774 53.523 56.3221 53.3198C55.9768 52.8677 55.2903 52.8531 54.8891 53.2889Z" fill="#058FA2"/>
<path fill-rule="evenodd" clip-rule="evenodd" d="M54.8891 53.2889C54.6853 53.5103 54.5845 54.7416 54.5845 57.0125V60.4051H51.4198C48.5509 60.4051 48.2307 60.455 47.9923 60.9385C47.6524 61.6286 47.6564 61.6653 48.1284 62.1783C48.4465 62.5237 49.1414 62.6117 51.5559 62.6117H54.5845V65.9019C54.5845 68.525 54.6655 69.2799 54.9833 69.6255C55.4652 70.1491 55.631 70.1612 56.1809 69.7141C56.5287 69.4316 56.6176 68.7719 56.674 66.0594L56.7425 62.7496L59.8625 62.6117C62.2584 62.5057 63.0384 62.3778 63.2227 62.06C63.9653 60.7796 63.2735 60.4357 59.7734 60.3452L56.7425 60.2672L56.6707 56.9744C56.6303 55.1258 56.4774 53.523 56.3221 53.3198C55.9768 52.8677 55.2903 52.8531 54.8891 53.2889Z" fill="#FDD304"/>
<path d="M2 21H62.201V25H2V21Z" fill="#FDD304"/>
</svg>
