<svg width="98" height="73" viewBox="0 0 98 73" fill="none" xmlns="http://www.w3.org/2000/svg">
<path fill-rule="evenodd" clip-rule="evenodd" d="M93.4382 0.46126C91.4696 1.0731 89.0432 3.33737 88.0227 5.51544C86.4669 8.83477 86.3264 10.3831 86.3205 24.2575C86.3155 36.6008 86.337 37.0768 86.9178 37.3907C87.2493 37.5697 89.3526 37.7163 91.5917 37.7163H95.663V53.3016V68.8873L94.8981 69.6592C93.8334 70.7344 91.99 70.7193 91.2038 69.6293C90.6803 68.9033 90.6414 67.9379 90.6669 56.3007C90.6909 45.2024 90.6367 43.6969 90.1961 43.2521C89.9222 42.9756 89.5149 42.7494 89.2912 42.7494C88.2081 42.7494 88.157 43.4304 88.2496 56.6386C88.3387 69.3588 88.3555 69.6683 89.0148 70.7064C90.9751 73.7908 95.0654 73.7593 97.3481 70.6423L98 69.7523L97.8922 35.0959C97.8121 9.35476 97.6918 0.380415 97.4248 0.20866C96.8667 -0.149948 95.0308 -0.0338718 93.4382 0.46126ZM0.443898 3.02846C-0.0527849 3.52988 -0.0792708 4.37167 0.104882 13.9006C0.322999 25.198 0.411491 25.7473 2.23245 27.1065L3.11925 27.7684V48.5545C3.11925 68.1807 3.15135 69.4016 3.69633 70.4365C4.55041 72.0594 6.02208 72.948 7.85488 72.948C9.73723 72.948 10.925 72.3548 12.0614 70.8467L12.9345 69.6885L12.8329 48.7876L12.7317 27.8866L13.6524 26.9033C15.44 24.9948 15.4195 25.1329 15.5254 14.3045C15.5793 8.7813 15.5438 3.94228 15.4466 3.55159C15.2344 2.69847 14.1712 2.28513 13.5427 2.81172C13.1744 3.12031 13.0903 4.38079 13.0903 9.60075V16.011H11.0649H9.03956V9.62528C9.03956 3.22726 8.92209 2.48457 7.90878 2.48457C7.69846 2.48457 7.30585 2.70697 7.03632 2.97876C6.62408 3.39524 6.5468 4.46258 6.5468 9.74199V16.011H4.52143H2.49606V9.62528C2.49606 3.22726 2.37859 2.48457 1.36528 2.48457C1.15496 2.48457 0.740225 2.7293 0.443898 3.02846ZM94.1082 2.9322C92.4396 3.41695 90.5784 5.50789 89.7265 7.85489C89.0092 9.83133 88.9902 10.1632 88.8812 22.5383L88.7696 35.1997L92.1383 35.2001H95.5072L95.425 20.9658C95.3798 13.1368 95.3097 5.80547 95.2692 4.67365L95.1956 2.61606L94.1082 2.9322ZM44.6284 5.46731C41.232 6.12445 39.0711 6.81335 36.2783 8.12888C23.2224 14.2781 15.2637 28.283 16.8338 42.3439C18.0154 52.9229 23.3929 61.8444 32.0035 67.5107C35.2958 69.6771 37.9138 70.8709 41.7022 71.9335C44.4558 72.7058 45.2036 72.7797 50.3259 72.7851C56.4802 72.7914 58.7166 72.385 63.4294 70.4044C68.4661 68.2877 73.9227 63.9847 77.3568 59.4216C79.2781 56.8685 82.0354 51.2119 82.8767 48.098C85.931 36.7912 82.9652 24.5975 75.0354 15.861C70.9859 11.3995 64.726 7.64665 58.6882 6.06122C54.8677 5.05806 48.1993 4.7762 44.6284 5.46731ZM44.873 8.01343C26.8441 11.312 15.3989 29.6935 20.2866 47.5C23.4686 59.0919 33.5381 68.215 45.2572 70.1235C48.375 70.6315 55.2367 70.3632 57.96 69.6271C66.9234 67.2043 74.2393 61.203 78.3368 52.9112C84.1474 41.1539 81.9049 26.7262 72.7857 17.1973C65.547 9.63378 54.9942 6.16156 44.873 8.01343ZM46.8984 14.0135C44.4601 14.4067 41.9842 15.2227 39.4201 16.4775C23.8625 24.0926 20.5969 45.0498 33.0919 57.0912C35.4893 59.4017 37.4446 60.7736 39.985 61.9274C43.8594 63.6878 45.2887 63.9709 50.3259 63.9772C54.3679 63.9822 55.3139 63.8831 57.3234 63.2461C66.7819 60.2476 73.2852 52.7964 74.9688 43.0291C76.7984 32.413 71.2935 21.5443 61.6178 16.6704C59.8629 15.7864 57.5861 14.8408 56.5578 14.5687C54.6908 14.0746 48.6664 13.7285 46.8984 14.0135ZM46.6687 16.6289C38.3189 18.1706 31.5184 24.1115 29.0128 32.0541C25.532 43.0879 30.7799 54.9729 41.2314 59.7267C49.2534 63.3754 59.1036 61.705 65.5816 55.5977C68.9222 52.4479 71.0162 48.9074 72.1566 44.4795C72.8963 41.6072 72.9085 36.4388 72.1818 33.6269C70.1543 25.7794 64.3477 19.705 56.5578 17.2822C54.1084 16.5203 49.0627 16.1869 46.6687 16.6289ZM2.49606 20.5824C2.49606 23.13 3.01051 24.4207 4.47532 25.5488L5.61202 26.4239V47.7391C5.61202 68.7555 5.62105 69.0644 6.24736 69.7429C7.36069 70.9496 9.3873 70.6234 10.161 69.1131C10.5785 68.2978 10.6119 65.6698 10.438 47.3673C10.3293 35.9173 10.3554 26.4044 10.4966 26.2273C10.6377 26.0502 11.1319 25.6623 11.5946 25.3651C12.6161 24.7095 13.0863 23.176 13.0884 20.4936L13.0903 18.5276H7.79318H2.49606V20.5824ZM41.5991 27.1314C39.8062 27.9744 38.2155 29.6627 37.2735 31.7234C36.7622 32.8417 36.6185 33.7763 36.6173 35.9928C36.6157 38.5779 36.7086 39.0211 37.6599 40.9718C38.2663 42.2156 39.4428 43.8752 40.4671 44.9319C42.2858 46.8083 46.8127 49.9952 49.1761 51.0632L50.5191 51.67L52.2921 50.7951C57.0433 48.4516 61.4281 44.4739 63.0814 41.0073C64.3458 38.3558 64.5356 34.8572 63.5569 32.2368C61.4885 26.6998 55.6178 24.6529 51.3741 27.9895L50.2415 28.8801L49.6604 28.2207C48.0161 26.3541 44.3162 25.8542 41.5991 27.1314ZM42.3273 29.546C39.4051 31.1044 38.1949 35.3338 39.5927 39.1048C40.6556 41.9731 44.5636 45.7598 48.7371 47.9659L50.4462 48.869L51.944 48.137C55.9225 46.1924 59.3223 42.9705 60.8314 39.7154C61.6773 37.8903 61.763 37.437 61.6269 35.5143C61.3623 31.782 59.3519 29.2657 56.4061 28.9798C54.3854 28.7838 52.8636 29.569 51.471 31.5253L50.3583 33.089L49.8747 32.3485C47.7182 29.0474 45.0914 28.0719 42.3273 29.546Z" fill="#058FA2"/>
<path fill-rule="evenodd" clip-rule="evenodd" d="M46.8984 14.0135C44.4601 14.4067 41.9842 15.2227 39.4201 16.4775C23.8625 24.0926 20.5969 45.0498 33.0919 57.0912C35.4893 59.4017 37.4446 60.7736 39.985 61.9274C43.8594 63.6878 45.2887 63.9709 50.3259 63.9772C54.3679 63.9822 55.3139 63.8831 57.3234 63.2461C66.7819 60.2476 73.2852 52.7964 74.9688 43.0291C76.7984 32.413 71.2935 21.5443 61.6178 16.6704C59.8629 15.7864 57.5861 14.8408 56.5578 14.5687C54.6908 14.0746 48.6664 13.7285 46.8984 14.0135ZM46.6687 16.6289C38.3189 18.1706 31.5184 24.1115 29.0128 32.0541C25.532 43.0879 30.7799 54.9729 41.2314 59.7267C49.2534 63.3754 59.1036 61.705 65.5816 55.5977C68.9222 52.4479 71.0162 48.9074 72.1566 44.4795C72.8963 41.6072 72.9085 36.4388 72.1818 33.6269C70.1543 25.7794 64.3477 19.705 56.5578 17.2822C54.1084 16.5203 49.0627 16.1869 46.6687 16.6289ZM41.5991 27.1314C39.8062 27.9744 38.2155 29.6627 37.2735 31.7234C36.7622 32.8417 36.6185 33.7763 36.6173 35.9928C36.6157 38.5779 36.7086 39.0211 37.6599 40.9718C38.2663 42.2156 39.4428 43.8752 40.4671 44.9319C42.2858 46.8083 46.8127 49.9952 49.1761 51.0632L50.5191 51.67L52.2921 50.7951C57.0433 48.4516 61.4281 44.4739 63.0814 41.0073C64.3458 38.3558 64.5356 34.8572 63.5569 32.2368C61.4885 26.6998 55.6177 24.6529 51.3741 27.9895L50.2415 28.8801L49.6604 28.2207C48.0161 26.3541 44.3162 25.8542 41.5991 27.1314ZM42.3273 29.546C39.4051 31.1044 38.1949 35.3338 39.5927 39.1048C40.6556 41.973 44.5636 45.7598 48.7371 47.9659L50.4462 48.869L51.944 48.137C55.9225 46.1924 59.3223 42.9705 60.8314 39.7154C61.6773 37.8903 61.763 37.437 61.6269 35.5143C61.3623 31.782 59.3519 29.2657 56.4061 28.9798C54.3854 28.7838 52.8636 29.569 51.471 31.5253L50.3583 33.089L49.8747 32.3485C47.7182 29.0474 45.0914 28.0719 42.3273 29.546Z" fill="#FDD304"/>
</svg>
