<svg width="86" height="99" viewBox="0 0 86 99" fill="none" xmlns="http://www.w3.org/2000/svg">
<mask id="path-1-inside-1_2510_9377" fill="white">
<path fill-rule="evenodd" clip-rule="evenodd" d="M42.1342 0.501244C41.6148 0.978393 41.557 1.38477 41.557 4.56894C41.557 7.65928 41.6237 8.16188 42.0849 8.54519C42.7561 9.10319 43.3985 9.10345 43.9027 8.54545C44.1965 8.21993 44.2987 7.15429 44.2987 4.41519C44.2987 1.06667 44.2467 0.688393 43.7385 0.347231C43.0026 -0.146884 42.8208 -0.129388 42.1342 0.501244ZM27.6051 2.84166C27.3425 3.10833 27.1275 3.46699 27.1275 3.63877C27.1275 4.35449 29.8322 10.629 30.1961 10.757C30.4137 10.8339 30.9161 10.822 31.3127 10.7305C32.3421 10.4933 32.2584 9.60737 30.8682 6.02372C29.4723 2.42469 28.7295 1.70048 27.6051 2.84166ZM56.6235 2.83212C56.3387 3.09376 55.5537 4.76139 54.8787 6.53824C53.8778 9.17264 53.7108 9.87033 53.9725 10.3199C54.1996 10.7099 54.5205 10.8472 55.068 10.7891C55.9762 10.6926 56.7785 9.35475 58.1224 5.69475C58.9325 3.4882 58.9426 3.39781 58.4384 2.88566C57.7937 2.23144 57.2936 2.2166 56.6235 2.83212ZM14.7758 9.56708C14.5854 9.74204 14.4318 10.1296 14.435 10.4286C14.4402 10.9665 18.862 16.0091 19.7113 16.4457C20.2862 16.7413 21.0068 16.4746 21.3843 15.827C21.7571 15.1874 21.4524 14.7341 18.5249 11.5724C16.3642 9.23864 15.5862 8.82273 14.7758 9.56708ZM68.1963 10.7493C67.433 11.5746 66.2567 12.831 65.5822 13.5415C63.9286 15.2833 64.0143 16.4062 65.8007 16.4062C66.4061 16.4062 67.0436 15.858 69.0618 13.6022C71.5491 10.822 71.8925 10.181 71.2242 9.56708C70.4828 8.88608 69.6006 9.23042 68.1963 10.7493ZM5.35942 20.0037C4.81196 20.5065 4.7857 20.9325 5.26678 21.5083C5.75738 22.0954 11.6995 25.154 12.3499 25.154C13.0616 25.154 13.5638 24.64 13.5638 23.9115C13.5638 23.2549 13.102 22.9402 9.02856 20.8209C6.43586 19.4719 6.03558 19.3828 5.35942 20.0037ZM76.1833 21.1896C74.5193 22.071 72.9101 23.0177 72.6074 23.2933C72.0862 23.7673 72.0827 23.8307 72.5419 24.474C72.8085 24.848 73.2561 25.154 73.5361 25.154C74.3427 25.154 80.7745 21.6845 80.9592 21.1499C81.2028 20.445 80.5956 19.5872 79.8527 19.5872C79.4986 19.5872 77.8473 20.3082 76.1833 21.1896ZM0.346309 32.6293C-0.128423 33.0654 -0.0891746 34.034 0.419034 34.4213C0.649617 34.597 2.53844 34.9954 4.61658 35.3066C8.61241 35.9049 9.29291 35.832 9.46404 34.7879C9.61007 33.8972 8.62366 33.4582 5.16779 32.8753C1.29491 32.2224 0.815846 32.198 0.346309 32.6293ZM81.2383 32.7321C80.1272 32.9294 78.8002 33.1587 78.2894 33.2416C76.5316 33.5269 75.8301 34.9679 77.1749 35.5306C77.7163 35.7573 78.705 35.6889 81.5759 35.226C83.6122 34.8979 85.441 34.5106 85.6393 34.3656C86.0975 34.0305 86.1056 33.0444 85.6537 32.6293C85.224 32.2346 83.8592 32.2664 81.2383 32.7321ZM3.89597 45.3541C0.457416 45.9309 0 46.1244 0 47.0026C0 47.769 0.526967 48.2164 1.42852 48.2154C2.14365 48.2146 7.71576 47.2857 8.72929 46.9984C9.38122 46.8136 9.69318 45.6751 9.23172 45.1643C8.77777 44.6619 7.82023 44.6959 3.89597 45.3541ZM76.8228 45.0882C76.3285 45.5423 76.3948 46.2127 76.9816 46.6864C77.2678 46.9178 79.1365 47.3562 81.2957 47.699C85.422 48.3535 86 48.2705 86 47.0233C86 46.1037 85.4652 45.8694 82.0726 45.3029C78.4236 44.6937 77.3022 44.6479 76.8228 45.0882ZM77.3423 56.7545C76.1628 56.9931 75.4018 57.603 69.0453 63.4067C65.1964 66.921 62.047 70.0009 62.047 70.2507C62.047 71.1331 62.4011 71.5435 63.1627 71.5435C63.7756 71.5435 65.19 70.3803 70.2744 65.6939C73.7649 62.4768 76.9715 59.6736 77.4 59.4644C78.5806 58.8889 79.7309 59.004 80.892 59.8135C82.2189 60.7387 82.9271 62.032 82.678 63.0738C82.5421 63.6429 79.438 66.6723 71.3309 74.1482C65.1932 79.8085 59.7876 84.6691 59.3186 84.9498C58.5192 85.4285 57.6792 85.4685 45.8501 85.5929L33.2341 85.7254L31.874 86.6063L30.5138 87.4871L29.3598 86.4737C28.7252 85.9163 26.1775 83.5764 23.6985 81.2739C21.2195 78.9714 18.7864 76.8541 18.2915 76.5686C17.7218 76.2402 16.8826 76.0499 16.0044 76.0499H14.6174L10.8438 79.4912L7.07047 82.9325L15.5839 90.7628C22.1929 96.8414 24.3253 98.6498 25.1166 98.8473C27 99.3167 27.8493 98.8581 31.745 95.2671L35.3524 91.9416L33.9674 90.7201L32.5825 89.4983L33.2084 88.8865L33.8341 88.2744L46.137 88.1928L58.4396 88.1111L60.0268 87.393C61.3137 86.8106 63.8025 84.6542 73.1811 75.9945C82.9992 66.9286 84.7989 65.1491 85.0855 64.2229C85.7354 62.1216 85.3533 60.5197 83.8059 58.8592C82.0558 56.9817 79.8201 56.2535 77.3423 56.7545ZM30.6275 67.0445C29.1482 67.6608 21.0671 75.0367 21.0671 75.7705C21.0671 76.3022 21.9381 77.1102 22.5112 77.1102C22.7248 77.1102 24.7925 75.3946 27.1059 73.298C29.4192 71.2012 31.5958 69.3523 31.9424 69.1893C32.3744 68.9859 35.9913 68.8926 43.4283 68.8926C55.2031 68.8926 55.517 68.9282 56.2189 70.3432C56.8235 71.5618 56.6449 72.7772 55.7219 73.7262L54.8804 74.5919L46.5733 74.6701C41.1836 74.7208 38.1347 74.8485 37.8914 75.0338C37.4213 75.3922 37.4057 76.3719 37.8631 76.7921C38.1165 77.0248 40.4486 77.1102 46.554 77.1102H54.8983L56.2547 76.4321C58.6488 75.2353 59.8355 72.7838 59.151 70.4492C58.697 68.9003 57.9279 67.9675 56.4475 67.1707L55.2143 66.5069L43.5518 66.5127C32.5452 66.5183 31.8183 66.548 30.6275 67.0445ZM13.2731 80.6907L10.8305 82.946L18.1832 89.7035C22.9655 94.0986 25.7408 96.4613 26.1218 96.4613C26.4716 96.4613 27.6626 95.5793 29.0798 94.2706L31.4523 92.08L24.0211 85.2578C19.9338 81.5055 16.3931 78.4356 16.1527 78.4356C15.9123 78.4356 14.6162 79.4504 13.2731 80.6907Z"/>
</mask>
<path fill-rule="evenodd" clip-rule="evenodd" d="M42.1342 0.501244C41.6148 0.978393 41.557 1.38477 41.557 4.56894C41.557 7.65928 41.6237 8.16188 42.0849 8.54519C42.7561 9.10319 43.3985 9.10345 43.9027 8.54545C44.1965 8.21993 44.2987 7.15429 44.2987 4.41519C44.2987 1.06667 44.2467 0.688393 43.7385 0.347231C43.0026 -0.146884 42.8208 -0.129388 42.1342 0.501244ZM27.6051 2.84166C27.3425 3.10833 27.1275 3.46699 27.1275 3.63877C27.1275 4.35449 29.8322 10.629 30.1961 10.757C30.4137 10.8339 30.9161 10.822 31.3127 10.7305C32.3421 10.4933 32.2584 9.60737 30.8682 6.02372C29.4723 2.42469 28.7295 1.70048 27.6051 2.84166ZM56.6235 2.83212C56.3387 3.09376 55.5537 4.76139 54.8787 6.53824C53.8778 9.17264 53.7108 9.87033 53.9725 10.3199C54.1996 10.7099 54.5205 10.8472 55.068 10.7891C55.9762 10.6926 56.7785 9.35475 58.1224 5.69475C58.9325 3.4882 58.9426 3.39781 58.4384 2.88566C57.7937 2.23144 57.2936 2.2166 56.6235 2.83212ZM14.7758 9.56708C14.5854 9.74204 14.4318 10.1296 14.435 10.4286C14.4402 10.9665 18.862 16.0091 19.7113 16.4457C20.2862 16.7413 21.0068 16.4746 21.3843 15.827C21.7571 15.1874 21.4524 14.7341 18.5249 11.5724C16.3642 9.23864 15.5862 8.82273 14.7758 9.56708ZM68.1963 10.7493C67.433 11.5746 66.2567 12.831 65.5822 13.5415C63.9286 15.2833 64.0143 16.4062 65.8007 16.4062C66.4061 16.4062 67.0436 15.858 69.0618 13.6022C71.5491 10.822 71.8925 10.181 71.2242 9.56708C70.4828 8.88608 69.6006 9.23042 68.1963 10.7493ZM5.35942 20.0037C4.81196 20.5065 4.7857 20.9325 5.26678 21.5083C5.75738 22.0954 11.6995 25.154 12.3499 25.154C13.0616 25.154 13.5638 24.64 13.5638 23.9115C13.5638 23.2549 13.102 22.9402 9.02856 20.8209C6.43586 19.4719 6.03558 19.3828 5.35942 20.0037ZM76.1833 21.1896C74.5193 22.071 72.9101 23.0177 72.6074 23.2933C72.0862 23.7673 72.0827 23.8307 72.5419 24.474C72.8085 24.848 73.2561 25.154 73.5361 25.154C74.3427 25.154 80.7745 21.6845 80.9592 21.1499C81.2028 20.445 80.5956 19.5872 79.8527 19.5872C79.4986 19.5872 77.8473 20.3082 76.1833 21.1896ZM0.346309 32.6293C-0.128423 33.0654 -0.0891746 34.034 0.419034 34.4213C0.649617 34.597 2.53844 34.9954 4.61658 35.3066C8.61241 35.9049 9.29291 35.832 9.46404 34.7879C9.61007 33.8972 8.62366 33.4582 5.16779 32.8753C1.29491 32.2224 0.815846 32.198 0.346309 32.6293ZM81.2383 32.7321C80.1272 32.9294 78.8002 33.1587 78.2894 33.2416C76.5316 33.5269 75.8301 34.9679 77.1749 35.5306C77.7163 35.7573 78.705 35.6889 81.5759 35.226C83.6122 34.8979 85.441 34.5106 85.6393 34.3656C86.0975 34.0305 86.1056 33.0444 85.6537 32.6293C85.224 32.2346 83.8592 32.2664 81.2383 32.7321ZM3.89597 45.3541C0.457416 45.9309 0 46.1244 0 47.0026C0 47.769 0.526967 48.2164 1.42852 48.2154C2.14365 48.2146 7.71576 47.2857 8.72929 46.9984C9.38122 46.8136 9.69318 45.6751 9.23172 45.1643C8.77777 44.6619 7.82023 44.6959 3.89597 45.3541ZM76.8228 45.0882C76.3285 45.5423 76.3948 46.2127 76.9816 46.6864C77.2678 46.9178 79.1365 47.3562 81.2957 47.699C85.422 48.3535 86 48.2705 86 47.0233C86 46.1037 85.4652 45.8694 82.0726 45.3029C78.4236 44.6937 77.3022 44.6479 76.8228 45.0882ZM77.3423 56.7545C76.1628 56.9931 75.4018 57.603 69.0453 63.4067C65.1964 66.921 62.047 70.0009 62.047 70.2507C62.047 71.1331 62.4011 71.5435 63.1627 71.5435C63.7756 71.5435 65.19 70.3803 70.2744 65.6939C73.7649 62.4768 76.9715 59.6736 77.4 59.4644C78.5806 58.8889 79.7309 59.004 80.892 59.8135C82.2189 60.7387 82.9271 62.032 82.678 63.0738C82.5421 63.6429 79.438 66.6723 71.3309 74.1482C65.1932 79.8085 59.7876 84.6691 59.3186 84.9498C58.5192 85.4285 57.6792 85.4685 45.8501 85.5929L33.2341 85.7254L31.874 86.6063L30.5138 87.4871L29.3598 86.4737C28.7252 85.9163 26.1775 83.5764 23.6985 81.2739C21.2195 78.9714 18.7864 76.8541 18.2915 76.5686C17.7218 76.2402 16.8826 76.0499 16.0044 76.0499H14.6174L10.8438 79.4912L7.07047 82.9325L15.5839 90.7628C22.1929 96.8414 24.3253 98.6498 25.1166 98.8473C27 99.3167 27.8493 98.8581 31.745 95.2671L35.3524 91.9416L33.9674 90.7201L32.5825 89.4983L33.2084 88.8865L33.8341 88.2744L46.137 88.1928L58.4396 88.1111L60.0268 87.393C61.3137 86.8106 63.8025 84.6542 73.1811 75.9945C82.9992 66.9286 84.7989 65.1491 85.0855 64.2229C85.7354 62.1216 85.3533 60.5197 83.8059 58.8592C82.0558 56.9817 79.8201 56.2535 77.3423 56.7545ZM30.6275 67.0445C29.1482 67.6608 21.0671 75.0367 21.0671 75.7705C21.0671 76.3022 21.9381 77.1102 22.5112 77.1102C22.7248 77.1102 24.7925 75.3946 27.1059 73.298C29.4192 71.2012 31.5958 69.3523 31.9424 69.1893C32.3744 68.9859 35.9913 68.8926 43.4283 68.8926C55.2031 68.8926 55.517 68.9282 56.2189 70.3432C56.8235 71.5618 56.6449 72.7772 55.7219 73.7262L54.8804 74.5919L46.5733 74.6701C41.1836 74.7208 38.1347 74.8485 37.8914 75.0338C37.4213 75.3922 37.4057 76.3719 37.8631 76.7921C38.1165 77.0248 40.4486 77.1102 46.554 77.1102H54.8983L56.2547 76.4321C58.6488 75.2353 59.8355 72.7838 59.151 70.4492C58.697 68.9003 57.9279 67.9675 56.4475 67.1707L55.2143 66.5069L43.5518 66.5127C32.5452 66.5183 31.8183 66.548 30.6275 67.0445ZM13.2731 80.6907L10.8305 82.946L18.1832 89.7035C22.9655 94.0986 25.7408 96.4613 26.1218 96.4613C26.4716 96.4613 27.6626 95.5793 29.0798 94.2706L31.4523 92.08L24.0211 85.2578C19.9338 81.5055 16.3931 78.4356 16.1527 78.4356C15.9123 78.4356 14.6162 79.4504 13.2731 80.6907Z" fill="#058FA2"/>
<path d="M41.9899 17.5752L42.0813 17.8079L42.0814 17.8079L41.9899 17.5752ZM37.105 24.8154L37.3252 24.9337L37.3252 24.9337L37.105 24.8154ZM33.8609 30.8575L33.8924 31.1055L34.0202 31.0892L34.0812 30.9757L33.8609 30.8575ZM26.959 31.7349L26.9275 31.4869H26.9274L26.959 31.7349ZM19.1237 32.8787L19.0552 32.6383L19.0552 32.6383L19.1237 32.8787ZM17.0214 35.5942L16.7714 35.593V35.593L17.0214 35.5942ZM22.6099 41.7481L22.4422 41.9335L22.4422 41.9335L22.6099 41.7481ZM28.204 46.811L28.4499 46.8559L28.4749 46.719L28.3717 46.6256L28.204 46.811ZM26.9506 53.6769L26.7047 53.632L26.7047 53.632L26.9506 53.6769ZM25.8678 61.0727L26.1059 60.9963L26.1058 60.9961L25.8678 61.0727ZM26.7809 62.3318L26.956 62.1534L26.956 62.1534L26.7809 62.3318ZM36.3688 59.8597L36.4775 60.0848L36.3688 59.8597ZM43 56.6585L43.1087 56.4334L43 56.3809L42.8913 56.4334L43 56.6585ZM49.6312 59.8597L49.5226 60.0848H49.5226L49.6312 59.8597ZM59.2191 62.3318L59.044 62.1534L59.044 62.1534L59.2191 62.3318ZM60.138 61.0647L59.9004 60.9869L59.9003 60.9871L60.138 61.0647ZM59.0511 53.6721L58.8053 53.7174V53.7174L59.0511 53.6721ZM59.041 31.7349L59.0726 31.4869H59.0726L59.041 31.7349ZM52.1391 30.8575L51.9188 30.9757L51.9798 31.0892L52.1076 31.1055L52.1391 30.8575ZM48.8673 24.7638L48.6471 24.882V24.882L48.8673 24.7638ZM44.9471 18.1001L44.7821 18.2879L44.7821 18.2879L44.9471 18.1001ZM39.5262 25.9577L39.7462 26.0765L39.7462 26.0764L39.5262 25.9577ZM35.6447 32.5588L35.8053 32.7504L35.8053 32.7504L35.6447 32.5588ZM26.8808 34.2776L26.8486 34.0297L26.8486 34.0297L26.8808 34.2776ZM19.6726 35.3591L19.5038 35.1748L19.5033 35.1752L19.6726 35.3591ZM25.0309 40.4816L24.8644 40.668L24.8644 40.668L25.0309 40.4816ZM30.756 46.1525L30.9985 46.0917L30.9984 46.0915L30.756 46.1525ZM29.6994 53.6355L29.4535 53.5905L29.4535 53.5905L29.6994 53.6355ZM35.4395 57.5161L35.5483 57.7412L35.5483 57.7412L35.4395 57.5161ZM50.5605 57.5161L50.4517 57.7412L50.4517 57.7412L50.5605 57.5161ZM57.3701 60.5529L57.201 60.3687L57.2007 60.369L57.3701 60.5529ZM66.3346 35.366L66.1655 35.5501L66.1657 35.5504L66.3346 35.366ZM59.121 34.2768L59.0885 34.5247H59.0885L59.121 34.2768ZM50.3946 32.6113L50.2386 32.8066L50.2386 32.8066L50.3946 32.6113ZM43.0352 19.9141L43.1157 19.6774L43.1152 19.6772L43.0352 19.9141ZM41.8985 17.3425C41.6446 17.4423 41.3713 17.5826 41.1337 17.7285C40.9006 17.8715 40.6818 18.032 40.5508 18.1769L40.9218 18.5121C41.004 18.4211 41.1738 18.2905 41.3952 18.1546C41.6119 18.0217 41.8588 17.8953 42.0813 17.8079L41.8985 17.3425ZM40.5508 18.1769C40.5069 18.2255 40.4464 18.3166 40.3808 18.4206C40.3103 18.5324 40.2205 18.6809 40.1144 18.8609C39.9021 19.2212 39.6211 19.7128 39.2917 20.2999C38.6326 21.4744 37.7773 23.0346 36.8847 24.6972L37.3252 24.9337C38.2167 23.2732 39.0705 21.7158 39.7277 20.5446C40.0564 19.9589 40.3354 19.4707 40.5452 19.1147C40.6502 18.9366 40.737 18.793 40.8036 18.6874C40.837 18.6345 40.8645 18.5925 40.886 18.5611C40.8968 18.5455 40.9054 18.5334 40.9122 18.5244C40.9193 18.5149 40.9223 18.5116 40.9218 18.5121L40.5508 18.1769ZM36.8847 24.6972L33.6407 30.7392L34.0812 30.9757L37.3252 24.9337L36.8847 24.6972ZM33.8294 30.6095L26.9275 31.4869L26.9905 31.9829L33.8924 31.1055L33.8294 30.6095ZM26.9274 31.4869C25.0281 31.7284 23.1961 31.978 21.7742 32.1856C21.0634 32.2894 20.4542 32.3828 19.99 32.4595C19.5327 32.5351 19.2003 32.597 19.0552 32.6383L19.1923 33.1192C19.3039 33.0873 19.6047 33.03 20.0715 32.9528C20.5314 32.8768 21.1372 32.7839 21.8465 32.6803C23.2648 32.4733 25.0937 32.2241 26.9905 31.9829L26.9274 31.4869ZM19.0552 32.6383C17.6449 33.0404 16.7786 34.1531 16.7714 35.593L17.2714 35.5955C17.2774 34.3861 17.988 33.4625 19.1923 33.1192L19.0552 32.6383ZM16.7714 35.593C16.7701 35.8632 16.7749 36.1139 16.8901 36.4021C17.0026 36.6836 17.2118 36.9812 17.5748 37.3809C18.2986 38.1779 19.7098 39.4604 22.4422 41.9335L22.7777 41.5628C20.0332 39.0788 18.6475 37.8184 17.9449 37.0447C17.5948 36.6591 17.4335 36.4144 17.3543 36.2165C17.2779 36.0252 17.2701 35.8593 17.2714 35.5955L16.7714 35.593ZM22.4422 41.9335L28.0362 46.9963L28.3717 46.6256L22.7777 41.5628L22.4422 41.9335ZM27.958 46.7661L26.7047 53.632L27.1965 53.7218L28.4499 46.8559L27.958 46.7661ZM26.7047 53.632C26.3597 55.5222 26.065 57.3012 25.8682 58.6453C25.7699 59.3169 25.6957 59.8821 25.6519 60.299C25.63 60.507 25.6154 60.6813 25.6094 60.8148C25.6064 60.8813 25.6054 60.9411 25.6071 60.9916C25.6086 61.0351 25.6125 61.0954 25.6298 61.1492L26.1058 60.9961C26.1114 61.0136 26.1081 61.0137 26.1068 60.9745C26.1057 60.9424 26.1062 60.8971 26.1089 60.8373C26.1143 60.7182 26.1277 60.5552 26.1492 60.3512C26.1919 59.9441 26.265 59.3865 26.363 58.7177C26.5587 57.3807 26.8524 55.6077 27.1965 53.7218L26.7047 53.632ZM25.6298 61.149C25.6893 61.3348 25.8356 61.5762 26.0038 61.8081C26.1767 62.0465 26.3906 62.2992 26.6059 62.5103L26.956 62.1534C26.7626 61.9637 26.5667 61.7326 26.4086 61.5145C26.2457 61.29 26.1398 61.1022 26.1059 60.9964L25.6298 61.149ZM26.6059 62.5103C26.9517 62.8496 27.2919 63.1194 27.7349 63.2467C28.1774 63.3739 28.6881 63.3494 29.3604 63.1761C30.6917 62.8328 32.779 61.8702 36.4775 60.0848L36.2601 59.6345C32.5403 61.4302 30.5069 62.3641 29.2356 62.6919C28.6065 62.8541 28.1953 62.8588 27.873 62.7661C27.551 62.6736 27.2834 62.4745 26.956 62.1534L26.6059 62.5103ZM36.4775 60.0848L43.1087 56.8837L42.8913 56.4334L36.2601 59.6345L36.4775 60.0848ZM42.8913 56.8837L49.5226 60.0848L49.7399 59.6345L43.1087 56.4334L42.8913 56.8837ZM49.5226 60.0848C53.221 61.8702 55.3083 62.8328 56.6396 63.1761C57.3119 63.3494 57.8226 63.3739 58.2651 63.2467C58.7081 63.1194 59.0483 62.8496 59.3941 62.5103L59.044 62.1534C58.7166 62.4745 58.449 62.6736 58.127 62.7661C57.8047 62.8588 57.3935 62.8541 56.7644 62.6919C55.4931 62.3641 53.4597 61.4302 49.7399 59.6345L49.5226 60.0848ZM59.3941 62.5103C59.6095 62.2991 59.824 62.0455 59.9979 61.8057C60.1673 61.5721 60.3145 61.3293 60.3756 61.1424L59.9003 60.9871C59.8647 61.096 59.7569 61.2863 59.5931 61.5122C59.4339 61.7318 59.2373 61.9638 59.044 62.1534L59.3941 62.5103ZM60.3755 61.1425C60.3933 61.0884 60.3975 61.0278 60.3992 60.9838C60.4011 60.9329 60.4002 60.8728 60.3974 60.806C60.3916 60.6719 60.3771 60.4972 60.3554 60.2889C60.3118 59.8715 60.2374 59.3062 60.1387 58.6348C59.9412 57.2912 59.6447 55.514 59.297 53.6268L58.8053 53.7174C59.1522 55.6002 59.4476 57.3713 59.6441 58.7075C59.7423 59.376 59.8155 59.9335 59.8581 60.3409C59.8794 60.5449 59.8927 60.7082 59.8978 60.8275C59.9004 60.8873 59.9008 60.9327 59.8995 60.9649C59.8981 61.004 59.8948 61.0041 59.9004 60.9869L60.3755 61.1425ZM59.297 53.6268L58.0341 46.7726L57.5424 46.8632L58.8053 53.7174L59.297 53.6268ZM66.9448 32.6383C66.7998 32.597 66.4673 32.5351 66.01 32.4595C65.5458 32.3828 64.9366 32.2894 64.2258 32.1856C62.8039 31.978 60.9719 31.7284 59.0726 31.4869L59.0095 31.9829C60.9063 32.2241 62.7352 32.4733 64.1535 32.6803C64.8628 32.7839 65.4686 32.8768 65.9285 32.9528C66.3953 33.03 66.6961 33.0873 66.8077 33.1192L66.9448 32.6383ZM59.0726 31.4869L52.1706 30.6095L52.1076 31.1055L59.0095 31.9829L59.0726 31.4869ZM52.3594 30.7392L49.0876 24.6455L48.6471 24.882L51.9188 30.9757L52.3594 30.7392ZM49.0876 24.6455C48.1867 22.9675 47.2942 21.377 46.5817 20.1659C46.2256 19.5605 45.9135 19.0483 45.6672 18.6666C45.5441 18.476 45.4362 18.3159 45.3466 18.1922C45.2617 18.075 45.1804 17.9722 45.1121 17.9123L44.7821 18.2879C44.8031 18.3063 44.8549 18.3658 44.9417 18.4856C45.0239 18.599 45.1264 18.7508 45.247 18.9377C45.4881 19.3112 45.7963 19.8169 46.1508 20.4194C46.8593 21.6239 47.7486 23.2086 48.6471 24.882L49.0876 24.6455ZM45.1122 17.9123C44.1819 17.0945 43.045 16.8921 41.8985 17.3426L42.0814 17.8079C43.0519 17.4266 43.9911 17.5926 44.7821 18.2879L45.1122 17.9123ZM39.3062 25.8389C38.3996 27.5182 37.5106 29.0989 36.8089 30.2922C36.458 30.8891 36.1548 31.3874 35.9204 31.7521C35.803 31.9347 35.7042 32.0816 35.626 32.1899C35.5869 32.244 35.5543 32.2866 35.5282 32.3183C35.5152 32.3341 35.5046 32.3461 35.4964 32.3548C35.4878 32.364 35.4839 32.3674 35.4841 32.3672L35.8053 32.7504C35.8727 32.6939 35.9518 32.5928 36.0314 32.4825C36.117 32.3639 36.2213 32.2086 36.3409 32.0225C36.5805 31.6499 36.8874 31.1452 37.24 30.5456C37.9453 29.346 38.8373 27.76 39.7462 26.0765L39.3062 25.8389ZM35.4841 32.3672C35.2829 32.5358 35.1455 32.6457 34.9312 32.7443C34.7113 32.8454 34.3995 32.9392 33.8511 33.0467C32.7522 33.2622 30.7755 33.5205 26.8486 34.0297L26.9129 34.5255C30.8288 34.0178 32.828 33.7569 33.9473 33.5374C34.5081 33.4274 34.866 33.3246 35.1401 33.1985C35.4196 33.07 35.6004 32.922 35.8053 32.7504L35.4841 32.3672ZM26.8486 34.0297C24.9165 34.2803 23.1384 34.5275 21.8298 34.7238C21.1758 34.8219 20.6376 34.9076 20.2557 34.9748C20.0652 35.0083 19.911 35.0377 19.7998 35.0621C19.7447 35.0742 19.6964 35.0858 19.6581 35.097C19.6392 35.1025 19.6185 35.1091 19.5989 35.1169C19.5889 35.1209 19.5439 35.138 19.5038 35.1748L19.8415 35.5435C19.8207 35.5625 19.8022 35.5725 19.7968 35.5753C19.7894 35.5792 19.7845 35.5812 19.7839 35.5814C19.7827 35.5819 19.7865 35.5804 19.798 35.577C19.8204 35.5705 19.856 35.5616 19.907 35.5504C20.0079 35.5283 20.1541 35.5003 20.3424 35.4672C20.7182 35.4011 21.2515 35.3162 21.904 35.2183C23.2084 35.0225 24.9831 34.7759 26.9129 34.5255L26.8486 34.0297ZM19.5033 35.1752C19.3965 35.2736 19.4199 35.4006 19.4268 35.4305C19.4364 35.4724 19.4542 35.5063 19.4647 35.5249C19.4878 35.5659 19.5203 35.6097 19.5535 35.6511C19.6225 35.737 19.7262 35.8516 19.8571 35.9888C20.1204 36.2648 20.5108 36.65 20.9972 37.1151C21.971 38.046 23.3383 39.305 24.8644 40.668L25.1974 40.2951C23.6742 38.9347 22.3113 37.6796 21.3428 36.7536C20.858 36.2903 20.4742 35.9114 20.2189 35.6437C20.0904 35.509 19.9987 35.4068 19.9434 35.338C19.9299 35.3212 19.9196 35.3076 19.912 35.2969C19.9082 35.2917 19.9054 35.2875 19.9033 35.2844C19.9023 35.2828 19.9016 35.2817 19.9011 35.2808C19.9005 35.2799 19.9003 35.2795 19.9003 35.2796C19.9003 35.2796 19.9007 35.2802 19.9012 35.2813C19.9018 35.2824 19.9027 35.2844 19.9039 35.287C19.9059 35.2916 19.9104 35.3025 19.914 35.3183C19.9176 35.3337 19.9424 35.4505 19.842 35.543L19.5033 35.1752ZM24.8644 40.668C26.6761 42.286 28.0741 43.5828 29.0328 44.5324C29.5126 45.0077 29.8792 45.3929 30.132 45.6864C30.2585 45.8333 30.3535 45.9538 30.419 46.0487C30.4518 46.096 30.4754 46.1344 30.4915 46.1646C30.4994 46.1795 30.5049 46.1912 30.5086 46.2001C30.5104 46.2044 30.5117 46.2077 30.5125 46.2101C30.5133 46.2125 30.5135 46.2136 30.5135 46.2135L30.9984 46.0915C30.9719 45.9862 30.9053 45.8728 30.8304 45.7644C30.7508 45.6493 30.6433 45.5139 30.5108 45.3601C30.2456 45.0521 29.8682 44.6562 29.3847 44.1772C28.4169 43.2186 27.0115 41.9152 25.1974 40.2951L24.8644 40.668ZM30.5135 46.2133C30.5132 46.2121 30.5142 46.216 30.5155 46.2275C30.5168 46.2383 30.518 46.2531 30.5188 46.2724C30.5205 46.3112 30.5205 46.3623 30.5186 46.4265C30.5146 46.5546 30.5027 46.7245 30.4831 46.9334C30.4439 47.3505 30.3746 47.9114 30.28 48.5813C30.091 49.9205 29.802 51.6862 29.4535 53.5905L29.9454 53.6805C30.2947 51.7713 30.5849 49.9987 30.7751 48.6512C30.8702 47.9778 30.9406 47.4083 30.9809 46.9802C31.001 46.7664 31.0139 46.5849 31.0183 46.442C31.0224 46.3097 31.0208 46.1809 30.9985 46.0917L30.5135 46.2133ZM29.4535 53.5905C29.113 55.4521 28.8228 57.1634 28.6296 58.4211C28.5331 59.0496 28.4605 59.567 28.4179 59.9342C28.3967 60.117 28.3825 60.2667 28.3769 60.3755C28.3741 60.4291 28.373 60.4793 28.3753 60.5212C28.3765 60.5415 28.3788 60.568 28.3848 60.5952C28.3878 60.6089 28.393 60.6288 28.4024 60.6508C28.4109 60.6706 28.4295 60.7082 28.4672 60.7428L28.8054 60.3746C28.8401 60.4064 28.856 60.4398 28.862 60.4539C28.869 60.4703 28.872 60.483 28.8732 60.4881C28.8754 60.4982 28.875 60.5017 28.8746 60.4934C28.8737 60.4782 28.8737 60.4489 28.8762 60.4015C28.881 60.3086 28.8938 60.1714 28.9146 59.9917C28.9561 59.6337 29.0277 59.1234 29.1238 58.497C29.3161 57.2452 29.6054 55.5388 29.9454 53.6805L29.4535 53.5905ZM28.4672 60.7428C28.5127 60.7846 28.5614 60.7996 28.5875 60.8055C28.6156 60.8119 28.64 60.8128 28.6557 60.8127C28.687 60.8125 28.716 60.8077 28.7367 60.8037C28.78 60.7952 28.8307 60.7805 28.8837 60.7633C28.9919 60.7281 29.1399 60.6725 29.3201 60.6001C29.682 60.4548 30.1911 60.2353 30.8086 59.9592C32.0445 59.4064 33.7237 58.6227 35.5483 57.7412L35.3308 57.291C33.5093 58.171 31.8347 58.9525 30.6045 59.5027C29.989 59.778 29.4868 59.9944 29.1338 60.1361C28.9566 60.2073 28.8212 60.2579 28.7294 60.2877C28.6824 60.3029 28.654 60.3104 28.6401 60.3131C28.6322 60.3146 28.6381 60.3128 28.6521 60.3127C28.6591 60.3127 28.6761 60.3129 28.6984 60.318C28.7186 60.3226 28.7629 60.3355 28.8054 60.3746L28.4672 60.7428ZM35.5483 57.7412C37.7973 56.6545 39.525 55.8559 40.7678 55.3293C41.3895 55.066 41.8863 54.8722 42.2646 54.7447C42.6537 54.6135 42.888 54.5631 43 54.5631V54.0631C42.7959 54.0631 42.4896 54.1412 42.1049 54.2709C41.7095 54.4041 41.1996 54.6034 40.5727 54.8689C39.3184 55.4003 37.582 56.2032 35.3307 57.291L35.5483 57.7412ZM43 54.5631C43.112 54.5631 43.3463 54.6135 43.7354 54.7447C44.1137 54.8722 44.6105 55.066 45.2322 55.3293C46.4751 55.8559 48.2027 56.6545 50.4517 57.7412L50.6693 57.291C48.418 56.2032 46.6816 55.4003 45.4273 54.8689C44.8004 54.6034 44.2905 54.4041 43.8951 54.2709C43.5104 54.1412 43.2041 54.0631 43 54.0631V54.5631ZM50.4517 57.7412C52.2764 58.6227 53.9563 59.4059 55.1935 59.9576C55.8117 60.2333 56.3215 60.4522 56.6844 60.5969C56.865 60.6689 57.0136 60.7243 57.1225 60.759C57.1758 60.7761 57.2271 60.7906 57.2711 60.7989C57.2921 60.8028 57.3215 60.8074 57.3534 60.8072C57.3694 60.8071 57.3938 60.8059 57.4219 60.7991C57.4482 60.7928 57.4954 60.7774 57.5395 60.7367L57.2007 60.369C57.2417 60.3312 57.2843 60.318 57.3047 60.3131C57.3267 60.3077 57.3438 60.3072 57.351 60.3072C57.3652 60.3071 57.3713 60.309 57.3635 60.3075C57.3499 60.3049 57.3216 60.2978 57.2746 60.2827C57.1827 60.2534 57.0471 60.2032 56.8695 60.1324C56.5159 59.9915 56.0132 59.7757 55.3972 59.501C54.1659 58.9519 52.4907 58.1709 50.6693 57.291L50.4517 57.7412ZM57.5392 60.737C57.6032 60.6782 57.6185 60.6043 57.6214 60.5913C57.6277 60.5637 57.6303 60.537 57.6315 60.5164C57.6342 60.474 57.6333 60.4233 57.6307 60.3696C57.6253 60.2602 57.6113 60.1101 57.5903 59.9271C57.5482 59.5596 57.4757 59.0421 57.3791 58.4139C57.1857 57.1567 56.8943 55.4472 56.5516 53.5883L56.0599 53.679C56.402 55.5345 56.6925 57.2389 56.8849 58.49C56.9811 59.1159 57.0525 59.6261 57.0936 59.9841C57.1142 60.1638 57.1267 60.301 57.1312 60.3939C57.1336 60.4412 57.1334 60.4705 57.1325 60.4855C57.132 60.4936 57.1317 60.49 57.134 60.4798C57.1352 60.4746 57.1383 60.462 57.1454 60.4458C57.1517 60.4316 57.1674 60.3995 57.201 60.3687L57.5392 60.737ZM61.139 40.6702C62.6653 39.3079 64.0333 38.0497 65.0077 37.1196C65.4946 36.655 65.8853 36.2703 66.1489 35.9947C66.2799 35.8577 66.3837 35.7434 66.4528 35.6579C66.4861 35.6166 66.5186 35.5732 66.5418 35.5325C66.5523 35.5141 66.5701 35.4805 66.58 35.4388C66.5868 35.4102 66.6121 35.2811 66.5034 35.1817L66.1657 35.5504C66.0634 35.4567 66.0901 35.3377 66.0935 35.3234C66.0972 35.3078 66.1017 35.2969 66.1037 35.2925C66.1049 35.2898 66.1058 35.2879 66.1064 35.2868C66.1066 35.2863 66.1069 35.2858 66.107 35.2856C66.1072 35.2853 66.1072 35.2852 66.1072 35.2852C66.1072 35.2852 66.1072 35.2853 66.107 35.2855C66.1069 35.2857 66.1067 35.286 66.1064 35.2865C66.1059 35.2873 66.1052 35.2885 66.1041 35.2901C66.1021 35.2932 66.0992 35.2974 66.0954 35.3027C66.0877 35.3134 66.0773 35.327 66.0637 35.3438C66.0083 35.4125 65.9163 35.5146 65.7876 35.6491C65.5319 35.9164 65.1476 36.2949 64.6625 36.7579C63.6932 37.683 62.3296 38.9374 60.8061 40.2972L61.139 40.6702ZM66.5037 35.1819C66.4633 35.1448 66.4177 35.1276 66.4082 35.1238C66.3886 35.116 66.368 35.1095 66.3493 35.104C66.3111 35.0929 66.2629 35.0813 66.2079 35.0692C66.0969 35.0449 65.9427 35.0154 65.7522 34.9818C65.3703 34.9144 64.8319 34.8282 64.1774 34.7294C62.8679 34.5316 61.088 34.2822 59.1534 34.0289L59.0885 34.5247C61.0208 34.7777 62.7973 35.0266 64.1027 35.2238C64.7557 35.3224 65.2894 35.4078 65.6653 35.4742C65.8536 35.5074 65.9998 35.5355 66.1007 35.5576C66.1516 35.5688 66.1873 35.5777 66.2096 35.5842C66.2211 35.5875 66.2249 35.589 66.2238 35.5886C66.2232 35.5883 66.2182 35.5863 66.2107 35.5824C66.2055 35.5796 66.1865 35.5695 66.1655 35.5501L66.5037 35.1819ZM59.1534 34.0289C55.2506 33.5176 53.2711 33.2557 52.1692 33.0455C51.6189 32.9404 51.3042 32.8512 51.0844 32.7569C50.8714 32.6655 50.7386 32.566 50.5505 32.4159L50.2386 32.8066C50.4346 32.9632 50.6102 33.0976 50.8873 33.2164C51.1576 33.3323 51.5148 33.4296 52.0755 33.5366C53.1958 33.7504 55.1953 34.0146 59.0885 34.5247L59.1534 34.0289ZM50.5506 32.4159C50.5524 32.4174 50.5413 32.408 50.5143 32.3756C50.4897 32.3461 50.4586 32.3056 50.4207 32.2533C50.3452 32.1489 50.2488 32.0058 50.1336 31.8269C49.9036 31.4695 49.6044 30.9783 49.2566 30.3878C48.5613 29.2075 47.6757 27.6372 46.768 25.9626L46.3284 26.2009C47.2383 27.8795 48.1268 29.4551 48.8258 30.6416C49.1751 31.2346 49.4781 31.7322 49.7132 32.0975C49.8306 32.2799 49.9325 32.4316 50.0157 32.5465C50.0918 32.6516 50.1704 32.7522 50.2386 32.8066L50.5506 32.4159ZM46.768 25.9626C45.8587 24.2849 45.0082 22.7511 44.3703 21.6313C44.0516 21.0716 43.7851 20.614 43.5907 20.2931C43.4937 20.133 43.4131 20.0045 43.3522 19.9136C43.3221 19.8686 43.2942 19.829 43.2701 19.7984C43.2583 19.7834 43.244 19.7661 43.2282 19.7501C43.2203 19.7421 43.209 19.7312 43.1947 19.7202C43.1831 19.7113 43.1555 19.6909 43.1157 19.6774L42.9547 20.1507C42.9185 20.1384 42.8952 20.1206 42.8886 20.1156C42.8794 20.1084 42.8737 20.1027 42.8722 20.1012C42.8693 20.0982 42.8705 20.0991 42.8771 20.1075C42.8896 20.1233 42.9092 20.1507 42.9368 20.1919C42.9914 20.2733 43.0673 20.3942 43.163 20.5522C43.354 20.8674 43.6179 21.3205 43.9359 21.8788C44.5715 22.9947 45.4202 24.5253 46.3284 26.2009L46.768 25.9626ZM43.1152 19.6772C43.0492 19.6549 42.9916 19.6646 42.9584 19.6744C42.925 19.6842 42.8999 19.6986 42.8851 19.7081C42.8557 19.727 42.8328 19.7489 42.8186 19.7633C42.7883 19.7942 42.7565 19.8339 42.7257 19.8751C42.6623 19.9599 42.5802 20.0824 42.483 20.2348C42.2878 20.5412 42.0209 20.9861 41.7023 21.5348C41.0646 22.633 40.2147 24.156 39.3062 25.8389L39.7462 26.0764C40.653 24.3966 41.5003 22.8784 42.1347 21.7858C42.4521 21.2391 42.7149 20.8012 42.9047 20.5035C43.0001 20.3539 43.0743 20.244 43.1263 20.1743C43.1532 20.1383 43.1689 20.1203 43.1751 20.1139C43.1793 20.1097 43.1719 20.1181 43.1553 20.1288C43.1469 20.1342 43.1275 20.1458 43.0992 20.1541C43.071 20.1624 43.0176 20.172 42.9552 20.1509L43.1152 19.6772ZM42.1342 0.501244L42.4725 0.869477V0.869477L42.1342 0.501244ZM42.0849 8.54519L42.4045 8.16069L42.4045 8.16067L42.0849 8.54519ZM43.9027 8.54545L44.2737 8.88066L44.2739 8.88045L43.9027 8.54545ZM43.7385 0.347231L43.4598 0.76234L43.4598 0.762366L43.7385 0.347231ZM27.6051 2.84166L27.249 2.49074L27.2489 2.49083L27.6051 2.84166ZM30.1961 10.757L30.3627 10.2856L30.362 10.2854L30.1961 10.757ZM31.3127 10.7305L31.2004 10.2433L31.2003 10.2433L31.3127 10.7305ZM30.8682 6.02372L30.4021 6.20452L30.4021 6.20454L30.8682 6.02372ZM56.6235 2.83212L56.9617 3.20035L56.6235 2.83212ZM54.8787 6.53824L55.3461 6.71581V6.71581L54.8787 6.53824ZM53.9725 10.3199L53.5404 10.5715L53.5405 10.5716L53.9725 10.3199ZM55.068 10.7891L55.1207 11.2863L55.1208 11.2863L55.068 10.7891ZM58.1224 5.69475L58.5918 5.8671L58.5918 5.86706L58.1224 5.69475ZM58.4384 2.88566L58.7948 2.5349L58.7946 2.53471L58.4384 2.88566ZM14.7758 9.56708L14.4376 9.19885L14.7758 9.56708ZM14.435 10.4286L14.935 10.4238L14.935 10.4233L14.435 10.4286ZM19.7113 16.4457L19.9399 16.001L19.9399 16.001L19.7113 16.4457ZM21.3843 15.827L20.9523 15.5752L20.9523 15.5752L21.3843 15.827ZM18.5249 11.5724L18.158 11.9121L18.158 11.9121L18.5249 11.5724ZM68.1963 10.7493L68.5633 11.0889L68.5634 11.0888L68.1963 10.7493ZM65.5822 13.5415L65.2196 13.1972L65.5822 13.5415ZM69.0618 13.6022L68.6891 13.2688L68.6891 13.2688L69.0618 13.6022ZM71.2242 9.56708L70.8859 9.93531L71.2242 9.56708ZM5.35942 20.0037L5.02126 19.6354L5.02118 19.6354L5.35942 20.0037ZM5.26678 21.5083L5.65047 21.1877V21.1877L5.26678 21.5083ZM9.02856 20.8209L8.79777 21.2645L8.79778 21.2645L9.02856 20.8209ZM72.6074 23.2933L72.9438 23.6633L72.944 23.663L72.6074 23.2933ZM72.5419 24.474L72.949 24.1838L72.9489 24.1836L72.5419 24.474ZM80.9592 21.1499L80.4866 20.9866L80.4866 20.9866L80.9592 21.1499ZM0.346309 32.6293L0.684547 32.9975L0.346309 32.6293ZM0.419034 34.4213L0.722128 34.0236L0.722095 34.0236L0.419034 34.4213ZM4.61658 35.3066L4.54253 35.8011L4.54255 35.8011L4.61658 35.3066ZM9.46404 34.7879L8.97063 34.707L8.97062 34.707L9.46404 34.7879ZM5.16779 32.8753L5.25095 32.3823L5.25091 32.3822L5.16779 32.8753ZM81.2383 32.7321L81.3256 33.2244L81.3257 33.2244L81.2383 32.7321ZM78.2894 33.2416L78.3695 33.7352L78.3696 33.7352L78.2894 33.2416ZM77.1749 35.5306L77.368 35.0694L77.3679 35.0694L77.1749 35.5306ZM81.5759 35.226L81.4964 34.7324L81.4963 34.7324L81.5759 35.226ZM85.6393 34.3656L85.3442 33.962L85.3441 33.962L85.6393 34.3656ZM85.6537 32.6293L85.3155 32.9975L85.6537 32.6293ZM3.89597 45.3541L3.81327 44.861H3.81325L3.89597 45.3541ZM1.42852 48.2154L1.42797 47.7154H1.42794L1.42852 48.2154ZM8.72929 46.9984L8.59295 46.5173L8.59291 46.5173L8.72929 46.9984ZM9.23172 45.1643L9.60275 44.8291L9.60269 44.829L9.23172 45.1643ZM76.8228 45.0882L76.4846 44.72L76.8228 45.0882ZM76.9816 46.6864L77.2959 46.2975L77.2956 46.2974L76.9816 46.6864ZM81.2957 47.699L81.2173 48.1928L81.2174 48.1928L81.2957 47.699ZM82.0726 45.3029L82.1549 44.8097L82.1549 44.8097L82.0726 45.3029ZM77.3423 56.7545L77.2432 56.2644L77.2432 56.2644L77.3423 56.7545ZM69.0453 63.4067L69.3824 63.776L69.0453 63.4067ZM70.2744 65.6939L69.9356 65.3262L69.9355 65.3262L70.2744 65.6939ZM77.4 59.4644L77.1809 59.015L77.1807 59.0151L77.4 59.4644ZM80.892 59.8135L80.606 60.2237L80.606 60.2237L80.892 59.8135ZM82.678 63.0738L82.1917 62.9575L82.1917 62.9576L82.678 63.0738ZM71.3309 74.1482L70.992 73.7806L70.992 73.7806L71.3309 74.1482ZM59.3186 84.9498L59.0618 84.5208L59.0617 84.5208L59.3186 84.9498ZM45.8501 85.5929L45.8554 86.0928H45.8554L45.8501 85.5929ZM33.2341 85.7254L33.2288 85.2254L33.0839 85.227L32.9623 85.3057L33.2341 85.7254ZM31.874 86.6063L31.6022 86.1866H31.6022L31.874 86.6063ZM30.5138 87.4871L30.1839 87.8629L30.4681 88.1124L30.7856 87.9068L30.5138 87.4871ZM29.3598 86.4737L29.0298 86.8494L29.0299 86.8494L29.3598 86.4737ZM18.2915 76.5686L18.5413 76.1355L18.5412 76.1355L18.2915 76.5686ZM14.6174 76.0499V75.5499H14.4237L14.2805 75.6804L14.6174 76.0499ZM10.8438 79.4912L10.5069 79.1217L10.5069 79.1217L10.8438 79.4912ZM7.07047 82.9325L6.73354 82.563L6.33018 82.9309L6.73199 83.3005L7.07047 82.9325ZM15.5839 90.7628L15.2454 91.1308L15.2454 91.1308L15.5839 90.7628ZM25.1166 98.8473L24.9955 99.3324L24.9957 99.3324L25.1166 98.8473ZM31.745 95.2671L32.0839 95.6347L32.0839 95.6347L31.745 95.2671ZM35.3524 91.9416L35.6912 92.3092L36.0989 91.9334L35.6831 91.5666L35.3524 91.9416ZM33.9674 90.7201L33.6366 91.095L33.6367 91.0951L33.9674 90.7201ZM32.5825 89.4983L32.233 89.1408L31.8479 89.5171L32.2517 89.8733L32.5825 89.4983ZM33.2084 88.8865L33.5579 89.2441L33.5581 89.2439L33.2084 88.8865ZM33.8341 88.2744L33.8308 87.7745L33.6288 87.7758L33.4844 87.917L33.8341 88.2744ZM46.137 88.1928L46.1403 88.6928L46.137 88.1928ZM58.4396 88.1111L58.4429 88.6111L58.549 88.6104L58.6457 88.5667L58.4396 88.1111ZM60.0268 87.393L60.2329 87.8486L60.233 87.8486L60.0268 87.393ZM73.1811 75.9945L73.5203 76.3618H73.5203L73.1811 75.9945ZM85.0855 64.2229L85.5631 64.3707L85.5631 64.3707L85.0855 64.2229ZM83.8059 58.8592L84.1716 58.5184L84.1716 58.5183L83.8059 58.8592ZM30.6275 67.0445L30.8198 67.506L30.82 67.506L30.6275 67.0445ZM27.1059 73.298L27.4416 73.6685L27.4417 73.6685L27.1059 73.298ZM31.9424 69.1893L32.1552 69.6417L32.1553 69.6417L31.9424 69.1893ZM56.2189 70.3432L55.771 70.5653L55.771 70.5654L56.2189 70.3432ZM55.7219 73.7262L55.3635 73.3776L55.3634 73.3777L55.7219 73.7262ZM54.8804 74.5919L54.8851 75.0919L55.0936 75.0899L55.2389 74.9404L54.8804 74.5919ZM46.5733 74.6701L46.578 75.1701H46.578L46.5733 74.6701ZM37.8914 75.0338L37.5884 74.636L37.5882 74.6362L37.8914 75.0338ZM37.8631 76.7921L38.2013 76.4239L37.8631 76.7921ZM54.8983 77.1102V77.6102H55.0163L55.1219 77.5574L54.8983 77.1102ZM56.2547 76.4321L56.0311 75.9849L56.0311 75.9849L56.2547 76.4321ZM59.151 70.4492L58.6712 70.5898L58.6712 70.5899L59.151 70.4492ZM56.4475 67.1707L56.2105 67.6109H56.2105L56.4475 67.1707ZM55.2143 66.5069L55.4513 66.0666L55.3402 66.0068L55.2141 66.0069L55.2143 66.5069ZM43.5518 66.5127L43.5515 66.0127H43.5515L43.5518 66.5127ZM13.2731 80.6907L13.6123 81.058L13.6124 81.058L13.2731 80.6907ZM10.8305 82.946L10.4913 82.5787L10.0925 82.9469L10.4922 83.3142L10.8305 82.946ZM18.1832 89.7035L17.8449 90.0716H17.8449L18.1832 89.7035ZM29.0798 94.2706L28.7406 93.9033L28.7406 93.9033L29.0798 94.2706ZM31.4523 92.08L31.7915 92.4473L32.1905 92.0789L31.7905 91.7116L31.4523 92.08ZM24.0211 85.2578L24.3593 84.8895H24.3593L24.0211 85.2578ZM41.796 0.133011C41.6411 0.275268 41.4941 0.43683 41.3788 0.664469C41.2666 0.886111 41.1997 1.14005 41.1558 1.44971C41.0703 2.05204 41.057 2.9909 41.057 4.56894H42.057C42.057 2.9628 42.0726 2.1064 42.1459 1.59021C42.1813 1.3406 42.2263 1.20448 42.271 1.11622C42.3126 1.03396 42.3676 0.965795 42.4725 0.869477L41.796 0.133011ZM41.057 4.56894C41.057 6.10301 41.0728 7.03829 41.1524 7.63799C41.1928 7.94293 41.2537 8.19596 41.3564 8.41174C41.4649 8.63949 41.6066 8.7978 41.7653 8.9297L42.4045 8.16067C42.3326 8.10091 42.293 8.05266 42.2593 7.98179C42.2198 7.89896 42.1775 7.76133 42.1437 7.50641C42.0747 6.9864 42.057 6.12521 42.057 4.56894H41.057ZM41.7653 8.92969C42.1561 9.25455 42.5939 9.46372 43.0564 9.46382C43.5329 9.46392 43.947 9.24221 44.2737 8.88066L43.5317 8.21025C43.3542 8.40669 43.1951 8.46385 43.0566 8.46382C42.904 8.46379 42.685 8.39382 42.4045 8.16069L41.7653 8.92969ZM44.2739 8.88045C44.4238 8.71432 44.5116 8.49909 44.5712 8.27829C44.6325 8.05122 44.6762 7.77066 44.7086 7.43313C44.7733 6.75771 44.7987 5.78558 44.7987 4.41519H43.7987C43.7987 5.78391 43.7729 6.71414 43.7131 7.3377C43.6832 7.64965 43.6463 7.86773 43.6058 8.01762C43.5636 8.17377 43.5285 8.21382 43.5315 8.21045L44.2739 8.88045ZM44.7987 4.41519C44.7987 2.75627 44.7868 1.78325 44.7045 1.18526C44.6625 0.880446 44.597 0.62551 44.4763 0.410831C44.348 0.182656 44.1814 0.042309 44.0172 -0.0679037L43.4598 0.762366C43.5498 0.822734 43.5802 0.857606 43.6046 0.900952C43.6366 0.957791 43.6793 1.07067 43.7138 1.32164C43.7845 1.83521 43.7987 2.72559 43.7987 4.41519H44.7987ZM44.0172 -0.067878C43.6749 -0.297735 43.2986 -0.536406 42.8701 -0.495253C42.649 -0.474027 42.4606 -0.384583 42.2955 -0.275593C42.1348 -0.169468 41.9699 -0.0267655 41.796 0.133011L42.4725 0.869477C42.6418 0.713938 42.7571 0.617966 42.8466 0.558886C42.9317 0.502672 42.9634 0.500381 42.9657 0.500168C42.9836 0.498444 43.0662 0.498082 43.4598 0.76234L44.0172 -0.067878ZM27.2489 2.49083C27.0895 2.65267 26.9458 2.84054 26.839 3.01878C26.7854 3.1081 26.7365 3.20269 26.6996 3.29692C26.6659 3.38298 26.6275 3.50513 26.6275 3.63877H27.6275C27.6275 3.68651 27.616 3.69942 27.6308 3.66158C27.6424 3.63192 27.6637 3.58797 27.6967 3.53282C27.7631 3.42212 27.8582 3.29733 27.9614 3.1925L27.2489 2.49083ZM26.6275 3.63877C26.6275 3.744 26.6497 3.85715 26.6711 3.94883C26.6947 4.05017 26.7277 4.16682 26.767 4.29322C26.8457 4.54658 26.9565 4.86094 27.0877 5.2106C27.3506 5.91113 27.7033 6.77429 28.0662 7.61621C28.429 8.45787 28.8049 9.28497 29.1147 9.91274C29.2691 10.2254 29.4108 10.4963 29.5286 10.697C29.5868 10.7961 29.6454 10.8887 29.7014 10.9635C29.7291 11.0005 29.7635 11.043 29.8033 11.0825C29.8327 11.1117 29.911 11.1868 30.0302 11.2287L30.362 10.2854C30.4169 10.3047 30.4541 10.3296 30.4716 10.3423C30.4908 10.3563 30.5028 10.3678 30.5072 10.3722C30.5155 10.3805 30.514 10.3804 30.5019 10.3642C30.4784 10.3327 30.4415 10.2767 30.3909 10.1906C30.2912 10.0208 30.1619 9.77492 30.0115 9.47015C29.7118 8.86306 29.3433 8.0528 28.9845 7.22036C28.6258 6.38818 28.2796 5.54051 28.0239 4.85928C27.8959 4.51805 27.7925 4.22379 27.7219 3.99651C27.6865 3.8826 27.6611 3.79093 27.6449 3.72166C27.6265 3.64274 27.6275 3.623 27.6275 3.63877H26.6275ZM30.0295 11.2285C30.2276 11.2984 30.4831 11.3119 30.6992 11.3068C30.9316 11.3012 31.1903 11.2719 31.425 11.2177L31.2003 10.2433C31.0385 10.2806 30.8478 10.303 30.6754 10.307C30.59 10.3091 30.5152 10.3065 30.4556 10.3006C30.426 10.2977 30.4027 10.2942 30.3855 10.2909C30.3675 10.2874 30.3608 10.2849 30.3627 10.2856L30.0295 11.2285ZM31.425 11.2178C31.7441 11.1442 32.0738 10.9984 32.2887 10.6767C32.4967 10.3654 32.5332 9.98339 32.4956 9.58502C32.4218 8.80348 32.023 7.61805 31.3344 5.84289L30.4021 6.20454C31.1036 8.01304 31.4418 9.06239 31.5 9.67903C31.5284 9.97975 31.4796 10.0877 31.4572 10.1212C31.4418 10.1443 31.3959 10.1982 31.2004 10.2433L31.425 11.2178ZM31.3344 5.84291C30.983 4.93698 30.6678 4.19887 30.373 3.62063C30.082 3.04963 29.7935 2.59899 29.4839 2.29713C29.1632 1.98437 28.7736 1.7906 28.321 1.85653C27.9074 1.91676 27.5538 2.18134 27.249 2.49074L27.9613 3.19258C28.2186 2.93139 28.3795 2.85855 28.4651 2.84609C28.5116 2.83931 28.6058 2.83757 28.7858 3.01309C28.977 3.19952 29.2062 3.53342 29.4821 4.07477C29.7544 4.60889 30.0555 5.31094 30.4021 6.20452L31.3344 5.84291ZM56.2853 2.46389C56.1465 2.59137 56.0087 2.81524 55.8898 3.02667C55.7575 3.26189 55.606 3.56214 55.445 3.90401C55.1226 4.58883 54.7527 5.46192 54.4113 6.36068L55.3461 6.71581C55.6797 5.83772 56.0397 4.98856 56.3498 4.32994C56.5051 4.00009 56.6453 3.72333 56.7615 3.51675C56.8197 3.41325 56.869 3.33236 56.9088 3.27341C56.9533 3.20755 56.9704 3.19238 56.9617 3.20035L56.2853 2.46389ZM54.4113 6.36067C53.9128 7.67271 53.6088 8.53559 53.4659 9.13188C53.3234 9.72647 53.3097 10.1752 53.5404 10.5715L54.4046 10.0683C54.3736 10.0151 54.3125 9.89015 54.4384 9.36489C54.5638 8.84133 54.8437 8.03817 55.3461 6.71581L54.4113 6.36067ZM53.5405 10.5716C53.6955 10.8377 53.9068 11.0552 54.2033 11.1821C54.4887 11.3043 54.8012 11.3202 55.1207 11.2863L55.0153 10.2919C54.7873 10.3161 54.6657 10.2923 54.5969 10.2629C54.5394 10.2382 54.4767 10.1921 54.4046 10.0683L53.5405 10.5716ZM55.1208 11.2863C55.8256 11.2114 56.3643 10.6632 56.8606 9.83537C57.369 8.98746 57.9191 7.69907 58.5918 5.8671L57.6531 5.5224C56.9818 7.35042 56.4588 8.56097 56.003 9.32113C55.5351 10.1014 55.2186 10.2703 55.0152 10.2919L55.1208 11.2863ZM58.5918 5.86706C58.7936 5.31747 58.9494 4.88935 59.0596 4.55254C59.1682 4.22094 59.2437 3.94587 59.2702 3.71069C59.2985 3.45887 59.2735 3.22875 59.1632 3.00734C59.0654 2.81107 58.9148 2.65681 58.7948 2.5349L58.0821 3.23643C58.2142 3.37059 58.2514 3.41968 58.2682 3.45336C58.2724 3.46188 58.2889 3.4883 58.2764 3.59892C58.2621 3.72618 58.2147 3.91944 58.1093 4.24139C58.0056 4.55812 57.8563 4.96875 57.6531 5.52243L58.5918 5.86706ZM58.7946 2.53471C58.4409 2.17582 58.0382 1.89722 57.5553 1.88295C57.0707 1.86864 56.6546 2.12462 56.2853 2.46389L56.9617 3.20035C57.2625 2.9241 57.4315 2.87973 57.5257 2.88252C57.6216 2.88535 57.7913 2.94129 58.0823 3.23662L58.7946 2.53471ZM14.4376 9.19885C14.2674 9.35518 14.1458 9.57044 14.0679 9.76731C13.9882 9.96862 13.9326 10.2052 13.935 10.4339L14.935 10.4233C14.9342 10.353 14.9538 10.2463 14.9977 10.1353C15.0434 10.0199 15.0938 9.95393 15.1141 9.93531L14.4376 9.19885ZM13.935 10.4334C13.9366 10.592 14.0044 10.7344 14.0375 10.8014C14.0824 10.8924 14.1421 10.9925 14.2086 11.0953C14.3426 11.3024 14.5286 11.5577 14.7464 11.8398C15.1834 12.406 15.7704 13.1088 16.3807 13.8048C16.9912 14.501 17.6304 15.1965 18.173 15.7477C18.4439 16.023 18.6946 16.2661 18.9078 16.4567C19.1078 16.6354 19.3128 16.8031 19.4827 16.8904L19.9399 16.001C19.8975 15.9792 19.7786 15.8938 19.5742 15.7111C19.383 15.5402 19.1488 15.3135 18.8856 15.0462C18.3601 14.5123 17.7343 13.8317 17.1326 13.1455C16.5306 12.459 15.9581 11.773 15.538 11.2288C15.3272 10.9557 15.1603 10.7254 15.0482 10.5521C14.9916 10.4647 14.9549 10.4008 14.9341 10.3586C14.9014 10.2924 14.9341 10.3324 14.935 10.4238L13.935 10.4334ZM19.4827 16.8904C20.3492 17.3359 21.3385 16.8984 21.8162 16.0788L20.9523 15.5752C20.6751 16.0509 20.2232 16.1467 19.9399 16.001L19.4827 16.8904ZM21.8162 16.0788C21.9408 15.8651 22.0424 15.6058 22.0029 15.2773C21.9668 14.9773 21.8195 14.6824 21.6072 14.3666C21.1848 13.738 20.344 12.801 18.8918 11.2327L18.158 11.9121C19.6334 13.5055 20.4087 14.376 20.7772 14.9244C20.9605 15.197 21.0024 15.333 21.0101 15.3967C21.0143 15.4319 21.0141 15.4691 20.9523 15.5752L21.8162 16.0788ZM18.8918 11.2327C17.8208 10.0759 17.0318 9.32323 16.3798 8.97455C16.0392 8.7924 15.6916 8.69519 15.334 8.74253C14.9766 8.78985 14.6849 8.97171 14.4376 9.19885L15.1141 9.93531C15.272 9.79028 15.3814 9.74499 15.4653 9.73388C15.5491 9.72278 15.6829 9.73585 15.9082 9.85635C16.388 10.113 17.0684 10.7351 18.158 11.9121L18.8918 11.2327ZM67.8292 10.4098C67.0671 11.2337 65.8923 12.4886 65.2196 13.1972L65.9448 13.8857C66.621 13.1735 67.7988 11.9154 68.5633 11.0889L67.8292 10.4098ZM65.2196 13.1972C64.7888 13.651 64.455 14.0811 64.2315 14.4792C64.0124 14.8695 63.8732 15.2755 63.9029 15.6651C63.9354 16.0912 64.1653 16.4293 64.5336 16.6384C64.8742 16.8317 65.3138 16.9062 65.8007 16.9062V15.9062C65.3944 15.9062 65.1534 15.8403 65.0272 15.7687C64.9287 15.7128 64.9055 15.6614 64.9 15.589C64.8917 15.4801 64.9294 15.2788 65.1035 14.9687C65.2733 14.6663 65.5488 14.3029 65.9448 13.8857L65.2196 13.1972ZM65.8007 16.9062C66.2851 16.9062 66.7115 16.673 67.2275 16.2293C67.7434 15.7856 68.4282 15.0603 69.4344 13.9355L68.6891 13.2688C67.6772 14.3999 67.0342 15.0766 66.5755 15.471C66.1169 15.8654 65.9217 15.9062 65.8007 15.9062V16.9062ZM69.4344 13.9356C70.6656 12.5594 71.4197 11.6567 71.7671 11.0084C71.9441 10.678 72.0553 10.344 72.0144 10.0057C71.9716 9.65132 71.7756 9.39466 71.5624 9.19885L70.8859 9.93531C71.0069 10.0465 71.0186 10.1002 71.0217 10.1256C71.0266 10.1669 71.0218 10.282 70.8857 10.5361C70.6066 11.0569 69.9453 11.8647 68.6891 13.2688L69.4344 13.9356ZM71.5624 9.19885C71.3243 8.98012 71.0486 8.82049 70.7292 8.75973C70.4096 8.69892 70.0897 8.74539 69.777 8.86748C69.1755 9.10229 68.539 9.64207 67.8291 10.4099L68.5634 11.0888C69.2578 10.3377 69.7645 9.94585 70.1406 9.799C70.3167 9.73027 70.4441 9.72341 70.5423 9.7421C70.6408 9.76084 70.7534 9.81354 70.8859 9.93531L71.5624 9.19885ZM5.02118 19.6354C4.70942 19.9218 4.4549 20.2666 4.42834 20.6979C4.40187 21.1277 4.61067 21.5028 4.88309 21.8289L5.65047 21.1877C5.44181 20.938 5.4232 20.8122 5.42645 20.7594C5.42961 20.708 5.46196 20.5884 5.69765 20.3719L5.02118 19.6354ZM4.88309 21.8289C4.99866 21.9672 5.20812 22.1169 5.40884 22.2501C5.63129 22.3977 5.91573 22.571 6.23801 22.758C6.88364 23.1328 7.70055 23.5743 8.51959 23.9959C9.33854 24.4174 10.1657 24.8221 10.8322 25.1227C11.1648 25.2726 11.4631 25.3993 11.7031 25.4895C11.8228 25.5344 11.9343 25.5727 12.032 25.6004C12.117 25.6246 12.2352 25.654 12.3499 25.654V24.654C12.3834 24.654 12.3789 24.6594 12.3052 24.6385C12.2441 24.6211 12.1608 24.5932 12.0548 24.5533C11.8434 24.4739 11.567 24.357 11.2433 24.2111C10.5974 23.9198 9.78643 23.5232 8.97723 23.1067C8.16811 22.6903 7.36685 22.257 6.74003 21.8932C6.42609 21.711 6.16074 21.5489 5.96178 21.4169C5.86212 21.3508 5.78365 21.2951 5.72602 21.2505C5.66198 21.201 5.64523 21.1814 5.65047 21.1877L4.88309 21.8289ZM12.3499 25.654C12.8302 25.654 13.2659 25.4782 13.5814 25.1553C13.8961 24.8332 14.0638 24.393 14.0638 23.9115H13.0638C13.0638 24.1585 12.9804 24.3395 12.8661 24.4565C12.7526 24.5727 12.5814 24.654 12.3499 24.654V25.654ZM14.0638 23.9115C14.0638 23.6726 14.0176 23.4237 13.8395 23.1656C13.6794 22.9336 13.4328 22.7247 13.1053 22.5016C12.4502 22.0551 11.2844 21.4309 9.25933 20.3774L8.79778 21.2645C10.8462 22.3302 11.948 22.923 12.5421 23.3279C12.8393 23.5304 12.9627 23.6557 13.0164 23.7336C13.0522 23.7855 13.0638 23.8221 13.0638 23.9115H14.0638ZM9.25934 20.3774C7.9854 19.7145 7.17122 19.3163 6.58398 19.1856C6.26853 19.1153 5.97748 19.1111 5.69485 19.2055C5.42183 19.2968 5.20781 19.4641 5.02126 19.6354L5.69758 20.372C5.8491 20.2328 5.93868 20.1784 6.01191 20.1539C6.07553 20.1327 6.17337 20.1186 6.36659 20.1616C6.79671 20.2574 7.47902 20.5783 8.79777 21.2645L9.25934 20.3774ZM75.9493 20.7478C75.1114 21.1916 74.2866 21.6522 73.6313 22.0377C73.304 22.2303 73.0162 22.4057 72.7892 22.5519C72.5735 22.6907 72.3818 22.8225 72.2707 22.9237L72.944 23.663C72.9844 23.6263 73.1073 23.5364 73.3305 23.3927C73.5423 23.2563 73.8176 23.0883 74.1384 22.8996C74.7794 22.5225 75.5912 22.0691 76.4174 21.6315L75.9493 20.7478ZM72.271 22.9234C72.1448 23.0382 72.0177 23.1562 71.923 23.274C71.8227 23.3988 71.7201 23.5694 71.7078 23.7925C71.6959 24.0058 71.7718 24.1867 71.8452 24.3225C71.9185 24.4581 72.0228 24.6074 72.1349 24.7645L72.9489 24.1836C72.8314 24.019 72.7639 23.9191 72.725 23.8471C72.6862 23.7752 72.7094 23.79 72.7062 23.8478C72.7025 23.9154 72.6698 23.9411 72.7024 23.9006C72.7405 23.8531 72.8094 23.7855 72.9438 23.6633L72.271 22.9234ZM72.1347 24.7643C72.3044 25.0022 72.5263 25.2128 72.7518 25.367C72.9603 25.5096 73.2449 25.654 73.5361 25.654V24.654C73.5474 24.654 73.4681 24.6454 73.3162 24.5415C73.1813 24.4492 73.046 24.3198 72.949 24.1838L72.1347 24.7643ZM73.5361 25.654C73.6575 25.654 73.7839 25.6246 73.8848 25.5964C73.9959 25.5654 74.1216 25.5223 74.256 25.4715C74.5255 25.3695 74.8558 25.2263 75.2206 25.0571C75.9517 24.718 76.8464 24.2627 77.7182 23.7925C78.5898 23.3223 79.4461 22.8331 80.0996 22.4252C80.4252 22.222 80.7083 22.0341 80.9199 21.8757C81.0249 21.7972 81.1214 21.7191 81.1993 21.6448C81.2382 21.6077 81.2792 21.5652 81.316 21.5188C81.3488 21.4772 81.3995 21.4065 81.4318 21.3131L80.4866 20.9866C80.498 20.9535 80.5109 20.9304 80.5179 20.9187C80.5253 20.9065 80.5308 20.8994 80.5319 20.8981C80.5335 20.8961 80.5277 20.9034 80.5092 20.9211C80.4722 20.9564 80.4108 21.0077 80.3207 21.0751C80.142 21.2089 79.8861 21.3797 79.5701 21.5769C78.9404 21.9699 78.1038 22.4483 77.2435 22.9124C76.3834 23.3763 75.5074 23.8218 74.7999 24.1499C74.4454 24.3143 74.1395 24.4464 73.9021 24.5362C73.7831 24.5812 73.6877 24.6132 73.6159 24.6333C73.5338 24.6562 73.5155 24.654 73.5361 24.654V25.654ZM81.4318 21.3132C81.6172 20.7767 81.47 20.2194 81.184 19.8153C80.898 19.4114 80.421 19.0872 79.8527 19.0872V20.0872C80.0273 20.0872 80.2254 20.1919 80.3678 20.3931C80.5101 20.5942 80.5448 20.8182 80.4866 20.9866L81.4318 21.3132ZM79.8527 19.0872C79.7419 19.0872 79.6265 19.1124 79.5356 19.1361C79.4349 19.1623 79.3205 19.1988 79.1976 19.2421C78.9514 19.329 78.6477 19.4519 78.3092 19.5997C77.6309 19.8958 76.7907 20.3021 75.9493 20.7478L76.4174 21.6315C77.2399 21.1958 78.0574 20.8008 78.7093 20.5161C79.0359 20.3735 79.3154 20.261 79.5304 20.1852C79.6381 20.1471 79.7238 20.1204 79.7877 20.1038C79.8614 20.0846 79.875 20.0872 79.8527 20.0872V19.0872ZM0.00807139 32.2611C-0.367108 32.6057 -0.503634 33.1172 -0.48552 33.5638C-0.46743 34.0098 -0.290036 34.5095 0.115972 34.8189L0.722095 34.0236C0.619895 33.9457 0.523561 33.7675 0.513658 33.5233C0.503779 33.2797 0.584995 33.089 0.684547 32.9975L0.00807139 32.2611ZM0.115939 34.8189C0.211415 34.8917 0.331607 34.9385 0.409277 34.9668C0.504391 35.0015 0.619196 35.0366 0.746647 35.0719C1.00262 35.1427 1.33645 35.2211 1.72178 35.3024C2.49396 35.4653 3.49561 35.6443 4.54253 35.8011L4.69064 34.8121C3.65942 34.6577 2.67759 34.482 1.92817 34.3239C1.55271 34.2447 1.24121 34.1711 1.01323 34.1081C0.898709 34.0764 0.811884 34.0492 0.751451 34.0272C0.673572 33.9988 0.684298 33.9948 0.722128 34.0236L0.115939 34.8189ZM4.54255 35.8011C6.51743 36.0968 7.75879 36.2426 8.52778 36.1603C8.92533 36.1178 9.27866 36.0077 9.54265 35.7542C9.80753 35.4999 9.9077 35.1723 9.95746 34.8687L8.97062 34.707C8.93481 34.9255 8.88575 34.9986 8.85003 35.0329C8.81343 35.0681 8.7148 35.1346 8.42136 35.166C7.80836 35.2316 6.71157 35.1147 4.69062 34.8121L4.54255 35.8011ZM9.95745 34.8688C10.0115 34.5389 9.96266 34.2049 9.74658 33.9038C9.54614 33.6244 9.23605 33.4223 8.86997 33.2594C8.14336 32.9359 6.9717 32.6725 5.25095 32.3823L5.08463 33.3683C6.81976 33.661 7.86924 33.9085 8.46329 34.173C8.75754 34.3039 8.88266 34.4151 8.9341 34.4867C8.96989 34.5366 8.98956 34.5915 8.97063 34.707L9.95745 34.8688ZM5.25091 32.3822C3.3268 32.0579 2.20481 31.882 1.50627 31.8464C1.15367 31.8284 0.865921 31.8429 0.617909 31.9126C0.351295 31.9875 0.16623 32.1158 0.00807138 32.2611L0.684547 32.9975C0.761156 32.9272 0.81205 32.8968 0.888345 32.8753C0.983241 32.8487 1.14535 32.8293 1.45532 32.8451C2.08192 32.877 3.13589 33.0398 5.08467 33.3683L5.25091 32.3822ZM81.1509 32.2398C80.0401 32.437 78.7162 32.6658 78.2093 32.7481L78.3696 33.7352C78.8843 33.6516 80.2143 33.4217 81.3256 33.2244L81.1509 32.2398ZM78.2094 32.7481C77.2312 32.9068 76.4407 33.4027 76.1191 34.0632C75.9528 34.4048 75.9121 34.8012 76.0766 35.1764C76.2383 35.5452 76.5645 35.8172 76.9819 35.9919L77.3679 35.0694C77.1129 34.9627 77.0225 34.8435 76.9924 34.7749C76.9652 34.7127 76.9575 34.6256 77.0182 34.5009C77.1507 34.2289 77.5899 33.8617 78.3695 33.7352L78.2094 32.7481ZM76.9818 35.9918C77.3658 36.1526 77.8475 36.1834 78.5364 36.1357C79.2353 36.0873 80.2206 35.951 81.6555 35.7197L81.4963 34.7324C80.0604 34.9639 79.1158 35.0932 78.4673 35.1381C77.8088 35.1837 77.5254 35.1353 77.368 35.0694L76.9818 35.9918ZM81.6555 35.7197C82.68 35.5546 83.6544 35.3743 84.4004 35.2163C84.7727 35.1374 85.0931 35.0631 85.3363 34.9981C85.4573 34.9657 85.5654 34.934 85.654 34.9035C85.7215 34.8803 85.8406 34.8378 85.9344 34.7692L85.3441 33.962C85.3883 33.9297 85.407 33.931 85.3286 33.9579C85.2712 33.9777 85.188 34.0026 85.0779 34.032C84.8588 34.0906 84.5575 34.1608 84.1933 34.238C83.4662 34.3919 82.5082 34.5694 81.4964 34.7324L81.6555 35.7197ZM85.9344 34.7692C86.3428 34.4706 86.4843 33.9525 86.4878 33.5316C86.4913 33.1027 86.3555 32.595 85.9919 32.2611L85.3155 32.9975C85.4039 33.0787 85.4899 33.2716 85.4878 33.5233C85.4857 33.783 85.394 33.9255 85.3442 33.962L85.9344 34.7692ZM85.9919 32.2611C85.7886 32.0743 85.5205 31.9766 85.2479 31.9228C84.9692 31.8678 84.6366 31.8493 84.2561 31.8582C83.4948 31.8759 82.4684 32.0057 81.1508 32.2399L81.3257 33.2244C82.6291 32.9928 83.5956 32.8738 84.2794 32.8579C84.6214 32.8499 84.8743 32.8684 85.0543 32.9039C85.2403 32.9406 85.3039 32.9869 85.3155 32.9975L85.9919 32.2611ZM3.81325 44.861C2.11749 45.1454 1.07464 45.3463 0.463686 45.6048C0.144783 45.7398 -0.12281 45.9161 -0.295694 46.1857C-0.468661 46.4555 -0.5 46.7467 -0.5 47.0026H0.5C0.5 46.8194 0.525838 46.7571 0.546091 46.7256C0.566428 46.6938 0.628099 46.6211 0.85337 46.5258C1.33076 46.3238 2.2359 46.1395 3.97869 45.8472L3.81325 44.861ZM-0.5 47.0026C-0.5 47.508 -0.321225 47.9606 0.0525749 48.2779C0.415138 48.5858 0.901664 48.716 1.42911 48.7154L1.42794 47.7154C1.05383 47.7158 0.826091 47.6229 0.699781 47.5156C0.584708 47.4179 0.5 47.2636 0.5 47.0026H-0.5ZM1.42908 48.7154C1.65184 48.7151 2.17602 48.6497 2.79947 48.5602C3.44308 48.4678 4.24223 48.3421 5.04922 48.2075C6.64702 47.9412 8.32585 47.6325 8.86567 47.4794L8.59291 46.5173C8.1192 46.6516 6.50521 46.951 4.88479 47.2211C4.08268 47.3549 3.29136 47.4794 2.6574 47.5704C2.00328 47.6642 1.56277 47.7152 1.42797 47.7154L1.42908 48.7154ZM8.86563 47.4794C9.4278 47.3201 9.75449 46.7948 9.88026 46.3357C10.0066 45.8745 9.99166 45.2596 9.60275 44.8291L8.8607 45.4994C8.93325 45.5798 8.99305 45.7895 8.9158 46.0715C8.83796 46.3556 8.6827 46.4919 8.59295 46.5173L8.86563 47.4794ZM9.60269 44.829C9.21825 44.4036 8.66342 44.2953 7.84745 44.3243C7.02228 44.3536 5.76885 44.533 3.81327 44.861L3.97868 45.8472C5.94736 45.517 7.13482 45.3503 7.88298 45.3237C8.64033 45.2967 8.79125 45.4226 8.86076 45.4995L9.60269 44.829ZM76.4846 44.72C76.1323 45.0436 75.9542 45.4753 75.9992 45.9293C76.0433 46.3736 76.2936 46.7736 76.6674 47.0754L77.2956 46.2974C77.0828 46.1255 77.0065 45.9534 76.9944 45.8306C76.9831 45.7174 77.019 45.5869 77.1611 45.4564L76.4846 44.72ZM76.6672 47.0752C76.7605 47.1506 76.8755 47.2048 76.9666 47.2431C77.0684 47.286 77.189 47.3286 77.3217 47.3706C77.5877 47.455 77.9292 47.5455 78.322 47.6377C79.1092 47.8225 80.1285 48.02 81.2173 48.1928L81.3741 47.2052C80.3037 47.0353 79.309 46.8422 78.5505 46.6642C78.1705 46.575 77.8562 46.4911 77.6239 46.4174C77.5074 46.3805 77.4181 46.3482 77.3545 46.3214C77.2802 46.2902 77.2742 46.28 77.2959 46.2975L76.6672 47.0752ZM81.2174 48.1928C82.2498 48.3566 83.0714 48.476 83.7207 48.5423C84.3625 48.6078 84.8724 48.6258 85.2663 48.5692C85.6681 48.5115 86.0283 48.3639 86.2575 48.03C86.4677 47.7237 86.5 47.3506 86.5 47.0233H85.5C85.5 47.3196 85.4601 47.4246 85.4329 47.4642C85.4248 47.4761 85.3826 47.5422 85.1241 47.5794C84.8577 47.6176 84.4494 47.6115 83.8223 47.5475C83.2028 47.4842 82.4048 47.3687 81.374 47.2052L81.2174 48.1928ZM86.5 47.0233C86.5 46.7494 86.4613 46.4511 86.2838 46.1755C86.1071 45.9012 85.8363 45.716 85.5092 45.5727C84.882 45.298 83.8299 45.0894 82.1549 44.8097L81.9902 45.7961C83.7079 46.0829 84.6196 46.2747 85.1079 46.4887C85.3386 46.5897 85.4134 46.6709 85.4431 46.717C85.4718 46.7616 85.5 46.8374 85.5 47.0233H86.5ZM82.1549 44.8097C80.3334 44.5056 79.1115 44.3364 78.2795 44.3024C77.4729 44.2694 76.8848 44.3523 76.4846 44.72L77.1611 45.4564C77.2402 45.3838 77.4525 45.2694 78.2387 45.3016C78.9995 45.3327 80.1628 45.491 81.9902 45.7961L82.1549 44.8097ZM77.2432 56.2644C76.5416 56.4063 75.983 56.6731 74.8224 57.6036C73.6746 58.5238 71.8812 60.1404 68.7082 63.0375L69.3824 63.776C72.5659 60.8693 74.3313 59.2791 75.4479 58.3838C76.5519 57.4987 76.9635 57.3412 77.4414 57.2446L77.2432 56.2644ZM68.7082 63.0375C66.7807 64.7973 65.0268 66.4499 63.7532 67.6954C63.1171 68.3175 62.5972 68.8415 62.2346 69.228C62.0542 69.4203 61.9068 69.5848 61.8021 69.7133C61.7506 69.7765 61.7019 69.8403 61.6634 69.8998C61.6444 69.9291 61.6215 69.9673 61.6016 70.0107C61.5876 70.0413 61.547 70.1322 61.547 70.2507H62.547C62.547 70.3535 62.5125 70.4233 62.5107 70.4273C62.5029 70.4442 62.4981 70.4505 62.5032 70.4427C62.5127 70.4279 62.5354 70.3965 62.5775 70.3447C62.6601 70.2433 62.7888 70.0988 62.9638 69.9123C63.312 69.5412 63.8201 69.0287 64.4524 68.4104C65.7157 67.1749 67.461 65.5303 69.3824 63.776L68.7082 63.0375ZM61.547 70.2507C61.547 70.7442 61.6435 71.2103 61.9407 71.5546C62.2515 71.9148 62.6941 72.0435 63.1627 72.0435V71.0435C62.8696 71.0435 62.7544 70.967 62.6978 70.9013C62.6275 70.8199 62.547 70.6396 62.547 70.2507H61.547ZM63.1627 72.0435C63.4604 72.0435 63.7634 71.9075 64.0782 71.7151C64.4067 71.5143 64.8213 71.2048 65.3594 70.7622C66.4379 69.8752 68.0729 68.4031 70.6133 66.0615L69.9355 65.3262C67.3916 67.6711 65.7772 69.1238 64.7241 69.9899C64.1964 70.424 63.8247 70.6981 63.5567 70.8619C63.4236 70.9432 63.3266 70.9908 63.2573 71.0172C63.188 71.0437 63.1608 71.0435 63.1627 71.0435V72.0435ZM70.6133 66.0615C72.356 64.4553 74.027 62.9533 75.3145 61.8276C75.9586 61.2645 76.5046 60.7975 76.9147 60.4594C77.1201 60.2901 77.2884 60.1556 77.4164 60.0583C77.4805 60.0096 77.5316 59.9725 77.5703 59.946C77.6137 59.9163 77.6267 59.9102 77.6193 59.9138L77.1807 59.0151C77.0757 59.0663 76.9404 59.1641 76.8115 59.2621C76.6684 59.3707 76.4887 59.5147 76.2786 59.6878C75.8579 60.0347 75.3038 60.5088 74.6563 61.0748C73.3609 62.2073 71.6833 63.7154 69.9356 65.3262L70.6133 66.0615ZM77.6191 59.9139C78.1372 59.6613 78.6273 59.5695 79.1036 59.6171C79.5822 59.665 80.0802 59.8571 80.606 60.2237L81.1779 59.4034C80.5427 58.9604 79.885 58.6903 79.2031 58.6221C78.5188 58.5537 77.8434 58.692 77.1809 59.015L77.6191 59.9139ZM80.606 60.2237C81.8641 61.1009 82.3699 62.2124 82.1917 62.9575L83.1643 63.1901C83.4843 61.8516 82.5736 60.3765 81.1779 59.4034L80.606 60.2237ZM82.1917 62.9576C82.2016 62.9163 82.2004 62.9509 82.0837 63.1068C81.9836 63.2405 81.8315 63.4214 81.6177 63.6568C81.1912 64.1263 80.5457 64.7836 79.6445 65.6631C77.8436 67.4207 75.0454 70.0428 70.992 73.7806L71.6699 74.5157C75.7236 70.7777 78.531 68.1472 80.3429 66.3788C81.2481 65.4954 81.9108 64.8214 82.3579 64.3292C82.5809 64.0837 82.7569 63.8762 82.8842 63.7061C82.995 63.5581 83.1205 63.3736 83.1644 63.1899L82.1917 62.9576ZM70.992 73.7806C67.9243 76.6097 65.04 79.2385 62.8647 81.1945C61.7768 82.1727 60.8674 82.9816 60.2015 83.5629C59.8683 83.8537 59.5979 84.086 59.3973 84.2533C59.2969 84.3372 59.2161 84.4029 59.1549 84.4509C59.087 84.5041 59.0609 84.5213 59.0618 84.5208L59.5755 85.3788C59.6753 85.319 59.8451 85.1821 60.0381 85.0211C60.2469 84.8468 60.5237 84.609 60.8591 84.3163C61.5304 83.7303 62.4439 82.9177 63.5333 81.9381C65.7125 79.9786 68.5999 77.347 71.6699 74.5157L70.992 73.7806ZM59.0617 84.5208C58.7805 84.6892 58.4869 84.8193 56.6967 84.9048C54.9199 84.9896 51.7646 85.0307 45.8449 85.0929L45.8554 86.0928C51.7647 86.0307 54.944 85.9896 56.7443 85.9037C58.5313 85.8183 59.0574 85.689 59.5755 85.3787L59.0617 84.5208ZM45.8449 85.0929L33.2288 85.2254L33.2393 86.2254L45.8554 86.0928L45.8449 85.0929ZM32.9623 85.3057L31.6022 86.1866L32.1458 87.0259L33.5059 86.1451L32.9623 85.3057ZM31.6022 86.1866L30.242 87.0675L30.7856 87.9068L32.1458 87.0259L31.6022 86.1866ZM30.8438 87.1114L29.6897 86.098L29.0299 86.8494L30.1839 87.8629L30.8438 87.1114ZM29.6898 86.0981C29.0615 85.5462 26.5196 83.2118 24.0388 80.9075L23.3582 81.6402C25.8353 83.941 28.3888 86.2863 29.0298 86.8494L29.6898 86.0981ZM24.0388 80.9075C22.7959 79.7532 21.5638 78.6446 20.5792 77.7877C20.0871 77.3595 19.6547 76.9923 19.3127 76.7131C18.9837 76.4446 18.7066 76.2309 18.5413 76.1355L18.0416 77.0018C18.1237 77.0491 18.3364 77.2071 18.6803 77.4878C19.0111 77.7579 19.4348 78.1175 19.9227 78.5421C20.8981 79.3908 22.1221 80.4921 23.3582 81.6402L24.0388 80.9075ZM18.5412 76.1355C17.8742 75.751 16.9418 75.5499 16.0044 75.5499V76.5499C16.8233 76.5499 17.5693 76.7295 18.0417 77.0018L18.5412 76.1355ZM16.0044 75.5499H14.6174V76.5499H16.0044V75.5499ZM14.2805 75.6804L10.5069 79.1217L11.1807 79.8606L14.9543 76.4193L14.2805 75.6804ZM10.5069 79.1217L6.73354 82.563L7.4074 83.3019L11.1807 79.8606L10.5069 79.1217ZM6.73199 83.3005L15.2454 91.1308L15.9224 90.3948L7.40895 82.5645L6.73199 83.3005ZM15.2454 91.1308C18.5493 94.1695 20.7416 96.1477 22.2085 97.3918C22.9413 98.0133 23.5019 98.4591 23.9345 98.7642C24.3532 99.0594 24.7002 99.2587 24.9955 99.3324L25.2377 98.3622C25.1373 98.3371 24.9211 98.2363 24.5108 97.947C24.1146 97.6675 23.5806 97.2442 22.8553 96.6291C21.4059 95.3999 19.2275 93.4347 15.9224 90.3948L15.2454 91.1308ZM24.9957 99.3324C25.4913 99.456 25.9574 99.5286 26.4397 99.4893C26.9273 99.4495 27.3984 99.2981 27.9138 99.0198C28.9146 98.4792 30.1486 97.4186 32.0839 95.6347L31.4061 94.8994C29.4457 96.7065 28.3072 97.6708 27.4386 98.1399C27.0192 98.3664 26.6814 98.4662 26.3583 98.4926C26.03 98.5194 25.6836 98.4733 25.2376 98.3621L24.9957 99.3324ZM32.0839 95.6347L35.6912 92.3092L35.0135 91.574L31.4061 94.8994L32.0839 95.6347ZM35.6831 91.5666L34.2981 90.3451L33.6367 91.0951L35.0216 92.3166L35.6831 91.5666ZM34.2982 90.3451L32.9132 89.1234L32.2517 89.8733L33.6366 91.095L34.2982 90.3451ZM32.9319 89.8559L33.5579 89.2441L32.8589 88.5289L32.233 89.1408L32.9319 89.8559ZM33.5581 89.2439L34.1837 88.6319L33.4844 87.917L32.8588 88.5291L33.5581 89.2439ZM33.8374 88.7744L46.1403 88.6928L46.1337 87.6928L33.8308 87.7745L33.8374 88.7744ZM46.1403 88.6928L58.4429 88.6111L58.4363 87.6112L46.1337 87.6928L46.1403 88.6928ZM58.6457 88.5667L60.2329 87.8486L59.8207 86.9375L58.2335 87.6556L58.6457 88.5667ZM60.233 87.8486C60.9538 87.5223 61.9513 86.7866 63.897 85.1006C65.8593 83.4002 68.832 80.6908 73.5203 76.3618L72.8419 75.6271C68.1516 79.9579 65.1905 82.6565 63.2421 84.3449C61.2771 86.0476 60.3867 86.6813 59.8207 86.9375L60.233 87.8486ZM73.5203 76.3618C78.4274 71.8307 81.3388 69.113 83.0592 67.4119C83.9184 66.5623 84.4916 65.9553 84.8707 65.4965C85.2457 65.0426 85.4622 64.6969 85.5631 64.3707L84.6078 64.0751C84.5654 64.2121 84.4495 64.4362 84.0997 64.8597C83.7539 65.2783 83.2099 65.8565 82.3561 66.7008C80.6504 68.3874 77.7529 71.0924 72.8419 75.6271L73.5203 76.3618ZM85.5631 64.3707C85.9073 63.258 85.9896 62.2388 85.756 61.2598C85.5228 60.2822 84.986 59.3922 84.1716 58.5184L83.4401 59.2001C84.1731 59.9868 84.6011 60.728 84.7833 61.4918C84.9652 62.2542 84.9136 63.0866 84.6078 64.0752L85.5631 64.3707ZM84.1716 58.5183C82.3054 56.516 79.8946 55.7283 77.2432 56.2644L77.4414 57.2446C79.7457 56.7787 81.8063 57.4473 83.4401 59.2002L84.1716 58.5183ZM30.4353 66.5829C30.1906 66.6849 29.8601 66.9001 29.4991 67.1611C29.1255 67.4312 28.68 67.7795 28.1931 68.1777C27.2187 68.9745 26.0628 69.9835 24.9555 70.9941C23.8486 72.0045 22.7843 73.0219 21.9941 73.8359C21.6001 74.2419 21.2675 74.6042 21.0305 74.8932C20.9129 75.0367 20.8107 75.172 20.7352 75.2917C20.6976 75.3514 20.6605 75.4168 20.6314 75.4843C20.606 75.5431 20.5671 75.6467 20.5671 75.7705H21.5671C21.5671 75.8485 21.5441 75.8932 21.5493 75.881C21.5508 75.8775 21.5593 75.8598 21.5812 75.8249C21.6249 75.7557 21.6977 75.6567 21.8039 75.5271C22.0147 75.2699 22.325 74.9308 22.7117 74.5324C23.483 73.7378 24.5314 72.7352 25.6297 71.7327C26.7275 70.7307 27.8693 69.7342 28.8262 68.9518C29.3049 68.5603 29.7335 68.2256 30.085 67.9715C30.449 67.7083 30.6947 67.5582 30.8198 67.506L30.4353 66.5829ZM20.5671 75.7705C20.5671 76.0304 20.6693 76.2718 20.7838 76.462C20.9027 76.6596 21.0616 76.8462 21.2342 77.0063C21.4071 77.1667 21.6061 77.312 21.8138 77.4196C22.0157 77.5242 22.2588 77.6102 22.5112 77.6102V76.6102C22.4771 76.6102 22.3963 76.5952 22.2738 76.5317C22.1569 76.4712 22.0307 76.3812 21.9143 76.2732C21.7975 76.1649 21.7028 76.0497 21.6405 75.9463C21.6097 75.8951 21.5901 75.8522 21.5788 75.8191C21.5673 75.7854 21.5671 75.7699 21.5671 75.7705H20.5671ZM22.5112 77.6102C22.6482 77.6102 22.7597 77.5552 22.7877 77.5418C22.8396 77.5171 22.8919 77.4865 22.9403 77.4562C23.0386 77.3947 23.1584 77.3103 23.2925 77.2104C23.5628 77.0092 23.9213 76.7229 24.3404 76.3751C25.1801 75.6784 26.281 74.7204 27.4416 73.6685L26.7701 72.9276C25.6174 73.9723 24.5277 74.9203 23.7019 75.6055C23.2882 75.9488 22.9451 76.2224 22.6953 76.4083C22.5694 76.5021 22.4745 76.5681 22.4098 76.6086C22.3943 76.6183 22.3819 76.6257 22.3724 76.631C22.3677 76.6337 22.3641 76.6357 22.3614 76.6371C22.3601 76.6377 22.3592 76.6382 22.3585 76.6386C22.3578 76.6389 22.3575 76.6391 22.3575 76.6391C22.3575 76.6391 22.358 76.6388 22.3589 76.6384C22.3598 76.638 22.3612 76.6374 22.3631 76.6366C22.3667 76.6352 22.3735 76.6325 22.3829 76.6294C22.3951 76.6255 22.4432 76.6102 22.5112 76.6102V77.6102ZM27.4417 73.6685C28.5952 72.623 29.7136 71.6402 30.5854 70.8995C31.0216 70.5289 31.3937 70.2211 31.6763 69.997C31.818 69.8848 31.934 69.796 32.0228 69.7318C32.1226 69.6598 32.1596 69.6396 32.1552 69.6417L31.7295 68.7368C31.6385 68.7796 31.5317 68.853 31.437 68.9214C31.3314 68.9977 31.2025 69.0966 31.0552 69.2133C30.76 69.4473 30.3783 69.7633 29.9379 70.1374C29.0565 70.8862 27.9299 71.8763 26.7701 72.9276L27.4417 73.6685ZM32.1553 69.6417C32.1325 69.6524 32.1656 69.6359 32.3253 69.6132C32.4638 69.5935 32.6567 69.5741 32.9096 69.5558C33.4141 69.5193 34.13 69.4888 35.0714 69.4645C36.9525 69.416 39.7107 69.3926 43.4283 69.3926V68.3926C39.7089 68.3926 36.9401 68.416 35.0456 68.4649C34.099 68.4893 33.365 68.5203 32.8374 68.5584C32.5742 68.5775 32.3555 68.5988 32.1845 68.6231C32.0347 68.6444 31.8602 68.6753 31.7295 68.7369L32.1553 69.6417ZM43.4283 69.3926C49.3347 69.3926 52.3176 69.4024 53.9196 69.5841C54.7222 69.6751 55.0977 69.8027 55.3081 69.9391C55.4971 70.0616 55.5985 70.2177 55.771 70.5653L56.6668 70.121C56.4883 69.7611 56.2873 69.3821 55.8521 69.1C55.4383 68.8318 54.8678 68.6852 54.0323 68.5905C52.3581 68.4006 49.2967 68.3926 43.4283 68.3926V69.3926ZM55.771 70.5654C56.2848 71.601 56.1331 72.5862 55.3635 73.3776L56.0804 74.0748C57.1566 72.9682 57.3622 71.5225 56.6668 70.1209L55.771 70.5654ZM55.3634 73.3777L54.5219 74.2434L55.2389 74.9404L56.0805 74.0747L55.3634 73.3777ZM54.8757 74.0919L46.5686 74.1701L46.578 75.1701L54.8851 75.0919L54.8757 74.0919ZM46.5686 74.1701C43.8719 74.1955 41.7559 74.2401 40.2815 74.3019C39.5453 74.3327 38.9625 74.3681 38.5448 74.4082C38.3371 74.4282 38.161 74.4501 38.0237 74.4751C37.9555 74.4875 37.8876 74.5023 37.8258 74.5209C37.7781 74.5353 37.6789 74.5671 37.5884 74.636L38.1943 75.4316C38.1343 75.4773 38.0874 75.4865 38.1137 75.4786C38.126 75.4749 38.1538 75.4679 38.2027 75.459C38.2998 75.4413 38.4439 75.4225 38.6404 75.4036C39.0313 75.3661 39.5932 75.3316 40.3234 75.301C41.7817 75.2399 43.8851 75.1954 46.578 75.1701L46.5686 74.1701ZM37.5882 74.6362C37.1872 74.9419 37.0364 75.4522 37.0295 75.8818C37.0225 76.3158 37.1585 76.8239 37.5249 77.1603L38.2013 76.4239C38.1102 76.3402 38.0253 76.1483 38.0293 75.8978C38.0334 75.6429 38.1255 75.4841 38.1945 75.4314L37.5882 74.6362ZM37.5249 77.1603C37.6594 77.2839 37.8382 77.3332 37.9393 77.3581C38.0685 77.3899 38.2276 77.4152 38.4115 77.4366C38.7813 77.4797 39.3032 77.5128 39.9957 77.5381C41.3837 77.5889 43.5012 77.6102 46.554 77.6102V76.6102C43.5013 76.6102 41.4001 76.5888 40.0323 76.5388C39.3469 76.5137 38.8568 76.4817 38.5272 76.4434C38.3614 76.424 38.2491 76.4045 38.1784 76.3871C38.0796 76.3628 38.1302 76.3585 38.2013 76.4239L37.5249 77.1603ZM46.554 77.6102H54.8983V76.6102H46.554V77.6102ZM55.1219 77.5574L56.4783 76.8794L56.0311 75.9849L54.6747 76.663L55.1219 77.5574ZM56.4783 76.8794C59.0571 75.5902 60.3929 72.9077 59.6308 70.3085L58.6712 70.5899C59.2781 72.6599 58.2406 74.8804 56.0311 75.9849L56.4783 76.8794ZM59.6308 70.3086C59.3895 69.4852 59.0565 68.7999 58.5699 68.2098C58.0841 67.6207 57.4651 67.1506 56.6844 66.7304L56.2105 67.6109C56.9103 67.9876 57.416 68.3823 57.7984 68.846C58.18 69.3088 58.4585 69.8643 58.6712 70.5898L59.6308 70.3086ZM56.6844 66.7304L55.4513 66.0666L54.9773 66.9472L56.2105 67.6109L56.6844 66.7304ZM55.2141 66.0069L43.5515 66.0127L43.552 67.0127L55.2146 67.0069L55.2141 66.0069ZM43.5515 66.0127C38.0539 66.0155 35.1074 66.0242 33.3882 66.0949C31.6541 66.1663 31.108 66.3024 30.4351 66.583L30.82 67.506C31.3378 67.2901 31.7506 67.1631 33.4293 67.0941C35.1228 67.0244 38.0431 67.0155 43.552 67.0127L43.5515 66.0127ZM12.934 80.3233L10.4913 82.5787L11.1697 83.3134L13.6123 81.058L12.934 80.3233ZM10.4922 83.3142L17.8449 90.0716L18.5216 89.3354L11.1689 82.5779L10.4922 83.3142ZM17.8449 90.0716C20.2376 92.2706 22.1324 93.9651 23.4789 95.1113C24.1512 95.6836 24.6927 96.1243 25.094 96.424C25.2936 96.5731 25.4672 96.6939 25.6097 96.7796C25.6806 96.8222 25.7532 96.8619 25.8236 96.8924C25.8805 96.9171 25.9915 96.9613 26.1218 96.9613V95.9613C26.2044 95.9613 26.2491 95.987 26.2212 95.9749C26.2068 95.9686 26.176 95.9533 26.1252 95.9227C26.0243 95.862 25.8813 95.7639 25.6924 95.6228C25.3166 95.3422 24.794 94.9175 24.1271 94.3498C22.7951 93.2159 20.9111 91.5315 18.5216 89.3354L17.8449 90.0716ZM26.1218 96.9613C26.2569 96.9613 26.3816 96.922 26.4719 96.887C26.5705 96.8488 26.6739 96.7971 26.7777 96.7386C26.9858 96.6213 27.2303 96.4568 27.4981 96.2585C28.0355 95.8605 28.7019 95.3002 29.419 94.638L28.7406 93.9033C28.0405 94.5497 27.4027 95.0848 26.9029 95.4549C26.6521 95.6406 26.4446 95.7785 26.2867 95.8674C26.2076 95.912 26.1495 95.9395 26.1105 95.9546C26.0632 95.9729 26.0742 95.9613 26.1218 95.9613V96.9613ZM29.419 94.638L31.7915 92.4473L31.1131 91.7126L28.7406 93.9033L29.419 94.638ZM31.7905 91.7116L24.3593 84.8895L23.683 85.6261L31.1142 92.4483L31.7905 91.7116ZM24.3593 84.8895C22.3131 83.0111 20.4025 81.3022 18.9719 80.0618C18.2571 79.4421 17.6591 78.9366 17.2226 78.5847C17.0053 78.4094 16.8224 78.2677 16.6828 78.168C16.6139 78.1188 16.5472 78.0738 16.4876 78.0391C16.4583 78.022 16.4215 78.0019 16.3811 77.9847C16.3561 77.974 16.2669 77.9356 16.1527 77.9356V78.9356C16.0949 78.9356 16.0516 78.9249 16.0324 78.9196C16.0105 78.9135 15.9951 78.9072 15.9885 78.9044C15.9759 78.899 15.9731 78.8966 15.9839 78.903C16.0046 78.915 16.0426 78.9397 16.1016 78.9818C16.2175 79.0646 16.3827 79.192 16.5949 79.3631C17.0177 79.7041 17.6054 80.2006 18.3168 80.8174C19.7384 82.05 21.6418 83.7523 23.683 85.6261L24.3593 84.8895ZM16.1527 77.9356C15.9943 77.9356 15.8537 78.0036 15.7936 78.0334C15.7078 78.0757 15.614 78.1318 15.5179 78.1942C15.3241 78.3201 15.0846 78.4958 14.8182 78.7044C14.2835 79.1231 13.6133 79.696 12.9339 80.3234L13.6124 81.058C14.2761 80.4451 14.9255 79.8904 15.4347 79.4917C15.6903 79.2916 15.9038 79.136 16.0626 79.0329C16.1428 78.9808 16.2001 78.9479 16.2365 78.9299C16.2985 78.8993 16.2511 78.9356 16.1527 78.9356V77.9356Z" fill="#058FA2" mask="url(#path-1-inside-1_2510_9377)"/>
<path d="M38.0594 33.8095L43.0026 19.8668L47.9458 33.8095C48.2995 34.8073 49.2434 35.4741 50.3021 35.4741H65.9719L53.4877 43.7867C52.5342 44.4215 52.1342 45.6233 52.517 46.703L57.3438 60.3172L44.3881 51.6907L43.5568 52.9393L44.3881 51.6907C43.5489 51.132 42.4562 51.132 41.617 51.6907L42.4483 52.9393L41.617 51.6907L28.6614 60.3172L33.4881 46.703C33.8709 45.6233 33.4709 44.4215 32.5174 43.7867L20.0332 35.4741H35.7031C36.7617 35.4741 37.7056 34.8073 38.0594 33.8095ZM58.5941 61.1497L58.5928 61.1489L58.5941 61.1497Z" stroke="#FDC114" stroke-width="3"/>
</svg>
