<svg width="76" height="95" viewBox="0 0 76 95" fill="none" xmlns="http://www.w3.org/2000/svg">
<mask id="path-1-inside-1_2426_4041" fill="white">
<path fill-rule="evenodd" clip-rule="evenodd" d="M37.0541 0.480992C36.5973 0.938862 36.5466 1.32882 36.5466 4.38434C36.5466 7.34981 36.6052 7.8321 37.0107 8.19993C37.6011 8.73538 38.166 8.73563 38.6094 8.20018C38.8678 7.88781 38.9576 6.86523 38.9576 4.2368C38.9576 1.02357 38.9119 0.660579 38.465 0.333201C37.8178 -0.140949 37.6579 -0.12416 37.0541 0.480992ZM24.2768 2.72685C24.0459 2.98275 23.8568 3.32691 23.8568 3.49175C23.8568 4.17855 26.2353 10.1995 26.5554 10.3224C26.7467 10.3962 27.1886 10.3847 27.5373 10.297C28.4426 10.0693 28.369 9.2192 27.1465 5.78033C25.9189 2.32672 25.2656 1.63177 24.2768 2.72685ZM49.7965 2.71769C49.546 2.96876 48.8556 4.56901 48.262 6.27407C47.3819 8.80203 47.2349 9.47153 47.4651 9.90295C47.6648 10.2771 47.9471 10.4089 48.4285 10.3532C49.2272 10.2606 49.9327 8.97678 51.1147 5.46466C51.8271 3.34726 51.836 3.26052 51.3926 2.76907C50.8256 2.14128 50.3858 2.12704 49.7965 2.71769ZM12.9943 9.18053C12.8268 9.34842 12.6918 9.72031 12.6946 10.0072C12.6992 10.5234 16.5878 15.3623 17.3347 15.7812C17.8403 16.0649 18.474 15.809 18.806 15.1875C19.1339 14.5737 18.8659 14.1388 16.2914 11.1049C14.3912 8.86536 13.707 8.46625 12.9943 9.18053ZM59.9739 10.315C59.3026 11.1069 58.2682 12.3126 57.675 12.9943C56.2208 14.6658 56.2962 15.7433 57.8672 15.7433C58.3996 15.7433 58.9603 15.2173 60.735 13.0526C62.9225 10.3847 63.2245 9.76966 62.6367 9.18053C61.9847 8.52705 61.2089 8.85748 59.9739 10.315ZM4.71324 19.1954C4.23179 19.678 4.20869 20.0868 4.63177 20.6392C5.06322 21.2027 10.2889 24.1376 10.8609 24.1376C11.4868 24.1376 11.9284 23.6444 11.9284 22.9454C11.9284 22.3153 11.5223 22.0134 7.93999 19.9797C5.6599 18.6852 5.30788 18.5997 4.71324 19.1954ZM66.998 20.3335C65.5346 21.1793 64.1194 22.0876 63.8532 22.3522C63.3948 22.807 63.3918 22.8678 63.7956 23.4852C64.0301 23.8441 64.4237 24.1376 64.6699 24.1376C65.3793 24.1376 71.0356 20.8084 71.198 20.2953C71.4122 19.619 70.8782 18.7958 70.225 18.7958C69.9136 18.7958 68.4613 19.4877 66.998 20.3335ZM0.304555 31.3109C-0.112939 31.7294 -0.0784229 32.6589 0.368511 33.0305C0.571294 33.1992 2.23239 33.5815 4.05997 33.8801C7.57402 34.4542 8.17247 34.3843 8.32297 33.3823C8.45139 32.5276 7.58392 32.1064 4.54472 31.547C1.13878 30.9205 0.71748 30.8971 0.304555 31.3109ZM71.4434 31.4096C70.4663 31.5989 69.2994 31.8189 68.8502 31.8985C67.3043 32.1722 66.6873 33.555 67.87 34.095C68.3461 34.3125 69.2156 34.2469 71.7404 33.8028C73.5312 33.4879 75.1395 33.1162 75.3138 32.9771C75.7169 32.6556 75.724 31.7093 75.3265 31.3109C74.9486 30.9322 73.7484 30.9627 71.4434 31.4096ZM3.42624 43.5216C0.402266 44.0751 0 44.2608 0 45.1035C0 45.8389 0.463431 46.2683 1.25629 46.2673C1.88519 46.2665 6.78548 45.3752 7.67681 45.0995C8.25013 44.9222 8.52448 43.8296 8.11866 43.3395C7.71944 42.8574 6.87735 42.89 3.42624 43.5216ZM67.5604 43.2664C67.1256 43.7022 67.184 44.3455 67.7 44.8001C67.9517 45.0221 69.5951 45.4429 71.4939 45.7718C75.1227 46.3998 75.6311 46.3202 75.6311 45.1234C75.6311 44.241 75.1608 44.0161 72.1772 43.4725C68.9682 42.8879 67.9819 42.8439 67.5604 43.2664ZM68.0172 54.4614C66.9799 54.6903 66.3107 55.2756 60.7206 60.8449C57.3357 64.2171 54.566 67.1726 54.566 67.4122C54.566 68.2591 54.8774 68.6528 55.5472 68.6528C56.0863 68.6528 57.3301 67.5366 61.8015 63.0396C64.8712 59.9525 67.6911 57.2625 68.068 57.0618C69.1062 56.5096 70.1179 56.62 71.1389 57.3968C72.3058 58.2846 72.9287 59.5257 72.7096 60.5254C72.5901 61.0715 69.8603 63.9785 62.7306 71.1523C57.3329 76.5839 52.5791 81.2481 52.1667 81.5175C51.4636 81.9769 50.7248 82.0153 40.322 82.1346L29.2271 82.2617L28.031 83.107L26.8348 83.9523L25.8199 82.9798C25.2618 82.4449 23.0213 80.1996 20.8412 77.9901C18.6611 75.7806 16.5213 73.7489 16.0861 73.475C15.5851 73.1598 14.847 72.9772 14.0747 72.9772H12.855L9.53637 76.2794L6.21799 79.5817L13.705 87.0956C19.5171 92.9286 21.3924 94.6639 22.0883 94.8534C23.7446 95.3039 24.4915 94.8639 27.9175 91.4179L31.09 88.2268L29.872 87.0546L28.654 85.8822L29.2045 85.2951L29.7547 84.7078L40.5743 84.6295L51.3936 84.5511L52.7895 83.862C53.9211 83.3032 56.1099 81.2338 64.3577 72.924C72.9921 64.2244 74.5748 62.5169 74.8268 61.6281C75.3983 59.6117 75.0623 58.0745 73.7015 56.4811C72.1624 54.6794 70.1963 53.9806 68.0172 54.4614ZM26.9348 64.3356C25.6339 64.927 18.5271 72.005 18.5271 72.7091C18.5271 73.2193 19.293 73.9947 19.7971 73.9947C19.9849 73.9947 21.8033 72.3484 23.8377 70.3365C25.8722 68.3244 27.7863 66.5502 28.0911 66.3937C28.471 66.1986 31.6519 66.1091 38.1922 66.1091C48.5473 66.1091 48.8234 66.1432 49.4406 67.501C49.9723 68.6704 49.8152 69.8367 49.0036 70.7473L48.2635 71.5781L40.958 71.6532C36.2181 71.7017 33.5368 71.8243 33.3228 72.0021C32.9094 72.3461 32.8957 73.2862 33.298 73.6894C33.5208 73.9127 35.5717 73.9947 40.941 73.9947H48.2793L49.4721 73.344C51.5776 72.1955 52.6212 69.843 52.0192 67.6028C51.62 66.1165 50.9436 65.2213 49.6416 64.4567L48.5572 63.8197L38.3008 63.8253C28.6213 63.8307 27.982 63.8592 26.9348 64.3356ZM11.6728 77.4305L9.52469 79.5947L15.9909 86.0791C20.1965 90.2966 22.6373 92.5638 22.9723 92.5638C23.2799 92.5638 24.3273 91.7175 25.5737 90.4617L27.6602 88.3596L21.1249 81.813C17.5304 78.2124 14.4166 75.2665 14.2052 75.2665C13.9938 75.2665 12.854 76.2402 11.6728 77.4305Z"/>
</mask>
<path fill-rule="evenodd" clip-rule="evenodd" d="M37.0541 0.480992C36.5973 0.938862 36.5466 1.32882 36.5466 4.38434C36.5466 7.34981 36.6052 7.8321 37.0107 8.19993C37.6011 8.73538 38.166 8.73563 38.6094 8.20018C38.8678 7.88781 38.9576 6.86523 38.9576 4.2368C38.9576 1.02357 38.9119 0.660579 38.465 0.333201C37.8178 -0.140949 37.6579 -0.12416 37.0541 0.480992ZM24.2768 2.72685C24.0459 2.98275 23.8568 3.32691 23.8568 3.49175C23.8568 4.17855 26.2353 10.1995 26.5554 10.3224C26.7467 10.3962 27.1886 10.3847 27.5373 10.297C28.4426 10.0693 28.369 9.2192 27.1465 5.78033C25.9189 2.32672 25.2656 1.63177 24.2768 2.72685ZM49.7965 2.71769C49.546 2.96876 48.8556 4.56901 48.262 6.27407C47.3819 8.80203 47.2349 9.47153 47.4651 9.90295C47.6648 10.2771 47.9471 10.4089 48.4285 10.3532C49.2272 10.2606 49.9327 8.97678 51.1147 5.46466C51.8271 3.34726 51.836 3.26052 51.3926 2.76907C50.8256 2.14128 50.3858 2.12704 49.7965 2.71769ZM12.9943 9.18053C12.8268 9.34842 12.6918 9.72031 12.6946 10.0072C12.6992 10.5234 16.5878 15.3623 17.3347 15.7812C17.8403 16.0649 18.474 15.809 18.806 15.1875C19.1339 14.5737 18.8659 14.1388 16.2914 11.1049C14.3912 8.86536 13.707 8.46625 12.9943 9.18053ZM59.9739 10.315C59.3026 11.1069 58.2682 12.3126 57.675 12.9943C56.2208 14.6658 56.2962 15.7433 57.8672 15.7433C58.3996 15.7433 58.9603 15.2173 60.735 13.0526C62.9225 10.3847 63.2245 9.76966 62.6367 9.18053C61.9847 8.52705 61.2089 8.85748 59.9739 10.315ZM4.71324 19.1954C4.23179 19.678 4.20869 20.0868 4.63177 20.6392C5.06322 21.2027 10.2889 24.1376 10.8609 24.1376C11.4868 24.1376 11.9284 23.6444 11.9284 22.9454C11.9284 22.3153 11.5223 22.0134 7.93999 19.9797C5.6599 18.6852 5.30788 18.5997 4.71324 19.1954ZM66.998 20.3335C65.5346 21.1793 64.1194 22.0876 63.8532 22.3522C63.3948 22.807 63.3918 22.8678 63.7956 23.4852C64.0301 23.8441 64.4237 24.1376 64.6699 24.1376C65.3793 24.1376 71.0356 20.8084 71.198 20.2953C71.4122 19.619 70.8782 18.7958 70.225 18.7958C69.9136 18.7958 68.4613 19.4877 66.998 20.3335ZM0.304555 31.3109C-0.112939 31.7294 -0.0784229 32.6589 0.368511 33.0305C0.571294 33.1992 2.23239 33.5815 4.05997 33.8801C7.57402 34.4542 8.17247 34.3843 8.32297 33.3823C8.45139 32.5276 7.58392 32.1064 4.54472 31.547C1.13878 30.9205 0.71748 30.8971 0.304555 31.3109ZM71.4434 31.4096C70.4663 31.5989 69.2994 31.8189 68.8502 31.8985C67.3043 32.1722 66.6873 33.555 67.87 34.095C68.3461 34.3125 69.2156 34.2469 71.7404 33.8028C73.5312 33.4879 75.1395 33.1162 75.3138 32.9771C75.7169 32.6556 75.724 31.7093 75.3265 31.3109C74.9486 30.9322 73.7484 30.9627 71.4434 31.4096ZM3.42624 43.5216C0.402266 44.0751 0 44.2608 0 45.1035C0 45.8389 0.463431 46.2683 1.25629 46.2673C1.88519 46.2665 6.78548 45.3752 7.67681 45.0995C8.25013 44.9222 8.52448 43.8296 8.11866 43.3395C7.71944 42.8574 6.87735 42.89 3.42624 43.5216ZM67.5604 43.2664C67.1256 43.7022 67.184 44.3455 67.7 44.8001C67.9517 45.0221 69.5951 45.4429 71.4939 45.7718C75.1227 46.3998 75.6311 46.3202 75.6311 45.1234C75.6311 44.241 75.1608 44.0161 72.1772 43.4725C68.9682 42.8879 67.9819 42.8439 67.5604 43.2664ZM68.0172 54.4614C66.9799 54.6903 66.3107 55.2756 60.7206 60.8449C57.3357 64.2171 54.566 67.1726 54.566 67.4122C54.566 68.2591 54.8774 68.6528 55.5472 68.6528C56.0863 68.6528 57.3301 67.5366 61.8015 63.0396C64.8712 59.9525 67.6911 57.2625 68.068 57.0618C69.1062 56.5096 70.1179 56.62 71.1389 57.3968C72.3058 58.2846 72.9287 59.5257 72.7096 60.5254C72.5901 61.0715 69.8603 63.9785 62.7306 71.1523C57.3329 76.5839 52.5791 81.2481 52.1667 81.5175C51.4636 81.9769 50.7248 82.0153 40.322 82.1346L29.2271 82.2617L28.031 83.107L26.8348 83.9523L25.8199 82.9798C25.2618 82.4449 23.0213 80.1996 20.8412 77.9901C18.6611 75.7806 16.5213 73.7489 16.0861 73.475C15.5851 73.1598 14.847 72.9772 14.0747 72.9772H12.855L9.53637 76.2794L6.21799 79.5817L13.705 87.0956C19.5171 92.9286 21.3924 94.6639 22.0883 94.8534C23.7446 95.3039 24.4915 94.8639 27.9175 91.4179L31.09 88.2268L29.872 87.0546L28.654 85.8822L29.2045 85.2951L29.7547 84.7078L40.5743 84.6295L51.3936 84.5511L52.7895 83.862C53.9211 83.3032 56.1099 81.2338 64.3577 72.924C72.9921 64.2244 74.5748 62.5169 74.8268 61.6281C75.3983 59.6117 75.0623 58.0745 73.7015 56.4811C72.1624 54.6794 70.1963 53.9806 68.0172 54.4614ZM26.9348 64.3356C25.6339 64.927 18.5271 72.005 18.5271 72.7091C18.5271 73.2193 19.293 73.9947 19.7971 73.9947C19.9849 73.9947 21.8033 72.3484 23.8377 70.3365C25.8722 68.3244 27.7863 66.5502 28.0911 66.3937C28.471 66.1986 31.6519 66.1091 38.1922 66.1091C48.5473 66.1091 48.8234 66.1432 49.4406 67.501C49.9723 68.6704 49.8152 69.8367 49.0036 70.7473L48.2635 71.5781L40.958 71.6532C36.2181 71.7017 33.5368 71.8243 33.3228 72.0021C32.9094 72.3461 32.8957 73.2862 33.298 73.6894C33.5208 73.9127 35.5717 73.9947 40.941 73.9947H48.2793L49.4721 73.344C51.5776 72.1955 52.6212 69.843 52.0192 67.6028C51.62 66.1165 50.9436 65.2213 49.6416 64.4567L48.5572 63.8197L38.3008 63.8253C28.6213 63.8307 27.982 63.8592 26.9348 64.3356ZM11.6728 77.4305L9.52469 79.5947L15.9909 86.0791C20.1965 90.2966 22.6373 92.5638 22.9723 92.5638C23.2799 92.5638 24.3273 91.7175 25.5737 90.4617L27.6602 88.3596L21.1249 81.813C17.5304 78.2124 14.4166 75.2665 14.2052 75.2665C13.9938 75.2665 12.854 76.2402 11.6728 77.4305Z" fill="white"/>
<path d="M36.9272 16.8651L37.0257 17.0949L37.0258 17.0949L36.9272 16.8651ZM32.6313 23.8128L32.8556 23.9232L32.8556 23.9232L32.6313 23.8128ZM29.7783 29.6107L29.8127 29.8583L29.9441 29.8401L30.0027 29.7211L29.7783 29.6107ZM23.7086 30.4527L23.6742 30.2051L23.6742 30.2051L23.7086 30.4527ZM16.818 31.5503L16.7438 31.3116L16.7438 31.3116L16.818 31.5503ZM14.9691 34.1561L14.7191 34.1549V34.155L14.9691 34.1561ZM19.8839 40.0614L19.7082 40.2392L19.7082 40.2392L19.8839 40.0614ZM24.8034 44.9196L25.05 44.9609L25.0714 44.8329L24.9791 44.7417L24.8034 44.9196ZM23.7012 51.5081L23.4546 51.4669L23.4546 51.4669L23.7012 51.5081ZM22.749 58.6051L22.9888 58.5346L22.9888 58.5344L22.749 58.6051ZM23.552 59.8134L23.7347 59.6427L23.7346 59.6427L23.552 59.8134ZM31.9838 57.4411L32.1003 57.6623L31.9838 57.4411ZM37.8155 54.3693L37.932 54.1481L37.8155 54.0867L37.699 54.1481L37.8155 54.3693ZM43.6472 57.4411L43.5307 57.6623L43.6472 57.4411ZM52.0791 59.8134L51.8964 59.6427L51.8964 59.6427L52.0791 59.8134ZM52.8872 58.5975L52.6477 58.5256L52.6477 58.5258L52.8872 58.5975ZM51.9314 51.5035L51.6849 51.5452V51.5452L51.9314 51.5035ZM51.9225 30.4527L51.9569 30.2051L51.9569 30.2051L51.9225 30.4527ZM45.8527 29.6107L45.6284 29.7211L45.687 29.8401L45.8184 29.8583L45.8527 29.6107ZM42.9755 23.7632L42.7511 23.8736V23.8736L42.9755 23.7632ZM39.5279 17.3688L39.3548 17.5492L39.3549 17.5493L39.5279 17.3688ZM34.7606 24.9089L34.9847 25.0198L34.9847 25.0197L34.7606 24.9089ZM31.347 31.2433L31.5157 31.4278L31.5158 31.4278L31.347 31.2433ZM23.6398 32.8926L23.6048 32.6451L23.6047 32.6451L23.6398 32.8926ZM17.3007 33.9305L17.124 33.7536L17.1235 33.7541L17.3007 33.9305ZM22.013 38.846L21.8385 39.025L21.8385 39.025L22.013 38.846ZM27.0478 44.2878L27.2914 44.2317L27.2914 44.2316L27.0478 44.2878ZM26.1186 51.4684L25.872 51.4271L25.872 51.4271L26.1186 51.4684ZM31.1666 55.1922L31.2832 55.4133L31.2832 55.4133L31.1666 55.1922ZM44.4645 55.1922L44.3479 55.4133L44.3479 55.4133L44.4645 55.1922ZM50.453 58.1063L50.2761 57.9297L50.2758 57.93L50.453 58.1063ZM58.3367 33.9371L58.1597 34.1137L58.16 34.1139L58.3367 33.9371ZM51.9928 32.8919L51.9574 33.1393L51.9574 33.1394L51.9928 32.8919ZM44.3185 31.2936L44.1543 31.4821L44.1543 31.4821L44.3185 31.2936ZM37.8465 19.1095L37.9335 18.8751L37.933 18.8749L37.8465 19.1095ZM36.8288 16.6353C36.6028 16.7322 36.3605 16.8681 36.1501 17.0089C35.944 17.147 35.7492 17.3026 35.6322 17.4438L36.0173 17.7628C36.0878 17.6776 36.2349 17.5539 36.4283 17.4244C36.6175 17.2977 36.8327 17.1776 37.0257 17.0949L36.8288 16.6353ZM35.6322 17.4438C35.5928 17.4915 35.5391 17.5798 35.4816 17.6792C35.4196 17.7865 35.3406 17.9291 35.2473 18.1018C35.0606 18.4476 34.8135 18.9194 34.5237 19.4828C33.9441 20.6099 33.1919 22.107 32.4069 23.7024L32.8556 23.9232C33.6396 22.3298 34.3904 20.8354 34.9684 19.7115C35.2574 19.1494 35.5028 18.6809 35.6873 18.3394C35.7796 18.1685 35.8559 18.0308 35.9145 17.9295C35.9438 17.8788 35.9679 17.8385 35.9868 17.8085C35.9962 17.7936 36.0038 17.7821 36.0096 17.7736C36.0158 17.7646 36.0181 17.7618 36.0173 17.7628L35.6322 17.4438ZM32.4069 23.7024L29.554 29.5003L30.0027 29.7211L32.8556 23.9232L32.4069 23.7024ZM29.744 29.3631L23.6742 30.2051L23.7429 30.7003L29.8127 29.8583L29.744 29.3631ZM23.6742 30.2051C22.0036 30.4369 20.3922 30.6764 19.1414 30.8757C18.5161 30.9753 17.98 31.065 17.5713 31.1387C17.1701 31.2111 16.8745 31.2709 16.7438 31.3116L16.8923 31.789C16.9872 31.7595 17.2486 31.705 17.6601 31.6307C18.064 31.5579 18.5964 31.4688 19.22 31.3694C20.467 31.1708 22.0751 30.9317 23.7429 30.7003L23.6742 30.2051ZM16.7438 31.3116C15.4822 31.704 14.7254 32.7831 14.7191 34.1549L15.2191 34.1572C15.2245 32.9869 15.8544 32.1119 16.8923 31.789L16.7438 31.3116ZM14.7191 34.155C14.718 34.4138 14.7222 34.6529 14.823 34.9282C14.922 35.1983 15.1064 35.4846 15.4264 35.8692C16.0636 36.6348 17.3057 37.8665 19.7082 40.2392L20.0595 39.8835C17.6455 37.4994 16.4279 36.2909 15.8107 35.5493C15.5036 35.1803 15.3621 34.9462 15.2925 34.7563C15.2249 34.5715 15.218 34.4108 15.2191 34.1572L14.7191 34.155ZM19.7082 40.2392L24.6278 45.0975L24.9791 44.7417L20.0595 39.8835L19.7082 40.2392ZM24.5569 44.8784L23.4546 51.4669L23.9478 51.5494L25.05 44.9609L24.5569 44.8784ZM23.4546 51.4669C23.1513 53.2806 22.8921 54.9877 22.7191 56.2773C22.6326 56.9217 22.5674 57.4639 22.5289 57.8638C22.5097 58.0633 22.4968 58.2303 22.4916 58.3581C22.4889 58.4218 22.488 58.4789 22.4895 58.5269C22.4908 58.5684 22.4942 58.6251 22.5092 58.6758L22.9888 58.5344C22.9934 58.5501 22.9905 58.5491 22.9893 58.5113C22.9883 58.48 22.9887 58.4363 22.9911 58.3788C22.9959 58.2642 23.0077 58.1075 23.0266 57.9117C23.0642 57.5208 23.1285 56.9856 23.2147 56.3438C23.3868 55.0607 23.6451 53.3591 23.9478 51.5494L23.4546 51.4669ZM22.5091 58.6756C22.5613 58.8533 22.69 59.0852 22.8383 59.3083C22.9906 59.5374 23.1792 59.7806 23.3693 59.9841L23.7346 59.6427C23.5654 59.4616 23.3936 59.2405 23.2547 59.0316C23.1119 58.8167 23.0188 58.6367 22.9888 58.5346L22.5091 58.6756ZM23.3693 59.9841C23.6731 60.3092 23.9769 60.5738 24.3768 60.6992C24.7782 60.8251 25.2378 60.7994 25.8333 60.6318C27.0095 60.3009 28.8498 59.3745 32.1003 57.6623L31.8673 57.2199C28.594 58.9441 26.8105 59.8375 25.6978 60.1505C25.1489 60.305 24.7977 60.3072 24.5264 60.2221C24.2537 60.1366 24.023 59.9513 23.7347 59.6427L23.3693 59.9841ZM32.1003 57.6623L37.932 54.5905L37.699 54.1481L31.8673 57.2199L32.1003 57.6623ZM37.699 54.5905L43.5307 57.6623L43.7638 57.2199L37.932 54.1481L37.699 54.5905ZM43.5307 57.6623C46.7813 59.3745 48.6215 60.3009 49.7978 60.6318C50.3933 60.7994 50.8529 60.8251 51.2543 60.6992C51.6541 60.5738 51.958 60.3092 52.2618 59.9841L51.8964 59.6427C51.6081 59.9513 51.3774 60.1366 51.1046 60.2221C50.8334 60.3072 50.4822 60.305 49.9332 60.1505C48.8206 59.8375 47.037 58.9441 43.7638 57.2199L43.5307 57.6623ZM52.2618 59.9841C52.4519 59.7805 52.6411 59.5365 52.7942 59.306C52.9436 59.0813 53.0731 58.8481 53.1267 58.6692L52.6477 58.5258C52.6163 58.6307 52.5214 58.8132 52.3778 59.0293C52.238 59.2397 52.0656 59.4616 51.8964 59.6427L52.2618 59.9841ZM53.1266 58.6693C53.1419 58.6184 53.1456 58.5614 53.1471 58.5194C53.1487 58.471 53.148 58.4136 53.1455 58.3496C53.1404 58.2213 53.1277 58.0539 53.1086 57.8541C53.0703 57.4537 53.0049 56.9114 52.9181 56.2672C52.7444 54.9781 52.4837 53.2728 52.1779 51.4619L51.6849 51.5452C51.99 53.3519 52.2498 55.0516 52.4226 56.334C52.509 56.9755 52.5734 57.5106 52.6109 57.9017C52.6296 58.0977 52.6413 58.2545 52.6458 58.3693C52.6481 58.4269 52.6485 58.4708 52.6474 58.5021C52.6461 58.5398 52.6431 58.5411 52.6477 58.5256L53.1266 58.6693ZM52.1779 51.4619L51.0673 44.8846L50.5743 44.9679L51.6849 51.5452L52.1779 51.4619ZM58.8873 31.3116C58.7565 31.2709 58.461 31.2111 58.0598 31.1387C57.6511 31.065 57.115 30.9753 56.4897 30.8757C55.2389 30.6764 53.6274 30.4369 51.9569 30.2051L51.8882 30.7003C53.556 30.9317 55.1641 31.1708 56.4111 31.3694C57.0347 31.4688 57.567 31.5579 57.971 31.6307C58.3825 31.705 58.6438 31.7595 58.7388 31.789L58.8873 31.3116ZM51.9569 30.2051L45.8871 29.3631L45.8184 29.8583L51.8882 30.7003L51.9569 30.2051ZM46.077 29.5003L43.1998 23.6528L42.7511 23.8736L45.6284 29.7211L46.077 29.5003ZM43.1998 23.6528C42.4075 22.0426 41.6226 20.5163 40.996 19.3541C40.6828 18.7732 40.4082 18.2816 40.1916 17.9152C40.0833 17.7323 39.9884 17.5785 39.9094 17.4597C39.835 17.3476 39.7627 17.2475 39.7009 17.1883L39.3549 17.5493C39.3715 17.5652 39.4163 17.6209 39.4929 17.7363C39.5651 17.8449 39.6551 17.9904 39.7612 18.1698C39.9731 18.5281 40.2442 19.0132 40.5558 19.5914C41.179 20.7472 41.961 22.2678 42.7511 23.8736L43.1998 23.6528ZM39.701 17.1884C38.8751 16.3961 37.8561 16.1949 36.8287 16.6354L37.0258 17.0949C37.8603 16.7371 38.6671 16.8895 39.3548 17.5492L39.701 17.1884ZM34.5365 24.798C33.7392 26.4095 32.9574 27.9262 32.3404 29.0713C32.0317 29.644 31.7652 30.1221 31.559 30.472C31.4558 30.6472 31.369 30.788 31.3004 30.8917C31.2661 30.9436 31.2376 30.9843 31.2148 31.0144C31.2034 31.0294 31.1944 31.0406 31.1874 31.0487C31.1801 31.0573 31.1772 31.0598 31.1783 31.0588L31.5158 31.4278C31.5772 31.3716 31.6478 31.2729 31.7174 31.1676C31.7928 31.0537 31.8846 30.9045 31.9898 30.7258C32.2006 30.3682 32.4705 29.8838 32.7805 29.3084C33.4009 28.1573 34.1854 26.6353 34.9847 25.0198L34.5365 24.798ZM31.1784 31.0588C31.0012 31.2208 30.8831 31.3236 30.6993 31.4158C30.5105 31.5105 30.2405 31.5995 29.7597 31.7024C28.7954 31.9088 27.0593 32.1564 23.6048 32.6451L23.6748 33.1402C27.1174 32.6531 28.8779 32.4025 29.8643 32.1914C30.359 32.0855 30.6779 31.9859 30.9235 31.8627C31.1741 31.7369 31.3358 31.5923 31.5157 31.4278L31.1784 31.0588ZM23.6047 32.6451C21.9053 32.8857 20.3412 33.1229 19.19 33.3114C18.6147 33.4055 18.141 33.4878 17.8045 33.5524C17.6367 33.5846 17.5002 33.613 17.4015 33.6366C17.3526 33.6483 17.3089 33.6598 17.2737 33.671C17.2564 33.6765 17.2367 33.6833 17.2176 33.6917C17.2078 33.6959 17.1632 33.7145 17.124 33.7536L17.4775 34.1073C17.4571 34.1277 17.4384 34.1388 17.4321 34.1424C17.4241 34.147 17.4183 34.1496 17.4169 34.1502C17.414 34.1514 17.4159 34.1505 17.4252 34.1475C17.4434 34.1417 17.4735 34.1335 17.5179 34.1229C17.6056 34.1019 17.7334 34.0752 17.8987 34.0434C18.2286 33.9801 18.6972 33.8987 19.2708 33.8048C20.4176 33.617 21.9779 33.3804 23.6748 33.1402L23.6047 32.6451ZM17.1235 33.7541C17.0264 33.8518 17.0488 33.9717 17.0541 33.9967C17.0624 34.0361 17.0778 34.0683 17.0872 34.0865C17.1077 34.1262 17.1367 34.1686 17.1661 34.2086C17.2271 34.2915 17.3186 34.4019 17.4338 34.5336C17.6656 34.7989 18.0092 35.1687 18.4371 35.6151C19.2937 36.5086 20.4963 37.717 21.8385 39.025L22.1874 38.6669C20.848 37.3615 19.6496 36.1573 18.798 35.269C18.3718 34.8245 18.0345 34.4611 17.8102 34.2046C17.6974 34.0755 17.617 33.9778 17.5688 33.9122C17.557 33.8963 17.548 33.8834 17.5415 33.8733C17.5382 33.8683 17.5358 33.8644 17.534 33.8615C17.5332 33.8601 17.5326 33.859 17.5321 33.8583C17.5317 33.8575 17.5315 33.8571 17.5315 33.8572C17.5316 33.8572 17.5319 33.8578 17.5324 33.8589C17.5329 33.86 17.5337 33.8619 17.5347 33.8644C17.5365 33.8688 17.5403 33.8789 17.5433 33.8935C17.5457 33.9047 17.5695 34.0148 17.478 34.1068L17.1235 33.7541ZM21.8385 39.025C23.4317 40.5775 24.6608 41.8216 25.5036 42.7325C25.9253 43.1883 26.2474 43.5577 26.4693 43.8388C26.5804 43.9796 26.6637 44.0948 26.7211 44.1855C26.7825 44.2824 26.8012 44.3311 26.8041 44.3439L27.2914 44.2316C27.2683 44.1315 27.2098 44.0227 27.1435 43.918C27.0733 43.8071 26.9785 43.6769 26.8618 43.529C26.6282 43.233 26.296 42.8527 25.8706 42.3929C25.0192 41.4727 23.7829 40.2216 22.1874 38.6669L21.8385 39.025ZM26.8041 44.3438C26.8039 44.343 26.8049 44.3472 26.8061 44.3585C26.8072 44.3692 26.8083 44.3837 26.809 44.4024C26.8105 44.44 26.8106 44.4893 26.8088 44.551C26.8053 44.6743 26.7949 44.8376 26.7776 45.0381C26.7431 45.4386 26.6821 45.977 26.599 46.6199C26.4327 47.9051 26.1785 49.5996 25.872 51.4271L26.3652 51.5098C26.6724 49.6778 26.9276 47.9769 27.0948 46.684C27.1784 46.0379 27.2403 45.4916 27.2757 45.081C27.2934 44.876 27.3047 44.7021 27.3086 44.5652C27.3122 44.4382 27.3108 44.316 27.2914 44.2317L26.8041 44.3438ZM25.872 51.4271C25.5726 53.2134 25.3174 54.8554 25.1475 56.0623C25.0627 56.6653 24.9988 57.1617 24.9614 57.5138C24.9428 57.6892 24.9303 57.8326 24.9253 57.9367C24.9229 57.9879 24.922 58.0357 24.924 58.0753C24.925 58.0945 24.927 58.1193 24.9321 58.1448C24.9347 58.1576 24.9391 58.1763 24.9473 58.1972C24.9544 58.2153 24.9711 58.2528 25.0066 58.2885L25.3606 57.9353C25.3935 57.9683 25.4078 58.0018 25.4128 58.0145C25.4188 58.0299 25.4214 58.0417 25.4223 58.0463C25.4241 58.0553 25.4238 58.058 25.4233 58.0498C25.4226 58.0347 25.4226 58.0061 25.4248 57.9605C25.429 57.871 25.4403 57.7391 25.4586 57.5666C25.4951 57.2229 25.5581 56.733 25.6427 56.1319C25.8117 54.9306 26.0662 53.2931 26.3652 51.5098L25.872 51.4271ZM25.0066 58.2885C25.0512 58.3331 25.1007 58.3504 25.1293 58.3575C25.159 58.3649 25.1848 58.3659 25.2011 58.3657C25.2334 58.3655 25.2625 58.3602 25.282 58.356C25.323 58.3472 25.3697 58.3323 25.4168 58.3157C25.5135 58.2814 25.6447 58.2275 25.8034 58.158C26.1225 58.0182 26.5707 57.8074 27.1139 57.5422C28.2013 57.0116 29.6784 56.2593 31.2832 55.4133L31.05 54.971C29.4484 55.8154 27.9761 56.5652 26.8946 57.0929C26.3535 57.357 25.9124 57.5644 25.6028 57.7C25.4472 57.7682 25.3292 57.8163 25.2499 57.8443C25.2091 57.8588 25.1863 57.8652 25.177 57.8672C25.1713 57.8684 25.1801 57.8659 25.1971 57.8657C25.2058 57.8657 25.2251 57.8661 25.2497 57.8722C25.2731 57.878 25.3187 57.8933 25.3606 57.9353L25.0066 58.2885ZM31.2832 55.4133C33.2609 54.3706 34.7795 53.6047 35.8716 53.0998C36.4179 52.8473 36.8537 52.6619 37.1849 52.5401C37.5279 52.4139 37.7266 52.3686 37.8155 52.3686V51.8686C37.6264 51.8686 37.3498 51.9467 37.0123 52.0708C36.663 52.1993 36.2135 52.391 35.6618 52.646C34.5578 53.1563 33.03 53.9271 31.05 54.9711L31.2832 55.4133ZM37.8155 52.3686C37.9044 52.3686 38.1032 52.4139 38.4462 52.5401C38.7773 52.6619 39.2132 52.8473 39.7595 53.0998C40.8515 53.6047 42.3702 54.3706 44.3479 55.4133L44.5811 54.9711C42.6011 53.9271 41.0733 53.1563 39.9693 52.646C39.4176 52.391 38.968 52.1993 38.6188 52.0708C38.2813 51.9467 38.0047 51.8686 37.8155 51.8686V52.3686ZM44.3479 55.4133C45.9527 56.2594 47.4305 57.0111 48.519 57.5408C49.0628 57.8054 49.5118 58.0158 49.8317 58.1549C49.9908 58.2241 50.1226 58.2778 50.2199 58.3117C50.2673 58.3282 50.3147 58.3429 50.3563 58.3515C50.3761 58.3555 50.4057 58.3606 50.4386 58.3604C50.4539 58.3604 50.5516 58.3617 50.6303 58.2826L50.2758 57.93C50.3162 57.8894 50.3599 57.8738 50.3834 57.8676C50.4078 57.8612 50.4271 57.8605 50.436 57.8605C50.4533 57.8604 50.4624 57.8628 50.4569 57.8617C50.4479 57.8599 50.4253 57.8538 50.3844 57.8395C50.3051 57.8119 50.187 57.7642 50.0311 57.6964C49.721 57.5615 49.2795 57.3548 48.7378 57.0912C47.6555 56.5645 46.1826 55.8153 44.5811 54.971L44.3479 55.4133ZM50.63 58.2829C50.6646 58.2482 50.6813 58.2118 50.6887 58.1934C50.697 58.1726 50.7017 58.1539 50.7044 58.1409C50.7098 58.1151 50.712 58.0901 50.7131 58.0706C50.7154 58.0305 50.7146 57.9824 50.7123 57.9309C50.7077 57.8263 50.6954 57.6826 50.6769 57.507C50.6399 57.1546 50.5761 56.6581 50.4912 56.0554C50.3211 54.8491 50.0649 53.2087 49.7635 51.425L49.2705 51.5083C49.5714 53.2889 49.8268 54.9246 49.9961 56.1252C50.0807 56.7258 50.1435 57.2155 50.1797 57.5593C50.1978 57.7318 50.2088 57.8638 50.2128 57.9532C50.2149 57.9988 50.2148 58.0273 50.2139 58.0423C50.2135 58.0504 50.2131 58.0475 50.2151 58.0384C50.216 58.0337 50.2187 58.022 50.2248 58.0067C50.23 57.9938 50.2442 57.9616 50.2761 57.9297L50.63 58.2829ZM53.7956 39.0271C55.138 37.7197 56.3412 36.5121 57.1983 35.6194C57.6266 35.1735 57.9704 34.8041 58.2025 34.5393C58.3178 34.4078 58.4095 34.2977 58.4705 34.2151C58.5 34.1753 58.5289 34.1332 58.5495 34.0938C58.5589 34.0757 58.5744 34.0438 58.5829 34.0047C58.5881 33.9807 58.6122 33.859 58.5134 33.7603L58.16 34.1139C58.0667 34.0207 58.0921 33.9087 58.0943 33.8985C58.0974 33.884 58.1013 33.8739 58.103 33.8696C58.104 33.8671 58.1049 33.8653 58.1054 33.8642C58.1059 33.8631 58.1062 33.8626 58.1062 33.8626C58.1062 33.8625 58.106 33.8629 58.1055 33.8637C58.1051 33.8645 58.1045 33.8656 58.1036 33.867C58.1018 33.8699 58.0994 33.8738 58.0961 33.8788C58.0894 33.8889 58.0804 33.9018 58.0686 33.9178C58.0201 33.9832 57.9396 34.0808 57.8265 34.2097C57.6019 34.4659 57.2642 34.8289 56.8377 35.2731C55.9854 36.1607 54.7864 37.3641 53.4467 38.6689L53.7956 39.0271ZM58.5137 33.7605C58.4742 33.721 58.4291 33.7023 58.4197 33.6982C58.4007 33.69 58.381 33.6832 58.3638 33.6778C58.3288 33.6666 58.2852 33.6552 58.2364 33.6435C58.1377 33.6199 58.0014 33.5915 57.8336 33.5592C57.4971 33.4943 57.0231 33.4116 56.4474 33.3167C55.2954 33.1269 53.7297 32.8875 52.0282 32.6444L51.9574 33.1394C53.6565 33.3821 55.2185 33.6209 56.3661 33.8101C56.9402 33.9047 57.409 33.9866 57.739 34.0501C57.9044 34.082 58.0322 34.1087 58.1199 34.1297C58.1643 34.1404 58.1944 34.1486 58.2126 34.1543C58.222 34.1573 58.2238 34.1583 58.221 34.1571C58.2195 34.1564 58.2137 34.1539 58.2056 34.1492C58.1994 34.1457 58.1804 34.1344 58.1597 34.1137L58.5137 33.7605ZM52.0282 32.6444C48.5949 32.1536 46.8561 31.9026 45.889 31.7012C45.4062 31.6007 45.1334 31.5158 44.9445 31.4274C44.7621 31.342 44.6481 31.2492 44.4828 31.1051L44.1543 31.4821C44.3268 31.6324 44.484 31.764 44.7326 31.8803C44.9747 31.9936 45.2927 32.0878 45.787 32.1907C46.7741 32.3962 48.5346 32.65 51.9574 33.1393L52.0282 32.6444ZM44.4828 31.1052C44.4863 31.1082 44.4774 31.1005 44.4536 31.0693C44.4323 31.0413 44.405 31.0027 44.3718 30.9526C44.3054 30.8526 44.2208 30.7154 44.1195 30.5437C43.9173 30.2009 43.6542 29.7296 43.3483 29.163C42.7369 28.0304 41.9581 26.5237 41.1599 24.9167L40.7121 25.1392C41.5122 26.75 42.2936 28.2619 42.9083 29.4006C43.2155 29.9696 43.482 30.4472 43.6889 30.7978C43.7921 30.9729 43.8818 31.1185 43.9552 31.229C44.0215 31.3291 44.0918 31.4276 44.1543 31.4821L44.4828 31.1052ZM41.1599 24.9167C40.3601 23.3068 39.6122 21.8349 39.0512 20.7603C38.7709 20.2233 38.5366 19.7841 38.3655 19.4761C38.2802 19.3225 38.2093 19.1991 38.1557 19.1117C38.1291 19.0685 38.1045 19.0303 38.083 19.0005C38.0726 18.9861 38.0596 18.969 38.0452 18.953C38.038 18.945 38.0272 18.9337 38.0135 18.9222C38.0028 18.9131 37.9749 18.8905 37.9335 18.8751L37.7595 19.3438C37.7212 19.3296 37.6971 19.3094 37.6908 19.3041C37.6815 19.2962 37.6758 19.29 37.6742 19.2882C37.671 19.2847 37.6718 19.285 37.6774 19.2929C37.6882 19.3078 37.7053 19.3338 37.7296 19.3733C37.7775 19.4513 37.8442 19.5672 37.9284 19.7189C38.0963 20.0213 38.3284 20.456 38.608 20.9917C39.167 22.0626 39.9134 23.5313 40.7121 25.1392L41.1599 24.9167ZM37.933 18.8749C37.8622 18.8488 37.7998 18.8603 37.7646 18.8716C37.7297 18.8827 37.7041 18.899 37.6898 18.9089C37.6613 18.9289 37.6397 18.9516 37.6271 18.9656C37.5996 18.9961 37.5713 19.0348 37.5442 19.0744C37.4882 19.1561 37.4159 19.2738 37.3304 19.4201C37.1586 19.7142 36.9239 20.1412 36.6437 20.6677C36.0829 21.7216 35.3354 23.183 34.5365 24.798L34.9847 25.0197C35.7821 23.4078 36.5272 21.9509 37.0851 20.9026C37.3643 20.378 37.5954 19.9578 37.7622 19.6723C37.846 19.5287 37.9112 19.4234 37.9567 19.3569C37.9804 19.3223 37.9937 19.3056 37.9985 19.3004C38.002 19.2965 37.9941 19.3063 37.9768 19.3184C37.9682 19.3244 37.9476 19.338 37.9171 19.3477C37.8863 19.3576 37.8276 19.3689 37.76 19.344L37.933 18.8749ZM37.0541 0.480992L37.4081 0.834144V0.834144L37.0541 0.480992ZM37.0107 8.19993L37.3467 7.82958L37.3466 7.82956L37.0107 8.19993ZM38.6094 8.20018L38.9945 8.51907L38.9947 8.51886L38.6094 8.20018ZM38.465 0.333201L38.1695 0.736537L38.1695 0.736565L38.465 0.333201ZM24.2768 2.72685L23.9057 2.39176L23.9056 2.39185L24.2768 2.72685ZM26.5554 10.3224L26.7352 9.85587L26.7346 9.85563L26.5554 10.3224ZM27.5373 10.297L27.4154 9.81207L27.4153 9.81209L27.5373 10.297ZM27.1465 5.78033L26.6754 5.9478L26.6754 5.94782L27.1465 5.78033ZM49.7965 2.71769L50.1504 3.07084L49.7965 2.71769ZM48.262 6.27407L48.7342 6.43848V6.43847L48.262 6.27407ZM47.4651 9.90295L47.024 10.1383L47.024 10.1384L47.4651 9.90295ZM48.4285 10.3532L48.486 10.8499L48.4861 10.8499L48.4285 10.3532ZM51.1147 5.46466L51.5886 5.62413L51.5886 5.6241L51.1147 5.46466ZM51.3926 2.76907L51.7638 2.43414L51.7636 2.43395L51.3926 2.76907ZM12.9943 9.18053L12.6404 8.82738L12.9943 9.18053ZM12.6946 10.0072L13.1946 10.0028L13.1946 10.0024L12.6946 10.0072ZM17.3347 15.7812L17.5794 15.3452L17.5793 15.3452L17.3347 15.7812ZM18.806 15.1875L18.365 14.9519L18.365 14.952L18.806 15.1875ZM16.2914 11.1049L15.9101 11.4283L15.9102 11.4284L16.2914 11.1049ZM59.9739 10.315L60.3553 10.6384L60.3554 10.6383L59.9739 10.315ZM57.675 12.9943L57.2978 12.6661L57.675 12.9943ZM60.735 13.0526L60.3484 12.7356L60.3484 12.7356L60.735 13.0526ZM62.6367 9.18053L62.2828 9.53368L62.6367 9.18053ZM4.71324 19.1954L4.35936 18.8422L4.35928 18.8423L4.71324 19.1954ZM4.63177 20.6392L5.02875 20.3353H5.02875L4.63177 20.6392ZM7.93999 19.9797L7.69314 20.4145L7.69315 20.4145L7.93999 19.9797ZM63.8532 22.3522L64.2054 22.7071L64.2056 22.7069L63.8532 22.3522ZM63.7956 23.4852L64.2141 23.2117L64.214 23.2115L63.7956 23.4852ZM71.198 20.2953L70.7214 20.1444L70.7213 20.1444L71.198 20.2953ZM0.304555 31.3109L0.658509 31.6641L0.304555 31.3109ZM0.368511 33.0305L0.688227 32.6461L0.688194 32.646L0.368511 33.0305ZM4.05997 33.8801L3.97934 34.3736L3.97935 34.3736L4.05997 33.8801ZM8.32297 33.3823L7.82852 33.308L7.82852 33.308L8.32297 33.3823ZM4.54472 31.547L4.63522 31.0553L4.63517 31.0553L4.54472 31.547ZM71.4434 31.4096L71.5385 31.9005L71.5386 31.9005L71.4434 31.4096ZM68.8502 31.8985L68.9373 32.3909L68.9374 32.3909L68.8502 31.8985ZM67.87 34.095L68.0778 33.6403L68.0777 33.6402L67.87 34.095ZM71.7404 33.8028L71.6538 33.3103L71.6538 33.3103L71.7404 33.8028ZM75.3138 32.9771L75.002 32.5862L75.002 32.5863L75.3138 32.9771ZM75.3265 31.3109L74.9726 31.6641L75.3265 31.3109ZM3.42624 43.5216L3.33623 43.0298H3.33621L3.42624 43.5216ZM1.25629 46.2673L1.25568 45.7673H1.25565L1.25629 46.2673ZM7.67681 45.0995L7.52909 44.6218L7.52904 44.6218L7.67681 45.0995ZM8.11866 43.3395L8.5038 43.0206L8.50375 43.0205L8.11866 43.3395ZM67.5604 43.2664L67.2064 42.9133L67.5604 43.2664ZM67.7 44.8001L68.0307 44.4251L68.0305 44.4249L67.7 44.8001ZM71.4939 45.7718L71.4086 46.2644L71.4087 46.2644L71.4939 45.7718ZM72.1772 43.4725L72.2668 42.9806L72.2668 42.9806L72.1772 43.4725ZM68.0172 54.4614L67.9095 53.9731L67.9094 53.9731L68.0172 54.4614ZM60.7206 60.8449L61.0735 61.1991L60.7206 60.8449ZM61.8015 63.0396L61.4469 62.687L61.4469 62.687L61.8015 63.0396ZM68.068 57.0618L67.8332 56.6204L67.8329 56.6205L68.068 57.0618ZM71.1389 57.3968L70.8361 57.7948L70.8362 57.7948L71.1389 57.3968ZM72.7096 60.5254L72.2212 60.4184L72.2212 60.4185L72.7096 60.5254ZM62.7306 71.1523L62.376 70.7998L62.376 70.7998L62.7306 71.1523ZM52.1667 81.5175L51.8932 81.0989L51.8931 81.0989L52.1667 81.5175ZM40.322 82.1346L40.3278 82.6345H40.3278L40.322 82.1346ZM29.2271 82.2617L29.2214 81.7618L29.0657 81.7636L28.9385 81.8534L29.2271 82.2617ZM28.031 83.107L27.7424 82.6987L27.7424 82.6987L28.031 83.107ZM26.8348 83.9523L26.4889 84.3133L26.7866 84.5986L27.1234 84.3606L26.8348 83.9523ZM25.8199 82.9798L25.4739 83.3408L25.474 83.3409L25.8199 82.9798ZM16.0861 73.475L16.3524 73.0518L16.3523 73.0518L16.0861 73.475ZM12.855 72.9772V72.4772H12.6486L12.5023 72.6227L12.855 72.9772ZM9.53637 76.2794L9.18369 75.925L9.18367 75.925L9.53637 76.2794ZM6.21799 79.5817L5.8653 79.2273L5.51066 79.5802L5.8638 79.9346L6.21799 79.5817ZM13.705 87.0956L13.3508 87.4485H13.3508L13.705 87.0956ZM22.0883 94.8534L21.957 95.3359L21.9571 95.3359L22.0883 94.8534ZM27.9175 91.4179L28.2721 91.7704L28.2721 91.7704L27.9175 91.4179ZM31.09 88.2268L31.4445 88.5793L31.8028 88.2189L31.4367 87.8665L31.09 88.2268ZM29.872 87.0546L29.5252 87.4149L29.5253 87.4149L29.872 87.0546ZM28.654 85.8822L28.2893 85.5402L27.9517 85.9002L28.3073 86.2425L28.654 85.8822ZM29.2045 85.2951L29.5693 85.6371L29.5694 85.637L29.2045 85.2951ZM29.7547 84.7078L29.7511 84.2078L29.5365 84.2094L29.3898 84.366L29.7547 84.7078ZM40.5743 84.6295L40.5779 85.1294L40.5743 84.6295ZM51.3936 84.5511L51.3972 85.0511L51.512 85.0503L51.6149 84.9995L51.3936 84.5511ZM52.7895 83.862L53.0108 84.3104L53.0109 84.3103L52.7895 83.862ZM64.3577 72.924L64.7126 73.2762H64.7126L64.3577 72.924ZM74.8268 61.6281L75.3078 61.7645L75.3078 61.7644L74.8268 61.6281ZM73.7015 56.4811L74.0817 56.1564L74.0816 56.1564L73.7015 56.4811ZM26.9348 64.3356L27.1417 64.7908L27.1419 64.7907L26.9348 64.3356ZM23.8377 70.3365L24.1893 70.692L24.1893 70.692L23.8377 70.3365ZM28.0911 66.3937L28.3194 66.8386L28.3195 66.8385L28.0911 66.3937ZM49.4406 67.501L48.9855 67.7079L48.9855 67.708L49.4406 67.501ZM49.0036 70.7473L48.6303 70.4147L48.6303 70.4148L49.0036 70.7473ZM48.2635 71.5781L48.2687 72.0781L48.4898 72.0758L48.6369 71.9107L48.2635 71.5781ZM40.958 71.6532L40.9632 72.1531H40.9632L40.958 71.6532ZM33.3228 72.0021L33.0033 71.6176L33.0031 71.6178L33.3228 72.0021ZM33.298 73.6894L33.6519 73.3363L33.298 73.6894ZM48.2793 73.9947V74.4947H48.4068L48.5187 74.4336L48.2793 73.9947ZM49.4721 73.344L49.2327 72.905H49.2327L49.4721 73.344ZM52.0192 67.6028L51.5363 67.7325L51.5363 67.7325L52.0192 67.6028ZM49.6416 64.4567L49.3884 64.8878L49.3884 64.8878L49.6416 64.4567ZM48.5572 63.8197L48.8104 63.3886L48.693 63.3197L48.5569 63.3197L48.5572 63.8197ZM38.3008 63.8253L38.3005 63.3253L38.3008 63.8253ZM11.6728 77.4305L12.0277 77.7827L12.0277 77.7827L11.6728 77.4305ZM9.52469 79.5947L9.16982 79.2424L8.8194 79.5955L9.17064 79.9477L9.52469 79.5947ZM15.9909 86.0791L15.6368 86.4322H15.6368L15.9909 86.0791ZM25.5737 90.4617L25.2188 90.1095L25.2188 90.1095L25.5737 90.4617ZM27.6602 88.3596L28.015 88.7118L28.3656 88.3586L28.014 88.0063L27.6602 88.3596ZM21.1249 81.813L21.4788 81.4598H21.4788L21.1249 81.813ZM36.7002 0.12784C36.5612 0.267133 36.4304 0.424481 36.3286 0.643898C36.23 0.856198 36.1716 1.09857 36.1332 1.39406C36.0583 1.9703 36.0466 2.86948 36.0466 4.38434H37.0466C37.0466 2.84367 37.0602 2.02012 37.1249 1.52303C37.1562 1.28186 37.1962 1.14992 37.2357 1.06484C37.2718 0.986883 37.3187 0.923786 37.4081 0.834144L36.7002 0.12784ZM36.0466 4.38434C36.0466 5.85688 36.0604 6.75279 36.1302 7.32663C36.1656 7.6178 36.2188 7.85919 36.3089 8.06558C36.4044 8.28448 36.5306 8.43946 36.6748 8.57029L37.3466 7.82956C37.2881 7.77648 37.2549 7.73324 37.2254 7.66559C37.1904 7.58543 37.1528 7.45193 37.1229 7.20587C37.062 6.70524 37.0466 5.87727 37.0466 4.38434H36.0466ZM36.6748 8.57027C37.0218 8.88496 37.4252 9.10154 37.8651 9.10164C38.3217 9.10175 38.7044 8.86946 38.9945 8.51907L38.2243 7.88129C38.0711 8.06636 37.9496 8.10166 37.8653 8.10164C37.7643 8.10162 37.5901 8.05035 37.3467 7.82958L36.6748 8.57027ZM38.9947 8.51886C39.1296 8.35571 39.2064 8.14802 39.2582 7.93885C39.3118 7.72216 39.3501 7.45406 39.3785 7.13077C39.4353 6.48373 39.4576 5.55177 39.4576 4.2368H38.4576C38.4576 5.55026 38.435 6.44381 38.3823 7.04326C38.356 7.34321 38.3233 7.55361 38.2875 7.69864C38.2497 7.85119 38.2184 7.88846 38.2241 7.88151L38.9947 8.51886ZM39.4576 4.2368C39.4576 2.64427 39.4472 1.71232 39.375 1.14022C39.3383 0.849555 39.2811 0.606302 39.175 0.400355C39.0609 0.179 38.9108 0.0399676 38.7605 -0.070162L38.1695 0.736565C38.2427 0.790124 38.2659 0.819232 38.2861 0.858426C38.3142 0.913028 38.3522 1.02273 38.3828 1.26539C38.4452 1.75994 38.4576 2.6161 38.4576 4.2368H39.4576ZM38.7605 -0.0701339C38.596 -0.190638 38.4333 -0.302226 38.2736 -0.379234C38.1066 -0.459715 37.9117 -0.518026 37.6912 -0.49492C37.4743 -0.472194 37.295 -0.377064 37.146 -0.269741C37.0006 -0.164963 36.8531 -0.0253911 36.7002 0.12784L37.4081 0.834144C37.5571 0.684799 37.656 0.59534 37.7306 0.541588C37.8017 0.490381 37.816 0.497483 37.7954 0.499636C37.7712 0.50217 37.7754 0.490743 37.8393 0.521558C37.9104 0.555846 38.0104 0.619965 38.1695 0.736537L38.7605 -0.0701339ZM23.9056 2.39185C23.7635 2.54932 23.6362 2.73114 23.5419 2.90275C23.4946 2.98887 23.4517 3.07968 23.4193 3.16977C23.3896 3.25252 23.3568 3.36739 23.3568 3.49175H24.3568C24.3568 3.53368 24.3476 3.54372 24.3605 3.50758C24.3709 3.47878 24.3896 3.43665 24.4184 3.38414C24.4765 3.27849 24.5592 3.16027 24.648 3.06185L23.9056 2.39185ZM23.3568 3.49175C23.3568 3.59015 23.3758 3.69687 23.3946 3.78482C23.4153 3.88157 23.4442 3.99316 23.4787 4.11433C23.5479 4.35716 23.6452 4.65862 23.7606 4.99411C23.9917 5.6662 24.3019 6.49439 24.621 7.30227C24.9401 8.10987 25.2707 8.90353 25.5431 9.50593C25.6788 9.80591 25.8035 10.066 25.9073 10.2588C25.9585 10.3539 26.0102 10.4432 26.06 10.5159C26.0846 10.5516 26.1157 10.5937 26.1524 10.6334C26.1774 10.6605 26.2541 10.7423 26.3762 10.7892L26.7346 9.85563C26.7932 9.87812 26.8322 9.90684 26.8499 9.92085C26.8695 9.93645 26.8819 9.94937 26.8866 9.95448C26.8955 9.96413 26.8951 9.96536 26.8846 9.95013C26.8645 9.92073 26.8323 9.86745 26.7878 9.78482C26.7002 9.62211 26.5866 9.3863 26.4543 9.0938C26.1908 8.51125 25.8667 7.7337 25.5511 6.93484C25.2356 6.13626 24.9311 5.32275 24.7063 4.6689C24.5936 4.34142 24.5027 4.05885 24.4405 3.84047C24.4093 3.73103 24.3868 3.64272 24.3725 3.57576C24.3563 3.5 24.3568 3.47919 24.3568 3.49175H23.3568ZM26.3755 10.7889C26.5667 10.8626 26.8069 10.8751 27.0003 10.8701C27.2111 10.8646 27.4456 10.8356 27.6593 10.7819L27.4153 9.81209C27.2803 9.84607 27.1195 9.86667 26.9744 9.87043C26.9026 9.87229 26.8413 9.86985 26.7939 9.86476C26.7419 9.85917 26.7263 9.85242 26.7352 9.85587L26.3755 10.7889ZM27.6593 10.7819C27.9576 10.7068 28.2622 10.5573 28.4565 10.2399C28.6396 9.94081 28.6707 9.57801 28.638 9.19974C28.5733 8.45278 28.2235 7.31723 27.6176 5.61285L26.6754 5.94782C27.292 7.6823 27.5902 8.69124 27.6417 9.28596C27.667 9.57854 27.6232 9.68589 27.6037 9.7177C27.5954 9.7312 27.5697 9.77327 27.4154 9.81207L27.6593 10.7819ZM27.6176 5.61287C27.3086 4.7437 27.0315 4.0355 26.7722 3.48061C26.5168 2.93373 26.2622 2.49884 25.9864 2.20541C25.702 1.90279 25.3343 1.69208 24.8912 1.7625C24.4963 1.82527 24.172 2.09687 23.9057 2.39176L24.6479 3.06193C24.876 2.80929 25.0041 2.75711 25.0482 2.75011C25.0588 2.74841 25.0695 2.74779 25.0929 2.7582C25.1228 2.77147 25.1784 2.80579 25.2577 2.89026C25.4223 3.06538 25.6231 3.38334 25.8662 3.90387C26.1057 4.41638 26.3705 5.09016 26.6754 5.9478L27.6176 5.61287ZM49.4425 2.36454C49.3691 2.43811 49.3065 2.53086 49.2578 2.60954C49.2045 2.69563 49.1481 2.7978 49.09 2.9105C48.9737 3.13636 48.8403 3.42454 48.6988 3.75256C48.4153 4.40968 48.09 5.24739 47.7898 6.10967L48.7342 6.43847C49.0276 5.59569 49.3443 4.78075 49.617 4.1487C49.7536 3.83214 49.8769 3.56662 49.979 3.36853C50.0301 3.26926 50.0734 3.19191 50.1081 3.13577C50.1475 3.07221 50.1612 3.06003 50.1504 3.07084L49.4425 2.36454ZM47.7898 6.10967C47.3514 7.36893 47.0842 8.19627 46.9588 8.76747C46.834 9.33582 46.8223 9.76032 47.024 10.1383L47.9062 9.66757C47.8777 9.61416 47.8244 9.4882 47.9355 8.98195C48.0461 8.47856 48.2925 7.70716 48.7342 6.43848L47.7898 6.10967ZM47.024 10.1384C47.1598 10.3927 47.3504 10.6118 47.6295 10.7423C47.9002 10.8687 48.1946 10.8836 48.486 10.8499L48.371 9.8565C48.181 9.87849 48.0935 9.85531 48.0528 9.83629C48.0205 9.82121 47.9702 9.78734 47.9062 9.6675L47.024 10.1384ZM48.4861 10.8499C49.152 10.7727 49.6358 10.215 50.0661 9.43204C50.5134 8.61798 50.9971 7.38169 51.5886 5.62413L50.6408 5.30518C50.0503 7.05974 49.5903 8.22142 49.1897 8.95046C48.772 9.71059 48.5037 9.84112 48.3709 9.85652L48.4861 10.8499ZM51.5886 5.6241C51.766 5.09667 51.903 4.686 51.9999 4.363C52.0954 4.04467 52.1614 3.78204 52.1844 3.5584C52.2089 3.32057 52.1877 3.10334 52.0912 2.89211C52.0045 2.70223 51.8701 2.55196 51.7638 2.43414L51.0213 3.104C51.1367 3.23191 51.1675 3.27677 51.1816 3.30754C51.1859 3.31697 51.201 3.34591 51.1897 3.45587C51.1769 3.58002 51.1347 3.7668 51.0421 4.07561C50.9508 4.37975 50.8195 4.77395 50.6408 5.30521L51.5886 5.6241ZM51.7636 2.43395C51.4548 2.092 51.0832 1.80169 50.619 1.78672C50.152 1.77167 49.7658 2.04047 49.4425 2.36454L50.1504 3.07084C50.4164 2.80426 50.5448 2.78485 50.5868 2.7862C50.6316 2.78765 50.7634 2.81835 51.0215 3.1042L51.7636 2.43395ZM12.6404 8.82738C12.4857 8.98241 12.3784 9.19183 12.3106 9.37876C12.2407 9.57147 12.1925 9.79619 12.1946 10.0121L13.1946 10.0024C13.1939 9.93137 13.2119 9.82667 13.2506 9.71974C13.2915 9.60701 13.3355 9.54655 13.3483 9.53368L12.6404 8.82738ZM12.1946 10.0117C12.1959 10.1589 12.254 10.2929 12.2837 10.3587C12.3233 10.4461 12.3759 10.5424 12.4346 10.6414C12.5527 10.8406 12.7167 11.0861 12.9083 11.357C13.293 11.9008 13.8096 12.5757 14.3465 13.2439C14.8837 13.9123 15.4463 14.5802 15.924 15.1098C16.1625 15.3742 16.3836 15.6082 16.572 15.792C16.7469 15.9625 16.9321 16.1287 17.0901 16.2173L17.5793 15.3452C17.5797 15.3454 17.5774 15.3441 17.5723 15.3407C17.5672 15.3374 17.5603 15.3326 17.5514 15.3261C17.5334 15.3128 17.5103 15.2947 17.4818 15.2707C17.4246 15.2225 17.3539 15.1577 17.2702 15.0761C17.103 14.913 16.8977 14.6962 16.6665 14.44C16.2049 13.9283 15.655 13.2757 15.126 12.6175C14.5969 11.959 14.0938 11.3012 13.7247 10.7795C13.5395 10.5177 13.393 10.2971 13.2947 10.1313C13.2452 10.0478 13.213 9.98672 13.1948 9.9464C13.1667 9.88437 13.1938 9.92012 13.1946 10.0028L12.1946 10.0117ZM17.0901 16.2173C17.9183 16.6819 18.8296 16.2045 19.247 15.4231L18.365 14.952C18.1184 15.4135 17.7623 15.4478 17.5794 15.3452L17.0901 16.2173ZM19.247 15.4231C19.3575 15.2163 19.4445 14.9709 19.4104 14.6625C19.3792 14.3787 19.2508 14.0967 19.0628 13.7915C18.6903 13.1867 17.9493 12.2859 16.6726 10.7814L15.9102 11.4284C17.208 12.9578 17.8882 13.7913 18.2114 14.316C18.3712 14.5755 18.4093 14.7069 18.4165 14.7721C18.4209 14.8127 18.4184 14.8519 18.365 14.9519L19.247 15.4231ZM16.6726 10.7814C15.7328 9.6737 15.0336 8.94404 14.4496 8.60319C14.1425 8.424 13.8154 8.32039 13.4714 8.37008C13.1298 8.41945 12.8597 8.60761 12.6404 8.82738L13.3483 9.53368C13.4853 9.39632 13.568 9.36651 13.6144 9.35981C13.6586 9.35343 13.7549 9.35564 13.9455 9.46687C14.3568 9.70688 14.9498 10.2965 15.9101 11.4283L16.6726 10.7814ZM59.5925 9.99171C58.9224 10.7822 57.8893 11.9863 57.2978 12.6661L58.0522 13.3225C58.647 12.639 59.6828 11.4316 60.3553 10.6384L59.5925 9.99171ZM57.2978 12.6661C56.9175 13.1032 56.623 13.5174 56.426 13.9003C56.2325 14.2765 56.1122 14.663 56.1378 15.0305C56.1657 15.4284 56.3633 15.7613 56.7066 15.9739C57.0234 16.1702 57.4289 16.2433 57.8672 16.2433V15.2433C57.5199 15.2433 57.3269 15.1818 57.2331 15.1238C57.1659 15.0822 57.141 15.0412 57.1354 14.9608C57.1277 14.8499 57.163 14.6537 57.3152 14.3578C57.464 14.0685 57.7054 13.7212 58.0522 13.3225L57.2978 12.6661ZM57.8672 16.2433C58.3308 16.2433 58.7249 15.9989 59.1773 15.5744C59.6335 15.1464 60.2372 14.4485 61.1217 13.3696L60.3484 12.7356C59.4581 13.8214 58.8941 14.4689 58.4931 14.8451C58.0884 15.2248 57.9359 15.2433 57.8672 15.2433V16.2433ZM61.1217 13.3696C62.2044 12.0491 62.8692 11.1809 63.1754 10.5574C63.3319 10.2388 63.4273 9.92193 63.3921 9.60391C63.3552 9.26967 63.1844 9.02156 62.9907 8.82738L62.2828 9.53368C62.3829 9.63407 62.3949 9.68377 62.3982 9.71392C62.4033 9.76028 62.3968 9.87439 62.2778 10.1166C62.0331 10.6149 61.4531 11.3882 60.3484 12.7356L61.1217 13.3696ZM62.9907 8.82738C62.7778 8.61399 62.5237 8.45044 62.2209 8.38758C61.9164 8.32435 61.6149 8.37389 61.328 8.49615C60.7821 8.72869 60.2152 9.25682 59.5924 9.99181L60.3554 10.6383C60.9676 9.91569 61.4061 9.54982 61.7199 9.41614C61.8628 9.35528 61.9548 9.35365 62.0176 9.3667C62.0823 9.38013 62.1697 9.42033 62.2828 9.53368L62.9907 8.82738ZM4.35928 18.8423C4.0784 19.1238 3.85706 19.4561 3.8341 19.8629C3.81129 20.267 3.99126 20.6252 4.23479 20.9432L5.02875 20.3353C4.8492 20.1008 4.82918 19.9783 4.83251 19.9193C4.83569 19.8629 4.86662 19.7496 5.06719 19.5486L4.35928 18.8423ZM4.23479 20.9432C4.34018 21.0809 4.52994 21.2284 4.70659 21.3563C4.90369 21.499 5.15508 21.6661 5.43911 21.846C6.0082 22.2064 6.72774 22.6307 7.44878 23.0357C8.16971 23.4406 8.89844 23.8297 9.48621 24.1189C9.77932 24.2631 10.0435 24.3855 10.2571 24.4731C10.3635 24.5167 10.4641 24.5544 10.5534 24.5821C10.6288 24.6055 10.7444 24.6376 10.8609 24.6376V23.6376C10.9059 23.6376 10.9137 23.6468 10.8495 23.6269C10.7992 23.6114 10.7285 23.5855 10.6364 23.5478C10.4529 23.4726 10.2117 23.3613 9.9277 23.2216C9.36129 22.9429 8.64939 22.5631 7.93846 22.1638C7.22765 21.7646 6.52413 21.3495 5.97419 21.0012C5.6987 20.8267 5.46659 20.672 5.29309 20.5464C5.20618 20.4834 5.13839 20.431 5.08911 20.3894C5.03397 20.3428 5.02194 20.3264 5.02875 20.3353L4.23479 20.9432ZM10.8609 24.6376C11.3129 24.6376 11.7163 24.4561 12.0019 24.1372C12.284 23.822 12.4284 23.3997 12.4284 22.9454H11.4284C11.4284 23.1901 11.352 23.3639 11.2568 23.4701C11.1652 23.5725 11.0349 23.6376 10.8609 23.6376V24.6376ZM12.4284 22.9454C12.4284 22.7209 12.3891 22.4841 12.2315 22.2349C12.0883 22.0084 11.8671 21.8042 11.5759 21.5877C10.9959 21.1564 9.96627 20.555 8.18684 19.5448L7.69315 20.4145C9.49604 21.438 10.4606 22.0045 10.9792 22.3901C11.2373 22.582 11.3416 22.6985 11.3864 22.7694C11.4169 22.8176 11.4284 22.8549 11.4284 22.9454H12.4284ZM8.18685 19.5449C7.07096 18.9113 6.34365 18.5219 5.81264 18.3928C5.52258 18.3224 5.24627 18.3164 4.9763 18.4149C4.71962 18.5085 4.52336 18.6779 4.35936 18.8422L5.06712 19.5487C5.20043 19.4151 5.27116 19.3718 5.31899 19.3543C5.35352 19.3417 5.41922 19.3263 5.5765 19.3646C5.94019 19.4529 6.52893 19.7535 7.69314 20.4145L8.18685 19.5449ZM66.7478 19.9006C66.0101 20.3269 65.2838 20.7695 64.7065 21.14C64.4182 21.3251 64.1643 21.494 63.9636 21.635C63.774 21.7682 63.6017 21.8972 63.5007 21.9975L64.2056 22.7069C64.2377 22.675 64.3422 22.5912 64.5385 22.4532C64.7238 22.3231 64.9651 22.1624 65.2467 21.9816C65.8095 21.6203 66.5225 21.1858 67.2482 20.7664L66.7478 19.9006ZM63.501 21.9973C63.39 22.1074 63.2764 22.2225 63.1915 22.3377C63.1004 22.4613 63.0123 22.6242 63.0017 22.8324C62.9916 23.0311 63.0564 23.2017 63.1217 23.3335C63.1864 23.4642 63.2785 23.608 63.3771 23.7589L64.214 23.2115C64.1108 23.0536 64.0518 22.9584 64.0178 22.8898C63.9845 22.8224 64.0029 22.8336 64.0004 22.8831C63.9974 22.9421 63.9707 22.9659 63.9966 22.9309C64.0285 22.8875 64.0872 22.8244 64.2054 22.7071L63.501 21.9973ZM63.377 23.7587C63.5274 23.9889 63.7255 24.1947 63.9294 24.3468C64.1135 24.4841 64.3822 24.6376 64.6699 24.6376V23.6376C64.7015 23.6376 64.7017 23.6452 64.664 23.6286C64.6304 23.6138 64.5832 23.5869 64.5273 23.5452C64.4142 23.4608 64.2982 23.3403 64.2141 23.2117L63.377 23.7587ZM64.6699 24.6376C64.7916 24.6376 64.9139 24.6059 65.0041 24.5784C65.1054 24.5475 65.2187 24.5051 65.3382 24.4557C65.5779 24.3567 65.8705 24.2183 66.1921 24.0555C66.8369 23.7292 67.6252 23.2915 68.3927 22.8398C69.16 22.3882 69.9145 21.9179 70.4907 21.5254C70.7777 21.3299 71.0283 21.1485 71.2162 20.995C71.3095 20.9189 71.3961 20.8425 71.4662 20.7695C71.5181 20.7155 71.6262 20.5995 71.6747 20.4462L70.7213 20.1444C70.7496 20.0553 70.7944 20.0254 70.7452 20.0766C70.7144 20.1087 70.6621 20.1565 70.5837 20.2205C70.4284 20.3473 70.205 20.5101 69.9278 20.6989C69.3756 21.075 68.6412 21.5332 67.8854 21.978C67.1299 22.4227 66.3609 22.8494 65.7406 23.1633C65.4296 23.3207 65.1626 23.4463 64.9566 23.5314C64.8532 23.5741 64.7721 23.6037 64.7126 23.6218C64.6419 23.6434 64.6369 23.6376 64.6699 23.6376V24.6376ZM71.6747 20.4463C71.8352 19.9395 71.7098 19.4105 71.4562 19.0198C71.2049 18.6325 70.7685 18.2958 70.225 18.2958V19.2958C70.3347 19.2958 70.4919 19.3707 70.6174 19.5641C70.7406 19.754 70.775 19.9748 70.7214 20.1444L71.6747 20.4463ZM70.225 18.2958C70.1135 18.2958 70.0015 18.3232 69.9202 18.3462C69.8281 18.3724 69.7249 18.4084 69.6155 18.4505C69.3962 18.535 69.127 18.6538 68.8284 18.7961C68.2298 19.0813 67.4891 19.4721 66.7478 19.9006L67.2482 20.7664C67.9702 20.3491 68.6873 19.971 69.2585 19.6989C69.5448 19.5625 69.7886 19.4555 69.9748 19.3837C70.0683 19.3478 70.141 19.3231 70.1936 19.3081C70.2571 19.2901 70.2586 19.2958 70.225 19.2958V18.2958ZM-0.0493997 30.9578C-0.386805 31.296 -0.502885 31.7871 -0.487282 32.2068C-0.47173 32.6252 -0.319908 33.1083 0.0488286 33.415L0.688194 32.646C0.609997 32.581 0.521093 32.4136 0.512028 32.1697C0.503012 31.9272 0.578421 31.7444 0.658509 31.6641L-0.0493997 30.9578ZM0.0487955 33.4149C0.141044 33.4916 0.256206 33.5402 0.325756 33.5678C0.412499 33.6023 0.516028 33.6369 0.629378 33.6711C0.857171 33.7398 1.15292 33.8156 1.49279 33.8938C2.17414 34.0506 3.05702 34.2229 3.97934 34.3736L4.1406 33.3867C3.23534 33.2387 2.37388 33.0705 1.71709 32.9193C1.38789 32.8435 1.11612 32.7734 0.918315 32.7137C0.818865 32.6837 0.745074 32.6584 0.695023 32.6385C0.62778 32.6118 0.646674 32.6115 0.688227 32.6461L0.0487955 33.4149ZM3.97935 34.3736C4.85942 34.5173 5.56731 34.6226 6.13473 34.6827C6.69663 34.7422 7.1503 34.761 7.5108 34.7189C7.87505 34.6763 8.20505 34.5646 8.44925 34.3087C8.68779 34.0588 8.77443 33.7428 8.81742 33.4566L7.82852 33.308C7.79626 33.5228 7.75166 33.5913 7.72584 33.6183C7.7057 33.6394 7.63823 33.6972 7.3948 33.7256C7.14762 33.7545 6.78338 33.7458 6.24004 33.6882C5.70223 33.6313 5.01755 33.5299 4.14059 33.3866L3.97935 34.3736ZM8.81742 33.4566C8.86402 33.1465 8.82325 32.8298 8.63195 32.5389C8.45163 32.2647 8.17064 32.0647 7.84016 31.9041C7.18956 31.5881 6.1477 31.3336 4.63522 31.0553L4.45421 32.0387C5.98093 32.3197 6.89241 32.5555 7.40325 32.8037C7.65348 32.9252 7.75523 33.0257 7.79642 33.0883C7.82662 33.1343 7.84613 33.1908 7.82852 33.308L8.81742 33.4566ZM4.63517 31.0553C2.94566 30.7445 1.95189 30.5742 1.33004 30.5396C1.01519 30.5221 0.749072 30.5356 0.515797 30.6071C0.263968 30.6843 0.0921983 30.8159 -0.0493997 30.9578L0.658509 31.6641C0.723374 31.5991 0.759114 31.5784 0.808849 31.5632C0.877139 31.5422 1.00664 31.5231 1.27447 31.5381C1.81799 31.5683 2.73784 31.723 4.45426 32.0387L4.63517 31.0553ZM71.3484 30.9188C70.3715 31.108 69.2079 31.3273 68.7629 31.4062L68.9374 32.3909C69.3908 32.3105 70.5611 32.0898 71.5385 31.9005L71.3484 30.9188ZM68.763 31.4062C67.8744 31.5635 67.1651 32.0548 66.8803 32.6932C66.7347 33.0194 66.7 33.3934 66.8429 33.7489C66.9854 34.1037 67.2781 34.3744 67.6623 34.5499L68.0777 33.6402C67.8706 33.5457 67.7969 33.441 67.7708 33.3761C67.745 33.3119 67.7394 33.2218 67.7935 33.1007C67.9079 32.8442 68.2801 32.5072 68.9373 32.3909L68.763 31.4062ZM67.6623 34.5498C68.021 34.7137 68.4647 34.7417 69.0746 34.6956C69.6945 34.6488 70.5652 34.5172 71.827 34.2952L71.6538 33.3103C70.3908 33.5325 69.5643 33.6558 68.9993 33.6984C68.4242 33.7419 68.1952 33.6939 68.0778 33.6403L67.6623 34.5498ZM71.827 34.2952C72.7293 34.1365 73.5879 33.9632 74.2458 33.8112C74.5741 33.7353 74.8577 33.6636 75.0738 33.6005C75.1813 33.5691 75.2787 33.538 75.3594 33.5077C75.4192 33.4852 75.5343 33.4409 75.6257 33.3679L75.002 32.5863C75.0498 32.5481 75.0765 32.5457 75.0079 32.5715C74.9603 32.5894 74.8895 32.6126 74.7937 32.6405C74.6033 32.6961 74.3402 32.763 74.0207 32.8368C73.3832 32.9841 72.5423 33.1541 71.6538 33.3103L71.827 34.2952ZM75.6256 33.3679C75.9978 33.071 76.1174 32.5701 76.1203 32.1766C76.1234 31.7733 76.0074 31.2855 75.6805 30.9578L74.9726 31.6641C75.043 31.7347 75.1223 31.9193 75.1204 32.169C75.1184 32.4286 75.0328 32.5616 75.002 32.5862L75.6256 33.3679ZM75.6805 30.9578C75.4915 30.7684 75.2408 30.669 74.9897 30.6149C74.7346 30.56 74.4337 30.5422 74.0949 30.5508C73.4172 30.568 72.5084 30.6938 71.3483 30.9188L71.5386 31.9005C72.6835 31.6785 73.5272 31.5656 74.1203 31.5505C74.4169 31.5429 74.631 31.5606 74.7793 31.5925C74.9315 31.6253 74.9726 31.6641 74.9726 31.6641L75.6805 30.9578ZM3.33621 43.0298C1.84902 43.302 0.918783 43.4966 0.369539 43.7501C0.0780782 43.8847 -0.165659 44.0611 -0.320964 44.3253C-0.47325 44.5844 -0.5 44.8612 -0.5 45.1035H0.5C0.5 44.9245 0.523533 44.862 0.541172 44.832C0.555791 44.8071 0.601618 44.7444 0.788721 44.6581C1.1966 44.4697 1.97948 44.2947 3.51627 44.0134L3.33621 43.0298ZM-0.5 45.1035C-0.5 45.5792 -0.346971 46.0152 -0.00897352 46.3284C0.323852 46.6367 0.773545 46.7679 1.25693 46.7673L1.25565 45.7673C0.946174 45.7677 0.767723 45.6847 0.670619 45.5948C0.578686 45.5096 0.5 45.3633 0.5 45.1035H-0.5ZM1.25689 46.7673C1.46207 46.767 1.93182 46.7026 2.47683 46.6172C3.04384 46.5284 3.74743 46.4076 4.45762 46.2784C5.8606 46.0232 7.34344 45.726 7.82458 45.5771L7.52904 44.6218C7.11885 44.7487 5.70588 45.035 4.27866 45.2946C3.57375 45.4228 2.87864 45.5421 2.32211 45.6293C1.74359 45.7199 1.36496 45.7672 1.25568 45.7673L1.25689 46.7673ZM7.82453 45.5771C8.35672 45.4126 8.64269 44.8854 8.74986 44.4585C8.85929 44.0227 8.84914 43.4377 8.5038 43.0206L7.73353 43.6583C7.79401 43.7314 7.84959 43.9377 7.77997 44.215C7.70808 44.5013 7.57022 44.6091 7.52909 44.6218L7.82453 45.5771ZM8.50375 43.0205C8.14881 42.592 7.62876 42.4849 6.89753 42.5133C6.16377 42.5417 5.05459 42.7153 3.33623 43.0298L3.51625 44.0134C5.249 43.6963 6.28643 43.5377 6.93629 43.5125C7.58869 43.4872 7.6893 43.6049 7.73358 43.6584L8.50375 43.0205ZM67.2064 42.9133C66.8883 43.2321 66.737 43.6463 66.7757 44.0715C66.8138 44.4904 67.0313 44.8773 67.3694 45.1752L68.0305 44.4249C67.8527 44.2682 67.783 44.1062 67.7716 43.9809C67.7608 43.8619 67.7977 43.7365 67.9143 43.6196L67.2064 42.9133ZM67.3692 45.175C67.4578 45.2531 67.5662 45.3086 67.6487 45.3465C67.7415 45.3891 67.8503 45.4309 67.9685 45.4718C68.2056 45.5539 68.5085 45.6414 68.8552 45.7302C69.5503 45.9082 70.4492 46.0982 71.4086 46.2644L71.5793 45.2791C70.6398 45.1164 69.7676 44.9316 69.1033 44.7615C68.7704 44.6762 68.4966 44.5964 68.2954 44.5268C68.1945 44.4919 68.1187 44.4619 68.066 44.4377C68.0031 44.4088 68.0051 44.4025 68.0307 44.4251L67.3692 45.175ZM71.4087 46.2644C72.3167 46.4216 73.0417 46.5367 73.6159 46.6006C74.1818 46.6637 74.641 46.6822 75.0007 46.6259C75.3754 46.5671 75.7102 46.4149 75.9182 46.0841C76.1034 45.7896 76.1311 45.4346 76.1311 45.1234H75.1311C75.1311 45.4105 75.0952 45.5143 75.0717 45.5517C75.071 45.5529 75.0519 45.6056 74.8459 45.6379C74.6249 45.6726 74.2766 45.668 73.7266 45.6068C73.1849 45.5464 72.4855 45.4359 71.5792 45.2791L71.4087 46.2644ZM76.1311 45.1234C76.1311 44.864 76.0979 44.5804 75.9415 44.3154C75.7831 44.047 75.5371 43.8624 75.2386 43.7198C74.6747 43.4502 73.7362 43.2483 72.2668 42.9806L72.0875 43.9644C73.6018 44.2403 74.3902 44.4226 74.8073 44.622C74.9994 44.7138 75.0574 44.7848 75.0804 44.8238C75.1054 44.8661 75.1311 44.9415 75.1311 45.1234H76.1311ZM72.2668 42.9806C70.6655 42.6889 69.5849 42.5253 68.8458 42.4923C68.1286 42.4603 67.579 42.5399 67.2064 42.9133L67.9143 43.6196C67.9633 43.5705 68.1176 43.4608 68.8012 43.4913C69.4628 43.5209 70.4798 43.6715 72.0876 43.9644L72.2668 42.9806ZM67.9094 53.9731C67.2713 54.114 66.7689 54.3802 65.747 55.2742C64.7361 56.1586 63.1576 57.7111 60.3677 60.4906L61.0735 61.1991C63.8736 58.4094 65.4249 56.8847 66.4054 56.0268C67.375 55.1786 67.7259 55.0377 68.125 54.9496L67.9094 53.9731ZM60.3677 60.4906C58.6724 62.1796 57.1296 63.7658 56.0091 64.9614C55.4495 65.5585 54.992 66.0618 54.6726 66.4332C54.5137 66.618 54.3836 66.7764 54.291 66.9005C54.2454 66.9616 54.202 67.0234 54.1678 67.0812C54.1509 67.1097 54.1306 67.1466 54.1131 67.1883C54.1004 67.2185 54.066 67.3032 54.066 67.4122H55.066C55.066 67.5063 55.0371 67.5707 55.0351 67.5755C55.0283 67.5917 55.0239 67.598 55.0281 67.5909C55.0361 67.5774 55.0556 67.5479 55.0924 67.4986C55.1644 67.402 55.2771 67.2639 55.4308 67.0852C55.7365 66.7297 56.1829 66.2384 56.7388 65.6452C57.8495 64.46 59.3839 62.8823 61.0735 61.1991L60.3677 60.4906ZM54.066 67.4122C54.066 67.8804 54.1491 68.3261 54.4133 68.6602C54.6974 69.0195 55.1106 69.1528 55.5472 69.1528V68.1528C55.3141 68.1528 55.2366 68.0892 55.1976 68.0399C55.1387 67.9654 55.066 67.7909 55.066 67.4122H54.066ZM55.5472 69.1528C55.8391 69.1528 56.124 69.0085 56.4005 68.8241C56.6932 68.6289 57.0602 68.3296 57.5337 67.9047C58.4833 67.0524 59.9221 65.6389 62.1561 63.3921L61.4469 62.687C59.2095 64.9373 57.7907 66.3304 56.8658 67.1605C56.402 67.5767 56.0775 67.8375 55.8457 67.9922C55.5976 68.1576 55.5249 68.1528 55.5472 68.1528V69.1528ZM62.1561 63.3921C63.6885 61.851 65.1577 60.4099 66.2896 59.3301C66.8559 58.7899 67.3357 58.3421 67.6959 58.0181C67.8763 57.8559 68.0237 57.7273 68.1355 57.6346C68.2617 57.53 68.3084 57.5003 68.303 57.5032L67.8329 56.6205C67.7333 56.6736 67.6094 56.7718 67.4973 56.8648C67.3707 56.9697 67.212 57.1083 67.0271 57.2747C66.6566 57.608 66.1689 58.0633 65.5994 58.6065C64.4598 59.6936 62.9842 61.1411 61.4469 62.687L62.1561 63.3921ZM68.3028 57.5033C68.747 57.267 69.1595 57.1848 69.5557 57.228C69.9553 57.2716 70.3796 57.4474 70.8361 57.7948L71.4416 56.9989C70.8771 56.5694 70.2851 56.3016 69.6641 56.2339C69.0396 56.1657 68.4272 56.3045 67.8332 56.6204L68.3028 57.5033ZM70.8362 57.7948C71.9254 58.6234 72.3812 59.6881 72.2212 60.4184L73.1981 60.6324C73.4761 59.3633 72.6863 57.9458 71.4416 56.9989L70.8362 57.7948ZM72.2212 60.4185C72.2294 60.3809 72.2281 60.4138 72.1267 60.5617C72.0392 60.6891 71.906 60.8621 71.7183 61.0875C71.3439 61.5373 70.7768 62.1674 69.9844 63.0112C68.4011 64.6973 65.9407 67.213 62.376 70.7998L63.0853 71.5048C66.6502 67.9177 69.1195 65.3931 70.7134 63.6957C71.5096 62.8478 72.093 62.2004 72.4869 61.7273C72.6833 61.4913 72.8387 61.2915 72.9512 61.1274C73.0498 60.9838 73.16 60.8064 73.1981 60.6323L72.2212 60.4185ZM62.376 70.7998C59.6782 73.5145 57.1419 76.037 55.229 77.9138C54.2724 78.8524 53.4728 79.6285 52.8874 80.186C52.5944 80.465 52.3569 80.6876 52.1809 80.8479C52.0928 80.9281 52.0222 80.9908 51.969 81.0364C51.9089 81.0877 51.8886 81.1019 51.8932 81.0989L52.4401 81.9361C52.533 81.8754 52.6861 81.7404 52.8543 81.5872C53.0383 81.4196 53.282 81.1912 53.577 80.9101C54.1677 80.3476 54.9712 79.5677 55.9293 78.6276C57.8459 76.7471 60.3853 74.2217 63.0853 71.5047L62.376 70.7998ZM51.8931 81.0989C51.6649 81.2481 51.4284 81.3723 49.8558 81.4542C48.2957 81.5355 45.5234 81.5749 40.3163 81.6346L40.3278 82.6345C45.5235 82.575 48.322 82.5355 49.9078 82.4529C51.481 82.3709 51.9654 82.2463 52.4402 81.936L51.8931 81.0989ZM40.3163 81.6346L29.2214 81.7618L29.2328 82.7617L40.3278 82.6345L40.3163 81.6346ZM28.9385 81.8534L27.7424 82.6987L28.3195 83.5154L29.5157 82.6701L28.9385 81.8534ZM27.7424 82.6987L26.5463 83.544L27.1234 84.3606L28.3195 83.5154L27.7424 82.6987ZM27.1807 83.5913L26.1658 82.6188L25.474 83.3409L26.4889 84.3133L27.1807 83.5913ZM26.1659 82.6189C25.6139 82.0899 23.379 79.8502 21.1971 77.6389L20.4853 78.3413C22.6636 80.5489 24.9096 82.7999 25.4739 83.3408L26.1659 82.6189ZM21.1971 77.6389C20.1038 76.5309 19.02 75.4668 18.1536 74.6441C17.7206 74.233 17.34 73.8803 17.0387 73.6119C16.7505 73.3553 16.5031 73.1467 16.3524 73.0518L15.8197 73.8981C15.8866 73.9402 16.07 74.0883 16.3736 74.3587C16.6639 74.6173 17.0361 74.962 17.465 75.3693C18.3224 76.1834 19.3984 77.2398 20.4853 78.3413L21.1971 77.6389ZM16.3523 73.0518C15.7507 72.6733 14.913 72.4772 14.0747 72.4772V73.4772C14.781 73.4772 15.4195 73.6463 15.8198 73.8982L16.3523 73.0518ZM14.0747 72.4772H12.855V73.4772H14.0747V72.4772ZM12.5023 72.6227L9.18369 75.925L9.88904 76.6339L13.2077 73.3316L12.5023 72.6227ZM9.18367 75.925L5.8653 79.2273L6.57068 79.9361L9.88906 76.6338L9.18367 75.925ZM5.8638 79.9346L13.3508 87.4485L14.0591 86.7427L6.57218 79.2288L5.8638 79.9346ZM13.3508 87.4485C16.2562 90.3643 18.1848 92.2633 19.4756 93.4578C20.1204 94.0545 20.6147 94.4835 20.9973 94.7779C21.3644 95.0604 21.6797 95.2604 21.957 95.3359L22.2197 94.371C22.149 94.3518 21.9689 94.2638 21.6071 93.9853C21.2607 93.7187 20.7924 93.3139 20.1548 92.7239C18.881 91.5451 16.9659 89.6599 14.0591 86.7427L13.3508 87.4485ZM21.9571 95.3359C22.3976 95.4557 22.82 95.5285 23.2605 95.4893C23.7066 95.4496 24.1333 95.2986 24.5931 95.0276C25.4817 94.5039 26.5721 93.4803 28.2721 91.7704L27.5629 91.0654C25.8369 92.8015 24.8408 93.7209 24.0854 94.1661C23.7233 94.3795 23.4386 94.4695 23.1717 94.4933C22.8993 94.5175 22.6072 94.4764 22.2196 94.371L21.9571 95.3359ZM28.2721 91.7704L31.4445 88.5793L30.7354 87.8743L27.5629 91.0654L28.2721 91.7704ZM31.4367 87.8665L30.2187 86.6944L29.5253 87.4149L30.7432 88.5871L31.4367 87.8665ZM30.2187 86.6944L29.0008 85.522L28.3073 86.2425L29.5252 87.4149L30.2187 86.6944ZM29.0188 86.2242L29.5692 85.6371L28.8398 84.9531L28.2893 85.5402L29.0188 86.2242ZM29.5694 85.637L30.1196 85.0496L29.3898 84.366L28.8396 84.9533L29.5694 85.637ZM29.7584 85.2078L40.5779 85.1294L40.5707 84.1295L29.7511 84.2078L29.7584 85.2078ZM40.5779 85.1294L51.3972 85.0511L51.39 84.0511L40.5707 84.1295L40.5779 85.1294ZM51.6149 84.9995L53.0108 84.3104L52.5681 83.4137L51.1723 84.1028L51.6149 84.9995ZM53.0109 84.3103C53.6558 83.9918 54.5395 83.2788 56.2485 81.6629C57.9749 80.0306 60.5896 77.4302 64.7126 73.2762L64.0028 72.5718C59.878 76.7277 57.2744 79.3168 55.5615 80.9363C53.8313 82.5722 53.0548 83.1733 52.5681 83.4137L53.0109 84.3103ZM64.7126 73.2762C69.0279 68.9283 71.5889 66.3199 73.1024 64.6869C73.8583 63.8713 74.3633 63.2879 74.6975 62.8464C75.0289 62.4088 75.2194 62.0763 75.3078 61.7645L74.3458 61.4917C74.3082 61.6243 74.2064 61.8385 73.9002 62.2428C73.597 62.6434 73.1195 63.1973 72.3689 64.0071C70.8695 65.625 68.3219 68.2201 64.0028 72.5718L64.7126 73.2762ZM75.3078 61.7644C75.61 60.6984 75.6817 59.7243 75.4772 58.7892C75.2728 57.854 74.8012 56.9988 74.0817 56.1564L73.3213 56.8058C73.9626 57.5568 74.3394 58.2669 74.5003 59.0027C74.6612 59.7386 74.6151 60.5414 74.3457 61.4917L75.3078 61.7644ZM74.0816 56.1564C72.4319 54.225 70.2824 53.4496 67.9095 53.9731L68.1249 54.9496C70.1102 54.5116 71.893 55.1337 73.3213 56.8059L74.0816 56.1564ZM26.7279 63.8805C26.5034 63.9825 26.207 64.194 25.8904 64.4438C25.5605 64.7039 25.1679 65.039 24.7394 65.4214C23.8816 66.1868 22.8644 67.1556 21.8903 68.1258C20.9164 69.0957 19.9798 70.0726 19.2843 70.8545C18.9374 71.2444 18.6442 71.5928 18.4352 71.8711C18.3314 72.0093 18.241 72.1398 18.1742 72.2554C18.1409 72.313 18.1082 72.376 18.0826 72.4407C18.0601 72.4976 18.0271 72.5945 18.0271 72.7091H19.0271C19.0271 72.7796 19.008 72.82 19.0124 72.8088C19.0137 72.8054 19.0211 72.7886 19.0402 72.7556C19.0781 72.6898 19.1417 72.5956 19.2348 72.4717C19.4195 72.2258 19.6917 71.9011 20.0314 71.5192C20.709 70.7574 21.6305 69.7959 22.5959 68.8344C23.5611 67.8732 24.5645 66.9176 25.4051 66.1675C25.8258 65.7922 26.2018 65.4718 26.5097 65.2289C26.8307 64.9756 27.041 64.8366 27.1417 64.7908L26.7279 63.8805ZM18.0271 72.7091C18.0271 72.9529 18.1151 73.1824 18.2168 73.3667C18.322 73.5574 18.4631 73.7384 18.6174 73.8946C18.7716 74.0507 18.9507 74.1938 19.1399 74.3008C19.3225 74.404 19.5519 74.4947 19.7971 74.4947V73.4947C19.7975 73.4947 19.7938 73.4947 19.7856 73.4932C19.7774 73.4918 19.7657 73.4891 19.7505 73.4842C19.7195 73.4743 19.6796 73.4571 19.632 73.4303C19.5359 73.3759 19.429 73.2933 19.3288 73.1918C19.2286 73.0904 19.1466 72.9819 19.0924 72.8837C19.0348 72.7792 19.0271 72.7203 19.0271 72.7091H18.0271ZM19.7971 74.4947C19.8844 74.4947 19.9531 74.4729 19.9856 74.4614C20.024 74.4479 20.0571 74.4321 20.0817 74.4193C20.131 74.3936 20.1797 74.3626 20.2231 74.3329C20.3117 74.2724 20.4185 74.1902 20.5368 74.0941C20.7756 73.9001 21.0917 73.6246 21.4605 73.2907C22.1996 72.6215 23.1683 71.7017 24.1893 70.692L23.4862 69.981C22.4728 70.9831 21.515 71.8924 20.7894 72.5494C20.4258 72.8785 20.1248 73.1404 19.9063 73.3179C19.796 73.4075 19.714 73.4697 19.6592 73.5071C19.631 73.5264 19.6193 73.5326 19.6204 73.5321C19.6209 73.5318 19.6328 73.5255 19.6532 73.5183C19.6676 73.5132 19.7215 73.4947 19.7971 73.4947V74.4947ZM24.1893 70.692C25.2035 69.689 26.1867 68.7462 26.9529 68.0359C27.3364 67.6805 27.6631 67.3855 27.9111 67.171C28.0354 67.0635 28.1368 66.979 28.2139 66.9181C28.3024 66.8484 28.3303 66.833 28.3194 66.8386L27.8628 65.9489C27.7757 65.9936 27.6771 66.0679 27.5947 66.1329C27.5008 66.2069 27.3868 66.3024 27.2569 66.4147C26.9967 66.6398 26.6606 66.9434 26.2731 67.3026C25.4975 68.0215 24.5064 68.9719 23.4862 69.981L24.1893 70.692ZM28.3195 66.8385C28.2863 66.8556 28.3021 66.8414 28.4426 66.8196C28.5611 66.8012 28.7281 66.7829 28.9493 66.7654C29.3905 66.7306 30.0183 66.7014 30.8456 66.6781C32.4985 66.6315 34.923 66.6091 38.1922 66.6091V65.6091C34.921 65.6091 32.485 65.6315 30.8174 65.6785C29.9845 65.7019 29.337 65.7317 28.8706 65.7685C28.638 65.7869 28.4431 65.8075 28.2893 65.8314C28.1576 65.8518 27.9909 65.8831 27.8627 65.949L28.3195 66.8385ZM38.1922 66.6091C43.3904 66.6091 46.0055 66.6187 47.4067 66.7921C48.1072 66.8788 48.4202 66.9987 48.5901 67.1189C48.7446 67.2282 48.832 67.3704 48.9855 67.7079L49.8958 67.2941C49.7406 66.9528 49.5621 66.5815 49.1676 66.3025C48.7885 66.0344 48.2696 65.8912 47.5295 65.7997C46.0496 65.6165 43.349 65.6091 38.1922 65.6091V66.6091ZM48.9855 67.708C49.4408 68.7094 49.3015 69.6616 48.6303 70.4147L49.3769 71.08C50.329 70.0117 50.5039 68.6313 49.8958 67.2941L48.9855 67.708ZM48.6303 70.4148L47.8902 71.2455L48.6369 71.9107L49.3769 71.0799L48.6303 70.4148ZM48.2584 71.0781L40.9529 71.1532L40.9632 72.1531L48.2687 72.0781L48.2584 71.0781ZM40.9529 71.1532C38.5809 71.1775 36.7187 71.2204 35.4204 71.2797C34.7723 71.3093 34.2575 71.3434 33.8874 71.3822C33.7035 71.4014 33.5454 71.4229 33.4206 71.4477C33.3586 71.46 33.2949 71.475 33.2359 71.4944C33.1905 71.5093 33.0923 71.5436 33.0033 71.6176L33.6424 72.3867C33.5802 72.4384 33.528 72.451 33.5476 72.4445C33.5537 72.4426 33.5743 72.4367 33.6153 72.4285C33.6966 72.4124 33.8201 72.3947 33.9917 72.3767C34.3326 72.341 34.8246 72.308 35.466 72.2787C36.7468 72.2201 38.5953 72.1774 40.9632 72.1531L40.9529 71.1532ZM33.0031 71.6178C32.6386 71.921 32.5105 72.4138 32.5046 72.8162C32.4986 73.2243 32.6146 73.7123 32.944 74.0425L33.6519 73.3363C33.5791 73.2633 33.5008 73.0796 33.5045 72.8309C33.5082 72.5764 33.5937 72.4273 33.6426 72.3865L33.0031 71.6178ZM32.944 74.0425C33.0739 74.1727 33.2479 74.2247 33.3404 74.2495C33.4598 74.2816 33.6044 74.3065 33.7681 74.3273C34.0975 74.3692 34.5598 74.401 35.1696 74.4254C36.3924 74.4742 38.2563 74.4947 40.941 74.4947V73.4947C38.2564 73.4947 36.4103 73.4741 35.2095 73.4262C34.6076 73.4021 34.1798 73.3716 33.8942 73.3353C33.7504 73.317 33.6563 73.2989 33.5999 73.2838C33.5166 73.2614 33.5777 73.2619 33.6519 73.3363L32.944 74.0425ZM40.941 74.4947H48.2793V73.4947H40.941V74.4947ZM48.5187 74.4336L49.7116 73.7829L49.2327 72.905L48.0398 73.5557L48.5187 74.4336ZM49.7115 73.7829C52.0099 72.5292 53.1669 69.947 52.5021 67.473L51.5363 67.7325C52.0755 69.7391 51.1453 71.8618 49.2327 72.905L49.7115 73.7829ZM52.5021 67.4731C52.2904 66.6849 51.9978 66.0266 51.5679 65.4577C51.1376 64.8883 50.5881 64.4327 49.8949 64.0256L49.3884 64.8878C49.9972 65.2454 50.4368 65.6196 50.77 66.0606C51.1036 66.5019 51.3488 67.0343 51.5363 67.7325L52.5021 67.4731ZM49.8949 64.0256L48.8104 63.3886L48.304 64.2509L49.3884 64.8878L49.8949 64.0256ZM48.5569 63.3197L38.3005 63.3253L38.3011 64.3253L48.5575 64.3197L48.5569 63.3197ZM38.3005 63.3253C33.4669 63.328 30.8729 63.3364 29.3583 63.4043C27.8268 63.4731 27.3334 63.6049 26.7277 63.8805L27.1419 64.7907C27.5834 64.5899 27.9333 64.4693 29.4031 64.4033C30.8897 64.3366 33.4552 64.328 38.3011 64.3253L38.3005 63.3253ZM11.3179 77.0782L9.16982 79.2424L9.87956 79.9469L12.0277 77.7827L11.3179 77.0782ZM9.17064 79.9477L15.6368 86.4322L16.3449 85.7261L9.87874 79.2416L9.17064 79.9477ZM15.6368 86.4322C17.7412 88.5424 19.408 90.1689 20.5928 91.2694C21.1843 91.8188 21.6615 92.2426 22.0157 92.5313C22.1917 92.6747 22.3462 92.7922 22.4743 92.8762C22.5378 92.9179 22.6048 92.958 22.6712 92.9894C22.7224 93.0136 22.8355 93.0638 22.9723 93.0638V92.0638C23.0673 92.0638 23.122 92.0964 23.0986 92.0853C23.0904 92.0815 23.0665 92.0687 23.023 92.0402C22.937 91.9837 22.813 91.8911 22.6474 91.7561C22.3183 91.4879 21.8597 91.0813 21.2734 90.5367C20.1026 89.4492 18.4463 87.8333 16.3449 85.7261L15.6368 86.4322ZM22.9723 93.0638C23.1104 93.0638 23.2336 93.0204 23.316 92.9855C23.4078 92.9467 23.5022 92.8951 23.5952 92.8379C23.7816 92.7232 23.9989 92.5636 24.2352 92.3726C24.7099 91.989 25.2972 91.4501 25.9286 90.8139L25.2188 90.1095C24.6038 90.7292 24.0442 91.2413 23.6067 91.5948C23.3869 91.7724 23.2068 91.9028 23.0714 91.9861C23.0034 92.0279 22.9558 92.0521 22.9265 92.0645C22.8879 92.0808 22.9112 92.0638 22.9723 92.0638V93.0638ZM25.9286 90.8139L28.015 88.7118L27.3053 88.0073L25.2188 90.1095L25.9286 90.8139ZM28.014 88.0063L21.4788 81.4598L20.7711 82.1663L27.3063 88.7128L28.014 88.0063ZM21.4788 81.4598C19.6791 79.6571 17.9985 78.017 16.74 76.8263C16.1113 76.2315 15.5849 75.746 15.2004 75.4077C15.009 75.2393 14.8473 75.1025 14.7231 75.0057C14.6621 74.9582 14.6016 74.9136 14.5466 74.8786C14.5197 74.8615 14.4843 74.8404 14.4446 74.8218C14.4219 74.8113 14.328 74.7665 14.2052 74.7665V75.7665C14.1413 75.7665 14.0934 75.7536 14.072 75.7471C14.0476 75.7397 14.0303 75.732 14.0223 75.7283C14.0069 75.7211 14.0015 75.717 14.0099 75.7223C14.0255 75.7323 14.0571 75.7545 14.1085 75.7945C14.2091 75.8729 14.3534 75.9944 14.5398 76.1584C14.911 76.485 15.4273 76.961 16.0528 77.5527C17.3026 78.7352 18.9762 80.3684 20.7711 82.1663L21.4788 81.4598ZM14.2052 74.7665C14.1069 74.7665 14.0263 74.7923 13.9828 74.8083C13.9327 74.8266 13.8864 74.8493 13.8469 74.8706C13.7678 74.9132 13.6827 74.9688 13.5973 75.0293C13.4247 75.1516 13.2126 75.3214 12.9779 75.522C12.5063 75.9249 11.916 76.4756 11.3179 77.0783L12.0277 77.7827C12.6108 77.1951 13.181 76.6638 13.6275 76.2823C13.8517 76.0907 14.038 75.9426 14.1755 75.8452C14.2452 75.7958 14.293 75.7661 14.3214 75.7508C14.3356 75.7431 14.3365 75.7437 14.327 75.7472C14.324 75.7483 14.2771 75.7665 14.2052 75.7665V74.7665Z" fill="white" mask="url(#path-1-inside-1_2426_4041)"/>
<path d="M33.6704 32.3742L37.8174 19.6109L41.9645 32.3742C42.2991 33.4042 43.259 34.1016 44.3421 34.1016H57.7622L46.9051 41.9898C46.0289 42.6264 45.6622 43.7548 45.9969 44.7848L50.144 57.5481L39.2869 49.66C38.4107 49.0234 37.2242 49.0234 36.348 49.66L25.4909 57.5481L29.6379 44.7848C29.9726 43.7548 29.606 42.6264 28.7298 41.9898L17.8727 34.1016H31.2928C32.3758 34.1016 33.3357 33.4042 33.6704 32.3742Z" stroke="#FDC114" stroke-width="3"/>
</svg>
