<svg width="92" height="87" viewBox="0 0 92 87" fill="none" xmlns="http://www.w3.org/2000/svg">
<mask id="path-1-inside-1_2864_5026" fill="white">
<path fill-rule="evenodd" clip-rule="evenodd" d="M5.94654 0.452905C3.67498 1.18948 1.1337 3.93461 0.46443 6.37519C0.0400386 7.92112 -0.065829 15.7778 0.0358961 38.1722L0.171222 67.9153L1.55211 69.8895C2.31159 70.9752 3.84575 72.3491 4.96151 72.942L6.99048 74.0207L32.5792 74.029L58.1683 74.0369L65.5261 80.5187C69.5726 84.0834 73.208 87 73.6043 87C75.167 87 75.4294 85.9862 75.4294 79.9541V74.0207L80.1474 74.0105C85.2806 73.9994 87.6318 73.292 89.5613 71.1782C92.0382 68.4651 92 69.0056 92 36.8182V7.00283L90.9643 4.94051C90.359 3.73528 89.0996 2.29829 87.9328 1.48152L85.9374 0.0848491L46.7365 0.0111449C19.0447 -0.041236 7.0692 0.0885569 5.94654 0.452905ZM7.07564 4.00368C6.56931 4.21459 5.63722 4.94839 5.00431 5.63398L3.85358 6.88045L3.71411 36.3945C3.58476 63.7814 3.63264 66.0198 4.38107 67.4508C5.918 70.3906 5.11248 70.3114 33.6346 70.3197L59.5492 70.3276L65.533 75.606L71.5169 80.8844L71.747 76.0436C71.9187 72.433 72.1525 71.0915 72.6676 70.7647C73.0473 70.5237 75.8022 70.3234 78.7895 70.3192C84.8695 70.3114 86.4553 69.8135 87.6193 67.5463C88.6702 65.4993 88.6702 8.37447 87.6193 6.32744C86.1363 3.43908 87.9489 3.55867 46.1086 3.59066C25.1468 3.60688 7.58196 3.79276 7.07564 4.00368ZM44.1293 9.12402V10.9782H46.7512H49.373L47.7868 12.6456C45.6686 14.8729 41.3271 17.9578 37.8219 19.7267C32.7292 22.2967 27.5371 23.5672 21.023 23.837L15.1773 24.079L14.8901 25.3973C14.7317 26.1228 14.7336 26.9298 14.8937 27.1912C15.0608 27.4629 17.0907 27.6631 19.6458 27.6599C30.2768 27.6455 41.5416 23.4022 48.7212 16.7086L51.4941 14.1234V16.2589V18.395H53.3352H55.1764V13.3887C55.1764 10.1128 54.9854 8.18998 54.6241 7.82609C54.2627 7.46221 52.3534 7.26983 49.1005 7.26983H44.1293V9.12402ZM66.9466 11.7064C66.3119 12.3461 66.2235 14.841 66.2235 32.1025V51.7704H64.3823H62.5411V46.6876C62.5411 40.7445 62.4661 40.6453 57.9686 40.6453H55.1764V33.7847C55.1764 29.0668 55.0038 26.7504 54.6241 26.368C53.8719 25.6106 45.4338 25.6106 44.6817 26.368C44.302 26.7504 44.1293 29.0668 44.1293 33.7847V40.6453H42.2882H40.447V37.4931C40.447 35.6593 40.2159 34.1083 39.8946 33.7847C39.1425 33.0273 30.7044 33.0273 29.9523 33.7847C29.5619 34.1778 29.3999 36.8956 29.3999 43.0557V51.7704H27.5587H25.7176V46.9361C25.7176 40.7556 25.6237 40.6453 20.3611 40.6453C14.2512 40.6453 14.6705 39.79 14.6705 52.2502V62.8955H16.5117H18.3529V53.6246V44.3536H20.194H22.0352V53.6246V62.8955H23.8764H25.7176V59.1872V55.4788H27.5587H29.3999V59.1872V62.8955H31.2411H33.0823V49.9162V36.9369H34.9235H36.7646V49.9162V62.8955H38.6058H40.447V53.6246V44.3536H42.2882H44.1293V53.6246V62.8955H45.9705H47.8117V46.2078V29.5201H49.6529H51.4941V46.2078V62.8955H53.3352H55.1764V53.6246V44.3536H57.0176H58.8588V53.6246V62.8955H60.6999H62.5411V59.1872V55.4788H64.3823H66.2235V59.1872V62.8955H68.0647H69.9058V38.7911V14.6866H71.747H73.5882V38.7911V62.8955H75.4294H77.2705V37.4931C77.2705 18.3537 77.1343 11.9535 76.7182 11.5345C75.8399 10.65 67.8561 10.7905 66.9466 11.7064Z"/>
</mask>
<path fill-rule="evenodd" clip-rule="evenodd" d="M5.94654 0.452905C3.67498 1.18948 1.1337 3.93461 0.46443 6.37519C0.0400386 7.92112 -0.065829 15.7778 0.0358961 38.1722L0.171222 67.9153L1.55211 69.8895C2.31159 70.9752 3.84575 72.3491 4.96151 72.942L6.99048 74.0207L32.5792 74.029L58.1683 74.0369L65.5261 80.5187C69.5726 84.0834 73.208 87 73.6043 87C75.167 87 75.4294 85.9862 75.4294 79.9541V74.0207L80.1474 74.0105C85.2806 73.9994 87.6318 73.292 89.5613 71.1782C92.0382 68.4651 92 69.0056 92 36.8182V7.00283L90.9643 4.94051C90.359 3.73528 89.0996 2.29829 87.9328 1.48152L85.9374 0.0848491L46.7365 0.0111449C19.0447 -0.041236 7.0692 0.0885569 5.94654 0.452905ZM7.07564 4.00368C6.56931 4.21459 5.63722 4.94839 5.00431 5.63398L3.85358 6.88045L3.71411 36.3945C3.58476 63.7814 3.63264 66.0198 4.38107 67.4508C5.918 70.3906 5.11248 70.3114 33.6346 70.3197L59.5492 70.3276L65.533 75.606L71.5169 80.8844L71.747 76.0436C71.9187 72.433 72.1525 71.0915 72.6676 70.7647C73.0473 70.5237 75.8022 70.3234 78.7895 70.3192C84.8695 70.3114 86.4553 69.8135 87.6193 67.5463C88.6702 65.4993 88.6702 8.37447 87.6193 6.32744C86.1363 3.43908 87.9489 3.55867 46.1086 3.59066C25.1468 3.60688 7.58196 3.79276 7.07564 4.00368ZM44.1293 9.12402V10.9782H46.7512H49.373L47.7868 12.6456C45.6686 14.8729 41.3271 17.9578 37.8219 19.7267C32.7292 22.2967 27.5371 23.5672 21.023 23.837L15.1773 24.079L14.8901 25.3973C14.7317 26.1228 14.7336 26.9298 14.8937 27.1912C15.0608 27.4629 17.0907 27.6631 19.6458 27.6599C30.2768 27.6455 41.5416 23.4022 48.7212 16.7086L51.4941 14.1234V16.2589V18.395H53.3352H55.1764V13.3887C55.1764 10.1128 54.9854 8.18998 54.6241 7.82609C54.2627 7.46221 52.3534 7.26983 49.1005 7.26983H44.1293V9.12402ZM66.9466 11.7064C66.3119 12.3461 66.2235 14.841 66.2235 32.1025V51.7704H64.3823H62.5411V46.6876C62.5411 40.7445 62.4661 40.6453 57.9686 40.6453H55.1764V33.7847C55.1764 29.0668 55.0038 26.7504 54.6241 26.368C53.8719 25.6106 45.4338 25.6106 44.6817 26.368C44.302 26.7504 44.1293 29.0668 44.1293 33.7847V40.6453H42.2882H40.447V37.4931C40.447 35.6593 40.2159 34.1083 39.8946 33.7847C39.1425 33.0273 30.7044 33.0273 29.9523 33.7847C29.5619 34.1778 29.3999 36.8956 29.3999 43.0557V51.7704H27.5587H25.7176V46.9361C25.7176 40.7556 25.6237 40.6453 20.3611 40.6453C14.2512 40.6453 14.6705 39.79 14.6705 52.2502V62.8955H16.5117H18.3529V53.6246V44.3536H20.194H22.0352V53.6246V62.8955H23.8764H25.7176V59.1872V55.4788H27.5587H29.3999V59.1872V62.8955H31.2411H33.0823V49.9162V36.9369H34.9235H36.7646V49.9162V62.8955H38.6058H40.447V53.6246V44.3536H42.2882H44.1293V53.6246V62.8955H45.9705H47.8117V46.2078V29.5201H49.6529H51.4941V46.2078V62.8955H53.3352H55.1764V53.6246V44.3536H57.0176H58.8588V53.6246V62.8955H60.6999H62.5411V59.1872V55.4788H64.3823H66.2235V59.1872V62.8955H68.0647H69.9058V38.7911V14.6866H71.747H73.5882V38.7911V62.8955H75.4294H77.2705V37.4931C77.2705 18.3537 77.1343 11.9535 76.7182 11.5345C75.8399 10.65 67.8561 10.7905 66.9466 11.7064Z" fill="#249DAE" stroke="white" stroke-width="1.2" mask="url(#path-1-inside-1_2864_5026)"/>
<path d="M66.0591 51.6175H65.759H63.9179H62.0767H61.7767V51.3175V46.2347C61.7767 44.7442 61.7717 43.6391 61.6959 42.8106C61.6196 41.9757 61.4746 41.4789 61.2378 41.1659C61.0134 40.8694 60.6708 40.6931 60.0687 40.597C59.4578 40.4994 58.6365 40.4923 57.5041 40.4923H54.712H54.412V40.1923V33.3318C54.412 30.9746 54.3688 29.2251 54.279 28.0199C54.2341 27.4165 54.178 26.9579 54.1121 26.6312C54.0791 26.4677 54.045 26.3444 54.0116 26.2557C53.995 26.2117 53.9799 26.1797 53.9673 26.1572C53.9562 26.1377 53.949 26.129 53.9472 26.127L53.9467 26.1265C53.9469 26.1266 53.9389 26.1188 53.9159 26.1054C53.8936 26.0924 53.8625 26.0772 53.8206 26.0604C53.7364 26.0266 53.6227 25.9922 53.4791 25.9587C53.1923 25.8917 52.8119 25.8341 52.3635 25.7874C51.4683 25.6941 50.3305 25.647 49.1884 25.647C48.0464 25.647 46.9086 25.6941 46.0134 25.7874C45.565 25.8341 45.1846 25.8917 44.8978 25.9587C44.7541 25.9922 44.6405 26.0266 44.5563 26.0604C44.5144 26.0772 44.4832 26.0924 44.461 26.1054C44.438 26.1188 44.43 26.1266 44.4301 26.1265C44.4303 26.1264 44.4226 26.1343 44.4096 26.1572C44.3969 26.1797 44.3818 26.2117 44.3653 26.2557C44.3319 26.3444 44.2978 26.4677 44.2648 26.6312C44.1989 26.9579 44.1428 27.4165 44.0979 28.0199C44.0081 29.2251 43.9649 30.9746 43.9649 33.3318V40.1923V40.4923H43.6649H41.8237H39.9826H39.6826V40.1923V37.0402C39.6826 36.1344 39.6254 35.3034 39.5301 34.6639C39.4824 34.3436 39.4261 34.0777 39.3651 33.8773C39.2997 33.6627 39.2419 33.5679 39.2173 33.5432C39.2175 33.5434 39.2095 33.5356 39.1865 33.5222C39.1642 33.5092 39.133 33.4939 39.0912 33.4771C39.007 33.4434 38.8933 33.409 38.7497 33.3755C38.4628 33.3085 38.0825 33.2509 37.6341 33.2042C36.7389 33.1109 35.6011 33.0638 34.459 33.0638C33.317 33.0638 32.1791 33.1109 31.284 33.2042C30.8356 33.2509 30.4552 33.3085 30.1683 33.3755C30.0247 33.409 29.911 33.4434 29.8268 33.4771C29.785 33.4939 29.7538 33.5092 29.7315 33.5222C29.7095 33.535 29.7012 33.5427 29.7007 33.5432L29.7007 33.5432L29.7006 33.5434C29.6987 33.5459 29.6721 33.5801 29.6363 33.6862C29.6014 33.7899 29.5662 33.9357 29.5325 34.131C29.4652 34.521 29.4092 35.0771 29.3648 35.8225C29.276 37.3116 29.2355 39.5236 29.2355 42.6028V51.3175V51.6175H28.9355H27.0943H25.2531H24.9531V51.3175V46.4831C24.9531 44.9329 24.9469 43.7844 24.8578 42.9237C24.7683 42.0583 24.5992 41.5425 24.3199 41.2146C24.0488 40.8961 23.6305 40.7058 22.9114 40.6031C22.1882 40.4999 21.2194 40.4923 19.8967 40.4923C19.4889 40.4923 19.1138 40.4887 18.768 40.4854C17.7962 40.476 17.0558 40.4689 16.4714 40.5505C16.084 40.6046 15.7939 40.6951 15.5686 40.8341C15.3484 40.97 15.1723 41.1632 15.0295 41.4543C14.7323 42.0605 14.5922 43.0589 14.5358 44.7374C14.4944 45.9722 14.498 47.5411 14.5027 49.5421C14.5043 50.2399 14.5061 50.9902 14.5061 51.7973V62.1426H16.0472H17.5884V53.1717V43.9007V43.6007H17.8884H19.7296H21.5708H21.8708V43.9007V53.1717V62.1426H23.412H24.9531V58.7342V55.0259V54.7259H25.2531H27.0943H28.9355H29.2355V55.0259V58.7342V62.1426H30.7767H32.3178V49.4633V36.484V36.184H32.6178H34.459H36.3002H36.6002V36.484V49.4633V62.1426H38.1414H39.6826V53.1717V43.9007V43.6007H39.9826H41.8237H43.6649H43.9649V43.9007V53.1717V62.1426H45.5061H47.0473V45.7549V29.0672V28.7672H47.3473H49.1884H51.0296H51.3296V29.0672V45.7549V62.1426H52.8708H54.412V53.1717V43.9007V43.6007H54.712H56.5532H58.3943H58.6943V43.9007V53.1717V62.1426H60.2355H61.7767V58.7342V55.0259V54.7259H62.0767H63.9179H65.759H66.0591V55.0259V58.7342V62.1426H67.6002H69.1414V38.3382V14.2337V13.9337H69.4414H71.2826H73.1238H73.4238V14.2337V38.3382V62.1426H74.9649H76.5061V37.0402C76.5061 27.4703 76.472 21.0884 76.386 17.0471C76.343 15.0257 76.2871 13.5949 76.2164 12.6452C76.181 12.1694 76.1424 11.8215 76.1013 11.5833C76.0807 11.4637 76.0607 11.3792 76.0428 11.3233C76.036 11.3021 76.0306 11.2885 76.0272 11.2807C75.9684 11.2325 75.821 11.1599 75.5436 11.0878C75.259 11.0139 74.8874 10.9524 74.4517 10.9047C73.5817 10.8096 72.4863 10.773 71.385 10.7923C70.2837 10.8117 69.1861 10.8869 68.3119 11.0128C67.8742 11.0758 67.4996 11.1506 67.2113 11.2348C66.9075 11.3237 66.7503 11.4094 66.6951 11.4648L66.0591 51.6175ZM66.0591 51.6175V51.3175M66.0591 51.6175V51.3175M66.0591 51.3175V31.6496C66.0591 23.0167 66.0812 18.0838 66.1824 15.229M66.0591 51.3175L66.1824 15.229M66.1824 15.229C66.2331 13.7996 66.3032 12.9048 66.3974 12.3315M66.1824 15.229L66.3974 12.3315M66.3974 12.3315C66.493 11.7503 66.6058 11.5549 66.695 11.4649L66.3974 12.3315Z" fill="#FDD304" stroke="white" stroke-width="0.6"/>
</svg>
