<svg width="119" height="119" viewBox="0 0 119 119" fill="none" xmlns="http://www.w3.org/2000/svg">
<path fill-rule="evenodd" clip-rule="evenodd" d="M22.3192 1.22588C9.16278 5.12195 0 17.2963 0 30.8802C0 45.1104 11.3239 58.5924 25.2003 60.8835L28.8004 61.4779V89.5711C28.8004 110.71 28.9588 117.823 29.4404 118.305C30.3673 119.232 117.368 119.232 118.295 118.305C119.273 117.325 119.215 44.6093 118.235 43.7957C117.842 43.4691 114.743 43.1479 111.168 43.0631L104.801 42.9121L104.535 39.7107C104.273 36.5686 104.238 36.5093 102.668 36.5093C101.098 36.5093 101.063 36.5686 100.801 39.7107L100.535 42.9121L88.4011 43.0556L76.2676 43.1991V40.6231C76.2676 37.5092 75.3657 36.0718 73.571 36.3252C72.3678 36.4949 72.2553 36.766 72.1086 39.8441L71.9502 43.1789H65.5133C59.0807 43.1789 59.0765 43.1783 59.4573 41.9783C63.4781 29.3121 60.8456 17.3758 52.1644 8.91505C44.0533 1.00979 32.8207 -1.88373 22.3192 1.22588ZM22.8259 5.22653C14.2146 8.07256 7.83316 14.5489 5.24753 23.0662C4.32699 26.0984 4.17392 27.7018 4.37552 32.2264C4.59312 37.1213 4.82033 38.1351 6.48968 41.6459C10.5436 50.1733 16.9735 54.9967 27.3337 57.282L28.8004 57.6053V51.0324C28.8004 46.6315 29.0121 44.2476 29.4404 43.8191C29.8686 43.3907 32.2436 43.1789 36.6149 43.1789H43.1499L43.3083 39.8441C43.4661 36.5296 43.4768 36.5093 45.0672 36.5093C46.6374 36.5093 46.672 36.5686 46.9339 39.7107L47.2006 42.9121H50.9297H54.6593L55.877 39.4935C60.4626 26.6229 54.4359 12.5155 41.7845 6.50495C37.9519 4.68443 37.2997 4.54624 31.7759 4.38937C27.0862 4.25598 25.2392 4.42886 22.8259 5.22653ZM30.419 18.0662C30.1156 18.6339 29.867 21.4874 29.867 24.407V29.7155L26.0003 31.2804C22.4344 32.7237 22.1336 32.967 22.1336 34.4103C22.1336 35.6161 22.4029 36.0142 23.3048 36.1422C24.5987 36.3268 33.0953 32.7808 33.7225 31.7948C34.4058 30.7202 34.2063 18.3874 33.4937 17.6746C32.5327 16.7131 31.0415 16.903 30.419 18.0662ZM32.7956 48.0946C32.6297 48.7658 32.5631 52.7963 32.6473 57.0515L32.8004 64.7882L73.7342 64.9247L114.668 65.0613V55.9678V46.8738L109.735 47.0269L104.801 47.1806L104.636 50.0992C104.449 53.3987 103.798 54.5069 102.182 54.2759C101.216 54.1382 101.033 53.6559 100.801 50.6487L100.535 47.1806L88.4011 47.0371L76.2676 46.8935V49.9983C76.2676 53.3475 75.6777 54.3837 73.771 54.3837C72.4313 54.3837 72.1081 53.5663 71.875 49.5816L71.7342 47.1806L59.7719 47.0365C50.558 46.9261 47.711 47.0483 47.3798 47.5701C47.1435 47.943 46.9467 49.516 46.9419 51.0655C46.936 53.1773 46.7152 53.9675 46.0614 54.2188C44.3904 54.8602 43.4795 53.6218 43.2005 50.3275L42.9339 47.1806L38.0154 47.0274C33.2761 46.8797 33.0863 46.9186 32.7956 48.0946ZM32.8895 69.1458C32.6937 69.341 32.5337 79.6655 32.5337 92.089V114.676H73.6009H114.668V91.7331V68.7899H73.9566C51.5649 68.7899 33.0847 68.95 32.8895 69.1458ZM72.4329 77.1935C71.9929 77.7073 70.8366 79.5678 69.8633 81.3286C68.8899 83.0894 68.0366 84.6057 67.9672 84.6986C67.8979 84.7914 65.7485 85.3036 63.1912 85.8367C59.0445 86.7005 57.6348 87.4118 57.6087 88.6512C57.6044 88.8641 59.0573 90.731 60.8376 92.8002L64.0744 96.5624L63.5464 100.931C62.9938 105.505 63.3485 107.206 64.8547 107.206C65.3032 107.206 67.4867 106.367 69.7065 105.341L73.7422 103.476L77.9524 105.377C83.9381 108.081 84.001 108.041 84.001 101.582V96.2518L87.0677 92.6279C88.7542 90.635 90.1344 88.7835 90.1344 88.5136C90.1344 87.5606 87.6928 86.4556 84.1568 85.8084C82.1888 85.4488 80.3685 85.0139 80.1109 84.8421C79.8532 84.6703 78.7402 82.9058 77.6378 80.9199C75.9503 77.8818 74.4937 76.2598 73.4521 76.2598C73.3316 76.2598 72.8729 76.6797 72.4329 77.1935ZM72.0318 85.5432C70.2275 88.6982 70.0633 88.8108 66.4691 89.3497C65.1117 89.5535 64.0008 89.8357 64.0008 89.9777C64.0008 90.1196 64.9635 91.3297 66.1405 92.6674C68.2798 95.0988 68.2803 95.0999 67.932 98.5024L67.5832 101.906L70.7998 100.51C73.866 99.18 74.0937 99.1544 75.6719 99.9707C76.5823 100.442 77.9572 101.067 78.7274 101.36L80.1274 101.893L79.7583 98.4442L79.3892 94.9958L81.5621 92.638C82.7568 91.3409 83.7344 90.1537 83.7344 90.0001C83.7344 89.8459 82.6234 89.5535 81.2661 89.3497C77.6362 88.8054 77.4111 88.6517 75.6479 85.5267C74.7593 83.9511 73.9529 82.6625 73.8558 82.6625C73.7588 82.6625 72.938 83.9591 72.0318 85.5432Z" fill="#058FA2"/>
<path fill-rule="evenodd" clip-rule="evenodd" d="M30.419 18.0662C30.1156 18.6339 29.867 21.4874 29.867 24.407V29.7155L26.0003 31.2804C22.4344 32.7237 22.1336 32.967 22.1336 34.4103C22.1336 35.6161 22.4029 36.0142 23.3048 36.1422C24.5987 36.3268 33.0953 32.7808 33.7225 31.7948C34.4058 30.7202 34.2063 18.3874 33.4937 17.6746C32.5327 16.7131 31.0415 16.903 30.419 18.0662ZM72.4329 77.1935C71.9929 77.7073 70.8366 79.5678 69.8633 81.3286C68.8899 83.0894 68.0366 84.6057 67.9672 84.6986C67.8979 84.7914 65.7485 85.3036 63.1912 85.8367C59.0445 86.7005 57.6348 87.4117 57.6087 88.6512C57.6044 88.8641 59.0573 90.731 60.8375 92.8002L64.0744 96.5623L63.5464 100.931C62.9938 105.505 63.3485 107.206 64.8547 107.206C65.3032 107.206 67.4867 106.367 69.7065 105.341L73.7422 103.476L77.9524 105.377C83.9381 108.081 84.001 108.041 84.001 101.582V96.2518L87.0677 92.6279C88.7542 90.635 90.1344 88.7835 90.1344 88.5136C90.1344 87.5606 87.6928 86.4556 84.1568 85.8084C82.1887 85.4488 80.3685 85.0139 80.1108 84.8421C79.8532 84.6703 78.7402 82.9058 77.6377 80.9199C75.9503 77.8818 74.4937 76.2598 73.4521 76.2598C73.3316 76.2598 72.8729 76.6797 72.4329 77.1935ZM72.0318 85.5432C70.2275 88.6982 70.0633 88.8108 66.4691 89.3496C65.1117 89.5535 64.0008 89.8357 64.0008 89.9777C64.0008 90.1196 64.9635 91.3297 66.1405 92.6673C68.2798 95.0988 68.2803 95.0999 67.932 98.5024L67.5832 101.906L70.7998 100.51C73.866 99.18 74.0937 99.1544 75.6719 99.9707C76.5823 100.442 77.9572 101.067 78.7274 101.36L80.1274 101.893L79.7583 98.4442L79.3892 94.9958L81.5621 92.638C82.7567 91.3409 83.7344 90.1537 83.7344 90.0001C83.7344 89.8459 82.6234 89.5535 81.2661 89.3496C77.6361 88.8054 77.4111 88.6517 75.6479 85.5267C74.7593 83.9511 73.9529 82.6625 73.8558 82.6625C73.7588 82.6625 72.938 83.9591 72.0318 85.5432Z" fill="#FDD304"/>
<rect x="33" y="65" width="82" height="4" fill="#FDD304"/>
</svg>
