<svg width="27" height="30" viewBox="0 0 27 30" fill="none" xmlns="http://www.w3.org/2000/svg">
<path fill-rule="evenodd" clip-rule="evenodd" d="M7.27617 0.111125C6.71169 0.383344 6.58463 0.695988 6.58463 1.81295V2.65708L5.69766 2.69264C4.65284 2.73447 3.97796 2.89526 3.20037 3.28748C2.33986 3.72158 1.50689 4.44134 0.995512 5.19271C0.692498 5.63793 0.281125 6.55605 0.135361 7.11246L0 7.62918V16.3526V25.076L0.16657 25.6787C0.745176 27.7721 2.2505 29.2726 4.35969 29.8581L4.87082 30H13.5H22.1292L22.6277 29.8655C23.724 29.5698 24.5084 29.112 25.3151 28.2971C26.1324 27.4713 26.5505 26.7393 26.8611 25.5898L27 25.076V16.3526V7.62918L26.837 7.04C26.2661 4.97648 24.7538 3.44055 22.7431 2.88201C22.3176 2.76383 21.9838 2.71994 21.3023 2.69264L20.4154 2.65708V1.81295C20.4154 0.694954 20.286 0.377143 19.7238 0.114894C19.1714 -0.142796 18.5124 0.0914284 18.2504 0.638662C18.1471 0.854407 18.1303 1.0141 18.1303 1.78213V2.67477H16.3906H14.6508L14.6317 1.70754L14.6125 0.740365L14.4286 0.50693C14.2069 0.225593 13.7937 0 13.5 0C13.2062 0 12.7931 0.225592 12.5714 0.506991L12.3875 0.740486L12.3672 1.7076L12.3469 2.67477H10.6083H8.86971V1.78213C8.86971 1.00857 8.85335 0.85538 8.74734 0.63386C8.49478 0.106444 7.79879 -0.140851 7.27617 0.111125ZM5.176 5.04924C4.44724 5.17258 3.82263 5.49064 3.31174 5.99866C2.91341 6.39477 2.64973 6.82657 2.45814 7.39647C2.31821 7.81283 2.29741 7.97495 2.29163 8.69301L2.28508 9.51368L13.5239 9.52906L24.7627 9.54438L24.7293 8.67799C24.7009 7.93957 24.6717 7.74419 24.5321 7.35562C24.3202 6.76638 24.0666 6.37416 23.6225 5.94894C22.9708 5.32492 22.2683 5.05508 21.1586 5.00237L20.4285 4.96766L20.4037 5.69052C20.3747 6.53732 20.2766 6.76827 19.8353 7.02967C19.6069 7.16505 19.5159 7.18371 19.1879 7.16261C18.887 7.14322 18.7601 7.10249 18.5884 6.97015C18.2353 6.69781 18.1642 6.50292 18.1303 5.71429L18.1002 5.0152L16.3714 4.99909L14.6425 4.98292V5.62413C14.6425 6.50097 14.5104 6.80954 14.0286 7.05812C13.5273 7.31678 12.8599 7.14359 12.553 6.67526C12.3999 6.4417 12.386 6.36918 12.3674 5.70383L12.3474 4.9848H10.6085H8.86971V5.65593C8.86971 6.42924 8.78035 6.68578 8.41203 6.96973C8.24035 7.10213 8.11311 7.14322 7.81521 7.16237C7.35428 7.19204 7.03708 7.03988 6.78091 6.66626C6.62637 6.44085 6.61319 6.37331 6.59335 5.70432L6.57194 4.9848L6.02208 4.99198C5.71961 4.99587 5.3389 5.02164 5.176 5.04924ZM2.26824 18.3435L2.28508 24.8328L2.45369 25.3191C2.90181 26.6116 3.8773 27.4381 5.21322 27.6573C5.45797 27.6974 8.41287 27.7196 13.5476 27.7199C20.5582 27.7203 21.5579 27.709 21.9663 27.6244C23.2506 27.3587 24.2024 26.4651 24.616 25.1368C24.6991 24.8698 24.7129 24.0419 24.7297 18.3435L24.7486 11.8541H13.5H2.2514L2.26824 18.3435ZM6.0655 14.8798C5.82268 15.0786 5.8029 15.2035 5.8029 16.5356V17.8209L5.97307 17.9929C6.19352 18.2158 6.51037 18.2564 7.81112 18.2283L8.80735 18.2067L9.00387 18.008L9.20045 17.8092V16.468V15.1268L9.00405 14.9494L8.80765 14.772L7.50071 14.7734C6.35324 14.7746 6.17813 14.7875 6.0655 14.8798ZM11.992 14.9497L11.8163 15.1274V16.4613C11.8163 18.2791 11.7758 18.2364 13.5 18.2364C14.6016 18.2364 14.8796 18.186 15.0608 17.9533C15.1762 17.8049 15.1837 17.713 15.1837 16.4613V15.1274L15.008 14.9497L14.8322 14.772H13.5H12.1678L11.992 14.9497ZM17.996 14.9494L17.7996 15.1268V16.468V17.8092L17.995 18.0069L18.1905 18.2045L19.2429 18.2277C20.539 18.2562 20.8004 18.2219 21.0265 17.9934L21.1971 17.8209V16.5356C21.1971 14.6803 21.2886 14.7753 19.4993 14.7734L18.1923 14.772L17.996 14.9494ZM6.18703 20.6067C6.11721 20.6352 6.00218 20.7329 5.93146 20.8238C5.80921 20.981 5.8029 21.053 5.8029 22.2939V23.5988L6.00735 23.8055L6.2118 24.0122H7.45356C9.26737 24.0122 9.23051 24.0481 9.23051 22.2756C9.23051 20.5272 9.24873 20.545 7.47353 20.5509C6.83581 20.5531 6.2569 20.5782 6.18703 20.6067ZM12.2004 20.6049C12.1306 20.6344 12.0155 20.7329 11.9448 20.8238C11.8226 20.9809 11.8163 21.053 11.8163 22.2919C11.8163 23.0691 11.8412 23.6418 11.8782 23.7115C12.0173 23.9743 12.2213 24.0122 13.5 24.0122C14.7787 24.0122 14.9827 23.9743 15.1218 23.7115C15.1588 23.6418 15.1837 23.0668 15.1837 22.2846V20.9746L15.0084 20.776L14.833 20.5775L13.5802 20.5644C12.8911 20.5572 12.2703 20.5754 12.2004 20.6049ZM18.1496 20.6433C17.8142 20.8138 17.7695 21.0055 17.7695 22.2756C17.7695 24.0613 17.7204 24.0122 19.5027 24.0122H20.7882L20.9926 23.8055L21.1971 23.5988V22.2867V20.9746L21.0218 20.776L20.8464 20.5775L19.5936 20.5619C18.5441 20.5488 18.3097 20.562 18.1496 20.6433Z" fill="white"/>
</svg>
