<svg width="80" height="87" viewBox="0 0 80 87" fill="none" xmlns="http://www.w3.org/2000/svg">
<mask id="path-1-outside-1_2426_4028" maskUnits="userSpaceOnUse" x="1" y="0" width="77" height="87" fill="black">
<rect fill="white" x="1" width="77" height="87"/>
<path fill-rule="evenodd" clip-rule="evenodd" d="M51.1017 25.5823C49.4062 26.0882 47.0812 27.5273 45.7956 28.8665C45.6304 29.0386 45.4102 29.1791 45.3055 29.1791C45.201 29.1791 43.5193 28.9448 41.5684 28.6585C39.6174 28.3722 37.8207 28.1379 37.5757 28.1379H37.1302L28.3127 36.9228C21.8657 43.346 19.4748 45.7806 19.4196 45.9789C19.378 46.1281 19.3637 46.3623 19.3877 46.4995C19.4209 46.6888 21.1959 48.5112 26.7562 54.0648C30.7848 58.0885 34.1951 61.4408 34.3346 61.5144C34.4999 61.6015 34.7099 61.6317 34.9376 61.6013C35.2665 61.5574 35.8069 61.0366 44.1087 52.7636C51.1682 45.7284 52.9405 43.9181 52.9814 43.7004C53.0096 43.5508 52.9118 42.6138 52.7641 41.6181C52.6164 40.6223 52.3589 38.8731 52.192 37.7307L51.8885 35.6536L52.4382 35.0843C53.8844 33.5867 55.0589 31.6316 55.5948 29.8298C55.8125 29.0978 55.815 27.7093 55.5995 27.1835C55.3203 26.5023 54.8736 26.009 54.2509 25.6941C53.728 25.4295 53.6088 25.4047 52.762 25.384C51.9851 25.365 51.7264 25.3959 51.1017 25.5823ZM51.7982 27.4894C51.0787 27.6848 49.6133 28.4196 48.8334 28.9761C48.2525 29.3906 48.0218 29.6129 48.1724 29.6129C48.1894 29.6129 48.728 29.6921 49.3695 29.7889C51.0417 30.0413 51.087 30.0867 51.3152 31.7386C51.5011 33.0852 51.5041 33.0931 51.7226 32.8226C52.0492 32.4184 52.8205 31.2199 53.0624 30.7408C53.7303 29.418 53.9174 28.1234 53.509 27.6503C53.3364 27.4504 53.2243 27.4092 52.7908 27.3863C52.5082 27.3715 52.0615 27.4178 51.7982 27.4894ZM29.8595 38.2449L21.8077 46.2696L28.2926 52.7348L34.7775 59.2001L42.8519 51.1524L50.9263 43.1048L50.5095 40.2415C50.2802 38.6668 50.0601 37.3807 50.0202 37.3836C49.9804 37.3865 49.6833 37.5622 49.3602 37.774C48.7831 38.1523 48.7701 38.1693 48.6313 38.7232C48.1374 40.6947 46.5152 42.265 44.5925 42.633C43.8436 42.7764 42.4885 42.6937 41.8452 42.4654C39.6388 41.6826 38.1797 39.4935 38.3333 37.1962C38.5059 34.6137 40.5503 32.567 43.179 32.3449C45.182 32.1757 47.2748 33.3555 48.1835 35.1658C48.3632 35.5237 48.5222 35.8298 48.5369 35.8461C48.5944 35.9096 49.7087 34.9539 49.7087 34.8411C49.7087 34.6867 49.2756 31.84 49.2495 31.8227C49.2387 31.8156 48.7793 31.7464 48.2286 31.669C47.1884 31.5228 41.4762 30.6922 39.4485 30.3922C38.8092 30.2976 38.2018 30.2202 38.0988 30.2202C37.9663 30.2202 35.55 32.5737 29.8595 38.2449ZM44.0603 34.5022C43.8452 34.7605 43.5273 35.957 43.5273 36.5082C43.5273 36.9979 43.5579 37.1131 43.7352 37.2897C43.8496 37.4037 44.0934 37.525 44.2772 37.5594C44.8988 37.6757 46.5846 37.1914 46.645 36.8794C46.6928 36.6317 46.2695 35.8162 45.8675 35.3814C45.334 34.8047 44.2484 34.2765 44.0603 34.5022ZM41.312 35.26C41.1438 35.4073 40.8779 35.7871 40.7213 36.1042C40.4571 36.639 40.4366 36.7433 40.4366 37.55C40.4366 38.3306 40.462 38.471 40.6851 38.9238C41.0061 39.5754 41.514 40.0647 42.2213 40.404C42.7307 40.6483 42.8654 40.6748 43.5708 40.6698C44.219 40.6651 44.4371 40.6261 44.8332 40.4435C45.3214 40.2185 46.1366 39.5634 46.045 39.4695C46.0172 39.4411 45.7626 39.4607 45.4791 39.5133C44.7563 39.6475 43.664 39.5689 43.1599 39.3466C42.5516 39.0784 42.022 38.547 41.7383 37.9203C41.5228 37.4444 41.4935 37.2778 41.4976 36.5541C41.5001 36.1007 41.5423 35.5638 41.5913 35.361C41.6404 35.1583 41.6664 34.9923 41.6492 34.9923C41.632 34.9923 41.4803 35.1127 41.312 35.26Z"/>
</mask>
<path fill-rule="evenodd" clip-rule="evenodd" d="M51.1017 25.5823C49.4062 26.0882 47.0812 27.5273 45.7956 28.8665C45.6304 29.0386 45.4102 29.1791 45.3055 29.1791C45.201 29.1791 43.5193 28.9448 41.5684 28.6585C39.6174 28.3722 37.8207 28.1379 37.5757 28.1379H37.1302L28.3127 36.9228C21.8657 43.346 19.4748 45.7806 19.4196 45.9789C19.378 46.1281 19.3637 46.3623 19.3877 46.4995C19.4209 46.6888 21.1959 48.5112 26.7562 54.0648C30.7848 58.0885 34.1951 61.4408 34.3346 61.5144C34.4999 61.6015 34.7099 61.6317 34.9376 61.6013C35.2665 61.5574 35.8069 61.0366 44.1087 52.7636C51.1682 45.7284 52.9405 43.9181 52.9814 43.7004C53.0096 43.5508 52.9118 42.6138 52.7641 41.6181C52.6164 40.6223 52.3589 38.8731 52.192 37.7307L51.8885 35.6536L52.4382 35.0843C53.8844 33.5867 55.0589 31.6316 55.5948 29.8298C55.8125 29.0978 55.815 27.7093 55.5995 27.1835C55.3203 26.5023 54.8736 26.009 54.2509 25.6941C53.728 25.4295 53.6088 25.4047 52.762 25.384C51.9851 25.365 51.7264 25.3959 51.1017 25.5823ZM51.7982 27.4894C51.0787 27.6848 49.6133 28.4196 48.8334 28.9761C48.2525 29.3906 48.0218 29.6129 48.1724 29.6129C48.1894 29.6129 48.728 29.6921 49.3695 29.7889C51.0417 30.0413 51.087 30.0867 51.3152 31.7386C51.5011 33.0852 51.5041 33.0931 51.7226 32.8226C52.0492 32.4184 52.8205 31.2199 53.0624 30.7408C53.7303 29.418 53.9174 28.1234 53.509 27.6503C53.3364 27.4504 53.2243 27.4092 52.7908 27.3863C52.5082 27.3715 52.0615 27.4178 51.7982 27.4894ZM29.8595 38.2449L21.8077 46.2696L28.2926 52.7348L34.7775 59.2001L42.8519 51.1524L50.9263 43.1048L50.5095 40.2415C50.2802 38.6668 50.0601 37.3807 50.0202 37.3836C49.9804 37.3865 49.6833 37.5622 49.3602 37.774C48.7831 38.1523 48.7701 38.1693 48.6313 38.7232C48.1374 40.6947 46.5152 42.265 44.5925 42.633C43.8436 42.7764 42.4885 42.6937 41.8452 42.4654C39.6388 41.6826 38.1797 39.4935 38.3333 37.1962C38.5059 34.6137 40.5503 32.567 43.179 32.3449C45.182 32.1757 47.2748 33.3555 48.1835 35.1658C48.3632 35.5237 48.5222 35.8298 48.5369 35.8461C48.5944 35.9096 49.7087 34.9539 49.7087 34.8411C49.7087 34.6867 49.2756 31.84 49.2495 31.8227C49.2387 31.8156 48.7793 31.7464 48.2286 31.669C47.1884 31.5228 41.4762 30.6922 39.4485 30.3922C38.8092 30.2976 38.2018 30.2202 38.0988 30.2202C37.9663 30.2202 35.55 32.5737 29.8595 38.2449ZM44.0603 34.5022C43.8452 34.7605 43.5273 35.957 43.5273 36.5082C43.5273 36.9979 43.5579 37.1131 43.7352 37.2897C43.8496 37.4037 44.0934 37.525 44.2772 37.5594C44.8988 37.6757 46.5846 37.1914 46.645 36.8794C46.6928 36.6317 46.2695 35.8162 45.8675 35.3814C45.334 34.8047 44.2484 34.2765 44.0603 34.5022ZM41.312 35.26C41.1438 35.4073 40.8779 35.7871 40.7213 36.1042C40.4571 36.639 40.4366 36.7433 40.4366 37.55C40.4366 38.3306 40.462 38.471 40.6851 38.9238C41.0061 39.5754 41.514 40.0647 42.2213 40.404C42.7307 40.6483 42.8654 40.6748 43.5708 40.6698C44.219 40.6651 44.4371 40.6261 44.8332 40.4435C45.3214 40.2185 46.1366 39.5634 46.045 39.4695C46.0172 39.4411 45.7626 39.4607 45.4791 39.5133C44.7563 39.6475 43.664 39.5689 43.1599 39.3466C42.5516 39.0784 42.022 38.547 41.7383 37.9203C41.5228 37.4444 41.4935 37.2778 41.4976 36.5541C41.5001 36.1007 41.5423 35.5638 41.5913 35.361C41.6404 35.1583 41.6664 34.9923 41.6492 34.9923C41.632 34.9923 41.4803 35.1127 41.312 35.26Z" fill="white"/>
<path d="M38.4569 1.14426L38.4413 1.09676V1.09676L38.4569 1.14426ZM35.8297 3.83795L35.7817 3.8239L35.8297 3.83795ZM35.8626 16.2638L35.8149 16.2786V16.2786L35.8626 16.2638ZM43.2486 16.7763L43.2038 16.754V16.754L43.2486 16.7763ZM43.5708 16.13L43.6155 16.1524L43.6208 16.1418V16.13H43.5708ZM43.5708 3.88723H43.6208V3.87595L43.6159 3.86575L43.5708 3.88723ZM43.3025 3.32327L43.3476 3.30178V3.30178L43.3025 3.32327ZM41.3755 1.39519L41.3977 1.35036L41.3977 1.35035L41.3755 1.39519ZM39.7956 1.00483L39.7971 0.954854L39.7971 0.954854L39.7956 1.00483ZM39.1736 3.05247L39.1891 3.10002L39.1891 3.10002L39.1736 3.05247ZM37.8755 4.19091L37.83 4.1702V4.17021L37.8755 4.19091ZM41.6119 15.5373L41.6562 15.5605L41.6619 15.5496L41.6619 15.5373L41.6119 15.5373ZM41.6114 10.1027L41.5614 10.1027V10.1027L41.6114 10.1027ZM41.5261 4.36444L41.478 4.37788L41.478 4.37788L41.5261 4.36444ZM40.5528 3.22921L40.5301 3.27378L40.5301 3.27378L40.5528 3.22921ZM4.83237 20.3389L4.81616 20.2916H4.81616L4.83237 20.3389ZM2.15329 23.6153L2.20276 23.6225H2.20276L2.15329 23.6153ZM2.2017 24.8926L2.15315 24.9046L2.15315 24.9046L2.2017 24.8926ZM5.43754 28.3254L5.46251 28.2821H5.46251L5.43754 28.3254ZM10.8789 31.4632L10.904 31.42L10.904 31.42L10.8789 31.4632ZM17.2855 25.9739L17.3138 25.9327H17.3138L17.2855 25.9739ZM7.39644 20.3573L7.41289 20.3101H7.41289L7.39644 20.3573ZM72.2932 20.4205L72.2838 20.3714L72.2932 20.4205ZM67.7741 22.7759L67.7491 22.7325V22.7325L67.7741 22.7759ZM64.0391 24.9224L64.0142 24.879H64.0142L64.0391 24.9224ZM65.6095 33.1535L65.6265 33.2005H65.6265L65.6095 33.1535ZM72.8893 29.0367L72.8643 28.9933V28.9933L72.8893 29.0367ZM75.4303 27.5341L75.4021 27.4929L75.4021 27.4929L75.4303 27.5341ZM76.7164 25.9205L76.6713 25.899L76.6712 25.899L76.7164 25.9205ZM76.9997 24.3203L76.9497 24.3204L76.9997 24.3203ZM76.7662 22.826L76.8116 22.8049V22.8049L76.7662 22.826ZM74.3993 20.5922L74.415 20.5447L74.3993 20.5922ZM5.35048 22.3086L5.37185 22.3538L5.37186 22.3538L5.35048 22.3086ZM4.3463 24.8842L4.39134 24.8625L4.39134 24.8625L4.3463 24.8842ZM8.8765 27.9455L8.85161 27.9888L8.85161 27.9888L8.8765 27.9455ZM12.5766 30.081L12.5515 30.1242H12.5515L12.5766 30.081ZM14.2308 31.0424L14.2057 31.0857L14.2173 31.0924L14.2307 31.0924L14.2308 31.0424ZM14.9416 31.0435L14.9417 30.9935L14.9416 31.0435ZM11.9237 25.1915L11.9487 25.1482H11.9487L11.9237 25.1915ZM6.22824 22.1798L6.23161 22.1299L6.22824 22.1798ZM64.8663 31.2461L64.85 31.1988L64.85 31.1988L64.8663 31.2461ZM66.207 30.5377L66.1819 30.4945L66.207 30.5377ZM71.8139 27.306L71.8387 27.3494L71.8139 27.306ZM14.0811 53.6493L14.0728 53.5999H14.0728L14.0811 53.6493ZM9.60059 55.9518L9.5756 55.9085L9.5756 55.9085L9.60059 55.9518ZM5.65519 58.2253L5.68005 58.2687H5.68006L5.65519 58.2253ZM3.01808 59.9785L2.98096 59.945H2.98095L3.01808 59.9785ZM2.13205 63.6649L2.08367 63.6775L2.08367 63.6775L2.13205 63.6649ZM6.58154 66.5726L6.5894 66.622H6.5894L6.58154 66.5726ZM10.4124 64.6895L10.3874 64.6462L10.4124 64.6895ZM15.6638 53.6951L15.6527 53.7439H15.6527L15.6638 53.6951ZM60.6596 59.7533L60.7036 59.7295L60.7036 59.7295L60.6596 59.7533ZM62.9981 61.751L63.0228 61.7076H63.0228L62.9981 61.751ZM64.9881 62.8921L65.0132 62.8488H65.0132L64.9881 62.8921ZM71.504 66.5567L71.5227 66.5103L71.504 66.5567ZM75.7721 65.6249L75.736 65.5903L75.736 65.5903L75.7721 65.6249ZM75.817 60.1278L75.7807 60.1622L75.817 60.1278ZM73.259 58.4359L73.2839 58.3925L73.259 58.4359ZM68.4271 55.6624L68.452 55.6191L68.4271 55.6624ZM14.1315 55.7282L14.1501 55.7746L14.1501 55.7746L14.1315 55.7282ZM12.5208 56.6228L12.4959 56.5794L12.4959 56.5794L12.5208 56.6228ZM7.96234 59.2403L7.98731 59.2836L7.98732 59.2836L7.96234 59.2403ZM4.62377 61.2286L4.65717 61.2658L4.65717 61.2658L4.62377 61.2286ZM5.23886 64.4442L5.25808 64.3981H5.25808L5.23886 64.4442ZM7.82592 63.8456L7.80006 63.8028H7.80006L7.82592 63.8456ZM62.6488 59.0158L62.6109 59.0484L62.6488 59.0158ZM65.5768 60.8771L65.5518 60.9204L65.5768 60.8771ZM70.2383 63.5666L70.2133 63.6099L70.2383 63.5666ZM72.6133 64.7971L72.6216 64.7478L72.6216 64.7478L72.6133 64.7971ZM74.6985 63.7054L74.654 63.6826V63.6826L74.6985 63.7054ZM38.5079 67.9938L38.4957 67.9453H38.4956L38.5079 67.9938ZM35.7992 70.1907L35.8443 70.2123H35.8443L35.7992 70.1907ZM35.474 70.8694L35.4289 70.8478L35.424 70.8579L35.424 70.8692L35.474 70.8694ZM35.4499 76.776L35.3999 76.7758L35.4499 76.776ZM35.5892 83.2056L35.5415 83.2205L35.5892 83.2056ZM40.3327 85.8803L40.3452 85.9287L40.3327 85.8803ZM43.2339 83.084L43.1858 83.0707V83.0707L43.2339 83.084ZM38.4341 70.2128L38.4592 70.256L38.4341 70.2128ZM37.5176 71.3548L37.5657 71.3687L37.5657 71.3687L37.5176 71.3548ZM37.4329 82.4183H37.3829V82.4301L37.3882 82.4407L37.4329 82.4183ZM37.6623 82.8772L37.6176 82.8995L37.6623 82.8772ZM41.1416 82.853L41.1869 82.8742L41.1416 82.853ZM41.349 82.4091L41.3943 82.4302L41.399 82.4202V82.4091L41.349 82.4091ZM38.4413 1.09676C37.1662 1.51533 36.1539 2.55287 35.7817 3.8239L35.8776 3.85201C36.2405 2.61311 37.2282 1.60024 38.4725 1.19177L38.4413 1.09676ZM35.7817 3.8239C35.7196 4.0358 35.6852 4.34854 35.6657 5.22087C35.6462 6.09504 35.6417 7.53661 35.6417 10.0107H35.7417C35.7417 7.53622 35.7462 6.09591 35.7657 5.2231C35.7853 4.34845 35.8199 4.04911 35.8776 3.85201L35.7817 3.8239ZM35.6417 10.0107C35.6417 12.7212 35.6437 14.1543 35.6662 14.9751C35.6886 15.7967 35.7316 16.0099 35.8149 16.2786L35.9104 16.2489C35.8311 15.9932 35.7885 15.7908 35.7661 14.9724C35.7438 14.1533 35.7417 12.722 35.7417 10.0107H35.6417ZM35.8149 16.2786C36.1557 17.3772 36.8524 18.1776 37.9286 18.7089L37.9729 18.6193C36.92 18.0995 36.2426 17.3201 35.9104 16.2489L35.8149 16.2786ZM41.3827 18.707C42.2339 18.2878 42.8655 17.6568 43.2933 16.7986L43.2038 16.754C42.7856 17.5928 42.1698 18.2079 41.3385 18.6173L41.3827 18.707ZM43.2933 16.7986L43.6155 16.1524L43.526 16.1077L43.2038 16.754L43.2933 16.7986ZM43.6208 16.13V10.0086H43.5208V16.13H43.6208ZM43.6208 10.0086V3.88723H43.5208V10.0086H43.6208ZM43.6159 3.86575L43.3476 3.30178L43.2573 3.34475L43.5256 3.90872L43.6159 3.86575ZM43.3476 3.30178C42.9349 2.43439 42.2931 1.79258 41.3977 1.35036L41.3534 1.44002C42.2295 1.87273 42.8546 2.49854 43.2573 3.34475L43.3476 3.30178ZM41.3977 1.35035C41.0507 1.17905 40.8479 1.08465 40.6321 1.03134C40.4164 0.978053 40.1899 0.966325 39.7971 0.954854L39.7941 1.05481C40.1887 1.06633 40.4045 1.07812 40.6081 1.12842C40.8116 1.17871 41.005 1.26799 41.3534 1.44002L41.3977 1.35035ZM39.7971 0.954854C39.1545 0.936119 38.83 0.969173 38.4413 1.09676L38.4725 1.19177C38.8456 1.0693 39.1571 1.03624 39.7941 1.05481L39.7971 0.954854ZM39.1582 3.00493C38.8242 3.11355 38.5619 3.24971 38.3477 3.43759C38.1333 3.62556 37.9698 3.86296 37.83 4.1702L37.921 4.21162C38.0565 3.91376 38.2125 3.68914 38.4136 3.51277C38.6148 3.3363 38.8639 3.20579 39.1891 3.10002L39.1582 3.00493ZM37.83 4.17021C37.7856 4.2678 37.7512 4.35338 37.7256 4.51051C37.7002 4.66549 37.6834 4.89008 37.672 5.26639C37.6491 6.01947 37.6479 7.38972 37.6479 10.0475H37.7479C37.7479 7.38872 37.7491 6.02056 37.7719 5.26942C37.7833 4.89363 37.8001 4.67466 37.8243 4.52664C37.8481 4.38077 37.8791 4.3039 37.921 4.21161L37.83 4.17021ZM41.4129 16.0245L41.6562 15.5605L41.5676 15.5141L41.3244 15.9781L41.4129 16.0245ZM41.6619 15.5373L41.6614 10.1027L41.5614 10.1027L41.5619 15.5373L41.6619 15.5373ZM41.6614 10.1027C41.6612 8.47329 41.6526 7.08399 41.6377 6.07917C41.6303 5.5768 41.6212 5.1703 41.6108 4.87787C41.6056 4.7317 41.6001 4.61368 41.5943 4.5263C41.5886 4.44143 41.5823 4.3798 41.5743 4.35099L41.478 4.37788C41.4826 4.39461 41.4886 4.44462 41.4945 4.53298C41.5002 4.61884 41.5057 4.73566 41.5109 4.88141C41.5212 5.17284 41.5303 5.57854 41.5377 6.08066C41.5526 7.0848 41.5612 8.47357 41.5614 10.1027L41.6614 10.1027ZM41.5743 4.351C41.5144 4.13638 41.3715 3.89967 41.1922 3.69055C41.0127 3.48118 40.793 3.29527 40.5754 3.18464L40.5301 3.27378C40.7332 3.37703 40.943 3.55349 41.1163 3.75564C41.2898 3.95805 41.4233 4.18201 41.478 4.37788L41.5743 4.351ZM40.5754 3.18464C40.3739 3.08214 40.1049 3.01014 39.8459 2.97695C39.588 2.94389 39.332 2.94832 39.1581 3.00493L39.1891 3.10002C39.3422 3.05017 39.5808 3.04379 39.8332 3.07614C40.0845 3.10835 40.3416 3.17794 40.5301 3.27378L40.5754 3.18464ZM4.81616 20.2916C3.3416 20.7969 2.33472 22.029 2.10382 23.6081L2.20276 23.6225C2.42842 22.0793 3.41055 20.879 4.84858 20.3862L4.81616 20.2916ZM2.10382 23.6081C2.06152 23.8973 2.04161 24.093 2.04875 24.2813C2.0559 24.4699 2.0901 24.6488 2.15315 24.9046L2.25024 24.8807C2.18766 24.6268 2.15543 24.4557 2.14868 24.2775C2.14191 24.0989 2.16061 23.9108 2.20276 23.6225L2.10382 23.6081ZM2.15315 24.9046C2.34563 25.6855 2.56544 26.2119 3.03885 26.7141C3.50968 27.2136 4.22913 27.6867 5.41257 28.3687L5.46251 28.2821C4.27803 27.5994 3.57101 27.1328 3.11162 26.6455C2.65481 26.1609 2.44067 25.6532 2.25024 24.8807L2.15315 24.9046ZM5.41257 28.3687C6.37026 28.9207 7.68273 29.6768 8.32917 30.049L8.37907 29.9623C7.73264 29.5901 6.42019 28.8341 5.46251 28.2821L5.41257 28.3687ZM8.32917 30.049C8.97557 30.4212 10.1117 31.0771 10.8539 31.5065L10.904 31.42C10.1617 30.9905 9.02554 30.3346 8.37907 29.9623L8.32917 30.049ZM10.8539 31.5065C13.0324 32.767 13.54 33.0107 14.2704 33.1338L14.287 33.0352C13.5781 32.9157 13.0869 32.6831 10.904 31.42L10.8539 31.5065ZM18.8437 28.217C18.6463 27.3637 18.0067 26.4078 17.3138 25.9327L17.2572 26.0151C17.9285 26.4755 18.5543 27.4094 18.7463 28.2396L18.8437 28.217ZM17.3138 25.9327C16.8419 25.6091 14.4931 24.2475 12.2024 22.9465C11.0564 22.2956 9.92384 21.6593 9.04626 21.1747C8.60749 20.9324 8.2323 20.7279 7.95094 20.5785C7.81029 20.5038 7.69287 20.4427 7.60259 20.3975C7.51344 20.3529 7.44798 20.3223 7.41289 20.3101L7.37998 20.4045C7.40788 20.4142 7.46744 20.4417 7.55783 20.4869C7.64707 20.5316 7.76369 20.5923 7.90404 20.6668C8.18469 20.8158 8.55934 21.02 8.99792 21.2622C9.87503 21.7465 11.0072 22.3827 12.153 23.0334C14.4462 24.3359 16.7899 25.6947 17.2572 26.0151L17.3138 25.9327ZM7.41289 20.3101C6.6491 20.0439 5.56238 20.0359 4.81616 20.2916L4.84858 20.3862C5.57301 20.138 6.63672 20.1455 7.37998 20.4045L7.41289 20.3101ZM72.2838 20.3714C72.1247 20.4019 71.9995 20.4269 71.842 20.4822C71.685 20.5373 71.4972 20.6221 71.2111 20.7713C70.6391 21.0694 69.6669 21.6285 67.7491 22.7325L67.799 22.8192C69.7181 21.7144 70.6877 21.1568 71.2573 20.86C71.5418 20.7116 71.7247 20.6294 71.8751 20.5765C72.0251 20.5239 72.144 20.5 72.3027 20.4696L72.2838 20.3714ZM67.7491 22.7325C66.7915 23.2839 65.1108 24.2498 64.0142 24.879L64.064 24.9658C65.1606 24.3365 66.8413 23.3706 67.799 22.8192L67.7491 22.7325ZM64.0142 24.879C62.8491 25.5476 62.224 25.9116 61.8296 26.191C61.432 26.4727 61.267 26.6698 61.0215 27.0018L61.1019 27.0613C61.3435 26.7345 61.5012 26.5462 61.8874 26.2726C62.277 25.9967 62.897 25.6355 64.064 24.9658L64.0142 24.879ZM63.1723 33.273C63.4667 33.3583 63.9404 33.3901 64.4069 33.3764C64.8733 33.3626 65.3421 33.303 65.6265 33.2005L65.5926 33.1065C65.3234 33.2034 64.8674 33.2627 64.4039 33.2764C63.9405 33.2901 63.4794 33.2579 63.2001 33.177L63.1723 33.273ZM65.6265 33.2005C65.6799 33.1813 65.7975 33.1238 65.9605 33.039C66.125 32.9534 66.3391 32.8383 66.5878 32.7019C67.0852 32.429 67.7216 32.0706 68.377 31.6925L68.327 31.6059C67.6722 31.9837 67.0364 32.3418 66.5397 32.6142C66.2913 32.7504 66.0779 32.8652 65.9143 32.9503C65.7493 33.0361 65.6383 33.09 65.5926 33.1065L65.6265 33.2005ZM68.377 31.6925C69.6872 30.9365 71.7289 29.7609 72.9142 29.08L72.8643 28.9933C71.6791 29.6742 69.6372 30.8499 68.327 31.6059L68.377 31.6925ZM72.9142 29.08C74.0985 28.3998 75.2443 27.7224 75.4586 27.5753L75.4021 27.4929C75.1919 27.637 74.0507 28.3119 72.8643 28.9933L72.9142 29.08ZM75.4586 27.5753C75.9847 27.2146 76.4127 26.6763 76.7616 25.9419L76.6712 25.899C76.3278 26.6219 75.91 27.1446 75.4021 27.4929L75.4586 27.5753ZM76.7616 25.9419C76.8979 25.6551 76.9723 25.4872 77.0107 25.2704C77.0487 25.0556 77.0511 24.7941 77.0497 24.3201L76.9497 24.3204C76.9511 24.7974 76.9483 25.0489 76.9122 25.253C76.8764 25.4549 76.8078 25.6116 76.6713 25.899L76.7616 25.9419ZM77.0497 24.3201C77.0484 23.8744 77.0417 23.608 77.0088 23.3972C76.9755 23.184 76.9155 23.0288 76.8116 22.8049L76.7209 22.8471C76.8232 23.0675 76.8788 23.2129 76.91 23.4126C76.9415 23.6146 76.9484 23.8732 76.9497 24.3204L77.0497 24.3201ZM76.8116 22.8049C76.2726 21.6447 75.4848 20.8995 74.415 20.5447L74.3835 20.6396C75.4234 20.9845 76.1917 21.708 76.7209 22.8471L76.8116 22.8049ZM74.415 20.5447C73.7975 20.34 72.8513 20.2624 72.2838 20.3714L72.3027 20.4696C72.8513 20.3642 73.7801 20.4395 74.3835 20.6396L74.415 20.5447ZM5.3291 22.2634C4.30129 22.7495 3.8345 23.9378 4.30126 24.9059L4.39134 24.8625C3.95126 23.9498 4.3887 22.8188 5.37185 22.3538L5.3291 22.2634ZM4.30126 24.9059C4.38053 25.0704 4.42876 25.1934 4.52449 25.3174C4.62096 25.4424 4.7643 25.5677 5.033 25.7493C5.56956 26.1118 6.62344 26.7101 8.85161 27.9888L8.90138 27.9021C6.67039 26.6218 5.62156 26.0263 5.08899 25.6664C4.82313 25.4867 4.69031 25.3686 4.60366 25.2563C4.51627 25.1431 4.47444 25.0349 4.39134 24.8625L4.30126 24.9059ZM8.85161 27.9888C9.97683 28.6345 11.6418 29.5954 12.5515 30.1242L12.6018 30.0378C11.6919 29.5089 10.0267 28.5478 8.90138 27.9021L8.85161 27.9888ZM12.5515 30.1242L14.2057 31.0857L14.2559 30.9992L12.6018 30.0378L12.5515 30.1242ZM14.2307 31.0924L14.9415 31.0935L14.9417 30.9935L14.2309 30.9924L14.2307 31.0924ZM14.9415 31.0935C15.2655 31.0939 15.4574 31.089 15.6113 31.052C15.768 31.0143 15.8829 30.9441 16.0547 30.8237L15.9974 30.7418C15.827 30.8612 15.7251 30.9218 15.5879 30.9547C15.4478 30.9884 15.2685 30.9939 14.9417 30.9935L14.9415 31.0935ZM16.3437 27.74C16.2611 27.6681 16.1015 27.5633 15.4973 27.2071C14.8909 26.8497 13.833 26.2371 11.9487 25.1482L11.8987 25.2348C13.7832 26.3237 14.8406 26.9361 15.4465 27.2933C16.0545 27.6517 16.2041 27.7511 16.2781 27.8155L16.3437 27.74ZM11.9487 25.1482C9.25944 23.5942 7.9774 22.8502 7.29649 22.4901C6.95633 22.3103 6.76283 22.2244 6.61716 22.1815C6.47006 22.1383 6.37182 22.1394 6.23161 22.1299L6.22486 22.2297C6.37082 22.2395 6.45511 22.2381 6.58896 22.2775C6.72422 22.3172 6.91008 22.3989 7.24974 22.5785C7.92848 22.9375 9.20799 23.68 11.8987 25.2348L11.9487 25.1482ZM6.23161 22.1299C5.8296 22.1027 5.60003 22.1353 5.3291 22.2634L5.37186 22.3538C5.6226 22.2352 5.83373 22.2032 6.22486 22.2297L6.23161 22.1299ZM63.3698 31.1671C63.8771 31.419 64.391 31.463 64.8826 31.2933L64.85 31.1988C64.3863 31.3588 63.9002 31.3188 63.4143 31.0776L63.3698 31.1671ZM64.8826 31.2933C64.9684 31.2637 65.1635 31.1679 65.4055 31.0401C65.6492 30.9114 65.9442 30.748 66.2321 30.581L66.1819 30.4945C65.8951 30.6609 65.6012 30.8236 65.3588 30.9517C65.1148 31.0806 64.927 31.1722 64.85 31.1988L64.8826 31.2933ZM66.2321 30.581C68.2913 29.3862 69.3166 28.7952 71.8387 27.3494L71.789 27.2626C69.2667 28.7085 68.2413 29.2996 66.1819 30.4945L66.2321 30.581ZM71.8387 27.3494C72.8647 26.7612 73.518 26.377 73.9399 26.1057C74.3602 25.8353 74.5566 25.6736 74.6622 25.5295L74.5816 25.4704C74.4881 25.5978 74.3066 25.7509 73.8858 26.0216C73.4664 26.2913 72.8152 26.6743 71.789 27.2626L71.8387 27.3494ZM14.0728 53.5999C13.7563 53.6531 13.4786 53.7421 12.8571 54.0614C12.2368 54.3802 11.2702 54.9306 9.5756 55.9085L9.62558 55.9951C11.321 55.0167 12.2852 54.4678 12.9029 54.1504C13.5194 53.8335 13.7869 53.7494 14.0894 53.6986L14.0728 53.5999ZM9.5756 55.9085C7.86054 56.8982 6.08515 57.9212 5.63033 58.1819L5.68006 58.2687C6.13503 58.0079 7.91056 56.9848 9.62558 55.9951L9.5756 55.9085ZM5.63033 58.1819C3.83875 59.2086 3.35842 59.5267 2.98096 59.945L3.0552 60.012C3.41968 59.6081 3.8838 59.2981 5.68005 58.2687L5.63033 58.1819ZM2.98095 59.945C2.0739 60.9505 1.73724 62.352 2.08367 63.6775L2.18042 63.6523C1.84237 62.3588 2.17104 60.9921 3.0552 60.012L2.98095 59.945ZM2.08367 63.6775C2.59182 65.6216 4.60568 66.9378 6.5894 66.622L6.57368 66.5233C4.64081 66.831 2.67557 65.5466 2.18042 63.6523L2.08367 63.6775ZM6.5894 66.622C7.31317 66.5067 7.62397 66.3522 10.4373 64.7328L10.3874 64.6462C7.56661 66.2699 7.27476 66.4116 6.57367 66.5233L6.5894 66.622ZM10.4373 64.7328C11.6756 64.0201 13.7039 62.8545 14.9448 62.1425L14.895 62.0558C13.6541 62.7678 11.6257 63.9334 10.3874 64.6462L10.4373 64.7328ZM18.6352 56.3204C18.189 54.9923 17.0421 53.9563 15.6748 53.6464L15.6527 53.7439C16.986 54.0461 18.1053 55.0572 18.5405 56.3523L18.6352 56.3204ZM15.6748 53.6464C15.353 53.5734 15.1146 53.5341 14.8749 53.5272C14.6351 53.5202 14.3961 53.5457 14.0728 53.5999L14.0894 53.6986C14.41 53.6447 14.6417 53.6205 14.872 53.6271C15.1023 53.6338 15.3334 53.6715 15.6527 53.7439L15.6748 53.6464ZM60.1998 56.8554C59.9879 57.7713 60.1519 58.9212 60.6157 59.7771L60.7036 59.7295C60.251 58.8942 60.091 57.7691 60.2972 56.8779L60.1998 56.8554ZM60.6157 59.7771C61.0026 60.4914 61.6522 61.0431 62.9734 61.7945L63.0228 61.7076C61.7055 60.9584 61.0767 60.4182 60.7036 59.7295L60.6157 59.7771ZM62.9734 61.7945C63.6368 62.1718 64.5322 62.6852 64.963 62.9353L65.0132 62.8488C64.5821 62.5985 63.6864 62.085 63.0228 61.7076L62.9734 61.7945ZM64.963 62.9353C66.8453 64.0283 68.3669 64.9013 69.4718 65.5227C70.5748 66.1431 71.2663 66.5149 71.4853 66.6031L71.5227 66.5103C71.3113 66.4252 70.6271 66.0578 69.5208 65.4356C68.4165 64.8145 66.8953 63.9418 65.0132 62.8488L64.963 62.9353ZM71.4853 66.6031C72.9609 67.197 74.7003 66.8171 75.8083 65.6595L75.736 65.5903C74.6561 66.7188 72.9599 67.0888 71.5227 66.5103L71.4853 66.6031ZM75.8083 65.6595C77.3399 64.0593 77.36 61.6776 75.8532 60.0933L75.7807 60.1622C77.2499 61.7069 77.2316 64.0278 75.736 65.5903L75.8083 65.6595ZM75.8532 60.0933C75.4692 59.6896 74.9676 59.3589 73.2839 58.3925L73.2341 58.4792C74.9216 59.4478 75.4089 59.7712 75.7807 60.1622L75.8532 60.0933ZM73.2839 58.3925C72.1347 57.7329 69.9603 56.4849 68.452 55.6191L68.4022 55.7058C69.9105 56.5716 72.0849 57.8196 73.2341 58.4792L73.2839 58.3925ZM68.452 55.6191C67.5016 55.0736 66.7755 54.6694 66.2418 54.3898C65.71 54.1112 65.3646 53.9539 65.1782 53.9057L65.1532 54.0025C65.3264 54.0473 65.6615 54.1987 66.1954 54.4784C66.7274 54.757 67.4522 55.1605 68.4022 55.7058L68.452 55.6191ZM14.1128 55.6818C14.0841 55.6934 14.0168 55.7278 13.9231 55.7779C13.8282 55.8286 13.7032 55.8971 13.5572 55.9782C13.265 56.1405 12.8877 56.3539 12.4959 56.5794L12.5458 56.6661C12.9372 56.4408 13.314 56.2276 13.6057 56.0656C13.7516 55.9846 13.876 55.9165 13.9703 55.8661C14.0659 55.815 14.1276 55.7837 14.1501 55.7746L14.1128 55.6818ZM12.4959 56.5794C11.7125 57.0302 10.5624 57.6906 9.93993 58.047L9.98962 58.1338C10.6122 57.7773 11.7624 57.1169 12.5458 56.6661L12.4959 56.5794ZM9.93993 58.047C9.31741 58.4034 8.41627 58.9208 7.93737 59.1969L7.98732 59.2836C8.4661 59.0075 9.36715 58.4902 9.98962 58.1338L9.93993 58.047ZM7.93737 59.1969C7.45854 59.4729 6.55746 59.992 5.93497 60.3503L5.98486 60.437C6.60736 60.0786 7.50846 59.5596 7.98731 59.2836L7.93737 59.1969ZM5.93497 60.3503C5.62326 60.5297 5.3168 60.7136 5.07405 60.8653C4.83341 61.0157 4.65055 61.1374 4.59036 61.1914L4.65717 61.2658C4.70938 61.219 4.88335 61.1024 5.12705 60.9501C5.36866 60.7991 5.67407 60.6159 5.98486 60.437L5.93497 60.3503ZM4.59037 61.1914C4.07697 61.6523 3.91064 62.343 4.03309 62.9832C4.15554 63.6233 4.56786 64.219 5.21964 64.4904L5.25808 64.3981C4.64172 64.1415 4.2484 63.5765 4.13131 62.9644C4.01421 62.3522 4.1744 61.6992 4.65717 61.2658L4.59037 61.1914ZM5.21964 64.4904C5.9395 64.7901 6.63945 64.6208 7.85177 63.8884L7.80006 63.8028C6.59257 64.5323 5.93069 64.6781 5.25808 64.3981L5.21964 64.4904ZM7.85177 63.8884C8.3049 63.6147 9.34627 63.0144 14.0672 60.3056L14.0174 60.2189C9.29736 62.9272 8.25446 63.5284 7.80006 63.8028L7.85177 63.8884ZM15.648 55.7598C15.4541 55.672 15.155 55.6192 14.8659 55.6043C14.5777 55.5894 14.2875 55.6116 14.1128 55.6818L14.1501 55.7746C14.3038 55.7128 14.5759 55.6894 14.8607 55.7041C15.1447 55.7188 15.4294 55.7706 15.6068 55.8509L15.648 55.7598ZM63.6236 55.8489C62.1783 56.2871 61.6524 57.9325 62.6109 59.0484L62.6867 58.9832C61.7791 57.9265 62.2708 56.3635 63.6526 55.9446L63.6236 55.8489ZM62.6109 59.0484C62.724 59.18 62.9843 59.3735 63.449 59.6689C63.916 59.9657 64.5951 60.369 65.5518 60.9204L65.6018 60.8338C64.6452 60.2824 63.9677 59.8801 63.5027 59.5845C63.0354 59.2874 62.7884 59.1016 62.6867 58.9832L62.6109 59.0484ZM65.5518 60.9204C66.9998 61.7549 69.0974 62.9652 70.2133 63.6099L70.2633 63.5233C69.1474 62.8785 67.0497 61.6683 65.6018 60.8338L65.5518 60.9204ZM70.2133 63.6099C70.8294 63.9659 71.3713 64.2651 71.7858 64.4798C71.993 64.5871 72.1688 64.6736 72.3062 64.7356C72.4416 64.7966 72.5451 64.8363 72.605 64.8464L72.6216 64.7478C72.5765 64.7402 72.4845 64.7062 72.3473 64.6444C72.2122 64.5835 72.0382 64.4979 71.8318 64.391C71.4191 64.1772 70.8786 63.8788 70.2633 63.5233L70.2133 63.6099ZM72.605 64.8464C73.411 64.9821 74.3548 64.4866 74.743 63.7282L74.654 63.6826C74.2844 64.4048 73.3819 64.8758 72.6216 64.7478L72.605 64.8464ZM74.743 63.7282C74.9187 63.3849 74.9587 62.9407 74.8884 62.5209C74.818 62.1011 74.6361 61.698 74.3589 61.4388L74.2906 61.5118C74.5473 61.7519 74.7219 62.1325 74.7897 62.5374C74.8576 62.9422 74.8174 63.3634 74.654 63.6826L74.743 63.7282ZM38.4956 67.9453C37.264 68.2579 36.2923 69.0456 35.7541 70.1691L35.8443 70.2123C36.3694 69.1162 37.3166 68.3477 38.5202 68.0422L38.4956 67.9453ZM35.7541 70.1691L35.4289 70.8478L35.5191 70.891L35.8443 70.2123L35.7541 70.1691ZM35.424 70.8692L35.3999 76.7758L35.4999 76.7762L35.524 70.8696L35.424 70.8692ZM35.3999 76.7758C35.3886 79.5612 35.3849 81.0461 35.4033 81.8961C35.4217 82.7464 35.4622 82.9667 35.5415 83.2205L35.6369 83.1906C35.562 82.9509 35.5216 82.7422 35.5033 81.894C35.4849 81.0455 35.4886 79.5623 35.4999 76.7762L35.3999 76.7758ZM35.5415 83.2205C36.1702 85.2335 38.3297 86.4519 40.3452 85.9287L40.3201 85.8319C38.3573 86.3414 36.2501 85.1539 35.6369 83.1906L35.5415 83.2205ZM40.3452 85.9287C41.8044 85.55 42.8939 84.5007 43.2821 83.0973L43.1858 83.0707C42.8075 84.4381 41.7462 85.4617 40.3201 85.8319L40.3452 85.9287ZM43.2821 83.0973C43.3594 82.8181 43.4002 82.5663 43.422 81.7315C43.4438 80.897 43.4467 79.4759 43.4467 76.8561H43.3467C43.3467 79.4765 43.3438 80.896 43.322 81.7289C43.3003 82.5613 43.2597 82.8033 43.1858 83.0707L43.2821 83.0973ZM43.4467 76.8561V71.2164H43.3467V76.8561H43.4467ZM39.6398 67.8739C39.2156 67.8466 38.7802 67.8731 38.4957 67.9453L38.5202 68.0422C38.7911 67.9735 39.2152 67.9468 39.6333 67.9737L39.6398 67.8739ZM38.409 70.1695C37.9357 70.4443 37.6117 70.8473 37.4696 71.341L37.5657 71.3687C37.7001 70.9016 38.0065 70.5188 38.4592 70.256L38.409 70.1695ZM37.4696 71.341C37.4651 71.3565 37.4616 71.3795 37.4586 71.4066C37.4554 71.4348 37.4524 71.4706 37.4495 71.5137C37.4436 71.5998 37.4381 71.7163 37.433 71.8607C37.4226 72.1495 37.4136 72.5515 37.4062 73.0486C37.3914 74.0429 37.3829 75.4188 37.3829 77.0337H37.4829C37.4829 75.4191 37.4914 74.0437 37.5062 73.0501C37.5136 72.5532 37.5226 72.1521 37.5329 71.8642C37.5381 71.7203 37.5435 71.605 37.5493 71.5204C37.5521 71.4781 37.555 71.4439 37.558 71.4178C37.561 71.3906 37.5638 71.3752 37.5657 71.3687L37.4696 71.341ZM37.3829 77.0337V82.4183H37.4829V77.0337H37.3829ZM37.3882 82.4407L37.6176 82.8995L37.707 82.8548L37.4776 82.396L37.3882 82.4407ZM37.6176 82.8995C38.3635 84.3913 40.4843 84.378 41.1869 82.8742L41.0963 82.8319C40.4299 84.2581 38.4164 84.2736 37.707 82.8548L37.6176 82.8995ZM41.1869 82.8742L41.3943 82.4302L41.3037 82.3879L41.0963 82.8319L41.1869 82.8742ZM41.399 82.4091L41.3998 76.9311L41.2998 76.9311L41.299 82.409L41.399 82.4091ZM41.1519 70.9646C40.6268 69.96 39.3884 69.6008 38.409 70.1695L38.4592 70.256C39.3893 69.716 40.5646 70.0567 41.0632 71.0109L41.1519 70.9646ZM51.1017 25.5823L51.0731 25.4864L51.0731 25.4864L51.1017 25.5823ZM45.7956 28.8665L45.7234 28.7973H45.7234L45.7956 28.8665ZM37.1302 28.1379V28.0379H37.0889L37.0596 28.0671L37.1302 28.1379ZM28.3127 36.9228L28.3833 36.9936L28.3127 36.9228ZM19.4196 45.9789L19.3232 45.9521L19.3232 45.9521L19.4196 45.9789ZM19.3877 46.4995L19.2892 46.5168V46.5168L19.3877 46.4995ZM26.7562 54.0648L26.6855 54.1355L26.7562 54.0648ZM34.3346 61.5144L34.288 61.6028L34.288 61.6028L34.3346 61.5144ZM34.9376 61.6013L34.9244 61.5022L34.9244 61.5022L34.9376 61.6013ZM44.1087 52.7636L44.0381 52.6927L44.1087 52.7636ZM52.9814 43.7004L52.8832 43.6819L52.8832 43.6819L52.9814 43.7004ZM52.7641 41.6181L52.863 41.6034L52.863 41.6034L52.7641 41.6181ZM52.192 37.7307L52.093 37.7451V37.7451L52.192 37.7307ZM51.8885 35.6536L51.8165 35.5841L51.7824 35.6195L51.7895 35.6681L51.8885 35.6536ZM52.4382 35.0843L52.3662 35.0149L52.4382 35.0843ZM55.5948 29.8298L55.4989 29.8013L55.4989 29.8013L55.5948 29.8298ZM55.5995 27.1835L55.692 27.1456V27.1456L55.5995 27.1835ZM54.2509 25.6941L54.2057 25.7833L54.2058 25.7833L54.2509 25.6941ZM52.762 25.384L52.7645 25.284H52.7645L52.762 25.384ZM51.7982 27.4894L51.8244 27.5859L51.8244 27.5859L51.7982 27.4894ZM48.8334 28.9761L48.8915 29.0575L48.8915 29.0575L48.8334 28.9761ZM49.3695 29.7889L49.3546 29.8878H49.3546L49.3695 29.7889ZM51.3152 31.7386L51.2161 31.7523L51.3152 31.7386ZM51.7226 32.8226L51.6448 32.7597L51.6448 32.7597L51.7226 32.8226ZM53.0624 30.7408L52.9731 30.6958L52.9731 30.6958L53.0624 30.7408ZM53.509 27.6503L53.5847 27.5849L53.5847 27.5849L53.509 27.6503ZM52.7908 27.3863L52.796 27.2865L52.796 27.2865L52.7908 27.3863ZM29.8595 38.2449L29.7889 38.1741L29.8595 38.2449ZM21.8077 46.2696L21.7371 46.1988L21.666 46.2696L21.7371 46.3404L21.8077 46.2696ZM28.2926 52.7348L28.222 52.8057L28.2926 52.7348ZM34.7775 59.2001L34.7069 59.2709L34.7775 59.3413L34.8481 59.2709L34.7775 59.2001ZM42.8519 51.1524L42.7813 51.0816L42.8519 51.1524ZM50.9263 43.1048L50.9969 43.1756L51.0325 43.1401L51.0253 43.0904L50.9263 43.1048ZM50.5095 40.2415L50.4105 40.2559V40.2559L50.5095 40.2415ZM50.0202 37.3836L50.0274 37.4833L50.0276 37.4833L50.0202 37.3836ZM49.3602 37.774L49.415 37.8577H49.415L49.3602 37.774ZM48.6313 38.7232L48.5343 38.6988L48.5343 38.6989L48.6313 38.7232ZM44.5925 42.633L44.6113 42.7312L44.5925 42.633ZM41.8452 42.4654L41.8787 42.3712L41.8787 42.3712L41.8452 42.4654ZM38.3333 37.1962L38.4331 37.2029V37.2029L38.3333 37.1962ZM43.179 32.3449L43.1874 32.4446L43.179 32.3449ZM48.1835 35.1658L48.0942 35.2107L48.0942 35.2107L48.1835 35.1658ZM48.5369 35.8461L48.6111 35.779L48.611 35.7789L48.5369 35.8461ZM49.2495 31.8227L49.3047 31.7393L49.3045 31.7392L49.2495 31.8227ZM48.2286 31.669L48.2147 31.7681L48.2286 31.669ZM39.4485 30.3922L39.4631 30.2933H39.4631L39.4485 30.3922ZM44.0603 34.5022L43.9835 34.4381L43.9835 34.4382L44.0603 34.5022ZM43.7352 37.2897L43.6646 37.3606L43.7352 37.2897ZM44.2772 37.5594L44.2956 37.4611L44.2956 37.4611L44.2772 37.5594ZM46.645 36.8794L46.7431 36.8984V36.8984L46.645 36.8794ZM45.8675 35.3814L45.9409 35.3135L45.9409 35.3135L45.8675 35.3814ZM41.312 35.26L41.3778 35.3353L41.3778 35.3353L41.312 35.26ZM40.7213 36.1042L40.811 36.1485L40.811 36.1484L40.7213 36.1042ZM40.6851 38.9238L40.7748 38.8797L40.7748 38.8796L40.6851 38.9238ZM42.2213 40.404L42.1781 40.4941L42.2213 40.404ZM43.5708 40.6698L43.5715 40.7698H43.5715L43.5708 40.6698ZM44.8332 40.4435L44.7913 40.3527H44.7913L44.8332 40.4435ZM46.045 39.4695L46.1166 39.3997L46.1166 39.3997L46.045 39.4695ZM45.4791 39.5133L45.4609 39.415L45.4609 39.415L45.4791 39.5133ZM43.1599 39.3466L43.1195 39.4381L43.1195 39.4381L43.1599 39.3466ZM41.7383 37.9203L41.8294 37.8791V37.8791L41.7383 37.9203ZM41.4976 36.5541L41.5976 36.5546V36.5546L41.4976 36.5541ZM51.0731 25.4864C49.3602 25.9975 47.0204 27.4462 45.7234 28.7973L45.8677 28.9358C47.142 27.6083 49.4522 26.1788 51.1303 25.6781L51.0731 25.4864ZM45.7234 28.7973C45.6463 28.8777 45.5561 28.9507 45.4741 29.003C45.4331 29.0292 45.3957 29.0491 45.3644 29.0622C45.3313 29.076 45.3123 29.0791 45.3055 29.0791V29.2791C45.3511 29.2791 45.3988 29.2646 45.4416 29.2467C45.4862 29.2281 45.5338 29.2021 45.5816 29.1716C45.6772 29.1107 45.7797 29.0275 45.8677 28.9358L45.7234 28.7973ZM45.3055 29.0791C45.3059 29.0791 45.304 29.0791 45.2983 29.0786C45.2931 29.0783 45.2861 29.0777 45.2773 29.0768C45.2598 29.0751 45.2361 29.0726 45.2065 29.0691C45.1474 29.0622 45.066 29.052 44.9648 29.0388C44.7624 29.0125 44.4817 28.9743 44.1432 28.9271C43.4661 28.8328 42.5582 28.7027 41.5829 28.5595L41.5538 28.7574C42.5295 28.9006 43.4379 29.0308 44.1156 29.1252C44.4544 29.1724 44.7357 29.2107 44.9389 29.2372C45.0405 29.2504 45.1229 29.2607 45.1834 29.2678C45.2403 29.2744 45.2852 29.2791 45.3055 29.2791V29.0791ZM41.5829 28.5595C40.607 28.4163 39.6695 28.2861 38.9452 28.1917C38.5831 28.1444 38.274 28.1061 38.0398 28.0796C37.8087 28.0534 37.6439 28.0379 37.5757 28.0379V28.2379C37.63 28.2379 37.7817 28.2516 38.0173 28.2783C38.2499 28.3047 38.5578 28.3428 38.9193 28.39C39.6424 28.4843 40.5788 28.6143 41.5538 28.7574L41.5829 28.5595ZM37.5757 28.0379H37.1302V28.2379H37.5757V28.0379ZM37.0596 28.0671L28.2421 36.852L28.3833 36.9936L37.2008 28.2087L37.0596 28.0671ZM28.2421 36.852C25.0186 40.0635 22.8088 42.2783 21.3979 43.7151C20.6925 44.4334 20.1863 44.9578 19.8527 45.3153C19.686 45.4939 19.5617 45.6317 19.4769 45.7316C19.4346 45.7814 19.4011 45.823 19.377 45.8561C19.3649 45.8727 19.3543 45.8882 19.3458 45.9024C19.3382 45.9152 19.3286 45.9327 19.3232 45.9521L19.5159 46.0058C19.514 46.0127 19.5124 46.0135 19.5175 46.005C19.5217 45.998 19.5284 45.9878 19.5385 45.9741C19.5585 45.9466 19.5884 45.9093 19.6294 45.861C19.7111 45.7647 19.8329 45.6296 19.9989 45.4517C20.3307 45.0962 20.8354 44.5733 21.5406 43.8552C22.9506 42.4193 25.1598 40.2052 28.3833 36.9936L28.2421 36.852ZM19.3232 45.9521C19.2782 46.114 19.2623 46.3633 19.2892 46.5168L19.4862 46.4823C19.465 46.3613 19.4779 46.1422 19.5159 46.0057L19.3232 45.9521ZM19.2892 46.5168C19.2951 46.5506 19.3148 46.584 19.3308 46.6088C19.3495 46.6379 19.3752 46.6728 19.4075 46.7133C19.4721 46.7947 19.5676 46.905 19.697 47.0477C19.9562 47.3333 20.356 47.7534 20.9276 48.3403C22.0711 49.5143 23.9054 51.3588 26.6855 54.1355L26.8269 53.994C24.0467 51.2172 22.2133 49.3737 21.0709 48.2008C20.4996 47.6142 20.1019 47.1962 19.8451 46.9133C19.7166 46.7717 19.6246 46.6652 19.5641 46.589C19.5337 46.5507 19.5125 46.5216 19.4989 46.5005C19.4825 46.4751 19.4844 46.4721 19.4862 46.4823L19.2892 46.5168ZM26.6855 54.1355C28.7 56.1475 30.5599 57.9917 31.9337 59.3422C32.6206 60.0174 33.1862 60.5693 33.5888 60.9572C33.7901 61.151 33.9509 61.3042 34.066 61.4114C34.1235 61.4649 34.1701 61.5074 34.2047 61.5379C34.222 61.5531 34.237 61.5658 34.2492 61.5757C34.2589 61.5836 34.2737 61.5953 34.288 61.6028L34.3813 61.4259C34.3868 61.4288 34.3865 61.4296 34.3749 61.4202C34.3658 61.4128 34.3532 61.4021 34.3368 61.3877C34.3043 61.359 34.2593 61.318 34.2023 61.265C34.0885 61.159 33.9286 61.0068 33.7276 60.8131C33.3256 60.426 32.7607 59.8746 32.0739 59.1995C30.7006 57.8495 28.8411 56.0057 26.8269 53.994L26.6855 54.1355ZM34.288 61.6028C34.4755 61.7017 34.7074 61.733 34.9509 61.7004L34.9244 61.5022C34.7125 61.5305 34.5243 61.5013 34.3813 61.4259L34.288 61.6028ZM34.9508 61.7004C35.0625 61.6855 35.1764 61.6287 35.405 61.4429C35.6353 61.2556 35.9959 60.9251 36.6027 60.3404C37.8174 59.1698 40.0287 56.9706 44.1792 52.8344L44.0381 52.6927C39.8869 56.8296 37.6771 59.0273 36.4639 60.1964C35.8568 60.7814 35.5018 61.1064 35.2788 61.2877C35.0542 61.4704 34.9772 61.4951 34.9244 61.5022L34.9508 61.7004ZM44.1792 52.8344C47.7089 49.3169 49.9173 47.1051 51.2485 45.7454C51.9139 45.0657 52.361 44.598 52.6445 44.2863C52.7861 44.1306 52.8882 44.0125 52.9566 43.9256C52.9907 43.8823 53.0176 43.8452 53.0372 43.814C53.0549 43.786 53.0734 43.7525 53.0797 43.7189L52.8832 43.6819C52.8844 43.6755 52.8842 43.6816 52.868 43.7075C52.8537 43.7303 52.8315 43.7612 52.7994 43.8019C52.7355 43.8832 52.6372 43.9972 52.4966 44.1518C52.2157 44.4606 51.7708 44.926 51.1056 45.6055C49.7754 46.9642 47.5679 49.1751 44.0381 52.6927L44.1792 52.8344ZM53.0797 43.7189C53.0852 43.6899 53.0865 43.6504 53.0863 43.6082C53.086 43.5638 53.0838 43.5091 53.08 43.4459C53.0723 43.3195 53.058 43.1556 53.0382 42.9661C52.9986 42.5871 52.937 42.1024 52.863 41.6034L52.6652 41.6327C52.7389 42.1294 52.8 42.6111 52.8393 42.9869C52.8589 43.1749 52.8729 43.3356 52.8803 43.458C52.884 43.5192 52.886 43.5701 52.8863 43.6095C52.8865 43.651 52.8847 43.6735 52.8832 43.6819L53.0797 43.7189ZM52.863 41.6034C52.7153 40.6077 52.4579 38.8586 52.2909 37.7162L52.093 37.7451C52.26 38.8876 52.5174 40.6369 52.6652 41.6327L52.863 41.6034ZM52.2909 37.7162L51.9874 35.6392L51.7895 35.6681L52.093 37.7451L52.2909 37.7162ZM51.9604 35.7231L52.5101 35.1538L52.3662 35.0149L51.8165 35.5841L51.9604 35.7231ZM52.5101 35.1538C53.9663 33.6459 55.1497 31.6771 55.6906 29.8583L55.4989 29.8013C54.9681 31.5862 53.8026 33.5275 52.3662 35.0149L52.5101 35.1538ZM55.6906 29.8583C55.8033 29.4794 55.8587 28.9386 55.8596 28.4295C55.8605 27.9233 55.8077 27.4278 55.692 27.1456L55.507 27.2214C55.6068 27.4649 55.6605 27.9266 55.6596 28.4291C55.6587 28.9287 55.604 29.4482 55.4989 29.8013L55.6906 29.8583ZM55.692 27.1456C55.4042 26.4435 54.9415 25.9313 54.296 25.6049L54.2058 25.7833C54.8058 26.0868 55.2363 26.5611 55.507 27.2214L55.692 27.1456ZM54.296 25.6049C54.0338 25.4722 53.8632 25.3945 53.6483 25.3497C53.4368 25.3057 53.1859 25.2943 52.7645 25.284L52.7596 25.484C53.1849 25.4944 53.417 25.5058 53.6075 25.5455C53.7946 25.5845 53.9451 25.6514 54.2057 25.7833L54.296 25.6049ZM52.7645 25.284C52.3752 25.2745 52.1103 25.2773 51.8629 25.3068C51.6147 25.3365 51.3875 25.3926 51.0731 25.4864L51.1303 25.6781C51.4406 25.5855 51.6551 25.5331 51.8866 25.5054C52.119 25.4777 52.3719 25.4745 52.7596 25.484L52.7645 25.284ZM51.772 27.3929C51.4023 27.4933 50.8489 27.7295 50.2936 28.008C49.7373 28.2869 49.171 28.6124 48.7754 28.8947L48.8915 29.0575C49.2757 28.7834 49.8321 28.4631 50.3833 28.1867C50.9355 27.9098 51.4745 27.6809 51.8244 27.5859L51.772 27.3929ZM48.7754 28.8947C48.4846 29.1022 48.2764 29.265 48.1592 29.3779C48.1296 29.4064 48.1043 29.4332 48.0843 29.4579C48.0656 29.4812 48.0464 29.5088 48.036 29.5388C48.0255 29.5689 48.0166 29.6274 48.0634 29.6737C48.1001 29.7099 48.1484 29.7129 48.1724 29.7129V29.5129C48.1587 29.5129 48.1812 29.5089 48.204 29.5314C48.2369 29.5639 48.2258 29.6018 48.2249 29.6046C48.2239 29.6072 48.226 29.6009 48.24 29.5835C48.2528 29.5676 48.2718 29.5471 48.2979 29.522C48.4037 29.4201 48.6013 29.2646 48.8915 29.0575L48.7754 28.8947ZM48.1724 29.7129C48.1659 29.7129 48.1616 29.7121 48.1697 29.7131C48.174 29.7136 48.1805 29.7144 48.1891 29.7156C48.2063 29.7179 48.2309 29.7213 48.2623 29.7258C48.325 29.7347 48.4138 29.7476 48.5222 29.7635C48.739 29.7954 49.0339 29.8394 49.3546 29.8878L49.3844 29.6901C49.0636 29.6416 48.7684 29.5976 48.5513 29.5657C48.4428 29.5497 48.3536 29.5368 48.2905 29.5278C48.2589 29.5233 48.2337 29.5198 48.2156 29.5174C48.2067 29.5162 48.1992 29.5152 48.1935 29.5145C48.1915 29.5143 48.181 29.5129 48.1724 29.5129V29.7129ZM49.3546 29.8878C49.7742 29.9511 50.0845 30.0005 50.3208 30.0643C50.5562 30.1278 50.7064 30.2027 50.8131 30.3096C50.9196 30.4163 50.9929 30.5652 51.0533 30.7977C51.114 31.0314 51.1588 31.3377 51.2161 31.7523L51.4142 31.7249C51.3574 31.3136 51.3111 30.9947 51.2469 30.7474C51.1823 30.4989 51.097 30.3109 50.9546 30.1683C50.8124 30.0258 50.6235 29.9388 50.3729 29.8712C50.1234 29.8038 49.8009 29.7529 49.3844 29.6901L49.3546 29.8878ZM51.2161 31.7523C51.2625 32.0885 51.2977 32.3428 51.3278 32.53C51.3574 32.7143 51.3833 32.843 51.4131 32.9222C51.4271 32.9596 51.4482 33.0038 51.4855 33.0326C51.5066 33.049 51.5329 33.0604 51.563 33.0621C51.5919 33.0638 51.617 33.0561 51.6361 33.0469C51.6713 33.03 51.7009 33.0011 51.7233 32.9769C51.7474 32.9509 51.7736 32.9186 51.8004 32.8854L51.6448 32.7597C51.617 32.7942 51.5952 32.8209 51.5766 32.8409C51.5563 32.8628 51.5484 32.8671 51.5497 32.8665C51.5519 32.8655 51.5608 32.8617 51.5744 32.8624C51.5892 32.8633 51.6009 32.869 51.6079 32.8745C51.6169 32.8815 51.6118 32.8826 51.6003 32.8518C51.5787 32.7945 51.5554 32.6857 51.5253 32.4983C51.4956 32.3137 51.4608 32.062 51.4142 31.7249L51.2161 31.7523ZM51.8004 32.8854C52.1315 32.4756 52.9067 31.2711 53.1517 30.7859L52.9731 30.6958C52.7344 31.1688 51.9668 32.3613 51.6448 32.7597L51.8004 32.8854ZM53.1517 30.7859C53.4894 30.1169 53.7072 29.4522 53.7883 28.8912C53.8288 28.6108 53.8356 28.3533 53.8044 28.1328C53.7734 27.913 53.7037 27.7228 53.5847 27.5849L53.4333 27.7156C53.5185 27.8144 53.5785 27.9633 53.6064 28.1607C53.6342 28.3573 53.629 28.5949 53.5903 28.8626C53.5129 29.3979 53.3032 30.0419 52.9731 30.6958L53.1517 30.7859ZM53.5847 27.5849C53.4929 27.4786 53.4084 27.4044 53.2822 27.358C53.1626 27.3141 53.012 27.2979 52.796 27.2865L52.7855 27.4862C53.0031 27.4977 53.1254 27.5135 53.2132 27.5458C53.2947 27.5757 53.3525 27.6221 53.4333 27.7156L53.5847 27.5849ZM52.796 27.2865C52.5032 27.2711 52.0459 27.3184 51.7719 27.3929L51.8244 27.5859C52.0771 27.5172 52.5131 27.4719 52.7855 27.4862L52.796 27.2865ZM29.7889 38.1741L21.7371 46.1988L21.8783 46.3404L29.9301 38.3157L29.7889 38.1741ZM21.7371 46.3404L28.222 52.8057L28.3632 52.664L21.8783 46.1988L21.7371 46.3404ZM28.222 52.8057L34.7069 59.2709L34.8481 59.1293L28.3632 52.664L28.222 52.8057ZM34.8481 59.2709L42.9225 51.2233L42.7813 51.0816L34.7069 59.1293L34.8481 59.2709ZM42.9225 51.2233L50.9969 43.1756L50.8557 43.0339L42.7813 51.0816L42.9225 51.2233ZM51.0253 43.0904L50.6084 40.2271L50.4105 40.2559L50.8274 43.1192L51.0253 43.0904ZM50.6084 40.2271C50.4937 39.4392 50.3812 38.7231 50.2924 38.2041C50.248 37.9447 50.2093 37.7337 50.1792 37.5873C50.1641 37.5144 50.1509 37.4558 50.1398 37.4148C50.1344 37.3949 50.1286 37.3759 50.1226 37.3608C50.1198 37.3539 50.115 37.3427 50.1077 37.3317C50.1042 37.3264 50.097 37.3164 50.0854 37.3069C50.0742 37.2978 50.0488 37.2812 50.0128 37.2839L50.0276 37.4833C49.9928 37.4859 49.9688 37.4699 49.959 37.4619C49.9488 37.4536 49.9431 37.4454 49.9412 37.4425C49.937 37.4362 49.9358 37.4323 49.9369 37.4351C49.9385 37.4392 49.9419 37.4491 49.9467 37.4671C49.9562 37.502 49.9685 37.5558 49.9833 37.6276C50.0128 37.7708 50.051 37.9792 50.0953 38.2378C50.1838 38.7548 50.296 39.4691 50.4105 40.2559L50.6084 40.2271ZM50.013 37.2839C49.9976 37.285 49.9844 37.2892 49.9778 37.2914C49.9697 37.2941 49.9614 37.2975 49.9536 37.3009C49.938 37.3077 49.9195 37.3169 49.8993 37.3275C49.8586 37.3488 49.806 37.3786 49.7455 37.4144C49.6243 37.4861 49.4679 37.5838 49.3053 37.6904L49.415 37.8577C49.5756 37.7524 49.7293 37.6563 49.8474 37.5865C49.9065 37.5515 49.9558 37.5236 49.9922 37.5046C50.0105 37.495 50.0242 37.4883 50.0337 37.4841C50.0385 37.4821 50.041 37.4811 50.0417 37.4809C50.044 37.4801 50.0378 37.4826 50.0274 37.4833L50.013 37.2839ZM49.3053 37.6904C49.0228 37.8756 48.8576 37.9845 48.7521 38.1218C48.6441 38.2624 48.6022 38.428 48.5343 38.6988L48.7283 38.7475C48.7992 38.4645 48.8332 38.3446 48.9107 38.2437C48.9907 38.1395 49.1204 38.0508 49.415 37.8577L49.3053 37.6904ZM48.5343 38.6989C48.0494 40.6345 46.4564 42.1744 44.5737 42.5348L44.6113 42.7312C46.5741 42.3555 48.2254 40.7549 48.7283 38.7475L48.5343 38.6989ZM44.5737 42.5348C44.2107 42.6043 43.6939 42.6198 43.1853 42.5888C42.676 42.5577 42.1873 42.4807 41.8787 42.3712L41.8118 42.5596C42.1464 42.6784 42.6569 42.7569 43.1731 42.7884C43.6901 42.8199 44.2254 42.8051 44.6113 42.7312L44.5737 42.5348ZM41.8787 42.3712C39.7135 41.603 38.2826 39.4544 38.4331 37.2029L38.2335 37.1895C38.0769 39.5325 39.5641 41.7622 41.8118 42.5596L41.8787 42.3712ZM38.4331 37.2029C38.6022 34.6711 40.6066 32.6626 43.1874 32.4446L43.1706 32.2453C40.4941 32.4714 38.4095 34.5563 38.2335 37.1895L38.4331 37.2029ZM43.1874 32.4446C45.1492 32.2789 47.2035 33.4365 48.0942 35.2107L48.2729 35.121C47.346 33.2745 45.2147 32.0726 43.1706 32.2453L43.1874 32.4446ZM48.0942 35.2107C48.1842 35.3899 48.269 35.5564 48.3333 35.6802C48.3655 35.742 48.3926 35.7935 48.4128 35.8308C48.4228 35.8494 48.4314 35.865 48.4382 35.8767C48.4415 35.8825 48.4448 35.888 48.4477 35.8927C48.4491 35.895 48.455 35.9046 48.4628 35.9132L48.611 35.7789C48.6169 35.7854 48.6199 35.7908 48.6172 35.7866C48.6162 35.7849 48.6143 35.7818 48.6116 35.777C48.6061 35.7675 48.5984 35.7537 48.5887 35.7357C48.5693 35.6998 48.5427 35.6494 48.5108 35.588C48.447 35.4652 48.3626 35.2996 48.2729 35.1209L48.0942 35.2107ZM48.4627 35.9131C48.4903 35.9436 48.5253 35.9488 48.5439 35.9491C48.5627 35.9493 48.579 35.9452 48.5893 35.9419C48.6108 35.9352 48.633 35.9241 48.6528 35.9129C48.6941 35.8897 48.7461 35.8543 48.8033 35.8124C48.9187 35.7279 49.0655 35.6091 49.2094 35.4857C49.3535 35.3621 49.4965 35.2324 49.6041 35.1257C49.6577 35.0726 49.704 35.0236 49.7376 34.9832C49.7542 34.9632 49.7695 34.9432 49.7811 34.9244C49.7869 34.915 49.793 34.9041 49.7979 34.8923C49.8023 34.8816 49.8087 34.8634 49.8087 34.8411H49.6087C49.6087 34.826 49.6129 34.8164 49.613 34.816C49.6137 34.8144 49.6135 34.8152 49.6112 34.819C49.6065 34.8266 49.5977 34.8386 49.5838 34.8554C49.5562 34.8886 49.515 34.9323 49.4633 34.9837C49.3601 35.0859 49.221 35.2123 49.0792 35.3338C48.9374 35.4555 48.7949 35.5707 48.6852 35.651C48.6298 35.6916 48.5854 35.7213 48.5547 35.7386C48.5472 35.7428 48.5412 35.7459 48.5366 35.7481C48.5318 35.7504 48.5297 35.7511 48.5297 35.751C48.5299 35.751 48.5312 35.7506 48.5337 35.7501C48.536 35.7497 48.5405 35.749 48.5467 35.7491C48.5578 35.7492 48.5871 35.7524 48.6111 35.779L48.4627 35.9131ZM49.8087 34.8411C49.8087 34.8137 49.8006 34.7441 49.7892 34.6551C49.7772 34.5618 49.7601 34.4373 49.7396 34.2927C49.6985 34.0034 49.6435 33.6322 49.5877 33.2654C49.532 32.8987 49.4753 32.536 49.431 32.2638C49.4088 32.1278 49.3897 32.0139 49.3752 31.9333C49.3679 31.8932 49.3617 31.8604 49.3568 31.8371C49.3544 31.8257 49.352 31.815 49.3497 31.8065C49.3486 31.8025 49.347 31.7967 49.3448 31.7908C49.3438 31.7881 49.3417 31.7828 49.3385 31.7768C49.3379 31.7755 49.3278 31.7546 49.3047 31.7393L49.1944 31.9061C49.1716 31.8911 49.162 31.8708 49.1619 31.8705C49.1592 31.8654 49.1577 31.8614 49.1573 31.8603C49.1563 31.8576 49.156 31.8565 49.1566 31.8584C49.1574 31.8616 49.1589 31.868 49.1611 31.8784C49.1654 31.8987 49.1712 31.9291 49.1783 31.9687C49.1925 32.0477 49.2115 32.1603 49.2336 32.296C49.2778 32.5672 49.3343 32.9291 49.39 33.2955C49.4458 33.6619 49.5007 34.0324 49.5416 34.3208C49.5621 34.4651 49.579 34.5885 49.5908 34.6805C49.5967 34.7266 49.6013 34.7644 49.6044 34.7928C49.6059 34.807 49.607 34.8184 49.6078 34.8272C49.6081 34.8316 49.6084 34.835 49.6085 34.8376C49.6087 34.8403 49.6087 34.8413 49.6087 34.8411H49.8087ZM49.3045 31.7392C49.2942 31.7324 49.2848 31.729 49.283 31.7284C49.2795 31.7271 49.2764 31.7262 49.2745 31.7257C49.2707 31.7246 49.267 31.7237 49.2642 31.7231C49.2583 31.7217 49.2511 31.7203 49.2434 31.7189C49.2276 31.716 49.2058 31.7123 49.179 31.7079C49.1252 31.6991 49.0491 31.6873 48.9564 31.6733C48.771 31.6454 48.5181 31.6087 48.2425 31.57L48.2147 31.7681C48.4898 31.8067 48.742 31.8433 48.9266 31.8711C49.019 31.885 49.0942 31.8967 49.1468 31.9053C49.1731 31.9096 49.1933 31.913 49.2069 31.9155C49.2138 31.9168 49.2182 31.9177 49.2205 31.9182C49.2217 31.9185 49.2213 31.9184 49.2199 31.918C49.2192 31.9179 49.2171 31.9173 49.2143 31.9162C49.2134 31.9159 49.2045 31.9128 49.1945 31.9062L49.3045 31.7392ZM48.2425 31.57C47.2027 31.4239 41.4908 30.5933 39.4631 30.2933L39.4338 30.4911C41.4617 30.7912 47.1741 31.6218 48.2147 31.7681L48.2425 31.57ZM39.4631 30.2933C39.1429 30.2459 38.8306 30.2028 38.5852 30.1716C38.3441 30.1408 38.1584 30.1202 38.0988 30.1202V30.3202C38.1423 30.3202 38.3117 30.3383 38.5599 30.37C38.8038 30.401 39.1148 30.4439 39.4338 30.4911L39.4631 30.2933ZM38.0988 30.1202C38.0802 30.1202 38.0651 30.125 38.057 30.1279C38.0477 30.1313 38.0394 30.1353 38.0325 30.139C38.0187 30.1464 38.004 30.156 37.9893 30.1664C37.9596 30.1874 37.9215 30.2175 37.8759 30.2559C37.7841 30.3329 37.6552 30.4483 37.4878 30.6032C37.1528 30.9134 36.6598 31.3855 35.9937 32.0342C34.6613 33.332 32.6342 35.3385 29.7889 38.1741L29.9301 38.3157C32.7753 35.4802 34.8017 33.4744 36.1332 32.1775C36.799 31.529 37.2906 31.0583 37.6237 30.75C37.7904 30.5957 37.9165 30.4829 38.0045 30.409C38.0486 30.3719 38.0817 30.346 38.1047 30.3297C38.1163 30.3215 38.1235 30.3172 38.1269 30.3153C38.1287 30.3144 38.1278 30.315 38.125 30.316C38.1232 30.3166 38.1134 30.3202 38.0988 30.3202V30.1202ZM43.9835 34.4382C43.9181 34.5167 43.8531 34.6539 43.7929 34.8114C43.7313 34.9726 43.6703 35.1671 43.6165 35.3697C43.5095 35.7725 43.4273 36.2194 43.4273 36.5082H43.6273C43.6273 36.2458 43.704 35.819 43.8098 35.4211C43.8623 35.2233 43.9212 35.0358 43.9797 34.8828C44.0396 34.726 44.095 34.6168 44.1372 34.5661L43.9835 34.4382ZM43.4273 36.5082C43.4273 36.7515 43.4344 36.9155 43.4681 37.0421C43.504 37.177 43.5685 37.2648 43.6646 37.3606L43.8058 37.2189C43.7246 37.138 43.6851 37.0799 43.6614 36.9907C43.6354 36.8931 43.6273 36.7546 43.6273 36.5082H43.4273ZM43.6646 37.3606C43.7323 37.428 43.8322 37.4925 43.9356 37.544C44.0397 37.5957 44.1555 37.6384 44.2588 37.6577L44.2956 37.4611C44.2151 37.446 44.1171 37.4109 44.0247 37.3649C43.9316 37.3186 43.8524 37.2654 43.8058 37.2189L43.6646 37.3606ZM44.2588 37.6577C44.4304 37.6898 44.6652 37.6795 44.9145 37.6451C45.1663 37.6105 45.4419 37.55 45.6991 37.4761C45.9559 37.4024 46.1979 37.3143 46.3814 37.2232C46.4728 37.1778 46.5532 37.1301 46.6142 37.0808C46.6714 37.0346 46.7286 36.9738 46.7431 36.8984L46.5468 36.8604C46.5468 36.8601 46.5456 36.8662 46.5359 36.879C46.5263 36.8915 46.511 36.907 46.4886 36.9252C46.4434 36.9617 46.3773 37.002 46.2925 37.0441C46.1235 37.1279 45.8938 37.2121 45.6439 37.2839C45.3945 37.3555 45.1283 37.4138 44.8873 37.447C44.6438 37.4805 44.4348 37.4871 44.2956 37.4611L44.2588 37.6577ZM46.7431 36.8984C46.7605 36.8087 46.7346 36.6893 46.6951 36.5705C46.6537 36.4459 46.5904 36.3022 46.5137 36.1545C46.3607 35.8598 46.1496 35.5392 45.9409 35.3135L45.7941 35.4493C45.9874 35.6584 46.189 35.963 46.3362 36.2466C46.4096 36.3882 46.4682 36.5219 46.5053 36.6335C46.5443 36.7508 46.5534 36.8262 46.5468 36.8604L46.7431 36.8984ZM45.9409 35.3135C45.6637 35.0139 45.2479 34.7309 44.8781 34.551C44.6932 34.461 44.5146 34.3942 44.3663 34.3651C44.2924 34.3506 44.221 34.3444 44.1578 34.3522C44.0951 34.36 44.0293 34.3832 43.9835 34.4381L44.1372 34.5662C44.1384 34.5647 44.1477 34.555 44.1824 34.5507C44.2167 34.5465 44.2651 34.5491 44.3278 34.5614C44.4526 34.5859 44.6139 34.6448 44.7906 34.7308C45.144 34.9028 45.5378 35.1722 45.7941 35.4493L45.9409 35.3135ZM41.2461 35.1848C41.1528 35.2665 41.0388 35.4062 40.9303 35.5611C40.8209 35.7175 40.7125 35.8961 40.6317 36.0599L40.811 36.1484C40.8867 35.9952 40.9895 35.8254 41.0942 35.6758C41.1999 35.5247 41.3029 35.4008 41.3778 35.3353L41.2461 35.1848ZM40.6317 36.0599C40.4995 36.3273 40.4227 36.4977 40.3817 36.7058C40.3413 36.9109 40.3366 37.1488 40.3366 37.55H40.5365C40.5365 37.1445 40.542 36.9269 40.578 36.7445C40.6133 36.565 40.6789 36.4158 40.811 36.1485L40.6317 36.0599ZM40.3366 37.55C40.3366 37.9389 40.3426 38.1781 40.3787 38.3777C40.4155 38.581 40.4828 38.7394 40.5954 38.968L40.7748 38.8796C40.6643 38.6554 40.6073 38.5173 40.5756 38.3421C40.5432 38.163 40.5365 37.9418 40.5365 37.55H40.3366ZM40.5954 38.968C40.9271 39.6413 41.4523 40.146 42.1781 40.4941L42.2646 40.3138C41.5757 39.9834 41.0851 39.5094 40.7748 38.8797L40.5954 38.968ZM42.1781 40.4941C42.4336 40.6167 42.6044 40.6893 42.8032 40.7285C43.0001 40.7673 43.2198 40.7723 43.5715 40.7698L43.5701 40.5698C43.2164 40.5723 43.0161 40.5666 42.8419 40.5323C42.6697 40.4984 42.5185 40.4356 42.2646 40.3138L42.1781 40.4941ZM43.5715 40.7698C43.8963 40.7675 44.1201 40.7566 44.3141 40.7218C44.5104 40.6866 44.6725 40.6277 44.875 40.5343L44.7913 40.3527C44.5978 40.4419 44.4527 40.4938 44.2789 40.5249C44.1028 40.5565 43.8935 40.5675 43.5701 40.5698L43.5715 40.7698ZM44.875 40.5343C45.1296 40.4171 45.4626 40.1915 45.7192 39.9853C45.8477 39.882 45.9607 39.7806 46.0369 39.697C46.0742 39.656 46.1072 39.6144 46.1276 39.5759C46.1377 39.557 46.1483 39.532 46.1513 39.504C46.1545 39.4735 46.1488 39.4327 46.1166 39.3997L45.9734 39.5393C45.9527 39.5181 45.9513 39.4934 45.9524 39.4829C45.9533 39.4749 45.9553 39.4739 45.9509 39.4823C45.9424 39.4984 45.9229 39.5252 45.889 39.5623C45.8229 39.635 45.7188 39.729 45.5939 39.8294C45.3437 40.0305 45.025 40.245 44.7913 40.3527L44.875 40.5343ZM46.1166 39.3997C46.1015 39.3842 46.0849 39.3762 46.0748 39.3721C46.0639 39.3676 46.0532 39.3649 46.0444 39.3631C46.0268 39.3595 46.0075 39.3578 45.9889 39.357C45.951 39.3555 45.9033 39.3572 45.8502 39.3613C45.7434 39.3696 45.6053 39.3882 45.4609 39.415L45.4973 39.6116C45.6364 39.5859 45.7674 39.5683 45.8657 39.5607C45.9152 39.5569 45.954 39.5558 45.9806 39.5569C45.9941 39.5574 46.0015 39.5585 46.0043 39.559C46.0057 39.5593 46.0036 39.559 45.9995 39.5574C45.9964 39.5561 45.9851 39.5513 45.9734 39.5394L46.1166 39.3997ZM45.4609 39.415C45.1101 39.4801 44.6652 39.4941 44.2447 39.4639C43.8223 39.4335 43.4366 39.3594 43.2002 39.2551L43.1195 39.4381C43.3872 39.5562 43.7998 39.6325 44.2303 39.6634C44.6627 39.6945 45.1254 39.6807 45.4974 39.6116L45.4609 39.415ZM43.2002 39.2552C42.6153 38.9972 42.1034 38.4842 41.8294 37.8791L41.6472 37.9616C41.9407 38.6098 42.4878 39.1596 43.1195 39.4381L43.2002 39.2552ZM41.8294 37.8791C41.7227 37.6434 41.6656 37.4919 41.6341 37.3128C41.6021 37.1312 41.5955 36.917 41.5976 36.5546L41.3976 36.5535C41.3955 36.9148 41.4016 37.1459 41.4371 37.3475C41.4731 37.5516 41.5385 37.7214 41.6472 37.9616L41.8294 37.8791ZM41.5976 36.5546C41.6001 36.1022 41.6424 35.5752 41.6885 35.3845L41.4941 35.3375C41.4422 35.5524 41.4001 36.0992 41.3976 36.5535L41.5976 36.5546ZM41.6885 35.3845C41.7135 35.2814 41.7329 35.1864 41.7439 35.1161C41.7493 35.0815 41.7532 35.05 41.7542 35.0256C41.7547 35.0144 41.7549 34.9986 41.7522 34.983C41.751 34.9761 41.7479 34.9602 41.7381 34.9435C41.7273 34.9251 41.6989 34.8923 41.6492 34.8923V35.0923C41.6016 35.0923 41.575 35.0607 41.5657 35.0449C41.5573 35.0307 41.5554 35.0186 41.5551 35.0166C41.5541 35.0109 41.5547 35.0096 41.5544 35.0172C41.5538 35.0302 41.5514 35.0529 41.5463 35.0851C41.5364 35.1485 41.5182 35.2379 41.4941 35.3375L41.6885 35.3845ZM41.6492 34.8923C41.6256 34.8923 41.6075 34.9007 41.6043 34.9021C41.5972 34.9052 41.5909 34.9087 41.5861 34.9114C41.5765 34.9171 41.5658 34.9242 41.5553 34.9317C41.5337 34.9469 41.5062 34.9679 41.4751 34.9926C41.4124 35.0423 41.3311 35.1104 41.2461 35.1848L41.3778 35.3353C41.4611 35.2624 41.5398 35.1965 41.5994 35.1492C41.6294 35.1255 41.6535 35.1071 41.6705 35.0951C41.6792 35.089 41.6846 35.0856 41.6871 35.0841C41.6885 35.0832 41.6874 35.084 41.6845 35.0853C41.6831 35.0859 41.6798 35.0873 41.6752 35.0886C41.6714 35.0897 41.6619 35.0923 41.6492 35.0923V34.8923Z" fill="white" mask="url(#path-1-outside-1_2426_4028)"/>
<rect x="36.5" y="69.5" width="6" height="15" rx="3" stroke="#FDC114" stroke-width="3"/>
<rect x="36.5" y="2.5" width="6" height="15" rx="3" stroke="#FDC114" stroke-width="3"/>
<rect x="14.938" y="54.0568" width="6" height="15" rx="3" transform="rotate(59.1624 14.938 54.0568)" stroke="#FDC114" stroke-width="3"/>
<rect x="73.938" y="20.0568" width="6" height="15" rx="3" transform="rotate(59.1624 73.938 20.0568)" stroke="#FDC114" stroke-width="3"/>
<rect x="61.0637" y="59.1729" width="6" height="15" rx="3" transform="rotate(-58.388 61.0637 59.1729)" stroke="#FDC114" stroke-width="3"/>
<rect x="2.06367" y="25.1729" width="6" height="15" rx="3" transform="rotate(-58.388 2.06367 25.1729)" stroke="#FDC114" stroke-width="3"/>
</svg>
