<svg width="91" height="91" viewBox="0 0 91 91" fill="none" xmlns="http://www.w3.org/2000/svg">
<path fill-rule="evenodd" clip-rule="evenodd" d="M39.6968 0.346837C34.4489 1.02035 27.5731 3.3068 23.1724 5.84165C15.2254 10.4193 8.68535 17.3071 4.61388 25.3879C1.77037 31.0313 0 38.6952 0 45.3617C0 48.6047 0.0717479 49.0353 0.663931 49.3524C1.0292 49.5476 1.57469 49.7075 1.87576 49.7075C2.54209 49.7075 9.95554 42.971 9.95554 42.3657C9.95554 41.9375 8.55696 40.4437 8.15565 40.4437C8.03961 40.4437 7.7406 40.6386 7.49103 40.877C7.2418 41.1151 6.12643 42.1575 5.01278 43.193L2.98838 45.0756L3.21358 41.8161C3.89673 31.9271 8.55284 22.218 16.0881 14.9692C26.9287 4.54059 41.8682 0.716703 56.7112 4.57079C62.518 6.07873 69.2473 9.71323 73.5742 13.6785L75.5714 15.5086L76.6638 14.3976L77.7562 13.2863L75.8681 11.5615C73.7163 9.59589 68.9678 6.30552 66.4268 5.01888C58.3048 0.906439 48.5803 -0.793298 39.6968 0.346837ZM60.2767 19.0546C59.7257 19.3524 58.5523 20.3114 57.669 21.1849C54.9058 23.9181 50.5079 26.1448 44.285 27.9616C39.6364 29.3185 35.4603 29.8033 28.3966 29.8054C21.0505 29.8078 20.1473 30.0212 18.7435 32.0857C17.8599 33.385 17.8513 33.4615 17.8513 39.929C17.8513 46.2397 17.8788 46.5008 18.667 47.6602C19.4741 48.847 20.2221 49.3709 22.0567 50.0351C22.5757 50.2228 23.0007 50.6256 23.0007 50.93C23.0007 51.2343 23.4576 53.5152 24.0158 55.9993C24.5744 58.483 25.4422 62.368 25.9448 64.6325C26.4471 66.897 26.9998 69.0198 27.1731 69.3502C27.455 69.8882 28.1306 69.9506 33.6624 69.9506H39.8369L40.2145 69.1227C40.5482 68.3902 40.3704 67.9616 38.6766 65.4172C35.7685 61.0495 33.8066 56.2573 32.8416 51.1657L32.6301 50.0506H34.3699C36.8022 50.0506 42.4219 51.2415 46.6753 52.6582C51.4464 54.2474 55.3205 56.3376 57.6089 58.5572C60.6107 61.4687 62.4116 62.0191 64.8583 60.7719C67.0433 59.6585 67.4223 58.7438 67.6221 54.1061L67.8006 49.9593L69.5171 49.4196C71.938 48.6586 74.8275 45.7323 75.6243 43.2348C76.3562 40.9405 76.3682 39.0376 75.6659 36.674C74.9237 34.1755 71.9881 31.1994 69.4279 30.3496L67.629 29.7522L67.6283 26.0916C67.628 21.8862 67.1576 20.5303 65.2609 19.2639C63.8806 18.3419 61.7576 18.2527 60.2767 19.0546ZM61.3563 22.0077C60.9965 22.944 61.0892 56.9257 61.4531 57.6054C61.9097 58.458 63.2218 58.4851 63.9712 57.6575C64.4841 57.0914 64.5393 55.3563 64.5393 39.8693C64.5393 23.68 64.5036 22.6764 63.9115 22.1408C63.1699 21.47 61.5942 21.388 61.3563 22.0077ZM57.3405 25.5063C56.6487 26.3394 50.1766 29.3175 46.5504 30.4717C44.6811 31.0666 41.6272 31.8136 39.7638 32.1313L36.3762 32.7091L36.4685 39.9139L36.5609 47.1188L38.2773 47.3867C44.9287 48.425 53.466 51.4762 56.878 54.0347C57.4792 54.4852 58.0586 54.854 58.1654 54.854C58.2725 54.854 58.36 48.1378 58.36 39.929C58.36 31.596 58.2268 25.004 58.0586 25.004C57.8932 25.004 57.5698 25.2301 57.3405 25.5063ZM22.4738 32.8789C20.8998 33.5164 20.7693 34.0568 20.7693 39.9451C20.7693 47.4121 20.3261 46.9626 27.6884 46.9626H33.2996V39.7575V32.5523L28.236 32.5739C25.4508 32.5859 22.8579 32.7231 22.4738 32.8789ZM67.629 39.9112V46.927L68.6929 46.5564C70.0406 46.0867 72.0252 44.1176 72.6452 42.6351C73.9171 39.5921 72.7516 35.9459 69.8879 34.0105C68.9805 33.3974 68.101 32.8954 67.9335 32.8954C67.766 32.8954 67.629 36.0526 67.629 39.9112ZM86.0038 43.9667C84.4981 45.3315 82.7216 46.9421 82.0559 47.5463L80.8458 48.6445L81.9118 49.7202L82.978 50.7958L85.3447 48.6929L87.7117 46.59L87.8253 48.2345C88.1669 53.1838 85.2414 62.3986 81.4569 68.2924C77.2217 74.8886 70.8982 80.5299 64.0244 83.8442C48.4807 91.3394 29.4512 88.5849 16.8887 77.022L15.4112 75.6619L14.314 76.776L13.2168 77.89L14.59 79.1129C17.4363 81.648 21.3114 84.3109 24.5885 85.9842C31.7589 89.6451 37.2711 90.9791 45.3149 90.9997C51.0561 91.0144 54.5042 90.5149 59.4555 88.9517C77.8526 83.1433 90.8069 65.7555 90.9967 46.6158C91.0575 40.4591 90.3108 40.0632 86.0038 43.9667ZM26.0904 50.7155C26.0904 51.0813 26.6136 53.6672 27.2528 56.4625C27.892 59.2578 28.675 62.7413 28.9926 64.2036L29.57 66.8627H32.6363C34.3229 66.8627 35.7026 66.7707 35.7026 66.6582C35.7026 66.546 35.4259 66.044 35.0878 65.5431C32.8296 62.1975 30.9634 57.1281 29.6689 50.8226C29.5298 50.1467 29.2978 50.0506 27.8003 50.0506C26.3375 50.0506 26.0904 50.1467 26.0904 50.7155Z" fill="#249DAE"/>
<path fill-rule="evenodd" clip-rule="evenodd" d="M39.6968 0.346837C34.4489 1.02035 27.5731 3.3068 23.1724 5.84165C15.2254 10.4193 8.68535 17.3071 4.61388 25.3879C1.77037 31.0313 0 38.6952 0 45.3617C0 48.6047 0.0717479 49.0353 0.663931 49.3524C1.0292 49.5476 1.57469 49.7075 1.87576 49.7075C2.54209 49.7075 9.95554 42.971 9.95554 42.3657C9.95554 41.9375 8.55696 40.4437 8.15565 40.4437C8.03961 40.4437 7.7406 40.6386 7.49103 40.877C7.2418 41.1151 6.12643 42.1575 5.01278 43.193L2.98838 45.0756L3.21358 41.8161C3.89673 31.9271 8.55284 22.218 16.0881 14.9692C26.9287 4.54059 41.8682 0.716703 56.7112 4.57079C62.518 6.07873 69.2473 9.71323 73.5742 13.6785L75.5714 15.5086L76.6638 14.3976L77.7562 13.2863L75.8681 11.5615C73.7163 9.59589 68.9678 6.30552 66.4268 5.01888C58.3048 0.906439 48.5803 -0.793298 39.6968 0.346837ZM86.0038 43.9667C84.4981 45.3315 82.7216 46.9421 82.0559 47.5463L80.8458 48.6445L81.9118 49.7202L82.978 50.7958L85.3447 48.6929L87.7117 46.59L87.8253 48.2345C88.1669 53.1838 85.2414 62.3986 81.4569 68.2924C77.2217 74.8886 70.8982 80.5299 64.0244 83.8442C48.4807 91.3394 29.4512 88.5849 16.8887 77.022L15.4112 75.6619L14.314 76.776L13.2168 77.89L14.59 79.1129C17.4363 81.648 21.3114 84.3109 24.5885 85.9842C31.7589 89.6451 37.2711 90.9791 45.3149 90.9997C51.0561 91.0144 54.5042 90.5149 59.4555 88.9517C77.8526 83.1433 90.8069 65.7555 90.9967 46.6158C91.0575 40.4591 90.3108 40.0632 86.0038 43.9667Z" fill="#FDD304"/>
<rect x="24" y="35" width="6" height="3" fill="#FDD304"/>
<rect x="24" y="40" width="6" height="3" fill="#FDD304"/>
</svg>
