<svg width="92" height="119" viewBox="0 0 92 119" fill="none" xmlns="http://www.w3.org/2000/svg">
<path fill-rule="evenodd" clip-rule="evenodd" d="M11.8599 0.24908C10.2556 0.630801 9.76344 0.851748 9.03671 1.51617C7.672 2.76414 7.42399 4.23938 8.07257 7.25241L8.43936 8.95696L7.69971 9.33726C6.32721 10.0427 5.52731 11.3875 5.52171 12.9988L5.51828 13.9746L4.62311 14.1686C2.62523 14.6016 1.21584 15.6507 0.422788 17.295C-0.267665 18.7265 -0.186244 19.6297 1.22082 26.1579C2.46861 31.9469 4.03027 39.2952 4.97993 43.8463C5.279 45.2795 5.60219 46.6504 5.69809 46.8928C5.93691 47.4958 6.40847 47.7946 7.12166 47.7946C7.8775 47.7946 8.63194 47.1074 8.63194 46.419C8.63194 46.1704 7.4816 40.5326 6.07563 33.8909C4.66966 27.2491 3.39866 21.2376 3.25107 20.5319C2.99202 19.2931 2.99295 19.2284 3.27754 18.647C3.43961 18.3158 3.74739 17.9163 3.96145 17.7593C4.32466 17.4929 6.07687 17.0352 6.20718 17.1727C6.23956 17.2068 7.1872 21.6056 8.3131 26.9476C9.43915 32.2896 10.4646 37.0363 10.592 37.4957C10.8937 38.5832 11.7766 39.506 12.7546 39.7557C13.1414 39.8546 13.4581 39.9735 13.4581 40.0198C13.4581 40.1423 15.1698 48.1381 15.2663 48.4667C15.3283 48.6777 15.1789 48.8175 14.6413 49.0513C13.6994 49.4609 12.5911 50.521 12.082 51.4997L11.6677 52.2956V78.3544V104.413L12.1041 105.987C12.916 108.916 14.2823 111.403 16.2476 113.531C18.876 116.376 22.5086 118.331 26.15 118.858C27.038 118.987 32.402 119.023 44.9838 118.986C62.4928 118.935 62.5819 118.933 63.8425 118.59C68.9059 117.213 73.1106 113.693 75.2655 109.028C75.9745 107.493 76.593 105.418 76.7355 104.096C76.9346 102.246 76.5653 102.439 79.9126 102.439C82.3193 102.439 83.0573 102.383 84.0432 102.128C87.7483 101.166 90.6803 98.2042 91.7252 94.3666C91.9788 93.4356 92 92.2075 92 78.4333C92 66.459 91.9586 63.3371 91.7905 62.6402C91.6751 62.1624 91.2646 61.1011 90.8778 60.2818C90.2942 59.0447 89.9598 58.5737 88.9046 57.5033C87.8618 56.4455 87.3697 56.0835 86.1585 55.4835C84.1734 54.5 82.9387 54.2698 79.6499 54.2698H77.0168L76.9125 53.3345C76.7129 51.544 75.6616 49.9804 74.1311 49.1975C73.7696 49.0126 73.4506 48.8406 73.4222 48.8153C73.3939 48.7899 74.2246 45.7604 75.2683 42.0831C76.312 38.4057 78.1337 31.9856 79.3164 27.8162C80.4993 23.6468 81.9979 18.3681 82.6467 16.0858C83.2958 13.8034 83.8267 11.6988 83.8267 11.4089C83.8267 10.4709 83.359 10.1912 80.2906 9.29351C78.7676 8.84783 75.2054 7.80501 72.3745 6.97603C69.5437 6.1472 67.0136 5.46888 66.752 5.46888C66.4905 5.46888 66.0925 5.61576 65.8677 5.79517C65.4097 6.16062 65.3059 6.47507 63.2924 13.6024C62.6052 16.0345 60.7518 22.5729 59.1738 28.1321C57.5957 33.6913 55.6489 40.5665 54.8476 43.4106L53.3907 48.5812L52.1842 48.5828L50.9776 48.5842L50.9757 29.0402C50.9737 8.03922 51.0017 8.80724 50.1779 7.1049C49.6688 6.0526 47.9778 4.35262 46.9272 3.8365C45.6472 3.20777 44.1662 2.9475 41.8702 2.9475C38.4374 2.9475 36.6788 3.53216 35.0187 5.22535C34.5042 5.75016 33.8935 6.54029 33.6617 6.98108C32.7251 8.76144 32.7627 7.83454 32.7627 29.1128V48.5842H31.1385C29.7257 48.5842 29.5042 48.5482 29.4352 48.3079C29.3426 47.9843 28.6884 44.9504 27.7074 40.2943L27.0089 36.9793L27.4921 36.5955C28.0096 36.1847 28.7109 34.8377 28.7134 34.2497C28.7144 34.0531 28.0098 30.5707 27.1479 26.5111C26.286 22.4514 25.2053 17.3532 24.7465 15.1817C24.2875 13.0101 23.8281 10.8425 23.7255 10.3648C23.4705 9.17649 23.0931 8.47527 22.3351 7.78053C21.5346 7.04678 21.0971 6.85837 19.9283 6.74402L19.0034 6.65337L18.5765 4.65253C18.3417 3.55222 18.0386 2.43391 17.9028 2.16764C17.5828 1.53954 16.7011 0.649912 16.0633 0.311148C15.3319 -0.0773636 13.3543 -0.106582 11.8599 0.24908ZM12.3428 3.39903C11.0698 3.73195 10.8115 3.9371 10.8115 4.6151C10.8115 5.06031 11.3993 8.14267 11.5097 8.27596C11.5547 8.33045 15.8212 7.38838 15.9023 7.3061C16.0371 7.16949 15.1474 3.65156 14.9112 3.38671C14.5894 3.02615 13.7536 3.0301 12.3428 3.39903ZM39.2236 6.31129C38.2378 6.56809 37.26 7.22382 36.7517 7.96878C36.0888 8.94054 35.8764 9.79511 35.8764 11.4902V13.0496H41.8833H47.89L47.8381 11.1939C47.7931 9.5898 47.7335 9.23366 47.398 8.56703C46.9693 7.71546 46.0652 6.88158 45.1275 6.4727C44.3214 6.1213 40.3682 6.01327 39.2236 6.31129ZM67.8511 9.13085C67.7219 9.34311 66.5778 13.4356 66.6306 13.4972C66.6553 13.5261 67.855 13.8975 69.2963 14.3227C71.3584 14.9307 71.9917 15.1823 72.2672 15.5028C72.7206 16.0299 72.7355 16.9611 72.2994 17.5235C71.769 18.2075 71.2307 18.1898 68.5297 17.3997C67.1806 17.005 65.9848 16.682 65.8724 16.682C65.7423 16.682 65.404 17.6123 64.9391 19.2484C64.5381 20.66 64.2102 21.892 64.2103 21.9865C64.2105 22.0808 65.2441 22.4568 66.507 22.8219C69.3862 23.6542 69.7403 23.8157 70.0587 24.4404C70.2723 24.8593 70.286 25.0485 70.139 25.5461C69.9236 26.2759 69.461 26.6319 68.7296 26.6311C68.4276 26.6308 67.0987 26.3105 65.7765 25.9193C64.4541 25.528 63.3251 25.2618 63.2675 25.3275C63.0672 25.5562 61.7247 30.6483 61.8387 30.7474C61.9017 30.8024 62.899 31.1157 64.055 31.4436C66.8499 32.2364 67.2921 32.4277 67.5637 32.9607C67.8399 33.5026 67.8513 33.9064 67.6053 34.4538C67.4137 34.8805 66.7559 35.318 66.306 35.318C66.1656 35.318 64.9023 34.9851 63.4989 34.5781C62.0954 34.1711 60.9033 33.8825 60.8499 33.9367C60.7965 33.9909 60.4171 35.2171 60.0069 36.6615C59.2634 39.2794 59.2621 39.2884 59.5951 39.4274C59.779 39.5041 60.9802 39.8708 62.2646 40.2426C64.9433 41.0176 65.3004 41.2644 65.3004 42.3395C65.3004 42.8543 65.2055 43.09 64.8637 43.4219C64.2592 44.0096 63.7878 43.9747 60.88 43.128C59.5234 42.733 58.3975 42.4309 58.3778 42.4568C58.3582 42.4827 57.9541 43.8727 57.4795 45.5456L56.6169 48.5876L63.4016 48.5463L70.1864 48.5053L71 45.6625C71.4474 44.099 73.1937 37.9515 74.8805 32.0014C76.5675 26.0513 78.4948 19.2652 79.1637 16.9208C79.8323 14.5766 80.3666 12.6456 80.3509 12.6295C80.3201 12.5984 74.8474 10.9865 70.5505 9.74315C69.114 9.32747 67.8992 9.05188 67.8511 9.13085ZM17.1945 10.2981C16.2954 10.5049 14.2287 10.9616 12.6018 11.3128C10.975 11.6641 9.45036 12.0298 9.21372 12.1257C8.37833 12.4642 8.17407 11.2653 12.6601 32.3549C13.154 34.6776 13.5917 36.6116 13.6323 36.653C13.6731 36.6942 14.6137 36.5246 15.7228 36.276C16.8319 36.0274 19.4558 35.4536 21.5536 35.0009C23.6514 34.5482 25.4106 34.152 25.4631 34.1204C25.5593 34.0623 25.4273 33.3996 23.7506 25.5262C23.242 23.1375 22.3228 18.8023 21.708 15.8924C21.0934 12.9825 20.4903 10.4418 20.3678 10.2463C20.0783 9.78405 19.3793 9.79542 17.1945 10.2981ZM35.8764 18.0245V19.8407H41.8702H47.864V18.0245V16.2082H41.8702H35.8764V18.0245ZM35.8764 35.7875V48.5842H38.1347H40.3931L40.3532 35.8313L40.3134 23.0783L38.0949 23.0345L35.8764 22.9906V35.7875ZM43.5049 35.7918V48.5842H45.6844H47.864V35.7918V22.9993H45.6844H43.5049V35.7918ZM20.1914 38.5273C17.7595 39.0603 16.5718 39.3869 16.5718 39.5229C16.5718 39.6341 16.9921 41.6921 17.5058 44.0963C18.0196 46.5003 18.4399 48.4936 18.4399 48.5258C18.4399 48.5579 20.1914 48.5842 22.332 48.5842C24.4726 48.5842 26.2241 48.526 26.2241 48.4549C26.2241 48.3838 25.8009 46.3405 25.2838 43.9144C24.7667 41.4882 24.2689 39.1478 24.1775 38.7135C24.0861 38.2792 23.9662 37.8812 23.9111 37.8289C23.856 37.7767 22.1822 38.0909 20.1914 38.5273ZM15.9545 51.9491C15.6448 52.0575 15.2621 52.3681 15.0565 52.6785L14.6981 53.2192L14.7408 78.6582L14.7834 104.097L15.1404 105.282C16.0114 108.172 17.834 110.996 19.9191 112.684C21.2192 113.737 23.0891 114.748 24.8229 115.336L26.1462 115.784L43.6605 115.829C62.985 115.878 62.2674 115.91 64.8857 114.886C67.3084 113.938 69.9409 111.768 71.4253 109.496C72.2879 108.175 73.0351 106.451 73.4359 104.855L73.7851 103.466V78.3266V53.1875L73.4627 52.7416C73.2854 52.4964 72.9001 52.1714 72.6065 52.0196C72.1039 51.7596 70.4425 51.7438 44.2833 51.752C23.1767 51.7587 16.3642 51.8061 15.9545 51.9491ZM76.9766 59.1657V60.9029H79.3059C81.2827 60.9029 81.7662 60.9525 82.4993 61.2308C83.6851 61.6809 84.7689 62.7747 85.2076 63.964L85.5457 64.8811L85.5035 78.6456L85.4613 92.4103L85.1043 93.0886C84.554 94.1341 83.7297 94.9636 82.7619 95.4457C81.932 95.8592 81.7374 95.8881 79.4286 95.9409L76.9766 95.9969V97.6386V99.2803L79.74 99.2784C82.8185 99.2764 83.5432 99.1467 85.0603 98.3264C86.1767 97.7228 87.5456 96.3 88.1241 95.1417C88.953 93.4825 88.9586 93.3702 88.9615 78.4153C88.9632 69.7046 88.9056 64.2632 88.8062 63.7277C88.3798 61.4331 86.8084 59.3438 84.732 58.3106C83.2371 57.5668 82.4084 57.4284 79.4464 57.4284H76.9766V59.1657ZM76.9766 78.4333V92.8051H78.8995C81.1249 92.8051 81.675 92.6575 82.1099 91.9435C82.4202 91.434 82.4255 91.208 82.4255 78.2805V65.1355L81.8962 64.5985L81.3669 64.0616H79.1717H76.9766V78.4333ZM25.6431 69.1067C24.2463 69.6195 23.0547 70.7288 22.4312 72.0968C22.1014 72.8204 22.0985 72.9229 22.0985 83.882V94.9372L22.5335 95.8358C23.1615 97.1331 24.4104 98.2396 25.7043 98.645C26.7022 98.9577 27.097 98.9645 44.2714 98.9645C63.5657 98.9645 62.6037 99.0115 64.1185 97.9937C64.9719 97.4202 65.7858 96.3733 66.1875 95.332C66.4374 94.6847 66.4662 93.7173 66.5104 84.4663C66.542 77.8286 66.5021 73.9996 66.395 73.4111C66.0567 71.5504 65.0809 70.2173 63.3989 69.3183L62.576 68.8785L44.5168 68.8429C27.1378 68.8088 26.4269 68.8188 25.6431 69.1067ZM26.4414 72.1838C26.1757 72.3012 25.7903 72.636 25.5852 72.9278L25.2121 73.4585V83.882V94.3055L25.5593 94.7993C26.317 95.8769 25.1007 95.8144 44.4164 95.7684C61.7523 95.7272 61.8552 95.725 62.2825 95.4012C62.519 95.2221 62.8568 94.8794 63.0334 94.6395C63.3499 94.2094 63.3544 94.0601 63.3544 83.8983V73.5932L62.9711 73.0259C62.2 71.8844 63.4902 71.9575 44.2391 71.9643C30.049 71.9694 26.8375 72.009 26.4414 72.1838Z" fill="#058FA2"/>
<path fill-rule="evenodd" clip-rule="evenodd" d="M12.3428 3.39903C11.0698 3.73195 10.8115 3.9371 10.8115 4.6151C10.8115 5.06031 11.3993 8.14267 11.5097 8.27596C11.5547 8.33045 15.8212 7.38839 15.9023 7.3061C16.0371 7.16949 15.1474 3.65156 14.9112 3.38671C14.5894 3.02615 13.7536 3.0301 12.3428 3.39903ZM39.2236 6.31129C38.2378 6.56809 37.26 7.22382 36.7517 7.96878C36.0888 8.94054 35.8764 9.79511 35.8764 11.4902V13.0496H41.8833H47.89L47.8381 11.1939C47.7931 9.5898 47.7335 9.23366 47.398 8.56703C46.9693 7.71546 46.0652 6.88158 45.1275 6.4727C44.3214 6.1213 40.3682 6.01327 39.2236 6.31129ZM25.6431 69.1067C24.2463 69.6195 23.0547 70.7288 22.4312 72.0968C22.1014 72.8204 22.0985 72.9229 22.0985 83.882V94.9372L22.5335 95.8358C23.1615 97.1331 24.4104 98.2396 25.7043 98.645C26.7022 98.9577 27.097 98.9645 44.2714 98.9645C63.5657 98.9645 62.6037 99.0115 64.1185 97.9937C64.9719 97.4202 65.7858 96.3733 66.1875 95.332C66.4374 94.6847 66.4662 93.7173 66.5104 84.4663C66.542 77.8286 66.5021 73.9996 66.395 73.4111C66.0567 71.5504 65.0809 70.2173 63.3989 69.3183L62.576 68.8785L44.5168 68.8429C27.1378 68.8088 26.4269 68.8188 25.6431 69.1067ZM26.4414 72.1838C26.1757 72.3012 25.7903 72.636 25.5852 72.9278L25.2121 73.4585V83.882V94.3055L25.5593 94.7993C26.317 95.8769 25.1007 95.8144 44.4164 95.7684C61.7523 95.7272 61.8552 95.725 62.2825 95.4012C62.519 95.2221 62.8568 94.8794 63.0334 94.6395C63.3499 94.2095 63.3544 94.0601 63.3544 83.8983V73.5932L62.9711 73.0259C62.2 71.8844 63.4901 71.9575 44.2391 71.9643C30.049 71.9694 26.8375 72.009 26.4414 72.1838Z" fill="#FDD304"/>
</svg>
