<svg width="100" height="84" viewBox="0 0 100 84" fill="none" xmlns="http://www.w3.org/2000/svg">
<path fill-rule="evenodd" clip-rule="evenodd" d="M4.83118 0.301113C2.77002 0.919187 0.909553 2.83025 0.300407 4.95536C0.115163 5.60123 0 17.2631 0 35.3655V64.7279L0.803652 66.3418C1.66257 68.066 2.90495 69.181 4.59993 69.7488C5.32764 69.9925 10.2863 70.1003 20.7678 70.1003C35.8464 70.1003 35.8856 70.1018 35.7207 70.7322C35.63 71.0797 34.8843 73.5767 34.064 76.2816L32.5722 81.1991L28.75 81.2868C25.2945 81.3662 24.8876 81.435 24.5088 82.0065C24.1519 82.5452 24.1602 82.7391 24.5665 83.3192L25.0429 84H50.0161H74.9892L75.4656 83.3192C75.8719 82.7391 75.8802 82.5452 75.5233 82.0065C75.1445 81.435 74.7376 81.3662 71.2821 81.2868L67.4599 81.1991L65.9681 76.2816C65.1478 73.5767 64.4022 71.0797 64.3114 70.7322C64.1465 70.1018 64.1866 70.1003 79.3875 70.0935C93.4658 70.0873 94.7233 70.0437 95.8641 69.5239C97.7348 68.6717 99.2896 66.7653 99.7138 64.8036C99.9741 63.5989 100.045 55.2751 99.9744 34.1154L99.8777 5.08046L99.192 3.79767C98.3501 2.22237 96.6817 0.805831 95.1163 0.336329C93.6986 -0.0883843 6.2446 -0.122674 4.83118 0.301113ZM4.72343 3.36925C2.68697 4.61127 2.77867 3.38655 2.77867 29.3123V52.8028H50.0161H97.2534V29.4516C97.2534 3.59875 97.3297 4.602 95.2713 3.34639C94.3525 2.78577 92.8193 2.766 50.0161 2.766C6.61786 2.766 5.69164 2.77836 4.72343 3.36925ZM20.9944 7.2831C15.3599 8.36172 11.1801 11.9877 9.57375 17.1902C6.8133 26.1317 13.5732 35.1965 23.0012 35.1965C29.9395 35.1965 35.6324 30.3029 36.8297 23.3089C37.915 16.9721 33.9742 10.3902 27.7018 8.06179C25.9275 7.40325 22.4662 7.0014 20.9944 7.2831ZM51.3128 7.76774C51.0429 8.0377 50.9423 10.4158 50.9423 16.5332C50.9423 23.6937 51.0117 24.9855 51.415 25.3203C51.7808 25.6239 55.5691 25.7342 68.1642 25.8074C86.3888 25.9137 88.4759 25.8287 88.9394 24.9623C89.3518 24.1913 88.8208 23.2233 87.9146 23.0945C87.22 22.9957 87.2194 22.9904 87.136 16.0702C87.0823 11.596 86.9322 8.99925 86.7124 8.73423C86.2938 8.22952 80.2381 8.15508 79.3261 8.64342C78.7623 8.94551 78.729 9.35972 78.729 16.0566V23.1501H77.3396H75.9503V18.7331C75.9503 15.7094 75.8333 14.199 75.5798 13.9454C75.3362 13.7017 74.0361 13.5747 71.7823 13.5747C69.5285 13.5747 68.2284 13.7017 67.9848 13.9454C67.7313 14.199 67.6143 15.7094 67.6143 18.7331V23.1501H66.225H64.8356V20.4319C64.8356 18.7297 64.6973 17.5754 64.4651 17.3431C64.2191 17.0969 62.8757 16.9724 60.4623 16.9724C56.1378 16.9724 56.1909 16.9267 56.1909 20.6587V23.1501H54.9559H53.7209V15.6442C53.7209 7.76249 53.6595 7.39708 52.3316 7.39708C51.975 7.39708 51.5165 7.56387 51.3128 7.76774ZM20.0462 10.2904C16.8776 11.1454 14.1777 13.4737 12.7001 16.6265C11.9977 18.1252 11.8875 18.7637 11.893 21.2968C11.8983 23.6981 12.0307 24.524 12.6216 25.8432C13.8612 28.6105 13.7791 28.6321 17.9172 24.4514L21.6119 20.7186V15.2934C21.6119 12.3095 21.577 9.87741 21.5347 9.88884C21.4924 9.90057 20.8224 10.0813 20.0462 10.2904ZM24.3905 15.8219V21.7107L20.2086 25.9331C15.643 30.5429 15.7532 30.2331 18.2157 31.5282C19.4198 32.1618 20.037 32.2594 22.8468 32.2606C25.7793 32.2621 26.2578 32.1791 27.8605 31.3917C30.1254 30.2788 32.1446 28.2547 33.2351 26.0036C33.9856 24.4542 34.0952 23.8621 34.1048 21.2968C34.1143 18.751 34.0072 18.1301 33.2946 16.6095C31.7871 13.3922 28.792 10.9264 25.4853 10.1801L24.3905 9.93331V15.8219ZM81.5076 17.1269V23.1501H83.0513H84.5951V17.1269V11.1037H83.0513H81.5076V17.1269ZM70.2123 16.4662C70.1166 16.7161 70.0833 18.2874 70.1382 19.9581L70.2386 22.9957H71.7289H73.2192L73.2207 19.5979L73.222 16.2002L71.8045 16.106C70.7767 16.0378 70.3386 16.1366 70.2123 16.4662ZM59.1755 19.6495C59.0622 19.7626 58.9695 20.5966 58.9695 21.5028V23.1501H60.5132H62.057V21.2968V19.4435H60.7192C59.9831 19.4435 59.2885 19.5362 59.1755 19.6495ZM51.4273 30.1219C51.0105 30.5392 50.9423 31.7735 50.9423 38.9031C50.9423 46.0327 51.0105 47.267 51.4273 47.6843C51.8574 48.1143 53.9738 48.1696 70.0583 48.1696C87.2456 48.1696 88.2311 48.1396 88.7152 47.6046C89.37 46.8809 89.3589 46.5325 88.6615 45.9009C88.1505 45.4381 86.4694 45.3897 70.9089 45.3897H53.7209V43.8931V42.3969L56.1137 40.4991C57.4295 39.4554 58.6694 38.5998 58.8686 38.5979C59.068 38.5958 59.6238 38.9235 60.1036 39.326C62.1826 41.0687 63.3787 41.6831 64.6936 41.6831C66.0897 41.6831 65.7236 41.9135 72.0395 37.0563C73.3695 36.0333 74.569 35.1965 74.7055 35.1965C74.8416 35.1965 75.7549 35.8566 76.7345 36.6637C78.3486 37.9931 78.6651 38.1309 80.105 38.1309C81.6336 38.1309 81.8179 38.0321 84.9198 35.5545C86.6942 34.1374 88.2465 32.7094 88.3697 32.3811C88.6655 31.5943 87.6118 30.4932 86.8405 30.7832C86.5395 30.8963 85.027 32.0051 83.4793 33.2472C81.9315 34.4892 80.4175 35.5054 80.1149 35.5054C79.812 35.5054 78.9945 35.0405 78.2977 34.4722C76.5239 33.026 75.8617 32.7255 74.4458 32.7255C73.163 32.7255 73.1864 32.7103 66.5837 37.8177C65.5923 38.5847 64.6674 39.212 64.5281 39.212C64.3889 39.212 63.4938 38.5757 62.5398 37.7979C61.5855 37.0202 60.3774 36.2612 59.8553 36.1114C58.5805 35.7457 56.9417 36.3369 55.1427 37.8118L53.7209 38.9776V34.7925C53.7209 31.3997 53.6292 30.5154 53.2359 30.1219C52.9688 29.855 52.5619 29.6366 52.3316 29.6366C52.1013 29.6366 51.6944 29.855 51.4273 30.1219ZM9.43852 39.3884C8.86087 39.9666 8.81116 40.7993 9.32398 41.3124C9.85069 41.8394 24.7283 41.8394 25.255 41.3124C25.8293 40.7379 25.6944 39.9129 24.9392 39.3841C23.912 38.664 10.1588 38.6681 9.43852 39.3884ZM9.49379 45.7232C8.87353 46.0846 8.77813 47.2528 9.32398 47.7989C9.85748 48.3327 38.6149 48.3327 39.1484 47.7989C39.3521 47.5951 39.5189 47.1364 39.5189 46.7796C39.5189 46.4229 39.3521 45.9642 39.1484 45.7603C38.6655 45.2772 10.32 45.242 9.49379 45.7232ZM2.83424 60.3949L2.93304 65.2073L4.08619 66.2636L5.23964 67.3203L49.7799 67.3157C84.5151 67.3123 94.4837 67.2273 95.0626 66.9296C95.4708 66.7199 96.096 66.1562 96.4519 65.6774C97.0284 64.9015 97.1099 64.3035 97.1985 60.1947L97.2979 55.5828H50.0167H2.73514L2.83424 60.3949ZM38.6013 70.8496C38.2314 71.8229 35.5052 80.7919 35.5052 81.0357C35.5052 81.137 42.0351 81.2201 50.0161 81.2201C57.997 81.2201 64.525 81.116 64.5226 80.9884C64.5204 80.8608 63.7865 78.3938 62.8918 75.5057L61.2653 70.2547L50.0772 70.1738L38.889 70.0926L38.6013 70.8496Z" fill="#249DAE"/>
<mask id="path-2-inside-1_2864_5089" fill="white">
<path fill-rule="evenodd" clip-rule="evenodd" d="M21.0437 7.09122C15.4091 8.16984 11.2294 11.7958 9.62301 16.9983C6.86256 25.9399 13.6224 35.0046 23.0505 35.0046C29.9888 35.0046 35.6817 30.111 36.879 23.117C37.9642 16.7803 34.0234 10.1983 27.7511 7.86991C25.9767 7.21137 22.5154 6.80952 21.0437 7.09122ZM51.362 7.57586C51.0922 7.84582 50.9915 10.2239 50.9915 16.3413C50.9915 23.5019 51.061 24.7936 51.4642 25.1284C51.8301 25.4321 55.6183 25.5423 68.2134 25.6155C86.4381 25.7218 88.5252 25.6369 88.9886 24.7704C89.4011 23.9995 88.8701 23.0314 87.9639 22.9026C87.2692 22.8038 87.2686 22.7985 87.1852 15.8783C87.1315 11.4041 86.9815 8.80737 86.7617 8.54235C86.343 8.03764 80.2873 7.9632 79.3753 8.45154C78.8116 8.75363 78.7782 9.16784 78.7782 15.8647V22.9582H77.3889H75.9996V18.5412C75.9996 15.5175 75.8825 14.0071 75.6291 13.7535C75.3855 13.5098 74.0854 13.3829 71.8316 13.3829C69.5777 13.3829 68.2776 13.5098 68.034 13.7535C67.7806 14.0071 67.6635 15.5175 67.6635 18.5412V22.9582H66.2742H64.8849V20.24C64.8849 18.5378 64.7466 17.3835 64.5144 17.1512C64.2683 16.905 62.925 16.7806 60.5116 16.7806C56.187 16.7806 56.2401 16.7348 56.2401 20.4668V22.9582H55.0052H53.7702V15.4524C53.7702 7.57061 53.7088 7.2052 52.3809 7.2052C52.0243 7.2052 51.5658 7.37199 51.362 7.57586ZM20.0955 10.0985C16.9269 10.9535 14.227 13.2818 12.7493 16.4346C12.0469 17.9333 11.9367 18.5718 11.9423 21.1049C11.9475 23.5062 12.08 24.3321 12.6709 25.6514C13.9105 28.4186 13.8284 28.4403 17.9664 24.2595L21.6611 20.5267V15.1015C21.6611 12.1177 21.6262 9.68553 21.5839 9.69696C21.5416 9.70869 20.8717 9.88939 20.0955 10.0985ZM24.4398 15.63V21.5188L20.2579 25.7412C15.6922 30.351 15.8025 30.0412 18.265 31.3364C19.4691 31.9699 20.0862 32.0675 22.8961 32.0687C25.8285 32.0703 26.3071 31.9872 27.9097 31.1998C30.1747 30.0869 32.1938 28.0628 33.2843 25.8117C34.0349 24.2623 34.1445 23.6702 34.154 21.1049C34.1636 18.5591 34.0565 17.9383 33.3439 16.4176C31.8363 13.2003 28.8412 10.7345 25.5346 9.98823L24.4398 9.74143V15.63ZM81.5569 16.935V22.9582H83.1006H84.6443V16.935V10.9118H83.1006H81.5569V16.935ZM70.2616 16.2743C70.1659 16.5242 70.1325 18.0955 70.1875 19.7662L70.2879 22.8038H71.7781H73.2684L73.27 19.4061L73.2712 16.0084L71.8538 15.9141C70.826 15.8459 70.3879 15.9447 70.2616 16.2743ZM59.2247 19.4577C59.1114 19.5707 59.0188 20.4047 59.0188 21.3109V22.9582H60.5625H62.1062V21.1049V19.2516H60.7684C60.0324 19.2516 59.3377 19.3443 59.2247 19.4577Z"/>
</mask>
<path fill-rule="evenodd" clip-rule="evenodd" d="M21.0437 7.09122C15.4091 8.16984 11.2294 11.7958 9.62301 16.9983C6.86256 25.9399 13.6224 35.0046 23.0505 35.0046C29.9888 35.0046 35.6817 30.111 36.879 23.117C37.9642 16.7803 34.0234 10.1983 27.7511 7.86991C25.9767 7.21137 22.5154 6.80952 21.0437 7.09122ZM51.362 7.57586C51.0922 7.84582 50.9915 10.2239 50.9915 16.3413C50.9915 23.5019 51.061 24.7936 51.4642 25.1284C51.8301 25.4321 55.6183 25.5423 68.2134 25.6155C86.4381 25.7218 88.5252 25.6369 88.9886 24.7704C89.4011 23.9995 88.8701 23.0314 87.9639 22.9026C87.2692 22.8038 87.2686 22.7985 87.1852 15.8783C87.1315 11.4041 86.9815 8.80737 86.7617 8.54235C86.343 8.03764 80.2873 7.9632 79.3753 8.45154C78.8116 8.75363 78.7782 9.16784 78.7782 15.8647V22.9582H77.3889H75.9996V18.5412C75.9996 15.5175 75.8825 14.0071 75.6291 13.7535C75.3855 13.5098 74.0854 13.3829 71.8316 13.3829C69.5777 13.3829 68.2776 13.5098 68.034 13.7535C67.7806 14.0071 67.6635 15.5175 67.6635 18.5412V22.9582H66.2742H64.8849V20.24C64.8849 18.5378 64.7466 17.3835 64.5144 17.1512C64.2683 16.905 62.925 16.7806 60.5116 16.7806C56.187 16.7806 56.2401 16.7348 56.2401 20.4668V22.9582H55.0052H53.7702V15.4524C53.7702 7.57061 53.7088 7.2052 52.3809 7.2052C52.0243 7.2052 51.5658 7.37199 51.362 7.57586ZM20.0955 10.0985C16.9269 10.9535 14.227 13.2818 12.7493 16.4346C12.0469 17.9333 11.9367 18.5718 11.9423 21.1049C11.9475 23.5062 12.08 24.3321 12.6709 25.6514C13.9105 28.4186 13.8284 28.4403 17.9664 24.2595L21.6611 20.5267V15.1015C21.6611 12.1177 21.6262 9.68553 21.5839 9.69696C21.5416 9.70869 20.8717 9.88939 20.0955 10.0985ZM24.4398 15.63V21.5188L20.2579 25.7412C15.6922 30.351 15.8025 30.0412 18.265 31.3364C19.4691 31.9699 20.0862 32.0675 22.8961 32.0687C25.8285 32.0703 26.3071 31.9872 27.9097 31.1998C30.1747 30.0869 32.1938 28.0628 33.2843 25.8117C34.0349 24.2623 34.1445 23.6702 34.154 21.1049C34.1636 18.5591 34.0565 17.9383 33.3439 16.4176C31.8363 13.2003 28.8412 10.7345 25.5346 9.98823L24.4398 9.74143V15.63ZM81.5569 16.935V22.9582H83.1006H84.6443V16.935V10.9118H83.1006H81.5569V16.935ZM70.2616 16.2743C70.1659 16.5242 70.1325 18.0955 70.1875 19.7662L70.2879 22.8038H71.7781H73.2684L73.27 19.4061L73.2712 16.0084L71.8538 15.9141C70.826 15.8459 70.3879 15.9447 70.2616 16.2743ZM59.2247 19.4577C59.1114 19.5707 59.0188 20.4047 59.0188 21.3109V22.9582H60.5625H62.1062V21.1049V19.2516H60.7684C60.0324 19.2516 59.3377 19.3443 59.2247 19.4577Z" fill="#FDD304"/>
<path d="M51.4766 29.93L50.4163 28.869L50.4153 28.87L51.4766 29.93ZM51.4766 47.4925L50.4153 48.5525L50.416 48.5533L51.4766 47.4925ZM53.7702 45.1978H52.2702V46.6978H53.7702V45.1978ZM53.7702 42.205L52.8381 41.0298L52.2702 41.4802V42.205H53.7702ZM56.1629 40.3072L57.0951 41.4825L57.0951 41.4824L56.1629 40.3072ZM58.9178 38.4061L58.9318 39.906L58.9341 39.906L58.9178 38.4061ZM60.1528 39.1341L59.1888 40.2833L59.1892 40.2837L60.1528 39.1341ZM72.0887 36.8644L73.0032 38.0535L73.0033 38.0534L72.0887 36.8644ZM76.7838 36.4718L75.8299 37.6295L75.8301 37.6297L76.7838 36.4718ZM84.9691 35.3626L84.033 34.1906L84.033 34.1906L84.9691 35.3626ZM88.419 32.1892L87.0149 31.6613L87.0146 31.6623L88.419 32.1892ZM86.8898 30.5913L87.4172 31.9956L87.4178 31.9953L86.8898 30.5913ZM78.3469 34.2803L79.295 33.1179L79.2948 33.1178L78.3469 34.2803ZM66.633 37.6258L65.7152 36.4394L65.7151 36.4394L66.633 37.6258ZM62.5891 37.6061L63.5369 36.4435L63.5367 36.4433L62.5891 37.6061ZM59.9046 35.9196L60.3183 34.4777L60.3182 34.4777L59.9046 35.9196ZM55.192 37.62L54.241 36.46L54.2409 36.46L55.192 37.62ZM53.7702 38.7857H52.2702V41.9553L54.7213 39.9456L53.7702 38.7857ZM53.2852 29.93L54.3461 28.8696L54.3455 28.869L53.2852 29.93ZM9.48778 39.1965L8.4271 38.1359L8.42659 38.1364L9.48778 39.1965ZM9.54305 45.5314L8.78807 44.2352L8.7879 44.2353L9.54305 45.5314ZM39.1976 45.5684L40.2585 44.508L39.1976 45.5684ZM50.4153 28.87C50.0331 29.2526 49.8597 29.7148 49.7623 30.1428C49.6682 30.5568 49.6156 31.0766 49.58 31.7208C49.5081 33.0231 49.4915 35.1605 49.4915 38.7112H52.4915C52.4915 35.1324 52.5091 33.0878 52.5755 31.8862C52.609 31.2785 52.6517 30.9659 52.6876 30.8082C52.7202 30.6647 52.7117 30.816 52.5379 30.99L50.4153 28.87ZM49.4915 38.7112C49.4915 42.262 49.5081 44.3994 49.58 45.7017C49.6156 46.3459 49.6682 46.8657 49.7623 47.2797C49.8597 47.7077 50.0331 48.1698 50.4153 48.5525L52.5379 46.4324C52.7117 46.6064 52.7202 46.7578 52.6876 46.6142C52.6517 46.4566 52.609 46.144 52.5755 45.5362C52.5091 44.3346 52.4915 42.2901 52.4915 38.7112H49.4915ZM50.416 48.5533C50.9242 49.0613 51.6308 49.175 52.1158 49.2374C52.709 49.3137 53.584 49.362 54.8826 49.3958C57.5003 49.464 62.0738 49.4777 70.1075 49.4777V46.4777C62.0568 46.4777 57.5299 46.4638 54.9607 46.3968C53.6659 46.3631 52.9259 46.3169 52.4986 46.2619C51.9632 46.193 52.244 46.1386 52.5371 46.4317L50.416 48.5533ZM89.7176 44.5971C89.2491 44.1729 88.6761 44.0306 88.1281 43.9499C87.5601 43.8662 86.738 43.8155 85.5212 43.7805C83.0649 43.7097 78.7279 43.6978 70.9581 43.6978V46.6978C78.7489 46.6978 83.0327 46.7101 85.4348 46.7792C86.6473 46.8142 87.3138 46.8623 87.6909 46.9179C88.0882 46.9764 87.9169 47.0137 87.7039 46.8208L89.7176 44.5971ZM70.9581 43.6978H53.7702V46.6978H70.9581V43.6978ZM55.2702 45.1978V43.7012H52.2702V45.1978H55.2702ZM55.2702 43.7012V42.205H52.2702V43.7012H55.2702ZM54.7023 43.3802L57.0951 41.4825L55.2308 39.132L52.8381 41.0298L54.7023 43.3802ZM57.0951 41.4824C57.7327 40.9767 58.3446 40.5225 58.8111 40.2005C59.047 40.0378 59.2281 39.921 59.348 39.8506C59.4103 39.814 59.4326 39.8039 59.4245 39.8076C59.4208 39.8093 59.3874 39.8248 59.333 39.8425C59.3004 39.8531 59.1462 39.904 58.9318 39.906L58.9039 36.9061C58.6646 36.9083 58.4774 36.9661 58.4041 36.9899C58.309 37.0209 58.2273 37.056 58.1681 37.0834C58.0489 37.1383 57.9314 37.2035 57.8288 37.2637C57.6192 37.3868 57.3707 37.5495 57.1072 37.7314C56.575 38.0986 55.909 38.5941 55.2308 39.132L57.0951 41.4824ZM58.9341 39.906C58.7687 39.9078 58.6517 39.8776 58.6163 39.868C58.5916 39.8613 58.5738 39.8554 58.564 39.8519C58.5539 39.8483 58.5484 39.846 58.548 39.8458C58.548 39.8458 58.5591 39.8506 58.5821 39.8624C58.6044 39.8739 58.6333 39.8898 58.6684 39.9105C58.8159 39.9974 59.0075 40.1312 59.1888 40.2833L61.1168 37.9849C60.8183 37.7345 60.4922 37.5032 60.192 37.3262C60.0431 37.2384 59.877 37.15 59.707 37.0788C59.5889 37.0293 59.2767 36.9021 58.9016 36.9061L58.9341 39.906ZM59.1892 40.2837C61.2987 42.0518 62.855 42.9912 64.7429 42.9912V39.9912C64.0009 39.9912 63.1651 39.7018 61.1164 37.9845L59.1892 40.2837ZM64.7429 42.9912C64.9743 42.9912 65.4402 43.015 65.8973 42.9198C66.4097 42.8131 66.8673 42.5853 67.3703 42.2685C68.3206 41.6699 69.8932 40.4452 73.0032 38.0535L71.1743 35.6754C67.9684 38.1409 66.5661 39.2295 65.7714 39.73C65.402 39.9627 65.2946 39.9809 65.2856 39.9828C65.2214 39.9962 65.2095 39.9912 64.7429 39.9912V42.9912ZM73.0033 38.0534C73.6545 37.5525 74.2677 37.1019 74.7275 36.7811C74.9598 36.6191 75.1387 36.5001 75.2576 36.4265C75.3198 36.388 75.3441 36.3752 75.3406 36.377C75.3404 36.3771 75.3081 36.3941 75.2547 36.4145C75.2499 36.4164 75.0417 36.5046 74.7547 36.5046V33.5046C74.4507 33.5046 74.2171 33.5994 74.179 33.614C74.0925 33.6473 74.0191 33.6832 73.9704 33.7082C73.87 33.7597 73.7679 33.8203 73.6776 33.8763C73.4917 33.9915 73.2621 34.1456 73.0111 34.3207C72.5046 34.674 71.853 35.1533 71.1742 35.6754L73.0033 38.0534ZM74.7547 36.5046C74.5085 36.5046 74.3295 36.4406 74.2946 36.4284C74.2316 36.4064 74.1898 36.386 74.179 36.3807C74.1558 36.3693 74.1595 36.3695 74.2006 36.395C74.2777 36.4428 74.403 36.5274 74.5741 36.6511C74.911 36.8947 75.3589 37.2414 75.8299 37.6295L77.7376 35.3141C77.229 34.8951 76.7304 34.5082 76.3318 34.22C76.1351 34.0778 75.9453 33.947 75.7822 33.8458C75.7033 33.7968 75.6056 33.7391 75.5026 33.6885C75.4519 33.6635 75.3755 33.6282 75.2837 33.5961C75.22 33.5739 75.018 33.5046 74.7547 33.5046V36.5046ZM75.8301 37.6297C76.6048 38.2677 77.2483 38.7801 77.9356 39.0793C78.7006 39.4123 79.4093 39.439 80.1543 39.439V36.439C79.4593 36.439 79.2898 36.3969 79.133 36.3286C78.8986 36.2266 78.5768 36.0054 77.7374 35.314L75.8301 37.6297ZM80.1543 39.439C80.9842 39.439 81.7192 39.4163 82.6794 38.9025C83.4565 38.4866 84.4088 37.7299 85.9052 36.5347L84.033 34.1906C82.4275 35.4729 81.7367 36.0044 81.2639 36.2574C80.9744 36.4123 80.853 36.439 80.1543 36.439V39.439ZM85.9052 36.5347C86.8146 35.8083 87.6735 35.0743 88.3287 34.4716C88.6546 34.1718 88.9443 33.8915 89.169 33.6531C89.2803 33.5351 89.3908 33.4113 89.4864 33.29C89.5519 33.2068 89.7198 32.9922 89.8234 32.7161L87.0146 31.6623C87.0874 31.4682 87.1798 31.3701 87.1299 31.4334C87.1101 31.4586 87.0652 31.5113 86.986 31.5954C86.8295 31.7614 86.5972 31.9882 86.2977 32.2636C85.7024 32.8112 84.8979 33.4998 84.033 34.1906L85.9052 36.5347ZM89.823 32.717C90.2623 31.5487 89.6503 30.4845 89.1382 29.9494C88.6351 29.4237 87.571 28.7326 86.3618 29.1873L87.4178 31.9953C87.1955 32.0789 87.0249 32.0331 86.9766 32.0153C86.9324 31.999 86.9408 31.9922 86.9708 32.0236C87.0001 32.0542 86.9993 32.0684 86.9892 32.0379C86.9784 32.0052 86.9406 31.8592 87.0149 31.6613L89.823 32.717ZM86.3624 29.1871C86.0934 29.2881 85.7924 29.4881 85.6216 29.6024C85.3883 29.7583 85.1035 29.9602 84.7898 30.1902C84.1603 30.6517 83.3778 31.253 82.5897 31.8854L84.4673 34.2252C85.227 33.6156 85.9746 33.0414 86.5635 32.6097C86.859 32.393 87.1055 32.2189 87.2889 32.0964C87.5347 31.932 87.5357 31.9511 87.4172 31.9956L86.3624 29.1871ZM82.5897 31.8854C81.8426 32.485 81.1116 33.0233 80.5434 33.4047C80.2567 33.5972 80.0316 33.7361 79.8774 33.8208C79.8406 33.841 79.8117 33.856 79.7902 33.8666C79.7681 33.8775 79.759 33.8813 79.761 33.8804C79.7625 33.8798 79.7691 33.8771 79.7803 33.8731C79.7912 33.8693 79.8102 33.8629 79.836 33.8558C79.8723 33.8458 79.994 33.8135 80.1642 33.8135V36.8135C80.5202 36.8135 80.8136 36.6913 80.9032 36.6545C81.0484 36.5947 81.1925 36.5212 81.3223 36.4499C81.5855 36.3053 81.8923 36.1124 82.2154 35.8956C82.8668 35.4584 83.6667 34.8676 84.4673 34.2252L82.5897 31.8854ZM80.1642 33.8135C80.3018 33.8135 80.3925 33.8374 80.4082 33.8415C80.4331 33.848 80.4356 33.8506 80.4113 33.8408C80.3619 33.8209 80.2718 33.7784 80.1447 33.7061C79.8922 33.5625 79.5824 33.3523 79.295 33.1179L77.3988 35.4427C77.8083 35.7767 78.2557 36.0831 78.6619 36.314C78.8641 36.429 79.0787 36.5382 79.2896 36.6232C79.455 36.6899 79.7863 36.8135 80.1642 36.8135V33.8135ZM79.2948 33.1178C78.4048 32.3921 77.6645 31.8424 76.9064 31.4986C76.0815 31.1244 75.3299 31.0336 74.4951 31.0336V34.0336C75.0761 34.0336 75.3636 34.093 75.6673 34.2307C76.0377 34.3987 76.5153 34.7224 77.399 35.4429L79.2948 33.1178ZM74.4951 31.0336C74.2011 31.0336 73.7602 31.0243 73.2514 31.166C72.754 31.3046 72.281 31.5574 71.7435 31.9055C70.6955 32.5842 68.9805 33.9135 65.7152 36.4394L67.5507 38.8123C70.8881 36.2307 72.4628 35.0139 73.3744 34.4234C73.8168 34.1369 73.9912 34.0742 74.0565 34.056C74.1104 34.041 74.1477 34.0336 74.4951 34.0336V31.0336ZM65.7151 36.4394C65.2385 36.8081 64.7851 37.1376 64.4436 37.3692C64.2703 37.4867 64.1429 37.5674 64.064 37.6133C64.0222 37.6377 64.017 37.6387 64.0382 37.6289C64.0483 37.6243 64.0878 37.6062 64.1475 37.5868C64.1818 37.5756 64.3486 37.5201 64.5774 37.5201V40.5201C64.8236 40.5201 65.0139 40.4597 65.0775 40.439C65.1665 40.41 65.2412 40.3777 65.2918 40.3544C65.3941 40.3074 65.4918 40.2534 65.5717 40.2069C65.7364 40.1112 65.9284 39.9871 66.1276 39.852C66.5313 39.5782 67.036 39.2105 67.5508 38.8122L65.7151 36.4394ZM64.5774 37.5201C64.8116 37.5201 64.9823 37.5781 65.0203 37.5909C65.0831 37.612 65.125 37.6318 65.1368 37.6374C65.1615 37.6491 65.1594 37.6499 65.12 37.626C65.0461 37.5812 64.9248 37.5009 64.7581 37.3823C64.4299 37.149 63.9941 36.8162 63.5369 36.4435L61.6413 38.7687C62.138 39.1737 62.6268 39.5479 63.0195 39.8272C63.2132 39.9649 63.4013 40.0923 63.5643 40.1911C63.6433 40.239 63.7414 40.2956 63.8453 40.3451C63.8968 40.3697 63.9732 40.4039 64.0649 40.4347C64.1317 40.4571 64.3257 40.5201 64.5774 40.5201V37.5201ZM63.5367 36.4433C63.0098 36.0138 62.4189 35.594 61.8827 35.2572C61.3951 34.9509 60.8038 34.6171 60.3183 34.4777L59.4909 37.3614C59.4786 37.3579 59.5484 37.3799 59.7204 37.469C59.876 37.5495 60.0688 37.6605 60.2868 37.7975C60.7237 38.072 61.2141 38.4205 61.6414 38.7688L63.5367 36.4433ZM60.3182 34.4777C58.3034 33.8997 56.139 34.9039 54.241 36.46L56.143 38.78C57.843 37.3862 58.9562 37.208 59.4909 37.3614L60.3182 34.4777ZM54.2409 36.46L52.8191 37.6257L54.7213 39.9456L56.143 38.7799L54.2409 36.46ZM55.2702 38.7857V34.6006H52.2702V38.7857H55.2702ZM55.2702 34.6006C55.2702 32.9167 55.2486 31.77 55.1672 30.9857C55.0907 30.2496 54.937 29.4608 54.3461 28.8696L52.2243 30.9904C52.0266 30.7927 52.1155 30.6429 52.1832 31.2955C52.246 31.8999 52.2702 32.8918 52.2702 34.6006H55.2702ZM54.3455 28.869C54.0981 28.6218 53.8082 28.4157 53.5285 28.2656C53.2968 28.1412 52.8712 27.9448 52.3809 27.9448V30.9448C52.2945 30.9448 52.2291 30.9349 52.1911 30.9276C52.1514 30.9199 52.1246 30.9117 52.1119 30.9076C52.0884 30.8998 52.0888 30.8976 52.11 30.909C52.1291 30.9193 52.1534 30.9343 52.1781 30.9523C52.203 30.9706 52.2188 30.985 52.2249 30.991L54.3455 28.869ZM52.3809 27.9448C51.8906 27.9448 51.4649 28.1412 51.2332 28.2656C50.9535 28.4157 50.6636 28.6218 50.4163 28.869L52.5369 30.991C52.543 30.985 52.5587 30.9706 52.5837 30.9523C52.6083 30.9343 52.6326 30.9193 52.6518 30.909C52.673 30.8976 52.6733 30.8998 52.6498 30.9076C52.6372 30.9117 52.6103 30.9199 52.5707 30.9276C52.5326 30.9349 52.4672 30.9448 52.3809 30.9448V27.9448ZM8.42659 38.1364C7.38642 39.1776 7.09857 40.9666 8.31233 42.1809L10.4341 40.0601C10.4603 40.0863 10.4855 40.1237 10.5018 40.1681C10.5175 40.2111 10.5204 40.2478 10.5189 40.2722C10.516 40.3214 10.499 40.3067 10.549 40.2566L8.42659 38.1364ZM25.8494 37.9639C25.5413 37.7479 25.1908 37.654 25.0169 37.6105C24.789 37.5535 24.5315 37.5083 24.2674 37.4709C23.7355 37.3956 23.0669 37.3365 22.3273 37.2907C20.8416 37.1985 18.9708 37.1537 17.1226 37.1542C15.2748 37.1547 13.422 37.2006 11.973 37.2938C11.2527 37.3401 10.6033 37.3998 10.0941 37.4769C9.84278 37.5149 9.58943 37.5624 9.36418 37.6256C9.25174 37.6571 9.11713 37.7006 8.98004 37.7619C8.86273 37.8144 8.63712 37.9258 8.4271 38.1359L10.5485 40.2571C10.3835 40.4221 10.2283 40.49 10.2054 40.5002C10.1626 40.5194 10.1463 40.522 10.1744 40.5141C10.2302 40.4984 10.3472 40.4727 10.5429 40.4431C10.9277 40.3849 11.479 40.3317 12.1654 40.2876C13.5297 40.1999 15.3145 40.1547 17.1235 40.1542C18.932 40.1537 20.7371 40.1978 22.1416 40.2849C22.847 40.3287 23.427 40.3818 23.8467 40.4413C24.0583 40.4712 24.2023 40.4991 24.2891 40.5208C24.4298 40.556 24.3072 40.5464 24.1275 40.4205L25.8494 37.9639ZM8.7879 44.2353C7.90426 44.7502 7.58234 45.6866 7.52584 46.3777C7.46783 47.0873 7.64381 47.9986 8.31233 48.6675L10.4341 46.5466C10.502 46.6145 10.5178 46.6681 10.5179 46.6685C10.5181 46.6691 10.5135 46.6504 10.5159 46.6222C10.5183 46.5926 10.5246 46.5931 10.5095 46.6223C10.494 46.6522 10.4359 46.7472 10.2982 46.8274L8.7879 44.2353ZM41.0681 46.5877C41.0681 46.199 40.9824 45.8201 40.869 45.5083C40.7628 45.2161 40.5754 44.825 40.2585 44.508L38.1367 46.6289C38.1001 46.5922 38.0763 46.5621 38.0632 46.5442C38.0497 46.5259 38.0425 46.5137 38.0402 46.5096C38.0363 46.5029 38.0414 46.5109 38.0495 46.5332C38.0573 46.5546 38.0633 46.5766 38.0667 46.5941C38.0674 46.598 38.068 46.6012 38.0683 46.6034C38.0685 46.6046 38.0686 46.6054 38.0687 46.606C38.0688 46.6066 38.0688 46.6069 38.0688 46.6069C38.0688 46.6069 38.0688 46.6066 38.0687 46.6058C38.0686 46.6051 38.0686 46.604 38.0685 46.6025C38.0683 46.5995 38.0681 46.5946 38.0681 46.5877H41.0681ZM40.2585 44.508C39.9948 44.2442 39.6987 44.1473 39.6504 44.1304C39.5433 44.0929 39.4456 44.0701 39.3802 44.0564C39.2451 44.0281 39.0984 44.0081 38.9638 43.9927C38.6865 43.9612 38.3232 43.9344 37.9028 43.9108C37.0552 43.8631 35.8857 43.8235 34.5115 43.7916C31.7584 43.7275 28.1323 43.6928 24.5009 43.6883C20.8695 43.6838 17.2222 43.7094 14.4266 43.7665C13.0307 43.795 11.8356 43.8316 10.9573 43.877C10.5207 43.8995 10.1441 43.9251 9.8533 43.9551C9.71005 43.9698 9.56472 43.9879 9.43344 44.0115C9.38403 44.0204 9.07509 44.068 8.78807 44.2352L10.298 46.8275C10.0626 46.9646 9.85909 46.9831 9.96543 46.964C9.9899 46.9596 10.0507 46.9506 10.1606 46.9393C10.376 46.9171 10.6935 46.8946 11.112 46.873C11.9439 46.83 13.1026 46.7942 14.4879 46.7659C17.2545 46.7094 20.8786 46.6838 24.4972 46.6883C28.1159 46.6928 31.7183 46.7274 34.4417 46.7908C35.8056 46.8225 36.9363 46.8612 37.7345 46.906C38.137 46.9287 38.433 46.9517 38.6244 46.9735C38.6705 46.9787 38.7058 46.9834 38.7317 46.9872C38.7588 46.9913 38.7683 46.9933 38.7646 46.9925C38.7623 46.992 38.7526 46.99 38.7373 46.986C38.7228 46.9822 38.6953 46.9745 38.6592 46.9619C38.6527 46.9596 38.3853 46.8776 38.1367 46.6289L40.2585 44.508ZM21.0437 7.09122L20.4797 4.14471L20.4796 4.14472L21.0437 7.09122ZM9.62301 16.9983L6.75654 16.1132L6.7565 16.1134L9.62301 16.9983ZM36.879 23.117L33.922 22.6106L33.922 22.6108L36.879 23.117ZM27.7511 7.86991L28.7951 5.05743L28.7949 5.05738L27.7511 7.86991ZM51.362 7.57586L49.2402 5.45502L51.362 7.57586ZM51.4642 25.1284L49.5477 27.4364L49.5483 27.437L51.4642 25.1284ZM68.2134 25.6155L68.2309 22.6156H68.2309L68.2134 25.6155ZM88.9886 24.7704L86.3434 23.3552L86.3432 23.3555L88.9886 24.7704ZM87.9639 22.9026L87.5413 25.8727L87.5417 25.8728L87.9639 22.9026ZM87.1852 15.8783L84.1855 15.9143L84.1855 15.9145L87.1852 15.8783ZM86.7617 8.54235L89.0707 6.62709L89.0707 6.62705L86.7617 8.54235ZM79.3753 8.45154L77.9592 5.80681L77.9584 5.80724L79.3753 8.45154ZM78.7782 22.9582V25.9582H81.7782V22.9582H78.7782ZM75.9996 22.9582H72.9996V25.9582H75.9996V22.9582ZM75.6291 13.7535L77.7509 11.6327L75.6291 13.7535ZM68.034 13.7535L65.9122 11.6327L68.034 13.7535ZM67.6635 22.9582V25.9582H70.6635V22.9582H67.6635ZM64.8849 22.9582H61.8849V25.9582H64.8849V22.9582ZM64.5144 17.1512L62.3926 19.2721L64.5144 17.1512ZM56.2401 22.9582V25.9582H59.2401V22.9582H56.2401ZM53.7702 22.9582H50.7702V25.9582H53.7702V22.9582ZM20.0955 10.0985L19.3151 7.20179L19.314 7.20209L20.0955 10.0985ZM12.7493 16.4346L10.0329 15.1615L10.0329 15.1615L12.7493 16.4346ZM11.9423 21.1049L14.9423 21.0984V21.0983L11.9423 21.1049ZM12.6709 25.6514L9.93302 26.8777L9.93304 26.8778L12.6709 25.6514ZM17.9664 24.2595L20.0986 26.3699L20.0986 26.3699L17.9664 24.2595ZM21.6611 20.5267L23.7933 22.6371L24.6611 21.7603V20.5267H21.6611ZM21.5839 9.69696L20.8014 6.80081L20.7916 6.80347L20.7818 6.80619L21.5839 9.69696ZM24.4398 21.5188L26.5713 23.6299L27.4398 22.753V21.5188H24.4398ZM20.2579 25.7412L22.3894 27.8523L22.3894 27.8523L20.2579 25.7412ZM18.265 31.3364L19.6619 28.6814L19.6614 28.6812L18.265 31.3364ZM22.8961 32.0687L22.8977 29.0687H22.8974L22.8961 32.0687ZM27.9097 31.1998L29.2325 33.8924L29.2328 33.8923L27.9097 31.1998ZM33.2843 25.8117L30.5844 24.5038L30.5844 24.5038L33.2843 25.8117ZM34.154 21.1049L31.1541 21.0936V21.0937L34.154 21.1049ZM33.3439 16.4176L30.6273 17.6906L30.6274 17.6906L33.3439 16.4176ZM25.5346 9.98823L26.195 7.06183L26.1943 7.06167L25.5346 9.98823ZM24.4398 9.74143L25.0995 6.81487L21.4398 5.98987V9.74143H24.4398ZM81.5569 22.9582H78.5569V25.9582H81.5569V22.9582ZM84.6443 22.9582V25.9582H87.6443V22.9582H84.6443ZM84.6443 10.9118H87.6443V7.91179H84.6443V10.9118ZM81.5569 10.9118V7.91179H78.5569V10.9118H81.5569ZM70.2616 16.2743L67.4602 15.201L67.4601 15.2013L70.2616 16.2743ZM70.1875 19.7662L67.1891 19.8649L67.1891 19.8653L70.1875 19.7662ZM70.2879 22.8038L67.2895 22.9028L67.3853 25.8038H70.2879V22.8038ZM73.2684 22.8038V25.8038H76.2671L76.2684 22.8051L73.2684 22.8038ZM73.27 19.4061L76.27 19.4074V19.4072L73.27 19.4061ZM73.2712 16.0084L76.2712 16.0094L76.2722 13.2012L73.4702 13.015L73.2712 16.0084ZM71.8538 15.9141L72.0527 12.9208L72.0526 12.9207L71.8538 15.9141ZM59.2247 19.4577L61.3437 21.5814L61.3494 21.5756L59.2247 19.4577ZM59.0188 22.9582H56.0188V25.9582H59.0188V22.9582ZM62.1062 22.9582V25.9582H65.1062V22.9582H62.1062ZM62.1062 19.2516H65.1062V16.2516H62.1062V19.2516ZM20.4796 4.14472C13.8282 5.41799 8.71151 9.78178 6.75654 16.1132L12.4895 17.8834C13.7473 13.8098 16.99 10.9217 21.6077 10.0377L20.4796 4.14472ZM6.7565 16.1134C3.39023 27.0172 11.6371 38.0046 23.0505 38.0046V32.0046C15.6078 32.0046 10.3349 24.8625 12.4895 17.8833L6.7565 16.1134ZM23.0505 38.0046C31.4994 38.0046 38.4004 32.0089 39.836 23.6232L33.922 22.6108C32.9629 28.2132 28.4782 32.0046 23.0505 32.0046V38.0046ZM39.8359 23.6234C41.1792 15.7802 36.3388 7.85771 28.7951 5.05743L26.707 10.6824C31.7081 12.5388 34.7493 17.7803 33.922 22.6106L39.8359 23.6234ZM28.7949 5.05738C27.5901 4.61023 26.016 4.30891 24.6299 4.14799C23.2982 3.99339 21.6862 3.91377 20.4797 4.14471L21.6076 10.0377C21.8729 9.98696 22.7274 9.96742 23.9379 10.108C25.094 10.2422 26.1376 10.4711 26.7072 10.6824L28.7949 5.05738ZM49.2402 5.45502C48.612 6.08358 48.4196 6.82684 48.3782 6.97569C48.2964 7.26999 48.2484 7.5634 48.2165 7.80383C48.151 8.29631 48.1088 8.91742 48.0783 9.63907C48.0164 11.1016 47.9915 13.2816 47.9915 16.3413H53.9915C53.9915 13.2836 54.017 11.2159 54.0729 9.89252C54.1013 9.22123 54.1348 8.81486 54.1642 8.59435C54.1796 8.47829 54.1837 8.49382 54.1591 8.58251C54.1463 8.62841 54.1108 8.74942 54.0377 8.90791C53.9748 9.04412 53.8129 9.36748 53.4838 9.69669L49.2402 5.45502ZM47.9915 16.3413C47.9915 19.895 48.008 22.098 48.081 23.4557C48.1165 24.1161 48.1722 24.7427 48.2939 25.2817C48.4104 25.7977 48.6889 26.7233 49.5477 27.4364L53.3808 22.8204C53.7014 23.0867 53.8996 23.382 54.0139 23.6117C54.1157 23.8164 54.1463 23.9591 54.1466 23.9606C54.1484 23.9684 54.1362 23.9147 54.1198 23.7639C54.1039 23.6177 54.0874 23.4141 54.0723 23.1334C54.0098 21.9714 53.9915 19.9482 53.9915 16.3413H47.9915ZM49.5483 27.437C49.9838 27.7984 50.4206 27.9588 50.5989 28.0202C50.825 28.0979 51.0346 28.1458 51.1913 28.1767C51.5063 28.2389 51.8539 28.2796 52.1962 28.3103C52.8941 28.373 53.8704 28.4194 55.1656 28.4571C57.773 28.533 61.9026 28.5789 68.196 28.6155L68.2309 22.6156C61.9291 22.579 57.8671 22.5332 55.3401 22.4597C54.0681 22.4227 53.2415 22.38 52.7327 22.3344C52.6102 22.3234 52.5174 22.3131 52.4494 22.3044C52.3792 22.2954 52.3509 22.2898 52.3534 22.2903C52.3557 22.2908 52.3732 22.2943 52.4024 22.3017C52.4306 22.3089 52.482 22.3229 52.5495 22.3461C52.6261 22.3724 52.9904 22.4964 53.3801 22.8199L49.5483 27.437ZM68.1959 28.6155C77.2751 28.6684 82.4385 28.6751 85.3834 28.5553C86.8173 28.4969 87.9452 28.4032 88.7958 28.2035C89.708 27.9892 90.9282 27.5048 91.634 26.1854L86.3432 23.3555C86.8173 22.4693 87.6028 22.3204 87.4239 22.3624C87.1833 22.4189 86.5635 22.5023 85.1395 22.5602C82.3689 22.6729 77.3764 22.6689 68.2309 22.6156L68.1959 28.6155ZM91.6338 26.1857C93.1353 23.3793 91.1273 20.3221 88.3861 19.9325L87.5417 25.8728C86.6128 25.7407 85.6669 24.6197 86.3434 23.3552L91.6338 26.1857ZM88.3865 19.9325C88.013 19.8794 89.14 19.9179 89.8939 20.8505C90.1966 21.2249 90.2988 21.5653 90.3236 21.6541C90.3502 21.7494 90.3431 21.7629 90.3271 21.6179C90.2508 20.9299 90.2281 19.4149 90.185 15.8422L84.1855 15.9145C84.2258 19.2619 84.2451 21.2097 84.3636 22.279C84.4075 22.6749 84.5151 23.7408 85.2279 24.6226C85.6826 25.185 86.2401 25.5133 86.7514 25.6906C87.1448 25.8271 87.528 25.8708 87.5413 25.8727L88.3865 19.9325ZM90.185 15.8423C90.158 13.5881 90.1063 11.7678 90.0308 10.4589C89.9934 9.81164 89.9474 9.23906 89.8877 8.78249C89.8587 8.55994 89.8184 8.30174 89.7578 8.04951C89.7277 7.92402 89.6802 7.74766 89.6061 7.55269C89.5483 7.40089 89.3946 7.01758 89.0707 6.62709L84.4526 10.4576C84.1562 10.1003 84.0294 9.76828 83.998 9.68582C83.9503 9.56019 83.9286 9.47116 83.9237 9.45078C83.9136 9.40877 83.9216 9.43187 83.9383 9.55995C83.9703 9.80464 84.0064 10.2106 84.0407 10.8049C84.1086 11.9792 84.1588 13.6944 84.1855 15.9143L90.185 15.8423ZM89.0707 6.62705C88.566 6.01858 87.9581 5.76042 87.7734 5.68349C87.5006 5.56986 87.2431 5.49956 87.0563 5.45508C86.6748 5.36426 86.2611 5.30558 85.8864 5.26446C85.1178 5.18011 84.1898 5.13583 83.2904 5.12478C82.3871 5.11367 81.4395 5.1352 80.6262 5.1975C80.2228 5.22839 79.8082 5.27258 79.4279 5.33811C79.1479 5.38636 78.534 5.49903 77.9592 5.80681L80.7915 11.0963C80.4446 11.282 80.2195 11.2901 80.4468 11.251C80.5739 11.2291 80.7853 11.2029 81.0844 11.18C81.6762 11.1347 82.4396 11.1148 83.2166 11.1243C83.9975 11.1339 84.7189 11.1724 85.2319 11.2287C85.4981 11.2579 85.6333 11.284 85.6667 11.2919C85.6873 11.2968 85.6037 11.2794 85.466 11.2221C85.4165 11.2015 84.905 11.003 84.4526 10.4577L89.0707 6.62705ZM77.9584 5.80724C77.4359 6.0872 76.7363 6.59879 76.3014 7.5801C75.9981 8.26455 75.9173 8.99447 75.8751 9.51924C75.7839 10.6507 75.7782 12.5875 75.7782 15.8647H81.7782C81.7782 12.4451 81.7892 10.8263 81.8557 10.0009C81.8922 9.54727 81.9255 9.69844 81.7869 10.011C81.6901 10.2296 81.5281 10.4911 81.2785 10.7336C81.0475 10.9582 80.8349 11.073 80.7923 11.0958L77.9584 5.80724ZM75.7782 15.8647V22.9582H81.7782V15.8647H75.7782ZM78.7782 19.9582H77.3889V25.9582H78.7782V19.9582ZM77.3889 19.9582H75.9996V25.9582H77.3889V19.9582ZM78.9996 22.9582V18.5412H72.9996V22.9582H78.9996ZM78.9996 18.5412C78.9996 17.0101 78.9706 15.7831 78.9004 14.8771C78.866 14.4321 78.8157 13.98 78.7312 13.5735C78.6892 13.3711 78.6245 13.1088 78.5182 12.8322C78.4304 12.6037 78.2168 12.0988 77.7509 11.6327L73.5073 15.8743C73.1047 15.4716 72.9502 15.0694 72.9173 14.9838C72.8659 14.8502 72.8519 14.7711 72.8565 14.7933C72.8654 14.8358 72.8918 14.9978 72.9183 15.3401C72.9701 16.0086 72.9996 17.0486 72.9996 18.5412H78.9996ZM77.7509 11.6327C77.3326 11.2142 76.8887 11.0027 76.6584 10.9052C76.3946 10.7935 76.146 10.7229 75.9536 10.6765C75.5692 10.5837 75.1583 10.5283 74.7756 10.491C73.9961 10.4149 72.9959 10.3829 71.8316 10.3829V16.3829C72.921 16.3829 73.6978 16.4143 74.1927 16.4626C74.4472 16.4874 74.5479 16.5095 74.5462 16.5091C74.5451 16.5088 74.4556 16.4882 74.3184 16.4301C74.2147 16.3861 73.8646 16.2319 73.5073 15.8743L77.7509 11.6327ZM71.8316 10.3829C70.6672 10.3829 69.667 10.4149 68.8875 10.491C68.5048 10.5283 68.0939 10.5837 67.7095 10.6765C67.5171 10.7229 67.2685 10.7935 67.0047 10.9052C66.7745 11.0027 66.3305 11.2142 65.9122 11.6327L70.1559 15.8743C69.7985 16.2319 69.4485 16.3861 69.3447 16.4301C69.2075 16.4882 69.118 16.5088 69.1169 16.5091C69.1152 16.5095 69.2159 16.4874 69.4704 16.4626C69.9654 16.4143 70.7421 16.3829 71.8316 16.3829V10.3829ZM65.9122 11.6327C65.4463 12.0988 65.2327 12.6037 65.1449 12.8322C65.0386 13.1088 64.9739 13.3711 64.9319 13.5735C64.8475 13.98 64.7971 14.4321 64.7627 14.877C64.6926 15.7831 64.6635 17.0101 64.6635 18.5412H70.6635C70.6635 17.0486 70.6931 16.0086 70.7448 15.3401C70.7713 14.9978 70.7977 14.8358 70.8066 14.7933C70.8112 14.7711 70.7972 14.8502 70.7458 14.9839C70.7129 15.0694 70.5584 15.4716 70.1559 15.8743L65.9122 11.6327ZM64.6635 18.5412V22.9582H70.6635V18.5412H64.6635ZM67.6635 19.9582H66.2742V25.9582H67.6635V19.9582ZM66.2742 19.9582H64.8849V25.9582H66.2742V19.9582ZM67.8849 22.9582V20.24H61.8849V22.9582H67.8849ZM67.8849 20.24C67.8849 19.3247 67.8485 18.4805 67.7654 17.7872C67.7246 17.4469 67.6639 17.0681 67.5648 16.704C67.5085 16.4975 67.2974 15.6919 66.6362 15.0304L62.3926 19.2721C62.2186 19.098 62.1006 18.9336 62.026 18.8163C61.9498 18.6966 61.8986 18.5942 61.8666 18.5238C61.8051 18.3888 61.7798 18.2961 61.7757 18.2809C61.7678 18.2518 61.7852 18.3115 61.808 18.5016C61.8521 18.869 61.8849 19.4532 61.8849 20.24H67.8849ZM66.6362 15.0304C66.2078 14.6018 65.7513 14.3894 65.5203 14.2936C65.2533 14.1828 65.0014 14.1135 64.8066 14.068C64.4173 13.9771 63.9977 13.923 63.6024 13.8864C62.7973 13.8118 61.7507 13.7806 60.5116 13.7806V19.7806C61.6859 19.7806 62.5177 19.8116 63.0491 19.8608C63.1766 19.8726 63.2741 19.8843 63.3454 19.8947C63.4192 19.9054 63.4479 19.9122 63.4424 19.9109C63.4384 19.9099 63.4179 19.9051 63.3845 19.8949C63.3521 19.885 63.2951 19.8663 63.2211 19.8356C63.1202 19.7937 62.7594 19.639 62.3926 19.2721L66.6362 15.0304ZM60.5116 13.7806C59.5017 13.7806 58.5238 13.7746 57.7521 13.8437C57.0449 13.907 55.8161 14.071 54.7941 14.953C53.6738 15.9199 53.4127 17.1943 53.3209 17.9582C53.2312 18.7038 53.2401 19.6291 53.2401 20.4668H59.2401C59.2401 19.9849 59.2395 19.6146 59.2457 19.2959C59.252 18.9747 59.2644 18.7869 59.278 18.6746C59.3113 18.3974 59.3073 18.9835 58.7142 19.4954C58.4501 19.7233 58.2099 19.8097 58.1281 19.8344C58.0631 19.8541 58.0893 19.8375 58.2874 19.8198C58.478 19.8027 58.7437 19.7912 59.1303 19.7856C59.5151 19.7799 59.9595 19.7806 60.5116 19.7806V13.7806ZM53.2401 20.4668V22.9582H59.2401V20.4668H53.2401ZM56.2401 19.9582H55.0052V25.9582H56.2401V19.9582ZM55.0052 19.9582H53.7702V25.9582H55.0052V19.9582ZM56.7702 22.9582V15.4524H50.7702V22.9582H56.7702ZM56.7702 15.4524C56.7702 11.6733 56.7666 9.26849 56.5318 7.8748C56.4208 7.21549 56.1486 5.95553 55.0572 5.06306C53.9446 4.15325 52.6483 4.2052 52.3809 4.2052V10.2052C52.7774 10.2052 51.9867 10.3028 51.2591 9.70783C50.5527 9.13018 50.5449 8.45419 50.6152 8.87145C50.7431 9.6309 50.7702 11.3497 50.7702 15.4524H56.7702ZM52.3809 4.2052C51.7814 4.2052 51.2274 4.33517 50.7885 4.49485C50.3887 4.64031 49.7722 4.92283 49.2402 5.45502L53.4838 9.69669C53.2965 9.88412 53.1307 9.98777 53.0502 10.034C52.9594 10.086 52.8877 10.1159 52.8398 10.1333C52.7702 10.1586 52.6237 10.2052 52.3809 10.2052V4.2052ZM19.314 7.20209C15.2357 8.30254 11.8593 11.2646 10.0329 15.1615L15.4658 17.7078C16.5946 15.2991 18.6181 13.6044 20.877 12.9949L19.314 7.20209ZM10.0329 15.1615C9.63219 16.0164 9.30438 16.8278 9.12412 17.8711C8.95973 18.8225 8.93952 19.8562 8.94228 21.1115L14.9423 21.0983C14.9395 19.8205 14.9716 19.2684 15.0365 18.8926C15.0856 18.6087 15.1641 18.3515 15.4658 17.7077L10.0329 15.1615ZM8.94228 21.1115C8.94494 22.3299 8.97721 23.3381 9.12476 24.2587C9.28467 25.2563 9.56194 26.0493 9.93302 26.8777L15.4088 24.425C15.1889 23.9342 15.1045 23.6546 15.0491 23.3091C14.9814 22.8866 14.9448 22.2812 14.9423 21.0984L8.94228 21.1115ZM9.93304 26.8778C10.1713 27.4097 10.5443 28.2935 10.9929 28.9256C11.2488 29.2861 11.7167 29.8496 12.4808 30.2237C13.3453 30.6471 14.2378 30.6612 14.9943 30.4624C15.6544 30.2889 16.1788 29.9645 16.5264 29.7197C16.896 29.4595 17.2555 29.1515 17.5918 28.8441C18.2555 28.2373 19.094 27.3849 20.0986 26.3699L15.8343 22.1491C14.7698 23.2245 14.0668 23.9372 13.5434 24.4157C13.2861 24.6509 13.1406 24.7656 13.0721 24.8139C12.9817 24.8775 13.1349 24.7473 13.4692 24.6595C13.8998 24.5463 14.5118 24.5376 15.1194 24.8351C15.6266 25.0834 15.8612 25.4183 15.8858 25.4529C15.9176 25.4977 15.8895 25.4667 15.7851 25.251C15.6852 25.0444 15.5746 24.7951 15.4088 24.4249L9.93304 26.8778ZM20.0986 26.3699L23.7933 22.6371L19.5289 18.4163L15.8342 22.1491L20.0986 26.3699ZM24.6611 20.5267V15.1015H18.6611V20.5267H24.6611ZM24.6611 15.1015C24.6611 13.5999 24.6524 12.231 24.6381 11.2331C24.631 10.7371 24.6224 10.3181 24.6121 10.0158C24.6072 9.87073 24.601 9.72081 24.592 9.59339C24.5885 9.5423 24.58 9.426 24.5612 9.2955C24.5554 9.25539 24.5293 9.06768 24.4615 8.84144C24.4385 8.76467 24.3398 8.42883 24.0985 8.05904C23.9946 7.89973 22.8701 6.24185 20.8014 6.80081L22.3665 12.5931C21.4381 12.8439 20.5813 12.6114 19.9831 12.2337C19.4742 11.9123 19.1925 11.5201 19.0733 11.3374C18.8334 10.9696 18.736 10.6369 18.7143 10.5645C18.649 10.347 18.6256 10.1727 18.6224 10.1505C18.6142 10.0936 18.6102 10.0524 18.6089 10.039C18.6081 10.0299 18.6075 10.0232 18.6072 10.0195C18.6071 10.0175 18.607 10.0161 18.6069 10.0151C18.6068 10.0142 18.6068 10.0137 18.6068 10.0136C18.6068 10.0136 18.6069 10.015 18.6071 10.0179C18.6072 10.0208 18.6075 10.0248 18.6078 10.0301C18.6084 10.0409 18.6091 10.0552 18.6099 10.0736C18.6116 10.1106 18.6135 10.1585 18.6156 10.2182C18.6238 10.462 18.6318 10.8353 18.6387 11.3189C18.6525 12.2802 18.6611 13.6192 18.6611 15.1015H24.6611ZM20.7818 6.80619C20.7839 6.8056 20.7487 6.81517 20.66 6.83913C20.5798 6.86081 20.4683 6.8909 20.3336 6.92725C20.0642 6.99992 19.703 7.09728 19.3151 7.20179L20.8759 12.9952C21.64 12.7894 22.3294 12.6035 22.3861 12.5877L20.7818 6.80619ZM21.4398 15.63V21.5188H27.4398V15.63H21.4398ZM22.3083 19.4078L18.1264 23.6302L22.3894 27.8523L26.5713 23.6299L22.3083 19.4078ZM18.1264 23.6301C17.0187 24.7485 16.112 25.6509 15.4748 26.3377C15.1516 26.686 14.8396 27.0405 14.5762 27.3898C14.3297 27.7167 14.008 28.1908 13.7998 28.7751C13.5669 29.4289 13.4487 30.3103 13.7944 31.249C14.1104 32.1073 14.6814 32.6384 15.0371 32.9191C15.3934 33.2002 15.773 33.4132 16.0273 33.5509C16.2694 33.6821 16.6324 33.8673 16.8685 33.9915L19.6614 28.6812C19.282 28.4816 19.1028 28.3932 18.8854 28.2754C18.6801 28.1642 18.6828 28.1528 18.7538 28.2089C18.8242 28.2644 19.2016 28.5696 19.4247 29.1756C19.6776 29.8622 19.5671 30.465 19.4519 30.7885C19.3615 31.0424 19.2672 31.1344 19.3671 31.0019C19.4501 30.8918 19.6033 30.7096 19.8734 30.4185C20.4226 29.8265 21.2143 29.0388 22.3894 27.8523L18.1264 23.6301ZM16.8681 33.9913C17.6553 34.4055 18.4298 34.732 19.5098 34.9028C20.4343 35.049 21.5223 35.0681 22.8948 35.0687L22.8974 29.0687C21.4601 29.0681 20.8346 29.0378 20.447 28.9765C20.2149 28.9398 20.0788 28.9008 19.6619 28.6814L16.8681 33.9913ZM22.8945 35.0687C24.3092 35.0695 25.4273 35.057 26.4139 34.886C27.5315 34.6923 28.3615 34.3204 29.2325 33.8924L26.5869 28.5072C25.8553 28.8666 25.6447 28.9299 25.3892 28.9742C25.0028 29.0412 24.4155 29.0695 22.8977 29.0687L22.8945 35.0687ZM29.2328 33.8923C32.0923 32.4873 34.5992 29.9788 35.9842 27.1195L30.5844 24.5038C29.7885 26.1468 28.257 27.6866 26.5867 28.5073L29.2328 33.8923ZM35.9842 27.1196C36.4017 26.2577 36.7522 25.439 36.9471 24.3845C37.1248 23.4226 37.1493 22.3799 37.154 21.1161L31.1541 21.0937C31.1492 22.3953 31.1141 22.9312 31.047 23.294C30.9971 23.5643 30.9175 23.8163 30.5844 24.5038L35.9842 27.1196ZM37.154 21.1162C37.1587 19.8576 37.141 18.8211 36.976 17.866C36.795 16.8186 36.463 16.0038 36.0604 15.1446L30.6274 17.6906C30.9374 18.3521 31.0153 18.6081 31.0636 18.8877C31.1279 19.2596 31.1589 19.8065 31.1541 21.0936L37.154 21.1162ZM36.0604 15.1447C34.1816 11.1352 30.455 8.02325 26.195 7.06183L24.8741 12.9146C27.2274 13.4457 29.491 15.2654 30.6273 17.6906L36.0604 15.1447ZM26.1943 7.06167L25.0995 6.81487L23.7801 12.668L24.8749 12.9148L26.1943 7.06167ZM21.4398 9.74143V15.63H27.4398V9.74143H21.4398ZM78.5569 16.935V22.9582H84.5569V16.935H78.5569ZM81.5569 25.9582H83.1006V19.9582H81.5569V25.9582ZM83.1006 25.9582H84.6443V19.9582H83.1006V25.9582ZM87.6443 22.9582V16.935H81.6443V22.9582H87.6443ZM87.6443 16.935V10.9118H81.6443V16.935H87.6443ZM84.6443 7.91179H83.1006V13.9118H84.6443V7.91179ZM83.1006 7.91179H81.5569V13.9118H83.1006V7.91179ZM78.5569 10.9118V16.935H84.5569V10.9118H78.5569ZM67.4601 15.2013C67.3179 15.5724 67.2714 15.9146 67.2585 16.0056C67.2358 16.1654 67.2209 16.3252 67.2104 16.4648C67.189 16.7482 67.176 17.0795 67.1687 17.4238C67.154 18.1193 67.1602 18.9846 67.1891 19.8649L73.1859 19.6676C73.1599 18.8771 73.1553 18.1214 73.1674 17.5511C73.1735 17.2625 73.1833 17.0496 73.1934 16.916C73.1986 16.8471 73.2016 16.83 73.1989 16.8495C73.1974 16.8597 73.1914 16.9016 73.178 16.9642C73.1679 17.0112 73.1355 17.1585 73.0631 17.3473L67.4601 15.2013ZM67.1891 19.8653L67.2895 22.9028L73.2862 22.7047L73.1859 19.6672L67.1891 19.8653ZM70.2879 25.8038H71.7781V19.8038H70.2879V25.8038ZM71.7781 25.8038H73.2684V19.8038H71.7781V25.8038ZM76.2684 22.8051L76.27 19.4074L70.27 19.4047L70.2684 22.8024L76.2684 22.8051ZM76.27 19.4072L76.2712 16.0094L70.2712 16.0073L70.27 19.405L76.27 19.4072ZM73.4702 13.015L72.0527 12.9208L71.6548 18.9075L73.0723 19.0018L73.4702 13.015ZM72.0526 12.9207C71.4992 12.884 70.763 12.8595 70.0581 13.0189C69.2271 13.2067 68.0077 13.7718 67.4602 15.201L73.063 17.3476C72.8888 17.8024 72.5821 18.2053 72.1854 18.4943C71.8298 18.7533 71.5109 18.8419 71.3811 18.8712C71.2497 18.9009 71.1931 18.8962 71.2662 18.8943C71.3309 18.8926 71.4528 18.8941 71.655 18.9076L72.0526 12.9207ZM57.1058 17.3339C56.6183 17.8203 56.4223 18.3523 56.3771 18.472C56.2969 18.684 56.2484 18.8749 56.2194 19.0022C56.1599 19.2641 56.1226 19.5307 56.0976 19.7556C56.046 20.2204 56.0188 20.7679 56.0188 21.3109H62.0188C62.0188 20.9477 62.0379 20.6251 62.0609 20.4181C62.0733 20.3071 62.0804 20.2873 62.0701 20.3328C62.0657 20.3518 62.043 20.4519 61.9896 20.5932C61.9623 20.6656 61.9123 20.7876 61.8319 20.9338C61.7592 21.0658 61.6071 21.3185 61.3436 21.5814L57.1058 17.3339ZM56.0188 21.3109V22.9582H62.0188V21.3109H56.0188ZM59.0188 25.9582H60.5625V19.9582H59.0188V25.9582ZM60.5625 25.9582H62.1062V19.9582H60.5625V25.9582ZM65.1062 22.9582V21.1049H59.1062V22.9582H65.1062ZM65.1062 21.1049V19.2516H59.1062V21.1049H65.1062ZM62.1062 16.2516H60.7684V22.2516H62.1062V16.2516ZM60.7684 16.2516C60.2886 16.2516 59.7967 16.281 59.3661 16.3385C59.1574 16.3663 58.8998 16.409 58.6384 16.4786C58.5095 16.5129 58.3214 16.569 58.1122 16.6585C57.9591 16.7241 57.5186 16.9198 57.1 17.3397L61.3494 21.5756C61.1326 21.7931 60.9268 21.9305 60.7995 22.0071C60.665 22.088 60.5501 22.1415 60.4744 22.174C60.3277 22.2368 60.2182 22.267 60.1819 22.2767C60.1054 22.297 60.0887 22.2953 60.1598 22.2858C60.2888 22.2686 60.5122 22.2516 60.7684 22.2516V16.2516Z" fill="#FDD304" mask="url(#path-2-inside-1_2864_5089)"/>
<rect x="24" y="81" width="52" height="3" rx="1.5" fill="#FDD304"/>
</svg>
