<svg width="73" height="84" viewBox="0 0 73 84" fill="none" xmlns="http://www.w3.org/2000/svg">
<path fill-rule="evenodd" clip-rule="evenodd" d="M14.1883 0.293545C13.9209 0.463719 10.6192 3.73579 6.85116 7.56488L0 14.5267L0.00097303 40.2289C0.0014595 56.692 0.0595117 66.1419 0.162482 66.5169C0.380746 67.3134 1.38045 68.4567 2.18005 68.8246C2.63458 69.0337 3.22613 69.1283 4.09448 69.1308L5.3512 69.1344L5.35218 70.161C5.35331 71.5582 5.56704 72.232 6.27388 73.0686C7.46201 74.4747 6.33988 74.383 22.4183 74.3871L36.6476 74.3907V75.7571C36.6476 78.7226 37.9541 81.158 40.4131 82.7756C42.2945 84.0133 42.137 84 54.8093 84C65.3155 84 66.1537 83.9791 67.1785 83.693C69.8321 82.952 72.0142 80.6708 72.729 77.8906C73.0942 76.4703 73.0885 54.7131 72.7227 53.2901C71.9317 50.2139 69.3453 47.7927 66.3225 47.2982C65.7379 47.2026 62.8309 47.1254 59.7956 47.1248L54.3228 47.1235V27.33V7.53662H55.1388C56.289 7.53662 56.9939 7.87286 57.2198 8.52909C57.3526 8.91493 57.4038 13.8119 57.4038 26.0971C57.4038 42.39 57.4166 43.1421 57.7004 43.4021C58.1643 43.8274 58.9435 43.7492 59.3408 43.2375L59.6797 42.8009L59.6364 25.4563C59.5949 8.89489 59.5793 8.08558 59.2907 7.53662C58.5167 6.06468 57.4447 5.40682 55.6128 5.27952L54.3627 5.19279L54.2873 4.02407C54.1743 2.27124 53.483 1.14064 52.0526 0.368941C51.5123 0.0775423 50.7485 0.060295 36.1612 0.0126594C25.282 -0.0229852 20.6587 0.0152875 20.2217 0.144725C19.5205 0.352186 19.1985 0.875521 19.3631 1.53979C19.5924 2.46573 19.2 2.44405 35.8722 2.4498C52.0473 2.45522 51.45 2.4268 51.864 3.21394C52.0046 3.48152 52.0526 9.10811 52.0526 25.3481V47.1235L48.2014 47.1248C46.0833 47.1254 43.8758 47.2008 43.2961 47.2925C41.0155 47.6527 38.5763 49.4149 37.5703 51.4291C36.6896 53.1924 36.6517 53.5648 36.6496 60.4696L36.6476 66.8347L19.9049 66.8295C2.1854 66.8241 2.8736 66.8541 2.4588 66.0654C2.31788 65.7971 2.27021 59.4657 2.27021 40.988V16.2694L7.66195 16.214C12.9449 16.1597 13.068 16.1509 13.7633 15.7759C14.6385 15.304 15.1955 14.7186 15.5856 13.8607C15.8589 13.2598 15.8846 12.6757 15.8879 7.02101C15.8911 1.36584 15.8673 0.809981 15.6077 0.505934C15.1857 0.0115095 14.7367 -0.0555088 14.1883 0.293545ZM8.75651 8.93284L3.97497 13.7785H8.40009H12.8252L13.2231 13.3753L13.6212 12.9722V8.52958C13.6212 6.0862 13.6026 4.08715 13.5797 4.08715C13.5569 4.08715 11.3864 6.26771 8.75651 8.93284ZM21.7462 7.80519C18.8756 9.25413 19.0101 13.3618 21.9724 14.7143C22.5531 14.9794 23.2563 15.0157 28.6815 15.0607C32.5407 15.0928 35.0337 15.0478 35.5455 14.9366C38.4855 14.2979 39.6172 10.7271 37.5718 8.54321C36.4777 7.37499 36.5135 7.37992 29.1796 7.37597L22.6036 7.37236L21.7462 7.80519ZM22.4309 10.0653C21.7969 10.6178 21.7943 11.6195 22.4254 12.2591L22.8712 12.7108L28.5026 12.7622C31.6 12.7905 34.4535 12.766 34.8438 12.708C35.7987 12.5658 36.3233 12.0242 36.3233 11.1803C36.3233 10.7055 36.2119 10.4253 35.8959 10.105L35.4683 9.67201H29.1752H22.8824L22.4309 10.0653ZM9.5673 23.4699C9.38715 23.6524 9.24299 24.0174 9.24299 24.2912C9.24299 24.565 9.38715 24.93 9.5673 25.1125C9.88756 25.4369 10.1078 25.441 27.1252 25.441C46.2892 25.441 45.0798 25.5136 45.0798 24.364C45.0798 24.0174 44.9543 23.6713 44.7555 23.4699C44.4353 23.1455 44.215 23.1414 27.1614 23.1414C10.1078 23.1414 9.88756 23.1455 9.5673 23.4699ZM9.51136 30.8336C9.1345 31.2552 9.17115 32.0589 9.58433 32.4377C9.91546 32.7413 10.4397 32.7506 27.1614 32.7506C43.8831 32.7506 44.4074 32.7413 44.7385 32.4377C45.1676 32.0443 45.1914 31.179 44.7832 30.805C44.5113 30.5556 43.0534 30.5331 27.1332 30.5331C10.5274 30.5331 9.76822 30.5461 9.51136 30.8336ZM9.5673 38.0891C9.38715 38.2716 9.24299 38.6366 9.24299 38.9104C9.24299 39.1842 9.38715 39.5492 9.5673 39.7317C9.88546 40.054 10.1078 40.0602 21.1616 40.0602C32.2154 40.0602 32.4377 40.054 32.7559 39.7317C32.936 39.5492 33.0802 39.1842 33.0802 38.9104C33.0802 38.6366 32.936 38.2716 32.7559 38.0891C32.4377 37.7668 32.2154 37.7606 21.1616 37.7606C10.1078 37.7606 9.88546 37.7668 9.5673 38.0891ZM36.972 38.0891C36.7918 38.2716 36.6476 38.6366 36.6476 38.9104C36.6476 39.1842 36.7918 39.5492 36.972 39.7317C37.2766 40.0404 37.5124 40.0602 40.8637 40.0602C44.215 40.0602 44.4508 40.0404 44.7555 39.7317C44.9357 39.5492 45.0798 39.1842 45.0798 38.9104C45.0798 38.6366 44.9357 38.2716 44.7555 38.0891C44.4508 37.7805 44.215 37.7606 40.8637 37.7606C37.5124 37.7606 37.2766 37.7805 36.972 38.0891ZM10.0538 45.1022C9.21137 45.4243 8.95727 46.4822 9.58433 47.0569C9.90994 47.3554 10.2821 47.3699 17.6752 47.3699C25.0683 47.3699 25.4404 47.3554 25.766 47.0569C26.2181 46.6425 26.2183 45.7977 25.7662 45.3831C25.4419 45.0858 25.0483 45.0687 17.861 45.0396C13.7009 45.0229 10.1876 45.051 10.0538 45.1022ZM43.502 49.5962C41.7139 49.9537 40.3336 51.0228 39.5327 52.6707L38.9989 53.7691V65.6028V77.4365L39.5327 78.5349C40.1131 79.7291 40.9239 80.5448 42.1389 81.1571L42.8907 81.5361H54.8093H66.7279L67.5847 81.0788C68.7234 80.471 69.5786 79.5774 70.1504 78.3977L70.6197 77.4296V65.6028V53.776L70.1867 52.8404C69.3728 51.0816 67.8186 49.9019 65.895 49.5828C64.7314 49.3898 44.474 49.4019 43.502 49.5962ZM9.5673 52.7083C9.38715 52.8908 9.24299 53.2558 9.24299 53.5296C9.24299 53.8035 9.38715 54.1684 9.5673 54.3509C9.88254 54.6703 10.1078 54.6795 17.6445 54.6795C25.2228 54.6795 25.4056 54.6719 25.7524 54.3445C26.2001 53.922 26.2147 53.1456 25.7831 52.7083C25.4678 52.389 25.2426 52.3798 17.6752 52.3798C10.1078 52.3798 9.88254 52.389 9.5673 52.7083ZM53.7553 53.1809C52.9719 53.3895 52.3362 53.7875 51.7116 54.4607C50.5413 55.7214 45.0289 62.8117 44.8141 63.3322C44.4319 64.2591 44.5308 65.6902 45.0463 66.6899C45.8209 68.1917 47.1397 68.9673 48.9226 68.9691L49.7654 68.9701L49.8145 72.7071C49.8622 76.3502 49.8732 76.4578 50.2528 76.9971C50.9581 77.9986 51.594 78.161 54.8244 78.1651C57.5008 78.1686 57.7213 78.1451 58.3918 77.7868C58.8373 77.5488 59.2429 77.1621 59.4687 76.7602C59.8127 76.148 59.831 75.9354 59.8336 72.5428L59.8362 68.9701H60.8584C63.6456 68.9701 65.6221 66.2961 64.865 63.5495C64.7685 63.1997 63.4615 61.3992 61.5265 58.9502C57.8509 54.2984 57.5331 53.9391 56.7166 53.5129C56.036 53.1576 54.4924 52.9844 53.7553 53.1809ZM53.8886 55.6143C53.4632 55.8595 49.9428 60.1451 47.461 63.439C46.7025 64.4454 46.6328 65.4063 47.2712 66.053C47.766 66.5542 48.2837 66.6705 50.0208 66.6705C52.0447 66.6705 51.954 66.4517 52.0526 71.5742L52.1337 75.787H54.8093H57.4849L57.5284 71.6059C57.5819 66.4382 57.4755 66.6705 59.7914 66.6705C61.4213 66.6705 62.0459 66.473 62.5019 65.8135C62.8359 65.3306 62.8239 64.3804 62.4774 63.8736C61.9545 63.1087 56.311 56.076 55.978 55.7743C55.4886 55.3309 54.5101 55.256 53.8886 55.6143ZM7.62141 70.0487C7.62141 70.9914 7.80903 71.5329 8.25593 71.8805C8.4536 72.0343 11.7782 72.0819 22.5805 72.0858L36.6476 72.0911V70.6127V69.1344H22.1345H7.62141V70.0487Z" fill="white"/>
<path fill-rule="evenodd" clip-rule="evenodd" d="M21.7462 7.80519C18.8756 9.25413 19.0101 13.3618 21.9724 14.7143C22.5531 14.9794 23.2563 15.0157 28.6815 15.0608C32.5407 15.0928 35.0337 15.0478 35.5455 14.9366C38.4855 14.2979 39.6172 10.7271 37.5718 8.54321C36.4777 7.37499 36.5135 7.37992 29.1796 7.37598L22.6036 7.37236L21.7462 7.80519ZM22.4309 10.0653C21.7969 10.6178 21.7943 11.6195 22.4254 12.2591L22.8712 12.7108L28.5026 12.7622C31.6 12.7905 34.4535 12.766 34.8438 12.708C35.7987 12.5658 36.3233 12.0242 36.3233 11.1803C36.3233 10.7055 36.2119 10.4253 35.8959 10.105L35.4683 9.67201H29.1752H22.8824L22.4309 10.0653ZM9.5673 23.4699C9.38715 23.6524 9.24299 24.0174 9.24299 24.2912C9.24299 24.565 9.38715 24.93 9.5673 25.1125C9.88757 25.4369 10.1078 25.441 27.1252 25.441C46.2892 25.441 45.0798 25.5136 45.0798 24.364C45.0798 24.0174 44.9543 23.6713 44.7555 23.4699C44.4353 23.1455 44.215 23.1414 27.1614 23.1414C10.1078 23.1414 9.88757 23.1455 9.5673 23.4699ZM9.51136 30.8336C9.1345 31.2552 9.17115 32.0589 9.58433 32.4377C9.91546 32.7413 10.4397 32.7506 27.1614 32.7506C43.8831 32.7506 44.4074 32.7413 44.7385 32.4377C45.1676 32.0443 45.1914 31.179 44.7832 30.805C44.5113 30.5556 43.0534 30.5331 27.1332 30.5331C10.5274 30.5331 9.76822 30.5461 9.51136 30.8336ZM9.5673 38.0891C9.38715 38.2716 9.24299 38.6366 9.24299 38.9104C9.24299 39.1842 9.38715 39.5492 9.5673 39.7317C9.88546 40.054 10.1078 40.0602 21.1616 40.0602C32.2154 40.0602 32.4377 40.054 32.7559 39.7317C32.936 39.5492 33.0802 39.1842 33.0802 38.9104C33.0802 38.6366 32.936 38.2716 32.7559 38.0891C32.4377 37.7668 32.2154 37.7606 21.1616 37.7606C10.1078 37.7606 9.88546 37.7668 9.5673 38.0891ZM36.972 38.0891C36.7918 38.2716 36.6476 38.6366 36.6476 38.9104C36.6476 39.1842 36.7918 39.5492 36.972 39.7317C37.2766 40.0404 37.5124 40.0602 40.8637 40.0602C44.215 40.0602 44.4508 40.0404 44.7555 39.7317C44.9357 39.5492 45.0798 39.1842 45.0798 38.9104C45.0798 38.6366 44.9357 38.2716 44.7555 38.0891C44.4508 37.7805 44.215 37.7606 40.8637 37.7606C37.5124 37.7606 37.2766 37.7805 36.972 38.0891ZM10.0538 45.1022C9.21137 45.4243 8.95727 46.4822 9.58433 47.0569C9.90994 47.3554 10.2821 47.3699 17.6752 47.3699C25.0683 47.3699 25.4404 47.3554 25.766 47.0569C26.2181 46.6425 26.2183 45.7977 25.7662 45.3831C25.4419 45.0858 25.0483 45.0687 17.861 45.0396C13.7009 45.0229 10.1876 45.051 10.0538 45.1022ZM9.5673 52.7083C9.38715 52.8908 9.24299 53.2558 9.24299 53.5296C9.24299 53.8035 9.38715 54.1684 9.5673 54.3509C9.88254 54.6703 10.1078 54.6795 17.6445 54.6795C25.2228 54.6795 25.4056 54.6719 25.7524 54.3445C26.2001 53.922 26.2147 53.1456 25.7831 52.7083C25.4678 52.389 25.2426 52.3798 17.6752 52.3798C10.1078 52.3798 9.88254 52.389 9.5673 52.7083ZM53.7553 53.1809C52.9719 53.3895 52.3362 53.7875 51.7116 54.4607C50.5413 55.7214 45.0289 62.8117 44.8141 63.3322C44.4319 64.2591 44.5308 65.6902 45.0463 66.6899C45.8209 68.1917 47.1397 68.9673 48.9226 68.9691L49.7654 68.9701L49.8145 72.7071C49.8622 76.3502 49.8732 76.4578 50.2528 76.9971C50.9581 77.9986 51.594 78.161 54.8244 78.1651C57.5008 78.1686 57.7213 78.1451 58.3918 77.7868C58.8373 77.5488 59.2429 77.1621 59.4687 76.7602C59.8127 76.148 59.831 75.9354 59.8336 72.5428L59.8362 68.9701H60.8584C63.6456 68.9701 65.6221 66.2961 64.865 63.5495C64.7685 63.1997 63.4615 61.3992 61.5265 58.9502C57.8509 54.2984 57.5331 53.9391 56.7166 53.5129C56.036 53.1576 54.4924 52.9844 53.7553 53.1809ZM53.8886 55.6143C53.4632 55.8595 49.9428 60.1451 47.461 63.439C46.7025 64.4454 46.6328 65.4063 47.2712 66.053C47.766 66.5542 48.2837 66.6705 50.0208 66.6705C52.0447 66.6705 51.954 66.4517 52.0526 71.5742L52.1337 75.787H54.8093H57.4849L57.5284 71.6059C57.5819 66.4382 57.4755 66.6705 59.7914 66.6705C61.4213 66.6705 62.0459 66.473 62.5019 65.8135C62.8359 65.3306 62.8239 64.3804 62.4774 63.8736C61.9545 63.1087 56.311 56.076 55.978 55.7743C55.4886 55.3309 54.5101 55.256 53.8886 55.6143Z" fill="#FDD304"/>
</svg>
