<svg width="84" height="84" viewBox="0 0 84 84" fill="none" xmlns="http://www.w3.org/2000/svg">
<path fill-rule="evenodd" clip-rule="evenodd" d="M7.28814 0.224442C4.20964 0.754795 1.49485 3.07603 0.43253 6.0863C0.0927319 7.04956 0.00622582 14.3761 0.00622582 42.1907V77.0867L0.924043 78.9645C1.94672 81.0566 3.21514 82.2848 5.41286 83.3113C6.87986 83.9964 7.06499 84 41.7847 84C76.5045 84 76.6896 83.9964 78.1566 83.3113C78.9676 82.9327 80.0991 82.2256 80.6705 81.74C81.9554 80.649 83.3994 77.8139 83.3994 76.3831C83.3994 75.7955 83.5469 75.2233 83.7271 75.1114C83.9427 74.9774 84.0325 63.5197 83.9896 41.5952C83.9535 23.2732 83.8356 9.98608 83.7271 12.0683C83.6186 14.1505 83.5007 15.6 83.4646 15.2896C83.4289 14.9792 83.1143 14.5719 82.7657 14.3843C82.3397 14.1555 70.3003 14.0436 46.0661 14.0436C10.4371 14.0436 9.99244 14.0515 9.34495 14.702C8.5238 15.527 8.5238 15.8522 9.34495 16.6772C9.99211 17.3274 10.4371 17.3356 45.2253 17.3356H80.4503V46.9126V76.4891L79.6957 77.9228C79.18 78.9026 78.4895 79.5962 77.5144 80.1144L76.0874 80.8725H41.7847H7.48212L6.0551 80.1144C5.07994 79.5962 4.38953 78.9026 3.87377 77.9228L3.11913 76.4891V42.0261V7.56312L3.87377 6.12942C4.38953 5.14971 5.07994 4.45607 6.0551 3.9379L7.48212 3.17973H41.5524C66.6631 3.17973 75.9602 3.28113 76.9056 3.56589C78.6796 4.09987 79.9801 5.68368 80.2744 7.6688C80.5523 9.54363 80.9206 10.0931 81.8993 10.0931C82.9843 10.0931 83.3994 9.45507 83.3994 7.78731C83.3994 5.67808 82.1149 3.2143 80.3658 1.96825C77.5229 -0.0567 79.7311 0.0585223 42.7678 0.00453235C24.1149 -0.0227918 8.14894 0.0762994 7.28814 0.224442ZM9.20241 7.76492C7.96774 9.13541 9.36396 10.4269 12.0696 10.4173C13.8233 10.4111 15.0501 9.78724 15.1864 8.83221C15.3765 7.50024 14.7146 7.13021 12.141 7.13021C10.2195 7.13021 9.66673 7.24972 9.20241 7.76492ZM19.688 7.76492C18.4533 9.13541 19.8495 10.4269 22.5552 10.4173C24.3089 10.4111 25.5357 9.78724 25.672 8.83221C25.862 7.50024 25.2001 7.13021 22.6266 7.13021C20.7051 7.13021 20.1523 7.24972 19.688 7.76492ZM70.4622 7.66517C69.157 8.97641 70.6099 10.4127 73.2415 10.4127C75.8731 10.4127 77.326 8.97641 76.0208 7.66517C75.2701 6.91063 71.2129 6.91063 70.4622 7.66517ZM0 42.0261C0 60.4041 0.0396486 67.9222 0.0881445 58.7334C0.136313 49.5442 0.136313 34.5077 0.0881445 25.3189C0.0396486 16.1297 0 23.6482 0 42.0261ZM36.6065 23.4352C26.77 25.5806 19.0487 33.0473 16.5613 42.8195C15.7641 45.9519 15.6789 51.3012 16.3739 54.5962C18.5801 65.0545 27.5909 73.3959 38.3442 74.9346C41.5652 75.3955 42.0262 75.3626 42.7678 74.6176C43.3966 73.9859 43.4231 73.5204 43.4231 63.0954C43.4231 52.6704 43.3966 52.2049 42.7678 51.5731C42.4073 51.211 41.965 50.9147 41.7847 50.9147C41.6045 50.9147 41.1622 51.211 40.8017 51.5731C40.1755 52.2022 40.1464 52.6704 40.1464 62.1278V72.0244L38.5899 71.7963C31.0724 70.6954 24.763 66.1175 21.3578 59.2927C19.632 55.8337 19.0559 53.2916 19.049 49.1041C19.0317 38.6692 24.9803 30.5477 35.2312 27.0107C36.674 26.5129 37.9811 26.3888 41.7847 26.3888C45.5884 26.3888 46.8955 26.5129 48.3382 27.0107C56.3119 29.7619 61.6317 35.2201 63.7865 42.8607C64.7089 46.1323 64.7842 51.3061 63.9565 54.536C62.7582 59.2111 59.8452 63.8335 56.2493 66.7664C52.2903 69.9955 52.4181 69.8441 52.849 70.7939C53.4745 72.1732 54.701 71.9303 57.3522 69.903C61.9233 66.4072 65.5854 60.784 67.019 55.0594C67.9093 51.5047 67.9047 46.341 67.0082 42.8195C64.5011 32.9706 56.6998 25.4776 46.8178 23.4269C43.9127 22.8242 39.3907 22.8278 36.6065 23.4352ZM36.5419 32.57C33.5844 33.5866 31.751 34.7414 29.5412 36.9791C27.0731 39.4784 25.2169 43.1998 24.6867 46.7098C24.3361 49.0326 24.3547 49.3115 24.9026 49.9195C25.2326 50.2859 25.7516 50.5855 26.0564 50.5855C26.885 50.5855 27.6947 49.5087 27.6947 48.4065C27.6947 46.8767 28.6152 43.7123 29.5756 41.9392C30.0579 41.0494 31.2326 39.6048 32.1865 38.7288C40.109 31.454 52.6835 35.1233 55.3724 45.4943C55.6487 46.56 55.8747 47.8962 55.8747 48.4638C55.8747 49.5423 56.7084 50.5855 57.5701 50.5855C57.8434 50.5855 58.3369 50.2859 58.6669 49.9195C59.2147 49.3115 59.2334 49.0326 58.8828 46.7098C57.8683 39.991 52.8873 34.2621 46.3945 32.3458C43.7249 31.558 39.185 31.6614 36.5419 32.57ZM39.7148 40.7261C36.8745 41.4329 34.3419 44.007 33.5581 46.9837C33.0453 48.9303 33.3573 50.1845 34.4212 50.4525C35.5691 50.7422 36.1206 50.1487 36.539 48.1734C37.1298 45.3834 39.1221 43.6745 41.7847 43.6745C44.4127 43.6745 46.4269 45.3748 47.0197 48.0941C47.2146 48.9869 47.5351 49.9129 47.7324 50.1516C48.6082 51.2117 50.3043 50.2184 50.3043 48.6455C50.3043 45.9638 48.0207 42.5542 45.3852 41.3002C43.8999 40.5938 41.3037 40.3307 39.7148 40.7261Z" fill="white"/>
<path fill-rule="evenodd" clip-rule="evenodd" d="M9.20241 7.76492C7.96774 9.13541 9.36396 10.4269 12.0696 10.4173C13.8233 10.4111 15.0501 9.78724 15.1864 8.83221C15.3765 7.50024 14.7146 7.13021 12.141 7.13021C10.2195 7.13021 9.66673 7.24972 9.20241 7.76492ZM19.688 7.76492C18.4533 9.13541 19.8495 10.4269 22.5552 10.4173C24.3089 10.4111 25.5357 9.78724 25.672 8.83221C25.862 7.50024 25.2001 7.13021 22.6266 7.13021C20.7051 7.13021 20.1523 7.24972 19.688 7.76492ZM70.4622 7.66517C69.157 8.97641 70.6099 10.4127 73.2415 10.4127C75.873 10.4127 77.326 8.97641 76.0208 7.66517C75.2701 6.91063 71.2129 6.91063 70.4622 7.66517ZM0 42.0261C0 60.4041 0.0396486 67.9222 0.0881445 58.7334C0.136313 49.5442 0.136313 34.5077 0.0881445 25.3189C0.0396486 16.1297 0 23.6482 0 42.0261ZM36.6065 23.4352C26.77 25.5806 19.0487 33.0473 16.5613 42.8195C15.7641 45.9519 15.6789 51.3012 16.3739 54.5962C18.5801 65.0545 27.5909 73.3959 38.3442 74.9346C41.5652 75.3955 42.0262 75.3626 42.7678 74.6176C43.3966 73.9859 43.4231 73.5204 43.4231 63.0954C43.4231 52.6704 43.3966 52.2049 42.7678 51.5731C42.4073 51.211 41.965 50.9147 41.7847 50.9147C41.6045 50.9147 41.1622 51.211 40.8017 51.5731C40.1755 52.2022 40.1464 52.6704 40.1464 62.1278V72.0244L38.5899 71.7963C31.0724 70.6954 24.763 66.1175 21.3578 59.2927C19.632 55.8337 19.0559 53.2916 19.049 49.1041C19.0317 38.6692 24.9803 30.5477 35.2312 27.0107C36.674 26.5129 37.9811 26.3888 41.7847 26.3888C45.5884 26.3888 46.8955 26.5129 48.3382 27.0107C56.3119 29.7619 61.6317 35.2201 63.7864 42.8607C64.7088 46.1323 64.7842 51.3061 63.9565 54.536C62.7582 59.2111 59.8452 63.8335 56.2493 66.7664C52.2903 69.9955 52.4181 69.8441 52.849 70.7939C53.4745 72.1732 54.701 71.9303 57.3522 69.903C61.9233 66.4072 65.5854 60.784 67.019 55.0594C67.9092 51.5047 67.9047 46.341 67.0081 42.8195C64.5011 32.9706 56.6998 25.4776 46.8178 23.4269C43.9127 22.8242 39.3907 22.8278 36.6065 23.4352ZM36.5419 32.57C33.5844 33.5866 31.751 34.7414 29.5412 36.9791C27.0731 39.4784 25.2169 43.1998 24.6867 46.7098C24.3361 49.0326 24.3547 49.3115 24.9026 49.9195C25.2326 50.2859 25.7516 50.5855 26.0564 50.5855C26.885 50.5855 27.6947 49.5087 27.6947 48.4065C27.6947 46.8767 28.6152 43.7123 29.5756 41.9392C30.0579 41.0494 31.2326 39.6048 32.1865 38.7288C40.109 31.454 52.6835 35.1233 55.3724 45.4943C55.6486 46.56 55.8747 47.8962 55.8747 48.4638C55.8747 49.5423 56.7083 50.5855 57.5701 50.5855C57.8434 50.5855 58.3369 50.2859 58.6669 49.9195C59.2147 49.3115 59.2334 49.0326 58.8828 46.7098C57.8683 39.991 52.8873 34.2621 46.3945 32.3458C43.7249 31.558 39.185 31.6614 36.5419 32.57ZM39.7148 40.7261C36.8745 41.4329 34.3419 44.007 33.5581 46.9837C33.0453 48.9303 33.3573 50.1845 34.4212 50.4525C35.5691 50.7422 36.1206 50.1487 36.539 48.1734C37.1298 45.3834 39.1221 43.6745 41.7847 43.6745C44.4127 43.6745 46.4269 45.3748 47.0197 48.0941C47.2146 48.9869 47.5351 49.9129 47.7324 50.1516C48.6082 51.2117 50.3043 50.2184 50.3043 48.6455C50.3043 45.9638 48.0207 42.5542 45.3852 41.3002C43.8999 40.5938 41.3037 40.3307 39.7148 40.7261Z" fill="#FDD304"/>
</svg>
