<svg width="723" height="272" viewBox="0 0 723 272" fill="none" xmlns="http://www.w3.org/2000/svg">
<path fill-rule="evenodd" clip-rule="evenodd" d="M464.027 0.109426C463.634 0.211788 462.784 0.693995 462.138 1.18084L460.963 2.06536L461.01 118.29C461.035 182.213 460.952 234.683 460.825 234.889C460.665 235.148 445.761 235.264 412.649 235.264C366.655 235.264 364.681 235.237 364.114 234.611C363.627 234.074 363.523 233.134 363.523 229.283C363.523 225.956 363.396 224.528 363.082 224.334C362.839 224.184 355.389 224.103 346.526 224.154C333.205 224.23 330.379 224.163 330.224 223.761C329.943 223.029 330.303 209.101 330.611 208.793C330.759 208.646 344.937 208.518 362.12 208.508C387.198 208.495 393.538 208.399 394.264 208.023C394.761 207.765 395.568 207.454 396.056 207.331C396.545 207.209 397.697 206.368 398.616 205.462C401.671 202.454 401.454 206.893 401.385 148.773C401.352 120.525 401.179 96.3666 401.002 95.0865C400.825 93.8064 400.441 92.2817 400.149 91.6982C399.374 90.1517 396.79 87.8366 394.953 87.0448C393.392 86.3715 391.42 86.3572 300.876 86.3572H208.393L205.894 87.1262C201.069 88.6113 200.107 89.5215 198.948 93.6977C198.249 96.2193 198.233 97.3916 198.208 148.107L198.182 199.94L199.296 202.355C200.623 205.231 202.111 206.881 204.271 207.87C205.836 208.586 206.35 208.597 236.627 208.541C264.72 208.489 267.413 208.534 267.617 209.063C268.044 210.177 267.869 223.434 267.422 223.709C267.193 223.851 260.727 223.985 253.052 224.008C236.997 224.056 236.006 224.181 235.323 226.249C234.938 227.414 234.82 233.27 235.17 233.835C235.256 233.975 235.131 234.342 234.892 234.652C234.499 235.161 228.522 235.226 173.226 235.324C139.549 235.384 111.779 235.296 111.515 235.128C110.982 234.789 111.117 233.096 111.974 229.379C112.551 226.875 113.262 223.641 114.325 218.679C114.746 216.717 115.307 214.39 115.572 213.507C115.838 212.625 116.237 211.1 116.46 210.119C116.682 209.138 117.065 207.453 117.31 206.374C117.555 205.295 117.878 204.143 118.028 203.814C118.177 203.485 118.534 202.201 118.82 200.961C119.707 197.11 119.758 196.934 120.12 196.477C120.341 196.198 121.389 196.031 122.92 196.031C126.747 196.031 126.634 196.425 126.634 183.191C126.634 173.348 126.572 172.187 126.001 171.316L125.368 170.351H81.093C39.2623 170.351 36.8041 170.386 36.5617 170.975C36.4203 171.318 36.305 176.691 36.305 182.914C36.305 194.196 36.3071 194.229 37.1144 195.036C37.6974 195.619 38.4861 195.896 39.9338 196.027C41.2141 196.143 42.0439 196.404 42.2192 196.744C42.6369 197.557 44.3339 204.261 45.1979 208.514C45.2975 209.004 45.7127 210.77 46.1208 212.437C46.8181 215.287 48.0134 220.564 48.504 222.959C48.6243 223.547 48.8639 224.304 49.0356 224.64C49.2073 224.977 49.5836 226.501 49.8714 228.029C50.1592 229.556 50.5437 231.526 50.7258 232.405C51.2095 234.745 50.83 235.214 48.539 235.108C47.505 235.06 40.2323 234.895 32.3776 234.742C20.466 234.51 16.7933 234.562 10.2418 235.059C1.41348 235.729 0.940417 235.806 0.560894 236.633C0.412012 236.959 0.224571 244.566 0.144954 253.537L0 269.849L1.0768 270.924L2.1536 272H361.894H721.635L722.344 270.841C723.029 269.721 723.051 269.102 722.964 252.779L722.874 235.875L721.865 235.124L720.856 234.372H678.486H636.116L635.904 231.906C635.55 227.792 637.686 228.129 612.066 228.136C599.283 228.139 589.841 228.279 589.539 228.47C589.206 228.68 588.935 229.715 588.785 231.355C588.641 232.927 588.359 234.034 588.055 234.228C587.782 234.402 580.591 234.505 572.029 234.458L556.498 234.372L556.385 232.796C556.192 230.089 556.455 229.633 558.374 229.357C560.889 228.995 563.072 227.905 565.007 226.044C572.238 219.092 568.548 209.214 558.206 207.836C557.182 207.699 556.27 207.514 556.18 207.424C556.09 207.334 556.128 206.721 556.263 206.061C556.731 203.775 556.34 202.236 554.898 200.674L553.547 199.213L537.706 199.33C519.969 199.461 519.675 199.497 518.601 201.655C517.989 202.885 517.934 204.181 517.88 218.797C517.848 227.493 517.768 234.661 517.702 234.726C517.636 234.791 505.981 234.913 491.801 234.998C474.18 235.103 465.904 235.034 465.649 234.78C465.149 234.28 465.125 6.73229 465.625 5.41799L465.973 4.50315H538.625H611.277L611.736 5.30564C612.101 5.94407 612.195 13.1626 612.195 40.6299V75.1516L614.337 75.0478L616.479 74.944V38.1311C616.479 4.2674 616.431 1.27072 615.884 0.725025C615.335 0.175765 609.666 0.123693 540.016 0.0270374C498.615 -0.0303852 464.42 0.0067073 464.027 0.109426ZM587.979 80.3831C586.764 82.8088 586.178 85.4891 585.23 92.9554C585.043 94.4267 584.656 96.9946 584.369 98.662C583.736 102.345 583.141 106.749 582.739 110.724C582.466 113.425 582.215 115.032 580.946 122.202C580.72 123.477 580.318 125.965 580.053 127.73C579.788 129.496 579.319 132.624 579.01 134.682C578.701 136.74 578.364 138.691 578.26 139.017C578.156 139.344 577.832 141.672 577.539 144.192C577.246 146.712 576.912 149.576 576.798 150.556C576.627 152.017 576.72 152.501 577.312 153.231L578.035 154.123L613.426 154.217C637.627 154.282 649.039 154.193 649.518 153.937C650.13 153.611 650.218 153.178 650.218 150.524C650.218 148.852 650.059 146.811 649.864 145.989C649.67 145.166 649.272 142.487 648.982 140.035C648.031 132.009 647.502 128.352 646.117 120.24C645.815 118.475 645.413 115.826 645.223 114.355C644.568 109.286 643.871 104.9 643.494 103.477C643.286 102.692 643.014 101.007 642.888 99.732C642.763 98.457 642.516 96.9322 642.339 96.3437C642.162 95.7552 641.862 93.3478 641.672 90.9938C641.238 85.6207 640.476 81.4481 639.718 80.2932L639.134 79.4023H613.802H588.47L587.979 80.3831ZM591.67 83.9633C591.074 84.4455 590.81 85.1945 590.571 87.0826C590.399 88.449 590.099 90.2894 589.906 91.1721C589.712 92.0549 589.547 93.5186 589.539 94.4245C589.53 95.3305 589.29 97.4169 589.004 99.0611C588.719 100.705 588.326 103.495 588.131 105.26C587.777 108.468 587.457 110.638 586.448 116.673C586.153 118.439 585.773 121.087 585.604 122.558C585.061 127.288 584.514 130.883 583.976 133.258C583.687 134.533 583.294 136.7 583.103 138.073C582.496 142.437 581.774 146.244 581.358 147.28C581.136 147.833 580.954 148.675 580.954 149.153V150.021H612.705C648.838 150.021 645.843 150.297 645.443 147.01C644.9 142.544 644.178 137.568 643.836 135.933C643.631 134.952 643.286 132.786 643.068 131.118C641.869 121.942 640.762 114.219 640.284 111.68C639.832 109.287 639.377 105.965 638.597 99.3754C638.307 96.9233 637.987 94.6549 637.885 94.3343C637.784 94.0137 637.553 92.4633 637.373 90.8889C636.941 87.1005 636.056 84.1241 635.292 83.8848C634.96 83.781 625.185 83.613 613.571 83.5121C593.699 83.3391 592.409 83.3655 591.67 83.9633ZM271.409 91.1625C223.017 91.3023 206.067 91.4568 205.533 91.7631C204.331 92.4543 203.694 93.4109 203.267 95.1643C202.755 97.2657 202.68 175.548 203.189 175.862C203.687 176.17 396.116 176.098 396.416 175.79C396.849 175.347 396.9 95.0544 396.469 94.0254C395.992 92.8877 395.089 92.1144 393.514 91.4949C392.043 90.916 374.03 90.8668 271.409 91.1625ZM76.9707 99.324C75.7543 100.214 72.3211 103.728 71.2939 105.135C71.0976 105.404 70.3617 106.345 69.6584 107.226C68.2474 108.993 66.3765 112.145 65.1102 114.89C64.6574 115.871 64.1315 116.96 63.9416 117.31C63.139 118.789 60.9904 125.808 60.5334 128.443C59.7686 132.854 59.3737 136.414 59.3527 139.093L59.3334 141.539L58.3516 141.294C57.8117 141.159 57.1287 140.84 56.8342 140.585C56.0537 139.907 46.0594 135.044 45.4178 135.029C45.1186 135.023 44.231 134.707 43.4456 134.328C42.4523 133.849 41.2366 133.636 39.4533 133.627C36.9872 133.615 36.8591 133.657 36.1007 134.721C35.4113 135.689 35.3167 136.259 35.3463 139.268C35.3799 142.69 36.1736 147.993 37.009 150.378C37.2497 151.065 37.8073 152.75 38.2486 154.123C38.6899 155.496 39.2769 157.125 39.5525 157.744C39.8281 158.362 40.0538 158.955 40.0538 159.062C40.0538 159.422 42.6712 163.742 43.598 164.912C44.4831 166.029 44.6113 166.071 47.1051 166.071C48.529 166.071 49.6936 166.004 49.6936 165.921C49.6936 165.839 48.836 164.515 47.7881 162.979C45.8505 160.139 45.1782 158.822 42.5384 152.696C41.3223 149.875 39.6878 139.054 40.4101 138.609C40.8139 138.359 43.2753 139.001 45.2307 139.864C45.8198 140.124 47.1473 140.676 48.1805 141.09C49.2134 141.503 50.82 142.288 51.7508 142.832C52.6812 143.377 53.6834 143.941 53.978 144.086C54.9294 144.553 57.0784 145.885 59.2134 147.331C66.6557 152.373 73.9113 159.712 76.6122 164.929L77.2031 166.071L81.2108 166.067L85.2181 166.062L86.0214 164.824C86.4634 164.142 86.8247 163.504 86.8247 163.405C86.8247 163.307 87.7698 161.9 88.9248 160.279C92.6872 155.001 101.82 146.471 106.104 144.235C106.792 143.875 107.997 143.187 108.782 142.703C110.561 141.609 113.942 139.993 117.058 138.748C120.365 137.426 120.598 137.628 120.444 141.686C120.328 144.772 119.426 149.133 118.362 151.751C116.507 156.319 113.23 162.037 110.974 164.645L109.893 165.893L112.703 165.998C115.404 166.099 115.545 166.065 116.331 165.106C116.782 164.558 117.252 163.812 117.375 163.449C117.499 163.085 118 162.203 118.487 161.487C119.274 160.331 122.132 154.58 122.854 152.696C124.713 147.85 125.61 142.301 125.262 137.797C124.905 133.174 123.749 132.294 119.314 133.269C115.581 134.089 108.774 137.21 104.785 139.931C103.765 140.627 102.703 141.109 102.424 141.002C102.062 140.863 101.847 139.853 101.674 137.479C101.36 133.188 99.942 126.682 98.4218 122.558C96.7669 118.069 95.1489 114.467 94.6483 114.158C94.4691 114.047 94.3224 113.71 94.3224 113.41C94.3224 113.109 93.9921 112.436 93.5883 111.915C93.1845 111.393 92.4658 110.405 91.9917 109.719C91.5175 109.032 90.6853 107.828 90.143 107.044C88.9391 105.303 83.8546 100.132 82.3069 99.0747C80.681 97.9641 78.7034 98.0564 76.9707 99.324ZM76.8932 105.652C75.4533 107.143 73.5753 109.312 72.7199 110.473C71.1358 112.623 67.5469 119.54 67.543 120.452C67.5415 120.728 67.2887 121.435 66.981 122.023C66.3787 123.174 65.9767 124.769 65.2265 128.978C64.9645 130.45 64.586 132.562 64.3861 133.674C64.1858 134.785 63.9805 137.814 63.9298 140.405L63.8377 145.116L64.8863 145.874C68.3613 148.389 75.0727 155.142 76.6015 157.662C76.9678 158.266 78.146 159.851 79.2203 161.186C81.4307 163.932 81.3836 163.934 83.4079 160.956C87.6477 154.718 88.6852 153.459 93.6733 148.501C97.0079 145.186 97.5349 144.504 97.5299 143.507C97.5181 141.159 96.8337 134.111 96.4492 132.376C95.6352 128.702 94.1785 123.582 93.8982 123.409C93.739 123.31 93.6083 122.931 93.6083 122.566C93.6083 121.856 93.2177 121.007 90.5668 115.96C88.6516 112.314 86.1728 108.949 83.1437 105.884C81.5443 104.266 80.0726 102.942 79.8734 102.942C79.6741 102.942 78.3331 104.161 76.8932 105.652ZM593.65 159.027C593.575 159.273 593.428 159.794 593.323 160.186C593.003 161.384 589.651 170.926 589.417 171.304C589.296 171.499 588.788 172.929 588.287 174.482C587.787 176.035 587.222 177.627 587.031 178.019C586.841 178.412 585.946 180.969 585.042 183.703C582.967 189.98 583.092 191.405 585.714 191.39C586.484 191.385 588.093 189.406 588.097 188.457C588.099 188.209 588.315 187.594 588.578 187.09C588.841 186.587 589.166 185.704 589.302 185.129C589.437 184.553 589.768 183.601 590.038 183.013C590.768 181.42 592.7 176.022 594.06 171.778C594.343 170.895 594.723 169.894 594.905 169.554C595.087 169.213 595.236 168.649 595.236 168.3C595.236 167.951 595.557 167.067 595.95 166.335C596.342 165.603 596.664 164.672 596.664 164.266C596.664 163.86 596.848 163.184 597.072 162.765C597.297 162.346 597.684 161.233 597.933 160.292L598.384 158.581H596.085C594.556 158.581 593.74 158.731 593.65 159.027ZM611.827 191.216L611.817 223.851H613.88H615.943V191.216V158.581H613.89L611.838 158.582L611.827 191.216ZM625.767 159.205C626.048 159.878 626.807 162.914 627.484 166.071C627.715 167.15 628.018 168.208 628.158 168.422C628.298 168.637 628.565 169.68 628.753 170.741C628.941 171.801 629.425 174.114 629.829 175.879C630.233 177.645 630.736 179.892 630.946 180.873C631.156 181.854 631.502 183.378 631.714 184.261C631.928 185.144 632.31 186.909 632.564 188.184C632.818 189.459 633.267 191.706 633.561 193.178C633.855 194.649 634.284 196.816 634.514 197.993C634.744 199.17 635.148 201.176 635.412 202.451C635.676 203.726 635.992 205.491 636.116 206.374C636.553 209.51 638.334 214.031 639.583 215.174C640.391 215.913 641.12 215.588 641.861 214.158C642.398 213.12 642.417 212.667 642.029 210.127C641.788 208.553 641.383 206.704 641.128 206.017C640.872 205.331 640.546 203.886 640.402 202.807C640.259 201.729 640.02 200.685 639.872 200.489C639.724 200.293 639.49 199.25 639.353 198.171C639.216 197.092 638.891 195.487 638.631 194.604C638.371 193.722 637.802 191.394 637.368 189.433C636.934 187.471 636.427 185.361 636.242 184.743C636.057 184.125 635.76 182.841 635.583 181.89C635.405 180.938 635.03 179.277 634.749 178.198C634.467 177.119 633.962 174.952 633.626 173.383C632.979 170.36 632.343 167.638 631.668 165.001C631.294 163.538 630.821 161.476 630.38 159.384C630.225 158.65 630.01 158.581 627.859 158.581C625.757 158.581 625.535 158.648 625.767 159.205ZM42.553 174.19C40.7814 174.494 40.7678 174.561 40.7678 183.044C40.7678 190.271 40.826 191.043 41.3926 191.339C41.7625 191.533 58.1652 191.64 81.5932 191.603C120.433 191.54 121.176 191.526 121.575 190.842C122.06 190.011 122.072 175.088 121.588 174.646C121.271 174.357 44.1721 173.912 42.553 174.19ZM203.458 181.14C202.919 181.534 202.837 182.489 202.764 189.254C202.671 197.818 203.067 200.625 204.633 202.495C205.145 203.107 206.048 203.68 206.715 203.816C207.363 203.948 249.657 203.976 300.703 203.877L393.512 203.699L395.125 201.969L396.738 200.239L396.643 190.556L396.548 180.873L300.309 180.783C223.691 180.712 203.944 180.784 203.458 181.14ZM296.548 185.42C293.226 187.26 291.899 188.91 291.56 191.624C291.025 195.898 293.326 199.394 297.22 200.223C301.55 201.146 305.821 197.97 306.281 193.484C306.668 189.71 305.156 187.131 301.578 185.459C299.345 184.415 298.376 184.408 296.548 185.42ZM297.254 189.908C295.166 191.651 295.388 194.703 297.683 195.796C299.394 196.611 299.771 196.551 300.833 195.29C302.645 193.139 302.352 190.91 300.118 189.846C298.574 189.11 298.2 189.118 297.254 189.908ZM47.2194 196.536C46.8202 197.016 46.8377 197.355 47.3258 198.633C47.6464 199.471 47.9059 200.472 47.9034 200.858C47.9006 201.244 48.2073 202.602 48.5854 203.877C49.5408 207.101 50.0553 209.136 50.3877 211.011C50.6501 212.489 50.9668 213.811 52.3545 219.214C53.286 222.842 53.9583 225.803 54.1757 227.239C54.2946 228.024 54.6199 229.271 54.8991 230.01C55.1779 230.75 55.4061 231.841 55.4061 232.435C55.4061 233.03 55.6514 233.989 55.9509 234.568L56.4954 235.62H81.064H105.633L106.09 234.64C106.555 233.644 107.177 231.253 108.064 227.061C108.333 225.785 108.95 223.137 109.435 221.176C109.92 219.214 110.674 216.004 111.111 214.042C111.549 212.081 112.126 209.654 112.394 208.65C112.662 207.646 113.295 204.838 113.802 202.409C114.309 199.98 114.807 197.653 114.909 197.237C115.052 196.657 114.901 196.44 114.259 196.306C113.8 196.209 98.6346 196.093 80.5596 196.046C50.7461 195.97 47.6514 196.016 47.2194 196.536ZM535.433 203.853L522.58 204.056V219.214V234.372L536.698 234.465C548.488 234.543 550.932 234.474 551.515 234.048C552.189 233.556 552.214 233.019 552.214 219.082C552.214 208.569 552.1 204.513 551.798 204.212C551.231 203.645 550.146 203.621 535.433 203.853ZM272.284 208.967C272.187 209.219 272.152 212.711 272.205 216.727L272.302 224.029L298.587 224.12C319.366 224.193 324.938 224.118 325.186 223.764C325.358 223.517 325.419 220.025 325.321 216.004L325.142 208.692L298.801 208.601C277.625 208.527 272.425 208.599 272.284 208.967ZM534.146 209.496C531.232 210.908 530.119 212.891 530.094 216.717C530.073 220.19 530.298 220.876 532.046 222.665C536.491 227.216 544.537 223.782 544.537 217.335C544.537 214.758 544.175 213.629 542.851 212.084C540.567 209.418 536.687 208.265 534.146 209.496ZM556.725 212.558C556.385 212.966 556.297 214.5 556.383 218.509C556.488 223.422 556.562 223.957 557.212 224.437C558.263 225.214 559.836 224.759 561.43 223.219C565.058 219.713 564.952 216.21 561.128 213.296C559.624 212.15 557.377 211.773 556.725 212.558ZM535.322 214.591C534.21 215.627 534.234 218.088 535.367 219.152C536.662 220.367 538.248 220.189 539.153 218.726C540.208 217.02 540.106 215.887 538.797 214.787C537.475 213.676 536.372 213.614 535.322 214.591ZM240.14 229.326C240.038 229.592 240.002 230.837 240.062 232.091L240.169 234.372L299.54 234.462L358.912 234.553L358.807 231.787L358.703 229.022L299.515 228.932C249.915 228.856 240.296 228.92 240.14 229.326ZM543.823 239.078C541.172 239.117 529.846 239.315 518.653 239.519C502.713 239.809 142.52 240.015 20.9527 239.803C13.098 239.789 6.22768 239.889 5.68535 240.026L4.69923 240.273L4.79277 253.729L4.88631 267.185L361.202 267.395C662.904 267.572 717.601 267.53 718.054 267.115C718.502 266.706 718.619 264.714 718.768 254.957C718.958 242.57 718.835 240.031 718.025 239.518C717.73 239.332 683.261 239.177 635.58 239.147C590.514 239.119 552.517 239.076 551.142 239.053C549.768 239.028 546.474 239.04 543.823 239.078Z" fill="#96DDDC"/>
<path fill-rule="evenodd" clip-rule="evenodd" d="M76.9707 99.324C75.7543 100.214 72.3211 103.728 71.2939 105.135C71.0976 105.404 70.3617 106.345 69.6584 107.226C68.2474 108.993 66.3765 112.145 65.1102 114.89C64.6574 115.871 64.1315 116.96 63.9416 117.31C63.139 118.789 60.9904 125.808 60.5334 128.443C59.7686 132.854 59.3737 136.414 59.3527 139.093L59.3334 141.539L58.3516 141.294C57.8117 141.159 57.1287 140.84 56.8342 140.585C56.0537 139.907 46.0594 135.044 45.4178 135.029C45.1186 135.023 44.231 134.707 43.4456 134.328C42.4523 133.849 41.2366 133.636 39.4533 133.627C36.9872 133.615 36.8591 133.657 36.1007 134.721C35.4113 135.689 35.3167 136.259 35.3463 139.268C35.3799 142.69 36.1736 147.993 37.009 150.378C37.2497 151.065 37.8073 152.75 38.2486 154.123C38.6899 155.496 39.2769 157.125 39.5525 157.744C39.8281 158.362 40.0538 158.955 40.0538 159.062C40.0538 159.422 42.6712 163.742 43.598 164.912C44.4831 166.029 44.6113 166.071 47.1051 166.071C48.529 166.071 49.6936 166.004 49.6936 165.921C49.6936 165.839 48.836 164.515 47.7881 162.979C45.8505 160.139 45.1782 158.822 42.5384 152.696C41.3223 149.875 39.6878 139.054 40.4101 138.609C40.8139 138.359 43.2753 139.001 45.2307 139.864C45.8198 140.124 47.1473 140.676 48.1805 141.09C49.2134 141.503 50.82 142.288 51.7508 142.832C52.6812 143.377 53.6834 143.941 53.978 144.086C54.9294 144.553 57.0784 145.885 59.2134 147.331C66.6557 152.373 73.9113 159.712 76.6122 164.929L77.2031 166.071L81.2108 166.067L85.2181 166.062L86.0214 164.824C86.4634 164.142 86.8247 163.504 86.8247 163.405C86.8247 163.307 87.7698 161.9 88.9248 160.279C92.6872 155.001 101.82 146.471 106.104 144.235C106.792 143.875 107.997 143.187 108.782 142.703C110.561 141.609 113.942 139.993 117.058 138.748C120.365 137.426 120.598 137.628 120.444 141.686C120.328 144.772 119.426 149.133 118.362 151.751C116.507 156.319 113.23 162.037 110.974 164.645L109.893 165.893L112.703 165.998C115.404 166.099 115.545 166.065 116.331 165.106C116.782 164.558 117.252 163.812 117.375 163.449C117.499 163.085 118 162.203 118.487 161.487C119.274 160.331 122.132 154.58 122.854 152.696C124.713 147.85 125.61 142.301 125.262 137.797C124.905 133.174 123.749 132.294 119.314 133.269C115.581 134.089 108.774 137.21 104.785 139.931C103.765 140.627 102.703 141.109 102.424 141.002C102.062 140.863 101.847 139.853 101.674 137.479C101.36 133.188 99.942 126.682 98.4218 122.558C96.7669 118.069 95.1489 114.467 94.6483 114.158C94.4691 114.047 94.3224 113.71 94.3224 113.41C94.3224 113.109 93.9921 112.436 93.5883 111.915C93.1845 111.393 92.4658 110.405 91.9917 109.719C91.5175 109.032 90.6853 107.828 90.143 107.044C88.9391 105.303 83.8546 100.132 82.3069 99.0747C80.681 97.9641 78.7034 98.0564 76.9707 99.324ZM76.8932 105.652C75.4533 107.143 73.5753 109.312 72.7199 110.473C71.1358 112.623 67.5469 119.54 67.543 120.452C67.5415 120.728 67.2887 121.435 66.981 122.023C66.3787 123.174 65.9767 124.769 65.2265 128.978C64.9645 130.45 64.586 132.562 64.3861 133.674C64.1858 134.785 63.9805 137.814 63.9298 140.405L63.8377 145.116L64.8863 145.874C68.3613 148.389 75.0727 155.142 76.6015 157.662C76.9678 158.266 78.146 159.851 79.2203 161.186C81.4307 163.932 81.3836 163.934 83.408 160.956C87.6477 154.718 88.6852 153.459 93.6733 148.501C97.0079 145.186 97.5349 144.504 97.5299 143.507C97.5181 141.159 96.8337 134.111 96.4492 132.376C95.6352 128.702 94.1785 123.582 93.8982 123.409C93.739 123.31 93.6083 122.931 93.6083 122.566C93.6083 121.856 93.2177 121.007 90.5668 115.96C88.6516 112.314 86.1728 108.949 83.1438 105.884C81.5443 104.266 80.0726 102.942 79.8734 102.942C79.6741 102.942 78.3331 104.161 76.8932 105.652ZM593.65 159.027C593.575 159.273 593.428 159.794 593.323 160.186C593.004 161.384 589.651 170.926 589.417 171.304C589.296 171.499 588.788 172.929 588.287 174.482C587.787 176.035 587.222 177.627 587.031 178.019C586.841 178.412 585.946 180.969 585.042 183.703C582.967 189.98 583.092 191.405 585.714 191.39C586.484 191.385 588.093 189.406 588.097 188.457C588.099 188.209 588.315 187.594 588.578 187.09C588.841 186.587 589.167 185.704 589.302 185.129C589.437 184.553 589.768 183.601 590.038 183.013C590.768 181.42 592.7 176.022 594.06 171.778C594.343 170.895 594.723 169.894 594.905 169.554C595.087 169.213 595.236 168.649 595.236 168.3C595.236 167.951 595.557 167.067 595.95 166.335C596.342 165.603 596.664 164.672 596.664 164.266C596.664 163.86 596.848 163.184 597.072 162.765C597.297 162.346 597.684 161.233 597.933 160.292L598.384 158.581H596.085C594.555 158.581 593.74 158.731 593.65 159.027ZM611.827 191.216L611.817 223.851H613.88H615.943V191.216V158.581H613.89L611.838 158.582L611.827 191.216ZM625.767 159.206C626.048 159.878 626.807 162.914 627.484 166.071C627.715 167.15 628.018 168.208 628.158 168.422C628.298 168.637 628.565 169.68 628.753 170.741C628.941 171.801 629.425 174.114 629.829 175.879C630.234 177.645 630.736 179.892 630.946 180.873C631.156 181.854 631.502 183.378 631.714 184.261C631.928 185.144 632.31 186.909 632.564 188.184C632.818 189.459 633.267 191.706 633.561 193.178C633.855 194.649 634.284 196.816 634.514 197.993C634.744 199.17 635.148 201.176 635.412 202.451C635.676 203.726 635.992 205.491 636.116 206.374C636.553 209.51 638.334 214.031 639.583 215.174C640.391 215.913 641.12 215.588 641.861 214.158C642.398 213.12 642.417 212.667 642.029 210.127C641.788 208.553 641.383 206.704 641.128 206.017C640.872 205.331 640.546 203.886 640.402 202.807C640.259 201.729 640.02 200.685 639.872 200.489C639.724 200.293 639.49 199.25 639.353 198.171C639.216 197.092 638.891 195.487 638.631 194.604C638.371 193.722 637.802 191.394 637.368 189.433C636.934 187.471 636.427 185.361 636.242 184.743C636.057 184.125 635.76 182.841 635.583 181.89C635.405 180.938 635.03 179.277 634.749 178.198C634.467 177.119 633.962 174.952 633.626 173.383C632.979 170.36 632.343 167.638 631.668 165.001C631.294 163.538 630.821 161.476 630.38 159.384C630.225 158.65 630.01 158.581 627.859 158.581C625.757 158.581 625.535 158.648 625.767 159.206ZM296.548 185.42C293.226 187.26 291.899 188.91 291.56 191.624C291.025 195.898 293.326 199.394 297.22 200.223C301.55 201.146 305.821 197.97 306.281 193.484C306.668 189.71 305.156 187.131 301.578 185.459C299.345 184.415 298.376 184.408 296.548 185.42ZM297.254 189.908C295.166 191.651 295.388 194.703 297.683 195.796C299.394 196.611 299.771 196.551 300.833 195.29C302.645 193.139 302.352 190.91 300.118 189.846C298.574 189.11 298.2 189.118 297.254 189.908ZM534.146 209.496C531.232 210.908 530.119 212.891 530.094 216.717C530.073 220.19 530.298 220.876 532.046 222.665C536.491 227.216 544.537 223.782 544.537 217.335C544.537 214.758 544.175 213.629 542.851 212.084C540.567 209.418 536.687 208.265 534.146 209.496ZM535.322 214.591C534.21 215.627 534.234 218.088 535.367 219.152C536.662 220.367 538.248 220.189 539.153 218.726C540.208 217.02 540.106 215.887 538.797 214.787C537.475 213.676 536.372 213.614 535.322 214.591Z" fill="#FFCC09"/>
</svg>
