<svg width="250" height="250" viewBox="0 0 250 250" fill="none" xmlns="http://www.w3.org/2000/svg">
<g clip-path="url(#clip0_5013_8193)">
<path d="M126.5 55C136.717 55 145 46.7173 145 36.5C145 26.2827 136.717 18 126.5 18C116.283 18 108 26.2827 108 36.5C108 46.7173 116.283 55 126.5 55Z" fill="white" stroke="#43AFAD" stroke-width="2" stroke-linecap="round" stroke-linejoin="round"/>
<path d="M135 59V83.695C135 84.0411 134.866 84.373 134.627 84.6178C134.388 84.8625 134.064 85 133.727 85H117.273C116.57 85 116 84.4157 116 83.695V59H135Z" fill="white" stroke="#43AFAD" stroke-width="2" stroke-linecap="round" stroke-linejoin="round"/>
<path d="M139.967 62H113.033C111.91 62 111 61.1294 111 60.0556V49.9444C111 48.8706 111.91 48 113.033 48H139.967C141.09 48 142 48.8706 142 49.9444V60.0556C142 61.1294 141.09 62 139.967 62Z" fill="white" stroke="#FFCC0A" stroke-width="2"/>
<path d="M174.5 56C184.717 56 193 47.7173 193 37.5C193 27.2827 184.717 19 174.5 19C164.283 19 156 27.2827 156 37.5C156 47.7173 164.283 56 174.5 56Z" fill="white" stroke="#43AFAD" stroke-width="2" stroke-linecap="round" stroke-linejoin="round"/>
<path d="M191.446 55L199.912 78.4367C200.041 78.7711 200.028 79.1437 199.875 79.468C199.723 79.7923 199.445 80.0402 199.106 80.154L183.18 85.9122C182.847 86.041 182.475 86.0276 182.151 85.875C181.828 85.7224 181.58 85.4439 181.467 85.104L173 61.6673L191.446 55Z" fill="white" stroke="#43AFAD" stroke-width="2" stroke-linecap="round" stroke-linejoin="round"/>
<path d="M195.732 56.819L171.131 65.8935C170.096 66.2409 168.975 65.7125 168.562 64.6836L165.104 54.8025C164.764 53.7465 165.282 52.6017 166.29 52.181L190.891 43.1065C191.925 42.7591 193.047 43.2875 193.459 44.3164L196.917 54.1975C197.21 55.2502 196.706 56.3632 195.732 56.819Z" fill="white" stroke="#FFCC0A" stroke-width="2"/>
<path d="M77.5 56C87.7173 56 96 47.7173 96 37.5C96 27.2827 87.7173 19 77.5 19C67.2827 19 59 27.2827 59 37.5C59 47.7173 67.2827 56 77.5 56Z" fill="white" stroke="#43AFAD" stroke-width="2" stroke-linecap="round" stroke-linejoin="round"/>
<path d="M60.5544 55L52.0876 78.4367C51.959 78.7711 51.9724 79.1437 52.1247 79.468C52.277 79.7923 52.5549 80.0402 52.894 80.154L68.8197 85.9122C69.1534 86.041 69.5251 86.0276 69.8487 85.875C70.1723 85.7224 70.4195 85.4439 70.5332 85.104L79 61.6673L60.5544 55Z" fill="white" stroke="#43AFAD" stroke-width="2" stroke-linecap="round" stroke-linejoin="round"/>
<path d="M56.289 56.819L80.8731 65.8935C81.9071 66.2409 83.0281 65.7125 83.4401 64.6836L86.8957 54.8025C87.2359 53.7465 86.7185 52.6017 85.711 52.181L61.1269 43.1065C60.0929 42.7591 58.9719 43.2875 58.5599 44.3164L55.1043 54.1975C54.7641 55.2535 55.2815 56.3983 56.289 56.819Z" fill="white" stroke="#FFCC0A" stroke-width="2"/>
<path d="M214.702 127.587L223.908 98.6239C224.099 98.0121 223.99 97.3453 223.615 96.8275C223.239 96.3097 222.643 96.0025 222.007 96H28.9933C28.3575 96.0025 27.7606 96.3097 27.3855 96.8275C27.0103 97.3453 26.9014 98.0121 27.0922 98.6239L36.2976 127.587C36.5589 128.425 37.3277 128.997 38.1987 129H212.801C213.672 128.997 214.441 128.425 214.702 127.587Z" fill="white" stroke="#43AFAD" stroke-width="2" stroke-linecap="round" stroke-linejoin="round"/>
<path d="M197.998 131.694V254H53V131.694C53 130.207 54.3459 129.002 56.0062 129.002H194.992C195.798 128.976 196.579 129.252 197.149 129.762C197.719 130.273 198.026 130.972 197.998 131.694Z" fill="white" stroke="#43AFAD" stroke-width="2" stroke-linecap="round" stroke-linejoin="round"/>
<path d="M172.998 157.63V254H80V157.63C80 156.178 81.346 155.002 83.0064 155.002H169.992C170.797 154.977 171.579 155.246 172.149 155.744C172.719 156.242 173.026 156.925 172.998 157.63Z" fill="white" stroke="#43AFAD" stroke-width="2" stroke-linecap="round" stroke-linejoin="round"/>
<path d="M59.5 94V83" stroke="#43AFAD" stroke-width="2" stroke-linecap="round" stroke-linejoin="round"/>
<path d="M125.5 96V85" stroke="#43AFAD" stroke-width="2" stroke-linecap="round" stroke-linejoin="round"/>
<path d="M192.5 94V83" stroke="#43AFAD" stroke-width="2" stroke-linecap="round" stroke-linejoin="round"/>
<path d="M94 180V165H98.025L102.049 175.422L106.074 165H110V180H106.663V170.649L103.423 180H100.773L97.436 170.649V180H94Z" fill="#FFCC0A"/>
<path d="M113 180V165H122V167.727H116.447V171.136H122V173.961H116.447V177.175H122V180H113Z" fill="#FFCC0A"/>
<path d="M125 179.993V165.001H130.763C131.958 164.981 133.146 165.179 134.261 165.586C135.244 165.938 136.126 166.505 136.834 167.241C137.513 167.966 138.068 168.787 138.48 169.674C138.858 170.571 139.034 171.533 138.995 172.497C139.025 173.43 138.85 174.358 138.48 175.223C138.13 176.118 137.606 176.943 136.937 177.657C136.171 178.373 135.261 178.936 134.261 179.312C133.173 179.809 131.97 180.044 130.763 179.993H125ZM128 176.998H130.375C131.195 177.018 132.01 176.885 132.75 176.611C133.426 176.403 134.026 176.071 134.5 175.643C134.964 175.205 135.343 174.716 135.625 174.192C135.87 173.664 135.996 173.108 136 172.547C136.007 171.986 135.88 171.428 135.625 170.903C135.401 170.358 135.015 169.861 134.5 169.451C134.034 168.994 133.434 168.629 132.75 168.387C131.992 168.156 131.189 168.025 130.375 168H128V176.998Z" fill="#FFCC0A"/>
<path d="M141 180V165H145V180H141Z" fill="#FFCC0A"/>
<path d="M146 180L151.385 165H154.615L160 180H156.28L155.692 178.247H150.308L149.72 180H146ZM151 175H155L152.946 169L151 175Z" fill="#FFCC0A"/>
<path d="M126.5 13V2" stroke="#FFCC0A" stroke-width="2" stroke-linecap="round" stroke-linejoin="round"/>
<path d="M106 4L116 14" stroke="#FFCC0A" stroke-width="2" stroke-linecap="round" stroke-linejoin="round"/>
<path d="M146 4L135 14" stroke="#FFCC0A" stroke-width="2" stroke-linecap="round" stroke-linejoin="round"/>
</g>
<defs>
<clipPath id="clip0_5013_8193">
<rect width="250" height="250" fill="white"/>
</clipPath>
</defs>
</svg>
