<svg width="102" height="114" viewBox="0 0 102 114" fill="none" xmlns="http://www.w3.org/2000/svg">
<mask id="path-1-outside-1_702_6229" maskUnits="userSpaceOnUse" x="0" y="0" width="102" height="114" fill="black">
<rect fill="white" width="102" height="114"/>
<path fill-rule="evenodd" clip-rule="evenodd" d="M48.2025 1.5413C47.5628 1.83904 46.4739 2.62213 45.7827 3.28148C45.0914 3.9406 44.2505 4.58458 43.9141 4.7125C43.0394 5.04513 41.7221 4.99993 40.3085 4.58897C37.7682 3.85064 34.9872 4.67805 33.1531 6.71751C32.2038 7.77334 31.8198 8.56981 31.26 10.6444C30.9089 11.9462 29.6853 13.1635 28.4011 13.4889C26.4792 13.976 25.5534 14.4251 24.4761 15.3934C22.4364 17.2273 21.6089 20.0079 22.3473 22.5479C22.7583 23.9613 22.8035 25.2785 22.4709 26.1531C22.3429 26.4894 21.6989 27.3302 21.0397 28.0214C19.3633 29.7785 18.7579 31.166 18.7579 33.2496C18.7579 35.3332 19.3633 36.7207 21.0397 38.4778C21.6989 39.169 22.3429 40.0098 22.4709 40.3461C22.8035 41.2207 22.7583 42.5379 22.3473 43.9513C21.6089 46.4913 22.4364 49.2719 24.4761 51.1058C25.549 52.0701 26.4825 52.5245 28.3717 53.0024C28.8944 53.1345 29.6611 53.5578 30.0754 53.9426L30.8288 54.6426L26.8691 62.3221C24.6914 66.5458 22.8547 70.2153 22.7873 70.4766C22.6131 71.1544 23.3124 72.488 24.0388 72.8636C24.9343 73.3266 25.2922 73.2858 29.9567 72.1874C32.2826 71.6397 34.2521 71.2694 34.3335 71.3646C34.4149 71.4596 35.2062 73.3376 36.0921 75.5379C37.89 80.0027 38.3732 80.6869 39.7513 80.7172C40.2115 80.7273 40.8452 80.5647 41.1595 80.356C41.5567 80.0923 42.8615 77.7715 45.4386 72.7454L49.1463 65.5143H51.0115H52.8768L56.6225 72.7908C59.9903 79.3335 60.4456 80.1076 61.1384 80.467C62.0796 80.9554 63.075 80.8087 63.8107 80.073C64.0949 79.789 65.0372 77.8016 65.9049 75.6568C66.7723 73.5118 67.5637 71.6264 67.6633 71.4669C67.8085 71.2343 68.6819 71.376 72.0587 72.1799C74.3767 72.7316 76.5389 73.1827 76.8636 73.1822C77.8511 73.1809 78.8259 72.4299 79.1219 71.4421C79.3664 70.6256 79.3378 70.4606 78.748 69.2922C78.3964 68.5962 76.5536 65.0018 74.6523 61.3046L71.1956 54.5822L71.9633 53.9086C72.3852 53.538 73.1515 53.1284 73.6661 52.9985C75.7364 52.4754 76.5979 52.0212 77.8026 50.8175C79.7807 48.8417 80.4247 46.4213 79.6512 43.8713C79.2667 42.6041 79.227 41.2045 79.5511 40.34C79.6784 40.0003 80.315 39.1793 80.9657 38.5156C82.617 36.8309 83.2652 35.3463 83.2652 33.2496C83.2652 31.1529 82.617 29.6683 80.9657 27.9836C80.315 27.3199 79.6784 26.4989 79.5511 26.1592C79.227 25.2947 79.2667 23.8951 79.6512 22.6279C80.4247 20.0779 79.7807 17.6575 77.8026 15.6817C76.5913 14.4716 75.7421 14.026 73.622 13.4889C72.3249 13.1602 71.1035 11.9389 70.7748 10.642C70.2376 8.5222 69.7919 7.67307 68.5816 6.46189C66.6056 4.48409 64.1849 3.84011 61.6345 4.61354C60.3673 4.99796 58.9674 5.03767 58.1028 4.7136C57.7631 4.58634 56.942 3.94981 56.2782 3.29925C54.5933 1.64815 53.1085 1 51.0115 1C49.7223 1 49.1138 1.11717 48.2025 1.5413ZM49.1606 4.40598C48.8064 4.5905 48.0658 5.21123 47.5147 5.78522C45.6032 7.77663 42.8841 8.49214 40.1968 7.71102C38.5547 7.2338 37.6773 7.26759 36.5327 7.85233C35.3034 8.48051 34.8705 9.09005 34.3712 10.8963C33.4755 14.1368 31.6567 15.9452 28.6438 16.5912C27.1564 16.9102 26.2012 17.5939 25.6111 18.7616C25.0263 19.9193 24.9925 20.7947 25.4698 22.4362C26.2472 25.1104 25.5371 27.8342 23.5657 29.739C22.2492 31.0109 21.8257 31.8653 21.8257 33.2496C21.8257 34.6339 22.2492 35.4883 23.5657 36.7602C25.5371 38.665 26.2472 41.3888 25.4698 44.063C24.9925 45.7045 25.0263 46.5799 25.6111 47.7376C26.2012 48.9053 27.1564 49.589 28.6438 49.908C31.6567 50.554 33.4755 52.3624 34.3712 55.6029C34.8705 57.4092 35.3034 58.0187 36.5327 58.6469C37.6773 59.2316 38.5547 59.2654 40.1968 58.7882C41.8509 58.3072 43.9975 58.4483 45.3984 59.1296C45.9922 59.4183 47.0015 60.1821 47.6409 60.8268C48.9749 62.1711 49.5222 62.4318 51.0115 62.4318C52.4981 62.4318 53.0241 62.1812 54.4199 60.8077C55.089 60.1492 56.102 59.3841 56.6705 59.1074C58.0241 58.449 60.1965 58.3145 61.8263 58.7882C63.468 59.2654 64.3436 59.2316 65.5013 58.6469C66.6754 58.0538 67.3532 57.1011 67.6778 55.5874C68.3152 52.6158 70.3901 50.5489 73.3793 49.908C74.8667 49.589 75.8219 48.9053 76.412 47.7376C76.9968 46.5799 77.0306 45.7045 76.5533 44.063C76.0796 42.4334 76.2141 40.2612 76.8726 38.9079C77.1493 38.3394 77.9145 37.3265 78.5731 36.6576C79.9468 35.2619 80.1974 34.7359 80.1974 33.2496C80.1974 31.7633 79.9468 31.2373 78.5731 29.8416C77.9145 29.1727 77.1493 28.1598 76.8726 27.5913C76.2141 26.238 76.0796 24.0658 76.5533 22.4362C77.0306 20.7947 76.9968 19.9193 76.412 18.7616C75.8219 17.5939 74.8667 16.9102 73.3793 16.5912C70.3901 15.9503 68.3152 13.8834 67.6778 10.9118C67.3532 9.3981 66.6754 8.44541 65.5013 7.85233C64.3436 7.26759 63.468 7.2338 61.8263 7.71102C60.1965 8.18474 58.0241 8.05024 56.6705 7.39177C56.102 7.11509 55.089 6.34999 54.4199 5.69153C53.7509 5.03307 52.9505 4.3983 52.6418 4.28091C51.7943 3.95881 49.8869 4.02727 49.1606 4.40598ZM48.2137 11.0885C44.7656 11.5738 41.1347 13.0062 38.1878 15.043C36.3089 16.3417 33.73 18.9549 32.5172 20.789C30.4507 23.9144 28.6951 28.8574 29.2328 30.0371C29.5158 30.6583 30.3089 30.9576 31.1279 30.752C31.7219 30.603 31.7585 30.5295 32.4921 28.0185C34.0644 22.6374 37.6306 18.3799 42.563 15.9953C45.5937 14.5302 47.4829 14.1081 51.0115 14.1081C54.5402 14.1081 56.4294 14.5302 59.4601 15.9953C63.3455 17.8737 66.4052 20.9321 68.2709 24.8021C69.7427 27.8551 70.1627 29.7306 70.1627 33.2496C70.1627 36.7686 69.7427 38.6441 68.2709 41.6971C65.856 46.7065 61.2545 50.459 55.7296 51.9242C53.2251 52.5886 48.7634 52.5908 46.2935 51.929C39.5639 50.1259 34.4329 45.1228 32.4884 38.4677C31.759 35.9712 31.7215 35.8962 31.1279 35.7472C30.3089 35.5416 29.5158 35.8409 29.2328 36.4621C29.0208 36.9272 29.062 37.3711 29.4614 38.9245C31.0818 45.2239 35.6225 50.6198 41.6999 53.4674C44.8584 54.9473 47.2834 55.4684 51.0115 55.4684C53.7263 55.4684 54.5062 55.3859 56.3234 54.9061C64.4768 52.753 70.5173 46.7131 72.6707 38.5608C73.1507 36.7438 73.2332 35.964 73.2332 33.2496C73.2332 30.5352 73.1507 29.7554 72.6707 27.9384C70.5198 19.7946 64.3872 13.6607 56.3613 11.6249C53.9984 11.0257 50.3607 10.7861 48.2137 11.0885ZM49.9058 18.8694C49.2014 19.2527 49.0802 19.494 47.592 23.4856C46.917 25.2958 46.3357 26.8065 46.2999 26.8427C46.2644 26.8789 44.4601 26.9908 42.2905 27.0915C38.0504 27.2883 37.5057 27.4382 37.001 28.5456C36.68 29.2501 36.6899 29.9382 37.0298 30.5396C37.2457 30.9216 38.7776 32.2058 43.3049 35.8005C43.351 35.8372 42.9312 37.5365 42.3723 39.5771C41.8134 41.6176 41.3561 43.5244 41.3561 43.8146C41.3561 44.9192 42.8593 46.1418 43.8972 45.8811C44.1825 45.8096 45.8647 44.8064 47.6352 43.6518C49.4875 42.444 51.0102 41.5933 51.2213 41.6484C51.423 41.7012 52.931 42.643 54.5722 43.7414C56.2134 44.8395 57.8011 45.7997 58.1004 45.8747C59.1768 46.1448 60.667 44.9337 60.667 43.7885C60.667 43.4842 60.2093 41.5777 59.6499 39.5519C59.0905 37.526 58.671 35.8383 58.7173 35.8014C65.175 30.6629 65.2516 30.5896 65.2676 29.5634C65.2784 28.8666 64.7063 27.8274 64.1472 27.5281C63.782 27.3329 58.9997 26.9548 56.1494 26.896C55.7627 26.8881 55.511 26.3995 54.5336 23.7599C53.897 22.0401 53.2257 20.3081 53.042 19.9105C52.4814 18.6978 51.0778 18.2317 49.9058 18.8694ZM49.9093 25.9541C48.8751 28.7621 48.5455 29.3945 47.9811 29.6519C47.7772 29.7449 46.1783 29.9259 44.4283 30.0543L41.2464 30.2875L43.5922 32.1525C44.9527 33.2342 46.0877 34.3203 46.2944 34.7388C46.6381 35.4339 46.622 35.5668 45.845 38.4267C45.4017 40.0585 45.0901 41.4445 45.1524 41.5068C45.2145 41.5692 46.385 40.8723 47.753 39.9582C51.0028 37.7869 51.0203 37.7869 54.2701 39.9582C55.6381 40.8723 56.8099 41.5676 56.874 41.5035C56.938 41.4397 56.6275 40.0512 56.1838 38.4184C55.4081 35.5633 55.3907 35.4218 55.7311 34.7335C55.9347 34.3214 57.0811 33.2257 58.4309 32.1525L60.7767 30.2875L57.5948 30.0543C55.8448 29.9259 54.2459 29.7449 54.0421 29.6519C53.4776 29.3945 53.148 28.7621 52.1138 25.9541C51.5915 24.536 51.0956 23.3759 51.0115 23.3759C50.9275 23.3759 50.4316 24.536 49.9093 25.9541ZM30.2602 62.3745C29.2113 64.3971 27.9194 66.8813 27.3894 67.8948C26.8595 68.9083 26.4524 69.7638 26.4847 69.796C26.5172 69.828 28.3706 69.4217 30.6034 68.8931C34.9106 67.8731 35.5707 67.8581 36.3886 68.7617C36.5823 68.9756 37.409 70.7814 38.2255 72.7746C39.0421 74.7675 39.7926 76.4401 39.8933 76.4912C39.994 76.5421 41.5246 73.7525 43.2946 70.2919L46.513 63.9999L45.6352 63.0806C44.1448 61.5195 42.7252 61.2077 40.3085 61.9102C37.7667 62.649 35.0704 61.8727 33.2461 59.8771L32.1674 58.6969L30.2602 62.3745ZM68.7925 59.8541C67.0407 61.8367 64.2503 62.6472 61.7146 61.9102C59.2984 61.2079 57.879 61.5195 56.3879 63.0797L55.5101 63.9982L58.7118 70.2541C60.4728 73.695 61.996 76.5092 62.0967 76.5079C62.1972 76.5066 62.956 74.8498 63.7829 72.8261C64.6095 70.8025 65.4436 68.9725 65.6363 68.7597C66.4522 67.8581 67.1145 67.8735 71.4197 68.8931C73.6525 69.4217 75.5057 69.8283 75.5378 69.7964C75.6058 69.7291 70.1298 59.1011 69.917 58.8871C69.8382 58.8081 69.3324 59.2435 68.7925 59.8541ZM3.37212 70.1831C2.84019 70.4637 2.10879 71.114 1.74671 71.6279L1.08838 72.5624L1.02716 89.3838C0.95891 108.201 0.893516 107.348 2.51212 108.81C2.97932 109.231 3.73881 109.681 4.19986 109.81C5.35763 110.131 10.4847 110.107 11.5962 109.775C12.8674 109.395 14.2253 107.977 14.549 106.693L14.8068 105.669L16.5058 106.3C17.4404 106.647 21.3888 108.119 25.2804 109.57C29.1718 111.021 33.1217 112.388 34.0581 112.608C35.61 112.972 36.9624 113.006 49.3657 112.999C62.7309 112.992 63.0019 112.983 64.707 112.506C65.6617 112.238 66.9949 111.768 67.6694 111.46C70.0886 110.358 98.6953 94.1234 99.3497 93.4814C100.838 92.0221 101.403 89.3421 100.7 87.0859C99.9367 84.639 97.2599 82.6111 94.8052 82.6206C93.4467 82.6258 91.6839 83.3286 78.924 88.9514C71.7664 92.1052 65.8733 94.6858 65.8279 94.6858C65.7824 94.6858 65.6376 94.1673 65.5059 93.5338C65.0118 91.1569 63.7028 89.1006 61.7491 87.6329C59.8147 86.1795 59.0596 86.0154 48.8338 84.8266C37.8854 83.5538 37.5384 83.4682 33.08 80.9337C27.4338 77.7239 23.5323 76.4493 17.9699 75.9971L14.8035 75.7397L14.8022 74.7357C14.8005 73.272 14.434 72.1804 13.6414 71.2777C12.4259 69.8934 11.6519 69.6828 7.76097 69.6773C4.59749 69.6729 4.26635 69.7111 3.37212 70.1831ZM4.41403 73.1456C4.08289 73.5114 4.05085 74.9924 4.05085 89.9183V106.29L4.53868 106.631C4.92029 106.899 5.65652 106.973 7.92401 106.973C12.0765 106.973 11.7313 107.793 11.7313 97.9329C11.7313 92.7955 11.8125 89.8977 11.9642 89.6142C12.4638 88.6806 14.0515 88.6804 14.5172 89.614C14.6144 89.8088 14.7432 92.7813 14.8035 96.2193L14.9133 102.47L24.1298 105.912C29.199 107.805 33.9883 109.467 34.7728 109.606C35.7783 109.784 40.2782 109.837 50.0241 109.787L63.8489 109.716L65.7526 108.948C68.4296 107.868 96.9988 91.6772 97.4827 90.9658C97.7399 90.5875 97.8625 89.9769 97.8625 89.0736C97.8625 87.9581 97.7642 87.6112 97.2615 86.9521C96.5513 86.0211 95.4214 85.5853 94.2167 85.778C93.7451 85.8534 86.8351 88.7864 78.8612 92.2957L64.3633 98.6763L54.4507 98.5661C45.9828 98.472 44.1228 98.3915 41.6903 98.0143C39.3416 97.6501 38.7743 97.4884 38.4535 97.0923C37.9736 96.4999 37.9567 95.8149 38.4061 95.1735C38.8231 94.578 39.6659 94.5517 42.6727 95.0395C44.1963 95.2867 47.1731 95.4087 53.7326 95.493L62.7078 95.6084L62.5685 94.5921C62.2426 92.2156 60.8441 90.3006 58.7616 89.3794C58.0315 89.0565 55.4599 88.6813 48.4208 87.8707C37.1318 86.5705 36.4755 86.4022 31.5606 83.5465C26.6846 80.7132 23.0688 79.5159 18.1599 79.1093C16.7364 78.9912 15.3989 78.8934 15.1876 78.8914C14.849 78.8883 14.8035 79.1308 14.8035 80.9427C14.8035 82.6893 14.7353 83.0844 14.3486 83.5757C13.7923 84.2831 12.8018 84.3465 12.1702 83.715C11.7579 83.3027 11.7313 82.9837 11.7313 78.4491C11.7313 72.3208 12.0221 72.7443 7.81539 72.7443C5.1507 72.7443 4.73266 72.7937 4.41403 73.1456Z"/>
</mask>
<path fill-rule="evenodd" clip-rule="evenodd" d="M48.2025 1.5413C47.5628 1.83904 46.4739 2.62213 45.7827 3.28148C45.0914 3.9406 44.2505 4.58458 43.9141 4.7125C43.0394 5.04513 41.7221 4.99993 40.3085 4.58897C37.7682 3.85064 34.9872 4.67805 33.1531 6.71751C32.2038 7.77334 31.8198 8.56981 31.26 10.6444C30.9089 11.9462 29.6853 13.1635 28.4011 13.4889C26.4792 13.976 25.5534 14.4251 24.4761 15.3934C22.4364 17.2273 21.6089 20.0079 22.3473 22.5479C22.7583 23.9613 22.8035 25.2785 22.4709 26.1531C22.3429 26.4894 21.6989 27.3302 21.0397 28.0214C19.3633 29.7785 18.7579 31.166 18.7579 33.2496C18.7579 35.3332 19.3633 36.7207 21.0397 38.4778C21.6989 39.169 22.3429 40.0098 22.4709 40.3461C22.8035 41.2207 22.7583 42.5379 22.3473 43.9513C21.6089 46.4913 22.4364 49.2719 24.4761 51.1058C25.549 52.0701 26.4825 52.5245 28.3717 53.0024C28.8944 53.1345 29.6611 53.5578 30.0754 53.9426L30.8288 54.6426L26.8691 62.3221C24.6914 66.5458 22.8547 70.2153 22.7873 70.4766C22.6131 71.1544 23.3124 72.488 24.0388 72.8636C24.9343 73.3266 25.2922 73.2858 29.9567 72.1874C32.2826 71.6397 34.2521 71.2694 34.3335 71.3646C34.4149 71.4596 35.2062 73.3376 36.0921 75.5379C37.89 80.0027 38.3732 80.6869 39.7513 80.7172C40.2115 80.7273 40.8452 80.5647 41.1595 80.356C41.5567 80.0923 42.8615 77.7715 45.4386 72.7454L49.1463 65.5143H51.0115H52.8768L56.6225 72.7908C59.9903 79.3335 60.4456 80.1076 61.1384 80.467C62.0796 80.9554 63.075 80.8087 63.8107 80.073C64.0949 79.789 65.0372 77.8016 65.9049 75.6568C66.7723 73.5118 67.5637 71.6264 67.6633 71.4669C67.8085 71.2343 68.6819 71.376 72.0587 72.1799C74.3767 72.7316 76.5389 73.1827 76.8636 73.1822C77.8511 73.1809 78.8259 72.4299 79.1219 71.4421C79.3664 70.6256 79.3378 70.4606 78.748 69.2922C78.3964 68.5962 76.5536 65.0018 74.6523 61.3046L71.1956 54.5822L71.9633 53.9086C72.3852 53.538 73.1515 53.1284 73.6661 52.9985C75.7364 52.4754 76.5979 52.0212 77.8026 50.8175C79.7807 48.8417 80.4247 46.4213 79.6512 43.8713C79.2667 42.6041 79.227 41.2045 79.5511 40.34C79.6784 40.0003 80.315 39.1793 80.9657 38.5156C82.617 36.8309 83.2652 35.3463 83.2652 33.2496C83.2652 31.1529 82.617 29.6683 80.9657 27.9836C80.315 27.3199 79.6784 26.4989 79.5511 26.1592C79.227 25.2947 79.2667 23.8951 79.6512 22.6279C80.4247 20.0779 79.7807 17.6575 77.8026 15.6817C76.5913 14.4716 75.7421 14.026 73.622 13.4889C72.3249 13.1602 71.1035 11.9389 70.7748 10.642C70.2376 8.5222 69.7919 7.67307 68.5816 6.46189C66.6056 4.48409 64.1849 3.84011 61.6345 4.61354C60.3673 4.99796 58.9674 5.03767 58.1028 4.7136C57.7631 4.58634 56.942 3.94981 56.2782 3.29925C54.5933 1.64815 53.1085 1 51.0115 1C49.7223 1 49.1138 1.11717 48.2025 1.5413ZM49.1606 4.40598C48.8064 4.5905 48.0658 5.21123 47.5147 5.78522C45.6032 7.77663 42.8841 8.49214 40.1968 7.71102C38.5547 7.2338 37.6773 7.26759 36.5327 7.85233C35.3034 8.48051 34.8705 9.09005 34.3712 10.8963C33.4755 14.1368 31.6567 15.9452 28.6438 16.5912C27.1564 16.9102 26.2012 17.5939 25.6111 18.7616C25.0263 19.9193 24.9925 20.7947 25.4698 22.4362C26.2472 25.1104 25.5371 27.8342 23.5657 29.739C22.2492 31.0109 21.8257 31.8653 21.8257 33.2496C21.8257 34.6339 22.2492 35.4883 23.5657 36.7602C25.5371 38.665 26.2472 41.3888 25.4698 44.063C24.9925 45.7045 25.0263 46.5799 25.6111 47.7376C26.2012 48.9053 27.1564 49.589 28.6438 49.908C31.6567 50.554 33.4755 52.3624 34.3712 55.6029C34.8705 57.4092 35.3034 58.0187 36.5327 58.6469C37.6773 59.2316 38.5547 59.2654 40.1968 58.7882C41.8509 58.3072 43.9975 58.4483 45.3984 59.1296C45.9922 59.4183 47.0015 60.1821 47.6409 60.8268C48.9749 62.1711 49.5222 62.4318 51.0115 62.4318C52.4981 62.4318 53.0241 62.1812 54.4199 60.8077C55.089 60.1492 56.102 59.3841 56.6705 59.1074C58.0241 58.449 60.1965 58.3145 61.8263 58.7882C63.468 59.2654 64.3436 59.2316 65.5013 58.6469C66.6754 58.0538 67.3532 57.1011 67.6778 55.5874C68.3152 52.6158 70.3901 50.5489 73.3793 49.908C74.8667 49.589 75.8219 48.9053 76.412 47.7376C76.9968 46.5799 77.0306 45.7045 76.5533 44.063C76.0796 42.4334 76.2141 40.2612 76.8726 38.9079C77.1493 38.3394 77.9145 37.3265 78.5731 36.6576C79.9468 35.2619 80.1974 34.7359 80.1974 33.2496C80.1974 31.7633 79.9468 31.2373 78.5731 29.8416C77.9145 29.1727 77.1493 28.1598 76.8726 27.5913C76.2141 26.238 76.0796 24.0658 76.5533 22.4362C77.0306 20.7947 76.9968 19.9193 76.412 18.7616C75.8219 17.5939 74.8667 16.9102 73.3793 16.5912C70.3901 15.9503 68.3152 13.8834 67.6778 10.9118C67.3532 9.3981 66.6754 8.44541 65.5013 7.85233C64.3436 7.26759 63.468 7.2338 61.8263 7.71102C60.1965 8.18474 58.0241 8.05024 56.6705 7.39177C56.102 7.11509 55.089 6.34999 54.4199 5.69153C53.7509 5.03307 52.9505 4.3983 52.6418 4.28091C51.7943 3.95881 49.8869 4.02727 49.1606 4.40598ZM48.2137 11.0885C44.7656 11.5738 41.1347 13.0062 38.1878 15.043C36.3089 16.3417 33.73 18.9549 32.5172 20.789C30.4507 23.9144 28.6951 28.8574 29.2328 30.0371C29.5158 30.6583 30.3089 30.9576 31.1279 30.752C31.7219 30.603 31.7585 30.5295 32.4921 28.0185C34.0644 22.6374 37.6306 18.3799 42.563 15.9953C45.5937 14.5302 47.4829 14.1081 51.0115 14.1081C54.5402 14.1081 56.4294 14.5302 59.4601 15.9953C63.3455 17.8737 66.4052 20.9321 68.2709 24.8021C69.7427 27.8551 70.1627 29.7306 70.1627 33.2496C70.1627 36.7686 69.7427 38.6441 68.2709 41.6971C65.856 46.7065 61.2545 50.459 55.7296 51.9242C53.2251 52.5886 48.7634 52.5908 46.2935 51.929C39.5639 50.1259 34.4329 45.1228 32.4884 38.4677C31.759 35.9712 31.7215 35.8962 31.1279 35.7472C30.3089 35.5416 29.5158 35.8409 29.2328 36.4621C29.0208 36.9272 29.062 37.3711 29.4614 38.9245C31.0818 45.2239 35.6225 50.6198 41.6999 53.4674C44.8584 54.9473 47.2834 55.4684 51.0115 55.4684C53.7263 55.4684 54.5062 55.3859 56.3234 54.9061C64.4768 52.753 70.5173 46.7131 72.6707 38.5608C73.1507 36.7438 73.2332 35.964 73.2332 33.2496C73.2332 30.5352 73.1507 29.7554 72.6707 27.9384C70.5198 19.7946 64.3872 13.6607 56.3613 11.6249C53.9984 11.0257 50.3607 10.7861 48.2137 11.0885ZM49.9058 18.8694C49.2014 19.2527 49.0802 19.494 47.592 23.4856C46.917 25.2958 46.3357 26.8065 46.2999 26.8427C46.2644 26.8789 44.4601 26.9908 42.2905 27.0915C38.0504 27.2883 37.5057 27.4382 37.001 28.5456C36.68 29.2501 36.6899 29.9382 37.0298 30.5396C37.2457 30.9216 38.7776 32.2058 43.3049 35.8005C43.351 35.8372 42.9312 37.5365 42.3723 39.5771C41.8134 41.6176 41.3561 43.5244 41.3561 43.8146C41.3561 44.9192 42.8593 46.1418 43.8972 45.8811C44.1825 45.8096 45.8647 44.8064 47.6352 43.6518C49.4875 42.444 51.0102 41.5933 51.2213 41.6484C51.423 41.7012 52.931 42.643 54.5722 43.7414C56.2134 44.8395 57.8011 45.7997 58.1004 45.8747C59.1768 46.1448 60.667 44.9337 60.667 43.7885C60.667 43.4842 60.2093 41.5777 59.6499 39.5519C59.0905 37.526 58.671 35.8383 58.7173 35.8014C65.175 30.6629 65.2516 30.5896 65.2676 29.5634C65.2784 28.8666 64.7063 27.8274 64.1472 27.5281C63.782 27.3329 58.9997 26.9548 56.1494 26.896C55.7627 26.8881 55.511 26.3995 54.5336 23.7599C53.897 22.0401 53.2257 20.3081 53.042 19.9105C52.4814 18.6978 51.0778 18.2317 49.9058 18.8694ZM49.9093 25.9541C48.8751 28.7621 48.5455 29.3945 47.9811 29.6519C47.7772 29.7449 46.1783 29.9259 44.4283 30.0543L41.2464 30.2875L43.5922 32.1525C44.9527 33.2342 46.0877 34.3203 46.2944 34.7388C46.6381 35.4339 46.622 35.5668 45.845 38.4267C45.4017 40.0585 45.0901 41.4445 45.1524 41.5068C45.2145 41.5692 46.385 40.8723 47.753 39.9582C51.0028 37.7869 51.0203 37.7869 54.2701 39.9582C55.6381 40.8723 56.8099 41.5676 56.874 41.5035C56.938 41.4397 56.6275 40.0512 56.1838 38.4184C55.4081 35.5633 55.3907 35.4218 55.7311 34.7335C55.9347 34.3214 57.0811 33.2257 58.4309 32.1525L60.7767 30.2875L57.5948 30.0543C55.8448 29.9259 54.2459 29.7449 54.0421 29.6519C53.4776 29.3945 53.148 28.7621 52.1138 25.9541C51.5915 24.536 51.0956 23.3759 51.0115 23.3759C50.9275 23.3759 50.4316 24.536 49.9093 25.9541ZM30.2602 62.3745C29.2113 64.3971 27.9194 66.8813 27.3894 67.8948C26.8595 68.9083 26.4524 69.7638 26.4847 69.796C26.5172 69.828 28.3706 69.4217 30.6034 68.8931C34.9106 67.8731 35.5707 67.8581 36.3886 68.7617C36.5823 68.9756 37.409 70.7814 38.2255 72.7746C39.0421 74.7675 39.7926 76.4401 39.8933 76.4912C39.994 76.5421 41.5246 73.7525 43.2946 70.2919L46.513 63.9999L45.6352 63.0806C44.1448 61.5195 42.7252 61.2077 40.3085 61.9102C37.7667 62.649 35.0704 61.8727 33.2461 59.8771L32.1674 58.6969L30.2602 62.3745ZM68.7925 59.8541C67.0407 61.8367 64.2503 62.6472 61.7146 61.9102C59.2984 61.2079 57.879 61.5195 56.3879 63.0797L55.5101 63.9982L58.7118 70.2541C60.4728 73.695 61.996 76.5092 62.0967 76.5079C62.1972 76.5066 62.956 74.8498 63.7829 72.8261C64.6095 70.8025 65.4436 68.9725 65.6363 68.7597C66.4522 67.8581 67.1145 67.8735 71.4197 68.8931C73.6525 69.4217 75.5057 69.8283 75.5378 69.7964C75.6058 69.7291 70.1298 59.1011 69.917 58.8871C69.8382 58.8081 69.3324 59.2435 68.7925 59.8541ZM3.37212 70.1831C2.84019 70.4637 2.10879 71.114 1.74671 71.6279L1.08838 72.5624L1.02716 89.3838C0.95891 108.201 0.893516 107.348 2.51212 108.81C2.97932 109.231 3.73881 109.681 4.19986 109.81C5.35763 110.131 10.4847 110.107 11.5962 109.775C12.8674 109.395 14.2253 107.977 14.549 106.693L14.8068 105.669L16.5058 106.3C17.4404 106.647 21.3888 108.119 25.2804 109.57C29.1718 111.021 33.1217 112.388 34.0581 112.608C35.61 112.972 36.9624 113.006 49.3657 112.999C62.7309 112.992 63.0019 112.983 64.707 112.506C65.6617 112.238 66.9949 111.768 67.6694 111.46C70.0886 110.358 98.6953 94.1234 99.3497 93.4814C100.838 92.0221 101.403 89.3421 100.7 87.0859C99.9367 84.639 97.2599 82.6111 94.8052 82.6206C93.4467 82.6258 91.6839 83.3286 78.924 88.9514C71.7664 92.1052 65.8733 94.6858 65.8279 94.6858C65.7824 94.6858 65.6376 94.1673 65.5059 93.5338C65.0118 91.1569 63.7028 89.1006 61.7491 87.6329C59.8147 86.1795 59.0596 86.0154 48.8338 84.8266C37.8854 83.5538 37.5384 83.4682 33.08 80.9337C27.4338 77.7239 23.5323 76.4493 17.9699 75.9971L14.8035 75.7397L14.8022 74.7357C14.8005 73.272 14.434 72.1804 13.6414 71.2777C12.4259 69.8934 11.6519 69.6828 7.76097 69.6773C4.59749 69.6729 4.26635 69.7111 3.37212 70.1831ZM4.41403 73.1456C4.08289 73.5114 4.05085 74.9924 4.05085 89.9183V106.29L4.53868 106.631C4.92029 106.899 5.65652 106.973 7.92401 106.973C12.0765 106.973 11.7313 107.793 11.7313 97.9329C11.7313 92.7955 11.8125 89.8977 11.9642 89.6142C12.4638 88.6806 14.0515 88.6804 14.5172 89.614C14.6144 89.8088 14.7432 92.7813 14.8035 96.2193L14.9133 102.47L24.1298 105.912C29.199 107.805 33.9883 109.467 34.7728 109.606C35.7783 109.784 40.2782 109.837 50.0241 109.787L63.8489 109.716L65.7526 108.948C68.4296 107.868 96.9988 91.6772 97.4827 90.9658C97.7399 90.5875 97.8625 89.9769 97.8625 89.0736C97.8625 87.9581 97.7642 87.6112 97.2615 86.9521C96.5513 86.0211 95.4214 85.5853 94.2167 85.778C93.7451 85.8534 86.8351 88.7864 78.8612 92.2957L64.3633 98.6763L54.4507 98.5661C45.9828 98.472 44.1228 98.3915 41.6903 98.0143C39.3416 97.6501 38.7743 97.4884 38.4535 97.0923C37.9736 96.4999 37.9567 95.8149 38.4061 95.1735C38.8231 94.578 39.6659 94.5517 42.6727 95.0395C44.1963 95.2867 47.1731 95.4087 53.7326 95.493L62.7078 95.6084L62.5685 94.5921C62.2426 92.2156 60.8441 90.3006 58.7616 89.3794C58.0315 89.0565 55.4599 88.6813 48.4208 87.8707C37.1318 86.5705 36.4755 86.4022 31.5606 83.5465C26.6846 80.7132 23.0688 79.5159 18.1599 79.1093C16.7364 78.9912 15.3989 78.8934 15.1876 78.8914C14.849 78.8883 14.8035 79.1308 14.8035 80.9427C14.8035 82.6893 14.7353 83.0844 14.3486 83.5757C13.7923 84.2831 12.8018 84.3465 12.1702 83.715C11.7579 83.3027 11.7313 82.9837 11.7313 78.4491C11.7313 72.3208 12.0221 72.7443 7.81539 72.7443C5.1507 72.7443 4.73266 72.7937 4.41403 73.1456Z" fill="white"/>
<path fill-rule="evenodd" clip-rule="evenodd" d="M48.2025 1.5413C47.5628 1.83904 46.4739 2.62213 45.7827 3.28148C45.0914 3.9406 44.2505 4.58458 43.9141 4.7125C43.0394 5.04513 41.7221 4.99993 40.3085 4.58897C37.7682 3.85064 34.9872 4.67805 33.1531 6.71751C32.2038 7.77334 31.8198 8.56981 31.26 10.6444C30.9089 11.9462 29.6853 13.1635 28.4011 13.4889C26.4792 13.976 25.5534 14.4251 24.4761 15.3934C22.4364 17.2273 21.6089 20.0079 22.3473 22.5479C22.7583 23.9613 22.8035 25.2785 22.4709 26.1531C22.3429 26.4894 21.6989 27.3302 21.0397 28.0214C19.3633 29.7785 18.7579 31.166 18.7579 33.2496C18.7579 35.3332 19.3633 36.7207 21.0397 38.4778C21.6989 39.169 22.3429 40.0098 22.4709 40.3461C22.8035 41.2207 22.7583 42.5379 22.3473 43.9513C21.6089 46.4913 22.4364 49.2719 24.4761 51.1058C25.549 52.0701 26.4825 52.5245 28.3717 53.0024C28.8944 53.1345 29.6611 53.5578 30.0754 53.9426L30.8288 54.6426L26.8691 62.3221C24.6914 66.5458 22.8547 70.2153 22.7873 70.4766C22.6131 71.1544 23.3124 72.488 24.0388 72.8636C24.9343 73.3266 25.2922 73.2858 29.9567 72.1874C32.2826 71.6397 34.2521 71.2694 34.3335 71.3646C34.4149 71.4596 35.2062 73.3376 36.0921 75.5379C37.89 80.0027 38.3732 80.6869 39.7513 80.7172C40.2115 80.7273 40.8452 80.5647 41.1595 80.356C41.5567 80.0923 42.8615 77.7715 45.4386 72.7454L49.1463 65.5143H51.0115H52.8768L56.6225 72.7908C59.9903 79.3335 60.4456 80.1076 61.1384 80.467C62.0796 80.9554 63.075 80.8087 63.8107 80.073C64.0949 79.789 65.0372 77.8016 65.9049 75.6568C66.7723 73.5118 67.5637 71.6264 67.6633 71.4669C67.8085 71.2343 68.6819 71.376 72.0587 72.1799C74.3767 72.7316 76.5389 73.1827 76.8636 73.1822C77.8511 73.1809 78.8259 72.4299 79.1219 71.4421C79.3664 70.6256 79.3378 70.4606 78.748 69.2922C78.3964 68.5962 76.5536 65.0018 74.6523 61.3046L71.1956 54.5822L71.9633 53.9086C72.3852 53.538 73.1515 53.1284 73.6661 52.9985C75.7364 52.4754 76.5979 52.0212 77.8026 50.8175C79.7807 48.8417 80.4247 46.4213 79.6512 43.8713C79.2667 42.6041 79.227 41.2045 79.5511 40.34C79.6784 40.0003 80.315 39.1793 80.9657 38.5156C82.617 36.8309 83.2652 35.3463 83.2652 33.2496C83.2652 31.1529 82.617 29.6683 80.9657 27.9836C80.315 27.3199 79.6784 26.4989 79.5511 26.1592C79.227 25.2947 79.2667 23.8951 79.6512 22.6279C80.4247 20.0779 79.7807 17.6575 77.8026 15.6817C76.5913 14.4716 75.7421 14.026 73.622 13.4889C72.3249 13.1602 71.1035 11.9389 70.7748 10.642C70.2376 8.5222 69.7919 7.67307 68.5816 6.46189C66.6056 4.48409 64.1849 3.84011 61.6345 4.61354C60.3673 4.99796 58.9674 5.03767 58.1028 4.7136C57.7631 4.58634 56.942 3.94981 56.2782 3.29925C54.5933 1.64815 53.1085 1 51.0115 1C49.7223 1 49.1138 1.11717 48.2025 1.5413ZM49.1606 4.40598C48.8064 4.5905 48.0658 5.21123 47.5147 5.78522C45.6032 7.77663 42.8841 8.49214 40.1968 7.71102C38.5547 7.2338 37.6773 7.26759 36.5327 7.85233C35.3034 8.48051 34.8705 9.09005 34.3712 10.8963C33.4755 14.1368 31.6567 15.9452 28.6438 16.5912C27.1564 16.9102 26.2012 17.5939 25.6111 18.7616C25.0263 19.9193 24.9925 20.7947 25.4698 22.4362C26.2472 25.1104 25.5371 27.8342 23.5657 29.739C22.2492 31.0109 21.8257 31.8653 21.8257 33.2496C21.8257 34.6339 22.2492 35.4883 23.5657 36.7602C25.5371 38.665 26.2472 41.3888 25.4698 44.063C24.9925 45.7045 25.0263 46.5799 25.6111 47.7376C26.2012 48.9053 27.1564 49.589 28.6438 49.908C31.6567 50.554 33.4755 52.3624 34.3712 55.6029C34.8705 57.4092 35.3034 58.0187 36.5327 58.6469C37.6773 59.2316 38.5547 59.2654 40.1968 58.7882C41.8509 58.3072 43.9975 58.4483 45.3984 59.1296C45.9922 59.4183 47.0015 60.1821 47.6409 60.8268C48.9749 62.1711 49.5222 62.4318 51.0115 62.4318C52.4981 62.4318 53.0241 62.1812 54.4199 60.8077C55.089 60.1492 56.102 59.3841 56.6705 59.1074C58.0241 58.449 60.1965 58.3145 61.8263 58.7882C63.468 59.2654 64.3436 59.2316 65.5013 58.6469C66.6754 58.0538 67.3532 57.1011 67.6778 55.5874C68.3152 52.6158 70.3901 50.5489 73.3793 49.908C74.8667 49.589 75.8219 48.9053 76.412 47.7376C76.9968 46.5799 77.0306 45.7045 76.5533 44.063C76.0796 42.4334 76.2141 40.2612 76.8726 38.9079C77.1493 38.3394 77.9145 37.3265 78.5731 36.6576C79.9468 35.2619 80.1974 34.7359 80.1974 33.2496C80.1974 31.7633 79.9468 31.2373 78.5731 29.8416C77.9145 29.1727 77.1493 28.1598 76.8726 27.5913C76.2141 26.238 76.0796 24.0658 76.5533 22.4362C77.0306 20.7947 76.9968 19.9193 76.412 18.7616C75.8219 17.5939 74.8667 16.9102 73.3793 16.5912C70.3901 15.9503 68.3152 13.8834 67.6778 10.9118C67.3532 9.3981 66.6754 8.44541 65.5013 7.85233C64.3436 7.26759 63.468 7.2338 61.8263 7.71102C60.1965 8.18474 58.0241 8.05024 56.6705 7.39177C56.102 7.11509 55.089 6.34999 54.4199 5.69153C53.7509 5.03307 52.9505 4.3983 52.6418 4.28091C51.7943 3.95881 49.8869 4.02727 49.1606 4.40598ZM48.2137 11.0885C44.7656 11.5738 41.1347 13.0062 38.1878 15.043C36.3089 16.3417 33.73 18.9549 32.5172 20.789C30.4507 23.9144 28.6951 28.8574 29.2328 30.0371C29.5158 30.6583 30.3089 30.9576 31.1279 30.752C31.7219 30.603 31.7585 30.5295 32.4921 28.0185C34.0644 22.6374 37.6306 18.3799 42.563 15.9953C45.5937 14.5302 47.4829 14.1081 51.0115 14.1081C54.5402 14.1081 56.4294 14.5302 59.4601 15.9953C63.3455 17.8737 66.4052 20.9321 68.2709 24.8021C69.7427 27.8551 70.1627 29.7306 70.1627 33.2496C70.1627 36.7686 69.7427 38.6441 68.2709 41.6971C65.856 46.7065 61.2545 50.459 55.7296 51.9242C53.2251 52.5886 48.7634 52.5908 46.2935 51.929C39.5639 50.1259 34.4329 45.1228 32.4884 38.4677C31.759 35.9712 31.7215 35.8962 31.1279 35.7472C30.3089 35.5416 29.5158 35.8409 29.2328 36.4621C29.0208 36.9272 29.062 37.3711 29.4614 38.9245C31.0818 45.2239 35.6225 50.6198 41.6999 53.4674C44.8584 54.9473 47.2834 55.4684 51.0115 55.4684C53.7263 55.4684 54.5062 55.3859 56.3234 54.9061C64.4768 52.753 70.5173 46.7131 72.6707 38.5608C73.1507 36.7438 73.2332 35.964 73.2332 33.2496C73.2332 30.5352 73.1507 29.7554 72.6707 27.9384C70.5198 19.7946 64.3872 13.6607 56.3613 11.6249C53.9984 11.0257 50.3607 10.7861 48.2137 11.0885ZM49.9058 18.8694C49.2014 19.2527 49.0802 19.494 47.592 23.4856C46.917 25.2958 46.3357 26.8065 46.2999 26.8427C46.2644 26.8789 44.4601 26.9908 42.2905 27.0915C38.0504 27.2883 37.5057 27.4382 37.001 28.5456C36.68 29.2501 36.6899 29.9382 37.0298 30.5396C37.2457 30.9216 38.7776 32.2058 43.3049 35.8005C43.351 35.8372 42.9312 37.5365 42.3723 39.5771C41.8134 41.6176 41.3561 43.5244 41.3561 43.8146C41.3561 44.9192 42.8593 46.1418 43.8972 45.8811C44.1825 45.8096 45.8647 44.8064 47.6352 43.6518C49.4875 42.444 51.0102 41.5933 51.2213 41.6484C51.423 41.7012 52.931 42.643 54.5722 43.7414C56.2134 44.8395 57.8011 45.7997 58.1004 45.8747C59.1768 46.1448 60.667 44.9337 60.667 43.7885C60.667 43.4842 60.2093 41.5777 59.6499 39.5519C59.0905 37.526 58.671 35.8383 58.7173 35.8014C65.175 30.6629 65.2516 30.5896 65.2676 29.5634C65.2784 28.8666 64.7063 27.8274 64.1472 27.5281C63.782 27.3329 58.9997 26.9548 56.1494 26.896C55.7627 26.8881 55.511 26.3995 54.5336 23.7599C53.897 22.0401 53.2257 20.3081 53.042 19.9105C52.4814 18.6978 51.0778 18.2317 49.9058 18.8694ZM49.9093 25.9541C48.8751 28.7621 48.5455 29.3945 47.9811 29.6519C47.7772 29.7449 46.1783 29.9259 44.4283 30.0543L41.2464 30.2875L43.5922 32.1525C44.9527 33.2342 46.0877 34.3203 46.2944 34.7388C46.6381 35.4339 46.622 35.5668 45.845 38.4267C45.4017 40.0585 45.0901 41.4445 45.1524 41.5068C45.2145 41.5692 46.385 40.8723 47.753 39.9582C51.0028 37.7869 51.0203 37.7869 54.2701 39.9582C55.6381 40.8723 56.8099 41.5676 56.874 41.5035C56.938 41.4397 56.6275 40.0512 56.1838 38.4184C55.4081 35.5633 55.3907 35.4218 55.7311 34.7335C55.9347 34.3214 57.0811 33.2257 58.4309 32.1525L60.7767 30.2875L57.5948 30.0543C55.8448 29.9259 54.2459 29.7449 54.0421 29.6519C53.4776 29.3945 53.148 28.7621 52.1138 25.9541C51.5915 24.536 51.0956 23.3759 51.0115 23.3759C50.9275 23.3759 50.4316 24.536 49.9093 25.9541ZM30.2602 62.3745C29.2113 64.3971 27.9194 66.8813 27.3894 67.8948C26.8595 68.9083 26.4524 69.7638 26.4847 69.796C26.5172 69.828 28.3706 69.4217 30.6034 68.8931C34.9106 67.8731 35.5707 67.8581 36.3886 68.7617C36.5823 68.9756 37.409 70.7814 38.2255 72.7746C39.0421 74.7675 39.7926 76.4401 39.8933 76.4912C39.994 76.5421 41.5246 73.7525 43.2946 70.2919L46.513 63.9999L45.6352 63.0806C44.1448 61.5195 42.7252 61.2077 40.3085 61.9102C37.7667 62.649 35.0704 61.8727 33.2461 59.8771L32.1674 58.6969L30.2602 62.3745ZM68.7925 59.8541C67.0407 61.8367 64.2503 62.6472 61.7146 61.9102C59.2984 61.2079 57.879 61.5195 56.3879 63.0797L55.5101 63.9982L58.7118 70.2541C60.4728 73.695 61.996 76.5092 62.0967 76.5079C62.1972 76.5066 62.956 74.8498 63.7829 72.8261C64.6095 70.8025 65.4436 68.9725 65.6363 68.7597C66.4522 67.8581 67.1145 67.8735 71.4197 68.8931C73.6525 69.4217 75.5057 69.8283 75.5378 69.7964C75.6058 69.7291 70.1298 59.1011 69.917 58.8871C69.8382 58.8081 69.3324 59.2435 68.7925 59.8541ZM3.37212 70.1831C2.84019 70.4637 2.10879 71.114 1.74671 71.6279L1.08838 72.5624L1.02716 89.3838C0.95891 108.201 0.893516 107.348 2.51212 108.81C2.97932 109.231 3.73881 109.681 4.19986 109.81C5.35763 110.131 10.4847 110.107 11.5962 109.775C12.8674 109.395 14.2253 107.977 14.549 106.693L14.8068 105.669L16.5058 106.3C17.4404 106.647 21.3888 108.119 25.2804 109.57C29.1718 111.021 33.1217 112.388 34.0581 112.608C35.61 112.972 36.9624 113.006 49.3657 112.999C62.7309 112.992 63.0019 112.983 64.707 112.506C65.6617 112.238 66.9949 111.768 67.6694 111.46C70.0886 110.358 98.6953 94.1234 99.3497 93.4814C100.838 92.0221 101.403 89.3421 100.7 87.0859C99.9367 84.639 97.2599 82.6111 94.8052 82.6206C93.4467 82.6258 91.6839 83.3286 78.924 88.9514C71.7664 92.1052 65.8733 94.6858 65.8279 94.6858C65.7824 94.6858 65.6376 94.1673 65.5059 93.5338C65.0118 91.1569 63.7028 89.1006 61.7491 87.6329C59.8147 86.1795 59.0596 86.0154 48.8338 84.8266C37.8854 83.5538 37.5384 83.4682 33.08 80.9337C27.4338 77.7239 23.5323 76.4493 17.9699 75.9971L14.8035 75.7397L14.8022 74.7357C14.8005 73.272 14.434 72.1804 13.6414 71.2777C12.4259 69.8934 11.6519 69.6828 7.76097 69.6773C4.59749 69.6729 4.26635 69.7111 3.37212 70.1831ZM4.41403 73.1456C4.08289 73.5114 4.05085 74.9924 4.05085 89.9183V106.29L4.53868 106.631C4.92029 106.899 5.65652 106.973 7.92401 106.973C12.0765 106.973 11.7313 107.793 11.7313 97.9329C11.7313 92.7955 11.8125 89.8977 11.9642 89.6142C12.4638 88.6806 14.0515 88.6804 14.5172 89.614C14.6144 89.8088 14.7432 92.7813 14.8035 96.2193L14.9133 102.47L24.1298 105.912C29.199 107.805 33.9883 109.467 34.7728 109.606C35.7783 109.784 40.2782 109.837 50.0241 109.787L63.8489 109.716L65.7526 108.948C68.4296 107.868 96.9988 91.6772 97.4827 90.9658C97.7399 90.5875 97.8625 89.9769 97.8625 89.0736C97.8625 87.9581 97.7642 87.6112 97.2615 86.9521C96.5513 86.0211 95.4214 85.5853 94.2167 85.778C93.7451 85.8534 86.8351 88.7864 78.8612 92.2957L64.3633 98.6763L54.4507 98.5661C45.9828 98.472 44.1228 98.3915 41.6903 98.0143C39.3416 97.6501 38.7743 97.4884 38.4535 97.0923C37.9736 96.4999 37.9567 95.8149 38.4061 95.1735C38.8231 94.578 39.6659 94.5517 42.6727 95.0395C44.1963 95.2867 47.1731 95.4087 53.7326 95.493L62.7078 95.6084L62.5685 94.5921C62.2426 92.2156 60.8441 90.3006 58.7616 89.3794C58.0315 89.0565 55.4599 88.6813 48.4208 87.8707C37.1318 86.5705 36.4755 86.4022 31.5606 83.5465C26.6846 80.7132 23.0688 79.5159 18.1599 79.1093C16.7364 78.9912 15.3989 78.8934 15.1876 78.8914C14.849 78.8883 14.8035 79.1308 14.8035 80.9427C14.8035 82.6893 14.7353 83.0844 14.3486 83.5757C13.7923 84.2831 12.8018 84.3465 12.1702 83.715C11.7579 83.3027 11.7313 82.9837 11.7313 78.4491C11.7313 72.3208 12.0221 72.7443 7.81539 72.7443C5.1507 72.7443 4.73266 72.7937 4.41403 73.1456Z" stroke="white" stroke-width="0.8" mask="url(#path-1-outside-1_702_6229)"/>
<path fill-rule="evenodd" clip-rule="evenodd" d="M48.2137 11.0885C44.7656 11.5738 41.1347 13.0062 38.1878 15.043C36.3089 16.3417 33.73 18.9549 32.5172 20.789C30.4507 23.9144 28.6951 28.8574 29.2328 30.0371C29.5158 30.6583 30.3089 30.9576 31.1279 30.752C31.7219 30.603 31.7585 30.5295 32.4921 28.0185C34.0644 22.6374 37.6306 18.3799 42.563 15.9953C45.5937 14.5302 47.4829 14.1081 51.0115 14.1081C54.5402 14.1081 56.4294 14.5302 59.4601 15.9953C63.3455 17.8737 66.4052 20.9321 68.2709 24.8021C69.7427 27.8551 70.1627 29.7306 70.1627 33.2496C70.1627 36.7686 69.7427 38.6441 68.2709 41.6971C65.856 46.7065 61.2545 50.459 55.7296 51.9242C53.2251 52.5886 48.7634 52.5908 46.2935 51.929C39.5639 50.1259 34.4329 45.1228 32.4884 38.4677C31.759 35.9712 31.7215 35.8962 31.1279 35.7472C30.3089 35.5416 29.5158 35.8409 29.2328 36.4621C29.0208 36.9272 29.062 37.3711 29.4614 38.9245C31.0818 45.2239 35.6225 50.6198 41.6999 53.4674C44.8584 54.9473 47.2834 55.4684 51.0115 55.4684C53.7263 55.4684 54.5062 55.3859 56.3234 54.9061C64.4768 52.753 70.5173 46.7131 72.6707 38.5608C73.1507 36.7438 73.2332 35.964 73.2332 33.2496C73.2332 30.5352 73.1507 29.7554 72.6707 27.9384C70.5198 19.7946 64.3872 13.6607 56.3613 11.6249C53.9984 11.0257 50.3607 10.7861 48.2137 11.0885ZM49.9058 18.8694C49.2014 19.2527 49.0802 19.494 47.592 23.4856C46.917 25.2958 46.3357 26.8065 46.2999 26.8427C46.2644 26.8789 44.4601 26.9908 42.2905 27.0915C38.0504 27.2883 37.5057 27.4382 37.001 28.5456C36.68 29.2501 36.6899 29.9382 37.0298 30.5396C37.2457 30.9216 38.7776 32.2058 43.3049 35.8005C43.351 35.8372 42.9312 37.5365 42.3723 39.5771C41.8134 41.6176 41.3561 43.5244 41.3561 43.8146C41.3561 44.9192 42.8593 46.1418 43.8972 45.8811C44.1825 45.8096 45.8647 44.8064 47.6352 43.6518C49.4875 42.444 51.0102 41.5933 51.2213 41.6484C51.423 41.7012 52.931 42.643 54.5722 43.7414C56.2134 44.8395 57.8011 45.7997 58.1004 45.8747C59.1768 46.1448 60.667 44.9337 60.667 43.7885C60.667 43.4842 60.2093 41.5777 59.6499 39.5519C59.0905 37.526 58.671 35.8383 58.7173 35.8014C65.175 30.6629 65.2516 30.5896 65.2676 29.5634C65.2784 28.8666 64.7063 27.8274 64.1472 27.5281C63.782 27.3329 58.9997 26.9548 56.1494 26.896C55.7627 26.8881 55.511 26.3995 54.5336 23.7599C53.897 22.0401 53.2257 20.3081 53.042 19.9105C52.4814 18.6978 51.0778 18.2317 49.9058 18.8694ZM49.9093 25.9541C48.8751 28.7621 48.5455 29.3945 47.9811 29.6519C47.7772 29.7449 46.1783 29.9259 44.4283 30.0543L41.2464 30.2875L43.5922 32.1525C44.9527 33.2342 46.0877 34.3203 46.2944 34.7388C46.6381 35.4339 46.622 35.5668 45.845 38.4267C45.4017 40.0585 45.0901 41.4445 45.1524 41.5068C45.2145 41.5692 46.385 40.8723 47.753 39.9582C51.0028 37.7869 51.0203 37.7869 54.2701 39.9582C55.6381 40.8723 56.8099 41.5676 56.874 41.5035C56.938 41.4397 56.6275 40.0512 56.1838 38.4184C55.4081 35.5633 55.3907 35.4218 55.7311 34.7335C55.9347 34.3214 57.0811 33.2257 58.4309 32.1525L60.7767 30.2875L57.5948 30.0543C55.8448 29.9259 54.2459 29.7449 54.0421 29.6519C53.4776 29.3945 53.148 28.7621 52.1138 25.9541C51.5915 24.536 51.0956 23.3759 51.0115 23.3759C50.9275 23.3759 50.4316 24.536 49.9093 25.9541Z" fill="#F8CC16"/>
</svg>
