<svg width="370" height="223" viewBox="0 0 370 223" fill="none" xmlns="http://www.w3.org/2000/svg">
<path d="M370 194.31V220.97H356.46C355.05 220.97 353.9 220.09 353.9 219V196.28C353.9 195.19 355.05 194.31 356.46 194.31H370Z" fill="#FFCC09" stroke="#CDA401" stroke-width="2.5" stroke-linecap="round" stroke-linejoin="round"/>
<path d="M243.45 126.02H242.43C239.05 126.02 236.31 128.76 236.31 132.14V154.05C236.31 157.43 239.05 160.17 242.43 160.17H243.45C246.83 160.17 249.57 157.43 249.57 154.05V132.14C249.57 128.76 246.83 126.02 243.45 126.02Z" fill="#FFCC09" stroke="#CDA401" stroke-width="2.5" stroke-linecap="round" stroke-linejoin="round"/>
<path d="M140.32 150.14L129.96 149.87L176.03 128.62L154.45 143.1L140.32 150.14Z" fill="#FFCC09" stroke="#CDA401" stroke-width="2.5" stroke-linecap="round" stroke-linejoin="round"/>
<path d="M215.971 133.004L188.699 137.046C186.126 137.427 184.349 139.82 184.73 142.391C185.11 144.961 187.505 146.736 190.078 146.354L217.351 142.313C219.924 141.931 221.701 139.538 221.32 136.968C220.939 134.398 218.544 132.623 215.971 133.004Z" fill="#FFCC09" stroke="white" stroke-width="2.5" stroke-miterlimit="10"/>
<path d="M332.48 206.58C335.44 199.21 336.21 191.13 335.01 183.28L333.78 175.25C333.75 174.23 333.29 173.26 332.5 172.62C331.65 171.93 330.62 170.91 330.29 169.85C330.03 168.97 329.9 167.58 330.24 164.67C330.47 162.65 329.83 159.54 328.74 157.83C325.04 151.98 320.29 154.35 319.97 152.2C319.95 152.06 319.95 151.87 319.97 151.65C320.28 149.33 331.09 141.24 328.2 141.06C321.09 140.63 288.23 145.6 281.5 144.81C280.37 144.68 279.26 143.87 278.28 144.42C277.45 144.89 277.18 145.97 276.53 146.64C275.69 147.52 274.88 149.27 273.68 149.33C236.85 151.51 214.59 149.55 177.73 151.49C175.04 151.65 172.35 151.71 169.67 151.86C167.7 151.96 167.78 150.03 167.29 148.62C166.46 146.22 165.74 146.05 163.34 145.18L177.63 133.31L178.2 133L194.04 127.56C194.77 127.3 195.3 126.64 195.38 125.87L195.42 125.63C195.58 124.16 194.2 123.02 192.79 123.45L176.03 128.62L175.54 128.85C172.64 130.86 144.2 150.48 139.57 150.22C131.08 149.75 122.55 151.24 114.14 152.13C105.63 153.03 97.0601 153.78 88.7301 155.92C70.3401 160.66 47.7401 171.22 58.9201 210.19C59.4701 212.12 86.9401 211.74 92.6201 211.52C93.0001 211.5 93.2401 211.14 93.1101 210.78C92.2901 208.63 88.6001 200.16 88.6001 195.74C88.6001 181.1 100.74 169.3 115.5 169.87C128.82 170.38 139.85 181.39 140.36 194.71C140.53 199.2 139.57 205.48 137.72 209.22C137.53 209.6 135.64 210.2 136.07 210.19C147.22 209.99 249.43 210.13 255.56 210.03C255.69 210.03 253.55 205.7 253.51 205.58C252.22 202.45 251.53 199.01 251.58 195.4C251.75 182.32 263.3 170.41 276.37 169.87C291.17 169.26 303.36 181.08 303.36 195.74C303.36 198.34 301.61 206.71 299.02 210.35C298.97 210.43 321.96 210.33 330.29 210.04C330.87 210.02 331.66 208.6 332.48 206.57V206.58Z" fill="#FFCC09" stroke="#CDA401" stroke-width="2.5" stroke-linecap="round" stroke-linejoin="round"/>
<path d="M164.98 143.96C164.13 143.75 163.23 143.73 162.38 144.02C159.06 145.16 154.97 150.28 157.77 153.8C160.15 156.79 166.94 156.35 168.8 154.36C169.29 153.83 169.62 153.19 169.83 152.51L164.98 143.96Z" fill="#FFCC09" stroke="#CDA401" stroke-width="2.5" stroke-linecap="round" stroke-linejoin="round"/>
<path d="M73.4382 177.346C78.5444 171.134 80.6466 164.424 78.1337 162.358C75.6207 160.293 69.4442 163.654 64.338 169.866C59.2318 176.078 57.1295 182.788 59.6425 184.854C62.1554 186.92 68.332 183.558 73.4382 177.346Z" fill="#FFCC09" stroke="#CDA401" stroke-width="2.5" stroke-linecap="round" stroke-linejoin="round"/>
<path d="M330.29 169.85L315.77 164.74C313.77 164.03 312.29 162.3 311.9 160.2C311.37 157.25 313.1 154.36 315.97 153.46L319.96 152.2C320.29 154.38 325.19 151.89 328.92 158.12C330.02 159.95 329.9 166.37 330.06 168.5C330.1 169.07 330.18 169.5 330.28 169.84L330.29 169.85Z" fill="#FFCC09" stroke="#CDA401" stroke-width="2.5" stroke-linecap="round" stroke-linejoin="round"/>
<path d="M114.49 221.71C128.833 221.71 140.46 210.083 140.46 195.74C140.46 181.397 128.833 169.77 114.49 169.77C100.147 169.77 88.52 181.397 88.52 195.74C88.52 210.083 100.147 221.71 114.49 221.71Z" fill="#FFCC09" stroke="#CDA401" stroke-width="2.5" stroke-linecap="round" stroke-linejoin="round"/>
<path d="M181.19 151.12C181.15 150.48 181.12 149.81 181.11 149.11C181 143.94 181.72 139.6 182.68 139.24C183.6 138.9 184.46 142.38 184.62 147.17C184.66 148.41 184.66 149.63 184.61 150.78" stroke="#CDA401" stroke-width="2.5" stroke-miterlimit="10"/>
<path d="M114.49 212.37C123.675 212.37 131.12 204.924 131.12 195.74C131.12 186.555 123.675 179.11 114.49 179.11C105.306 179.11 97.8601 186.555 97.8601 195.74C97.8601 204.924 105.306 212.37 114.49 212.37Z" fill="#FFCC09" stroke="white" stroke-width="2.5" stroke-miterlimit="10"/>
<path d="M277.1 221.71C291.443 221.71 303.07 210.083 303.07 195.74C303.07 181.397 291.443 169.77 277.1 169.77C262.757 169.77 251.13 181.397 251.13 195.74C251.13 210.083 262.757 221.71 277.1 221.71Z" fill="#FFCC09" stroke="#CDA401" stroke-width="2.5" stroke-linecap="round" stroke-linejoin="round"/>
<path d="M277.1 212.37C286.285 212.37 293.73 204.924 293.73 195.74C293.73 186.555 286.285 179.11 277.1 179.11C267.916 179.11 260.47 186.555 260.47 195.74C260.47 204.924 267.916 212.37 277.1 212.37Z" fill="#FFCC09" stroke="white" stroke-width="2.5" stroke-miterlimit="10"/>
<path d="M222.1 127.52C227.225 127.52 231.38 123.365 231.38 118.24C231.38 113.115 227.225 108.96 222.1 108.96C216.975 108.96 212.82 113.115 212.82 118.24C212.82 123.365 216.975 127.52 222.1 127.52Z" fill="#FFCC09" stroke="white" stroke-width="2.5" stroke-miterlimit="10"/>
<path d="M236.31 150.49C235.27 137.4 228.88 131 221.87 131.02C213.37 131.05 209.37 135.07 205.97 143.87L197.18 141.95C194.77 141.42 192.2 142.68 191.44 145.02C190.56 147.71 192.21 150.5 194.9 151.09L209.49 154.88C210.04 155.02 210.63 154.97 211.15 154.74C213.12 153.87 215.27 152.44 215.85 151.7C216.39 151.01 217.21 150.6 218.08 150.54L236.31 150.49Z" fill="#FFCC09" stroke="white" stroke-width="2.5" stroke-miterlimit="10"/>
<path d="M152.37 201.85H241.46" stroke="#CDA401" stroke-width="2.5" stroke-linecap="round" stroke-linejoin="round"/>
<path d="M181.93 167.53H198.44" stroke="#CDA401" stroke-width="2.5" stroke-linecap="round" stroke-linejoin="round"/>
<path d="M229.79 167.53H246.3" stroke="#CDA401" stroke-width="2.5" stroke-linecap="round" stroke-linejoin="round"/>
<path d="M246.42 116.31H239.46C236.859 116.31 234.75 118.419 234.75 121.02V123.91C234.75 126.511 236.859 128.62 239.46 128.62H246.42C249.021 128.62 251.13 126.511 251.13 123.91V121.02C251.13 118.419 249.021 116.31 246.42 116.31Z" fill="#FFCC09" stroke="#CDA401" stroke-width="2.5" stroke-linecap="round" stroke-linejoin="round"/>
<path d="M6.01999 52.99H41.57C43.84 53.24 46.07 52.26 47.42 50.41C48.77 48.57 49.04 46.14 48.12 44.05C47.2 41.96 45.23 40.52 42.96 40.27H42.56C42.36 40.27 41.77 38.88 41.77 38.68C41.03 37.28 40.16 35.95 39.19 34.71C35.86 30.34 30.93 27.48 25.49 26.76C20.18 26.29 14.89 27.77 10.6 30.93C7.21999 33.51 4.24999 36.89 4.24999 41.46L3.05999 41.86C-2.30001 44.64 -0.120009 52.99 6.03999 52.99H6.01999Z" fill="#FFCC09" stroke="#CDA401" stroke-width="2.5" stroke-linecap="round" stroke-linejoin="round"/>
<path d="M370 135.41V173.64C368.92 173.98 367.79 174.23 366.63 174.38H361.55C350.95 173.01 343.31 163.5 344.23 152.81C345.14 142.12 354.29 134.06 364.96 134.53C366.71 134.61 368.4 134.91 370 135.41Z" fill="#FFCC09" stroke="#CDA401" stroke-width="2.5" stroke-linecap="round" stroke-linejoin="round"/>
<path d="M364.09 174.37V194.31" stroke="#CDA401" stroke-width="2.5" stroke-miterlimit="10"/>
<path d="M311.81 44.28C318.178 44.28 323.34 39.1178 323.34 32.75C323.34 26.3821 318.178 21.22 311.81 21.22C305.442 21.22 300.28 26.3821 300.28 32.75C300.28 39.1178 305.442 44.28 311.81 44.28Z" stroke="white" stroke-width="2.5" stroke-linecap="square" stroke-linejoin="round"/>
<path d="M312.45 10.97V2M296.44 17.38L290.03 10.97M290.03 32.11H281.06M296.44 48.13L290.03 54.54M312.45 54.53V63.5M327.19 48.13L333.6 54.54M333.59 32.11H342.56M327.19 17.38L333.6 10.97" stroke="#CDA401" stroke-width="2.5" stroke-linecap="round" stroke-linejoin="round"/>
<path d="M39.54 63.4699H67.8C69.61 63.6699 71.38 62.8899 72.45 61.4199C73.52 59.9499 73.73 58.0299 73 56.3599C72.27 54.6999 70.71 53.5499 68.9 53.3499H68.58C68.42 53.3499 67.95 52.2399 67.95 52.0899C67.36 50.9799 66.67 49.9199 65.9 48.9299C63.25 45.4599 59.33 43.1799 55.01 42.6099C50.79 42.2299 46.58 43.4099 43.17 45.9299C40.49 47.9799 38.12 50.6699 38.12 54.2999L37.17 54.6199C32.91 56.8299 34.64 63.4699 39.54 63.4699Z" fill="#FFCC09" stroke="#CDA401" stroke-width="2.5" stroke-linecap="round" stroke-linejoin="round"/>
<path d="M261.61 65.91H289.87C291.68 66.11 293.45 65.33 294.52 63.86C295.59 62.39 295.8 60.4701 295.07 58.8001C294.34 57.1401 292.78 55.99 290.97 55.79H290.65C290.49 55.79 290.02 54.68 290.02 54.53C289.43 53.42 288.74 52.36 287.97 51.37C285.32 47.9 281.4 45.6201 277.08 45.0501C272.86 44.6701 268.65 45.85 265.24 48.37C262.56 50.42 260.19 53.11 260.19 56.74L259.24 57.06C254.98 59.27 256.71 65.91 261.61 65.91Z" fill="#FFCC09" stroke="#CDA401" stroke-width="2.5" stroke-linecap="round" stroke-linejoin="round"/>
</svg>
