<svg width="79" height="78" viewBox="0 0 79 78" fill="none" xmlns="http://www.w3.org/2000/svg">
<path fill-rule="evenodd" clip-rule="evenodd" d="M37.6439 0.326417C36.7833 0.733466 35.8802 1.6484 34.3779 3.63455C32.3071 6.37244 31.2693 7.21629 29.8468 7.31882C28.8189 7.39288 27.7764 7.12481 25.3979 6.17492C22.6457 5.07585 22.0108 4.88641 21.0409 4.87525C19.6246 4.859 18.7892 5.40343 18.1594 6.75346C17.7832 7.55969 17.6185 8.34691 17.2768 10.973C16.6189 16.0291 15.9442 16.6685 10.5204 17.3761C9.38073 17.5249 8.0711 17.7501 7.61011 17.8766C6.46296 18.1913 5.59369 18.7896 5.16193 19.5617C4.86587 20.0912 4.8359 20.231 4.8427 21.0493C4.8511 22.059 5.15789 23.0603 6.31004 25.8388C7.80415 29.4416 7.68514 30.7672 5.68529 32.7952C5.21772 33.2694 4.21349 34.1529 3.45368 34.7585C0.8512 36.8326 0 37.8795 0 39.0057C0 40.1346 0.817938 41.1371 3.50682 43.3044C5.34779 44.7883 6.43682 45.8974 6.90577 46.7665C7.25401 47.4118 7.27622 47.513 7.27771 48.4621C7.27973 49.7104 7.20279 49.9919 6.10165 52.7653C5.05566 55.3999 4.88829 55.994 4.88829 57.0718C4.88829 58.5855 5.65607 59.5298 7.33913 60.086C7.86409 60.2594 9.02006 60.4718 10.5364 60.6734C11.8427 60.8469 13.1984 61.0653 13.5491 61.1587C16.039 61.8218 16.8359 63.0792 17.3206 67.1092C17.519 68.7594 17.7323 69.9623 17.9532 70.6776C18.5405 72.5789 19.846 73.4291 21.7075 73.1225C22.5989 72.9758 23.336 72.7231 25.6219 71.7807C30.1538 69.9121 31.2351 70.2339 34.3801 74.3869C36.4852 77.1669 37.5506 78 39.0001 78C40.4577 78 41.5225 77.1676 43.6211 74.3875C45.0581 72.4837 46.0794 71.446 46.9235 71.0316C47.4748 70.761 47.6687 70.7225 48.4578 70.7273C49.5879 70.7341 50.1066 70.887 52.6229 71.9543C55.1524 73.0273 55.8503 73.242 56.8529 73.2558C57.824 73.2692 58.4685 72.9974 59.0347 72.3361C59.8452 71.3893 60.0983 70.5816 60.5714 67.4336C61.0529 64.2295 61.3916 63.1951 62.248 62.3127C63.0757 61.46 64.3423 61.0467 67.2554 60.6791C70.7583 60.2371 71.9329 59.8109 72.6929 58.7065C73.5283 57.4924 73.3564 56.193 71.8971 52.6886C70.9211 50.345 70.7282 49.6586 70.7242 48.5152C70.7212 47.6761 70.7577 47.4839 71.0223 46.9451C71.4362 46.1023 72.5356 45.0183 74.387 43.6276C77.1436 41.5569 78.0002 40.4634 78 39.0153C77.9999 37.5475 77.1876 36.507 74.3865 34.3865C72.4452 32.9168 71.4407 31.9298 71.0314 31.09C70.7497 30.5117 70.7222 30.3587 70.7355 29.4431C70.753 28.2387 70.8974 27.719 71.8874 25.2993C72.8553 22.9335 73.1215 22.027 73.1355 21.0493C73.1442 20.4386 73.0918 20.1282 72.9111 19.7211C72.2842 18.3086 71.0857 17.8 67.2671 17.3261C62.0987 16.6848 61.3283 15.9166 60.6766 10.7546C60.2346 7.2522 59.8083 6.0778 58.7037 5.31789C57.4595 4.46204 56.2147 4.65351 52.169 6.32325C50.2362 7.12098 49.1654 7.38682 48.1833 7.31255C46.7046 7.20077 45.7186 6.40357 43.6211 3.62404C42.9817 2.77668 42.1453 1.76974 41.7627 1.38638C40.3866 0.00798251 39.0463 -0.33691 37.6439 0.326417ZM38.5114 4.34771C38.278 4.62174 37.6376 5.44359 37.0885 6.17407C35.8582 7.81098 34.1942 9.48677 33.2616 10.0284C32.8817 10.249 32.1883 10.5558 31.7207 10.71C30.988 10.9518 30.6871 10.991 29.5423 10.9936C27.835 10.9977 27.0218 10.7949 24.0695 9.62883C21.7935 8.72984 21.3597 8.57227 21.3597 8.64431C21.3597 8.66672 21.3124 8.94489 21.2546 9.26237C21.1969 9.57996 21.0523 10.6048 20.9333 11.5398C20.563 14.449 20.062 16.0866 19.1411 17.3976C17.7218 19.418 15.742 20.3941 12.0613 20.8886C10.0129 21.1637 8.67682 21.3697 8.62879 21.4177C8.56354 21.483 8.92262 22.4689 9.71601 24.4022C10.6822 26.7571 10.9694 27.8972 10.9857 29.4431C10.9998 30.7867 10.8726 31.4593 10.4088 32.4932C9.69837 34.0765 8.67427 35.2304 6.03778 37.4176L4.15866 38.9765L4.55004 39.3447C4.76534 39.5472 5.4649 40.1379 6.10462 40.6574C9.18977 43.1627 10.5202 44.9383 10.8974 47.0535C11.2687 49.1359 10.9317 50.7736 9.31772 54.7309C8.48278 56.7781 8.49617 56.6061 9.16108 56.739C9.47042 56.8009 10.5125 56.9494 11.4769 57.069C14.1751 57.4036 15.645 57.8049 16.8954 58.5483C19.2147 59.9272 20.3474 62.0017 20.8734 65.8342C21.2912 68.8769 21.3852 69.3936 21.5213 69.3936C21.5963 69.3936 22.2003 69.1729 22.8635 68.903C25.6686 67.7617 26.2429 67.5496 27.1548 67.3183C30.2531 66.5321 32.6434 67.134 34.87 69.2609C35.3277 69.6982 36.4027 70.9587 37.259 72.0623C38.14 73.1978 38.8905 74.0687 38.9877 74.0686C39.1555 74.0686 39.6306 73.5071 41.4494 71.1592C42.981 69.1819 44.4408 67.9681 45.9427 67.423C48.1049 66.6383 50.1652 66.8854 53.5587 68.3362C55.8829 69.33 56.3561 69.508 56.4418 69.4205C56.5306 69.3298 56.7448 68.1234 57.063 65.9211C57.4219 63.4373 57.9642 61.8625 58.9238 60.5179C60.3624 58.5023 62.4951 57.5403 66.6826 57.0183C68.5615 56.7842 69.3925 56.6373 69.3925 56.5397C69.3925 56.389 69.0719 55.5423 68.3858 53.8809C67.1831 50.9681 66.8107 49.2159 67.0425 47.5593C67.281 45.8539 67.8992 44.5954 69.1616 43.2449C69.8819 42.4744 70.239 42.1733 72.8739 40.1151C73.765 39.4191 74.1513 39.0545 74.096 38.9616C73.9819 38.7703 73.5026 38.3741 71.6585 36.947C68.5376 34.5317 67.4216 32.9798 67.0519 30.541C66.7792 28.7426 67.1869 26.9633 68.7273 23.2274C69.0165 22.5262 69.2841 21.826 69.322 21.6715C69.4077 21.3218 69.4913 21.3445 66.8468 20.9995C63.7775 20.599 62.3052 20.1967 60.9937 19.4001C58.6883 17.9998 57.6198 15.8822 57.0598 11.6033C56.7723 9.4056 56.6351 8.61785 56.5399 8.61785C56.3916 8.61785 55.3121 9.0232 54.1524 9.51429C50.9822 10.8567 49.1903 11.2365 47.342 10.9578C45.0444 10.6113 43.4057 9.40092 40.9983 6.27193C39.7601 4.66254 39.2309 4.02046 39.0623 3.92271C38.9868 3.87904 38.7652 4.05 38.5114 4.34771ZM54.361 21.3109C54.0285 21.4321 50.5814 24.8218 37.75 37.6458C28.8447 46.5459 21.4845 53.9676 21.3938 54.1384C21.1811 54.5392 21.1826 55.3482 21.3968 55.7623C21.8039 56.5495 22.6868 56.9484 23.5599 56.7396C24.0495 56.6225 24.7062 55.9811 40.3421 40.3476C55.9779 24.714 56.6195 24.0575 56.7366 23.5678C57.0834 22.1176 55.7149 20.8174 54.361 21.3109ZM24.7071 21.4192C22.0721 22.1305 20.1033 23.9777 19.2689 26.5212C19.0348 27.2349 18.9883 27.5758 18.9793 28.6462C18.9673 30.0858 19.0917 30.7194 19.6089 31.8524C21.2545 35.4566 25.0628 37.1249 28.915 35.9288C29.9446 35.6092 30.8851 35.0069 31.8291 34.0626C35.902 29.9891 34.0479 23.0243 28.48 21.4815C27.5397 21.221 25.5624 21.1883 24.7071 21.4192ZM25.3 25.1489C23.496 25.8043 22.3833 27.6609 22.7451 29.4118C23.5112 33.1195 28.3505 33.724 29.9503 30.3117C30.1908 29.7988 30.233 29.5659 30.233 28.7525C30.233 27.9396 30.1912 27.7087 29.9541 27.2118C29.5429 26.3507 28.9953 25.7822 28.1994 25.3905C27.6216 25.106 27.3552 25.0418 26.6364 25.0129C26.0312 24.9886 25.6281 25.0297 25.3 25.1489ZM50.4238 41.7727C48.863 42.0106 47.2326 42.8541 46.1035 44.0077C43.8988 46.2607 43.3658 49.7673 44.7903 52.6495C45.7389 54.5687 47.5805 56.0428 49.733 56.606C50.6496 56.8458 52.42 56.8412 53.34 56.5966C54.7532 56.2208 55.8521 55.5971 56.8388 54.6106C57.5496 53.8999 57.9307 53.3512 58.4003 52.3625C59.5938 49.8496 59.1895 46.6541 57.4075 44.5149C56.3892 43.2925 54.8493 42.2948 53.4243 41.9341C52.6091 41.7278 51.2114 41.6527 50.4238 41.7727ZM50.3541 45.6301C49.2651 46.0332 48.4775 46.756 48.0114 47.78C47.8225 48.195 47.7727 48.4998 47.7703 49.259C47.7675 50.088 47.8055 50.2935 48.0557 50.8028C48.4937 51.6945 49.013 52.2333 49.815 52.628C50.4677 52.9493 50.6079 52.9778 51.5373 52.9778C52.4221 52.9778 52.6224 52.9417 53.1336 52.6904C55.4184 51.5668 56.0289 48.8403 54.4469 46.8249C53.7819 45.9777 52.8685 45.5495 51.6485 45.5132C51.084 45.4964 50.5961 45.5405 50.3541 45.6301Z" fill="#58BEBF"/>
<path fill-rule="evenodd" clip-rule="evenodd" d="M54.861 21.3109C54.5285 21.4321 51.0814 24.8218 38.25 37.6458C29.3447 46.5459 21.9845 53.9676 21.8938 54.1384C21.6811 54.5392 21.6826 55.3482 21.8968 55.7623C22.3039 56.5495 23.1868 56.9484 24.0599 56.7396C24.5495 56.6225 25.2062 55.9811 40.8421 40.3476C56.4779 24.714 57.1195 24.0575 57.2366 23.5678C57.5834 22.1176 56.2149 20.8174 54.861 21.3109ZM25.2071 21.4192C22.5721 22.1305 20.6033 23.9777 19.7689 26.5212C19.5348 27.2349 19.4883 27.5758 19.4793 28.6462C19.4673 30.0858 19.5917 30.7194 20.1089 31.8524C21.7545 35.4566 25.5628 37.1249 29.415 35.9288C30.4446 35.6092 31.3851 35.0069 32.3291 34.0626C36.402 29.9891 34.5479 23.0243 28.98 21.4815C28.0397 21.221 26.0624 21.1883 25.2071 21.4192ZM25.8 25.1489C23.996 25.8043 22.8833 27.6609 23.2451 29.4118C24.0112 33.1195 28.8505 33.724 30.4503 30.3117C30.6908 29.7988 30.733 29.5659 30.733 28.7525C30.733 27.9396 30.6912 27.7087 30.4541 27.2118C30.0429 26.3507 29.4953 25.7822 28.6994 25.3905C28.1216 25.106 27.8552 25.0418 27.1364 25.0129C26.5312 24.9886 26.1281 25.0297 25.8 25.1489ZM50.9238 41.7727C49.363 42.0106 47.7326 42.8541 46.6035 44.0077C44.3988 46.2607 43.8658 49.7673 45.2903 52.6495C46.2389 54.5687 48.0805 56.0428 50.233 56.606C51.1496 56.8458 52.92 56.8412 53.84 56.5966C55.2532 56.2208 56.3521 55.5971 57.3388 54.6106C58.0496 53.8998 58.4307 53.3512 58.9003 52.3625C60.0938 49.8497 59.6895 46.6541 57.9075 44.5149C56.8892 43.2925 55.3493 42.2948 53.9243 41.9341C53.1091 41.7278 51.7114 41.6527 50.9238 41.7727ZM50.8541 45.6301C49.7651 46.0332 48.9775 46.756 48.5114 47.78C48.3225 48.195 48.2727 48.4998 48.2703 49.259C48.2675 50.088 48.3055 50.2935 48.5557 50.8028C48.9937 51.6945 49.513 52.2333 50.315 52.628C50.9677 52.9493 51.1079 52.9778 52.0373 52.9778C52.9221 52.9778 53.1224 52.9417 53.6336 52.6904C55.9184 51.5668 56.5289 48.8403 54.9469 46.8249C54.2819 45.9777 53.3684 45.5495 52.1485 45.5132C51.584 45.4964 51.0961 45.5405 50.8541 45.6301Z" fill="#FDC91E"/>
</svg>
