<svg width="112" height="112" viewBox="0 0 112 112" fill="none" xmlns="http://www.w3.org/2000/svg">
<path fill-rule="evenodd" clip-rule="evenodd" d="M73.1637 0.902789C72.7128 1.41174 71.4972 3.51362 70.4627 5.57427L68.581 9.32085L63.898 9.9725C58.6727 10.6997 57.3556 11.4941 57.3556 13.9199C57.3556 15.2111 58.0672 16.2565 60.8411 19.0375L64.326 22.5325L63.4577 27.1448C62.6643 31.3591 62.6616 31.867 63.4312 33.0355C64.9012 35.2679 66.5231 35.2198 71.1733 32.8046L75.3773 30.6218L79.8277 32.8183C83.1422 34.454 84.6335 34.926 85.6717 34.6665C88.0122 34.082 88.3601 32.7078 87.5868 27.1009L86.9007 22.1282L90.1265 19.113C93.8371 15.6444 94.4728 14.2513 93.2168 12.3434C92.144 10.7145 91.9661 10.6458 86.7769 9.86099L82.5819 9.22678L80.4093 5.0817C79.2143 2.80224 77.8999 0.724684 77.4883 0.465715C76.2583 -0.309605 74.0395 -0.0849919 73.1637 0.902789ZM73.7814 10.6284C72.4489 13.4596 70.5413 14.7761 67.7722 14.7761C64.6681 14.7761 64.574 15.3136 67.2119 17.9789L69.716 20.5083L69.3426 24.2781L68.9693 28.0475L72.1871 26.3811L75.4049 24.7147L78.9169 26.3499C81.071 27.353 82.3233 27.7119 82.1555 27.2774C82.0057 26.8879 81.7157 25.2406 81.5118 23.617L81.1411 20.6647L83.6526 17.9926C86.3738 15.0974 86.3648 15.0758 82.2065 14.5224C79.5017 14.1625 77.8043 12.6853 76.5037 9.56132C76.1245 8.65071 75.6455 7.90551 75.4389 7.90551C75.2318 7.90551 74.4861 9.13112 73.7814 10.6284ZM14.9876 11.8994C13.3609 13.0331 13.3609 15.9906 14.9876 17.1243C15.9674 17.8076 18.1215 17.9472 27.6947 17.9472H39.2218L40.3222 16.5545C41.7487 14.7502 41.71 13.9564 40.1194 12.374C38.8172 11.0776 38.8071 11.0766 27.4919 11.0766C18.1018 11.0766 15.9658 11.2171 14.9876 11.8994ZM46.2029 11.761C44.3138 12.7017 44.0483 15.9103 45.761 17.1042C47.3776 18.2315 48.6379 18.1665 49.9205 16.8901C52.6428 14.181 49.6464 10.046 46.2029 11.761ZM29.0251 23.6704C27.8642 24.9467 27.9082 27.0819 29.1175 28.1711C29.8722 28.8508 31.1717 29.0458 34.9472 29.0458C39.4858 29.0458 39.8602 28.9628 40.6388 27.7806C41.6367 26.2648 41.2171 23.9711 39.8039 23.2185C39.2723 22.9352 36.8277 22.7037 34.3709 22.7037C30.7182 22.7037 29.7436 22.8797 29.0251 23.6704ZM45.4886 23.6704C44.3786 24.8912 44.3563 27.1326 45.444 28.2155C47.392 30.1536 50.9826 28.577 50.9826 25.7828C50.9826 23.0763 47.3123 21.6647 45.4886 23.6704ZM3.34416 35.335C-0.127518 37.5056 -0.00111945 36.075 0.00100488 73.2819C0.00259812 105.793 0.0397785 107.061 1.0398 108.692C2.51727 111.105 4.91138 112.194 8.07024 111.892C12.5409 111.464 14.8691 108.364 14.8691 102.837C14.8691 100.429 15.1166 99.1666 15.7035 98.5821C16.4475 97.8422 20.8321 97.7518 55.9833 97.7518C101.333 97.7518 97.1866 97.2238 97.1866 102.999C97.1866 104.947 97.5382 107.05 98.0396 108.102C100.529 113.321 108.728 113.293 111.225 108.057C112.003 106.426 112.082 103.695 111.945 83.3288L111.791 60.4344L109.791 56.4088C106.624 50.0334 101.135 45.7942 94.1882 44.3572C92.4611 43.9999 84.7418 43.8504 73.2105 43.9503C55.2302 44.1062 54.9371 44.1257 53.0007 45.3238C51.9205 45.9929 50.4866 47.4199 49.8142 48.4949C48.6496 50.3595 48.5805 51.0476 48.3272 63.3105C48.0803 75.2622 47.9889 76.2236 47.0309 76.9196C46.2013 77.5221 43.1853 77.6685 31.5892 77.6685C17.2128 77.6685 17.1756 77.6659 16.0237 76.4455C14.8861 75.24 14.8691 74.9641 14.8691 57.6571C14.8691 38.745 14.8511 38.6081 12.0029 35.9603C10.0756 34.1686 5.71331 33.8536 3.34416 35.335ZM5.90185 40.3358C5.46636 40.8574 5.3389 49.9604 5.43821 73.442C5.56567 103.626 5.63843 105.868 6.50462 106.412C7.18015 106.836 7.68787 106.837 8.3634 106.415C9.07717 105.969 9.35758 104.854 9.57267 101.616C9.88494 96.9152 10.7283 95.1447 13.4373 93.5005C15.0805 92.5037 16.4289 92.4704 55.7709 92.4688C94.3974 92.4667 96.4984 92.5153 98.2573 93.4513C100.946 94.8825 102.143 97.2782 102.478 101.903C102.791 106.214 103.712 107.566 105.551 106.412C106.407 105.874 106.492 104.15 106.62 84.5042C106.776 60.5274 106.735 60.2003 103.005 55.5045C101.543 53.6632 99.9137 52.4095 97.355 51.1554L93.7606 49.3933L75.3582 49.2306L56.9557 49.0673L55.4299 50.3727L53.9036 51.6776L53.638 64.636C53.3465 78.8624 53.3358 78.9089 49.7171 81.5995C48.3251 82.6349 47.4531 82.6972 32.3093 82.8436L16.3673 82.9985L14.0757 81.6624C12.5356 80.764 11.4198 79.5759 10.6715 78.0374C9.61038 75.8562 9.55833 74.9356 9.55833 58.3167C9.55833 45.4628 9.39104 40.7179 8.92104 40.2502C8.07237 39.4056 6.64323 39.4463 5.90185 40.3358ZM25.7563 46.1605C20.9426 48.4251 18.0886 52.8392 18.0673 58.0524C18.0508 62.0437 18.9786 64.6783 21.3414 67.3494C29.2025 76.2368 43.6341 71.9099 45.4084 60.1342C46.2263 54.7048 42.7063 48.4769 37.4215 46.0051C34.0937 44.4481 29.2588 44.5126 25.7563 46.1605ZM27.7309 51.065C25.2996 52.2579 23.7727 54.6219 23.4806 57.6465C23.0579 62.0247 25.3569 65.3712 29.5859 66.5334C34.1012 67.7738 39.2946 64.4178 40.0875 59.7458C40.5644 56.9357 38.7619 53.0871 36.1665 51.3758C33.9923 49.9425 30.2976 49.8061 27.7309 51.065Z" fill="#58BEBF"/>
<path fill-rule="evenodd" clip-rule="evenodd" d="M73.1637 0.902789C72.7128 1.41174 71.4972 3.51362 70.4627 5.57427L68.581 9.32085L63.898 9.9725C58.6727 10.6997 57.3556 11.4941 57.3556 13.9199C57.3556 15.2111 58.0672 16.2565 60.8411 19.0375L64.326 22.5325L63.4577 27.1448C62.6643 31.3591 62.6616 31.867 63.4312 33.0355C64.9012 35.2679 66.5231 35.2198 71.1732 32.8046L75.3773 30.6218L79.8277 32.8183C83.1422 34.454 84.6335 34.926 85.6717 34.6665C88.0122 34.082 88.3601 32.7078 87.5868 27.1009L86.9007 22.1282L90.1264 19.113C93.8371 15.6444 94.4728 14.2513 93.2168 12.3434C92.144 10.7145 91.9661 10.6458 86.7769 9.86099L82.5819 9.22678L80.4093 5.0817C79.2143 2.80224 77.8999 0.724684 77.4883 0.465715C76.2583 -0.309605 74.0395 -0.0849919 73.1637 0.902789ZM73.7814 10.6284C72.4489 13.4596 70.5413 14.7761 67.7722 14.7761C64.668 14.7761 64.574 15.3136 67.2119 17.9789L69.716 20.5083L69.3426 24.2781L68.9693 28.0475L72.1871 26.3811L75.4049 24.7147L78.9169 26.3499C81.071 27.353 82.3233 27.7119 82.1555 27.2774C82.0057 26.8879 81.7157 25.2406 81.5118 23.617L81.1411 20.6647L83.6526 17.9926C86.3738 15.0974 86.3648 15.0758 82.2064 14.5224C79.5017 14.1625 77.8043 12.6853 76.5037 9.56132C76.1245 8.65071 75.6455 7.90551 75.4389 7.90551C75.2318 7.90551 74.4861 9.13112 73.7814 10.6284ZM14.9876 11.8994C13.3609 13.0331 13.3609 15.9906 14.9876 17.1243C15.9674 17.8076 18.1215 17.9472 27.6947 17.9472H39.2218L40.3222 16.5545C41.7487 14.7502 41.71 13.9564 40.1194 12.374C38.8172 11.0776 38.8071 11.0766 27.4919 11.0766C18.1018 11.0766 15.9658 11.2171 14.9876 11.8994ZM46.2029 11.761C44.3138 12.7017 44.0483 15.9103 45.761 17.1042C47.3776 18.2315 48.6379 18.1665 49.9205 16.8901C52.6428 14.181 49.6464 10.046 46.2029 11.761ZM29.0251 23.6704C27.8642 24.9467 27.9082 27.0819 29.1175 28.1711C29.8722 28.8508 31.1717 29.0458 34.9472 29.0458C39.4858 29.0458 39.8602 28.9628 40.6388 27.7806C41.6367 26.2648 41.2171 23.9711 39.8039 23.2185C39.2723 22.9352 36.8277 22.7037 34.3709 22.7037C30.7182 22.7037 29.7436 22.8797 29.0251 23.6704ZM45.4886 23.6704C44.3786 24.8912 44.3563 27.1326 45.444 28.2155C47.392 30.1536 50.9826 28.577 50.9826 25.7828C50.9826 23.0763 47.3123 21.6647 45.4886 23.6704ZM25.7563 46.1605C20.9426 48.4251 18.0886 52.8392 18.0673 58.0524C18.0508 62.0437 18.9786 64.6783 21.3414 67.3494C29.2025 76.2368 43.6341 71.9099 45.4084 60.1342C46.2263 54.7048 42.7063 48.4769 37.4215 46.0051C34.0937 44.4481 29.2588 44.5126 25.7563 46.1605ZM27.7309 51.065C25.2996 52.2579 23.7727 54.6219 23.4806 57.6465C23.0579 62.0247 25.3569 65.3712 29.5859 66.5334C34.1012 67.7738 39.2946 64.4178 40.0875 59.7458C40.5644 56.9357 38.7619 53.0871 36.1665 51.3758C33.9923 49.9425 30.2976 49.8061 27.7309 51.065Z" fill="#F8CC16"/>
</svg>
