<svg width="59" height="59" viewBox="0 0 59 59" fill="none" xmlns="http://www.w3.org/2000/svg">
<path fill-rule="evenodd" clip-rule="evenodd" d="M28.3546 0.357635C27.4776 1.15466 22.7794 7.52239 20.6612 10.7848C17.2274 16.0735 15.141 20.397 14.5335 23.4833C14.2371 24.989 14.4349 27.8451 14.946 29.4356C15.4339 30.954 16.1877 32.5514 16.9148 33.6075L17.4099 34.3266L16.9652 34.2202C16.7206 34.1616 14.5004 33.5437 12.0316 32.8471C8.09352 31.7359 7.38839 31.5809 6.2829 31.5844C4.78587 31.5891 3.98073 31.8972 2.84988 32.8987C1.86677 33.7691 1.5009 34.5247 0.678275 37.3839C-0.400755 41.1344 -0.196477 42.8737 1.51885 44.5417L2.23863 45.2417L1.42577 46.1212C0.419661 47.2097 -0.0150386 48.3131 0.000396336 49.7391C0.0129963 50.901 1.08967 54.9604 1.70675 56.1718C2.20508 57.1503 3.08377 57.9947 4.14595 58.5162C4.87958 58.8761 5.22891 58.9465 6.2829 58.9465C7.42273 58.9465 8.27905 58.74 15.2604 56.782C23.5145 54.467 27.6817 53.3078 28.5691 53.08C29.0904 52.9461 31.7506 53.6051 38.2553 55.4792C38.6884 55.604 41.7643 56.4618 45.0903 57.3853C50.5795 58.9095 51.2287 59.0573 52.1211 58.9857C53.9083 58.8423 55.6693 57.7174 56.4223 56.2379C56.5892 55.9098 57.0313 54.5789 57.4046 53.2804C58.5173 49.4095 58.3097 47.6058 56.5621 45.9625L55.8573 45.2997L56.5582 44.5992C58.3145 42.8443 58.514 41.1002 57.4019 37.2265C56.6061 34.4539 56.3854 33.9773 55.4749 33.0624C54.4583 32.0411 53.3299 31.5736 51.879 31.5732C50.874 31.5727 49.9662 31.7772 45.7929 32.9437C43.0951 33.6978 40.8389 34.3148 40.7789 34.3148C40.7188 34.3148 40.9152 33.9784 41.2152 33.5672C43.4027 30.5692 44.306 26.1797 43.4405 22.7533C42.2777 18.1494 37.6406 10.3192 31.1952 2.07588C29.4659 -0.1361 29.1248 -0.342441 28.3546 0.357635ZM26.869 5.75237C21.169 13.3518 17.5062 19.8497 16.6902 23.8094C16.1614 26.375 17.0356 29.9262 18.8448 32.5618C19.3667 33.3221 20.9844 34.9742 21.6112 35.3872C21.8328 35.5331 22.4242 35.7661 22.9254 35.9047L23.8367 36.1569L22.9062 35.163C20.951 33.0744 20.2495 30.3663 20.9187 27.4909C21.4832 25.0651 24.0164 19.0974 26.8078 13.6178C28.0952 11.0905 28.4973 10.5487 29.0857 10.5487C29.2911 10.5487 29.607 10.708 29.7877 10.9028C30.1797 11.3256 33.0062 16.9412 34.4418 20.1496C35.8609 23.3212 37.0021 26.4384 37.3191 28.0097C37.8397 30.5893 37.0868 33.1227 35.2008 35.1375L34.2214 36.1836L35.1776 35.9142C38.413 35.0026 41.6293 29.8124 41.6395 25.4867C41.6483 21.715 37.8168 14.4745 31.0485 5.47285C30.0233 4.10953 29.1292 2.99394 29.0613 2.99394C28.9936 2.99394 28.007 4.23528 26.869 5.75237ZM27.5052 17.1198C24.9277 22.4384 23.4066 26.2316 22.9815 28.4003C22.624 30.2243 23.1168 32.1275 24.3027 33.502L24.7559 34.0269L24.8709 33.1872C25.1008 31.508 27.7325 24.1177 28.339 23.448C28.7123 23.0358 29.3832 23.0572 29.784 23.4941C30.4289 24.197 33.0435 31.5009 33.236 33.1369L33.339 34.0127L33.6956 33.678C34.2832 33.1263 34.9921 31.6264 35.2011 30.4927C35.3726 29.5625 35.3616 29.2746 35.1132 28.2121C34.7506 26.6601 34.0157 24.6234 32.8383 21.9068C31.5673 18.9742 29.224 14.1687 29.0651 14.1687C28.9937 14.1687 28.2917 15.4968 27.5052 17.1198ZM28.7455 28.0539C28.2248 29.2676 26.9941 33.2096 26.9941 33.6633C26.9941 34.6388 28.0564 35.7313 29.0049 35.7313C30.1225 35.7313 31.0874 34.7563 31.0885 33.6256C31.0889 33.1071 29.5754 28.2569 29.1915 27.5471C29.0966 27.3715 28.9827 27.501 28.7455 28.0539ZM5.38374 33.8407C4.09082 34.2303 3.54178 35.1526 2.6519 38.4302C2.00253 40.8216 1.99891 41.5834 2.63269 42.5232C3.19843 43.3621 3.79661 43.6495 6.61097 44.4353C8.07635 44.8444 12.0749 45.957 15.4966 46.9076C18.9183 47.8583 22.0722 48.7383 22.5054 48.8631C22.9385 48.9879 24.2497 49.3502 25.4191 49.6683C26.5885 49.9864 28.5022 50.5152 29.6716 50.8434C30.841 51.1715 33.0027 51.772 34.4753 52.1774C35.948 52.583 38.7475 53.3597 40.6966 53.9037C52.4449 57.1817 51.8239 57.0462 52.9472 56.5773C53.7111 56.2584 54.3033 55.68 54.6021 54.9609C55.0271 53.9383 55.974 50.3002 55.974 49.6902C55.974 48.6083 55.2987 47.4541 54.3888 46.9808C54.1667 46.8653 51.5089 46.0876 48.4826 45.2528C45.4564 44.4179 41.4919 43.3201 39.6728 42.813C37.8537 42.306 33.3886 41.0654 29.7503 40.0564C26.1121 39.0472 21.0091 37.6316 18.4104 36.9103C5.64408 33.3674 6.37976 33.5407 5.38374 33.8407ZM48.9653 34.3382C47.7525 34.6812 45.3782 35.3403 43.6891 35.8031C38.8496 37.1285 33.71 38.5637 33.4516 38.6621C33.2216 38.7496 35.0675 39.2962 42.1928 41.2508C44.0986 41.7737 47.1763 42.6296 49.0321 43.1529C52.6569 44.1752 53.0499 44.21 54.2166 43.612C55.2932 43.0602 55.974 42.0093 55.974 40.8992C55.974 40.2204 54.8474 35.9847 54.474 35.2591C54.0072 34.3522 52.8286 33.6736 51.766 33.7C51.4384 33.708 50.178 33.9953 48.9653 34.3382ZM4.47165 46.7049C4.08184 46.8403 3.55973 47.0932 3.31151 47.267C2.78531 47.6354 2.11294 48.9777 2.11073 49.6644C2.10806 50.4899 3.51894 55.1258 3.94214 55.682C4.45401 56.355 5.3957 56.8217 6.24132 56.8217C6.63475 56.8217 10.47 55.8355 15.3432 54.4812C19.9754 53.1937 24.0027 52.0888 24.2928 52.0255C24.5829 51.9624 24.7601 51.8551 24.6866 51.7869C24.613 51.7189 22.8164 51.1877 20.6941 50.6067C18.5718 50.0256 14.327 48.8491 11.2615 47.9921C8.19573 47.1351 5.57336 46.4396 5.43398 46.4463C5.29443 46.4531 4.86147 46.5696 4.47165 46.7049Z" fill="#058FA2"/>
<path d="M27.6859 37.2152C26.7782 36.4588 25.0536 34.6737 25.4167 33.5845C25.7797 32.4952 27.9886 26.7768 29.0476 24.0537L32.2245 33.5845C32.2245 34.3409 31.9522 36.0352 30.863 36.7614C29.7737 37.4876 29.5014 37.6691 29.5014 37.6691L26.7784 36.7614" stroke="#FDC114" stroke-width="4"/>
</svg>
