<svg width="78" height="34" viewBox="0 0 78 34" fill="none" xmlns="http://www.w3.org/2000/svg">
<path fill-rule="evenodd" clip-rule="evenodd" d="M2.45902 0.638783C1.73609 0.963287 0.955206 1.5394 0.723624 1.91835C0.233356 2.72061 -0.0178155 1.49329 3.24097 14.2214C5.41619 22.7169 5.55975 23.4581 5.11134 23.8818C3.06226 25.8165 3.11727 28.9272 5.2321 30.6929C6.47696 31.7318 12.0551 33.1954 16.9588 33.7693C23.2979 34.5114 25.9562 33.8738 51.0025 25.6036C58.6772 23.0695 65.681 20.6974 66.5665 20.3325C69.908 18.9563 74.0598 16.0867 75.8583 13.9105C77.8585 11.491 77.2896 7.6066 74.7511 6.35118C74.3821 6.16851 73.2349 5.40753 72.2018 4.66016C70.4704 3.40738 70.0921 3.30155 67.3716 3.30682C64.9661 3.31165 63.0093 3.73979 56.7985 5.62094C52.6069 6.89041 47.1729 8.61831 44.7229 9.46009C39.7679 11.1634 39.9236 11.1713 35.3043 8.9617C33.607 8.14978 29.3717 6.28839 25.8926 4.82527C20.7371 2.65738 19.1708 2.16513 17.4241 2.16513C15.0039 2.16513 14.27 2.70656 14.4149 4.38528C14.5171 5.57 14.4562 5.51336 22.4237 11.8076L27.1197 15.5176L24.1679 16.5267C22.5444 17.0822 20.3104 17.585 19.2035 17.6451C16.2659 17.8036 15.4571 16.9979 9.85087 8.32543C5.74276 1.97105 4.21105 -0.154693 3.85844 0.0086563C3.81175 0.0306119 3.18221 0.313841 2.45902 0.638783ZM2.62888 3.40957C2.37395 3.67436 2.95948 6.3503 4.9769 14.1375C6.45522 19.8438 7.66465 24.7912 7.66465 25.1324C7.66465 25.5074 7.21383 25.9079 6.52418 26.1459C5.16636 26.6149 5.02628 27.5607 6.18017 28.4661C7.59462 29.5753 15.7464 31.1289 20.2023 31.1381C23.7598 31.1456 25.1103 30.9173 30.6678 29.3703C34.1772 28.3933 40.8523 26.3079 45.5014 24.7359C50.1505 23.1639 56.9732 20.8796 60.6629 19.6598C67.7062 17.3312 70.4525 15.962 73.2942 13.3616C75.3804 11.4523 75.8188 10.42 74.9607 9.43638C74.6322 9.06006 74.2595 8.7518 74.1325 8.7518C74.0056 8.7518 73.0895 8.16822 72.0966 7.45511C69.8605 5.84928 67.5117 5.41895 64.6881 6.09825C61.2409 6.9273 51.4316 9.90139 45.8317 11.815C42.9875 12.7868 40.3309 13.5811 39.9281 13.5798C39.5251 13.5785 37.11 12.6002 34.5612 11.4054C27.5483 8.11773 19.3734 4.79673 18.3609 4.82439C17.6305 4.84415 18.5042 5.6789 22.9604 9.21902C29.9577 14.7782 30.8766 15.6002 30.8766 16.3019C30.8766 16.9443 20.7041 20.5305 18.7438 20.5797C17.419 20.6126 15.3101 19.344 13.7271 17.5617C13.1099 16.867 10.6916 13.3164 8.35296 9.67086C4.21534 3.22207 3.53079 2.47295 2.62888 3.40957Z" fill="#058FA2"/>
<ellipse cx="41.2326" cy="19" rx="1.99041" ry="2" fill="#F9BF02"/>
<ellipse cx="48.2013" cy="17" rx="1.99041" ry="2" fill="#F9BF02"/>
<ellipse cx="55.1662" cy="15" rx="1.99041" ry="2" fill="#F9BF02"/>
</svg>
