<svg width="48" height="67" viewBox="0 0 48 67" fill="none" xmlns="http://www.w3.org/2000/svg">
<path fill-rule="evenodd" clip-rule="evenodd" d="M17.6898 0.244227C16.8377 0.60074 14.8842 2.39291 14.8842 2.818C14.8842 3.64924 15.7259 3.48993 17.1554 2.38864C17.9867 1.7482 18.7867 1.32604 19.0084 1.41117C19.4007 1.5614 19.852 2.90366 20.0096 4.38869L20.0946 5.18817L15.5522 5.76537C9.17203 6.57633 7.63938 6.94805 6.23391 8.0256C4.73626 9.17386 3.97634 10.6221 3.75644 12.7467C3.61482 14.1149 3.46065 14.5167 2.9372 14.8815C2.58263 15.1286 1.93921 15.6119 1.50769 15.9551L0.722656 16.5792L0.726664 20.3581C0.731206 24.3577 0.905421 25.1609 1.63755 24.5541C1.98036 24.2699 2.05865 23.5758 2.05865 20.8152C2.05865 17.6168 2.09366 17.3926 2.67695 16.845C3.0171 16.5259 3.37782 16.2649 3.47855 16.2649C3.57955 16.2649 3.66319 24.1002 3.66479 33.6769C3.66639 43.2534 3.73987 51.525 3.82805 52.0576C4.04394 53.3609 5.69443 55.4821 7.09269 56.2533C8.04472 56.7782 8.69775 56.8959 11.0852 56.9727C12.655 57.0232 13.9755 57.1721 14.0193 57.3036C14.0631 57.4349 13.09 59.5129 11.8563 61.9209C10.6229 64.329 9.66742 66.4497 9.73289 66.633C10.0132 67.4178 10.8025 66.9102 11.5995 65.4322L12.4271 63.8978L23.9377 63.8281L35.4484 63.7587L36.0547 64.7722C36.3882 65.3297 36.794 66.0216 36.9568 66.3096C37.1195 66.5975 37.435 66.8692 37.6579 66.9129C38.6642 67.1112 38.324 65.9613 36.1159 61.704C34.8587 59.2799 33.8837 57.2428 33.9494 57.1771C34.0152 57.1115 35.3132 57.0253 36.8344 56.9855C40.7336 56.8836 42.3782 56.0267 43.7217 53.3964C44.2665 52.3298 44.2761 52.001 44.2761 34.288C44.2761 24.3753 44.3777 16.2649 44.5017 16.2649C44.6259 16.2649 45.0467 16.5389 45.4369 16.8738C46.1388 17.4761 46.1465 17.5218 46.1465 21.0284C46.1465 24.553 46.1503 24.5738 46.7477 24.4892C47.335 24.4057 47.3505 24.3158 47.423 20.6057L47.4972 16.8077L46.7777 16.2027C44.1813 14.0196 44.2761 14.1488 44.2761 12.8009C44.2761 10.685 43.2424 8.81921 41.4612 7.71979C40.1794 6.92857 37.993 6.44211 32.653 5.7595L28.1106 5.17883L28.1459 4.38415C28.2052 3.04643 28.7781 1.32124 29.1628 1.32124C29.363 1.32124 30.1675 1.80237 30.9512 2.39024C32.4192 3.4918 32.8595 3.59054 33.0033 2.85003C33.0976 2.36462 32.3778 1.57128 30.9875 0.629026C30.0553 -0.00261016 29.9452 -0.0127506 24.132 0.00379416C20.8828 0.0131339 17.9837 0.121476 17.6898 0.244227ZM21.0298 1.83466C21.0298 2.11699 21.1717 2.96184 21.3451 3.71195L21.6604 5.07583L24.0799 4.99978L26.4996 4.92372L26.6739 3.98975C26.7698 3.47606 26.937 2.66563 27.0453 2.1885L27.2422 1.32124H24.136C21.2489 1.32124 21.0298 1.35753 21.0298 1.83466ZM17.4226 6.9227C14.4452 7.2037 9.98672 7.91405 8.73864 8.30632C7.22602 8.78185 6.3138 9.58454 5.63752 11.0349L5.00319 12.3955L5.02082 31.8757C5.03365 46.0953 5.12316 51.5815 5.35215 52.1918C5.83712 53.4842 6.63417 54.4123 7.80344 55.0461C8.86449 55.6211 8.98205 55.6254 23.969 55.6254C38.5394 55.6254 39.1021 55.6067 40.1108 55.0917C40.6858 54.7982 41.5275 54.0966 41.9812 53.5327L42.8066 52.5075L42.8888 33.1187C42.934 22.4548 42.8945 13.0928 42.8009 12.3142C42.6128 10.748 41.6338 9.36492 40.1832 8.61587C39.7394 8.38665 37.6229 7.90552 35.4802 7.54687C31.1305 6.8189 21.9033 6.50001 17.4226 6.9227ZM18.5582 10.3112C17.9752 10.4633 17.9437 11.3482 18.5133 11.5664C18.7458 11.6556 21.2478 11.7284 24.0735 11.7284C28.2314 11.7284 29.3098 11.6521 29.7296 11.3281C30.2428 10.9319 30.2428 10.9239 29.7296 10.5276C29.3066 10.2012 28.2709 10.1329 24.1184 10.1583C21.3173 10.1753 18.8155 10.2442 18.5582 10.3112ZM9.10577 15.3813C8.79341 15.4427 8.25233 15.7963 7.90337 16.1672L7.26904 16.8416V27.784V38.7265L8.0188 39.3707L8.76856 40.0146H23.9797H39.1908L40.0635 39.2362L40.9362 38.4578L41.0118 27.9474L41.0871 17.4372L40.4744 16.5288C40.1372 16.0293 39.5622 15.5372 39.1964 15.4355C38.4961 15.241 10.084 15.1897 9.10577 15.3813ZM9.05634 17.0758C8.47464 17.617 8.47144 17.6733 8.47144 27.7309C8.47144 36.6112 8.52301 37.8932 8.89575 38.2654C9.26555 38.6347 10.2184 38.6801 16.3105 38.6179L23.301 38.5469L23.371 27.9039C23.421 20.2695 23.3552 17.158 23.1377 16.8963C22.8965 16.6062 21.4891 16.5317 16.2379 16.5317C9.96829 16.5317 9.61211 16.5587 9.05634 17.0758ZM24.9488 16.7097C24.8508 16.8074 24.7706 21.7908 24.7706 27.784V38.6804H31.8361C38.8346 38.6804 38.9057 38.6748 39.3177 38.0872C39.6758 37.5767 39.7338 36.1341 39.7338 27.716C39.7338 18.2278 39.7175 17.9172 39.1799 17.2349L38.6262 16.5317H31.8765C28.1643 16.5317 25.0466 16.6118 24.9488 16.7097ZM9.13944 43.7359C8.39315 44.0411 7.76256 44.7976 7.2661 45.9846C6.91767 46.8174 6.8979 47.1732 7.15441 47.9764C7.57258 49.2837 8.5385 50.2705 9.81144 50.69C10.709 50.9859 11.0211 50.9723 12.0027 50.5955C13.5795 49.99 14.3498 48.8007 14.3498 46.9714C14.3498 45.6828 14.2568 45.4629 13.3126 44.5196C12.3832 43.5918 12.1393 43.4855 10.9746 43.5005C10.259 43.5098 9.43335 43.6158 9.13944 43.7359ZM35.7258 43.6633C35.0709 43.9347 34.1656 44.9369 33.8671 45.7212C33.1152 47.6962 33.9318 49.5978 35.9067 50.4701C36.9546 50.9331 37.2926 50.971 38.1346 50.7191C39.5574 50.2932 40.386 49.5479 40.7879 48.3313C41.252 46.9271 40.9722 45.5699 39.9991 44.5062C39.3177 43.7612 39.0219 43.6427 37.6726 43.5749C36.8224 43.5322 35.9462 43.572 35.7258 43.6633ZM9.17845 45.4722C7.66824 46.87 8.66916 49.3544 10.7426 49.3544C12.0458 49.3544 13.0138 48.3876 13.0138 47.0862C13.0138 45.0549 10.6873 44.0758 9.17845 45.4722ZM35.7052 45.5979C34.7366 46.5653 34.7093 47.4574 35.616 48.5333C36.1584 49.1772 36.5188 49.3536 37.2859 49.3504C37.8241 49.348 38.3913 49.2581 38.5469 49.1503C39.1021 48.7652 39.7338 47.6239 39.7338 47.0064C39.7338 46.0743 38.3531 44.8179 37.329 44.8179C36.754 44.8179 36.2383 45.0656 35.7052 45.5979ZM15.6099 57.868C15.3577 58.2944 15.1514 58.7147 15.1514 58.802C15.1514 59.0067 32.6468 59.0117 32.8515 58.8073C32.9362 58.7227 32.8058 58.3032 32.5621 57.8749L32.1186 57.0965L24.0935 57.0947L16.0682 57.0931L15.6099 57.868ZM13.956 61.0825C13.7318 61.5156 13.5482 61.9959 13.5482 62.1499C13.5482 62.341 16.9115 62.4301 24.1026 62.4301C31.0549 62.4301 34.657 62.3378 34.657 62.1595C34.657 61.8051 34.0619 60.7492 33.7218 60.4994C33.5748 60.3916 29.1591 60.3017 23.9091 60.2993L14.3635 60.2953L13.956 61.0825Z" fill="#058FA2"/>
<ellipse cx="10.6761" cy="47" rx="3.98082" ry="4" fill="#F9BF02"/>
<ellipse cx="37.5433" cy="47" rx="3.98082" ry="4" fill="#F9BF02"/>
<path d="M14.1562 59.5H33.5627" stroke="#FDC114" stroke-width="2"/>
</svg>
