<svg width="43" height="59" viewBox="0 0 43 59" fill="none" xmlns="http://www.w3.org/2000/svg">
<path fill-rule="evenodd" clip-rule="evenodd" d="M12.1396 0.0190434C12.0382 0.0424125 11.5547 0.125408 11.065 0.203466C10.5754 0.281644 9.83963 0.44511 9.42985 0.566654L8.68502 0.787696L8.57305 0.498954C8.29798 -0.210072 7.25669 0.119747 7.40037 0.870451C7.46969 1.23291 7.43724 1.26472 6.29455 1.9576C1.80812 4.6777 -0.482672 8.71298 0.085292 12.8955C0.300875 14.4836 0.444682 14.8317 0.902643 14.8756C1.24298 14.9082 1.34401 14.8282 1.91824 14.0714C2.66246 13.0906 3.23989 12.6129 4.23213 12.1573C4.8559 11.8709 5.10184 11.8279 6.11707 11.8279C6.75927 11.8279 7.56605 11.8744 7.90983 11.9312L8.53495 12.0344L9.11778 11.234C9.43833 10.7937 9.98454 10.2134 10.3318 9.94456L10.9628 9.45561L11.1833 9.91902C11.3046 10.1739 11.7276 11.06 12.1233 11.8882C12.5191 12.7163 13.1625 14.0715 13.5531 14.8997C13.9437 15.7278 14.5875 17.0759 14.9836 17.8954C15.3799 18.715 15.704 19.4332 15.704 19.4915C15.704 19.5505 13.8811 19.5976 11.5953 19.5976C7.16119 19.5976 7.10035 19.6063 7.10035 20.2366C7.10035 20.4206 9.5873 22.9353 15.5811 28.8119L24.0618 37.1268V47.4551V57.7833H20.6737C18.5733 57.7833 17.1953 57.8306 17.0479 57.908C16.7785 58.0493 16.724 58.6143 16.9577 58.8433C17.1708 59.0522 32.182 59.0522 32.3951 58.8433C32.6288 58.6143 32.5743 58.0493 32.3049 57.908C32.1575 57.8306 30.7795 57.7833 28.6791 57.7833H25.2909V47.4551V37.1268L33.7717 28.8119C39.3394 23.3532 42.2518 20.4149 42.2506 20.2581C42.2456 19.6236 42.9925 19.6625 29.5914 19.5976L17.1672 19.5374L14.6697 14.2974C12.6222 10.0013 12.205 9.03858 12.3545 8.95329C12.5307 8.85259 14.2551 8.91969 15.2859 9.06725L15.7894 9.1394L16.3621 8.35292C17.0147 7.45658 17.6801 6.88777 18.6538 6.39413C19.264 6.08479 19.4497 6.05118 20.5589 6.05022C21.2349 6.04962 22.059 6.09744 22.3902 6.15658C22.911 6.2497 23.0147 6.23428 23.1583 6.04166C23.4327 5.67402 23.3576 5.44768 22.5866 4.31801C21.2418 2.34777 19.4371 1.01645 17.2404 0.374399C16.2877 0.0960167 15.8698 0.045905 14.2291 0.0139832C13.1813 -0.00649499 12.241 -0.00420536 12.1396 0.0190434ZM11.4636 1.34326C9.41289 1.74439 8.16511 2.23141 6.55795 3.2582C4.54949 4.54122 3.09694 6.05166 2.25514 7.73232C1.56119 9.11784 1.32361 10.0983 1.32361 11.5767V12.7556L2.00981 12.1409C3.37177 10.921 5.3629 10.29 7.04184 10.5461L7.84272 10.6684L8.85426 9.66967C10.5001 8.04491 12.3521 7.35889 14.2935 7.6551L15.0944 7.77737L16.1059 6.77984C16.8463 6.04973 17.3539 5.66764 18 5.3542C18.8933 4.92091 20.3752 4.58663 20.9366 4.69179C21.4302 4.78419 21.284 4.53423 20.2824 3.57357C19.1976 2.53304 18.4011 2.04963 16.9946 1.57815C16.1257 1.28676 15.7968 1.24424 14.1676 1.21171C12.9387 1.18726 12.0371 1.23111 11.4636 1.34326ZM16.964 28.3609L24.6764 35.9196L32.3888 28.3609L40.1013 20.8022H24.6764H9.25151L16.964 28.3609ZM17.056 24.8618C15.4551 24.9843 14.8414 25.2852 15.0265 25.8568C15.1139 26.1269 24.3821 34.4141 24.5967 34.4141C24.6781 34.4141 24.9177 34.2921 25.1291 34.1431C25.9497 33.5642 34.2633 25.9587 34.2633 25.7868C34.2633 25.417 34.01 25.1387 33.6752 25.1405C33.4917 25.1415 32.8993 25.2769 32.3588 25.4415C30.2019 26.0981 28.9452 26.2831 26.6429 26.2831H24.492L22.8267 25.7114C21.7448 25.3399 20.7113 25.0769 19.8769 24.9607C18.6312 24.7872 18.2192 24.7728 17.056 24.8618ZM17.1932 26.1844C17.2736 26.3863 24.5862 32.8575 24.6935 32.8218C24.8255 32.7776 31.0796 27.1573 31.0381 27.1201C31.0205 27.1044 30.6467 27.1656 30.2073 27.2561C27.3805 27.8376 24.8377 27.754 22.8112 27.013C22.1808 26.7824 21.3333 26.5068 20.9277 26.4006C20.0626 26.1737 17.1213 26.0036 17.1932 26.1844Z" fill="#058FA2"/>
<path d="M24.8564 33.4863L15.7422 25.6685L20.7059 25.4027C22.2533 25.8522 24.9398 27.1256 25.2707 27.1079C25.6016 27.0902 31.1237 26.1757 33.5978 25.9101L24.8564 33.4863Z" stroke="#FDC114" stroke-width="2"/>
</svg>
