<svg width="41" height="63" viewBox="0 0 41 63" fill="none" xmlns="http://www.w3.org/2000/svg">
<path fill-rule="evenodd" clip-rule="evenodd" d="M13.754 1.30842L12.5552 2.5931L10.8952 2.60693C7.73371 2.63347 5.11522 3.94843 3.54453 6.29816C2.76601 7.46284 2.52458 8.35238 2.11365 11.57C1.90874 13.1739 1.65808 15.0328 1.55664 15.701C1.4552 16.3692 1.29215 17.5889 1.1944 18.4113C1.09646 19.2337 0.932312 20.5795 0.829579 21.402C0.726846 22.2244 0.598661 23.5493 0.54462 24.3459C0.490395 25.1425 0.369587 25.7945 0.275891 25.7945C0.173896 25.7945 0.105469 29.6205 0.105469 35.3273C0.105469 41.5578 0.169285 44.86 0.289909 44.86C0.39135 44.86 0.474348 45.2385 0.474348 45.7011C0.474348 46.1638 0.557346 46.5423 0.658788 46.5423C0.76023 46.5423 0.843228 46.7105 0.843228 46.9161C0.843228 47.1217 0.926226 47.2899 1.02767 47.2899C1.12911 47.2899 1.21211 47.4197 1.21211 47.5782C1.21211 47.9471 1.34361 48.1071 3.29609 50.1128C5.42545 52.2999 6.5249 52.883 8.80162 53.0326C9.7063 53.0918 10.4946 53.2193 10.5534 53.3156C10.6748 53.5146 10.0796 54.9535 9.8758 54.9535C9.80239 54.9535 9.69468 55.1958 9.63621 55.4917C9.57774 55.7877 9.41839 56.1453 9.28172 56.286C9.14523 56.427 8.62511 57.3834 8.12602 58.4115C7.62692 59.4395 7.15347 60.3087 7.07416 60.3429C6.99466 60.3773 6.92974 60.5664 6.92974 60.7635C6.92974 60.9605 6.84674 61.1218 6.7453 61.1218C6.64386 61.1218 6.56086 61.29 6.56086 61.4956C6.56086 61.7012 6.47786 61.8694 6.37642 61.8694C6.27498 61.8694 6.19198 62.1218 6.19198 62.4302C6.19198 62.908 6.26225 62.9909 6.66618 62.9909C6.92716 62.9909 7.23831 62.8825 7.35783 62.75C7.56163 62.5242 7.69111 62.3124 8.26693 61.262C8.39382 61.0306 8.53898 60.7993 8.5897 60.7479C8.64042 60.6965 8.77395 60.4863 8.88646 60.2806C9.08769 59.913 9.28209 59.9068 20.5894 59.9068H32.0877L32.4656 60.6545C32.6735 61.0657 32.9059 61.4302 32.9819 61.4644C33.0578 61.4988 33.1202 61.6879 33.1202 61.885C33.1202 62.0822 33.2032 62.2433 33.3046 62.2433C33.4061 62.2433 33.4891 62.4115 33.4891 62.6171C33.4891 63.07 34.2899 63.1407 34.701 62.7238C34.9784 62.4429 35.0622 61.87 34.8263 61.8687C34.7503 61.8683 34.4804 61.4061 34.2268 60.8414C33.9732 60.2767 33.7034 59.8145 33.6274 59.8141C33.5514 59.8137 33.4891 59.6521 33.4891 59.455C33.4891 59.258 33.4264 59.0689 33.3496 59.0345C33.2729 59.0003 32.568 57.6984 31.783 56.1414C30.1935 52.9887 30.1893 53.0844 31.92 53.0844C33.1501 53.0844 34.9415 52.5298 35.948 51.8374C36.6828 51.332 37.0239 51.0025 38.7877 49.0941C39.6243 48.189 40.3133 47.0761 40.3133 46.6301C40.3133 46.4789 40.388 46.3554 40.4792 46.3554C40.8327 46.3554 40.9144 44.2566 40.9085 35.3273C40.9026 26.1603 40.8082 23.5515 40.4821 23.5515C40.3893 23.5515 40.3133 22.9375 40.3133 22.187C40.3133 21.4365 40.2368 20.7425 40.1433 20.645C40.0498 20.5474 39.9282 19.8786 39.8731 19.159C39.7134 17.069 39.1805 12.687 38.7657 10.0531C38.0154 5.2875 34.9511 2.62599 30.2064 2.61908L28.6757 2.61683L27.4026 1.30842L26.1294 0L20.541 0.0119625L14.9529 0.0237382L13.754 1.30842ZM15.414 1.68225C15.414 1.78505 15.3251 1.86917 15.2164 1.86917C15.0089 1.86917 14.4918 2.32655 14.4918 2.51011C14.4918 2.5688 17.1477 2.61683 20.3938 2.61683C23.64 2.61683 26.2959 2.57104 26.2959 2.51497C26.2959 2.45889 26.0921 2.20655 25.8431 1.95421L25.3905 1.49533H20.4021C17.1997 1.49533 15.414 1.56225 15.414 1.68225ZM8.95858 4.28338C8.80642 4.37123 8.40323 4.50338 8.06276 4.57722C7.12931 4.77946 5.89024 5.65105 5.04587 6.6991C4.23987 7.69947 4.00471 8.55966 3.52775 12.2516C3.08823 15.6545 2.87059 17.2442 2.59541 19.0655C2.541 19.4253 2.41207 20.3926 2.30897 21.215C2.20568 22.0375 2.03176 23.3833 1.9222 24.2057C1.62507 26.4349 1.50463 44.1955 1.78 45.1404C2.25622 46.7735 2.73558 47.5339 4.21497 49.0025C6.57838 51.3485 6.79713 51.427 11.5407 51.6348C16.174 51.8378 32.5831 51.6877 33.4075 51.4348C34.6818 51.044 35.301 50.5989 37.1917 48.7152C38.1711 47.7391 39.0601 46.2707 39.305 45.2241C39.5592 44.1378 39.4942 26.4818 39.2296 24.7665C38.8915 22.5739 38.6626 20.8511 38.0995 16.2618C37.5932 12.1335 37.228 9.67743 36.9741 8.69163C36.6087 7.2733 35.3693 5.7333 34.0378 5.04357C32.2721 4.1288 32.0875 4.11647 20.3016 4.12002C14.2151 4.12189 9.11074 4.19535 8.95858 4.28338ZM14.6836 6.25274C14.5613 6.40209 14.4901 6.67536 14.5252 6.86022C14.5847 7.17405 14.9756 7.19966 20.4176 7.24564C25.6161 7.28957 26.2734 7.26209 26.4959 6.9905C26.7104 6.72844 26.6855 6.63723 26.3157 6.33367C25.9163 6.0062 25.5001 5.98134 20.3961 5.98134C15.8216 5.98134 14.8688 6.02657 14.6836 6.25274ZM9.69634 9.34584C9.54418 9.44546 9.25368 9.52845 9.0508 9.53014C8.63636 9.5335 7.6675 10.3034 7.6675 10.6292C7.6675 10.7458 7.5845 10.8412 7.48306 10.8412C7.38162 10.8412 7.29862 11.0043 7.29862 11.204C7.29862 11.4036 7.21562 11.6187 7.11418 11.6823C7.01274 11.7458 6.92974 12.2554 6.92974 12.8148C6.92974 13.3743 6.85283 13.8318 6.75877 13.8318C6.66489 13.8318 6.54482 14.5259 6.49188 15.3739C6.43913 16.2219 6.3067 17.5889 6.19788 18.4113C6.08888 19.2337 5.92086 20.5375 5.82439 21.3085C5.65711 22.6455 5.42029 24.3728 5.16189 26.1405C5.02448 27.0805 5.25079 27.6379 6.13979 28.5502L6.73294 29.159H20.48C29.5216 29.159 34.2268 29.0951 34.2268 28.9721C34.2268 28.8693 34.355 28.7852 34.5118 28.7852C34.9646 28.7852 35.6675 27.95 35.7922 27.264C35.9041 26.6474 35.6846 24.084 35.3141 21.6823C35.211 21.0141 35.0836 19.9207 35.0308 19.2524C34.9779 18.5842 34.8585 17.9577 34.7652 17.8599C34.6721 17.7623 34.5957 17.0733 34.5957 16.3289C34.5957 15.5844 34.5127 14.9234 34.4113 14.8599C34.3098 14.7963 34.2268 14.1655 34.2268 13.458C34.2268 12.7505 34.1438 12.1197 34.0424 12.0561C33.9409 11.9926 33.858 11.7292 33.858 11.4711C33.858 11.2128 33.7353 10.8771 33.5854 10.7251C33.4354 10.5731 33.2449 10.3258 33.1619 10.1756C33.0789 10.0253 32.5595 9.735 32.0077 9.53051C31.0499 9.17574 30.5281 9.15911 20.4886 9.16172C14.0179 9.16359 9.86658 9.23443 9.69634 9.34584ZM9.4704 10.9457C8.60372 11.4223 8.30824 12.3967 8.09946 15.4674C8.04874 16.2126 7.93088 16.8225 7.83737 16.8225C7.74386 16.8225 7.6675 17.4365 7.6675 18.187C7.6675 18.9375 7.59077 19.6315 7.49689 19.7291C7.40301 19.8268 7.27852 20.5586 7.22023 21.3552C6.94302 25.1412 6.88935 25.6076 6.73073 25.6076C6.63722 25.6076 6.56086 25.902 6.56086 26.2618C6.56086 26.6216 6.64386 26.916 6.7453 26.916C6.84674 26.916 6.92974 27.0842 6.92974 27.2898C6.92974 27.6566 7.05276 27.6637 13.3851 27.6637H19.8405V19.2724C19.8405 11.7931 19.8088 10.8688 19.5487 10.7677C19.3883 10.7053 17.1682 10.6576 14.615 10.6617C10.8786 10.6677 9.87488 10.7232 9.4704 10.9457ZM21.316 19.159V27.6637H27.5538H33.7914L34.211 27.1747C34.5227 26.8113 34.5988 26.5592 34.507 26.1934C34.3194 25.4454 34.0601 23.6145 33.928 22.1029C33.8627 21.3575 33.7436 20.7478 33.6634 20.7478C33.583 20.7478 33.4704 20.0958 33.4133 19.2992C33.1392 15.4818 33.0794 14.9533 32.9212 14.9533C32.8277 14.9533 32.7513 14.3634 32.7513 13.6423C32.7513 12.0778 32.4356 11.3701 31.5146 10.8707C31.2411 10.7223 29.5753 10.6543 26.2159 10.6543H21.316V19.159ZM5.4817 39.8714C4.54844 40.3772 3.61794 41.6735 3.5912 42.5049C3.55431 43.6494 3.64985 44.3959 3.89239 44.8576C5.17627 47.3021 8.37925 47.6445 10.2085 45.5331C10.8603 44.7808 11.1007 43.6596 10.9002 42.3054C10.5676 40.0581 7.59815 38.7241 5.4817 39.8714ZM32.3824 39.6858C30.7658 40.5417 30.0854 41.5787 30.0917 43.1778C30.1004 45.3621 31.6792 46.9161 33.8897 46.9161C35.9074 46.9161 37.5467 45.2066 37.5467 43.1024C37.5467 42.6432 37.4669 42.0546 37.3691 41.7942C37.0908 41.0521 36.2324 40.1677 35.4257 39.7916C34.5638 39.3897 33.0416 39.3368 32.3824 39.6858ZM6.11728 41.2202C5.3111 41.6464 5.0977 42.049 5.09125 43.1557C5.0859 44.0705 5.14492 44.2187 5.74398 44.7912C6.30504 45.3275 6.53504 45.4208 7.29585 45.4208C8.06626 45.4208 8.28003 45.3312 8.8505 44.7699C9.42816 44.2013 9.5119 44.0054 9.5119 43.2226C9.5119 42.7129 9.38777 42.1467 9.22399 41.9099C8.58785 40.9893 7.15568 40.6714 6.11728 41.2202ZM32.6261 41.2363C31.679 41.7097 31.204 43.0709 31.6672 43.9845C32.1615 44.9595 32.7902 45.4208 33.625 45.4208C35.1523 45.4208 36.0712 44.5271 36.0712 43.0417C36.0712 42.1652 35.7287 41.6394 34.8969 41.2394C34.1058 40.8591 33.383 40.8579 32.6261 41.2363ZM12.5404 53.2273C12.4308 53.3029 12.2237 53.638 12.0804 53.9722C11.9369 54.3064 11.7569 54.5797 11.6802 54.5797C11.6034 54.5797 11.5407 54.6638 11.5407 54.7666C11.5407 54.8887 14.6454 54.9535 20.4861 54.9535C25.406 54.9535 29.4314 54.9074 29.4314 54.8507C29.4314 54.6051 28.7954 53.5316 28.5269 53.324C28.3065 53.1535 26.2873 53.0954 20.4861 53.0931C16.2255 53.0915 12.65 53.1518 12.5404 53.2273ZM10.4003 57.2361C10.1283 57.6676 9.94644 58.0876 9.99624 58.1694C10.1338 58.3948 31.0458 58.3571 31.1836 58.1311C31.2463 58.0283 31.2304 57.9433 31.1483 57.9421C31.0663 57.9408 30.8405 57.6044 30.6467 57.1945L30.2942 56.4489L20.5947 56.4502L10.8952 56.4515L10.4003 57.2361Z" fill="#058FA2"/>
<ellipse cx="7.06675" cy="43" rx="3.98082" ry="4" fill="#F9BF02"/>
<ellipse cx="33.9457" cy="43" rx="3.98082" ry="4" fill="#F9BF02"/>
<path d="M9.05859 59H31.9483" stroke="#FDC114" stroke-width="2"/>
</svg>
