<svg width="156" height="130" viewBox="0 0 156 130" fill="none" xmlns="http://www.w3.org/2000/svg">
<mask id="path-1-inside-1_2674_5384" fill="white">
<path fill-rule="evenodd" clip-rule="evenodd" d="M54.559 0.293956C51.6333 1.14756 49.2996 3.18984 47.9792 6.05169C47.3397 7.4376 47.2372 8.06979 47.1489 11.1711L47.0481 14.7095L44.3594 15.3606C38.3702 16.8106 33.1088 18.9587 27.9711 22.0507C23.9371 24.4787 20.9916 26.8012 17.2041 30.5403C4.52482 43.0591 -1.52224 60.2102 0.326803 78.4104C1.85807 93.4849 9.66087 107.828 21.4784 117.293C24.6546 119.837 25.306 120.294 28.2778 122.072C42.8245 130.773 61.1099 132.421 77.1163 126.475C91.3196 121.199 103.286 109.94 109.536 95.9754C110.667 93.4472 112.274 88.9707 112.274 88.3464C112.274 88.0105 111.79 87.9511 109.585 88.0172L106.896 88.0977L105.979 90.5994C104.138 95.6251 101.643 100.048 98.0134 104.724L95.9805 107.342L93.6132 105.004C90.8005 102.227 90.1273 101.743 89.0737 101.743C87.9312 101.743 86.6504 103.111 86.6504 104.332C86.6504 105.497 86.8726 105.815 89.6864 108.687C90.9272 109.953 91.939 111.093 91.9354 111.219C91.9265 111.538 88.5117 114.214 85.5965 116.187C82.9462 117.98 78.009 120.521 75.3706 121.45C70.5827 123.136 64.2491 124.532 61.3851 124.532H59.9132V120.775C59.9132 117.177 59.8842 116.986 59.2303 116.273C58.1686 115.116 56.5128 115.167 55.3873 116.392C54.6326 117.214 54.6214 117.28 54.6214 120.921V124.615L52.1844 124.442C43.5124 123.825 33.7962 119.989 26.1045 114.144C21.9692 111.002 22.0558 111.475 25.052 108.388C27.3035 106.069 27.6057 105.639 27.6057 104.758C27.6057 103.369 27.3821 102.911 26.4716 102.436C24.7897 101.557 24.1697 101.819 21.2943 104.627L18.6287 107.229L17.3988 105.822C14.4761 102.479 10.6922 96.0668 8.84845 91.3332C6.99383 86.5714 5.66839 80.8139 5.54223 76.9722L5.46397 74.5931L9.25202 74.5152C12.8969 74.4401 13.0651 74.4102 13.7021 73.7254C14.6752 72.6791 14.622 70.9595 13.5887 70.0618C12.8571 69.4262 12.61 69.3882 9.19965 69.3882C6.24742 69.3882 5.55643 69.3111 5.42581 68.967C5.17933 68.318 5.84664 63.0987 6.57718 59.9631C7.87254 54.4043 10.5978 47.9109 13.5612 43.3235C15.1414 40.8772 18.1811 37.0335 18.5354 37.0335C18.7056 37.0335 19.9043 38.1093 21.1991 39.4241C22.861 41.1116 23.8143 41.8642 24.4413 41.9829C26.2725 42.3298 27.6057 41.2725 27.6057 39.473C27.6057 38.4464 27.401 38.151 24.9317 35.6121L22.2577 32.8628L25.0821 30.5898C29.6043 26.9506 35.5107 23.696 40.93 21.8574C44.6192 20.606 51.0701 19.3346 53.8344 19.3143L54.5794 19.3087L54.6699 23.2405C54.7543 26.8935 54.8058 27.2176 55.3951 27.8124C55.8697 28.2912 56.3499 28.4524 57.3016 28.4524C58.3805 28.4524 58.6749 28.3244 59.242 27.6084C59.8717 26.8133 59.9104 26.5486 59.9118 23.0365L59.9132 19.3087L60.6791 19.3143C63.604 19.3351 69.8444 20.5897 74.1173 22.0158C77.2486 23.0607 84.2415 26.6785 86.9729 28.6665C90.0878 30.9336 91.9421 32.5117 91.9421 32.8952C91.9421 33.0631 90.823 34.3531 89.4553 35.7621C88.0875 37.1708 86.884 38.6639 86.7807 39.0797C86.5161 40.1446 87.4049 41.5907 88.5231 41.9148C89.9496 42.3281 90.7807 41.9061 93.0651 39.6078C94.2568 38.4087 95.4193 37.2704 95.6486 37.0782C95.9992 36.7842 96.3281 37.054 97.7246 38.7803C101.605 43.5779 104.741 49.3753 106.711 55.3913L107.609 58.1344H110.325H113.041L112.389 55.8133C106.755 35.7382 90.6707 20.326 70.1697 15.3594L67.4753 14.7067L67.3845 11.1697C67.3041 8.03152 67.2096 7.45167 66.5473 6.02412C65.5132 3.7953 63.6037 1.81885 61.6129 0.916292C59.5959 0.00191849 56.4969 -0.271549 54.559 0.293956ZM55.0392 51.9845C49.1993 52.5398 45.7121 55.3797 43.7168 61.2047C42.0934 65.944 41.6157 74.5599 42.637 80.6724C44.3368 90.8428 48.3875 94.6896 57.4127 94.7045C66.378 94.7192 71.6107 89.5365 71.6107 80.642C71.6107 72.4709 67.0467 67.4059 59.667 67.387C56.1864 67.3783 53.3261 68.4457 51.5578 70.4134L50.583 71.4983L50.4925 70.6984C50.4426 70.2584 50.5997 68.6125 50.8417 67.041C51.7271 61.2919 53.9185 59.0378 57.8825 59.7991C59.5675 60.1224 60.3521 60.7487 61.0796 62.3506L61.7202 63.7613H66.1084C69.1278 63.7613 70.4966 63.6642 70.4966 63.4501C70.4966 63.2791 70.2995 62.3703 70.0583 61.4306C68.2942 54.5534 63.0055 51.2271 55.0392 51.9845ZM91.6636 72.061V80.3863L93.5436 80.3033L95.4235 80.22L95.5021 76.9142L95.5803 73.6084H98.6264H101.673L101.751 76.9142L101.829 80.22L103.709 80.3033L105.589 80.3863V72.061V63.7357L103.709 63.8187L101.829 63.902L101.751 67.2174L101.672 70.5324L98.6871 70.4528L95.702 70.3729L95.5628 67.1375L95.4235 63.902L93.5436 63.8187L91.6636 63.7357V72.061ZM110.955 67.6036C109.485 68.1295 107.653 70.1675 107.229 71.7487C106.819 73.2801 107.064 76.1281 107.693 77.1505C109.032 79.3242 111.286 80.642 113.666 80.642C115.245 80.642 117.591 79.6663 118.639 78.5742C120.133 77.0169 120.734 74.0296 120.052 71.5487C119.661 70.127 118.002 68.3115 116.5 67.661C115.046 67.0311 112.626 67.0061 110.955 67.6036ZM121.689 70.6385C121.521 77.3165 122.036 78.9666 124.639 80.0996C126.298 80.8218 127.902 80.6676 129.397 79.6427C130.639 78.7913 130.655 78.7916 130.655 79.6703C130.655 80.375 130.685 80.3852 132.535 80.3033L134.415 80.22V73.7592V67.2984L132.535 67.1934L130.655 67.0885V71.3548V75.6211L129.841 76.4435C128.979 77.3146 127.755 77.5247 126.741 76.9761C125.624 76.3723 125.364 75.265 125.364 71.1132V67.1833L123.569 67.2151L121.774 67.2466L121.689 70.6385ZM136.619 67.5215C136.55 67.7044 136.527 70.6365 136.568 74.0372L136.643 80.22L138.523 80.3033L140.403 80.3863V76.7316C140.403 73.2967 140.443 73.0308 141.061 72.3049C141.555 71.7248 142.057 71.4935 143.08 71.3748L144.442 71.217L144.526 69.4169C144.572 68.4266 144.489 67.495 144.343 67.3468C143.952 66.9526 142.283 67.5806 141.51 68.4117C140.658 69.3274 140.456 69.2892 140.351 68.1925L140.264 67.2781L138.505 67.2334C137.371 67.2047 136.701 67.3071 136.619 67.5215ZM147.72 67.69C146.25 68.3641 145.419 69.6727 145.418 71.3154C145.416 73.0837 146.587 74.1899 149.176 74.8677C150.249 75.1482 151.408 75.5522 151.753 75.7655C152.93 76.4942 152.272 77.8286 150.736 77.8286C150.425 77.8286 149.742 77.4488 149.219 76.9846C148.411 76.2674 148.039 76.1405 146.749 76.1405C145.914 76.1405 145.158 76.2145 145.068 76.3051C144.756 76.6205 145.448 78.0297 146.334 78.8839C148.166 80.6488 151.255 81.0998 153.684 79.9573C155.341 79.1782 156 78.1749 156 76.4317C156 74.6145 154.775 73.508 151.83 72.6636C149.34 71.9499 148.682 71.4285 149.206 70.5839C149.708 69.7737 151.142 69.8012 151.97 70.6368C152.577 71.2507 152.932 71.3576 154.36 71.3576C156.191 71.3576 156.146 71.433 155.438 69.5289C154.658 67.4329 150.461 66.433 147.72 67.69ZM112.358 70.8504C110.822 71.5999 110.434 74.902 111.719 76.284C113.503 78.2019 116.451 76.7246 116.451 73.9128C116.451 72.4332 115.961 71.4069 115.018 70.9145C114.128 70.4494 113.224 70.4278 112.358 70.8504ZM54.7607 75.3533C52.5482 76.1309 51.0899 78.7069 51.3609 81.3595C51.5494 83.204 52.1619 84.3592 53.5542 85.4961C54.378 86.1685 54.9231 86.3581 56.3685 86.4755C58.6083 86.6569 59.924 86.238 61.164 84.9483C62.9498 83.0909 63.1403 79.1923 61.555 76.9432C60.3841 75.2821 57.13 74.5205 54.7607 75.3533Z"/>
</mask>
<path fill-rule="evenodd" clip-rule="evenodd" d="M54.559 0.293956C51.6333 1.14756 49.2996 3.18984 47.9792 6.05169C47.3397 7.4376 47.2372 8.06979 47.1489 11.1711L47.0481 14.7095L44.3594 15.3606C38.3702 16.8106 33.1088 18.9587 27.9711 22.0507C23.9371 24.4787 20.9916 26.8012 17.2041 30.5403C4.52482 43.0591 -1.52224 60.2102 0.326803 78.4104C1.85807 93.4849 9.66087 107.828 21.4784 117.293C24.6546 119.837 25.306 120.294 28.2778 122.072C42.8245 130.773 61.1099 132.421 77.1163 126.475C91.3196 121.199 103.286 109.94 109.536 95.9754C110.667 93.4472 112.274 88.9707 112.274 88.3464C112.274 88.0105 111.79 87.9511 109.585 88.0172L106.896 88.0977L105.979 90.5994C104.138 95.6251 101.643 100.048 98.0134 104.724L95.9805 107.342L93.6132 105.004C90.8005 102.227 90.1273 101.743 89.0737 101.743C87.9312 101.743 86.6504 103.111 86.6504 104.332C86.6504 105.497 86.8726 105.815 89.6864 108.687C90.9272 109.953 91.939 111.093 91.9354 111.219C91.9265 111.538 88.5117 114.214 85.5965 116.187C82.9462 117.98 78.009 120.521 75.3706 121.45C70.5827 123.136 64.2491 124.532 61.3851 124.532H59.9132V120.775C59.9132 117.177 59.8842 116.986 59.2303 116.273C58.1686 115.116 56.5128 115.167 55.3873 116.392C54.6326 117.214 54.6214 117.28 54.6214 120.921V124.615L52.1844 124.442C43.5124 123.825 33.7962 119.989 26.1045 114.144C21.9692 111.002 22.0558 111.475 25.052 108.388C27.3035 106.069 27.6057 105.639 27.6057 104.758C27.6057 103.369 27.3821 102.911 26.4716 102.436C24.7897 101.557 24.1697 101.819 21.2943 104.627L18.6287 107.229L17.3988 105.822C14.4761 102.479 10.6922 96.0668 8.84845 91.3332C6.99383 86.5714 5.66839 80.8139 5.54223 76.9722L5.46397 74.5931L9.25202 74.5152C12.8969 74.4401 13.0651 74.4102 13.7021 73.7254C14.6752 72.6791 14.622 70.9595 13.5887 70.0618C12.8571 69.4262 12.61 69.3882 9.19965 69.3882C6.24742 69.3882 5.55643 69.3111 5.42581 68.967C5.17933 68.318 5.84664 63.0987 6.57718 59.9631C7.87254 54.4043 10.5978 47.9109 13.5612 43.3235C15.1414 40.8772 18.1811 37.0335 18.5354 37.0335C18.7056 37.0335 19.9043 38.1093 21.1991 39.4241C22.861 41.1116 23.8143 41.8642 24.4413 41.9829C26.2725 42.3298 27.6057 41.2725 27.6057 39.473C27.6057 38.4464 27.401 38.151 24.9317 35.6121L22.2577 32.8628L25.0821 30.5898C29.6043 26.9506 35.5107 23.696 40.93 21.8574C44.6192 20.606 51.0701 19.3346 53.8344 19.3143L54.5794 19.3087L54.6699 23.2405C54.7543 26.8935 54.8058 27.2176 55.3951 27.8124C55.8697 28.2912 56.3499 28.4524 57.3016 28.4524C58.3805 28.4524 58.6749 28.3244 59.242 27.6084C59.8717 26.8133 59.9104 26.5486 59.9118 23.0365L59.9132 19.3087L60.6791 19.3143C63.604 19.3351 69.8444 20.5897 74.1173 22.0158C77.2486 23.0607 84.2415 26.6785 86.9729 28.6665C90.0878 30.9336 91.9421 32.5117 91.9421 32.8952C91.9421 33.0631 90.823 34.3531 89.4553 35.7621C88.0875 37.1708 86.884 38.6639 86.7807 39.0797C86.5161 40.1446 87.4049 41.5907 88.5231 41.9148C89.9496 42.3281 90.7807 41.9061 93.0651 39.6078C94.2568 38.4087 95.4193 37.2704 95.6486 37.0782C95.9992 36.7842 96.3281 37.054 97.7246 38.7803C101.605 43.5779 104.741 49.3753 106.711 55.3913L107.609 58.1344H110.325H113.041L112.389 55.8133C106.755 35.7382 90.6707 20.326 70.1697 15.3594L67.4753 14.7067L67.3845 11.1697C67.3041 8.03152 67.2096 7.45167 66.5473 6.02412C65.5132 3.7953 63.6037 1.81885 61.6129 0.916292C59.5959 0.00191849 56.4969 -0.271549 54.559 0.293956ZM55.0392 51.9845C49.1993 52.5398 45.7121 55.3797 43.7168 61.2047C42.0934 65.944 41.6157 74.5599 42.637 80.6724C44.3368 90.8428 48.3875 94.6896 57.4127 94.7045C66.378 94.7192 71.6107 89.5365 71.6107 80.642C71.6107 72.4709 67.0467 67.4059 59.667 67.387C56.1864 67.3783 53.3261 68.4457 51.5578 70.4134L50.583 71.4983L50.4925 70.6984C50.4426 70.2584 50.5997 68.6125 50.8417 67.041C51.7271 61.2919 53.9185 59.0378 57.8825 59.7991C59.5675 60.1224 60.3521 60.7487 61.0796 62.3506L61.7202 63.7613H66.1084C69.1278 63.7613 70.4966 63.6642 70.4966 63.4501C70.4966 63.2791 70.2995 62.3703 70.0583 61.4306C68.2942 54.5534 63.0055 51.2271 55.0392 51.9845ZM91.6636 72.061V80.3863L93.5436 80.3033L95.4235 80.22L95.5021 76.9142L95.5803 73.6084H98.6264H101.673L101.751 76.9142L101.829 80.22L103.709 80.3033L105.589 80.3863V72.061V63.7357L103.709 63.8187L101.829 63.902L101.751 67.2174L101.672 70.5324L98.6871 70.4528L95.702 70.3729L95.5628 67.1375L95.4235 63.902L93.5436 63.8187L91.6636 63.7357V72.061ZM110.955 67.6036C109.485 68.1295 107.653 70.1675 107.229 71.7487C106.819 73.2801 107.064 76.1281 107.693 77.1505C109.032 79.3242 111.286 80.642 113.666 80.642C115.245 80.642 117.591 79.6663 118.639 78.5742C120.133 77.0169 120.734 74.0296 120.052 71.5487C119.661 70.127 118.002 68.3115 116.5 67.661C115.046 67.0311 112.626 67.0061 110.955 67.6036ZM121.689 70.6385C121.521 77.3165 122.036 78.9666 124.639 80.0996C126.298 80.8218 127.902 80.6676 129.397 79.6427C130.639 78.7913 130.655 78.7916 130.655 79.6703C130.655 80.375 130.685 80.3852 132.535 80.3033L134.415 80.22V73.7592V67.2984L132.535 67.1934L130.655 67.0885V71.3548V75.6211L129.841 76.4435C128.979 77.3146 127.755 77.5247 126.741 76.9761C125.624 76.3723 125.364 75.265 125.364 71.1132V67.1833L123.569 67.2151L121.774 67.2466L121.689 70.6385ZM136.619 67.5215C136.55 67.7044 136.527 70.6365 136.568 74.0372L136.643 80.22L138.523 80.3033L140.403 80.3863V76.7316C140.403 73.2967 140.443 73.0308 141.061 72.3049C141.555 71.7248 142.057 71.4935 143.08 71.3748L144.442 71.217L144.526 69.4169C144.572 68.4266 144.489 67.495 144.343 67.3468C143.952 66.9526 142.283 67.5806 141.51 68.4117C140.658 69.3274 140.456 69.2892 140.351 68.1925L140.264 67.2781L138.505 67.2334C137.371 67.2047 136.701 67.3071 136.619 67.5215ZM147.72 67.69C146.25 68.3641 145.419 69.6727 145.418 71.3154C145.416 73.0837 146.587 74.1899 149.176 74.8677C150.249 75.1482 151.408 75.5522 151.753 75.7655C152.93 76.4942 152.272 77.8286 150.736 77.8286C150.425 77.8286 149.742 77.4488 149.219 76.9846C148.411 76.2674 148.039 76.1405 146.749 76.1405C145.914 76.1405 145.158 76.2145 145.068 76.3051C144.756 76.6205 145.448 78.0297 146.334 78.8839C148.166 80.6488 151.255 81.0998 153.684 79.9573C155.341 79.1782 156 78.1749 156 76.4317C156 74.6145 154.775 73.508 151.83 72.6636C149.34 71.9499 148.682 71.4285 149.206 70.5839C149.708 69.7737 151.142 69.8012 151.97 70.6368C152.577 71.2507 152.932 71.3576 154.36 71.3576C156.191 71.3576 156.146 71.433 155.438 69.5289C154.658 67.4329 150.461 66.433 147.72 67.69ZM112.358 70.8504C110.822 71.5999 110.434 74.902 111.719 76.284C113.503 78.2019 116.451 76.7246 116.451 73.9128C116.451 72.4332 115.961 71.4069 115.018 70.9145C114.128 70.4494 113.224 70.4278 112.358 70.8504ZM54.7607 75.3533C52.5482 76.1309 51.0899 78.7069 51.3609 81.3595C51.5494 83.204 52.1619 84.3592 53.5542 85.4961C54.378 86.1685 54.9231 86.3581 56.3685 86.4755C58.6083 86.6569 59.924 86.238 61.164 84.9483C62.9498 83.0909 63.1403 79.1923 61.555 76.9432C60.3841 75.2821 57.13 74.5205 54.7607 75.3533Z" fill="#058FA2" stroke="white" mask="url(#path-1-inside-1_2674_5384)"/>
<rect x="36" y="47" width="38" height="52" fill="white"/>
<circle cx="57" cy="9" r="5" fill="#FDD304"/>
<path d="M71.7715 80.6279C71.7715 82.9053 71.374 85.0322 70.5791 87.0088C69.7842 88.9854 68.6777 90.7041 67.2598 92.165C65.8418 93.6045 64.1553 94.7432 62.2002 95.5811C60.2451 96.3975 58.1074 96.8057 55.7871 96.8057C53.1875 96.8057 50.8564 96.3223 48.7939 95.3555C46.7529 94.3887 45.0234 92.9922 43.6055 91.166C42.1875 89.3184 41.1025 87.0625 40.3506 84.3984C39.5986 81.7344 39.2227 78.7158 39.2227 75.3428C39.2227 71.3682 39.7061 67.7695 40.6729 64.5469C41.6611 61.3027 43.0576 58.5312 44.8623 56.2324C46.6885 53.9336 48.8906 52.1611 51.4688 50.915C54.0469 49.6475 56.9473 49.0137 60.1699 49.0137C63.7363 49.0137 66.5078 49.4326 68.4844 50.2705V58.7783C66.1426 57.4463 63.5859 56.7803 60.8145 56.7803C59.0957 56.7803 57.5381 57.1133 56.1416 57.7793C54.7451 58.4453 53.542 59.3906 52.5322 60.6152C51.5439 61.8398 50.7598 63.3223 50.1797 65.0625C49.6211 66.7812 49.3203 68.7041 49.2773 70.8311H49.4707C51.6621 67.8018 54.8955 66.2871 59.1709 66.2871C61.083 66.2871 62.8125 66.6309 64.3594 67.3184C65.9062 68.0059 67.2275 68.9834 68.3232 70.251C69.4189 71.4971 70.2676 73.001 70.8691 74.7627C71.4707 76.5244 71.7715 78.4795 71.7715 80.6279ZM61.8135 81.2725C61.8135 76.3096 59.7832 73.8281 55.7227 73.8281C54.7988 73.8281 53.9609 74 53.209 74.3438C52.457 74.6875 51.8125 75.1709 51.2754 75.7939C50.7383 76.417 50.3193 77.1582 50.0186 78.0176C49.7393 78.8555 49.5996 79.79 49.5996 80.8213C49.5996 81.96 49.75 83.0234 50.0508 84.0117C50.3516 85 50.7705 85.8701 51.3076 86.6221C51.8662 87.3525 52.5215 87.9326 53.2734 88.3623C54.0254 88.792 54.8633 89.0068 55.7871 89.0068C56.7109 89.0068 57.5381 88.8242 58.2686 88.459C59.0205 88.0723 59.6543 87.5459 60.1699 86.8799C60.707 86.1924 61.1152 85.376 61.3945 84.4307C61.6738 83.4639 61.8135 82.4111 61.8135 81.2725Z" fill="#FDD304"/>
</svg>
