<svg width="114" height="126" viewBox="0 0 114 126" fill="none" xmlns="http://www.w3.org/2000/svg">
<path fill-rule="evenodd" clip-rule="evenodd" d="M60.8035 0.894481C55.5432 3.31172 52.3768 8.18586 52.3775 13.8633C52.3775 18.3834 53.39 21.2412 55.9645 23.9866C61.9507 30.3729 71.733 30.1429 77.6064 23.4775C83.2814 17.0378 81.9504 7.29886 74.7128 2.30069C71.3162 -0.0444333 64.3731 -0.746096 60.8035 0.894481ZM61.9036 4.78716C54.7514 8.36686 54.0146 18.4346 60.5654 23.0823C63.818 25.3899 69.3555 25.4065 72.5755 23.1176C83.2561 15.5277 73.5953 -1.06628 61.9036 4.78716ZM29.6818 31.7756C22.4203 32.2537 19.2415 32.7455 18.4635 33.5113C17.6268 34.3349 17.3778 36.4348 17.3778 42.669V50.7579L19.3682 50.9858L21.3585 51.2144V43.6807V36.1471L29.1389 35.687C33.4178 35.4339 39.1175 35.0372 41.8048 34.8065L46.6902 34.3861V42.7526V51.1185H48.4996C50.2699 51.1185 50.309 51.001 50.309 45.6703V40.2215L54.4706 38.2787C58.1994 36.5372 59.4602 36.3353 66.5936 36.3353C73.9919 36.3353 74.8619 36.4882 78.8976 38.4987C83.7634 40.9231 86.0548 43.7449 86.7685 48.1943C87.1376 50.4926 87.5508 51.1185 88.6995 51.1185C90.8107 51.1185 91.1154 49.5479 89.8481 45.2045C88.512 40.6246 84.9033 36.8083 79.6213 34.3875C76.4252 32.9236 74.9038 32.7318 66.5936 32.7491C58.7176 32.7649 56.6571 33.0065 53.9473 34.2296L50.7099 35.6913L49.6048 33.4897C48.5662 31.42 48.2376 31.2816 44.157 31.1972C41.7686 31.1482 35.2547 31.4085 29.6818 31.7756ZM71.7273 47.2381C70.9941 49.1404 72.2129 49.7844 76.0821 49.5392C79.064 49.351 79.6213 49.0885 79.6213 47.8734C79.6213 46.6468 79.0669 46.3987 75.912 46.2162C72.9482 46.0446 72.108 46.2501 71.7273 47.2381ZM15.0386 57.6087C14.0008 58.8166 12.9035 59.051 8.28231 59.051C-0.565678 59.051 0.00754239 56.9489 0.00754239 89.3883C0.00754239 114.618 0.105251 116.788 1.29801 117.978C2.24397 118.922 4.27122 119.393 8.89751 119.744C12.3672 120.007 18.2268 121.051 21.918 122.065C33.792 125.325 43.7901 126.315 60.8035 125.917C73.4158 125.622 77.6585 125.231 85.7313 123.622C91.0821 122.556 96.3583 121.221 97.4563 120.655C98.6714 120.029 101.605 119.626 104.95 119.626C109.821 119.626 110.649 119.425 112.223 117.856L114 116.086V89.4683C114 63.6323 113.956 62.7951 112.5 60.9511C111.125 59.2096 110.561 59.051 105.736 59.051C101.392 59.051 100.244 58.7993 99.1629 57.6087C97.8826 56.1989 96.9337 56.1664 57.0653 56.1664C17.1737 56.1664 16.2509 56.1982 15.0386 57.6087ZM17.7397 88.5835V117.395L20.4538 118.159C21.9469 118.58 26.9134 119.645 31.4912 120.527C38.6579 121.907 42.1775 122.128 56.8228 122.113C71.4978 122.099 75.0725 121.867 82.8783 120.421C87.8541 119.498 92.9841 118.31 94.2775 117.78L96.6297 116.815V88.2936V59.7721H57.1847H17.7397V88.5835ZM4.16049 89.1583L4.35011 115.66L8.87362 115.875L13.3971 116.089V89.3732V62.6566H8.684H3.97014L4.16049 89.1583ZM100.249 89.3385V116.086L105.134 115.873L110.019 115.66V89.3385V63.0172L105.134 62.8037L100.249 62.591V89.3385ZM52.2646 74.9382C43.0156 76.5074 36.5575 82.8729 36.5575 90.4202C36.5575 98.264 42.9997 104.343 53.0144 105.95C63.7232 107.668 74.8387 101.989 77.0932 93.6459C80.1135 82.4719 66.8339 72.4669 52.2646 74.9382ZM50.1382 79.2398C38.7961 82.6421 36.75 94.2401 46.4875 99.9262C49.0728 101.436 51.0009 101.918 55.4839 102.177C64.5461 102.699 70.7248 99.6212 73.1118 93.3949C74.2134 90.5205 74.2148 90.0662 73.1357 87.4924C71.5224 83.6452 70.0735 82.1964 65.8699 80.2292C62.0658 78.4487 54.3845 77.9656 50.1382 79.2398Z" fill="#058FA2"/>
<rect x="69" y="45" width="12" height="5" fill="#FDD304"/>
<circle cx="66.5" cy="14.5" r="14.5" fill="#FDD304"/>
</svg>
