<svg width="124" height="121" viewBox="0 0 124 121" fill="none" xmlns="http://www.w3.org/2000/svg">
<path fill-rule="evenodd" clip-rule="evenodd" d="M17.4601 0.547093C16.7915 1.36049 16.8518 2.09564 18.1714 9.25131C18.7541 12.4112 19.001 16.1811 19.0233 22.2465L19.0543 30.79L16.6008 32.9575C14.1074 35.1606 11.329 38.9741 9.87956 42.1827C9.43878 43.1582 7.06273 53.3843 4.59898 64.9073C-1.21936 92.121 -1.32097 94.9604 3.18847 104.367C4.70198 107.524 5.87029 109.127 8.82818 112.104C12.9219 116.225 16.1104 118.171 21.6062 119.903L25.0861 121H70.3244H115.563L117.425 119.993C122.662 117.16 125.023 111.869 123.465 106.456C122.6 103.451 119.89 100.135 117.523 99.1835C116.7 98.8527 115.951 98.5252 115.859 98.4549C115.767 98.3851 116.761 97.2315 118.067 95.8914C121.197 92.68 123.086 88.7231 123.751 83.9847C124.275 80.2424 124.27 80.2077 120.703 62.4315C116.645 42.2038 115.883 39.9604 111.409 35.0463L108.793 32.1722L109.032 29.4973C109.163 28.0256 109.387 25.2405 109.528 23.3077C109.669 21.375 110.184 17.8267 110.673 15.4226C111.588 10.9207 111.55 9.97334 110.436 9.54134C110.08 9.40359 107.042 9.69783 103.685 10.195C100.329 10.6926 94.5493 11.2445 90.8421 11.4212L84.1019 11.743L84.3659 9.91149C84.5106 8.90411 84.8985 6.54919 85.2279 4.67875C85.7527 1.69457 85.7379 1.18807 85.1059 0.550373C84.4559 -0.106531 84.0086 -0.106532 80.487 0.547561C65.0865 3.40758 34.2897 3.1794 19.4923 0.0949443C18.4864 -0.114497 17.8958 0.0166969 17.4601 0.547093ZM21.7686 6.269C23.1847 14.7933 23.3258 29.5872 22.0549 36.3339C21.7492 37.9574 21.5942 39.3822 21.7106 39.4998C21.8271 39.6174 24.618 39.4108 27.9122 39.0402C31.2065 38.6696 36.3804 38.224 39.4102 38.0497L44.9181 37.7334L44.6847 29.4663C44.5191 23.5922 44.1493 19.662 43.4083 15.8883C41.9969 8.70123 41.7556 8.90412 50.1801 10.1968C54.8097 10.9067 59.9377 11.2633 68.3014 11.4568L79.9655 11.7257L80.2313 10.3716C80.3775 9.62661 80.6364 7.99279 80.8067 6.74036C81.0897 4.66235 81.0405 4.48618 80.2443 4.71623C73.1844 6.75535 29.2165 6.75816 22.3491 4.71998C21.5575 4.48477 21.4981 4.64314 21.7686 6.269ZM47.2918 15.1644C48.4318 20.9271 48.6662 23.6582 48.6745 31.2731C48.6815 37.4438 48.4564 41.2091 47.8932 44.3418C47.4584 46.7623 47.1721 48.8127 47.257 48.8984C47.3419 48.9846 48.6522 48.8595 50.1685 48.6206C62.2135 46.7239 93.1398 46.7431 103.895 48.6543C105.389 48.9195 106.669 49.0709 106.739 48.9903C106.809 48.9097 106.544 47.1568 106.151 45.0952C105.145 39.8189 105.149 22.5506 106.159 17.6852C106.559 15.7524 106.837 14.1167 106.775 14.0506C106.713 13.9841 103.863 14.2845 100.441 14.7183C95.6606 15.3242 90.2965 15.5111 77.2841 15.5247C61.7676 15.5406 57.4331 15.3232 49.0471 14.1083L47.025 13.8154L47.2918 15.1644ZM16.1308 39.5898C13.9765 42.6775 13.0435 45.6078 10.6697 56.748C9.28984 63.2238 8.15819 68.8028 8.15587 69.1458C8.15308 69.4883 9.32557 68.7119 10.7611 67.4197C12.1967 66.1274 14.859 64.3427 16.6769 63.4539C23.2014 60.2635 22.26 60.323 66.2585 60.323C110.102 60.323 108.97 60.2509 113.939 63.3508C115.342 64.2265 116.544 64.7939 116.611 64.6117C116.677 64.4299 115.895 60.0916 114.874 54.9713C113.14 46.2788 111.862 42.2713 110.08 39.9412C109.409 39.0645 109.379 39.14 109.609 41.1126C109.744 42.2722 110.238 45.1889 110.708 47.5935C111.935 53.8866 111.779 54.0651 105.951 53.0568C89.8803 50.2764 56.9761 50.551 45.061 53.5642C44.5376 53.6968 43.7118 53.5113 43.2264 53.1524C42.3657 52.5161 42.3639 52.3863 43.154 48.0944C43.6004 45.672 44.0639 43.3208 44.1845 42.8696C44.379 42.1424 44.0189 42.0506 41.0086 42.0595C36.8388 42.0712 24.9028 43.214 21.1376 43.9623C17.3849 44.7077 16.7516 44.2017 17.1502 40.7771C17.3088 39.4155 17.3464 38.3013 17.2341 38.3013C17.1214 38.3013 16.6249 38.8809 16.1308 39.5898ZM25.0861 65.0113C19.9985 66.0492 15.4237 68.5428 11.6928 72.3104C5.62067 78.4423 2.92308 87.2819 4.62775 95.4641C6.98431 106.775 15.5926 114.867 27.0478 116.54C31.4144 117.178 112.223 117.168 114.5 116.53C118.169 115.5 120.504 111.387 119.518 107.689C118.931 105.488 116.53 103.211 114.067 102.52C112.903 102.194 98.0139 102.028 69.7295 102.027C23.123 102.023 25.7181 102.178 22.357 99.1985C19.7499 96.8867 18.6553 94.3968 18.6553 90.7787C18.6553 87.2767 19.6765 84.859 22.1454 82.5144C25.7784 79.0654 22.5514 79.3138 65.5509 79.1718L104.16 79.0443L104.906 80.1946C105.484 81.0849 105.538 81.5614 105.145 82.3031C104.641 83.2542 104.378 83.2617 66.2539 83.3887L27.87 83.5162L26.2461 84.5381C24.0157 85.9414 22.8196 88.1581 22.8196 90.8883C22.8196 93.417 23.7823 95.0626 26.2558 96.7625L27.8046 97.827L67.9715 97.6996L108.139 97.5726L110.591 96.2682C113.991 94.4586 116.56 91.704 118.253 88.0494C121.151 81.7966 119.827 74.3842 114.948 69.5483C113.755 68.3657 111.526 66.8073 109.995 66.0862L107.211 64.7742L67.0765 64.7035C45.0025 64.6646 26.1069 64.8028 25.0861 65.0113Z" fill="#058FA2"/>
<path d="M46.0455 37.3253C46.4144 28.1295 45.1351 17.1233 44.2636 11.5193C44.1523 10.8037 44.8051 10.1993 45.5101 10.3653C68.2366 15.7147 95.5826 13.0567 108.004 10.7897C108.712 10.6605 109.322 11.2959 109.18 12.0018C105.59 29.8146 107.496 43.6951 109.356 50.0713C109.589 50.8693 108.841 51.665 108.035 51.4609C90.2499 46.9556 61.609 49.2524 46.2765 51.4251C45.2566 51.5696 43.96 49.6275 44.2914 48.6522C45.0756 46.3444 45.8289 42.7223 46.0455 37.3253Z" stroke="#FDD304" stroke-width="5"/>
</svg>
