<svg width="134" height="120" viewBox="0 0 134 120" fill="none" xmlns="http://www.w3.org/2000/svg">
<path d="M115.844 75.651C115.844 75.6511 115.844 75.6511 115.844 75.6511C116.774 76.5815 116.826 77.8712 116.059 78.6549C116.058 78.6555 116.056 78.6563 116.054 78.6571C116.033 78.6654 116 78.676 115.951 78.6882C115.853 78.7125 115.713 78.7375 115.53 78.7625C115.165 78.8124 114.652 78.8594 114.008 78.903C112.721 78.9902 110.93 79.0631 108.8 79.1214C104.541 79.238 98.9377 79.2964 93.3338 79.2964C87.7298 79.2964 82.127 79.238 77.8677 79.1214C75.7377 79.0631 73.9462 78.9902 72.6594 78.903C72.0154 78.8594 71.5021 78.8124 71.1375 78.7625C70.9545 78.7375 70.8147 78.7125 70.7168 78.6882C70.6676 78.676 70.6344 78.6654 70.6139 78.6571C70.6119 78.6563 70.6101 78.6556 70.6085 78.6549C70.206 78.2412 70.0242 77.5786 70.0775 76.9263C70.1317 76.2633 70.4214 75.6855 70.8694 75.4246L70.7435 75.2085M115.844 75.651L116.021 75.4743C115.275 74.729 112.487 74.6261 93.4306 74.6402C79.6736 74.651 71.3425 74.8594 70.7435 75.2085M115.844 75.651C115.714 75.5214 115.465 75.386 114.814 75.2739C114.168 75.1627 113.168 75.0808 111.583 75.0223C108.417 74.9054 102.961 74.8831 93.4308 74.8902C86.5531 74.8956 81.0334 74.9504 77.1591 75.0474C75.2215 75.0959 73.6978 75.155 72.6224 75.2235C72.0842 75.2577 71.6618 75.2942 71.3572 75.3324C71.2046 75.3515 71.0855 75.3706 70.9979 75.3893C70.9015 75.4098 70.8691 75.4247 70.8694 75.4245L70.7435 75.2085M115.844 75.651L70.7435 75.2085M36.9245 0.789145L36.9246 0.789128L74.3428 17.0303L74.2532 17.2637C74.2532 17.2637 74.2533 17.2637 74.2533 17.2638C74.4937 17.3561 74.674 17.4416 74.8008 17.5185C74.893 17.5745 74.9442 17.6184 74.9708 17.647C74.9421 17.6679 74.8903 17.698 74.8024 17.7321C74.5401 17.8338 74.0873 17.9224 73.4376 17.9842C72.7938 18.0455 71.9752 18.0789 70.993 18.0789H66.8473L55.9133 11.5596C50.0488 8.06262 46.6707 6.14351 44.2355 5.25027C43.011 4.80115 42.0144 4.60699 41.052 4.60379C40.0915 4.6006 39.1798 4.78781 38.1299 5.08185C35.0541 5.94333 32.877 8.18969 29.6246 13.68L27.1737 17.8172L24.7354 17.9739C23.9807 18.0223 23.3582 18.0055 22.9317 17.9392C22.716 17.9057 22.5675 17.862 22.4798 17.8181C22.459 17.8077 22.4448 17.799 22.4352 17.7925C22.4421 17.7566 22.4588 17.6929 22.4945 17.5943C22.5421 17.4633 22.6139 17.2953 22.7087 17.0935C22.8981 16.6903 23.1721 16.1668 23.5083 15.5599C24.1801 14.3469 25.0932 12.8134 26.055 11.2685C27.0168 9.72386 28.0257 8.17061 28.8889 6.91829C29.3205 6.29201 29.7146 5.74262 30.0475 5.30789C30.3837 4.86872 30.6474 4.55984 30.82 4.40387C32.9098 2.51638 34.8045 1.39873 36.9245 0.789145ZM22.418 17.7778C22.4182 17.7777 22.4193 17.7788 22.4208 17.7811C22.4186 17.7789 22.4178 17.7778 22.418 17.7778ZM8.21124 91.3479L7.98752 91.4581L8.21122 91.3479C7.90845 90.7332 7.69062 90.2793 7.52269 89.5199C7.35284 88.7518 7.23318 87.6656 7.14613 85.7943C6.97207 82.0528 6.93025 75.2313 6.85123 61.6681C6.79875 52.6651 6.8085 45.6088 6.87928 40.5779C6.91467 38.0623 6.96531 36.0546 7.03095 34.5637C7.09696 33.0645 7.17756 32.1078 7.26839 31.6794C8.33208 26.663 12.6106 21.9855 17.5739 20.4196C17.9858 20.2898 18.9242 20.1762 20.7393 20.0861C22.5416 19.9966 25.1795 19.931 28.9653 19.8856C36.5364 19.7948 48.6873 19.7852 67.9023 19.8271C91.7981 19.8794 103.838 19.9078 110.206 20.065C113.393 20.1437 115.148 20.2544 116.254 20.4143C117.345 20.5719 117.798 20.7757 118.388 21.0527C121.39 22.4641 124.404 25.4878 125.971 28.6699L126.195 28.5595L125.971 28.6699L127.172 31.1077V60.0089V88.9101L125.958 91.376C125.292 92.7277 123.573 94.943 122.146 96.2796C121.938 96.4739 121.746 96.6578 121.564 96.8319C120.705 97.6543 120.072 98.2609 119.072 98.7343C117.859 99.3083 116.095 99.6877 112.745 99.9267C106.625 100.363 95.3251 100.327 72.6926 100.254C70.5537 100.247 68.3136 100.24 65.9671 100.232L18.1817 100.086L15.7446 98.8843L15.6341 99.1085L15.7446 98.8843C12.6217 97.3454 9.74955 94.4721 8.21124 91.3479ZM18.4378 24.6484L18.4378 24.6484C17.0928 25.0409 15.6196 26.1156 14.3904 27.4348C13.1594 28.7558 12.1417 30.3555 11.7338 31.8327L11.7338 31.8327C11.6032 32.3057 11.5021 33.1339 11.4228 34.3992C11.343 35.6713 11.2843 37.4047 11.2447 39.701C11.1655 44.2939 11.1626 51.1496 11.2215 61.093C11.2984 74.0707 11.3468 80.7927 11.5132 84.5312C11.5963 86.3997 11.7094 87.5365 11.8736 88.3418C12.0401 89.1575 12.2586 89.6299 12.5388 90.1666L12.7604 90.051L12.5388 90.1667C13.1815 91.3977 14.753 93.1316 16.0444 94.0442L18.3424 95.6681L18.4073 95.7139H18.4867H67.0912H115.696H115.775L115.84 95.6681L118.138 94.0442C119.429 93.1316 121.001 91.3977 121.644 90.1667C121.925 89.627 122.145 89.1629 122.309 88.3419C122.471 87.5323 122.579 86.3782 122.651 84.4545C122.796 80.6049 122.802 73.6164 122.802 60.0089C122.802 46.4014 122.796 39.4129 122.651 35.5633C122.579 33.6395 122.471 32.4855 122.309 31.6759C122.145 30.8549 121.925 30.3908 121.644 29.8511C121.001 28.6201 119.429 26.8861 118.138 25.9736L115.841 24.3497L115.776 24.304L115.697 24.3038L67.9921 24.2113C53.4191 24.1831 41.3191 24.2106 32.726 24.2848C28.4296 24.3219 25.0089 24.3706 22.5938 24.43C21.3865 24.4596 20.4289 24.492 19.7383 24.527C19.3932 24.5444 19.1127 24.5626 18.9002 24.5817C18.6964 24.5999 18.5331 24.6206 18.4378 24.6484ZM43.4792 43.5678L43.6671 43.4029L43.4792 43.5679C45.5273 45.9012 46.1476 49.1222 45.5452 52.1111C44.9428 55.0999 43.124 57.8257 40.3338 59.1771C38.9834 59.8312 37.3442 60.1995 35.7305 60.2634C34.1154 60.3274 32.5454 60.086 31.3296 59.5394C23.1841 55.8785 23.1156 44.4285 31.2139 40.6896C35.3888 38.7622 40.2545 39.8932 43.4792 43.5678ZM0.25001 58.7292L0.25001 58.7291C0.25424 56.1544 1.23074 53.1157 3.26559 49.4393L3.04686 49.3182L3.26559 49.4393C3.77918 48.5113 4.2678 47.6689 4.64091 47.0596C4.74898 46.8831 4.84679 46.7271 4.93231 46.5948C4.93655 46.6854 4.94073 46.7855 4.94484 46.8948C4.96774 47.5036 4.98805 48.3859 5.00471 49.4767C5.03803 51.6579 5.05669 54.6674 5.05264 57.9787L5.03884 69.3528L3.72779 67.8376C3.72778 67.8376 3.72777 67.8376 3.72776 67.8376C2.81202 66.7787 1.93897 65.1752 1.29519 63.4883C0.651086 61.8006 0.24765 60.0587 0.25001 58.7292ZM52.773 80.3282H35.098H17.4661L17.784 78.3399C18.9142 71.2711 24.9837 65.0008 32.1641 63.497C37.6324 62.3524 44.3518 64.6275 48.2362 68.9493C49.4578 70.3087 50.595 72.1488 51.4265 73.9908C52.2602 75.8377 52.773 77.6566 52.773 78.9749V80.3282ZM129.806 51.3674L129.974 51.1819L129.806 51.3674C130.08 51.6145 130.495 52.1413 130.946 52.808C131.393 53.4685 131.863 54.247 132.247 54.9822L132.468 54.8666L132.247 54.9822C134.341 58.9962 134.248 63.9336 131.961 68.5704C131.881 68.7327 131.803 68.8912 131.727 69.0456C130.99 70.54 130.436 71.6642 130.016 72.3557C129.901 72.545 129.8 72.6967 129.709 72.8121C129.617 72.9301 129.547 72.9978 129.498 73.0312C129.496 73.0329 129.493 73.0344 129.491 73.0358C129.486 73.0274 129.479 73.0163 129.471 73.0017C129.395 72.8534 129.323 72.5433 129.269 72.0145C129.216 71.4975 129.181 70.8059 129.16 69.9224C129.12 68.3235 129.123 66.1154 129.127 63.2132C129.127 62.9089 129.128 62.5969 129.128 62.2772C129.135 56.2485 129.139 53.2491 129.275 51.874C129.309 51.5306 129.35 51.3059 129.395 51.166C129.41 51.1171 129.424 51.0856 129.435 51.066C129.446 51.0721 129.461 51.0807 129.479 51.0929C129.564 51.1494 129.667 51.2413 129.806 51.3674ZM103.359 115.667L103.53 115.849L103.359 115.667C99.7221 119.071 94.2233 120.529 89.5169 119.343C89.1658 119.254 88.4988 118.976 87.5558 118.522C86.6205 118.071 85.4331 117.457 84.0511 116.711C81.2876 115.219 77.7531 113.202 73.9152 110.912C70.317 108.765 66.9483 106.775 64.4195 105.299C63.1551 104.562 62.1002 103.952 61.3312 103.515C60.9468 103.297 60.6331 103.121 60.4 102.994C60.175 102.871 60.0078 102.784 59.9291 102.754C59.7201 102.674 59.5322 102.553 59.4004 102.429C59.3291 102.362 59.2854 102.305 59.2595 102.261C59.2895 102.25 59.3269 102.238 59.3726 102.226C59.5688 102.173 59.8639 102.123 60.2414 102.079C60.9933 101.993 62.0369 101.939 63.1894 101.939H67.3351L78.2691 108.458C84.1336 111.955 87.5117 113.874 89.9469 114.768C91.1714 115.217 92.168 115.411 93.1304 115.414C94.0909 115.417 95.0026 115.23 96.0525 114.936C99.1283 114.074 101.305 111.828 104.558 106.338L107.009 102.201L109.447 102.044C110.202 101.996 110.824 102.012 111.251 102.079C111.466 102.112 111.615 102.156 111.703 102.2C111.723 102.21 111.737 102.219 111.747 102.225C111.745 102.235 111.742 102.246 111.739 102.26C111.729 102.301 111.712 102.353 111.688 102.418C111.641 102.548 111.569 102.715 111.475 102.915C111.286 103.317 111.012 103.839 110.677 104.445C110.007 105.656 109.095 107.19 108.135 108.739C107.174 110.287 106.166 111.847 105.302 113.11C104.43 114.383 103.723 115.326 103.359 115.667ZM111.764 102.24C111.764 102.24 111.763 102.239 111.762 102.237C111.764 102.239 111.765 102.24 111.764 102.24ZM70.9611 44.6132C70.4711 44.3509 70.1531 43.7731 70.0816 43.1137C70.0111 42.4636 70.1879 41.7945 70.6085 41.3629C70.61 41.3622 70.6119 41.3615 70.6139 41.3607C70.6344 41.3524 70.6676 41.3417 70.7168 41.3296C70.8147 41.3053 70.9545 41.2803 71.1375 41.2553C71.5021 41.2054 72.0154 41.1584 72.6594 41.1147C73.9462 41.0275 75.7377 40.9547 77.8677 40.8964C82.127 40.7797 87.7298 40.7214 93.3338 40.7214C98.9377 40.7214 104.541 40.7797 108.8 40.8964C110.93 40.9547 112.721 41.0275 114.008 41.1147C114.652 41.1584 115.165 41.2054 115.53 41.2553C115.713 41.2803 115.853 41.3053 115.951 41.3296C116 41.3417 116.033 41.3524 116.054 41.3607C116.056 41.3615 116.058 41.3622 116.059 41.3629C116.826 42.1466 116.774 43.4363 115.844 44.3666C115.715 44.4962 115.465 44.6317 114.815 44.7442C114.17 44.8558 113.173 44.9384 111.593 44.9981C108.439 45.1174 103.008 45.1438 93.5302 45.1438C86.5897 45.1438 81.0881 45.0936 77.2386 44.9986C75.3135 44.951 73.804 44.8923 72.7351 44.8233C72.2003 44.7887 71.7791 44.7518 71.4728 44.7128C71.3195 44.6934 71.1984 44.6738 71.108 44.6546C71.0628 44.645 71.0277 44.636 71.0013 44.6279C70.9883 44.6239 70.9784 44.6204 70.9713 44.6176C70.9639 44.6147 70.9609 44.6131 70.9611 44.6132ZM70.9611 55.9805C70.4711 55.7181 70.1531 55.1404 70.0816 54.481C70.0111 53.8308 70.1879 53.1617 70.6085 52.7302C70.61 52.7295 70.6119 52.7287 70.6139 52.7279C70.6344 52.7197 70.6676 52.709 70.7168 52.6968C70.8147 52.6726 70.9545 52.6476 71.1375 52.6225C71.5021 52.5726 72.0154 52.5257 72.6594 52.482C73.9462 52.3948 75.7377 52.322 77.8677 52.2636C82.127 52.147 87.7298 52.0887 93.3338 52.0887C98.9377 52.0887 104.541 52.147 108.8 52.2636C110.93 52.322 112.721 52.3948 114.008 52.482C114.652 52.5257 115.165 52.5726 115.53 52.6225C115.713 52.6476 115.853 52.6726 115.951 52.6968C116 52.709 116.033 52.7197 116.054 52.7279C116.056 52.7287 116.057 52.7294 116.059 52.73C116.197 52.875 116.338 53.1212 116.445 53.417C116.555 53.7196 116.621 54.0477 116.621 54.3253C116.621 54.6028 116.555 54.9309 116.445 55.2335C116.338 55.5274 116.199 55.7722 116.062 55.9175C116.061 55.9176 116.061 55.9177 116.061 55.9177C116.042 55.925 116.011 55.9347 115.963 55.9459C115.869 55.9682 115.734 55.9913 115.557 56.0145C115.203 56.0607 114.703 56.1044 114.076 56.1455C112.822 56.2274 111.072 56.2972 108.987 56.3545C104.82 56.4689 99.3249 56.5329 93.806 56.5438C88.2871 56.5546 82.7464 56.5124 78.4873 56.4145C76.3574 56.3655 74.5501 56.3027 73.227 56.2258C72.5651 56.1873 72.0275 56.1455 71.6325 56.1005C71.4348 56.078 71.2763 56.0551 71.1576 56.0321C71.0982 56.0207 71.0514 56.0097 71.0162 55.9996C70.9986 55.9946 70.9853 55.9901 70.9754 55.9864C70.9717 55.9851 70.9688 55.9839 70.9667 55.983C70.9628 55.9813 70.9611 55.9804 70.9611 55.9805ZM70.0466 65.6925C70.0466 65.415 70.1123 65.0869 70.2223 64.7843C70.3299 64.4884 70.4705 64.2423 70.6087 64.0973C70.6102 64.0967 70.612 64.096 70.6139 64.0952C70.6344 64.087 70.6676 64.0763 70.7168 64.0641C70.8147 64.0399 70.9545 64.0148 71.1375 63.9898C71.5021 63.9399 72.0154 63.8929 72.6594 63.8493C73.9462 63.7621 75.7377 63.6892 77.8677 63.6309C82.127 63.5143 87.7298 63.4559 93.3338 63.4559C98.9377 63.4559 104.541 63.5143 108.8 63.6309C110.93 63.6892 112.721 63.7621 114.008 63.8493C114.652 63.8929 115.165 63.9399 115.53 63.9898C115.713 64.0148 115.853 64.0399 115.951 64.0641C116 64.0763 116.033 64.087 116.054 64.0952C116.056 64.096 116.057 64.0967 116.059 64.0973C116.197 64.2423 116.338 64.4884 116.445 64.7843C116.555 65.0869 116.621 65.415 116.621 65.6925C116.621 66.3201 116.599 66.6532 116.316 66.909C116.166 67.0442 115.925 67.173 115.525 67.2868C115.125 67.4002 114.584 67.4938 113.851 67.5697C110.908 67.8743 105.042 67.8784 93.3338 67.8784C81.6253 67.8784 75.7598 67.8743 72.8169 67.5697C72.0833 67.4938 71.5424 67.4002 71.1429 67.2868C70.7424 67.173 70.5013 67.0442 70.3515 66.909C70.0682 66.6532 70.0466 66.3201 70.0466 65.6925Z" fill="#058FA2" stroke="white" stroke-width="0.5"/>
<circle cx="35.5" cy="50" r="11" fill="#FDD304"/>
<path d="M53 80.5C53 78.2019 52.5473 75.9262 51.6679 73.803C50.7884 71.6798 49.4994 69.7507 47.8744 68.1256C46.2493 66.5006 44.3202 65.2116 42.197 64.3321C40.0738 63.4527 37.7981 63 35.5 63C33.2019 63 30.9262 63.4527 28.803 64.3321C26.6798 65.2116 24.7507 66.5006 23.1256 68.1256C21.5006 69.7507 20.2116 71.6798 19.3321 73.803C18.4527 75.9262 18 78.2019 18 80.5L35.5 80.5H53Z" fill="#FDD304"/>
</svg>
