<svg width="125" height="125" viewBox="0 0 125 125" fill="none" xmlns="http://www.w3.org/2000/svg">
<circle cx="63.9394" cy="35.5761" r="12.9394" fill="#FDD304" stroke="#FDD304" stroke-width="2"/>
<path fill-rule="evenodd" clip-rule="evenodd" d="M20.9812 1.43919C16.9254 3.28043 15.3916 4.66045 13.686 8.00388C9.63305 15.95 12.2584 24.8172 19.9076 29.018C30.3181 34.7347 42.6415 27.3965 42.6415 15.4801C42.6415 4.08285 31.323 -3.25462 20.9812 1.43919ZM99.7145 1.05027C89.7896 5.50769 86.9807 17.5238 93.9985 25.5018C99.3027 31.5308 107.065 32.6643 113.939 28.4114C123.367 22.5798 123.338 8.36316 113.887 2.51632C109.681 -0.0854125 103.636 -0.710724 99.7145 1.05027ZM22.7382 4.56936C17.6948 6.76771 14.5731 13.1777 16.0057 18.3949C17.0186 22.0846 21.5339 26.4545 25.0066 27.1066C33.007 28.6081 40.1295 21.4607 38.8003 13.2644C37.6429 6.12939 29.3991 1.66618 22.7382 4.56936ZM100.278 4.99443C91.5971 9.71499 91.9092 22.0542 100.816 26.2839C108.228 29.803 117.174 23.8947 117.174 15.4801C117.174 6.79374 107.739 0.938219 100.278 4.99443ZM12.0308 36.8622C8.58263 39.576 8.34566 40.6871 7.96421 55.9627L7.60299 70.4208L3.8015 70.6398L0 70.8582L0.189281 97.7487C0.374949 124.093 0.40818 124.639 1.82345 124.639C3.23727 124.639 3.27267 124.093 3.45834 99.5177L3.64834 74.3968H44.0076C79.4933 74.3968 84.4782 74.2623 85.2909 73.282C86.6397 71.6562 85.353 70.7577 81.4165 70.5762C79.5656 70.4909 78.0491 70.0875 78.0463 69.6813C78.0434 69.2743 80.6319 66.3639 83.7983 63.2134L89.5562 57.4866L89.7585 89.3782L89.9615 121.271L91.7127 123.135C93.4321 124.966 93.6481 125 103.486 125C113.162 125 113.567 124.939 115.28 123.225L117.053 121.451V103.741V86.0312L119.57 84.8355C120.955 84.1784 122.743 82.5793 123.544 81.2831C124.903 79.0819 125 77.7106 125 60.7209C125 40.8121 124.812 39.761 120.746 36.8629C118.796 35.4735 117.644 35.36 105.527 35.36C95.5395 35.36 91.954 35.6065 90.4672 36.3952C89.3944 36.9648 82.8368 43.1399 75.8955 50.1173L63.2737 62.8028L62.8916 66.6118L62.5087 70.4208H54.923H47.3374L46.9761 55.9627C46.5839 40.2656 46.3953 39.5145 42.1394 36.7067C40.3564 35.5299 38.5409 35.3687 27.0259 35.365C14.8657 35.36 13.8037 35.4663 12.0308 36.8622ZM13.3327 40.9039L11.5461 42.8326L11.7419 56.6271C11.8907 67.1229 12.1537 70.4035 12.8407 70.3485C13.3377 70.3087 20.2457 70.2278 28.1926 70.1678L42.6415 70.0593V56.0155V41.9709L40.7378 40.4731C38.9881 39.0952 37.8791 38.9745 26.9768 38.9745H15.12L13.3327 40.9039ZM79.7108 52.1422C66.5991 65.1928 65.2337 67.0752 67.349 69.1919C69.6609 71.5051 71.727 70.214 81.7798 60.1744C90.2873 51.6774 91.8348 50.4195 92.7993 51.2205C93.7796 52.0352 93.9443 56.4919 94.1083 86.5878L94.2962 121.024L103.04 121.226C109.728 121.38 111.976 121.197 112.599 120.444C113.147 119.785 113.479 113.425 113.609 101.149L113.802 82.8381L116.242 82.0169C121.273 80.3224 121.388 79.8482 121.388 60.7426C121.388 45.858 121.229 43.4016 120.165 41.8466C119.493 40.8634 118.599 39.8196 118.179 39.5275C117.758 39.2355 111.908 38.9919 105.177 38.9853L92.9401 38.9745L79.7108 52.1422ZM54.4585 78.6915C52.4378 79.5554 50.5884 82.2432 50.5884 84.3172C50.5884 85.8902 50.3377 85.9632 44.9063 85.9632C40.2516 85.9632 38.8797 86.2343 37.3207 87.4618L35.4171 88.9597V105.482V122.004L37.3207 123.501C39.1499 124.941 40.066 125 60.8326 125H82.4416L84.2145 123.225L85.9881 121.451V105.613V89.7751L84.0837 87.8688C82.3289 86.1136 81.7018 85.9632 76.1368 85.9632H70.0943V83.8747C70.0943 82.7261 69.4759 81.0222 68.7202 80.0882C67.5181 78.6019 66.6374 78.3677 61.6764 78.2101C58.5583 78.111 55.3102 78.3279 54.4585 78.6915ZM54.6478 83.4692C53.8524 85.5447 54.884 85.9632 60.7958 85.9632C66.3839 85.9632 66.5746 85.9076 66.3521 84.3367C66.1382 82.8345 65.7004 82.6943 60.6101 82.5005C56.0565 82.3277 55.0213 82.4955 54.6478 83.4692ZM39.9171 90.1828C39.212 90.631 39.0444 94.2744 39.1947 105.895C39.3898 120.967 39.397 121.025 41.016 121.255L42.6415 121.486V105.532C42.6415 89.2054 42.5216 88.5288 39.9171 90.1828ZM46.9761 105.466V121.385H60.717H74.4572L74.2628 105.662L74.0678 89.9392L60.5219 89.7426L46.9761 89.5459V105.466ZM78.5231 90.0599C78.2579 90.3245 78.0412 97.4812 78.0412 105.964C78.0412 120.332 78.1301 121.385 79.3416 121.385C82.1389 121.385 82.3759 120.145 82.3759 105.482C82.3759 95.4253 82.1245 91.0611 81.5089 90.4452C80.5495 89.4852 79.2629 89.3189 78.5231 90.0599Z" fill="#058FA2"/>
<path d="M60.1514 32.2793H64.1504C64.1035 32.0918 64.0244 31.9219 63.9131 31.7695C63.8076 31.6172 63.6553 31.4883 63.4561 31.3828C63.2627 31.2715 63.0195 31.1865 62.7266 31.1279C62.4395 31.0693 62.0967 31.04 61.6982 31.04H60.1426L60.1514 29.3965H68.6152V31.04H66.2334C66.4033 31.2041 66.541 31.3887 66.6465 31.5938C66.7578 31.7988 66.8311 32.0273 66.8662 32.2793H68.6416V33.9229H66.8135C66.7432 34.2158 66.623 34.4912 66.4531 34.749C66.2832 35.0068 66.0664 35.2412 65.8027 35.4521C65.5449 35.6572 65.2461 35.8359 64.9062 35.9883C64.5723 36.1348 64.2031 36.2461 63.7988 36.3223V36.3574C64.0098 36.4512 64.2002 36.5596 64.3701 36.6826C64.5459 36.8057 64.7129 36.9492 64.8711 37.1133C65.0352 37.2773 65.1963 37.4648 65.3545 37.6758C65.5127 37.8867 65.6855 38.124 65.873 38.3877L68.3867 42H65.3721L63.3682 38.8623C63.1748 38.5576 62.9902 38.291 62.8145 38.0625C62.6445 37.834 62.46 37.6436 62.2607 37.4912C62.0674 37.3389 61.8506 37.2246 61.6104 37.1484C61.376 37.0664 61.1006 37.0254 60.7842 37.0254H60.1514V35.1709H61.6895C61.9883 35.1709 62.2725 35.1416 62.542 35.083C62.8115 35.0186 63.0518 34.9307 63.2627 34.8193C63.4795 34.708 63.6611 34.5762 63.8076 34.4238C63.96 34.2715 64.0684 34.1045 64.1328 33.9229H60.1514V32.2793Z" fill="white"/>
</svg>
