<svg width="195" height="49" viewBox="0 0 195 49" fill="none" xmlns="http://www.w3.org/2000/svg">
<path d="M17.0304 0H5.90323C3.43585 0.00146484 1.22989 1.5379 0.373047 3.85172L15.9501 23.0833L17.0304 0Z" fill="#FDC114"/>
<path d="M37.5171 0H17.8496L18.9267 23.0848L37.5171 0Z" fill="#FDC114"/>
<path d="M0.222717 4.31641C0.0761108 4.83405 0.00115967 5.36935 0 5.90738V21.2076L13.5438 24.8334L0.222717 4.31641Z" fill="#FDC114"/>
<path d="M48.9992 17.8204V5.90405C48.9992 2.6427 46.3549 -0.000884788 43.0936 2.22145e-07H38.1982L21.334 24.8301L48.9992 17.8204Z" fill="#FDC114"/>
<path d="M48.9979 38.5517V18.1953L22.2539 27.6631L48.9979 38.5517Z" fill="#FDC114"/>
<path d="M2.99805 48.2329C3.88309 48.7374 4.8844 49.0022 5.90314 49.0013H16.8331L15.9501 32.2422L2.99805 48.2329Z" fill="#FDC114"/>
<path d="M0 22.8125V32.511L12.6259 27.6617L0 22.8125Z" fill="#FDC114"/>
<path d="M21.3359 30.4922L33.3509 48.9998H43.0939C46.3549 48.9998 48.9987 46.3568 48.9996 43.0958V38.9799L21.3359 30.4922Z" fill="#FDC114"/>
<path d="M18.0488 48.9998H32.5011L18.927 32.2422L18.0488 48.9998Z" fill="#FDC114"/>
<path d="M0.0078125 34.1157V43.0919C0.0078125 44.9306 0.866089 46.6629 2.32825 47.7762L13.5516 30.4883L0.0078125 34.1157Z" fill="#FDC114"/>
<path d="M62.297 34.4336H63.1167V37.8989H67.3226V34.4336H68.1483V42.6948H67.3226V38.7087H63.1167V42.6948H62.291L62.297 34.4336Z" fill="black"/>
<path d="M78.698 34.228C79.8731 34.1979 81.0088 34.6528 81.8385 35.4853C83.0849 36.728 83.4579 38.5999 82.7832 40.2254C82.1084 41.8509 80.5193 42.9084 78.7594 42.903C77.5966 42.929 76.4746 42.4742 75.6585 41.6456C74.8365 40.8488 74.3819 39.7466 74.4031 38.6021C74.3979 37.8284 74.5966 37.0668 74.9793 36.3942C75.3502 35.7342 75.8928 35.1868 76.5495 34.8101C77.201 34.428 77.9428 34.2271 78.698 34.228ZM78.7356 35.0298C77.4877 35.044 76.3396 35.7144 75.7139 36.7942C75.4042 37.3445 75.2451 37.9667 75.2525 38.5981C75.2451 39.5259 75.6091 40.4181 76.2633 41.0761C76.9175 41.7341 77.8078 42.1031 78.7356 42.1011C79.3605 42.1052 79.9753 41.9439 80.5178 41.6337C81.0516 41.3334 81.4928 40.8924 81.793 40.3585C82.1022 39.8102 82.2607 39.1899 82.2523 38.5605C82.2616 37.936 82.1029 37.3206 81.7929 36.7785C81.4854 36.2458 81.0392 35.8065 80.5019 35.5071C79.9662 35.1935 79.3564 35.0287 78.7356 35.0298Z" fill="black"/>
<path d="M88.5078 41.1554L89.2088 40.7356C89.7038 41.6438 90.2748 42.0986 90.9216 42.0999C91.1947 42.0996 91.4634 42.0316 91.7038 41.9019C91.9343 41.7855 92.1267 41.6054 92.2582 41.3831C92.3862 41.1752 92.4547 40.9361 92.4562 40.692C92.4513 40.3977 92.3528 40.1127 92.175 39.8782C91.7702 39.3694 91.2932 38.9225 90.7592 38.5514C90.0702 38.0314 89.6418 37.6551 89.4742 37.4228C89.1914 37.0623 89.0374 36.6176 89.0365 36.1595C89.0309 35.8122 89.1199 35.4699 89.2939 35.1693C89.4665 34.8734 89.7181 34.6313 90.0206 34.4704C90.3335 34.3001 90.6844 34.2123 91.0404 34.2149C91.424 34.2125 91.8012 34.3124 92.1335 34.504C92.5607 34.7814 92.9265 35.1432 93.2087 35.5674L92.5354 36.0782C92.3218 35.7621 92.0536 35.4864 91.7434 35.2644C91.5279 35.1338 91.2805 35.0652 91.0285 35.0664C90.7264 35.0544 90.4321 35.1635 90.2107 35.3694C90.0034 35.5615 89.8881 35.8332 89.8939 36.1158C89.8939 36.2961 89.9324 36.4743 90.0067 36.6386C90.1082 36.8459 90.2472 37.0325 90.4167 37.1891C90.5236 37.2941 90.88 37.5693 91.482 38.0148C92.1988 38.5415 92.6879 39.0049 92.9532 39.4228C93.2039 39.7889 93.3416 40.2206 93.3493 40.6643C93.3521 41.2581 93.104 41.8255 92.6661 42.2266C92.2253 42.6626 91.6266 42.9012 91.0067 42.888C90.5227 42.8945 90.0478 42.7566 89.6425 42.4919C89.1624 42.144 88.7732 41.6855 88.5078 41.1554Z" fill="black"/>
<path d="M99.6836 34.4322H101.333C101.973 34.4086 102.613 34.4504 103.244 34.5569C103.697 34.6621 104.104 34.9132 104.4 35.2717C104.995 36.0811 105 37.1818 104.412 37.9964C104.102 38.3653 103.676 38.6191 103.204 38.7172C102.83 38.8082 102.129 38.8518 101.103 38.8518H100.509V42.6933H99.6836V34.4322ZM100.509 35.242V38.0439L101.907 38.0618C102.327 38.0821 102.747 38.0299 103.149 37.9073C103.403 37.8117 103.62 37.6367 103.767 37.4083C103.916 37.1794 103.995 36.9114 103.992 36.638C103.994 36.3677 103.916 36.103 103.767 35.8777C103.626 35.6553 103.418 35.4839 103.173 35.3885C102.783 35.2713 102.375 35.2217 101.969 35.242H100.509Z" fill="black"/>
<path d="M110.979 34.4336H111.804V42.6948H110.979V34.4336Z" fill="black"/>
<path d="M117.479 35.2435V34.4336H122.005V35.2435H120.164V42.6948H119.322V35.2435H117.479Z" fill="black"/>
<path d="M130.244 34.4336L134.095 42.6948H133.204L131.905 39.978H128.341L127.054 42.6948H126.133L130.046 34.4336H130.244ZM130.139 36.19L128.723 39.1799H131.547L130.139 36.19Z" fill="black"/>
<path d="M139.973 34.4336H140.798V41.8988H143.977V42.6908H139.973V34.4336Z" fill="black"/>
<path d="M149.768 34.4336H150.593V42.6948H149.768V34.4336Z" fill="black"/>
<path d="M156.268 35.2435V34.4336H160.794V35.2435H158.957V42.6948H158.113V35.2435H156.268Z" fill="black"/>
<path d="M165.932 34.4336H166.876L168.991 37.8414L171.07 34.4336H172.025L169.409 38.7483V42.6948H168.595V38.7483L165.932 34.4336Z" fill="black"/>
<path d="M62.291 22.2131L63.8751 21.2567C64.9985 23.3239 66.2962 24.3569 67.7681 24.3557C68.3893 24.3604 69.0019 24.21 69.5502 23.918C70.0753 23.6495 70.5133 23.2375 70.8136 22.7299C71.0977 22.2554 71.2482 21.7128 71.2492 21.1597C71.2358 20.4907 71.0121 19.8428 70.6096 19.3082C70.0235 18.4726 68.9516 17.468 67.3939 16.2945C65.8361 15.1209 64.8612 14.2688 64.4692 13.7381C63.8296 12.9167 63.4813 11.906 63.4791 10.8649C63.4724 10.0804 63.6776 9.30879 64.0732 8.6313C64.4669 7.96028 65.0393 7.41188 65.7266 7.04719C66.4371 6.66011 67.2342 6.45979 68.0433 6.46504C68.9146 6.46248 69.7712 6.68989 70.5265 7.1244C71.2947 7.56398 72.1092 8.36995 72.97 9.54207L71.4393 10.7025C70.7324 9.76985 70.1304 9.1501 69.6334 8.8531C69.1415 8.5572 68.5777 8.40242 68.0037 8.40553C67.3179 8.37935 66.6499 8.62813 66.1483 9.09663C65.6769 9.53346 65.4146 10.151 65.4276 10.7937C65.4273 11.2031 65.5136 11.608 65.681 11.9816C65.9151 12.4503 66.2309 12.8735 66.6137 13.2312C66.8592 13.4714 67.6671 14.0972 69.0374 15.1084C70.6624 16.307 71.7772 17.3743 72.3818 18.3101C72.9534 19.142 73.2687 20.123 73.2888 21.1319C73.2949 22.4803 72.7319 23.7688 71.7383 24.6804C70.7363 25.6719 69.3755 26.2156 67.9661 26.1873C66.8648 26.1977 65.7852 25.88 64.8652 25.2744C63.9253 24.6632 63.0672 23.6428 62.291 22.2131ZM82.544 6.93428H84.4192V18.2706C84.3996 19.109 84.4254 19.9479 84.4964 20.7835C84.562 21.4454 84.7847 22.0822 85.1459 22.6408C85.5492 23.1896 86.0911 23.6215 86.7161 23.8923C87.3804 24.2178 88.1091 24.3903 88.8488 24.3972C89.4647 24.3975 90.0731 24.2623 90.6309 24.0012C91.1847 23.7501 91.6732 23.3746 92.0586 22.9042C92.4565 22.4055 92.7434 21.8277 92.9002 21.2092C93.0322 20.7299 93.0982 19.7511 93.0982 18.2727V6.93428H94.9635V18.2706C94.9635 19.9459 94.7991 21.3002 94.4704 22.3339C94.1107 23.4157 93.4244 24.3593 92.5061 25.0349C91.4839 25.8132 90.2262 26.2185 88.9418 26.1833C87.4277 26.1833 86.13 25.8217 85.0489 25.0982C84.0098 24.4281 83.2427 23.4104 82.8846 22.227C82.6535 21.4943 82.5387 20.1742 82.54 18.2667L82.544 6.93428ZM104.836 25.7121V6.93428H105.244L117.735 21.328V6.93428H119.587V25.7121H119.161L106.767 11.4946V25.7121H104.836ZM127.438 22.2131L129.034 21.2567C130.157 23.3239 131.455 24.3569 132.927 24.3557C133.548 24.3602 134.161 24.2098 134.709 23.918C135.234 23.6495 135.672 23.2375 135.972 22.7299C136.255 22.2548 136.405 21.7125 136.406 21.1596C136.392 20.491 136.169 19.8435 135.768 19.3082C135.18 18.4726 134.107 17.468 132.551 16.2945C130.994 15.1209 130.02 14.2628 129.628 13.7203C128.988 12.8989 128.64 11.8881 128.638 10.8471C128.631 10.0627 128.836 9.29097 129.232 8.61348C129.625 7.9416 130.197 7.3929 130.885 7.02937C131.591 6.65047 132.38 6.45503 133.18 6.46107C134.052 6.45851 134.908 6.68593 135.663 7.12044C136.432 7.56007 137.247 8.36592 138.109 9.53816L136.576 10.6986C135.869 9.76588 135.267 9.14607 134.77 8.84907C134.279 8.55305 133.716 8.39821 133.143 8.40156C132.456 8.37483 131.787 8.62361 131.285 9.09267C130.814 9.53035 130.552 10.1486 130.567 10.7916C130.567 11.201 130.654 11.6058 130.82 11.9798C131.055 12.448 131.37 12.871 131.753 13.2292C132.001 13.4694 132.809 14.0952 134.178 15.1064C135.803 16.305 136.918 17.3724 137.523 18.3083C138.093 19.1406 138.407 20.1213 138.428 21.13C138.435 22.4786 137.872 23.7674 136.877 24.6784C135.878 25.6683 134.521 26.2117 133.115 26.1853C132.013 26.1956 130.932 25.877 130.012 25.2705C129.08 24.6619 128.222 23.6428 127.438 22.2131ZM145.762 8.77388V6.93428H156.051V8.77388H151.863V25.712H149.95V8.77388H145.762ZM182.936 6.93428H186.674C188.76 6.93428 190.173 7.01948 190.914 7.18977C191.978 7.41627 192.935 7.99531 193.63 8.83327C194.341 9.70656 194.713 10.8068 194.678 11.9322C194.697 12.8812 194.447 13.8163 193.957 14.6292C193.467 15.4126 192.747 16.0259 191.896 16.3856C191.001 16.7816 189.766 16.9836 188.193 16.9914L194.947 25.7041H192.628L185.874 16.9914H184.815V25.7041H182.938L182.936 6.93428ZM184.813 8.77388V15.148L188.044 15.1757C189.298 15.1757 190.222 15.0549 190.816 14.8193C191.395 14.5966 191.888 14.1959 192.224 13.6748C192.561 13.1514 192.736 12.5405 192.727 11.9183C192.733 11.3084 192.555 10.7109 192.216 10.2036C191.895 9.7043 191.426 9.31795 190.874 9.09865C190.319 8.87684 189.399 8.76655 188.114 8.7679L184.813 8.77388ZM161.221 25.712L177.722 12.6866L160.451 23.221L161.221 25.712ZM177.215 25.712L168.459 6.93428H167.999L159.12 25.712H161.213L168.229 10.9243L175.193 25.712H177.215Z" fill="black"/>
</svg>
