<svg width="108" height="27" viewBox="0 0 108 27" fill="none" xmlns="http://www.w3.org/2000/svg">
<path d="M9.36664 0H3.2467C1.88965 0.000808716 0.676331 0.84584 0.205078 2.11844L8.77246 12.6958L9.36664 0Z" fill="#FDC114"/>
<path d="M20.6354 0H9.81836L10.4108 12.6967L20.6354 0Z" fill="#FDC114"/>
<path d="M0.122498 2.37402C0.0418701 2.65872 0.000640869 2.95316 0 3.24905V11.6642L7.4491 13.6584L0.122498 2.37402Z" fill="#FDC114"/>
<path d="M26.9503 9.80118V3.24722C26.9503 1.45346 25.4958 -0.000488158 23.7021 1.22949e-07H21.0097L11.7344 13.6566L26.9503 9.80118Z" fill="#FDC114"/>
<path d="M26.9495 21.2028V10.0068L12.2402 15.2141L26.9495 21.2028Z" fill="#FDC114"/>
<path d="M1.64844 26.5273C2.13522 26.8048 2.68594 26.9504 3.24625 26.95H9.25769L8.77206 17.7324L1.64844 26.5273Z" fill="#FDC114"/>
<path d="M0 12.5469V17.8811L6.94423 15.214L0 12.5469Z" fill="#FDC114"/>
<path d="M11.7344 16.7705L18.3426 26.9497H23.7013C25.4948 26.9497 26.9489 25.496 26.9494 23.7025V21.4388L11.7344 16.7705Z" fill="#FDC114"/>
<path d="M9.92773 26.9501H17.8765L10.4108 17.7334L9.92773 26.9501Z" fill="#FDC114"/>
<path d="M0.00390625 18.7646V23.7015C0.00390625 24.7128 0.475952 25.6656 1.28015 26.2779L7.453 16.7695L0.00390625 18.7646Z" fill="#FDC114"/>
<path d="M34.263 18.9375H34.7139V20.8434H37.0271V18.9375H37.4813V23.4811H37.0271V21.2888H34.7139V23.4811H34.2598L34.263 18.9375Z" fill="#A4A4A4"/>
<path d="M43.2845 18.824C43.9308 18.8075 44.5554 19.0577 45.0118 19.5155C45.6973 20.199 45.9024 21.2286 45.5313 22.1226C45.1602 23.0166 44.2862 23.5982 43.3182 23.5953C42.6787 23.6095 42.0616 23.3594 41.6127 22.9037C41.1606 22.4655 40.9106 21.8593 40.9223 21.2298C40.9194 20.8042 41.0287 20.3854 41.2392 20.0154C41.4432 19.6524 41.7416 19.3514 42.1028 19.1442C42.4611 18.934 42.8691 18.8235 43.2845 18.824ZM43.3052 19.2651C42.6188 19.2728 41.9873 19.6415 41.6432 20.2355C41.4729 20.5381 41.3854 20.8803 41.3895 21.2276C41.3854 21.7378 41.5856 22.2286 41.9454 22.5905C42.3052 22.9523 42.7949 23.1553 43.3052 23.1542C43.6489 23.1564 43.987 23.0678 44.2853 22.8971C44.579 22.732 44.8216 22.4894 44.9867 22.1957C45.1568 21.8942 45.2439 21.553 45.2394 21.2069C45.2444 20.8634 45.1572 20.5249 44.9867 20.2268C44.8175 19.9338 44.5721 19.6922 44.2766 19.5275C43.982 19.355 43.6466 19.2644 43.3052 19.2651Z" fill="#A4A4A4"/>
<path d="M48.6797 22.6347L49.0652 22.4038C49.3375 22.9033 49.6515 23.1534 50.0073 23.1542C50.1575 23.154 50.3053 23.1166 50.4375 23.0453C50.5643 22.9812 50.6701 22.8822 50.7424 22.7599C50.8128 22.6455 50.8505 22.5141 50.8513 22.3798C50.8486 22.2179 50.7944 22.0612 50.6967 21.9322C50.474 21.6524 50.2117 21.4066 49.918 21.2025C49.539 20.9165 49.3033 20.7095 49.2112 20.5818C49.0557 20.3835 48.9709 20.1389 48.9705 19.8869C48.9674 19.696 49.0163 19.5077 49.1121 19.3423C49.2069 19.1796 49.3454 19.0464 49.5117 18.9579C49.6838 18.8643 49.8768 18.816 50.0726 18.8174C50.2836 18.8161 50.4911 18.871 50.6738 18.9764C50.9088 19.1289 51.11 19.328 51.2652 19.5613L50.8949 19.8423C50.7774 19.6684 50.6299 19.5168 50.4593 19.3946C50.3407 19.3228 50.2047 19.2851 50.0661 19.2857C49.8999 19.2791 49.738 19.3391 49.6163 19.4524C49.5023 19.558 49.4388 19.7075 49.442 19.8629C49.442 19.9621 49.4632 20.0601 49.5041 20.1504C49.5599 20.2644 49.6363 20.3671 49.7296 20.4533C49.7884 20.511 49.9844 20.6624 50.3155 20.9073C50.7097 21.1971 50.9787 21.4519 51.1247 21.6817C51.2625 21.8831 51.3383 22.1205 51.3425 22.3645C51.3441 22.6912 51.2076 23.0032 50.9668 23.2238C50.7243 23.4637 50.395 23.5949 50.0541 23.5876C49.7879 23.5912 49.5267 23.5154 49.3037 23.3698C49.0397 23.1784 48.8256 22.9263 48.6797 22.6347Z" fill="#A4A4A4"/>
<path d="M54.8262 18.9371H55.7334C56.0851 18.9242 56.4373 18.9471 56.7844 19.0057C57.0337 19.0636 57.2571 19.2016 57.4204 19.3989C57.7474 19.844 57.7501 20.4494 57.4269 20.8974C57.2562 21.1003 57.0222 21.24 56.7626 21.2938C56.5567 21.344 56.1712 21.3679 55.607 21.3679H55.2803V23.4807H54.8262V18.9371ZM55.2803 19.3825V20.9235L56.0492 20.9334C56.28 20.9445 56.511 20.9159 56.7321 20.8485C56.8719 20.7959 56.991 20.6996 57.0719 20.5739C57.1541 20.4481 57.1973 20.3007 57.196 20.1503C57.1971 20.0017 57.1539 19.856 57.0718 19.7321C56.9945 19.6098 56.88 19.5155 56.7451 19.4631C56.5306 19.3986 56.3067 19.3714 56.0829 19.3825H55.2803Z" fill="#A4A4A4"/>
<path d="M61.0391 18.9375H61.4932V23.4811H61.0391V18.9375Z" fill="#A4A4A4"/>
<path d="M64.6133 19.3829V18.9375H67.1029V19.3829H66.0901V23.4811H65.6272V19.3829H64.6133Z" fill="#A4A4A4"/>
<path d="M71.634 18.9375L73.7523 23.4811H73.2621L72.5477 21.9869H70.5874L69.8795 23.4811H69.373L71.525 18.9375H71.634ZM71.5763 19.9036L70.7975 21.548H72.3506L71.5763 19.9036Z" fill="#A4A4A4"/>
<path d="M76.9844 18.9375H77.4385V23.0433H79.1865V23.479H76.9844V18.9375Z" fill="#A4A4A4"/>
<path d="M82.373 18.9375H82.8271V23.4811H82.373V18.9375Z" fill="#A4A4A4"/>
<path d="M85.9473 19.3829V18.9375H88.4368V19.3829H87.4261V23.4811H86.9623V19.3829H85.9473Z" fill="#A4A4A4"/>
<path d="M91.2617 18.9375H91.7812L92.9443 20.8118L94.0879 18.9375H94.6128L93.1742 21.3106V23.4811H92.7266V21.3106L91.2617 18.9375Z" fill="#A4A4A4"/>
<path d="M34.2598 12.2165L35.131 11.6904C35.7489 12.8274 36.4626 13.3956 37.2722 13.3948C37.6138 13.3975 37.9508 13.3148 38.2523 13.1541C38.5411 13.0064 38.7821 12.7799 38.9472 12.5007C39.1034 12.2397 39.1862 11.9413 39.1868 11.6371C39.1794 11.2691 39.0563 10.9128 38.835 10.6187C38.5126 10.1591 37.9231 9.60664 37.0663 8.96126C36.2096 8.31575 35.6734 7.84706 35.4578 7.55519C35.106 7.10341 34.9144 6.5475 34.9132 5.97493C34.9095 5.54341 35.0224 5.11909 35.2399 4.74641C35.4565 4.37739 35.7713 4.07576 36.1493 3.8752C36.5401 3.66231 36.9785 3.55208 37.4235 3.55501C37.9028 3.5536 38.3739 3.67866 38.7893 3.91768C39.2118 4.15944 39.6598 4.60273 40.1332 5.24739L39.2913 5.88563C38.9025 5.37263 38.5714 5.03181 38.2981 4.86848C38.0275 4.7057 37.7175 4.62056 37.4018 4.62227C37.0245 4.60786 36.6572 4.7447 36.3813 5.00239C36.122 5.24263 35.9777 5.58229 35.9849 5.93574C35.9847 6.16096 36.0322 6.38362 36.1243 6.58912C36.253 6.84688 36.4267 7.07966 36.6372 7.27638C36.7723 7.40852 37.2166 7.7527 37.9703 8.30879C38.864 8.96809 39.4772 9.55513 39.8097 10.0698C40.1241 10.5273 40.2975 11.0668 40.3085 11.6218C40.3119 12.3634 40.0023 13.072 39.4558 13.5734C38.9047 14.1188 38.1562 14.4178 37.3811 14.4023C36.7753 14.408 36.1816 14.2332 35.6756 13.9002C35.1586 13.564 34.6867 13.0028 34.2598 12.2165ZM45.3989 3.81306H46.4303V10.048C46.4195 10.5092 46.4337 10.9705 46.4727 11.4301C46.5088 11.7942 46.6313 12.1445 46.8299 12.4517C47.0518 12.7536 47.3498 12.991 47.6936 13.14C48.0589 13.319 48.4597 13.4139 48.8665 13.4177C49.2053 13.4179 49.5399 13.3435 49.8467 13.1999C50.1513 13.0618 50.42 12.8553 50.6319 12.5965C50.8508 12.3223 51.0086 12.0045 51.0948 11.6643C51.1674 11.4007 51.2037 10.8624 51.2037 10.0492V3.81306H52.2296V10.048C52.2296 10.9694 52.1392 11.7144 51.9584 12.2829C51.7606 12.8779 51.3831 13.3969 50.8781 13.7684C50.3158 14.1965 49.6241 14.4194 48.9177 14.4C48.0849 14.4 47.3712 14.2011 46.7766 13.8033C46.2051 13.4346 45.7832 12.875 45.5862 12.2241C45.4592 11.8211 45.396 11.095 45.3967 10.046L45.3989 3.81306ZM57.6598 14.1409V3.81306H57.8841L64.7541 11.7297V3.81306H65.7723V14.1409H65.5382L58.7216 6.32124V14.1409H57.6598ZM70.0906 12.2165L70.9684 11.6904C71.5862 12.8274 72.2999 13.3956 73.1095 13.3948C73.4511 13.3973 73.788 13.3146 74.0897 13.1541C74.3784 13.0064 74.6194 12.7799 74.7845 12.5007C74.94 12.2394 75.0224 11.9411 75.023 11.637C75.0155 11.2693 74.8929 10.9132 74.6723 10.6187C74.3485 10.1591 73.7586 9.60664 72.9026 8.96126C72.0465 8.31575 71.5107 7.84382 71.2951 7.54536C70.9433 7.09358 70.7517 6.53767 70.7505 5.96516C70.7468 5.5337 70.8597 5.10927 71.0773 4.73665C71.2933 4.36714 71.6082 4.06532 71.9867 3.86543C72.3745 3.65699 72.8086 3.54951 73.2489 3.55281C73.7281 3.5514 74.1992 3.67647 74.6146 3.91548C75.0372 4.1573 75.4855 4.60048 75.9596 5.24519L75.1167 5.88344C74.7279 5.37043 74.3968 5.02961 74.1234 4.86622C73.8533 4.70344 73.5436 4.61824 73.2282 4.62007C72.8506 4.60542 72.4828 4.74226 72.2066 5.0002C71.9474 5.24092 71.8036 5.58101 71.8113 5.93464C71.8117 6.15974 71.8591 6.3824 71.9507 6.58809C72.0798 6.84565 72.2535 7.07832 72.4637 7.27528C72.6002 7.40742 73.0449 7.75154 73.7978 8.30775C74.6916 8.96699 75.3047 9.55403 75.6372 10.0688C75.9509 10.5266 76.1238 11.0659 76.135 11.6207C76.1389 12.3625 75.8291 13.0713 75.2822 13.5723C74.7327 14.1168 73.9863 14.4157 73.213 14.4011C72.6067 14.4068 72.0126 14.2316 71.5064 13.898C70.9938 13.5633 70.5218 13.0028 70.0906 12.2165ZM80.1689 4.8249V3.81306H85.8278V4.8249H83.5244V14.1408H82.4723V4.8249H80.1689ZM100.614 3.81306H102.67C103.818 3.81306 104.595 3.85994 105.002 3.95356C105.588 4.0782 106.114 4.39668 106.496 4.8575C106.887 5.33784 107.092 5.94301 107.072 6.56196C107.083 7.08387 106.946 7.59822 106.676 8.0453C106.406 8.47615 106.011 8.81349 105.542 9.0113C105.05 9.22908 104.371 9.34022 103.506 9.34449L107.221 14.1365H105.945L102.23 9.34449H101.648V14.1365H100.615L100.614 3.81306ZM101.647 4.8249V8.33064L103.424 8.3459C104.113 8.3459 104.622 8.27943 104.949 8.14985C105.267 8.02742 105.538 7.80696 105.723 7.52034C105.908 7.2325 106.004 6.8965 106 6.55427C106.003 6.21882 105.905 5.89021 105.719 5.61116C105.542 5.33662 105.284 5.1241 104.98 5.00349C104.675 4.88154 104.169 4.82087 103.462 4.82161L101.647 4.8249ZM88.6714 14.1408L97.7467 6.97688L88.2477 12.7708L88.6714 14.1408ZM97.4679 14.1408L92.652 3.81306H92.3993L87.5159 14.1408H88.667L92.5256 6.00758L96.3559 14.1408H97.4679Z" fill="#A4A4A4"/>
</svg>
