<svg width="34" height="43" viewBox="0 0 34 43" fill="none" xmlns="http://www.w3.org/2000/svg">
<path d="M0.150921 0.266281C-0.0503071 0.532841 -0.0503071 6.36574 0.150921 6.63229C0.23378 6.74205 0.577052 6.82045 0.920324 6.82045H1.55952L1.52401 8.1846L1.4885 9.56442L0.872976 9.61146C0.541541 9.64282 0.210106 9.75258 0.139084 9.86234C0.0443886 10.0035 0.0207147 14.7231 0.0325517 26.0439L0.0680626 42.0217L11.9524 42.0687C20.6289 42.0844 23.8722 42.053 23.9906 41.9276C24.1208 41.7865 24.1563 40.9868 24.1563 38.086V34.417H24.9257H25.6951L25.7188 38.2115L25.7543 42.0217L29.6486 42.0687C32.4185 42.1001 33.5904 42.053 33.6969 41.9276C33.9218 41.6767 33.9455 10.1289 33.7206 9.83098C33.5193 9.56442 26.0384 9.56442 25.8371 9.83098C25.7306 9.9721 25.6951 11.0383 25.6951 13.6725V17.3259H24.9257H24.1563V13.6725C24.1563 11.0383 24.1208 9.9721 24.0142 9.83098C23.9314 9.72122 23.5881 9.64282 23.2448 9.64282H22.6175V8.23164V6.82045H23.1975C24.1445 6.82045 24.1563 6.77341 24.1563 3.51201C24.1563 1.86562 24.1089 0.564198 24.0379 0.376041C23.9196 0.078125 23.6591 0.078125 12.1063 0.078125C3.07465 0.078125 0.257454 0.125164 0.150921 0.266281ZM23.091 3.37089V5.40927H12.0234H0.955835V3.48065C0.955835 2.41442 0.991346 1.48931 1.03869 1.44227C1.0742 1.37955 6.05757 1.33251 12.1063 1.33251H23.091V3.37089ZM21.6469 8.1846L21.6113 9.56442L12.0589 9.61146L2.49464 9.64282V8.23164V6.82045H12.0826H21.6824L21.6469 8.1846ZM23.091 25.8715V40.8457L20.9366 40.8143L18.7705 40.7673L18.735 36.6905C18.7113 33.0842 18.6876 32.5981 18.5101 32.4099C18.3562 32.2688 16.8766 32.2218 12.0826 32.2218C6.64942 32.2218 5.83267 32.2531 5.59593 32.4727C5.33551 32.7079 5.33551 32.7549 5.33551 36.7846V40.8457H3.14567H0.955835V25.8715V10.8972H12.0234H23.091V25.8715ZM32.7973 25.8715V40.8457H29.7197H26.6421V25.8715V10.8972H29.7197H32.7973V25.8715ZM25.6951 25.8558C25.6951 29.7757 25.6596 33.0215 25.6122 33.0528C25.5531 33.0999 25.2098 33.0842 24.8428 33.0528L24.1563 32.9744V25.8558V18.7371H24.9257H25.6951V25.8558ZM11.5854 37.1923L11.5499 40.7673L8.9813 40.8143L6.40084 40.8457V37.2393V33.633H9.00497H11.6091L11.5854 37.1923ZM17.7643 37.2393V40.8457H15.1602H12.5561V37.2393V33.633H15.1602H17.7643V37.2393Z" fill="white"/>
<path d="M5.45431 13.5467C5.38329 13.7348 5.33594 15.0676 5.33594 16.7767C5.33594 18.4858 5.38329 19.8186 5.45431 20.0068C5.57268 20.289 5.72656 20.3047 8.03477 20.3047C9.79847 20.3047 10.5324 20.2576 10.6389 20.1165C10.8401 19.85 10.8401 13.7035 10.6389 13.4369C10.5324 13.2958 9.79847 13.2488 8.03477 13.2488C5.72656 13.2488 5.57268 13.2644 5.45431 13.5467ZM9.83399 15.2871V16.0711H8.11762H6.40126V15.2871V14.5031H8.11762H9.83399V15.2871ZM9.81031 18.2193L9.7748 18.9719L8.09395 19.0189L6.40126 19.066V18.2663V17.4823H8.12946H9.84582L9.81031 18.2193Z" fill="white"/>
<path d="M13.384 13.5467C13.313 13.7348 13.2656 15.0833 13.2656 16.8394C13.2656 19.3325 13.3011 19.85 13.455 20.0538C13.6089 20.2733 14.0114 20.3047 15.9881 20.3047C17.2784 20.3047 18.4147 20.2576 18.5212 20.2106C18.687 20.1322 18.7106 19.6775 18.7106 16.7767C18.7106 13.876 18.687 13.4212 18.5212 13.3428C18.4147 13.2958 17.2547 13.2488 15.9289 13.2488C13.6562 13.2488 13.5024 13.2644 13.384 13.5467ZM17.7637 15.2871V16.0711H16.0473H14.331V15.2871V14.5031H16.0473H17.7637V15.2871ZM17.7637 18.2663V19.0503H16.0473H14.331V18.2663V17.4823H16.0473H17.7637V18.2663Z" fill="white"/>
<path d="M5.47798 23.159C5.37145 23.3001 5.33594 24.2095 5.33594 26.436C5.33594 29.0389 5.35961 29.572 5.52533 29.7759C5.78574 30.1208 10.4377 30.1522 10.6507 29.8072C10.7454 29.6661 10.7809 28.5999 10.7573 26.3263L10.7218 23.0492L8.17681 23.0022C6.29473 22.9708 5.58451 23.0178 5.47798 23.159ZM9.83399 25.0092V25.7932H8.11762H6.40126V25.0092V24.2252H8.11762H9.83399V25.0092ZM9.81031 27.8629L9.84582 28.6155H8.12946H6.40126V27.8316V27.0319L8.09395 27.0789L9.7748 27.126L9.81031 27.8629Z" fill="white"/>
<path d="M13.3831 23.284C13.3003 23.5036 13.2648 24.6482 13.2884 26.6709C13.3121 29.1797 13.3595 29.7441 13.5015 29.8696C13.5962 29.948 14.7562 30.0264 16.0583 30.0264C17.9404 30.0264 18.473 29.9793 18.5796 29.8068C18.6743 29.6657 18.7098 28.5995 18.6861 26.3259L18.6506 23.0488L16.082 23.0018C13.5962 22.9704 13.5134 22.9704 13.3831 23.284ZM17.7628 25.0088V25.7928H16.0465H14.3301V25.0088V24.2248H16.0465H17.7628V25.0088ZM17.7391 27.8626L17.7747 28.6152H16.0583H14.3301V27.8312V27.0315L16.0228 27.0786L17.7036 27.1256L17.7391 27.8626Z" fill="white"/>
<path d="M28.2045 12.1826C28.1098 12.308 28.0625 12.9822 28.0625 14.1896C28.0625 16.1182 28.1335 16.3848 28.6188 16.3848C28.9266 16.3848 29.1278 15.9614 29.1278 15.3029C29.1278 14.8325 29.1397 14.8168 29.7197 14.8168C30.2997 14.8168 30.3115 14.8325 30.3115 15.3029C30.3115 15.9614 30.5128 16.3848 30.8205 16.3848C31.3058 16.3848 31.3769 16.1182 31.3769 14.2993C31.3769 12.4334 31.2822 11.9944 30.8442 11.9944C30.5128 11.9944 30.3115 12.4021 30.3115 13.0763C30.3115 13.5467 30.2997 13.5624 29.7197 13.5624C29.1397 13.5624 29.1278 13.5467 29.1278 13.0763C29.1278 12.8098 29.0686 12.4648 29.0095 12.2923C28.8674 11.9631 28.4176 11.9003 28.2045 12.1826Z" fill="white"/>
<path d="M28.8784 17.9996C28.3102 18.5013 28.1681 18.9717 28.2155 20.0536C28.251 20.8847 28.2984 21.0258 28.689 21.4962C29.0559 21.9509 29.2098 22.0293 29.6833 22.0293C30.3935 22.0293 30.9143 21.6216 31.1747 20.8847C31.4351 20.1634 31.4233 19.5989 31.1392 18.8149C30.7131 17.6546 29.6833 17.2783 28.8784 17.9996ZM30.1331 19.1442C30.2515 19.3167 30.3106 19.5989 30.287 19.9752C30.2633 20.43 30.1923 20.5711 29.9319 20.6808C29.2808 20.9787 28.8547 19.8812 29.3637 19.2069C29.6478 18.8306 29.8727 18.8149 30.1331 19.1442Z" fill="white"/>
<path d="M28.8896 23.5199C28.6528 23.8962 28.8422 24.5078 29.221 24.5705C29.5406 24.6175 29.5406 24.6175 29.5998 26.1071L29.659 27.5967H30.0733H30.4876L30.5467 26.1071L30.6059 24.6175L30.961 24.5391C31.3517 24.445 31.5055 23.9119 31.257 23.5042C31.0439 23.1906 29.0908 23.1906 28.8896 23.5199Z" fill="white"/>
<path d="M28.6772 29.1173C28.5825 29.2428 28.5352 30.0111 28.5352 31.5163C28.5352 33.0216 28.5825 33.7899 28.6772 33.9154C28.7601 34.0251 29.1625 34.1035 29.6833 34.1035C30.4172 34.1035 30.5593 34.0565 30.6658 33.7899C30.8789 33.2725 30.6303 32.8805 30.0503 32.8178C29.6833 32.7864 29.5295 32.6923 29.5058 32.4885C29.4703 32.2847 29.5413 32.2219 29.8135 32.2219C30.3817 32.2219 30.5474 32.0808 30.5474 31.5791C30.5474 31.0773 30.2752 30.8108 29.778 30.8108C29.5413 30.8108 29.4703 30.748 29.5058 30.5285C29.5295 30.3404 29.6715 30.2463 30.0148 30.2149C30.4409 30.1679 30.7842 29.87 30.7842 29.5407C30.7842 29.478 30.7013 29.3055 30.5948 29.18C30.3699 28.8665 28.8903 28.8351 28.6772 29.1173Z" fill="white"/>
<path d="M28.8903 35.6564C28.7127 36.1112 28.7364 39.153 28.9258 39.498C29.1388 39.89 30.867 39.8116 31.0683 39.3882C31.2932 38.9335 31.0209 38.5729 30.3817 38.5259L29.8372 38.4788V37.2244C29.8372 36.5345 29.778 35.8289 29.7189 35.6564C29.5531 35.2645 29.056 35.2645 28.8903 35.6564Z" fill="white"/>
</svg>
