<svg width="525" height="183" viewBox="0 0 525 183" fill="none" xmlns="http://www.w3.org/2000/svg">
<path d="M478.956 146.968C484.567 146.968 489.121 141.914 489.121 135.679C489.121 129.444 484.567 124.391 478.956 124.391C473.345 124.391 468.791 129.444 468.791 135.679C468.791 141.914 473.345 146.968 478.956 146.968Z" fill="#FDC114" stroke="#FDC114" stroke-width="3" stroke-linecap="round" stroke-linejoin="round"/>
<path d="M522.123 121.135C520.682 116.235 517.56 112.174 513.444 109.845C509.327 107.515 504.552 107.107 500.167 108.71C498.601 109.206 497.115 109.973 495.762 110.983C496.509 108.073 496.64 105.009 496.147 102.032C495.654 99.0559 494.549 96.2482 492.92 93.8306C491.29 91.413 489.181 89.4515 486.758 88.1007C484.334 86.75 481.664 86.0469 478.956 86.0469C476.249 86.0469 473.578 86.75 471.155 88.1007C468.732 89.4515 466.622 91.413 464.993 93.8306C463.363 96.2482 462.258 99.0559 461.765 102.032C461.272 105.009 461.404 108.073 462.15 110.983C460.801 109.946 459.315 109.153 457.745 108.634C455.579 107.843 453.293 107.537 451.021 107.733C448.748 107.93 446.532 108.625 444.5 109.778C442.467 110.932 440.658 112.522 439.175 114.458C437.692 116.393 436.565 118.636 435.857 121.059C435.15 123.481 434.876 126.036 435.052 128.577C435.227 131.118 435.849 133.595 436.881 135.868C437.913 138.14 439.335 140.163 441.066 141.821C442.797 143.479 444.804 144.739 446.971 145.53C448.558 146.054 450.196 146.359 451.85 146.439C450.587 147.572 449.449 148.869 448.462 150.303C447.112 152.356 446.141 154.689 445.605 157.165C445.069 159.642 444.977 162.213 445.337 164.729C445.696 167.245 446.499 169.656 447.698 171.823C448.898 173.989 450.47 175.868 452.324 177.35C456.071 180.377 460.734 181.629 465.302 180.835C469.87 180.04 473.973 177.263 476.72 173.107C477.671 171.62 478.424 169.987 478.956 168.258C479.512 170.001 480.28 171.617 481.26 173.107C482.962 175.684 485.202 177.757 487.785 179.143C490.367 180.53 493.215 181.188 496.077 181.061C498.94 180.934 501.732 180.025 504.208 178.414C506.685 176.803 508.771 174.539 510.284 171.819C512.09 168.556 512.982 164.764 512.845 160.93C512.709 157.096 511.55 153.395 509.518 150.303C508.531 148.869 507.393 147.572 506.13 146.439C507.761 146.353 509.376 146.048 510.942 145.53C513.113 144.756 515.126 143.51 516.864 141.863C518.603 140.216 520.033 138.201 521.073 135.933C522.112 133.666 522.74 131.191 522.92 128.651C523.1 126.111 522.829 123.557 522.123 121.135Z" stroke="white" stroke-opacity="0.44" stroke-width="3" stroke-linecap="round" stroke-linejoin="round"/>
<path d="M63.7445 88.3728C71.4619 88.3728 77.7253 81.4225 77.7253 72.8466C77.7253 64.2707 71.4619 57.3203 63.7445 57.3203C56.0271 57.3203 49.7637 64.2707 49.7637 72.8466C49.7637 81.4225 56.0271 88.3728 63.7445 88.3728Z" fill="#FDC114" stroke="#FDC114" stroke-width="4.12622" stroke-linecap="round" stroke-linejoin="round"/>
<path d="M122.829 51.2599C120.847 44.5203 116.554 38.9355 110.892 35.7314C105.23 32.5274 98.6625 31.9661 92.6308 34.1706C90.4778 34.8527 88.4336 35.9075 86.5725 37.2967C87.5993 33.2946 87.7806 29.0805 87.1021 24.9866C86.4237 20.8928 84.904 17.031 82.6629 13.7058C80.4218 10.3805 77.5205 7.68269 74.1877 5.82486C70.8549 3.96703 67.1817 3 63.4576 3C59.7335 3 56.0602 3.96703 52.7274 5.82486C49.3946 7.68269 46.4933 10.3805 44.2522 13.7058C42.0111 17.031 40.4915 20.8928 39.813 24.9866C39.1346 29.0805 39.3159 33.2946 40.3426 37.2967C38.4874 35.871 36.4429 34.7809 34.2843 34.0664C31.3039 32.9785 28.161 32.5576 25.0351 32.8277C21.9092 33.0977 18.8614 34.0535 16.0659 35.6404C13.2703 37.2272 10.7818 39.4142 8.7422 42.0763C6.70264 44.7384 5.15206 47.8236 4.17899 51.1557C3.20592 54.4878 2.82941 58.0015 3.07097 61.4963C3.31252 64.9911 4.1674 68.3984 5.58681 71.5238C7.00622 74.6492 8.96235 77.4314 11.3435 79.7116C13.7247 81.9919 16.4842 83.7254 19.4647 84.8133C21.6477 85.5339 23.9013 85.9538 26.1754 86.0637C24.4383 87.6214 22.8738 89.4055 21.5152 91.3781C19.6595 94.2025 18.324 97.4109 17.5862 100.817C16.8484 104.223 16.723 107.759 17.2172 111.22C17.7114 114.68 18.8155 117.997 20.4653 120.977C22.1151 123.957 24.2778 126.541 26.8279 128.579C31.9811 132.742 38.3953 134.464 44.6777 133.372C50.9601 132.279 56.6033 128.46 60.3818 122.743C61.6895 120.698 62.7255 118.451 63.4576 116.074C64.2218 118.471 65.2782 120.694 66.6265 122.743C68.9668 126.288 72.0477 129.138 75.6002 131.045C79.1526 132.952 83.0687 133.858 87.0063 133.683C90.9439 133.508 94.7834 132.258 98.1895 130.043C101.596 127.827 104.465 124.713 106.546 120.972C109.03 116.484 110.256 111.268 110.069 105.995C109.881 100.721 108.288 95.6313 105.493 91.3781C104.135 89.4055 102.57 87.6214 100.833 86.0637C103.076 85.9455 105.298 85.5256 107.45 84.8133C110.437 83.7491 113.205 82.035 115.597 79.7698C117.988 77.5045 119.955 74.7328 121.385 71.6141C122.814 68.4955 123.678 65.0916 123.926 61.5983C124.173 58.1051 123.801 54.5915 122.829 51.2599Z" stroke="white" stroke-opacity="0.44" stroke-width="4.12622" stroke-linecap="round" stroke-linejoin="round"/>
<path d="M201.075 132.804V150.986C201.075 152.528 201.656 153.946 202.817 155.24C203.979 156.534 205.258 157.177 206.656 157.171H340.691C342.082 157.171 343.362 156.527 344.529 155.24C345.697 153.953 346.278 152.535 346.272 150.986V132.804H201.075ZM237.374 36.4926V20.2413C237.374 15.6153 238.775 11.7536 241.576 8.65616C244.377 5.55876 247.865 4.0067 252.039 4H295.317C299.491 4 302.979 5.55205 305.78 8.65616C308.581 11.7603 309.979 15.622 309.973 20.2413V36.4926H340.691C344.865 36.4926 348.35 38.0446 351.145 41.1487C353.94 44.2528 355.34 48.1179 355.347 52.7439V150.986C355.347 155.612 353.946 159.477 351.145 162.581C348.344 165.685 344.859 167.234 340.691 167.227H206.656C202.481 167.227 198.997 165.678 196.202 162.581C193.407 159.484 192.006 155.615 192 150.976V52.7439C192 48.1112 193.401 44.2461 196.202 41.1487C199.003 38.0513 202.487 36.4993 206.656 36.4926H237.374ZM201.075 111.142H346.272V52.7338C346.272 51.1918 345.691 49.7739 344.529 48.4799C343.368 47.186 342.088 46.5424 340.691 46.5491H309.973V57.7721C309.973 59.2002 309.54 60.3935 308.675 61.3522C307.81 62.3177 306.73 62.8004 305.435 62.8004C304.14 62.8004 303.061 62.3177 302.195 61.3522C301.33 60.3868 300.898 59.1935 300.898 57.7721V46.5491H246.449V57.7721C246.449 59.2002 246.016 60.3935 245.151 61.3522C244.286 62.3177 243.206 62.8004 241.911 62.8004C240.617 62.8004 239.537 62.3177 238.672 61.3522C237.807 60.3868 237.374 59.1935 237.374 57.7721V46.5491H206.665C205.267 46.5491 203.985 47.1927 202.817 48.4799C201.65 49.7672 201.069 51.1885 201.075 52.7439V111.142ZM246.449 36.4926H300.898V20.2413C300.898 18.6993 300.317 17.2813 299.155 15.9874C297.994 14.6934 296.714 14.0498 295.317 14.0565H252.03C250.638 14.0565 249.359 14.7001 248.191 15.9874C247.024 17.2746 246.443 18.6926 246.449 20.2413V36.4926ZM201.075 150.986V46.5491H206.665C205.267 46.5491 203.985 47.1927 202.817 48.4799C201.65 49.7672 201.069 51.1885 201.075 52.7439V150.986ZM201.075 150.986C201.075 152.528 201.656 153.946 202.817 155.24C203.979 156.534 205.258 157.177 206.656 157.171H201.075V150.986Z" fill="white" fill-opacity="0.44"/>
</svg>
