<svg width="139" height="139" viewBox="0 0 139 139" fill="none" xmlns="http://www.w3.org/2000/svg">
<path d="M101.354 25.168C105.913 25.168 110.387 25.661 114.778 26.6465L115.655 26.8506C120.321 27.9703 124.8 29.65 129.097 31.8916L129.146 31.916L129.194 31.9385C129.801 32.2144 130.23 32.5822 130.535 33.0479L130.659 33.2539C131.034 33.9352 131.208 34.6184 131.208 35.3301V105.12C131.208 106.554 130.694 107.56 129.569 108.333L129.336 108.484C128.158 109.209 127.028 109.301 125.714 108.692L125.448 108.561C121.98 106.688 118.358 105.21 114.582 104.126L113.823 103.914C109.743 102.806 105.585 102.251 101.354 102.251C95.6998 102.251 90.217 103.18 84.9141 105.036L83.8555 105.419C78.7307 107.341 73.9449 109.975 69.499 113.312C65.0533 109.975 60.2681 107.341 55.1436 105.419C49.5128 103.307 43.6761 102.251 37.6455 102.251C33.6788 102.251 29.7759 102.739 25.9414 103.713L25.1758 103.914C21.1262 105.014 17.2502 106.563 13.5508 108.561C12.2106 109.263 11.0698 109.261 9.89746 108.621L9.66309 108.484C8.37557 107.692 7.79103 106.65 7.79102 105.12V35.3301C7.79108 34.6184 7.96514 33.9352 8.33984 33.2539C8.65024 32.6895 9.11002 32.2538 9.80371 31.9385L9.85352 31.916L9.90137 31.8916C13.9293 29.7901 18.1183 28.1818 22.4707 27.0664L23.3428 26.8506C28.0146 25.7294 32.7815 25.168 37.6455 25.168C43.0694 25.168 48.3721 25.869 53.5576 27.2705C58.7372 28.6704 63.7121 30.7713 68.4854 33.5791L69.499 34.1758L70.5137 33.5791C75.2869 30.7714 80.2618 28.6704 85.4414 27.2705C90.6271 25.869 95.9296 25.168 101.354 25.168ZM101.354 77.293C103.76 77.293 106.116 77.4777 108.422 77.8467C110.255 78.14 112.059 78.4916 113.833 78.8984V83.7979C112.597 83.4229 111.353 83.1059 110.102 82.8467L109.172 82.665C106.678 82.207 104.071 81.9805 101.354 81.9805C97.7654 81.9805 94.2971 82.3789 90.9531 83.1807L90.2861 83.3467C87.8098 83.9834 85.4082 84.8424 83.083 85.9219V80.6895C85.7569 79.6364 88.4803 78.8294 91.2539 78.2666C94.4433 77.6195 97.8086 77.293 101.354 77.293ZM101.354 61.3662C103.76 61.3662 106.116 61.551 108.422 61.9199C110.255 62.2133 112.059 62.5638 113.833 62.9707V67.8711C112.291 67.4034 110.737 67.0258 109.172 66.7383C106.678 66.2803 104.071 66.0537 101.354 66.0537C97.517 66.0537 93.817 66.5335 90.2598 67.499C87.7939 68.1683 85.4014 69.023 83.083 70.0625V64.7627C85.5644 63.7855 88.0881 63.0198 90.6553 62.4648L91.2539 62.3398C94.4433 61.6927 97.8086 61.3662 101.354 61.3662ZM101.354 45.4385C103.459 45.4385 105.526 45.5807 107.555 45.8633L108.422 45.9932C110.255 46.2865 112.059 46.6371 113.833 47.0439V51.9443C112.291 51.4767 110.738 51.0981 109.172 50.8105C106.678 50.3525 104.071 50.126 101.354 50.126C97.7568 50.126 94.2803 50.5482 90.9287 51.3965L90.2598 51.5713C87.7938 52.2406 85.4015 53.0962 83.083 54.1357V48.8359C85.5644 47.8587 88.0881 47.093 90.6553 46.5381L91.2539 46.4121C94.4433 45.765 97.8086 45.4385 101.354 45.4385ZM65.708 40.5547L64.7178 39.9756C60.8591 37.7169 56.7783 35.9861 52.4785 34.7861L51.6152 34.5537C47.0123 33.353 42.3544 32.751 37.6455 32.751C34.0399 32.751 30.4588 33.102 26.9053 33.8027C23.3447 34.5048 19.9061 35.5582 16.5928 36.9639L15.374 37.4814V98.9434L18.0234 98.0352C20.8972 97.0499 23.7463 96.2822 26.5713 95.7305L27.7803 95.5068C30.9941 94.9479 34.2822 94.668 37.6455 94.668C42.0319 94.668 46.2939 95.1577 50.4346 96.1348C54.5824 97.1135 58.7197 98.584 62.8467 100.554L65.708 101.92V40.5547ZM123.624 37.4814L122.405 36.9639C119.092 35.5582 115.653 34.5048 112.093 33.8027C108.539 33.1021 104.959 32.751 101.354 32.751C96.9388 32.751 92.5689 33.2795 88.2471 34.335L87.3828 34.5537C82.7655 35.7583 78.3961 37.5663 74.2803 39.9756L73.291 40.5547V101.92L76.1523 100.554C80.2794 98.584 84.4165 97.1135 88.5645 96.1348C92.7052 95.1577 96.9671 94.668 101.354 94.668C104.296 94.668 107.181 94.8825 110.01 95.3105L111.219 95.5068C114.439 96.067 117.691 96.9091 120.976 98.0352L123.624 98.9434V37.4814Z" fill="#058FA2" stroke="white" stroke-width="4"/>
<rect x="21.9473" y="56.0859" width="32.9211" height="3.37652" rx="1.38462" fill="#FDC114"/>
<rect x="21.9473" y="64.5273" width="32.9211" height="3.37652" rx="1.38462" fill="#FDC114"/>
<rect x="21.9473" y="73.8164" width="32.9211" height="3.37652" rx="1.38462" fill="#FDC114"/>
</svg>
