<svg width="72" height="72" viewBox="0 0 72 72" fill="none" xmlns="http://www.w3.org/2000/svg">
<path d="M61.5023 27.8V59.3C61.5023 59.7 61.2023 60.1 60.7023 60.1H48.5023C48.6023 59.6 48.7023 59.1 48.6023 58.6V50.6C48.6023 43.6 43.0023 38 36.0023 38C29.0023 38 23.4023 43.6 23.4023 50.6V58.6C23.4023 59.1 23.4023 59.6 23.5023 60.1H11.2023C10.8023 60.1 10.4023 59.8 10.4023 59.3V27.8C10.4023 27.4 10.7023 27 11.2023 27H60.7023C61.2023 27 61.5023 27.3 61.5023 27.8Z" fill="white" stroke="#058FA2" stroke-width="1.7" stroke-linecap="round" stroke-linejoin="round"/>
<path d="M65.2008 24.6002V17.7002H6.80078V26.9002H65.2008V24.6002Z" fill="white" stroke="#058FA2" stroke-width="1.7" stroke-linecap="round" stroke-linejoin="round"/>
<path d="M13.1993 24.5999C12.8993 24.6999 12.4993 24.4999 12.2993 24.2999C12.0993 24.0999 11.9993 23.6999 11.9993 23.3999V21.1999C11.8993 20.8999 12.0993 20.4999 12.2993 20.2999C12.4993 19.9999 12.8993 19.8999 13.1993 19.8999C13.4993 19.8999 13.7993 19.9999 13.9993 20.2999C14.1993 20.5999 14.2993 20.7999 14.1993 21.0999V23.2999C14.1993 23.5999 14.1993 23.8999 13.9993 24.0999C13.7993 24.4999 13.4993 24.5999 13.1993 24.5999ZM22.3993 24.5999C22.0993 24.6999 21.6993 24.4999 21.4993 24.2999C21.2993 24.0999 21.1993 23.6999 21.1993 23.3999V21.1999C21.0993 20.8999 21.2993 20.4999 21.4993 20.2999C21.6993 20.0999 22.0993 19.9999 22.3993 19.9999C22.6993 19.9999 22.9993 20.0999 23.1993 20.3999C23.3993 20.5999 23.4993 20.8999 23.3993 21.1999V23.3999C23.3993 23.6999 23.3993 23.9999 23.1993 24.1999C22.8993 24.4999 22.6993 24.5999 22.3993 24.5999ZM31.4993 24.5999C31.1993 24.6999 30.7993 24.4999 30.5993 24.2999C30.3993 24.0999 30.2993 23.6999 30.2993 23.3999V21.1999C30.1993 20.8999 30.3993 20.4999 30.5993 20.2999C30.7993 20.0999 31.1993 19.9999 31.4993 19.9999C31.7993 19.9999 32.0993 20.0999 32.2993 20.3999C32.4993 20.6999 32.5993 20.8999 32.4993 21.1999V23.3999C32.4993 23.6999 32.4993 23.9999 32.2993 24.1999C32.0993 24.4999 31.7993 24.5999 31.4993 24.5999ZM40.4993 24.5999C40.1993 24.5999 39.8993 24.4999 39.6993 24.1999C39.4993 23.9999 39.3993 23.6999 39.4993 23.3999V21.1999C39.4993 20.8999 39.4993 20.5999 39.6993 20.3999C39.8993 20.1999 40.1993 19.9999 40.4993 19.9999C40.7993 19.8999 41.1993 20.0999 41.3993 20.2999C41.5993 20.4999 41.6993 20.8999 41.6993 21.1999V23.3999C41.7993 23.6999 41.5993 24.0999 41.3993 24.2999C41.1993 24.4999 40.7993 24.6999 40.4993 24.5999ZM49.6993 24.5999C49.3993 24.5999 49.0993 24.4999 48.8993 24.1999C48.6993 23.9999 48.5993 23.6999 48.6993 23.3999V21.1999C48.6993 20.8999 48.6993 20.5999 48.8993 20.3999C49.0993 20.1999 49.3993 19.9999 49.6993 19.9999C49.9993 19.8999 50.3993 20.0999 50.5993 20.2999C50.7993 20.4999 50.8993 20.8999 50.8993 21.1999V23.3999C50.9993 23.6999 50.7993 24.0999 50.5993 24.2999C50.2993 24.4999 49.9993 24.6999 49.6993 24.5999ZM58.7993 24.5999C58.4993 24.5999 58.1993 24.4999 57.9993 24.1999C57.7993 23.9999 57.6993 23.6999 57.7993 23.3999V21.1999C57.7993 20.8999 57.7993 20.5999 57.9993 20.3999C58.1993 20.1999 58.4993 19.9999 58.7993 19.9999C59.0993 19.8999 59.4993 20.0999 59.6993 20.2999C59.8993 20.4999 59.9993 20.8999 59.9993 21.1999V23.3999C60.0993 23.6999 59.8993 24.0999 59.6993 24.2999C59.4993 24.4999 59.0993 24.6999 58.7993 24.5999Z" fill="#FDC114"/>
<path d="M44.5008 12H27.5008H10.3008V17.7H61.7008V12H44.5008Z" fill="white" stroke="#058FA2" stroke-width="1.7" stroke-linecap="round" stroke-linejoin="round"/>
</svg>
