<svg width="78" height="52" viewBox="0 0 78 52" fill="none" xmlns="http://www.w3.org/2000/svg">
<path fill-rule="evenodd" clip-rule="evenodd" d="M74.6759 1.29168C72.3682 3.60382 71.8436 5.91021 70.993 17.4755C70.3698 25.9524 70.3801 27.6953 71.0608 28.9758C71.7036 30.1839 71.7874 32.3983 71.482 40.0811L71.1004 49.6776L72.6127 50.6706C73.7617 51.425 74.4934 51.5337 75.6585 51.1243L77.1926 50.5849L77.5427 38.5223C78.2503 14.1381 78.1355 1.08007 77.2069 0.308399C76.5142 -0.267768 76.0539 -0.0889382 74.6759 1.29168ZM0.382806 0.679859C0.172177 0.890315 0 4.59227 0 8.90547C0 16.368 0.0694446 16.843 1.43481 18.6968L2.86961 20.6456V35.7513C2.86961 50.0979 2.92528 50.8874 3.97958 51.4526C5.55672 52.2979 6.15876 52.2025 7.46099 50.8978C8.5503 49.8064 8.60884 48.9812 8.60884 34.6903C8.60884 19.8664 8.62892 19.6123 9.90016 18.2581C11.0853 16.9959 11.207 16.2404 11.3809 9.08315C11.5272 3.05698 11.397 1.17322 10.807 0.798888C9.90475 0.225597 0.937789 0.123243 0.382806 0.679859ZM32.7136 1.3808C27.8461 2.9575 24.9995 4.62965 21.9032 7.73186C15.1734 14.4745 12.6458 25.3785 15.7622 34.2223C18.0969 40.8476 24.3785 47.2705 30.9918 49.7949C35.0638 51.3486 41.4051 51.8373 45.4024 50.9046C54.8159 48.7098 62.7326 40.9126 64.8406 31.7601C66.1618 26.0249 65.2171 18.7566 62.441 13.2963C60.9058 10.2769 56.5503 5.69975 53.5177 3.91893C47.4605 0.36245 39.0319 -0.666253 32.7136 1.3808ZM4.95812 2.42043C4.75667 2.62284 4.59138 5.09541 4.59138 7.91529C4.59138 11.7604 4.41174 12.9829 3.87398 12.8047C3.39131 12.6442 3.10205 10.9341 2.99071 7.5812C2.73876 0.00823938 1.72177 1.50961 1.72177 9.45461C1.72177 16.0857 1.7694 16.3508 3.15657 17.4439L4.59138 18.5749V34.1613C4.59138 47.6328 4.70846 49.7477 5.45226 49.7477C6.19607 49.7477 6.31315 47.6506 6.31315 34.3223V18.8975L7.74795 17.5468C9.12881 16.2473 9.18276 15.9276 9.18276 9.0751C9.18276 4.47382 8.97959 2.07945 8.60884 2.30888C8.29318 2.50439 8.03491 4.97753 8.03491 7.80546C8.03491 11.9922 7.87479 12.9467 7.17403 12.9467C6.47327 12.9467 6.31315 11.9922 6.31315 7.80546C6.31315 3.08343 5.90738 1.46993 4.95812 2.42043ZM32.9931 3.02248C23.8057 6.31214 18.0631 13.0404 16.5823 22.251C15.4041 29.5819 17.8857 36.9732 23.3931 42.5353C32.1689 51.398 45.8575 51.8897 55.4415 43.6859C68.3352 32.649 65.527 12.133 50.0753 4.48244C46.335 2.63031 45.1998 2.34741 40.8409 2.18123C37.1351 2.04035 35.1378 2.25425 32.9931 3.02248ZM74.5158 4.7527C73.8529 6.39207 72.4118 20.162 72.3498 25.4533C72.3148 28.4319 72.3372 28.4721 74.036 28.4721H75.7578V15.8218C75.7578 8.86407 75.6223 3.1714 75.4565 3.1714C75.2912 3.1714 74.8676 3.8827 74.5158 4.7527ZM33.5745 11.9634C28.334 14.4797 24.6787 20.2149 24.6787 25.9231C24.6787 33.818 31.9692 41.1225 39.8492 41.1225C43.1538 41.1225 47.6172 39.4107 50.0558 37.2089C53.625 33.9848 56.5641 26.7471 54.304 26.7471C53.8425 26.7471 53.2376 27.8339 52.8583 29.345C51.4883 34.7956 45.7961 39.0582 39.8876 39.0582C32.4226 39.0582 26.8068 33.4236 26.7574 25.8845C26.7304 21.7283 28.1268 18.7152 31.4917 15.67C35.3347 12.1911 41.0946 11.4856 46.1049 13.8794C47.5994 14.5935 48.4 14.7108 48.831 14.279C49.2621 13.8472 48.8138 13.279 47.305 12.3446C44.0164 10.3085 37.4048 10.1251 33.5745 11.9634ZM51.653 17.1891C51.653 18.4611 53.3403 22.1469 53.9223 22.1469C54.9909 22.1469 54.995 21.1815 53.9378 18.8153C52.8875 16.4646 51.653 15.586 51.653 17.1891ZM73.7915 32.641C73.6285 33.6685 73.423 37.7443 73.3352 41.6975C73.178 48.769 73.1958 48.8881 74.4664 49.0692L75.7578 49.2526V40.0127C75.7578 32.3104 75.6189 30.7722 74.9227 30.7722C74.4245 30.7722 73.9688 31.5249 73.7915 32.641Z" fill="#058FA2"/>
<circle cx="40" cy="26" r="14.5" stroke="#FDC114" stroke-width="3"/>
</svg>
