<svg width="80" height="80" viewBox="0 0 80 80" fill="none" xmlns="http://www.w3.org/2000/svg">
<path d="M52.0378 51.4972C51.6927 51.1652 51.8294 50.716 52.3503 50.4946C52.8711 50.2733 53.5677 50.3644 53.9193 50.6899C56.3802 53.0337 55.1953 54.9347 54.056 56.7576C53.1966 58.1379 52.3698 59.4595 53.8932 60.7876C54.2643 61.1131 54.1536 61.5623 53.6523 61.7967C53.151 62.0311 52.4414 61.966 52.0703 61.6405C49.8112 59.6678 50.8594 57.9816 51.9596 56.2238C52.8776 54.7459 53.8411 53.2095 52.0378 51.4972ZM9.48568 36.354H57.4349C58.0599 36.354 58.5677 36.8618 58.5677 37.4868V45.4686H74.2773C75.2279 45.4686 76.0937 45.078 76.7187 44.453C77.3437 43.828 77.7344 42.9621 77.7344 42.0116V23.7824C77.7344 22.8319 77.3437 21.966 76.7187 21.341C76.0937 20.716 75.2279 20.3254 74.2773 20.3254H5.72917C4.77865 20.3254 3.91276 20.716 3.28776 21.341C2.65625 21.966 2.26562 22.8319 2.26562 23.7824V42.0116C2.26562 42.9621 2.65625 43.828 3.28125 44.453C3.90625 45.078 4.77214 45.4686 5.72266 45.4686H8.34635V37.4868C8.35286 36.8618 8.86068 36.354 9.48568 36.354ZM56.3021 38.6196H10.6185V45.1886H56.3021V38.6196ZM9.90234 26.9334C9.27734 26.9334 8.76953 26.4256 8.76953 25.8006C8.76953 25.1756 9.27734 24.6678 9.90234 24.6678H70.931C71.556 24.6678 72.0638 25.1756 72.0638 25.8006C72.0638 26.4256 71.556 26.9334 70.931 26.9334H9.90234ZM64.1797 38.88C65.0651 38.88 65.7812 39.5962 65.7812 40.4816C65.7812 41.367 65.0651 42.0832 64.1797 42.0832C63.2943 42.0832 62.5781 41.367 62.5781 40.4816C62.5781 39.5962 63.3008 38.88 64.1797 38.88ZM70.8659 38.88C71.7513 38.88 72.4674 39.5962 72.4674 40.4816C72.4674 41.367 71.7513 42.0832 70.8659 42.0832C69.9805 42.0832 69.2643 41.367 69.2643 40.4816C69.2643 39.5962 69.9805 38.88 70.8659 38.88ZM5.72917 18.0532H74.2773C75.8529 18.0532 77.2852 18.6978 78.3203 19.7329C79.3555 20.7681 80 22.2004 80 23.7759V42.0116C80 43.5871 79.3555 45.0194 78.3203 46.0545C77.2852 47.0897 75.8529 47.7342 74.2773 47.7342H5.72917C4.15365 47.7342 2.72135 47.0897 1.6862 46.0545C0.644531 45.0194 0 43.5871 0 42.0116V23.7824C0 22.2069 0.644531 20.7746 1.67969 19.7394C2.72135 18.6978 4.15365 18.0532 5.72917 18.0532ZM9.90234 32.2199C9.27734 32.2199 8.76953 31.7121 8.76953 31.0871C8.76953 30.4621 9.27734 29.9543 9.90234 29.9543H70.931C71.556 29.9543 72.0638 30.4621 72.0638 31.0871C72.0638 31.7121 71.556 32.2199 70.931 32.2199H9.90234ZM13.9128 51.4972C13.5677 51.1652 13.7044 50.716 14.2253 50.4946C14.7461 50.2733 15.4427 50.3644 15.7943 50.6899C18.2552 53.0337 17.0703 54.9347 15.931 56.7576C15.0716 58.1379 14.2448 59.4595 15.7682 60.7876C16.1393 61.1131 16.0286 61.5623 15.5273 61.7967C15.026 62.0311 14.3164 61.966 13.9453 61.6405C11.6862 59.6678 12.7344 57.9816 13.8346 56.2238C14.7526 54.7459 15.7096 53.2095 13.9128 51.4972ZM23.444 51.4972C23.099 51.1652 23.2357 50.716 23.7565 50.4946C24.2773 50.2733 24.974 50.3644 25.3255 50.6899C27.7865 53.0337 26.6016 54.9347 25.4622 56.7576C24.6029 58.1379 23.776 59.4595 25.2995 60.7876C25.6706 61.1131 25.5599 61.5623 25.0586 61.7967C24.5573 62.0311 23.8477 61.966 23.4766 61.6405C21.2174 59.6678 22.2656 57.9816 23.3659 56.2238C24.2839 54.7459 25.2409 53.2095 23.444 51.4972ZM32.9753 51.4972C32.6302 51.1652 32.7669 50.716 33.2878 50.4946C33.8086 50.2733 34.5052 50.3644 34.8568 50.6899C37.3177 53.0337 36.1328 54.9347 34.9935 56.7576C34.1341 58.1379 33.3073 59.4595 34.8307 60.7876C35.2018 61.1131 35.0911 61.5623 34.5898 61.7967C34.0885 62.0311 33.3789 61.966 33.0078 61.6405C30.7487 59.6678 31.7969 57.9816 32.8971 56.2238C33.8151 54.7459 34.7786 53.2095 32.9753 51.4972ZM42.5065 51.4972C42.1615 51.1652 42.2982 50.716 42.819 50.4946C43.3398 50.2733 44.0365 50.3644 44.388 50.6899C46.849 53.0337 45.6641 54.9347 44.5247 56.7576C43.6654 58.1379 42.8385 59.4595 44.362 60.7876C44.7331 61.1131 44.6224 61.5623 44.1211 61.7967C43.6198 62.0311 42.9102 61.966 42.5391 61.6405C40.2799 59.6678 41.3346 57.9816 42.4284 56.2238C43.3464 54.7459 44.3099 53.2095 42.5065 51.4972Z" fill="#058FA2"/>
</svg>
