<svg width="72" height="72" viewBox="0 0 72 72" fill="none" xmlns="http://www.w3.org/2000/svg">
<path d="M15.3281 59.2025H56.6702V47.2886H15.3281V59.2025ZM16.3406 48.3014H55.6577V58.19H16.3406V48.3014Z" fill="#058FA2"/>
<path d="M58.6171 9.42285H13.3813C12.5938 9.42285 11.9531 10.0637 11.9531 10.851V43.498C11.9531 43.6424 11.9751 43.782 12.0153 43.9135H11.9531V62.5774H60.0452V43.9135H59.9832C60.0233 43.7819 60.0452 43.6424 60.0452 43.498V35.3631V25.4631V10.851C60.0452 10.0637 59.4045 9.42285 58.6171 9.42285ZM12.9656 10.851C12.9656 10.6218 13.1521 10.4354 13.3813 10.4354H35.1478V15.5631H12.9656V10.851ZM19.5666 19.9506C20.0628 19.9506 20.4666 20.3543 20.4666 20.8506V31.9529C20.4666 31.9724 20.4508 31.9881 20.4314 31.9881H18.7017C18.6823 31.9881 18.6666 31.9722 18.6666 31.9529V20.8506C18.6666 20.3543 19.0703 19.9506 19.5666 19.9506ZM12.9656 16.5756H18.8814V19.0672C18.1648 19.3434 17.6541 20.0376 17.6541 20.8506V31.9529C17.6541 32.5306 18.1239 33.0006 18.7017 33.0006H20.4314C21.0091 33.0006 21.4791 32.5306 21.4791 31.9529V20.8506C21.4791 19.9079 20.7928 19.1243 19.8941 18.9682V16.5756H27.516V19.0108C26.7117 19.2369 26.1198 19.9751 26.1198 20.8506V31.9529C26.1198 32.5306 26.5898 33.0006 27.1675 33.0006H28.8972C29.4749 33.0006 29.9448 32.5306 29.9448 31.9529V20.8506C29.9448 19.9679 29.3428 19.225 28.5285 19.0056V16.5756H35.148V25.4631H35.1474V35.3631H35.148V43.9135H30.8453C30.9497 43.6911 31.0099 43.4436 31.0099 43.1819C31.0099 42.9256 30.9524 42.6831 30.852 42.4641H31.2337C32.1878 42.4641 32.964 41.6877 32.964 40.7337C32.964 39.7797 32.1878 39.0033 31.2337 39.0033H30.6488C30.7492 38.7842 30.8067 38.5418 30.8067 38.2856C30.8067 37.3314 30.0303 36.5552 29.0763 36.5552H18.137C17.1828 36.5552 16.4066 37.3314 16.4066 38.2856C16.4066 39.2396 17.1828 40.016 18.137 40.016H18.7218C18.6214 40.2349 18.5639 40.4775 18.5639 40.7337C18.5639 40.9899 18.6214 41.2325 18.7218 41.4515H18.3402C17.386 41.4515 16.6098 42.2279 16.6098 43.1819C16.6098 43.4436 16.67 43.6911 16.7743 43.9135H13.3813C13.1521 43.9135 12.9656 43.7272 12.9656 43.498V16.5756ZM28.0322 19.9506C28.5285 19.9506 28.9322 20.3543 28.9322 20.8506V31.9529C28.9322 31.9724 28.9164 31.9881 28.897 31.9881H27.1673C27.1479 31.9881 27.1322 31.9722 27.1322 31.9529V20.8506C27.1322 20.3543 27.5359 19.9506 28.0322 19.9506ZM29.2795 41.4516H20.2942C19.8983 41.4516 19.5764 41.1296 19.5764 40.7339C19.5764 40.338 19.8984 40.0161 20.2942 40.0161H29.0763H31.2335C31.6294 40.0161 31.9513 40.338 31.9513 40.7339C31.9513 41.1296 31.6292 41.4516 31.2335 41.4516H29.2795ZM29.9974 43.1819C29.9974 43.5776 29.6754 43.8996 29.2797 43.8996H18.3403C17.9445 43.8996 17.6226 43.5776 17.6226 43.1819C17.6226 42.7861 17.9446 42.4641 18.3403 42.4641H20.2944H29.2798C29.6754 42.4641 29.9974 42.7861 29.9974 43.1819ZM18.137 39.0033C17.7411 39.0033 17.4192 38.6813 17.4192 38.2856C17.4192 37.8899 17.7413 37.5677 18.137 37.5677H29.0763C29.472 37.5677 29.7941 37.8899 29.7941 38.2856C29.7941 38.6813 29.472 39.0033 29.0763 39.0033H20.2942H18.137ZM59.0327 61.5649H12.9656V44.9263H13.3813H58.6171H59.0327V61.5649ZM59.0327 43.498C59.0327 43.7272 58.8464 43.9135 58.6171 43.9135H36.1603V35.3631H59.0325V43.498H59.0327ZM59.0327 34.3506H36.1603V26.4756H59.0325V34.3506H59.0327ZM59.0327 25.4631H36.1603V10.4354H58.617C58.8462 10.4354 59.0325 10.6218 59.0325 10.851V25.4631H59.0327Z" fill="#058FA2"/>
<path d="M38.0734 52.7393H33.4609V53.7519H38.0734V52.7393Z" fill="#058FA2"/>
</svg>
