<svg width="44" height="36" viewBox="0 0 44 36" fill="none" xmlns="http://www.w3.org/2000/svg">
<path d="M39.7088 12.3056V34.1806C39.7088 34.4583 39.5004 34.7361 39.1532 34.7361H30.681C30.7504 34.3889 30.8199 34.0417 30.7504 33.6944V28.1389C30.7504 23.2778 26.8615 19.3889 22.0004 19.3889C17.1393 19.3889 13.2504 23.2778 13.2504 28.1389V33.6944C13.2504 34.0417 13.2504 34.3889 13.3199 34.7361H4.77821C4.50043 34.7361 4.22266 34.5278 4.22266 34.1806V12.3056C4.22266 12.0278 4.43099 11.75 4.77821 11.75H39.1532C39.5004 11.75 39.7088 11.9583 39.7088 12.3056Z" fill="white" stroke="#4C4C4C" stroke-width="1.7" stroke-linecap="round" stroke-linejoin="round"/>
<path d="M42.2782 10.0837V5.29199H1.72266V11.6809H42.2782V10.0837Z" fill="white" stroke="#4C4C4C" stroke-width="1.7" stroke-linecap="round" stroke-linejoin="round"/>
<path d="M6.16821 10.0837C5.95988 10.1532 5.6821 10.0143 5.54321 9.87538C5.40432 9.73649 5.33488 9.45871 5.33488 9.25038V7.7226C5.26543 7.51427 5.40432 7.23649 5.54321 7.0976C5.6821 6.88927 5.95988 6.81982 6.16821 6.81982C6.37654 6.81982 6.58488 6.88927 6.72377 7.0976C6.86266 7.30594 6.9321 7.44482 6.86266 7.65316V9.18094C6.86266 9.38927 6.86266 9.5976 6.72377 9.73649C6.58488 10.0143 6.37654 10.0837 6.16821 10.0837ZM12.5571 10.0837C12.3488 10.1532 12.071 10.0143 11.9321 9.87538C11.7932 9.73649 11.7238 9.45871 11.7238 9.25038V7.7226C11.6543 7.51427 11.7932 7.23649 11.9321 7.0976C12.071 6.95871 12.3488 6.88927 12.5571 6.88927C12.7654 6.88927 12.9738 6.95871 13.1127 7.16705C13.2515 7.30594 13.321 7.51427 13.2515 7.7226V9.25038C13.2515 9.45871 13.2515 9.66705 13.1127 9.80594C12.9043 10.0143 12.7654 10.0837 12.5571 10.0837ZM18.8765 10.0837C18.6682 10.1532 18.3904 10.0143 18.2515 9.87538C18.1127 9.73649 18.0432 9.45871 18.0432 9.25038V7.7226C17.9738 7.51427 18.1127 7.23649 18.2515 7.0976C18.3904 6.95871 18.6682 6.88927 18.8765 6.88927C19.0849 6.88927 19.2932 6.95871 19.4321 7.16705C19.571 7.37538 19.6404 7.51427 19.571 7.7226V9.25038C19.571 9.45871 19.571 9.66705 19.4321 9.80594C19.2932 10.0143 19.0849 10.0837 18.8765 10.0837ZM25.1265 10.0837C24.9182 10.0837 24.7099 10.0143 24.571 9.80594C24.4321 9.66705 24.3627 9.45871 24.4321 9.25038V7.7226C24.4321 7.51427 24.4321 7.30594 24.571 7.16705C24.7099 7.02816 24.9182 6.88927 25.1265 6.88927C25.3349 6.81982 25.6127 6.95871 25.7515 7.0976C25.8904 7.23649 25.9599 7.51427 25.9599 7.7226V9.25038C26.0293 9.45871 25.8904 9.73649 25.7515 9.87538C25.6127 10.0143 25.3349 10.1532 25.1265 10.0837ZM31.5154 10.0837C31.3071 10.0837 31.0988 10.0143 30.9599 9.80594C30.821 9.66705 30.7515 9.45871 30.821 9.25038V7.7226C30.821 7.51427 30.821 7.30594 30.9599 7.16705C31.0988 7.02816 31.3071 6.88927 31.5154 6.88927C31.7238 6.81982 32.0015 6.95871 32.1404 7.0976C32.2793 7.23649 32.3488 7.51427 32.3488 7.7226V9.25038C32.4182 9.45871 32.2793 9.73649 32.1404 9.87538C31.9321 10.0143 31.7238 10.1532 31.5154 10.0837ZM37.8349 10.0837C37.6265 10.0837 37.4182 10.0143 37.2793 9.80594C37.1404 9.66705 37.071 9.45871 37.1404 9.25038V7.7226C37.1404 7.51427 37.1404 7.30594 37.2793 7.16705C37.4182 7.02816 37.6265 6.88927 37.8349 6.88927C38.0432 6.81982 38.321 6.95871 38.4599 7.0976C38.5988 7.23649 38.6682 7.51427 38.6682 7.7226V9.25038C38.7377 9.45871 38.5988 9.73649 38.4599 9.87538C38.321 10.0143 38.0432 10.1532 37.8349 10.0837Z" fill="#4C4C4C"/>
<path d="M27.9023 1.3335H16.0968H4.15234V5.29183H39.8468V1.3335H27.9023Z" fill="white" stroke="#4C4C4C" stroke-width="1.7" stroke-linecap="round" stroke-linejoin="round"/>
</svg>
