<svg width="83" height="106" viewBox="0 0 83 106" fill="none" xmlns="http://www.w3.org/2000/svg">
<path d="M77.7501 34.2346L77.7657 35.2188H78.75H80.625C80.8571 35.2188 81.0796 35.3109 81.2437 35.475C81.4078 35.6391 81.5 35.8617 81.5 36.0938V43.5938C81.5 43.8258 81.4078 44.0484 81.2437 44.2125C81.0796 44.3766 80.8571 44.4688 80.625 44.4688H75H74V45.4688V92.3438C74 95.5595 72.7225 98.6435 70.4487 100.917C68.1748 103.191 65.0908 104.469 61.875 104.469H20.625C17.4093 104.469 14.3252 103.191 12.0513 100.917C9.77745 98.6435 8.5 95.5595 8.5 92.3438V45.4688V44.4688H7.5H1.875C1.64293 44.4688 1.42037 44.3766 1.25628 44.2125C1.09219 44.0484 1 43.8258 1 43.5938V36.0938C1 35.8617 1.09219 35.6391 1.25628 35.475C1.42037 35.3109 1.64293 35.2188 1.875 35.2188H3.75H4.73427L4.74987 34.2346C5.04014 15.9299 21.213 1 41.25 1C61.287 1 77.4599 15.9299 77.7501 34.2346ZM74.0038 34.1367L75.9997 34.0254C75.572 16.6468 60.0911 2.75 41.25 2.75C22.4089 2.75 6.92522 16.7041 6.5752 34.0298L8.57124 34.1367C8.5902 33.9188 8.69009 33.7159 8.85124 33.5679L8.92509 33.5001L8.98402 33.419C9.62916 32.5311 11.0068 31.688 13.1481 30.9613C15.2508 30.2477 17.9283 29.6989 20.9701 29.2871C27.0493 28.464 34.4409 28.2063 41.2875 28.2063C48.1347 28.2063 55.5261 28.4593 61.6053 29.2801C64.6471 29.6907 67.3242 30.239 69.4265 30.9533C71.5673 31.6806 72.9445 32.5256 73.5898 33.4175L73.6492 33.4995L73.7238 33.5679C73.8849 33.7159 73.9848 33.9188 74.0038 34.1367ZM71.7533 35.4446L72.6306 34.6875L71.7533 33.9304C71.2593 33.504 70.3896 33.0725 69.1455 32.6551C67.8702 32.2274 66.1081 31.7846 63.7463 31.3836C59.022 30.5816 51.8424 29.9375 41.25 29.9375C30.6576 29.9375 23.478 30.5816 18.7537 31.3836C16.3919 31.7846 14.6298 32.2274 13.3545 32.6551C12.1104 33.0725 11.2407 33.504 10.7466 33.9304L9.86943 34.6875L10.7466 35.4446C11.2407 35.871 12.1104 36.3025 13.3545 36.7199C14.6298 37.1476 16.3919 37.5904 18.7537 37.9914C23.478 38.7934 30.6576 39.4375 41.25 39.4375C51.8424 39.4375 59.022 38.7934 63.7463 37.9914C66.1081 37.5904 67.8702 37.1476 69.1455 36.7199C70.3896 36.3025 71.2593 35.871 71.7533 35.4446ZM2.75 41.7188V42.7188H3.75H7.5H8.5V41.7188V37.9688V36.9688H7.5H3.75H2.75V37.9688V41.7188ZM11.6567 37.8614L10.25 37.2353V38.775V92.3438C10.25 95.0954 11.3431 97.7343 13.2888 99.68C15.2345 101.626 17.8734 102.719 20.625 102.719H61.875C63.2375 102.719 64.5866 102.45 65.8453 101.929C67.1041 101.408 68.2478 100.643 69.2112 99.68C70.1746 98.7166 70.9389 97.5728 71.4603 96.3141C71.9816 95.0553 72.25 93.7062 72.25 92.3438V38.775V37.2353L70.8433 37.8614C67.9264 39.1598 63.3543 40.0028 58.032 40.5124C52.7395 41.0191 46.812 41.1875 41.25 41.1875C35.688 41.1875 29.7605 41.0191 24.468 40.5124C19.1457 40.0028 14.5736 39.1598 11.6567 37.8614ZM78.75 42.7188H79.75V41.7188V37.9688V36.9688H78.75H75H74V37.9688V41.7188V42.7188H75H78.75ZM18.75 85.7188C18.5179 85.7188 18.2954 85.6266 18.1313 85.4625C17.9672 85.2984 17.875 85.0758 17.875 84.8438V71.7188C17.875 71.4867 17.9672 71.2641 18.1313 71.1C18.2954 70.9359 18.5179 70.8438 18.75 70.8438C18.9821 70.8438 19.2046 70.9359 19.3687 71.1C19.5328 71.2641 19.625 71.4867 19.625 71.7188V84.8438C19.625 85.0758 19.5328 85.2984 19.3687 85.4625C19.2046 85.6266 18.9821 85.7188 18.75 85.7188ZM18.75 65.0938C18.5179 65.0938 18.2954 65.0016 18.1313 64.8375C17.9672 64.6734 17.875 64.4508 17.875 64.2188V62.3438C17.875 62.1117 17.9672 61.8891 18.1313 61.725C18.2954 61.5609 18.5179 61.4688 18.75 61.4688C18.9821 61.4688 19.2046 61.5609 19.3687 61.725C19.5328 61.8891 19.625 62.1117 19.625 62.3438V64.2188C19.625 64.4508 19.5328 64.6734 19.3687 64.8375C19.2046 65.0016 18.9821 65.0938 18.75 65.0938Z" stroke="#058FA2" stroke-width="2"/>
<rect x="16.25" y="60.0938" width="5" height="6" rx="2.5" fill="#FDC114"/>
<rect x="16.25" y="68.0938" width="5" height="19" rx="2.5" fill="#FDC114"/>
<rect x="62.25" y="47.0938" width="5" height="42" rx="2.5" fill="#FDC114"/>
<rect x="2" y="36" width="8" height="8" stroke="#FDC114" stroke-width="4"/>
<rect x="73" y="36" width="8" height="8" stroke="#FDC114" stroke-width="4"/>
</svg>
