<svg width="74" height="74" viewBox="0 0 74 74" fill="none" xmlns="http://www.w3.org/2000/svg">
<mask id="path-1-outside-1_3304_8297" maskUnits="userSpaceOnUse" x="0" y="0" width="74" height="74" fill="black">
<rect fill="white" width="74" height="74"/>
<path fill-rule="evenodd" clip-rule="evenodd" d="M24.6153 1.20838C24.2711 1.35373 23.6375 1.85183 23.2073 2.31516L22.4252 3.15722L22.3347 13.3137L22.244 23.4702L21.0833 23.4721C19.135 23.4749 17.4909 24.1071 16.3126 25.3059C15.4631 26.1702 14.4832 28.1141 12.2625 33.3382C10.6512 37.1287 9.29895 40.2767 9.25765 40.3334C9.21604 40.3905 7.69642 39.4387 5.88051 38.2189C2.47147 35.9289 2.00591 35.739 1.36891 36.3769C0.507884 37.239 1.02099 37.8852 4.33555 40.1116L7.67796 42.3568L6.76031 43.1281C0.803234 48.1341 0.836086 48.059 2.37979 53.111L3.49643 56.7663L3.50113 63.6917C3.50613 71.3182 3.58122 71.6879 5.37241 72.8965C6.43179 73.6113 6.60074 73.6261 12.6367 73.5324L18.8165 73.4365L19.8386 72.4125C20.807 71.4423 20.8667 71.249 20.9712 68.7316L21.0814 66.0747H37.3188H53.5559L53.5606 68.3459C53.5659 70.9855 53.9369 71.8877 55.4318 72.8965C56.4912 73.6113 56.6602 73.6261 62.6961 73.5324L68.8759 73.4365L69.8981 72.4131L70.9202 71.3896L71.081 63.6416C71.2412 55.9248 71.2459 55.8806 72.2784 52.6825C73.743 48.1473 73.7154 48.0884 67.8128 43.1281L66.8951 42.3568L70.2375 40.1116C73.5521 37.8852 74.0652 37.239 73.2042 36.3769C72.5678 35.7397 72.1016 35.9289 68.7304 38.1935C65.8395 40.1358 65.4334 40.3234 65.1762 39.8382C65.0163 39.5368 63.6657 36.4004 62.1745 32.8682C60.6365 29.2252 59.0987 26.0562 58.6213 25.5453C57.4605 24.3025 55.5564 23.4852 53.8027 23.4771L52.3291 23.4702L52.2384 13.2946L52.1479 3.119L51.1255 2.09524L50.1027 1.07148L37.672 1.00757C30.8348 0.972486 24.9594 1.06271 24.6153 1.20838ZM25.1471 3.79692C24.6084 4.33637 24.6084 27.5671 25.1471 28.1066C25.6859 28.646 48.8872 28.646 49.426 28.1066C49.9647 27.5671 49.9647 4.33637 49.426 3.79692C48.8872 3.25747 25.6859 3.25747 25.1471 3.79692ZM32.6257 8.86435C32.3757 9.16571 32.2937 11.3489 32.3526 16.114C32.428 22.2118 32.4949 22.969 32.9846 23.2782C33.3829 23.5294 33.6813 23.5297 34.0796 23.2791C34.5014 23.0138 34.6484 22.4204 34.7191 20.6962L34.8111 18.4579H36.5491C38.6804 18.4579 40.1822 17.7825 41.2932 16.3236C41.9787 15.4239 42.1361 14.8866 42.1361 13.4456C42.1361 12.0046 41.9787 11.4673 41.2932 10.5676C40.0414 8.92418 38.7398 8.43329 35.6349 8.43329C33.7652 8.43329 32.8776 8.56048 32.6257 8.86435ZM34.7836 13.4456V15.9517H36.5184C38.6062 15.9517 39.7895 15.0451 39.7895 13.4456C39.7895 11.846 38.6062 10.9394 36.5184 10.9394H34.7836V13.4456ZM18.6707 26.5531C17.5406 27.2444 17.6097 27.1144 14.3046 34.7479L11.6592 40.8566L24.4729 40.9384C31.5203 40.9835 43.0478 40.9835 50.0892 40.9384L62.8919 40.8566L60.0229 34.1326C56.8147 26.6138 56.321 25.9763 53.7067 25.9763H52.3857L52.2227 27.4243C52.1019 28.4966 51.8063 29.1259 51.0814 29.8521L50.1027 30.832L37.6551 30.9203L25.2072 31.009L24.1337 30.2844C22.8644 29.4282 22.2797 28.3941 22.2734 26.9945C22.2687 26.0061 22.2299 25.9763 20.939 25.9776C20.2016 25.9782 19.1913 26.2345 18.6707 26.5531ZM6.99715 46.1931C5.24382 47.6639 3.8093 49.0126 3.8093 49.1902C3.8093 49.3681 4.65812 52.2176 5.69561 55.5229C7.35132 60.7974 7.71425 61.6567 8.6635 62.5505L9.74479 63.5686H37.1411C67.1044 63.5686 65.8473 63.645 66.8113 61.762C67.2703 60.8657 70.7638 49.7547 70.7638 49.1914C70.7638 49.0129 69.3293 47.6639 67.5759 46.1931L64.3881 43.5194H37.2865H10.185L6.99715 46.1931ZM23.8894 49.0586C23.3178 49.3405 22.473 50.0664 22.0122 50.6716C20.8129 52.2458 20.8148 54.8447 22.0165 56.422C23.6447 58.5597 23.6206 58.5563 37.2865 58.5563C50.9525 58.5563 50.9284 58.5597 52.5565 56.422C53.2421 55.5223 53.3994 54.985 53.3994 53.544C53.3994 52.1029 53.2421 51.5657 52.5565 50.666C50.9268 48.5264 50.9597 48.5307 37.2393 48.5389C26.4818 48.5451 24.797 48.6106 23.8894 49.0586ZM12.1004 50.0676C10.7078 50.6801 9.9103 51.9529 9.9103 53.5631C9.9103 54.8791 10.0561 55.2444 10.9331 56.1225C11.8135 57.004 12.1724 57.1466 13.5083 57.1466C14.8443 57.1466 15.2031 57.004 16.0836 56.1225C16.964 55.241 17.1063 54.8816 17.1063 53.544C17.1063 52.2242 16.9602 51.8436 16.1386 51.0206C15.1055 49.9862 13.2702 49.5532 12.1004 50.0676ZM59.6569 50.0676C58.2643 50.6801 57.4668 51.9529 57.4668 53.5631C57.4668 54.8791 57.6126 55.2444 58.4895 56.1225C59.37 57.004 59.7288 57.1466 61.0648 57.1466C62.4007 57.1466 62.7596 57.004 63.64 56.1225C64.5204 55.241 64.6628 54.8816 64.6628 53.544C64.6628 52.2242 64.5167 51.8436 63.6951 51.0206C62.662 49.9862 60.8267 49.5532 59.6569 50.0676ZM24.2883 51.8069C23.804 52.2915 23.5202 52.9337 23.5202 53.544C23.5202 54.1542 23.804 54.7964 24.2883 55.2811L25.0561 56.0501H37.2865H49.517L50.2848 55.2811C50.7691 54.7964 51.0529 54.1542 51.0529 53.544C51.0529 52.9337 50.7691 52.2915 50.2848 51.8069L49.517 51.0378H37.2865H25.0561L24.2883 51.8069ZM12.5822 52.7458C11.7509 53.7485 12.9717 55.2889 14.0558 54.6053C15.139 53.9221 14.7532 52.2909 13.5083 52.2909C13.2064 52.2909 12.7897 52.4955 12.5822 52.7458ZM60.1387 52.7458C59.3074 53.7485 60.5282 55.2889 61.6123 54.6053C62.6955 53.9221 62.3097 52.2909 61.0648 52.2909C60.7629 52.2909 60.3461 52.4955 60.1387 52.7458ZM68.1879 63.9721C68.0615 64.2803 67.2168 64.878 66.3107 65.3003C64.8145 65.998 64.267 66.0688 60.3608 66.0716L56.0588 66.0747V68.2049C56.0588 69.4442 56.2159 70.4924 56.4343 70.7111C57.0137 71.2913 67.748 71.2358 68.2333 70.65C68.4717 70.3624 68.5649 69.0514 68.5064 66.8125C68.4573 64.9423 68.314 63.6641 68.1879 63.9721ZM5.9994 67.06C5.9994 69.1896 6.13081 70.4668 6.37485 70.7111C6.90298 71.2399 17.6107 71.2399 18.1388 70.7111C18.3572 70.4924 18.5143 69.4442 18.5143 68.2049V66.0747L14.2123 66.0678C10.5651 66.0619 9.69692 65.9641 8.50801 65.4241C7.73678 65.0738 6.85667 64.5616 6.55256 64.286C6.02694 63.8098 5.9994 63.9479 5.9994 67.06Z"/>
</mask>
<path fill-rule="evenodd" clip-rule="evenodd" d="M24.6153 1.20838C24.2711 1.35373 23.6375 1.85183 23.2073 2.31516L22.4252 3.15722L22.3347 13.3137L22.244 23.4702L21.0833 23.4721C19.135 23.4749 17.4909 24.1071 16.3126 25.3059C15.4631 26.1702 14.4832 28.1141 12.2625 33.3382C10.6512 37.1287 9.29895 40.2767 9.25765 40.3334C9.21604 40.3905 7.69642 39.4387 5.88051 38.2189C2.47147 35.9289 2.00591 35.739 1.36891 36.3769C0.507884 37.239 1.02099 37.8852 4.33555 40.1116L7.67796 42.3568L6.76031 43.1281C0.803234 48.1341 0.836086 48.059 2.37979 53.111L3.49643 56.7663L3.50113 63.6917C3.50613 71.3182 3.58122 71.6879 5.37241 72.8965C6.43179 73.6113 6.60074 73.6261 12.6367 73.5324L18.8165 73.4365L19.8386 72.4125C20.807 71.4423 20.8667 71.249 20.9712 68.7316L21.0814 66.0747H37.3188H53.5559L53.5606 68.3459C53.5659 70.9855 53.9369 71.8877 55.4318 72.8965C56.4912 73.6113 56.6602 73.6261 62.6961 73.5324L68.8759 73.4365L69.8981 72.4131L70.9202 71.3896L71.081 63.6416C71.2412 55.9248 71.2459 55.8806 72.2784 52.6825C73.743 48.1473 73.7154 48.0884 67.8128 43.1281L66.8951 42.3568L70.2375 40.1116C73.5521 37.8852 74.0652 37.239 73.2042 36.3769C72.5678 35.7397 72.1016 35.9289 68.7304 38.1935C65.8395 40.1358 65.4334 40.3234 65.1762 39.8382C65.0163 39.5368 63.6657 36.4004 62.1745 32.8682C60.6365 29.2252 59.0987 26.0562 58.6213 25.5453C57.4605 24.3025 55.5564 23.4852 53.8027 23.4771L52.3291 23.4702L52.2384 13.2946L52.1479 3.119L51.1255 2.09524L50.1027 1.07148L37.672 1.00757C30.8348 0.972486 24.9594 1.06271 24.6153 1.20838ZM25.1471 3.79692C24.6084 4.33637 24.6084 27.5671 25.1471 28.1066C25.6859 28.646 48.8872 28.646 49.426 28.1066C49.9647 27.5671 49.9647 4.33637 49.426 3.79692C48.8872 3.25747 25.6859 3.25747 25.1471 3.79692ZM32.6257 8.86435C32.3757 9.16571 32.2937 11.3489 32.3526 16.114C32.428 22.2118 32.4949 22.969 32.9846 23.2782C33.3829 23.5294 33.6813 23.5297 34.0796 23.2791C34.5014 23.0138 34.6484 22.4204 34.7191 20.6962L34.8111 18.4579H36.5491C38.6804 18.4579 40.1822 17.7825 41.2932 16.3236C41.9787 15.4239 42.1361 14.8866 42.1361 13.4456C42.1361 12.0046 41.9787 11.4673 41.2932 10.5676C40.0414 8.92418 38.7398 8.43329 35.6349 8.43329C33.7652 8.43329 32.8776 8.56048 32.6257 8.86435ZM34.7836 13.4456V15.9517H36.5184C38.6062 15.9517 39.7895 15.0451 39.7895 13.4456C39.7895 11.846 38.6062 10.9394 36.5184 10.9394H34.7836V13.4456ZM18.6707 26.5531C17.5406 27.2444 17.6097 27.1144 14.3046 34.7479L11.6592 40.8566L24.4729 40.9384C31.5203 40.9835 43.0478 40.9835 50.0892 40.9384L62.8919 40.8566L60.0229 34.1326C56.8147 26.6138 56.321 25.9763 53.7067 25.9763H52.3857L52.2227 27.4243C52.1019 28.4966 51.8063 29.1259 51.0814 29.8521L50.1027 30.832L37.6551 30.9203L25.2072 31.009L24.1337 30.2844C22.8644 29.4282 22.2797 28.3941 22.2734 26.9945C22.2687 26.0061 22.2299 25.9763 20.939 25.9776C20.2016 25.9782 19.1913 26.2345 18.6707 26.5531ZM6.99715 46.1931C5.24382 47.6639 3.8093 49.0126 3.8093 49.1902C3.8093 49.3681 4.65812 52.2176 5.69561 55.5229C7.35132 60.7974 7.71425 61.6567 8.6635 62.5505L9.74479 63.5686H37.1411C67.1044 63.5686 65.8473 63.645 66.8113 61.762C67.2703 60.8657 70.7638 49.7547 70.7638 49.1914C70.7638 49.0129 69.3293 47.6639 67.5759 46.1931L64.3881 43.5194H37.2865H10.185L6.99715 46.1931ZM23.8894 49.0586C23.3178 49.3405 22.473 50.0664 22.0122 50.6716C20.8129 52.2458 20.8148 54.8447 22.0165 56.422C23.6447 58.5597 23.6206 58.5563 37.2865 58.5563C50.9525 58.5563 50.9284 58.5597 52.5565 56.422C53.2421 55.5223 53.3994 54.985 53.3994 53.544C53.3994 52.1029 53.2421 51.5657 52.5565 50.666C50.9268 48.5264 50.9597 48.5307 37.2393 48.5389C26.4818 48.5451 24.797 48.6106 23.8894 49.0586ZM12.1004 50.0676C10.7078 50.6801 9.9103 51.9529 9.9103 53.5631C9.9103 54.8791 10.0561 55.2444 10.9331 56.1225C11.8135 57.004 12.1724 57.1466 13.5083 57.1466C14.8443 57.1466 15.2031 57.004 16.0836 56.1225C16.964 55.241 17.1063 54.8816 17.1063 53.544C17.1063 52.2242 16.9602 51.8436 16.1386 51.0206C15.1055 49.9862 13.2702 49.5532 12.1004 50.0676ZM59.6569 50.0676C58.2643 50.6801 57.4668 51.9529 57.4668 53.5631C57.4668 54.8791 57.6126 55.2444 58.4895 56.1225C59.37 57.004 59.7288 57.1466 61.0648 57.1466C62.4007 57.1466 62.7596 57.004 63.64 56.1225C64.5204 55.241 64.6628 54.8816 64.6628 53.544C64.6628 52.2242 64.5167 51.8436 63.6951 51.0206C62.662 49.9862 60.8267 49.5532 59.6569 50.0676ZM24.2883 51.8069C23.804 52.2915 23.5202 52.9337 23.5202 53.544C23.5202 54.1542 23.804 54.7964 24.2883 55.2811L25.0561 56.0501H37.2865H49.517L50.2848 55.2811C50.7691 54.7964 51.0529 54.1542 51.0529 53.544C51.0529 52.9337 50.7691 52.2915 50.2848 51.8069L49.517 51.0378H37.2865H25.0561L24.2883 51.8069ZM12.5822 52.7458C11.7509 53.7485 12.9717 55.2889 14.0558 54.6053C15.139 53.9221 14.7532 52.2909 13.5083 52.2909C13.2064 52.2909 12.7897 52.4955 12.5822 52.7458ZM60.1387 52.7458C59.3074 53.7485 60.5282 55.2889 61.6123 54.6053C62.6955 53.9221 62.3097 52.2909 61.0648 52.2909C60.7629 52.2909 60.3461 52.4955 60.1387 52.7458ZM68.1879 63.9721C68.0615 64.2803 67.2168 64.878 66.3107 65.3003C64.8145 65.998 64.267 66.0688 60.3608 66.0716L56.0588 66.0747V68.2049C56.0588 69.4442 56.2159 70.4924 56.4343 70.7111C57.0137 71.2913 67.748 71.2358 68.2333 70.65C68.4717 70.3624 68.5649 69.0514 68.5064 66.8125C68.4573 64.9423 68.314 63.6641 68.1879 63.9721ZM5.9994 67.06C5.9994 69.1896 6.13081 70.4668 6.37485 70.7111C6.90298 71.2399 17.6107 71.2399 18.1388 70.7111C18.3572 70.4924 18.5143 69.4442 18.5143 68.2049V66.0747L14.2123 66.0678C10.5651 66.0619 9.69692 65.9641 8.50801 65.4241C7.73678 65.0738 6.85667 64.5616 6.55256 64.286C6.02694 63.8098 5.9994 63.9479 5.9994 67.06Z" fill="#098FA2"/>
<path fill-rule="evenodd" clip-rule="evenodd" d="M24.6153 1.20838C24.2711 1.35373 23.6375 1.85183 23.2073 2.31516L22.4252 3.15722L22.3347 13.3137L22.244 23.4702L21.0833 23.4721C19.135 23.4749 17.4909 24.1071 16.3126 25.3059C15.4631 26.1702 14.4832 28.1141 12.2625 33.3382C10.6512 37.1287 9.29895 40.2767 9.25765 40.3334C9.21604 40.3905 7.69642 39.4387 5.88051 38.2189C2.47147 35.9289 2.00591 35.739 1.36891 36.3769C0.507884 37.239 1.02099 37.8852 4.33555 40.1116L7.67796 42.3568L6.76031 43.1281C0.803234 48.1341 0.836086 48.059 2.37979 53.111L3.49643 56.7663L3.50113 63.6917C3.50613 71.3182 3.58122 71.6879 5.37241 72.8965C6.43179 73.6113 6.60074 73.6261 12.6367 73.5324L18.8165 73.4365L19.8386 72.4125C20.807 71.4423 20.8667 71.249 20.9712 68.7316L21.0814 66.0747H37.3188H53.5559L53.5606 68.3459C53.5659 70.9855 53.9369 71.8877 55.4318 72.8965C56.4912 73.6113 56.6602 73.6261 62.6961 73.5324L68.8759 73.4365L69.8981 72.4131L70.9202 71.3896L71.081 63.6416C71.2412 55.9248 71.2459 55.8806 72.2784 52.6825C73.743 48.1473 73.7154 48.0884 67.8128 43.1281L66.8951 42.3568L70.2375 40.1116C73.5521 37.8852 74.0652 37.239 73.2042 36.3769C72.5678 35.7397 72.1016 35.9289 68.7304 38.1935C65.8395 40.1358 65.4334 40.3234 65.1762 39.8382C65.0163 39.5368 63.6657 36.4004 62.1745 32.8682C60.6365 29.2252 59.0987 26.0562 58.6213 25.5453C57.4605 24.3025 55.5564 23.4852 53.8027 23.4771L52.3291 23.4702L52.2384 13.2946L52.1479 3.119L51.1255 2.09524L50.1027 1.07148L37.672 1.00757C30.8348 0.972486 24.9594 1.06271 24.6153 1.20838ZM25.1471 3.79692C24.6084 4.33637 24.6084 27.5671 25.1471 28.1066C25.6859 28.646 48.8872 28.646 49.426 28.1066C49.9647 27.5671 49.9647 4.33637 49.426 3.79692C48.8872 3.25747 25.6859 3.25747 25.1471 3.79692ZM32.6257 8.86435C32.3757 9.16571 32.2937 11.3489 32.3526 16.114C32.428 22.2118 32.4949 22.969 32.9846 23.2782C33.3829 23.5294 33.6813 23.5297 34.0796 23.2791C34.5014 23.0138 34.6484 22.4204 34.7191 20.6962L34.8111 18.4579H36.5491C38.6804 18.4579 40.1822 17.7825 41.2932 16.3236C41.9787 15.4239 42.1361 14.8866 42.1361 13.4456C42.1361 12.0046 41.9787 11.4673 41.2932 10.5676C40.0414 8.92418 38.7398 8.43329 35.6349 8.43329C33.7652 8.43329 32.8776 8.56048 32.6257 8.86435ZM34.7836 13.4456V15.9517H36.5184C38.6062 15.9517 39.7895 15.0451 39.7895 13.4456C39.7895 11.846 38.6062 10.9394 36.5184 10.9394H34.7836V13.4456ZM18.6707 26.5531C17.5406 27.2444 17.6097 27.1144 14.3046 34.7479L11.6592 40.8566L24.4729 40.9384C31.5203 40.9835 43.0478 40.9835 50.0892 40.9384L62.8919 40.8566L60.0229 34.1326C56.8147 26.6138 56.321 25.9763 53.7067 25.9763H52.3857L52.2227 27.4243C52.1019 28.4966 51.8063 29.1259 51.0814 29.8521L50.1027 30.832L37.6551 30.9203L25.2072 31.009L24.1337 30.2844C22.8644 29.4282 22.2797 28.3941 22.2734 26.9945C22.2687 26.0061 22.2299 25.9763 20.939 25.9776C20.2016 25.9782 19.1913 26.2345 18.6707 26.5531ZM6.99715 46.1931C5.24382 47.6639 3.8093 49.0126 3.8093 49.1902C3.8093 49.3681 4.65812 52.2176 5.69561 55.5229C7.35132 60.7974 7.71425 61.6567 8.6635 62.5505L9.74479 63.5686H37.1411C67.1044 63.5686 65.8473 63.645 66.8113 61.762C67.2703 60.8657 70.7638 49.7547 70.7638 49.1914C70.7638 49.0129 69.3293 47.6639 67.5759 46.1931L64.3881 43.5194H37.2865H10.185L6.99715 46.1931ZM23.8894 49.0586C23.3178 49.3405 22.473 50.0664 22.0122 50.6716C20.8129 52.2458 20.8148 54.8447 22.0165 56.422C23.6447 58.5597 23.6206 58.5563 37.2865 58.5563C50.9525 58.5563 50.9284 58.5597 52.5565 56.422C53.2421 55.5223 53.3994 54.985 53.3994 53.544C53.3994 52.1029 53.2421 51.5657 52.5565 50.666C50.9268 48.5264 50.9597 48.5307 37.2393 48.5389C26.4818 48.5451 24.797 48.6106 23.8894 49.0586ZM12.1004 50.0676C10.7078 50.6801 9.9103 51.9529 9.9103 53.5631C9.9103 54.8791 10.0561 55.2444 10.9331 56.1225C11.8135 57.004 12.1724 57.1466 13.5083 57.1466C14.8443 57.1466 15.2031 57.004 16.0836 56.1225C16.964 55.241 17.1063 54.8816 17.1063 53.544C17.1063 52.2242 16.9602 51.8436 16.1386 51.0206C15.1055 49.9862 13.2702 49.5532 12.1004 50.0676ZM59.6569 50.0676C58.2643 50.6801 57.4668 51.9529 57.4668 53.5631C57.4668 54.8791 57.6126 55.2444 58.4895 56.1225C59.37 57.004 59.7288 57.1466 61.0648 57.1466C62.4007 57.1466 62.7596 57.004 63.64 56.1225C64.5204 55.241 64.6628 54.8816 64.6628 53.544C64.6628 52.2242 64.5167 51.8436 63.6951 51.0206C62.662 49.9862 60.8267 49.5532 59.6569 50.0676ZM24.2883 51.8069C23.804 52.2915 23.5202 52.9337 23.5202 53.544C23.5202 54.1542 23.804 54.7964 24.2883 55.2811L25.0561 56.0501H37.2865H49.517L50.2848 55.2811C50.7691 54.7964 51.0529 54.1542 51.0529 53.544C51.0529 52.9337 50.7691 52.2915 50.2848 51.8069L49.517 51.0378H37.2865H25.0561L24.2883 51.8069ZM12.5822 52.7458C11.7509 53.7485 12.9717 55.2889 14.0558 54.6053C15.139 53.9221 14.7532 52.2909 13.5083 52.2909C13.2064 52.2909 12.7897 52.4955 12.5822 52.7458ZM60.1387 52.7458C59.3074 53.7485 60.5282 55.2889 61.6123 54.6053C62.6955 53.9221 62.3097 52.2909 61.0648 52.2909C60.7629 52.2909 60.3461 52.4955 60.1387 52.7458ZM68.1879 63.9721C68.0615 64.2803 67.2168 64.878 66.3107 65.3003C64.8145 65.998 64.267 66.0688 60.3608 66.0716L56.0588 66.0747V68.2049C56.0588 69.4442 56.2159 70.4924 56.4343 70.7111C57.0137 71.2913 67.748 71.2358 68.2333 70.65C68.4717 70.3624 68.5649 69.0514 68.5064 66.8125C68.4573 64.9423 68.314 63.6641 68.1879 63.9721ZM5.9994 67.06C5.9994 69.1896 6.13081 70.4668 6.37485 70.7111C6.90298 71.2399 17.6107 71.2399 18.1388 70.7111C18.3572 70.4924 18.5143 69.4442 18.5143 68.2049V66.0747L14.2123 66.0678C10.5651 66.0619 9.69692 65.9641 8.50801 65.4241C7.73678 65.0738 6.85667 64.5616 6.55256 64.286C6.02694 63.8098 5.9994 63.9479 5.9994 67.06Z" stroke="#058FA2" stroke-width="0.4" mask="url(#path-1-outside-1_3304_8297)"/>
<path fill-rule="evenodd" clip-rule="evenodd" d="M33.0515 8.86435C32.8015 9.16571 32.7195 11.3489 32.7784 16.114C32.8538 22.2118 32.9207 22.969 33.4103 23.2782C33.8086 23.5294 34.1071 23.5297 34.5054 23.2791C34.9271 23.0138 35.0742 22.4204 35.1449 20.6962L35.2369 18.4579H36.9749C39.1062 18.4579 40.608 17.7825 41.719 16.3236C42.4045 15.4239 42.5618 14.8866 42.5618 13.4456C42.5618 12.0046 42.4045 11.4673 41.719 10.5676C40.4672 8.92418 39.1656 8.43329 36.0607 8.43329C34.191 8.43329 33.3033 8.56048 33.0515 8.86435ZM35.2094 13.4456V15.9517H36.9442C39.032 15.9517 40.2153 15.0451 40.2153 13.4456C40.2153 11.846 39.032 10.9394 36.9442 10.9394H35.2094V13.4456ZM12.5262 50.0676C11.1336 50.6801 10.3361 51.9529 10.3361 53.5631C10.3361 54.8791 10.4819 55.2444 11.3589 56.1225C12.2393 57.004 12.5981 57.1466 13.9341 57.1466C15.2701 57.1466 15.6289 57.004 16.5093 56.1225C17.3898 55.241 17.5321 54.8816 17.5321 53.544C17.5321 52.2242 17.386 51.8436 16.5644 51.0206C15.5313 49.9862 13.696 49.5532 12.5262 50.0676ZM60.0826 50.0676C58.69 50.6801 57.8925 51.9529 57.8925 53.5631C57.8925 54.8791 58.0383 55.2444 58.9153 56.1225C59.7957 57.004 60.1546 57.1466 61.4906 57.1466C62.8265 57.1466 63.1854 57.004 64.0658 56.1225C64.9462 55.241 65.0886 54.8816 65.0886 53.544C65.0886 52.2242 64.9425 51.8436 64.1209 51.0206C63.0878 49.9862 61.2525 49.5532 60.0826 50.0676ZM13.008 52.7458C12.1767 53.7485 13.3975 55.2889 14.4816 54.6053C15.5648 53.9221 15.179 52.2909 13.9341 52.2909C13.6322 52.2909 13.2154 52.4955 13.008 52.7458ZM60.5645 52.7458C59.7332 53.7485 60.954 55.2889 62.0381 54.6053C63.1212 53.9221 62.7355 52.2909 61.4906 52.2909C61.1886 52.2909 60.7719 52.4955 60.5645 52.7458Z" fill="#FDC114"/>
</svg>
