<svg width="72" height="72" viewBox="0 0 72 72" fill="none" xmlns="http://www.w3.org/2000/svg">
<path d="M68.625 25.875L65.25 27L63 31.5L57.5328 13.2759C56.7714 10.738 54.4356 9 51.7857 9H20.2142C17.5645 9 15.2286 10.738 14.4672 13.2759L9 31.5L6.75 27L3.375 25.875" stroke="#058FA2" stroke-width="2.5" stroke-linecap="round" stroke-linejoin="round"/>
<path d="M4.5 58.4038V62.9998C4.5 64.1932 4.97412 65.338 5.81802 66.1819C6.66192 67.0258 7.80654 67.4998 9 67.4998C10.1935 67.4998 11.3381 67.0258 12.182 66.1819C13.0259 65.338 13.5 64.1932 13.5 62.9998V58.6648" stroke="#058FA2" stroke-width="2.5" stroke-linecap="round" stroke-linejoin="round"/>
<path d="M67.5 58.4038V62.9998C67.5 64.1932 67.026 65.338 66.1821 66.1819C65.3382 67.0258 64.1934 67.4998 63 67.4998C61.8066 67.4998 60.6618 67.0258 59.8179 66.1819C58.974 65.338 58.5 64.1932 58.5 62.9998V58.7296" stroke="#058FA2" stroke-width="2.5" stroke-linecap="round" stroke-linejoin="round"/>
<path d="M8.25 31.5H36H63.75C65.3412 31.5 66.8673 32.1897 67.9926 33.417C69.1179 34.6446 69.75 36.3096 69.75 38.0454V55.2273C69.75 56.0952 69.4338 56.9277 68.8713 57.5415C68.3088 58.1553 67.5456 58.5 66.75 58.5H5.25C4.45434 58.5 3.69129 58.1553 3.12867 57.5415C2.56607 56.9277 2.25 56.0952 2.25 55.2273V38.0454C2.25 36.3096 2.88214 34.6446 4.00737 33.417C5.13258 32.1897 6.65871 31.5 8.25 31.5Z" stroke="#058FA2" stroke-width="2.5" stroke-linecap="round" stroke-linejoin="round"/>
<path d="M2.25 42.75H15L18.375 49.5" stroke="#058FA2" stroke-width="2.5" stroke-linecap="round" stroke-linejoin="round"/>
<path d="M42.75 49.5H29.25" stroke="#058FA2" stroke-width="2.5" stroke-linecap="round" stroke-linejoin="round"/>
<path d="M69.75 42.75H57L53.625 49.5" stroke="#058FA2" stroke-width="2.5" stroke-linecap="round" stroke-linejoin="round"/>
</svg>
