<svg width="72" height="72" viewBox="0 0 72 72" fill="none" xmlns="http://www.w3.org/2000/svg">
<path d="M51.1992 47.4009H57.5992V52.2009C57.5992 53.0841 56.8824 53.8009 55.9992 53.8009H52.7992C51.916 53.8009 51.1992 53.0841 51.1992 52.2009V47.4009Z" stroke="#058FA2" stroke-width="3"/>
<path d="M16 47.4009H22.4V52.2009C22.4 53.0841 21.6832 53.8009 20.8 53.8009H17.6C16.7168 53.8009 16 53.0841 16 52.2009V47.4009Z" stroke="#058FA2" stroke-width="3"/>
<path d="M22.4 31.4009H51.2C54.7344 31.4009 57.6 34.2665 57.6 37.8009V45.8009C57.6 46.6841 56.8832 47.4009 56 47.4009H17.6C16.7168 47.4009 16 46.6841 16 45.8009V37.8009C16 34.2665 18.8656 31.4009 22.4 31.4009Z" stroke="#058FA2" stroke-width="3"/>
<path d="M51.2016 37.8008C52.0848 37.8008 52.8016 38.5176 52.8016 39.4008C52.8016 40.284 52.0848 41.0008 51.2016 41.0008C50.3184 41.0008 49.6016 40.284 49.6016 39.4008C49.6016 38.5176 50.3184 37.8008 51.2016 37.8008Z" fill="#058FA2"/>
<path d="M22.4008 37.8008C23.284 37.8008 24.0008 38.5176 24.0008 39.4008C24.0008 40.284 23.284 41.0008 22.4008 41.0008C21.5176 41.0008 20.8008 40.284 20.8008 39.4008C20.8008 38.5176 21.5176 37.8008 22.4008 37.8008Z" fill="#058FA2"/>
<path d="M25.108 18.6011H48.4904C49.1576 18.6011 49.7544 19.0155 49.988 19.6395L54.3992 31.4011H19.1992L23.6104 19.6395C23.844 19.0155 24.4408 18.6011 25.108 18.6011Z" stroke="#058FA2" stroke-width="3"/>
<path d="M14.3984 26.6011H19.1984V29.8011H14.3984V26.6011Z" fill="#058FA2"/>
<path d="M54.3984 26.6011H59.1984V29.8011H54.3984V26.6011Z" fill="#058FA2"/>
<path d="M27.1992 39.4009H46.3992" stroke="#058FA2" stroke-width="3"/>
</svg>
