<svg width="26" height="26" viewBox="0 0 26 26" fill="none" xmlns="http://www.w3.org/2000/svg">
<path d="M21.2725 7.32754L6.00375 0.60629C5.69824 0.472351 5.35206 0.465157 5.04125 0.586289C4.88765 0.647139 4.74761 0.737775 4.62919 0.852978C4.51077 0.968181 4.41631 1.10567 4.35125 1.25754L0.60125 10.0075C0.470666 10.3122 0.466443 10.6563 0.58951 10.9641C0.712577 11.2718 0.952855 11.5181 1.2575 11.6488L9.95375 15.375L8.40375 19.25H3V15.5H0.5V25.5H3V21.75H8.40375C9.4325 21.75 10.3438 21.1325 10.7238 20.1775L12.2513 16.36L16.525 18.1913C16.8283 18.3216 17.1708 18.3267 17.4779 18.2054C17.7849 18.0841 18.0315 17.8462 18.1637 17.5438L21.9137 8.97254C22.0464 8.66931 22.0534 8.32585 21.9332 8.01747C21.813 7.70909 21.5754 7.46097 21.2725 7.32754ZM22.9125 18.465L20.59 17.5375L23.0875 11.2875L25.41 12.2138L22.9125 18.465Z" fill="white"/>
</svg>
