<svg width="72" height="72" viewBox="0 0 72 72" fill="none" xmlns="http://www.w3.org/2000/svg">
<g clip-path="url(#clip0_1229_2416)">
<path d="M7.57616 31.0797C7.57616 31.3035 7.39472 31.485 7.17089 31.485C6.94713 31.485 6.76562 31.3035 6.76562 31.0797C6.76562 30.8557 6.94713 30.6743 7.17089 30.6743C7.39458 30.6743 7.57616 30.8558 7.57616 31.0797Z" stroke="#058FA2" stroke-width="2"/>
<path d="M25.8594 38.8125V45.8438C25.8594 47.6177 24.4146 49.0625 22.6406 49.0625C20.8667 49.0625 19.4219 47.6177 19.4219 45.8438V38.8125C19.4219 37.0386 20.8667 35.5938 22.6406 35.5938C24.4146 35.5938 25.8594 37.0386 25.8594 38.8125Z" stroke="#058FA2" stroke-width="2"/>
<path d="M28.2656 53.875H35.2969C37.0708 53.875 38.5156 55.3198 38.5156 57.0938C38.5156 58.8677 37.0708 60.3125 35.2969 60.3125H28.2656C26.4917 60.3125 25.0469 58.8677 25.0469 57.0938C25.0469 55.3198 26.4917 53.875 28.2656 53.875Z" stroke="#058FA2" stroke-width="2"/>
<path d="M9.98438 53.875H17.0156C18.7896 53.875 20.2344 55.3198 20.2344 57.0938C20.2344 58.8677 18.7896 60.3125 17.0156 60.3125H9.98438C8.21044 60.3125 6.76562 58.8677 6.76562 57.0938C6.76562 55.3198 8.21044 53.875 9.98438 53.875Z" stroke="#058FA2" stroke-width="2"/>
<path d="M38.5138 31.0797C38.5138 31.3034 38.3323 31.485 38.1084 31.485C37.8846 31.485 37.7031 31.3035 37.7031 31.0797C37.7031 30.8557 37.8846 30.6743 38.1084 30.6743C38.3323 30.6743 38.5138 30.8558 38.5138 31.0797Z" stroke="#058FA2" stroke-width="2"/>
<path d="M65.2344 7.17188V8.17188H66.2344H70.4531C70.6774 8.17188 70.8594 8.3538 70.8594 8.57812V14.2031C70.8594 18.4925 68.2077 22.1775 64.4519 23.7028L63.8281 23.9561V24.6293V47.9531C63.8281 52.8287 59.8599 56.7969 54.9844 56.7969H45.1406H44.1406V57.7969V66.2344C44.1406 68.7837 42.065 70.8594 39.5156 70.8594H5.76562C3.21628 70.8594 1.14062 68.7837 1.14062 66.2344V29.6719C1.14062 27.1225 3.21628 25.0469 5.76562 25.0469H39.5156C42.065 25.0469 44.1406 27.1225 44.1406 29.6719V49.3594V50.3594H45.1406H53.5781C55.6812 50.3594 57.3906 48.65 57.3906 46.5469V24.6293V23.9561L56.7669 23.7028C53.011 22.1775 50.3594 18.4925 50.3594 14.2031V8.57812C50.3594 8.3538 50.5413 8.17188 50.7656 8.17188H54.9844H55.9844V7.17188V1.54688C55.9844 1.32255 56.1663 1.14062 56.3906 1.14062C56.6149 1.14062 56.7969 1.32255 56.7969 1.54688V7.17188V8.17188H57.7969H63.4219H64.4219V7.17188V1.54688C64.4219 1.32255 64.6038 1.14062 64.8281 1.14062C65.0524 1.14062 65.2344 1.32255 65.2344 1.54688V7.17188ZM44.1406 54.9844V55.9844H45.1406H54.9844C59.4137 55.9844 63.0156 52.3824 63.0156 47.9531V25.3621V24.229L61.8913 24.3699C60.991 24.4827 60.197 24.4789 59.3274 24.3699L58.2031 24.229V25.3621V46.5469C58.2031 49.0962 56.1275 51.1719 53.5781 51.1719H45.1406H44.1406V52.1719V54.9844ZM52.1719 8.98438H51.1719V9.98438V14.2031C51.1719 19.4078 55.4047 23.6406 60.6094 23.6406C65.8141 23.6406 70.0469 19.4078 70.0469 14.2031V9.98438V8.98438H69.0469H52.1719ZM39.5156 70.0469C41.6187 70.0469 43.3281 68.3375 43.3281 66.2344V29.6719C43.3281 27.5688 41.6187 25.8594 39.5156 25.8594H5.76562C3.66253 25.8594 1.95312 27.5688 1.95312 29.6719V66.2344C1.95312 68.3375 3.66253 70.0469 5.76562 70.0469H39.5156Z" stroke="#058FA2" stroke-width="2"/>
<path d="M7.57616 64.8257C7.57616 65.0495 7.39471 65.2309 7.17089 65.2309C6.94707 65.2309 6.76562 65.0495 6.76562 64.8257C6.76562 64.6019 6.94707 64.4204 7.17089 64.4204C7.39472 64.4204 7.57616 64.6019 7.57616 64.8257Z" stroke="#058FA2" stroke-width="2"/>
<path d="M37.7031 64.8257C37.7031 64.6019 37.8846 64.4204 38.1084 64.4204C38.3324 64.4204 38.5138 64.6019 38.5138 64.8257C38.5138 65.0494 38.3323 65.2309 38.1084 65.2309C37.8846 65.2309 37.7031 65.0495 37.7031 64.8257Z" stroke="#058FA2" stroke-width="2"/>
</g>
<defs>
<clipPath id="clip0_1229_2416">
<rect width="72" height="72" fill="white"/>
</clipPath>
</defs>
</svg>
