<svg width="72" height="72" viewBox="0 0 72 72" fill="none" xmlns="http://www.w3.org/2000/svg">
<g clip-path="url(#clip0_1229_2409)">
<path d="M68.1302 0.0897736C66.8252 0.179774 65.6214 1.0179 65.2052 2.38477V2.42977C65.1939 2.46352 65.1827 2.49727 65.1602 2.51977L49.1402 44.1448C46.2377 45.3879 42.1821 47.486 38.6552 50.4448C34.8977 53.5948 31.6802 57.7629 31.6802 62.9098C31.6802 65.1148 32.4958 67.4773 34.3802 69.2098C36.2646 70.9423 39.1389 71.9998 43.0652 71.9998H70.5602C71.2802 71.9773 71.8708 71.4316 71.9496 70.7173C72.0283 70.0029 71.5727 69.3448 70.8752 69.1648C70.8752 69.1648 65.7452 67.9779 61.5602 64.7098C59.4677 63.0785 57.6452 60.9691 56.7452 58.2748C55.8452 55.5804 55.8058 52.2504 57.5102 47.9248C57.5102 47.8966 57.5102 47.8629 57.5102 47.8348L71.7302 4.72477L71.7752 4.63477H71.7302C72.4164 2.89102 71.4771 0.972898 69.6602 0.359774L69.7052 0.269774C69.6602 0.252898 69.6152 0.286649 69.5702 0.269774C69.5252 0.258524 69.5252 0.191024 69.4802 0.179774L69.4352 0.269774C69.0021 0.129149 68.5633 0.0616487 68.1302 0.0897736ZM68.5352 2.92477C68.6083 2.94727 68.6814 2.95852 68.7602 2.96977C69.0358 3.03727 69.1483 3.43102 69.0752 3.59977C69.0583 3.64477 69.0414 3.68977 69.0302 3.73477L55.2602 45.5398L52.1102 44.3698L67.8602 3.37477C67.8771 3.32977 67.8939 3.28477 67.9052 3.23977C67.9727 2.96415 68.3664 2.85165 68.5352 2.92477ZM23.1752 5.89477C18.7089 5.89477 14.6871 8.22352 12.2402 11.9698C11.3739 11.9698 10.8002 12.0879 10.0802 12.3748L12.1052 14.6698C12.5383 14.5235 12.7971 14.546 13.2302 14.3998H13.9502L14.2652 13.8148C15.9921 10.6479 19.4402 8.63977 23.0402 8.63977C27.6471 8.63977 31.6971 11.8235 32.8502 16.2898L33.1202 17.4148H34.5602C37.2939 17.4148 39.4652 19.2879 40.1852 21.7348H43.2002C42.4802 17.8479 39.3021 14.8216 35.4152 14.5348C33.5421 9.34852 28.7889 5.89477 23.1752 5.89477ZM2.74519 8.59477C2.68331 8.60602 2.62144 8.6229 2.56519 8.63977C2.07019 8.74102 1.65956 9.10102 1.49644 9.57915C1.32769 10.0573 1.42894 10.5916 1.75519 10.9798L5.67019 15.7498C4.29206 17.3979 3.31894 19.3779 3.01519 21.5998H5.89519C6.14831 20.2385 6.69956 18.9785 7.47019 17.9098L11.7002 23.0398H1.44019C1.00706 23.0398 0.557062 23.2029 0.270187 23.4898C-0.0166881 23.9229 0.000186983 24.3166 0.000186983 24.7498L7.20019 70.8298C7.34644 71.4035 7.92019 71.9998 8.64019 71.9998H36.0002C34.4139 71.2798 33.2664 70.2729 32.4002 69.1198H9.94519L3.15019 25.9198H14.0402L20.3402 33.5698C20.2164 33.8735 20.1602 34.1998 20.1602 34.5598C20.1602 36.146 21.4539 37.4398 23.0402 37.4398C24.6264 37.4398 25.9202 36.146 25.9202 34.5598C25.9202 32.9735 24.6264 31.6798 23.0402 31.6798C22.8883 31.6798 22.7364 31.6966 22.5902 31.7248L4.00519 9.17977C3.97706 9.14602 3.94894 9.1179 3.91519 9.08977C3.88706 9.04477 3.85894 8.99977 3.82519 8.95477C3.74081 8.89852 3.65081 8.85352 3.55519 8.81977C3.52706 8.78602 3.49894 8.7579 3.46519 8.72977C3.38081 8.6904 3.28519 8.66227 3.19519 8.63977C3.04894 8.6004 2.89706 8.58352 2.74519 8.59477ZM18.8552 23.0398L21.1502 25.9198H42.9302L39.4652 47.9698C40.6183 47.1035 41.5971 46.3835 42.7502 45.8098L46.0802 24.7498C46.0802 24.3166 46.0971 23.9116 45.8102 23.6248C45.5233 23.1916 45.0733 23.0398 44.6402 23.0398H18.8552ZM50.3102 46.7548L54.3152 48.2398C52.9314 52.4585 52.9877 56.1429 54.0002 59.1748C55.1252 62.5441 57.3527 65.081 59.7602 66.9598C61.0933 68.0004 62.3533 68.4391 63.6752 69.1198H56.6552C53.0833 68.6585 51.4802 67.3254 50.6702 65.8798C49.8602 64.4342 49.8602 62.6679 50.2202 61.2898C50.3552 60.8341 50.2596 60.3448 49.9614 59.9791C49.6633 59.6079 49.2077 59.411 48.7352 59.4448C48.0996 59.4898 47.5708 59.9454 47.4302 60.5698C46.9239 62.5048 46.8677 65.0248 48.1502 67.3198C48.5102 67.9723 49.0052 68.5629 49.5902 69.1198H48.6902C45.7708 69.1198 44.0327 68.4504 43.0652 67.6348C42.0977 66.8191 41.6871 65.7898 41.6702 64.4398C41.6421 61.7341 43.5827 58.0441 45.4052 56.1598C45.8496 55.7379 45.9733 55.0798 45.7202 54.5229C45.4671 53.966 44.8877 53.6285 44.2802 53.6848C43.9202 53.7129 43.5827 53.8704 43.3352 54.1348C40.9783 56.5704 38.7452 60.5641 38.7902 64.4848C38.8071 66.0204 39.2683 67.6066 40.2752 68.8948C38.4414 68.5629 37.1814 67.8879 36.3152 67.0948C35.0721 65.9473 34.5602 64.451 34.5602 62.9098C34.5602 58.9835 37.0914 55.5129 40.5002 52.6498C43.7233 49.9441 47.6102 47.9079 50.3102 46.7548Z" fill="#058FA2"/>
</g>
<defs>
<clipPath id="clip0_1229_2409">
<rect width="72" height="72" fill="white"/>
</clipPath>
</defs>
</svg>
