<svg width="80" height="80" viewBox="0 0 80 80" fill="none" xmlns="http://www.w3.org/2000/svg">
<g clip-path="url(#clip0_792_1436)">
<path d="M50.6999 3.36816H30.1399C24.2194 3.36816 19.4199 8.42028 19.4199 14.6524V15.2419C19.4199 21.4739 24.2194 26.5261 30.1399 26.5261H50.6999C56.6204 26.5261 61.4199 21.4739 61.4199 15.2419V14.6524C61.4199 8.42028 56.6204 3.36816 50.6999 3.36816Z" fill="white" stroke="#43AFAD" stroke-width="2.5" stroke-linecap="round" stroke-linejoin="round"/>
<path d="M77.4201 18.9473V69.7052C77.4201 71.5458 76.7241 73.3107 75.4858 74.6103C74.2475 75.9098 72.5687 76.6371 70.8201 76.6315H9.18008C7.43149 76.6371 5.7527 75.9098 4.51438 74.6103C3.27606 73.3107 2.58008 71.5458 2.58008 69.7052V18.9473C2.58448 18.3313 2.83058 17.7446 3.26008 17.3262L14.4201 43.7683H65.5801L76.7401 17.3052C77.1747 17.7286 77.4212 18.324 77.4201 18.9473Z" fill="white" stroke="#43AFAD" stroke-width="2.5" stroke-linecap="round" stroke-linejoin="round"/>
<path d="M76.7392 17.3051L69.9992 43.7683C69.2166 46.8023 66.6059 48.9129 63.6192 48.9262H16.3792C13.3855 48.9348 10.7636 46.8151 9.99922 43.7683L3.19922 17.3051C3.60152 16.8628 4.15752 16.612 4.73922 16.6104H75.1992C75.7786 16.6235 76.3306 16.8725 76.7392 17.3051Z" fill="white" stroke="#43AFAD" stroke-width="2.5" stroke-linecap="round" stroke-linejoin="round"/>
<path d="M50.9798 44.3155V53.5787C50.9798 54.1966 50.7452 54.7888 50.3283 55.2237C49.9114 55.6586 49.3466 55.9001 48.7597 55.8946H31.2397C30.6528 55.9001 30.088 55.6586 29.6711 55.2237C29.2542 54.7888 29.0196 54.1966 29.0196 53.5787V44.3155C29.0143 43.6941 29.2465 43.0964 29.664 42.6569C30.0815 42.2174 30.6493 41.973 31.2397 41.9786H48.7597C49.3501 41.973 49.9179 42.2174 50.3354 42.6569C50.7529 43.0964 50.9851 43.6941 50.9798 44.3155Z" fill="white" stroke="#43AFAD" stroke-width="2.5" stroke-linecap="round" stroke-linejoin="round"/>
</g>
<defs>
<clipPath id="clip0_792_1436">
<rect width="80" height="80" fill="white"/>
</clipPath>
</defs>
</svg>
