<svg width="72" height="72" viewBox="0 0 72 72" fill="none" xmlns="http://www.w3.org/2000/svg">
<path d="M36 16.3125C25.1452 16.3125 16.3125 25.1423 16.3125 36C16.3125 46.8577 25.1423 55.6875 36 55.6875C46.8577 55.6875 55.6875 46.8548 55.6875 36C55.6875 25.1452 46.8548 16.3125 36 16.3125ZM36 54.0633C26.0395 54.0633 17.9367 45.9591 17.9367 35.9972C17.9367 31.2065 19.8398 26.612 23.2273 23.2245C26.6149 19.837 31.2093 17.9339 36 17.9339C40.7907 17.9339 45.3851 19.837 48.7727 23.2245C52.1602 26.612 54.0633 31.2065 54.0633 35.9972C54.0633 45.9605 45.9605 54.0647 36 54.0647V54.0633Z" fill="#058FA2"/>
<path d="M36.0008 22.542C33.3391 22.542 30.7372 23.3313 28.524 24.81C26.3109 26.2888 24.586 28.3906 23.5674 30.8497C22.5488 33.3088 22.2823 36.0147 22.8016 38.6253C23.3208 41.2359 24.6026 43.6338 26.4847 45.5159C28.3668 47.398 30.7647 48.6798 33.3753 49.199C35.9859 49.7183 38.6918 49.4518 41.1509 48.4332C43.61 47.4146 45.7118 45.6897 47.1906 43.4766C48.6693 41.2634 49.4586 38.6615 49.4586 35.9998C49.4549 32.4317 48.0358 29.0108 45.5128 26.4878C42.9898 23.9648 39.5689 22.5457 36.0008 22.542ZM36.0008 47.8362C33.6598 47.8362 31.3713 47.142 29.4248 45.8414C27.4783 44.5408 25.9612 42.6922 25.0654 40.5294C24.1695 38.3666 23.9351 35.9867 24.3918 33.6906C24.8485 31.3946 25.9758 29.2856 27.6312 27.6302C29.2865 25.9748 31.3956 24.8475 33.6916 24.3908C35.9877 23.9341 38.3676 24.1685 40.5304 25.0644C42.6932 25.9603 44.5418 27.4774 45.8424 29.4238C47.143 31.3703 47.8372 33.6588 47.8372 35.9998C47.8335 39.1379 46.5852 42.1463 44.3663 44.3653C42.1473 46.5842 39.1389 47.8325 36.0008 47.8362Z" fill="#058FA2"/>
<path d="M70.5712 18.8876C70.5712 13.9108 67.1963 9.86084 63.0591 9.86084C58.9219 9.86084 55.5469 13.9108 55.5469 18.8876C55.5469 23.5282 58.4902 27.3251 62.2463 27.8172V31.0151C61.291 31.2037 60.4308 31.7178 59.812 32.4696C59.1933 33.2214 58.8544 34.1645 58.853 35.1382V57.9377C58.8428 58.4963 58.9439 59.0512 59.1506 59.5702C59.3573 60.0892 59.6653 60.5618 60.0567 60.9605C60.4481 61.3591 60.915 61.6757 61.4301 61.8918C61.9453 62.108 62.4983 62.2193 63.057 62.2193C63.6156 62.2193 64.1686 62.108 64.6838 61.8918C65.1989 61.6757 65.6658 61.3591 66.0572 60.9605C66.4486 60.5618 66.7566 60.0892 66.9633 59.5702C67.17 59.0512 67.2712 58.4963 67.2609 57.9377V35.1382C67.2595 34.1645 66.9206 33.2214 66.3019 32.4696C65.6831 31.7178 64.8229 31.2037 63.8677 31.0151V27.8187C67.6266 27.3251 70.5712 23.5324 70.5712 18.8876ZM57.1697 18.8876C57.1697 14.8094 59.8106 11.4822 63.0591 11.4822C66.3075 11.4822 68.9498 14.8038 68.9498 18.8876C68.9498 22.9713 66.3061 26.2971 63.0591 26.2971C59.812 26.2971 57.1697 22.9713 57.1697 18.8876ZM65.6409 35.1382V57.9377C65.649 58.2819 65.5881 58.6243 65.4619 58.9447C65.3358 59.265 65.1468 59.5569 64.9062 59.8032C64.6656 60.0495 64.3782 60.2452 64.0608 60.3788C63.7435 60.5124 63.4027 60.5813 63.0584 60.5813C62.714 60.5813 62.3732 60.5124 62.0559 60.3788C61.7385 60.2452 61.4511 60.0495 61.2105 59.8032C60.9699 59.5569 60.781 59.265 60.6548 58.9447C60.5286 58.6243 60.4677 58.2819 60.4758 57.9377V35.1382C60.4677 34.794 60.5286 34.4516 60.6548 34.1312C60.781 33.8109 60.9699 33.519 61.2105 33.2727C61.4511 33.0264 61.7385 32.8307 62.0559 32.6971C62.3732 32.5635 62.714 32.4946 63.0584 32.4946C63.4027 32.4946 63.7435 32.5635 64.0608 32.6971C64.3782 32.8307 64.6656 33.0264 64.9062 33.2727C65.1468 33.519 65.3358 33.8109 65.4619 34.1312C65.5881 34.4516 65.649 34.794 65.6409 35.1382Z" fill="#058FA2"/>
<path d="M13.361 9.86043C13.1459 9.8608 12.9398 9.94641 12.7877 10.0985C12.6356 10.2506 12.55 10.4568 12.5496 10.6718V18.7212C12.5489 19.565 12.2139 20.3742 11.618 20.9717C11.0222 21.5691 10.2139 21.9062 9.37008 21.9092H8.61633V10.6718C8.62088 10.5625 8.60328 10.4534 8.5646 10.3511C8.52591 10.2488 8.46692 10.1553 8.39119 10.0764C8.31546 9.99743 8.22455 9.93461 8.12392 9.8917C8.02329 9.84878 7.91502 9.82666 7.80562 9.82666C7.69623 9.82666 7.58796 9.84878 7.48733 9.8917C7.3867 9.93461 7.29579 9.99743 7.22006 10.0764C7.14433 10.1553 7.08534 10.2488 7.04665 10.3511C7.00797 10.4534 6.99037 10.5625 6.99492 10.6718V21.9092H6.24117C5.39577 21.9084 4.58518 21.5724 3.98726 20.9747C3.38934 20.3771 3.05291 19.5666 3.0518 18.7212V10.6718C3.05635 10.5625 3.03875 10.4534 3.00006 10.3511C2.96137 10.2488 2.90239 10.1553 2.82666 10.0764C2.75093 9.99743 2.66002 9.93461 2.55939 9.8917C2.45876 9.84878 2.35049 9.82666 2.24109 9.82666C2.1317 9.82666 2.02343 9.84878 1.9228 9.8917C1.82217 9.93461 1.73125 9.99743 1.65552 10.0764C1.57979 10.1553 1.52081 10.2488 1.48212 10.3511C1.44343 10.4534 1.42584 10.5625 1.43039 10.6718V18.7212C1.43225 19.9964 1.93974 21.2188 2.84158 22.1204C3.74341 23.022 4.96597 23.5291 6.24117 23.5306H6.99492V31.0147C6.03957 31.2031 5.17916 31.7171 4.56038 32.4689C3.9416 33.2208 3.60276 34.164 3.60164 35.1378V57.9373C3.59142 58.4958 3.69261 59.0508 3.8993 59.5698C4.10598 60.0888 4.41401 60.5614 4.8054 60.96C5.19679 61.3587 5.66369 61.6753 6.17882 61.8914C6.69395 62.1076 7.24699 62.2189 7.80562 62.2189C8.36426 62.2189 8.9173 62.1076 9.43243 61.8914C9.94757 61.6753 10.4145 61.3587 10.8059 60.96C11.1972 60.5614 11.5053 60.0888 11.712 59.5698C11.9186 59.0508 12.0198 58.4958 12.0096 57.9373V35.1378C12.0082 34.1641 11.6693 33.221 11.0506 32.4692C10.4318 31.7174 9.57156 31.2033 8.61633 31.0147V23.5306H9.37008C10.645 23.5291 11.8673 23.0219 12.7687 22.1202C13.6701 21.2186 14.1769 19.9962 14.178 18.7212V10.6718C14.1779 10.5649 14.1566 10.459 14.1154 10.3602C14.0742 10.2615 14.0139 10.1719 13.938 10.0965C13.8621 10.0211 13.772 9.96147 13.673 9.92095C13.574 9.88044 13.468 9.85988 13.361 9.86043ZM10.3868 35.1378V57.9373C10.3868 58.6221 10.1148 59.2788 9.63058 59.763C9.14639 60.2472 8.48968 60.5192 7.80492 60.5192C7.12017 60.5192 6.46346 60.2472 5.97926 59.763C5.49507 59.2788 5.22305 58.6221 5.22305 57.9373V35.1378C5.22305 34.453 5.49507 33.7963 5.97926 33.3121C6.46346 32.8279 7.12017 32.5559 7.80492 32.5559C8.48968 32.5559 9.14639 32.8279 9.63058 33.3121C10.1148 33.7963 10.3868 34.453 10.3868 35.1378Z" fill="#058FA2"/>
</svg>
