<svg width="72" height="72" viewBox="0 0 72 72" fill="none" xmlns="http://www.w3.org/2000/svg">
<g clip-path="url(#clip0_1235_2208)">
<path d="M8.69401 37.743C9.54268 37.024 10.5425 36.5054 11.6192 36.226C12.6959 35.9466 13.8217 35.9134 14.913 36.1291C16.6014 36.4584 18.1141 37.3863 19.173 38.7421L20.43 35.673C19.7881 35.096 19.0754 34.6031 18.309 34.2061C19.4895 33.2187 20.3377 31.8921 20.7384 30.4062C21.1392 28.9203 21.0732 27.3472 20.5493 25.9001C20.0255 24.453 19.0691 23.2022 17.8101 22.3172C16.551 21.4322 15.0502 20.956 13.5112 20.9531C11.9723 20.9502 10.4697 21.4208 9.2073 22.3011C7.94495 23.1814 6.98395 24.4287 6.45469 25.8738C5.92543 27.3189 5.85354 28.8918 6.24877 30.3792C6.644 31.8665 7.48721 33.1963 8.66401 34.188C7.98897 34.5354 7.35416 34.956 6.771 35.4421C5.58946 36.426 4.63907 37.6581 3.98733 39.0507C3.3356 40.4434 2.99851 41.9624 3 43.5V48H6.00001V43.5C5.99847 42.4015 6.23908 41.316 6.70471 40.321C7.17034 39.326 7.84955 38.4458 8.69401 37.743ZM9 28.5C9 27.61 9.26393 26.74 9.75839 26C10.2529 25.26 10.9557 24.6832 11.7779 24.3426C12.6002 24.002 13.505 23.9129 14.3779 24.0865C15.2508 24.2602 16.0526 24.6887 16.682 25.3181C17.3113 25.9474 17.7399 26.7492 17.9135 27.6221C18.0872 28.4951 17.9981 29.3999 17.6575 30.2221C17.3169 31.0444 16.7401 31.7472 16.0001 32.2417C15.26 32.7361 14.39 33 13.5 33C12.307 32.9985 11.1633 32.5238 10.3198 31.6803C9.47621 30.8367 9.00159 29.693 9 28.5ZM63.309 34.2061C64.4898 33.2191 65.3384 31.8927 65.7396 30.407C66.1409 28.9212 66.0753 27.348 65.5519 25.9008C65.0285 24.4536 64.0726 23.2024 62.8138 22.317C61.555 21.4316 60.0543 20.9549 58.5153 20.9516C56.9764 20.9482 55.4736 21.4184 54.211 22.2983C52.9484 23.1782 51.987 24.4252 51.4573 25.8701C50.9276 27.315 50.8552 28.8879 51.25 30.3754C51.6447 31.8629 52.4875 33.1929 53.664 34.1851C52.9888 34.5333 52.3539 34.9548 51.771 35.4421C51.693 35.5051 51.639 35.592 51.561 35.6581L52.797 38.6761C53.6321 37.6356 54.7391 36.8468 55.9952 36.3972C57.2513 35.9476 58.6074 35.8548 59.913 36.1291C61.6725 36.5292 63.2396 37.5251 64.3489 38.9482C65.4581 40.3713 66.0415 42.1341 66 43.938V48H69V43.938C69.024 41.9521 68.5071 39.9971 67.5045 38.2826C66.5019 36.5681 65.0516 35.1589 63.309 34.2061ZM54 28.5C54 27.61 54.2639 26.74 54.7584 26C55.2529 25.26 55.9557 24.6832 56.7779 24.3426C57.6002 24.002 58.505 23.9129 59.3779 24.0865C60.2508 24.2602 61.0526 24.6887 61.682 25.3181C62.3113 25.9474 62.7399 26.7492 62.9135 27.6221C63.0872 28.4951 62.9981 29.3999 62.6575 30.2221C62.3169 31.0444 61.7401 31.7472 61.0001 32.2417C60.26 32.7361 59.39 33 58.5 33C57.307 32.9985 56.1633 32.5238 55.3198 31.6803C54.4762 30.8367 54.0016 29.693 54 28.5ZM30 27V24.0001C29.9979 23.0914 30.2033 22.1942 30.6005 21.377C30.9977 20.5597 31.5763 19.8439 32.292 19.2841C33.0201 18.7149 33.8687 18.3198 34.7729 18.129C35.6771 17.9381 36.613 17.9566 37.509 18.1831C38.8355 18.5697 39.9961 19.3857 40.8089 20.5031C41.6217 21.6204 42.0406 22.976 42 24.3571V27H45V24.3601C45.0084 22.7649 44.6159 21.1933 43.8584 19.7895C43.101 18.3857 42.0029 17.1947 40.665 16.3261C41.8846 15.3566 42.7719 14.0314 43.2039 12.5345C43.6358 11.0376 43.5909 9.44337 43.0754 7.97319C42.5598 6.50302 41.5992 5.22988 40.327 4.33061C39.0548 3.43135 37.5341 2.95059 35.9761 2.95511C34.4182 2.95963 32.9003 3.44921 31.6334 4.35585C30.3664 5.26249 29.4132 6.54118 28.9062 8.01433C28.3992 9.48748 28.3635 11.0819 28.8041 12.5763C29.2448 14.0706 30.1398 15.3907 31.365 16.3531C31.0434 16.5257 30.7329 16.7181 30.435 16.9291C29.3622 17.7686 28.4951 18.842 27.8998 20.0673C27.3045 21.2927 26.9968 22.6378 27 24.0001V27H30ZM31.5 10.5001C31.5 9.61004 31.7639 8.74001 32.2584 7.99998C32.7529 7.25996 33.4557 6.68319 34.2779 6.34259C35.1002 6.002 36.005 5.91288 36.8779 6.08652C37.7508 6.26015 38.5527 6.68873 39.182 7.31807C39.8113 7.94741 40.2399 8.74923 40.4135 9.62214C40.5872 10.4951 40.4981 11.3999 40.1575 12.2221C39.8169 13.0444 39.2401 13.7472 38.5001 14.2417C37.76 14.7361 36.89 15.0001 36 15.0001C34.807 14.9985 33.6633 14.5238 32.8198 13.6803C31.9762 12.8367 31.5016 11.693 31.5 10.5001ZM59.889 63.9301L57.111 65.0701L43.992 33H28.008L14.889 65.0701L12.111 63.9301L25.23 31.8661C25.4543 31.3135 25.8386 30.8407 26.3336 30.5082C26.8286 30.1757 27.4117 29.9987 28.008 30H43.992C44.5872 29.9984 45.1693 30.1746 45.6637 30.506C46.1581 30.8374 46.5423 31.3089 46.767 31.8601L59.889 63.9301Z" fill="#058FA2"/>
</g>
<defs>
<clipPath id="clip0_1235_2208">
<rect width="72" height="72" fill="white"/>
</clipPath>
</defs>
</svg>
