<svg width="20" height="20" viewBox="0 0 20 20" fill="none" xmlns="http://www.w3.org/2000/svg">
<path d="M16.5824 8.80011L16.2658 9.58344C16.1658 9.85011 16.1658 10.1334 16.2658 10.4001L16.5824 11.1834C16.7658 11.6501 16.6158 12.1834 16.1991 12.4834L15.4991 12.9668C15.2658 13.1334 15.1158 13.3834 15.0491 13.6501L14.8991 14.4834C14.7991 14.9834 14.3824 15.3501 13.8824 15.3668L13.0324 15.4001C12.7491 15.4168 12.4824 15.5334 12.2824 15.7334L11.6991 16.3501C11.3491 16.7168 10.7991 16.8001 10.3658 16.5501L9.63242 16.1168C9.38242 15.9668 9.09909 15.9334 8.81575 16.0001L7.98242 16.2001C7.49909 16.3168 6.98242 16.0834 6.74909 15.6334L6.36575 14.8668C6.23242 14.6168 6.01575 14.4168 5.74909 14.3334L4.94909 14.0668C4.46576 13.9001 4.16575 13.4334 4.21575 12.9334L4.29909 12.0834C4.33242 11.8001 4.24909 11.5168 4.06576 11.3001L3.53242 10.6334C3.21576 10.2334 3.21576 9.68344 3.53242 9.28344L4.06576 8.61678C4.24909 8.40011 4.33242 8.11678 4.29909 7.83344L4.21575 6.98344C4.16575 6.48344 4.46576 6.01678 4.94909 5.85011L5.74909 5.58344C6.01575 5.50011 6.23242 5.30011 6.36575 5.05011L6.74909 4.28344C6.98242 3.83344 7.48242 3.60011 7.98242 3.71678L8.81575 3.91678C9.08242 3.98344 9.38242 3.95011 9.63242 3.80011L10.3658 3.36678C10.7991 3.11678 11.3491 3.18344 11.6991 3.56678L12.2824 4.18344C12.4824 4.38344 12.7491 4.51678 13.0324 4.51678L13.8824 4.55011C14.3824 4.56678 14.8158 4.93344 14.8991 5.43344L15.0491 6.26678C15.0991 6.55011 15.2658 6.80011 15.4991 6.95011L16.1991 7.43344C16.6158 7.80011 16.7824 8.33344 16.5824 8.80011Z" fill="#EF4B4B"/>
<g opacity="0.15">
<path d="M7.26562 15.6334L6.88229 14.8667C6.74896 14.6167 6.53229 14.4167 6.26562 14.3334L5.46562 14.0667C4.98229 13.9 4.68229 13.4334 4.73229 12.9334L4.81562 12.0834C4.84896 11.8 4.76562 11.5167 4.58229 11.3L4.04896 10.6334C3.73229 10.2334 3.73229 9.68338 4.04896 9.28338L4.58229 8.61671C4.76562 8.40005 4.84896 8.11671 4.81562 7.83338L4.73229 6.98338C4.68229 6.48338 4.98229 6.01671 5.46562 5.85005L6.26562 5.58338C6.53229 5.50005 6.74896 5.30005 6.88229 5.05005L7.26562 4.28338C7.39896 4.01671 7.63229 3.83338 7.88229 3.75005C7.43229 3.68338 6.98229 3.91671 6.78229 4.33338L6.39896 5.10005C6.26562 5.35005 6.04896 5.55005 5.78229 5.63338L4.98229 5.90005C4.49896 6.06671 4.19896 6.53338 4.24896 7.03338L4.33229 7.88338C4.36563 8.16671 4.28229 8.45005 4.09896 8.66671L3.56562 9.33338C3.24896 9.73338 3.24896 10.2834 3.56562 10.6834L4.09896 11.35C4.28229 11.5667 4.36563 11.85 4.33229 12.1334L4.24896 12.9834C4.19896 13.4834 4.49896 13.95 4.98229 14.1167L5.78229 14.3834C6.04896 14.4667 6.26562 14.6667 6.39896 14.9167L6.78229 15.6834C7.01562 16.1334 7.51562 16.3667 8.01562 16.25L8.11562 16.2334C7.74896 16.1667 7.43229 15.9667 7.26562 15.6334Z" fill="black"/>
<path d="M10.1326 3.8L10.8659 3.36666C10.9326 3.33333 10.9992 3.3 11.0659 3.28333C10.8326 3.25 10.5826 3.3 10.3826 3.41666L9.64922 3.85C9.58255 3.88333 9.51589 3.91666 9.44922 3.93333C9.68255 3.96666 9.91589 3.93333 10.1326 3.8Z" fill="black"/>
<path d="M13.5322 15.3834C13.4488 15.3834 13.3655 15.4001 13.2988 15.4168L13.8988 15.3834C13.9822 15.3834 14.0488 15.3668 14.1322 15.3501L13.5322 15.3834Z" fill="black"/>
<path d="M10.8648 16.5334L10.1315 16.1001C9.88151 15.9501 9.59818 15.9168 9.31484 15.9834L9.21484 16.0001C9.36484 16.0168 9.49818 16.0668 9.63151 16.1334L10.3648 16.5668C10.6482 16.7334 10.9648 16.7501 11.2648 16.6501C11.1315 16.6501 10.9982 16.6168 10.8648 16.5334Z" fill="black"/>
</g>
<g opacity="0.15">
<path d="M7.54935 10.3501C7.23268 10.3501 6.96602 10.2834 6.71602 10.1501C6.46602 10.0167 6.26602 9.81675 6.13268 9.56675C5.98268 9.31675 5.91602 9.00008 5.91602 8.63341C5.91602 8.26675 5.98268 7.96675 6.13268 7.70008C6.28268 7.45008 6.46602 7.25008 6.71602 7.11675C6.96602 6.98341 7.24935 6.91675 7.54935 6.91675C7.86602 6.91675 8.13268 6.98341 8.38268 7.11675C8.63268 7.25008 8.83268 7.45008 8.96602 7.70008C9.11602 7.95008 9.18268 8.26675 9.18268 8.63341C9.18268 9.00008 9.11602 9.31675 8.96602 9.56675C8.81602 9.83341 8.63268 10.0167 8.38268 10.1501C8.14935 10.2834 7.86602 10.3501 7.54935 10.3501ZM6.96602 13.1667L11.1827 7.00008H12.666L8.44935 13.1667H6.96602ZM7.54935 9.40008C7.64935 9.40008 7.73268 9.35008 7.81602 9.23341C7.89935 9.11675 7.93268 8.91675 7.93268 8.63341C7.93268 8.33341 7.89935 8.13341 7.81602 8.03341C7.73268 7.91675 7.64935 7.86675 7.54935 7.86675C7.44935 7.86675 7.36602 7.91675 7.28268 8.03341C7.19935 8.15008 7.16602 8.35008 7.16602 8.63341C7.16602 8.93341 7.19935 9.13341 7.28268 9.23341C7.36602 9.35008 7.46602 9.40008 7.54935 9.40008ZM12.066 13.2667C11.7493 13.2667 11.4827 13.2001 11.2327 13.0667C10.9827 12.9334 10.7827 12.7334 10.6493 12.4834C10.4993 12.2334 10.4327 11.9167 10.4327 11.5501C10.4327 11.1834 10.4993 10.8834 10.6493 10.6167C10.7993 10.3667 10.9827 10.1667 11.2327 10.0334C11.4827 9.90008 11.766 9.83341 12.066 9.83341C12.366 9.83341 12.6493 9.90008 12.8993 10.0334C13.1493 10.1667 13.3493 10.3667 13.4827 10.6167C13.6327 10.8667 13.6993 11.1834 13.6993 11.5501C13.6993 11.9167 13.6327 12.2334 13.4827 12.4834C13.3327 12.7501 13.1493 12.9334 12.8993 13.0667C12.666 13.2001 12.3827 13.2667 12.066 13.2667ZM12.066 12.3167C12.166 12.3167 12.2493 12.2667 12.3327 12.1501C12.416 12.0334 12.4493 11.8334 12.4493 11.5501C12.4493 11.2501 12.416 11.0501 12.3327 10.9501C12.2493 10.8334 12.166 10.7834 12.066 10.7834C11.966 10.7834 11.8827 10.8334 11.7993 10.9501C11.716 11.0667 11.6827 11.2667 11.6827 11.5501C11.6827 11.8501 11.716 12.0501 11.7993 12.1501C11.8993 12.2501 11.9827 12.3167 12.066 12.3167Z" fill="black"/>
</g>
<path d="M7.79935 10.2168C7.48268 10.2168 7.21602 10.1501 6.96602 10.0168C6.71602 9.88345 6.51602 9.68345 6.38268 9.43345C6.23268 9.16678 6.16602 8.86678 6.16602 8.50011C6.16602 8.13345 6.23268 7.83345 6.38268 7.56678C6.53268 7.31678 6.71602 7.11678 6.96602 6.98345C7.21602 6.85011 7.49935 6.78345 7.79935 6.78345C8.11602 6.78345 8.38268 6.85011 8.63268 6.98345C8.88268 7.11678 9.08268 7.31678 9.21602 7.56678C9.36602 7.81678 9.43268 8.13345 9.43268 8.50011C9.43268 8.86678 9.36602 9.18345 9.21602 9.43345C9.06602 9.70011 8.88268 9.88345 8.63268 10.0168C8.38268 10.1501 8.11602 10.2168 7.79935 10.2168ZM7.21602 13.0334L11.4327 6.86678H12.916L8.69935 13.0334H7.21602ZM7.79935 9.26678C7.89935 9.26678 7.98268 9.21678 8.06602 9.10011C8.14935 8.98345 8.18268 8.78345 8.18268 8.50011C8.18268 8.20011 8.14935 8.00011 8.06602 7.90011C7.98268 7.78345 7.89935 7.73345 7.79935 7.73345C7.69935 7.73345 7.61602 7.78345 7.53268 7.90011C7.44935 8.01678 7.41602 8.21678 7.41602 8.50011C7.41602 8.80011 7.44935 9.00011 7.53268 9.10011C7.61602 9.21678 7.69935 9.26678 7.79935 9.26678ZM12.316 13.1168C11.9993 13.1168 11.7327 13.0501 11.4827 12.9168C11.2327 12.7834 11.0327 12.5834 10.8993 12.3334C10.7493 12.0834 10.6827 11.7668 10.6827 11.4001C10.6827 11.0334 10.7493 10.7334 10.8993 10.4668C11.0493 10.2168 11.2327 10.0168 11.4827 9.88345C11.7327 9.75011 12.016 9.68345 12.316 9.68345C12.616 9.68345 12.8993 9.75011 13.1493 9.88345C13.3993 10.0168 13.5993 10.2168 13.7327 10.4668C13.8827 10.7168 13.9493 11.0334 13.9493 11.4001C13.9493 11.7668 13.8827 12.0834 13.7327 12.3334C13.5827 12.6001 13.3993 12.7834 13.1493 12.9168C12.8993 13.0501 12.6327 13.1168 12.316 13.1168ZM12.316 12.1668C12.416 12.1668 12.4993 12.1168 12.5827 12.0001C12.666 11.8834 12.6993 11.6834 12.6993 11.4001C12.6993 11.1001 12.666 10.9001 12.5827 10.8001C12.4993 10.6834 12.416 10.6334 12.316 10.6334C12.216 10.6334 12.1327 10.6834 12.0493 10.8001C11.966 10.9168 11.9327 11.1168 11.9327 11.4001C11.9327 11.7001 11.966 11.9001 12.0493 12.0001C12.1327 12.1168 12.216 12.1668 12.316 12.1668Z" fill="#F2E3C9"/>
</svg>
