<svg width="20" height="21" viewBox="0 0 20 21" fill="none" xmlns="http://www.w3.org/2000/svg">
<path d="M9.99935 18.8332C9.8049 18.8332 9.63824 18.7776 9.49935 18.6665C9.36046 18.5554 9.25629 18.4096 9.18685 18.229C8.92296 17.4512 8.58963 16.7221 8.18685 16.0415C7.79796 15.3609 7.24935 14.5623 6.54102 13.6457C5.83268 12.729 5.25629 11.854 4.81185 11.0207C4.38129 10.1873 4.16602 9.18039 4.16602 7.99984C4.16602 6.37484 4.72852 4.99984 5.85352 3.87484C6.9924 2.73595 8.37435 2.1665 9.99935 2.1665C11.6243 2.1665 12.9993 2.73595 14.1243 3.87484C15.2632 4.99984 15.8327 6.37484 15.8327 7.99984C15.8327 9.26373 15.5896 10.3193 15.1035 11.1665C14.6313 11.9998 14.0827 12.8262 13.4577 13.6457C12.7077 14.6457 12.1382 15.479 11.7493 16.1457C11.3743 16.7984 11.0618 17.4929 10.8118 18.229C10.7424 18.4234 10.6313 18.5762 10.4785 18.6873C10.3396 18.7846 10.1799 18.8332 9.99935 18.8332ZM9.99935 10.0832C10.5827 10.0832 11.0757 9.88178 11.4785 9.479C11.8813 9.07623 12.0827 8.58317 12.0827 7.99984C12.0827 7.4165 11.8813 6.92345 11.4785 6.52067C11.0757 6.11789 10.5827 5.9165 9.99935 5.9165C9.41602 5.9165 8.92296 6.11789 8.52018 6.52067C8.1174 6.92345 7.91602 7.4165 7.91602 7.99984C7.91602 8.58317 8.1174 9.07623 8.52018 9.479C8.92296 9.88178 9.41602 10.0832 9.99935 10.0832Z" fill="#058FA2"/>
</svg>
