<svg width="20" height="20" viewBox="0 0 20 20" fill="none" xmlns="http://www.w3.org/2000/svg">
<path d="M14.084 18.3332H5.91733C4.50066 18.3332 3.33398 17.1748 3.33398 15.7498V4.24985C3.33398 2.83318 4.49233 1.6665 5.91733 1.6665H14.084C15.5007 1.6665 16.6673 2.82485 16.6673 4.24985V15.7498C16.6673 17.1748 15.509 18.3332 14.084 18.3332Z" stroke="#058FA2" stroke-width="1.2" stroke-linecap="round" stroke-linejoin="round"/>
<path d="M15.4173 10.8332H4.58398C3.89232 10.8332 3.33398 10.2748 3.33398 9.58317V7.9165C3.33398 7.22484 3.89232 6.6665 4.58398 6.6665H15.4173C16.109 6.6665 16.6673 7.22484 16.6673 7.9165V9.58317C16.6673 10.2748 16.109 10.8332 15.4173 10.8332Z" stroke="#058FA2" stroke-width="1.2" stroke-linecap="round" stroke-linejoin="round"/>
<path d="M7.07812 14.75H7.08561" stroke="#058FA2" stroke-width="1.2" stroke-linecap="round" stroke-linejoin="round"/>
<path d="M12.9121 14.75H12.9196" stroke="#058FA2" stroke-width="1.2" stroke-linecap="round" stroke-linejoin="round"/>
<path d="M7.91602 4.1665H12.0827" stroke="#058FA2" stroke-width="1.2" stroke-linecap="round" stroke-linejoin="round"/>
</svg>
