<svg width="85" height="81" viewBox="0 0 85 81" fill="none" xmlns="http://www.w3.org/2000/svg">
<mask id="path-1-outside-1_3379_5679" maskUnits="userSpaceOnUse" x="0" y="0" width="85" height="81" fill="black">
<rect fill="white" width="85" height="81"/>
<path fill-rule="evenodd" clip-rule="evenodd" d="M15.1517 1.35429C13.4697 2.03697 12.5972 3.70392 12.5972 6.23546V8.59071H8.351H4.10524L2.55242 10.1496L1 11.7089L1.0016 34.7462C1.0028 56.8494 1.03439 57.8357 1.77981 59.0633C3.22265 61.4394 2.77836 61.3876 22.8534 61.5169L41.3081 61.6358L41.5836 63.1232C42.3363 67.1868 45.643 72.5077 49.0558 75.1472C55.3027 79.9782 62.5509 81.2456 69.6835 78.7546C76.0668 76.5254 80.896 71.5475 83.2094 64.8114C84.2564 61.7623 84.2652 55.0543 83.2258 51.961C81.615 47.1678 78.5874 43.0701 74.7823 40.5341L72.5824 39.0676V25.3883V11.7089L71.03 10.1496L69.4772 8.59071H65.2314H60.9853V6.77076C60.9853 4.30307 60.0999 2.3494 58.6371 1.58962C56.8527 0.663182 55.559 0.817387 54.095 2.13094C52.9452 3.16259 52.7665 3.60353 52.5889 5.84553L52.3874 8.38992L36.6912 8.49513L20.9951 8.59994V6.61374C20.9951 3.94326 20.4688 2.72287 18.9056 1.76551C17.5099 0.910954 16.5134 0.802126 15.1517 1.35429ZM15.2193 4.26291C14.5143 5.27328 14.3483 10.2922 14.9658 11.923C15.4257 13.1378 16.6833 13.5044 17.7699 12.7402C18.5081 12.221 18.5957 11.7451 18.5957 8.24656C18.5957 5.73911 18.4233 4.16091 18.1158 3.8521C17.3524 3.08549 15.8963 3.2919 15.2193 4.26291ZM55.0007 4.14686C54.7732 4.57414 54.5868 6.47158 54.5868 8.36341C54.5868 11.268 54.7112 11.9282 55.3866 12.6065C56.3496 13.5735 56.5532 13.5891 57.6969 12.7844C58.5123 12.2113 58.5859 11.8346 58.5859 8.24656C58.5859 5.73911 58.4135 4.16091 58.106 3.8521C57.3458 3.0887 55.4698 3.2666 55.0007 4.14686ZM4.72508 11.003C4.2448 11.1973 3.65975 11.7162 3.4254 12.1559C3.13907 12.6936 2.99951 20.1951 2.99951 35.0867V57.218L3.98127 58.2035L4.96263 59.1894H22.9766H40.9902L40.9962 57.6835C41.0046 55.4985 42.0047 51.5723 43.1968 49.0439C45.5567 44.0395 50.3507 39.7049 55.5282 37.8954C58.9222 36.7091 64.0825 36.4292 67.2413 37.2597C68.593 37.6151 69.9047 37.9058 70.1566 37.9058C70.4937 37.9058 70.5841 34.5141 70.4989 25.069C70.3934 13.3795 70.3194 12.1684 69.6695 11.5158C68.6334 10.4749 60.9853 10.1822 60.9853 11.1833C60.9853 13.1458 58.6155 15.4175 56.568 15.4175C54.6056 15.4175 52.5873 13.3719 52.5873 11.3829C52.5873 10.6183 52.1946 10.5986 36.8616 10.5986H21.1363L20.7655 12.0908C20.2641 14.1116 18.1614 15.5717 16.1963 15.2633C14.5199 15.0003 12.5972 13.0414 12.5972 11.5961C12.5972 10.6078 12.5648 10.599 9.09801 10.6239C7.17368 10.6379 5.20577 10.8086 4.72508 11.003ZM7.79833 25.0553C7.16849 25.6878 6.99853 26.3938 6.99853 28.3792C6.99853 32.1982 7.49521 32.6853 11.3914 32.6853C15.4521 32.6853 15.7964 32.3693 15.7964 28.641C15.7964 24.8381 15.2093 24.2522 11.3974 24.2522C9.1312 24.2522 8.44577 24.4052 7.79833 25.0553ZM18.0242 24.8831C17.2432 25.6678 17.1256 31.4501 17.8759 32.2034C18.1702 32.499 19.6086 32.6853 21.5949 32.6853C23.5813 32.6853 25.0197 32.499 25.314 32.2034C25.6036 31.9127 25.7939 30.5039 25.7939 28.6515C25.7939 24.6594 25.3956 24.2522 21.4922 24.2522C19.4443 24.2522 18.4777 24.4281 18.0242 24.8831ZM28.0554 24.9867C27.5775 25.5168 27.3935 26.4725 27.3935 28.4262C27.3935 32.493 27.5799 32.6853 31.5265 32.6853C33.564 32.6853 35.0156 32.5006 35.3116 32.2034C35.6075 31.9062 35.7915 30.4485 35.7915 28.4025C35.7915 24.4305 35.6063 24.2522 31.4809 24.2522C29.3114 24.2522 28.5748 24.41 28.0554 24.9867ZM38.4908 24.6859C37.9137 25.0236 37.791 25.6766 37.791 28.4085C37.791 30.4497 37.9753 31.9067 38.2708 32.2034C38.5668 32.5006 40.0184 32.6853 42.0559 32.6853C45.9933 32.6853 46.1889 32.4869 46.1889 28.4953C46.1889 24.8742 45.5527 24.2478 41.89 24.2642C40.4051 24.2711 38.8759 24.4606 38.4908 24.6859ZM48.4503 24.9867C47.6409 25.8846 47.5014 31.4332 48.2684 32.2034C48.5627 32.499 50.0012 32.6853 51.9875 32.6853C53.9738 32.6853 55.4122 32.499 55.7066 32.2034C55.9961 31.9127 56.1865 30.5039 56.1865 28.6515C56.1865 24.6666 55.7841 24.2522 51.9179 24.2522C49.7076 24.2522 48.9718 24.408 48.4503 24.9867ZM58.4087 25.1449C57.6873 26.179 57.5481 30.6855 58.2 31.9087C58.5579 32.5805 59.0605 32.6853 61.919 32.6853C63.9565 32.6853 65.4082 32.5006 65.7041 32.2034C66 31.9062 66.184 30.4485 66.184 28.4025C66.184 24.4257 66.0024 24.2522 61.8339 24.2522C59.3909 24.2522 58.9514 24.3666 58.4087 25.1449ZM31.4925 26.5813L29.7929 26.7078V28.6924V30.6774H31.7924H33.7919V28.6932C33.7919 27.6017 33.6568 26.652 33.492 26.5821C33.3273 26.5123 32.4275 26.5119 31.4925 26.5813ZM9.39794 28.6695V30.6774H11.3974H13.397V28.6695V26.6617H11.3974H9.39794V28.6695ZM19.3955 28.6695V30.6774H21.5949H23.7944V28.6695V26.6617H21.5949H19.3955V28.6695ZM39.7905 28.6695V30.6774H41.79H43.7895V28.6695V26.6617H41.79H39.7905V28.6695ZM49.788 28.6695V30.6774H51.9875H54.1869V28.6695V26.6617H51.9875H49.788V28.6695ZM60.1855 28.6695V30.6774H62.185H64.1845V28.6695V26.6617H62.185H60.1855V28.6695ZM7.99668 35.6485C6.92454 36.436 6.62902 41.0947 7.56119 42.5231C8.16904 43.4548 8.44657 43.5279 11.3783 43.5279C15.4341 43.5279 15.7964 43.2034 15.7964 39.5728C15.7964 35.6228 15.3077 35.0948 11.651 35.0948C9.81744 35.0948 8.47376 35.2984 7.99668 35.6485ZM18.0242 35.7256C17.2432 36.5103 17.1256 42.2926 17.8759 43.046C18.5209 43.6937 24.669 43.6937 25.314 43.046C25.6036 42.7552 25.7939 41.3465 25.7939 39.494C25.7939 35.502 25.3956 35.0948 21.4922 35.0948C19.4443 35.0948 18.4777 35.2707 18.0242 35.7256ZM9.39794 39.3113V41.52H11.3974H13.397V39.3113V37.1026H11.3974H9.39794V39.3113ZM19.6806 37.352C19.5239 37.5094 19.3955 38.521 19.3955 39.6001V41.5622L21.495 41.4405L23.5945 41.3192V39.3113V37.3034L21.7801 37.1846C20.7819 37.1191 19.8374 37.1946 19.6806 37.352ZM59.3857 39.1515C56.2024 39.6952 51.9335 41.8746 49.2873 44.3069C46.4036 46.9573 43.9555 51.6739 43.438 55.5752C41.7212 68.5284 52.5453 79.318 65.5262 77.5924C69.2908 77.092 73.9901 74.5963 76.6974 71.6595C85.1037 62.5417 83.2506 48.6789 72.7016 41.7666C69.3388 39.5627 63.5878 38.4335 59.3857 39.1515ZM59.6608 41.5859C53.7702 42.432 48.21 47.4003 46.2517 53.5673C43.8299 61.1944 47.8305 70.2484 55.1399 73.6831C60.2167 76.0688 65.2094 76.0359 70.1686 73.5843C76.6598 70.3753 80.5333 62.9694 79.4035 55.9261C77.8767 46.4068 69.328 40.1972 59.6608 41.5859ZM57.9116 44.2736C52.7821 46.0538 48.9234 50.4936 48.0197 55.6559L47.7597 57.1425L50.2735 57.2622C52.481 57.3678 52.7873 57.4803 52.7873 58.1854C52.7873 58.8769 52.4542 59.0163 50.3879 59.1894L47.9885 59.3902L48.1056 60.9965C48.4811 66.1415 54.2561 72.0671 59.8655 73.0634L61.3448 73.3265L61.4652 70.7757C61.5791 68.3546 61.6359 68.2248 62.5849 68.2248C63.5338 68.2248 63.5906 68.3546 63.7046 70.7757L63.825 73.3265L65.3042 73.057C69.0681 72.3719 73.3378 69.4131 75.2226 66.1832C76.4203 64.1312 77.586 60.0359 77.1077 59.56C76.9282 59.3817 75.7916 59.1797 74.5819 59.1119C72.69 59.0058 72.3825 58.8761 72.3825 58.1854C72.3825 57.4807 72.6888 57.3678 74.8819 57.2626C76.2567 57.1971 77.3812 56.9871 77.3812 56.7964C77.3812 55.6278 75.7033 51.3891 74.6079 49.7901C72.5656 46.8096 68.8106 44.3792 65.2842 43.7564L63.7846 43.4913V45.6691C63.7846 47.1152 63.583 48.0147 63.1847 48.3468C62.1254 49.2295 61.3852 48.1356 61.3852 45.6876C61.3852 43.1885 61.2256 43.1239 57.9116 44.2736ZM61.6279 53.801C61.2144 54.8829 61.3608 59.5966 61.8367 60.521C62.3621 61.5422 66.849 66.0162 67.3477 66.0162C67.5337 66.0162 67.918 65.7355 68.2015 65.3921C68.6422 64.8588 68.3579 64.4038 66.2508 62.2691L63.7846 59.77V57.1032C63.7846 53.9476 63.5462 53.1657 62.5849 53.1657C62.1922 53.1657 61.7615 53.4516 61.6279 53.801Z"/>
</mask>
<path fill-rule="evenodd" clip-rule="evenodd" d="M15.1517 1.35429C13.4697 2.03697 12.5972 3.70392 12.5972 6.23546V8.59071H8.351H4.10524L2.55242 10.1496L1 11.7089L1.0016 34.7462C1.0028 56.8494 1.03439 57.8357 1.77981 59.0633C3.22265 61.4394 2.77836 61.3876 22.8534 61.5169L41.3081 61.6358L41.5836 63.1232C42.3363 67.1868 45.643 72.5077 49.0558 75.1472C55.3027 79.9782 62.5509 81.2456 69.6835 78.7546C76.0668 76.5254 80.896 71.5475 83.2094 64.8114C84.2564 61.7623 84.2652 55.0543 83.2258 51.961C81.615 47.1678 78.5874 43.0701 74.7823 40.5341L72.5824 39.0676V25.3883V11.7089L71.03 10.1496L69.4772 8.59071H65.2314H60.9853V6.77076C60.9853 4.30307 60.0999 2.3494 58.6371 1.58962C56.8527 0.663182 55.559 0.817387 54.095 2.13094C52.9452 3.16259 52.7665 3.60353 52.5889 5.84553L52.3874 8.38992L36.6912 8.49513L20.9951 8.59994V6.61374C20.9951 3.94326 20.4688 2.72287 18.9056 1.76551C17.5099 0.910954 16.5134 0.802126 15.1517 1.35429ZM15.2193 4.26291C14.5143 5.27328 14.3483 10.2922 14.9658 11.923C15.4257 13.1378 16.6833 13.5044 17.7699 12.7402C18.5081 12.221 18.5957 11.7451 18.5957 8.24656C18.5957 5.73911 18.4233 4.16091 18.1158 3.8521C17.3524 3.08549 15.8963 3.2919 15.2193 4.26291ZM55.0007 4.14686C54.7732 4.57414 54.5868 6.47158 54.5868 8.36341C54.5868 11.268 54.7112 11.9282 55.3866 12.6065C56.3496 13.5735 56.5532 13.5891 57.6969 12.7844C58.5123 12.2113 58.5859 11.8346 58.5859 8.24656C58.5859 5.73911 58.4135 4.16091 58.106 3.8521C57.3458 3.0887 55.4698 3.2666 55.0007 4.14686ZM4.72508 11.003C4.2448 11.1973 3.65975 11.7162 3.4254 12.1559C3.13907 12.6936 2.99951 20.1951 2.99951 35.0867V57.218L3.98127 58.2035L4.96263 59.1894H22.9766H40.9902L40.9962 57.6835C41.0046 55.4985 42.0047 51.5723 43.1968 49.0439C45.5567 44.0395 50.3507 39.7049 55.5282 37.8954C58.9222 36.7091 64.0825 36.4292 67.2413 37.2597C68.593 37.6151 69.9047 37.9058 70.1566 37.9058C70.4937 37.9058 70.5841 34.5141 70.4989 25.069C70.3934 13.3795 70.3194 12.1684 69.6695 11.5158C68.6334 10.4749 60.9853 10.1822 60.9853 11.1833C60.9853 13.1458 58.6155 15.4175 56.568 15.4175C54.6056 15.4175 52.5873 13.3719 52.5873 11.3829C52.5873 10.6183 52.1946 10.5986 36.8616 10.5986H21.1363L20.7655 12.0908C20.2641 14.1116 18.1614 15.5717 16.1963 15.2633C14.5199 15.0003 12.5972 13.0414 12.5972 11.5961C12.5972 10.6078 12.5648 10.599 9.09801 10.6239C7.17368 10.6379 5.20577 10.8086 4.72508 11.003ZM7.79833 25.0553C7.16849 25.6878 6.99853 26.3938 6.99853 28.3792C6.99853 32.1982 7.49521 32.6853 11.3914 32.6853C15.4521 32.6853 15.7964 32.3693 15.7964 28.641C15.7964 24.8381 15.2093 24.2522 11.3974 24.2522C9.1312 24.2522 8.44577 24.4052 7.79833 25.0553ZM18.0242 24.8831C17.2432 25.6678 17.1256 31.4501 17.8759 32.2034C18.1702 32.499 19.6086 32.6853 21.5949 32.6853C23.5813 32.6853 25.0197 32.499 25.314 32.2034C25.6036 31.9127 25.7939 30.5039 25.7939 28.6515C25.7939 24.6594 25.3956 24.2522 21.4922 24.2522C19.4443 24.2522 18.4777 24.4281 18.0242 24.8831ZM28.0554 24.9867C27.5775 25.5168 27.3935 26.4725 27.3935 28.4262C27.3935 32.493 27.5799 32.6853 31.5265 32.6853C33.564 32.6853 35.0156 32.5006 35.3116 32.2034C35.6075 31.9062 35.7915 30.4485 35.7915 28.4025C35.7915 24.4305 35.6063 24.2522 31.4809 24.2522C29.3114 24.2522 28.5748 24.41 28.0554 24.9867ZM38.4908 24.6859C37.9137 25.0236 37.791 25.6766 37.791 28.4085C37.791 30.4497 37.9753 31.9067 38.2708 32.2034C38.5668 32.5006 40.0184 32.6853 42.0559 32.6853C45.9933 32.6853 46.1889 32.4869 46.1889 28.4953C46.1889 24.8742 45.5527 24.2478 41.89 24.2642C40.4051 24.2711 38.8759 24.4606 38.4908 24.6859ZM48.4503 24.9867C47.6409 25.8846 47.5014 31.4332 48.2684 32.2034C48.5627 32.499 50.0012 32.6853 51.9875 32.6853C53.9738 32.6853 55.4122 32.499 55.7066 32.2034C55.9961 31.9127 56.1865 30.5039 56.1865 28.6515C56.1865 24.6666 55.7841 24.2522 51.9179 24.2522C49.7076 24.2522 48.9718 24.408 48.4503 24.9867ZM58.4087 25.1449C57.6873 26.179 57.5481 30.6855 58.2 31.9087C58.5579 32.5805 59.0605 32.6853 61.919 32.6853C63.9565 32.6853 65.4082 32.5006 65.7041 32.2034C66 31.9062 66.184 30.4485 66.184 28.4025C66.184 24.4257 66.0024 24.2522 61.8339 24.2522C59.3909 24.2522 58.9514 24.3666 58.4087 25.1449ZM31.4925 26.5813L29.7929 26.7078V28.6924V30.6774H31.7924H33.7919V28.6932C33.7919 27.6017 33.6568 26.652 33.492 26.5821C33.3273 26.5123 32.4275 26.5119 31.4925 26.5813ZM9.39794 28.6695V30.6774H11.3974H13.397V28.6695V26.6617H11.3974H9.39794V28.6695ZM19.3955 28.6695V30.6774H21.5949H23.7944V28.6695V26.6617H21.5949H19.3955V28.6695ZM39.7905 28.6695V30.6774H41.79H43.7895V28.6695V26.6617H41.79H39.7905V28.6695ZM49.788 28.6695V30.6774H51.9875H54.1869V28.6695V26.6617H51.9875H49.788V28.6695ZM60.1855 28.6695V30.6774H62.185H64.1845V28.6695V26.6617H62.185H60.1855V28.6695ZM7.99668 35.6485C6.92454 36.436 6.62902 41.0947 7.56119 42.5231C8.16904 43.4548 8.44657 43.5279 11.3783 43.5279C15.4341 43.5279 15.7964 43.2034 15.7964 39.5728C15.7964 35.6228 15.3077 35.0948 11.651 35.0948C9.81744 35.0948 8.47376 35.2984 7.99668 35.6485ZM18.0242 35.7256C17.2432 36.5103 17.1256 42.2926 17.8759 43.046C18.5209 43.6937 24.669 43.6937 25.314 43.046C25.6036 42.7552 25.7939 41.3465 25.7939 39.494C25.7939 35.502 25.3956 35.0948 21.4922 35.0948C19.4443 35.0948 18.4777 35.2707 18.0242 35.7256ZM9.39794 39.3113V41.52H11.3974H13.397V39.3113V37.1026H11.3974H9.39794V39.3113ZM19.6806 37.352C19.5239 37.5094 19.3955 38.521 19.3955 39.6001V41.5622L21.495 41.4405L23.5945 41.3192V39.3113V37.3034L21.7801 37.1846C20.7819 37.1191 19.8374 37.1946 19.6806 37.352ZM59.3857 39.1515C56.2024 39.6952 51.9335 41.8746 49.2873 44.3069C46.4036 46.9573 43.9555 51.6739 43.438 55.5752C41.7212 68.5284 52.5453 79.318 65.5262 77.5924C69.2908 77.092 73.9901 74.5963 76.6974 71.6595C85.1037 62.5417 83.2506 48.6789 72.7016 41.7666C69.3388 39.5627 63.5878 38.4335 59.3857 39.1515ZM59.6608 41.5859C53.7702 42.432 48.21 47.4003 46.2517 53.5673C43.8299 61.1944 47.8305 70.2484 55.1399 73.6831C60.2167 76.0688 65.2094 76.0359 70.1686 73.5843C76.6598 70.3753 80.5333 62.9694 79.4035 55.9261C77.8767 46.4068 69.328 40.1972 59.6608 41.5859ZM57.9116 44.2736C52.7821 46.0538 48.9234 50.4936 48.0197 55.6559L47.7597 57.1425L50.2735 57.2622C52.481 57.3678 52.7873 57.4803 52.7873 58.1854C52.7873 58.8769 52.4542 59.0163 50.3879 59.1894L47.9885 59.3902L48.1056 60.9965C48.4811 66.1415 54.2561 72.0671 59.8655 73.0634L61.3448 73.3265L61.4652 70.7757C61.5791 68.3546 61.6359 68.2248 62.5849 68.2248C63.5338 68.2248 63.5906 68.3546 63.7046 70.7757L63.825 73.3265L65.3042 73.057C69.0681 72.3719 73.3378 69.4131 75.2226 66.1832C76.4203 64.1312 77.586 60.0359 77.1077 59.56C76.9282 59.3817 75.7916 59.1797 74.5819 59.1119C72.69 59.0058 72.3825 58.8761 72.3825 58.1854C72.3825 57.4807 72.6888 57.3678 74.8819 57.2626C76.2567 57.1971 77.3812 56.9871 77.3812 56.7964C77.3812 55.6278 75.7033 51.3891 74.6079 49.7901C72.5656 46.8096 68.8106 44.3792 65.2842 43.7564L63.7846 43.4913V45.6691C63.7846 47.1152 63.583 48.0147 63.1847 48.3468C62.1254 49.2295 61.3852 48.1356 61.3852 45.6876C61.3852 43.1885 61.2256 43.1239 57.9116 44.2736ZM61.6279 53.801C61.2144 54.8829 61.3608 59.5966 61.8367 60.521C62.3621 61.5422 66.849 66.0162 67.3477 66.0162C67.5337 66.0162 67.918 65.7355 68.2015 65.3921C68.6422 64.8588 68.3579 64.4038 66.2508 62.2691L63.7846 59.77V57.1032C63.7846 53.9476 63.5462 53.1657 62.5849 53.1657C62.1922 53.1657 61.7615 53.4516 61.6279 53.801Z" fill="#058FA2"/>
<path fill-rule="evenodd" clip-rule="evenodd" d="M15.1517 1.35429C13.4697 2.03697 12.5972 3.70392 12.5972 6.23546V8.59071H8.351H4.10524L2.55242 10.1496L1 11.7089L1.0016 34.7462C1.0028 56.8494 1.03439 57.8357 1.77981 59.0633C3.22265 61.4394 2.77836 61.3876 22.8534 61.5169L41.3081 61.6358L41.5836 63.1232C42.3363 67.1868 45.643 72.5077 49.0558 75.1472C55.3027 79.9782 62.5509 81.2456 69.6835 78.7546C76.0668 76.5254 80.896 71.5475 83.2094 64.8114C84.2564 61.7623 84.2652 55.0543 83.2258 51.961C81.615 47.1678 78.5874 43.0701 74.7823 40.5341L72.5824 39.0676V25.3883V11.7089L71.03 10.1496L69.4772 8.59071H65.2314H60.9853V6.77076C60.9853 4.30307 60.0999 2.3494 58.6371 1.58962C56.8527 0.663182 55.559 0.817387 54.095 2.13094C52.9452 3.16259 52.7665 3.60353 52.5889 5.84553L52.3874 8.38992L36.6912 8.49513L20.9951 8.59994V6.61374C20.9951 3.94326 20.4688 2.72287 18.9056 1.76551C17.5099 0.910954 16.5134 0.802126 15.1517 1.35429ZM15.2193 4.26291C14.5143 5.27328 14.3483 10.2922 14.9658 11.923C15.4257 13.1378 16.6833 13.5044 17.7699 12.7402C18.5081 12.221 18.5957 11.7451 18.5957 8.24656C18.5957 5.73911 18.4233 4.16091 18.1158 3.8521C17.3524 3.08549 15.8963 3.2919 15.2193 4.26291ZM55.0007 4.14686C54.7732 4.57414 54.5868 6.47158 54.5868 8.36341C54.5868 11.268 54.7112 11.9282 55.3866 12.6065C56.3496 13.5735 56.5532 13.5891 57.6969 12.7844C58.5123 12.2113 58.5859 11.8346 58.5859 8.24656C58.5859 5.73911 58.4135 4.16091 58.106 3.8521C57.3458 3.0887 55.4698 3.2666 55.0007 4.14686ZM4.72508 11.003C4.2448 11.1973 3.65975 11.7162 3.4254 12.1559C3.13907 12.6936 2.99951 20.1951 2.99951 35.0867V57.218L3.98127 58.2035L4.96263 59.1894H22.9766H40.9902L40.9962 57.6835C41.0046 55.4985 42.0047 51.5723 43.1968 49.0439C45.5567 44.0395 50.3507 39.7049 55.5282 37.8954C58.9222 36.7091 64.0825 36.4292 67.2413 37.2597C68.593 37.6151 69.9047 37.9058 70.1566 37.9058C70.4937 37.9058 70.5841 34.5141 70.4989 25.069C70.3934 13.3795 70.3194 12.1684 69.6695 11.5158C68.6334 10.4749 60.9853 10.1822 60.9853 11.1833C60.9853 13.1458 58.6155 15.4175 56.568 15.4175C54.6056 15.4175 52.5873 13.3719 52.5873 11.3829C52.5873 10.6183 52.1946 10.5986 36.8616 10.5986H21.1363L20.7655 12.0908C20.2641 14.1116 18.1614 15.5717 16.1963 15.2633C14.5199 15.0003 12.5972 13.0414 12.5972 11.5961C12.5972 10.6078 12.5648 10.599 9.09801 10.6239C7.17368 10.6379 5.20577 10.8086 4.72508 11.003ZM7.79833 25.0553C7.16849 25.6878 6.99853 26.3938 6.99853 28.3792C6.99853 32.1982 7.49521 32.6853 11.3914 32.6853C15.4521 32.6853 15.7964 32.3693 15.7964 28.641C15.7964 24.8381 15.2093 24.2522 11.3974 24.2522C9.1312 24.2522 8.44577 24.4052 7.79833 25.0553ZM18.0242 24.8831C17.2432 25.6678 17.1256 31.4501 17.8759 32.2034C18.1702 32.499 19.6086 32.6853 21.5949 32.6853C23.5813 32.6853 25.0197 32.499 25.314 32.2034C25.6036 31.9127 25.7939 30.5039 25.7939 28.6515C25.7939 24.6594 25.3956 24.2522 21.4922 24.2522C19.4443 24.2522 18.4777 24.4281 18.0242 24.8831ZM28.0554 24.9867C27.5775 25.5168 27.3935 26.4725 27.3935 28.4262C27.3935 32.493 27.5799 32.6853 31.5265 32.6853C33.564 32.6853 35.0156 32.5006 35.3116 32.2034C35.6075 31.9062 35.7915 30.4485 35.7915 28.4025C35.7915 24.4305 35.6063 24.2522 31.4809 24.2522C29.3114 24.2522 28.5748 24.41 28.0554 24.9867ZM38.4908 24.6859C37.9137 25.0236 37.791 25.6766 37.791 28.4085C37.791 30.4497 37.9753 31.9067 38.2708 32.2034C38.5668 32.5006 40.0184 32.6853 42.0559 32.6853C45.9933 32.6853 46.1889 32.4869 46.1889 28.4953C46.1889 24.8742 45.5527 24.2478 41.89 24.2642C40.4051 24.2711 38.8759 24.4606 38.4908 24.6859ZM48.4503 24.9867C47.6409 25.8846 47.5014 31.4332 48.2684 32.2034C48.5627 32.499 50.0012 32.6853 51.9875 32.6853C53.9738 32.6853 55.4122 32.499 55.7066 32.2034C55.9961 31.9127 56.1865 30.5039 56.1865 28.6515C56.1865 24.6666 55.7841 24.2522 51.9179 24.2522C49.7076 24.2522 48.9718 24.408 48.4503 24.9867ZM58.4087 25.1449C57.6873 26.179 57.5481 30.6855 58.2 31.9087C58.5579 32.5805 59.0605 32.6853 61.919 32.6853C63.9565 32.6853 65.4082 32.5006 65.7041 32.2034C66 31.9062 66.184 30.4485 66.184 28.4025C66.184 24.4257 66.0024 24.2522 61.8339 24.2522C59.3909 24.2522 58.9514 24.3666 58.4087 25.1449ZM31.4925 26.5813L29.7929 26.7078V28.6924V30.6774H31.7924H33.7919V28.6932C33.7919 27.6017 33.6568 26.652 33.492 26.5821C33.3273 26.5123 32.4275 26.5119 31.4925 26.5813ZM9.39794 28.6695V30.6774H11.3974H13.397V28.6695V26.6617H11.3974H9.39794V28.6695ZM19.3955 28.6695V30.6774H21.5949H23.7944V28.6695V26.6617H21.5949H19.3955V28.6695ZM39.7905 28.6695V30.6774H41.79H43.7895V28.6695V26.6617H41.79H39.7905V28.6695ZM49.788 28.6695V30.6774H51.9875H54.1869V28.6695V26.6617H51.9875H49.788V28.6695ZM60.1855 28.6695V30.6774H62.185H64.1845V28.6695V26.6617H62.185H60.1855V28.6695ZM7.99668 35.6485C6.92454 36.436 6.62902 41.0947 7.56119 42.5231C8.16904 43.4548 8.44657 43.5279 11.3783 43.5279C15.4341 43.5279 15.7964 43.2034 15.7964 39.5728C15.7964 35.6228 15.3077 35.0948 11.651 35.0948C9.81744 35.0948 8.47376 35.2984 7.99668 35.6485ZM18.0242 35.7256C17.2432 36.5103 17.1256 42.2926 17.8759 43.046C18.5209 43.6937 24.669 43.6937 25.314 43.046C25.6036 42.7552 25.7939 41.3465 25.7939 39.494C25.7939 35.502 25.3956 35.0948 21.4922 35.0948C19.4443 35.0948 18.4777 35.2707 18.0242 35.7256ZM9.39794 39.3113V41.52H11.3974H13.397V39.3113V37.1026H11.3974H9.39794V39.3113ZM19.6806 37.352C19.5239 37.5094 19.3955 38.521 19.3955 39.6001V41.5622L21.495 41.4405L23.5945 41.3192V39.3113V37.3034L21.7801 37.1846C20.7819 37.1191 19.8374 37.1946 19.6806 37.352ZM59.3857 39.1515C56.2024 39.6952 51.9335 41.8746 49.2873 44.3069C46.4036 46.9573 43.9555 51.6739 43.438 55.5752C41.7212 68.5284 52.5453 79.318 65.5262 77.5924C69.2908 77.092 73.9901 74.5963 76.6974 71.6595C85.1037 62.5417 83.2506 48.6789 72.7016 41.7666C69.3388 39.5627 63.5878 38.4335 59.3857 39.1515ZM59.6608 41.5859C53.7702 42.432 48.21 47.4003 46.2517 53.5673C43.8299 61.1944 47.8305 70.2484 55.1399 73.6831C60.2167 76.0688 65.2094 76.0359 70.1686 73.5843C76.6598 70.3753 80.5333 62.9694 79.4035 55.9261C77.8767 46.4068 69.328 40.1972 59.6608 41.5859ZM57.9116 44.2736C52.7821 46.0538 48.9234 50.4936 48.0197 55.6559L47.7597 57.1425L50.2735 57.2622C52.481 57.3678 52.7873 57.4803 52.7873 58.1854C52.7873 58.8769 52.4542 59.0163 50.3879 59.1894L47.9885 59.3902L48.1056 60.9965C48.4811 66.1415 54.2561 72.0671 59.8655 73.0634L61.3448 73.3265L61.4652 70.7757C61.5791 68.3546 61.6359 68.2248 62.5849 68.2248C63.5338 68.2248 63.5906 68.3546 63.7046 70.7757L63.825 73.3265L65.3042 73.057C69.0681 72.3719 73.3378 69.4131 75.2226 66.1832C76.4203 64.1312 77.586 60.0359 77.1077 59.56C76.9282 59.3817 75.7916 59.1797 74.5819 59.1119C72.69 59.0058 72.3825 58.8761 72.3825 58.1854C72.3825 57.4807 72.6888 57.3678 74.8819 57.2626C76.2567 57.1971 77.3812 56.9871 77.3812 56.7964C77.3812 55.6278 75.7033 51.3891 74.6079 49.7901C72.5656 46.8096 68.8106 44.3792 65.2842 43.7564L63.7846 43.4913V45.6691C63.7846 47.1152 63.583 48.0147 63.1847 48.3468C62.1254 49.2295 61.3852 48.1356 61.3852 45.6876C61.3852 43.1885 61.2256 43.1239 57.9116 44.2736ZM61.6279 53.801C61.2144 54.8829 61.3608 59.5966 61.8367 60.521C62.3621 61.5422 66.849 66.0162 67.3477 66.0162C67.5337 66.0162 67.918 65.7355 68.2015 65.3921C68.6422 64.8588 68.3579 64.4038 66.2508 62.2691L63.7846 59.77V57.1032C63.7846 53.9476 63.5462 53.1657 62.5849 53.1657C62.1922 53.1657 61.7615 53.4516 61.6279 53.801Z" stroke="#058FA2" stroke-width="0.4" mask="url(#path-1-outside-1_3379_5679)"/>
<path d="M62.5859 52.7637C62.8463 52.7637 63.0787 52.8168 63.2715 52.9668C63.4625 53.1155 63.5957 53.3442 63.6904 53.6553C63.8778 54.2702 63.9365 55.2775 63.9365 56.8506V59.4561L66.3594 61.9111L67.0654 62.6367C67.6939 63.2929 68.093 63.7513 68.3105 64.0996C68.4566 64.3335 68.5333 64.5366 68.5303 64.7295C68.5279 64.8781 68.4784 65.0054 68.4023 65.1221L68.3184 65.2354C68.1689 65.4163 67.9933 65.5814 67.8281 65.7021C67.7456 65.7624 67.6632 65.8138 67.5859 65.8506C67.5118 65.8858 67.4288 65.914 67.3496 65.9141C67.3088 65.9141 67.2699 65.9029 67.2393 65.8916C67.2069 65.8797 67.1728 65.8634 67.1387 65.8447C67.0704 65.8074 66.9903 65.7552 66.9023 65.6914C66.7256 65.5632 66.5037 65.3809 66.2529 65.1621C65.7507 64.7238 65.1242 64.1302 64.498 63.5059C63.8718 62.8814 63.244 62.2239 62.7393 61.6582C62.4871 61.3756 62.2643 61.1147 62.0879 60.8916C61.9568 60.7257 61.8475 60.5761 61.7705 60.4521L61.7051 60.3379C61.6366 60.2049 61.5788 60.0147 61.5293 59.792C61.4792 59.5666 61.4349 59.2971 61.3975 59C61.3226 58.4054 61.2723 57.6906 61.25 56.9727C61.2277 56.2546 61.2332 55.5301 61.2705 54.916C61.3074 54.3085 61.3767 53.7896 61.4893 53.4951L61.5234 53.418C61.6115 53.2405 61.7589 53.0877 61.9277 52.9756C62.121 52.8473 62.355 52.7638 62.5859 52.7637ZM11.3984 23.8496C12.3528 23.8496 13.1167 23.8867 13.7227 24.0039C14.3302 24.1214 14.7933 24.3224 15.1338 24.6621C15.4743 25.0019 15.6761 25.4641 15.7939 26.0703C15.9114 26.6749 15.9482 27.4366 15.9482 28.3887C15.9482 29.3199 15.9263 30.0509 15.8281 30.6191C15.7296 31.1893 15.5509 31.6159 15.2197 31.9199C14.8904 32.2222 14.4307 32.384 13.8154 32.4736C13.2 32.5632 12.4068 32.583 11.3926 32.583C10.4183 32.583 9.64549 32.5531 9.03711 32.4453C8.42745 32.3373 7.96566 32.1485 7.62988 31.8193C7.29396 31.4899 7.10162 31.037 6.99121 30.4385C6.88108 29.8412 6.84961 29.0824 6.84961 28.127C6.84961 27.1336 6.89191 26.4452 7.01758 25.9229C7.14532 25.392 7.35931 25.0327 7.69336 24.6973L7.82324 24.5742C8.12975 24.3001 8.46631 24.1219 8.95996 24.0117C9.51347 23.8882 10.2664 23.8496 11.3984 23.8496ZM21.4932 23.8496C22.4688 23.8496 23.2377 23.8756 23.8379 23.9785C24.4394 24.0817 24.8909 24.2654 25.2158 24.5977C25.5402 24.9295 25.7197 25.3902 25.8203 26.0039C25.9208 26.6168 25.9453 27.4018 25.9453 28.3994C25.9453 29.33 25.8974 30.1526 25.8125 30.7812C25.7701 31.0952 25.7176 31.3646 25.6562 31.5762C25.6118 31.7292 25.5595 31.8661 25.4932 31.9678L25.4219 32.0566C25.3189 32.1601 25.1403 32.2362 24.9307 32.2959C24.7136 32.3577 24.4356 32.4099 24.1094 32.4521C23.4563 32.5367 22.5934 32.583 21.5967 32.583C20.5996 32.583 19.7362 32.5368 19.083 32.4521C18.7567 32.4099 18.4788 32.3577 18.2617 32.2959C18.1046 32.2511 17.9648 32.1975 17.8613 32.1299L17.7715 32.0566C17.6495 31.9341 17.5605 31.7302 17.4922 31.4941C17.4221 31.2521 17.3669 30.9526 17.3252 30.6182C17.2418 29.9488 17.2108 29.1235 17.2275 28.2998C17.2443 27.476 17.3093 26.6487 17.4199 25.9756C17.4752 25.6394 17.5424 25.3382 17.6221 25.0938C17.7 24.8548 17.7954 24.6497 17.9189 24.5254H17.9199L18.0225 24.4326C18.2779 24.2259 18.6386 24.0873 19.1348 23.9971C19.7026 23.8938 20.4672 23.8496 21.4932 23.8496ZM19.5469 30.2754H23.6455V26.5596H19.5469V30.2754ZM9.5498 30.2754H13.248V26.5596H9.5498V30.2754Z" fill="#FDC114" stroke="#FDC114" stroke-width="0.3"/>
</svg>
