<svg width="100" height="100" viewBox="0 0 100 100" fill="none" xmlns="http://www.w3.org/2000/svg">
<circle cx="50" cy="50" r="50" fill="#058FA2" fill-opacity="0.15"/>
<mask id="path-2-inside-1_1463_2188" fill="white">
<path d="M22.0605 58.1062H77.876V56.019C77.876 55.5139 77.7686 55.0447 77.5781 54.6245C77.373 54.1776 77.0703 53.7798 76.6943 53.4357C76.4648 53.2256 76.2061 53.0334 75.9277 52.8636C75.6445 52.6893 75.3418 52.5373 75.0244 52.4077C74.1699 52.2378 73.3203 52.0769 72.4756 51.925C71.626 51.773 70.7715 51.63 69.9121 51.4959C69.873 51.4914 69.8438 51.487 69.8047 51.478C69.3701 51.411 68.9551 51.3484 68.5596 51.2903C68.1641 51.2322 67.7441 51.1741 67.3047 51.1115H67.2949C64.3066 50.7629 61.3281 50.4948 58.3545 50.316C55.376 50.1372 52.4121 50.0478 49.4678 50.0433C47.7197 50.0433 45.9766 50.0702 44.2334 50.1327C42.5 50.1953 40.7568 50.2847 39.0137 50.4098H39.0039C37.373 50.5484 35.7471 50.7227 34.1162 50.9238C32.4902 51.1249 30.8594 51.3618 29.2188 51.6255L29.0381 51.6658C29.0039 51.6747 28.9697 51.6792 28.9404 51.6792C28.9111 51.6836 28.8818 51.6836 28.8525 51.6836C28.0859 51.8088 27.2998 51.9473 26.4893 52.0948C25.7031 52.2378 24.917 52.3898 24.1357 52.5462C23.9404 52.6446 23.7549 52.7563 23.5791 52.8725C23.4033 52.9932 23.2324 53.1228 23.0811 53.2613C22.7539 53.5608 22.4951 53.9049 22.3193 54.2893C22.1533 54.6513 22.0605 55.0536 22.0605 55.4916V58.1062ZM26.9336 28H72.3389C72.9297 28 73.4961 28.1073 74.0137 28.3039C74.5508 28.5095 75.0342 28.809 75.4395 29.1755C75.8447 29.5464 76.1719 29.9889 76.3916 30.4805C76.6064 30.9543 76.7236 31.4728 76.7236 32.0136V51.0937C76.9727 51.2277 77.2168 51.3752 77.4414 51.5361C77.6953 51.7149 77.9346 51.9026 78.1543 52.1038C78.7207 52.6222 79.1797 53.2256 79.4873 53.9049C79.7803 54.5441 79.9414 55.2547 79.9414 56.0235V58.7454C79.9561 58.7901 79.9707 58.8348 79.9805 58.8794V58.8884C79.9902 58.9465 79.9951 59.0001 79.9951 59.0538C79.9951 59.1119 79.9902 59.17 79.9756 59.2281C79.9658 59.2728 79.9512 59.3175 79.9365 59.3621V71.7247C79.9365 71.9839 79.8193 72.2208 79.6338 72.3906C79.4482 72.5604 79.1895 72.6677 78.9062 72.6677H76.7822C76.543 72.6677 76.3232 72.5917 76.1475 72.4666C75.9717 72.3414 75.8398 72.1627 75.7861 71.9571C75.3955 70.9291 75 70.1157 74.5752 69.481C74.1553 68.8553 73.7061 68.4083 73.1885 68.091C72.666 67.7737 72.041 67.5725 71.2842 67.4519C70.5127 67.3267 69.6143 67.2865 68.5449 67.291L29.5996 67.3357H29.5801C28.8135 67.3222 28.1836 67.4116 27.6562 67.5993C27.1338 67.7871 26.709 68.0686 26.3574 68.4307C25.9619 68.8329 25.6299 69.3469 25.3271 69.9458C25.0195 70.5581 24.7412 71.2554 24.4629 72.0196C24.3945 72.2163 24.2578 72.3727 24.0869 72.4845C23.9258 72.5917 23.7305 72.6543 23.5303 72.6632C23.5156 72.6677 23.501 72.6677 23.4863 72.6677H21.0303C20.7471 72.6677 20.4883 72.5604 20.3027 72.3906C20.1172 72.2208 20 71.9839 20 71.7247V55.4961C20 54.7944 20.1465 54.1508 20.4102 53.5697C20.6934 52.953 21.1084 52.4032 21.626 51.9294C21.7725 51.7954 21.9336 51.6613 22.1045 51.5361C22.251 51.4289 22.3975 51.3261 22.5537 51.2322V31.9733C22.5537 31.4325 22.6709 30.9186 22.8857 30.4537C23.1104 29.9666 23.4375 29.5286 23.8428 29.1621C24.248 28.7956 24.7314 28.505 25.2637 28.3039C25.7812 28.1073 26.3428 28 26.9336 28ZM72.3389 29.8861H26.9336C26.6162 29.8861 26.3135 29.9442 26.0352 30.047C25.7471 30.1543 25.4932 30.3107 25.2783 30.5029C25.0684 30.6906 24.8975 30.923 24.7803 31.1733C24.6729 31.4191 24.6143 31.6873 24.6143 31.9733V50.3249C24.7607 50.2802 24.9072 50.2445 25.0586 50.2087C25.2979 50.1506 25.5371 50.1014 25.7764 50.0657C26.1084 50.0121 26.4697 49.954 26.8604 49.8914C27.1533 49.8467 27.4658 49.7975 27.7881 49.7528V45.0688C27.7881 44.3627 27.9443 43.6878 28.2227 43.071C28.5156 42.4274 28.9404 41.8508 29.4678 41.3681C29.9951 40.8854 30.625 40.4966 31.3281 40.2284C32.002 39.9737 32.7393 39.8306 33.5107 39.8306H43.1885C43.96 39.8306 44.6973 39.9737 45.3711 40.2284C46.0742 40.4966 46.7041 40.8854 47.2314 41.3681C47.7588 41.8508 48.1836 42.4274 48.4766 43.071C48.7549 43.6878 48.9111 44.3627 48.9111 45.0688V48.0589C49.2529 48.0544 49.5947 48.0544 49.9414 48.0544V45.0688C49.9414 44.3627 50.0977 43.6878 50.376 43.071C50.6689 42.4274 51.0938 41.8508 51.6211 41.3681C52.1484 40.8854 52.7783 40.4966 53.4814 40.2284C54.1553 39.9737 54.8926 39.8306 55.6641 39.8306H65.3418C66.1133 39.8306 66.8506 39.9737 67.5244 40.2284C68.2275 40.4966 68.8574 40.8854 69.3848 41.3681C69.9121 41.8508 70.3369 42.4274 70.6299 43.071C70.9082 43.6878 71.0645 44.3627 71.0645 45.0688V49.6903C71.4307 49.7394 71.8213 49.7975 72.2412 49.8601C72.7051 49.9271 73.1494 49.9942 73.5791 50.0612C73.7988 50.097 74.0234 50.1372 74.248 50.1864C74.3896 50.2176 74.5264 50.2489 74.6582 50.2847V32.0136C74.6582 31.7275 74.5947 31.4549 74.4824 31.2046C74.3652 30.9454 74.1895 30.713 73.9746 30.5118C73.7598 30.3152 73.501 30.1543 73.2227 30.047C72.9492 29.9442 72.6514 29.8861 72.3389 29.8861ZM41.0986 48.3628C42.0801 48.2958 43.0664 48.2377 44.0674 48.193C44.9902 48.1483 45.9229 48.117 46.8555 48.0947V45.0688C46.8555 44.6174 46.7578 44.1839 46.5771 43.7906C46.3916 43.3794 46.1182 43.0129 45.7764 42.7C45.4395 42.3916 45.0342 42.1413 44.585 41.967C44.1553 41.8017 43.6816 41.7123 43.1885 41.7123H33.5107C33.0176 41.7123 32.5439 41.8017 32.1143 41.967C31.665 42.1369 31.2646 42.3872 30.9229 42.7C30.5859 43.0084 30.3125 43.3794 30.1221 43.7906C29.9414 44.1839 29.8438 44.6174 29.8438 45.0688V49.4534C30.6348 49.3461 31.4355 49.2478 32.2559 49.1494C33.1396 49.0467 34.0186 48.9528 34.8877 48.8634C35.2246 48.8276 35.5859 48.7874 35.9619 48.7517C36.3135 48.7159 36.6797 48.6846 37.0703 48.6489C37.7344 48.5908 38.3936 48.5371 39.043 48.488C39.7119 48.4477 40.3955 48.4031 41.0986 48.3628ZM52.002 48.0678C52.5928 48.0768 53.1836 48.0902 53.7744 48.1081C54.4287 48.1259 55.083 48.1528 55.7324 48.1796H55.7373C56.8066 48.2153 57.8516 48.26 58.8672 48.3137C59.8828 48.3673 60.874 48.4343 61.8213 48.5103C63.1982 48.6221 64.5312 48.7561 65.7959 48.9126C66.9287 49.0556 68.0029 49.2165 69.0088 49.3953V45.0688C69.0088 44.6174 68.9111 44.1839 68.7305 43.7906C68.5449 43.3794 68.2715 43.0129 67.9297 42.7C67.5928 42.3916 67.1875 42.1413 66.7383 41.967C66.3086 41.8017 65.835 41.7123 65.3418 41.7123H55.6689C55.1758 41.7123 54.7021 41.8017 54.2725 41.967C53.8232 42.1369 53.4229 42.3872 53.0811 42.7C52.7441 43.0084 52.4707 43.3794 52.2803 43.7906C52.0996 44.1839 52.002 44.6174 52.002 45.0688V48.0678ZM77.8809 59.9968H22.0605V70.7816H22.7588C23.0322 70.0754 23.3154 69.4184 23.6328 68.8329C23.9746 68.2072 24.3604 67.653 24.8291 67.1748C25.3857 66.6027 26.04 66.1602 26.8262 65.8652C27.6123 65.5747 28.5303 65.4272 29.6338 65.4495L68.5449 65.4049C69.7998 65.4049 70.874 65.4585 71.8115 65.6239C72.7637 65.7892 73.584 66.0708 74.3213 66.5177C75.0049 66.9334 75.5908 67.4831 76.1182 68.2027C76.6211 68.891 77.0703 69.7357 77.5 70.7771H77.8711V59.9968H77.8809Z"/>
</mask>
<path d="M22.0605 58.1062H77.876V56.019C77.876 55.5139 77.7686 55.0447 77.5781 54.6245C77.373 54.1776 77.0703 53.7798 76.6943 53.4357C76.4648 53.2256 76.2061 53.0334 75.9277 52.8636C75.6445 52.6893 75.3418 52.5373 75.0244 52.4077C74.1699 52.2378 73.3203 52.0769 72.4756 51.925C71.626 51.773 70.7715 51.63 69.9121 51.4959C69.873 51.4914 69.8438 51.487 69.8047 51.478C69.3701 51.411 68.9551 51.3484 68.5596 51.2903C68.1641 51.2322 67.7441 51.1741 67.3047 51.1115H67.2949C64.3066 50.7629 61.3281 50.4948 58.3545 50.316C55.376 50.1372 52.4121 50.0478 49.4678 50.0433C47.7197 50.0433 45.9766 50.0702 44.2334 50.1327C42.5 50.1953 40.7568 50.2847 39.0137 50.4098H39.0039C37.373 50.5484 35.7471 50.7227 34.1162 50.9238C32.4902 51.1249 30.8594 51.3618 29.2188 51.6255L29.0381 51.6658C29.0039 51.6747 28.9697 51.6792 28.9404 51.6792C28.9111 51.6836 28.8818 51.6836 28.8525 51.6836C28.0859 51.8088 27.2998 51.9473 26.4893 52.0948C25.7031 52.2378 24.917 52.3898 24.1357 52.5462C23.9404 52.6446 23.7549 52.7563 23.5791 52.8725C23.4033 52.9932 23.2324 53.1228 23.0811 53.2613C22.7539 53.5608 22.4951 53.9049 22.3193 54.2893C22.1533 54.6513 22.0605 55.0536 22.0605 55.4916V58.1062ZM26.9336 28H72.3389C72.9297 28 73.4961 28.1073 74.0137 28.3039C74.5508 28.5095 75.0342 28.809 75.4395 29.1755C75.8447 29.5464 76.1719 29.9889 76.3916 30.4805C76.6064 30.9543 76.7236 31.4728 76.7236 32.0136V51.0937C76.9727 51.2277 77.2168 51.3752 77.4414 51.5361C77.6953 51.7149 77.9346 51.9026 78.1543 52.1038C78.7207 52.6222 79.1797 53.2256 79.4873 53.9049C79.7803 54.5441 79.9414 55.2547 79.9414 56.0235V58.7454C79.9561 58.7901 79.9707 58.8348 79.9805 58.8794V58.8884C79.9902 58.9465 79.9951 59.0001 79.9951 59.0538C79.9951 59.1119 79.9902 59.17 79.9756 59.2281C79.9658 59.2728 79.9512 59.3175 79.9365 59.3621V71.7247C79.9365 71.9839 79.8193 72.2208 79.6338 72.3906C79.4482 72.5604 79.1895 72.6677 78.9062 72.6677H76.7822C76.543 72.6677 76.3232 72.5917 76.1475 72.4666C75.9717 72.3414 75.8398 72.1627 75.7861 71.9571C75.3955 70.9291 75 70.1157 74.5752 69.481C74.1553 68.8553 73.7061 68.4083 73.1885 68.091C72.666 67.7737 72.041 67.5725 71.2842 67.4519C70.5127 67.3267 69.6143 67.2865 68.5449 67.291L29.5996 67.3357H29.5801C28.8135 67.3222 28.1836 67.4116 27.6562 67.5993C27.1338 67.7871 26.709 68.0686 26.3574 68.4307C25.9619 68.8329 25.6299 69.3469 25.3271 69.9458C25.0195 70.5581 24.7412 71.2554 24.4629 72.0196C24.3945 72.2163 24.2578 72.3727 24.0869 72.4845C23.9258 72.5917 23.7305 72.6543 23.5303 72.6632C23.5156 72.6677 23.501 72.6677 23.4863 72.6677H21.0303C20.7471 72.6677 20.4883 72.5604 20.3027 72.3906C20.1172 72.2208 20 71.9839 20 71.7247V55.4961C20 54.7944 20.1465 54.1508 20.4102 53.5697C20.6934 52.953 21.1084 52.4032 21.626 51.9294C21.7725 51.7954 21.9336 51.6613 22.1045 51.5361C22.251 51.4289 22.3975 51.3261 22.5537 51.2322V31.9733C22.5537 31.4325 22.6709 30.9186 22.8857 30.4537C23.1104 29.9666 23.4375 29.5286 23.8428 29.1621C24.248 28.7956 24.7314 28.505 25.2637 28.3039C25.7812 28.1073 26.3428 28 26.9336 28ZM72.3389 29.8861H26.9336C26.6162 29.8861 26.3135 29.9442 26.0352 30.047C25.7471 30.1543 25.4932 30.3107 25.2783 30.5029C25.0684 30.6906 24.8975 30.923 24.7803 31.1733C24.6729 31.4191 24.6143 31.6873 24.6143 31.9733V50.3249C24.7607 50.2802 24.9072 50.2445 25.0586 50.2087C25.2979 50.1506 25.5371 50.1014 25.7764 50.0657C26.1084 50.0121 26.4697 49.954 26.8604 49.8914C27.1533 49.8467 27.4658 49.7975 27.7881 49.7528V45.0688C27.7881 44.3627 27.9443 43.6878 28.2227 43.071C28.5156 42.4274 28.9404 41.8508 29.4678 41.3681C29.9951 40.8854 30.625 40.4966 31.3281 40.2284C32.002 39.9737 32.7393 39.8306 33.5107 39.8306H43.1885C43.96 39.8306 44.6973 39.9737 45.3711 40.2284C46.0742 40.4966 46.7041 40.8854 47.2314 41.3681C47.7588 41.8508 48.1836 42.4274 48.4766 43.071C48.7549 43.6878 48.9111 44.3627 48.9111 45.0688V48.0589C49.2529 48.0544 49.5947 48.0544 49.9414 48.0544V45.0688C49.9414 44.3627 50.0977 43.6878 50.376 43.071C50.6689 42.4274 51.0938 41.8508 51.6211 41.3681C52.1484 40.8854 52.7783 40.4966 53.4814 40.2284C54.1553 39.9737 54.8926 39.8306 55.6641 39.8306H65.3418C66.1133 39.8306 66.8506 39.9737 67.5244 40.2284C68.2275 40.4966 68.8574 40.8854 69.3848 41.3681C69.9121 41.8508 70.3369 42.4274 70.6299 43.071C70.9082 43.6878 71.0645 44.3627 71.0645 45.0688V49.6903C71.4307 49.7394 71.8213 49.7975 72.2412 49.8601C72.7051 49.9271 73.1494 49.9942 73.5791 50.0612C73.7988 50.097 74.0234 50.1372 74.248 50.1864C74.3896 50.2176 74.5264 50.2489 74.6582 50.2847V32.0136C74.6582 31.7275 74.5947 31.4549 74.4824 31.2046C74.3652 30.9454 74.1895 30.713 73.9746 30.5118C73.7598 30.3152 73.501 30.1543 73.2227 30.047C72.9492 29.9442 72.6514 29.8861 72.3389 29.8861ZM41.0986 48.3628C42.0801 48.2958 43.0664 48.2377 44.0674 48.193C44.9902 48.1483 45.9229 48.117 46.8555 48.0947V45.0688C46.8555 44.6174 46.7578 44.1839 46.5771 43.7906C46.3916 43.3794 46.1182 43.0129 45.7764 42.7C45.4395 42.3916 45.0342 42.1413 44.585 41.967C44.1553 41.8017 43.6816 41.7123 43.1885 41.7123H33.5107C33.0176 41.7123 32.5439 41.8017 32.1143 41.967C31.665 42.1369 31.2646 42.3872 30.9229 42.7C30.5859 43.0084 30.3125 43.3794 30.1221 43.7906C29.9414 44.1839 29.8438 44.6174 29.8438 45.0688V49.4534C30.6348 49.3461 31.4355 49.2478 32.2559 49.1494C33.1396 49.0467 34.0186 48.9528 34.8877 48.8634C35.2246 48.8276 35.5859 48.7874 35.9619 48.7517C36.3135 48.7159 36.6797 48.6846 37.0703 48.6489C37.7344 48.5908 38.3936 48.5371 39.043 48.488C39.7119 48.4477 40.3955 48.4031 41.0986 48.3628ZM52.002 48.0678C52.5928 48.0768 53.1836 48.0902 53.7744 48.1081C54.4287 48.1259 55.083 48.1528 55.7324 48.1796H55.7373C56.8066 48.2153 57.8516 48.26 58.8672 48.3137C59.8828 48.3673 60.874 48.4343 61.8213 48.5103C63.1982 48.6221 64.5312 48.7561 65.7959 48.9126C66.9287 49.0556 68.0029 49.2165 69.0088 49.3953V45.0688C69.0088 44.6174 68.9111 44.1839 68.7305 43.7906C68.5449 43.3794 68.2715 43.0129 67.9297 42.7C67.5928 42.3916 67.1875 42.1413 66.7383 41.967C66.3086 41.8017 65.835 41.7123 65.3418 41.7123H55.6689C55.1758 41.7123 54.7021 41.8017 54.2725 41.967C53.8232 42.1369 53.4229 42.3872 53.0811 42.7C52.7441 43.0084 52.4707 43.3794 52.2803 43.7906C52.0996 44.1839 52.002 44.6174 52.002 45.0688V48.0678ZM77.8809 59.9968H22.0605V70.7816H22.7588C23.0322 70.0754 23.3154 69.4184 23.6328 68.8329C23.9746 68.2072 24.3604 67.653 24.8291 67.1748C25.3857 66.6027 26.04 66.1602 26.8262 65.8652C27.6123 65.5747 28.5303 65.4272 29.6338 65.4495L68.5449 65.4049C69.7998 65.4049 70.874 65.4585 71.8115 65.6239C72.7637 65.7892 73.584 66.0708 74.3213 66.5177C75.0049 66.9334 75.5908 67.4831 76.1182 68.2027C76.6211 68.891 77.0703 69.7357 77.5 70.7771H77.8711V59.9968H77.8809Z" stroke="#058FA2" stroke-width="4" mask="url(#path-2-inside-1_1463_2188)"/>
</svg>
