<svg width="60" height="45" viewBox="0 0 60 45" fill="none" xmlns="http://www.w3.org/2000/svg">
<mask id="path-1-inside-1_2_12787" fill="white">
<path d="M2.06055 30.1062H57.876V28.019C57.876 27.5139 57.7686 27.0447 57.5781 26.6245C57.373 26.1776 57.0703 25.7798 56.6943 25.4357C56.4648 25.2256 56.2061 25.0334 55.9277 24.8636C55.6445 24.6893 55.3418 24.5373 55.0244 24.4077C54.1699 24.2378 53.3203 24.0769 52.4756 23.925C51.626 23.773 50.7715 23.63 49.9121 23.4959C49.873 23.4914 49.8438 23.487 49.8047 23.478C49.3701 23.411 48.9551 23.3484 48.5596 23.2903C48.1641 23.2322 47.7441 23.1741 47.3047 23.1115H47.2949C44.3066 22.7629 41.3281 22.4948 38.3545 22.316C35.376 22.1372 32.4121 22.0478 29.4678 22.0433C27.7197 22.0433 25.9766 22.0702 24.2334 22.1327C22.5 22.1953 20.7568 22.2847 19.0137 22.4098H19.0039C17.373 22.5484 15.7471 22.7227 14.1162 22.9238C12.4902 23.1249 10.8594 23.3618 9.21875 23.6255L9.03809 23.6658C9.00391 23.6747 8.96973 23.6792 8.94043 23.6792C8.91113 23.6836 8.88184 23.6836 8.85254 23.6836C8.08594 23.8088 7.2998 23.9473 6.48926 24.0948C5.70312 24.2378 4.91699 24.3898 4.13574 24.5462C3.94043 24.6446 3.75488 24.7563 3.5791 24.8725C3.40332 24.9932 3.23242 25.1228 3.08105 25.2613C2.75391 25.5608 2.49512 25.9049 2.31934 26.2893C2.15332 26.6513 2.06055 27.0536 2.06055 27.4916V30.1062ZM6.93359 0H52.3389C52.9297 0 53.4961 0.107267 54.0137 0.303923C54.5508 0.509518 55.0342 0.808971 55.4395 1.17547C55.8447 1.54643 56.1719 1.98891 56.3916 2.48055C56.6064 2.95431 56.7236 3.47276 56.7236 4.01357V23.0937C56.9727 23.2277 57.2168 23.3752 57.4414 23.5361C57.6953 23.7149 57.9346 23.9026 58.1543 24.1038C58.7207 24.6222 59.1797 25.2256 59.4873 25.9049C59.7803 26.5441 59.9414 27.2547 59.9414 28.0235V30.7454C59.9561 30.7901 59.9707 30.8348 59.9805 30.8794V30.8884C59.9902 30.9465 59.9951 31.0001 59.9951 31.0538C59.9951 31.1119 59.9902 31.17 59.9756 31.2281C59.9658 31.2728 59.9512 31.3175 59.9365 31.3621V43.7247C59.9365 43.9839 59.8193 44.2208 59.6338 44.3906C59.4482 44.5604 59.1895 44.6677 58.9062 44.6677H56.7822C56.543 44.6677 56.3232 44.5917 56.1475 44.4666C55.9717 44.3414 55.8398 44.1627 55.7861 43.9571C55.3955 42.9291 55 42.1157 54.5752 41.481C54.1553 40.8553 53.7061 40.4083 53.1885 40.091C52.666 39.7737 52.041 39.5725 51.2842 39.4519C50.5127 39.3267 49.6143 39.2865 48.5449 39.291L9.59961 39.3357H9.58008C8.81348 39.3222 8.18359 39.4116 7.65625 39.5993C7.13379 39.7871 6.70898 40.0686 6.35742 40.4307C5.96191 40.8329 5.62988 41.3469 5.32715 41.9458C5.01953 42.5581 4.74121 43.2554 4.46289 44.0196C4.39453 44.2163 4.25781 44.3727 4.08691 44.4845C3.92578 44.5917 3.73047 44.6543 3.53027 44.6632C3.51562 44.6677 3.50098 44.6677 3.48633 44.6677H1.03027C0.74707 44.6677 0.488281 44.5604 0.302734 44.3906C0.117188 44.2208 0 43.9839 0 43.7247V27.4961C0 26.7944 0.146484 26.1508 0.410156 25.5697C0.693359 24.953 1.1084 24.4032 1.62598 23.9294C1.77246 23.7954 1.93359 23.6613 2.10449 23.5361C2.25098 23.4289 2.39746 23.3261 2.55371 23.2322V3.97334C2.55371 3.43254 2.6709 2.91855 2.88574 2.45373C3.11035 1.96656 3.4375 1.52855 3.84277 1.16206C4.24805 0.795563 4.73145 0.505048 5.26367 0.303923C5.78125 0.107267 6.34277 0 6.93359 0ZM52.3389 1.88611H6.93359C6.61621 1.88611 6.31348 1.94421 6.03516 2.04701C5.74707 2.15428 5.49316 2.31071 5.27832 2.50289C5.06836 2.69061 4.89746 2.92302 4.78027 3.17331C4.67285 3.41913 4.61426 3.6873 4.61426 3.97334V22.3249C4.76074 22.2802 4.90723 22.2445 5.05859 22.2087C5.29785 22.1506 5.53711 22.1014 5.77637 22.0657C6.1084 22.0121 6.46973 21.954 6.86035 21.8914C7.15332 21.8467 7.46582 21.7975 7.78809 21.7528V17.0688C7.78809 16.3627 7.94434 15.6878 8.22266 15.071C8.51562 14.4274 8.94043 13.8508 9.46777 13.3681C9.99512 12.8854 10.625 12.4966 11.3281 12.2284C12.002 11.9737 12.7393 11.8306 13.5107 11.8306H23.1885C23.96 11.8306 24.6973 11.9737 25.3711 12.2284C26.0742 12.4966 26.7041 12.8854 27.2314 13.3681C27.7588 13.8508 28.1836 14.4274 28.4766 15.071C28.7549 15.6878 28.9111 16.3627 28.9111 17.0688V20.0589C29.2529 20.0544 29.5947 20.0544 29.9414 20.0544V17.0688C29.9414 16.3627 30.0977 15.6878 30.376 15.071C30.6689 14.4274 31.0938 13.8508 31.6211 13.3681C32.1484 12.8854 32.7783 12.4966 33.4814 12.2284C34.1553 11.9737 34.8926 11.8306 35.6641 11.8306H45.3418C46.1133 11.8306 46.8506 11.9737 47.5244 12.2284C48.2275 12.4966 48.8574 12.8854 49.3848 13.3681C49.9121 13.8508 50.3369 14.4274 50.6299 15.071C50.9082 15.6878 51.0645 16.3627 51.0645 17.0688V21.6903C51.4307 21.7394 51.8213 21.7975 52.2412 21.8601C52.7051 21.9271 53.1494 21.9942 53.5791 22.0612C53.7988 22.097 54.0234 22.1372 54.248 22.1864C54.3896 22.2176 54.5264 22.2489 54.6582 22.2847V4.01357C54.6582 3.72752 54.5947 3.45489 54.4824 3.2046C54.3652 2.94537 54.1895 2.71296 53.9746 2.51183C53.7598 2.31518 53.501 2.15428 53.2227 2.04701C52.9492 1.94421 52.6514 1.88611 52.3389 1.88611ZM21.0986 20.3628C22.0801 20.2958 23.0664 20.2377 24.0674 20.193C24.9902 20.1483 25.9229 20.117 26.8555 20.0947V17.0688C26.8555 16.6174 26.7578 16.1839 26.5771 15.7906C26.3916 15.3794 26.1182 15.0129 25.7764 14.7C25.4395 14.3916 25.0342 14.1413 24.585 13.967C24.1553 13.8017 23.6816 13.7123 23.1885 13.7123H13.5107C13.0176 13.7123 12.5439 13.8017 12.1143 13.967C11.665 14.1369 11.2646 14.3872 10.9229 14.7C10.5859 15.0084 10.3125 15.3794 10.1221 15.7906C9.94141 16.1839 9.84375 16.6174 9.84375 17.0688V21.4534C10.6348 21.3461 11.4355 21.2478 12.2559 21.1494C13.1396 21.0467 14.0186 20.9528 14.8877 20.8634C15.2246 20.8276 15.5859 20.7874 15.9619 20.7517C16.3135 20.7159 16.6797 20.6846 17.0703 20.6489C17.7344 20.5908 18.3936 20.5371 19.043 20.488C19.7119 20.4477 20.3955 20.4031 21.0986 20.3628ZM32.002 20.0678C32.5928 20.0768 33.1836 20.0902 33.7744 20.1081C34.4287 20.1259 35.083 20.1528 35.7324 20.1796H35.7373C36.8066 20.2153 37.8516 20.26 38.8672 20.3137C39.8828 20.3673 40.874 20.4343 41.8213 20.5103C43.1982 20.6221 44.5312 20.7561 45.7959 20.9126C46.9287 21.0556 48.0029 21.2165 49.0088 21.3953V17.0688C49.0088 16.6174 48.9111 16.1839 48.7305 15.7906C48.5449 15.3794 48.2715 15.0129 47.9297 14.7C47.5928 14.3916 47.1875 14.1413 46.7383 13.967C46.3086 13.8017 45.835 13.7123 45.3418 13.7123H35.6689C35.1758 13.7123 34.7021 13.8017 34.2725 13.967C33.8232 14.1369 33.4229 14.3872 33.0811 14.7C32.7441 15.0084 32.4707 15.3794 32.2803 15.7906C32.0996 16.1839 32.002 16.6174 32.002 17.0688V20.0678ZM57.8809 31.9968H2.06055V42.7816H2.75879C3.03223 42.0754 3.31543 41.4184 3.63281 40.8329C3.97461 40.2072 4.36035 39.653 4.8291 39.1748C5.38574 38.6027 6.04004 38.1602 6.82617 37.8652C7.6123 37.5747 8.53027 37.4272 9.63379 37.4495L48.5449 37.4049C49.7998 37.4049 50.874 37.4585 51.8115 37.6239C52.7637 37.7892 53.584 38.0708 54.3213 38.5177C55.0049 38.9334 55.5908 39.4831 56.1182 40.2027C56.6211 40.891 57.0703 41.7357 57.5 42.7771H57.8711V31.9968H57.8809Z"/>
</mask>
<path d="M2.06055 30.1062H57.876V28.019C57.876 27.5139 57.7686 27.0447 57.5781 26.6245C57.373 26.1776 57.0703 25.7798 56.6943 25.4357C56.4648 25.2256 56.2061 25.0334 55.9277 24.8636C55.6445 24.6893 55.3418 24.5373 55.0244 24.4077C54.1699 24.2378 53.3203 24.0769 52.4756 23.925C51.626 23.773 50.7715 23.63 49.9121 23.4959C49.873 23.4914 49.8438 23.487 49.8047 23.478C49.3701 23.411 48.9551 23.3484 48.5596 23.2903C48.1641 23.2322 47.7441 23.1741 47.3047 23.1115H47.2949C44.3066 22.7629 41.3281 22.4948 38.3545 22.316C35.376 22.1372 32.4121 22.0478 29.4678 22.0433C27.7197 22.0433 25.9766 22.0702 24.2334 22.1327C22.5 22.1953 20.7568 22.2847 19.0137 22.4098H19.0039C17.373 22.5484 15.7471 22.7227 14.1162 22.9238C12.4902 23.1249 10.8594 23.3618 9.21875 23.6255L9.03809 23.6658C9.00391 23.6747 8.96973 23.6792 8.94043 23.6792C8.91113 23.6836 8.88184 23.6836 8.85254 23.6836C8.08594 23.8088 7.2998 23.9473 6.48926 24.0948C5.70312 24.2378 4.91699 24.3898 4.13574 24.5462C3.94043 24.6446 3.75488 24.7563 3.5791 24.8725C3.40332 24.9932 3.23242 25.1228 3.08105 25.2613C2.75391 25.5608 2.49512 25.9049 2.31934 26.2893C2.15332 26.6513 2.06055 27.0536 2.06055 27.4916V30.1062ZM6.93359 0H52.3389C52.9297 0 53.4961 0.107267 54.0137 0.303923C54.5508 0.509518 55.0342 0.808971 55.4395 1.17547C55.8447 1.54643 56.1719 1.98891 56.3916 2.48055C56.6064 2.95431 56.7236 3.47276 56.7236 4.01357V23.0937C56.9727 23.2277 57.2168 23.3752 57.4414 23.5361C57.6953 23.7149 57.9346 23.9026 58.1543 24.1038C58.7207 24.6222 59.1797 25.2256 59.4873 25.9049C59.7803 26.5441 59.9414 27.2547 59.9414 28.0235V30.7454C59.9561 30.7901 59.9707 30.8348 59.9805 30.8794V30.8884C59.9902 30.9465 59.9951 31.0001 59.9951 31.0538C59.9951 31.1119 59.9902 31.17 59.9756 31.2281C59.9658 31.2728 59.9512 31.3175 59.9365 31.3621V43.7247C59.9365 43.9839 59.8193 44.2208 59.6338 44.3906C59.4482 44.5604 59.1895 44.6677 58.9062 44.6677H56.7822C56.543 44.6677 56.3232 44.5917 56.1475 44.4666C55.9717 44.3414 55.8398 44.1627 55.7861 43.9571C55.3955 42.9291 55 42.1157 54.5752 41.481C54.1553 40.8553 53.7061 40.4083 53.1885 40.091C52.666 39.7737 52.041 39.5725 51.2842 39.4519C50.5127 39.3267 49.6143 39.2865 48.5449 39.291L9.59961 39.3357H9.58008C8.81348 39.3222 8.18359 39.4116 7.65625 39.5993C7.13379 39.7871 6.70898 40.0686 6.35742 40.4307C5.96191 40.8329 5.62988 41.3469 5.32715 41.9458C5.01953 42.5581 4.74121 43.2554 4.46289 44.0196C4.39453 44.2163 4.25781 44.3727 4.08691 44.4845C3.92578 44.5917 3.73047 44.6543 3.53027 44.6632C3.51562 44.6677 3.50098 44.6677 3.48633 44.6677H1.03027C0.74707 44.6677 0.488281 44.5604 0.302734 44.3906C0.117188 44.2208 0 43.9839 0 43.7247V27.4961C0 26.7944 0.146484 26.1508 0.410156 25.5697C0.693359 24.953 1.1084 24.4032 1.62598 23.9294C1.77246 23.7954 1.93359 23.6613 2.10449 23.5361C2.25098 23.4289 2.39746 23.3261 2.55371 23.2322V3.97334C2.55371 3.43254 2.6709 2.91855 2.88574 2.45373C3.11035 1.96656 3.4375 1.52855 3.84277 1.16206C4.24805 0.795563 4.73145 0.505048 5.26367 0.303923C5.78125 0.107267 6.34277 0 6.93359 0ZM52.3389 1.88611H6.93359C6.61621 1.88611 6.31348 1.94421 6.03516 2.04701C5.74707 2.15428 5.49316 2.31071 5.27832 2.50289C5.06836 2.69061 4.89746 2.92302 4.78027 3.17331C4.67285 3.41913 4.61426 3.6873 4.61426 3.97334V22.3249C4.76074 22.2802 4.90723 22.2445 5.05859 22.2087C5.29785 22.1506 5.53711 22.1014 5.77637 22.0657C6.1084 22.0121 6.46973 21.954 6.86035 21.8914C7.15332 21.8467 7.46582 21.7975 7.78809 21.7528V17.0688C7.78809 16.3627 7.94434 15.6878 8.22266 15.071C8.51562 14.4274 8.94043 13.8508 9.46777 13.3681C9.99512 12.8854 10.625 12.4966 11.3281 12.2284C12.002 11.9737 12.7393 11.8306 13.5107 11.8306H23.1885C23.96 11.8306 24.6973 11.9737 25.3711 12.2284C26.0742 12.4966 26.7041 12.8854 27.2314 13.3681C27.7588 13.8508 28.1836 14.4274 28.4766 15.071C28.7549 15.6878 28.9111 16.3627 28.9111 17.0688V20.0589C29.2529 20.0544 29.5947 20.0544 29.9414 20.0544V17.0688C29.9414 16.3627 30.0977 15.6878 30.376 15.071C30.6689 14.4274 31.0938 13.8508 31.6211 13.3681C32.1484 12.8854 32.7783 12.4966 33.4814 12.2284C34.1553 11.9737 34.8926 11.8306 35.6641 11.8306H45.3418C46.1133 11.8306 46.8506 11.9737 47.5244 12.2284C48.2275 12.4966 48.8574 12.8854 49.3848 13.3681C49.9121 13.8508 50.3369 14.4274 50.6299 15.071C50.9082 15.6878 51.0645 16.3627 51.0645 17.0688V21.6903C51.4307 21.7394 51.8213 21.7975 52.2412 21.8601C52.7051 21.9271 53.1494 21.9942 53.5791 22.0612C53.7988 22.097 54.0234 22.1372 54.248 22.1864C54.3896 22.2176 54.5264 22.2489 54.6582 22.2847V4.01357C54.6582 3.72752 54.5947 3.45489 54.4824 3.2046C54.3652 2.94537 54.1895 2.71296 53.9746 2.51183C53.7598 2.31518 53.501 2.15428 53.2227 2.04701C52.9492 1.94421 52.6514 1.88611 52.3389 1.88611ZM21.0986 20.3628C22.0801 20.2958 23.0664 20.2377 24.0674 20.193C24.9902 20.1483 25.9229 20.117 26.8555 20.0947V17.0688C26.8555 16.6174 26.7578 16.1839 26.5771 15.7906C26.3916 15.3794 26.1182 15.0129 25.7764 14.7C25.4395 14.3916 25.0342 14.1413 24.585 13.967C24.1553 13.8017 23.6816 13.7123 23.1885 13.7123H13.5107C13.0176 13.7123 12.5439 13.8017 12.1143 13.967C11.665 14.1369 11.2646 14.3872 10.9229 14.7C10.5859 15.0084 10.3125 15.3794 10.1221 15.7906C9.94141 16.1839 9.84375 16.6174 9.84375 17.0688V21.4534C10.6348 21.3461 11.4355 21.2478 12.2559 21.1494C13.1396 21.0467 14.0186 20.9528 14.8877 20.8634C15.2246 20.8276 15.5859 20.7874 15.9619 20.7517C16.3135 20.7159 16.6797 20.6846 17.0703 20.6489C17.7344 20.5908 18.3936 20.5371 19.043 20.488C19.7119 20.4477 20.3955 20.4031 21.0986 20.3628ZM32.002 20.0678C32.5928 20.0768 33.1836 20.0902 33.7744 20.1081C34.4287 20.1259 35.083 20.1528 35.7324 20.1796H35.7373C36.8066 20.2153 37.8516 20.26 38.8672 20.3137C39.8828 20.3673 40.874 20.4343 41.8213 20.5103C43.1982 20.6221 44.5312 20.7561 45.7959 20.9126C46.9287 21.0556 48.0029 21.2165 49.0088 21.3953V17.0688C49.0088 16.6174 48.9111 16.1839 48.7305 15.7906C48.5449 15.3794 48.2715 15.0129 47.9297 14.7C47.5928 14.3916 47.1875 14.1413 46.7383 13.967C46.3086 13.8017 45.835 13.7123 45.3418 13.7123H35.6689C35.1758 13.7123 34.7021 13.8017 34.2725 13.967C33.8232 14.1369 33.4229 14.3872 33.0811 14.7C32.7441 15.0084 32.4707 15.3794 32.2803 15.7906C32.0996 16.1839 32.002 16.6174 32.002 17.0688V20.0678ZM57.8809 31.9968H2.06055V42.7816H2.75879C3.03223 42.0754 3.31543 41.4184 3.63281 40.8329C3.97461 40.2072 4.36035 39.653 4.8291 39.1748C5.38574 38.6027 6.04004 38.1602 6.82617 37.8652C7.6123 37.5747 8.53027 37.4272 9.63379 37.4495L48.5449 37.4049C49.7998 37.4049 50.874 37.4585 51.8115 37.6239C52.7637 37.7892 53.584 38.0708 54.3213 38.5177C55.0049 38.9334 55.5908 39.4831 56.1182 40.2027C56.6211 40.891 57.0703 41.7357 57.5 42.7771H57.8711V31.9968H57.8809Z" stroke="#058FA2" stroke-width="4" mask="url(#path-1-inside-1_2_12787)"/>
</svg>
