<svg width="31" height="30" viewBox="0 0 31 30" fill="none" xmlns="http://www.w3.org/2000/svg">
<path fill-rule="evenodd" clip-rule="evenodd" d="M13.2812 0.0550443C12.8496 0.248454 2.64647 6.12647 2.5092 6.26076L2.35748 6.40913V12.6974V18.9855L2.54009 19.146C2.64059 19.2342 5.10989 20.6717 8.02756 22.3405C11.9723 24.5967 13.3816 25.3746 13.5242 25.3746C13.6668 25.3746 15.0612 24.6051 18.9604 22.3747C21.8449 20.7247 24.2931 19.3188 24.4009 19.2504C24.5086 19.182 24.6247 19.0475 24.6588 18.9517C24.6994 18.8373 24.7208 16.6753 24.7208 12.6761C24.7208 7.35164 24.709 6.55082 24.6289 6.38543C24.5502 6.22312 23.764 5.75409 19.1518 3.11761C16.19 1.42455 13.6984 0.0244932 13.615 0.00639106C13.5315 -0.0117712 13.3813 0.0101197 13.2812 0.0550443ZM8.83264 3.92282C6.25895 5.3992 4.16451 6.62515 4.17828 6.64728C4.19206 6.66935 4.64825 6.93956 5.19206 7.24766C6.27746 7.86277 6.49029 8.02419 6.54582 8.27485C6.58915 8.4703 6.44932 8.77804 6.27515 8.87036C6.00139 9.01559 5.78753 8.93922 4.67974 8.30083C4.077 7.95352 3.57408 7.66936 3.56206 7.66936C3.55005 7.66936 3.5472 10.0963 3.55575 13.0626L3.57123 18.4558L8.18346 21.0969C10.7202 22.5494 12.8299 23.7517 12.8716 23.7688C12.9319 23.7934 12.9474 22.6994 12.9474 18.4159V13.0321L11.7488 12.3517C11.0896 11.9775 10.4615 11.5855 10.353 11.4805C10.0872 11.2234 10.0798 10.9229 10.3332 10.6717C10.6481 10.3597 10.6219 10.349 13.282 11.876L13.5257 12.0159L18.2108 9.34648C20.7876 7.87829 22.8969 6.66208 22.898 6.6438C22.8995 6.61998 13.8455 1.40302 13.5483 1.25646C13.5284 1.2466 11.4063 2.44651 8.83264 3.92282ZM28.6535 6.0949C28.4434 6.17843 26.7377 7.90932 26.7066 8.07074C26.635 8.44162 26.9028 8.75188 27.2944 8.75188C27.4666 8.75188 27.5732 8.68976 27.873 8.41462L28.2406 8.07741V12.691V17.3047L27.873 16.9675C27.5732 16.6923 27.4666 16.6302 27.2944 16.6302C26.9028 16.6302 26.635 16.9405 26.7066 17.3114C26.7429 17.4997 28.468 19.2187 28.6987 19.2964C28.7806 19.324 28.9144 19.324 28.9963 19.2964C29.227 19.2187 30.9521 17.4997 30.9884 17.3114C31.06 16.9405 30.7922 16.6302 30.4006 16.6302C30.2284 16.6302 30.1218 16.6923 29.8219 16.9675L29.4544 17.3047V12.691V8.07741L29.8219 8.41462C30.1218 8.68976 30.2284 8.75188 30.4006 8.75188C30.7922 8.75188 31.06 8.44162 30.9884 8.07074C30.9685 7.96724 30.6407 7.60116 30.051 7.0237C29.1691 6.16003 29.0376 6.05406 28.8475 6.05406C28.7974 6.05406 28.7102 6.07241 28.6535 6.0949ZM18.7886 10.3524L14.1005 13.0351V18.411C14.1005 21.3677 14.1135 23.7869 14.1293 23.7869C14.1713 23.7869 23.4018 18.5026 23.4592 18.4457C23.4859 18.4193 23.5007 15.9839 23.4921 13.0337L23.4767 7.66978L18.7886 10.3524ZM7.93798 9.3205C7.82438 9.43303 7.789 9.53172 7.789 9.73613C7.789 9.96154 7.81867 10.0288 7.97573 10.1598C8.07841 10.2455 8.22995 10.3155 8.31248 10.3155C8.70003 10.3155 8.99388 9.96454 8.91274 9.59853C8.82208 9.1894 8.23826 9.02287 7.93798 9.3205ZM1.35851 21.9884C0.152469 22.3219 -0.0130252 22.4221 0.000750842 22.81C0.0113104 23.1072 0.543356 25.028 0.679235 25.2596C0.829679 25.5159 1.15114 25.5904 1.42429 25.4323C1.71577 25.2636 1.77057 25.0196 1.63445 24.496C1.57492 24.2669 1.53571 24.0719 1.54737 24.0627C1.56424 24.0493 9.22389 28.4171 9.54462 28.623C9.60591 28.6623 9.4934 28.7171 9.14967 28.8155C8.85369 28.9001 8.62812 29.0029 8.56276 29.0828C8.40649 29.274 8.42524 29.6378 8.60184 29.8413C8.80411 30.0743 9.00116 30.059 10.3075 29.7091C11.5154 29.3856 11.7337 29.2624 11.7337 28.904C11.7337 28.7222 11.2496 26.8624 11.1173 26.5359C10.9696 26.1712 10.4613 26.0647 10.1834 26.3401C10.0075 26.5143 9.99085 26.7765 10.1239 27.2722C10.1724 27.4526 10.2035 27.6086 10.1931 27.6189C10.1606 27.6511 2.19872 23.0799 2.19891 23.029C2.19903 23.0025 2.3576 22.9373 2.55138 22.8842C3.0174 22.7562 3.17075 22.6677 3.24036 22.4863C3.34068 22.2247 3.30578 22.0411 3.12075 21.8578C2.87545 21.6147 2.64963 21.6314 1.35851 21.9884ZM23.9619 21.8271C23.7706 22.0167 23.7178 22.2421 23.8119 22.4673C23.9007 22.6797 24.0212 22.7537 24.4857 22.8812C24.6735 22.9328 24.8321 22.998 24.8382 23.0261C24.8466 23.0652 16.9361 27.6358 16.8601 27.6358C16.851 27.6358 16.8952 27.4396 16.9585 27.1998C17.0218 26.96 17.0579 26.6897 17.0388 26.5991C16.991 26.3719 16.7411 26.1925 16.4726 26.1925C16.2067 26.1925 16.0223 26.3093 15.9306 26.5359C15.8014 26.8548 15.3142 28.7201 15.3142 28.896C15.3142 29.1806 15.5346 29.3731 16.0125 29.5058C17.4943 29.9173 18.0879 30.0452 18.2437 29.9865C18.5921 29.8552 18.7375 29.3175 18.4907 29.073C18.422 29.0049 18.1515 28.8879 17.8897 28.8131C17.4193 28.6785 17.4155 28.6758 17.5626 28.5828C17.7676 28.4532 25.5164 24.0274 25.5383 24.0274C25.5479 24.0274 25.4985 24.2419 25.4283 24.504C25.3082 24.9526 25.3065 24.9925 25.3996 25.186C25.5937 25.5894 26.1495 25.6308 26.3691 25.2581C26.5045 25.0284 27.0366 23.1071 27.0471 22.81C27.0612 22.4143 26.8955 22.3164 25.6403 21.9786C24.3742 21.638 24.1712 21.6197 23.9619 21.8271Z" fill="#058FA2"/>
<path fill-rule="evenodd" clip-rule="evenodd" d="M28.6535 6.04084C28.4434 6.12437 26.7377 7.85526 26.7066 8.01667C26.635 8.38756 26.9028 8.69782 27.2944 8.69782C27.4666 8.69782 27.5732 8.63569 27.873 8.36055L28.2406 8.02335V12.637V17.2506L27.873 16.9134C27.5732 16.6383 27.4666 16.5762 27.2944 16.5762C26.9028 16.5762 26.635 16.8864 26.7066 17.2573C26.7429 17.4457 28.468 19.1646 28.6987 19.2423C28.7806 19.2699 28.9144 19.2699 28.9963 19.2423C29.227 19.1646 30.9521 17.4457 30.9884 17.2573C31.06 16.8864 30.7922 16.5762 30.4006 16.5762C30.2284 16.5762 30.1218 16.6383 29.8219 16.9134L29.4544 17.2506V12.637V8.02335L29.8219 8.36055C30.1218 8.63569 30.2284 8.69782 30.4006 8.69782C30.7922 8.69782 31.06 8.38756 30.9884 8.01667C30.9685 7.91317 30.6407 7.5471 30.051 6.96964C29.1691 6.10597 29.0376 6 28.8475 6C28.7974 6 28.7102 6.01834 28.6535 6.04084ZM1.35851 21.9344C0.152469 22.2679 -0.0130252 22.368 0.000750842 22.7559C0.0113104 23.0532 0.543356 24.974 0.679235 25.2055C0.829679 25.4618 1.15114 25.5363 1.42429 25.3782C1.71577 25.2095 1.77057 24.9655 1.63445 24.4419C1.57492 24.2128 1.53571 24.0178 1.54737 24.0086C1.56424 23.9953 9.22389 28.363 9.54462 28.5689C9.60591 28.6083 9.4934 28.6631 9.14967 28.7614C8.85369 28.846 8.62812 28.9488 8.56276 29.0288C8.40649 29.22 8.42524 29.5837 8.60184 29.7872C8.80411 30.0203 9.00116 30.005 10.3075 29.6551C11.5154 29.3315 11.7337 29.2084 11.7337 28.8499C11.7337 28.6682 11.2496 26.8083 11.1173 26.4818C10.9696 26.1172 10.4613 26.0106 10.1834 26.286C10.0075 26.4603 9.99085 26.7225 10.1239 27.2181C10.1724 27.3985 10.2035 27.5545 10.1931 27.5648C10.1606 27.597 2.19872 23.0258 2.19891 22.975C2.19903 22.9485 2.3576 22.8833 2.55138 22.8301C3.0174 22.7022 3.17075 22.6137 3.24036 22.4322C3.34068 22.1707 3.30578 21.9871 3.12075 21.8037C2.87545 21.5606 2.64963 21.5773 1.35851 21.9344ZM23.9619 21.7731C23.7706 21.9626 23.7178 22.188 23.8119 22.4132C23.9007 22.6256 24.0212 22.6997 24.4857 22.8272C24.6735 22.8788 24.8321 22.9439 24.8382 22.972C24.8466 23.0111 16.9361 27.5818 16.8601 27.5818C16.851 27.5818 16.8952 27.3856 16.9585 27.1457C17.0218 26.9059 17.0579 26.6356 17.0388 26.5451C16.991 26.3179 16.7411 26.1384 16.4726 26.1384C16.2067 26.1384 16.0223 26.2552 15.9306 26.4818C15.8014 26.8007 15.3142 28.6661 15.3142 28.8419C15.3142 29.1265 15.5346 29.319 16.0125 29.4517C17.4943 29.8632 18.0879 29.9911 18.2437 29.9324C18.5921 29.8012 18.7375 29.2635 18.4907 29.0189C18.422 28.9508 18.1515 28.8338 17.8897 28.759C17.4193 28.6244 17.4155 28.6218 17.5626 28.5288C17.7676 28.3991 25.5164 23.9734 25.5383 23.9734C25.5479 23.9734 25.4985 24.1878 25.4283 24.4499C25.3082 24.8985 25.3065 24.9384 25.3996 25.1319C25.5937 25.5354 26.1495 25.5767 26.3691 25.204C26.5045 24.9743 27.0366 23.053 27.0471 22.7559C27.0612 22.3602 26.8955 22.2623 25.6403 21.9246C24.3742 21.5839 24.1712 21.5656 23.9619 21.7731Z" fill="#FDD304"/>
</svg>
