<svg width="76" height="72" viewBox="0 0 76 72" fill="none" xmlns="http://www.w3.org/2000/svg">
<g filter="url(#filter0_d_1229_2428)">
<path d="M69.7643 20.6176H70.2643V20.1176V18V17.5H69.7643H6.23483H5.73483V18V20.1176V20.6176H6.23483H69.7643ZM71.3819 21.7353H4.61719V16.3823H71.3819V21.7353Z" stroke="#058FA2"/>
<path d="M10.4697 54.5H10.9697V54V22.2353V21.7353H10.4697H8.35202H7.85202V22.2353V54V54.5H8.35202H10.4697ZM12.0873 55.6177H6.73438V20.6177H12.0873V55.6177Z" stroke="#058FA2"/>
<path d="M67.6455 54.5H68.1455V54V22.2353V21.7353H67.6455H65.5278H65.0278V22.2353V54V54.5H65.5278H67.6455ZM69.2631 55.6177H63.9102V20.6177H69.2631V55.6177Z" stroke="#058FA2"/>
<path d="M42.2353 54.5H42.7353V54V22.2353V21.7353H42.2353H40.1176H39.6176V22.2353V54V54.5H40.1176H42.2353ZM43.8529 55.6177H38.5V20.6177H43.8529V55.6177Z" stroke="#058FA2"/>
<path d="M54.9694 26.4706C54.9694 27.0716 54.4822 27.5588 53.8812 27.5588C53.2802 27.5588 52.793 27.0716 52.793 26.4706C52.793 25.8695 53.2802 25.3823 53.8812 25.3823C54.4822 25.3823 54.9694 25.8695 54.9694 26.4706Z" stroke="#058FA2"/>
<path d="M54.9694 37.0589C54.9694 37.66 54.4822 38.1472 53.8812 38.1472C53.2802 38.1472 52.793 37.66 52.793 37.0589C52.793 36.4579 53.2802 35.9707 53.8812 35.9707C54.4822 35.9707 54.9694 36.4579 54.9694 37.0589Z" stroke="#058FA2"/>
<path d="M44.8516 32.3237V31.2061H62.9104V32.3237H44.8516Z" stroke="#058FA2"/>
<path d="M44.8516 42.9116V41.7939H62.9104V42.9116H44.8516Z" stroke="#058FA2"/>
<path d="M54.9694 26.4706C54.9694 27.0716 54.4822 27.5588 53.8812 27.5588C53.2802 27.5588 52.793 27.0716 52.793 26.4706C52.793 25.8695 53.2802 25.3823 53.8812 25.3823C54.4822 25.3823 54.9694 25.8695 54.9694 26.4706Z" stroke="#058FA2"/>
<path d="M54.9694 37.0589C54.9694 37.66 54.4822 38.1472 53.8812 38.1472C53.2802 38.1472 52.793 37.66 52.793 37.0589C52.793 36.4579 53.2802 35.9707 53.8812 35.9707C54.4822 35.9707 54.9694 36.4579 54.9694 37.0589Z" stroke="#058FA2"/>
</g>
<defs>
<filter id="filter0_d_1229_2428" x="-2" y="0" width="80" height="80" filterUnits="userSpaceOnUse" color-interpolation-filters="sRGB">
<feFlood flood-opacity="0" result="BackgroundImageFix"/>
<feColorMatrix in="SourceAlpha" type="matrix" values="0 0 0 0 0 0 0 0 0 0 0 0 0 0 0 0 0 0 127 0" result="hardAlpha"/>
<feOffset dy="4"/>
<feGaussianBlur stdDeviation="2"/>
<feComposite in2="hardAlpha" operator="out"/>
<feColorMatrix type="matrix" values="0 0 0 0 0 0 0 0 0 0 0 0 0 0 0 0 0 0 0.25 0"/>
<feBlend mode="normal" in2="BackgroundImageFix" result="effect1_dropShadow_1229_2428"/>
<feBlend mode="normal" in="SourceGraphic" in2="effect1_dropShadow_1229_2428" result="shape"/>
</filter>
</defs>
</svg>
