<svg width="72" height="72" viewBox="0 0 72 72" fill="none" xmlns="http://www.w3.org/2000/svg">
<path d="M19.2669 27.7563H15.47C14.2542 27.7589 13.0889 28.2431 12.2292 29.1028C11.3695 29.9625 10.8854 31.1277 10.8828 32.3435V37.7801C10.8821 37.9906 10.9649 38.1928 11.113 38.3422C11.2612 38.4917 11.4627 38.5763 11.6731 38.5774H19.2669C19.4771 38.5771 19.6786 38.4934 19.8273 38.3447C19.976 38.1961 20.0596 37.9946 20.06 37.7843V28.5467C20.0589 28.3369 19.9749 28.1361 19.8263 27.9881C19.6777 27.84 19.4766 27.7567 19.2669 27.7563ZM18.4723 36.9912H12.4691V32.3435C12.4713 31.5485 12.7882 30.7866 13.3506 30.2245C13.9129 29.6624 14.6749 29.3459 15.47 29.344H18.4723V36.9912Z" fill="#058FA2"/>
<path d="M19.2661 41.0286H16.8755C16.7661 41.0193 16.656 41.0329 16.5521 41.0684C16.4482 41.104 16.3529 41.1607 16.272 41.2349C16.1912 41.3092 16.1267 41.3995 16.0826 41.5C16.0384 41.6005 16.0156 41.7091 16.0156 41.8189C16.0156 41.9287 16.0384 42.0372 16.0826 42.1378C16.1267 42.2383 16.1912 42.3285 16.272 42.4028C16.3529 42.4771 16.4482 42.5338 16.5521 42.5693C16.656 42.6049 16.7661 42.6184 16.8755 42.6092H19.2661C19.4765 42.6092 19.6782 42.5256 19.8269 42.3769C19.9757 42.2282 20.0592 42.0264 20.0592 41.8161C20.0592 41.6057 19.9757 41.404 19.8269 41.2552C19.6782 41.1065 19.4765 41.0229 19.2661 41.0229V41.0286Z" fill="#058FA2"/>
<path d="M66.7798 10.6198C66.7798 10.4094 66.6963 10.2077 66.5475 10.059C66.3988 9.91022 66.1971 9.82666 65.9867 9.82666H23.5911C23.3807 9.82666 23.179 9.91022 23.0303 10.059C22.8815 10.2077 22.798 10.4094 22.798 10.6198V22.279H16.3588C13.4061 22.2824 10.5753 23.4569 8.48755 25.5449C6.39981 27.6329 5.22563 30.4638 5.22266 33.4165V55.9685C5.22303 56.1788 5.30671 56.3803 5.45537 56.5289C5.60403 56.6776 5.80555 56.7613 6.01578 56.7617H9.32469C9.51695 58.2571 10.2475 59.6314 11.3796 60.6272C12.5117 61.6231 13.9678 62.1724 15.4756 62.1724C16.9834 62.1724 18.4396 61.6231 19.5717 60.6272C20.7038 59.6314 21.4343 58.2571 21.6266 56.7617H39.7672C39.9335 58.0554 40.5035 59.2638 41.3962 60.2149C42.2888 61.166 43.4586 61.8114 44.7392 62.0594C46.0198 62.3074 47.346 62.1452 48.5292 61.596C49.7123 61.0468 50.6922 60.1386 51.3294 59.0004C51.9662 60.1388 52.9457 61.0473 54.1287 61.5968C55.3118 62.1462 56.6379 62.3086 57.9185 62.0607C59.1991 61.8129 60.369 61.1675 61.2616 60.2164C62.1542 59.2652 62.7241 58.0568 62.8902 56.7631H65.9839C66.1941 56.7627 66.3957 56.679 66.5443 56.5304C66.693 56.3817 66.7767 56.1802 66.777 55.9699V45.7873L66.7798 10.6198ZM24.3842 11.4129H65.1936V44.9998H24.3842V11.4129ZM15.47 60.5867C14.5572 60.5855 13.6652 60.3139 12.9068 59.806C12.1483 59.2981 11.5575 58.5767 11.2089 57.7331C10.8602 56.8895 10.7695 55.9615 10.9482 55.0663C11.1269 54.1712 11.5669 53.3491 12.2126 52.7039C12.8583 52.0588 13.6808 51.6195 14.5762 51.4417C15.4715 51.2639 16.3994 51.3554 17.2427 51.7048C18.086 52.0542 18.8068 52.6457 19.314 53.4046C19.8212 54.1635 20.0921 55.0557 20.0923 55.9685C20.0909 57.1936 19.6032 58.368 18.7366 59.2339C17.8699 60.0998 16.6951 60.5863 15.47 60.5867ZM45.9097 60.5867C44.9969 60.5855 44.1049 60.3139 43.3465 59.806C42.588 59.2981 41.9972 58.5767 41.6485 57.7331C41.2999 56.8895 41.2092 55.9615 41.3879 55.0663C41.5665 54.1712 42.0065 53.3491 42.6523 52.7039C43.298 52.0588 44.1205 51.6195 45.0158 51.4417C45.9111 51.2639 46.8391 51.3554 47.6824 51.7048C48.5257 52.0542 49.2465 52.6457 49.7537 53.4046C50.2609 54.1635 50.5317 55.0557 50.532 55.9685C50.5305 57.1926 50.0437 58.3662 49.1783 59.2319C48.3128 60.0976 47.1394 60.5848 45.9153 60.5867H45.9097ZM56.7308 60.5867C55.818 60.5855 54.926 60.3139 54.1675 59.806C53.4091 59.2981 52.8182 58.5767 52.4696 57.7331C52.121 56.8895 52.0303 55.9615 52.209 55.0663C52.3876 54.1712 52.8276 53.3491 53.4734 52.7039C54.1191 52.0588 54.9416 51.6195 55.8369 51.4417C56.7322 51.2639 57.6602 51.3554 58.5035 51.7048C59.3468 52.0542 60.0676 52.6457 60.5748 53.4046C61.082 54.1635 61.3528 55.0557 61.3531 55.9685C61.352 57.1928 60.8653 58.3665 59.9998 59.2323C59.1343 60.0981 57.9606 60.5852 56.7364 60.5867H56.7308ZM65.188 55.1768H62.8817C62.7133 53.8856 62.1427 52.6802 61.2508 51.7315C60.3588 50.7829 59.1909 50.1391 57.9125 49.8915C56.6341 49.6439 55.3103 49.8051 54.1286 50.3522C52.947 50.8993 51.9676 51.8045 51.3294 52.9395C50.6923 51.8013 49.7125 50.8931 48.5295 50.3438C47.3465 49.7946 46.0204 49.6323 44.7398 49.8801C43.4592 50.1279 42.2894 50.7731 41.3967 51.724C40.5039 52.675 39.9337 53.8832 39.7672 55.1768H21.6266C21.4343 53.6813 20.7038 52.3071 19.5717 51.3112C18.4396 50.3154 16.9834 49.766 15.4756 49.766C13.9678 49.766 12.5117 50.3154 11.3796 51.3112C10.2475 52.3071 9.51695 53.6813 9.32469 55.1768H6.80891V33.4165C6.81188 30.8845 7.81893 28.4571 9.60919 26.6665C11.3995 24.876 13.8268 23.8686 16.3588 23.8653H22.798V45.7873C22.798 45.9976 22.8815 46.1994 23.0303 46.3481C23.179 46.4968 23.3807 46.5804 23.5911 46.5804H65.1936L65.188 55.1768Z" fill="#058FA2"/>
<path d="M32.5916 29.1673C32.7411 29.316 32.9433 29.3995 33.1541 29.3995C33.365 29.3995 33.5672 29.316 33.7166 29.1673L34.3663 28.5162V39.9377C34.3663 40.1482 34.4498 40.3501 34.5985 40.499C34.7472 40.648 34.949 40.7319 35.1594 40.7323H52.7362C52.9466 40.7319 53.1484 40.648 53.2971 40.499C53.4458 40.3501 53.5293 40.1482 53.5293 39.9377V28.5162L54.1804 29.1673C54.3296 29.3163 54.5319 29.4001 54.7429 29.4001C54.9538 29.4001 55.1561 29.3163 55.3054 29.1673L59.5537 24.9176C59.6278 24.8439 59.6867 24.7562 59.7268 24.6597C59.767 24.5631 59.7876 24.4596 59.7876 24.3551C59.7876 24.2505 59.767 24.147 59.7268 24.0505C59.6867 23.9539 59.6278 23.8663 59.5537 23.7926L53.1609 17.3998C53.0461 17.2848 52.8988 17.2078 52.739 17.179L48.0393 16.3563C47.9191 16.3363 47.7959 16.344 47.6792 16.379C47.5625 16.414 47.4554 16.4752 47.3661 16.5581C47.2767 16.6409 47.2075 16.7431 47.1638 16.8568C47.1201 16.9706 47.1031 17.0928 47.114 17.2141C47.114 17.2338 47.2715 19.0423 46.2801 20.1321C45.757 20.7044 44.9737 20.9955 43.9513 20.9969C42.929 20.9984 42.1443 20.7044 41.6212 20.1321C40.6368 19.0423 40.7845 17.2338 40.7873 17.2141C40.7983 17.0927 40.7814 16.9704 40.7377 16.8565C40.6941 16.7427 40.6249 16.6403 40.5355 16.5574C40.4465 16.4741 40.3393 16.4126 40.2224 16.3777C40.1055 16.3428 39.9821 16.3355 39.862 16.3563L35.158 17.1832C34.9983 17.2123 34.8511 17.2893 34.7362 17.404L28.3434 23.7968C28.2692 23.8705 28.2104 23.9581 28.1702 24.0547C28.13 24.1512 28.1094 24.2547 28.1094 24.3593C28.1094 24.4638 28.13 24.5674 28.1702 24.6639C28.2104 24.7604 28.2692 24.8481 28.3434 24.9218L32.5916 29.1673ZM35.6854 18.7034L39.2179 18.0846C39.2896 18.9565 39.561 20.2193 40.4427 21.1952C41.2752 22.1149 42.4509 22.5832 43.9387 22.5874H43.9696C45.456 22.5874 46.6316 22.1149 47.4641 21.1952C48.3459 20.2193 48.6173 18.9565 48.689 18.0846L52.2215 18.7034L57.8774 24.3579L54.7471 27.4854L53.2987 26.0398C53.1877 25.9286 53.0462 25.853 52.8921 25.8224C52.7381 25.7918 52.5784 25.8076 52.4333 25.8679C52.2883 25.9281 52.1644 26.0301 52.0774 26.1608C51.9903 26.2916 51.9441 26.4452 51.9445 26.6023V39.1488H35.9526V26.6009C35.953 26.4438 35.9067 26.2901 35.8197 26.1594C35.7326 26.0287 35.6087 25.9267 35.4637 25.8665C35.3186 25.8062 35.159 25.7904 35.0049 25.821C34.8509 25.8516 34.7094 25.9272 34.5984 26.0384L33.1541 27.484L30.0266 24.3565L35.6854 18.7034Z" fill="#058FA2"/>
</svg>
