<svg width="72" height="72" viewBox="0 0 72 72" fill="none" xmlns="http://www.w3.org/2000/svg">
<path d="M59.7617 45.0306C59.7617 44.5499 59.372 44.1602 58.8912 44.1602H12.6322C12.1515 44.1602 11.7617 44.5499 11.7617 45.0306V53.1297C11.7617 53.6104 12.1515 54.0002 12.6322 54.0002H58.8912C59.372 54.0002 59.7617 53.6104 59.7617 53.1297V45.0306Z" stroke="#058FA2" stroke-width="2" stroke-miterlimit="10" stroke-linecap="round" stroke-linejoin="round"/>
<path d="M17.4017 39.3604C14.3532 39.3604 11.7617 41.7116 11.7617 44.7604V53.0099C11.7617 53.4906 12.2715 54.0004 12.7522 54.0004H59.0112C59.492 54.0004 59.7617 53.4906 59.7617 53.0099V44.7604C59.7617 41.7116 57.4102 39.3604 54.3617 39.3604H17.4017Z" stroke="#058FA2" stroke-width="2" stroke-miterlimit="10" stroke-linecap="round" stroke-linejoin="round"/>
<path d="M54.9219 48.8711C54.9219 49.1472 54.698 49.3711 54.4219 49.3711C54.1457 49.3711 53.9219 49.1472 53.9219 48.8711C53.9219 48.595 54.1457 48.3711 54.4219 48.3711C54.698 48.3711 54.9219 48.595 54.9219 48.8711Z" fill="black" stroke="#058FA2" stroke-width="2"/>
<path d="M49.7773 48.8711C49.7773 49.1472 49.5535 49.3711 49.2773 49.3711C49.0012 49.3711 48.7773 49.1472 48.7773 48.8711C48.7773 48.595 49.0012 48.3711 49.2773 48.3711C49.5535 48.3711 49.7773 48.595 49.7773 48.8711Z" fill="black" stroke="#058FA2" stroke-width="2"/>
<path d="M44.6328 48.8711C44.6328 49.1472 44.409 49.3711 44.1328 49.3711C43.8567 49.3711 43.6328 49.1472 43.6328 48.8711C43.6328 48.595 43.8567 48.3711 44.1328 48.3711C44.409 48.3711 44.6328 48.595 44.6328 48.8711Z" fill="black" stroke="#058FA2" stroke-width="2"/>
<path d="M15.4805 27.3604L18.1133 36.6836" stroke="#058FA2" stroke-width="2" stroke-miterlimit="10" stroke-linecap="round" stroke-linejoin="round"/>
</svg>
