<svg width="253" height="260" viewBox="0 0 253 260" fill="none" xmlns="http://www.w3.org/2000/svg">
<path fill-rule="evenodd" clip-rule="evenodd" d="M105.507 1.46143C95.7698 3.21943 82.0328 7.75443 73.6868 11.9654C65.9568 15.8664 53.2988 24.3314 50.2068 27.6674C47.6038 30.4774 47.2478 35.0314 49.3378 38.8054C50.6168 41.1144 50.3748 41.6324 45.1338 47.8054C30.6258 64.8924 21.4738 86.3314 19.3948 108.104C18.9218 113.061 18.3628 114.854 17.2908 114.854C14.5738 114.854 8.23784 118.716 5.10984 122.279C0.114839 127.968 -0.249162 130.742 0.0948385 160.435L0.409838 187.517L3.42484 192.391C6.11984 196.747 11.8358 200.968 17.7648 202.979C18.3728 203.185 19.3318 205.829 19.8958 208.854C22.4838 222.747 32.3898 235.316 45.7948 241.718L53.4098 245.354L78.1598 245.667L102.91 245.981V249.013C102.91 252.865 105.547 257.367 108.622 258.769C110.019 259.405 117.496 259.845 126.707 259.832C147.65 259.802 148.91 258.84 148.91 242.87C148.91 226.807 146.416 224.854 125.91 224.854C116.881 224.854 111.795 225.293 109.444 226.275C105.749 227.819 102.91 232.205 102.91 236.369V238.983L78.6598 238.668C54.9068 238.36 54.2968 238.301 48.9098 235.744C40.4598 231.734 34.4808 225.819 30.5058 217.539C28.6088 213.587 26.7778 208.667 26.4378 206.604L25.8188 202.854H32.9098C39.1048 202.854 40.3108 202.544 42.4548 200.399L44.9098 197.945V158.488V119.032L41.8328 116.443C39.2098 114.235 37.7928 113.854 32.2178 113.854H25.6798L26.3688 108.104C28.7378 88.3574 35.6828 71.0954 47.3658 55.9114C53.5328 47.8974 54.2218 47.4364 56.4128 49.8584C59.7508 53.5464 64.5218 52.5294 72.6788 46.3934C81.2318 39.9584 91.7748 34.7544 102.608 31.6184C109.213 29.7064 112.788 29.3594 125.91 29.3594C139.032 29.3594 142.607 29.7064 149.212 31.6184C160.045 34.7544 170.588 39.9584 179.141 46.3934C187.298 52.5294 192.069 53.5464 195.407 49.8584C197.706 47.3174 198.417 47.8734 206.122 58.2394C216.399 72.0684 223.394 89.9824 225.396 107.604L226.106 113.854H219.585C214.028 113.854 212.608 114.237 209.987 116.443L206.91 119.032V158.488V197.945L209.445 200.48C211.926 202.961 212.244 203.009 224.279 202.685C235.926 202.372 236.833 202.195 241.402 199.354C244.924 197.164 247.125 194.735 249.556 190.354L252.886 184.354L252.898 157.045C252.905 141.264 252.533 129.969 252.017 130.288C251.525 130.592 250.844 129.727 250.502 128.365C249.21 123.219 239.336 114.854 234.551 114.854C233.498 114.854 232.922 112.913 232.4 107.604C230.284 86.0994 221.079 64.6894 206.617 47.6424C201.493 41.6024 201.237 41.0514 202.496 38.7784C204.88 34.4764 204.255 29.9784 200.828 26.7784C188.805 15.5464 165.615 4.90543 145.525 1.40243C134.669 -0.490568 116.165 -0.463568 105.507 1.46143ZM106.252 8.33343C89.7278 11.3324 73.7408 18.3434 59.6598 28.7654C57.0468 30.6994 54.9098 32.8034 54.9098 33.4424C54.9098 35.2514 60.0278 43.9624 61.4008 44.4894C62.0758 44.7484 66.8548 42.0984 72.0188 38.6004C90.3578 26.1784 107.327 21.3154 129.41 22.1524C138.11 22.4824 145.056 23.3494 150.41 24.7724C160.384 27.4244 174.526 34.2634 182.41 40.2474C185.71 42.7514 188.972 44.8134 189.658 44.8274C191.162 44.8594 196.864 36.0524 196.891 33.6554C196.902 32.6984 194.149 29.9854 190.593 27.4474C177.642 18.2054 160.733 11.0824 145.152 8.30443C135.542 6.59143 115.773 6.60643 106.252 8.33343ZM96.5248 74.6674C96.2268 75.1504 95.6728 77.4834 95.2938 79.8524C94.5508 84.5004 91.9718 87.8544 89.1418 87.8544C88.1698 87.8544 85.7188 86.7294 83.6948 85.3544C81.6718 83.9794 79.1928 82.8544 78.1858 82.8544C75.8418 82.8544 62.9098 95.8304 62.9098 98.1824C62.9098 99.1604 64.0348 101.616 65.4098 103.639C69.6938 109.944 68.1168 113.513 60.4108 114.953C57.7208 115.455 55.1648 116.426 54.7308 117.11C53.3368 119.305 53.7558 137.481 55.2278 138.703C55.9528 139.305 58.7978 140.28 61.5508 140.87C65.6068 141.74 66.7438 142.456 67.5508 144.649C68.3878 146.923 68.0978 148.02 65.7278 151.534C64.1778 153.833 62.9098 156.545 62.9098 157.561C62.9098 159.927 75.8808 172.854 78.2548 172.854C79.2418 172.854 81.9308 171.586 84.2298 170.036C87.7438 167.666 88.8408 167.376 91.1148 168.213C93.3078 169.02 94.0238 170.157 94.8938 174.213C96.4928 181.672 96.8028 181.854 107.91 181.854C119.052 181.854 119.322 181.692 120.964 174.036C121.576 171.186 122.588 168.854 123.214 168.854C123.84 168.854 126.956 171.43 130.138 174.579L135.924 180.305L140.339 177.893C144.048 175.867 145.008 175.69 146.332 176.79C147.2 177.51 147.91 178.973 147.91 180.042C147.91 184.918 149.506 185.854 157.823 185.854C166.385 185.854 167.246 185.38 168.389 180.036C169.186 176.31 171.381 174.957 173.796 176.702C179.261 180.652 179.617 180.582 185.95 174.314C189.228 171.071 191.91 167.901 191.91 167.27C191.91 166.64 190.977 164.938 189.837 163.488C187.036 159.927 187.71 157.625 191.918 156.384C197.735 154.668 197.91 154.36 197.91 145.83C197.91 137.445 196.983 135.854 192.098 135.854C191.029 135.854 189.555 135.131 188.822 134.247C187.692 132.886 187.83 132.046 189.732 128.743C192.426 124.061 192.071 123.149 184.959 116.497L179.857 111.724L176.515 113.789C171.313 117.004 169.127 116.554 168.325 112.104C167.953 110.042 167.203 107.792 166.657 107.104C165.17 105.23 151.477 105.43 149.553 107.354C146.685 110.222 146.832 108.827 149.862 104.424C151.538 101.987 152.91 99.1634 152.91 98.1474C152.91 95.7914 139.944 82.8544 137.582 82.8544C136.604 82.8544 134.148 83.9794 132.125 85.3544C125.71 89.7134 122.424 88.1394 120.58 79.8254L119.367 74.3544L108.217 74.0724C102.085 73.9174 96.8238 74.1854 96.5248 74.6674ZM101.415 84.1044C100.15 90.3894 99.6968 90.9744 94.2028 93.4034C91.1548 94.7514 88.2568 95.8544 87.7638 95.8544C87.2708 95.8544 85.0488 94.6514 82.8268 93.1804L78.7868 90.5074L74.6748 94.6194L70.5628 98.7314L73.2358 102.771C74.7068 104.993 75.9098 107.215 75.9098 107.708C75.9098 108.201 74.8068 111.099 73.4588 114.147C71.0298 119.641 70.4448 120.094 64.1598 121.359C60.9378 122.007 60.9098 122.063 60.9098 127.872V133.731L65.3498 134.397C70.5758 135.181 72.0088 136.611 74.3978 143.424L76.1758 148.495L73.3688 152.736L70.5628 156.977L74.6748 161.089L78.7868 165.201L82.9958 162.416L87.2058 159.63L92.6968 161.492C98.6728 163.519 100.337 165.369 101.343 171.104L102.001 174.854H107.943H113.886L114.535 170.795C115.363 165.617 117.253 163.561 123.16 161.415C128.28 159.554 128.967 158.49 126.053 156.931C124.705 156.209 122.785 156.473 119.043 157.896C104.307 163.495 87.2778 156.975 79.3758 142.709C76.6698 137.824 76.4098 136.52 76.4148 127.854C76.4188 119.495 76.7388 117.753 79.0778 113.354C87.3608 97.7794 105.912 91.3624 121.432 98.7054C125.344 100.555 129.148 103.437 132.287 106.928C134.945 109.884 138.482 113.132 140.147 114.144C143.054 115.912 143.144 115.913 142.419 114.17C139.514 107.185 139.514 107.41 142.439 102.99L145.257 98.7314L141.145 94.6194L137.033 90.5074L132.993 93.1804C130.771 94.6514 128.549 95.8544 128.056 95.8544C127.563 95.8544 124.665 94.7514 121.617 93.4034C116.123 90.9744 115.67 90.3894 114.405 84.1044C113.757 80.8834 113.699 80.8544 107.91 80.8544C102.121 80.8544 102.063 80.8834 101.415 84.1044ZM97.3878 104.725C92.2528 107.058 87.1138 112.197 84.7808 117.332C82.1988 123.016 82.2988 132.959 84.9938 138.527C87.6018 143.916 94.5638 150.134 99.7168 151.678C104.487 153.107 111.864 153.202 115.345 151.879C117.702 150.983 117.91 150.421 117.91 144.95C117.91 138.628 119.432 135.854 122.9 135.854C128.274 135.854 129.216 133.182 125.851 127.479L123.793 123.99L127.325 120.08L130.857 116.17L128.538 113.028C123.372 106.025 116.839 102.844 107.692 102.876C103.785 102.89 99.8898 103.589 97.3878 104.725ZM154.462 114.104C154.25 114.792 153.822 116.528 153.51 117.962C153.08 119.94 151.816 121 148.269 122.355C143.77 124.073 143.469 124.071 140.211 122.317C136.881 120.523 136.791 120.528 134.688 122.632C132.584 124.735 132.579 124.825 134.373 128.155C136.127 131.413 136.129 131.714 134.411 136.213C133.056 139.76 131.996 141.024 130.018 141.454C125.197 142.502 124.91 142.775 124.91 146.323C124.91 149.225 125.278 149.854 126.976 149.854C130.398 149.854 132.454 151.516 134.417 155.87C136.233 159.897 136.234 160.097 134.433 163.442C132.598 166.849 132.601 166.896 134.838 169.278L137.094 171.678L140.427 169.712L143.76 167.745L148.585 170.05C152.449 171.895 153.51 172.952 153.914 175.354C154.358 177.989 154.874 178.392 158.164 178.664C161.525 178.943 161.91 178.731 161.91 176.605C161.91 173.4 163.623 171.555 168.588 169.416C172.682 167.652 172.824 167.657 175.665 169.68L178.565 171.744L181.183 169.127L183.8 166.509L181.736 163.609C179.713 160.768 179.708 160.626 181.472 156.532C183.611 151.567 185.456 149.854 188.661 149.854C190.788 149.854 190.999 149.469 190.72 146.104C190.461 142.967 190.001 142.297 187.91 142.008C184.432 141.527 183.423 140.486 181.463 135.353C179.808 131.02 179.818 130.791 181.799 128.01L183.843 125.14L181.388 122.833C178.948 120.541 178.912 120.538 175.498 122.377C172.153 124.178 171.953 124.177 167.926 122.361C163.572 120.398 161.91 118.342 161.91 114.92C161.91 113.222 161.281 112.854 158.379 112.854C156.426 112.854 154.675 113.413 154.462 114.104ZM16.9108 121.977C15.5358 122.526 13.3558 123.96 12.0648 125.164C7.08884 129.81 6.90984 130.992 6.91384 159.054C6.91684 183.533 7.05484 185.58 8.90484 188.613C12.4568 194.439 16.0828 195.846 27.5528 195.85C35.8818 195.853 37.8048 195.571 38.3028 194.272C39.0948 192.207 39.0948 124.501 38.3028 122.436C37.8078 121.146 36.0068 120.866 28.5528 120.917C23.5238 120.952 18.2848 121.429 16.9108 121.977ZM213.91 158.354V195.854L224.16 195.85C235.74 195.846 239.329 194.463 242.94 188.613C244.849 185.523 244.939 183.922 244.681 157.668L244.41 129.982L241.41 126.795C236.964 122.071 233.179 120.854 222.942 120.854H213.91V158.354ZM149.41 127.423C141.681 131.435 137.91 137.528 137.91 146.006C137.91 156.306 144.961 164.673 155.082 166.383C168.024 168.57 180.626 155.968 178.439 143.026C177.397 136.858 172.846 130.486 167.708 127.998C162.388 125.423 153.785 125.153 149.41 127.423ZM0.349838 158.354C0.349838 173.754 0.488839 179.914 0.657839 172.043C0.826839 164.173 0.826838 151.573 0.656838 144.043C0.487838 136.514 0.348838 142.954 0.349838 158.354ZM153.41 133.36C148.721 135.023 146.341 137.633 144.963 142.623C141.449 155.35 156.638 164.844 166.814 156.281C172.094 151.839 173.203 143.573 169.273 137.961C167.761 135.803 160.689 131.87 158.41 131.92C157.86 131.932 155.61 132.58 153.41 133.36ZM110.992 233.255C110.248 234.152 109.934 237.841 110.12 243.505L110.41 252.354H125.91H141.41L141.7 243.505C141.886 237.841 141.572 234.152 140.828 233.255C139.934 232.178 136.485 231.854 125.91 231.854C115.335 231.854 111.886 232.178 110.992 233.255Z" fill="#5BBDBC"/>
<path fill-rule="evenodd" clip-rule="evenodd" d="M96.5248 74.6674C96.2268 75.1504 95.6728 77.4834 95.2938 79.8524C94.5508 84.5004 91.9718 87.8544 89.1418 87.8544C88.1698 87.8544 85.7188 86.7294 83.6948 85.3544C81.6718 83.9794 79.1928 82.8544 78.1858 82.8544C75.8418 82.8544 62.9098 95.8304 62.9098 98.1824C62.9098 99.1604 64.0348 101.616 65.4098 103.639C69.6938 109.944 68.1168 113.513 60.4108 114.953C57.7208 115.455 55.1648 116.426 54.7308 117.11C53.3368 119.305 53.7558 137.481 55.2278 138.703C55.9528 139.305 58.7978 140.28 61.5508 140.87C65.6068 141.74 66.7438 142.456 67.5508 144.649C68.3878 146.923 68.0978 148.02 65.7278 151.534C64.1778 153.833 62.9098 156.545 62.9098 157.561C62.9098 159.927 75.8808 172.854 78.2548 172.854C79.2418 172.854 81.9308 171.586 84.2298 170.036C87.7438 167.666 88.8408 167.376 91.1148 168.213C93.3078 169.02 94.0238 170.157 94.8938 174.213C96.4928 181.672 96.8028 181.854 107.91 181.854C119.052 181.854 119.322 181.692 120.964 174.036C121.576 171.186 122.588 168.854 123.214 168.854C123.84 168.854 126.956 171.43 130.138 174.579L135.924 180.305L140.339 177.893C144.048 175.867 145.008 175.69 146.332 176.79C147.2 177.51 147.91 178.973 147.91 180.042C147.91 184.918 149.506 185.854 157.823 185.854C166.385 185.854 167.246 185.38 168.389 180.036C169.186 176.31 171.381 174.957 173.796 176.702C179.261 180.652 179.617 180.582 185.95 174.314C189.228 171.071 191.91 167.901 191.91 167.27C191.91 166.64 190.977 164.938 189.837 163.488C187.036 159.927 187.71 157.625 191.918 156.384C197.735 154.668 197.91 154.36 197.91 145.83C197.91 137.445 196.983 135.854 192.098 135.854C191.029 135.854 189.555 135.131 188.822 134.247C187.692 132.886 187.83 132.046 189.732 128.743C192.426 124.061 192.071 123.149 184.959 116.497L179.857 111.724L176.515 113.789C171.313 117.004 169.127 116.554 168.325 112.104C167.953 110.042 167.203 107.792 166.657 107.104C165.17 105.23 151.477 105.43 149.553 107.354C146.685 110.222 146.832 108.827 149.862 104.424C151.538 101.987 152.91 99.1634 152.91 98.1474C152.91 95.7914 139.944 82.8544 137.582 82.8544C136.604 82.8544 134.148 83.9794 132.125 85.3544C125.71 89.7134 122.424 88.1394 120.58 79.8254L119.367 74.3544L108.217 74.0724C102.085 73.9174 96.8238 74.1854 96.5248 74.6674ZM101.415 84.1044C100.15 90.3894 99.6968 90.9744 94.2028 93.4034C91.1548 94.7514 88.2568 95.8544 87.7638 95.8544C87.2708 95.8544 85.0488 94.6514 82.8268 93.1804L78.7868 90.5074L74.6748 94.6194L70.5628 98.7314L73.2358 102.771C74.7068 104.993 75.9098 107.215 75.9098 107.708C75.9098 108.201 74.8068 111.099 73.4588 114.147C71.0298 119.641 70.4448 120.094 64.1598 121.359C60.9378 122.007 60.9098 122.063 60.9098 127.872V133.731L65.3498 134.397C70.5758 135.181 72.0088 136.611 74.3978 143.424L76.1758 148.495L73.3688 152.736L70.5628 156.977L74.6748 161.089L78.7868 165.201L82.9958 162.416L87.2058 159.63L92.6968 161.492C98.6728 163.519 100.337 165.369 101.343 171.104L102.001 174.854H107.943H113.886L114.535 170.795C115.363 165.617 117.253 163.561 123.16 161.415C128.28 159.554 128.967 158.49 126.053 156.931C124.705 156.209 122.785 156.473 119.043 157.896C104.307 163.495 87.2778 156.975 79.3758 142.709C76.6698 137.824 76.4098 136.52 76.4148 127.854C76.4188 119.495 76.7388 117.753 79.0778 113.354C87.3608 97.7794 105.912 91.3624 121.432 98.7054C125.344 100.555 129.148 103.437 132.287 106.928C134.945 109.884 138.482 113.132 140.147 114.144C143.054 115.912 143.144 115.913 142.419 114.17C139.514 107.185 139.514 107.41 142.439 102.99L145.257 98.7314L141.145 94.6194L137.033 90.5074L132.993 93.1804C130.771 94.6514 128.549 95.8544 128.056 95.8544C127.563 95.8544 124.665 94.7514 121.617 93.4034C116.123 90.9744 115.67 90.3894 114.405 84.1044C113.757 80.8834 113.699 80.8544 107.91 80.8544C102.121 80.8544 102.063 80.8834 101.415 84.1044ZM97.3878 104.725C92.2528 107.058 87.1138 112.197 84.7808 117.332C82.1988 123.016 82.2988 132.959 84.9938 138.527C87.6018 143.916 94.5638 150.134 99.7168 151.678C104.487 153.107 111.864 153.202 115.345 151.879C117.702 150.983 117.91 150.421 117.91 144.95C117.91 138.628 119.432 135.854 122.9 135.854C128.274 135.854 129.216 133.182 125.851 127.479L123.793 123.99L127.325 120.08L130.857 116.17L128.538 113.028C123.372 106.025 116.839 102.844 107.692 102.876C103.785 102.89 99.8898 103.589 97.3878 104.725ZM154.462 114.104C154.25 114.792 153.822 116.528 153.51 117.962C153.08 119.94 151.816 121 148.269 122.355C143.77 124.073 143.469 124.071 140.211 122.317C136.881 120.523 136.791 120.528 134.688 122.632C132.584 124.735 132.579 124.825 134.373 128.155C136.127 131.413 136.129 131.714 134.411 136.213C133.056 139.76 131.996 141.024 130.018 141.454C125.197 142.502 124.91 142.775 124.91 146.323C124.91 149.225 125.278 149.854 126.976 149.854C130.398 149.854 132.454 151.516 134.417 155.87C136.233 159.897 136.234 160.097 134.433 163.442C132.598 166.849 132.601 166.896 134.838 169.278L137.094 171.678L140.427 169.712L143.76 167.745L148.585 170.05C152.449 171.895 153.51 172.952 153.914 175.354C154.358 177.989 154.874 178.392 158.164 178.664C161.525 178.943 161.91 178.731 161.91 176.605C161.91 173.4 163.623 171.555 168.588 169.416C172.682 167.652 172.824 167.657 175.665 169.68L178.565 171.744L181.183 169.127L183.8 166.509L181.736 163.609C179.713 160.768 179.708 160.626 181.472 156.532C183.611 151.567 185.456 149.854 188.661 149.854C190.788 149.854 190.999 149.469 190.72 146.104C190.461 142.967 190.001 142.297 187.91 142.008C184.432 141.527 183.423 140.486 181.463 135.353C179.808 131.02 179.818 130.791 181.799 128.01L183.843 125.14L181.388 122.833C178.948 120.541 178.912 120.538 175.498 122.377C172.153 124.178 171.953 124.177 167.926 122.361C163.572 120.398 161.91 118.342 161.91 114.92C161.91 113.222 161.281 112.854 158.379 112.854C156.426 112.854 154.675 113.413 154.462 114.104ZM149.41 127.423C141.681 131.435 137.91 137.528 137.91 146.006C137.91 156.306 144.961 164.673 155.082 166.383C168.024 168.57 180.626 155.968 178.439 143.026C177.397 136.858 172.846 130.486 167.708 127.998C162.388 125.423 153.785 125.153 149.41 127.423ZM0.349838 158.354C0.349838 173.754 0.488839 179.914 0.657839 172.043C0.826839 164.173 0.826838 151.573 0.656838 144.043C0.487838 136.514 0.348838 142.954 0.349838 158.354ZM153.41 133.36C148.721 135.023 146.341 137.633 144.963 142.623C141.449 155.35 156.638 164.844 166.814 156.281C172.094 151.839 173.203 143.573 169.273 137.961C167.761 135.803 160.689 131.87 158.41 131.92C157.86 131.932 155.61 132.58 153.41 133.36Z" fill="#FDD304"/>
</svg>
