<svg width="270" height="258" viewBox="0 0 270 258" fill="none" xmlns="http://www.w3.org/2000/svg">
<path fill-rule="evenodd" clip-rule="evenodd" d="M126.416 0.233969C122.956 0.494698 115.065 1.48583 113.791 1.81992C111.941 2.30506 111.014 3.40192 111.014 5.10583C111.014 6.11889 111.264 6.74428 111.942 7.42506C112.991 8.47768 113.171 8.47624 122.118 7.34882C128.409 6.55584 141.873 6.55081 148.624 7.33875C172.233 10.0942 193.502 18.95 211.845 33.6612C216.688 37.5452 226.316 47.162 229.996 51.7911C243.446 68.7119 252.047 87.7735 255.546 108.414C256.913 116.481 257.271 122.164 257.053 132.316C256.844 142.038 256.339 146.484 254.436 155.345C253.381 160.263 253.331 161.218 254.072 162.333C254.344 162.743 256.346 163.859 258.52 164.814C261.9 166.298 262.556 166.722 263.036 167.737C264.19 170.179 264.248 170.126 247.005 182.606C238.305 188.903 230.745 194.345 230.204 194.7C228.88 195.568 226.925 195.208 226.1 193.944C225.477 192.989 225.416 192.479 222.793 166.314C222.178 160.182 221.585 154.507 221.475 153.702C221.307 152.472 221.428 152.055 222.234 151.095C223.536 149.541 224.803 149.599 228.68 151.39C232.247 153.036 233.45 153.16 234.775 152.015C235.855 151.083 236.316 149.237 237.311 141.859C238.164 135.539 238.171 122.802 237.327 116.36C234.817 97.2209 227.918 80.6759 215.942 65.0793C212.78 60.9612 204.049 52.1111 199.846 48.7623C182.123 34.6445 161.925 27.0286 139.492 26.0052L134.474 25.7764L133.311 26.7593C132.409 27.521 132.147 28.0234 132.147 28.9926C132.147 32.04 133.267 32.5608 140.386 32.8247C153.213 33.3002 165.605 36.5343 177.817 42.5936C187.911 47.6018 195.454 53.0271 203.274 60.904C217.964 75.7012 226.937 93.434 230.375 114.465C231.028 118.461 231.152 120.724 231.168 128.913C231.186 137.978 230.684 144.582 229.98 144.545C229.856 144.538 228.868 144.22 227.785 143.837C225.371 142.985 224.167 142.954 221.727 143.682C218.005 144.792 214.895 148.876 214.899 152.648C214.9 153.637 215.453 159.868 216.127 166.494C216.801 173.12 217.693 181.94 218.11 186.094C218.962 194.59 219.395 196.335 221.171 198.418C223.809 201.512 228.741 202.674 232.318 201.043C234.592 200.006 267.049 176.336 268.108 174.942C269.906 172.575 270.513 168.781 269.535 166.026C268.418 162.884 266.291 160.823 262.786 159.488C261.844 159.129 260.992 158.702 260.891 158.539C260.791 158.376 261.043 156.504 261.452 154.378C264.702 137.466 264.714 119.597 261.483 103.868C257.084 82.4485 248.061 63.3973 234.448 46.7851C230.611 42.1027 220.919 32.4644 216.397 28.8343C197.847 13.9433 176.532 4.58437 153.639 1.27868C145.757 0.140825 133.763 -0.319496 126.416 0.233969ZM95.2533 6.4217C86.3475 9.37855 85.6143 9.82628 85.5935 12.3203C85.5785 14.1019 86.8436 15.4508 88.5289 15.4508C89.1826 15.4508 91.0033 14.9538 92.5751 14.3461C94.1465 13.7383 97.286 12.6839 99.5516 12.0031C104.5 10.5153 105.087 10.2337 105.601 9.10092C106.267 7.63472 106.065 6.47097 104.952 5.35361C104.2 4.59911 103.569 4.30782 102.713 4.32148C102.058 4.33191 98.7009 5.27701 95.2533 6.4217ZM71.7314 16.8462C66.3528 19.9483 62.9123 22.3442 62.3389 23.3874C61.6945 24.5598 62.0337 26.0055 63.2369 27.2135C64.4801 28.4618 66.2432 28.1902 68.9776 26.3292C70.1314 25.5438 72.8483 23.8787 75.0153 22.6293C77.1824 21.3796 79.1518 20.103 79.3917 19.7919C80.1672 18.7878 79.9466 16.593 78.9716 15.6145C77.5112 14.1479 75.9491 14.4137 71.7314 16.8462ZM39.264 54.667C38.5136 54.8544 37.5465 55.1931 37.1149 55.4201C35.6327 56.2001 4.45084 78.853 3.07752 80.1476C1.14256 81.9716 0.254956 83.8967 0.0540097 86.7054C-0.0899841 88.7207 0.0224882 89.3907 0.778635 91.0209C2.03661 93.7332 3.62627 95.1804 7.12833 96.8012C8.79751 97.5737 10.2131 98.2559 10.274 98.317C10.3349 98.3778 10.0591 99.8954 9.66112 101.689C6.99508 113.705 6.11178 128.461 7.30886 140.992C10.2908 172.216 23.6432 200.085 46.0697 221.895C64.1273 239.456 86.8189 251.239 111.73 255.991C119.438 257.462 125.479 257.979 135.192 257.999C144.269 258.018 147.922 257.758 155.788 256.529C159.714 255.916 160.582 255.465 161.149 253.738C161.486 252.714 161.456 252.287 160.985 251.372C160.027 249.513 159.189 249.348 154.242 250.047C146.632 251.122 143.273 251.353 135.192 251.356C123.927 251.36 115.107 250.266 104.745 247.581C87.7982 243.188 72.5624 235.47 58.3772 224.093C53.7222 220.36 44.1398 210.695 40.3121 205.873C34.1644 198.128 27.7746 187.683 24.1142 179.395C16.8415 162.927 13.4691 147.003 13.4626 129.093C13.459 119.597 14.1203 113.121 15.9968 104.279C17.7298 96.1136 17.786 95.4328 16.8139 94.3942C16.3808 93.9314 14.3083 92.7914 12.209 91.8614C7.70717 89.8676 6.63617 88.9793 6.63617 87.2398C6.63617 85.3359 4.29681 87.2089 29.3456 69.0549C41.2237 60.4466 41.7134 60.2017 43.4868 61.9822C44.4836 62.983 44.4861 62.9956 45.4464 72.6314C45.8508 76.6862 46.5042 83.1595 46.8986 87.0165C48.548 103.147 48.5728 103.509 48.1096 104.615C47.202 106.783 45.7617 106.912 41.8337 105.178C38.5466 103.727 37.6744 103.641 36.4046 104.644C35.2583 105.549 34.9374 106.57 34.0333 112.19C32.1722 123.76 32.1163 133.884 33.8503 145.24C37.1278 166.702 47.966 187.625 63.7784 203.015C82.2877 221.031 107.544 231.75 132.228 232.066L136.858 232.126L137.726 231.117C138.869 229.788 138.875 227.998 137.741 226.673C136.896 225.688 136.822 225.674 131.383 225.432C110.192 224.489 91.2193 217.268 74.478 203.773C70.1665 200.297 62.3625 192.189 59.0202 187.712C54.6377 181.841 52.2557 177.933 49.0463 171.349C45.6485 164.379 43.7414 159.176 42.0934 152.38C39.8884 143.288 39.5653 140.411 39.5595 129.812C39.5545 121.029 40.1309 112.79 40.7785 112.388C40.8992 112.313 41.8821 112.485 42.9627 112.77C47.836 114.056 53.1247 111.1 54.6517 106.236C55.3383 104.049 55.4479 105.644 52.8116 79.4643C51.9054 70.4647 50.9322 62.2781 50.6492 61.2719C49.3633 56.6993 43.8765 53.5162 39.264 54.667ZM92.8824 70.8038C84.5902 73.0547 78.5543 79.1151 76.3765 87.3761C75.5207 90.6221 75.5383 97.8563 76.4094 101.036C77.6534 105.576 80.4484 110.108 83.6073 112.707C85.9786 114.658 90.1691 116.781 93.3147 117.626C95.5273 118.221 97.209 118.39 100.984 118.396C106.822 118.405 110.021 117.665 114.39 115.292L117.282 113.722L117.377 103.966L117.473 94.209H109.587H101.701V97.0655C101.701 100.741 102.045 101.042 106.258 101.042H109.223V105.312V109.583L106.626 110.437C103.098 111.598 97.8434 111.589 94.8095 110.418C90.4793 108.746 87.574 105.819 85.8976 101.439C84.9212 98.8874 84.5583 92.5723 85.216 89.5821C86.8869 81.9857 92.3429 77.6662 100.268 77.6662C103.765 77.6662 106.602 78.4228 109.887 80.231C113.301 82.1112 113.783 81.99 115.891 78.7185L117.517 76.1953L116.549 75.4023C114.57 73.7804 111.259 71.9424 108.934 71.1746C105.429 70.0169 96.5381 69.8116 92.8824 70.8038ZM133.375 70.9631C127.3 73.2313 124.066 77.8482 124.109 84.1905C124.128 86.9514 124.262 87.566 125.304 89.6903C127.217 93.5919 129.78 95.216 138.203 97.8614C142.394 99.1772 143.749 99.9591 144.979 101.77C145.704 102.837 145.802 103.324 145.647 105.101C145.319 108.87 143.135 110.747 138.745 111.033C135.484 111.245 133.093 110.545 129.83 108.421C128.457 107.527 127.082 106.796 126.775 106.796C125.798 106.796 124.799 107.759 123.379 110.067L121.998 112.314L123.401 113.524C125.056 114.952 129.86 117.344 132.147 117.88C137.267 119.08 141.907 118.684 145.938 116.702C148.968 115.212 151.029 113.157 152.624 110.033C153.781 107.767 153.818 107.563 153.818 103.379C153.818 99.5887 153.72 98.8791 153.009 97.5453C151.202 94.1486 148.629 92.4375 141.776 90.0755C136.223 88.1619 134.665 87.3808 133.408 85.8808C132.534 84.8379 132.446 84.4905 132.58 82.628C132.701 80.942 132.926 80.3371 133.753 79.4704C135.287 77.8636 137.377 77.1969 140.354 77.3659C142.452 77.4849 143.349 77.7597 145.775 79.0259C147.374 79.8603 148.967 80.5432 149.314 80.5432C150.105 80.5432 150.711 79.838 152.184 77.2041C153.102 75.5635 153.259 75.0165 152.929 74.6166C152.068 73.5762 149.074 71.9316 146.412 71.0376C142.636 69.7695 136.664 69.7354 133.375 70.9631ZM157.374 70.9516C157.273 71.2145 157.238 72.8735 157.296 74.6378L157.4 77.846L164.474 77.9435L171.548 78.0409V97.9926V117.944H176.026H180.503V97.9926V78.0409L187.578 77.9435L194.652 77.846L194.754 74.1598L194.856 70.4737H176.206C161.025 70.4737 157.522 70.5625 157.374 70.9516ZM115.048 129.637C108.845 130.99 103.548 136.207 101.891 142.594C99.6082 151.393 104.698 160.633 113.461 163.596C116.469 164.614 121.319 164.614 124.327 163.596C131.529 161.161 136.454 154.38 136.441 146.919C136.43 140.213 132.521 133.909 126.621 131.081C122.581 129.144 119.227 128.726 115.048 129.637ZM171.369 129.971C170.778 130.241 154.901 145.932 136.087 164.841L101.88 199.221V201.175C101.88 202.839 102.033 203.289 102.915 204.214C104.091 205.445 105.475 205.866 107.144 205.498C108.047 205.299 115.537 197.975 142.416 171.014C166.242 147.115 176.709 136.382 177.096 135.452C177.994 133.294 177.112 131.045 174.966 130.023C173.523 129.336 172.785 129.325 171.369 129.971ZM115.686 138.651C110.824 140.768 108.832 146.038 111.12 150.732C114.933 158.558 126.245 156.618 127.662 147.897C127.985 145.902 127.125 142.974 125.713 141.263C123.42 138.485 118.819 137.286 115.686 138.651ZM157.673 172.433C151.358 173.81 146.167 178.911 144.516 185.36C142.236 194.267 147.299 203.407 156.187 206.43C158.13 207.091 159.053 207.185 162.316 207.054C165.957 206.907 166.314 206.821 169.169 205.4C175.291 202.355 179.071 196.357 179.071 189.69C179.071 181.483 173.147 174.108 165.198 172.417C162.255 171.79 160.601 171.794 157.673 172.433ZM157.743 181.73C154.534 183.231 152.806 186.042 152.822 189.737C152.843 194.482 156.831 198.488 161.543 198.498C164.622 198.505 167.938 196.341 169.471 193.325C170.357 191.581 170.457 188.14 169.676 186.273C168.32 183.032 165.071 180.886 161.519 180.886C160.203 180.886 158.949 181.166 157.743 181.73ZM202.13 231.552C200.923 232.32 198.544 233.79 196.844 234.817C195.143 235.845 193.511 237.031 193.217 237.453C192.361 238.679 192.555 240.146 193.729 241.324C195.313 242.914 196.516 242.74 200.546 240.338C208.376 235.672 209.338 234.651 208.286 232.124C207.289 229.729 205.283 229.543 202.13 231.552ZM180.145 242.936C178.471 243.626 174.822 244.922 172.038 245.816C169.254 246.709 166.708 247.737 166.381 248.1C166.054 248.462 165.693 249.338 165.579 250.046C165.401 251.146 165.529 251.491 166.462 252.428C167.926 253.898 168.951 253.85 174.419 252.057C182.728 249.333 186.186 247.828 186.778 246.679C187.528 245.223 187.438 244.003 186.503 242.922C185.247 241.471 183.693 241.474 180.145 242.936Z" fill="#5BBDBC"/>
<path fill-rule="evenodd" clip-rule="evenodd" d="M92.8824 70.8038C84.5902 73.0547 78.5543 79.1151 76.3765 87.3761C75.5207 90.6221 75.5383 97.8563 76.4094 101.036C77.6534 105.576 80.4484 110.108 83.6073 112.707C85.9786 114.658 90.1691 116.781 93.3147 117.626C95.5273 118.221 97.209 118.39 100.984 118.396C106.822 118.405 110.021 117.665 114.39 115.292L117.282 113.722L117.377 103.966L117.473 94.209H109.587H101.701V97.0655C101.701 100.741 102.045 101.042 106.258 101.042H109.223V105.312V109.583L106.626 110.437C103.098 111.598 97.8434 111.589 94.8095 110.418C90.4793 108.746 87.574 105.819 85.8976 101.439C84.9212 98.8874 84.5583 92.5723 85.216 89.5821C86.8869 81.9857 92.3429 77.6662 100.268 77.6662C103.765 77.6662 106.602 78.4228 109.887 80.231C113.301 82.1112 113.783 81.99 115.891 78.7185L117.517 76.1953L116.549 75.4023C114.57 73.7804 111.259 71.9424 108.934 71.1746C105.429 70.0169 96.5381 69.8116 92.8824 70.8038ZM133.375 70.9631C127.3 73.2313 124.066 77.8482 124.109 84.1905C124.128 86.9514 124.262 87.566 125.304 89.6903C127.217 93.5919 129.78 95.216 138.203 97.8614C142.394 99.1772 143.749 99.9591 144.979 101.77C145.704 102.837 145.802 103.324 145.647 105.101C145.319 108.87 143.135 110.747 138.745 111.033C135.484 111.245 133.093 110.545 129.83 108.421C128.457 107.527 127.082 106.796 126.775 106.796C125.798 106.796 124.799 107.759 123.379 110.067L121.998 112.314L123.401 113.524C125.056 114.952 129.86 117.344 132.147 117.88C137.267 119.08 141.907 118.684 145.938 116.702C148.968 115.212 151.029 113.157 152.624 110.033C153.781 107.767 153.818 107.563 153.818 103.379C153.818 99.5887 153.72 98.8791 153.009 97.5453C151.202 94.1486 148.629 92.4375 141.776 90.0755C136.223 88.1619 134.665 87.3808 133.408 85.8808C132.534 84.8379 132.446 84.4905 132.58 82.628C132.701 80.942 132.926 80.3371 133.753 79.4704C135.287 77.8636 137.377 77.1969 140.354 77.3659C142.452 77.4849 143.349 77.7597 145.775 79.0259C147.374 79.8603 148.967 80.5432 149.314 80.5432C150.105 80.5432 150.711 79.838 152.184 77.2041C153.102 75.5635 153.259 75.0165 152.929 74.6166C152.068 73.5762 149.074 71.9316 146.412 71.0376C142.636 69.7695 136.664 69.7353 133.375 70.9631ZM157.374 70.9516C157.273 71.2145 157.238 72.8735 157.296 74.6378L157.4 77.846L164.474 77.9435L171.548 78.0409V97.9926V117.944H176.026H180.503V97.9926V78.0409L187.578 77.9435L194.652 77.846L194.754 74.1598L194.856 70.4737H176.206C161.025 70.4737 157.522 70.5625 157.374 70.9516ZM115.048 129.637C108.845 130.99 103.548 136.207 101.891 142.594C99.6082 151.393 104.698 160.633 113.461 163.596C116.469 164.614 121.319 164.614 124.327 163.596C131.529 161.161 136.454 154.38 136.441 146.919C136.43 140.213 132.521 133.909 126.621 131.081C122.581 129.144 119.227 128.726 115.048 129.637ZM171.369 129.971C170.778 130.241 154.901 145.932 136.087 164.841L101.88 199.221V201.175C101.88 202.839 102.033 203.289 102.915 204.214C104.091 205.445 105.475 205.866 107.144 205.498C108.047 205.299 115.537 197.975 142.416 171.014C166.241 147.115 176.709 136.382 177.096 135.452C177.994 133.294 177.112 131.045 174.966 130.023C173.523 129.336 172.785 129.325 171.369 129.971ZM115.686 138.651C110.824 140.768 108.832 146.038 111.12 150.732C114.933 158.558 126.245 156.618 127.662 147.897C127.985 145.902 127.125 142.974 125.713 141.263C123.42 138.485 118.819 137.286 115.686 138.651ZM157.673 172.433C151.358 173.81 146.167 178.911 144.516 185.36C142.236 194.267 147.299 203.407 156.187 206.43C158.13 207.091 159.053 207.185 162.316 207.054C165.957 206.907 166.313 206.821 169.169 205.4C175.291 202.355 179.071 196.357 179.071 189.69C179.071 181.483 173.147 174.108 165.198 172.417C162.255 171.79 160.601 171.794 157.673 172.433ZM157.743 181.73C154.534 183.231 152.806 186.042 152.822 189.737C152.843 194.482 156.831 198.488 161.543 198.498C164.622 198.505 167.938 196.341 169.471 193.325C170.357 191.581 170.457 188.14 169.676 186.273C168.32 183.032 165.071 180.886 161.519 180.886C160.203 180.886 158.949 181.166 157.743 181.73Z" fill="#FDD304"/>
</svg>
