<svg width="205" height="247" viewBox="0 0 205 247" fill="none" xmlns="http://www.w3.org/2000/svg">
<path fill-rule="evenodd" clip-rule="evenodd" d="M10.2227 0.97458C6.40157 2.46121 3.56295 5.10225 1.67037 8.9315L0 12.3106V107.397V202.484L1.7716 205.943C3.06184 208.462 4.2311 209.919 6.07407 211.306C10.1715 214.389 11.8282 214.733 22.5692 214.733H32.0504L32.223 224.742L32.3951 234.751L34.1667 238.208C35.4564 240.725 36.6267 242.183 38.4691 243.569C43.3623 247.251 37.3996 246.996 118.769 246.996C191.538 246.996 192.074 246.989 194.843 245.957C198.388 244.636 201.865 241.306 203.643 237.529L205 234.645V139.61V44.5738L203.33 41.1947C201.409 37.3095 198.569 34.6987 194.646 33.2146C192.443 32.3813 190.732 32.2442 182.516 32.2442H172.95L172.777 22.2754L172.605 12.3065L170.935 8.92948C169.014 5.0463 166.172 2.43499 162.251 0.951391C159.762 0.00920402 157.537 -0.0185223 86.1704 0.00466687C15.4904 0.0273519 12.5607 0.0646562 10.2227 0.97458ZM12.6037 12.2813L10.8827 13.9953V107.357V200.719L12.6037 202.433L14.3247 204.147H86.3025H158.28L160.001 202.433L161.722 200.719V107.357V13.9953L160.001 12.2813L158.28 10.5673H86.3025H14.3247L12.6037 12.2813ZM172.739 122.606L172.605 202.382L171.248 205.266C169.47 209.043 165.993 212.373 162.448 213.694C159.691 214.721 158.994 214.733 101.468 214.733H43.2778V223.857V232.982L44.9988 234.696L46.7198 236.41H118.698H190.675L192.396 234.696L194.117 232.982V139.62V46.2585L192.396 44.5445L190.675 42.8306H181.774H172.873L172.739 122.606ZM58.2392 57.9343L48.5926 67.4933L44.5204 63.5153C39.281 58.3971 37.0002 57.7901 34.0497 60.7286C32.4492 62.3226 32.0352 64.2987 32.8881 66.2718C33.6934 68.1345 45.6269 79.8748 47.2087 80.3603C47.8394 80.5538 49.0932 80.4696 49.9947 80.1732C52.2487 79.4322 74.4985 57.2648 75.0837 55.1768C76.0823 51.6162 73.6314 48.3758 69.9399 48.3758C67.9507 48.3758 67.5842 48.6752 58.2392 57.9343ZM88.7766 65.2636C85.9724 66.7815 85.6201 71.2852 88.1222 73.6268L89.4205 74.8417L112.66 74.9824C138.651 75.1397 138.326 75.179 139.781 71.7122C140.718 69.478 140.338 67.8346 138.451 65.9552L136.998 64.5074L113.548 64.5276C94.2818 64.5442 89.8629 64.6753 88.7766 65.2636ZM67.321 92.1832C66.4858 92.708 61.9434 97.0071 57.2269 101.736L48.6508 110.334L44.5376 106.401C41.9967 103.972 39.8566 102.356 38.9404 102.173C35.5217 101.494 31.8276 105.196 32.5115 108.617C32.8628 110.373 43.2727 121.272 45.9919 122.73C49.3853 124.55 50.0154 124.119 63.1613 110.986C75.028 99.1299 75.5002 98.533 75.2067 95.7624C74.9531 93.3699 72.49 91.2234 70.0037 91.2274C69.3634 91.2284 68.1562 91.6584 67.321 92.1832ZM88.0235 109.071C86.7843 110.305 86.3025 111.236 86.3025 112.396C86.3025 114.412 87.614 116.679 89.1937 117.396C90.0046 117.764 97.994 117.943 113.591 117.943C135.884 117.943 136.832 117.905 138.049 116.952C141.072 114.583 140.925 110.254 137.753 108.328C136.244 107.411 134.941 107.361 112.952 107.359L89.7444 107.357L88.0235 109.071ZM68.5895 134.453C67.8013 134.596 63.7591 138.204 57.8373 144.05L48.3476 153.418L44.1028 149.292C40.1977 145.496 39.6936 145.165 37.8 145.165C34.2203 145.165 31.7704 148.449 32.7155 151.98C32.9787 152.965 35.4189 155.765 39.6354 159.92C45.6279 165.825 46.2991 166.338 48.0287 166.338C49.0623 166.338 50.5231 166.017 51.2753 165.624C52.027 165.231 57.6784 159.843 63.834 153.651C75.7331 141.681 76.2438 140.949 74.91 137.769C73.8936 135.347 71.2666 133.969 68.5895 134.453ZM89.499 150.945C87.8124 151.675 86.3025 153.946 86.3025 155.752C86.3025 156.334 86.6593 157.497 87.0951 158.337C88.6 161.235 89.1558 161.297 113.417 161.297C137.965 161.297 138.117 161.278 139.665 158.031C140.104 157.109 140.463 156.084 140.463 155.752C140.463 155.42 140.104 154.394 139.665 153.472C138.115 150.221 137.982 150.205 113.306 150.226C95.5406 150.242 90.7892 150.386 89.499 150.945Z" fill="#5BBDBC"/>
<path fill-rule="evenodd" clip-rule="evenodd" d="M58.2392 57.9343L48.5926 67.4933L44.5204 63.5153C39.281 58.3971 37.0002 57.7901 34.0497 60.7286C32.4492 62.3226 32.0352 64.2987 32.8881 66.2718C33.6934 68.1345 45.6269 79.8748 47.2087 80.3603C47.8394 80.5538 49.0932 80.4697 49.9947 80.1732C52.2487 79.4322 74.4985 57.2648 75.0837 55.1768C76.0823 51.6162 73.6314 48.3758 69.9399 48.3758C67.9507 48.3758 67.5842 48.6752 58.2392 57.9343ZM88.7766 65.2636C85.9724 66.7815 85.6201 71.2852 88.1222 73.6268L89.4205 74.8417L112.66 74.9824C138.651 75.1397 138.326 75.179 139.781 71.7122C140.718 69.478 140.338 67.8346 138.451 65.9552L136.998 64.5074L113.548 64.5276C94.2818 64.5442 89.8629 64.6753 88.7766 65.2636ZM67.321 92.1832C66.4858 92.708 61.9434 97.0071 57.2269 101.736L48.6508 110.334L44.5376 106.401C41.9967 103.972 39.8566 102.356 38.9404 102.173C35.5217 101.494 31.8276 105.196 32.5115 108.617C32.8628 110.373 43.2727 121.272 45.9919 122.73C49.3853 124.55 50.0154 124.119 63.1613 110.986C75.028 99.1299 75.5002 98.533 75.2066 95.7624C74.9531 93.3699 72.49 91.2234 70.0037 91.2274C69.3634 91.2284 68.1562 91.6584 67.321 92.1832ZM88.0235 109.071C86.7843 110.305 86.3025 111.236 86.3025 112.396C86.3025 114.412 87.614 116.679 89.1937 117.396C90.0046 117.764 97.994 117.943 113.591 117.943C135.884 117.943 136.832 117.905 138.049 116.952C141.072 114.583 140.925 110.254 137.753 108.328C136.244 107.411 134.941 107.361 112.952 107.359L89.7444 107.357L88.0235 109.071ZM68.5895 134.453C67.8013 134.596 63.7591 138.204 57.8373 144.05L48.3476 153.418L44.1028 149.292C40.1977 145.496 39.6936 145.165 37.8 145.165C34.2203 145.165 31.7704 148.449 32.7155 151.98C32.9787 152.965 35.4189 155.765 39.6354 159.92C45.6279 165.825 46.2991 166.338 48.0287 166.338C49.0623 166.338 50.5231 166.017 51.2753 165.624C52.027 165.231 57.6784 159.843 63.834 153.651C75.7331 141.681 76.2438 140.949 74.91 137.769C73.8936 135.347 71.2666 133.969 68.5895 134.453ZM89.499 150.945C87.8124 151.675 86.3025 153.946 86.3025 155.752C86.3025 156.334 86.6593 157.497 87.0951 158.337C88.6 161.235 89.1558 161.297 113.417 161.297C137.965 161.297 138.117 161.278 139.665 158.031C140.104 157.109 140.463 156.084 140.463 155.752C140.463 155.42 140.104 154.394 139.665 153.472C138.115 150.221 137.982 150.205 113.306 150.226C95.5406 150.242 90.7892 150.386 89.499 150.945Z" fill="#FDD304"/>
</svg>
