<svg width="72" height="73" viewBox="0 0 72 73" fill="none" xmlns="http://www.w3.org/2000/svg">
<path d="M40.7681 31.612H41.52L41.5181 30.8601L41.5112 28.0887L41.5093 27.3406H40.7612H37.8737V25.7245V24.9745H37.1237H34.3523H33.6023V25.7245V27.7925C32.6277 28.2227 31.8014 28.9394 31.2376 29.8535C30.5758 30.9264 30.3192 32.2005 30.5141 33.446C30.709 34.6914 31.3425 35.8263 32.3004 36.6458C33.2583 37.4652 34.4774 37.9155 35.738 37.9152C35.738 37.9152 35.7381 37.9152 35.7381 37.9152H35.7857C36.0549 37.9155 36.313 38.0225 36.5034 38.2127C36.6936 38.4027 36.8008 38.6604 36.8015 38.9292C36.8015 38.9295 36.8015 38.9297 36.8015 38.93L36.8015 39.3712C36.8013 39.6406 36.6941 39.8988 36.5037 40.0892C36.3133 40.2797 36.0551 40.3868 35.7857 40.387H30.8949H30.1449V41.137V43.9084V44.6584H30.8949H33.6092V46.472V47.222H34.3592H37.1306H37.8806V46.472V44.2222C38.7379 43.8532 39.4857 43.2623 40.0443 42.5062C40.7149 41.5985 41.0778 40.5002 41.0799 39.3716V39.3702V38.9268V38.926C41.0783 37.5247 40.5208 36.1814 39.5298 35.1908C38.5388 34.2001 37.1952 33.6432 35.794 33.6421H35.7934H35.7449C35.4757 33.6421 35.2175 33.5351 35.0272 33.3448C34.8368 33.1544 34.7299 32.8962 34.7299 32.627C34.7299 32.3578 34.8368 32.0997 35.0272 31.9093C35.2175 31.7189 35.4757 31.612 35.7449 31.612H40.7681ZM27.5752 24.3391C29.9934 22.7237 32.8363 21.8616 35.7444 21.8618C39.6426 21.8667 43.3798 23.4176 46.1361 26.1742C48.8925 28.9309 50.4429 32.6684 50.4473 36.5668C50.4471 39.4747 49.5847 42.3174 47.9691 44.7352C46.3533 47.1534 44.0567 49.038 41.3698 50.1509C38.6829 51.2638 35.7263 51.5549 32.8739 50.9874C30.0216 50.4199 27.4016 49.0193 25.3452 46.9627C23.2889 44.9061 21.8886 42.286 21.3214 39.4335C20.7542 36.5811 21.0457 33.6246 22.1588 30.9378C23.272 28.251 25.1569 25.9546 27.5752 24.3391Z" stroke="#058FA2" stroke-width="1.5"/>
<path d="M61.0448 61.4829L60.52 62.0191L61.0564 62.5437L62.553 64.0073L62.5539 64.0082C62.6811 64.1321 62.7686 64.2909 62.8054 64.4646C62.8423 64.6382 62.8268 64.8189 62.7609 64.9837C62.6951 65.1485 62.5818 65.2901 62.4355 65.3906L62.8599 66.0089L62.4355 65.3906C62.2891 65.491 62.1163 65.5458 61.9388 65.548L56.0691 65.6173C55.8316 65.6201 55.6027 65.5286 55.4326 65.3629C55.2624 65.1971 55.1649 64.9707 55.1614 64.7332L55.0783 58.8636C55.0758 58.686 55.1261 58.5117 55.2227 58.3627C55.3194 58.2137 55.4581 58.0968 55.6212 58.0267C55.7844 57.9566 55.9647 57.9364 56.1393 57.9688C56.3139 58.0013 56.4749 58.0848 56.602 58.2088L56.6024 58.2091L58.8195 60.3691L59.3553 60.891L59.8786 60.3568C64.4716 55.6687 67.6159 49.7562 68.9351 43.3271C70.2544 36.8981 69.6926 30.2251 67.317 24.1071L67.3168 24.1066C60.587 6.81281 41.223 -1.89508 23.8657 4.42765L23.2784 2.91858C41.4596 -3.72675 61.7722 5.3972 68.8235 23.519C71.3118 29.9254 71.9014 36.9131 70.5219 43.6459C69.1424 50.3786 65.8521 56.5713 61.0448 61.4829Z" stroke="#058FA2" stroke-width="1.5"/>
<path d="M48.1638 68.1893L48.7495 69.6958C41.3242 72.4154 33.1982 72.596 25.6485 70.1965C17.8607 67.7214 11.157 62.6506 6.65608 55.8301C2.15515 49.0097 0.129125 40.852 0.916043 32.7182C1.70296 24.5845 5.25523 16.9665 10.9802 11.1354L11.5076 10.5982L10.9684 10.0728L9.21373 8.36315L9.21375 8.36313L9.20894 8.35853C9.07969 8.23481 8.99037 8.07527 8.95247 7.9004C8.91457 7.72554 8.92982 7.54333 8.99625 7.3772C9.06269 7.21107 9.17727 7.06859 9.32529 6.96807C9.47331 6.86755 9.648 6.81358 9.82693 6.81309L9.82693 6.81312L9.83373 6.81304L15.7039 6.74376L15.7054 6.74374C15.8229 6.74212 15.9395 6.76367 16.0486 6.80716C16.1577 6.85064 16.2572 6.91521 16.3414 6.99717C16.4255 7.07913 16.4927 7.17688 16.539 7.28482C16.5854 7.39276 16.61 7.50877 16.6115 7.62623L16.6115 7.62744L16.6946 13.4975C16.6946 13.4975 16.6946 13.4976 16.6946 13.4976C16.6971 13.6752 16.6468 13.8494 16.5502 13.9983C16.4535 14.1473 16.3148 14.2643 16.1517 14.3344C15.9885 14.4045 15.8082 14.4246 15.6336 14.3922C15.459 14.3598 15.298 14.2763 15.1709 14.1523L15.1693 14.1508L13.2051 12.2454L12.6699 11.7263L12.1476 12.2585C8.283 16.1965 5.43222 21.0139 3.84018 26.2967C2.24815 31.5796 1.96246 37.17 3.00766 42.5876C4.05286 48.0052 6.39771 53.0881 9.84074 57.3996C13.2834 61.7106 17.7211 65.1214 22.7726 67.3392C26.8673 69.1567 31.2817 70.1442 35.7606 70.2445C39.9892 70.3392 44.1959 69.6413 48.1638 68.1893Z" stroke="#058FA2" stroke-width="1.5"/>
</svg>
