<svg width="72" height="72" viewBox="0 0 72 72" fill="none" xmlns="http://www.w3.org/2000/svg">
<path d="M52.875 68.0625H19.125C17.2637 68.0625 15.75 66.5488 15.75 64.6875V7.3125C15.75 5.45119 17.2637 3.9375 19.125 3.9375H52.875C54.7363 3.9375 56.25 5.45119 56.25 7.3125V64.6875C56.25 66.5488 54.7363 68.0625 52.875 68.0625ZM19.125 6.1875C18.5046 6.1875 18 6.69206 18 7.3125V64.6875C18 65.3079 18.5046 65.8125 19.125 65.8125H52.875C53.4954 65.8125 54 65.3079 54 64.6875V7.3125C54 6.69206 53.4954 6.1875 52.875 6.1875H19.125Z" fill="#058FA2"/>
<path d="M55.125 34.875H16.875V37.125H55.125V34.875Z" fill="#058FA2"/>
<path d="M50.625 48.375C50.004 48.375 49.5 47.871 49.5 47.25V41.625C49.5 41.004 50.004 40.5 50.625 40.5C51.246 40.5 51.75 41.004 51.75 41.625V47.25C51.75 47.871 51.246 48.375 50.625 48.375Z" fill="#058FA2"/>
<path d="M36 28.125C35.379 28.125 34.875 27.621 34.875 27V12.375C34.875 11.754 35.379 11.25 36 11.25C36.621 11.25 37.125 11.754 37.125 12.375V27C37.125 27.621 36.621 28.125 36 28.125Z" fill="#058FA2"/>
<path d="M42.3334 24.4685C42.1427 24.4685 41.9492 24.4202 41.772 24.3178L29.1056 17.0053C28.5673 16.6942 28.3834 16.0068 28.6939 15.4685C29.0049 14.9308 29.6906 14.7457 30.2306 15.0568L42.897 22.3693C43.4353 22.6803 43.6192 23.3677 43.3087 23.906C43.1001 24.2672 42.7221 24.4685 42.3334 24.4685Z" fill="#058FA2"/>
<path d="M29.6692 24.4685C29.2806 24.4685 28.9026 24.2672 28.6939 23.906C28.3834 23.3677 28.5673 22.6798 29.1056 22.3693L41.772 15.0568C42.3109 14.7457 42.9977 14.9308 43.3087 15.4685C43.6192 16.0068 43.4353 16.6948 42.897 17.0053L30.2306 24.3178C30.0534 24.4202 29.8599 24.4685 29.6692 24.4685Z" fill="#058FA2"/>
</svg>
