<svg width="30" height="30" viewBox="0 0 30 30" fill="none" xmlns="http://www.w3.org/2000/svg">
<path d="M22.4732 29.1987C22.5707 29.53 22.3819 29.8763 22.0494 29.9738C21.9907 29.9913 21.9319 30 21.8732 30C21.6019 30 21.3532 29.8238 21.2744 29.5513C20.4857 26.8713 17.9057 25 14.9982 25C12.0907 25 9.51066 26.8713 8.72191 29.5513C8.62566 29.8838 8.27566 30.0712 7.94691 29.975C7.61441 29.8775 7.42566 29.5313 7.52316 29.2C8.46566 25.9913 11.5394 23.7512 14.9969 23.7512C18.4544 23.7512 21.5294 25.9913 22.4707 29.2L22.4732 29.1987ZM29.9732 17.9487C29.0307 14.74 25.9569 12.5 22.4994 12.5C22.1544 12.5 21.8744 12.78 21.8744 13.125C21.8744 13.47 22.1544 13.75 22.4994 13.75C25.4057 13.75 27.9869 15.6213 28.7757 18.3013C28.8544 18.575 29.1044 18.75 29.3744 18.75C29.4332 18.75 29.4919 18.7413 29.5507 18.7238C29.8832 18.6263 30.0707 18.28 29.9732 17.9487ZM8.12441 13.125C8.12441 12.78 7.84441 12.5 7.49941 12.5C4.04066 12.5 0.96691 14.74 0.0256601 17.9487C-0.0718399 18.28 0.11691 18.6263 0.44941 18.7238C0.50816 18.7413 0.56691 18.75 0.62566 18.75C0.89691 18.75 1.14566 18.5738 1.22441 18.3013C2.01316 15.6213 4.59316 13.75 7.50066 13.75C7.84566 13.75 8.12441 13.47 8.12441 13.125ZM14.9994 11.25C17.7569 11.25 19.9994 13.4925 19.9994 16.25C19.9994 19.0075 17.7569 21.25 14.9994 21.25C12.2419 21.25 9.99941 19.0075 9.99941 16.25C9.99941 13.4925 12.2419 11.25 14.9994 11.25ZM11.2494 16.25C11.2494 18.3175 12.9319 20 14.9994 20C17.0669 20 18.7494 18.3175 18.7494 16.25C18.7494 14.1825 17.0669 12.5 14.9994 12.5C12.9319 12.5 11.2494 14.1825 11.2494 16.25ZM17.4994 5C17.4994 2.2425 19.7419 0 22.4994 0C25.2569 0 27.4994 2.2425 27.4994 5C27.4994 7.7575 25.2569 10 22.4994 10C19.7419 10 17.4994 7.7575 17.4994 5ZM18.7494 5C18.7494 7.0675 20.4319 8.75 22.4994 8.75C24.5669 8.75 26.2494 7.0675 26.2494 5C26.2494 2.9325 24.5669 1.25 22.4994 1.25C20.4319 1.25 18.7494 2.9325 18.7494 5ZM2.49941 5C2.49941 2.2425 4.74191 0 7.49941 0C10.2569 0 12.4994 2.2425 12.4994 5C12.4994 7.7575 10.2569 10 7.49941 10C4.74191 10 2.49941 7.7575 2.49941 5ZM3.74941 5C3.74941 7.0675 5.43191 8.75 7.49941 8.75C9.56691 8.75 11.2494 7.0675 11.2494 5C11.2494 2.9325 9.56691 1.25 7.49941 1.25C5.43191 1.25 3.74941 2.9325 3.74941 5Z" fill="#058FA2"/>
</svg>
