<svg width="64" height="64" viewBox="0 0 64 64" fill="none" xmlns="http://www.w3.org/2000/svg">
<path d="M57.5 48.5001L33.1 35.5001H33V33.7001C34.8 32.9001 36 31.2001 36 29.1001C36 26.3001 33.8 24.1001 31 24.1001C28.2 24.1001 26 26.3001 26 29.1001H28C28 27.4001 29.3 26.1001 31 26.1001C32.7 26.1001 34 27.4001 34 29.1001C34 30.8001 32.7 32.1001 31 32.1001V33.1001V34.1001V35.5001H30.9L6.5 48.5001C4.3 49.7001 3 51.9001 3 54.4001C3 58.0001 6 61.0001 9.6 61.0001H54.3C58 61.0001 60.9 58.0001 60.9 54.4001C61 51.9001 59.7 49.7001 57.5 48.5001ZM54.4 59.0001H9.6C7.1 59.0001 5 56.9001 5 54.4001C5 52.7001 5.9 51.1001 7.4 50.3001L31.8 37.2001C31.9 37.2001 31.9 37.2001 32 37.2001C32.1 37.2001 32.1 37.2001 32.2 37.2001L56.6 50.3001C58.1 51.1001 59 52.7001 59 54.4001C59 56.9001 56.9 59.0001 54.4 59.0001Z" fill="#058FA2"/>
</svg>
