<svg width="80" height="77" viewBox="0 0 80 77" fill="none" xmlns="http://www.w3.org/2000/svg">
<g clip-path="url(#clip0_792_1455)">
<path fill-rule="evenodd" clip-rule="evenodd" d="M64.3614 30.7047L62.3042 32.3809L59.6757 27.4285L54.209 17.238L56.7423 16.4761C58.4458 15.9868 60.2617 16.7368 61.1233 18.2857L62.628 21.1238L65.2757 26.0571C66.0881 27.6305 65.7093 29.5563 64.3614 30.7047Z" stroke="#43AFAD" stroke-width="2.5"/>
<path d="M17.1432 60.3997L21.7718 57.9235L22.1908 57.6949L32.9146 51.9806L33.3337 51.7521L35.3527 50.6663L37.4289 49.5235L25.5051 27.2949L23.486 28.3806L5.25747 38.0949C5.25747 38.0949 -4.99015 56.6473 17.1432 60.3997ZM38.4765 72.4949C36.6537 73.5615 34.3255 73.1412 32.9908 71.5044L21.8098 57.9235L22.2289 57.6949L32.9527 51.9806L42.9337 64.133C43.7427 65.106 44.0804 66.3868 43.8563 67.6321C43.6322 68.8775 42.8692 69.9603 41.7718 70.5902L38.4765 72.4949Z" fill="white" stroke="#43AFAD" stroke-width="2.5" stroke-linecap="round" stroke-linejoin="round"/>
<path d="M69.163 45.714C58.456 43.4184 47.2892 44.759 37.4297 49.5235L25.5059 27.295C34.9978 21.8092 42.3754 13.2981 46.4582 3.12354L62.6868 33.4854L69.163 45.714Z" fill="white" stroke="#43AFAD" stroke-width="2.5" stroke-linecap="round" stroke-linejoin="round"/>
<path d="M67.01 7.96143L65.9434 11.7709M75.791 14.8948L72.3434 16.7995M77.1053 25.9805L73.2957 24.9138" stroke="#43AFAD" stroke-width="2.5" stroke-linecap="round" stroke-linejoin="round"/>
</g>
<defs>
<clipPath id="clip0_792_1455">
<rect width="80" height="76.1905" fill="white"/>
</clipPath>
</defs>
</svg>
