<svg width="72" height="72" viewBox="0 0 72 72" fill="none" xmlns="http://www.w3.org/2000/svg">
<path d="M25.9992 12.2002C39.0992 12.2002 49.8992 22.9002 49.7992 36.1002C49.7992 49.2002 39.0992 59.9002 25.9992 59.9002C12.8992 59.9002 2.19922 49.2002 2.19922 36.0002C2.19922 22.8002 12.8992 12.2002 25.9992 12.2002ZM40.3992 52.0002C40.2992 51.9002 40.2992 51.9002 40.1992 51.8002C36.3992 48.0002 32.4992 44.1002 28.5992 40.3002C28.3992 40.1002 28.0992 40.0002 27.7992 40.0002C21.9992 40.0002 16.0992 40.0002 10.2992 40.0002C9.29922 40.0002 8.89922 39.6002 8.89922 38.6002C8.89922 37.1002 8.89922 35.6002 8.89922 34.0002C8.89922 33.0002 9.29922 32.6002 10.2992 32.6002C13.5992 32.6002 16.8992 32.6002 20.1992 32.6002C20.3992 32.6002 20.5992 32.6002 20.7992 32.6002C17.0992 28.9002 13.4992 25.3002 9.89922 21.7002C3.09922 29.0002 1.99922 41.8002 10.0992 50.6002C18.4992 59.7002 31.9992 59.6002 40.3992 52.0002ZM41.9992 50.3002C49.2992 42.4002 49.6992 29.4002 41.2992 20.8002C32.8992 12.3002 19.6992 12.5002 11.5992 20.0002C11.6992 20.1002 11.7992 20.2002 11.8992 20.3002C15.8992 24.3002 19.8992 28.3002 23.8992 32.2002C24.0992 32.4002 24.3992 32.5002 24.6992 32.5002C29.5992 32.5002 34.4992 32.5002 39.3992 32.5002C40.3992 32.5002 40.7992 32.9002 40.7992 33.9002C40.7992 35.4002 40.7992 36.9002 40.7992 38.4002C40.7992 39.5002 40.3992 39.9002 39.2992 39.9002C36.8992 39.9002 34.5992 39.9002 32.1992 39.9002C31.9992 39.9002 31.8992 39.9002 31.6992 39.9002C35.1992 43.4002 38.5992 46.9002 41.9992 50.3002ZM26.0992 37.7002C25.1992 36.8002 24.3992 36.0002 23.5992 35.2002C23.2992 34.9002 23.0992 34.8002 22.6992 34.8002C19.0992 34.8002 15.3992 34.8002 11.7992 34.8002C11.5992 34.8002 11.3992 34.8002 11.1992 34.8002C11.1992 35.8002 11.1992 36.7002 11.1992 37.6002C16.1992 37.7002 21.0992 37.7002 26.0992 37.7002ZM26.5992 34.9002C26.5992 35.0002 26.5992 35.0002 26.6992 35.1002C27.4992 35.9002 28.2992 36.8002 29.1992 37.6002C29.2992 37.7002 29.3992 37.8002 29.4992 37.8002C30.7992 37.8002 32.0992 37.8002 33.3992 37.8002C33.3992 36.8002 33.3992 35.9002 33.3992 35.0002C31.0992 34.9002 28.7992 34.9002 26.5992 34.9002ZM38.3992 34.9002C37.3992 34.9002 36.4992 34.9002 35.5992 34.9002C35.5992 35.8002 35.5992 36.8002 35.5992 37.7002C36.4992 37.7002 37.4992 37.7002 38.3992 37.7002C38.3992 36.7002 38.3992 35.8002 38.3992 34.9002Z" fill="#058FA2"/>
<path d="M25.9992 12.2002C39.0992 12.2002 49.8992 22.9002 49.7992 36.1002C49.7992 49.2002 39.0992 59.9002 25.9992 59.9002C12.8992 59.9002 2.19922 49.2002 2.19922 36.0002C2.19922 22.8002 12.8992 12.2002 25.9992 12.2002ZM40.3992 52.0002C40.2992 51.9002 40.2992 51.9002 40.1992 51.8002C36.3992 48.0002 32.4992 44.1002 28.5992 40.3002C28.3992 40.1002 28.0992 40.0002 27.7992 40.0002C21.9992 40.0002 16.0992 40.0002 10.2992 40.0002C9.29922 40.0002 8.89922 39.6002 8.89922 38.6002C8.89922 37.1002 8.89922 35.6002 8.89922 34.0002C8.89922 33.0002 9.29922 32.6002 10.2992 32.6002C13.5992 32.6002 16.8992 32.6002 20.1992 32.6002C20.3992 32.6002 20.5992 32.6002 20.7992 32.6002C17.0992 28.9002 13.4992 25.3002 9.89922 21.7002C3.09922 29.0002 1.99922 41.8002 10.0992 50.6002C18.4992 59.7002 31.9992 59.6002 40.3992 52.0002ZM41.9992 50.3002C49.2992 42.4002 49.6992 29.4002 41.2992 20.8002C32.8992 12.3002 19.6992 12.5002 11.5992 20.0002C11.6992 20.1002 11.7992 20.2002 11.8992 20.3002C15.8992 24.3002 19.8992 28.3002 23.8992 32.2002C24.0992 32.4002 24.3992 32.5002 24.6992 32.5002C29.5992 32.5002 34.4992 32.5002 39.3992 32.5002C40.3992 32.5002 40.7992 32.9002 40.7992 33.9002C40.7992 35.4002 40.7992 36.9002 40.7992 38.4002C40.7992 39.5002 40.3992 39.9002 39.2992 39.9002C36.8992 39.9002 34.5992 39.9002 32.1992 39.9002C31.9992 39.9002 31.8992 39.9002 31.6992 39.9002C35.1992 43.4002 38.5992 46.9002 41.9992 50.3002ZM26.0992 37.7002C25.1992 36.8002 24.3992 36.0002 23.5992 35.2002C23.2992 34.9002 23.0992 34.8002 22.6992 34.8002C19.0992 34.8002 15.3992 34.8002 11.7992 34.8002C11.5992 34.8002 11.3992 34.8002 11.1992 34.8002C11.1992 35.8002 11.1992 36.7002 11.1992 37.6002C16.1992 37.7002 21.0992 37.7002 26.0992 37.7002ZM26.5992 34.9002C26.5992 35.0002 26.5992 35.0002 26.6992 35.1002C27.4992 35.9002 28.2992 36.8002 29.1992 37.6002C29.2992 37.7002 29.3992 37.8002 29.4992 37.8002C30.7992 37.8002 32.0992 37.8002 33.3992 37.8002C33.3992 36.8002 33.3992 35.9002 33.3992 35.0002C31.0992 34.9002 28.7992 34.9002 26.5992 34.9002ZM38.3992 34.9002C37.3992 34.9002 36.4992 34.9002 35.5992 34.9002C35.5992 35.8002 35.5992 36.8002 35.5992 37.7002C36.4992 37.7002 37.4992 37.7002 38.3992 37.7002C38.3992 36.7002 38.3992 35.8002 38.3992 34.9002Z" fill="#058FA2"/>
<path d="M34.1001 31.4C33.3001 31.4 32.7001 30.6 33.1001 29.9C33.5001 29.1 33.3001 28.4 33.2001 27.6C33.0001 26.8 32.8001 26.1 32.7001 25.3C32.6001 24.5 32.7001 23.8 33.1001 23.1C33.5001 22.4 34.1001 22.1 34.7001 22.4C35.3001 22.7 35.4001 23.3 35.1001 24.1C34.9001 24.6 35.0001 25.2 35.1001 25.7C35.2001 26.6 35.5001 27.6 35.7001 28.5C35.8001 29.2 35.7001 30 35.3001 30.7C35.0001 31.2 34.6001 31.5 34.1001 31.4Z" fill="#058FA2"/>
<path d="M38.8984 31.6004C37.9984 31.5004 37.3984 30.6004 37.7984 30.0004C38.1984 29.3004 37.9984 28.6004 37.8984 27.8004C37.6984 26.8004 37.3984 25.9004 37.3984 24.9004C37.3984 24.3004 37.5984 23.6004 37.7984 23.1004C38.0984 22.4004 38.7984 22.3004 39.3984 22.6004C39.9984 22.9004 40.0984 23.6004 39.7984 24.2004C39.4984 24.9004 39.6984 25.5004 39.7984 26.2004C39.9984 27.2004 40.2984 28.2004 40.2984 29.3004C40.2984 29.9004 40.0984 30.5004 39.7984 31.0004C39.6984 31.2004 39.1984 31.3004 38.8984 31.6004Z" fill="#058FA2"/>
<path d="M25.9992 12.2002C39.0992 12.2002 49.8992 22.9002 49.7992 36.1002C49.7992 49.2002 39.0992 59.9002 25.9992 59.9002C12.8992 59.9002 2.19922 49.2002 2.19922 36.0002C2.19922 22.8002 12.8992 12.2002 25.9992 12.2002ZM28.4992 40.1002L20.8992 32.6002C17.1992 28.9002 13.5992 25.3002 9.99922 21.7002C3.09922 29.0002 1.99922 41.8002 10.0992 50.6002C18.4992 59.7002 31.9992 59.7002 40.2992 52.0002C40.1992 51.9002 40.1992 51.9002 40.0992 51.8002C36.2992 48.0002 32.3992 44.1002 28.4992 40.3002V40.1002ZM31.6992 40.0002C35.0992 43.5002 38.5992 46.9002 41.9992 50.3002C49.2992 42.4002 49.6992 29.4002 41.2992 20.8002C32.8992 12.3002 19.6992 12.5002 11.5992 20.0002C11.6992 20.1002 11.7992 20.2002 11.8992 20.3002C15.8992 24.3002 19.8992 28.3002 23.8992 32.2002L31.6992 40.0002ZM26.5992 34.9002C26.5992 35.0002 26.5992 35.0002 26.6992 35.1002C27.4992 35.9002 28.2992 36.8002 29.1992 37.6002C29.2992 37.7002 29.3992 37.8002 29.4992 37.8002" fill="#058FA2"/>
</svg>
