<svg width="30" height="30" viewBox="0 0 30 30" fill="none" xmlns="http://www.w3.org/2000/svg">
<g clip-path="url(#clip0_1678_2471)">
<path d="M15.0393 8.70512C15.3632 9.01074 15.891 9.35387 16.678 9.44762C16.5566 10.012 16.6405 10.6336 16.9298 11.1398C17.293 11.7759 17.9235 12.1401 18.6585 12.1401H21.0318C21.7082 12.1401 22.5135 12.3614 22.5135 13.4132V14.6231H23.3971V13.4132C23.3971 12.0834 22.491 11.257 21.0318 11.257H18.658C18.1255 11.257 17.8415 10.9551 17.6966 10.7015C17.4463 10.2637 17.4435 9.66559 17.6891 9.2484C17.7301 9.17939 17.7514 9.10052 17.7508 9.02029C17.7502 8.94006 17.7278 8.86151 17.6859 8.79309C17.644 8.72467 17.5842 8.66897 17.513 8.632C17.4418 8.59502 17.3619 8.57816 17.2818 8.58324C16.6115 8.62356 16.0476 8.44215 15.6449 8.06293C15.4738 7.90251 15.3371 7.70896 15.2431 7.49404C15.1492 7.27912 15.0999 7.04733 15.0984 6.81277C15.0984 6.19965 15.4565 5.05309 16.7929 5.01465V6.05293H17.6765V5.8734C18.9248 5.89871 19.8248 6.7373 19.8248 7.88856C19.8248 8.35402 19.633 8.89543 19.3138 9.33652C19.2657 9.40236 19.2368 9.48023 19.2303 9.5615C19.2238 9.64276 19.24 9.72424 19.277 9.79688C19.314 9.86953 19.3704 9.93049 19.44 9.97302C19.5095 10.0155 19.5895 10.038 19.671 10.0378H21.074C22.9016 10.0378 23.8879 11.5631 23.8879 12.9989V14.6245H24.772V12.9989C24.772 11.1089 23.3882 9.15418 21.0735 9.15418H20.4285C20.6095 8.7384 20.7074 8.30152 20.7074 7.88856C20.7074 6.25309 19.4076 5.01652 17.6755 4.99027V3.86621H16.7915V4.13105C15.0998 4.16621 14.2129 5.49605 14.2129 6.81324C14.2151 7.16814 14.2893 7.5189 14.4312 7.8442C14.5732 8.16951 14.7797 8.46257 15.0384 8.70559L15.0393 8.70512Z" fill="white"/>
<path d="M22.5137 15.0586H23.3973V17.7281H22.5137V15.0586Z" fill="white"/>
<path d="M23.8945 15.0586H24.7777V17.7281H23.8945V15.0586Z" fill="white"/>
<path d="M15.2765 2.28453C12.6536 2.28222 10.0979 3.11353 7.97833 4.65844L7.03357 5.34705L7.86025 6.17369L17.4954 15.8084L17.7883 16.1012H18.2025H21.0205V16.7389H20.8397H18.4253L20.1326 18.4461L23.8278 22.1407L24.6556 22.9685L25.3438 22.0215C26.4194 20.5414 27.1785 18.8162 27.5177 16.9465L27.7173 17.147V14.7258C27.7173 7.8647 22.137 2.28475 15.2765 2.28453ZM15.2765 2.28453C15.2764 2.28453 15.2762 2.28453 15.2761 2.28453V3.28453L15.277 2.28453C15.2768 2.28453 15.2767 2.28453 15.2765 2.28453ZM8.56734 5.46656L9.27443 4.75944L9.41811 4.9031C9.12712 5.07756 8.84321 5.26549 8.56734 5.46656ZM8.56734 5.46656L9.15636 6.27468C9.19869 6.24383 9.24122 6.21332 9.28396 6.18315L8.56734 5.46656ZM2.83687 17.1349L2.83484 14.7262C2.83267 12.1329 3.6452 9.60449 5.1577 7.498L5.84448 6.54152L6.67711 7.37414L13.6966 14.3937L15.4037 16.1008H12.9895H6.53266V16.7384H15.6272H16.0414L16.3343 17.0313L22.6268 23.3233L23.4597 24.1562L22.5027 24.8429C20.396 26.3546 17.8679 27.1669 15.275 27.1652M2.83687 17.1349L15.2756 26.1652M2.83687 17.1349L3.03262 16.9395M2.83687 17.1349L3.03262 16.9395M15.275 27.1652L15.2756 26.1652M15.275 27.1652C15.2752 27.1652 15.2755 27.1652 15.2758 27.1652L15.2756 26.1652M15.275 27.1652C9.17087 27.1657 4.07994 22.7475 3.03262 16.9395M15.2756 26.1652C10.3793 26.1659 6.19079 23.0736 4.56173 18.7384H4.53266V18.6602C4.22905 17.8339 4.01821 16.9631 3.91281 16.0606L3.03262 16.9395M29.0009 14.7253V14.7253C29.0009 22.2922 22.8431 28.4502 15.2756 28.4502C7.70869 28.4502 1.55078 22.2922 1.55078 14.7253C1.55078 7.15787 7.70826 1 15.2756 1H15.2761C22.8435 1 29.0014 7.15791 29.0009 14.7253Z" stroke="white" stroke-width="2"/>
</g>
<defs>
<clipPath id="clip0_1678_2471">
<rect width="30" height="30" fill="white"/>
</clipPath>
</defs>
</svg>
