<svg width="30" height="30" viewBox="0 0 30 30" fill="none" xmlns="http://www.w3.org/2000/svg">
<g clip-path="url(#clip0_1678_2478)">
<path d="M20.0794 13.1215H20.9507C21.5666 13.1232 22.1768 13.0027 22.7459 12.7669C23.315 12.5312 23.8316 12.1848 24.2659 11.748L29.0618 6.91406L27.7598 5.60156L22.8626 10.4988L21.8448 9.48105L26.7421 4.5832L25.3944 3.27598L20.5153 8.15449L19.5005 7.13672L24.3977 2.23887L23.0852 0.9375L18.2513 5.7334C17.8144 6.16779 17.4681 6.68454 17.2323 7.25371C16.9966 7.82287 16.8761 8.43316 16.8778 9.04922V9.91992L14.3507 12.4471L2.8118 0.9375C0.217269 4.15254 1.7495 10.0611 4.67039 12.9826L9.68016 17.9924C11.2358 19.548 11.5446 19.6869 13.3095 18.9768C13.6897 18.8238 13.828 18.8408 14.1825 19.1947L14.9442 19.9055C15.1159 20.0812 15.12 20.1328 15.12 20.4691V20.7938C15.12 22.0289 15.9098 22.7391 16.4302 23.2687L22.4993 29.0625L26.7181 24.8438L17.5522 15.6486L20.0794 13.1215Z" fill="white"/>
<path d="M13.3225 20.7768C11.5752 21.1348 10.5035 21.4646 8.45449 19.4156C8.42168 19.3828 8.3877 19.3512 8.35488 19.3184L7.2123 18.1758L0.9375 24.375L5.625 29.0625L14.0625 20.625L13.3225 20.7768Z" fill="white"/>
</g>
<defs>
<clipPath id="clip0_1678_2478">
<rect width="30" height="30" fill="white"/>
</clipPath>
</defs>
</svg>
