<svg width="72" height="72" viewBox="0 0 72 72" fill="none" xmlns="http://www.w3.org/2000/svg">
<g clip-path="url(#clip0_1229_2348)">
<path d="M17.6608 46.0462C15.0274 46.8978 11.773 44.1277 10.391 39.8602C9.00899 35.5927 10.3986 31.8356 13.032 30.9824" stroke="#058FA2" stroke-width="2.5" stroke-linecap="round" stroke-linejoin="round"/>
<path d="M48.5512 11.2085L0.769531 26.672L2.58961 32.2938L33.921 28.363L52.1899 22.4491L48.5512 11.2085Z" stroke="#058FA2" stroke-width="2.5" stroke-linecap="round" stroke-linejoin="round"/>
<path d="M13.0352 30.9827L17.8868 45.9727L55.8315 33.6914L52.1928 22.4492L33.9237 28.3632L13.0352 30.9827Z" stroke="#058FA2" stroke-width="2.5" stroke-linecap="round" stroke-linejoin="round"/>
<path d="M38.6094 39.9247L45.3243 37.5942L46.9076 47.5773L43.2182 48.8594L38.6094 39.9247Z" stroke="#058FA2" stroke-width="2.5" stroke-linecap="round" stroke-linejoin="round"/>
<path d="M46.5132 55.7172C48.6476 55.7172 50.3779 53.9869 50.3779 51.8525C50.3779 49.7181 48.6476 47.9878 46.5132 47.9878C44.3787 47.9878 42.6484 49.7181 42.6484 51.8525C42.6484 53.9869 44.3787 55.7172 46.5132 55.7172Z" stroke="#058FA2" stroke-width="2.5" stroke-linecap="round" stroke-linejoin="round"/>
<path d="M49.7109 50.04H66.621V54.6519H49.7109" stroke="#058FA2" stroke-width="2.5" stroke-linecap="round" stroke-linejoin="round"/>
<path d="M71.2329 42.354H66.6211V60.8014H71.2329V42.354Z" stroke="#058FA2" stroke-width="2.5" stroke-linecap="round" stroke-linejoin="round"/>
</g>
<defs>
<clipPath id="clip0_1229_2348">
<rect width="72" height="72" fill="white"/>
</clipPath>
</defs>
</svg>
