<svg width="72" height="72" viewBox="0 0 72 72" fill="none" xmlns="http://www.w3.org/2000/svg">
<path d="M59.8516 42.4123V20.9248C59.8516 19.4623 58.9516 18.2248 57.6016 17.7748V12.8248C58.9516 12.3748 59.8516 11.1373 59.8516 9.6748C59.8516 7.7623 58.3891 6.2998 56.4766 6.2998C54.5641 6.2998 53.1016 7.7623 53.1016 9.6748C53.1016 11.1373 54.0016 12.3748 55.3516 12.8248V17.7748C54.0016 18.2248 53.1016 19.4623 53.1016 20.9248V42.2998H19.3516V20.9248C19.3516 19.4623 18.4516 18.2248 17.1016 17.7748V12.8248C18.4516 12.3748 19.3516 11.1373 19.3516 9.6748C19.3516 7.7623 17.8891 6.2998 15.9766 6.2998C14.0641 6.2998 12.6016 7.7623 12.6016 9.6748C12.6016 11.1373 13.5016 12.3748 14.8516 12.8248V17.7748C13.5016 18.2248 12.6016 19.4623 12.6016 20.9248V42.4123C7.53906 42.9748 3.60156 47.2498 3.60156 52.4248V59.1748C3.60156 59.8498 4.05156 60.2998 4.72656 60.2998H6.97656V63.6748C6.97656 64.3498 7.42656 64.7998 8.10156 64.7998H64.3516C65.0266 64.7998 65.4766 64.3498 65.4766 63.6748V60.2998H67.7266C68.4016 60.2998 68.8516 59.8498 68.8516 59.1748V52.4248C68.8516 47.2498 64.9141 42.9748 59.8516 42.4123ZM56.4766 8.5498C57.1516 8.5498 57.6016 8.9998 57.6016 9.6748C57.6016 10.3498 57.1516 10.7998 56.4766 10.7998C55.8016 10.7998 55.3516 10.3498 55.3516 9.6748C55.3516 8.9998 55.8016 8.5498 56.4766 8.5498ZM55.3516 20.9248C55.3516 20.2498 55.8016 19.7998 56.4766 19.7998C57.1516 19.7998 57.6016 20.2498 57.6016 20.9248V42.2998H55.3516V20.9248ZM15.9766 8.5498C16.6516 8.5498 17.1016 8.9998 17.1016 9.6748C17.1016 10.3498 16.6516 10.7998 15.9766 10.7998C15.3016 10.7998 14.8516 10.3498 14.8516 9.6748C14.8516 8.9998 15.3016 8.5498 15.9766 8.5498ZM14.8516 20.9248C14.8516 20.2498 15.3016 19.7998 15.9766 19.7998C16.6516 19.7998 17.1016 20.2498 17.1016 20.9248V42.2998H14.8516V20.9248ZM63.2266 62.5498H9.22656V60.2998H63.2266V62.5498ZM66.6016 58.0498H64.3516H8.10156H5.85156V52.4248C5.85156 48.0373 9.33906 44.5498 13.7266 44.5498H18.2266H54.2266H58.7266C63.1141 44.5498 66.6016 48.0373 66.6016 52.4248V58.0498Z" fill="#058FA2"/>
<path d="M15.9766 47.9248C14.0641 47.9248 12.6016 49.3873 12.6016 51.2998C12.6016 53.2123 14.0641 54.6748 15.9766 54.6748C17.8891 54.6748 19.3516 53.2123 19.3516 51.2998C19.3516 49.3873 17.8891 47.9248 15.9766 47.9248ZM15.9766 52.4248C15.3016 52.4248 14.8516 51.9748 14.8516 51.2998C14.8516 50.6248 15.3016 50.1748 15.9766 50.1748C16.6516 50.1748 17.1016 50.6248 17.1016 51.2998C17.1016 51.9748 16.6516 52.4248 15.9766 52.4248Z" fill="#058FA2"/>
<path d="M26.1016 47.9248C24.1891 47.9248 22.7266 49.3873 22.7266 51.2998C22.7266 53.2123 24.1891 54.6748 26.1016 54.6748C28.0141 54.6748 29.4766 53.2123 29.4766 51.2998C29.4766 49.3873 28.0141 47.9248 26.1016 47.9248ZM26.1016 52.4248C25.4266 52.4248 24.9766 51.9748 24.9766 51.2998C24.9766 50.6248 25.4266 50.1748 26.1016 50.1748C26.7766 50.1748 27.2266 50.6248 27.2266 51.2998C27.2266 51.9748 26.7766 52.4248 26.1016 52.4248Z" fill="#058FA2"/>
<path d="M36.2266 47.9248C34.3141 47.9248 32.8516 49.3873 32.8516 51.2998C32.8516 53.2123 34.3141 54.6748 36.2266 54.6748C38.1391 54.6748 39.6016 53.2123 39.6016 51.2998C39.6016 49.3873 38.1391 47.9248 36.2266 47.9248ZM36.2266 52.4248C35.5516 52.4248 35.1016 51.9748 35.1016 51.2998C35.1016 50.6248 35.5516 50.1748 36.2266 50.1748C36.9016 50.1748 37.3516 50.6248 37.3516 51.2998C37.3516 51.9748 36.9016 52.4248 36.2266 52.4248Z" fill="#058FA2"/>
<path d="M46.3516 47.9248C44.4391 47.9248 42.9766 49.3873 42.9766 51.2998C42.9766 53.2123 44.4391 54.6748 46.3516 54.6748C48.2641 54.6748 49.7266 53.2123 49.7266 51.2998C49.7266 49.3873 48.2641 47.9248 46.3516 47.9248ZM46.3516 52.4248C45.6766 52.4248 45.2266 51.9748 45.2266 51.2998C45.2266 50.6248 45.6766 50.1748 46.3516 50.1748C47.0266 50.1748 47.4766 50.6248 47.4766 51.2998C47.4766 51.9748 47.0266 52.4248 46.3516 52.4248Z" fill="#058FA2"/>
<path d="M56.4766 47.9248C54.5641 47.9248 53.1016 49.3873 53.1016 51.2998C53.1016 53.2123 54.5641 54.6748 56.4766 54.6748C58.3891 54.6748 59.8516 53.2123 59.8516 51.2998C59.8516 49.3873 58.3891 47.9248 56.4766 47.9248ZM56.4766 52.4248C55.8016 52.4248 55.3516 51.9748 55.3516 51.2998C55.3516 50.6248 55.8016 50.1748 56.4766 50.1748C57.1516 50.1748 57.6016 50.6248 57.6016 51.2998C57.6016 51.9748 57.1516 52.4248 56.4766 52.4248Z" fill="#058FA2"/>
<path d="M32.8516 35.5498C32.8516 37.4623 34.3141 38.9248 36.2266 38.9248C38.1391 38.9248 39.6016 37.4623 39.6016 35.5498C39.6016 33.6373 38.1391 32.1748 36.2266 32.1748C34.3141 32.1748 32.8516 33.6373 32.8516 35.5498ZM37.3516 35.5498C37.3516 36.2248 36.9016 36.6748 36.2266 36.6748C35.5516 36.6748 35.1016 36.2248 35.1016 35.5498C35.1016 34.8748 35.5516 34.4248 36.2266 34.4248C36.9016 34.4248 37.3516 34.8748 37.3516 35.5498Z" fill="#058FA2"/>
<path d="M40.8398 31.7248C41.1773 31.7248 41.4023 31.6123 41.6273 31.3873C42.0773 30.9373 42.0773 30.2623 41.6273 29.8123C40.1648 28.4623 38.2523 27.6748 36.3398 27.6748C34.4273 27.6748 32.4023 28.4623 31.0523 29.8123C30.6023 30.2623 30.6023 30.9373 31.0523 31.3873C31.5023 31.8373 32.1773 31.8373 32.6273 31.3873C33.6398 30.3748 34.9898 29.9248 36.4523 29.9248C37.9148 29.9248 39.2648 30.4873 40.2773 31.3873C40.2773 31.6123 40.5023 31.7248 40.8398 31.7248Z" fill="#058FA2"/>
<path d="M43.8781 28.4623C44.2156 28.4623 44.4406 28.3498 44.6656 28.1248C45.1156 27.6748 45.1156 26.9998 44.5531 26.5498C42.3031 24.2998 39.3781 23.1748 36.2281 23.1748C33.0781 23.1748 30.1531 24.2998 27.7906 26.4373C27.3406 26.8873 27.3406 27.5623 27.6781 28.0123C28.1281 28.4623 28.8031 28.4623 29.2531 28.1248C31.1656 26.4373 33.5281 25.4248 36.1156 25.4248C38.7031 25.4248 41.0656 26.4373 42.9781 28.1248C43.3156 28.3498 43.5406 28.4623 43.8781 28.4623Z" fill="#058FA2"/>
<path d="M26.3257 24.8621C29.0257 22.3871 32.5132 20.9246 36.2257 20.9246C39.9382 20.9246 43.4257 22.2746 46.1257 24.8621C46.3507 25.0871 46.5757 25.1996 46.9132 25.1996C47.2507 25.1996 47.4757 25.0871 47.7007 24.8621C48.1507 24.4121 48.1507 23.7371 47.5882 23.2871C44.4382 20.3621 40.3882 18.7871 36.1132 18.7871C31.8382 18.7871 27.7882 20.3621 24.6382 23.2871C24.1882 23.7371 24.1882 24.4121 24.5257 24.8621C25.2007 25.1996 25.8757 25.1996 26.3257 24.8621Z" fill="#058FA2"/>
</svg>
