<svg width="322" height="256" viewBox="0 0 322 256" fill="none" xmlns="http://www.w3.org/2000/svg">
<path fill-rule="evenodd" clip-rule="evenodd" d="M16.994 0.616744C9.779 2.83174 4.15899 7.66874 1.55299 13.9077C0.180994 17.1927 0 30.4467 0 127.69C0 224.933 0.180994 238.187 1.55299 241.472C3.52299 246.188 7.395 250.277 12.5 253.032L16.5 255.19H161H305.5L309.5 253.032C314.605 250.277 318.477 246.188 320.447 241.472C321.819 238.187 322 224.933 322 127.69C322 30.4467 321.819 17.1927 320.447 13.9077C318.477 9.19174 314.605 5.10275 309.5 2.34775L305.5 0.189742L162.5 0.0187369C83.85 -0.0752631 18.372 0.193744 16.994 0.616744ZM15.42 11.5757C8.624 15.7197 9 8.92075 9 127.69C9 246.459 8.624 239.66 15.42 243.804C18.395 245.619 23.341 245.683 160.882 245.686C301.893 245.69 303.295 245.671 306.526 243.674C313.393 239.43 313 246.465 313 127.69C313 8.91474 313.393 15.9497 306.526 11.7057C303.295 9.70875 301.893 9.68974 160.882 9.69374C23.341 9.69674 18.395 9.76074 15.42 11.5757ZM43.898 43.9597C36.798 48.7027 37.003 46.7647 37.003 109.19C37.003 171.615 36.798 169.677 43.898 174.42L47.296 176.69H161H274.704L278.102 174.42C285.202 169.677 284.997 171.615 284.997 109.19C284.997 46.7647 285.202 48.7027 278.102 43.9597L274.704 41.6897H161H47.296L43.898 43.9597ZM48.75 51.7697C47.116 52.7217 47 56.5308 47 109.205C47 163.957 47.057 165.65 48.934 166.655C51.625 168.095 270.375 168.095 273.066 166.655C274.943 165.65 275 163.957 275 109.19C275 54.4227 274.943 52.7297 273.066 51.7247C270.402 50.2997 51.199 50.3437 48.75 51.7697ZM148.105 61.2727C123.438 67.9057 107.232 93.7877 112.362 118.358C114.55 128.84 118.499 136.212 125.988 143.8C135.893 153.834 147.311 158.69 161 158.69C174.698 158.69 185.761 153.955 196.015 143.703C203.678 136.044 207.454 128.998 209.637 118.293C214.693 93.5037 198.338 67.7017 173.465 61.2227C166.192 59.3287 155.254 59.3497 148.105 61.2727ZM154.186 69.7867C141.613 71.9277 130.265 80.6917 124.609 92.6277C121.775 98.6097 121.5 100.074 121.5 109.19C121.5 118.372 121.763 119.744 124.709 125.965C139.353 156.88 182.656 156.859 197.307 125.931C200.24 119.739 200.499 118.376 200.487 109.19C200.475 100.466 200.133 98.4597 197.803 93.4637C189.682 76.0497 172.421 66.6807 154.186 69.7867ZM143.589 86.7667L141 89.8428V109.251V128.658L143.784 131.774C148.344 136.878 151.231 136.228 168.52 126.209C186.948 115.531 188 114.612 188 109.19C188 103.745 186.836 102.724 168.664 92.2337C151.424 82.2817 147.992 81.5337 143.589 86.7667ZM150 108.617C150 118.889 150.369 124.69 151.021 124.69C151.583 124.69 158.092 121.228 165.485 116.997L178.928 109.305L170.214 104.212C165.421 101.41 158.913 97.6387 155.75 95.8307L150 92.5427V108.617ZM81.557 185.737C76.222 188.398 73.415 191.2 70.92 196.356L68.822 200.69H55.133C44.363 200.69 40.971 201.022 39.223 202.247C36.524 204.137 36.369 206.809 38.829 209.035C40.349 210.411 43.045 210.69 54.815 210.69H68.973L70.54 214.44C74.01 222.748 81.565 227.703 90.71 227.668C100.368 227.631 107.976 222.781 111.46 214.44L113.027 210.69H197.358C277.788 210.69 281.767 210.605 283.345 208.861C285.613 206.355 285.42 204.097 282.777 202.247C280.809 200.868 270.993 200.69 196.867 200.69H113.178L111.011 196.213C108.63 191.294 104.249 187.12 99.282 185.038C94.614 183.082 86.215 183.413 81.557 185.737ZM86.02 194.442C81.896 196.514 78 201.935 78 205.603C78 211.865 84.78 218.69 91 218.69C98.014 218.69 104.823 210.888 103.581 204.273C102.753 199.854 99.478 195.787 95.364 194.069C91.121 192.296 90.219 192.332 86.02 194.442Z" fill="#62B8B7"/>
<path fill-rule="evenodd" clip-rule="evenodd" d="M148.105 61.2727C123.438 67.9057 107.232 93.7877 112.362 118.358C114.55 128.84 118.499 136.212 125.988 143.8C135.893 153.834 147.311 158.69 161 158.69C174.698 158.69 185.761 153.955 196.015 143.703C203.678 136.044 207.454 128.998 209.637 118.293C214.693 93.5037 198.338 67.7017 173.465 61.2227C166.192 59.3287 155.254 59.3497 148.105 61.2727ZM154.186 69.7867C141.613 71.9277 130.265 80.6917 124.609 92.6277C121.775 98.6097 121.5 100.074 121.5 109.19C121.5 118.372 121.763 119.744 124.709 125.965C139.353 156.88 182.656 156.859 197.307 125.931C200.24 119.739 200.499 118.376 200.487 109.19C200.475 100.466 200.133 98.4597 197.803 93.4637C189.682 76.0497 172.421 66.6807 154.186 69.7867ZM143.589 86.7667L141 89.8428V109.251V128.658L143.784 131.774C148.344 136.878 151.231 136.228 168.52 126.209C186.948 115.531 188 114.612 188 109.19C188 103.745 186.836 102.724 168.664 92.2337C151.424 82.2817 147.992 81.5337 143.589 86.7667ZM150 108.617C150 118.889 150.369 124.69 151.021 124.69C151.583 124.69 158.092 121.228 165.485 116.997L178.928 109.305L170.214 104.212C165.421 101.41 158.913 97.6387 155.75 95.8307L150 92.5427V108.617ZM81.557 185.737C76.222 188.398 73.415 191.2 70.92 196.356L68.822 200.69H55.133C44.363 200.69 40.971 201.022 39.223 202.247C36.524 204.137 36.369 206.809 38.829 209.035C40.349 210.411 43.045 210.69 54.815 210.69H68.973L70.54 214.44C74.01 222.748 81.565 227.703 90.71 227.668C100.368 227.631 107.976 222.781 111.46 214.44L113.027 210.69H197.358C277.788 210.69 281.767 210.605 283.345 208.861C285.613 206.355 285.42 204.097 282.777 202.247C280.809 200.868 270.993 200.69 196.867 200.69H113.178L111.011 196.213C108.63 191.294 104.249 187.12 99.282 185.038C94.614 183.082 86.215 183.413 81.557 185.737ZM86.02 194.442C81.896 196.514 78 201.935 78 205.603C78 211.865 84.78 218.69 91 218.69C98.014 218.69 104.823 210.888 103.581 204.273C102.753 199.854 99.478 195.787 95.364 194.069C91.121 192.296 90.219 192.332 86.02 194.442Z" fill="#FDD304"/>
</svg>
