<svg width="345" height="246" viewBox="0 0 345 246" fill="none" xmlns="http://www.w3.org/2000/svg">
<path fill-rule="evenodd" clip-rule="evenodd" d="M99.4154 0.300655C69.4568 3.03335 44.3526 25.6173 38.0084 55.5423C37.3982 58.4193 36.893 64.7867 36.885 69.6916C36.8553 88.9977 44.0575 106.053 57.8733 119.393C67.5829 128.768 76.3735 133.642 89.6954 137.037C120.54 144.898 153.866 129.509 167.944 100.905C172.657 91.3319 174.792 83.4152 175.356 73.4266C177.763 30.7957 142.054 -3.5899 99.4154 0.300655ZM93.4015 8.63505C81.0114 11.3557 71.609 16.6343 62.0943 26.2115C56.0299 32.3152 54.2281 34.7584 51.0929 41.1283C46.4478 50.5652 44.8818 56.2623 44.3125 65.7882C41.0763 119.956 103.705 151.774 145.8 117.348C161.605 104.421 170.723 80.9897 167.64 61.2249C165.412 46.9473 159.632 35.5418 149.533 25.4923C140.403 16.4081 130.869 11.1713 118.809 8.615C112.196 7.21337 99.8299 7.223 93.4015 8.63505ZM97.6217 18.6509C76.3527 22.5246 59.7264 38.8751 55.71 59.8642C54.2081 67.7159 54.2049 71.4565 55.6955 79.248C58.6359 94.6154 69.5851 108.956 83.3785 115.507C92.1539 119.674 97.3226 120.877 106.231 120.827C136.87 120.654 160.398 94.346 157.095 63.956C155.77 51.7704 151.037 42.1089 141.969 33.0825C132.473 23.632 122.117 19.0101 108.93 18.3406C104.8 18.1305 99.7113 18.27 97.6217 18.6509ZM92.8386 27.4415C77.7014 32.2815 64.831 47.0836 62.864 61.9153L62.3236 65.9855H66.8091C70.423 65.9855 71.4558 66.287 72.1245 67.5363C74.045 71.1245 71.9377 73.2021 66.3793 73.2021H62.3236L62.8295 77.0109C64.2544 87.7508 72.1566 99.825 81.9985 106.302C86.8753 109.512 93.493 112.108 98.8453 112.91L102.623 113.476V109.004C102.623 105.402 102.925 104.369 104.174 103.7C107.735 101.794 109.839 103.89 109.839 109.342C109.839 113.912 110.046 113.988 117.302 112.098C133.562 107.864 147.145 93.0502 149.476 77.0109L150.03 73.2021H145.731C141.118 73.2021 139.508 72.2688 139.508 69.5938C139.508 66.9189 141.118 65.9855 145.731 65.9855H150.03L149.48 62.1767C147.788 50.4481 139.345 38.1133 128.767 31.9143C123.775 28.9883 115.262 25.8932 112.209 25.8932C109.91 25.8932 109.839 26.0095 109.839 29.7781C109.839 34.7311 107.752 37.0846 104.624 35.6597C102.842 34.8474 102.623 34.2629 102.623 30.3202V25.8932L100.017 25.9365C98.5839 25.9597 95.3532 26.6373 92.8386 27.4415ZM105.028 41.7401C102.878 42.5098 102.648 43.7808 102.635 54.9601L102.623 65.9855H95.4342C89.1477 65.9855 88.1414 66.1803 87.4158 67.5363C86.2884 69.6435 86.3685 70.4646 87.8455 71.9424C89.5695 73.6656 107.547 73.7955 108.959 72.094C109.592 71.3322 109.81 66.6751 109.658 57.1564C109.455 44.3268 109.322 43.254 107.835 42.3182C106.953 41.7633 105.69 41.5035 105.028 41.7401ZM218.955 56.5638C218.568 57.5557 217.312 60.5778 216.165 63.2793C213.56 69.415 213.54 72.6857 216.076 78.1343C218.555 83.4601 218.556 84.0655 216.092 89.3601C213.507 94.9129 213.431 98.668 215.884 99.5941C217.991 100.39 220.391 99.3656 221.014 97.4058C221.25 96.6625 222.312 94.0253 223.374 91.5444C225.864 85.7278 225.814 82.0072 223.161 75.7568L221.012 70.6947L223.159 66.3175C225.44 61.6668 225.927 57.3063 224.343 55.7219C222.727 54.1053 219.73 54.5736 218.955 56.5638ZM247.413 56.0194C246.72 56.7129 246.153 57.8059 246.153 58.4497C246.153 59.0928 245.251 61.7622 244.149 64.3818C241.645 70.3291 241.647 72.5013 244.157 77.8921C246.636 83.2188 246.635 84.0944 244.149 89.7169C241.612 95.4525 241.602 97.6673 244.105 99.3078C246.804 101.075 248.401 99.9846 250.161 95.1751C250.952 93.0125 252.2 89.6416 252.934 87.6835C254.425 83.7071 254.206 82.1419 251.225 75.4633L249.191 70.9088L251.199 66.5235C254.09 60.2106 254.522 57.6303 252.954 56.0619C251.306 54.4141 249.037 54.3964 247.413 56.0194ZM276.081 55.762C274.805 57.7682 271.634 65.6656 270.833 68.8313C270.106 71.7059 270.296 72.7539 272.491 77.9763L274.968 83.8747L272.589 89.2976C269.697 95.8847 269.624 97.6392 272.17 99.3078C275.007 101.167 276.543 99.9285 278.825 93.9475C282.703 83.7825 282.762 83.2958 280.698 78.6242C277.859 72.1974 277.787 70.4879 280.136 65.2526C281.291 62.6787 282.236 59.8321 282.236 58.926C282.236 55.6786 277.637 53.3139 276.081 55.762ZM199.37 113.157C198.199 114.451 198.042 117.374 198.042 138.015V161.405H176.477C157.124 161.405 154.389 161.57 149.815 163.013C138.024 166.732 129.886 177.469 129.886 189.307V192.863L126.746 190.164C124.075 187.868 123.597 186.971 123.539 184.154C123.476 181.137 122.99 180.391 118.04 175.735C110.673 168.805 93.1449 159.428 84.2813 157.675C73.6713 155.576 60.8963 157.362 52.9083 162.061C50.9237 163.229 47.9008 164.825 46.1896 165.608C40.9079 168.027 32.4604 174.022 28.9123 177.871C26.178 180.838 25.5734 182.038 25.7538 184.136C25.9478 186.383 25.2959 187.414 20.9186 191.791C14.9505 197.759 11.5932 204.204 12.2715 208.388L12.715 211.12H7.25117C3.37745 211.12 1.49632 211.469 0.790698 212.319C-0.726396 214.147 0.0946949 227.602 1.93974 231.166C4.8729 236.828 8.76346 240.684 14.2521 243.369L19.6317 246H171.582H323.531L328.268 244.091C333.656 241.919 338.943 237.088 341.671 231.843C343.986 227.392 344.902 213.686 342.991 212.1C342.138 211.392 332.945 211.082 308.293 210.928L274.755 210.719L278.237 208.313C280.152 206.99 283.616 203.61 285.935 200.803C289.601 196.366 291.042 195.303 296.973 192.676C306.258 188.562 313.973 183.274 319.84 177.003C333.722 162.162 335.792 141.359 324.487 130.293C319.45 125.362 314.576 123.532 305.289 123.081L297.471 122.702V118.158C297.471 115.66 297.038 113.182 296.509 112.653C295.783 111.926 283.939 111.691 248.122 111.691C203.195 111.691 200.627 111.768 199.37 113.157ZM206.061 140.156V161.405H215.938C230.3 161.405 236.545 163.604 243.243 171.018C244.945 172.902 247.274 176.471 248.418 178.95C250.244 182.903 250.538 184.736 250.809 193.88C251.043 201.792 250.823 205.151 249.896 207.817L248.674 211.33L252.754 210.846C268.383 208.995 282.386 197.791 287.99 182.654C289.686 178.071 289.784 176.449 290.066 148.375L290.361 118.907H248.211H206.061V140.156ZM298.073 130.585C297.742 130.925 297.471 132.325 297.471 133.697V136.192H303.306C310.075 136.192 313.568 137.772 316.591 142.204C318.218 144.59 318.426 145.678 318.117 150.179C317.445 159.933 311.828 168.336 301.372 175.229C298.272 177.273 296.686 178.906 296.322 180.431C296.031 181.654 295.597 183.309 295.358 184.109C294.961 185.442 295.218 185.416 298.403 183.797C312.792 176.479 321.905 165.591 323.875 153.36C325.426 143.726 322.168 136.162 314.834 132.377C311.4 130.604 299.314 129.312 298.073 130.585ZM298.006 144.299C297.712 144.593 297.471 150.199 297.471 156.756C297.471 168.575 297.486 168.671 299.136 167.787C301.936 166.288 306.934 160.852 308.709 157.374C309.633 155.562 310.594 152.351 310.845 150.239C311.246 146.847 311.08 146.245 309.419 145.081C307.536 143.763 299.119 143.186 298.006 144.299ZM68.1434 164.571C61.8657 165.411 55.8823 168.18 56.3947 170.007C56.6136 170.788 58.2903 176.841 60.1201 183.456C61.9499 190.071 64.519 199.001 65.8293 203.302L68.2123 211.12H74.8997C81.1886 211.12 81.6104 211.012 81.968 209.316C82.1773 208.323 83.9734 201.918 85.9604 195.083C92.8803 171.267 93.2909 169.537 92.2974 168.34C89.9648 165.529 76.5812 163.44 68.1434 164.571ZM153.715 169.497C147.618 170.933 142.434 175.032 139.298 180.899C137.688 183.913 137.503 185.397 137.503 195.348V206.438L140.122 208.779L142.741 211.12H190.065C242.645 211.12 240.32 211.356 242.654 205.77C244.127 202.246 244.049 190.963 242.511 185.059C240.415 177.013 234.446 171.126 226.668 169.434L222.499 168.528L219.882 171.528C215.2 176.894 212.992 182.644 212.93 189.63C212.873 196.274 212.142 197.779 209.18 197.356C204.173 196.64 203.951 185.519 208.742 175.431C210.355 172.035 211.674 169.114 211.674 168.939C211.674 168.765 208.487 168.622 204.594 168.622H197.512L195.079 172.03C190.03 179.099 188.889 182.192 188.768 189.156C188.707 192.732 188.401 196.069 188.09 196.573C187.779 197.076 186.453 197.488 185.146 197.488C181.929 197.488 180.959 194.783 181.389 187.003C181.71 181.178 182.316 179.402 187.448 169.223C187.615 168.893 184.477 168.622 180.474 168.622H173.196L170.712 172.03C165.806 178.76 164.86 181.374 164.398 189.47L163.964 197.087L161.711 197.346C158.625 197.699 157.448 196.483 156.883 192.356C156.153 187.035 157.593 180.051 160.658 174.034L163.416 168.622L160.081 168.702C158.248 168.747 155.383 169.105 153.715 169.497ZM44.3702 175.073C42.0994 176.397 38.6755 178.87 36.7607 180.57L33.2783 183.66L34.3135 187.567C35.6317 192.547 40.8133 203.292 44.0263 207.712L46.504 211.12H53.314C57.0603 211.12 60.1209 210.849 60.1153 210.518C60.1105 210.187 58.5381 204.685 56.6216 198.29C54.7044 191.895 52.3085 183.506 51.2974 179.647C50.2855 175.789 49.2423 172.639 48.9785 172.649C48.7138 172.658 46.6403 173.75 44.3702 175.073ZM99.0345 175.638C98.4877 178.583 90.4371 206.951 89.3642 209.716C88.8703 210.99 89.4917 211.12 96.0653 211.12H103.311L106.948 205.284C110.428 199.701 114.61 190.584 115.7 186.205C116.117 184.526 115.657 183.602 113.226 181.244C110.478 178.574 101.455 172.631 100.153 172.631C99.8452 172.631 99.3424 173.985 99.0345 175.638ZM26.3495 196.887C23.5359 199.509 20.3181 204.035 19.8305 206.056C19.598 207.02 19.93 208.554 20.5674 209.464C21.6002 210.938 22.5568 211.12 29.2995 211.12C33.4643 211.12 36.8714 210.955 36.8714 210.754C36.8714 210.553 35.7408 208.478 34.3592 206.143C32.9776 203.808 31.1863 200.365 30.3788 198.491C29.5706 196.617 28.7695 195.083 28.5979 195.083C28.4255 195.083 27.4144 195.894 26.3495 196.887ZM118.826 198.892C117.918 200.987 116.059 204.595 114.694 206.91L112.213 211.12H120.264C128.097 211.12 128.341 211.064 129.239 209.094C129.979 207.469 129.902 206.524 128.851 204.318C127.484 201.452 122.124 195.083 121.079 195.083C120.748 195.083 119.734 196.796 118.826 198.892ZM7.20306 221.091C7.20306 227.172 11.2692 233.459 17.073 236.351L21.1496 238.382H171.982H322.815L326.892 236.351C332.696 233.459 336.762 227.172 336.762 221.091V218.336H171.982H7.20306V221.091Z" fill="#62B8B7"/>
<path fill-rule="evenodd" clip-rule="evenodd" d="M99.4154 0.300655C69.4568 3.03335 44.3526 25.6173 38.0084 55.5423C37.3982 58.4193 36.893 64.7867 36.885 69.6916C36.8553 88.9977 44.0575 106.053 57.8733 119.393C67.5829 128.768 76.3735 133.642 89.6954 137.037C120.54 144.898 153.866 129.509 167.944 100.905C172.657 91.3319 174.792 83.4152 175.356 73.4266C177.763 30.7957 142.054 -3.5899 99.4154 0.300655ZM93.4015 8.63505C81.0114 11.3557 71.609 16.6343 62.0943 26.2115C56.0299 32.3152 54.2281 34.7584 51.0929 41.1283C46.4478 50.5652 44.8818 56.2623 44.3125 65.7882C41.0763 119.956 103.705 151.774 145.8 117.348C161.605 104.421 170.723 80.9897 167.64 61.2249C165.412 46.9473 159.632 35.5418 149.533 25.4923C140.403 16.4081 130.869 11.1713 118.809 8.615C112.196 7.21337 99.8299 7.223 93.4015 8.63505ZM97.6217 18.6509C76.3527 22.5246 59.7264 38.8751 55.71 59.8642C54.2081 67.7159 54.2049 71.4565 55.6955 79.248C58.6359 94.6154 69.5851 108.956 83.3785 115.507C92.1539 119.674 97.3226 120.877 106.231 120.827C136.87 120.654 160.398 94.346 157.095 63.956C155.77 51.7704 151.037 42.1089 141.969 33.0825C132.473 23.632 122.117 19.0101 108.93 18.3406C104.8 18.1305 99.7113 18.27 97.6217 18.6509ZM92.8386 27.4415C77.7014 32.2815 64.831 47.0836 62.864 61.9153L62.3236 65.9855H66.8091C70.423 65.9855 71.4558 66.287 72.1245 67.5363C74.045 71.1245 71.9377 73.2021 66.3793 73.2021H62.3236L62.8295 77.0109C64.2544 87.7508 72.1566 99.825 81.9985 106.302C86.8753 109.512 93.493 112.108 98.8453 112.91L102.623 113.476V109.004C102.623 105.402 102.925 104.369 104.174 103.7C107.735 101.794 109.839 103.89 109.839 109.342C109.839 113.912 110.046 113.988 117.302 112.098C133.562 107.864 147.145 93.0502 149.476 77.0109L150.03 73.2021H145.731C141.118 73.2021 139.508 72.2688 139.508 69.5938C139.508 66.9189 141.118 65.9855 145.731 65.9855H150.03L149.48 62.1767C147.788 50.4481 139.345 38.1133 128.767 31.9143C123.775 28.9883 115.262 25.8932 112.209 25.8932C109.91 25.8932 109.839 26.0095 109.839 29.7781C109.839 34.7311 107.752 37.0846 104.624 35.6597C102.842 34.8474 102.623 34.2629 102.623 30.3202V25.8932L100.017 25.9365C98.5839 25.9597 95.3532 26.6373 92.8386 27.4415ZM105.028 41.7401C102.878 42.5098 102.648 43.7808 102.635 54.9601L102.623 65.9855H95.4342C89.1477 65.9855 88.1414 66.1803 87.4158 67.5363C86.2884 69.6435 86.3685 70.4646 87.8455 71.9424C89.5695 73.6656 107.547 73.7955 108.959 72.094C109.592 71.3322 109.81 66.6751 109.658 57.1564C109.455 44.3268 109.322 43.254 107.835 42.3182C106.953 41.7633 105.69 41.5035 105.028 41.7401ZM218.955 56.5638C218.568 57.5557 217.312 60.5778 216.165 63.2793C213.56 69.415 213.54 72.6857 216.076 78.1343C218.555 83.4601 218.556 84.0655 216.092 89.3601C213.507 94.9129 213.431 98.668 215.884 99.5941C217.991 100.39 220.391 99.3656 221.014 97.4058C221.25 96.6625 222.312 94.0253 223.374 91.5444C225.864 85.7278 225.814 82.0072 223.161 75.7568L221.012 70.6947L223.159 66.3175C225.44 61.6668 225.927 57.3063 224.343 55.7219C222.727 54.1053 219.73 54.5736 218.955 56.5638ZM247.413 56.0194C246.72 56.7129 246.153 57.8059 246.153 58.4497C246.153 59.0928 245.251 61.7622 244.149 64.3818C241.645 70.3291 241.647 72.5013 244.157 77.8921C246.636 83.2188 246.635 84.0944 244.149 89.7169C241.612 95.4525 241.602 97.6673 244.105 99.3078C246.804 101.075 248.401 99.9846 250.161 95.1751C250.952 93.0125 252.2 89.6416 252.934 87.6835C254.425 83.7071 254.206 82.1419 251.225 75.4633L249.191 70.9088L251.199 66.5235C254.09 60.2106 254.522 57.6303 252.954 56.0619C251.306 54.4141 249.037 54.3964 247.413 56.0194ZM276.081 55.762C274.805 57.7682 271.634 65.6656 270.833 68.8313C270.106 71.7059 270.296 72.7539 272.491 77.9763L274.968 83.8747L272.589 89.2976C269.697 95.8847 269.624 97.6392 272.17 99.3078C275.007 101.167 276.543 99.9285 278.825 93.9475C282.703 83.7825 282.762 83.2958 280.698 78.6242C277.859 72.1974 277.787 70.4879 280.136 65.2526C281.291 62.6787 282.236 59.8321 282.236 58.926C282.236 55.6786 277.637 53.3139 276.081 55.762Z" fill="#FDD304"/>
</svg>
