<svg width="293" height="232" viewBox="0 0 293 232" fill="none" xmlns="http://www.w3.org/2000/svg">
<path fill-rule="evenodd" clip-rule="evenodd" d="M62.2996 3.5211C50.473 8.06515 39.0287 18.2906 32.6413 30.0178C25.5034 43.1218 24.3652 63.0744 29.9173 77.7822C34.5567 90.0711 46.563 102.985 59.0275 109.094C66.4086 112.712 70.4102 113.411 83.6958 113.397C97.4095 113.383 100.745 112.753 108.364 108.738C118.3 103.504 123.778 98.7912 131.071 89.2049L136.093 82.6027H150.097C162.472 82.6027 164.803 82.0692 170.119 78.0164L176.136 73.4318L181.59 78.0164C188.296 83.6555 188.768 83.6608 195.263 78.2012C198.142 75.7805 201.236 73.7998 202.138 73.7998C203.041 73.7998 205.641 75.7805 207.918 78.2012C212.911 83.5111 215.191 83.696 219.33 79.1273C224.53 73.3861 228.606 73.1026 234.516 78.0727C237.479 80.5639 240.705 82.6027 241.683 82.6027C242.663 82.6027 248.548 77.7241 254.765 71.7593C265.564 61.3983 266.064 60.5444 266.064 52.5109C266.064 44.7274 265.497 43.6411 258.394 37.8259L250.724 31.546H193.309H135.894L130.324 23.7977C123.785 14.6972 112.388 6.08978 102.061 2.44891C91.7006 -1.20429 73.3034 -0.707803 62.2996 3.5211ZM65.2897 11.7007C54.6542 15.4525 41.9025 28.4826 38.1776 39.4034C29.7763 64.0427 39.4181 88.8193 61.7463 99.969C84.7864 111.473 109.876 104.693 124.384 83.0428L130.578 73.7998H145.967C160.472 73.7998 161.709 73.5005 167.458 68.5903C175.016 62.1342 177.384 62.0233 183.454 67.8332L188.257 72.4318L194.289 67.8332C201.68 62.2011 201.82 62.1994 208.947 67.6307L214.712 72.0251L219.938 67.6307C226.493 62.1219 227.867 62.1465 235.437 67.916L241.578 72.5956L249.415 64.9089C259.004 55.5056 259.793 49.4369 252.137 43.9897C247.211 40.4862 244.834 40.3488 188.86 40.3488H130.701L123.794 30.2255C114.371 16.4156 99.8393 8.59509 83.983 8.79755C78.0097 8.87326 69.5979 10.1796 65.2897 11.7007ZM57.7501 43.0214C48.0167 48.444 46.267 60.724 54.071 68.8614C62.0705 77.2048 74.8769 75.2276 80.2651 64.8156C87.4559 50.9211 71.4268 35.4034 57.7501 43.0214ZM164.46 50.15C163.876 51.6676 164.213 53.7222 165.208 54.7169C168.135 57.6412 173.513 55.6007 174.122 51.3348C174.581 48.1165 173.84 47.3912 170.101 47.3912C167.566 47.3912 165.046 48.6236 164.46 50.15ZM180.043 51.3525C180.6 55.2627 180.998 55.3208 210.751 55.7944C235.629 56.1905 241.275 55.8208 243.061 53.6711C247.569 48.2433 243.246 47.3912 211.215 47.3912H179.481L180.043 51.3525ZM61.2301 51.0532C57.6902 53.113 57.1457 59.7715 60.2609 62.8842C63.4942 66.1149 70.1406 65.4001 72.1739 61.6025C74.3765 57.4916 72.951 53.1747 68.627 50.863C64.8017 48.8172 65.0853 48.8102 61.2301 51.0532ZM148.009 124.939C127.679 127.392 119.297 130.144 99.6896 140.802C89.1052 146.557 79.6854 151.265 78.7586 151.265C69.7318 151.265 15.43 165.822 10.8276 169.475C7.21546 172.341 0 189.744 0 195.586C0 205.635 4.2958 210.651 14.9472 213.033C22.4234 214.704 26.4021 216.926 32.2713 222.708C44.9948 235.241 61.0098 235.083 72.2321 222.312L77.8353 215.935L140.674 214.613C181.394 213.757 203.74 213.901 204.158 215.019C204.512 215.97 207.162 219.435 210.046 222.718C216.191 229.708 226.121 233.195 235.097 231.512C242.596 230.107 252.423 222.049 255.402 214.864C257.214 210.493 258.759 209.618 266.487 208.595C281.547 206.598 286.388 203.706 289.853 194.637C291.88 189.339 292.481 184.922 291.617 181.695C290.896 179 289.945 171.117 289.504 164.181C288.442 147.461 286.632 145.894 266.556 144.307C253.681 143.292 248.282 141.825 234.348 135.559C225.142 131.42 212.455 126.936 206.156 125.594C193.908 122.989 166.734 122.682 148.009 124.939ZM149.415 133.684C129.247 135.994 122.464 138.24 103.078 149.024C87.8136 157.515 82.3919 159.477 62.5322 163.7C49.9232 166.382 34.0651 170.424 27.2919 172.684C15.652 176.568 14.8873 177.154 13.3455 183.396C12.4469 187.028 11.0602 189.998 10.262 189.998C7.95374 189.998 8.58102 199.945 11.0126 201.903C12.2249 202.878 15.696 204.206 18.7285 204.852C23.9493 205.966 24.3035 205.7 25.4065 199.825C27.6566 187.843 39.8938 177.674 52.0658 177.674C65.369 177.674 76.1191 186.478 78.8502 199.607L80.1911 206.061L128.638 205.942C155.283 205.877 182.753 205.329 189.683 204.725C201.645 203.685 202.331 203.385 203.245 198.82C203.774 196.174 206.327 191.494 208.915 188.42C222.349 172.468 243.703 174.239 253.443 192.114L258.135 200.725L266.064 199.626C270.425 199.021 275.68 197.445 277.741 196.123C282.508 193.068 284.587 185.283 281.597 181.683C280.136 179.924 279.549 174.869 279.907 167.131C280.539 153.431 280.113 153.093 262.11 153.05C253.977 153.031 248.617 151.512 234.799 145.307C225.344 141.061 214.437 136.665 210.561 135.536C201.164 132.802 166.32 131.746 149.415 133.684ZM159.045 142.844C158.04 144.087 156.675 148.399 156.009 152.427L154.802 159.753L144.797 160.732C139.296 161.269 125.422 162.214 113.965 162.83C98.0597 163.688 92.9023 164.561 92.1464 166.529C89.8928 172.401 94.2661 172.642 151.738 169.822C227.254 166.116 227.651 166.07 226.964 161.249C226.331 156.815 225.89 156.785 188.294 158.76L164.267 160.022L164.507 150.985C164.75 141.873 162.52 138.549 159.045 142.844ZM40.722 190.984C33.9664 196.663 32.1163 205.146 35.9945 212.642C42.165 224.563 57.4082 226.378 65.9699 216.211C72.6109 208.325 72.0964 200.063 64.4898 192.463C56.8832 184.862 48.614 184.348 40.722 190.984ZM218.686 190.984C208.313 199.704 210.427 215.222 222.789 221.113C229.806 224.456 235.737 223.354 242.635 217.426C246.723 213.914 247.563 211.789 247.563 204.972C247.563 197.912 246.751 196.026 241.808 191.614C234.362 184.966 226.111 184.741 218.686 190.984Z" fill="#62B8B7"/>
<path fill-rule="evenodd" clip-rule="evenodd" d="M62.4402 3.5211C50.6136 8.06515 39.1693 18.2906 32.782 30.0178C25.644 43.1218 24.5058 63.0744 30.0579 77.7822C34.6973 90.0711 46.7037 102.985 59.1682 109.094C66.5492 112.712 70.5508 113.411 83.8364 113.397C97.5501 113.383 100.886 112.753 108.505 108.738C118.441 103.504 123.919 98.7912 131.212 89.2048L136.233 82.6027H150.238C162.613 82.6027 164.944 82.0692 170.26 78.0164L176.277 73.4318L181.73 78.0164C188.437 83.6555 188.909 83.6608 195.404 78.2012C198.283 75.7805 201.377 73.7998 202.279 73.7998C203.181 73.7998 205.782 75.7805 208.059 78.2012C213.052 83.5111 215.332 83.696 219.471 79.1273C224.671 73.3861 228.746 73.1026 234.656 78.0727C237.62 80.5639 240.846 82.6027 241.824 82.6027C242.804 82.6027 248.689 77.7241 254.905 71.7593C265.705 61.3983 266.205 60.5444 266.205 52.5109C266.205 44.7274 265.638 43.6411 258.535 37.8259L250.865 31.546H193.45H136.034L130.465 23.7977C123.926 14.6972 112.529 6.08978 102.202 2.44891C91.8412 -1.20429 73.444 -0.707803 62.4402 3.5211ZM65.4304 11.7007C54.7948 15.4525 42.0431 28.4826 38.3182 39.4034C29.9169 64.0427 39.5587 88.8193 61.8869 99.969C84.9271 111.473 110.016 104.693 124.525 83.0428L130.718 73.7998H146.108C160.613 73.7998 161.85 73.5005 167.599 68.5903C175.156 62.1342 177.525 62.0233 183.595 67.8332L188.398 72.4318L194.429 67.8332C201.821 62.2011 201.96 62.1994 209.088 67.6307L214.853 72.0251L220.079 67.6307C226.634 62.1219 228.008 62.1465 235.578 67.916L241.718 72.5956L249.556 64.9089C259.145 55.5056 259.934 49.4369 252.278 43.9897C247.351 40.4862 244.975 40.3489 189.001 40.3489H130.842L123.935 30.2255C114.511 16.4156 99.98 8.59509 84.1236 8.79755C78.1504 8.87326 69.7385 10.1796 65.4304 11.7007ZM57.8907 43.0214C48.1573 48.444 46.4076 60.724 54.2116 68.8614C62.2112 77.2048 75.0175 75.2276 80.4057 64.8156C87.5965 50.9211 71.5675 35.4034 57.8907 43.0214ZM164.6 50.15C164.017 51.6676 164.353 53.7222 165.349 54.7169C168.276 57.6412 173.653 55.6007 174.263 51.3348C174.721 48.1165 173.981 47.3912 170.242 47.3912C167.707 47.3912 165.187 48.6236 164.6 50.15ZM180.183 51.3525C180.74 55.2627 181.138 55.3208 210.892 55.7944C235.77 56.1905 241.415 55.8208 243.202 53.6711C247.709 48.2433 243.387 47.3912 211.355 47.3912H179.621L180.183 51.3525ZM61.3707 51.0532C57.8308 53.113 57.2863 59.7715 60.4016 62.8842C63.6349 66.1149 70.2812 65.4001 72.3146 61.6025C74.5171 57.4916 73.0916 53.1747 68.7676 50.863C64.9423 48.8172 65.226 48.8102 61.3707 51.0532Z" fill="#FDD304"/>
</svg>
