<svg width="72" height="72" viewBox="0 0 72 72" fill="none" xmlns="http://www.w3.org/2000/svg">
<mask id="path-1-inside-1_1231_2513" fill="white">
<path d="M2.47266 46.1895H69.4512V43.4531C69.4512 42.791 69.3223 42.1758 69.0938 41.625C68.8477 41.0391 68.4844 40.5176 68.0332 40.0664C67.7578 39.791 67.4473 39.5391 67.1133 39.3164C66.7734 39.0879 66.4102 38.8887 66.0293 38.7188C65.0039 38.4961 63.9844 38.2852 62.9707 38.0859C61.9512 37.8867 60.9258 37.6992 59.8945 37.5234C59.8477 37.5176 59.8125 37.5117 59.7656 37.5C59.2441 37.4121 58.7461 37.3301 58.2715 37.2539C57.7969 37.1777 57.293 37.1016 56.7656 37.0195H56.7539C53.168 36.5625 49.5938 36.2109 46.0254 35.9766C42.4512 35.7422 38.8945 35.625 35.3613 35.6191C33.2637 35.6191 31.1719 35.6543 29.0801 35.7363C27 35.8184 24.9082 35.9355 22.8164 36.0996H22.8047C20.8477 36.2812 18.8965 36.5098 16.9395 36.7734C14.9883 37.0371 13.0312 37.3477 11.0625 37.6934L10.8457 37.7461C10.8047 37.7578 10.7637 37.7637 10.7285 37.7637C10.6934 37.7695 10.6582 37.7695 10.623 37.7695C9.70312 37.9336 8.75977 38.1152 7.78711 38.3086C6.84375 38.4961 5.90039 38.6953 4.96289 38.9004C4.72852 39.0293 4.50586 39.1758 4.29492 39.3281C4.08398 39.4863 3.87891 39.6562 3.69727 39.8379C3.30469 40.2305 2.99414 40.6816 2.7832 41.1855C2.58398 41.6602 2.47266 42.1875 2.47266 42.7617V46.1895ZM8.32031 6.7207H62.8066C63.5156 6.7207 64.1953 6.86133 64.8164 7.11914C65.4609 7.38867 66.041 7.78125 66.5273 8.26172C67.0137 8.74805 67.4062 9.32812 67.6699 9.97266C67.9277 10.5938 68.0684 11.2734 68.0684 11.9824V36.9961C68.3672 37.1719 68.6602 37.3652 68.9297 37.5762C69.2344 37.8105 69.5215 38.0566 69.7852 38.3203C70.4648 39 71.0156 39.791 71.3848 40.6816C71.7363 41.5195 71.9297 42.4512 71.9297 43.459V47.0273C71.9473 47.0859 71.9648 47.1445 71.9766 47.2031V47.2148C71.9883 47.291 71.9941 47.3613 71.9941 47.4316C71.9941 47.5078 71.9883 47.584 71.9707 47.6602C71.959 47.7188 71.9414 47.7773 71.9238 47.8359V64.043C71.9238 64.3828 71.7832 64.6934 71.5605 64.916C71.3379 65.1387 71.0273 65.2793 70.6875 65.2793H68.1387C67.8516 65.2793 67.5879 65.1797 67.377 65.0156C67.166 64.8516 67.0078 64.6172 66.9434 64.3477C66.4746 63 66 61.9336 65.4902 61.1016C64.9863 60.2812 64.4473 59.6953 63.8262 59.2793C63.1992 58.8633 62.4492 58.5996 61.541 58.4414C60.6152 58.2773 59.5371 58.2246 58.2539 58.2305L11.5195 58.2891H11.4961C10.5762 58.2715 9.82031 58.3887 9.1875 58.6348C8.56055 58.8809 8.05078 59.25 7.62891 59.7246C7.1543 60.252 6.75586 60.9258 6.39258 61.7109C6.02344 62.5137 5.68945 63.4277 5.35547 64.4297C5.27344 64.6875 5.10938 64.8926 4.9043 65.0391C4.71094 65.1797 4.47656 65.2617 4.23633 65.2734C4.21875 65.2793 4.20117 65.2793 4.18359 65.2793H1.23633C0.896484 65.2793 0.585938 65.1387 0.363281 64.916C0.140625 64.6934 0 64.3828 0 64.043V42.7676C0 41.8477 0.175781 41.0039 0.492187 40.2422C0.832031 39.4336 1.33008 38.7129 1.95117 38.0918C2.12695 37.916 2.32031 37.7402 2.52539 37.5762C2.70117 37.4355 2.87695 37.3008 3.06445 37.1777V11.9297C3.06445 11.2207 3.20508 10.5469 3.46289 9.9375C3.73242 9.29883 4.125 8.72461 4.61133 8.24414C5.09766 7.76367 5.67773 7.38281 6.31641 7.11914C6.9375 6.86133 7.61133 6.7207 8.32031 6.7207ZM62.8066 9.19336H8.32031C7.93945 9.19336 7.57617 9.26953 7.24219 9.4043C6.89648 9.54492 6.5918 9.75 6.33398 10.002C6.08203 10.248 5.87695 10.5527 5.73633 10.8809C5.60742 11.2031 5.53711 11.5547 5.53711 11.9297V35.9883C5.71289 35.9297 5.88867 35.8828 6.07031 35.8359C6.35742 35.7598 6.64453 35.6953 6.93164 35.6484C7.33008 35.5781 7.76367 35.502 8.23242 35.4199C8.58398 35.3613 8.95898 35.2969 9.3457 35.2383V29.0977C9.3457 28.1719 9.5332 27.2871 9.86719 26.4785C10.2188 25.6348 10.7285 24.8789 11.3613 24.2461C11.9941 23.6133 12.75 23.1035 13.5938 22.752C14.4023 22.418 15.2871 22.2305 16.2129 22.2305H27.8262C28.752 22.2305 29.6367 22.418 30.4453 22.752C31.2891 23.1035 32.0449 23.6133 32.6777 24.2461C33.3105 24.8789 33.8203 25.6348 34.1719 26.4785C34.5059 27.2871 34.6934 28.1719 34.6934 29.0977V33.0176C35.1035 33.0117 35.5137 33.0117 35.9297 33.0117V29.0977C35.9297 28.1719 36.1172 27.2871 36.4512 26.4785C36.8027 25.6348 37.3125 24.8789 37.9453 24.2461C38.5781 23.6133 39.334 23.1035 40.1777 22.752C40.9863 22.418 41.8711 22.2305 42.7969 22.2305H54.4102C55.3359 22.2305 56.2207 22.418 57.0293 22.752C57.873 23.1035 58.6289 23.6133 59.2617 24.2461C59.8945 24.8789 60.4043 25.6348 60.7559 26.4785C61.0898 27.2871 61.2773 28.1719 61.2773 29.0977V35.1562C61.7168 35.2207 62.1855 35.2969 62.6895 35.3789C63.2461 35.4668 63.7793 35.5547 64.2949 35.6426C64.5586 35.6895 64.8281 35.7422 65.0977 35.8066C65.2676 35.8477 65.4316 35.8887 65.5898 35.9355V11.9824C65.5898 11.6074 65.5137 11.25 65.3789 10.9219C65.2383 10.582 65.0273 10.2773 64.7695 10.0137C64.5117 9.75586 64.2012 9.54492 63.8672 9.4043C63.5391 9.26953 63.1816 9.19336 62.8066 9.19336ZM25.3184 33.416C26.4961 33.3281 27.6797 33.252 28.8809 33.1934C29.9883 33.1348 31.1074 33.0938 32.2266 33.0645V29.0977C32.2266 28.5059 32.1094 27.9375 31.8926 27.4219C31.6699 26.8828 31.3418 26.4023 30.9316 25.9922C30.5273 25.5879 30.041 25.2598 29.502 25.0312C28.9863 24.8145 28.418 24.6973 27.8262 24.6973H16.2129C15.6211 24.6973 15.0527 24.8145 14.5371 25.0312C13.998 25.2539 13.5176 25.582 13.1074 25.9922C12.7031 26.3965 12.375 26.8828 12.1465 27.4219C11.9297 27.9375 11.8125 28.5059 11.8125 29.0977V34.8457C12.7617 34.7051 13.7227 34.5762 14.707 34.4473C15.7676 34.3125 16.8223 34.1895 17.8652 34.0723C18.2695 34.0254 18.7031 33.9727 19.1543 33.9258C19.5762 33.8789 20.0156 33.8379 20.4844 33.791C21.2812 33.7148 22.0723 33.6445 22.8516 33.5801C23.6543 33.5273 24.4746 33.4688 25.3184 33.416ZM38.4023 33.0293C39.1113 33.041 39.8203 33.0586 40.5293 33.082C41.3145 33.1055 42.0996 33.1406 42.8789 33.1758H42.8848C44.168 33.2227 45.4219 33.2812 46.6406 33.3516C47.8594 33.4219 49.0488 33.5098 50.1855 33.6094C51.8379 33.7559 53.4375 33.9316 54.9551 34.1367C56.3145 34.3242 57.6035 34.5352 58.8105 34.7695V29.0977C58.8105 28.5059 58.6934 27.9375 58.4766 27.4219C58.2539 26.8828 57.9258 26.4023 57.5156 25.9922C57.1113 25.5879 56.625 25.2598 56.0859 25.0312C55.5703 24.8145 55.002 24.6973 54.4102 24.6973H42.8027C42.2109 24.6973 41.6426 24.8145 41.127 25.0312C40.5879 25.2539 40.1074 25.582 39.6973 25.9922C39.293 26.3965 38.9648 26.8828 38.7363 27.4219C38.5195 27.9375 38.4023 28.5059 38.4023 29.0977V33.0293ZM69.457 48.668H2.47266V62.8066H3.31055C3.63867 61.8809 3.97852 61.0195 4.35938 60.252C4.76953 59.4316 5.23242 58.7051 5.79492 58.0781C6.46289 57.3281 7.24805 56.748 8.19141 56.3613C9.13477 55.9805 10.2363 55.7871 11.5605 55.8164L58.2539 55.7578C59.7598 55.7578 61.0488 55.8281 62.1738 56.0449C63.3164 56.2617 64.3008 56.6309 65.1855 57.2168C66.0059 57.7617 66.709 58.4824 67.3418 59.4258C67.9453 60.3281 68.4844 61.4355 69 62.8008H69.4453V48.668H69.457Z"/>
</mask>
<path d="M2.47266 46.1895H69.4512V43.4531C69.4512 42.791 69.3223 42.1758 69.0938 41.625C68.8477 41.0391 68.4844 40.5176 68.0332 40.0664C67.7578 39.791 67.4473 39.5391 67.1133 39.3164C66.7734 39.0879 66.4102 38.8887 66.0293 38.7188C65.0039 38.4961 63.9844 38.2852 62.9707 38.0859C61.9512 37.8867 60.9258 37.6992 59.8945 37.5234C59.8477 37.5176 59.8125 37.5117 59.7656 37.5C59.2441 37.4121 58.7461 37.3301 58.2715 37.2539C57.7969 37.1777 57.293 37.1016 56.7656 37.0195H56.7539C53.168 36.5625 49.5938 36.2109 46.0254 35.9766C42.4512 35.7422 38.8945 35.625 35.3613 35.6191C33.2637 35.6191 31.1719 35.6543 29.0801 35.7363C27 35.8184 24.9082 35.9355 22.8164 36.0996H22.8047C20.8477 36.2812 18.8965 36.5098 16.9395 36.7734C14.9883 37.0371 13.0312 37.3477 11.0625 37.6934L10.8457 37.7461C10.8047 37.7578 10.7637 37.7637 10.7285 37.7637C10.6934 37.7695 10.6582 37.7695 10.623 37.7695C9.70312 37.9336 8.75977 38.1152 7.78711 38.3086C6.84375 38.4961 5.90039 38.6953 4.96289 38.9004C4.72852 39.0293 4.50586 39.1758 4.29492 39.3281C4.08398 39.4863 3.87891 39.6562 3.69727 39.8379C3.30469 40.2305 2.99414 40.6816 2.7832 41.1855C2.58398 41.6602 2.47266 42.1875 2.47266 42.7617V46.1895ZM8.32031 6.7207H62.8066C63.5156 6.7207 64.1953 6.86133 64.8164 7.11914C65.4609 7.38867 66.041 7.78125 66.5273 8.26172C67.0137 8.74805 67.4062 9.32812 67.6699 9.97266C67.9277 10.5938 68.0684 11.2734 68.0684 11.9824V36.9961C68.3672 37.1719 68.6602 37.3652 68.9297 37.5762C69.2344 37.8105 69.5215 38.0566 69.7852 38.3203C70.4648 39 71.0156 39.791 71.3848 40.6816C71.7363 41.5195 71.9297 42.4512 71.9297 43.459V47.0273C71.9473 47.0859 71.9648 47.1445 71.9766 47.2031V47.2148C71.9883 47.291 71.9941 47.3613 71.9941 47.4316C71.9941 47.5078 71.9883 47.584 71.9707 47.6602C71.959 47.7188 71.9414 47.7773 71.9238 47.8359V64.043C71.9238 64.3828 71.7832 64.6934 71.5605 64.916C71.3379 65.1387 71.0273 65.2793 70.6875 65.2793H68.1387C67.8516 65.2793 67.5879 65.1797 67.377 65.0156C67.166 64.8516 67.0078 64.6172 66.9434 64.3477C66.4746 63 66 61.9336 65.4902 61.1016C64.9863 60.2812 64.4473 59.6953 63.8262 59.2793C63.1992 58.8633 62.4492 58.5996 61.541 58.4414C60.6152 58.2773 59.5371 58.2246 58.2539 58.2305L11.5195 58.2891H11.4961C10.5762 58.2715 9.82031 58.3887 9.1875 58.6348C8.56055 58.8809 8.05078 59.25 7.62891 59.7246C7.1543 60.252 6.75586 60.9258 6.39258 61.7109C6.02344 62.5137 5.68945 63.4277 5.35547 64.4297C5.27344 64.6875 5.10938 64.8926 4.9043 65.0391C4.71094 65.1797 4.47656 65.2617 4.23633 65.2734C4.21875 65.2793 4.20117 65.2793 4.18359 65.2793H1.23633C0.896484 65.2793 0.585938 65.1387 0.363281 64.916C0.140625 64.6934 0 64.3828 0 64.043V42.7676C0 41.8477 0.175781 41.0039 0.492187 40.2422C0.832031 39.4336 1.33008 38.7129 1.95117 38.0918C2.12695 37.916 2.32031 37.7402 2.52539 37.5762C2.70117 37.4355 2.87695 37.3008 3.06445 37.1777V11.9297C3.06445 11.2207 3.20508 10.5469 3.46289 9.9375C3.73242 9.29883 4.125 8.72461 4.61133 8.24414C5.09766 7.76367 5.67773 7.38281 6.31641 7.11914C6.9375 6.86133 7.61133 6.7207 8.32031 6.7207ZM62.8066 9.19336H8.32031C7.93945 9.19336 7.57617 9.26953 7.24219 9.4043C6.89648 9.54492 6.5918 9.75 6.33398 10.002C6.08203 10.248 5.87695 10.5527 5.73633 10.8809C5.60742 11.2031 5.53711 11.5547 5.53711 11.9297V35.9883C5.71289 35.9297 5.88867 35.8828 6.07031 35.8359C6.35742 35.7598 6.64453 35.6953 6.93164 35.6484C7.33008 35.5781 7.76367 35.502 8.23242 35.4199C8.58398 35.3613 8.95898 35.2969 9.3457 35.2383V29.0977C9.3457 28.1719 9.5332 27.2871 9.86719 26.4785C10.2188 25.6348 10.7285 24.8789 11.3613 24.2461C11.9941 23.6133 12.75 23.1035 13.5938 22.752C14.4023 22.418 15.2871 22.2305 16.2129 22.2305H27.8262C28.752 22.2305 29.6367 22.418 30.4453 22.752C31.2891 23.1035 32.0449 23.6133 32.6777 24.2461C33.3105 24.8789 33.8203 25.6348 34.1719 26.4785C34.5059 27.2871 34.6934 28.1719 34.6934 29.0977V33.0176C35.1035 33.0117 35.5137 33.0117 35.9297 33.0117V29.0977C35.9297 28.1719 36.1172 27.2871 36.4512 26.4785C36.8027 25.6348 37.3125 24.8789 37.9453 24.2461C38.5781 23.6133 39.334 23.1035 40.1777 22.752C40.9863 22.418 41.8711 22.2305 42.7969 22.2305H54.4102C55.3359 22.2305 56.2207 22.418 57.0293 22.752C57.873 23.1035 58.6289 23.6133 59.2617 24.2461C59.8945 24.8789 60.4043 25.6348 60.7559 26.4785C61.0898 27.2871 61.2773 28.1719 61.2773 29.0977V35.1562C61.7168 35.2207 62.1855 35.2969 62.6895 35.3789C63.2461 35.4668 63.7793 35.5547 64.2949 35.6426C64.5586 35.6895 64.8281 35.7422 65.0977 35.8066C65.2676 35.8477 65.4316 35.8887 65.5898 35.9355V11.9824C65.5898 11.6074 65.5137 11.25 65.3789 10.9219C65.2383 10.582 65.0273 10.2773 64.7695 10.0137C64.5117 9.75586 64.2012 9.54492 63.8672 9.4043C63.5391 9.26953 63.1816 9.19336 62.8066 9.19336ZM25.3184 33.416C26.4961 33.3281 27.6797 33.252 28.8809 33.1934C29.9883 33.1348 31.1074 33.0938 32.2266 33.0645V29.0977C32.2266 28.5059 32.1094 27.9375 31.8926 27.4219C31.6699 26.8828 31.3418 26.4023 30.9316 25.9922C30.5273 25.5879 30.041 25.2598 29.502 25.0312C28.9863 24.8145 28.418 24.6973 27.8262 24.6973H16.2129C15.6211 24.6973 15.0527 24.8145 14.5371 25.0312C13.998 25.2539 13.5176 25.582 13.1074 25.9922C12.7031 26.3965 12.375 26.8828 12.1465 27.4219C11.9297 27.9375 11.8125 28.5059 11.8125 29.0977V34.8457C12.7617 34.7051 13.7227 34.5762 14.707 34.4473C15.7676 34.3125 16.8223 34.1895 17.8652 34.0723C18.2695 34.0254 18.7031 33.9727 19.1543 33.9258C19.5762 33.8789 20.0156 33.8379 20.4844 33.791C21.2812 33.7148 22.0723 33.6445 22.8516 33.5801C23.6543 33.5273 24.4746 33.4688 25.3184 33.416ZM38.4023 33.0293C39.1113 33.041 39.8203 33.0586 40.5293 33.082C41.3145 33.1055 42.0996 33.1406 42.8789 33.1758H42.8848C44.168 33.2227 45.4219 33.2812 46.6406 33.3516C47.8594 33.4219 49.0488 33.5098 50.1855 33.6094C51.8379 33.7559 53.4375 33.9316 54.9551 34.1367C56.3145 34.3242 57.6035 34.5352 58.8105 34.7695V29.0977C58.8105 28.5059 58.6934 27.9375 58.4766 27.4219C58.2539 26.8828 57.9258 26.4023 57.5156 25.9922C57.1113 25.5879 56.625 25.2598 56.0859 25.0312C55.5703 24.8145 55.002 24.6973 54.4102 24.6973H42.8027C42.2109 24.6973 41.6426 24.8145 41.127 25.0312C40.5879 25.2539 40.1074 25.582 39.6973 25.9922C39.293 26.3965 38.9648 26.8828 38.7363 27.4219C38.5195 27.9375 38.4023 28.5059 38.4023 29.0977V33.0293ZM69.457 48.668H2.47266V62.8066H3.31055C3.63867 61.8809 3.97852 61.0195 4.35938 60.252C4.76953 59.4316 5.23242 58.7051 5.79492 58.0781C6.46289 57.3281 7.24805 56.748 8.19141 56.3613C9.13477 55.9805 10.2363 55.7871 11.5605 55.8164L58.2539 55.7578C59.7598 55.7578 61.0488 55.8281 62.1738 56.0449C63.3164 56.2617 64.3008 56.6309 65.1855 57.2168C66.0059 57.7617 66.709 58.4824 67.3418 59.4258C67.9453 60.3281 68.4844 61.4355 69 62.8008H69.4453V48.668H69.457Z" stroke="#058FA2" stroke-width="3" mask="url(#path-1-inside-1_1231_2513)"/>
</svg>
