<svg width="30" height="22" viewBox="0 0 30 22" fill="none" xmlns="http://www.w3.org/2000/svg">
<path d="M27.0937 10.5324C28.3701 10.6772 29.0245 11.378 29.0326 12.5587C29.0326 13.6784 29.0326 14.7982 29.0326 15.9256C29.0326 15.9408 29.0407 15.9637 29.0487 16.0246C29.1861 16.0246 29.3315 16.017 29.4769 16.0246C29.8001 16.0398 29.9859 16.1998 29.9939 16.5045C30.002 17.091 30.002 17.6852 29.9939 18.2717C29.9859 18.5764 29.8081 18.744 29.485 18.7592C29.3477 18.7668 29.2022 18.7592 29.0326 18.7592C29.0326 19.3153 29.0326 19.8561 29.0326 20.3893C29.0326 20.8997 28.8872 21.0368 28.3621 21.0368C27.9662 21.0368 27.5784 21.0368 27.1826 21.0368C26.8352 21.0368 26.6817 20.9149 26.6171 20.6026C26.4959 20.0542 26.3747 19.5057 26.2697 18.9573C26.2374 18.8049 26.1808 18.7364 26.0193 18.7592C25.9708 18.7668 25.9223 18.7592 25.8658 18.7592C18.6273 18.7592 11.3888 18.7592 4.1504 18.7516C3.85956 18.7516 3.75455 18.8278 3.70608 19.0944C3.62529 19.5971 3.50411 20.0999 3.39101 20.6026C3.31831 20.9149 3.1648 21.0368 2.8255 21.0368C2.38926 21.0444 1.96109 21.0444 1.52484 21.0368C1.15323 21.0292 0.975496 20.8616 0.967418 20.5036C0.959339 19.9323 0.967418 19.3686 0.967418 18.7516C0.797766 18.7516 0.636194 18.7592 0.482699 18.7516C0.191866 18.7364 0.00605868 18.5688 0.00605868 18.2946C-0.00201956 17.6852 -0.00201956 17.0758 0.00605868 16.4664C0.0141369 16.1922 0.199945 16.0322 0.482699 16.017C0.628115 16.0094 0.781602 16.017 0.967418 16.017C0.967418 15.8951 0.967418 15.7961 0.967418 15.6894C0.967418 14.6458 0.967418 13.6022 0.967418 12.5511C0.967418 11.3628 1.62179 10.6619 2.90629 10.5249C2.90629 10.4182 2.90629 10.3115 2.90629 10.1973C2.90629 7.78261 2.90629 5.36788 2.90629 2.95316C2.90629 1.70391 3.69799 0.957397 5.03904 0.957397C11.6797 0.957397 18.3284 0.957397 24.969 0.957397C26.3182 0.957397 27.1018 1.70391 27.1018 2.976C27.1018 5.3831 27.1018 7.78261 27.1018 10.1897C27.0937 10.3039 27.0937 10.403 27.0937 10.5324ZM15.4847 10.5324C15.4847 9.92306 15.4766 9.33651 15.4847 8.74996C15.4928 7.69877 16.3249 6.9066 17.4317 6.89897C19.3544 6.89135 21.2852 6.89135 23.2079 6.89897C24.3147 6.9066 25.1468 7.69877 25.1629 8.74237C25.171 9.25273 25.1629 9.77072 25.1629 10.2811C25.1629 10.3649 25.171 10.4487 25.1791 10.5172C25.5103 10.5172 25.8173 10.5172 26.1324 10.5172C26.1324 10.403 26.1324 10.3039 26.1324 10.2125C26.1324 7.79783 26.1324 5.3831 26.1324 2.96838C26.1324 2.21427 25.7769 1.8715 24.9771 1.8715C18.3284 1.8715 11.6716 1.8715 5.02289 1.8715C4.23927 1.8715 3.87572 2.21427 3.87572 2.95316C3.87572 5.37548 3.87572 7.79783 3.87572 10.2201C3.87572 10.3192 3.87572 10.4182 3.87572 10.5172C4.2231 10.5172 4.53009 10.5172 4.84516 10.5172C4.84516 9.9459 4.84516 9.39747 4.84516 8.84139C4.84516 7.64545 5.65303 6.89135 6.92945 6.89135C8.7633 6.89135 10.5971 6.89135 12.431 6.89135C13.7236 6.89135 14.5234 7.64545 14.5234 8.86424C14.5234 9.41269 14.5234 9.96115 14.5234 10.5248C14.8384 10.5324 15.1373 10.5324 15.4847 10.5324ZM28.0631 16.0093C28.0631 14.8134 28.0631 13.648 28.0631 12.4749C28.0631 11.8198 27.6673 11.4541 26.9725 11.4541C18.9908 11.4541 11.0091 11.4541 3.01939 11.4541C2.31655 11.4541 1.92877 11.8198 1.92877 12.4749C1.92877 13.5642 1.92877 14.6611 1.92877 15.7504C1.92877 15.8342 1.93685 15.9179 1.94492 16.0093C10.6537 16.0093 19.3382 16.0093 28.0631 16.0093ZM0.975488 17.8223C10.3386 17.8223 19.6775 17.8223 29.0003 17.8223C29.0003 17.51 29.0003 17.2281 29.0003 16.9463C19.6452 16.9463 10.3144 16.9463 0.975488 16.9463C0.975488 17.2434 0.975488 17.5252 0.975488 17.8223ZM13.5458 10.5324C13.5458 9.89259 13.562 9.2832 13.5458 8.6738C13.5297 8.19391 13.1177 7.81304 12.6087 7.80542C10.6537 7.79783 8.69866 7.79783 6.74363 7.80542C6.29931 7.80542 5.87922 8.11013 5.84691 8.51384C5.79844 9.17654 5.83075 9.8545 5.83075 10.5248C8.39976 10.5324 10.9607 10.5324 13.5458 10.5324ZM24.1854 10.5324C24.1854 9.88496 24.2016 9.26795 24.1773 8.65096C24.1612 8.18629 23.7492 7.80542 23.2483 7.80542C21.2933 7.79783 19.3382 7.79783 17.3832 7.80542C16.9227 7.80542 16.4945 8.1406 16.4622 8.56718C16.4218 9.21464 16.4542 9.86974 16.4542 10.5324C19.0393 10.5324 21.6002 10.5324 24.1854 10.5324ZM2.50236 20.1151C2.5993 19.6581 2.68816 19.2239 2.78511 18.7821C2.49428 18.7821 2.2196 18.7821 1.94492 18.7821C1.94492 19.2391 1.94492 19.6733 1.94492 20.1151C2.13074 20.1151 2.30039 20.1151 2.50236 20.1151ZM28.0389 20.1151C28.0389 19.6429 28.0389 19.2086 28.0389 18.7668C27.7562 18.7668 27.4976 18.7668 27.2068 18.7668C27.3038 19.2239 27.4007 19.6657 27.4896 20.1151C27.6915 20.1151 27.8531 20.1151 28.0389 20.1151Z" fill="#058FA2"/>
</svg>
