<svg width="72" height="72" viewBox="0 0 72 72" fill="none" xmlns="http://www.w3.org/2000/svg">
<path d="M42.75 70.875H29.25C25.3125 70.875 22.5 68.0625 22.5 64.125V30.375C22.5 26.55 23.5125 23.4 26.1 19.575L30.375 13.1625V3.375C30.375 2.1375 31.3875 1.125 32.625 1.125H39.375C40.6125 1.125 41.625 2.1375 41.625 3.375V13.1625L45.9 19.575C48.375 23.2875 49.5 26.55 49.5 30.375V64.125C49.5 68.0625 46.6875 70.875 42.75 70.875ZM32.625 3.375V13.8375L27.9 20.925C25.65 24.3 24.75 27.1125 24.75 30.375V64.125C24.75 66.825 26.55 68.625 29.25 68.625H42.75C45.45 68.625 47.25 66.825 47.25 64.125V30.375C47.25 27.1125 46.35 24.1875 44.1 20.925L39.375 13.8375V3.375H32.625Z" fill="#058FA2"/>
<path d="M40.5 6.75H31.5V9H40.5V6.75Z" fill="#058FA2"/>
<path d="M48.375 36H23.625V38.25H48.375V36Z" fill="#058FA2"/>
<path d="M48.375 54H23.625V56.25H48.375V54Z" fill="#058FA2"/>
<path d="M36 51.75C33.3 51.75 31.5 49.95 31.5 47.25C31.5 44.8875 34.5375 41.5125 35.2125 40.8375L36 39.9375L36.7875 40.8375C37.35 41.5125 40.5 44.8875 40.5 47.25C40.5 50.0625 38.8125 51.75 36 51.75ZM36 43.3125C34.875 44.6625 33.75 46.35 33.75 47.25C33.75 48.7125 34.5375 49.5 36 49.5C37.4625 49.5 38.25 48.7125 38.25 47.25C38.25 46.35 37.125 44.6625 36 43.3125Z" fill="#058FA2"/>
</svg>
