<svg width="64" height="64" viewBox="0 0 64 64" fill="none" xmlns="http://www.w3.org/2000/svg">
<path d="M53 23H52C51.84 12.91 42.94 4.75 32 4.75C21.06 4.75 12.16 12.91 12 23H11C10.7348 23 10.4804 23.1054 10.2929 23.2929C10.1054 23.4804 10 23.7348 10 24V28C10 28.2652 10.1054 28.5196 10.2929 28.7071C10.4804 28.8946 10.7348 29 11 29H14V54C14 55.8565 14.7375 57.637 16.0503 58.9497C17.363 60.2625 19.1435 61 21 61H43C44.8565 61 46.637 60.2625 47.9497 58.9497C49.2625 57.637 50 55.8565 50 54V29H53C53.2652 29 53.5196 28.8946 53.7071 28.7071C53.8946 28.5196 54 28.2652 54 28V24C54 23.7348 53.8946 23.4804 53.7071 23.2929C53.5196 23.1054 53.2652 23 53 23ZM32 6.75C41.8 6.75 49.78 13.97 50 22.91C49.9783 22.661 49.8642 22.4291 49.68 22.26C47.9 19.8 39.34 19.26 32.02 19.26C24.7 19.26 16.14 19.81 14.36 22.26C14.1758 22.4291 14.0617 22.661 14.04 22.91C14.22 14 22.2 6.75 32 6.75ZM47.92 23.25C47.19 23.88 43.26 25.25 32 25.25C20.74 25.25 16.81 23.88 16.08 23.25C16.81 22.62 20.74 21.25 32 21.25C43.26 21.25 47.19 22.62 47.92 23.25ZM12 27V25H14V27H12ZM48 54C48 54.6566 47.8707 55.3068 47.6194 55.9134C47.3681 56.52 46.9998 57.0712 46.5355 57.5355C46.0712 57.9998 45.52 58.3681 44.9134 58.6194C44.3068 58.8707 43.6566 59 43 59H21C19.6739 59 18.4021 58.4732 17.4645 57.5355C16.5268 56.5979 16 55.3261 16 54V25.43C19.28 26.89 26.05 27.25 32 27.25C37.95 27.25 44.72 26.89 48 25.43V54ZM52 27H50V25H52V27ZM20 51C19.7348 51 19.4804 50.8946 19.2929 50.7071C19.1054 50.5196 19 50.2652 19 50V43C19 42.7348 19.1054 42.4804 19.2929 42.2929C19.4804 42.1054 19.7348 42 20 42C20.2652 42 20.5196 42.1054 20.7071 42.2929C20.8946 42.4804 21 42.7348 21 43V50C21 50.2652 20.8946 50.5196 20.7071 50.7071C20.5196 50.8946 20.2652 51 20 51ZM20 40C19.7348 40 19.4804 39.8946 19.2929 39.7071C19.1054 39.5196 19 39.2652 19 39V38C19 37.7348 19.1054 37.4804 19.2929 37.2929C19.4804 37.1054 19.7348 37 20 37C20.2652 37 20.5196 37.1054 20.7071 37.2929C20.8946 37.4804 21 37.7348 21 38V39C21 39.2652 20.8946 39.5196 20.7071 39.7071C20.5196 39.8946 20.2652 40 20 40Z" fill="#058FA2"/>
</svg>
