<svg width="80" height="65" viewBox="0 0 80 65" fill="none" xmlns="http://www.w3.org/2000/svg">
<g clip-path="url(#clip0_792_1512)">
<path d="M13.6387 50.2666C13.6387 50.2666 38.9149 76.9333 65.9053 50.2666H13.6387Z" fill="white"/>
<path d="M13.6387 50.2666C13.6387 50.2666 38.9149 76.9333 65.9053 50.2666" stroke="#43AFAD" stroke-width="2"/>
<path d="M71.2394 41.3332H8.74414L9.27747 35.2761C10.295 23.3042 18.1813 13.0169 29.4782 8.92532C40.7751 4.83373 53.42 7.68486 61.868 16.2284C62.5156 16.8761 63.106 17.5237 63.7727 18.1332C64.0584 18.4761 64.3251 18.838 64.6108 19.1999C65.1441 19.9046 65.6584 20.6284 66.1346 21.3903C66.3886 21.7713 66.6172 22.1522 66.8203 22.5332L67.4299 23.638C67.8743 24.4761 68.2743 25.3332 68.6299 26.2094C68.7632 26.5332 68.8775 26.838 68.9918 27.1618C69.106 27.4856 69.3537 28.1713 69.5061 28.6856C69.6584 29.1999 69.7537 29.4665 69.8489 29.8665C70.0287 30.4932 70.175 31.129 70.287 31.7713C70.287 32.038 70.4013 32.3046 70.4394 32.5903C70.608 33.4721 70.7288 34.3622 70.8013 35.257L71.2394 41.3332Z" fill="white" stroke="#43AFAD" stroke-width="2" stroke-linecap="round" stroke-linejoin="round"/>
<path d="M40.0015 2.64746C43.2867 2.64746 45.9529 5.30509 45.9634 8.59032V24.9713C45.7847 28.128 43.1728 30.5963 40.011 30.5963C36.8492 30.5963 34.2372 28.128 34.0586 24.9713V8.59032C34.0586 5.30817 36.7193 2.64746 40.0015 2.64746Z" fill="white" stroke="#43AFAD" stroke-width="2"/>
<path d="M7.25857 41.333H72.7443C75.0981 41.4868 76.9286 43.4408 76.9286 45.7997C76.9286 48.1585 75.0981 50.1125 72.7443 50.2663H7.25857C4.90475 50.1125 3.07422 48.1585 3.07422 45.7997C3.07422 43.4408 4.90475 41.4868 7.25857 41.333Z" fill="white" stroke="#43AFAD" stroke-width="2" stroke-linecap="round" stroke-linejoin="round"/>
</g>
<defs>
<clipPath id="clip0_792_1512">
<rect width="80" height="64.7619" fill="white"/>
</clipPath>
</defs>
</svg>
