<svg width="34" height="36" viewBox="0 0 34 36" fill="none" xmlns="http://www.w3.org/2000/svg">
<path d="M9.66667 2.16669V6.91669M22.3333 2.16669V6.91669M2.54167 13.3925H29.4583M26.6084 24.7767C27.0834 26.4867 28.4134 27.8167 30.1234 28.2917M16 33.8334H9.66667C4.125 33.8334 1.75 30.6667 1.75 25.9167V12.4584C1.75 7.70835 4.125 4.54169 9.66667 4.54169H22.3333C27.875 4.54169 30.25 7.70835 30.25 12.4584V18M15.9929 20.6917H16.0071M10.1327 20.6917H10.1469M10.1327 25.4417H10.1469M27.4158 23.9692L21.8109 29.5742C21.5892 29.7959 21.3833 30.2075 21.3358 30.5084L21.035 32.6459C20.9242 33.4217 21.4625 33.9601 22.2383 33.8492L24.3759 33.5484C24.6767 33.5009 25.1042 33.295 25.31 33.0734L30.915 27.4684C31.8809 26.5026 32.34 25.3784 30.915 23.9534C29.5059 22.5442 28.3817 23.0034 27.4158 23.9692Z" stroke="#006167" stroke-width="2.5" stroke-linecap="round" stroke-linejoin="round"/>
</svg>
