<svg width="80" height="80" viewBox="0 0 80 80" fill="none" xmlns="http://www.w3.org/2000/svg">
<path d="M22.0734 67.054L16.8916 72.7086L12.1098 67.8904L7.27344 63.1086L12.9462 57.9268L17.5098 62.4904L22.0734 67.054Z" fill="white" stroke="#058FA2" stroke-width="3" stroke-linecap="round" stroke-linejoin="round"/>
<path d="M34.5453 53.3085L22.0362 67.0539L17.5089 62.4721L12.9453 57.9267L26.6908 45.4539C27.6747 47.0491 28.8468 48.5202 30.1817 49.8358C31.4959 51.1595 32.9604 52.325 34.5453 53.3085ZM47.7817 30.2903C48.6511 30.2875 49.5088 30.0886 50.2908 29.7085L49.5453 30.4539C48.9656 30.3323 48.3739 30.2774 47.7817 30.2903ZM52.9817 27.0176C52.4201 28.1968 51.47 29.1469 50.2908 29.7085L52.9817 27.0176ZM65.9817 42.9085C66.4837 42.0162 66.9153 41.0861 67.2726 40.1267C66.9006 41.0799 66.4695 42.009 65.9817 42.9085Z" fill="white"/>
<path d="M50.2908 29.7085C49.5088 30.0886 48.6512 30.2875 47.7817 30.2903C48.3739 30.2774 48.9656 30.3323 49.5453 30.4539L50.2908 29.7085ZM50.2908 29.7085C51.47 29.1469 52.4201 28.1968 52.9817 27.0176L50.2908 29.7085ZM34.5453 53.3085L22.0362 67.0539L17.5089 62.4721L12.9453 57.9267L26.6908 45.4539C27.6747 47.0491 28.8468 48.5202 30.1817 49.8358C31.4959 51.1595 32.9604 52.325 34.5453 53.3085ZM65.9817 42.9085C66.4837 42.0162 66.9153 41.0861 67.2726 40.1267C66.9006 41.0799 66.4695 42.009 65.9817 42.9085Z" stroke="#058FA2" stroke-width="3" stroke-linecap="round" stroke-linejoin="round"/>
<path d="M52.9812 27.0176C52.4196 28.1968 51.4695 29.1469 50.2903 29.7085L52.9812 27.0176ZM67.2722 40.1267C66.8914 41.0883 66.4355 42.0185 65.9085 42.9085C66.4211 42.0108 66.8766 41.0817 67.2722 40.1267ZM47.7812 30.2903C48.6507 30.2875 49.5084 30.0886 50.2903 29.7085L49.5449 30.4539C48.9652 30.3323 48.3734 30.2774 47.7812 30.2903Z" fill="white"/>
<path d="M50.2903 29.7085C51.4695 29.1469 52.4196 28.1968 52.9812 27.0176L50.2903 29.7085ZM50.2903 29.7085C49.5084 30.0886 48.6507 30.2875 47.7812 30.2903C48.3734 30.2774 48.9652 30.3323 49.5449 30.4539L50.2903 29.7085ZM67.2722 40.1267C66.8914 41.0883 66.4355 42.0185 65.9085 42.9085C66.4211 42.0108 66.8766 41.0817 67.2722 40.1267Z" stroke="#058FA2" stroke-width="3" stroke-linecap="round" stroke-linejoin="round"/>
<path d="M52.9839 27.0176C52.4223 28.1968 51.4722 29.1469 50.293 29.7085L52.9839 27.0176ZM67.2748 40.1267C66.8941 41.0883 66.4381 42.0185 65.9112 42.9085C66.4237 42.0108 66.8792 41.0817 67.2748 40.1267Z" fill="white" stroke="#058FA2" stroke-width="3" stroke-linecap="round" stroke-linejoin="round"/>
<path d="M71.7799 25.4543C71.7799 25.2361 71.6344 24.9997 71.5799 24.7816C71.5138 24.5071 71.4225 24.2392 71.3071 23.9816C70.1039 20.4293 68.1009 17.2009 65.4526 14.5452C55.7183 4.83627 39.9586 4.84998 30.2412 14.5758C20.5238 24.3017 20.5238 40.0614 30.2412 49.7873C39.9586 59.5131 55.7183 59.5268 65.4526 49.8179C66.9289 48.3214 68.2228 46.6552 69.3071 44.8543C69.9164 43.7959 70.451 42.6962 70.9071 41.5634C71.2162 40.8179 71.4708 40.0543 71.7071 39.2906C73.0456 34.7791 73.0708 29.9796 71.7799 25.4543Z" fill="white" stroke="#058FA2" stroke-width="3" stroke-linecap="round" stroke-linejoin="round"/>
<path d="M59.2536 36.3628L59.3627 42.1265C59.3539 42.4171 59.1256 42.6533 58.8354 42.6719L36.8718 43.0356C36.7337 43.0405 36.5995 42.9891 36.5 42.893C36.4006 42.797 36.3445 42.6647 36.3445 42.5265L36.2354 36.9447C36.1699 32.9288 39.1116 29.4956 43.09 28.9447C43.227 28.9256 43.3656 28.9652 43.4718 29.0538C45.92 30.9782 49.3835 30.9174 51.7627 28.9083C51.8727 28.8123 52.0175 28.7663 52.1627 28.781H52.3082H52.6173H52.8718H52.9809H53.2354H53.3445H53.5991H53.7082H53.9445H54.09H54.2536H54.4173L54.6718 28.8901L54.9627 29.0538L55.1991 29.181L55.4536 29.3265L55.7264 29.5083L56.0173 29.7265C56.3072 29.9619 56.5806 30.2171 56.8354 30.4901L57.0718 30.7447C57.144 30.825 57.2109 30.91 57.2718 30.9992L57.4718 31.2719L57.6173 31.4901L57.7809 31.7447L58.1809 32.7265L58.2718 32.8901L58.3809 33.0901C58.3854 33.1203 58.3854 33.1509 58.3809 33.181C58.4308 33.2683 58.4734 33.3595 58.5082 33.4538C58.5462 33.523 58.5766 33.5962 58.5991 33.6719C58.5922 33.7263 58.5922 33.7812 58.5991 33.8356V34.0719C58.607 34.1079 58.607 34.1451 58.5991 34.181C58.5991 34.2719 58.5991 34.3628 58.5991 34.4538C58.6079 34.5566 58.6079 34.66 58.5991 34.7628C58.6077 34.7925 58.6077 34.8241 58.5991 34.8538V35.1083C58.6079 35.1503 58.6079 35.1936 58.5991 35.2356V35.5447C58.5991 35.5447 58.5991 35.6901 58.5991 35.7628C58.5905 35.8839 58.5905 36.0054 58.5991 36.1265L59.2536 36.3628Z" fill="white" stroke="#FDC114" stroke-width="3"/>
<path d="M47.8015 30.5815C51.5169 30.5815 54.5288 27.5696 54.5288 23.8542C54.5288 20.1389 51.5169 17.127 47.8015 17.127C44.0861 17.127 41.0742 20.1389 41.0742 23.8542C41.0742 27.5696 44.0861 30.5815 47.8015 30.5815Z" fill="white" stroke="#FDC114" stroke-width="3"/>
</svg>
