<svg width="100" height="100" viewBox="0 0 100 100" fill="none" xmlns="http://www.w3.org/2000/svg">
<path d="M36.0662 59.642V60.642H37.0662H47.5666C50.7944 60.642 53.4968 63.3443 53.4968 66.5722V71.6123C53.4968 80.8415 51.0473 89.8599 46.3583 97.654C46.0266 97.9592 45.68 98.1232 45.4665 98.1232H1.99507C1.8052 98.1232 1.44919 97.9717 1.14706 97.5185C1.02414 97.3341 1 97.2089 1 97.1282C1 97.0475 1.02414 96.9222 1.14706 96.7379L1.1545 96.7267L1.16165 96.7153C5.88853 89.1953 8.24524 80.3983 8.24524 71.6123V66.5722C8.24524 63.3443 10.9476 60.642 14.1755 60.642H24.6758H25.6758V59.642V1.89006C25.6758 1.39231 26.0681 1 26.5659 1H35.1762C35.6739 1 36.0662 1.39231 36.0662 1.89006V18.2706C36.0662 18.7683 35.6739 19.1607 35.1762 19.1607C34.6784 19.1607 34.2861 18.7684 34.2861 18.2706V3.78012V2.78012H33.2861H28.6659H27.6659V3.78012V49.1416V50.1416H28.6659H33.2861H34.2861V49.1416V35.7012C34.2861 35.2034 34.6784 34.8111 35.1762 34.8111C35.6739 34.8111 36.0662 35.2034 36.0662 35.7012V59.642ZM28.4559 51.9217H27.4559V52.9217V59.642V60.642H28.4559H33.0761H34.0761V59.642V52.9217V51.9217H33.0761H28.4559ZM50.7167 70.7223H51.7167V69.7223V66.5722C51.7167 64.3398 49.7989 62.4221 47.5666 62.4221H14.1755C11.6898 62.4221 10.0254 64.3842 10.0254 66.5722V69.7223V70.7223H11.0254H50.7167ZM44.2064 96.3431H44.7822L45.0712 95.8453C48.9287 89.2019 51.2862 81.4891 51.7151 73.7679L51.7738 72.7124H50.7167H11.2354H10.2628L10.2358 73.6846C10.0299 81.0947 8.17801 88.2934 4.68207 94.874L3.90158 96.3431H5.56518H15.6455H16.2304L16.5171 95.8334C18.4385 92.4176 20.1562 88.558 21.2327 84.4672L21.2328 84.4673L21.2358 84.4553C21.2929 84.2268 21.7426 83.8217 22.3506 83.9279C22.5805 84.0022 22.9607 84.4407 22.862 85.0294C21.8278 88.5375 20.5947 91.8137 18.9633 94.8725L18.179 96.3431H19.8456H29.926H30.5108L30.7976 95.8334C32.7189 92.4176 34.4367 88.558 35.5132 84.4672L35.5133 84.4673L35.5163 84.4553C35.5734 84.2268 36.023 83.8217 36.6311 83.9279C36.861 84.0022 37.2411 84.4407 37.1425 85.0294C36.1083 88.5375 34.8751 91.8137 33.2438 94.8725L32.4594 96.3431H34.1261H44.2064Z" stroke="#058FA2" stroke-width="2"/>
<path d="M67.3069 75.1826C65.4168 75.1826 63.5268 76.0226 62.2667 77.2827C61.4267 78.1227 61.4267 79.1727 62.2667 80.0128C63.1068 80.8528 64.1568 80.8528 64.9968 80.0128C65.6268 79.3828 66.4669 78.9627 67.3069 78.9627C68.1469 78.9627 68.987 79.3828 69.617 80.0128C70.247 80.6428 70.667 81.4828 70.667 82.3228C70.667 83.1629 70.247 84.0029 69.617 84.6329C68.777 85.473 68.777 86.523 69.617 87.363C70.037 87.783 70.457 87.993 71.087 87.993C71.507 87.993 72.1371 87.783 72.5571 87.363C73.8171 86.103 74.6571 84.2129 74.6571 82.3228C74.6571 80.4328 73.8171 78.5427 72.5571 77.2827C71.087 75.8126 69.197 75.1826 67.3069 75.1826Z" fill="#FFCC09"/>
<path d="M65.6285 51.4515C67.5186 51.4515 68.9886 52.9216 68.9886 54.8116C68.9886 55.8617 69.8286 56.7017 70.8787 56.7017C71.9287 56.7017 72.7687 55.8617 72.7687 54.8116C72.7687 50.8215 69.6186 47.6714 65.6285 47.6714C61.6384 47.6714 58.4883 50.8215 58.4883 54.8116C58.4883 55.8617 59.3283 56.7017 60.3783 56.7017C61.4284 56.7017 62.2684 55.8617 62.2684 54.8116C62.2684 52.9216 63.7384 51.4515 65.6285 51.4515Z" fill="#FFCC09"/>
<path d="M91.6681 74.5525C92.5081 72.8724 93.1382 70.9824 93.1382 69.0923C93.1382 62.7921 88.098 57.752 81.7978 57.752C78.8577 57.752 75.9176 58.802 73.8175 60.9021C72.9775 61.7421 72.9775 62.7921 73.8175 63.6321C74.6575 64.4722 75.7076 64.4722 76.5476 63.6321C78.0177 62.3721 79.9077 61.5321 81.7978 61.5321C85.9979 61.5321 89.358 64.8922 89.358 69.0923C89.358 70.9824 88.518 72.8724 87.258 74.3425C86.838 74.7625 86.6279 75.6025 86.8379 76.2326C87.048 76.8626 87.678 77.4926 88.308 77.4926C92.5081 78.3326 95.6582 81.9027 95.6582 86.3129C95.6582 91.3531 91.6681 95.3432 86.6279 95.3432C83.4778 95.3432 80.5377 93.6631 79.0677 91.143C78.4377 90.303 77.3876 89.883 76.3376 90.513C75.4976 91.143 75.0776 92.1931 75.7076 93.2431C78.0177 97.0232 82.2178 99.3333 86.6279 99.3333C93.7682 99.3333 99.4384 93.6631 99.4384 86.5229C99.2284 81.2727 96.2883 76.6526 91.6681 74.5525Z" fill="#FFCC09"/>
<path d="M34.9633 24.9907C34.5433 24.9907 33.9133 25.2007 33.4933 25.6207C33.0733 26.0408 32.8633 26.4608 32.8633 27.0908C32.8633 27.5108 33.0733 28.1408 33.4933 28.5608C33.9133 28.9809 34.3333 29.1909 34.9633 29.1909C35.3834 29.1909 36.0134 28.9809 36.4334 28.5608C36.8534 28.1408 37.0634 27.7208 37.0634 27.0908C37.0634 26.6708 36.8534 26.0408 36.4334 25.6207C36.0134 25.2007 35.5934 24.9907 34.9633 24.9907Z" fill="#CCCCCC"/>
</svg>
