<svg width="76" height="76" viewBox="0 0 76 76" fill="none" xmlns="http://www.w3.org/2000/svg">
<path d="M35.5381 0.6875C37.2172 0.612727 40.2151 0.653246 41.5527 0.783203L42.1299 0.84375C48.0926 1.52241 54.0988 3.74413 58.9502 7.07617L59.7666 7.64453C61.5586 8.91757 62.645 9.8706 64.5254 11.7637L65.2021 12.4629C71.8681 19.5165 75.4319 28.5693 75.3486 38.2393L75.3281 39.208C75.2148 42.5759 74.8111 45.2517 73.9521 48.249L73.7734 48.8535C72.9598 51.5443 71.4969 54.7856 69.9404 57.3711L69.6289 57.8799C69.4163 58.2182 69.2574 58.4717 69.1426 58.667C69.0257 58.8659 68.9645 58.9868 68.9355 59.0645C68.9334 59.0701 68.9322 59.0754 68.9307 59.0801C68.9363 59.0856 68.9422 59.0932 68.9502 59.1006L69.6416 59.6895C70.0047 59.9937 70.4721 60.3818 70.957 60.7812L71.5186 61.2451C72.0158 61.6594 72.3266 61.9339 72.5146 62.1523C72.6491 62.3085 72.7405 62.4571 72.79 62.6279C72.837 62.7899 72.8389 62.9482 72.8389 63.0898C72.8388 63.4492 72.7558 63.8274 72.5605 64.0908L72.4697 64.1963C72.4184 64.2475 72.3534 64.2812 72.3291 64.2939C72.2905 64.3142 72.2439 64.336 72.1934 64.3584C72.0913 64.4036 71.9547 64.4597 71.791 64.5234C71.4624 64.6514 71.0103 64.8174 70.4775 65.0078C69.4111 65.389 68.011 65.8705 66.6035 66.3428C65.1962 66.815 63.7794 67.279 62.6787 67.625C62.1286 67.7979 61.655 67.9418 61.3008 68.043C61.124 68.0935 60.9739 68.1348 60.8574 68.1631C60.7589 68.187 60.6405 68.2138 60.5557 68.2139C60.1692 68.2139 59.817 67.9685 59.582 67.7012C59.3417 67.4277 59.1484 67.0479 59.1484 66.6611C59.1485 66.3697 59.2491 65.4854 59.3936 64.3584C59.54 63.2161 59.7372 61.7899 59.9404 60.3877C60.1436 58.9856 60.3533 57.6059 60.5244 56.5566C60.6099 56.0324 60.6857 55.5882 60.7471 55.2646C60.7777 55.1033 60.8055 54.9684 60.8291 54.8672C60.8408 54.8171 60.8527 54.7711 60.8643 54.7324C60.8714 54.7086 60.8909 54.6422 60.9277 54.585L61.0068 54.4775C61.207 54.2385 61.5029 54.0907 61.79 54.0234C62.1203 53.9461 62.5051 53.9593 62.8252 54.127L62.9629 54.2119C63.016 54.2479 63.0748 54.2903 63.1357 54.335C63.2659 54.4304 63.4289 54.5551 63.6133 54.6992C63.9824 54.9878 64.4427 55.3598 64.9053 55.7461L65.5615 56.2842C65.767 56.4496 65.9556 56.5988 66.1182 56.7236C66.2521 56.8265 66.3676 56.9099 66.457 56.9736C66.4989 56.9202 66.5495 56.8541 66.6055 56.7744C66.7906 56.5108 67.0298 56.1335 67.2939 55.6904C67.822 54.8047 68.4378 53.6758 68.9004 52.707L69.1396 52.1943C73.9989 41.5719 73.1346 29.2029 66.8467 19.3828L66.5381 18.9102C61.6815 11.5933 54.4876 6.51741 46.0586 4.43945L45.2393 4.24805C42.741 3.69491 41.4388 3.52718 38.8311 3.50098L37.627 3.49805C34.1816 3.50847 32.129 3.74906 29.209 4.5127L28.6133 4.67188C15.9381 8.14581 6.33266 18.6575 3.89844 31.6533L3.78809 32.2744C1.69315 44.6926 6.77631 57.5473 16.8232 65.2324L17.2842 65.5781C22.0747 69.1114 27.9297 71.4333 33.8594 72.1406L34.2236 72.1777C36.1735 72.3537 40.004 72.3459 41.6914 72.1494L42.4561 72.0518C46.2739 71.52 49.9946 70.3471 53.4717 68.5771L54.2607 68.1895C54.4854 68.0844 54.673 68.0032 54.8271 67.9453C54.9785 67.8885 55.1195 67.8457 55.2412 67.8311C55.3231 67.8212 55.5106 67.8096 55.6553 67.9365L55.7139 67.999L55.8223 68.1602C55.8666 68.2307 55.9175 68.3152 55.9707 68.4043C56.083 68.5924 56.2192 68.8269 56.3516 69.0625L56.8281 69.9102L57.002 70.2207L56.6895 70.3896L55.4531 71.0596C51.6829 73.1016 46.8749 74.5802 42.2412 75.1416L41.3164 75.2422C39.2051 75.4427 35.3497 75.3526 33.1025 75.0645L32.6748 75.0049C29.8499 74.5648 27.1817 73.8769 24.8242 72.9814L24.3574 72.7998C9.55192 66.897 0.117127 52.5595 0.672852 36.7949L0.703125 36.0879C0.87526 32.5971 1.39809 29.7246 2.43066 26.5459L2.6543 25.876C7.49382 11.8697 20.0911 2.01964 34.9082 0.726562L35.5381 0.6875ZM63.3564 58.5049C63.2473 59.1497 63.0475 60.596 62.875 61.9531C62.7802 62.6991 62.6937 63.4131 62.6348 63.9434C62.6177 64.0972 62.6047 64.2355 62.5928 64.3535C62.7515 64.308 62.9474 64.2523 63.1699 64.1836C63.7843 63.9938 64.5965 63.7297 65.4072 63.459C66.218 63.1883 67.025 62.912 67.6279 62.6953C67.8203 62.6262 67.9894 62.5598 68.1318 62.5059C68.0291 62.4147 67.9086 62.3069 67.7705 62.1875C67.5384 61.9868 67.2619 61.7507 66.9551 61.4922L65.957 60.6611C64.8338 59.7332 63.8023 58.8762 63.3564 58.5049Z" fill="#058FA2" stroke="#058FA2" stroke-width="0.7"/>
<mask id="path-2-outside-1_3380_5711" maskUnits="userSpaceOnUse" x="14" y="15" width="47" height="55" fill="black">
<rect fill="white" x="14" y="15" width="47" height="55"/>
<path fill-rule="evenodd" clip-rule="evenodd" d="M50.9201 16.3286C50.7204 16.5142 48.9515 18.5748 46.9891 20.9075C43.104 25.5257 43.026 25.66 43.7845 26.4289C44.1194 26.7687 44.2578 26.7974 45.5608 26.7974H46.9737V34.6021V42.4069H48.1579H49.3421V33.7933C49.3421 23.9083 49.4321 24.5518 48.0282 24.4018L47.2709 24.3209L49.4256 21.7694C50.6108 20.366 51.6439 19.2178 51.7215 19.2178C51.799 19.2178 52.832 20.366 54.0171 21.7694L56.1716 24.3209L55.4036 24.4018C53.9872 24.551 54.079 23.9001 54.079 33.7933V42.4069H55.2632H56.4474V34.6021V26.7974H57.8603C59.1632 26.7974 59.3016 26.7687 59.6366 26.4289C60.1235 25.9354 60.1081 25.3024 59.5941 24.6702C58.1047 22.8379 52.9322 16.7419 52.5797 16.4036C52.0486 15.8936 51.4182 15.8651 50.9201 16.3286ZM33.1266 30.7681L32.7632 31.1364V38.8047V46.473L33.1266 46.8413L33.4898 47.2098H37.5H41.5102L41.8734 46.8413L42.2368 46.473V38.8047V31.1364L41.8734 30.7681L41.5102 30.3996H37.5H33.4898L33.1266 30.7681ZM35.1316 38.8047V44.8083H37.5H39.8684V38.8047V32.8011H37.5H35.1316V38.8047ZM18.916 37.9724L18.5526 38.3408V42.4069V46.473L18.916 46.8413L19.2793 47.2098H23.2895H27.2997L27.6629 46.8413L28.0263 46.473V42.4069V38.3408L27.6629 37.9724L27.2997 37.604H23.2895H19.2793L18.916 37.9724ZM20.9211 42.4069V44.8083H23.2895H25.6579V42.4069V40.0054H23.2895H20.9211V42.4069ZM46.9737 46.0091V47.2098H48.1579H49.3421V46.0091V44.8083H48.1579H46.9737V46.0091ZM50.5263 46.0091V47.2098H51.7105H52.8947V46.0091V44.8083H51.7105H50.5263V46.0091ZM54.079 46.0091V47.2098H55.2632H56.4474V46.0091V44.8083H55.2632H54.079V46.0091ZM15 50.812V52.0127H37.5H60V50.812V49.6112H37.5H15V50.812Z"/>
</mask>
<path fill-rule="evenodd" clip-rule="evenodd" d="M50.9201 16.3286C50.7204 16.5142 48.9515 18.5748 46.9891 20.9075C43.104 25.5257 43.026 25.66 43.7845 26.4289C44.1194 26.7687 44.2578 26.7974 45.5608 26.7974H46.9737V34.6021V42.4069H48.1579H49.3421V33.7933C49.3421 23.9083 49.4321 24.5518 48.0282 24.4018L47.2709 24.3209L49.4256 21.7694C50.6108 20.366 51.6439 19.2178 51.7215 19.2178C51.799 19.2178 52.832 20.366 54.0171 21.7694L56.1716 24.3209L55.4036 24.4018C53.9872 24.551 54.079 23.9001 54.079 33.7933V42.4069H55.2632H56.4474V34.6021V26.7974H57.8603C59.1632 26.7974 59.3016 26.7687 59.6366 26.4289C60.1235 25.9354 60.1081 25.3024 59.5941 24.6702C58.1047 22.8379 52.9322 16.7419 52.5797 16.4036C52.0486 15.8936 51.4182 15.8651 50.9201 16.3286ZM33.1266 30.7681L32.7632 31.1364V38.8047V46.473L33.1266 46.8413L33.4898 47.2098H37.5H41.5102L41.8734 46.8413L42.2368 46.473V38.8047V31.1364L41.8734 30.7681L41.5102 30.3996H37.5H33.4898L33.1266 30.7681ZM35.1316 38.8047V44.8083H37.5H39.8684V38.8047V32.8011H37.5H35.1316V38.8047ZM18.916 37.9724L18.5526 38.3408V42.4069V46.473L18.916 46.8413L19.2793 47.2098H23.2895H27.2997L27.6629 46.8413L28.0263 46.473V42.4069V38.3408L27.6629 37.9724L27.2997 37.604H23.2895H19.2793L18.916 37.9724ZM20.9211 42.4069V44.8083H23.2895H25.6579V42.4069V40.0054H23.2895H20.9211V42.4069ZM46.9737 46.0091V47.2098H48.1579H49.3421V46.0091V44.8083H48.1579H46.9737V46.0091ZM50.5263 46.0091V47.2098H51.7105H52.8947V46.0091V44.8083H51.7105H50.5263V46.0091ZM54.079 46.0091V47.2098H55.2632H56.4474V46.0091V44.8083H55.2632H54.079V46.0091ZM15 50.812V52.0127H37.5H60V50.812V49.6112H37.5H15V50.812Z" fill="#058FA2"/>
<path d="M56.5767 69L56.7517 68.9031C56.621 68.6673 56.4872 68.433 56.3767 68.2451C56.2693 68.0627 56.1765 67.9114 56.1315 67.8519L55.9721 67.9726L55.8126 68.0933C55.8404 68.1301 55.9201 68.258 56.0319 68.448C56.1406 68.6326 56.2727 68.8638 56.4018 69.0969L56.5767 69ZM50.9201 16.3286L51.1924 16.6215L51.1926 16.6214L50.9201 16.3286ZM46.9891 20.9075L47.2952 21.165L47.2952 21.165L46.9891 20.9075ZM43.7845 26.4289L44.0693 26.1481L44.0692 26.148L43.7845 26.4289ZM46.9737 26.7974H47.3737V26.3974H46.9737V26.7974ZM46.9737 42.4069H46.5737V42.8069H46.9737V42.4069ZM49.3421 42.4069V42.8069H49.7421V42.4069H49.3421ZM48.0282 24.4018L47.9857 24.7995H47.9857L48.0282 24.4018ZM47.2709 24.3209L46.9653 24.0628L46.4791 24.6386L47.2284 24.7187L47.2709 24.3209ZM49.4256 21.7694L49.12 21.5113L49.12 21.5113L49.4256 21.7694ZM54.0171 21.7694L54.3227 21.5113L54.3227 21.5113L54.0171 21.7694ZM56.1716 24.3209L56.2135 24.7187L56.9642 24.6396L56.4772 24.0628L56.1716 24.3209ZM55.4036 24.4018L55.4455 24.7996L55.4455 24.7996L55.4036 24.4018ZM54.079 42.4069H53.679V42.8069H54.079V42.4069ZM56.4474 42.4069V42.8069H56.8474V42.4069H56.4474ZM56.4474 26.7974V26.3974H56.0474V26.7974H56.4474ZM59.6366 26.4289L59.3518 26.148L59.3517 26.1481L59.6366 26.4289ZM59.5941 24.6702L59.2837 24.9225L59.2837 24.9225L59.5941 24.6702ZM52.5797 16.4036L52.3027 16.6921L52.3027 16.6922L52.5797 16.4036ZM33.1266 30.7681L33.4113 31.049L33.4114 31.0489L33.1266 30.7681ZM32.7632 31.1364L32.4784 30.8555L32.3632 30.9723V31.1364H32.7632ZM32.7632 46.473H32.3632V46.6371L32.4784 46.7539L32.7632 46.473ZM33.1266 46.8413L33.4114 46.5605L33.4113 46.5604L33.1266 46.8413ZM33.4898 47.2098L33.205 47.4906L33.3225 47.6098H33.4898V47.2098ZM41.5102 47.2098V47.6098H41.6775L41.795 47.4906L41.5102 47.2098ZM41.8734 46.8413L41.5887 46.5604L41.5886 46.5605L41.8734 46.8413ZM42.2368 46.473L42.5216 46.7539L42.6368 46.6371V46.473H42.2368ZM42.2368 31.1364H42.6368V30.9723L42.5216 30.8555L42.2368 31.1364ZM41.8734 30.7681L41.5886 31.0489L41.5887 31.049L41.8734 30.7681ZM41.5102 30.3996L41.795 30.1188L41.6775 29.9996H41.5102V30.3996ZM33.4898 30.3996V29.9996H33.3225L33.205 30.1188L33.4898 30.3996ZM35.1316 44.8083H34.7316V45.2083H35.1316V44.8083ZM39.8684 44.8083V45.2083H40.2684V44.8083H39.8684ZM39.8684 32.8011H40.2684V32.4011H39.8684V32.8011ZM35.1316 32.8011V32.4011H34.7316V32.8011H35.1316ZM18.916 37.9724L19.2008 38.2534L19.2009 38.2533L18.916 37.9724ZM18.5526 38.3408L18.2679 38.0598L18.1526 38.1767V38.3408H18.5526ZM18.5526 46.473H18.1526V46.6371L18.2679 46.7539L18.5526 46.473ZM18.916 46.8413L19.2009 46.5605L19.2008 46.5604L18.916 46.8413ZM19.2793 47.2098L18.9944 47.4906L19.1119 47.6098H19.2793V47.2098ZM27.2997 47.2098V47.6098H27.467L27.5845 47.4906L27.2997 47.2098ZM27.6629 46.8413L27.3782 46.5604L27.3781 46.5605L27.6629 46.8413ZM28.0263 46.473L28.3111 46.7539L28.4263 46.6371V46.473H28.0263ZM28.0263 38.3408H28.4263V38.1767L28.3111 38.0598L28.0263 38.3408ZM27.6629 37.9724L27.3781 38.2533L27.3782 38.2534L27.6629 37.9724ZM27.2997 37.604L27.5845 37.3231L27.467 37.204H27.2997V37.604ZM19.2793 37.604V37.204H19.1119L18.9944 37.3231L19.2793 37.604ZM20.9211 44.8083H20.5211V45.2083H20.9211V44.8083ZM25.6579 44.8083V45.2083H26.0579V44.8083H25.6579ZM25.6579 40.0054H26.0579V39.6054H25.6579V40.0054ZM20.9211 40.0054V39.6054H20.5211V40.0054H20.9211ZM46.9737 47.2098H46.5737V47.6098H46.9737V47.2098ZM49.3421 47.2098V47.6098H49.7421V47.2098H49.3421ZM49.3421 44.8083H49.7421V44.4083H49.3421V44.8083ZM46.9737 44.8083V44.4083H46.5737V44.8083H46.9737ZM50.5263 47.2098H50.1263V47.6098H50.5263V47.2098ZM52.8947 47.2098V47.6098H53.2947V47.2098H52.8947ZM52.8947 44.8083H53.2947V44.4083H52.8947V44.8083ZM50.5263 44.8083V44.4083H50.1263V44.8083H50.5263ZM54.079 47.2098H53.679V47.6098H54.079V47.2098ZM56.4474 47.2098V47.6098H56.8474V47.2098H56.4474ZM56.4474 44.8083H56.8474V44.4083H56.4474V44.8083ZM54.079 44.8083V44.4083H53.679V44.8083H54.079ZM15 52.0127H14.6V52.4127H15V52.0127ZM60 52.0127V52.4127H60.4V52.0127H60ZM60 49.6112H60.4V49.2112H60V49.6112ZM15 49.6112V49.2112H14.6V49.6112H15ZM50.9201 16.3286L50.6477 16.0356C50.579 16.0995 50.414 16.2833 50.197 16.5304C49.971 16.7877 49.6688 17.1369 49.3121 17.5524C48.5985 18.3835 47.6648 19.4829 46.683 20.65L46.9891 20.9075L47.2952 21.165C48.2757 19.9995 49.2077 18.9022 49.9191 18.0735C50.2749 17.659 50.575 17.3124 50.7981 17.0583C50.9098 16.9311 51.0014 16.828 51.0707 16.7516C51.1054 16.7133 51.1336 16.6827 51.1555 16.6595C51.1664 16.6479 51.1752 16.6388 51.1819 16.632C51.1853 16.6285 51.1879 16.626 51.1898 16.6241C51.1918 16.6221 51.1926 16.6214 51.1924 16.6215L50.9201 16.3286ZM46.9891 20.9075L46.683 20.65C44.7559 22.9407 43.7323 24.1652 43.2995 24.9109C43.082 25.2856 42.9582 25.6282 43.0266 25.9698C43.0924 26.2979 43.3235 26.5313 43.4997 26.7098L43.7845 26.4289L44.0692 26.148C43.8661 25.9422 43.8226 25.8704 43.8111 25.8127C43.8022 25.7686 43.7985 25.6447 43.9914 25.3125C44.3792 24.6443 45.3371 23.4925 47.2952 21.165L46.9891 20.9075ZM43.7845 26.4289L43.4996 26.7098C43.5884 26.7998 43.6863 26.8926 43.8075 26.9687C43.9345 27.0484 44.07 27.0994 44.2284 27.1323C44.5173 27.1922 44.9258 27.1974 45.5608 27.1974V26.7974V26.3974C44.8928 26.3974 44.5807 26.3883 44.3909 26.3489C44.3099 26.3321 44.2665 26.3123 44.2327 26.291C44.193 26.2661 44.148 26.228 44.0693 26.1481L43.7845 26.4289ZM45.5608 26.7974V27.1974H46.9737V26.7974V26.3974H45.5608V26.7974ZM46.9737 26.7974H46.5737V34.6021H46.9737H47.3737V26.7974H46.9737ZM46.9737 34.6021H46.5737V42.4069H46.9737H47.3737V34.6021H46.9737ZM46.9737 42.4069V42.8069H48.1579V42.4069V42.0069H46.9737V42.4069ZM48.1579 42.4069V42.8069H49.3421V42.4069V42.0069H48.1579V42.4069ZM49.3421 42.4069H49.7421V33.7933H49.3421H48.9421V42.4069H49.3421ZM49.3421 33.7933H49.7421C49.7421 31.3244 49.7477 29.5075 49.7342 28.1727C49.7208 26.8441 49.6884 25.9678 49.6078 25.3915C49.5305 24.8392 49.3938 24.4202 49.034 24.2009C48.8658 24.0983 48.6857 24.0641 48.5361 24.0459C48.46 24.0366 48.3802 24.0304 48.3053 24.0246C48.2279 24.0186 48.1517 24.0127 48.0707 24.0041L48.0282 24.4018L47.9857 24.7995C48.0802 24.8096 48.1679 24.8163 48.2434 24.8222C48.3214 24.8282 48.3836 24.8332 48.4394 24.84C48.5535 24.8539 48.5968 24.8713 48.6176 24.8839C48.6357 24.895 48.7398 24.9611 48.8155 25.5023C48.8878 26.0195 48.9207 26.8451 48.9343 28.1808C48.9477 29.5102 48.9421 31.3197 48.9421 33.7933H49.3421ZM48.0282 24.4018L48.0707 24.0041L47.3134 23.9232L47.2709 24.3209L47.2284 24.7187L47.9857 24.7995L48.0282 24.4018ZM47.2709 24.3209L47.5765 24.579L49.7312 22.0274L49.4256 21.7694L49.12 21.5113L46.9653 24.0628L47.2709 24.3209ZM49.4256 21.7694L49.7312 22.0275C50.3219 21.328 50.8737 20.6935 51.2863 20.2349C51.493 20.0051 51.6624 19.8223 51.7832 19.6983C51.8443 19.6356 51.8884 19.5927 51.9165 19.5674C51.9315 19.554 51.935 19.5518 51.9302 19.5553C51.9282 19.5567 51.9158 19.5658 51.8958 19.5761C51.8894 19.5794 51.8205 19.6178 51.7215 19.6178V19.2178V18.8178C51.6176 18.8178 51.542 18.8584 51.5271 18.8662C51.4986 18.881 51.4758 18.8967 51.4617 18.9068C51.4327 18.9278 51.4048 18.9517 51.3818 18.9724C51.334 19.0154 51.2754 19.0731 51.2102 19.14C51.0785 19.2752 50.9009 19.4671 50.6916 19.6998C50.2719 20.1662 49.7145 20.8073 49.12 21.5113L49.4256 21.7694ZM51.7215 19.2178V19.6178C51.6225 19.6178 51.5535 19.5794 51.5472 19.5761C51.5272 19.5658 51.5147 19.5567 51.5128 19.5553C51.508 19.5518 51.5115 19.554 51.5264 19.5674C51.5545 19.5927 51.5986 19.6356 51.6598 19.6983C51.7805 19.8223 51.9499 20.0051 52.1566 20.2349C52.5691 20.6934 53.1208 21.328 53.7115 22.0274L54.0171 21.7694L54.3227 21.5113C53.7282 20.8074 53.1709 20.1662 52.7513 19.6998C52.542 19.4671 52.3645 19.2752 52.2327 19.14C52.1676 19.0732 52.109 19.0154 52.0612 18.9724C52.0381 18.9517 52.0103 18.9278 51.9813 18.9068C51.9672 18.8967 51.9444 18.881 51.9159 18.8662C51.901 18.8585 51.8253 18.8178 51.7215 18.8178V19.2178ZM54.0171 21.7694L53.7115 22.0274L55.866 24.579L56.1716 24.3209L56.4772 24.0628L54.3227 21.5113L54.0171 21.7694ZM56.1716 24.3209L56.1297 23.9231L55.3617 24.004L55.4036 24.4018L55.4455 24.7996L56.2135 24.7187L56.1716 24.3209ZM55.4036 24.4018L55.3617 24.004C55.28 24.0126 55.2031 24.0184 55.1251 24.0243C55.0497 24.03 54.9693 24.0361 54.8929 24.0452C54.7426 24.063 54.5619 24.0966 54.393 24.1981C54.0302 24.4161 53.892 24.8351 53.814 25.3877C53.7328 25.9638 53.7003 26.8402 53.6868 28.1691C53.6732 29.5043 53.679 31.3224 53.679 33.7933H54.079H54.479C54.479 31.3176 54.4732 29.507 54.4867 28.1772C54.5003 26.8411 54.5333 26.0159 54.6062 25.4994C54.6824 24.9594 54.7868 24.8948 54.8051 24.8838C54.8268 24.8707 54.8714 24.8534 54.9872 24.8396C55.0438 24.8329 55.1067 24.828 55.1855 24.822C55.2618 24.8163 55.3502 24.8096 55.4455 24.7996L55.4036 24.4018ZM54.079 33.7933H53.679V42.4069H54.079H54.479V33.7933H54.079ZM54.079 42.4069V42.8069H55.2632V42.4069V42.0069H54.079V42.4069ZM55.2632 42.4069V42.8069H56.4474V42.4069V42.0069H55.2632V42.4069ZM56.4474 42.4069H56.8474V34.6021H56.4474H56.0474V42.4069H56.4474ZM56.4474 34.6021H56.8474V26.7974H56.4474H56.0474V34.6021H56.4474ZM56.4474 26.7974V27.1974H57.8603V26.7974V26.3974H56.4474V26.7974ZM57.8603 26.7974V27.1974C58.4953 27.1974 58.9038 27.1922 59.1927 27.1323C59.351 27.0994 59.4865 27.0484 59.6136 26.9687C59.7348 26.8926 59.8327 26.7998 59.9215 26.7098L59.6366 26.4289L59.3517 26.1481C59.273 26.228 59.228 26.2661 59.1884 26.291C59.1545 26.3123 59.1112 26.3321 59.0302 26.3489C58.8404 26.3883 58.5282 26.3974 57.8603 26.3974V26.7974ZM59.6366 26.4289L59.9214 26.7099C60.2305 26.3965 60.4007 26.0135 60.3905 25.5919C60.3806 25.1794 60.1993 24.7805 59.9045 24.4178L59.5941 24.6702L59.2837 24.9225C59.5029 25.1921 59.5863 25.4257 59.5908 25.6112C59.595 25.7876 59.5296 25.9679 59.3518 26.148L59.6366 26.4289ZM59.5941 24.6702L59.9045 24.4179C59.1568 23.498 57.4887 21.5129 55.9656 19.7178C55.2035 18.8198 54.4767 17.968 53.9181 17.3193C53.3702 16.6831 52.9627 16.2168 52.8567 16.115L52.5797 16.4036L52.3027 16.6922C52.373 16.7596 52.7442 17.1821 53.3119 17.8413C53.8688 18.488 54.5942 19.3382 55.3556 20.2354C56.8791 22.031 58.542 24.01 59.2837 24.9225L59.5941 24.6702ZM52.5797 16.4036L52.8568 16.1151C52.5375 15.8085 52.1592 15.6197 51.7556 15.6014C51.3477 15.583 50.9641 15.7413 50.6476 16.0357L50.9201 16.3286L51.1926 16.6214C51.3742 16.4524 51.5548 16.3932 51.7195 16.4006C51.8884 16.4083 52.0908 16.4887 52.3027 16.6921L52.5797 16.4036ZM33.1266 30.7681L32.8418 30.4871L32.4784 30.8555L32.7632 31.1364L33.0479 31.4173L33.4113 31.049L33.1266 30.7681ZM32.7632 31.1364H32.3632V38.8047H32.7632H33.1632V31.1364H32.7632ZM32.7632 38.8047H32.3632V46.473H32.7632H33.1632V38.8047H32.7632ZM32.7632 46.473L32.4784 46.7539L32.8418 47.1223L33.1266 46.8413L33.4113 46.5604L33.0479 46.1921L32.7632 46.473ZM33.1266 46.8413L32.8417 47.1221L33.205 47.4906L33.4898 47.2098L33.7747 46.929L33.4114 46.5605L33.1266 46.8413ZM33.4898 47.2098V47.6098H37.5V47.2098V46.8098H33.4898V47.2098ZM37.5 47.2098V47.6098H41.5102V47.2098V46.8098H37.5V47.2098ZM41.5102 47.2098L41.795 47.4906L42.1583 47.1221L41.8734 46.8413L41.5886 46.5605L41.2253 46.929L41.5102 47.2098ZM41.8734 46.8413L42.1582 47.1223L42.5216 46.7539L42.2368 46.473L41.9521 46.1921L41.5887 46.5604L41.8734 46.8413ZM42.2368 46.473H42.6368V38.8047H42.2368H41.8368V46.473H42.2368ZM42.2368 38.8047H42.6368V31.1364H42.2368H41.8368V38.8047H42.2368ZM42.2368 31.1364L42.5216 30.8555L42.1582 30.4871L41.8734 30.7681L41.5887 31.049L41.9521 31.4173L42.2368 31.1364ZM41.8734 30.7681L42.1583 30.4873L41.795 30.1188L41.5102 30.3996L41.2253 30.6804L41.5886 31.0489L41.8734 30.7681ZM41.5102 30.3996V29.9996H37.5V30.3996V30.7996H41.5102V30.3996ZM37.5 30.3996V29.9996H33.4898V30.3996V30.7996H37.5V30.3996ZM33.4898 30.3996L33.205 30.1188L32.8417 30.4873L33.1266 30.7681L33.4114 31.0489L33.7747 30.6804L33.4898 30.3996ZM35.1316 38.8047H34.7316V44.8083H35.1316H35.5316V38.8047H35.1316ZM35.1316 44.8083V45.2083H37.5V44.8083V44.4083H35.1316V44.8083ZM37.5 44.8083V45.2083H39.8684V44.8083V44.4083H37.5V44.8083ZM39.8684 44.8083H40.2684V38.8047H39.8684H39.4684V44.8083H39.8684ZM39.8684 38.8047H40.2684V32.8011H39.8684H39.4684V38.8047H39.8684ZM39.8684 32.8011V32.4011H37.5V32.8011V33.2011H39.8684V32.8011ZM37.5 32.8011V32.4011H35.1316V32.8011V33.2011H37.5V32.8011ZM35.1316 32.8011H34.7316V38.8047H35.1316H35.5316V32.8011H35.1316ZM18.916 37.9724L18.6313 37.6915L18.2679 38.0598L18.5526 38.3408L18.8374 38.6217L19.2008 38.2534L18.916 37.9724ZM18.5526 38.3408H18.1526V42.4069H18.5526H18.9526V38.3408H18.5526ZM18.5526 42.4069H18.1526V46.473H18.5526H18.9526V42.4069H18.5526ZM18.5526 46.473L18.2679 46.7539L18.6313 47.1223L18.916 46.8413L19.2008 46.5604L18.8374 46.1921L18.5526 46.473ZM18.916 46.8413L18.6312 47.1221L18.9944 47.4906L19.2793 47.2098L19.5641 46.929L19.2009 46.5605L18.916 46.8413ZM19.2793 47.2098V47.6098H23.2895V47.2098V46.8098H19.2793V47.2098ZM23.2895 47.2098V47.6098H27.2997V47.2098V46.8098H23.2895V47.2098ZM27.2997 47.2098L27.5845 47.4906L27.9478 47.1221L27.6629 46.8413L27.3781 46.5605L27.0148 46.929L27.2997 47.2098ZM27.6629 46.8413L27.9477 47.1223L28.3111 46.7539L28.0263 46.473L27.7416 46.1921L27.3782 46.5604L27.6629 46.8413ZM28.0263 46.473H28.4263V42.4069H28.0263H27.6263V46.473H28.0263ZM28.0263 42.4069H28.4263V38.3408H28.0263H27.6263V42.4069H28.0263ZM28.0263 38.3408L28.3111 38.0598L27.9476 37.6915L27.6629 37.9724L27.3782 38.2534L27.7416 38.6217L28.0263 38.3408ZM27.6629 37.9724L27.9478 37.6916L27.5845 37.3231L27.2997 37.604L27.0148 37.8848L27.3781 38.2533L27.6629 37.9724ZM27.2997 37.604V37.204H23.2895V37.604V38.004H27.2997V37.604ZM23.2895 37.604V37.204H19.2793V37.604V38.004H23.2895V37.604ZM19.2793 37.604L18.9944 37.3231L18.6312 37.6916L18.916 37.9724L19.2009 38.2533L19.5641 37.8848L19.2793 37.604ZM20.9211 42.4069H20.5211V44.8083H20.9211H21.3211V42.4069H20.9211ZM20.9211 44.8083V45.2083H23.2895V44.8083V44.4083H20.9211V44.8083ZM23.2895 44.8083V45.2083H25.6579V44.8083V44.4083H23.2895V44.8083ZM25.6579 44.8083H26.0579V42.4069H25.6579H25.2579V44.8083H25.6579ZM25.6579 42.4069H26.0579V40.0054H25.6579H25.2579V42.4069H25.6579ZM25.6579 40.0054V39.6054H23.2895V40.0054V40.4054H25.6579V40.0054ZM23.2895 40.0054V39.6054H20.9211V40.0054V40.4054H23.2895V40.0054ZM20.9211 40.0054H20.5211V42.4069H20.9211H21.3211V40.0054H20.9211ZM46.9737 46.0091H46.5737V47.2098H46.9737H47.3737V46.0091H46.9737ZM46.9737 47.2098V47.6098H48.1579V47.2098V46.8098H46.9737V47.2098ZM48.1579 47.2098V47.6098H49.3421V47.2098V46.8098H48.1579V47.2098ZM49.3421 47.2098H49.7421V46.0091H49.3421H48.9421V47.2098H49.3421ZM49.3421 46.0091H49.7421V44.8083H49.3421H48.9421V46.0091H49.3421ZM49.3421 44.8083V44.4083H48.1579V44.8083V45.2083H49.3421V44.8083ZM48.1579 44.8083V44.4083H46.9737V44.8083V45.2083H48.1579V44.8083ZM46.9737 44.8083H46.5737V46.0091H46.9737H47.3737V44.8083H46.9737ZM50.5263 46.0091H50.1263V47.2098H50.5263H50.9263V46.0091H50.5263ZM50.5263 47.2098V47.6098H51.7105V47.2098V46.8098H50.5263V47.2098ZM51.7105 47.2098V47.6098H52.8947V47.2098V46.8098H51.7105V47.2098ZM52.8947 47.2098H53.2947V46.0091H52.8947H52.4947V47.2098H52.8947ZM52.8947 46.0091H53.2947V44.8083H52.8947H52.4947V46.0091H52.8947ZM52.8947 44.8083V44.4083H51.7105V44.8083V45.2083H52.8947V44.8083ZM51.7105 44.8083V44.4083H50.5263V44.8083V45.2083H51.7105V44.8083ZM50.5263 44.8083H50.1263V46.0091H50.5263H50.9263V44.8083H50.5263ZM54.079 46.0091H53.679V47.2098H54.079H54.479V46.0091H54.079ZM54.079 47.2098V47.6098H55.2632V47.2098V46.8098H54.079V47.2098ZM55.2632 47.2098V47.6098H56.4474V47.2098V46.8098H55.2632V47.2098ZM56.4474 47.2098H56.8474V46.0091H56.4474H56.0474V47.2098H56.4474ZM56.4474 46.0091H56.8474V44.8083H56.4474H56.0474V46.0091H56.4474ZM56.4474 44.8083V44.4083H55.2632V44.8083V45.2083H56.4474V44.8083ZM55.2632 44.8083V44.4083H54.079V44.8083V45.2083H55.2632V44.8083ZM54.079 44.8083H53.679V46.0091H54.079H54.479V44.8083H54.079ZM15 50.812H14.6V52.0127H15H15.4V50.812H15ZM15 52.0127V52.4127H37.5V52.0127V51.6127H15V52.0127ZM37.5 52.0127V52.4127H60V52.0127V51.6127H37.5V52.0127ZM60 52.0127H60.4V50.812H60H59.6V52.0127H60ZM60 50.812H60.4V49.6112H60H59.6V50.812H60ZM60 49.6112V49.2112H37.5V49.6112V50.0112H60V49.6112ZM37.5 49.6112V49.2112H15V49.6112V50.0112H37.5V49.6112ZM15 49.6112H14.6V50.812H15H15.4V49.6112H15Z" fill="#058FA2" mask="url(#path-2-outside-1_3380_5711)"/>
<path d="M60.2002 49.3838V52.1543H14.7998V49.3838H60.2002ZM21.1211 44.6406H25.458V40.2988H21.1211V44.6406ZM28.2266 46.5674L27.8047 46.9893L27.4414 47.3535L27.3828 47.4121H19.1963L19.1377 47.3535L18.7744 46.9893L18.3525 46.5674V38.3721L18.7744 37.9502L19.1377 37.5859L19.1963 37.5273H27.3828L27.4414 37.5859L27.8047 37.9502L28.2266 38.3721V46.5674Z" fill="#FDC114" stroke="#FDC114" stroke-width="0.4"/>
</svg>
