<svg width="72" height="72" viewBox="0 0 72 72" fill="none" xmlns="http://www.w3.org/2000/svg">
<g clip-path="url(#clip0_1229_2344)">
<path d="M20.16 2.87988C9.045 2.87988 0 11.9249 0 23.0399C0 28.5974 2.24438 33.6543 5.895 37.3049C5.92312 37.3218 5.95688 37.3386 5.985 37.3499C6.02437 37.3893 6.03562 37.4511 6.075 37.4849C6.17062 37.603 6.345 37.828 6.66 38.4749C7.09875 39.3749 7.63875 40.843 7.92 42.9749C8.02125 43.7399 7.875 46.5355 7.515 49.4999C7.155 52.4643 6.63188 55.7661 6.12 58.2299C5.65875 60.4405 5.70375 62.4599 6.615 64.1699C7.52625 65.8799 9.24187 67.0949 11.52 67.7699C11.5819 67.7755 11.6381 67.7755 11.7 67.7699L18.81 68.9849C18.8269 68.9849 18.8381 68.9849 18.855 68.9849C19.2712 69.0355 20.52 69.1311 21.87 68.9849C22.545 68.9118 23.2481 68.8161 23.94 68.4899C24.6319 68.1636 25.3856 67.5561 25.695 66.6449C26.0381 65.6268 25.8469 64.5468 25.515 63.8099C25.1831 63.073 24.8288 62.5836 24.525 62.0099C23.9175 60.8624 23.3438 59.3886 24.21 55.6649C24.9581 52.453 25.7738 49.9161 26.73 46.7999C27.5287 44.1955 28.6313 42.8061 29.475 42.0299C30.3187 41.2536 30.735 41.1749 30.735 41.1749C30.8756 41.1355 31.0162 41.0736 31.14 40.9949L55.08 35.0549C55.7156 34.8918 56.16 34.318 56.16 33.6599V12.4199C56.16 11.7618 55.7156 11.188 55.08 11.0249L26.325 3.86988L26.235 3.82488V3.86988C24.3169 3.26238 22.2862 2.87988 20.16 2.87988ZM20.16 5.75988C22.005 5.75988 23.7994 6.07488 25.47 6.61488C25.4981 6.61488 25.5319 6.61488 25.56 6.61488L53.28 13.5449V32.5349L25.56 39.4649C25.5319 39.4649 25.4981 39.4649 25.47 39.4649C23.7994 40.0049 22.005 40.3199 20.16 40.3199C15.4406 40.3199 11.1713 38.4299 8.055 35.3699C8.01 35.3361 7.965 35.308 7.92 35.2799C7.89187 35.2518 7.85812 35.218 7.83 35.1899C7.80188 35.1561 7.77375 35.128 7.74 35.0999C4.71938 31.9893 2.88 27.7255 2.88 23.0399C2.88 13.483 10.6031 5.75988 20.16 5.75988ZM20.16 12.9599C14.6081 12.9599 10.08 17.488 10.08 23.0399C10.08 28.5918 14.6081 33.1199 20.16 33.1199C25.7119 33.1199 30.24 28.5918 30.24 23.0399C30.24 17.488 25.7119 12.9599 20.16 12.9599ZM58.725 14.3549C57.9656 14.5068 57.4425 15.2099 57.5212 15.9861C57.6056 16.7568 58.2637 17.3361 59.04 17.3249C62.3812 17.3249 62.9156 17.8255 64.035 18.5399C65.1544 19.2543 66.8644 20.2049 70.56 20.2049C71.1394 20.2836 71.7131 20.0193 72.0281 19.5299C72.3431 19.0349 72.3431 18.4049 72.0281 17.9099C71.7131 17.4205 71.1394 17.1561 70.56 17.2349C67.275 17.2349 66.78 16.7455 65.655 16.0199C64.53 15.2943 62.7862 14.3549 59.04 14.3549C58.9331 14.3436 58.8319 14.3436 58.725 14.3549ZM20.16 15.8399C24.1537 15.8399 27.36 19.0461 27.36 23.0399C27.36 27.0336 24.1537 30.2399 20.16 30.2399C16.1663 30.2399 12.96 27.0336 12.96 23.0399C12.96 19.0461 16.1663 15.8399 20.16 15.8399ZM58.725 21.5549C57.9656 21.7068 57.4425 22.4099 57.5212 23.1861C57.6056 23.9568 58.2637 24.5361 59.04 24.5249C62.3812 24.5249 62.9156 25.0255 64.035 25.7399C65.1544 26.4543 66.8644 27.4049 70.56 27.4049C71.1394 27.4836 71.7131 27.2193 72.0281 26.7299C72.3431 26.2349 72.3431 25.6049 72.0281 25.1099C71.7131 24.6205 71.1394 24.3561 70.56 24.4349C67.275 24.4349 66.78 23.9455 65.655 23.2199C64.53 22.4943 62.7862 21.5549 59.04 21.5549C58.9331 21.5436 58.8319 21.5436 58.725 21.5549ZM58.725 28.7549C57.9656 28.9068 57.4425 29.6099 57.5212 30.3861C57.6056 31.1568 58.2637 31.7361 59.04 31.7249C62.3812 31.7249 62.9156 32.2255 64.035 32.9399C65.1544 33.6543 66.8644 34.6049 70.56 34.6049C71.1394 34.6836 71.7131 34.4193 72.0281 33.9299C72.3431 33.4349 72.3431 32.8049 72.0281 32.3099C71.7131 31.8205 71.1394 31.5561 70.56 31.6349C67.275 31.6349 66.78 31.1455 65.655 30.4199C64.53 29.6943 62.7862 28.7549 59.04 28.7549C58.9331 28.7436 58.8319 28.7436 58.725 28.7549ZM10.44 40.6799C13.3313 42.283 16.6275 43.1999 20.16 43.1999C22.0387 43.1999 23.8387 42.8793 25.56 42.3899C24.9862 43.3574 24.4237 44.5499 23.985 45.9899C23.0344 49.0949 22.1962 51.6655 21.42 54.9899C20.4412 59.1974 21.1219 61.7793 21.96 63.3599C22.3819 64.153 22.7587 64.6593 22.905 64.9799C23.0513 65.3005 23.085 65.3061 22.95 65.6999C22.95 65.6943 22.9669 65.7674 22.725 65.8799C22.4831 65.9924 22.0331 66.0993 21.555 66.1499C20.6156 66.2511 19.5694 66.1386 19.26 66.1049H19.215L12.33 64.9799C12.3075 64.9743 12.3075 64.9405 12.285 64.9349C10.5131 64.3949 9.60188 63.703 9.135 62.8199C8.6625 61.9255 8.5725 60.6543 8.955 58.8149C9.495 56.2386 10.0238 52.8636 10.395 49.8149C10.7663 46.7661 11.0138 44.2405 10.8 42.6149C10.71 41.9118 10.575 41.2761 10.44 40.6799Z" fill="#058FA2"/>
</g>
<defs>
<clipPath id="clip0_1229_2344">
<rect width="72" height="72" fill="white"/>
</clipPath>
</defs>
</svg>
