<svg width="50" height="53" viewBox="0 0 50 53" fill="none" xmlns="http://www.w3.org/2000/svg">
<g clip-path="url(#clip0_961_1719)">
<path d="M48.5359 32.9679C48.5359 28.7162 49.0896 18.0522 47.2263 14.5468C43.0385 6.66851 35.7833 1.38892 26.2728 1.38892C12.5308 1.38892 1.39062 12.5818 1.39062 26.3889C1.39062 40.196 12.5308 51.3889 26.2728 51.3889C31.652 51.3889 36.6324 49.6739 40.7021 46.7584" stroke="#F9BF02" stroke-width="2"/>
<path d="M48.6126 32.9604C47.1208 34.6031 45.8995 34.7284 43.9039 34.7221C43.5635 34.7192 43.2234 34.6925 42.8854 34.6419C39.7522 34.1535 37.1208 31.4866 36.1126 27.7778M36.1116 25.7844L36.1115 25.8025C36.0761 28.7589 34.7881 31.5618 32.5715 33.5125C30.6774 35.1928 28.2301 36.1178 25.6907 36.1112C25.2646 36.1083 24.839 36.0814 24.4085 36.0295C20.4384 35.531 17.1035 32.8082 15.8257 29.0212C14.5476 25.2335 15.5528 21.0496 18.4124 18.2533C21.2712 15.4578 25.4794 14.5419 29.2314 15.8912C33.4022 17.3504 36.1727 21.3084 36.1116 25.7007V25.7844Z" stroke="white" stroke-width="2" stroke-linecap="round"/>
</g>
<defs>
<clipPath id="clip0_961_1719">
<rect width="50" height="52.7778" fill="white"/>
</clipPath>
</defs>
</svg>
