<svg width="52" height="50" viewBox="0 0 52 50" fill="none" xmlns="http://www.w3.org/2000/svg">
<path d="M26 23.3999V22.875C26 21.175 27.0501 20.275 28.1001 19.55C29.1251 18.85 30.1499 17.95 30.1499 16.3C30.1499 14 28.3 12.1499 26 12.1499C23.7 12.1499 21.8501 14 21.8501 16.3M25.9887 29.375H26.0113M38.5 41.0751H28.5L17.375 48.475C15.725 49.575 13.5 48.4001 13.5 46.4001V41.0751C6 41.0751 1 36.0751 1 28.5751V13.575C1 6.07495 6 1.07495 13.5 1.07495H38.5C46 1.07495 51 6.07495 51 13.575V28.5751C51 36.0751 46 41.0751 38.5 41.0751Z" stroke="#058FA2" stroke-width="2" stroke-linecap="round" stroke-linejoin="round"/>
</svg>
