<svg width="60" height="60" viewBox="0 0 60 60" fill="none" xmlns="http://www.w3.org/2000/svg">
<path d="M59.4533 0.598702C57.459 -1.4064 50.9778 2.10253 48.9835 4.10764L41.2558 11.8774H5.85808C4.9856 11.8774 4.23776 12.504 4.11312 13.2559C3.98848 14.1332 4.3624 14.8851 5.23488 15.261L28.6672 24.5347L14.209 38.9464H0.6232C0.37392 38.9464 0.12464 39.197 0 39.4477C0 39.6983 0.12464 40.0742 0.37392 40.0742L11.8408 44.5857C11.9654 44.8364 11.9654 45.2123 12.0901 45.463L11.5915 45.9643C10.8437 46.7162 10.8437 47.844 11.5915 48.596C12.3394 49.3479 13.4611 49.3479 14.209 48.596L14.7075 48.0947C14.9568 48.22 15.3307 48.3453 15.58 48.3453L19.9424 59.624C20.067 59.8747 20.3163 60 20.5656 60C20.6902 60 20.8149 59.8747 20.9395 59.8747C21.0642 59.7494 21.0642 59.624 21.0642 59.4987V46.2149L35.647 31.5525L44.8704 55.1126C45.1197 55.8645 45.9922 56.3657 46.8646 56.2404C47.2386 56.1151 47.4878 55.9898 47.7371 55.7391C48.111 55.3632 48.2357 54.9872 48.2357 54.486V18.8953L55.9634 11.1255C57.9576 9.12041 61.3229 2.47849 59.4533 0.598702Z" fill="#058FA2"/>
</svg>
