<svg width="72" height="72" viewBox="0 0 72 72" fill="none" xmlns="http://www.w3.org/2000/svg">
<g clip-path="url(#clip0_1229_2406)">
<path d="M37.75 63V64.25H39H69C69.9656 64.25 70.75 65.0344 70.75 66C70.75 66.9656 69.9656 67.75 69 67.75H3C2.03436 67.75 1.25 66.9656 1.25 66C1.25 65.0344 2.03436 64.25 3 64.25H33H34.25V63V57V55.75H33H10.971C7.26636 55.75 4.25 52.7336 4.25 49.029C4.25 31.9988 16.9029 17.8427 33.1126 16.3769L34.25 16.2741V15.132V9V7.75H33H30C29.0344 7.75 28.25 6.96564 28.25 6C28.25 5.03436 29.0344 4.25 30 4.25H42C42.9656 4.25 43.75 5.03436 43.75 6C43.75 6.96564 42.9656 7.75 42 7.75H39H37.75V9V15.129V16.2733L38.8899 16.3741C45.903 16.9944 52.4602 19.9123 57.7082 24.831L57.7083 24.8311C64.0891 30.8108 67.75 39.2587 67.75 48V49.029C67.75 52.7336 64.7337 55.75 61.029 55.75H39H37.75V57V63ZM35.961 19.747L35.9546 19.747C35.3484 19.7501 34.7347 19.7688 34.1147 19.8097C19.2832 20.771 7.75 33.6442 7.75 49.026C7.75 50.8066 9.19588 52.247 10.971 52.247H61.029C62.8054 52.247 64.25 50.8023 64.25 49.026V47.997C64.25 40.1061 61.0737 32.7801 55.3139 27.381C50.0332 22.4298 43.2448 19.7533 36.0461 19.747H36.045L35.961 19.747Z" stroke="#058FA2" stroke-width="2.5"/>
</g>
<defs>
<clipPath id="clip0_1229_2406">
<rect width="72" height="72" fill="white"/>
</clipPath>
</defs>
</svg>
