<svg width="68" height="108" viewBox="0 0 68 108" fill="none" xmlns="http://www.w3.org/2000/svg">
<path d="M62.125 106.438H5.875C3.3251 106.438 1.25 104.362 1.25 101.812V6.1875C1.25 3.6376 3.3251 1.5625 5.875 1.5625H62.125C64.6749 1.5625 66.75 3.6376 66.75 6.1875V101.812C66.75 104.362 64.6749 106.438 62.125 106.438ZM5.875 3.3125C4.28865 3.3125 3 4.60115 3 6.1875V101.812C3 103.399 4.28865 104.688 5.875 104.688H62.125C63.7113 104.688 65 103.399 65 101.812V6.1875C65 4.60115 63.7113 3.3125 62.125 3.3125H5.875Z" stroke="#058FA2" stroke-width="2"/>
<path d="M3.125 54.875V53.125H64.875V54.875H3.125Z" stroke="#058FA2" stroke-width="2"/>
<path d="M58.375 73.625C57.8923 73.625 57.5 73.2327 57.5 72.75V63.375C57.5 62.8923 57.8923 62.5 58.375 62.5C58.8577 62.5 59.25 62.8923 59.25 63.375V72.75C59.25 73.2327 58.8577 73.625 58.375 73.625Z" stroke="#FDC114" stroke-width="2"/>
<path d="M34 39.875C33.5173 39.875 33.125 39.4827 33.125 39V14.625C33.125 14.1423 33.5173 13.75 34 13.75C34.4827 13.75 34.875 14.1423 34.875 14.625V39C34.875 39.4827 34.4827 39.875 34 39.875Z" stroke="#FDC114" stroke-width="2"/>
<path d="M44.1187 33.6639L44.119 33.6641C44.2574 33.7441 44.4065 33.7812 44.5543 33.7812C44.8597 33.7812 45.1521 33.6235 45.314 33.3436C45.5554 32.9245 45.4123 32.3906 44.9937 32.1485L44.1187 33.6639ZM44.1187 33.6639L23.0084 21.4766C23.0083 21.4766 23.0083 21.4766 23.0083 21.4766C23.0082 21.4765 23.0081 21.4765 23.008 21.4764C22.5894 21.2343 22.4464 20.7004 22.6877 20.2814C22.9305 19.8623 23.4625 19.719 23.8836 19.9613C23.8837 19.9614 23.8838 19.9614 23.8839 19.9615L44.9934 32.1483L44.1187 33.6639Z" stroke="#FDC114" stroke-width="2"/>
<path d="M23.0077 32.1487L23.008 32.1485L44.1186 19.961C44.5373 19.7193 45.0713 19.8621 45.3142 20.2817C45.5556 20.7013 45.4116 21.2354 44.994 21.4762L44.9937 21.4764L23.8831 33.6639L23.8828 33.6641C23.7444 33.7441 23.5952 33.7812 23.4474 33.7812C23.142 33.7812 22.8496 33.6235 22.6878 33.3436C22.446 32.924 22.59 32.3896 23.0077 32.1487Z" stroke="#FDC114" stroke-width="2"/>
</svg>
