<svg width="72" height="72" viewBox="0 0 72 72" fill="none" xmlns="http://www.w3.org/2000/svg">
<path d="M48 68.3438C47.7762 68.3438 47.5616 68.2549 47.4034 68.0967C47.2451 67.9385 47.1562 67.7239 47.1562 67.5001V64.502C47.1562 64.2782 47.2451 64.0636 47.4034 63.9053C47.5616 63.7471 47.7762 63.6582 48 63.6582C48.2238 63.6582 48.4384 63.7471 48.5966 63.9053C48.7549 64.0636 48.8438 64.2782 48.8438 64.502V67.5001C48.8438 67.7239 48.7549 67.9385 48.5966 68.0967C48.4384 68.2549 48.2238 68.3438 48 68.3438Z" fill="#058FA2"/>
<path d="M54 26.3419H18C17.7762 26.3419 17.5616 26.253 17.4034 26.0947C17.2451 25.9365 17.1562 25.7219 17.1562 25.4981V9.5625C17.1577 7.99652 17.7805 6.49511 18.8878 5.3878C19.9951 4.28048 21.4965 3.65774 23.0625 3.65625H48.9375C50.5035 3.65774 52.0049 4.28048 53.1122 5.3878C54.2195 6.49511 54.8423 7.99652 54.8438 9.5625V25.4981C54.8438 25.7219 54.7549 25.9365 54.5966 26.0947C54.4384 26.253 54.2238 26.3419 54 26.3419ZM18.8438 24.6544H53.1562V9.5625C53.1562 8.44362 52.7118 7.37056 51.9206 6.57939C51.1294 5.78822 50.0564 5.34375 48.9375 5.34375H23.0625C21.9436 5.34375 20.8706 5.78822 20.0794 6.57939C19.2882 7.37056 18.8438 8.44362 18.8438 9.5625V24.6544Z" fill="#058FA2"/>
<path d="M48.9375 65.3455H23.0625C21.4965 65.3441 19.9951 64.7213 18.8878 63.614C17.7805 62.5067 17.1577 61.0053 17.1562 59.4393V25.498C17.1562 25.2743 17.2451 25.0597 17.4034 24.9014C17.5616 24.7432 17.7762 24.6543 18 24.6543H54C54.2238 24.6543 54.4384 24.7432 54.5966 24.9014C54.7549 25.0597 54.8438 25.2743 54.8438 25.498V59.4393C54.8423 61.0053 54.2195 62.5067 53.1122 63.614C52.0049 64.7213 50.5035 65.3441 48.9375 65.3455ZM18.8438 26.3418V59.4393C18.8452 60.5577 19.2902 61.6299 20.081 62.4208C20.8719 63.2116 21.9441 63.6566 23.0625 63.658H48.9375C50.0559 63.6566 51.1281 63.2116 51.919 62.4208C52.7098 61.6299 53.1548 60.5577 53.1562 59.4393V26.3418H18.8438Z" fill="#058FA2"/>
<path d="M24 68.3438C23.7762 68.3438 23.5616 68.2549 23.4034 68.0967C23.2451 67.9385 23.1562 67.7239 23.1562 67.5001V64.502C23.1562 64.2782 23.2451 64.0636 23.4034 63.9053C23.5616 63.7471 23.7762 63.6582 24 63.6582C24.2238 63.6582 24.4384 63.7471 24.5966 63.9053C24.7549 64.0636 24.8438 64.2782 24.8438 64.502V67.5001C24.8438 67.7239 24.7549 67.9385 24.5966 68.0967C24.4384 68.2549 24.2238 68.3438 24 68.3438Z" fill="#058FA2"/>
<path d="M30 20.3457H21C20.7762 20.3457 20.5616 20.2568 20.4034 20.0986C20.2451 19.9403 20.1562 19.7257 20.1562 19.502C20.1562 19.2782 20.2451 19.0636 20.4034 18.9053C20.5616 18.7471 20.7762 18.6582 21 18.6582H30C30.2238 18.6582 30.4384 18.7471 30.5966 18.9053C30.7549 19.0636 30.8438 19.2782 30.8438 19.502C30.8438 19.7257 30.7549 19.9403 30.5966 20.0986C30.4384 20.2568 30.2238 20.3457 30 20.3457Z" fill="#058FA2"/>
<path d="M30 32.3438H21C20.7762 32.3438 20.5616 32.2549 20.4034 32.0966C20.2451 31.9384 20.1562 31.7238 20.1562 31.5C20.1562 31.2762 20.2451 31.0616 20.4034 30.9034C20.5616 30.7451 20.7762 30.6562 21 30.6562H30C30.2238 30.6562 30.4384 30.7451 30.5966 30.9034C30.7549 31.0616 30.8438 31.2762 30.8438 31.5C30.8438 31.7238 30.7549 31.9384 30.5966 32.0966C30.4384 32.2549 30.2238 32.3438 30 32.3438Z" fill="#058FA2"/>
</svg>
