<svg width="80" height="80" viewBox="0 0 80 80" fill="none" xmlns="http://www.w3.org/2000/svg">
<g clip-path="url(#clip0_789_1399)">
<path d="M66.4847 73.1784L75.7899 75.789L73.2215 66.5258C79.5559 56.7653 77.4991 43.7975 68.4552 36.4761C59.4114 29.1548 46.2995 29.843 38.0717 38.0707C29.8439 46.2985 29.1558 59.4104 36.4771 68.4542C43.7984 77.4981 56.7663 79.555 66.5268 73.2205L66.4847 73.1784Z" fill="white" stroke="#43AFAD" stroke-width="2.5" stroke-linecap="round" stroke-linejoin="round"/>
<path d="M59.4316 31.2839C59.4335 41.3867 54.0209 50.7156 45.2493 55.728C36.4776 60.7403 25.6925 60.6673 16.9895 55.5366L3.26323 59.326L7.0527 45.5997C1.01377 35.382 2.03307 22.4742 9.60087 13.331C17.1687 4.18775 29.6586 0.774107 40.8249 4.79708C51.9911 8.82005 59.434 19.4151 59.4316 31.2839Z" fill="white" stroke="#43AFAD" stroke-width="2.5" stroke-linecap="round" stroke-linejoin="round"/>
<path d="M33.0887 34.5893C33.0887 33.9725 33.1257 33.4575 33.1997 33.0443C33.2737 32.631 33.4064 32.2609 33.5976 31.9341C33.7888 31.6072 34.0355 31.2926 34.3377 30.9904C34.6399 30.6882 35.0316 30.3459 35.5126 29.9635C35.8457 29.6797 36.2466 29.3559 36.7154 28.992C37.1841 28.6281 37.6313 28.181 38.0568 27.6505C38.4824 27.1201 38.8402 26.4941 39.13 25.7725C39.4199 25.0508 39.5649 24.2089 39.5649 23.2468C39.5649 22.0132 39.312 20.9277 38.8062 19.9902C38.3005 19.0527 37.6313 18.2694 36.7986 17.6403C35.966 17.0112 34.9946 16.5393 33.8844 16.2248C32.7742 15.9102 31.6146 15.7529 30.4057 15.7529C28.9131 15.7529 27.584 15.9657 26.4183 16.3913C25.2526 16.8169 24.2719 17.409 23.4763 18.1676C22.6806 18.9262 22.0823 19.8237 21.6814 20.8598C21.2805 21.896 21.0801 23.0186 21.0801 24.2274H27.1492C27.1492 22.8459 27.4699 21.859 28.1113 21.2669C28.7528 20.6748 29.5176 20.3788 30.4057 20.3788C31.3062 20.3788 32.0618 20.61 32.6724 21.0726C33.283 21.5352 33.5883 22.2599 33.5883 23.2468C33.5883 23.7772 33.4865 24.2583 33.283 24.69C33.0795 25.1218 32.8204 25.5134 32.5059 25.865C32.1913 26.2165 31.8459 26.5342 31.4697 26.8179C31.0934 27.1016 30.7265 27.3668 30.3687 27.6135C29.6779 28.07 29.1198 28.5356 28.6942 29.0105C28.2686 29.4855 27.9355 30.0035 27.695 30.5648C27.4545 31.1261 27.2818 31.7336 27.1769 32.3874C27.0721 33.0412 27.0196 33.7751 27.0196 34.5893H33.0887ZM30.0542 43.4524C30.6093 43.4524 31.1274 43.3506 31.6084 43.147C32.0895 42.9435 32.5089 42.6598 32.8667 42.2959C33.2244 41.932 33.502 41.5157 33.6993 41.0469C33.8967 40.5782 33.9954 40.0786 33.9954 39.5482C33.9954 39.0177 33.8967 38.5181 33.6993 38.0494C33.502 37.5806 33.2244 37.1705 32.8667 36.8189C32.5089 36.4674 32.0895 36.1898 31.6084 35.9863C31.1274 35.7827 30.6093 35.681 30.0542 35.681C29.4991 35.681 28.981 35.7827 28.4999 35.9863C28.0188 36.1898 27.6025 36.4674 27.2509 36.8189C26.8994 37.1705 26.6218 37.5806 26.4183 38.0494C26.2147 38.5181 26.113 39.0177 26.113 39.5482C26.113 40.0786 26.2147 40.5782 26.4183 41.0469C26.6218 41.5157 26.8994 41.932 27.2509 42.2959C27.6025 42.6598 28.0188 42.9435 28.4999 43.147C28.981 43.3506 29.4991 43.4524 30.0542 43.4524Z" fill="#43AFAD"/>
</g>
<defs>
<clipPath id="clip0_789_1399">
<rect width="80" height="80" fill="white"/>
</clipPath>
</defs>
</svg>
