<svg width="80" height="80" viewBox="0 0 80 80" fill="none" xmlns="http://www.w3.org/2000/svg">
<path d="M22.0754 67.054L16.8936 72.7086L12.1118 67.8904L7.27539 63.1086L12.9481 57.9268L17.5118 62.4904L22.0754 67.054Z" fill="white" stroke="#43AFAD" stroke-width="2.5" stroke-linecap="round" stroke-linejoin="round"/>
<path d="M34.5473 53.309L22.0382 67.0544L17.5109 62.4726L12.9473 57.9272L26.6927 45.4544C27.6767 47.0496 28.8487 48.5207 30.1836 49.8362C31.4978 51.16 32.9623 52.3254 34.5473 53.309ZM47.7836 30.2908C48.6531 30.288 49.5107 30.0891 50.2927 29.709L49.5473 30.4544C48.9676 30.3328 48.3758 30.2779 47.7836 30.2908ZM52.9836 27.0181C52.422 28.1972 51.4719 29.1474 50.2927 29.709L52.9836 27.0181ZM65.9836 42.909C66.4857 42.0167 66.9173 41.0866 67.2745 40.1272C66.9026 41.0804 66.4714 42.0095 65.9836 42.909Z" fill="white"/>
<path d="M50.2927 29.709C49.5107 30.0891 48.6531 30.288 47.7836 30.2908C48.3758 30.2779 48.9676 30.3328 49.5473 30.4544L50.2927 29.709ZM50.2927 29.709C51.4719 29.1474 52.422 28.1972 52.9836 27.0181L50.2927 29.709ZM34.5473 53.309L22.0382 67.0544L17.5109 62.4726L12.9473 57.9272L26.6927 45.4544C27.6767 47.0496 28.8487 48.5207 30.1836 49.8362C31.4978 51.16 32.9623 52.3254 34.5473 53.309ZM65.9836 42.909C66.4857 42.0167 66.9173 41.0866 67.2745 40.1272C66.9026 41.0804 66.4714 42.0095 65.9836 42.909Z" stroke="#43AFAD" stroke-width="2.5" stroke-linecap="round" stroke-linejoin="round"/>
<path d="M52.9812 27.0181C52.4196 28.1972 51.4695 29.1474 50.2903 29.709L52.9812 27.0181ZM67.2722 40.1272C66.8914 41.0888 66.4355 42.019 65.9085 42.909C66.4211 42.0113 66.8766 41.0822 67.2722 40.1272ZM47.7812 30.2908C48.6507 30.288 49.5084 30.0891 50.2903 29.709L49.5449 30.4544C48.9652 30.3328 48.3734 30.2779 47.7812 30.2908Z" fill="white"/>
<path d="M50.2903 29.709C51.4695 29.1474 52.4196 28.1972 52.9812 27.0181L50.2903 29.709ZM50.2903 29.709C49.5084 30.0891 48.6507 30.288 47.7812 30.2908C48.3734 30.2779 48.9652 30.3328 49.5449 30.4544L50.2903 29.709ZM67.2722 40.1272C66.8914 41.0888 66.4355 42.019 65.9085 42.909C66.4211 42.0113 66.8766 41.0822 67.2722 40.1272Z" stroke="#43AFAD" stroke-width="2.5" stroke-linecap="round" stroke-linejoin="round"/>
<path d="M52.9858 27.0181C52.4242 28.1972 51.4741 29.1474 50.2949 29.709L52.9858 27.0181ZM67.2767 40.1272C66.896 41.0888 66.4401 42.019 65.9131 42.909C66.4257 42.0113 66.8811 41.0822 67.2767 40.1272Z" fill="white" stroke="#43AFAD" stroke-width="2.5" stroke-linecap="round" stroke-linejoin="round"/>
<path d="M71.7838 25.4548C71.7838 25.2366 71.6383 25.0002 71.5838 24.782C71.5177 24.5075 71.4264 24.2397 71.3111 23.982C70.1078 20.4298 68.1048 17.2014 65.4565 14.5457C55.7222 4.83676 39.9625 4.85047 30.2451 14.5763C20.5277 24.3022 20.5277 40.0619 30.2451 49.7878C39.9625 59.5136 55.7222 59.5273 65.4565 49.8184C66.9328 48.3219 68.2267 46.6557 69.3111 44.8548C69.9203 43.7963 70.4549 42.6967 70.9111 41.5639C71.2201 40.8184 71.4747 40.0548 71.711 39.2911C73.0495 34.7796 73.0747 29.9801 71.7838 25.4548Z" fill="white" stroke="#43AFAD" stroke-width="2.5" stroke-linecap="round" stroke-linejoin="round"/>
<path d="M59.2575 36.3638L59.3666 42.1275C59.3578 42.4181 59.1295 42.6543 58.8394 42.6729L36.8757 43.0365C36.7376 43.0415 36.6034 42.99 36.5039 42.894C36.4045 42.798 36.3484 42.6657 36.3484 42.5275L36.2394 36.9456C36.1738 32.9298 39.1155 29.4966 43.0939 28.9456C43.2309 28.9266 43.3695 28.9662 43.4757 29.0547C45.9239 30.9791 49.3874 30.9184 51.7666 28.9093C51.8766 28.8133 52.0214 28.7672 52.1666 28.782H52.3121H52.6212H52.8757H52.9848H53.2394H53.3484H53.603H53.7121H53.9484H54.0939H54.2575H54.4212L54.6757 28.8911L54.9666 29.0547L55.203 29.182L55.4575 29.3275L55.7303 29.5093L56.0212 29.7275C56.3111 29.9629 56.5845 30.2181 56.8394 30.4911L57.0757 30.7456C57.148 30.826 57.2148 30.911 57.2757 31.0002L57.4757 31.2729L57.6212 31.4911L57.7848 31.7456L58.1848 32.7275L58.2757 32.8911L58.3848 33.0911C58.3893 33.1212 58.3893 33.1519 58.3848 33.182C58.4347 33.2692 58.4773 33.3605 58.5121 33.4547C58.5501 33.524 58.5805 33.5972 58.603 33.6729C58.5961 33.7272 58.5961 33.7822 58.603 33.8365V34.0729C58.6109 34.1088 58.6109 34.1461 58.603 34.182C58.603 34.2729 58.603 34.3638 58.603 34.4547C58.6118 34.5576 58.6118 34.661 58.603 34.7638C58.6116 34.7935 58.6116 34.825 58.603 34.8547V35.1093C58.6118 35.1512 58.6118 35.1946 58.603 35.2365V35.5456C58.603 35.5456 58.603 35.6911 58.603 35.7638C58.5944 35.8849 58.5944 36.0064 58.603 36.1275L59.2575 36.3638Z" fill="white" stroke="#43AFAD" stroke-width="2.5"/>
<path d="M47.8034 30.582C51.5188 30.582 54.5307 27.5701 54.5307 23.8547C54.5307 20.1393 51.5188 17.1274 47.8034 17.1274C44.0881 17.1274 41.0762 20.1393 41.0762 23.8547C41.0762 27.5701 44.0881 30.582 47.8034 30.582Z" fill="white" stroke="#43AFAD" stroke-width="2.5"/>
</svg>
