<svg width="40" height="30" viewBox="0 0 40 30" fill="none" xmlns="http://www.w3.org/2000/svg">
<path d="M37.5 30C37.5 30 40 30 40 27.5C40 25 37.5 17.5 27.5 17.5C17.5 17.5 15 25 15 27.5C15 30 17.5 30 17.5 30H37.5ZM17.5559 27.5C17.5472 27.499 17.5351 27.4974 17.5204 27.495C17.5134 27.4938 17.5067 27.4926 17.5 27.4913C17.5036 26.8312 17.9172 24.9173 19.3981 23.1895C20.7834 21.5734 23.2067 20 27.5 20C31.7933 20 34.2166 21.5734 35.6019 23.1895C37.0828 24.9173 37.4964 26.8312 37.5 27.4913C37.4933 27.4926 37.4866 27.4938 37.4796 27.495C37.4649 27.4974 37.4528 27.499 37.4441 27.5H17.5559Z" fill="#058FA2"/>
<path d="M27.5 12.5C30.2614 12.5 32.5 10.2614 32.5 7.5C32.5 4.73858 30.2614 2.5 27.5 2.5C24.7386 2.5 22.5 4.73858 22.5 7.5C22.5 10.2614 24.7386 12.5 27.5 12.5ZM35 7.5C35 11.6421 31.6421 15 27.5 15C23.3579 15 20 11.6421 20 7.5C20 3.35786 23.3579 0 27.5 0C31.6421 0 35 3.35786 35 7.5Z" fill="#058FA2"/>
<path d="M17.3398 18.1999C16.4203 17.9058 15.3988 17.692 14.2657 17.5826C13.7049 17.5285 13.1167 17.5 12.5 17.5C2.5 17.5 0 25 0 27.5C0 29.1667 0.833333 30 2.5 30H13.0409C12.6889 29.2898 12.5 28.4478 12.5 27.5C12.5 24.9743 13.4431 22.395 15.2245 20.2405C15.8332 19.5044 16.5397 18.8178 17.3398 18.1999ZM12.3001 20.0011C10.8064 22.284 10 24.8867 10 27.5H2.5C2.5 26.8482 2.91061 24.9249 4.39814 23.1895C5.76171 21.5986 8.13123 20.0492 12.3001 20.0011Z" fill="#058FA2"/>
<path d="M3.75 8.75C3.75 4.60786 7.10786 1.25 11.25 1.25C15.3921 1.25 18.75 4.60786 18.75 8.75C18.75 12.8921 15.3921 16.25 11.25 16.25C7.10786 16.25 3.75 12.8921 3.75 8.75ZM11.25 3.75C8.48858 3.75 6.25 5.98858 6.25 8.75C6.25 11.5114 8.48858 13.75 11.25 13.75C14.0114 13.75 16.25 11.5114 16.25 8.75C16.25 5.98858 14.0114 3.75 11.25 3.75Z" fill="#058FA2"/>
</svg>
