<svg width="63" height="75" viewBox="0 0 63 75" fill="none" xmlns="http://www.w3.org/2000/svg">
<mask id="path-1-outside-1_3380_5709" maskUnits="userSpaceOnUse" x="0" y="23.9863" width="63" height="51" fill="black">
<rect fill="white" y="23.9863" width="63" height="51"/>
<path fill-rule="evenodd" clip-rule="evenodd" d="M18.1203 25.0439C17.5627 25.2498 17.5448 25.4295 17.5448 30.8289V36.0726H9.6256H1.70625L1.3532 36.4321L1 36.7915V55.0346C1 71.5814 1.02158 73.3113 1.23235 73.6386L1.46469 73.9995H31.5083H61.5521L61.776 73.674C61.9758 73.3838 62 71.3766 62 55.07V36.7915L61.6468 36.4321L61.2938 36.0726H53.3744H45.4552V30.8289C45.4552 26.5316 45.4184 25.5339 45.251 25.3009C45.0516 25.0234 44.7302 25.0161 31.6915 24.9905C24.346 24.9761 18.239 25.0001 18.1203 25.0439ZM19.1274 49.5447V72.3887H22.2205H25.3137V65.0832C25.3137 58.1096 25.3262 57.7618 25.5886 57.4319L25.8635 57.0862L31.0916 57.0422C33.9669 57.0179 36.5279 57.0371 36.7825 57.0846C37.7318 57.2616 37.6863 56.8627 37.6863 65.0041V72.3887H40.7795H43.8726V49.5447V26.7007H31.5H19.1274V49.5447ZM22.9593 32.1295L22.5802 32.4329V35.5481C22.5802 38.3799 22.6041 38.685 22.8433 38.9054C23.0706 39.1148 23.5192 39.1478 26.1418 39.1478H29.1773L29.4834 38.7517C29.7766 38.3722 29.7877 38.2289 29.7455 35.3704C29.6888 31.5108 30.0056 31.826 26.1803 31.826C23.523 31.826 23.3138 31.8457 22.9593 32.1295ZM33.658 32.1188C33.3883 32.3934 33.3703 32.6069 33.3703 35.5374C33.3703 38.3796 33.3942 38.685 33.6334 38.9054C33.8606 39.1147 34.3084 39.1478 36.9201 39.1478C39.6665 39.1478 39.9655 39.1232 40.1817 38.8799C40.3876 38.6484 40.4198 38.1899 40.4198 35.4926C40.4198 32.4813 40.409 32.3634 40.1101 32.0994C39.8295 31.8517 39.5245 31.826 36.873 31.826C34.1375 31.826 33.9269 31.8452 33.658 32.1188ZM24.1945 35.5235L24.2347 37.4638H26.105H27.9752L28.0154 35.5235L28.0555 33.5832H26.105H24.1544L24.1945 35.5235ZM34.9846 35.5235L35.0248 37.4638L36.931 37.5046L38.8373 37.5455V35.5643V33.5832H36.8909H34.9445L34.9846 35.5235ZM2.77173 37.8651C2.63333 38.0827 2.52514 70.1355 2.65822 71.4735L2.74929 72.3887H10.1477H17.546L17.5094 55.0727L17.4729 37.7566L10.1809 37.7187C4.4442 37.6888 2.86395 37.72 2.77173 37.8651ZM45.5425 37.9151C45.4945 38.0425 45.4552 45.8512 45.4552 55.2677V72.3887H52.9363H60.4175V55.2118C60.4175 42.0472 60.3772 37.9939 60.2448 37.8591C60.1152 37.7272 58.2757 37.6834 52.851 37.6834C46.399 37.6834 45.6205 37.708 45.5425 37.9151ZM22.8183 43.3694C22.6127 43.6006 22.5802 44.0564 22.5802 46.7147C22.5802 49.5102 22.6044 49.8145 22.8433 50.0345C23.0709 50.2442 23.5237 50.2769 26.2065 50.2769C28.9124 50.2769 29.3319 50.2462 29.5043 50.0351C29.6524 49.8537 29.7129 49.0994 29.7465 47.0064C29.7713 45.4735 29.755 44.0714 29.7104 43.8904C29.5221 43.1266 29.4082 43.1015 26.117 43.1015C23.3346 43.1015 23.0348 43.1259 22.8183 43.3694ZM33.6084 43.3694C33.2602 43.7609 33.2496 49.6938 33.5963 50.0468C33.934 50.3904 39.8561 50.3904 40.1938 50.0468C40.3851 49.8519 40.4198 49.3382 40.4198 46.7015C40.4198 43.8694 40.3959 43.5643 40.1567 43.3439C39.9295 43.1346 39.4816 43.1015 36.87 43.1015C34.1236 43.1015 33.8246 43.1261 33.6084 43.3694ZM24.2587 44.81C24.2059 44.8636 24.1627 45.7532 24.1627 46.7869V48.6661H26.105H28.0472V46.6892V44.7123H26.2009C25.1854 44.7123 24.3114 44.7563 24.2587 44.81ZM35.0488 44.81C34.996 44.8636 34.9528 45.7532 34.9528 46.7869V48.6661H36.895H38.8373V46.6892V44.7123H36.991C35.9754 44.7123 35.1014 44.7563 35.0488 44.81ZM7.04245 45.9906C6.92376 46.0366 6.77903 46.1467 6.72091 46.2353C6.5323 46.5229 6.59028 52.6868 6.78349 52.8835C6.90736 53.0095 7.85977 53.0592 10.1594 53.0592C13.179 53.0592 13.3711 53.0429 13.5115 52.776C13.6002 52.607 13.6604 51.2771 13.6604 49.4812C13.6604 46.6648 13.6417 46.4505 13.3726 46.1767C13.103 45.9023 12.9013 45.8846 10.1716 45.8954C8.56918 45.9017 7.16114 45.9446 7.04245 45.9906ZM49.9151 45.9854C49.3887 46.177 49.3396 46.4697 49.3396 49.4194C49.3396 51.2662 49.3988 52.4452 49.5029 52.678L49.6662 53.0428L52.632 53.0896C54.4426 53.1183 55.738 53.0779 55.9575 52.9861L56.3172 52.8357L56.3559 49.5037L56.3946 46.1716L56.0229 46.0276C55.6425 45.8805 50.3051 45.8435 49.9151 45.9854ZM8.29338 47.588C8.23843 47.6441 8.1934 48.5355 8.1934 49.5692V51.4484H10.1398H12.0862L12.046 49.5081L12.0059 47.5678L10.1996 47.5271C9.20623 47.5046 8.34834 47.5321 8.29338 47.588ZM51.162 47.5923C51.1092 47.6459 51.066 48.5355 51.066 49.5692V51.4484H52.9363H54.8066V49.4715V47.4946H53.0323C52.0563 47.4946 51.2146 47.5385 51.162 47.5923ZM7.00649 57.2432L6.61085 57.4616V60.6558C6.61085 63.5644 6.63444 63.8717 6.87398 64.0924C7.10086 64.3015 7.54556 64.3348 10.111 64.3348C12.8931 64.3348 13.1035 64.3159 13.3726 64.0419C13.6421 63.7676 13.6602 63.5554 13.6582 60.7105C13.6569 59.0392 13.6084 57.5994 13.5503 57.5108C13.2729 57.0881 12.7483 57.0131 10.1091 57.0188C7.99054 57.0233 7.31609 57.0721 7.00649 57.2432ZM49.6928 57.3725C49.3408 57.7306 49.3396 57.7413 49.3396 60.7405C49.3396 63.5538 49.3583 63.768 49.6274 64.0419C49.8968 64.3162 50.1069 64.3348 52.9261 64.3348C55.4714 64.3348 55.9719 64.2992 56.1631 64.1047C56.3548 63.9095 56.3892 63.388 56.3892 60.6717C56.3892 57.528 56.3833 57.4647 56.0693 57.241C55.8061 57.0532 55.2461 57.013 52.8978 57.013C50.0617 57.013 50.044 57.015 49.6928 57.3725ZM27.0401 65.5429V72.3887H31.5719H36.1038L36.1016 65.6893C36.1003 62.0045 36.0518 58.9239 35.9937 58.8434C35.9272 58.7513 34.2469 58.697 31.464 58.697H27.0399L27.0401 65.5429ZM51.1255 58.758C51.0928 58.7916 51.066 59.6976 51.066 60.7715V62.724H52.9363H54.8066V60.7554V58.7869L52.9957 58.7419C51.9997 58.7172 51.1581 58.7245 51.1255 58.758ZM8.1934 60.7471V62.724H10.1356H12.0778V60.7471V58.7702H10.1356H8.1934V60.7471Z"/>
</mask>
<path fill-rule="evenodd" clip-rule="evenodd" d="M18.1203 25.0439C17.5627 25.2498 17.5448 25.4295 17.5448 30.8289V36.0726H9.6256H1.70625L1.3532 36.4321L1 36.7915V55.0346C1 71.5814 1.02158 73.3113 1.23235 73.6386L1.46469 73.9995H31.5083H61.5521L61.776 73.674C61.9758 73.3838 62 71.3766 62 55.07V36.7915L61.6468 36.4321L61.2938 36.0726H53.3744H45.4552V30.8289C45.4552 26.5316 45.4184 25.5339 45.251 25.3009C45.0516 25.0234 44.7302 25.0161 31.6915 24.9905C24.346 24.9761 18.239 25.0001 18.1203 25.0439ZM19.1274 49.5447V72.3887H22.2205H25.3137V65.0832C25.3137 58.1096 25.3262 57.7618 25.5886 57.4319L25.8635 57.0862L31.0916 57.0422C33.9669 57.0179 36.5279 57.0371 36.7825 57.0846C37.7318 57.2616 37.6863 56.8627 37.6863 65.0041V72.3887H40.7795H43.8726V49.5447V26.7007H31.5H19.1274V49.5447ZM22.9593 32.1295L22.5802 32.4329V35.5481C22.5802 38.3799 22.6041 38.685 22.8433 38.9054C23.0706 39.1148 23.5192 39.1478 26.1418 39.1478H29.1773L29.4834 38.7517C29.7766 38.3722 29.7877 38.2289 29.7455 35.3704C29.6888 31.5108 30.0056 31.826 26.1803 31.826C23.523 31.826 23.3138 31.8457 22.9593 32.1295ZM33.658 32.1188C33.3883 32.3934 33.3703 32.6069 33.3703 35.5374C33.3703 38.3796 33.3942 38.685 33.6334 38.9054C33.8606 39.1147 34.3084 39.1478 36.9201 39.1478C39.6665 39.1478 39.9655 39.1232 40.1817 38.8799C40.3876 38.6484 40.4198 38.1899 40.4198 35.4926C40.4198 32.4813 40.409 32.3634 40.1101 32.0994C39.8295 31.8517 39.5245 31.826 36.873 31.826C34.1375 31.826 33.9269 31.8452 33.658 32.1188ZM24.1945 35.5235L24.2347 37.4638H26.105H27.9752L28.0154 35.5235L28.0555 33.5832H26.105H24.1544L24.1945 35.5235ZM34.9846 35.5235L35.0248 37.4638L36.931 37.5046L38.8373 37.5455V35.5643V33.5832H36.8909H34.9445L34.9846 35.5235ZM2.77173 37.8651C2.63333 38.0827 2.52514 70.1355 2.65822 71.4735L2.74929 72.3887H10.1477H17.546L17.5094 55.0727L17.4729 37.7566L10.1809 37.7187C4.4442 37.6888 2.86395 37.72 2.77173 37.8651ZM45.5425 37.9151C45.4945 38.0425 45.4552 45.8512 45.4552 55.2677V72.3887H52.9363H60.4175V55.2118C60.4175 42.0472 60.3772 37.9939 60.2448 37.8591C60.1152 37.7272 58.2757 37.6834 52.851 37.6834C46.399 37.6834 45.6205 37.708 45.5425 37.9151ZM22.8183 43.3694C22.6127 43.6006 22.5802 44.0564 22.5802 46.7147C22.5802 49.5102 22.6044 49.8145 22.8433 50.0345C23.0709 50.2442 23.5237 50.2769 26.2065 50.2769C28.9124 50.2769 29.3319 50.2462 29.5043 50.0351C29.6524 49.8537 29.7129 49.0994 29.7465 47.0064C29.7713 45.4735 29.755 44.0714 29.7104 43.8904C29.5221 43.1266 29.4082 43.1015 26.117 43.1015C23.3346 43.1015 23.0348 43.1259 22.8183 43.3694ZM33.6084 43.3694C33.2602 43.7609 33.2496 49.6938 33.5963 50.0468C33.934 50.3904 39.8561 50.3904 40.1938 50.0468C40.3851 49.8519 40.4198 49.3382 40.4198 46.7015C40.4198 43.8694 40.3959 43.5643 40.1567 43.3439C39.9295 43.1346 39.4816 43.1015 36.87 43.1015C34.1236 43.1015 33.8246 43.1261 33.6084 43.3694ZM24.2587 44.81C24.2059 44.8636 24.1627 45.7532 24.1627 46.7869V48.6661H26.105H28.0472V46.6892V44.7123H26.2009C25.1854 44.7123 24.3114 44.7563 24.2587 44.81ZM35.0488 44.81C34.996 44.8636 34.9528 45.7532 34.9528 46.7869V48.6661H36.895H38.8373V46.6892V44.7123H36.991C35.9754 44.7123 35.1014 44.7563 35.0488 44.81ZM7.04245 45.9906C6.92376 46.0366 6.77903 46.1467 6.72091 46.2353C6.5323 46.5229 6.59028 52.6868 6.78349 52.8835C6.90736 53.0095 7.85977 53.0592 10.1594 53.0592C13.179 53.0592 13.3711 53.0429 13.5115 52.776C13.6002 52.607 13.6604 51.2771 13.6604 49.4812C13.6604 46.6648 13.6417 46.4505 13.3726 46.1767C13.103 45.9023 12.9013 45.8846 10.1716 45.8954C8.56918 45.9017 7.16114 45.9446 7.04245 45.9906ZM49.9151 45.9854C49.3887 46.177 49.3396 46.4697 49.3396 49.4194C49.3396 51.2662 49.3988 52.4452 49.5029 52.678L49.6662 53.0428L52.632 53.0896C54.4426 53.1183 55.738 53.0779 55.9575 52.9861L56.3172 52.8357L56.3559 49.5037L56.3946 46.1716L56.0229 46.0276C55.6425 45.8805 50.3051 45.8435 49.9151 45.9854ZM8.29338 47.588C8.23843 47.6441 8.1934 48.5355 8.1934 49.5692V51.4484H10.1398H12.0862L12.046 49.5081L12.0059 47.5678L10.1996 47.5271C9.20623 47.5046 8.34834 47.5321 8.29338 47.588ZM51.162 47.5923C51.1092 47.6459 51.066 48.5355 51.066 49.5692V51.4484H52.9363H54.8066V49.4715V47.4946H53.0323C52.0563 47.4946 51.2146 47.5385 51.162 47.5923ZM7.00649 57.2432L6.61085 57.4616V60.6558C6.61085 63.5644 6.63444 63.8717 6.87398 64.0924C7.10086 64.3015 7.54556 64.3348 10.111 64.3348C12.8931 64.3348 13.1035 64.3159 13.3726 64.0419C13.6421 63.7676 13.6602 63.5554 13.6582 60.7105C13.6569 59.0392 13.6084 57.5994 13.5503 57.5108C13.2729 57.0881 12.7483 57.0131 10.1091 57.0188C7.99054 57.0233 7.31609 57.0721 7.00649 57.2432ZM49.6928 57.3725C49.3408 57.7306 49.3396 57.7413 49.3396 60.7405C49.3396 63.5538 49.3583 63.768 49.6274 64.0419C49.8968 64.3162 50.1069 64.3348 52.9261 64.3348C55.4714 64.3348 55.9719 64.2992 56.1631 64.1047C56.3548 63.9095 56.3892 63.388 56.3892 60.6717C56.3892 57.528 56.3833 57.4647 56.0693 57.241C55.8061 57.0532 55.2461 57.013 52.8978 57.013C50.0617 57.013 50.044 57.015 49.6928 57.3725ZM27.0401 65.5429V72.3887H31.5719H36.1038L36.1016 65.6893C36.1003 62.0045 36.0518 58.9239 35.9937 58.8434C35.9272 58.7513 34.2469 58.697 31.464 58.697H27.0399L27.0401 65.5429ZM51.1255 58.758C51.0928 58.7916 51.066 59.6976 51.066 60.7715V62.724H52.9363H54.8066V60.7554V58.7869L52.9957 58.7419C51.9997 58.7172 51.1581 58.7245 51.1255 58.758ZM8.1934 60.7471V62.724H10.1356H12.0778V60.7471V58.7702H10.1356H8.1934V60.7471Z" fill="#058FA2"/>
<path fill-rule="evenodd" clip-rule="evenodd" d="M18.1203 25.0439C17.5627 25.2498 17.5448 25.4295 17.5448 30.8289V36.0726H9.6256H1.70625L1.3532 36.4321L1 36.7915V55.0346C1 71.5814 1.02158 73.3113 1.23235 73.6386L1.46469 73.9995H31.5083H61.5521L61.776 73.674C61.9758 73.3838 62 71.3766 62 55.07V36.7915L61.6468 36.4321L61.2938 36.0726H53.3744H45.4552V30.8289C45.4552 26.5316 45.4184 25.5339 45.251 25.3009C45.0516 25.0234 44.7302 25.0161 31.6915 24.9905C24.346 24.9761 18.239 25.0001 18.1203 25.0439ZM19.1274 49.5447V72.3887H22.2205H25.3137V65.0832C25.3137 58.1096 25.3262 57.7618 25.5886 57.4319L25.8635 57.0862L31.0916 57.0422C33.9669 57.0179 36.5279 57.0371 36.7825 57.0846C37.7318 57.2616 37.6863 56.8627 37.6863 65.0041V72.3887H40.7795H43.8726V49.5447V26.7007H31.5H19.1274V49.5447ZM22.9593 32.1295L22.5802 32.4329V35.5481C22.5802 38.3799 22.6041 38.685 22.8433 38.9054C23.0706 39.1148 23.5192 39.1478 26.1418 39.1478H29.1773L29.4834 38.7517C29.7766 38.3722 29.7877 38.2289 29.7455 35.3704C29.6888 31.5108 30.0056 31.826 26.1803 31.826C23.523 31.826 23.3138 31.8457 22.9593 32.1295ZM33.658 32.1188C33.3883 32.3934 33.3703 32.6069 33.3703 35.5374C33.3703 38.3796 33.3942 38.685 33.6334 38.9054C33.8606 39.1147 34.3084 39.1478 36.9201 39.1478C39.6665 39.1478 39.9655 39.1232 40.1817 38.8799C40.3876 38.6484 40.4198 38.1899 40.4198 35.4926C40.4198 32.4813 40.409 32.3634 40.1101 32.0994C39.8295 31.8517 39.5245 31.826 36.873 31.826C34.1375 31.826 33.9269 31.8452 33.658 32.1188ZM24.1945 35.5235L24.2347 37.4638H26.105H27.9752L28.0154 35.5235L28.0555 33.5832H26.105H24.1544L24.1945 35.5235ZM34.9846 35.5235L35.0248 37.4638L36.931 37.5046L38.8373 37.5455V35.5643V33.5832H36.8909H34.9445L34.9846 35.5235ZM2.77173 37.8651C2.63333 38.0827 2.52514 70.1355 2.65822 71.4735L2.74929 72.3887H10.1477H17.546L17.5094 55.0727L17.4729 37.7566L10.1809 37.7187C4.4442 37.6888 2.86395 37.72 2.77173 37.8651ZM45.5425 37.9151C45.4945 38.0425 45.4552 45.8512 45.4552 55.2677V72.3887H52.9363H60.4175V55.2118C60.4175 42.0472 60.3772 37.9939 60.2448 37.8591C60.1152 37.7272 58.2757 37.6834 52.851 37.6834C46.399 37.6834 45.6205 37.708 45.5425 37.9151ZM22.8183 43.3694C22.6127 43.6006 22.5802 44.0564 22.5802 46.7147C22.5802 49.5102 22.6044 49.8145 22.8433 50.0345C23.0709 50.2442 23.5237 50.2769 26.2065 50.2769C28.9124 50.2769 29.3319 50.2462 29.5043 50.0351C29.6524 49.8537 29.7129 49.0994 29.7465 47.0064C29.7713 45.4735 29.755 44.0714 29.7104 43.8904C29.5221 43.1266 29.4082 43.1015 26.117 43.1015C23.3346 43.1015 23.0348 43.1259 22.8183 43.3694ZM33.6084 43.3694C33.2602 43.7609 33.2496 49.6938 33.5963 50.0468C33.934 50.3904 39.8561 50.3904 40.1938 50.0468C40.3851 49.8519 40.4198 49.3382 40.4198 46.7015C40.4198 43.8694 40.3959 43.5643 40.1567 43.3439C39.9295 43.1346 39.4816 43.1015 36.87 43.1015C34.1236 43.1015 33.8246 43.1261 33.6084 43.3694ZM24.2587 44.81C24.2059 44.8636 24.1627 45.7532 24.1627 46.7869V48.6661H26.105H28.0472V46.6892V44.7123H26.2009C25.1854 44.7123 24.3114 44.7563 24.2587 44.81ZM35.0488 44.81C34.996 44.8636 34.9528 45.7532 34.9528 46.7869V48.6661H36.895H38.8373V46.6892V44.7123H36.991C35.9754 44.7123 35.1014 44.7563 35.0488 44.81ZM7.04245 45.9906C6.92376 46.0366 6.77903 46.1467 6.72091 46.2353C6.5323 46.5229 6.59028 52.6868 6.78349 52.8835C6.90736 53.0095 7.85977 53.0592 10.1594 53.0592C13.179 53.0592 13.3711 53.0429 13.5115 52.776C13.6002 52.607 13.6604 51.2771 13.6604 49.4812C13.6604 46.6648 13.6417 46.4505 13.3726 46.1767C13.103 45.9023 12.9013 45.8846 10.1716 45.8954C8.56918 45.9017 7.16114 45.9446 7.04245 45.9906ZM49.9151 45.9854C49.3887 46.177 49.3396 46.4697 49.3396 49.4194C49.3396 51.2662 49.3988 52.4452 49.5029 52.678L49.6662 53.0428L52.632 53.0896C54.4426 53.1183 55.738 53.0779 55.9575 52.9861L56.3172 52.8357L56.3559 49.5037L56.3946 46.1716L56.0229 46.0276C55.6425 45.8805 50.3051 45.8435 49.9151 45.9854ZM8.29338 47.588C8.23843 47.6441 8.1934 48.5355 8.1934 49.5692V51.4484H10.1398H12.0862L12.046 49.5081L12.0059 47.5678L10.1996 47.5271C9.20623 47.5046 8.34834 47.5321 8.29338 47.588ZM51.162 47.5923C51.1092 47.6459 51.066 48.5355 51.066 49.5692V51.4484H52.9363H54.8066V49.4715V47.4946H53.0323C52.0563 47.4946 51.2146 47.5385 51.162 47.5923ZM7.00649 57.2432L6.61085 57.4616V60.6558C6.61085 63.5644 6.63444 63.8717 6.87398 64.0924C7.10086 64.3015 7.54556 64.3348 10.111 64.3348C12.8931 64.3348 13.1035 64.3159 13.3726 64.0419C13.6421 63.7676 13.6602 63.5554 13.6582 60.7105C13.6569 59.0392 13.6084 57.5994 13.5503 57.5108C13.2729 57.0881 12.7483 57.0131 10.1091 57.0188C7.99054 57.0233 7.31609 57.0721 7.00649 57.2432ZM49.6928 57.3725C49.3408 57.7306 49.3396 57.7413 49.3396 60.7405C49.3396 63.5538 49.3583 63.768 49.6274 64.0419C49.8968 64.3162 50.1069 64.3348 52.9261 64.3348C55.4714 64.3348 55.9719 64.2992 56.1631 64.1047C56.3548 63.9095 56.3892 63.388 56.3892 60.6717C56.3892 57.528 56.3833 57.4647 56.0693 57.241C55.8061 57.0532 55.2461 57.013 52.8978 57.013C50.0617 57.013 50.044 57.015 49.6928 57.3725ZM27.0401 65.5429V72.3887H31.5719H36.1038L36.1016 65.6893C36.1003 62.0045 36.0518 58.9239 35.9937 58.8434C35.9272 58.7513 34.2469 58.697 31.464 58.697H27.0399L27.0401 65.5429ZM51.1255 58.758C51.0928 58.7916 51.066 59.6976 51.066 60.7715V62.724H52.9363H54.8066V60.7554V58.7869L52.9957 58.7419C51.9997 58.7172 51.1581 58.7245 51.1255 58.758ZM8.1934 60.7471V62.724H10.1356H12.0778V60.7471V58.7702H10.1356H8.1934V60.7471Z" stroke="#058FA2" stroke-width="0.8" mask="url(#path-1-outside-1_3380_5709)"/>
<path d="M31.2227 0.801758C31.4105 0.813943 31.5795 0.886386 31.7383 1.01562C32.0397 1.26099 32.3268 1.73092 32.6934 2.44629L33.1104 3.19922C33.312 3.55438 33.5597 3.98556 33.8057 4.40723H33.8066L34.6553 5.8623L35.4336 6.03125L37.6621 6.50977L38.3691 6.66309C39.0034 6.80424 39.4282 6.91226 39.7148 7.01562C39.907 7.08492 40.0533 7.15715 40.1631 7.24707C40.2789 7.34198 40.3445 7.44872 40.3877 7.56641L40.416 7.6543C40.5187 8.04213 40.386 8.47978 40.1055 8.84863L39.9668 9.01367L38.6855 10.4424L37.2021 12.1152C36.9671 12.379 36.8938 12.4697 36.8613 12.6201C36.8438 12.7016 36.837 12.8092 36.8428 12.9766C36.8485 13.1435 36.8661 13.3573 36.8896 13.6504L36.9414 14.2275C37.0055 14.8869 37.101 15.747 37.1836 16.4004L37.251 16.9824C37.3056 17.5122 37.3182 17.89 37.2686 18.1641C37.234 18.3549 37.1667 18.511 37.0527 18.6357C36.9688 18.7274 36.8677 18.7929 36.7568 18.8447L36.6426 18.8926C36.4325 18.9716 36.1434 18.939 35.8574 18.8604C35.6341 18.7989 35.3883 18.7022 35.1387 18.5771L34.8887 18.4434C34.5479 18.248 33.6659 17.8524 32.8252 17.502C32.4073 17.3277 32.0046 17.1661 31.6904 17.0488C31.5331 16.9901 31.3996 16.9432 31.2988 16.9111C31.2483 16.8951 31.2076 16.8834 31.1777 16.876C31.1428 16.8673 31.1374 16.8682 31.1475 16.8682C31.032 16.8682 30.927 16.879 30.4678 17.0703C30.2379 17.1661 29.9255 17.3038 29.4863 17.5029L27.7422 18.3037C27.0789 18.6093 26.6587 18.7908 26.3623 18.8789C26.1299 18.948 25.9586 18.9639 25.7979 18.9336L25.6387 18.8877C25.5044 18.8371 25.3758 18.7704 25.2754 18.6553C25.1737 18.5387 25.118 18.3922 25.0898 18.2148C25.0359 17.8751 25.0743 17.3486 25.165 16.5098L25.3105 15.0518C25.3577 14.5457 25.3993 14.0599 25.4248 13.7168L25.4707 13.0059C25.4766 12.8336 25.4725 12.7163 25.4561 12.624C25.4356 12.5093 25.3967 12.4372 25.2979 12.3193L25.1768 12.1826L23.9688 10.8154L22.5488 9.20703C22.0954 8.701 21.8895 8.34853 21.8867 7.9248V7.92383C21.8858 7.78133 21.8912 7.63752 21.9404 7.50781C21.9944 7.36581 22.0924 7.25953 22.2344 7.1748C22.3689 7.09462 22.5491 7.02992 22.7793 6.96484C23.012 6.89907 23.3115 6.82885 23.6934 6.74316H23.6943L26.0664 6.2041C26.7379 6.05002 27.4262 5.89353 27.5967 5.85547L27.6738 5.82617C27.7006 5.81223 27.7274 5.79381 27.7529 5.77246C27.8051 5.72877 27.8321 5.68677 27.8398 5.66309L27.9102 5.49316C27.9412 5.42674 27.9784 5.35239 28.0186 5.27637C28.1013 5.11964 28.2036 4.94033 28.3057 4.77539C28.5025 4.45736 28.8407 3.8676 29.0557 3.46777L29.3789 2.87793C29.4785 2.70023 29.5623 2.55581 29.6055 2.4873C29.6835 2.36355 29.8914 1.99558 30.0674 1.66992L30.2139 1.42188C30.2641 1.34306 30.3153 1.26891 30.3643 1.2041C30.4129 1.13962 30.4618 1.08119 30.5078 1.03418C30.5479 0.993225 30.605 0.940242 30.6709 0.913086H30.6719L30.8105 0.861328C30.9486 0.816716 31.0858 0.792924 31.2227 0.801758ZM31.2402 3.85547C31.1889 3.88564 31.1248 3.93944 31.0674 4.01758L31 4.12793C30.713 4.69769 30.2587 5.5022 29.8506 6.18555C29.6464 6.52746 29.4526 6.84094 29.2959 7.08105C29.2178 7.20077 29.1479 7.30395 29.0898 7.38379C29.0632 7.42038 29.0355 7.45697 29.0088 7.48926L28.9326 7.57031C28.8776 7.6167 28.7931 7.65497 28.7168 7.68555C28.6319 7.71958 28.526 7.7559 28.4082 7.79199C28.2902 7.82815 28.1573 7.86482 28.0166 7.90039L27.5781 8.00098C26.8451 8.15203 26.0822 8.31751 25.498 8.4502C25.2058 8.51658 24.9586 8.57449 24.7832 8.61816C24.7793 8.61915 24.7754 8.62013 24.7715 8.62109C24.7821 8.63409 24.7931 8.64811 24.8047 8.66211C24.8722 8.74351 24.9541 8.83953 25.0459 8.94531L25.3467 9.28613L26.1172 10.1611C26.3908 10.4768 26.6595 10.7914 26.8574 11.0283L27.5742 11.8867L27.627 11.9502L27.6201 12.0322L27.5293 13.0771C27.4796 13.6541 27.3793 14.6483 27.3066 15.2881C27.2707 15.6046 27.2446 15.8986 27.2314 16.1152C27.2288 16.1581 27.2281 16.1977 27.2266 16.2334C27.351 16.1889 27.5248 16.1213 27.7471 16.0283C28.2378 15.8232 28.9544 15.504 29.8809 15.0781L30.2207 14.9346C30.5494 14.8085 30.8465 14.7375 31.1387 14.7285C31.5313 14.7165 31.897 14.8158 32.3027 15.0098L33.3574 15.498C33.7035 15.653 34.0354 15.7961 34.3252 15.917C34.6155 16.038 34.8622 16.1353 35.0381 16.1982C35.0542 16.204 35.0703 16.2078 35.085 16.2129C35.0831 16.1601 35.0831 16.0992 35.0791 16.0312C35.0715 15.9035 35.0604 15.7529 35.0459 15.5879L34.9932 15.0557C34.8499 13.7468 34.7722 12.4535 34.8135 11.9648L34.8252 11.9023C34.8307 11.8827 34.8376 11.8649 34.8438 11.8496C34.8571 11.8166 34.8736 11.7816 34.8926 11.7471C34.9307 11.6779 34.9824 11.598 35.042 11.5137C35.1615 11.3446 35.3222 11.146 35.4951 10.9561L36.583 9.75293C36.8752 9.4267 37.101 9.17066 37.2705 8.97266C37.4014 8.81971 37.495 8.70234 37.5605 8.61719C37.5459 8.61306 37.5308 8.60794 37.5146 8.60352C37.353 8.55925 37.126 8.50271 36.8506 8.43945C36.5753 8.37623 36.253 8.30665 35.9023 8.2334L34.7832 8.00879C34.1682 7.89063 33.7678 7.79243 33.4561 7.57324C33.1413 7.35191 32.9371 7.02125 32.6621 6.5127H32.6611C32.5638 6.3326 32.4167 6.06726 32.2578 5.78516L31.7852 4.95605C31.6394 4.70456 31.5063 4.45684 31.4092 4.25977C31.3608 4.16163 31.32 4.07361 31.291 4.00293C31.2766 3.9678 31.2633 3.9342 31.2539 3.9043C31.2501 3.89216 31.2443 3.8751 31.2402 3.85547Z" fill="#FDC114" stroke="#FDC114" stroke-width="0.4"/>
</svg>
