<svg width="60" height="60" viewBox="0 0 60 60" fill="none" xmlns="http://www.w3.org/2000/svg">
<path d="M54.9624 13.3322L54.0716 13.6213L49.3281 14.039L47.9652 16.1807L46.9886 15.8701L43.1358 12.4541L42.5778 10.6765L41.8158 8.77036L39.4226 6.62865L36.6001 6.08252L36.5357 7.36754L39.3046 10.0661L40.6568 11.651L39.1329 12.4541L37.8987 12.09L36.0421 11.3083V9.8198L33.6811 8.8132L32.8762 12.3363L30.4186 12.8824L30.6654 14.8528L33.885 15.4632L34.443 12.3256L37.0831 12.7218L38.3065 13.4393H40.2812L41.6012 16.095L45.1856 19.7145L44.9173 21.128L42.0305 20.7639L37.0509 23.2697L33.4664 27.5531L33.005 29.4593H31.7064L29.3132 28.3884L26.9844 29.4593L27.5639 31.9115L28.5727 30.7443H30.3649L30.2361 32.886L31.7171 33.3143L33.2303 35.017L35.5913 34.2995L38.3494 34.7279L41.569 35.5845L43.1573 35.7773L45.8617 38.8399L51.0882 41.9026L47.7076 48.3277L44.1446 49.9768L42.7924 53.6605L37.6304 57.098L37.0831 59.0791C41.7729 57.9358 46.1176 55.6818 49.7494 52.508C53.3812 49.3342 56.1932 45.3339 57.9472 40.8459C59.7013 36.3578 60.3458 31.5141 59.8263 26.7249C59.3067 21.9356 57.6383 17.3417 54.9624 13.3322Z" fill="#006D77"/>
<path d="M33.4657 45.6828L31.3193 41.635L33.2833 37.5122L31.2764 36.9125L29.0227 34.653L24.0217 33.5822L22.369 30.0162V32.0723H21.6392L17.3464 26.2468V21.4494L14.1913 16.3307L9.17949 17.2195H5.78822L4.08185 16.1487L6.22823 14.4353L4.08185 14.9279C1.42443 19.4815 0.0165871 24.6535 0.000145678 29.9229C-0.0162958 35.1923 1.35924 40.3729 3.9882 44.943C6.61716 49.513 10.4067 53.311 14.975 55.9544C19.5434 58.5978 24.7292 59.9933 30.0101 60.0001C31.27 59.987 32.5279 59.8976 33.7769 59.7324L33.4657 56.1022C33.4657 56.1022 34.8501 50.7479 34.8501 50.5338C34.8501 50.3196 33.4657 45.6828 33.4657 45.6828Z" fill="#006D77"/>
<path d="M11.1317 9.66989L16.4976 8.9203L18.9552 7.58173L21.724 8.37416L26.1456 8.12787L27.6695 5.75057L29.8695 6.11466L35.2355 5.61136L36.7165 3.98366L38.8628 2.60226L41.8034 3.04131L42.8766 2.88068C36.8438 0.0271669 30.0285 -0.733405 23.5129 0.719747C16.9974 2.1729 11.1552 5.75647 6.91406 10.9014L11.1317 9.66989ZM31.2754 3.00919L34.3018 1.32795L36.2765 2.46305L33.4218 4.60476L30.6959 4.88318L29.4725 4.09075L31.2754 3.00919ZM22.1855 3.24477L23.5699 3.82303L25.3192 3.24477L26.2851 4.91531L22.1855 5.98616L20.2216 4.85105C20.2216 4.85105 22.1426 3.61957 22.1855 3.24477Z" fill="#006D77"/>
</svg>
