<svg width="72" height="72" viewBox="0 0 72 72" fill="none" xmlns="http://www.w3.org/2000/svg">
<path d="M35.3911 9.81L30.0586 2.25L14.3086 51.5025L20.6536 53.7525C21.2251 53.866 21.7676 54.0946 22.248 54.4243C22.7285 54.754 23.1368 55.178 23.4483 55.6705C23.7598 56.1629 23.9679 56.7136 24.0599 57.289C24.1519 57.8644 24.1259 58.4525 23.9836 59.0175L20.9236 69.75H50.1736L50.5111 69.1875C54.0914 62.416 56.0552 54.9074 56.2486 47.25C56.2486 29.745 50.0161 18.54 35.3911 9.81ZM17.1436 50.085L30.8461 7.335L33.3886 10.9125L20.2486 51.21L17.1436 50.085ZM48.8461 67.5H23.9161L26.1661 59.58C26.5951 58.0956 26.4574 56.5048 25.7797 55.1161C25.102 53.7275 23.9327 52.6402 22.4986 52.065L35.2561 12.375C48.3511 20.565 53.9986 31.05 53.9986 47.25C53.7995 54.298 52.0398 61.214 48.8461 67.5Z" fill="#058FA2"/>
<path d="M38.7985 45.5074L35.3203 56.9844L37.4736 57.637L40.9518 46.1599L38.7985 45.5074Z" fill="#058FA2"/>
<path d="M39.7141 29.0477L38.4091 28.0352L27.2266 65.2502H45.7666L46.0591 64.5527C48.0623 59.77 49.2268 54.6781 49.5016 49.5002C49.5016 39.9827 47.0266 34.8077 39.7141 29.0477ZM44.2141 63.0002H30.2416L39.6016 31.8827C45.3616 36.7652 47.2516 41.2652 47.2516 49.5002C47.007 54.1369 45.9879 58.6999 44.2366 63.0002H44.2141Z" fill="#058FA2"/>
</svg>
