<svg width="60" height="60" viewBox="0 0 60 60" fill="none" xmlns="http://www.w3.org/2000/svg">
<path d="M26 40.9798V33.8889H34V40.9798H26Z" stroke="#058FA2" stroke-width="2" stroke-linecap="square" stroke-linejoin="round"/>
<path d="M41.5 49.4531C41.4969 50.7561 41.3079 52.0516 40.9389 53.303H19.0611C18.6921 52.0517 18.5031 50.7563 18.5 49.4534C18.5002 46.4862 19.2374 45.0654 20.0021 44.305C20.7213 43.5896 21.5716 43.3217 22.4727 43.0378C22.5336 43.0186 22.5948 42.9993 22.6562 42.9798H37.3439C37.4052 42.9993 37.4664 43.0186 37.5273 43.0378C38.4284 43.3217 39.2787 43.5896 39.998 44.305C40.7625 45.0654 41.4998 46.4861 41.5 49.4531Z" stroke="#058FA2" stroke-width="2" stroke-linecap="square" stroke-linejoin="round"/>
<path d="M6.33433 31.8889L13.6661 6.81818H46.3339L53.6657 31.8889H6.33433Z" stroke="#058FA2" stroke-width="2" stroke-linecap="square" stroke-linejoin="round"/>
<path d="M22.4993 12.0808L19.166 23.798" stroke="white" stroke-width="2" stroke-linecap="round" stroke-linejoin="round"/>
</svg>
