<svg width="120" height="120" viewBox="0 0 120 120" fill="none" xmlns="http://www.w3.org/2000/svg">
<path d="M118.125 9.375H1.875V110.625H118.125V9.375Z" stroke="#058FA2" stroke-width="2.5" stroke-miterlimit="10"/>
<path d="M106.875 20.625H20.625V99.375H106.875V20.625Z" stroke="#058FA2" stroke-width="2.5" stroke-miterlimit="10"/>
<path d="M11.25 31.875H22.5" stroke="#058FA2" stroke-width="2.5" stroke-miterlimit="10"/>
<path d="M11.25 50.625H22.5" stroke="#058FA2" stroke-width="2.5" stroke-miterlimit="10"/>
<path d="M11.25 69.375H22.5" stroke="#058FA2" stroke-width="2.5" stroke-miterlimit="10"/>
<path d="M11.25 88.125H22.5" stroke="#058FA2" stroke-width="2.5" stroke-miterlimit="10"/>
<path d="M82.5 65.625C85.6066 65.625 88.125 63.1066 88.125 60C88.125 56.8934 85.6066 54.375 82.5 54.375C79.3934 54.375 76.875 56.8934 76.875 60C76.875 63.1066 79.3934 65.625 82.5 65.625Z" stroke="#FDC114" stroke-width="2.5" stroke-miterlimit="10"/>
<path d="M82.5 76.875C91.8198 76.875 99.375 69.3198 99.375 60C99.375 50.6802 91.8198 43.125 82.5 43.125C73.1802 43.125 65.625 50.6802 65.625 60C65.625 69.3198 73.1802 76.875 82.5 76.875Z" stroke="#FDC114" stroke-width="2.5" stroke-miterlimit="10"/>
<path d="M65.625 60H76.875" stroke="#FDC114" stroke-width="2.5" stroke-miterlimit="10"/>
<path d="M82.5 54.375V43.125" stroke="#FDC114" stroke-width="2.5" stroke-miterlimit="10"/>
<path d="M88.125 60H99.375" stroke="#FDC114" stroke-width="2.5" stroke-miterlimit="10"/>
<path d="M82.5 65.625V76.875" stroke="#FDC114" stroke-width="2.5" stroke-miterlimit="10"/>
<path d="M86.25 63.75L93.75 71.25" stroke="#FDC114" stroke-width="2.5" stroke-miterlimit="10"/>
<path d="M86.25 56.25L93.75 48.75" stroke="#FDC114" stroke-width="2.5" stroke-miterlimit="10"/>
<path d="M78.75 56.25L71.25 48.75" stroke="#FDC114" stroke-width="2.5" stroke-miterlimit="10"/>
<path d="M78.7481 63.75L71.2969 71.25" stroke="#FDC114" stroke-width="2.5" stroke-miterlimit="10"/>
</svg>
