<svg width="72" height="72" viewBox="0 0 72 72" fill="none" xmlns="http://www.w3.org/2000/svg">
<path d="M70.875 5.625H1.125V66.375H70.875V5.625Z" stroke="#058FA2" stroke-width="2" stroke-miterlimit="10"/>
<path d="M64.125 12.375H12.375V59.625H64.125V12.375Z" stroke="#058FA2" stroke-width="2" stroke-miterlimit="10"/>
<path d="M6.75 19.125H13.5" stroke="#058FA2" stroke-width="2" stroke-miterlimit="10"/>
<path d="M6.75 30.375H13.5" stroke="#058FA2" stroke-width="2" stroke-miterlimit="10"/>
<path d="M6.75 41.625H13.5" stroke="#058FA2" stroke-width="2" stroke-miterlimit="10"/>
<path d="M6.75 52.875H13.5" stroke="#058FA2" stroke-width="2" stroke-miterlimit="10"/>
<path d="M49.5 39.375C51.364 39.375 52.875 37.864 52.875 36C52.875 34.136 51.364 32.625 49.5 32.625C47.636 32.625 46.125 34.136 46.125 36C46.125 37.864 47.636 39.375 49.5 39.375Z" stroke="#058FA2" stroke-width="2" stroke-miterlimit="10"/>
<path d="M49.5 46.125C55.0919 46.125 59.625 41.5919 59.625 36C59.625 30.4081 55.0919 25.875 49.5 25.875C43.9081 25.875 39.375 30.4081 39.375 36C39.375 41.5919 43.9081 46.125 49.5 46.125Z" stroke="#058FA2" stroke-width="2" stroke-miterlimit="10"/>
<path d="M39.375 36H46.125" stroke="#058FA2" stroke-width="2" stroke-miterlimit="10"/>
<path d="M49.5 32.625V25.875" stroke="#058FA2" stroke-width="2" stroke-miterlimit="10"/>
<path d="M52.875 36H59.625" stroke="#058FA2" stroke-width="2" stroke-miterlimit="10"/>
<path d="M49.5 39.375V46.125" stroke="#058FA2" stroke-width="2" stroke-miterlimit="10"/>
<path d="M51.75 38.25L56.25 42.75" stroke="#058FA2" stroke-width="2" stroke-miterlimit="10"/>
<path d="M51.75 33.75L56.25 29.25" stroke="#058FA2" stroke-width="2" stroke-miterlimit="10"/>
<path d="M47.25 33.75L42.75 29.25" stroke="#058FA2" stroke-width="2" stroke-miterlimit="10"/>
<path d="M47.2481 38.25L42.7773 42.75" stroke="#058FA2" stroke-width="2" stroke-miterlimit="10"/>
</svg>
