<svg width="70" height="66" viewBox="0 0 70 66" fill="none" xmlns="http://www.w3.org/2000/svg">
<path fill-rule="evenodd" clip-rule="evenodd" d="M56.9223 26.4038L55.0709 27.8998L52.7052 23.4798L47.7852 14.3848L50.0652 13.7048C51.5983 13.268 53.2326 13.9375 54.008 15.3198L55.3623 17.8528L57.7452 22.2558C58.4764 23.6601 58.1354 25.3788 56.9223 26.4038Z" fill="white" stroke="#FDC114" stroke-width="3"/>
<path d="M14.4267 52.9073L18.5924 50.6973L18.9696 50.4933L28.621 45.3933L28.9981 45.1893L30.8153 44.2203L32.6839 43.2003L21.9524 23.3613L20.1353 24.3303L3.72957 33.0003C3.72957 33.0003 -5.49329 49.5583 14.4267 52.9073ZM33.6267 63.7023C31.9862 64.6543 29.8908 64.2791 28.6896 62.8183L18.6267 50.6973L19.0039 50.4933L28.6553 45.3933L37.6381 56.2393C38.3663 57.1077 38.6702 58.2508 38.4686 59.3623C38.2669 60.4738 37.5802 61.4401 36.5924 62.0023L33.6267 63.7023Z" fill="white" stroke="#058FA2" stroke-width="3" stroke-linecap="round" stroke-linejoin="round"/>
<path d="M61.2446 39.8001C51.6082 37.7513 41.5581 38.9477 32.6846 43.2001L21.9531 23.3611C30.4959 18.465 37.1357 10.8689 40.8103 1.78809L55.416 28.8861L61.2446 39.8001Z" fill="white" stroke="#058FA2" stroke-width="3" stroke-linecap="round" stroke-linejoin="round"/>
<path fill-rule="evenodd" clip-rule="evenodd" d="M59.3077 6.10645L58.3477 9.50645L59.3077 6.10645ZM67.2105 12.2944L64.1077 13.9944L67.2105 12.2944ZM68.3934 22.1884L64.9648 21.2364L68.3934 22.1884Z" fill="#FDC114"/>
<path d="M59.3077 6.10645L58.3477 9.50645M67.2105 12.2944L64.1077 13.9944M68.3934 22.1884L64.9648 21.2364" stroke="#FDC114" stroke-width="3" stroke-linecap="round" stroke-linejoin="round"/>
</svg>
