<svg width="80" height="80" viewBox="0 0 80 80" fill="none" xmlns="http://www.w3.org/2000/svg">
<path d="M5.5 60.3125C4.4375 60.3125 3.625 59.5 3.625 58.4375V11C3.625 9.9375 4.4375 9.125 5.5 9.125H74.4375C75.5 9.125 76.3125 9.9375 76.3125 11V58.4375C76.3125 59.6875 75.4375 60.3125 74.5625 60.3125H5.5ZM7.375 56.875H72.6875V13H7.375V56.875Z" fill="#058FA2"/>
<path d="M57.3125 51.75C56.25 51.75 55.4375 50.9375 55.4375 49.875C55.4375 48.8125 56.25 48 57.3125 48H64.625C65.6875 48 66.5 48.8125 66.5 49.875C66.5 50.9375 65.5 51.75 64.625 51.75H57.3125ZM40 69.0625C38.9375 69.0625 38.125 68.25 38.125 67.1875V59.25C38.125 58.1875 38.9375 57.375 40 57.375C41.0625 57.375 41.875 58.1875 41.875 59.25V67.3125C41.8125 68.25 41 69.0625 40 69.0625Z" fill="#058FA2"/>
<path d="M24.6875 70.6875C23.625 70.6875 22.8125 69.875 22.8125 68.8125C22.8125 67.75 23.625 66.9375 24.6875 66.9375H55.375C56.4375 66.9375 57.25 67.75 57.25 68.8125C57.25 69.875 56.25 70.6875 55.375 70.6875H24.6875Z" fill="#058FA2"/>
</svg>
