<svg width="72" height="72" viewBox="0 0 72 72" fill="none" xmlns="http://www.w3.org/2000/svg">
<path d="M67.5 42.75H4.5V48.375H67.5V42.75Z" stroke="#058FA2" stroke-width="2" stroke-miterlimit="10" stroke-linecap="round" stroke-linejoin="round"/>
<path d="M63 48.375H9V65.25H63V48.375Z" stroke="#058FA2" stroke-width="2" stroke-miterlimit="10" stroke-linecap="round" stroke-linejoin="round"/>
<path d="M23.5949 23.5967C25.1326 22.059 25.1326 19.566 23.5949 18.0283C22.0572 16.4906 19.5641 16.4906 18.0264 18.0283C16.4887 19.566 16.4887 22.059 18.0264 23.5967C19.5641 25.1344 22.0572 25.1344 23.5949 23.5967Z" stroke="#058FA2" stroke-width="2" stroke-miterlimit="10" stroke-linecap="round" stroke-linejoin="round"/>
<path d="M9 40.5V42.75H32.625V40.5V41.0625C32.625 34.5386 27.3364 29.25 20.8125 29.25C14.2886 29.25 9 34.5386 9 41.0625V40.5Z" stroke="#058FA2" stroke-width="2" stroke-miterlimit="10" stroke-linecap="round" stroke-linejoin="round"/>
<path d="M13.5 38.25H18C19.2426 38.25 20.25 39.2574 20.25 40.5C20.25 41.7426 19.2426 42.75 18 42.75H13.5" stroke="#058FA2" stroke-width="2" stroke-miterlimit="10" stroke-linecap="round" stroke-linejoin="round"/>
<path d="M28.125 38.25H23.625C22.3824 38.25 21.375 39.2574 21.375 40.5C21.375 41.7426 22.3824 42.75 23.625 42.75H28.125" stroke="#058FA2" stroke-width="2" stroke-miterlimit="10" stroke-linecap="round" stroke-linejoin="round"/>
<path d="M63 31.5H47.25V42.75H63V31.5Z" stroke="#058FA2" stroke-width="2" stroke-miterlimit="10" stroke-linecap="round" stroke-linejoin="round"/>
<path d="M55.125 18C58.2316 18 60.75 15.4816 60.75 12.375C60.75 9.2684 58.2316 6.75 55.125 6.75C52.0184 6.75 49.5 9.2684 49.5 12.375C49.5 15.4816 52.0184 18 55.125 18Z" stroke="#058FA2" stroke-width="2" stroke-miterlimit="10" stroke-linecap="round" stroke-linejoin="round"/>
<path d="M55.125 10.125V12.375" stroke="#058FA2" stroke-width="2" stroke-miterlimit="10" stroke-linecap="round" stroke-linejoin="round"/>
<path d="M54 12.375H55.125" stroke="#058FA2" stroke-width="2" stroke-miterlimit="10" stroke-linecap="round" stroke-linejoin="round"/>
</svg>
