<svg width="50" height="50" viewBox="0 0 50 50" fill="none" xmlns="http://www.w3.org/2000/svg">
<path d="M10.2187 12.4063C11.9878 12.4063 13.4219 10.9722 13.4219 9.20313C13.4219 7.43409 11.9878 6 10.2187 6C8.44971 6 7.01562 7.43409 7.01562 9.20313C7.01562 10.9722 8.44971 12.4063 10.2187 12.4063Z" fill="#4C4C4C"/>
<path d="M14.7497 25.4141H9.39814V21.4297L6.6247 16.7031C6.50751 16.5078 6.58564 16.2734 6.74189 16.1562C6.9372 16.0391 7.17157 16.1172 7.28876 16.2734L10.4919 21.7422C10.7263 22.1328 11.1559 22.4453 11.6638 22.4453H17.1325C17.9138 22.4453 18.5388 21.7812 18.5388 21.0391C18.5388 20.2578 17.8747 19.6328 17.1325 19.6328L12.5231 19.6719L8.92939 13.5781C8.65595 13.1094 8.10907 12.8359 7.48407 12.8359C7.40595 12.8359 7.17157 12.875 7.09345 12.875C7.01532 12.875 6.85907 12.9141 6.78095 12.9531C4.1247 13.8516 2.01532 18.0703 2.01532 22.4453C1.97626 23.7734 2.01532 24.8672 2.09345 25.9219C1.97626 27.1719 2.75751 28.4219 3.96845 28.8906C4.28095 29.0078 4.63251 29.0859 4.94501 29.0859H12.9528V36.5859C12.9528 37.6016 13.7731 38.3828 14.7497 38.3828C15.7653 38.3828 16.5466 37.5625 16.5466 36.5859V27.25C16.5466 26.7813 16.3513 26.3125 15.9997 25.9609C15.6481 25.6094 15.1794 25.4141 14.7497 25.4141Z" fill="#4C4C4C"/>
<path d="M31 22.0937H31.0781V21.0781H31H29.9453C29.2813 18.9297 27.6406 17.3281 25.6094 17.0938C25.6875 16.9766 25.7656 16.8594 25.7656 16.7031C25.7656 16.3906 25.4922 16.1172 25.1797 16.1172C24.8672 16.1172 24.5937 16.3906 24.5937 16.7031C24.5937 16.8594 24.6328 16.9766 24.75 17.0938C22.7188 17.3281 21.0781 18.9297 20.4141 21.0781H19.3594H19.2812V22.0937H19.3594H31Z" fill="#4C4C4C"/>
<path d="M38.6562 23.1484H11.5469V24.5937H38.6562V23.1484Z" fill="#4C4C4C"/>
<path d="M39.9844 12.7188C41.7534 12.7188 43.1875 11.2847 43.1875 9.51563C43.1875 7.74659 41.7534 6.3125 39.9844 6.3125C38.2153 6.3125 36.7812 7.74659 36.7812 9.51563C36.7812 11.2847 38.2153 12.7188 39.9844 12.7188Z" fill="#4C4C4C"/>
<path d="M48.2266 22.4453C48.2266 18.0703 46.1172 13.8125 43.4609 12.9531C43.3828 12.9141 43.2266 12.9141 43.1484 12.875C43.0703 12.8359 42.8359 12.8359 42.7578 12.8359C42.0938 12.8359 41.5859 13.1094 41.3125 13.5781L37.6797 19.75L33.0703 19.6719C32.3281 19.6719 31.6641 20.2969 31.6641 21.0781C31.6641 21.8203 32.2891 22.4844 33.0703 22.4844H38.5391C39.0469 22.4844 39.4766 22.1719 39.7109 21.7813L42.9141 16.3125C43.0313 16.1563 43.2656 16.0781 43.4609 16.1953C43.6172 16.3125 43.6953 16.5469 43.5781 16.7422L40.8047 21.4687V25.4531H35.4922C35.0625 25.4531 34.5938 25.6484 34.2031 26.0391C33.8516 26.3516 33.6563 26.8594 33.6563 27.3281V36.6641C33.6563 37.6797 34.4375 38.4609 35.4531 38.4609C36.4688 38.4609 37.25 37.6797 37.25 36.6641V29.0859H45.2578C45.5703 29.0859 45.9219 29.0078 46.2344 28.8906C47.4844 28.4219 48.2266 27.1719 48.1094 25.9219C48.2266 24.8672 48.2656 23.7734 48.2266 22.4453Z" fill="#4C4C4C"/>
</svg>
