<svg width="20" height="20" viewBox="0 0 20 20" fill="none" xmlns="http://www.w3.org/2000/svg">
<g clip-path="url(#clip0_2_8908)">
<path d="M18.75 6.87549V1.87549C18.75 1.70973 18.6842 1.55076 18.5669 1.43355C18.4497 1.31634 18.2908 1.25049 18.125 1.25049H11.875C11.7092 1.25049 11.5503 1.31634 11.4331 1.43355C11.3158 1.55076 11.25 1.70973 11.25 1.87549V6.87549C11.2515 7.76085 11.5659 8.61718 12.1378 9.29308C12.7097 9.96897 13.5021 10.4209 14.375 10.5689V17.5002H11.875V18.7502H18.125V17.5002H15.625V10.5689C16.4979 10.4209 17.2903 9.96897 17.8622 9.29308C18.4341 8.61718 18.7485 7.76085 18.75 6.87549ZM12.5 6.87549V2.50018H17.5V6.87549C17.5 7.53853 17.2366 8.17441 16.7678 8.64326C16.2989 9.1121 15.663 9.37549 15 9.37549C14.337 9.37549 13.7011 9.1121 13.2322 8.64326C12.7634 8.17441 12.5 7.53853 12.5 6.87549Z" fill="#058FA2"/>
<path d="M7.5 1.25V6.8875C7.49927 7.54369 7.23828 8.17279 6.77429 8.63679C6.31029 9.10078 5.68119 9.36177 5.025 9.3625C4.3622 9.3683 3.72416 9.111 3.25081 8.64702C2.77747 8.18305 2.50745 7.55028 2.5 6.8875V1.25H1.25V6.8875C1.2561 7.76861 1.57284 8.61932 2.14447 9.28986C2.7161 9.96041 3.50596 10.4078 4.375 10.5533V18.75H5.625V10.5596C6.4964 10.4168 7.28883 9.96927 7.86112 9.29679C8.43341 8.62432 8.7484 7.77053 8.75 6.8875V1.25H7.5Z" fill="#058FA2"/>
<path d="M5.625 1.25H4.375V7.4875H5.625V1.25Z" fill="#058FA2"/>
</g>
<defs>
<clipPath id="clip0_2_8908">
<rect width="20" height="20" fill="white"/>
</clipPath>
</defs>
</svg>
