<svg width="50" height="53" viewBox="0 0 50 53" fill="none" xmlns="http://www.w3.org/2000/svg">
<g clip-path="url(#clip0_961_1704)">
<path d="M13.1155 1.38892H36.8758C38.7505 1.38892 40.2724 2.9288 40.2802 4.83336V47.8889C40.2909 48.8133 39.9371 49.7037 39.2975 50.3613C38.6579 51.0189 37.7858 51.3889 36.8758 51.3889H13.1155C11.243 51.3889 9.72505 49.8468 9.72505 47.9445V4.88892C9.71039 3.9658 10.0611 3.07536 10.6985 2.41733C11.336 1.75931 12.2067 1.38892 13.1155 1.38892Z" fill="#6EC4C2" stroke="#F9BF02" stroke-width="2" stroke-linecap="round" stroke-linejoin="round"/>
<path d="M40.2802 43.0557V48.061C40.2726 49.9012 38.7507 51.389 36.876 51.389H13.1151C11.2426 51.389 9.72461 49.899 9.72461 48.061V43.0557H40.2802Z" fill="#6EC4C2" stroke="#F9BF02" stroke-width="2" stroke-linecap="round" stroke-linejoin="round"/>
<path d="M26.3911 47.2221C26.3911 47.9892 25.7692 48.611 25.0022 48.611C24.2351 48.611 23.6133 47.9892 23.6133 47.2221C23.6133 46.4551 24.2351 45.8333 25.0022 45.8333C25.7692 45.8333 26.3911 46.4551 26.3911 47.2221Z" fill="white"/>
<path d="M16.668 6.94458H33.3346" stroke="white" stroke-width="2" stroke-linecap="round" stroke-linejoin="round"/>
<path d="M45.8351 19.4446C47.591 21.2695 48.5901 23.7581 48.6125 26.3629C48.6348 28.9676 47.6787 31.4751 45.9543 33.3335M4.1684 19.4446C2.41245 21.2695 1.41338 23.7581 1.39101 26.3629C1.36864 28.9676 2.32481 31.4751 4.04912 33.3335" stroke="white" stroke-width="2" stroke-linecap="round" stroke-linejoin="round"/>
</g>
<defs>
<clipPath id="clip0_961_1704">
<rect width="50" height="52.7778" fill="white"/>
</clipPath>
</defs>
</svg>
