<svg width="80" height="66" viewBox="0 0 80 66" fill="none" xmlns="http://www.w3.org/2000/svg">
<path fill-rule="evenodd" clip-rule="evenodd" d="M6.05812 0.946529C3.19586 2.72296 3.06022 3.65776 3.33242 19.7397L3.5752 34.0986L2.41466 35.187C0.135887 37.3248 -0.00711053 38.3251 0.000246281 52.0591C0.00438449 59.0829 0.178649 65.1045 0.387858 65.4406C0.647646 65.8572 1.61185 66.0056 3.42576 65.9087L6.08295 65.766L6.97358 63.4255C7.46327 62.1382 8.47667 60.453 9.22523 59.6807L10.5867 58.2764H39.6599C73.3237 58.2764 70.7374 57.9145 73.1017 62.9569L74.528 66H76.9842C78.8 66 79.5131 65.8067 79.7196 65.2595C80.1858 64.0232 80.0313 40.5977 79.5453 38.8737C79.2961 37.989 78.3397 36.4808 77.4201 35.5221L75.7478 33.7785L75.5538 19.112C75.3423 3.10821 75.2181 2.32414 72.658 0.784567C71.4675 0.068377 68.5009 -0.00183709 39.4654 3.53069e-05C8.29551 0.0014396 7.54604 0.0229718 6.05812 0.946529ZM7.19153 4.131C6.5193 4.88698 6.43056 6.60911 6.43056 18.8761C6.43056 26.515 6.54137 32.765 6.67701 32.765C6.81265 32.765 9.88412 32.2464 13.5032 31.6121C22.3033 30.0702 22.908 30.0173 35.6279 29.6798C45.3587 29.4219 54.8614 29.787 61.6066 30.6782C63.7613 30.9629 70.8307 32.2791 71.8303 32.582C72.5471 32.7992 72.6106 32.4748 72.457 29.4008C72.3632 27.5181 72.2625 21.2007 72.234 15.3616C72.1899 6.38349 72.0708 4.63233 71.4597 4.01023C70.8169 3.3563 67.27 3.27485 39.3449 3.27485C9.51628 3.27485 7.9148 3.31745 7.19153 4.131ZM28.7309 33.0351C18.5104 34.0331 9.35213 35.4552 6.07789 36.5524C4.21478 37.1769 3.21195 39.0371 3.21195 41.8695V43.9994H39.996H76.7801V42.0821C76.7801 39.8328 75.7602 37.864 74.0682 36.8464C72.6055 35.9668 67.0493 34.8551 59.3076 33.8922C53.9248 33.2228 32.8544 32.6321 28.7309 33.0351ZM3.21195 54.9997C3.21195 59.2477 3.37748 62.7233 3.57934 62.7233C3.78165 62.7233 4.2088 61.9861 4.52882 61.085C5.25163 59.0501 7.0683 56.8103 8.68726 55.9584C9.68687 55.4322 15.4224 55.2894 39.5541 55.1911C72.5858 55.0568 71.0652 54.9201 73.9688 58.2871C74.8176 59.2711 75.7887 60.7245 76.1281 61.5166C76.6757 62.7968 76.746 62.0848 76.7621 55.1167L76.7801 47.2761H39.996H3.21195V54.9997Z" fill="#058FA2"/>
<mask id="path-2-inside-1_2982_8160" fill="white">
<rect x="14" y="21" width="23" height="11" rx="2"/>
</mask>
<rect x="14" y="21" width="23" height="11" rx="2" stroke="#FDD304" stroke-width="6" mask="url(#path-2-inside-1_2982_8160)"/>
<mask id="path-3-inside-2_2982_8160" fill="white">
<rect x="42" y="21" width="23" height="11" rx="2"/>
</mask>
<rect x="42" y="21" width="23" height="11" rx="2" stroke="#FDD304" stroke-width="6" mask="url(#path-3-inside-2_2982_8160)"/>
</svg>
