<svg width="60" height="60" viewBox="0 0 60 60" fill="none" xmlns="http://www.w3.org/2000/svg">
<path d="M59.1728 19.825C59.1726 19.8179 59.1725 19.8109 59.1725 19.8039C59.1725 16.3234 58.8048 13.1957 58.6143 11.576C58.5893 11.3631 58.5673 11.1763 58.5496 11.0181C58.5071 10.6913 58.397 10.3741 58.2242 10.0848C58.0503 9.79386 57.816 9.53642 57.5332 9.3289C57.2503 9.12132 56.925 8.96822 56.576 8.88008C56.2269 8.79194 55.8623 8.7709 55.504 8.81844C55.4713 8.82278 55.4384 8.82496 55.4054 8.82496C55.0525 8.82496 54.4956 8.88691 53.738 8.97119C53.6473 8.98127 53.5537 8.99168 53.4573 9.00234C52.585 9.09877 51.5328 9.20816 50.4148 9.25222C48.3446 9.36458 46.2679 9.20587 44.2425 8.7804C44.2159 8.77481 44.1896 8.76779 44.1638 8.75935C41.7251 7.96275 39.4425 6.78099 37.4112 5.26235C35.6828 4.10015 34.0415 2.82387 32.4994 1.44279C32.0029 1.00077 31.3426 0.75 30.6508 0.75C29.9587 0.75 29.2983 1.00089 28.8018 1.44308C27.3209 2.76678 25.7642 4.01091 24.139 5.16977C22.0959 6.70914 19.805 7.92015 17.3566 8.75618C17.329 8.76562 17.3008 8.77343 17.2723 8.77958C14.9718 9.27544 12.6089 9.45375 10.2558 9.30918C8.35981 9.234 6.46954 9.06031 4.59334 8.78886M59.1728 19.825L4.69953 8.04642M59.1728 19.825C59.173 19.8323 59.1733 19.8395 59.1738 19.8468C59.3989 23.7715 59.125 27.7079 58.3582 31.57C56.3342 37.7092 52.6728 43.2465 47.7278 47.6378C47.7238 47.6414 47.7198 47.645 47.7159 47.6486C47.7126 47.6517 47.7093 47.6548 47.7061 47.6579C43.728 51.4816 39.3986 54.9583 34.7696 58.046C33.5734 58.8289 32.153 59.25 30.6956 59.25C29.2373 59.25 27.816 58.8283 26.6193 58.0445L26.6015 58.0332C21.7117 55.0232 17.1218 51.5923 12.8893 47.7838C12.8819 47.7771 12.8744 47.7706 12.8667 47.7642C7.61653 43.4067 3.72098 37.7655 1.59696 31.4545C0.848531 27.6307 0.594702 23.7339 0.841125 19.8514L0.841249 19.8514L0.841865 19.8378C1.02006 15.8997 1.40617 12.3552 1.55577 10.9851L59.1728 19.825ZM4.59334 8.78886C4.59294 8.78881 4.59253 8.78875 4.59213 8.78869L4.69953 8.04642M4.59334 8.78886C4.59373 8.78892 4.59412 8.78897 4.59452 8.78903L4.69953 8.04642M4.59334 8.78886C4.23583 8.73846 3.87136 8.75722 3.52212 8.84381C3.17252 8.93048 2.84676 9.08296 2.56385 9.29057L2.12014 8.6859C2.48306 8.41958 2.89849 8.22571 3.34164 8.11584C3.7848 8.00598 4.24661 7.98237 4.69953 8.04642" fill="#058FA2" stroke="#058FA2" stroke-width="1.5" stroke-linecap="round" stroke-linejoin="round"/>
</svg>
