<svg width="64" height="64" viewBox="0 0 64 64" fill="none" xmlns="http://www.w3.org/2000/svg">
<path d="M54 45H26V49H54V45Z" stroke="#058FA2" stroke-width="2" stroke-miterlimit="10" stroke-linecap="round" stroke-linejoin="round"/>
<path d="M29 53C30.1046 53 31 52.1046 31 51C31 49.8954 30.1046 49 29 49C27.8954 49 27 49.8954 27 51C27 52.1046 27.8954 53 29 53Z" stroke="#058FA2" stroke-width="2" stroke-miterlimit="10" stroke-linecap="round" stroke-linejoin="round"/>
<path d="M51 53C52.1046 53 53 52.1046 53 51C53 49.8954 52.1046 49 51 49C49.8954 49 49 49.8954 49 51C49 52.1046 49.8954 53 51 53Z" stroke="#058FA2" stroke-width="2" stroke-miterlimit="10" stroke-linecap="round" stroke-linejoin="round"/>
<path d="M53 31.9999V44.9999H27V31.9999C27 26.0499 31.32 21.1199 37 20.1699V21.9999H43V20.1699C48.68 21.1199 53 26.0499 53 31.9999Z" stroke="#058FA2" stroke-width="2" stroke-miterlimit="10" stroke-linecap="round" stroke-linejoin="round"/>
<path d="M43 18H37V22H43V18Z" stroke="#058FA2" stroke-width="2" stroke-miterlimit="10" stroke-linecap="round" stroke-linejoin="round"/>
<path d="M34 33H30V45H34V33Z" stroke="#058FA2" stroke-width="2" stroke-miterlimit="10" stroke-linecap="round" stroke-linejoin="round"/>
<path d="M42 33H38V45H42V33Z" stroke="#058FA2" stroke-width="2" stroke-miterlimit="10" stroke-linecap="round" stroke-linejoin="round"/>
<path d="M50 33H46V45H50V33Z" stroke="#058FA2" stroke-width="2" stroke-miterlimit="10" stroke-linecap="round" stroke-linejoin="round"/>
<path d="M32 33V30" stroke="#058FA2" stroke-width="2" stroke-miterlimit="10" stroke-linecap="round" stroke-linejoin="round"/>
<path d="M40 33V30" stroke="#058FA2" stroke-width="2" stroke-miterlimit="10" stroke-linecap="round" stroke-linejoin="round"/>
<path d="M48 33V30" stroke="#058FA2" stroke-width="2" stroke-miterlimit="10" stroke-linecap="round" stroke-linejoin="round"/>
<path d="M15 38H12C10.8954 38 10 37.1046 10 36V23C10 21.8954 10.8954 21 12 21H15C16.1046 21 17 21.8954 17 23V36C17 37.1046 16.1046 38 15 38Z" stroke="#058FA2" stroke-width="2" stroke-miterlimit="10" stroke-linecap="round" stroke-linejoin="round"/>
<path d="M16 38V50.5C16 51.88 14.88 53 13.5 53C12.12 53 11 51.88 11 50.5V38H16Z" stroke="#058FA2" stroke-width="2" stroke-miterlimit="10" stroke-linecap="round" stroke-linejoin="round"/>
<path d="M27 28.5C27 29.8807 25.8807 31 24.5 31H17V26H24.5C25.8807 26 27 27.1193 27 28.5Z" stroke="#058FA2" stroke-width="2" stroke-miterlimit="10" stroke-linecap="round" stroke-linejoin="round"/>
<path d="M13.5 18C15.433 18 17 16.433 17 14.5C17 12.567 15.433 11 13.5 11C11.567 11 10 12.567 10 14.5C10 16.433 11.567 18 13.5 18Z" stroke="#058FA2" stroke-width="2" stroke-miterlimit="10" stroke-linecap="round" stroke-linejoin="round"/>
</svg>
