<svg width="80" height="80" viewBox="0 0 80 80" fill="none" xmlns="http://www.w3.org/2000/svg">
<path d="M61.0003 63V28.5333C61.0003 25.2093 59.4159 22.0214 56.5955 19.6709C53.775 17.3205 49.9495 16 45.961 16C41.9722 16 38.1469 17.3205 35.3264 19.6709C32.592 21.9497 31.0192 25.0156 30.9258 28.2295" stroke="#058FA2" stroke-width="2.5" stroke-linecap="round" stroke-linejoin="round"/>
<path d="M19.6406 37.9332C19.6406 35.4401 20.829 33.0492 22.9443 31.2864C25.0597 29.5236 27.9287 28.5332 30.9202 28.5332C33.9118 28.5332 36.7809 29.5236 38.8962 31.2864C41.0115 33.0492 42.1999 35.4401 42.1999 37.9332H19.6406Z" stroke="#058FA2" stroke-width="2.5" stroke-linecap="round" stroke-linejoin="round"/>
<path d="M21.5206 44.2002L19.6406 48.9002" stroke="#058FA2" stroke-width="2.5" stroke-linecap="round" stroke-linejoin="round"/>
<path d="M15.8799 58.2998L14 62.9998" stroke="#058FA2" stroke-width="2.5" stroke-linecap="round" stroke-linejoin="round"/>
<path d="M40.3203 44.2002L42.2003 48.9002" stroke="#058FA2" stroke-width="2.5" stroke-linecap="round" stroke-linejoin="round"/>
<path d="M45.9609 58.2998L47.8409 62.9998" stroke="#058FA2" stroke-width="2.5" stroke-linecap="round" stroke-linejoin="round"/>
<path d="M30.918 44.2002V48.9002" stroke="#058FA2" stroke-width="2.5" stroke-linecap="round" stroke-linejoin="round"/>
<path d="M30.918 62.9998V58.2998" stroke="#058FA2" stroke-width="2.5" stroke-linecap="round" stroke-linejoin="round"/>
</svg>
