<svg width="40" height="43" viewBox="0 0 40 43" fill="none" xmlns="http://www.w3.org/2000/svg">
<path fill-rule="evenodd" clip-rule="evenodd" d="M17.9629 0.141245C13.4055 0.937468 9.8713 4.20707 8.73677 8.6767C8.51593 9.5467 8.48463 9.85888 8.48226 11.2116C8.47942 12.8805 8.61383 13.7481 9.06869 14.9982C10.0731 17.7583 12.2165 20.1264 14.8799 21.4187C17.7176 22.7954 21.1945 22.9413 24.1159 21.8061C29.5935 19.6776 32.5537 13.9525 31.0472 8.40079C29.6936 3.41234 25.0815 -0.0396725 19.824 0.000344298C19.2178 0.00492566 18.3803 0.0684107 17.9629 0.141245ZM18.9089 3.08127C16.8433 3.34745 14.8152 4.41538 13.5519 5.9018C12.2707 7.40935 11.6751 8.89857 11.5851 10.8196C11.5262 12.0754 11.6598 13.0171 12.0444 14.0579C12.7887 16.0722 14.2639 17.6868 16.233 18.6421C17.5911 19.3011 18.3629 19.4703 20.0024 19.4686C21.2221 19.4673 21.4746 19.4385 22.2317 19.2139C25.2191 18.3275 27.3187 16.1867 28.1234 13.2065C28.3868 12.2305 28.3678 10.19 28.0862 9.22114C27.365 6.74084 25.8128 4.91437 23.5054 3.8314C22.5962 3.40467 21.9152 3.21375 20.8184 3.07818C19.9714 2.97356 19.7417 2.97393 18.9089 3.08127ZM11.3227 24.8111C8.80877 25.2126 6.48004 26.3029 4.54014 27.9865C2.34885 29.8882 0.886955 32.4084 0.262962 35.3597C0.0205929 36.5061 -0.0830894 38.9401 0.0763714 39.7412C0.409332 41.4144 1.665 42.638 3.3207 42.9029C3.71798 42.9664 9.51216 42.9995 20.3138 42.9999C36.6307 43.0007 36.7064 42.9998 37.2859 42.8074C38.6972 42.3388 39.6521 41.2424 39.9354 39.7651C40.0693 39.067 39.9836 36.7037 39.7841 35.5902C38.9452 30.909 35.436 26.8913 30.8577 25.3704C30.4437 25.2329 29.7209 25.0329 29.2513 24.9261C28.4263 24.7382 28.1229 24.731 20.2396 24.7107C13.9261 24.6946 11.91 24.7172 11.3227 24.8111ZM11.7021 27.7691C8.01706 28.3041 4.74143 31.0642 3.55671 34.6327C3.05765 36.1357 2.83928 38.9211 3.17092 39.5532C3.47675 40.1361 2.43546 40.1023 20.0516 40.1023C34.1379 40.1023 36.1723 40.0849 36.4123 39.9626C36.9249 39.7012 36.9825 39.5218 36.9821 38.1881C36.9811 34.9117 35.9674 32.5009 33.702 30.3873C32.4197 29.1909 31.0662 28.4625 29.112 27.917C28.4104 27.7213 28.2535 27.7174 20.3344 27.7021C15.8997 27.6935 12.0152 27.7237 11.7021 27.7691Z" fill="#3396A1"/>
</svg>
