<svg width="60" height="60" viewBox="0 0 60 60" fill="none" xmlns="http://www.w3.org/2000/svg">
<path fill-rule="evenodd" clip-rule="evenodd" d="M4.86142 3.209C6.96282 1.14971 9.41944 0 12.1286 0C13.1994 0 14.2891 0.227107 15.2848 0.701581C16.3136 1.17848 17.2513 1.90864 17.9803 2.95596L24.4536 12.067C25.0265 12.8625 25.4747 13.6408 25.7992 14.4289C26.1286 15.2012 26.3531 16.0645 26.3531 16.9395C26.3531 18.0192 26.0381 19.0511 25.4783 19.9797C25.0027 20.8126 24.3529 21.6158 23.6021 22.3675L21.6774 24.3655C21.6968 24.4114 21.723 24.4736 21.7513 24.5456C22.1695 25.2779 22.9102 26.3085 24.0332 27.6346C25.2632 29.0537 26.5677 30.4914 27.975 31.9247C29.4615 33.3812 30.8694 34.7046 32.291 35.9101C33.6352 37.0457 34.6826 37.7696 35.4439 38.1829C35.5054 38.2094 35.5621 38.2351 35.6082 38.256L37.5356 36.3566C38.3 35.5942 39.1193 34.9222 39.994 34.4556C40.9079 33.9123 41.9041 33.6 43.0089 33.6C43.8469 33.6 44.675 33.7786 45.5072 34.1185C46.2978 34.4417 47.0719 34.8862 47.8483 35.4134L47.8659 35.4254L57.1241 41.9891C58.115 42.6767 58.8917 43.5474 59.3754 44.6453L59.3897 44.678L59.4031 44.7112C59.7591 45.6 60 46.5631 60 47.6651C60 48.9837 59.7057 50.321 59.1007 51.6008C58.7925 52.2525 58.4314 52.8896 58.0063 53.5088C57.8588 53.724 57.7037 53.9366 57.5408 54.1465C57.3267 54.4225 57.0992 54.6932 56.858 54.9589C56.2594 55.6178 55.6276 56.2166 54.9591 56.7505C53.8994 57.5975 52.7572 58.2748 51.5226 58.7807C49.5823 59.5873 47.4928 60 45.2725 60C42.0905 60 38.7647 59.2524 35.3405 57.7953C31.966 56.3595 28.6153 54.4356 25.3151 52.0362L25.3123 52.0342C22.0122 49.6273 18.8866 46.9635 15.9075 44.0174L15.8931 44.0032C12.9431 41.0286 10.2751 37.9066 7.89105 34.6365L7.88395 34.627C5.5186 31.3432 3.59134 28.027 2.17895 24.7066L2.17635 24.7005C0.746688 21.3099 0 17.9917 0 14.7628C0 12.6191 0.378947 10.5414 1.15378 8.60489C1.94188 6.60706 3.17978 4.79732 4.86142 3.209Z" fill="#058FA2"/>
</svg>
