<svg width="72" height="72" viewBox="0 0 72 72" fill="none" xmlns="http://www.w3.org/2000/svg">
<path d="M3.75 32.5784H6.822V64.0784C6.822 64.4909 7.158 64.8284 7.572 64.8284C7.986 64.8284 8.322 64.4909 8.322 64.0784V32.5784H19.1055V39.0464C19.1055 39.4619 19.4415 39.7964 19.8555 39.7964H52.1415C52.554 39.7964 52.8915 39.4619 52.8915 39.0464V32.5784H63.675V64.0784C63.675 64.4909 64.0095 64.8284 64.425 64.8284C64.8375 64.8284 65.175 64.4909 65.175 64.0784V32.5784H68.25C68.6625 32.5784 69 32.2424 69 31.8284C69 31.4144 68.6625 31.0784 68.25 31.0784H52.146H42.0555C40.7835 30.1319 39.837 28.8404 39.2895 27.3644H44.9385C47.8335 27.3644 50.1885 25.0094 50.1885 22.1144V12.4214C50.1885 9.52639 47.8335 7.17139 44.9385 7.17139H27.063C24.168 7.17139 21.813 9.52639 21.813 12.4214V22.1129C21.813 25.0079 24.168 27.3629 27.063 27.3629H32.712C32.166 28.8389 31.218 30.1304 29.9475 31.0769H19.8585H3.75C3.336 31.0769 3 31.4129 3 31.8269C3 32.2409 3.3375 32.5784 3.75 32.5784ZM23.313 22.1144V12.4214C23.313 10.3544 24.996 8.67139 27.063 8.67139H44.9385C47.007 8.67139 48.6885 10.3544 48.6885 12.4214V22.1129C48.6885 24.1799 47.007 25.8629 44.9385 25.8629H27.063C24.996 25.8644 23.313 24.1814 23.313 22.1144ZM34.287 27.3644H37.713C38.1375 28.7519 38.853 30.0209 39.831 31.0784H32.169C33.147 30.0194 33.8625 28.7519 34.287 27.3644ZM51.396 32.5784V38.2964H20.6085V32.5784H51.396Z" fill="#058FA2"/>
<path d="M27.625 37.728H44.3755C44.788 37.728 45.1255 37.3905 45.1255 36.978C45.1255 36.5625 44.788 36.228 44.3755 36.228H27.625C27.211 36.228 26.875 36.564 26.875 36.978C26.875 37.392 27.211 37.728 27.625 37.728Z" fill="#058FA2"/>
</svg>
