<svg width="72" height="72" viewBox="0 0 72 72" fill="none" xmlns="http://www.w3.org/2000/svg">
<path d="M58.4961 26.9346H57.1602V28.2705H58.4961V26.9346Z" fill="#058FA2"/>
<path d="M58.4961 23.0674H57.1602V24.4033H58.4961V23.0674Z" fill="#058FA2"/>
<path d="M58.4961 53.938H57.1602V55.2739H58.4961V53.938Z" fill="#058FA2"/>
<path d="M58.4961 50.0708H57.1602V51.4067H58.4961V50.0708Z" fill="#058FA2"/>
<path d="M46.8229 42.5273C46.8229 40.9334 45.6581 39.6073 44.1354 39.3534C44.5181 38.8148 44.727 38.1731 44.727 37.4978C44.727 35.723 43.2831 34.279 41.5083 34.279H38.0165V35.6853H41.5083C42.5077 35.6853 43.3208 36.4982 43.3208 37.4978C43.3208 37.9825 43.1323 38.4372 42.7894 38.779C42.4479 39.1205 41.9929 39.3086 41.5084 39.3086V40.7149H43.6043C44.6034 40.7149 45.4168 41.5281 45.4168 42.5274C45.4168 43.01 45.2281 43.4645 44.8854 43.8071C44.5428 44.1499 44.0878 44.3385 43.6044 44.3385H42.0886V45.7448H43.6044C44.6036 45.7448 45.4169 46.5572 45.4169 47.5556C45.4169 48.0392 45.2282 48.4941 44.8847 48.8377C44.5438 49.1797 44.089 49.368 43.6044 49.368H41.5085V50.7742C42.508 50.7742 43.3211 51.5866 43.3211 52.5853C43.3211 53.0698 43.1326 53.5247 42.7896 53.8663C42.4471 54.2088 41.9923 54.3974 41.5087 54.3974H34.5238C33.5253 54.3974 32.7129 53.5845 32.7129 52.5852C32.7129 51.5865 33.5253 50.7741 34.5238 50.7741H39.1506V49.3678H34.5238C33.5253 49.3678 32.7129 48.5549 32.7129 47.5553C32.7129 47.0958 32.8837 46.6675 33.1795 46.3413C33.714 46.6113 34.3171 46.7643 34.9556 46.7643C35.672 46.7643 36.2914 46.3473 36.5885 45.7445H40.448V44.3382H36.7765V40.7146H39.1622V39.3084H36.7765V37.8383C36.7765 35.5344 34.9021 33.6602 32.5984 33.6602H26.6061C23.6272 33.6602 20.7519 34.9089 18.7172 37.0862C16.6227 39.3275 13.7271 40.6128 10.7727 40.6128H5.04688V42.019H10.7726C14.1149 42.019 17.385 40.571 19.7446 38.0464C21.5143 36.1526 24.0152 35.0664 26.606 35.0664H32.5983C34.1266 35.0664 35.3701 36.3098 35.3701 37.8383V44.9431C35.3701 45.1719 35.1839 45.358 34.9551 45.358C33.55 45.358 32.4069 44.2149 32.4069 42.8098V37.5286H31.0006V42.8098C31.0006 43.8441 31.4003 44.7865 32.0525 45.4918C31.5775 46.0586 31.3061 46.7824 31.3061 47.5553C31.3061 48.5726 31.7807 49.4803 32.5195 50.0707C31.7807 50.6609 31.3061 51.5683 31.3061 52.5852C31.3061 53.9592 32.1716 55.1346 33.3859 55.5954V56.4103H21.967C20.9322 56.4103 19.9482 56.0832 19.1218 55.4646C17.5685 54.3007 15.7712 53.6854 13.924 53.6854H5.04688V55.0917H13.924C15.4647 55.0917 16.9705 55.6097 18.2787 56.5902C19.3504 57.3925 20.6259 57.8166 21.9672 57.8166H33.386V68.9628H37.7356V55.8037H41.5083C42.3676 55.8037 43.1757 55.4688 43.783 54.8613C44.3916 54.2547 44.727 53.4462 44.727 52.5852C44.727 51.8936 44.5071 51.2528 44.134 50.7277C44.793 50.619 45.4002 50.3121 45.8795 49.8309C46.4878 49.2228 46.8229 48.4145 46.8229 47.5553C46.8229 46.5386 46.348 45.6313 45.6089 45.0414C45.7025 44.9664 45.7935 44.8872 45.8795 44.8013C46.4878 44.1934 46.8229 43.3856 46.8229 42.5273ZM36.3293 67.5565H34.7923V65.869H36.3293V67.5565ZM36.3293 64.4628H34.7923V55.8037H36.3293V64.4628Z" fill="#058FA2"/>
<path d="M30.2401 37.48H28.8338C28.8338 42.5082 24.743 46.599 19.7148 46.599V48.0052C25.5186 48.0052 30.2401 43.2836 30.2401 37.48Z" fill="#058FA2"/>
<path d="M21.4766 28.8614C21.4766 29.9432 22.3567 30.8234 23.4386 30.8234C24.5204 30.8234 25.4006 29.9432 25.4006 28.8614C25.4006 27.7796 24.5204 26.8994 23.4386 26.8994C22.3567 26.8994 21.4766 27.7796 21.4766 28.8614ZM23.4386 28.3057C23.7451 28.3057 23.9943 28.555 23.9943 28.8614C23.9943 29.1678 23.7451 29.4172 23.4386 29.4172C23.132 29.4172 22.8828 29.1678 22.8828 28.8614C22.8828 28.555 23.1321 28.3057 23.4386 28.3057Z" fill="#058FA2"/>
<path d="M25.8017 14.7836C26.9288 14.7836 27.8456 13.8668 27.8456 12.7396C27.8456 11.6127 26.9286 10.6958 25.8017 10.6958C24.6747 10.6958 23.7578 11.6127 23.7578 12.7396C23.7578 13.8668 24.6745 14.7836 25.8017 14.7836ZM25.8017 12.1021C26.1534 12.1021 26.4394 12.3881 26.4394 12.7396C26.4394 13.0912 26.1534 13.3774 25.8017 13.3774C25.4501 13.3774 25.1641 13.0913 25.1641 12.7396C25.1641 12.3881 25.4501 12.1021 25.8017 12.1021Z" fill="#058FA2"/>
<path d="M19.7497 25.1064C21.2229 25.1064 22.4213 23.908 22.4213 22.4348C22.4213 20.9617 21.2229 19.7632 19.7497 19.7632C18.2765 19.7632 17.0781 20.9616 17.0781 22.4348C17.0781 23.908 18.2765 25.1064 19.7497 25.1064ZM19.7497 21.1696C20.4475 21.1696 21.0151 21.7371 21.0151 22.4349C21.0151 23.1327 20.4475 23.7003 19.7497 23.7003C19.0519 23.7003 18.4844 23.1326 18.4844 22.4349C18.4844 21.7373 19.0519 21.1696 19.7497 21.1696Z" fill="#058FA2"/>
<path d="M33.3878 32.3747H34.7941V24.195L32.582 19.1325V8.4751H31.1758V19.4263L33.3878 24.4888V32.3747Z" fill="#058FA2"/>
<path d="M45.4796 16.6024L45.479 6.37852C45.479 4.84008 44.2275 3.58838 42.6887 3.58838C41.8787 3.58838 41.1505 3.93755 40.6404 4.49077H35.5253V3.58838H31.1758V6.92822H32.582V4.99463H34.1191V19.4025L36.3311 24.5114V32.3747H37.7373V24.22L35.5253 19.1111V17.686H40.98C42.0641 19.2347 43.86 20.2502 45.8898 20.2502H47.7272V18.8439C46.4915 18.8438 45.4833 17.8385 45.4796 16.6024ZM35.5253 5.89702H39.9433C39.9159 6.05382 39.8989 6.21399 39.8989 6.37852V7.43799H35.5253V5.89702ZM35.5253 8.84424H39.8989V10.3852H35.5253V8.84424ZM35.5253 11.7915H39.8989V13.3324H35.5253V11.7915ZM35.5253 16.2798V14.7388H39.9198C39.9625 15.2753 40.0752 15.7922 40.2506 16.2798H35.5253ZM41.3051 14.2591V6.37852C41.3051 5.61549 41.9259 4.99463 42.6889 4.99463C43.4519 4.99463 44.0729 5.61549 44.0729 6.37852V16.4522L44.0735 16.6067C44.0757 17.3844 44.3225 18.1058 44.7409 18.6981C42.7671 18.1871 41.3051 16.3906 41.3051 14.2591Z" fill="#058FA2"/>
<path d="M60.7293 43.7484L60.7287 33.5245C60.7287 31.9861 59.4772 30.7344 57.9387 30.7344C56.4001 30.7344 55.1484 31.9859 55.1484 33.5245V41.4053C55.1484 44.7086 57.8359 47.3962 61.1393 47.3962H62.977V45.9899C61.7411 45.9898 60.7328 44.9846 60.7293 43.7484ZM56.5547 41.4053V33.5245C56.5547 32.7615 57.1757 32.1406 57.9387 32.1406C58.7018 32.1406 59.3225 32.7615 59.3225 33.5245V43.5982L59.323 43.7529C59.3253 44.5304 59.5721 45.2519 59.9907 45.8441C58.0168 45.3328 56.5547 43.5366 56.5547 41.4053Z" fill="#058FA2"/>
<path d="M65.4795 17.3993L65.4757 17.2658L62.256 9.74007H61.9321V6.80466H60.4443V3.0376H55.2201V6.80466H53.7323V9.74007H53.4084L50.1887 17.2658L48.7031 68.9626H66.9536L65.4795 17.3993ZM56.6262 4.44385H59.0379V6.80466H56.6262V4.44385ZM55.1384 8.21091H55.22H60.4442H60.5257V9.74007H55.1383V8.21091H55.1384ZM54.3361 11.1463H61.3282L63.711 16.7163H51.953L54.3361 11.1463ZM50.2531 63.9822H61.6247V62.576H50.2935L51.5706 18.1224H64.0934L65.3642 62.576H63.056V63.9822H65.4046L65.5068 67.5564H50.1503L50.2531 63.9822Z" fill="#058FA2"/>
</svg>
