<svg width="72" height="72" viewBox="0 0 72 72" fill="none" xmlns="http://www.w3.org/2000/svg">
<path fill-rule="evenodd" clip-rule="evenodd" d="M29.25 7.875H24.1875H23.0884C22.1389 7.875 21.375 8.63437 21.375 9.5625V24.8524C21.1444 24.9356 20.9329 25.0673 20.7551 25.2405C20.4311 25.5578 20.25 25.9886 20.25 26.4375V27H18.5625C17.631 27 16.875 27.756 16.875 28.6875V60.1875C16.875 61.119 17.631 61.875 18.5625 61.875H21.4729C21.4099 62.0516 21.375 62.2406 21.375 62.4375V63.5625C21.375 64.4906 22.1377 65.25 23.0861 65.25C24.3281 65.25 26.2969 65.25 27.5389 65.25C28.4873 65.25 29.25 64.4906 29.25 63.5625V62.4375C29.25 62.2406 29.2151 62.0516 29.1521 61.875H42.8479C42.7849 62.0516 42.75 62.2406 42.75 62.4375V63.5625C42.75 64.4906 43.5139 65.25 44.4634 65.25C45.7076 65.25 47.6775 65.25 48.9217 65.25C49.8713 65.25 50.6351 64.4906 50.6351 63.5625V62.4375C50.6351 62.2406 50.6003 62.0516 50.5373 61.875H53.4375C54.369 61.875 55.125 61.119 55.125 60.1875V28.6875C55.125 27.756 54.369 27 53.4375 27H51.75V26.4375C51.75 25.9886 51.5689 25.5578 51.2449 25.2405C51.0671 25.0673 50.8556 24.9356 50.625 24.8524V9.5625C50.625 8.63437 49.8623 7.875 48.9139 7.875H47.8283H47.8159L42.75 7.848V7.3125C42.75 7.002 42.498 6.75 42.1875 6.75H29.8125C29.502 6.75 29.25 7.002 29.25 7.3125V7.875ZM44.4634 61.875H48.9217C49.2435 61.875 49.5101 62.1236 49.5101 62.4375V63.5625C49.5101 63.8764 49.2435 64.125 48.9217 64.125H44.4634C44.1416 64.125 43.875 63.8764 43.875 63.5625V62.4375C43.875 62.1236 44.1416 61.875 44.4634 61.875ZM23.0861 61.875H27.5389C27.8595 61.875 28.125 62.1236 28.125 62.4375V63.5625C28.125 63.8764 27.8595 64.125 27.5389 64.125H23.0861C22.7655 64.125 22.5 63.8764 22.5 63.5625V62.4375C22.5 62.1236 22.7655 61.875 23.0861 61.875ZM20.25 28.125H18.5625C18.252 28.125 18 28.377 18 28.6875V60.1875C18 60.498 18.252 60.75 18.5625 60.75H53.4375C53.748 60.75 54 60.498 54 60.1875V28.6875C54 28.377 53.748 28.125 53.4375 28.125H51.75V30.9375C51.75 31.248 51.498 31.5 51.1875 31.5H20.8125C20.502 31.5 20.25 31.248 20.25 30.9375V28.125ZM38.25 35.4375C38.25 34.506 37.494 33.75 36.5625 33.75H35.4375C34.506 33.75 33.75 34.506 33.75 35.4375V56.8125C33.75 57.744 34.506 58.5 35.4375 58.5H36.5625C37.494 58.5 38.25 57.744 38.25 56.8125V35.4375ZM29.25 35.4375C29.25 34.506 28.494 33.75 27.5625 33.75H26.4375C25.506 33.75 24.75 34.506 24.75 35.4375V56.8125C24.75 57.744 25.506 58.5 26.4375 58.5H27.5625C28.494 58.5 29.25 57.744 29.25 56.8125V35.4375ZM47.25 35.4375C47.25 34.506 46.494 33.75 45.5625 33.75H44.4375C43.506 33.75 42.75 34.506 42.75 35.4375V56.8125C42.75 57.744 43.506 58.5 44.4375 58.5H45.5625C46.494 58.5 47.25 57.744 47.25 56.8125V35.4375ZM37.125 35.4375V56.8125C37.125 57.123 36.873 57.375 36.5625 57.375H35.4375C35.127 57.375 34.875 57.123 34.875 56.8125V35.4375C34.875 35.127 35.127 34.875 35.4375 34.875H36.5625C36.873 34.875 37.125 35.127 37.125 35.4375ZM28.125 35.4375V56.8125C28.125 57.123 27.873 57.375 27.5625 57.375H26.4375C26.127 57.375 25.875 57.123 25.875 56.8125V35.4375C25.875 35.127 26.127 34.875 26.4375 34.875H27.5625C27.873 34.875 28.125 35.127 28.125 35.4375ZM46.125 35.4375V56.8125C46.125 57.123 45.873 57.375 45.5625 57.375H44.4375C44.127 57.375 43.875 57.123 43.875 56.8125V35.4375C43.875 35.127 44.127 34.875 44.4375 34.875H45.5625C45.873 34.875 46.125 35.127 46.125 35.4375ZM50.0389 25.875H21.9443C21.7935 25.8795 21.6495 25.9391 21.5426 26.0437C21.4358 26.1484 21.375 26.2901 21.375 26.4375V30.375H50.625V26.4375C50.625 26.2901 50.5643 26.1484 50.4574 26.0437C50.346 25.9357 50.1953 25.875 50.0389 25.875ZM48.375 9H48.9139C49.2345 9 49.5 9.24863 49.5 9.5625V24.75H48.375V9ZM29.3479 11.2511H24.7523V24.75H47.25V11.25H42.6521C42.4181 11.9036 41.7859 12.375 41.0389 12.375H30.9611C30.2141 12.375 29.583 11.9048 29.3479 11.2511ZM23.625 9H23.0884C22.7666 9 22.5 9.24863 22.5 9.5625V24.75H23.6273V10.7449C23.6261 10.7257 23.625 10.7066 23.625 10.6886V9ZM30.375 10.6875V7.875H41.625V10.6875C41.625 11.0014 41.3595 11.25 41.0389 11.25H30.9611C30.6405 11.25 30.375 11.0014 30.375 10.6875ZM29.25 9H24.7523V10.1261H29.25V9ZM47.25 8.99663L42.75 8.973V10.125H47.25V8.99663Z" fill="#058FA2"/>
</svg>
