<svg width="72" height="72" viewBox="0 0 72 72" fill="none" xmlns="http://www.w3.org/2000/svg">
<path d="M59.0138 13.6729H12.9844C12.8827 13.6729 12.782 13.6929 12.6881 13.7319C12.5941 13.7708 12.5088 13.8279 12.437 13.8999C12.3651 13.9719 12.3082 14.0573 12.2694 14.1513C12.2306 14.2453 12.2108 14.346 12.2109 14.4477V49.5463C12.2109 49.7514 12.2924 49.9481 12.4375 50.0932C12.5825 50.2382 12.7792 50.3197 12.9844 50.3197H30.1167V56.7786H26.6784C26.4814 56.7905 26.2963 56.8772 26.1609 57.0209C26.0256 57.1647 25.9503 57.3546 25.9503 57.5521C25.9503 57.7495 26.0256 57.9395 26.1609 58.0832C26.2963 58.227 26.4814 58.3136 26.6784 58.3255H45.3211C45.5182 58.3136 45.7033 58.227 45.8386 58.0832C45.9739 57.9395 46.0493 57.7495 46.0493 57.5521C46.0493 57.3546 45.9739 57.1647 45.8386 57.0209C45.7033 56.8772 45.5182 56.7905 45.3211 56.7786H41.8814V50.3197H59.0138C59.2189 50.3197 59.4156 50.2382 59.5606 50.0932C59.7057 49.9481 59.7872 49.7514 59.7872 49.5463V14.4477C59.7874 14.346 59.7675 14.2453 59.7287 14.1513C59.6899 14.0573 59.633 13.9719 59.5611 13.8999C59.4893 13.8279 59.404 13.7708 59.3101 13.7319C59.2161 13.6929 59.1154 13.6729 59.0138 13.6729ZM40.3345 56.7786H31.6636V50.3197H40.3345V56.7786ZM58.2403 48.7729H13.7578V42.8483H58.2403V48.7729ZM58.2403 41.3014H13.7578V15.2211H58.2403V41.3014Z" fill="#058FA2"/>
<path d="M52.7344 47.0151C53.0125 47.0151 53.2844 46.9327 53.5156 46.7781C53.7469 46.6236 53.9271 46.404 54.0336 46.147C54.14 45.8901 54.1679 45.6073 54.1136 45.3345C54.0593 45.0618 53.9254 44.8112 53.7287 44.6145C53.5321 44.4179 53.2815 44.2839 53.0087 44.2297C52.7359 44.1754 52.4532 44.2032 52.1962 44.3097C51.9393 44.4161 51.7196 44.5964 51.5651 44.8276C51.4106 45.0589 51.3281 45.3308 51.3281 45.6089C51.3281 45.9818 51.4763 46.3395 51.74 46.6033C52.0037 46.867 52.3614 47.0151 52.7344 47.0151Z" fill="#058FA2"/>
<path d="M30.2578 38.763C30.4629 38.763 30.6597 38.6815 30.8047 38.5364C30.9498 38.3914 31.0312 38.1947 31.0312 37.9895V35.3556C31.0312 34.0376 31.5548 32.7735 32.4868 31.8415C33.4188 30.9095 34.6829 30.3859 36.0009 30.3859C37.319 30.3859 38.583 30.9095 39.515 31.8415C40.447 32.7735 40.9706 34.0376 40.9706 35.3556V37.9895C40.9706 38.1947 41.0521 38.3914 41.1972 38.5364C41.3422 38.6815 41.5389 38.763 41.7441 38.763C41.9492 38.763 42.1459 38.6815 42.291 38.5364C42.436 38.3914 42.5175 38.1947 42.5175 37.9895V35.3556C42.514 34.1234 42.1607 32.9175 41.4988 31.8782C40.8368 30.8388 39.8934 30.0088 38.7783 29.4845C39.6069 28.8955 40.2269 28.0584 40.5485 27.094C40.8702 26.1296 40.877 25.0879 40.5678 24.1194C40.2587 23.1509 39.6497 22.3058 38.8288 21.7061C38.0079 21.1064 37.0176 20.7832 36.0009 20.7832C34.9843 20.7832 33.994 21.1064 33.1731 21.7061C32.3522 22.3058 31.7432 23.1509 31.434 24.1194C31.1249 25.0879 31.1317 26.1296 31.4533 27.094C31.775 28.0584 32.395 28.8955 33.2236 29.4845C32.1085 30.0088 31.1651 30.8388 30.5031 31.8782C29.8412 32.9175 29.4879 34.1234 29.4844 35.3556V37.9895C29.4844 38.1947 29.5659 38.3914 29.7109 38.5364C29.856 38.6815 30.0527 38.763 30.2578 38.763ZM32.7539 25.5934C32.7536 24.9512 32.9438 24.3233 33.3004 23.7891C33.6571 23.2549 34.1641 22.8385 34.7574 22.5926C35.3507 22.3466 36.0036 22.2821 36.6335 22.4072C37.2635 22.5323 37.8422 22.8415 38.2964 23.2955C38.7507 23.7496 39.0601 24.3281 39.1855 24.958C39.3109 25.5879 39.2467 26.2409 39.0009 26.8343C38.7552 27.4277 38.339 27.9349 37.805 28.2917C37.271 28.6486 36.6432 28.8391 36.0009 28.8391C35.1404 28.8379 34.3153 28.4957 33.7067 27.8873C33.098 27.2789 32.7554 26.454 32.7539 25.5934Z" fill="#058FA2"/>
</svg>
