<svg width="108" height="92" viewBox="0 0 108 92" fill="none" xmlns="http://www.w3.org/2000/svg">
<path d="M10.2305 49.0596C10.229 49.5536 10.4234 50.0281 10.7712 50.3789C11.1192 50.73 11.5923 50.9287 12.0866 50.9313H12.0893H25.1452L25.146 50.9313C25.6398 50.9304 26.1131 50.7339 26.4622 50.3848C26.8114 50.0356 27.0079 49.5623 27.0088 49.0686V49.0677L27.0088 33.1854L27.0088 33.1828C27.0061 32.6902 26.8088 32.2186 26.4599 31.8709C26.1109 31.5231 25.6386 31.3275 25.146 31.3267H25.1452L18.6172 31.3267L18.6161 31.3267C16.3936 31.3314 14.2634 32.2164 12.6918 33.788C11.1202 35.3596 10.2352 37.4898 10.2305 39.7123V39.7134V49.0596ZM10.2305 49.0596C10.2305 49.0593 10.2305 49.059 10.2305 49.0587L10.7305 49.0604M10.2305 49.0596V49.0604H10.7305M10.7305 49.0604V39.7134C10.7349 37.6231 11.5673 35.6196 13.0454 34.1416C14.5235 32.6635 16.5269 31.8311 18.6172 31.8267H25.1452C25.5058 31.8273 25.8515 31.9705 26.107 32.225C26.3624 32.4796 26.5069 32.8248 26.5088 33.1854M10.7305 49.0604C10.7292 49.4223 10.8716 49.7699 11.1263 50.0269C11.3811 50.284 11.7274 50.4294 12.0893 50.4313H25.1452C25.5066 50.4307 25.8531 50.2868 26.1087 50.0312C26.3643 49.7756 26.5081 49.4291 26.5088 49.0677V33.1854M26.5088 33.1854H26.5088H26.5088ZM23.2791 47.2041H13.9577V39.7141C13.9613 38.4795 14.4535 37.2966 15.3267 36.4238C16.2 35.551 17.3832 35.0593 18.6178 35.0563H23.2791V47.2041Z" fill="#FDD304" stroke="#FDD304"/>
<path d="M25.1432 54.6454H21.033C20.845 54.6295 20.6556 54.6529 20.4771 54.7139C20.2985 54.775 20.1345 54.8725 19.9955 55.0002C19.8566 55.128 19.7456 55.2831 19.6698 55.4559C19.5939 55.6288 19.5547 55.8155 19.5547 56.0042C19.5547 56.1929 19.5939 56.3796 19.6698 56.5524C19.7456 56.7253 19.8566 56.8804 19.9955 57.0082C20.1345 57.1359 20.2985 57.2334 20.4771 57.2944C20.6556 57.3555 20.845 57.3789 21.033 57.363H25.1432C25.5049 57.363 25.8517 57.2193 26.1075 56.9636C26.3632 56.7079 26.5068 56.361 26.5068 55.9994C26.5068 55.6377 26.3632 55.2909 26.1075 55.0351C25.8517 54.7794 25.5049 54.6357 25.1432 54.6357V54.6454Z" fill="#FDD304"/>
<path d="M30.7171 2.36362V21.9093H20.1462H20.1457C14.9367 21.9152 9.9428 23.9872 6.25973 27.6707C2.57667 31.3543 0.505253 36.3484 0.5 41.5574V41.5579L0.499999 80.3315L0.500001 80.3324C0.500874 80.8261 0.697406 81.2994 1.04655 81.6486C1.39569 81.9977 1.86897 82.1942 2.36273 82.1951H2.36362H7.62155C8.04759 84.7171 9.3282 87.0214 11.2553 88.7166C13.293 90.5091 15.914 91.4978 18.6279 91.4978C21.3418 91.4978 23.9627 90.5091 26.0004 88.7166C27.9276 87.0214 29.2082 84.7171 29.6342 82.1951H59.9612C60.3267 84.3585 61.3224 86.3698 62.8284 87.9744C64.435 89.6863 66.5406 90.8481 68.8456 91.2944C71.1506 91.7407 73.5376 91.4488 75.6672 90.4603C77.5427 89.5898 79.1343 88.2179 80.2709 86.5036C81.4068 88.2183 82.9981 89.5906 84.8734 90.4616C87.0027 91.4506 89.3897 91.7428 91.6947 91.2967C93.9998 90.8506 96.1054 89.6889 97.712 87.9769C99.2178 86.3723 100.213 84.3609 100.579 82.1975H105.466H105.467C105.961 82.1966 106.434 82.0001 106.784 81.651C107.133 81.3018 107.329 80.8286 107.33 80.3348V80.3339V62.8269L107.335 2.36366C107.335 1.86936 107.139 1.39534 106.789 1.04584C106.44 0.696348 105.966 0.5 105.471 0.5H32.5808C32.0865 0.5 31.6125 0.696347 31.263 1.04584C30.9135 1.39534 30.7171 1.86935 30.7171 2.36362ZM34.4444 4.22723H103.608V60.973H34.4444V4.22723ZM18.6187 87.7714C17.1482 87.7696 15.7113 87.3319 14.4895 86.5137C13.2676 85.6955 12.3157 84.5334 11.7541 83.1744C11.1925 81.8153 11.0464 80.3203 11.3342 78.8782C11.622 77.4361 12.3309 76.1117 13.3712 75.0724C14.4115 74.0331 15.7365 73.3254 17.1788 73.0389C18.6212 72.7524 20.1161 72.8999 21.4746 73.4628C22.8331 74.0256 23.9943 74.9786 24.8115 76.2011C25.6285 77.4236 26.0648 78.8607 26.0654 80.331C26.0629 82.3048 25.2773 84.1969 23.881 85.5919C22.4849 86.9868 20.5922 87.7707 18.6187 87.7714ZM70.9536 87.7714C69.4831 87.7696 68.0461 87.3319 66.8243 86.5137C65.6024 85.6955 64.6505 84.5334 64.0889 83.1744C63.5273 81.8153 63.3812 80.3203 63.669 78.8782C63.9568 77.4361 64.6657 76.1117 65.706 75.0724C66.7463 74.0331 68.0713 73.3254 69.5136 73.0389C70.956 72.7524 72.4509 72.8999 73.8094 73.4628C75.1679 74.0256 76.3291 74.9786 77.1463 76.2011C77.9633 77.4236 78.3996 78.8607 78.4002 80.331C78.3977 82.3032 77.6134 84.1939 76.219 85.5887C74.8247 86.9835 72.9341 87.7684 70.9619 87.7714H70.9536ZM89.5583 87.7714C88.0877 87.7696 86.6508 87.3319 85.4289 86.5137C84.2071 85.6955 83.2552 84.5334 82.6936 83.1744C82.132 81.8153 81.9859 80.3203 82.2737 78.8782C82.5615 77.4361 83.2703 76.1117 84.3106 75.0724C85.3509 74.0331 86.6759 73.3254 88.1183 73.0389C89.5606 72.7524 91.0555 72.8999 92.414 73.4628C93.7726 74.0256 94.9338 74.9786 95.7509 76.2011C96.5679 77.4236 97.0043 78.8608 97.0048 80.3312C97.003 82.3035 96.2188 84.1945 94.8244 85.5894C93.4299 86.9843 91.5391 87.769 89.5667 87.7714H89.5583ZM103.607 64.6905L103.598 78.4703H100.563C100.195 76.3113 99.1979 74.3048 97.6931 72.7044C96.0877 70.9968 93.9854 69.8381 91.6844 69.3924C89.3835 68.9468 87.0006 69.2369 84.8737 70.2216C83.0005 71.0889 81.4097 72.4562 80.272 74.1658C79.1355 72.4508 77.5437 71.0783 75.6678 70.2074C73.5384 69.2188 71.1516 68.9267 68.8466 69.3728C66.5417 69.8188 64.4361 70.9801 62.8293 72.6917C61.3232 74.296 60.3271 76.3071 59.9613 78.4703H29.6342C29.2082 75.9483 27.9276 73.644 26.0004 71.9488C23.9627 70.1563 21.3418 69.1676 18.6279 69.1676C15.914 69.1676 13.293 70.1563 11.2553 71.9488C9.3282 73.644 8.04759 75.9483 7.62155 78.4703H4.22723L4.22723 41.5585C4.23219 37.3376 5.91096 33.291 8.89533 30.3062C11.8797 27.3214 15.926 25.6421 20.1469 25.6365H30.7171V62.8269C30.7171 63.3212 30.9135 63.7952 31.263 64.1447C31.6125 64.4942 32.0865 64.6905 32.5808 64.6905H103.607Z" fill="#058FA2" stroke="#058FA2"/>
<path d="M47.9228 34.0829C48.1822 34.339 48.5333 34.4828 48.8994 34.4828C49.2654 34.4828 49.6166 34.339 49.876 34.0829L51.004 32.9615V52.6317C51.004 52.9942 51.149 53.3418 51.4072 53.5984C51.6653 53.8549 52.0156 53.9994 52.381 54H82.8978C83.2632 53.9994 83.6135 53.8549 83.8717 53.5984C84.1298 53.3418 84.2748 52.9942 84.2748 52.6317V32.9615L85.4053 34.0829C85.6644 34.3396 86.0156 34.4838 86.3819 34.4838C86.7481 34.4838 87.0994 34.3396 87.3585 34.0829L94.7344 26.7641C94.8631 26.6371 94.9653 26.4862 95.035 26.3199C95.1047 26.1537 95.1406 25.9754 95.1406 25.7953C95.1406 25.6153 95.1047 25.437 95.035 25.2707C94.9653 25.1045 94.8631 24.9536 94.7344 24.8266L83.6351 13.817C83.4358 13.6191 83.1802 13.4864 82.9027 13.4367L74.7431 12.02C74.5344 11.9855 74.3206 11.9988 74.1179 12.0591C73.9153 12.1193 73.7293 12.2248 73.5742 12.3674C73.4191 12.5101 73.2989 12.6861 73.2231 12.8819C73.1472 13.0778 73.1176 13.2883 73.1365 13.4973C73.1365 13.5312 73.41 16.6457 71.6887 18.5226C70.7804 19.5083 69.4205 20.0096 67.6455 20.012C65.8705 20.0144 64.5081 19.5083 63.5999 18.5226C61.8908 16.6457 62.1472 13.5312 62.152 13.4973C62.1712 13.2882 62.1418 13.0775 62.066 12.8814C61.9903 12.6853 61.8702 12.5091 61.715 12.3663C61.5603 12.2228 61.3742 12.1169 61.1713 12.0568C60.9684 11.9967 60.7542 11.9841 60.5455 12.02L52.3786 13.444C52.1012 13.4941 51.8457 13.6267 51.6461 13.8242L40.5469 24.8339C40.4181 24.9608 40.316 25.1118 40.2462 25.278C40.1765 25.4443 40.1406 25.6226 40.1406 25.8026C40.1406 25.9827 40.1765 26.161 40.2462 26.3272C40.316 26.4935 40.4181 26.6444 40.5469 26.7713L47.9228 34.0829ZM53.2941 16.062L59.4273 14.9964C59.5518 16.4979 60.023 18.6727 61.5539 20.3535C62.9993 21.9374 65.0404 22.7438 67.6235 22.7511H67.6772C70.258 22.7511 72.2991 21.9374 73.7445 20.3535C75.2753 18.6727 75.7465 16.4979 75.8711 14.9964L82.0042 16.062L91.8241 25.8002L86.3892 31.1863L83.8744 28.6967C83.6817 28.5053 83.436 28.3751 83.1686 28.3223C82.9011 28.2696 82.6239 28.2969 82.372 28.4007C82.1202 28.5044 81.9051 28.68 81.754 28.9052C81.6029 29.1303 81.5225 29.3949 81.5232 29.6654V51.273H53.758V29.663C53.7587 29.3925 53.6784 29.1279 53.5273 28.9028C53.3762 28.6776 53.1611 28.502 52.9092 28.3982C52.6574 28.2945 52.3802 28.2672 52.1127 28.3199C51.8452 28.3726 51.5996 28.5029 51.4068 28.6943L48.8994 31.1839L43.4694 25.7978L53.2941 16.062Z" fill="#FDD304"/>
</svg>
