<svg width="30" height="24" viewBox="0 0 30 24" fill="none" xmlns="http://www.w3.org/2000/svg">
<ellipse cx="15.0018" cy="20.413" rx="3.40216" ry="3.40216" fill="white"/>
<path d="M15.0005 11.3405C12.0768 11.3405 9.31543 12.7626 7.61386 15.1447C7.12838 15.8243 7.28581 16.7686 7.96527 17.254C8.23167 17.4443 8.53872 17.5359 8.84291 17.5359C9.31469 17.5359 9.7795 17.3157 10.0745 16.9026C11.2098 15.3134 13.0512 14.3646 15.0004 14.3646C16.9498 14.3646 18.7911 15.3134 19.9262 16.9025C20.4115 17.5819 21.3559 17.7396 22.0355 17.2541C22.7151 16.7687 22.8725 15.8243 22.3871 15.1448C20.6857 12.7625 17.9243 11.3405 15.0005 11.3405Z" fill="white"/>
<path d="M14.9999 5.67029C10.8234 5.67029 6.82584 7.45352 4.0319 10.5627C3.47378 11.1839 3.52477 12.1399 4.14603 12.6981C4.43488 12.9577 4.79614 13.0855 5.15616 13.0855C5.5703 13.0854 5.9828 12.9164 6.28133 12.5841C8.50257 10.1122 11.6804 8.69447 15 8.69447C18.3196 8.69447 21.4975 10.1122 23.7188 12.584C24.277 13.2052 25.233 13.2562 25.8541 12.698C26.4753 12.1398 26.5263 11.1838 25.9682 10.5627C23.1741 7.45344 19.1763 5.67029 14.9999 5.67029Z" fill="white"/>
<path d="M29.567 6.11469C25.6963 2.17155 20.523 0 15 0C9.47728 0 4.30394 2.17155 0.433032 6.11485C-0.151978 6.71085 -0.143123 7.66811 0.452792 8.25312C0.747142 8.54205 1.12963 8.6862 1.51196 8.68611C1.90355 8.68611 2.29506 8.53484 2.59105 8.23336C5.88876 4.87407 10.2956 3.0241 15 3.0241C19.7046 3.0241 24.1115 4.87407 27.4089 8.23319C27.9939 8.82919 28.9513 8.83796 29.5472 8.25303C30.1431 7.66802 30.152 6.71069 29.567 6.11469Z" fill="white"/>
</svg>
