<svg width="180" height="180" viewBox="0 0 180 180" fill="none" xmlns="http://www.w3.org/2000/svg">
<path d="M88 90.4V136H90H92V90.4V44.8H90H88V90.4Z" fill="#FDC114"/>
<path d="M12.48 52.88L10.4 54.48V68.08V81.6L7.84 82.64C1.52 85.36 0.08 89.52 0 104.96C0 111.44 0.32 117.6 0.8 118.72C1.28 120.08 2.48 120.96 4.16 121.44C6.64 122.08 6.8 122.4 7.2 126.08L7.6 130L16.32 130.24C22 130.4 25.36 130.16 26.08 129.52C26.72 128.96 27.2 127.12 27.2 125.12V121.6H39.6H52V125.52C52 130.32 52.16 130.4 62 130.4C71.84 130.4 72 130.32 72 125.52C72 121.92 72.16 121.6 73.84 121.6C77.92 121.6 78.4 119.84 78.4 105.28C78.4 95.84 78.08 91.2 77.28 89.36C76.16 86.48 71.76 82.4 69.92 82.4C69.04 82.4 68.8 80.16 68.8 69.6C68.8 56.24 68.08 52.8 65.2 51.68C64.48 51.44 52.8 51.2 39.28 51.2C15.52 51.2 14.56 51.28 12.48 52.88ZM65.12 56.48C65.36 57.2 65.6 63.12 65.6 69.68V81.6H60.08H54.56L54.24 76.8C54 73.6 53.36 71.2 52.24 69.76L50.64 67.6H39.2H27.76L26.16 69.76C25.04 71.2 24.4 73.6 24.16 76.8L23.84 81.6H18.72H13.6V68.96C13.6 62 13.84 56 14.16 55.76C14.4 55.44 25.92 55.2 39.68 55.2C61.68 55.2 64.72 55.36 65.12 56.48ZM50.4 72.72C50.8 73.6 51.2 75.92 51.2 77.92V81.6H39.2H27.2V77.92C27.2 71.28 27.44 71.2 39.2 71.2C48.64 71.2 49.6 71.36 50.4 72.72ZM72.48 88.32L75.2 91.04V99.52V108H39.2H3.2V100.8C3.2 92.8 4.32 88.96 7.28 86.88C8.96 85.76 12.72 85.6 39.44 85.6H69.76L72.48 88.32ZM75.04 114.96L74.8 118L40.8 118.24C22.08 118.32 6 118.24 5.04 118C3.6 117.68 3.2 117.04 3.2 114.8V112H39.28H75.28L75.04 114.96ZM23.84 124.16L24.08 126.4H17.2C10.08 126.4 8.8 125.76 9.92 122.8C10.32 121.76 11.6 121.6 16.96 121.76C23.52 122 23.6 122 23.84 124.16ZM68.8 124V126.4H62H55.2V124V121.6H62H68.8V124Z" fill="#058FA2"/>
<path d="M114.562 52C111.762 53.2 111.202 56 111.202 69.68C111.202 80.16 110.962 82.4 110.082 82.4C108.242 82.4 103.842 86.48 102.722 89.36C101.922 91.2 101.602 95.84 101.602 105.44C101.602 117.52 101.762 119.12 103.042 120.24C103.842 121.04 105.282 121.6 106.242 121.6C107.842 121.6 108.002 122 108.002 125.52C108.002 130.32 108.162 130.4 118.002 130.4C127.842 130.4 128.002 130.32 128.002 125.52V121.6H140.402H152.802V125.12C152.802 127.12 153.282 128.96 153.922 129.52C154.642 130.16 158.002 130.4 163.682 130.24L172.402 130L172.802 126.08C173.202 122.4 173.362 122.08 175.842 121.44C179.522 120.48 180.002 118.56 180.002 105.76C179.922 89.92 178.642 86 172.562 82.96L169.602 81.44V68V54.48L167.522 52.88C165.442 51.28 164.482 51.2 140.882 51.28C127.442 51.28 115.602 51.6 114.562 52ZM166.242 68.56L166.402 81.6H160.802H155.202V77.2C155.202 72.4 153.682 68.48 151.602 67.68C150.882 67.44 145.842 67.2 140.402 67.2C134.962 67.2 129.922 67.44 129.202 67.68C127.122 68.48 125.602 72.4 125.602 77.2V81.6H120.002H114.402V69.68C114.402 63.12 114.642 57.12 114.882 56.48C115.362 55.28 118.162 55.2 140.722 55.36L166.002 55.6L166.242 68.56ZM151.602 72C151.922 72.48 152.322 74.8 152.562 77.2L153.042 81.6H140.882H128.802V77.68C128.802 70.96 128.402 71.2 140.402 71.2C146.882 71.2 151.282 71.52 151.602 72ZM172.482 86.8C175.602 88.88 176.802 92.88 176.802 100.72V108H140.802H104.802V99.52V91.04L107.522 88.32L110.242 85.6H140.562C165.842 85.6 171.122 85.76 172.482 86.8ZM176.802 114.8C176.802 117.04 176.402 117.68 175.042 118C174.002 118.24 157.922 118.32 139.202 118.24L105.202 118L104.962 114.96L104.722 112H140.722H176.802V114.8ZM124.802 124V126.4H118.002H111.202V124V121.6H118.002H124.802V124ZM170.002 124C170.002 126 169.842 126 163.042 126.24C156.082 126.48 156.002 126.4 156.002 124.56C156.002 123.52 156.242 122.4 156.562 122.08C156.882 121.76 160.002 121.68 163.602 121.76C169.842 122 170.002 122.08 170.002 124Z" fill="#058FA2"/>
</svg>
