<svg width="120" height="120" viewBox="0 0 120 120" fill="none" xmlns="http://www.w3.org/2000/svg">
<path d="M96.5001 43.1409L96.5157 44.125H97.5H99.375C99.6071 44.125 99.8296 44.2172 99.9937 44.3813C100.158 44.5454 100.25 44.7679 100.25 45V52.5C100.25 52.7321 100.158 52.9546 99.9937 53.1187C99.8296 53.2828 99.6071 53.375 99.375 53.375H93.75H92.75V54.375V101.25C92.75 104.466 91.4725 107.55 89.1987 109.824C86.9248 112.098 83.8408 113.375 80.625 113.375H39.375C36.1593 113.375 33.0752 112.098 30.8013 109.824C28.5275 107.55 27.25 104.466 27.25 101.25V54.375V53.375H26.25H20.625C20.3929 53.375 20.1704 53.2828 20.0063 53.1187C19.8422 52.9546 19.75 52.7321 19.75 52.5V45C19.75 44.7679 19.8422 44.5454 20.0063 44.3813C20.1704 44.2172 20.3929 44.125 20.625 44.125H22.5H23.4843L23.4999 43.1409C23.7901 24.8361 39.963 9.90625 60 9.90625C80.037 9.90625 96.2099 24.8361 96.5001 43.1409ZM92.7538 43.0429L94.7497 42.9316C94.322 25.5531 78.8411 11.6562 60 11.6562C41.1589 11.6562 25.6752 25.6104 25.3252 42.9361L27.3212 43.0429C27.3402 42.825 27.4401 42.6221 27.6012 42.4742L27.6751 42.4064L27.734 42.3253C28.3792 41.4373 29.7568 40.5942 31.8981 39.8676C34.0008 39.154 36.6783 38.6051 39.7201 38.1933C45.7993 37.3702 53.1909 37.1125 60.0375 37.1125C66.8847 37.1125 74.2761 37.3656 80.3553 38.1863C83.3971 38.597 86.0742 39.1452 88.1765 39.8595C90.3173 40.5869 91.6945 41.4319 92.3398 42.3237L92.3992 42.4057L92.4738 42.4742C92.6349 42.6221 92.7348 42.825 92.7538 43.0429ZM90.5033 44.3508L91.3806 43.5938L90.5033 42.8367C90.0093 42.4103 89.1396 41.9787 87.8955 41.5614C86.6202 41.1336 84.8581 40.6909 82.4963 40.2899C77.772 39.4878 70.5924 38.8438 60 38.8438C49.4076 38.8438 42.228 39.4878 37.5037 40.2899C35.1419 40.6909 33.3798 41.1336 32.1045 41.5614C30.8604 41.9787 29.9907 42.4103 29.4966 42.8367L28.6194 43.5938L29.4966 44.3508C29.9907 44.7772 30.8604 45.2088 32.1045 45.6261C33.3798 46.0539 35.1419 46.4966 37.5037 46.8976C42.228 47.6997 49.4076 48.3438 60 48.3438C70.5924 48.3438 77.772 47.6997 82.4963 46.8976C84.8581 46.4966 86.6202 46.0539 87.8955 45.6261C89.1396 45.2088 90.0093 44.7772 90.5033 44.3508ZM21.5 50.625V51.625H22.5H26.25H27.25V50.625V46.875V45.875H26.25H22.5H21.5V46.875V50.625ZM30.4067 46.7677L29 46.1415V47.6813V101.25C29 104.002 30.0931 106.641 32.0388 108.586C33.9845 110.532 36.6234 111.625 39.375 111.625H80.625C81.9875 111.625 83.3366 111.357 84.5953 110.835C85.8541 110.314 86.9978 109.55 87.9612 108.586C88.9246 107.623 89.6889 106.479 90.2103 105.22C90.7316 103.962 91 102.612 91 101.25V47.6813V46.1415L89.5933 46.7677C86.6764 48.0661 82.1043 48.9091 76.782 49.4186C71.4895 49.9253 65.562 50.0938 60 50.0938C54.438 50.0938 48.5105 49.9253 43.218 49.4186C37.8957 48.9091 33.3236 48.0661 30.4067 46.7677ZM97.5 51.625H98.5V50.625V46.875V45.875H97.5H93.75H92.75V46.875V50.625V51.625H93.75H97.5ZM37.5 94.625C37.2679 94.625 37.0454 94.5328 36.8813 94.3687C36.7172 94.2046 36.625 93.9821 36.625 93.75V80.625C36.625 80.3929 36.7172 80.1704 36.8813 80.0063C37.0454 79.8422 37.2679 79.75 37.5 79.75C37.7321 79.75 37.9546 79.8422 38.1187 80.0063C38.2828 80.1704 38.375 80.3929 38.375 80.625V93.75C38.375 93.9821 38.2828 94.2046 38.1187 94.3687C37.9546 94.5328 37.7321 94.625 37.5 94.625ZM37.5 74C37.2679 74 37.0454 73.9078 36.8813 73.7437C36.7172 73.5796 36.625 73.3571 36.625 73.125V71.25C36.625 71.0179 36.7172 70.7954 36.8813 70.6313C37.0454 70.4672 37.2679 70.375 37.5 70.375C37.7321 70.375 37.9546 70.4672 38.1187 70.6313C38.2828 70.7954 38.375 71.0179 38.375 71.25V73.125C38.375 73.3571 38.2828 73.5796 38.1187 73.7437C37.9546 73.9078 37.7321 74 37.5 74Z" fill="#183B40" stroke="#058FA2" stroke-width="2"/>
<rect x="35" y="69" width="5" height="6" rx="2.5" fill="#FDC114"/>
<rect x="35" y="77" width="5" height="19" rx="2.5" fill="#FDC114"/>
</svg>
