<svg width="82" height="82" viewBox="0 0 82 82" fill="none" xmlns="http://www.w3.org/2000/svg">
<path d="M0.359598 0.613029C0.0481769 1.00226 -0.0296782 12.0173 0.00924936 41.5595L0.126032 82H41H81.874L81.9908 41.5595C82.0297 12.0173 81.9518 1.00226 81.6404 0.613029C80.9786 -0.204346 1.02137 -0.204346 0.359598 0.613029ZM39.6375 21.2809V39.7691H21.1469H2.65633V21.5533C2.65633 11.5113 2.77311 3.18192 2.92882 3.06515C3.0456 2.90945 11.3761 2.79269 21.4194 2.79269H39.6375V21.2809ZM64.3176 6.76279C64.5901 7.26878 65.0573 8.35861 65.3298 9.2149C65.6022 10.0712 66.2251 11.2 66.7311 11.7449C68.4829 13.6132 68.8332 15.209 68.8332 21.0473C68.8332 26.1462 68.8722 26.5354 69.6507 26.9246C71.0521 27.7031 71.9474 29.6492 71.9474 32.0624C71.9474 35.6044 72.3756 35.4876 60.0745 35.4876C47.8902 35.4876 48.2016 35.5654 48.2016 32.3349C48.2016 29.8438 48.9802 28.0534 50.4983 26.9636C51.1601 26.4965 51.7051 25.8348 51.7051 25.5234C51.7051 24.4336 53.1843 22.0593 54.975 20.3467C55.9482 19.4126 56.6489 18.4785 56.5321 18.3228C56.4543 18.1671 55.7536 18.206 54.975 18.4395C51.7829 19.2958 48.9802 17.4665 48.9802 14.4694C48.9802 11.5113 51.5883 9.79874 57.2328 9.02029C59.2181 8.70891 59.8799 8.43645 61.0088 7.3077C62.6048 5.67296 63.5391 5.55619 64.3176 6.76279ZM79.3437 60.9818V79.47H60.8531H42.3625V60.9818V42.4937H60.8531H79.3437V60.9818ZM23.288 47.7482C24.6115 48.4099 25.8572 50.0835 26.2464 51.6794C26.4022 52.3021 26.8693 53.0417 27.2586 53.3141C28.2318 54.0147 28.1539 54.6375 26.9471 55.7662C25.1954 57.401 24.7283 58.6854 25.2733 60.3202C26.0907 62.889 28.7378 67.7933 29.2828 67.7933C29.5942 67.7933 30.3728 68.416 31.0345 69.1556C32.1245 70.4011 32.2413 70.8292 32.2413 72.97C32.2413 74.3712 32.0467 75.6167 31.7742 75.8892C31.4238 76.2395 28.3485 76.3562 20.2905 76.3562C7.87262 76.3562 8.49546 76.5119 8.49546 73.2424C8.49546 70.946 9.3908 69.0777 11.0258 68.1436C12.0768 67.5208 12.7775 66.5478 13.9843 64.0956C16.2421 59.4249 16.3199 58.5297 14.5682 56.6225C12.9721 54.8321 12.8164 53.859 13.9453 52.886C14.3735 52.5357 14.7239 51.9129 14.7239 51.5626C14.7239 50.5506 16.0085 48.7602 17.2931 47.9039C18.6556 47.0087 21.6919 46.9308 23.288 47.7482Z" fill="#058FA2"/>
<path d="M7.87177 6.60704C5.26362 8.24179 5.18576 11.5113 7.6382 13.7299C9.07852 15.0143 9.15638 15.2089 10.2074 20.7748L11.3363 26.4964L10.0906 27.8977C8.92281 29.2599 8.84496 29.4546 8.96174 32.1013L9.07852 34.9037L20.134 35.0205C27.9584 35.0983 31.3451 34.9815 31.6955 34.6702C32.3572 34.1253 32.4351 30.9725 31.8512 29.3767C31.6176 28.7929 30.9948 27.9366 30.4498 27.4695L29.4766 26.6911L30.6833 20.697C31.5397 16.3766 32.0458 14.5862 32.5129 14.3137C36.3668 12.173 35.5104 6.60704 31.2673 6.06213C27.3356 5.51721 24.8442 10.3047 27.5302 13.1849L28.3088 14.0023L26.6738 16.0263L25.0778 18.0113L24.3771 17.1161C24.0267 16.6101 23.4817 15.7149 23.2482 15.1311C22.8589 14.1969 22.8978 13.9245 23.6374 13.146C25.5449 11.1221 24.8831 7.61903 22.3528 6.41243C18.0319 4.34953 14.1002 9.95438 17.409 13.4574L18.1876 14.2748L17.0198 16.1431C16.3969 17.155 15.8519 17.9724 15.7741 17.9724C15.6962 17.9724 14.9955 17.1161 14.178 16.0263L12.6988 14.0802L13.5163 13.0682C14.762 11.5113 14.6452 8.98131 13.2827 7.46334C11.8813 5.86751 9.62351 5.51721 7.87177 6.60704ZM10.8692 9.02024C11.6867 9.48731 11.8424 10.5771 11.1417 11.2777C10.441 11.9783 9.35102 11.8227 8.88389 10.9274C8.53354 10.3047 8.57246 9.95438 9.11745 9.37054C9.896 8.51424 9.896 8.51424 10.8692 9.02024ZM21.4964 9.48731C22.3139 10.655 21.6521 11.8227 20.2507 11.667C18.9272 11.5113 18.5379 9.91545 19.6279 9.137C20.5622 8.4364 20.7957 8.47532 21.4964 9.48731ZM31.6176 9.137C33.019 10.149 31.4619 12.4065 30.0216 11.5113C29.0873 10.9274 28.9705 10.0322 29.7101 9.25377C30.4887 8.51424 30.7223 8.47532 31.6176 9.137ZM22.5864 19.5682C24.3381 22.2928 25.0778 22.4485 26.7906 20.3856L28.0363 18.9455L27.8027 20.2299C27.6859 20.9305 27.3745 22.6431 27.102 24.0054L26.6349 26.5354L20.4065 26.4575L14.1391 26.3408L13.5163 22.8377C13.1659 20.8916 12.8934 19.2958 12.9713 19.2179C13.0491 19.1401 13.5552 19.7239 14.1391 20.4635C15.813 22.6431 16.5915 22.3707 18.6547 18.9455C20.0172 16.6101 20.4454 16.182 20.7568 16.649C20.9904 16.9604 21.8078 18.2838 22.5864 19.5682ZM28.6591 29.727C28.9316 29.9995 29.1262 30.7001 29.1262 31.2839V32.3737H20.3675H11.6088V31.2839C11.6088 30.7001 11.8035 29.9995 12.0759 29.727C12.7377 29.0653 27.9973 29.0653 28.6591 29.727Z" fill="#058FA2"/>
<path d="M61.6323 10.8885C61.1262 11.3945 59.8416 11.7837 57.9342 12.0173C53.9246 12.5622 52.0172 13.4185 52.1729 14.5472C52.2897 15.3646 52.4454 15.4425 54.0414 15.2868C58.2067 14.8975 58.012 14.8586 59.2966 17.3107L60.4645 19.5293L58.2067 21.5144C56.1046 23.3826 54.82 25.1342 54.82 26.1461C54.82 26.4186 56.6106 26.5354 60.3866 26.4575L65.9143 26.3408L66.0311 23.227C66.2647 17.7778 65.8365 15.3646 64.3961 13.7688C63.6954 12.9514 62.9558 11.8616 62.7612 11.2388C62.4108 10.1879 62.4108 10.1879 61.6323 10.8885Z" fill="#058FA2"/>
<path d="M51.55 30.272C51.4332 30.5833 51.3164 31.2061 51.3164 31.6343C51.3164 32.3349 51.7057 32.3738 60.114 32.3738H68.8727L68.756 31.0893L68.6392 29.8438L60.2308 29.727C52.7957 29.6492 51.7835 29.727 51.55 30.272Z" fill="#058FA2"/>
<path d="M54.704 47.4368C54.5483 47.5536 54.4315 49.6943 54.4315 52.1854V56.7004L55.8329 57.8291C57.4678 59.1136 57.4678 59.3082 55.21 64.0567C54.0033 66.5867 53.3415 67.5208 52.2905 68.1436C51.473 68.6107 50.6555 69.5448 50.3441 70.3233C49.6045 72.0359 49.5655 75.3443 50.3052 75.9281C50.6555 76.2395 54.0422 76.3562 61.8667 76.2784L72.9221 76.1616L73.0389 73.3592C73.1557 70.1676 72.6496 68.961 70.82 68.1825C69.9247 67.8322 69.3018 66.8981 67.9004 63.901C66.9272 61.7992 66.1098 59.8531 66.1098 59.5417C66.1098 59.2303 66.7326 58.413 67.4722 57.6734L68.8736 56.3112L68.7568 51.8351L68.6401 47.359H67.4722C66.4212 47.359 66.3044 47.5147 66.1876 48.6045C66.0708 49.8111 65.9541 49.8889 64.5137 49.8889C63.1902 49.8889 62.9956 49.7722 62.9956 48.9937C62.9956 47.7093 62.4116 47.0865 61.3995 47.2422C60.6599 47.3201 60.4263 47.6314 60.3485 48.6045C60.2317 49.8111 60.1149 49.8889 58.6746 49.8889C57.4289 49.8889 57.1564 49.7333 57.1564 49.1494C57.1564 47.826 56.6893 47.1644 55.8329 47.1644C55.3268 47.1644 54.8208 47.2811 54.704 47.4368ZM66.1098 54.0147C66.1098 54.6764 65.5259 55.6884 64.5137 56.7782C63.1513 58.2573 62.9566 58.6465 63.1902 59.7363C63.5016 61.0597 65.6037 66.1586 66.1487 66.8592C66.7715 67.6376 65.993 67.7933 61.3217 67.7933C57.7793 67.7933 56.7282 67.6765 56.8839 67.2873C57.0007 67.0538 57.7403 65.419 58.48 63.7064C60.3096 59.6196 60.3096 58.2184 58.5189 56.5058C57.5846 55.6105 57.1564 54.8321 57.1564 54.0926V53.0027H61.6331H66.1098V54.0147ZM69.9247 70.9849C70.1972 71.2574 70.3918 71.958 70.3918 72.5418V73.6317H61.6331H52.8744V72.3472C52.8744 71.6077 52.9912 70.9071 53.1469 70.7903C53.614 70.2843 69.4186 70.479 69.9247 70.9849Z" fill="#058FA2"/>
<path d="M19.16 50.317C18.2647 50.7841 17.3304 52.3799 17.7197 52.7692C17.8754 52.8859 19.16 53.0027 20.6393 53.0027C23.5199 53.0027 23.9092 52.6524 22.6246 51.1344C21.7682 50.1224 20.25 49.7721 19.16 50.317Z" fill="#058FA2"/>
<path d="M18.4988 56.5836C19.1995 58.5297 18.8102 60.9429 17.3309 64.0567C16.5524 65.7304 15.8906 67.1705 15.8906 67.2484C15.8906 67.3262 17.9538 67.4041 20.523 67.4041H25.1165L23.8319 64.7184C22.0412 60.9818 21.5741 59.0357 22.0801 57.5956C22.703 55.7662 22.664 55.7273 20.3284 55.7273C18.2652 55.7273 18.1874 55.7662 18.4988 56.5836Z" fill="#058FA2"/>
<path d="M12.0765 70.9849C11.804 71.2574 11.6094 71.8412 11.6094 72.3472V73.2424H20.3681H29.1268V72.3472C29.1268 71.8412 28.9322 71.2574 28.6597 70.9849C27.9979 70.3232 12.7383 70.3232 12.0765 70.9849Z" fill="#058FA2"/>
</svg>
