<svg width="95" height="95" viewBox="0 0 95 95" fill="none" xmlns="http://www.w3.org/2000/svg">
<g clip-path="url(#clip0_2_27766)">
<mask id="path-1-inside-1_2_27766" fill="white">
<path d="M11.47 49.7998C12.5897 48.851 13.909 48.1668 15.3296 47.7981C16.7503 47.4294 18.2357 47.3857 19.6756 47.6702C21.9033 48.1048 23.8993 49.3291 25.2964 51.1179L26.955 47.0685C26.108 46.3072 25.1676 45.6567 24.1564 45.1329C25.714 43.8301 26.8331 42.0798 27.3619 40.1192C27.8907 38.1587 27.8036 36.083 27.1124 34.1737C26.4212 32.2643 25.1594 30.6139 23.4981 29.4462C21.8368 28.2785 19.8566 27.6501 17.826 27.6464C15.7954 27.6426 13.8128 28.2635 12.1472 29.425C10.4816 30.5865 9.21363 32.2322 8.5153 34.139C7.81698 36.0457 7.72212 38.1211 8.2436 40.0836C8.76508 42.046 9.87766 43.8006 11.4304 45.1092C10.5397 45.5675 9.70211 46.1224 8.93266 46.7637C7.37368 48.062 6.11969 49.6877 5.25976 51.5252C4.39983 53.3627 3.95506 55.367 3.95704 57.3958V63.3333H7.91537V57.3958C7.91335 55.9463 8.23082 54.5141 8.84519 53.2012C9.45957 51.8883 10.3557 50.727 11.47 49.7998ZM11.8737 37.6042C11.8737 36.4298 12.2219 35.2819 12.8744 34.3055C13.5268 33.329 14.4541 32.568 15.539 32.1186C16.624 31.6692 17.8178 31.5516 18.9696 31.7807C20.1213 32.0098 21.1793 32.5753 22.0097 33.4057C22.84 34.2361 23.4055 35.294 23.6346 36.4458C23.8637 37.5976 23.7461 38.7914 23.2967 39.8763C22.8473 40.9613 22.0863 41.8886 21.1099 42.541C20.1335 43.1934 18.9855 43.5417 17.8112 43.5417C16.2371 43.5396 14.7281 42.9133 13.6151 41.8003C12.502 40.6872 11.8758 39.1782 11.8737 37.6042ZM83.5314 45.1329C85.0894 43.8306 86.2091 42.0806 86.7385 40.1202C87.2679 38.1599 87.1814 36.0841 86.4908 34.1746C85.8002 32.265 84.5389 30.6142 82.878 29.446C81.2171 28.2778 79.237 27.6488 77.2064 27.6444C75.1759 27.64 73.1931 28.2603 71.5271 29.4213C69.8611 30.5822 68.5926 32.2276 67.8937 34.1341C67.1948 36.0406 67.0993 38.116 67.6202 40.0786C68.141 42.0413 69.2531 43.7962 70.8054 45.1052C69.9144 45.5646 69.0768 46.1208 68.3077 46.7637C68.2048 46.8469 68.1335 46.9617 68.0306 47.0487L69.6614 51.0308C70.7632 49.658 72.2239 48.6172 73.8812 48.024C75.5386 47.4308 77.3279 47.3083 79.0506 47.6702C81.3721 48.1981 83.4398 49.5122 84.9034 51.39C86.3671 53.2677 87.1367 55.5936 87.082 57.9737V63.3333H91.0404V57.9737C91.0721 55.3534 90.39 52.7738 89.0671 50.5117C87.7443 48.2496 85.8307 46.3902 83.5314 45.1329ZM71.2487 37.6042C71.2487 36.4298 71.5969 35.2819 72.2494 34.3055C72.9018 33.329 73.8291 32.568 74.914 32.1186C75.999 31.6692 77.1928 31.5516 78.3446 31.7807C79.4963 32.0098 80.5543 32.5753 81.3847 33.4057C82.215 34.2361 82.7805 35.294 83.0096 36.4458C83.2387 37.5976 83.1211 38.7914 82.6717 39.8763C82.2223 40.9613 81.4613 41.8886 80.4849 42.541C79.5085 43.1934 78.3605 43.5417 77.1862 43.5417C75.6121 43.5396 74.1031 42.9133 72.9901 41.8003C71.877 40.6872 71.2508 39.1782 71.2487 37.6042ZM39.582 35.625V31.6667C39.5793 30.4677 39.8503 29.284 40.3744 28.2056C40.8985 27.1273 41.6618 26.1828 42.6062 25.4442C43.5669 24.6932 44.6865 24.1719 45.8796 23.9201C47.0727 23.6683 48.3076 23.6927 49.4897 23.9915C51.24 24.5016 52.7714 25.5783 53.8438 27.0526C54.9162 28.5269 55.4689 30.3154 55.4154 32.1377V35.625H59.3737V32.1417C59.3848 30.037 58.8669 27.9633 57.8675 26.1111C56.868 24.2588 55.4191 22.6874 53.6539 21.5412C55.2631 20.2621 56.4339 18.5135 57.0038 16.5385C57.5738 14.5634 57.5145 12.4599 56.8343 10.5201C56.154 8.58029 54.8866 6.90046 53.2079 5.71393C51.5293 4.52739 49.5229 3.89306 47.4672 3.89903C45.4116 3.905 43.4089 4.55097 41.7372 5.74723C40.0655 6.94349 38.8078 8.63065 38.1388 10.5744C37.4698 12.5181 37.4228 14.6219 38.0042 16.5936C38.5856 18.5653 39.7665 20.3071 41.3831 21.5769C40.9588 21.8047 40.549 22.0585 40.156 22.3369C38.7404 23.4446 37.5964 24.8608 36.811 26.4776C36.0255 28.0945 35.6195 29.8692 35.6237 31.6667V35.625H39.582ZM41.5612 13.8542C41.5612 12.6798 41.9094 11.5319 42.5619 10.5555C43.2143 9.57904 44.1416 8.81802 45.2265 8.36863C46.3115 7.91923 47.5053 7.80165 48.6571 8.03075C49.8088 8.25985 50.8668 8.82534 51.6972 9.65571C52.5275 10.4861 53.093 11.544 53.3221 12.6958C53.5512 13.8476 53.4336 15.0414 52.9842 16.1263C52.5348 17.2113 51.7738 18.1386 50.7974 18.791C49.821 19.4434 48.673 19.7917 47.4987 19.7917C45.9246 19.7896 44.4156 19.1633 43.3026 18.0503C42.1895 16.9372 41.5633 15.4282 41.5612 13.8542ZM79.0189 84.3521L75.3535 85.8562L58.0437 43.5417H36.9537L19.6439 85.8562L15.9785 84.3521L33.2883 42.0454C33.5842 41.3164 34.0913 40.6925 34.7444 40.2538C35.3976 39.8151 36.1669 39.5816 36.9537 39.5833H58.0437C58.829 39.5812 59.5971 39.8137 60.2495 40.2509C60.9018 40.6882 61.4087 41.3103 61.7052 42.0375L79.0189 84.3521Z"/>
</mask>
<path d="M11.47 49.7998C12.5897 48.851 13.909 48.1668 15.3296 47.7981C16.7503 47.4294 18.2357 47.3857 19.6756 47.6702C21.9033 48.1048 23.8993 49.3291 25.2964 51.1179L26.955 47.0685C26.108 46.3072 25.1676 45.6567 24.1564 45.1329C25.714 43.8301 26.8331 42.0798 27.3619 40.1192C27.8907 38.1587 27.8036 36.083 27.1124 34.1737C26.4212 32.2643 25.1594 30.6139 23.4981 29.4462C21.8368 28.2785 19.8566 27.6501 17.826 27.6464C15.7954 27.6426 13.8128 28.2635 12.1472 29.425C10.4816 30.5865 9.21363 32.2322 8.5153 34.139C7.81698 36.0457 7.72212 38.1211 8.2436 40.0836C8.76508 42.046 9.87766 43.8006 11.4304 45.1092C10.5397 45.5675 9.70211 46.1224 8.93266 46.7637C7.37368 48.062 6.11969 49.6877 5.25976 51.5252C4.39983 53.3627 3.95506 55.367 3.95704 57.3958V63.3333H7.91537V57.3958C7.91335 55.9463 8.23082 54.5141 8.84519 53.2012C9.45957 51.8883 10.3557 50.727 11.47 49.7998ZM11.8737 37.6042C11.8737 36.4298 12.2219 35.2819 12.8744 34.3055C13.5268 33.329 14.4541 32.568 15.539 32.1186C16.624 31.6692 17.8178 31.5516 18.9696 31.7807C20.1213 32.0098 21.1793 32.5753 22.0097 33.4057C22.84 34.2361 23.4055 35.294 23.6346 36.4458C23.8637 37.5976 23.7461 38.7914 23.2967 39.8763C22.8473 40.9613 22.0863 41.8886 21.1099 42.541C20.1335 43.1934 18.9855 43.5417 17.8112 43.5417C16.2371 43.5396 14.7281 42.9133 13.6151 41.8003C12.502 40.6872 11.8758 39.1782 11.8737 37.6042ZM83.5314 45.1329C85.0894 43.8306 86.2091 42.0806 86.7385 40.1202C87.2679 38.1599 87.1814 36.0841 86.4908 34.1746C85.8002 32.265 84.5389 30.6142 82.878 29.446C81.2171 28.2778 79.237 27.6488 77.2064 27.6444C75.1759 27.64 73.1931 28.2603 71.5271 29.4213C69.8611 30.5822 68.5926 32.2276 67.8937 34.1341C67.1948 36.0406 67.0993 38.116 67.6202 40.0786C68.141 42.0413 69.2531 43.7962 70.8054 45.1052C69.9144 45.5646 69.0768 46.1208 68.3077 46.7637C68.2048 46.8469 68.1335 46.9617 68.0306 47.0487L69.6614 51.0308C70.7632 49.658 72.2239 48.6172 73.8812 48.024C75.5386 47.4308 77.3279 47.3083 79.0506 47.6702C81.3721 48.1981 83.4398 49.5122 84.9034 51.39C86.3671 53.2677 87.1367 55.5936 87.082 57.9737V63.3333H91.0404V57.9737C91.0721 55.3534 90.39 52.7738 89.0671 50.5117C87.7443 48.2496 85.8307 46.3902 83.5314 45.1329ZM71.2487 37.6042C71.2487 36.4298 71.5969 35.2819 72.2494 34.3055C72.9018 33.329 73.8291 32.568 74.914 32.1186C75.999 31.6692 77.1928 31.5516 78.3446 31.7807C79.4963 32.0098 80.5543 32.5753 81.3847 33.4057C82.215 34.2361 82.7805 35.294 83.0096 36.4458C83.2387 37.5976 83.1211 38.7914 82.6717 39.8763C82.2223 40.9613 81.4613 41.8886 80.4849 42.541C79.5085 43.1934 78.3605 43.5417 77.1862 43.5417C75.6121 43.5396 74.1031 42.9133 72.9901 41.8003C71.877 40.6872 71.2508 39.1782 71.2487 37.6042ZM39.582 35.625V31.6667C39.5793 30.4677 39.8503 29.284 40.3744 28.2056C40.8985 27.1273 41.6618 26.1828 42.6062 25.4442C43.5669 24.6932 44.6865 24.1719 45.8796 23.9201C47.0727 23.6683 48.3076 23.6927 49.4897 23.9915C51.24 24.5016 52.7714 25.5783 53.8438 27.0526C54.9162 28.5269 55.4689 30.3154 55.4154 32.1377V35.625H59.3737V32.1417C59.3848 30.037 58.8669 27.9633 57.8675 26.1111C56.868 24.2588 55.4191 22.6874 53.6539 21.5412C55.2631 20.2621 56.4339 18.5135 57.0038 16.5385C57.5738 14.5634 57.5145 12.4599 56.8343 10.5201C56.154 8.58029 54.8866 6.90046 53.2079 5.71393C51.5293 4.52739 49.5229 3.89306 47.4672 3.89903C45.4116 3.905 43.4089 4.55097 41.7372 5.74723C40.0655 6.94349 38.8078 8.63065 38.1388 10.5744C37.4698 12.5181 37.4228 14.6219 38.0042 16.5936C38.5856 18.5653 39.7665 20.3071 41.3831 21.5769C40.9588 21.8047 40.549 22.0585 40.156 22.3369C38.7404 23.4446 37.5964 24.8608 36.811 26.4776C36.0255 28.0945 35.6195 29.8692 35.6237 31.6667V35.625H39.582ZM41.5612 13.8542C41.5612 12.6798 41.9094 11.5319 42.5619 10.5555C43.2143 9.57904 44.1416 8.81802 45.2265 8.36863C46.3115 7.91923 47.5053 7.80165 48.6571 8.03075C49.8088 8.25985 50.8668 8.82534 51.6972 9.65571C52.5275 10.4861 53.093 11.544 53.3221 12.6958C53.5512 13.8476 53.4336 15.0414 52.9842 16.1263C52.5348 17.2113 51.7738 18.1386 50.7974 18.791C49.821 19.4434 48.673 19.7917 47.4987 19.7917C45.9246 19.7896 44.4156 19.1633 43.3026 18.0503C42.1895 16.9372 41.5633 15.4282 41.5612 13.8542ZM79.0189 84.3521L75.3535 85.8562L58.0437 43.5417H36.9537L19.6439 85.8562L15.9785 84.3521L33.2883 42.0454C33.5842 41.3164 34.0913 40.6925 34.7444 40.2538C35.3976 39.8151 36.1669 39.5816 36.9537 39.5833H58.0437C58.829 39.5812 59.5971 39.8137 60.2495 40.2509C60.9018 40.6882 61.4087 41.3103 61.7052 42.0375L79.0189 84.3521Z" stroke="#058FA2" stroke-width="4" mask="url(#path-1-inside-1_2_27766)"/>
</g>
<defs>
<clipPath id="clip0_2_27766">
<rect width="95" height="95" fill="white"/>
</clipPath>
</defs>
</svg>
