<svg width="88" height="82" viewBox="0 0 88 82" fill="none" xmlns="http://www.w3.org/2000/svg">
<mask id="path-1-inside-1_2982_8042" fill="white">
<path d="M7.51292 45.9008C8.63271 44.952 9.95196 44.2678 11.3726 43.8991C12.7932 43.5304 14.2787 43.4867 15.7185 43.7712C17.9463 44.2058 19.9423 45.4301 21.3394 47.2189L22.9979 43.1695C22.151 42.4082 21.2106 41.7578 20.1994 41.2339C21.757 39.9312 22.8761 38.1808 23.4049 36.2202C23.9337 34.2597 23.8466 32.184 23.1554 30.2747C22.4642 28.3654 21.2023 26.7149 19.5411 25.5472C17.8798 24.3795 15.8996 23.7512 13.869 23.7474C11.8384 23.7436 9.8558 24.3645 8.19019 25.526C6.52458 26.6875 5.2566 28.3332 4.55827 30.24C3.85994 32.1467 3.76509 34.2221 4.28657 36.1846C4.80805 38.1471 5.92063 39.9016 7.47334 41.2102C6.58267 41.6685 5.74508 42.2234 4.97563 42.8648C3.41665 44.163 2.16266 45.7887 1.30273 47.6262C0.4428 49.4637 -0.00197046 51.4681 6.56213e-06 53.4968V59.4343H3.95834V53.4968C3.95632 52.0473 4.27379 50.6151 4.88816 49.3022C5.50253 47.9893 6.39871 46.828 7.51292 45.9008ZM7.91667 33.7052C7.91667 32.5308 8.2649 31.3829 8.91732 30.4065C9.56974 29.4301 10.4971 28.669 11.582 28.2196C12.6669 27.7702 13.8608 27.6527 15.0125 27.8818C16.1643 28.1109 17.2222 28.6764 18.0526 29.5067C18.883 30.3371 19.4485 31.3951 19.6776 32.5468C19.9067 33.6986 19.7891 34.8924 19.3397 35.9774C18.8903 37.0623 18.1293 37.9896 17.1529 38.642C16.1765 39.2944 15.0285 39.6427 13.8542 39.6427C12.2801 39.6406 10.7711 39.0144 9.65804 37.9013C8.545 36.7883 7.91877 35.2793 7.91667 33.7052ZM79.5744 41.2339C81.1324 39.9316 82.252 38.1816 82.7814 36.2212C83.3109 34.2609 83.2244 32.1851 82.5338 30.2756C81.8432 28.3661 80.5819 26.7152 78.921 25.547C77.2601 24.3788 75.28 23.7498 73.2494 23.7454C71.2188 23.741 69.2361 24.3613 67.5701 25.5223C65.9041 26.6832 64.6356 28.3286 63.9367 30.2351C63.2378 32.1416 63.1423 34.217 63.6631 36.1796C64.184 38.1423 65.296 39.8972 66.8483 41.2062C65.9574 41.6657 65.1198 42.2219 64.3506 42.8648C64.2477 42.9479 64.1765 43.0627 64.0736 43.1498L65.7044 47.1318C66.8062 45.759 68.2668 44.7182 69.9242 44.125C71.5815 43.5318 73.3708 43.4093 75.0936 43.7712C77.4151 44.2991 79.4827 45.6133 80.9464 47.491C82.4101 49.3687 83.1797 51.6946 83.125 54.0748V59.4343H87.0833V54.0748C87.1151 51.4544 86.4329 48.8749 85.1101 46.6127C83.7873 44.3506 81.8736 42.4912 79.5744 41.2339ZM67.2917 33.7052C67.2917 32.5308 67.6399 31.3829 68.2923 30.4065C68.9447 29.4301 69.8721 28.669 70.957 28.2196C72.0419 27.7702 73.2358 27.6527 74.3875 27.8818C75.5393 28.1109 76.5972 28.6764 77.4276 29.5067C78.258 30.3371 78.8235 31.3951 79.0526 32.5468C79.2817 33.6986 79.1641 34.8924 78.7147 35.9774C78.2653 37.0623 77.5043 37.9896 76.5279 38.642C75.5515 39.2944 74.4035 39.6427 73.2292 39.6427C71.6551 39.6406 70.1461 39.0144 69.033 37.9013C67.92 36.7883 67.2938 35.2793 67.2917 33.7052ZM35.625 31.726V27.7677C35.6223 26.5687 35.8933 25.385 36.4174 24.3066C36.9415 23.2283 37.7048 22.2838 38.6492 21.5452C39.6098 20.7942 40.7295 20.2729 41.9226 20.0211C43.1157 19.7693 44.3505 19.7937 45.5327 20.0925C47.2829 20.6027 48.8143 21.6793 49.8867 23.1536C50.9591 24.6279 51.5119 26.4164 51.4583 28.2387V31.726H55.4167V28.2427C55.4278 26.138 54.9099 24.0643 53.9104 22.2121C52.911 20.3598 51.4621 18.7884 49.6969 17.6423C51.306 16.3631 52.4769 14.6145 53.0468 12.6395C53.6167 10.6645 53.5575 8.56094 52.8772 6.62112C52.197 4.68131 50.9295 3.00147 49.2509 1.81494C47.5723 0.628408 45.5658 -0.00592622 43.5102 4.17271e-05C41.4546 0.00600967 39.4518 0.651983 37.7801 1.84824C36.1084 3.0445 34.8507 4.73167 34.1818 6.6754C33.5128 8.61914 33.4657 10.723 34.0471 12.6947C34.6285 14.6664 35.8095 16.4081 37.4261 17.6779C37.0018 17.9057 36.592 18.1595 36.199 18.4379C34.7834 19.5456 33.6393 20.9619 32.8539 22.5787C32.0685 24.1955 31.6624 25.9702 31.6667 27.7677V31.726H35.625ZM37.6042 9.95517C37.6042 8.78085 37.9524 7.63289 38.6048 6.65647C39.2572 5.68006 40.1846 4.91903 41.2695 4.46964C42.3544 4.02024 43.5483 3.90266 44.7 4.13176C45.8518 4.36086 46.9097 4.92635 47.7401 5.75673C48.5705 6.5871 49.136 7.64506 49.3651 8.79682C49.5942 9.94859 49.4766 11.1424 49.0272 12.2274C48.5778 13.3123 47.8168 14.2396 46.8404 14.892C45.864 15.5444 44.716 15.8927 43.5417 15.8927C41.9676 15.8906 40.4586 15.2643 39.3455 14.1513C38.2325 13.0383 37.6063 11.5293 37.6042 9.95517ZM75.0619 80.4531L71.3965 81.9573L54.0867 39.6427H32.9967L15.6869 81.9573L12.0215 80.4531L29.3313 38.1464C29.6272 37.4174 30.1343 36.7935 30.7874 36.3548C31.4405 35.9161 32.2099 35.6826 32.9967 35.6843H54.0867C54.872 35.6822 55.6401 35.9147 56.2924 36.3519C56.9448 36.7892 57.4517 37.4113 57.7481 38.1385L75.0619 80.4531Z"/>
</mask>
<path d="M7.51292 45.9008C8.63271 44.952 9.95196 44.2678 11.3726 43.8991C12.7932 43.5304 14.2787 43.4867 15.7185 43.7712C17.9463 44.2058 19.9423 45.4301 21.3394 47.2189L22.9979 43.1695C22.151 42.4082 21.2106 41.7578 20.1994 41.2339C21.757 39.9312 22.8761 38.1808 23.4049 36.2202C23.9337 34.2597 23.8466 32.184 23.1554 30.2747C22.4642 28.3654 21.2023 26.7149 19.5411 25.5472C17.8798 24.3795 15.8996 23.7512 13.869 23.7474C11.8384 23.7436 9.8558 24.3645 8.19019 25.526C6.52458 26.6875 5.2566 28.3332 4.55827 30.24C3.85994 32.1467 3.76509 34.2221 4.28657 36.1846C4.80805 38.1471 5.92063 39.9016 7.47334 41.2102C6.58267 41.6685 5.74508 42.2234 4.97563 42.8648C3.41665 44.163 2.16266 45.7887 1.30273 47.6262C0.4428 49.4637 -0.00197046 51.4681 6.56213e-06 53.4968V59.4343H3.95834V53.4968C3.95632 52.0473 4.27379 50.6151 4.88816 49.3022C5.50253 47.9893 6.39871 46.828 7.51292 45.9008ZM7.91667 33.7052C7.91667 32.5308 8.2649 31.3829 8.91732 30.4065C9.56974 29.4301 10.4971 28.669 11.582 28.2196C12.6669 27.7702 13.8608 27.6527 15.0125 27.8818C16.1643 28.1109 17.2222 28.6764 18.0526 29.5067C18.883 30.3371 19.4485 31.3951 19.6776 32.5468C19.9067 33.6986 19.7891 34.8924 19.3397 35.9774C18.8903 37.0623 18.1293 37.9896 17.1529 38.642C16.1765 39.2944 15.0285 39.6427 13.8542 39.6427C12.2801 39.6406 10.7711 39.0144 9.65804 37.9013C8.545 36.7883 7.91877 35.2793 7.91667 33.7052ZM79.5744 41.2339C81.1324 39.9316 82.252 38.1816 82.7814 36.2212C83.3109 34.2609 83.2244 32.1851 82.5338 30.2756C81.8432 28.3661 80.5819 26.7152 78.921 25.547C77.2601 24.3788 75.28 23.7498 73.2494 23.7454C71.2188 23.741 69.2361 24.3613 67.5701 25.5223C65.9041 26.6832 64.6356 28.3286 63.9367 30.2351C63.2378 32.1416 63.1423 34.217 63.6631 36.1796C64.184 38.1423 65.296 39.8972 66.8483 41.2062C65.9574 41.6657 65.1198 42.2219 64.3506 42.8648C64.2477 42.9479 64.1765 43.0627 64.0736 43.1498L65.7044 47.1318C66.8062 45.759 68.2668 44.7182 69.9242 44.125C71.5815 43.5318 73.3708 43.4093 75.0936 43.7712C77.4151 44.2991 79.4827 45.6133 80.9464 47.491C82.4101 49.3687 83.1797 51.6946 83.125 54.0748V59.4343H87.0833V54.0748C87.1151 51.4544 86.4329 48.8749 85.1101 46.6127C83.7873 44.3506 81.8736 42.4912 79.5744 41.2339ZM67.2917 33.7052C67.2917 32.5308 67.6399 31.3829 68.2923 30.4065C68.9447 29.4301 69.8721 28.669 70.957 28.2196C72.0419 27.7702 73.2358 27.6527 74.3875 27.8818C75.5393 28.1109 76.5972 28.6764 77.4276 29.5067C78.258 30.3371 78.8235 31.3951 79.0526 32.5468C79.2817 33.6986 79.1641 34.8924 78.7147 35.9774C78.2653 37.0623 77.5043 37.9896 76.5279 38.642C75.5515 39.2944 74.4035 39.6427 73.2292 39.6427C71.6551 39.6406 70.1461 39.0144 69.033 37.9013C67.92 36.7883 67.2938 35.2793 67.2917 33.7052ZM35.625 31.726V27.7677C35.6223 26.5687 35.8933 25.385 36.4174 24.3066C36.9415 23.2283 37.7048 22.2838 38.6492 21.5452C39.6098 20.7942 40.7295 20.2729 41.9226 20.0211C43.1157 19.7693 44.3505 19.7937 45.5327 20.0925C47.2829 20.6027 48.8143 21.6793 49.8867 23.1536C50.9591 24.6279 51.5119 26.4164 51.4583 28.2387V31.726H55.4167V28.2427C55.4278 26.138 54.9099 24.0643 53.9104 22.2121C52.911 20.3598 51.4621 18.7884 49.6969 17.6423C51.306 16.3631 52.4769 14.6145 53.0468 12.6395C53.6167 10.6645 53.5575 8.56094 52.8772 6.62112C52.197 4.68131 50.9295 3.00147 49.2509 1.81494C47.5723 0.628408 45.5658 -0.00592622 43.5102 4.17271e-05C41.4546 0.00600967 39.4518 0.651983 37.7801 1.84824C36.1084 3.0445 34.8507 4.73167 34.1818 6.6754C33.5128 8.61914 33.4657 10.723 34.0471 12.6947C34.6285 14.6664 35.8095 16.4081 37.4261 17.6779C37.0018 17.9057 36.592 18.1595 36.199 18.4379C34.7834 19.5456 33.6393 20.9619 32.8539 22.5787C32.0685 24.1955 31.6624 25.9702 31.6667 27.7677V31.726H35.625ZM37.6042 9.95517C37.6042 8.78085 37.9524 7.63289 38.6048 6.65647C39.2572 5.68006 40.1846 4.91903 41.2695 4.46964C42.3544 4.02024 43.5483 3.90266 44.7 4.13176C45.8518 4.36086 46.9097 4.92635 47.7401 5.75673C48.5705 6.5871 49.136 7.64506 49.3651 8.79682C49.5942 9.94859 49.4766 11.1424 49.0272 12.2274C48.5778 13.3123 47.8168 14.2396 46.8404 14.892C45.864 15.5444 44.716 15.8927 43.5417 15.8927C41.9676 15.8906 40.4586 15.2643 39.3455 14.1513C38.2325 13.0383 37.6063 11.5293 37.6042 9.95517ZM75.0619 80.4531L71.3965 81.9573L54.0867 39.6427H32.9967L15.6869 81.9573L12.0215 80.4531L29.3313 38.1464C29.6272 37.4174 30.1343 36.7935 30.7874 36.3548C31.4405 35.9161 32.2099 35.6826 32.9967 35.6843H54.0867C54.872 35.6822 55.6401 35.9147 56.2924 36.3519C56.9448 36.7892 57.4517 37.4113 57.7481 38.1385L75.0619 80.4531Z" stroke="#058FA2" stroke-width="4" mask="url(#path-1-inside-1_2982_8042)"/>
<path d="M73.7581 79.9072L71.943 80.6521L55.0122 39.264L54.758 38.6427H54.0867H32.9967H32.3253L32.0711 39.264L15.1404 80.6521L13.3253 79.9072L30.2568 38.5251L30.2578 38.5225C30.4788 37.9783 30.8574 37.5124 31.345 37.1849C31.8326 36.8573 32.407 36.683 32.9945 36.6843H32.9967L54.0867 36.6843L54.0894 36.6843C54.6755 36.6827 55.2488 36.8562 55.7357 37.1826C56.2225 37.5089 56.6009 37.9732 56.8221 38.516L56.8226 38.5172L73.7581 79.9072Z" stroke="#FDD304" stroke-width="2"/>
</svg>
