<svg width="72" height="73" viewBox="0 0 72 73" fill="none" xmlns="http://www.w3.org/2000/svg">
<path d="M40.7681 31.862H41.7706L41.7681 30.8595L41.7612 28.0881L41.7587 27.0906H40.7612H38.1237V25.7245V24.7245H37.1237H34.3523H33.3523V25.7245V27.6322C32.3964 28.0884 31.5864 28.8119 31.0249 29.7222C30.3318 30.8459 30.063 32.1803 30.2671 33.4846C30.4712 34.789 31.1347 35.9775 32.1379 36.8357C33.141 37.694 34.4178 38.1655 35.738 38.1652C35.738 38.1652 35.7381 38.1652 35.7382 38.1652H35.7855C35.9885 38.1654 36.1831 38.2461 36.3267 38.3895C36.4701 38.5328 36.5509 38.727 36.5515 38.9297C36.5515 38.93 36.5515 38.9303 36.5515 38.9305L36.5515 39.371C36.5513 39.5741 36.4705 39.7688 36.3269 39.9124C36.1833 40.0561 35.9886 40.1368 35.7855 40.137H30.8949H29.8949V41.137V43.9084V44.9084H30.8949H33.3592V46.472V47.472H34.3592H37.1306H38.1306V46.472V44.3841C38.9652 43.9949 39.6935 43.4019 40.2454 42.6548C40.9477 41.7042 41.3277 40.554 41.3299 39.3721V39.3702V38.9268V38.9257C41.3282 37.4582 40.7443 36.0514 39.7065 35.0139C38.6687 33.9765 37.2616 33.3932 35.7942 33.3921H35.7934H35.7449C35.542 33.3921 35.3474 33.3115 35.2039 33.168C35.0605 33.0245 34.9799 32.8299 34.9799 32.627C34.9799 32.4241 35.0605 32.2296 35.2039 32.0861C35.3474 31.9426 35.542 31.862 35.7449 31.862H40.7681ZM27.7141 24.547C30.0911 22.959 32.8856 22.1116 35.7442 22.1118C39.5762 22.1167 43.2498 23.6412 45.9593 26.351C48.6689 29.0609 50.193 32.7349 50.1973 36.567C50.197 39.4255 49.3493 42.2197 47.7612 44.5964C46.1729 46.9734 43.9154 48.826 41.2741 49.9199C38.6329 51.0139 35.7266 51.3 32.9227 50.7422C30.1189 50.1843 27.5434 48.8075 25.522 46.7859C23.5006 44.7643 22.1241 42.1887 21.5666 39.3848C21.0091 36.5809 21.2955 33.6746 22.3898 31.0334C23.484 28.3923 25.3369 26.135 27.7141 24.547Z" stroke="#058FA2" stroke-width="2"/>
<path d="M60.1664 62.0229L60.8662 61.308C65.6398 56.4308 68.9071 50.2814 70.277 43.5957C71.6469 36.91 71.0613 29.9712 68.5905 23.6096C61.6195 5.69459 41.5964 -3.36484 23.6043 3.06662L24.0103 4.10983C41.4357 -2.09933 60.8003 6.67155 67.5498 24.0159L67.5501 24.0166C69.943 30.1794 70.5089 36.9013 69.18 43.3774C67.8511 49.8535 64.6838 55.8093 60.0572 60.5317L59.3594 61.244L58.6451 60.5482L56.428 58.3882L56.4275 58.3877C56.3358 58.2983 56.2196 58.238 56.0936 58.2146C55.9677 58.1913 55.8376 58.2058 55.7199 58.2564L55.3251 57.3376L55.7199 58.2564C55.6022 58.3069 55.5022 58.3913 55.4325 58.4988C55.3628 58.6062 55.3265 58.7318 55.3283 58.8599C55.3283 58.8599 55.3283 58.86 55.3283 58.8601L55.4114 64.7296L55.4114 64.7301M60.1664 62.0229L56.0778 66.3672C55.6418 66.3723 55.2216 66.2044 54.9092 65.9001C54.5969 65.5959 54.4179 65.1802 54.4115 64.7442L55.4114 64.7301M60.1664 62.0229L60.8816 62.7224L62.3782 64.186L62.3795 64.1873C62.4712 64.2766 62.5343 64.3912 62.5609 64.5165C62.5875 64.6417 62.5763 64.7721 62.5288 64.891C62.4813 65.0099 62.3996 65.112 62.294 65.1845C62.1886 65.2568 62.0641 65.2963 61.9362 65.298M60.1664 62.0229L61.9362 65.298M55.4114 64.7301C55.4141 64.9012 55.4844 65.0643 55.607 65.1838C55.7297 65.3033 55.8948 65.3693 56.0661 65.3673L61.9357 65.298M55.4114 64.7301L61.9357 65.298M61.9357 65.298L61.9362 65.298M61.9357 65.298L61.9362 65.298" stroke="#058FA2" stroke-width="2"/>
<path d="M9.82488 6.06297L15.6951 5.99369C15.9111 5.99071 16.1256 6.03034 16.3263 6.11032C16.527 6.1903 16.7099 6.30905 16.8647 6.45979C17.0194 6.61052 17.143 6.79029 17.2282 6.9888C17.3134 7.18731 17.3587 7.40068 17.3614 7.6167L17.4445 13.4869C17.4491 13.8129 17.3568 14.1329 17.1794 14.4064C17.0019 14.6799 16.7473 14.8946 16.4478 15.0233C16.1483 15.1521 15.8173 15.189 15.4967 15.1295C15.1762 15.07 14.8805 14.9167 14.6471 14.689L9.82488 6.06297ZM9.82488 6.06297C9.4964 6.06387 9.17569 6.16295 8.90394 6.34749C8.63219 6.53203 8.42183 6.79361 8.29986 7.09861C8.1779 7.40361 8.14991 7.73811 8.21949 8.05914M9.82488 6.06297L8.21949 8.05914M8.21949 8.05914C8.28907 8.38017 8.45304 8.67307 8.69034 8.90021L8.21949 8.05914ZM48.0193 68.5074L48.4238 69.5478C41.1155 72.165 33.1399 72.315 25.7243 69.9582C17.9909 67.5004 11.3342 62.465 6.86474 55.6923C2.39531 48.9196 0.383471 40.819 1.16488 32.7422C1.94629 24.6654 5.47369 17.1007 11.1586 11.3104L11.8618 10.5941L11.1428 9.89358L9.38819 8.18397L9.38822 8.18394L9.38181 8.17781C9.28857 8.08856 9.22414 7.97347 9.1968 7.84733C9.16946 7.72118 9.18046 7.58974 9.22838 7.4699C9.2763 7.35006 9.35896 7.24728 9.46574 7.17476C9.57252 7.10225 9.69854 7.06332 9.82761 7.06297V7.06301L9.83668 7.0629L15.7069 6.99362L15.7089 6.99359C15.7935 6.99243 15.8775 7.00795 15.9561 7.03927C16.0347 7.0706 16.1063 7.11711 16.1669 7.17614C16.2275 7.23517 16.2759 7.30558 16.3093 7.38333L17.2252 6.9901L16.3093 7.38333C16.3427 7.46108 16.3604 7.54464 16.3615 7.62924L16.3615 7.63086L16.4446 13.5009C16.4464 13.629 16.4102 13.7547 16.3404 13.8622C16.2707 13.9696 16.1707 14.054 16.053 14.1046C15.9353 14.1552 15.8052 14.1697 15.6793 14.1463C15.5533 14.1229 15.4371 14.0627 15.3455 13.9732L15.3434 13.9712L13.3792 12.0659L12.6655 11.3736L11.9692 12.0832C8.07622 16.0501 5.20453 20.9028 3.60082 26.2244C1.9971 31.5461 1.70932 37.1775 2.76219 42.6348C3.81506 48.0922 6.1771 53.2124 9.64538 57.5555C13.1132 61.898 17.5834 65.3338 22.6719 67.5679C26.7966 69.3986 31.2433 70.3933 35.755 70.4943C39.933 70.5879 44.0898 69.9134 48.0193 68.5074Z" stroke="#058FA2" stroke-width="2"/>
</svg>
