<svg width="120" height="120" viewBox="0 0 120 120" fill="none" xmlns="http://www.w3.org/2000/svg">
<mask id="path-1-inside-1_2_27700" fill="white">
<path d="M97.4922 44.8911H95.2656V47.1177H97.4922V44.8911Z"/>
</mask>
<path d="M95.2656 44.8911V41.8911H92.2656V44.8911H95.2656ZM97.4922 44.8911H100.492V41.8911H97.4922V44.8911ZM97.4922 47.1177V50.1177H100.492V47.1177H97.4922ZM95.2656 47.1177H92.2656V50.1177H95.2656V47.1177ZM95.2656 47.8911H97.4922V41.8911H95.2656V47.8911ZM94.4922 44.8911V47.1177H100.492V44.8911H94.4922ZM97.4922 44.1177H95.2656V50.1177H97.4922V44.1177ZM98.2656 47.1177V44.8911H92.2656V47.1177H98.2656Z" fill="#FDC114" mask="url(#path-1-inside-1_2_27700)"/>
<mask id="path-3-inside-2_2_27700" fill="white">
<path d="M97.4922 38.4458H95.2656V40.6724H97.4922V38.4458Z"/>
</mask>
<path d="M95.2656 38.4458V35.4458H92.2656V38.4458H95.2656ZM97.4922 38.4458H100.492V35.4458H97.4922V38.4458ZM97.4922 40.6724V43.6724H100.492V40.6724H97.4922ZM95.2656 40.6724H92.2656V43.6724H95.2656V40.6724ZM95.2656 41.4458H97.4922V35.4458H95.2656V41.4458ZM94.4922 38.4458V40.6724H100.492V38.4458H94.4922ZM97.4922 37.6724H95.2656V43.6724H97.4922V37.6724ZM98.2656 40.6724V38.4458H92.2656V40.6724H98.2656Z" fill="#FDC114" mask="url(#path-3-inside-2_2_27700)"/>
<mask id="path-5-inside-3_2_27700" fill="white">
<path d="M97.4922 89.8967H95.2656V92.1233H97.4922V89.8967Z"/>
</mask>
<path d="M95.2656 89.8967V86.8967H92.2656V89.8967H95.2656ZM97.4922 89.8967H100.492V86.8967H97.4922V89.8967ZM97.4922 92.1233V95.1233H100.492V92.1233H97.4922ZM95.2656 92.1233H92.2656V95.1233H95.2656V92.1233ZM95.2656 92.8967H97.4922V86.8967H95.2656V92.8967ZM94.4922 89.8967V92.1233H100.492V89.8967H94.4922ZM97.4922 89.1233H95.2656V95.1233H97.4922V89.1233ZM98.2656 92.1233V89.8967H92.2656V92.1233H98.2656Z" fill="#FDC114" mask="url(#path-5-inside-3_2_27700)"/>
<mask id="path-7-inside-4_2_27700" fill="white">
<path d="M97.4922 83.4514H95.2656V85.678H97.4922V83.4514Z"/>
</mask>
<path d="M95.2656 83.4514V80.4514H92.2656V83.4514H95.2656ZM97.4922 83.4514H100.492V80.4514H97.4922V83.4514ZM97.4922 85.678V88.678H100.492V85.678H97.4922ZM95.2656 85.678H92.2656V88.678H95.2656V85.678ZM95.2656 86.4514H97.4922V80.4514H95.2656V86.4514ZM94.4922 83.4514V85.678H100.492V83.4514H94.4922ZM97.4922 82.678H95.2656V88.678H97.4922V82.678ZM98.2656 85.678V83.4514H92.2656V85.678H98.2656Z" fill="#FDC114" mask="url(#path-7-inside-4_2_27700)"/>
<path d="M75.0394 84.0727C75.5614 83.8171 76.0427 83.4746 76.4645 83.0511L75.0394 84.0727ZM75.0394 84.0727C74.9567 83.9376 74.8696 83.8056 74.7782 83.6769L73.5554 84.5457L73.7995 86.0257C73.9557 86 74.1105 85.9689 74.2639 85.9327C74.4453 86.4696 74.5437 87.0442 74.5437 87.6416C74.5437 89.0767 73.9848 90.4241 72.9704 91.4352C71.9581 92.4477 70.6114 93.0057 69.1791 93.0057H64.3913H62.8913V94.5057V113.438H62.0476V112.594V109.781V108.938V108.281V107.438V93.0057V92.162H62.8913H69.1791H69.1798C70.3835 92.162 71.5218 91.6899 72.3732 90.8396L75.0394 84.0727ZM61.3913 91.5057H62.0476H62.8913H69.1791C69.1794 91.5057 69.1796 91.5057 69.1798 91.5057C70.2139 91.5055 71.1788 91.1056 71.9096 90.3746L71.9099 90.3743L61.3913 91.5057ZM61.3913 91.5057H60.5476H57.9859H57.5384H56.8316L56.1741 91.2562C54.7119 90.7013 53.6755 89.2864 53.6755 87.6416C53.6755 86.4246 54.2417 85.3356 55.1341 84.6227L56.3785 83.6286C56.7487 83.7269 57.1375 83.7793 57.5384 83.7793H63.7496L61.3913 91.5057ZM71.9469 65.266L71.1712 66.3577H70.6794V65.514H69.1794C69.9868 65.514 70.7452 65.2004 71.3143 64.6313L71.9469 65.266ZM75.8682 74.0722C75.8683 74.0721 75.8683 74.0721 75.8684 74.072C75.8683 74.0721 75.8683 74.0721 75.8682 74.0722ZM75.8686 74.0718C75.8686 74.0718 75.8687 74.0717 75.8688 74.0716C75.8687 74.0717 75.8686 74.0717 75.8686 74.0718ZM55.847 83.4511C55.4397 83.616 55.0618 83.8385 54.7235 84.1086C53.6858 84.937 53.0202 86.2125 53.0202 87.6416C53.0202 89.5724 54.2346 91.2239 55.9409 91.8706C56.1176 91.9376 56.2995 91.9937 56.4859 92.0383L55.847 83.4511ZM57.1419 92.1447C57.2726 92.1561 57.4048 92.162 57.5384 92.162H57.9859H60.5476H61.3913V93.0057V107.438V108.281L57.1419 92.1447ZM61.3913 114.094V114.938V114.094ZM70.6794 66.76C70.7756 66.7263 70.8706 66.6893 70.9642 66.6491L70.9467 66.6738L72.6725 66.9616L73.311 67.0681C75.1392 67.373 76.5369 68.9688 76.5369 70.8784C76.5369 70.8784 76.5369 70.8785 76.5369 70.8786L70.6794 66.76Z" stroke="#058FA2" stroke-width="3"/>
<mask id="path-10-inside-5_2_27700" fill="white">
<path d="M50.3975 62.4668H48.0538C48.0538 70.8471 41.2358 77.6651 32.8555 77.6651V80.0088C42.5284 80.0088 50.3975 72.1395 50.3975 62.4668Z"/>
</mask>
<path d="M50.3975 62.4668H53.3975V59.4668H50.3975V62.4668ZM48.0538 62.4668V59.4668H45.0538V62.4668H48.0538ZM32.8555 77.6651V74.6651H29.8555V77.6651H32.8555ZM32.8555 80.0088H29.8555V83.0088H32.8555V80.0088ZM50.3975 59.4668H48.0538V65.4668H50.3975V59.4668ZM45.0538 62.4668C45.0538 69.1903 39.5789 74.6651 32.8555 74.6651V80.6651C42.8926 80.6651 51.0538 72.504 51.0538 62.4668H45.0538ZM29.8555 77.6651V80.0088H35.8555V77.6651H29.8555ZM32.8555 83.0088C44.1852 83.0088 53.3975 73.7963 53.3975 62.4668H47.3975C47.3975 70.4826 40.8715 77.0088 32.8555 77.0088V83.0088Z" fill="#058FA2" mask="url(#path-10-inside-5_2_27700)"/>
<mask id="path-12-inside-6_2_27700" fill="white">
<path d="M35.793 48.1025C35.793 49.9056 37.2599 51.3725 39.063 51.3725C40.866 51.3725 42.333 49.9056 42.333 48.1025C42.333 46.2995 40.866 44.8325 39.063 44.8325C37.2599 44.8325 35.793 46.2995 35.793 48.1025ZM39.063 47.1763C39.5739 47.1763 39.9892 47.5918 39.9892 48.1025C39.9892 48.6132 39.5739 49.0288 39.063 49.0288C38.552 49.0288 38.1367 48.6132 38.1367 48.1025C38.1367 47.5918 38.5523 47.1763 39.063 47.1763Z"/>
</mask>
<path d="M32.793 48.1025C32.793 51.5624 35.6031 54.3725 39.063 54.3725V48.3725C38.9168 48.3725 38.793 48.2487 38.793 48.1025H32.793ZM39.063 54.3725C42.5229 54.3725 45.333 51.5624 45.333 48.1025H39.333C39.333 48.2487 39.2092 48.3725 39.063 48.3725V54.3725ZM45.333 48.1025C45.333 44.6426 42.5229 41.8325 39.063 41.8325V47.8325C39.2092 47.8325 39.333 47.9563 39.333 48.1025H45.333ZM39.063 41.8325C35.6031 41.8325 32.793 44.6426 32.793 48.1025H38.793C38.793 47.9563 38.9168 47.8325 39.063 47.8325V41.8325ZM39.063 50.1763C37.9166 50.1763 36.9892 49.2482 36.9892 48.1025H42.9892C42.9892 45.9355 41.2313 44.1763 39.063 44.1763V50.1763ZM36.9892 48.1025C36.9892 46.9569 37.9166 46.0288 39.063 46.0288V52.0288C41.2313 52.0288 42.9892 50.2696 42.9892 48.1025H36.9892ZM39.063 46.0288C40.2094 46.0288 41.1367 46.9569 41.1367 48.1025H35.1367C35.1367 50.2696 36.8947 52.0288 39.063 52.0288V46.0288ZM41.1367 48.1025C41.1367 49.2487 40.2091 50.1763 39.063 50.1763V44.1763C36.8954 44.1763 35.1367 45.935 35.1367 48.1025H41.1367Z" fill="#058FA2" mask="url(#path-12-inside-6_2_27700)"/>
<mask id="path-14-inside-7_2_27700" fill="white">
<path d="M43.0002 24.6397C44.8787 24.6397 46.4068 23.1116 46.4068 21.2331C46.4068 19.3548 44.8784 17.8267 43.0002 17.8267C41.1219 17.8267 39.5938 19.3548 39.5938 21.2331C39.5938 23.1116 41.1216 24.6397 43.0002 24.6397ZM43.0002 20.1704C43.5863 20.1704 44.063 20.6471 44.063 21.2331C44.063 21.819 43.5863 22.296 43.0002 22.296C42.4142 22.296 41.9375 21.8192 41.9375 21.2331C41.9375 20.6471 42.4142 20.1704 43.0002 20.1704Z"/>
</mask>
<path d="M43.0002 27.6397C46.5355 27.6397 49.4068 24.7684 49.4068 21.2331H43.4068C43.4068 21.4547 43.2218 21.6397 43.0002 21.6397V27.6397ZM49.4068 21.2331C49.4068 17.6977 46.535 14.8267 43.0002 14.8267V20.8267C43.2219 20.8267 43.4068 21.0119 43.4068 21.2331H49.4068ZM43.0002 14.8267C39.465 14.8267 36.5938 17.6979 36.5938 21.2331H42.5938C42.5938 21.0116 42.7787 20.8267 43.0002 20.8267V14.8267ZM36.5938 21.2331C36.5938 24.7682 39.4645 27.6397 43.0002 27.6397V21.6397C42.7788 21.6397 42.5938 21.455 42.5938 21.2331H36.5938ZM43.0002 23.1704C41.9299 23.1704 41.063 22.3044 41.063 21.2331H47.063C47.063 18.9899 45.2428 17.1704 43.0002 17.1704V23.1704ZM41.063 21.2331C41.063 20.1626 41.929 19.296 43.0002 19.296V25.296C45.2436 25.296 47.063 23.4754 47.063 21.2331H41.063ZM43.0002 19.296C44.0715 19.296 44.9375 20.1628 44.9375 21.2331H38.9375C38.9375 23.4757 40.757 25.296 43.0002 25.296V19.296ZM44.9375 21.2331C44.9375 22.304 44.0711 23.1704 43.0002 23.1704V17.1704C40.7574 17.1704 38.9375 18.9903 38.9375 21.2331H44.9375Z" fill="#058FA2" mask="url(#path-14-inside-7_2_27700)"/>
<mask id="path-16-inside-8_2_27700" fill="white">
<path d="M32.9175 41.844C35.3728 41.844 37.3702 39.8467 37.3702 37.3914C37.3702 34.9363 35.3728 32.9387 32.9175 32.9387C30.4622 32.9387 28.4648 34.9361 28.4648 37.3914C28.4648 39.8467 30.4622 41.844 32.9175 41.844ZM32.9175 35.2827C34.0805 35.2827 35.0264 36.2286 35.0264 37.3916C35.0264 38.5546 34.0805 39.5005 32.9175 39.5005C31.7545 39.5005 30.8086 38.5543 30.8086 37.3916C30.8086 36.2289 31.7545 35.2827 32.9175 35.2827Z"/>
</mask>
<path d="M28.4648 37.3914H31.4648H28.4648ZM32.9175 44.844C37.0297 44.844 40.3702 41.5035 40.3702 37.3914H34.3702C34.3702 38.1898 33.716 38.844 32.9175 38.844V44.844ZM40.3702 37.3914C40.3702 33.2795 37.0298 29.9387 32.9175 29.9387V35.9387C33.7159 35.9387 34.3702 36.5931 34.3702 37.3914H40.3702ZM32.9175 29.9387C28.8053 29.9387 25.4648 33.2792 25.4648 37.3914H31.4648C31.4648 36.5929 32.119 35.9387 32.9175 35.9387V29.9387ZM25.4648 37.3914C25.4648 41.5035 28.8053 44.844 32.9175 44.844V38.844C32.119 38.844 31.4648 38.1898 31.4648 37.3914H25.4648ZM32.9175 38.2827C32.4236 38.2827 32.0264 37.8855 32.0264 37.3916H38.0264C38.0264 34.5718 35.7373 32.2827 32.9175 32.2827V38.2827ZM32.0264 37.3916C32.0264 36.8977 32.4236 36.5005 32.9175 36.5005V42.5005C35.7373 42.5005 38.0264 40.2114 38.0264 37.3916H32.0264ZM32.9175 36.5005C33.4116 36.5005 33.8086 36.8977 33.8086 37.3916H27.8086C27.8086 40.211 30.0975 42.5005 32.9175 42.5005V36.5005ZM33.8086 37.3916C33.8086 37.8855 33.4116 38.2827 32.9175 38.2827V32.2827C30.0975 32.2827 27.8086 34.5722 27.8086 37.3916H33.8086Z" fill="#058FA2" mask="url(#path-16-inside-8_2_27700)"/>
<mask id="path-18-inside-9_2_27700" fill="white">
<path d="M55.6438 53.9577H57.9875V40.3248L54.3008 31.8873V14.125H51.957V32.377L55.6438 40.8145V53.9577Z"/>
</mask>
<path d="M55.6438 53.9577H52.6438V56.9577H55.6438V53.9577ZM57.9875 53.9577V56.9577H60.9875V53.9577H57.9875ZM57.9875 40.3248H60.9875V39.698L60.7365 39.1237L57.9875 40.3248ZM54.3008 31.8873H51.3008V32.5141L51.5517 33.0885L54.3008 31.8873ZM54.3008 14.125H57.3008V11.125H54.3008V14.125ZM51.957 14.125V11.125H48.957V14.125H51.957ZM51.957 32.377H48.957V33.0038L49.208 33.5781L51.957 32.377ZM55.6438 40.8145H58.6438V40.1876L58.3928 39.6133L55.6438 40.8145ZM55.6438 56.9577H57.9875V50.9577H55.6438V56.9577ZM60.9875 53.9577V40.3248H54.9875V53.9577H60.9875ZM60.7365 39.1237L57.0498 30.6862L51.5517 33.0885L55.2385 41.526L60.7365 39.1237ZM57.3008 31.8873V14.125H51.3008V31.8873H57.3008ZM54.3008 11.125H51.957V17.125H54.3008V11.125ZM48.957 14.125V32.377H54.957V14.125H48.957ZM49.208 33.5781L52.8947 42.0156L58.3928 39.6133L54.7061 31.1758L49.208 33.5781ZM52.6438 40.8145V53.9577H58.6438V40.8145H52.6438Z" fill="#058FA2" mask="url(#path-18-inside-9_2_27700)"/>
<mask id="path-20-inside-10_2_27700" fill="white">
<path d="M75.7967 27.6705L75.7958 10.6307C75.7958 8.06664 73.7098 5.98047 71.1453 5.98047C69.7953 5.98047 68.5815 6.56242 67.7314 7.48445H59.2063V5.98047H51.957V11.5469H54.3008V8.32422H56.8625V32.3373L60.5492 40.8522V53.9577H62.893V40.3666L59.2063 31.8517V29.4766H68.2974C70.1042 32.0577 73.0974 33.7502 76.4804 33.7502H79.5427V31.4064C77.4833 31.4062 75.8028 29.7306 75.7967 27.6705ZM59.2063 9.8282H66.5696C66.5239 10.0895 66.4955 10.3565 66.4955 10.6307V12.3965H59.2063V9.8282ZM59.2063 14.7402H66.4955V17.3085H59.2063V14.7402ZM59.2063 19.6523H66.4955V22.2205H59.2063V19.6523ZM59.2063 27.1328V24.5645H66.5305C66.6015 25.4587 66.7895 26.3202 67.0817 27.1328H59.2063ZM68.8393 23.7651V10.6307C68.8393 9.35898 69.8738 8.32422 71.1455 8.32422C72.4173 8.32422 73.4523 9.35898 73.4523 10.6307V27.4202L73.4532 27.6777C73.457 28.9738 73.8683 30.1762 74.5655 31.1634C71.2759 30.3116 68.8393 27.3175 68.8393 23.7651Z"/>
</mask>
<path d="M75.7967 27.6705L72.7967 27.6706L72.7967 27.6793L75.7967 27.6705ZM75.7958 10.6307H72.7958V10.6309L75.7958 10.6307ZM67.7314 7.48445V10.4845H69.046L69.937 9.51797L67.7314 7.48445ZM59.2063 7.48445H56.2063V10.4845H59.2063V7.48445ZM59.2063 5.98047H62.2063V2.98047H59.2063V5.98047ZM51.957 5.98047V2.98047H48.957V5.98047H51.957ZM51.957 11.5469H48.957V14.5469H51.957V11.5469ZM54.3008 11.5469V14.5469H57.3008V11.5469H54.3008ZM54.3008 8.32422V5.32422H51.3008V8.32422H54.3008ZM56.8625 8.32422H59.8625V5.32422H56.8625V8.32422ZM56.8625 32.3373H53.8625V32.9589L54.1095 33.5293L56.8625 32.3373ZM60.5492 40.8522H63.5492V40.2306L63.3022 39.6602L60.5492 40.8522ZM60.5492 53.9577H57.5492V56.9577H60.5492V53.9577ZM62.893 53.9577V56.9577H65.893V53.9577H62.893ZM62.893 40.3666H65.893V39.745L65.646 39.1746L62.893 40.3666ZM59.2063 31.8517H56.2063V32.4733L56.4532 33.0437L59.2063 31.8517ZM59.2063 29.4766V26.4766H56.2063V29.4766H59.2063ZM68.2974 29.4766L70.7551 27.7562L69.8594 26.4766H68.2974V29.4766ZM79.5427 33.7502V36.7502H82.5427V33.7502H79.5427ZM79.5427 31.4064H82.5427V28.4067L79.5431 28.4064L79.5427 31.4064ZM59.2063 9.8282V6.8282H56.2063V9.8282H59.2063ZM66.5696 9.8282L69.5248 10.345L70.1398 6.8282H66.5696V9.8282ZM66.4955 12.3965V15.3965H69.4955V12.3965H66.4955ZM59.2063 12.3965H56.2063V15.3965H59.2063V12.3965ZM59.2063 14.7402V11.7402H56.2063V14.7402H59.2063ZM66.4955 14.7402H69.4955V11.7402H66.4955V14.7402ZM66.4955 17.3085V20.3085H69.4955V17.3085H66.4955ZM59.2063 17.3085H56.2063V20.3085H59.2063V17.3085ZM59.2063 19.6523V16.6523H56.2063V19.6523H59.2063ZM66.4955 19.6523H69.4955V16.6523H66.4955V19.6523ZM66.4955 22.2205V25.2205H69.4955V22.2205H66.4955ZM59.2063 22.2205H56.2063V25.2205H59.2063V22.2205ZM59.2063 27.1328H56.2063V30.1328H59.2063V27.1328ZM59.2063 24.5645V21.5645H56.2063V24.5645H59.2063ZM66.5305 24.5645L69.521 24.327L69.3016 21.5645H66.5305V24.5645ZM67.0817 27.1328V30.1328H71.3489L69.9047 26.1175L67.0817 27.1328ZM73.4523 27.4202H70.4522L70.4523 27.4311L73.4523 27.4202ZM73.4532 27.6777L76.4532 27.6691L76.4532 27.6668L73.4532 27.6777ZM74.5655 31.1634L73.8136 34.0676L81.739 36.1195L77.016 29.4326L74.5655 31.1634ZM78.7967 27.6703L78.7958 10.6305L72.7958 10.6309L72.7967 27.6706L78.7967 27.6703ZM78.7958 10.6307C78.7958 6.40979 75.3667 2.98047 71.1453 2.98047V8.98047C72.053 8.98047 72.7958 9.7235 72.7958 10.6307H78.7958ZM71.1453 2.98047C68.9121 2.98047 66.9124 3.94693 65.5258 5.45094L69.937 9.51797C70.2506 9.17791 70.6785 8.98047 71.1453 8.98047V2.98047ZM67.7314 4.48445H59.2063V10.4845H67.7314V4.48445ZM62.2063 7.48445V5.98047H56.2063V7.48445H62.2063ZM59.2063 2.98047H51.957V8.98047H59.2063V2.98047ZM48.957 5.98047V11.5469H54.957V5.98047H48.957ZM51.957 14.5469H54.3008V8.54687H51.957V14.5469ZM57.3008 11.5469V8.32422H51.3008V11.5469H57.3008ZM54.3008 11.3242H56.8625V5.32422H54.3008V11.3242ZM53.8625 8.32422V32.3373H59.8625V8.32422H53.8625ZM54.1095 33.5293L57.7962 42.0442L63.3022 39.6602L59.6155 31.1454L54.1095 33.5293ZM57.5492 40.8522V53.9577H63.5492V40.8522H57.5492ZM60.5492 56.9577H62.893V50.9577H60.5492V56.9577ZM65.893 53.9577V40.3666H59.893V53.9577H65.893ZM65.646 39.1746L61.9593 30.6597L56.4532 33.0437L60.1399 41.5586L65.646 39.1746ZM62.2063 31.8517V29.4766H56.2063V31.8517H62.2063ZM59.2063 32.4766H68.2974V26.4766H59.2063V32.4766ZM65.8397 31.1969C68.181 34.5417 72.0725 36.7502 76.4804 36.7502V30.7502C74.1223 30.7502 72.0274 29.5738 70.7551 27.7562L65.8397 31.1969ZM76.4804 36.7502H79.5427V30.7502H76.4804V36.7502ZM82.5427 33.7502V31.4064H76.5427V33.7502H82.5427ZM79.5431 28.4064C79.1371 28.4064 78.7979 28.0687 78.7967 27.6616L72.7967 27.6793C72.8077 31.3925 75.8295 34.406 79.5424 34.4064L79.5431 28.4064ZM59.2063 12.8282H66.5696V6.8282H59.2063V12.8282ZM63.6145 9.31138C63.5454 9.7063 63.4955 10.1493 63.4955 10.6307H69.4955C69.4955 10.5637 69.5024 10.4728 69.5248 10.345L63.6145 9.31138ZM63.4955 10.6307V12.3965H69.4955V10.6307H63.4955ZM66.4955 9.39648H59.2063V15.3965H66.4955V9.39648ZM62.2063 12.3965V9.8282H56.2063V12.3965H62.2063ZM59.2063 17.7402H66.4955V11.7402H59.2063V17.7402ZM63.4955 14.7402V17.3085H69.4955V14.7402H63.4955ZM66.4955 14.3085H59.2063V20.3085H66.4955V14.3085ZM62.2063 17.3085V14.7402H56.2063V17.3085H62.2063ZM59.2063 22.6523H66.4955V16.6523H59.2063V22.6523ZM63.4955 19.6523V22.2205H69.4955V19.6523H63.4955ZM66.4955 19.2205H59.2063V25.2205H66.4955V19.2205ZM62.2063 22.2205V19.6523H56.2063V22.2205H62.2063ZM62.2063 27.1328V24.5645H56.2063V27.1328H62.2063ZM59.2063 27.5645H66.5305V21.5645H59.2063V27.5645ZM63.5399 24.8021C63.632 25.9618 63.8764 27.085 64.2588 28.1482L69.9047 26.1175C69.7025 25.5555 69.571 24.9555 69.521 24.327L63.5399 24.8021ZM67.0817 24.1328H59.2063V30.1328H67.0817V24.1328ZM71.8393 23.7651V10.6307H65.8393V23.7651H71.8393ZM71.8393 10.6307C71.8393 11.0154 71.5311 11.3242 71.1455 11.3242V5.32422C68.2166 5.32422 65.8393 7.70253 65.8393 10.6307H71.8393ZM71.1455 11.3242C70.7608 11.3242 70.4523 11.0162 70.4523 10.6307H76.4523C76.4523 7.70173 74.0737 5.32422 71.1455 5.32422V11.3242ZM70.4523 10.6307V27.4202H76.4523V10.6307H70.4523ZM70.4523 27.4311L70.4532 27.6886L76.4532 27.6668L76.4522 27.4092L70.4523 27.4311ZM70.4532 27.6864C70.4588 29.6215 71.075 31.4215 72.1151 32.8941L77.016 29.4326C76.6616 28.9309 76.4551 28.3261 76.4532 27.6691L70.4532 27.6864ZM75.3175 28.2591C73.3165 27.7411 71.8393 25.9146 71.8393 23.7651H65.8393C65.8393 28.7204 69.2352 32.8822 73.8136 34.0676L75.3175 28.2591Z" fill="#058FA2" mask="url(#path-20-inside-10_2_27700)"/>
<mask id="path-22-inside-11_2_27700" fill="white">
<path d="M101.215 72.9141L101.215 55.8744C101.215 53.3103 99.1286 51.2241 96.5645 51.2241C94.0002 51.2241 91.9141 53.3101 91.9141 55.8744V69.009C91.9141 74.5144 96.3932 78.9938 101.899 78.9938H104.962V76.6501C102.902 76.6498 101.221 74.9745 101.215 72.9141ZM94.2578 69.009V55.8744C94.2578 54.6026 95.2928 53.5679 96.5645 53.5679C97.8363 53.5679 98.8708 54.6026 98.8708 55.8744V72.6638L98.8717 72.9216C98.8755 74.2175 99.2868 75.4201 99.9845 76.407C96.6946 75.5548 94.2578 72.5611 94.2578 69.009Z"/>
</mask>
<path d="M101.215 72.9141L98.2155 72.9143L98.2155 72.9227L101.215 72.9141ZM101.215 55.8744H98.2145V55.8745L101.215 55.8744ZM104.962 78.9938V81.9938H107.962V78.9938H104.962ZM104.962 76.6501H107.962V73.6504L104.962 73.6501L104.962 76.6501ZM98.8708 72.6638L95.8708 72.6638L95.8708 72.6747L98.8708 72.6638ZM98.8717 72.9216L101.872 72.9129L101.872 72.9107L98.8717 72.9216ZM99.9845 76.407L99.2323 79.3112L107.164 81.3657L102.434 74.6752L99.9845 76.407ZM104.215 72.914L104.215 55.8742L98.2145 55.8745L98.2155 72.9143L104.215 72.914ZM104.215 55.8744C104.215 51.6536 100.786 48.2241 96.5645 48.2241V54.2241C97.4715 54.2241 98.2145 54.9669 98.2145 55.8744H104.215ZM96.5645 48.2241C92.3436 48.2241 88.9141 51.653 88.9141 55.8744H94.9141C94.9141 54.9671 95.6569 54.2241 96.5645 54.2241V48.2241ZM88.9141 55.8744V69.009H94.9141V55.8744H88.9141ZM88.9141 69.009C88.9141 76.1712 94.7363 81.9938 101.899 81.9938V75.9938C98.0501 75.9938 94.9141 72.8576 94.9141 69.009H88.9141ZM101.899 81.9938H104.962V75.9938H101.899V81.9938ZM107.962 78.9938V76.6501H101.962V78.9938H107.962ZM104.962 73.6501C104.555 73.65 104.217 73.3122 104.215 72.9056L98.2155 72.9227C98.226 76.6368 101.248 79.6496 104.961 79.6501L104.962 73.6501ZM97.2578 69.009V55.8744H91.2578V69.009H97.2578ZM97.2578 55.8744C97.2578 56.2599 96.9493 56.5679 96.5645 56.5679V50.5679C93.6364 50.5679 91.2578 52.9454 91.2578 55.8744H97.2578ZM96.5645 56.5679C96.179 56.5679 95.8708 56.2591 95.8708 55.8744H101.871C101.871 52.9462 99.4935 50.5679 96.5645 50.5679V56.5679ZM95.8708 55.8744V72.6638H101.871V55.8744H95.8708ZM95.8708 72.6747L95.8717 72.9325L101.872 72.9107L101.871 72.6529L95.8708 72.6747ZM95.8717 72.9303C95.8773 74.8651 96.4935 76.6657 97.5349 78.1388L102.434 74.6752C102.08 74.1744 101.874 73.5698 101.872 72.9129L95.8717 72.9303ZM100.737 73.5029C98.7348 72.9843 97.2578 71.1577 97.2578 69.009H91.2578C91.2578 73.9646 94.6544 78.1254 99.2323 79.3112L100.737 73.5029Z" fill="#FDC114" mask="url(#path-22-inside-11_2_27700)"/>
<mask id="path-24-inside-12_2_27700" fill="white">
<path d="M109.133 28.9988L109.126 28.7761L103.76 16.2333H103.22V11.3409H100.741V5.0625H92.0335V11.3409H89.5538V16.2333H89.0141L83.6478 28.7761L81.1719 114.938H111.589L109.133 28.9988ZM94.377 7.40625H98.3966V11.3409H94.377V7.40625ZM91.8973 13.6847H92.0333H100.74H100.876V16.2333H91.8971V13.6847H91.8973ZM90.5602 18.577H102.214L106.185 27.8604H86.5883L90.5602 18.577ZM83.7552 106.637H102.708V104.293H83.8224L85.951 30.2039H106.822L108.94 104.293H105.093V106.637H109.008L109.178 112.594H83.5838L83.7552 106.637Z"/>
</mask>
<path d="M109.133 28.9988L106.134 29.084L106.134 29.0845L109.133 28.9988ZM109.126 28.7761L112.125 28.6908L112.109 28.1206L111.884 27.5961L109.126 28.7761ZM103.76 16.2333L106.518 15.0532L105.74 13.2333H103.76V16.2333ZM103.22 16.2333H100.22V19.2333H103.22V16.2333ZM103.22 11.3409H106.22V8.34094H103.22V11.3409ZM100.741 11.3409H97.7405V14.3409H100.741V11.3409ZM100.741 5.0625H103.741V2.0625H100.741V5.0625ZM92.0335 5.0625V2.0625H89.0335V5.0625H92.0335ZM92.0335 11.3409V14.3409H95.0335V11.3409H92.0335ZM89.5538 11.3409V8.34094H86.5538V11.3409H89.5538ZM89.5538 16.2333V19.2333H92.5538V16.2333H89.5538ZM89.0141 16.2333V13.2333H87.0345L86.2559 15.0532L89.0141 16.2333ZM83.6478 28.7761L80.8896 27.5961L80.6654 28.1201L80.649 28.6899L83.6478 28.7761ZM81.1719 114.938L78.1731 114.851L78.0844 117.938H81.1719V114.938ZM111.589 114.938V117.938H114.676L114.588 114.852L111.589 114.938ZM94.377 7.40625V4.40625H91.377V7.40625H94.377ZM98.3966 7.40625H101.397V4.40625H98.3966V7.40625ZM98.3966 11.3409V14.3409H101.397V11.3409H98.3966ZM94.377 11.3409H91.377V14.3409H94.377V11.3409ZM100.876 13.6847H103.876V10.6847H100.876V13.6847ZM100.876 16.2333V19.2333H103.876V16.2333H100.876ZM91.8971 16.2333H88.8971V19.2333H91.8971V16.2333ZM91.8971 13.6847V10.6847H88.8971V13.6847H91.8971ZM90.5602 18.577V15.577H88.5807L87.8021 17.3969L90.5602 18.577ZM102.214 18.577L104.972 17.3971L104.193 15.577H102.214V18.577ZM106.185 27.8604V30.8604H110.731L108.943 26.6804L106.185 27.8604ZM86.5883 27.8604L83.8301 26.6803L82.0416 30.8604H86.5883V27.8604ZM83.7552 106.637V103.637H80.8402L80.7564 106.551L83.7552 106.637ZM102.708 106.637V109.637H105.708V106.637H102.708ZM102.708 104.293H105.708V101.293H102.708V104.293ZM83.8224 104.293L80.8237 104.207L80.735 107.293H83.8224V104.293ZM85.951 30.2039V27.2039H83.036L82.9523 30.1178L85.951 30.2039ZM106.822 30.2039L109.821 30.1182L109.738 27.2039H106.822V30.2039ZM108.94 104.293V107.293H112.027L111.939 104.207L108.94 104.293ZM105.093 104.293V101.293H102.093V104.293H105.093ZM105.093 106.637H102.093V109.637H105.093V106.637ZM109.008 106.637L112.006 106.551L111.923 103.637H109.008V106.637ZM109.178 112.594V115.594H112.265L112.177 112.508L109.178 112.594ZM83.5838 112.594L80.5851 112.508L80.4963 115.594H83.5838V112.594ZM112.131 28.9135L112.125 28.6908L106.127 28.8614L106.134 29.084L112.131 28.9135ZM111.884 27.5961L106.518 15.0532L101.002 17.4133L106.368 29.9561L111.884 27.5961ZM103.76 13.2333H103.22V19.2333H103.76V13.2333ZM106.22 16.2333V11.3409H100.22V16.2333H106.22ZM103.22 8.34094H100.741V14.3409H103.22V8.34094ZM103.741 11.3409V5.0625H97.7405V11.3409H103.741ZM100.741 2.0625H92.0335V8.0625H100.741V2.0625ZM89.0335 5.0625V11.3409H95.0335V5.0625H89.0335ZM92.0335 8.34094H89.5538V14.3409H92.0335V8.34094ZM86.5538 11.3409V16.2333H92.5538V11.3409H86.5538ZM89.5538 13.2333H89.0141V19.2333H89.5538V13.2333ZM86.2559 15.0532L80.8896 27.5961L86.406 29.9561L91.7722 17.4133L86.2559 15.0532ZM80.649 28.6899L78.1731 114.851L84.1706 115.024L86.6466 28.8623L80.649 28.6899ZM81.1719 117.938H111.589V111.938H81.1719V117.938ZM114.588 114.852L112.131 28.913L106.134 29.0845L108.591 115.023L114.588 114.852ZM94.377 10.4063H98.3966V4.40625H94.377V10.4063ZM95.3966 7.40625V11.3409H101.397V7.40625H95.3966ZM98.3966 8.34094H94.377V14.3409H98.3966V8.34094ZM97.377 11.3409V7.40625H91.377V11.3409H97.377ZM91.8973 16.6847H92.0333V10.6847H91.8973V16.6847ZM92.0333 16.6847H100.74V10.6847H92.0333V16.6847ZM100.74 16.6847H100.876V10.6847H100.74V16.6847ZM97.8762 13.6847V16.2333H103.876V13.6847H97.8762ZM100.876 13.2333H91.8971V19.2333H100.876V13.2333ZM94.8971 16.2333V13.6847H88.8971V16.2333H94.8971ZM91.8971 16.6847H91.8973V10.6847H91.8971V16.6847ZM90.5602 21.577H102.214V15.577H90.5602V21.577ZM99.4554 19.757L103.427 29.0404L108.943 26.6804L104.972 17.3971L99.4554 19.757ZM106.185 24.8604H86.5883V30.8604H106.185V24.8604ZM89.3464 29.0405L93.3184 19.7571L87.8021 17.3969L83.8301 26.6803L89.3464 29.0405ZM83.7552 109.637H102.708V103.637H83.7552V109.637ZM105.708 106.637V104.293H99.7079V106.637H105.708ZM102.708 101.293H83.8224V107.293H102.708V101.293ZM86.8212 104.379L88.9498 30.2901L82.9523 30.1178L80.8237 104.207L86.8212 104.379ZM85.951 33.2039H106.822V27.2039H85.951V33.2039ZM103.824 30.2896L105.942 104.379L111.939 104.207L109.821 30.1182L103.824 30.2896ZM108.94 101.293H105.093V107.293H108.94V101.293ZM102.093 104.293V106.637H108.093V104.293H102.093ZM105.093 109.637H109.008V103.637H105.093V109.637ZM106.009 106.723L106.179 112.68L112.177 112.508L112.006 106.551L106.009 106.723ZM109.178 109.594H83.5838V115.594H109.178V109.594ZM86.5826 112.68L86.7539 106.723L80.7564 106.551L80.5851 112.508L86.5826 112.68Z" fill="#FDC114" mask="url(#path-24-inside-12_2_27700)"/>
</svg>
