<svg width="117" height="126" viewBox="0 0 117 126" fill="none" xmlns="http://www.w3.org/2000/svg">
<path d="M23.274 1.57676C20.6711 2.91629 18.4881 5.97211 18.4461 8.27443C18.4461 9.1535 18.2362 9.19535 12.2749 9.36279C6.64943 9.48837 5.89377 9.61396 4.29849 10.493C3.29094 11.0791 1.98953 12.293 1.35981 13.214L0.18434 14.9302L0.0583965 61.9395C-0.0675469 113.595 -0.235471 109.954 2.45132 112.8C4.97019 115.521 2.95509 115.395 37.2537 115.521L68.4876 115.647L70.4188 117.614C72.9376 120.167 75.6664 121.926 79.6546 123.6C82.5513 124.814 83.4329 124.981 87.8829 125.149C93.6763 125.358 96.2372 124.94 100.645 122.888C114.793 116.442 120.376 99.6977 113.03 85.7582C112.19 84.1675 110.679 81.9488 109.629 80.8186L107.74 78.7256L108.831 77.5954L109.923 76.507L111.015 77.5116L112.106 78.5163L113.114 77.4698L114.163 76.4651L111.015 73.3256L107.908 70.2279L106.816 71.2326L105.767 72.2372L106.816 73.3256L107.866 74.414L106.69 75.5442L105.515 76.6744L101.779 74.7488C99.1339 73.4093 96.9089 72.6558 94.348 72.1535L90.6537 71.4837V69.7256C90.6537 68.2186 90.8216 67.8837 91.6192 67.6744C93.2985 67.1302 95.3556 65.2884 96.1532 63.5302C97.2027 61.2279 97.1608 59.2605 95.9853 57C93.2145 51.4744 85.6159 51.4744 82.7612 57C80.7461 60.893 82.2994 65.2884 86.4136 67.2558C88.0089 68.0512 88.1348 68.2186 88.1348 69.8512V71.5675L85.9518 71.8605C84.7343 72.0279 82.5933 72.5302 81.2079 72.9488C79.8225 73.3675 78.6471 73.7442 78.6051 73.7442C78.5211 73.7442 78.4791 60.9768 78.4791 45.3628C78.4791 13.3814 78.5631 14.2605 75.4565 11.6233C73.2735 9.73955 71.1744 9.27908 65.0872 9.27908H60.0074L59.7975 8.10698C59.2938 5.67907 57.7405 3.29303 55.8513 2.07908L53.9622 0.90699H39.2688C26.7164 0.90699 24.3655 0.990707 23.274 1.57676ZM53.6683 4.1721C55.4315 5.05117 56.565 6.51629 56.9008 8.35815L57.1947 9.73955L55.5574 8.77675C53.9622 7.81396 53.6683 7.81396 39.6466 7.68838L25.373 7.5628L23.3999 8.56745L21.3848 9.5721V8.56745C21.3848 6.93489 22.6862 5.17676 24.5334 4.25582C26.0867 3.46048 27.0523 3.41862 39.2268 3.41862C50.7716 3.41862 52.4089 3.50233 53.6683 4.1721ZM55.2216 12.293C56.0192 13.1721 56.649 14.2605 56.649 14.7628C56.649 15.5163 50.4357 22.6744 41.4518 32.1349L39.0589 34.6884L31.5862 26.5256C20.1254 13.9675 21.1329 15.307 21.9306 13.6326C22.3084 12.8372 23.232 11.8326 23.9876 11.3721C25.331 10.5768 25.9608 10.5349 39.5626 10.6186L53.7942 10.7442L55.2216 12.293ZM18.4461 28.7442C18.4461 37.8279 18.6141 45.2791 18.782 45.2791C18.9499 45.2791 22.9801 43.9395 27.682 42.307C32.4258 40.6744 36.624 39.2512 37.0438 39.1256C37.7155 38.9163 37.7575 40.4651 37.7575 67.8419V96.8093L21.7626 96.6837L5.76783 96.5582L4.34047 95.0093L2.91311 93.4186V54.8233C2.91311 16.814 2.91311 16.1442 3.75274 14.8047C5.05415 12.6698 6.56547 12.2512 12.9046 12.2093H18.4461V28.7442ZM73.2315 13.4651C75.6244 15.6837 75.5405 14.3442 75.5405 46.0744V75.3768L74.239 76.2977L72.9376 77.2186L71.8461 76.1302L70.7546 75L71.8881 73.8279L73.0216 72.6558L72.056 71.7349L71.0905 70.814L67.8579 74.0791L64.6254 77.3023L65.549 78.2651L66.4725 79.1861L67.648 78.0558C68.7815 76.9675 68.8235 76.9674 69.6631 77.7209C70.7966 78.7256 70.7546 79.0186 69.0754 80.8605C65.9688 84.293 63.324 90.0279 62.6942 94.5907L62.4004 96.7675H51.5692H40.6961V67.8837C40.6961 51.9768 40.7801 39 40.8641 39C40.948 39 45.1041 40.4233 50.1419 42.1395C55.1376 43.8558 59.4197 45.2791 59.6296 45.2791C59.8395 45.2791 60.0074 38.414 60.0074 28.7023V12.1674L66.0527 12.293C71.8461 12.4186 72.182 12.4605 73.2315 13.4651ZM29.5292 28.493C33.3914 32.7209 36.498 36.1954 36.4141 36.2791C36.3301 36.3209 32.9296 37.5349 28.8574 38.9582L21.3848 41.4698V30.5442C21.3848 21.1675 21.4688 19.6605 21.9725 20.1628C22.3084 20.4977 25.7089 24.2651 29.5292 28.493ZM57.0688 30.6698C57.0688 40.9256 57.0268 41.5954 56.3551 41.3023C55.9353 41.1349 52.5348 39.9628 48.7565 38.707C45.0202 37.4093 41.9975 36.1954 42.0395 36.0279C42.2074 35.5675 56.649 19.7442 56.9008 19.7442C56.9848 19.7442 57.0688 24.6419 57.0688 30.6698ZM92.5848 57.1674C93.7603 58.3395 94.0122 58.9256 94.0122 60.3488C94.0122 61.7721 93.7603 62.3582 92.5848 63.5302C91.3674 64.7442 90.8636 64.9535 89.2683 64.9535C87.631 64.9535 87.2112 64.7442 86.0777 63.4884C84.1886 61.3535 84.2306 59.1349 86.2037 57.1674C87.3791 55.9954 87.9669 55.7442 89.3942 55.7442C90.8216 55.7442 91.4093 55.9954 92.5848 57.1674ZM94.5159 75.0419C102.702 76.7163 110.553 84.2093 112.694 92.3721C113.449 95.3023 113.533 100.828 112.862 103.967C111.98 107.986 109.629 112.172 106.397 115.395C101.485 120.293 96.2791 122.47 89.3942 122.47C82.6353 122.47 77.3456 120.293 72.5598 115.605C66.7664 109.87 64.2895 102.544 65.6329 94.8837C67.3122 85.1302 74.365 77.4279 83.7268 75.1674C86.4136 74.4977 91.6612 74.4558 94.5159 75.0419ZM4.92821 98.8605C6.56547 99.6558 7.48905 99.6977 22.2244 99.6977H37.7575V102.209V104.721H22.3504C7.78292 104.721 6.81736 104.679 5.55792 103.884C3.96264 102.921 2.91311 101.079 2.91311 99.2791C2.91311 98.6093 2.95509 98.0233 3.03906 98.0233C3.12302 98.0233 3.96264 98.4 4.92821 98.8605ZM62.5263 100.912C62.5263 101.581 62.6523 102.712 62.7782 103.423L63.0721 104.721H51.8631H40.6961V102.209V99.6977H51.6112H62.5263V100.912ZM22.3084 107.651H37.7575V110.163V112.674H22.6442C5.89377 112.674 5.30604 112.591 3.75274 110.079C3.29094 109.326 2.91311 108.028 2.91311 107.191V105.684L4.88623 106.647C6.81736 107.651 6.85934 107.651 22.3084 107.651ZM65.1291 110.163L66.2626 112.674H53.4584H40.6961V110.163V107.651H52.3669L63.9957 107.693L65.1291 110.163Z" fill="#058FA2"/>
<path d="M45.3125 54.6977V56.1628H47.6215H49.9304V54.6977V53.2326H47.6215H45.3125V54.6977Z" fill="#FDD304"/>
<path d="M45.3125 75C45.3125 76.2559 45.3545 76.2559 47.6215 76.2559C49.8884 76.2559 49.9304 76.2559 49.9304 75C49.9304 73.7442 49.8884 73.7442 47.6215 73.7442C45.3545 73.7442 45.3125 73.7442 45.3125 75Z" fill="#FDD304"/>
<path d="M88.1367 80.6511V83.3721H89.3962H90.6556V80.6511V77.9302H89.3962H88.1367V80.6511Z" fill="#FDD304"/>
<path d="M78.8992 80.7768L77.9336 81.5722L79.151 83.707C79.8227 84.921 80.4944 85.8838 80.6204 85.8838C80.7883 85.8838 81.3341 85.5489 81.8378 85.1303L82.8034 84.335L81.586 82.2001C80.9143 80.9861 80.2426 80.0233 80.1166 80.0233C79.9487 80.0233 79.4029 80.3582 78.8992 80.7768Z" fill="#FDD304"/>
<path d="M97.2848 82.0744C96.6131 83.2047 96.1094 84.293 96.1094 84.5023C96.1094 84.8791 98.2084 86.0512 98.4183 85.8C98.4603 85.7163 99.0481 84.7535 99.6778 83.6233L100.895 81.5721L99.9297 80.8186C99.3839 80.3582 98.8381 80.0233 98.6702 80.0233C98.5443 80.0233 97.9146 80.9442 97.2848 82.0744Z" fill="#FDD304"/>
<path d="M71.3857 88.2697C70.798 89.5255 70.84 89.5674 73.4428 91.0325L75.332 92.1208L76.0456 90.865L76.7593 89.6511L74.5763 88.3953C73.3588 87.7255 72.2673 87.1395 72.1414 87.1395C72.0154 87.1395 71.6796 87.6418 71.3857 88.2697Z" fill="#FDD304"/>
<path d="M88.1367 93.6278V100.116H94.8537H101.571V98.6511V97.2278L96.2391 97.1023L90.8655 96.9767L90.7395 92.0371L90.6136 87.1395H89.3962H88.1367V93.6278Z" fill="#FDD304"/>
<path d="M103.961 88.479L101.988 89.7348L102.702 90.9069L103.416 92.1208L105.305 91.0325C106.354 90.4046 107.404 89.7767 107.614 89.6092C107.992 89.2743 106.816 87.0976 106.27 87.1813C106.102 87.1813 105.095 87.7674 103.961 88.479Z" fill="#FDD304"/>
<path d="M68.8242 98.6511V100.116H71.3431H73.862V98.6511V97.186H71.3431H68.8242V98.6511Z" fill="#FDD304"/>
<path d="M104.926 98.6511V100.116H107.445H109.964V98.6511V97.186H107.445H104.926V98.6511Z" fill="#FDD304"/>
<path d="M72.937 106.312C71.8455 106.94 70.9219 107.609 70.9219 107.777C70.9219 107.944 71.2157 108.53 71.5936 109.074L72.2233 110.079L74.4903 108.781L76.7573 107.526L76.1275 106.312C75.7917 105.684 75.3719 105.14 75.204 105.181C75.036 105.181 74.0285 105.684 72.937 106.312Z" fill="#FDD304"/>
<path d="M102.661 106.312L102.031 107.526L104.34 108.823L106.607 110.121L107.279 108.865C107.615 108.153 107.867 107.526 107.783 107.484C107.195 107.065 103.669 105.139 103.501 105.139C103.375 105.139 102.997 105.684 102.661 106.312Z" fill="#FDD304"/>
<path d="M79.1496 113.344C77.8062 115.73 77.8062 115.73 79.1076 116.442C80.325 117.07 80.451 116.986 81.8364 114.433C82.8019 112.716 82.8019 112.675 82.0043 112.047C80.7449 111.084 80.2831 111.293 79.1496 113.344Z" fill="#FDD304"/>
<path d="M96.8677 111.879C95.8602 112.465 95.9021 112.884 97.2875 115.019C98.505 116.986 98.8408 117.154 100.016 116.233C100.772 115.688 100.772 115.563 99.6385 113.554C98.463 111.335 98.0852 111.126 96.8677 111.879Z" fill="#FDD304"/>
<path d="M88.1367 116.651V119.372H89.3962H90.6556V116.651V113.93H89.3962H88.1367V116.651Z" fill="#FDD304"/>
</svg>
