<svg width="178" height="162" viewBox="0 0 178 162" fill="none" xmlns="http://www.w3.org/2000/svg">
<path d="M54.274 16.5768C51.6711 17.9163 49.4881 20.9721 49.4461 23.2744C49.4461 24.1535 49.2362 24.1954 43.2749 24.3628C37.6494 24.4884 36.8938 24.614 35.2985 25.493C34.2909 26.0791 32.9895 27.293 32.3598 28.214L31.1843 29.9302L31.0584 76.9395C30.9325 128.595 30.7645 124.954 33.4513 127.8C35.9702 130.521 33.9551 130.395 68.2537 130.521L99.4876 130.647L101.419 132.614C103.938 135.167 106.666 136.926 110.655 138.6C113.551 139.814 114.433 139.981 118.883 140.149C124.676 140.358 127.237 139.94 131.645 137.888C145.793 131.442 151.376 114.698 144.03 100.758C143.19 99.1675 141.679 96.9488 140.629 95.8186L138.74 93.7256L139.831 92.5954L140.923 91.507L142.015 92.5116L143.106 93.5163L144.114 92.4698L145.163 91.4651L142.015 88.3256L138.908 85.2279L137.816 86.2326L136.767 87.2372L137.816 88.3256L138.866 89.414L137.69 90.5442L136.515 91.6744L132.779 89.7488C130.134 88.4093 127.909 87.6558 125.348 87.1535L121.654 86.4837V84.7256C121.654 83.2186 121.822 82.8837 122.619 82.6744C124.298 82.1302 126.356 80.2884 127.153 78.5302C128.203 76.2279 128.161 74.2605 126.985 72C124.215 66.4744 116.616 66.4744 113.761 72C111.746 75.893 113.299 80.2884 117.414 82.2558C119.009 83.0512 119.135 83.2186 119.135 84.8512V86.5675L116.952 86.8605C115.734 87.0279 113.593 87.5302 112.208 87.9488C110.823 88.3675 109.647 88.7442 109.605 88.7442C109.521 88.7442 109.479 75.9768 109.479 60.3628C109.479 28.3814 109.563 29.2605 106.457 26.6233C104.273 24.7395 102.174 24.2791 96.0872 24.2791H91.0074L90.7975 23.107C90.2938 20.6791 88.7405 18.293 86.8513 17.0791L84.9622 15.907H70.2688C57.7164 15.907 55.3655 15.9907 54.274 16.5768ZM84.6683 19.1721C86.4315 20.0512 87.565 21.5163 87.9008 23.3581L88.1947 24.7395L86.5574 23.7767C84.9622 22.814 84.6683 22.814 70.6466 22.6884L56.373 22.5628L54.3999 23.5675L52.3848 24.5721V23.5675C52.3848 21.9349 53.6862 20.1768 55.5334 19.2558C57.0867 18.4605 58.0523 18.4186 70.2268 18.4186C81.7716 18.4186 83.4089 18.5023 84.6683 19.1721ZM86.2216 27.293C87.0192 28.1721 87.649 29.2605 87.649 29.7628C87.649 30.5163 81.4357 37.6744 72.4518 47.1349L70.0589 49.6884L62.5862 41.5256C51.1254 28.9675 52.1329 30.307 52.9306 28.6326C53.3084 27.8372 54.232 26.8326 54.9876 26.3721C56.331 25.5768 56.9608 25.5349 70.5626 25.6186L84.7942 25.7442L86.2216 27.293ZM49.4461 43.7442C49.4461 52.8279 49.6141 60.2791 49.782 60.2791C49.9499 60.2791 53.9801 58.9395 58.682 57.307C63.4258 55.6744 67.624 54.2512 68.0438 54.1256C68.7155 53.9163 68.7575 55.4651 68.7575 82.8419V111.809L52.7626 111.684L36.7678 111.558L35.3405 110.009L33.9131 108.419V69.8233C33.9131 31.814 33.9131 31.1442 34.7527 29.8047C36.0542 27.6698 37.5655 27.2512 43.9046 27.2093H49.4461V43.7442ZM104.231 28.4651C106.624 30.6837 106.54 29.3442 106.54 61.0744V90.3768L105.239 91.2977L103.938 92.2186L102.846 91.1302L101.755 90L102.888 88.8279L104.022 87.6558L103.056 86.7349L102.09 85.814L98.8579 89.0791L95.6254 92.3023L96.549 93.2651L97.4725 94.1861L98.648 93.0558C99.7815 91.9675 99.8235 91.9674 100.663 92.7209C101.797 93.7256 101.755 94.0186 100.075 95.8605C96.9688 99.293 94.324 105.028 93.6942 109.591L93.4004 111.767H82.5692H71.6961V82.8837C71.6961 66.9768 71.7801 54 71.8641 54C71.948 54 76.1041 55.4233 81.1419 57.1395C86.1376 58.8558 90.4197 60.2791 90.6296 60.2791C90.8395 60.2791 91.0074 53.414 91.0074 43.7023V27.1674L97.0527 27.293C102.846 27.4186 103.182 27.4605 104.231 28.4651ZM60.5292 43.493C64.3914 47.7209 67.498 51.1954 67.4141 51.2791C67.3301 51.3209 63.9296 52.5349 59.8574 53.9582L52.3848 56.4698V45.5442C52.3848 36.1675 52.4688 34.6605 52.9725 35.1628C53.3084 35.4977 56.7089 39.2651 60.5292 43.493ZM88.0688 45.6698C88.0688 55.9256 88.0268 56.5954 87.3551 56.3023C86.9353 56.1349 83.5348 54.9628 79.7565 53.707C76.0202 52.4093 72.9975 51.1954 73.0395 51.0279C73.2074 50.5675 87.649 34.7442 87.9008 34.7442C87.9848 34.7442 88.0688 39.6419 88.0688 45.6698ZM123.585 72.1674C124.76 73.3395 125.012 73.9256 125.012 75.3488C125.012 76.7721 124.76 77.3582 123.585 78.5302C122.367 79.7442 121.864 79.9535 120.268 79.9535C118.631 79.9535 118.211 79.7442 117.078 78.4884C115.189 76.3535 115.231 74.1349 117.204 72.1674C118.379 70.9954 118.967 70.7442 120.394 70.7442C121.822 70.7442 122.409 70.9954 123.585 72.1674ZM125.516 90.0419C133.702 91.7163 141.553 99.2093 143.694 107.372C144.449 110.302 144.533 115.828 143.862 118.967C142.98 122.986 140.629 127.172 137.397 130.395C132.485 135.293 127.279 137.47 120.394 137.47C113.635 137.47 108.346 135.293 103.56 130.605C97.7664 124.87 95.2895 117.544 96.6329 109.884C98.3122 100.13 105.365 92.4279 114.727 90.1674C117.414 89.4977 122.661 89.4558 125.516 90.0419ZM35.9282 113.86C37.5655 114.656 38.4891 114.698 53.2244 114.698H68.7575V117.209V119.721H53.3504C38.7829 119.721 37.8174 119.679 36.5579 118.884C34.9626 117.921 33.9131 116.079 33.9131 114.279C33.9131 113.609 33.9551 113.023 34.0391 113.023C34.123 113.023 34.9626 113.4 35.9282 113.86ZM93.5263 115.912C93.5263 116.581 93.6523 117.712 93.7782 118.423L94.0721 119.721H82.8631H71.6961V117.209V114.698H82.6112H93.5263V115.912ZM53.3084 122.651H68.7575V125.163V127.674H53.6442C36.8938 127.674 36.306 127.591 34.7527 125.079C34.2909 124.326 33.9131 123.028 33.9131 122.191V120.684L35.8862 121.647C37.8174 122.651 37.8593 122.651 53.3084 122.651ZM96.1291 125.163L97.2626 127.674H84.4584H71.6961V125.163V122.651H83.3669L94.9957 122.693L96.1291 125.163Z" fill="#058FA2"/>
<path d="M76.3125 69.6977V71.1628H78.6215H80.9304V69.6977V68.2326H78.6215H76.3125V69.6977Z" fill="#058FA2"/>
<path d="M76.3125 90C76.3125 91.2559 76.3545 91.2559 78.6215 91.2559C80.8884 91.2559 80.9304 91.2559 80.9304 90C80.9304 88.7442 80.8884 88.7442 78.6215 88.7442C76.3545 88.7442 76.3125 88.7442 76.3125 90Z" fill="#058FA2"/>
<path d="M119.137 95.6511V98.3721H120.396H121.656V95.6511V92.9302H120.396H119.137V95.6511Z" fill="#058FA2"/>
<path d="M109.899 95.7768L108.934 96.5722L110.151 98.707C110.823 99.921 111.494 100.884 111.62 100.884C111.788 100.884 112.334 100.549 112.838 100.13L113.803 99.335L112.586 97.2001C111.914 95.9861 111.243 95.0233 111.117 95.0233C110.949 95.0233 110.403 95.3582 109.899 95.7768Z" fill="#058FA2"/>
<path d="M128.285 97.0744C127.613 98.2047 127.109 99.293 127.109 99.5023C127.109 99.8791 129.208 101.051 129.418 100.8C129.46 100.716 130.048 99.7535 130.678 98.6233L131.895 96.5721L130.93 95.8186C130.384 95.3582 129.838 95.0233 129.67 95.0233C129.544 95.0233 128.915 95.9442 128.285 97.0744Z" fill="#058FA2"/>
<path d="M102.386 103.27C101.798 104.526 101.84 104.567 104.443 106.032L106.332 107.121L107.046 105.865L107.759 104.651L105.576 103.395C104.359 102.726 103.267 102.139 103.141 102.139C103.015 102.139 102.68 102.642 102.386 103.27Z" fill="#058FA2"/>
<path d="M119.137 108.628V115.116H125.854H132.571V113.651V112.228L127.239 112.102L121.865 111.977L121.74 107.037L121.614 102.139H120.396H119.137V108.628Z" fill="#058FA2"/>
<path d="M134.961 103.479L132.988 104.735L133.702 105.907L134.416 107.121L136.305 106.032C137.354 105.405 138.404 104.777 138.614 104.609C138.992 104.274 137.816 102.098 137.27 102.181C137.102 102.181 136.095 102.767 134.961 103.479Z" fill="#058FA2"/>
<path d="M99.8242 113.651V115.116H102.343H104.862V113.651V112.186H102.343H99.8242V113.651Z" fill="#058FA2"/>
<path d="M135.926 113.651V115.116H138.445H140.964V113.651V112.186H138.445H135.926V113.651Z" fill="#058FA2"/>
<path d="M103.937 121.312C102.845 121.94 101.922 122.609 101.922 122.777C101.922 122.944 102.216 123.53 102.594 124.074L103.223 125.079L105.49 123.781L107.757 122.526L107.128 121.312C106.792 120.684 106.372 120.14 106.204 120.181C106.036 120.181 105.028 120.684 103.937 121.312Z" fill="#058FA2"/>
<path d="M133.661 121.312L133.031 122.526L135.34 123.823L137.607 125.121L138.279 123.865C138.615 123.153 138.867 122.526 138.783 122.484C138.195 122.065 134.669 120.139 134.501 120.139C134.375 120.139 133.997 120.684 133.661 121.312Z" fill="#058FA2"/>
<path d="M110.15 128.344C108.806 130.73 108.806 130.73 110.108 131.442C111.325 132.07 111.451 131.986 112.836 129.433C113.802 127.716 113.802 127.675 113.004 127.047C111.745 126.084 111.283 126.293 110.15 128.344Z" fill="#058FA2"/>
<path d="M127.868 126.879C126.86 127.465 126.902 127.884 128.288 130.019C129.505 131.986 129.841 132.154 131.016 131.233C131.772 130.688 131.772 130.563 130.638 128.554C129.463 126.335 129.085 126.126 127.868 126.879Z" fill="#058FA2"/>
<path d="M119.137 131.651V134.372H120.396H121.656V131.651V128.93H120.396H119.137V131.651Z" fill="#058FA2"/>
</svg>
