<svg width="102" height="103" viewBox="0 0 102 103" fill="none" xmlns="http://www.w3.org/2000/svg">
<g clip-path="url(#clip0_5103_7628)">
<path d="M55.2984 45.4993C57.6748 43.1354 57.6748 39.3029 55.2984 36.939C52.9219 34.575 49.0689 34.575 46.6925 36.939C44.316 39.3029 44.316 43.1354 46.6925 45.4993C49.0689 47.8633 52.9219 47.8633 55.2984 45.4993Z" stroke="#FDD304" stroke-width="3" stroke-miterlimit="10" stroke-linecap="round" stroke-linejoin="round"/>
<path d="M1.54688 101.463H98.9105" stroke="#058FA2" stroke-width="3" stroke-miterlimit="10" stroke-linecap="round" stroke-linejoin="round"/>
<path d="M99.68 2.30664H2.31641V19.6014H99.68V2.30664Z" stroke="#058FA2" stroke-width="3" stroke-miterlimit="10" stroke-linecap="round" stroke-linejoin="round"/>
<path d="M44.0444 64.5673L44.0445 73.2147C44.0445 75.1249 42.4877 76.6736 40.5673 76.6736C38.6467 76.6736 37.0898 75.1249 37.0898 73.2147V59.3788C37.0898 55.5582 40.2035 52.4609 44.0444 52.4609H57.9535C61.7944 52.4609 64.908 55.5582 64.908 59.3788V73.2147C64.908 75.1249 63.3511 76.6736 61.4308 76.6736C59.5104 76.6736 57.9535 75.1251 57.9535 73.2147V64.5673" stroke="#FDD304" stroke-width="3" stroke-miterlimit="10" stroke-linecap="round" stroke-linejoin="round"/>
<path d="M44.0469 73.2148V99.157H51.0014V76.6738" stroke="#FDD304" stroke-width="3" stroke-miterlimit="10" stroke-linecap="round" stroke-linejoin="round"/>
<path d="M51 76.6738V99.157H57.9545V73.2148" stroke="#FDD304" stroke-width="3" stroke-miterlimit="10" stroke-linecap="round" stroke-linejoin="round"/>
<path d="M93 20H77V102H93V20Z" stroke="#058FA2" stroke-width="3" stroke-miterlimit="10" stroke-linecap="round" stroke-linejoin="round"/>
<path d="M25 20H17H9V102H25V20Z" stroke="#058FA2" stroke-width="3" stroke-miterlimit="10" stroke-linecap="round" stroke-linejoin="round"/>
<path d="M40.5664 12.6836L44.0437 9.22461" stroke="#FDD304" stroke-width="2" stroke-miterlimit="10" stroke-linecap="round" stroke-linejoin="round"/>
<path d="M47.5241 12.6836L44.0469 9.22461" stroke="#FDD304" stroke-width="2" stroke-miterlimit="10" stroke-linecap="round" stroke-linejoin="round"/>
<path d="M54.4766 9.22461L57.9538 12.6836" stroke="#FDD304" stroke-width="2" stroke-miterlimit="10" stroke-linecap="round" stroke-linejoin="round"/>
<path d="M61.4304 9.22461L57.9531 12.6836" stroke="#FDD304" stroke-width="2" stroke-miterlimit="10" stroke-linecap="round" stroke-linejoin="round"/>
</g>
<defs>
<clipPath id="clip0_5103_7628">
<rect width="102" height="103" fill="white"/>
</clipPath>
</defs>
</svg>
