<svg width="81" height="81" viewBox="0 0 81 81" fill="none" xmlns="http://www.w3.org/2000/svg">
<mask id="path-1-inside-1_2_27736" fill="white">
<path d="M2.78174 51.9631H78.1326V48.8848C78.1326 48.1399 77.9875 47.4478 77.7305 46.8281C77.4536 46.1689 77.0449 45.5823 76.5374 45.0747C76.2275 44.7649 75.8782 44.4814 75.5024 44.231C75.1201 43.9739 74.7114 43.7498 74.283 43.5586C73.1294 43.3081 71.9824 43.0708 70.842 42.8467C69.6951 42.6226 68.5415 42.4116 67.3813 42.2139C67.3286 42.2073 67.2891 42.2007 67.2363 42.1875C66.6497 42.0886 66.0894 41.9963 65.5554 41.9106C65.0215 41.825 64.4546 41.7393 63.8613 41.647H63.8481C59.814 41.1328 55.793 40.7373 51.7786 40.4736C47.7576 40.21 43.7563 40.0781 39.7815 40.0715C37.4216 40.0715 35.0684 40.1111 32.7151 40.2034C30.375 40.2957 28.0217 40.4275 25.6685 40.6121H25.6553C23.4536 40.8164 21.2585 41.0735 19.0569 41.3701C16.8618 41.6667 14.6602 42.0161 12.4453 42.405L12.2014 42.4644C12.1553 42.4775 12.1091 42.4841 12.0696 42.4841C12.03 42.4907 11.9905 42.4907 11.9509 42.4907C10.916 42.6753 9.85474 42.8796 8.7605 43.0972C7.69922 43.3081 6.63794 43.5322 5.58325 43.7629C5.31958 43.908 5.06909 44.0728 4.83179 44.2441C4.59448 44.4221 4.36377 44.6133 4.15942 44.8176C3.71777 45.2593 3.36841 45.7668 3.1311 46.3337C2.90698 46.8677 2.78174 47.4609 2.78174 48.1069V51.9631ZM9.36035 7.56079H70.6575C71.4551 7.56079 72.2197 7.71899 72.9185 8.00903C73.6436 8.31226 74.2961 8.75391 74.8433 9.29443C75.3904 9.84155 75.832 10.4941 76.1287 11.2192C76.4187 11.918 76.5769 12.6826 76.5769 13.4802V41.6206C76.9131 41.8184 77.2427 42.0359 77.5459 42.2732C77.8887 42.5369 78.2117 42.8137 78.5083 43.1104C79.2729 43.875 79.8926 44.7649 80.3079 45.7668C80.7034 46.7095 80.9209 47.7576 80.9209 48.8914V52.9058C80.9407 52.9717 80.9604 53.0376 80.9736 53.1035V53.1167C80.9868 53.2024 80.9934 53.2815 80.9934 53.3606C80.9934 53.4463 80.9868 53.532 80.967 53.6177C80.9539 53.6836 80.9341 53.7495 80.9143 53.8154V72.0483C80.9143 72.4307 80.7561 72.78 80.5056 73.0305C80.2551 73.281 79.9058 73.4392 79.5234 73.4392H76.656C76.333 73.4392 76.0364 73.3271 75.7991 73.1426C75.5618 72.958 75.3838 72.6943 75.3113 72.3911C74.7839 70.875 74.25 69.6753 73.6765 68.7393C73.1096 67.8164 72.5032 67.1572 71.8044 66.6892C71.0991 66.2212 70.2554 65.9246 69.2336 65.7466C68.1921 65.562 66.9792 65.5027 65.5356 65.5093L12.9595 65.5752H12.9331C11.8982 65.5554 11.0479 65.6873 10.3359 65.9641C9.63062 66.241 9.05713 66.6562 8.58252 67.1902C8.04858 67.7834 7.60034 68.5415 7.19165 69.4248C6.77637 70.3279 6.40063 71.3562 6.0249 72.4834C5.93262 72.7734 5.74805 73.0042 5.51733 73.1689C5.2998 73.3271 5.03613 73.4194 4.76587 73.4326C4.74609 73.4392 4.72632 73.4392 4.70654 73.4392H1.39087C1.00854 73.4392 0.65918 73.281 0.408691 73.0305C0.158203 72.78 0 72.4307 0 72.0483V48.1135C0 47.0786 0.197754 46.1294 0.553711 45.2725C0.936035 44.3628 1.49634 43.552 2.19507 42.8533C2.39282 42.6555 2.61035 42.4578 2.84106 42.2732C3.03882 42.115 3.23657 41.9634 3.44751 41.825V13.4209C3.44751 12.6233 3.60571 11.8652 3.89575 11.1797C4.19897 10.4612 4.64062 9.81519 5.18774 9.27466C5.73486 8.73413 6.38745 8.30566 7.10596 8.00903C7.80469 7.71899 8.56274 7.56079 9.36035 7.56079ZM70.6575 10.3425H9.36035C8.93188 10.3425 8.52319 10.4282 8.14746 10.5798C7.75854 10.738 7.41577 10.9688 7.12573 11.2522C6.84229 11.5291 6.61157 11.8718 6.45337 12.241C6.30835 12.6035 6.22925 12.999 6.22925 13.4209V40.4868C6.427 40.4209 6.62476 40.3682 6.8291 40.3154C7.1521 40.2297 7.4751 40.1572 7.7981 40.1045C8.24634 40.0254 8.73413 39.9397 9.26147 39.8474C9.65698 39.7815 10.0789 39.709 10.5139 39.6431V32.7349C10.5139 31.6934 10.7249 30.698 11.1006 29.7883C11.4961 28.8391 12.0696 27.9888 12.7815 27.2769C13.4934 26.5649 14.3438 25.9915 15.293 25.5959C16.2026 25.2202 17.198 25.0093 18.2395 25.0093H31.3044C32.346 25.0093 33.3413 25.2202 34.251 25.5959C35.2002 25.9915 36.0505 26.5649 36.7625 27.2769C37.4744 27.9888 38.0479 28.8391 38.4434 29.7883C38.8191 30.698 39.03 31.6934 39.03 32.7349V37.1448C39.4915 37.1382 39.9529 37.1382 40.4209 37.1382V32.7349C40.4209 31.6934 40.6318 30.698 41.0076 29.7883C41.4031 28.8391 41.9766 27.9888 42.6885 27.2769C43.4004 26.5649 44.2507 25.9915 45.2 25.5959C46.1096 25.2202 47.105 25.0093 48.1465 25.0093H61.2114C62.2529 25.0093 63.2483 25.2202 64.158 25.5959C65.1072 25.9915 65.9575 26.5649 66.6694 27.2769C67.3813 27.9888 67.9548 28.8391 68.3503 29.7883C68.7261 30.698 68.937 31.6934 68.937 32.7349V39.5508C69.4314 39.6233 69.9587 39.709 70.5256 39.8013C71.1519 39.9001 71.7517 39.999 72.3318 40.0979C72.6284 40.1506 72.9316 40.21 73.2349 40.2825C73.426 40.3286 73.6106 40.3748 73.7886 40.4275V13.4802C73.7886 13.0583 73.7029 12.6562 73.5513 12.2871C73.3931 11.9048 73.1558 11.562 72.8657 11.2654C72.5757 10.9753 72.2263 10.738 71.8506 10.5798C71.4814 10.4282 71.0793 10.3425 70.6575 10.3425ZM28.4832 37.593C29.8081 37.4941 31.1396 37.4084 32.491 37.3425C33.7368 37.2766 34.9958 37.2305 36.2549 37.1975V32.7349C36.2549 32.0691 36.123 31.4297 35.8792 30.8496C35.6287 30.2432 35.2595 29.7026 34.7981 29.2412C34.3433 28.7864 33.7961 28.4172 33.1897 28.1602C32.6096 27.9163 31.9702 27.7844 31.3044 27.7844H18.2395C17.5737 27.7844 16.9343 27.9163 16.3542 28.1602C15.7478 28.4106 15.2073 28.7798 14.7459 29.2412C14.291 29.696 13.9219 30.2432 13.6648 30.8496C13.4209 31.4297 13.2891 32.0691 13.2891 32.7349V39.2014C14.3569 39.0432 15.438 38.8982 16.5454 38.7532C17.7385 38.6016 18.925 38.4631 20.0984 38.3313C20.5532 38.2786 21.041 38.2192 21.5486 38.1665C22.0232 38.1138 22.5176 38.0676 23.0449 38.0149C23.9414 37.9292 24.8313 37.8501 25.708 37.7776C26.6111 37.7183 27.5339 37.6523 28.4832 37.593ZM43.2026 37.158C44.0002 37.1711 44.7979 37.1909 45.5955 37.2173C46.4788 37.2437 47.3621 37.2832 48.2388 37.3228H48.2454C49.689 37.3755 51.0996 37.4414 52.4707 37.5205C53.8418 37.5996 55.1799 37.6985 56.4587 37.8105C58.3176 37.9753 60.1172 38.1731 61.8245 38.4038C63.3538 38.6147 64.804 38.8521 66.1619 39.1157V32.7349C66.1619 32.0691 66.03 31.4297 65.7861 30.8496C65.5356 30.2432 65.1665 29.7026 64.7051 29.2412C64.2503 28.7864 63.7031 28.4172 63.0967 28.1602C62.5166 27.9163 61.8772 27.7844 61.2114 27.7844H48.1531C47.4873 27.7844 46.8479 27.9163 46.2678 28.1602C45.6614 28.4106 45.1208 28.7798 44.6594 29.2412C44.2046 29.696 43.8354 30.2432 43.5784 30.8496C43.3345 31.4297 43.2026 32.0691 43.2026 32.7349V37.158ZM78.1392 54.7515H2.78174V70.6575H3.72437C4.09351 69.616 4.47583 68.647 4.9043 67.7834C5.36572 66.8606 5.88647 66.0432 6.51929 65.3379C7.27075 64.4941 8.15405 63.8416 9.21533 63.4065C10.2766 62.978 11.5159 62.7605 13.0056 62.7935L65.5356 62.7275C67.2297 62.7275 68.6799 62.8066 69.9456 63.0505C71.231 63.2944 72.3384 63.7097 73.3337 64.3689C74.2566 64.9819 75.0476 65.7927 75.7595 66.854C76.4385 67.8691 77.0449 69.115 77.625 70.6509H78.126V54.7515H78.1392Z"/>
</mask>
<path d="M2.78174 51.9631H78.1326V48.8848C78.1326 48.1399 77.9875 47.4478 77.7305 46.8281C77.4536 46.1689 77.0449 45.5823 76.5374 45.0747C76.2275 44.7649 75.8782 44.4814 75.5024 44.231C75.1201 43.9739 74.7114 43.7498 74.283 43.5586C73.1294 43.3081 71.9824 43.0708 70.842 42.8467C69.6951 42.6226 68.5415 42.4116 67.3813 42.2139C67.3286 42.2073 67.2891 42.2007 67.2363 42.1875C66.6497 42.0886 66.0894 41.9963 65.5554 41.9106C65.0215 41.825 64.4546 41.7393 63.8613 41.647H63.8481C59.814 41.1328 55.793 40.7373 51.7786 40.4736C47.7576 40.21 43.7563 40.0781 39.7815 40.0715C37.4216 40.0715 35.0684 40.1111 32.7151 40.2034C30.375 40.2957 28.0217 40.4275 25.6685 40.6121H25.6553C23.4536 40.8164 21.2585 41.0735 19.0569 41.3701C16.8618 41.6667 14.6602 42.0161 12.4453 42.405L12.2014 42.4644C12.1553 42.4775 12.1091 42.4841 12.0696 42.4841C12.03 42.4907 11.9905 42.4907 11.9509 42.4907C10.916 42.6753 9.85474 42.8796 8.7605 43.0972C7.69922 43.3081 6.63794 43.5322 5.58325 43.7629C5.31958 43.908 5.06909 44.0728 4.83179 44.2441C4.59448 44.4221 4.36377 44.6133 4.15942 44.8176C3.71777 45.2593 3.36841 45.7668 3.1311 46.3337C2.90698 46.8677 2.78174 47.4609 2.78174 48.1069V51.9631ZM9.36035 7.56079H70.6575C71.4551 7.56079 72.2197 7.71899 72.9185 8.00903C73.6436 8.31226 74.2961 8.75391 74.8433 9.29443C75.3904 9.84155 75.832 10.4941 76.1287 11.2192C76.4187 11.918 76.5769 12.6826 76.5769 13.4802V41.6206C76.9131 41.8184 77.2427 42.0359 77.5459 42.2732C77.8887 42.5369 78.2117 42.8137 78.5083 43.1104C79.2729 43.875 79.8926 44.7649 80.3079 45.7668C80.7034 46.7095 80.9209 47.7576 80.9209 48.8914V52.9058C80.9407 52.9717 80.9604 53.0376 80.9736 53.1035V53.1167C80.9868 53.2024 80.9934 53.2815 80.9934 53.3606C80.9934 53.4463 80.9868 53.532 80.967 53.6177C80.9539 53.6836 80.9341 53.7495 80.9143 53.8154V72.0483C80.9143 72.4307 80.7561 72.78 80.5056 73.0305C80.2551 73.281 79.9058 73.4392 79.5234 73.4392H76.656C76.333 73.4392 76.0364 73.3271 75.7991 73.1426C75.5618 72.958 75.3838 72.6943 75.3113 72.3911C74.7839 70.875 74.25 69.6753 73.6765 68.7393C73.1096 67.8164 72.5032 67.1572 71.8044 66.6892C71.0991 66.2212 70.2554 65.9246 69.2336 65.7466C68.1921 65.562 66.9792 65.5027 65.5356 65.5093L12.9595 65.5752H12.9331C11.8982 65.5554 11.0479 65.6873 10.3359 65.9641C9.63062 66.241 9.05713 66.6562 8.58252 67.1902C8.04858 67.7834 7.60034 68.5415 7.19165 69.4248C6.77637 70.3279 6.40063 71.3562 6.0249 72.4834C5.93262 72.7734 5.74805 73.0042 5.51733 73.1689C5.2998 73.3271 5.03613 73.4194 4.76587 73.4326C4.74609 73.4392 4.72632 73.4392 4.70654 73.4392H1.39087C1.00854 73.4392 0.65918 73.281 0.408691 73.0305C0.158203 72.78 0 72.4307 0 72.0483V48.1135C0 47.0786 0.197754 46.1294 0.553711 45.2725C0.936035 44.3628 1.49634 43.552 2.19507 42.8533C2.39282 42.6555 2.61035 42.4578 2.84106 42.2732C3.03882 42.115 3.23657 41.9634 3.44751 41.825V13.4209C3.44751 12.6233 3.60571 11.8652 3.89575 11.1797C4.19897 10.4612 4.64062 9.81519 5.18774 9.27466C5.73486 8.73413 6.38745 8.30566 7.10596 8.00903C7.80469 7.71899 8.56274 7.56079 9.36035 7.56079ZM70.6575 10.3425H9.36035C8.93188 10.3425 8.52319 10.4282 8.14746 10.5798C7.75854 10.738 7.41577 10.9688 7.12573 11.2522C6.84229 11.5291 6.61157 11.8718 6.45337 12.241C6.30835 12.6035 6.22925 12.999 6.22925 13.4209V40.4868C6.427 40.4209 6.62476 40.3682 6.8291 40.3154C7.1521 40.2297 7.4751 40.1572 7.7981 40.1045C8.24634 40.0254 8.73413 39.9397 9.26147 39.8474C9.65698 39.7815 10.0789 39.709 10.5139 39.6431V32.7349C10.5139 31.6934 10.7249 30.698 11.1006 29.7883C11.4961 28.8391 12.0696 27.9888 12.7815 27.2769C13.4934 26.5649 14.3438 25.9915 15.293 25.5959C16.2026 25.2202 17.198 25.0093 18.2395 25.0093H31.3044C32.346 25.0093 33.3413 25.2202 34.251 25.5959C35.2002 25.9915 36.0505 26.5649 36.7625 27.2769C37.4744 27.9888 38.0479 28.8391 38.4434 29.7883C38.8191 30.698 39.03 31.6934 39.03 32.7349V37.1448C39.4915 37.1382 39.9529 37.1382 40.4209 37.1382V32.7349C40.4209 31.6934 40.6318 30.698 41.0076 29.7883C41.4031 28.8391 41.9766 27.9888 42.6885 27.2769C43.4004 26.5649 44.2507 25.9915 45.2 25.5959C46.1096 25.2202 47.105 25.0093 48.1465 25.0093H61.2114C62.2529 25.0093 63.2483 25.2202 64.158 25.5959C65.1072 25.9915 65.9575 26.5649 66.6694 27.2769C67.3813 27.9888 67.9548 28.8391 68.3503 29.7883C68.7261 30.698 68.937 31.6934 68.937 32.7349V39.5508C69.4314 39.6233 69.9587 39.709 70.5256 39.8013C71.1519 39.9001 71.7517 39.999 72.3318 40.0979C72.6284 40.1506 72.9316 40.21 73.2349 40.2825C73.426 40.3286 73.6106 40.3748 73.7886 40.4275V13.4802C73.7886 13.0583 73.7029 12.6562 73.5513 12.2871C73.3931 11.9048 73.1558 11.562 72.8657 11.2654C72.5757 10.9753 72.2263 10.738 71.8506 10.5798C71.4814 10.4282 71.0793 10.3425 70.6575 10.3425ZM28.4832 37.593C29.8081 37.4941 31.1396 37.4084 32.491 37.3425C33.7368 37.2766 34.9958 37.2305 36.2549 37.1975V32.7349C36.2549 32.0691 36.123 31.4297 35.8792 30.8496C35.6287 30.2432 35.2595 29.7026 34.7981 29.2412C34.3433 28.7864 33.7961 28.4172 33.1897 28.1602C32.6096 27.9163 31.9702 27.7844 31.3044 27.7844H18.2395C17.5737 27.7844 16.9343 27.9163 16.3542 28.1602C15.7478 28.4106 15.2073 28.7798 14.7459 29.2412C14.291 29.696 13.9219 30.2432 13.6648 30.8496C13.4209 31.4297 13.2891 32.0691 13.2891 32.7349V39.2014C14.3569 39.0432 15.438 38.8982 16.5454 38.7532C17.7385 38.6016 18.925 38.4631 20.0984 38.3313C20.5532 38.2786 21.041 38.2192 21.5486 38.1665C22.0232 38.1138 22.5176 38.0676 23.0449 38.0149C23.9414 37.9292 24.8313 37.8501 25.708 37.7776C26.6111 37.7183 27.5339 37.6523 28.4832 37.593ZM43.2026 37.158C44.0002 37.1711 44.7979 37.1909 45.5955 37.2173C46.4788 37.2437 47.3621 37.2832 48.2388 37.3228H48.2454C49.689 37.3755 51.0996 37.4414 52.4707 37.5205C53.8418 37.5996 55.1799 37.6985 56.4587 37.8105C58.3176 37.9753 60.1172 38.1731 61.8245 38.4038C63.3538 38.6147 64.804 38.8521 66.1619 39.1157V32.7349C66.1619 32.0691 66.03 31.4297 65.7861 30.8496C65.5356 30.2432 65.1665 29.7026 64.7051 29.2412C64.2503 28.7864 63.7031 28.4172 63.0967 28.1602C62.5166 27.9163 61.8772 27.7844 61.2114 27.7844H48.1531C47.4873 27.7844 46.8479 27.9163 46.2678 28.1602C45.6614 28.4106 45.1208 28.7798 44.6594 29.2412C44.2046 29.696 43.8354 30.2432 43.5784 30.8496C43.3345 31.4297 43.2026 32.0691 43.2026 32.7349V37.158ZM78.1392 54.7515H2.78174V70.6575H3.72437C4.09351 69.616 4.47583 68.647 4.9043 67.7834C5.36572 66.8606 5.88647 66.0432 6.51929 65.3379C7.27075 64.4941 8.15405 63.8416 9.21533 63.4065C10.2766 62.978 11.5159 62.7605 13.0056 62.7935L65.5356 62.7275C67.2297 62.7275 68.6799 62.8066 69.9456 63.0505C71.231 63.2944 72.3384 63.7097 73.3337 64.3689C74.2566 64.9819 75.0476 65.7927 75.7595 66.854C76.4385 67.8691 77.0449 69.115 77.625 70.6509H78.126V54.7515H78.1392Z" stroke="#058FA2" stroke-width="4" mask="url(#path-1-inside-1_2_27736)"/>
</svg>
