<svg width="72" height="72" viewBox="0 0 72 72" fill="none" xmlns="http://www.w3.org/2000/svg">
<path d="M68.2341 12.1388L66.316 9.62719C65.6314 8.7351 64.7514 8.01187 63.7436 7.51309C62.7358 7.0143 61.627 6.75325 60.5026 6.75H57.9376C57.8834 6.75038 57.8295 6.75795 57.7772 6.7725C54.003 7.89744 50.6776 10.1799 48.271 13.2975L47.7647 13.95C47.7354 13.9866 47.7117 14.0273 47.6944 14.0709C47.3316 14.9034 44.1872 22.2806 45.2082 25.0059C46.111 27.4078 47.5594 29.6494 48.8419 31.3453C40.2076 37.3641 44.6963 46.4569 46.1841 49.4691C46.4219 49.9441 46.5697 50.459 46.6201 50.9878C44.0269 50.4028 40.5732 50.0794 38.0335 51.5306C34.5376 53.5275 28.3754 54.27 26.4376 54.4613V47.8181C26.4381 47.7859 26.4344 47.7537 26.4263 47.7225C26.4092 47.6071 26.3549 47.5005 26.2716 47.4188L19.5188 40.6659C19.4664 40.6134 19.4042 40.5717 19.3357 40.5432C19.2671 40.5147 19.1936 40.5 19.1194 40.5H9.56818C9.49397 40.5 9.4205 40.5147 9.35197 40.5432C9.28343 40.5717 9.22119 40.6134 9.16881 40.6659L2.416 47.4188C2.33274 47.5005 2.27843 47.6071 2.26131 47.7225C2.25326 47.7537 2.24947 47.7859 2.25006 47.8181V57.4031C2.25038 57.5524 2.3089 57.6957 2.41318 57.8025L9.16881 64.5694C9.22119 64.6219 9.28343 64.6637 9.35197 64.6921C9.4205 64.7206 9.49397 64.7353 9.56818 64.7353H19.1194C19.1936 64.7353 19.2671 64.7206 19.3357 64.6921C19.4042 64.6637 19.4664 64.6219 19.5188 64.5694L22.8263 61.2563C24.1032 61.6303 33.4997 64.3612 37.6004 65.0728C38.495 65.2049 39.3989 65.2642 40.3032 65.25C45.6385 65.25 54.1322 63.9056 54.5626 63.8381C54.6552 63.8231 54.7426 63.785 54.8167 63.7276C54.8909 63.6701 54.9495 63.595 54.9872 63.5091C55.516 62.2607 55.8909 60.9527 56.1038 59.6138C56.4104 58.0191 56.6747 56.6409 57.946 54.8128C68.7404 39.3047 66.1051 28.4513 65.7338 27.1519C66.406 26.4966 67.0951 25.8384 67.7701 25.2113C69.7276 23.3241 69.7501 20.6409 69.7501 20.5284V16.5741C69.7399 14.9702 69.2077 13.4133 68.2341 12.1388ZM18.886 41.625L25.3126 48.0628V57.1359L18.886 63.5625H9.80162L3.37506 57.1359V48.0628L9.80162 41.625H18.886ZM68.6251 20.5284C68.6251 20.5509 68.6054 22.8403 66.9966 24.3956C66.2063 25.1269 65.3991 25.9059 64.6201 26.6709C61.9229 29.3147 59.5801 31.8122 59.5491 31.8431C59.4469 31.952 59.3922 32.0971 59.3969 32.2463C59.4017 32.3956 59.4655 32.5369 59.5744 32.6391C59.6833 32.7413 59.8284 32.796 59.9776 32.7913C60.1269 32.7865 60.2682 32.7227 60.3704 32.6138C60.3957 32.5828 62.3785 30.4706 64.7888 28.08C65.3091 30.7378 66.3807 40.725 57.0235 54.1716C55.6144 56.1966 55.3163 57.7519 54.9985 59.4C54.812 60.5546 54.5027 61.686 54.076 62.775C52.141 63.0703 41.6054 64.6256 37.7916 63.9647C34.2001 63.3403 26.1844 61.0566 23.7347 60.3478L26.2744 57.8025C26.3787 57.6957 26.4372 57.5524 26.4376 57.4031V55.5919C28.3276 55.4175 34.7935 54.6778 38.5932 52.5066C41.0288 51.1144 44.6007 51.6291 47.0616 52.2591C48.0082 52.5008 48.939 52.8005 49.8488 53.1562C49.9846 53.2045 50.1338 53.1987 50.2655 53.1402C50.3972 53.0816 50.5014 52.9748 50.5566 52.8416C50.6118 52.7085 50.6138 52.5592 50.5622 52.4247C50.5106 52.2901 50.4092 52.1805 50.2791 52.1184C49.4561 51.7889 48.6147 51.5072 47.7591 51.2747C47.7491 50.4725 47.5547 49.6835 47.191 48.9684C44.7947 44.1169 42.4491 37.125 49.5366 32.2312C50.6082 33.5616 51.4435 34.4025 51.5222 34.4812C51.5742 34.5336 51.636 34.5752 51.704 34.6037C51.772 34.6322 51.845 34.647 51.9188 34.6472C52.0685 34.6463 52.2119 34.5867 52.3182 34.4812C52.3705 34.429 52.412 34.367 52.4403 34.2987C52.4686 34.2304 52.4832 34.1572 52.4832 34.0833C52.4832 34.0094 52.4686 33.9362 52.4403 33.8679C52.412 33.7996 52.3705 33.7376 52.3182 33.6853C52.276 33.6431 48.0544 29.3878 46.2629 24.6094C45.5373 22.68 47.7479 16.7822 48.6957 14.5828L49.1597 13.9866C51.4059 11.0768 54.5039 8.94038 58.0219 7.875H60.5026C61.4542 7.87769 62.3925 8.09866 63.2453 8.52092C64.0981 8.94317 64.8426 9.55544 65.4216 10.3106L67.3397 12.8222C68.1651 13.8996 68.6164 15.2169 68.6251 16.5741V20.5284Z" fill="#058FA2"/>
<path d="M57.5103 35.5584C57.4371 35.5691 57.3668 35.5941 57.3033 35.632C57.2398 35.6698 57.1844 35.7198 57.1403 35.7791C57.0961 35.8384 57.0641 35.9058 57.046 35.9775C57.028 36.0492 57.0242 36.1237 57.035 36.1969C57.8815 42.1312 54.0481 47.7647 54.0087 47.8209C53.9508 47.9056 53.9171 48.0045 53.9111 48.1069C53.9052 48.2093 53.9272 48.3114 53.9749 48.4022C54.0227 48.493 54.0942 48.5691 54.1819 48.6222C54.2696 48.6754 54.3702 48.7037 54.4728 48.7041C54.5638 48.7044 54.6536 48.6822 54.7341 48.6396C54.8145 48.5969 54.8832 48.535 54.934 48.4594C55.1028 48.2175 59.0571 42.4153 58.1459 36.0366C58.125 35.8889 58.0463 35.7555 57.9271 35.6659C57.8079 35.5762 57.658 35.5376 57.5103 35.5584Z" fill="#058FA2"/>
<path d="M16.0992 36.7522L16.0992 36.7522L16.0905 36.7522C15.984 36.7533 15.8783 36.7323 15.7803 36.6906C15.6822 36.6488 15.5939 36.5872 15.5208 36.5097L15.5205 36.5093C15.4328 36.4164 15.369 36.3036 15.3344 36.1807C15.2999 36.0584 15.2954 35.9297 15.3211 35.8053C15.8595 33.3084 16.7399 30.8978 17.9374 28.6416C21.2977 22.321 26.9312 17.5108 33.7003 15.1825L34.5596 14.887L34.3474 14.0034L34.024 12.6562L34.0236 12.6545C34.0185 12.6336 34.0191 12.6118 34.0252 12.5913C34.0312 12.5707 34.0426 12.5521 34.0582 12.5374C34.0738 12.5226 34.0929 12.5122 34.1138 12.5072C34.1347 12.5023 34.1565 12.5029 34.177 12.509L34.1797 12.5098L40.3476 14.3352L40.351 14.3362C40.4668 14.37 40.5716 14.4338 40.6548 14.5211C40.7381 14.6085 40.7967 14.7163 40.8249 14.8336C40.8531 14.9509 40.8498 15.0736 40.8154 15.1892L41.7738 15.4747L40.8154 15.1892C40.781 15.3048 40.7166 15.4093 40.6288 15.4921L40.6163 15.5038L40.6043 15.516L35.96 20.2051C35.9447 20.2193 35.9261 20.2295 35.9058 20.2346C35.8844 20.24 35.8619 20.2397 35.8406 20.2336C35.8194 20.2275 35.8001 20.2158 35.7848 20.1999L35.0626 20.8915L35.7848 20.1999C35.7715 20.186 35.7616 20.1692 35.7559 20.1509L35.4938 18.871L35.2727 17.7909L34.2192 18.1161C30.0307 19.409 26.2388 21.7437 23.1986 24.9016C20.182 28.0349 18.0034 31.8769 16.8629 36.0729L16.8531 36.0925L16.8265 36.199C16.7921 36.3365 16.7184 36.4609 16.6144 36.5572C16.5108 36.653 16.3817 36.7167 16.2427 36.7405C16.1952 36.7482 16.1473 36.7521 16.0992 36.7522Z" stroke="#058FA2" stroke-width="2"/>
<path d="M9.6875 52.5925C9.68727 51.5152 10.0604 50.4712 10.7433 49.6381C11.4267 48.8045 12.378 48.2337 13.435 48.0229C14.4921 47.8121 15.5896 47.9744 16.5404 48.4822C17.4912 48.9899 18.2365 49.8117 18.6493 50.8074C19.0621 51.8031 19.1169 52.9112 18.8042 53.9427C18.4916 54.9743 17.8309 55.8655 16.9347 56.4645C16.0386 57.0635 14.9625 57.3331 13.8898 57.2276C12.8177 57.1221 11.8154 56.6483 11.0533 55.8869C10.6189 55.4555 10.2745 54.9422 10.0401 54.3766C9.80559 53.8111 9.68576 53.2047 9.6875 52.5925ZM9.6875 52.5925C9.6875 52.5918 9.6875 52.5911 9.68751 52.5905L10.6875 52.5938M9.6875 52.5925L10.6875 52.5938M9.6875 52.5925C9.6875 52.5931 9.6875 52.5937 9.6875 52.5944L10.6875 52.5938M9.6875 52.5925L10.6875 52.5938M10.5666 61.1466C10.6189 61.1991 10.6812 61.2408 10.7497 61.2693C10.8183 61.2978 10.8917 61.3125 10.9659 61.3125L10.5666 61.1466ZM11.1467 60.3125L6.625 55.7908V49.3967L11.1467 44.875H17.5408L22.0625 49.3967V55.7908L17.5408 60.3125H11.1467ZM22.1907 49.5249C22.1903 49.5245 22.1899 49.5241 22.1895 49.5237L22.1907 49.5249ZM6.49682 55.6626C6.49723 55.663 6.49764 55.6634 6.49805 55.6638L6.49682 55.6626ZM11.2749 44.7468C11.2745 44.7472 11.2741 44.7476 11.2737 44.748L11.2749 44.7468Z" stroke="#FDC114" stroke-width="2"/>
</svg>
