<svg width="96" height="71" viewBox="0 0 96 71" fill="none" xmlns="http://www.w3.org/2000/svg">
<path fill-rule="evenodd" clip-rule="evenodd" d="M13.0179 1.55785C11.8396 2.14942 11.0016 3.03778 10.507 4.21983C10.3103 4.68981 10.1838 5.70615 10.1216 7.3157L10.029 9.71207L7.3776 9.77752C4.86554 9.83968 4.68118 9.86976 3.86917 10.3487C3.31265 10.6766 2.83524 11.1561 2.50826 11.7152L2.00435 12.5762V27.5251V42.4739L2.50826 43.3349C2.83487 43.8933 3.31337 44.374 3.86917 44.7022C4.68281 45.1827 4.86046 45.2115 7.37959 45.2702L10.0328 45.3321L10.1152 47.7714C10.1914 50.0271 10.2377 50.29 10.7312 51.2594C11.3428 52.4608 12.6004 53.5308 13.7962 53.8671C14.2896 54.0058 15.6926 54.0593 17.8062 54.0195C20.493 53.9692 21.1591 53.9027 21.6445 53.6363C22.6356 53.0925 23.5069 52.2129 24.0174 51.2408L24.5048 50.3129L24.5955 42.1093L24.6862 33.9057L26.9738 33.8548L29.2614 33.8039L29.3576 35.769C29.4166 36.9786 29.5708 38.0244 29.7584 38.4897C29.9261 38.9053 31.158 40.5871 32.4962 42.2269L34.929 45.2084L34.9337 57.8225L34.9384 70.4368L35.3418 70.7205C35.9604 71.156 36.6699 71.0767 37.1026 70.5239C37.475 70.0485 37.4788 69.9163 37.4788 57.2949C37.4788 47.9536 37.4224 44.4406 37.2678 44.1502C37.1516 43.9323 36.1424 42.6456 35.0246 41.2909C31.9517 37.5659 32.0351 37.7222 32.0351 35.7032V33.9968H45.1774H58.3198L58.7061 33.5033C58.9761 33.1586 59.0585 32.8704 58.9796 32.5462C58.742 31.5713 58.625 31.5427 54.4842 31.4446C49.8393 31.3347 49.8192 31.3268 49.2106 29.4073C49.0451 28.8854 49.4272 27.8933 50.0097 27.3324L50.567 26.7959L57.1458 26.7439C63.6014 26.6929 63.7337 26.6991 64.2109 27.0762L64.697 27.4604V32.435V37.4097L64.2184 38.1187C63.9549 38.5088 62.8251 39.9362 61.7076 41.2909C60.5898 42.6456 59.5805 43.9323 59.4644 44.1502C59.3408 44.3821 59.2534 45.3731 59.2534 46.5391C59.2534 48.2792 59.3011 48.5929 59.6295 49.0122C59.8988 49.3564 60.1739 49.4926 60.5994 49.4926C61.596 49.4926 61.793 49.0857 61.7985 47.0171L61.8032 45.2084L64.236 42.2269C65.5742 40.5871 66.8061 38.9053 66.9737 38.4897C67.1614 38.0244 67.3156 36.9786 67.3746 35.769L67.4707 33.8039L69.7584 33.8548L72.046 33.9057L72.1367 42.1093L72.2274 50.3129L72.7148 51.2408C73.2252 52.2129 74.0966 53.0925 75.0877 53.6363C75.5731 53.9027 76.2392 53.9692 78.926 54.0195C81.0396 54.0593 82.4426 54.0058 82.936 53.8671C84.124 53.5329 85.3896 52.4601 85.9919 51.2769C86.4729 50.3319 86.5244 50.0417 86.6101 47.7891L86.7033 45.3321L89.3546 45.2702C91.8715 45.2115 92.0495 45.1827 92.863 44.7022C93.7982 44.15 94.6371 42.943 94.6371 42.1496C94.6371 41.8885 94.7187 41.6244 94.8186 41.5624C94.937 41.4889 95 36.5436 95 27.3213C95 17.9487 94.9389 13.2307 94.8186 13.3054C94.7137 13.3705 94.6371 13.1979 94.6371 12.8969C94.6371 12.2268 93.8688 11.0381 93.0882 10.5007C92.2237 9.90568 91.4048 9.75984 88.9017 9.75491L86.7046 9.75054L86.6113 7.33502C86.5486 5.70888 86.4223 4.6909 86.2252 4.21983C85.7306 3.03778 84.8926 2.14942 83.7142 1.55785C82.6044 1.00055 82.5996 1 79.4889 1C75.9716 1 75.1811 1.16954 74.012 2.17494C73.623 2.50965 73.0623 3.223 72.766 3.76025L72.2274 4.73721L72.1735 12.9864L72.1194 21.2356H68.6059H65.0924L65.0275 18.4555C64.9669 15.8635 64.9297 15.6127 64.4784 14.7475C63.9251 13.6863 62.966 12.7709 61.8963 12.2827C60.7821 11.7743 58.8756 11.8213 57.666 12.3872L56.7136 12.8327L56.4505 12.3214C56.3056 12.0401 55.881 11.5398 55.5067 11.2097C53.1331 9.11594 49.5691 9.52467 47.7858 12.0953L47.4869 12.5257L46.4418 12.012C44.4637 11.0398 42.1569 11.4312 40.5906 13.0048L39.8551 13.7437L38.7434 13.1678C36.735 12.127 34.3968 12.4823 32.8187 14.0678C31.6182 15.274 31.4138 15.8994 31.3102 18.6834L31.2186 21.1445L27.907 21.1942L24.5955 21.2438V19.0438C24.5955 16.951 24.5737 16.8219 24.15 16.3964C23.6497 15.8936 23.023 15.822 22.4981 16.2075C22.1551 16.4595 22.1435 16.9003 22.0551 33.1243C21.9698 48.7849 21.9448 49.8123 21.6371 50.2841C20.9423 51.3491 20.4242 51.4964 17.3736 51.4972C14.2718 51.4979 13.7706 51.3615 13.1566 50.3496C12.8104 49.7791 12.8022 49.263 12.8022 27.5251C12.8022 5.53825 12.8065 5.27719 13.1686 4.6807C13.7472 3.72707 14.4141 3.55206 17.4676 3.55297C19.8062 3.55352 20.2242 3.59909 20.7298 3.90882C21.8713 4.60814 21.955 4.91131 22.0551 8.70886C22.1379 11.8465 22.1771 12.1737 22.4981 12.4091C23.0713 12.8295 23.7956 12.7283 24.2355 12.1666C24.6115 11.6862 24.6251 11.524 24.5661 8.20151C24.5051 4.75289 24.5022 4.73283 23.9662 3.76025C23.6699 3.223 23.1092 2.50965 22.7202 2.17494C21.551 1.16954 20.7606 1 17.2433 1C14.1326 1 14.1277 1.00055 13.0179 1.55785ZM76.0024 3.90882C75.6836 4.10425 75.2753 4.49001 75.0951 4.76601C74.7841 5.2431 74.7678 6.37958 74.7678 27.5251C74.7678 48.6706 74.7841 49.807 75.0951 50.2841C75.7917 51.3521 76.3042 51.4966 79.3949 51.4966C81.8605 51.4966 82.2787 51.4529 82.7855 51.1424C83.8242 50.5062 83.8327 50.4538 83.9313 44.0738C84.0194 38.3644 84.033 38.1883 84.4127 37.8071C84.912 37.3058 85.6721 37.3058 86.1717 37.8069C86.5224 38.1588 86.5685 38.433 86.6228 40.487L86.6832 42.7751L89.0906 42.7156C90.7913 42.6737 91.5857 42.5827 91.7973 42.4061C92.071 42.1773 92.0965 40.9092 92.094 27.6396C92.0924 19.6554 92.0296 13.0258 91.9541 12.9067C91.6808 12.4747 90.7621 12.3028 88.728 12.3028H86.6531V22.4846C86.6531 29.2159 86.5876 32.8551 86.4598 33.2231C86.1891 34.0034 85.3722 34.3335 84.7407 33.9179C84.4861 33.7502 84.2 33.4071 84.1045 33.1551C84 32.8788 83.9311 27.2582 83.9305 18.9906C83.93 5.5645 83.9224 5.27172 83.5636 4.6807C82.985 3.72707 82.3181 3.55206 79.2646 3.55297C76.926 3.55352 76.5079 3.59909 76.0024 3.90882ZM5.36635 12.5057C5.11975 12.6047 4.85556 12.7841 4.77953 12.9044C4.70332 13.0247 4.63981 19.6554 4.63817 27.6396C4.63563 40.9092 4.66122 42.1773 4.93485 42.4061C5.14661 42.5829 5.94356 42.6737 7.65668 42.7158L10.0791 42.7756V27.5391V12.3028L7.947 12.3143C6.77426 12.3206 5.61313 12.4069 5.36635 12.5057ZM50.6343 12.8475C49.5314 13.5767 49.4548 13.9493 49.4548 18.5922C49.4548 22.3444 49.4909 22.8585 49.794 23.4262L50.1329 24.0613H51.9972C53.8315 24.0613 53.8674 24.0531 54.2438 23.5465C54.6081 23.0559 54.6263 22.8226 54.6263 18.6161C54.6263 14.6671 54.5916 14.1475 54.2989 13.6987C53.5332 12.5252 51.7486 12.1106 50.6343 12.8475ZM2 27.5251C2 35.3459 2.02232 38.5187 2.04972 34.5758C2.07694 30.6328 2.07694 24.234 2.04972 20.3562C2.02232 16.4782 2 19.7043 2 27.5251ZM43.739 14.128C42.8952 14.309 42.3902 14.6439 42.0061 15.2769C41.6902 15.7973 41.6535 16.2128 41.653 19.2817C41.6524 21.8505 41.7176 22.8627 41.9136 23.3339C42.6368 25.0733 45.4 25.165 46.4964 23.4861C46.7727 23.0628 46.833 22.4979 46.8836 19.8596C46.919 18.0191 46.8642 16.4383 46.7504 16.0139C46.3948 14.6866 45.0525 13.846 43.739 14.128ZM58.7849 14.6671C58.3033 14.8629 57.4697 15.8529 57.3359 16.3882C57.2795 16.6142 57.2592 18.2282 57.2908 19.9746C57.3419 22.8074 57.3873 23.2038 57.711 23.6497C58.0688 24.1426 58.0993 24.149 59.8694 24.1054C61.6052 24.0628 61.6776 24.0442 62.0469 23.5472C62.3962 23.0772 62.4332 22.7573 62.48 19.81C62.5377 16.1754 62.4136 15.6732 61.2679 14.9042C60.6283 14.4749 59.5185 14.3688 58.7849 14.6671ZM34.9927 15.5769C33.9764 16.1993 33.8497 16.685 33.8497 19.9595C33.8497 23.234 33.9764 23.7197 34.9927 24.3421C35.6887 24.7686 36.9235 24.8088 37.655 24.4287C37.9415 24.2797 38.3661 23.8901 38.5986 23.5627C39.0001 22.9972 39.0212 22.8171 39.0212 19.9595C39.0212 17.1019 39.0001 16.9218 38.5986 16.3563C38.3661 16.0289 37.9415 15.6393 37.655 15.4903C36.9235 15.1102 35.6887 15.1504 34.9927 15.5769ZM24.5955 27.5251V31.2623H35.8279H47.0603L46.7945 30.3963C46.5016 29.4422 46.586 28.1402 47.0063 27.1298C47.1451 26.7957 47.2325 26.5224 47.2004 26.5224C47.1683 26.5224 46.7493 26.6969 46.2696 26.9102C45.2432 27.3663 43.4726 27.4436 42.5421 27.0731C42.2024 26.9379 41.5441 26.559 41.0794 26.2314C40.2485 25.6459 40.2291 25.6419 39.9165 25.9888C39.7417 26.1828 39.1576 26.5585 38.6185 26.8234C36.1433 28.0401 32.9633 26.9413 31.7938 24.4655L31.4737 23.7879H28.0346H24.5955V27.5251ZM64.7291 24.0403C64.7614 24.1793 65.1552 24.5729 65.6043 24.9149C66.9306 25.925 67.271 26.7446 67.3782 29.1862L67.4695 31.2623H69.803H72.1367V27.5251V23.7879H68.4036C65.3154 23.7879 64.6805 23.8314 64.7291 24.0403ZM60.0218 52.9631C59.7959 53.0542 59.5305 53.3415 59.4321 53.6013C59.3247 53.8855 59.2534 57.2552 59.2534 62.0587C59.2534 69.8607 59.2619 70.0547 59.6295 70.5239C60.0623 71.0767 60.7718 71.156 61.3904 70.7205L61.7938 70.4368V61.9832V53.5297L61.3156 53.1519C60.7925 52.7383 60.6353 52.7155 60.0218 52.9631Z" fill="#058FA2"/>
<path fill-rule="evenodd" clip-rule="evenodd" d="M13.1858 1.13826C10.3416 2.06923 9.38289 3.55881 9.1889 7.34816L9.06686 9.73024L6.43605 9.81696C3.27799 9.92091 2.48306 10.2192 1.57092 11.6425L1.00074 12.5327V27.5326C1.00074 43.9906 0.929178 42.9917 2.19313 44.1658C3.19598 45.0973 3.489 45.1779 6.36854 45.314L9.06802 45.4415L9.17981 47.7817C9.33628 51.0599 9.94147 52.3194 11.8924 53.4268L12.8957 53.9964L16.4317 53.9983C18.9979 53.9994 20.1423 53.9278 20.6042 53.7368C21.5316 53.3531 22.5691 52.3843 23.1522 51.357L23.6622 50.4584L23.7727 42.1786C23.8336 37.6247 23.9568 33.8989 24.0467 33.8989C24.1367 33.8989 24.2104 31.056 24.2104 27.5814C24.2104 23.8939 24.1369 21.2639 24.0336 21.2639C23.9363 21.2639 23.8276 20.282 23.7918 19.0819C23.7377 17.2624 23.6655 16.8328 23.3584 16.4974C22.9456 16.0466 21.8153 15.9438 21.5662 16.3343C21.4823 16.466 21.354 23.9886 21.2815 33.0516C21.1357 51.255 21.1854 50.5901 19.9222 51.2458C19.0265 51.7104 13.9738 51.7293 13.0823 51.2712C11.858 50.6423 11.9286 52.0959 11.9286 27.5046C11.9286 9.64467 11.9789 5.00016 12.1762 4.65844C12.7046 3.74298 13.4394 3.55901 16.5705 3.55728C20.9504 3.55499 21.0695 3.6865 21.2788 8.75811C21.4022 11.7492 21.4573 12.143 21.7869 12.3815C22.2919 12.7469 22.729 12.7175 23.2702 12.2812C23.7231 11.9159 23.7264 11.8847 23.6887 8.33905C23.6467 4.38564 23.5276 3.91776 22.211 2.52657C21.0803 1.33199 20.2462 1.10399 16.7639 1.03832C15.0619 1.00616 13.4517 1.05115 13.1858 1.13826ZM76.0504 1.18975C74.7951 1.39555 73.9283 1.93503 73.171 2.98143C71.8543 4.80145 71.961 2.63627 71.9585 27.5751L71.9564 50.1341L72.3773 50.9663C72.9103 52.0201 73.9994 53.1603 74.9253 53.6334C75.5568 53.956 76.0746 54 79.2365 54C83.2844 54 83.6397 53.9093 84.9799 52.5326C85.9557 51.5304 86.4798 50.3094 86.4866 49.0226C86.4897 48.4435 86.5465 47.4007 86.6129 46.7054L86.7336 45.4409L89.3522 45.311C91.0958 45.2242 92.1857 45.0799 92.6137 44.8789C93.4224 44.4991 94.3788 43.4345 94.5268 42.7495C94.5889 42.4618 94.7206 42.0285 94.8196 41.7867C95.0612 41.1967 95.0596 13.7106 94.8179 13.2686C94.7181 13.0858 94.5852 12.6972 94.5229 12.405C94.4606 12.1127 94.0976 11.5317 93.716 11.114C92.7752 10.0831 91.6676 9.77753 88.872 9.77753C86.9183 9.77753 86.6823 9.74154 86.6769 9.44251C86.6738 9.25815 86.5928 8.04194 86.4972 6.73958C86.3429 4.63623 86.2618 4.27288 85.7721 3.48511C85.1691 2.51489 83.7703 1.47538 82.6555 1.16908C81.7998 0.933798 77.5294 0.947199 76.0504 1.18975ZM76.4347 3.64324C76.0639 3.73666 75.5344 4.06364 75.2576 4.37013C74.7628 4.91842 74.7528 4.98791 74.6263 8.72327C74.4598 13.6461 74.4598 41.5166 74.6263 46.4395C74.753 50.1842 74.7617 50.243 75.2622 50.7976C75.7137 51.2976 75.9506 51.3792 77.4064 51.5354C78.3066 51.6321 79.8144 51.6562 80.7573 51.5892C82.2543 51.4828 82.5458 51.4014 83.0583 50.9483C83.638 50.4356 83.6469 50.3986 83.7999 47.8594C83.885 46.446 83.9593 43.8522 83.9649 42.0953C83.9772 38.2089 84.1685 37.5466 85.2807 37.5391C86.0762 37.5337 86.4895 38.1779 86.4895 39.4225C86.4895 40.0389 86.5454 41.0727 86.6137 41.7197L86.738 42.8965L87.9192 42.8868C89.9125 42.8701 91.7258 42.6088 91.9163 42.3109C92.0184 42.1512 92.0938 35.8916 92.0956 27.4445L92.0985 12.854L91.6633 12.6196C91.4219 12.4896 90.216 12.3484 88.9555 12.3022L86.6829 12.219V17.5718C86.6829 20.5159 86.6251 25.2787 86.5543 28.1561C86.4384 32.8749 86.391 33.422 86.0708 33.739C85.5679 34.2368 84.848 34.1797 84.3921 33.6064C84.0177 33.135 84.0059 32.7554 83.943 19.1919C83.8831 6.26902 83.8536 5.22434 83.5372 4.74631C82.875 3.74623 82.4317 3.60782 79.668 3.53814C78.2605 3.50253 76.8055 3.54982 76.4347 3.64324ZM4.64136 12.402C3.5685 12.5645 3.61182 11.9261 3.61182 27.6038C3.61182 40.2504 3.64915 42.1534 3.90194 42.4007C4.11083 42.6052 4.88255 42.7221 6.65808 42.8186L9.12411 42.9524V27.6093V12.2662L7.14162 12.295C6.05115 12.3107 4.92607 12.3589 4.64136 12.402Z" fill="#FDD304" stroke="#FDD304"/>
</svg>
