<svg width="84" height="48" viewBox="0 0 84 48" fill="none" xmlns="http://www.w3.org/2000/svg">
<path d="M82 31.4503C82 30.6491 81.3504 29.9995 80.5492 29.9995H3.4508C2.6496 29.9995 2 30.6491 2 31.4503V44.9487C2 45.7499 2.6496 46.3995 3.4508 46.3995H80.5492C81.3504 46.3995 82 45.7499 82 44.9487V31.4503Z" stroke="#058FA2" stroke-width="3" stroke-miterlimit="10" stroke-linecap="round" stroke-linejoin="round"/>
<path d="M11.4 22C6.3192 22 2 25.9188 2 31V44.7492C2 45.5504 2.8496 46.4 3.6508 46.4H80.7492C81.5504 46.4 82 45.5504 82 44.7492V31C82 25.9188 78.0808 22 73 22H11.4Z" stroke="#058FA2" stroke-width="3" stroke-miterlimit="10" stroke-linecap="round" stroke-linejoin="round"/>
<path d="M74.1016 37.8511C74.1016 38.4034 73.6538 38.8511 73.1016 38.8511C72.5493 38.8511 72.1016 38.4034 72.1016 37.8511C72.1016 37.2988 72.5493 36.8511 73.1016 36.8511C73.6538 36.8511 74.1016 37.2988 74.1016 37.8511Z" fill="#F9BF02" stroke="#F9BF02" stroke-width="3"/>
<path d="M65.5273 37.8511C65.5273 38.4034 65.0796 38.8511 64.5273 38.8511C63.9751 38.8511 63.5273 38.4034 63.5273 37.8511C63.5273 37.2988 63.9751 36.8511 64.5273 36.8511C65.0796 36.8511 65.5273 37.2988 65.5273 37.8511Z" fill="#F9BF02" stroke="#F9BF02" stroke-width="3"/>
<path d="M56.9531 37.8511C56.9531 38.4034 56.5054 38.8511 55.9531 38.8511C55.4008 38.8511 54.9531 38.4034 54.9531 37.8511C54.9531 37.2988 55.4008 36.8511 55.9531 36.8511C56.5054 36.8511 56.9531 37.2988 56.9531 37.8511Z" fill="#F9BF02" stroke="#F9BF02" stroke-width="3"/>
<path d="M8.19922 2L12.5872 17.5388" stroke="#F9BF02" stroke-width="3" stroke-miterlimit="10" stroke-linecap="round" stroke-linejoin="round"/>
</svg>
