<svg width="72" height="72" viewBox="0 0 72 72" fill="none" xmlns="http://www.w3.org/2000/svg">
<g clip-path="url(#clip0_2_27698)">
<mask id="path-1-inside-1_2_27698" fill="white">
<path d="M15.839 0C12.7171 0 10.1015 0.7875 8.32397 2.565C6.54647 4.3425 5.75897 6.95812 5.75897 10.08V11.52H1.43897C1.39397 11.52 1.34897 11.52 1.30397 11.52C0.510843 11.5594 -0.107908 12.2344 -0.0685325 13.0275C-0.0291576 13.8206 0.645843 14.4394 1.43897 14.4H5.75897V41.49C5.71959 41.6813 5.71959 41.8838 5.75897 42.075V50.13C5.71959 50.3213 5.71959 50.5238 5.75897 50.715V59.04C5.75897 59.8331 6.40584 60.48 7.19897 60.48H14.399V70.56C14.399 71.3531 15.0458 72 15.839 72H61.919C62.7121 72 63.359 71.3531 63.359 70.56V16.065C63.3646 15.9919 63.3646 15.9131 63.359 15.84V14.4H70.559C71.0765 14.4056 71.5602 14.1356 71.8246 13.6856C72.0833 13.2356 72.0833 12.6844 71.8246 12.2344C71.5602 11.7844 71.0765 11.5144 70.559 11.52H63.359V10.08C63.359 7.11 62.414 4.53938 60.614 2.745C58.814 0.950625 56.2377 0 53.279 0H15.839ZM15.839 2.88H53.279C55.6415 2.88 57.3965 3.58312 58.589 4.77C59.2358 5.41688 59.7027 6.26062 60.029 7.245C58.7746 6.28875 57.3908 5.76 56.159 5.76C54.7077 5.76 52.7671 6.15375 51.299 7.74C49.8308 9.32625 48.959 11.8856 48.959 15.84V37.575C47.654 37.8563 46.5177 38.4806 45.449 39.015C44.009 39.735 42.7208 40.32 41.759 40.32C40.7971 40.32 39.509 39.735 38.069 39.015C36.629 38.295 35.0371 37.44 33.119 37.44C31.2008 37.44 29.609 38.295 28.169 39.015C26.729 39.735 25.4408 40.32 24.479 40.32C23.5171 40.32 22.229 39.735 20.789 39.015C19.349 38.295 17.7571 37.44 15.839 37.44C13.9208 37.44 12.329 38.295 10.889 39.015C10.079 39.42 9.32522 39.8081 8.63897 40.05V13.23C8.67834 13.0388 8.67834 12.8363 8.63897 12.645V10.08C8.63897 7.44188 9.29147 5.7375 10.394 4.635C11.4965 3.5325 13.2008 2.88 15.839 2.88ZM56.159 8.64C57.0477 8.64 58.0208 8.89875 58.859 9.855C59.2021 10.2488 59.5283 10.8056 59.804 11.52H52.424C52.7052 10.665 53.0483 10.0688 53.414 9.675C54.2127 8.81438 55.169 8.64 56.159 8.64ZM51.884 14.4H60.389C60.4283 14.8444 60.479 15.3225 60.479 15.84C60.479 15.885 60.479 15.93 60.479 15.975V69.12H17.279V60.48H50.399C51.1921 60.48 51.839 59.8331 51.839 59.04V47.79C51.8783 47.5988 51.8783 47.3963 51.839 47.205V39.15C51.8783 38.9588 51.8783 38.7563 51.839 38.565V15.84C51.839 15.3281 51.8558 14.8444 51.884 14.4ZM15.839 40.32C16.8008 40.32 18.089 40.905 19.529 41.625C20.969 42.345 22.5608 43.2 24.479 43.2C26.3971 43.2 27.989 42.345 29.429 41.625C30.869 40.905 32.1571 40.32 33.119 40.32C34.0808 40.32 35.369 40.905 36.809 41.625C38.249 42.345 39.8408 43.2 41.759 43.2C43.6771 43.2 45.269 42.345 46.709 41.625C47.519 41.22 48.2727 40.8319 48.959 40.59V46.215C47.654 46.4963 46.5177 47.1206 45.449 47.655C44.009 48.375 42.7208 48.96 41.759 48.96C40.7971 48.96 39.509 48.375 38.069 47.655C36.629 46.935 35.0371 46.08 33.119 46.08C31.2008 46.08 29.609 46.935 28.169 47.655C26.729 48.375 25.4408 48.96 24.479 48.96C23.5171 48.96 22.229 48.375 20.789 47.655C19.349 46.935 17.7571 46.08 15.839 46.08C13.9208 46.08 12.329 46.935 10.889 47.655C10.079 48.06 9.32522 48.4481 8.63897 48.69V43.065C9.94397 42.7838 11.0802 42.1594 12.149 41.625C13.589 40.905 14.8771 40.32 15.839 40.32ZM15.839 48.96C16.8008 48.96 18.089 49.545 19.529 50.265C20.969 50.985 22.5608 51.84 24.479 51.84C26.3971 51.84 27.989 50.985 29.429 50.265C30.869 49.545 32.1571 48.96 33.119 48.96C34.0808 48.96 35.369 49.545 36.809 50.265C38.249 50.985 39.8408 51.84 41.759 51.84C43.6771 51.84 45.269 50.985 46.709 50.265C47.519 49.86 48.2727 49.4719 48.959 49.23V57.6H8.63897V51.705C9.94397 51.4238 11.0802 50.7994 12.149 50.265C13.589 49.545 14.8771 48.96 15.839 48.96Z"/>
</mask>
<path d="M15.839 0C12.7171 0 10.1015 0.7875 8.32397 2.565C6.54647 4.3425 5.75897 6.95812 5.75897 10.08V11.52H1.43897C1.39397 11.52 1.34897 11.52 1.30397 11.52C0.510843 11.5594 -0.107908 12.2344 -0.0685325 13.0275C-0.0291576 13.8206 0.645843 14.4394 1.43897 14.4H5.75897V41.49C5.71959 41.6813 5.71959 41.8838 5.75897 42.075V50.13C5.71959 50.3213 5.71959 50.5238 5.75897 50.715V59.04C5.75897 59.8331 6.40584 60.48 7.19897 60.48H14.399V70.56C14.399 71.3531 15.0458 72 15.839 72H61.919C62.7121 72 63.359 71.3531 63.359 70.56V16.065C63.3646 15.9919 63.3646 15.9131 63.359 15.84V14.4H70.559C71.0765 14.4056 71.5602 14.1356 71.8246 13.6856C72.0833 13.2356 72.0833 12.6844 71.8246 12.2344C71.5602 11.7844 71.0765 11.5144 70.559 11.52H63.359V10.08C63.359 7.11 62.414 4.53938 60.614 2.745C58.814 0.950625 56.2377 0 53.279 0H15.839ZM15.839 2.88H53.279C55.6415 2.88 57.3965 3.58312 58.589 4.77C59.2358 5.41688 59.7027 6.26062 60.029 7.245C58.7746 6.28875 57.3908 5.76 56.159 5.76C54.7077 5.76 52.7671 6.15375 51.299 7.74C49.8308 9.32625 48.959 11.8856 48.959 15.84V37.575C47.654 37.8563 46.5177 38.4806 45.449 39.015C44.009 39.735 42.7208 40.32 41.759 40.32C40.7971 40.32 39.509 39.735 38.069 39.015C36.629 38.295 35.0371 37.44 33.119 37.44C31.2008 37.44 29.609 38.295 28.169 39.015C26.729 39.735 25.4408 40.32 24.479 40.32C23.5171 40.32 22.229 39.735 20.789 39.015C19.349 38.295 17.7571 37.44 15.839 37.44C13.9208 37.44 12.329 38.295 10.889 39.015C10.079 39.42 9.32522 39.8081 8.63897 40.05V13.23C8.67834 13.0388 8.67834 12.8363 8.63897 12.645V10.08C8.63897 7.44188 9.29147 5.7375 10.394 4.635C11.4965 3.5325 13.2008 2.88 15.839 2.88ZM56.159 8.64C57.0477 8.64 58.0208 8.89875 58.859 9.855C59.2021 10.2488 59.5283 10.8056 59.804 11.52H52.424C52.7052 10.665 53.0483 10.0688 53.414 9.675C54.2127 8.81438 55.169 8.64 56.159 8.64ZM51.884 14.4H60.389C60.4283 14.8444 60.479 15.3225 60.479 15.84C60.479 15.885 60.479 15.93 60.479 15.975V69.12H17.279V60.48H50.399C51.1921 60.48 51.839 59.8331 51.839 59.04V47.79C51.8783 47.5988 51.8783 47.3963 51.839 47.205V39.15C51.8783 38.9588 51.8783 38.7563 51.839 38.565V15.84C51.839 15.3281 51.8558 14.8444 51.884 14.4ZM15.839 40.32C16.8008 40.32 18.089 40.905 19.529 41.625C20.969 42.345 22.5608 43.2 24.479 43.2C26.3971 43.2 27.989 42.345 29.429 41.625C30.869 40.905 32.1571 40.32 33.119 40.32C34.0808 40.32 35.369 40.905 36.809 41.625C38.249 42.345 39.8408 43.2 41.759 43.2C43.6771 43.2 45.269 42.345 46.709 41.625C47.519 41.22 48.2727 40.8319 48.959 40.59V46.215C47.654 46.4963 46.5177 47.1206 45.449 47.655C44.009 48.375 42.7208 48.96 41.759 48.96C40.7971 48.96 39.509 48.375 38.069 47.655C36.629 46.935 35.0371 46.08 33.119 46.08C31.2008 46.08 29.609 46.935 28.169 47.655C26.729 48.375 25.4408 48.96 24.479 48.96C23.5171 48.96 22.229 48.375 20.789 47.655C19.349 46.935 17.7571 46.08 15.839 46.08C13.9208 46.08 12.329 46.935 10.889 47.655C10.079 48.06 9.32522 48.4481 8.63897 48.69V43.065C9.94397 42.7838 11.0802 42.1594 12.149 41.625C13.589 40.905 14.8771 40.32 15.839 40.32ZM15.839 48.96C16.8008 48.96 18.089 49.545 19.529 50.265C20.969 50.985 22.5608 51.84 24.479 51.84C26.3971 51.84 27.989 50.985 29.429 50.265C30.869 49.545 32.1571 48.96 33.119 48.96C34.0808 48.96 35.369 49.545 36.809 50.265C38.249 50.985 39.8408 51.84 41.759 51.84C43.6771 51.84 45.269 50.985 46.709 50.265C47.519 49.86 48.2727 49.4719 48.959 49.23V57.6H8.63897V51.705C9.94397 51.4238 11.0802 50.7994 12.149 50.265C13.589 49.545 14.8771 48.96 15.839 48.96Z" stroke="#058FA2" stroke-width="4" mask="url(#path-1-inside-1_2_27698)"/>
</g>
<defs>
<clipPath id="clip0_2_27698">
<rect width="72" height="72" fill="white"/>
</clipPath>
</defs>
</svg>
