<svg width="111" height="111" viewBox="0 0 111 111" fill="none" xmlns="http://www.w3.org/2000/svg">
<g clip-path="url(#clip0_2982_8373)">
<path d="M45.9543 51.5464C46.5783 51.3418 47.263 51.4565 47.7862 51.8533C48.3095 52.2502 48.6045 52.8786 48.5757 53.5347L47.358 81.2149C47.0471 91.0826 39.9382 99.1713 31.133 98.9281C22.1582 98.6803 16.2077 89.4472 16.7843 79.7795L18.0018 52.1024C18.0308 51.444 18.3822 50.8422 18.9414 50.4934C19.5006 50.1446 20.1957 50.0937 20.7997 50.3572C28.7543 53.8281 37.7077 54.2514 45.9543 51.5464Z" stroke="#058FA2" stroke-width="4" stroke-linecap="round" stroke-linejoin="round"/>
<path d="M55.0408 60.8014C55.037 60.8031 55.0332 60.8047 55.0293 60.8063C55.0203 60.8101 55.0113 60.8138 55.0022 60.8175C41.4897 66.2558 22.707 65.4714 10.4896 57.0474C9.14467 56.2171 8.34243 54.7327 8.38595 53.1515L8.16831 25.783C8.10382 24.0698 8.97629 22.4586 10.4419 21.5755C22.5079 13.0856 41.0887 12.2601 54.5978 17.4426L54.6268 17.454C63.0077 20.8198 71.9552 22.5509 80.9868 22.5539C81.1272 22.5539 81.2671 22.5688 81.4044 22.5981L82.4629 22.8245C82.8861 22.915 83.2685 23.1404 83.5527 23.4667L84.4414 24.487C84.7574 24.8498 84.9321 25.3144 84.9333 25.7956L85.0001 52.6526C85.0012 53.1082 84.8468 53.5505 84.5623 53.9063C84.4825 54.0062 84.4481 54.0593 84.3855 54.1558C84.3543 54.2041 84.316 54.2631 84.2616 54.3442C84.0965 54.5901 83.8219 54.964 83.3316 55.2816C82.8864 55.5699 82.3448 55.6695 81.8261 55.5586L80.9814 55.3779C72.062 55.4551 63.2454 57.2981 55.0408 60.8014Z" stroke="#058FA2" stroke-width="4" stroke-linecap="round" stroke-linejoin="round"/>
<path d="M84.7701 25.4643C84.7949 24.489 85.5197 23.674 86.4854 23.5354L105.848 20.7576C105.912 20.7483 105.977 20.7422 106.043 20.7393C108.816 20.6161 110.671 22.9426 110.816 25.409C110.819 25.4676 110.82 25.5262 110.819 25.5848L110.039 52.2645L110.038 52.2933C109.983 53.5422 109.498 54.7684 108.647 55.6981C107.792 56.6325 106.58 57.2393 105.247 57.2144C105.222 57.2139 105.198 57.213 105.173 57.2117L85.9307 56.1403C84.8513 56.0802 84.0151 55.1733 84.0425 54.0926L84.4063 39.7784L84.7701 25.4643Z" stroke="#FFCC09" stroke-width="4" stroke-linecap="round" stroke-linejoin="round"/>
<path d="M31.4911 50.3227C23.8334 48.6847 18.9534 41.1491 20.5913 33.4914C22.2292 25.8336 29.7649 20.9536 37.4226 22.5916C45.0803 24.2295 49.9603 31.7651 48.3224 39.4228C46.6845 47.0806 39.1489 51.9606 31.4911 50.3227Z" stroke="#FFCC09" stroke-width="4"/>
</g>
<defs>
<clipPath id="clip0_2982_8373">
<rect width="109.601" height="109.601" fill="white" transform="matrix(-0.999967 -0.00807081 -0.00807081 0.999967 110.48 0.884766)"/>
</clipPath>
</defs>
</svg>
