<svg width="81" height="101" viewBox="0 0 81 101" fill="none" xmlns="http://www.w3.org/2000/svg">
<path fill-rule="evenodd" clip-rule="evenodd" d="M28.2375 0.0413231C24.6832 0.405889 19.7769 2.06096 16.0449 4.15434C13.1271 5.79082 8.62794 9.90947 6.31447 13.0612C3.43615 16.9825 1.34375 22.1065 0.445415 27.4323C0.0341073 29.872 -0.00825828 30.7108 0.082351 34.64C0.182608 38.9891 0.329009 40.1766 1.18476 43.5785C1.76408 45.8816 2.94493 49.1255 3.70609 50.505C4.15473 51.3181 4.0937 51.5674 3.25053 52.3644C-0.074748 55.5076 -0.953994 60.6905 1.10233 65.0267C1.49267 65.8496 2.77756 67.4673 3.69749 68.294C6.05207 70.4097 9.34883 71.3509 12.5929 70.8334C14.325 70.5572 16.5332 69.6304 17.5209 68.7651C17.856 68.4713 18.2489 68.2311 18.3938 68.2311C18.539 68.2311 19.1613 68.5626 19.7771 68.9677C20.7891 69.6338 24.5565 71.5464 26.1401 72.1983C29.433 73.5535 33.6325 74.446 37.5711 74.6272C40.3141 74.7536 44.5885 74.4753 45.5961 74.1051C45.8543 74.0102 46.4573 73.8723 46.9359 73.7986L47.8062 73.6649L54.1069 86.2624C57.5932 93.233 60.6609 99.1122 60.9747 99.425C61.9144 100.361 62.8823 100.846 64.0475 100.965C65.4981 101.113 66.5508 100.808 68.1347 99.7835C68.8493 99.321 69.4788 98.9424 69.5331 98.9424C69.5876 98.9424 70.2288 98.5446 70.9579 98.0584C71.6872 97.5723 72.5285 97.0318 72.8278 96.8571C73.1271 96.6827 73.9065 96.2108 74.5598 95.8086C80.3817 92.2254 80.85 91.7298 80.9415 89.0531L81 87.3473L79.9976 85.9477C79.1442 84.7559 75.7648 80.2868 74.9736 79.3039C74.835 79.1315 74.409 78.6036 74.0271 78.1306C73.6449 77.6576 72.5301 76.2112 71.5496 74.9165C70.569 73.6219 69.4473 72.1755 69.057 71.7025C67.5045 69.8214 63.3696 64.2597 63.3696 64.0529C63.3696 63.9317 63.9246 63.1065 64.6027 62.219C67.8012 58.0337 69.7697 53.5285 70.9759 47.6324C71.3749 45.6825 71.4405 44.7073 71.4319 40.8625C71.4198 35.3046 71.0718 33.1515 69.3049 27.7005C68.6423 25.6569 66.2047 20.6912 64.7409 18.4036C62.3299 14.6359 58.3963 10.4777 54.4968 7.57479C53.1586 6.57886 52.0164 5.76386 51.958 5.76386C51.8999 5.76386 51.4941 5.52172 51.0564 5.22568C50.2264 4.66432 46.8111 2.95932 45.5414 2.47211C40.8376 0.668086 37.987 0.109015 33.0616 0.0239842C30.8698 -0.0138304 28.6989 -0.00610189 28.2375 0.0413231ZM29.4828 3.47222C23.9023 3.92975 18.1602 6.28178 13.9814 9.82173C11.8167 11.6556 10.303 13.3416 8.62647 15.7866C7.73841 17.0817 6.51771 19.3073 6.15988 20.2838C6.03362 20.6286 5.72844 21.4277 5.48199 22.0597C4.87499 23.6149 4.52094 24.893 3.97666 27.4916C3.38371 30.3237 3.3338 36.5491 3.88039 39.5045C4.59813 43.3856 6.61482 49.465 7.26733 49.7142C7.41562 49.7711 7.98591 49.6829 8.5346 49.5183C10.9943 48.781 14.4922 49.4418 16.9134 51.1011C19.8922 53.1424 21.5291 56.0328 21.7768 59.689C21.8774 61.1735 21.8198 61.747 21.4473 62.9688C21.1989 63.7832 20.9026 64.5067 20.7889 64.5766C20.3407 64.8526 20.611 65.4913 21.3684 65.9467C22.5182 66.6383 26.0348 68.44 26.2345 68.44C26.3951 68.44 27.0092 68.0667 30.7209 65.7113C31.5468 65.1871 32.9305 64.3289 33.7957 63.8038C34.6609 63.2788 36.937 61.8657 38.8537 60.6638C40.7705 59.4616 42.4694 58.4164 42.6291 58.341C42.7889 58.2656 43.8634 57.5949 45.017 56.8506C46.1706 56.1062 47.5392 55.2588 48.0583 54.9671C48.5774 54.6757 49.71 53.9683 50.5752 53.3954C51.4404 52.8224 52.3371 52.2581 52.5678 52.1413C52.7985 52.0245 53.2402 51.7658 53.5492 51.5665C53.8583 51.3672 54.7852 50.781 55.6091 50.2639C56.4329 49.7468 57.3315 49.1828 57.6056 49.0104C58.4557 48.4762 61.9836 46.2875 62.4209 46.023C63.4367 45.4086 65.8607 43.882 66.6835 43.3386C67.1796 43.0108 67.6752 42.7428 67.7847 42.7428C67.8994 42.7428 67.9839 41.6788 67.9839 40.2334C67.9839 27.6934 60.1697 14.3678 49.124 8.0716C44.2848 5.31322 39.9313 3.94166 34.5646 3.48496C33.091 3.3594 31.7723 3.27019 31.6345 3.2867C31.4965 3.30299 30.5283 3.38656 29.4828 3.47222ZM66.2695 47.6332C64.7629 48.626 62.7231 49.905 61.9049 50.3698C61.4993 50.6003 60.3505 51.3208 59.3524 51.971C58.3542 52.621 57.1515 53.3724 56.6798 53.6409C55.7781 54.154 55.6428 54.4417 56.0892 54.8976C56.2377 55.0492 57.3747 56.5088 58.6155 58.1404C59.9862 59.9428 60.9781 61.0668 61.1425 61.0039C61.7399 60.7755 64.5689 56.1118 65.566 53.7111C66.492 51.4821 67.6473 47.3227 67.3985 47.113C67.3167 47.0438 66.8087 47.278 66.2695 47.6332ZM8.1902 53.2605C5.51387 54.3571 3.82334 56.548 3.49006 59.352C2.9076 64.2501 7.47309 68.3928 12.3435 67.3858C14.8441 66.8687 16.4426 65.5719 17.6683 63.0659C18.2705 61.8346 18.3103 61.6137 18.2359 59.92C18.1723 58.4741 18.0385 57.858 17.5876 56.9327C16.9824 55.6911 15.6392 54.2296 14.6042 53.6867C12.6357 52.654 10.0842 52.4843 8.1902 53.2605ZM51.6715 56.7097C50.8279 57.2465 50.5523 57.8262 51.0077 58.1064C51.1302 58.1818 51.3202 58.4459 51.4303 58.6932C51.5402 58.9406 51.794 59.395 51.9941 59.7027C52.1942 60.0107 52.7828 60.9339 53.3019 61.7545C53.821 62.5752 54.4095 63.4984 54.6096 63.8064C54.8097 64.1141 55.0734 64.5541 55.1954 64.7839C55.3175 65.0137 55.5535 65.4368 55.7198 65.724C56.586 67.2197 55.1789 68.8543 53.6513 68.1266C52.9854 67.8095 52.8797 67.6574 49.3675 61.9635C48.6233 60.757 47.9062 59.6561 47.7741 59.5174C47.5882 59.3221 47.285 59.4313 46.4328 60.0009C45.8272 60.4058 45.3358 60.8015 45.3411 60.8802C45.3463 60.959 49.4283 69.1447 54.4125 79.0709C61.5222 93.2307 63.5942 97.1877 64.0301 97.4394C64.5515 97.7403 64.6587 97.7233 65.7732 97.1616C66.4264 96.8323 67.0061 96.4901 67.0615 96.4009C67.1947 96.1861 66.7475 95.3918 64.8422 92.459C64.21 91.486 63.5351 90.4021 63.3421 90.0503C63.1493 89.6985 62.4427 88.5703 61.772 87.5433C60.6419 85.813 60.1798 85.0442 59.4566 83.6912C59.3029 83.4039 59.1768 82.5795 59.176 81.859C59.1747 80.479 59.6275 79.4629 60.6893 78.4638C62.5426 76.7197 65.5023 76.797 67.2438 78.6349C67.8224 79.2456 68.8149 80.7496 71.5899 85.2211C72.4328 86.5795 73.2642 87.9091 73.4373 88.1757C73.6103 88.4423 74.0617 89.1806 74.4403 89.8167C74.8189 90.4527 75.2404 91.0101 75.3772 91.0556C75.6633 91.1505 76.928 90.343 77.3402 89.8021C77.9027 89.064 77.5864 88.3301 75.653 85.8849C74.2469 84.1067 70.7232 79.5439 70.0814 78.6704C69.6776 78.1208 68.5962 76.6988 67.6779 75.5103C66.7599 74.3219 65.7116 72.9606 65.3485 72.4849C64.9854 72.0094 64.5811 71.4923 64.4502 71.3358C63.925 70.7085 62.389 68.7145 61.7965 67.8912C61.4504 67.41 60.0818 65.6311 58.7552 63.9378C56.1361 60.595 55.1185 59.2644 53.8262 57.4934C53.3648 56.861 52.8868 56.3015 52.7641 56.2501C52.6414 56.1987 52.1498 56.4056 51.6715 56.7097ZM41.8939 62.762C41.8329 62.8602 40.8756 63.4963 39.7665 64.1757C38.6572 64.8549 37.4971 65.5724 37.1885 65.77C36.8798 65.9674 36.3636 66.2775 36.0416 66.4588C35.7195 66.6402 34.7756 67.2293 33.9442 67.7679C33.1126 68.3067 32.0548 68.9508 31.5934 69.1994C30.3645 69.8613 30.513 70.1621 32.2226 70.4745C35.4338 71.0609 37.3448 71.1984 40.7173 71.0856C43.9828 70.9763 45.6741 70.7041 45.9984 70.2357C46.0768 70.1226 45.9793 69.7898 45.7815 69.4961C45.5839 69.2026 44.7347 67.5772 43.8945 65.8843C42.3843 62.8414 42.1102 62.4135 41.8939 62.762ZM63.0455 81.0703C62.7624 81.3523 62.5306 81.6751 62.5306 81.7877C62.5306 82.0718 62.8867 82.853 63.3203 83.5197C63.8006 84.2584 65.4211 86.8187 65.7399 87.3425C66.2122 88.1186 67.8354 90.6886 68.382 91.5257C68.6822 91.9853 69.1166 92.722 69.3473 93.1628C69.9801 94.3716 70.3129 94.4583 71.4328 93.7056C72.389 93.0627 72.5616 92.806 72.191 92.5778C72.0821 92.5108 71.4451 91.5571 70.7752 90.4581C70.1051 89.3594 69.4154 88.2436 69.2424 87.9787C69.0694 87.7137 68.5572 86.8992 68.1041 86.1686C64.5014 80.3589 64.1326 79.9872 63.0455 81.0703Z" fill="#058FA2"/>
<circle cx="11" cy="60" r="9" stroke="#FDC114" stroke-width="4"/>
</svg>
