<svg width="80" height="78" viewBox="0 0 80 78" fill="none" xmlns="http://www.w3.org/2000/svg">
<path d="M14.625 1.72343C14.625 2.17656 17.525 5.43906 21.0594 8.97343L27.5391 15.4531H15.9844C5.33598 15.4531 4.33911 15.5437 3.11567 16.3141C0.532858 18.0359 0.623483 17.0844 0.578171 46.4016C0.578171 76.1266 0.532858 75.4016 3.29692 76.8516C4.42973 77.4406 7.96411 77.5312 27.9016 77.5312C40.6797 77.5312 51.2829 77.3953 51.4641 77.2594C51.6 77.1234 51.6 76.7156 51.4641 76.3531C51.2829 75.8094 47.5219 75.7188 27.9016 75.7188H4.61098L3.52348 74.5859L2.39067 73.4984V46.6281C2.43598 18.2625 2.39067 18.9422 4.52036 17.8094C5.92505 17.0391 74.0751 17.0391 75.4797 17.8094C77.6094 18.9422 77.5641 18.2625 77.6094 46.5375C77.6094 72.275 77.5641 73.4078 76.7485 74.4047C75.9329 75.4469 75.525 75.4922 69.1813 75.7188C63.2454 75.9 62.4297 76.0359 62.2938 76.7609C62.1579 77.4859 62.7016 77.5312 68.7735 77.5312C73.8032 77.5312 75.7063 77.35 76.7032 76.8516C79.4672 75.4016 79.4219 76.1266 79.4219 46.4016C79.3766 17.0844 79.4672 18.0359 76.8844 16.3141C75.661 15.5437 74.6641 15.4531 64.0157 15.4531H52.461L58.9407 8.97343C64.786 3.08281 66.3719 0.953125 64.786 0.953125C64.4688 0.953125 60.9797 4.21562 56.9922 8.20312L49.7422 15.4531H40H30.2579L23.0079 8.20312C19.0204 4.21562 15.5313 0.953125 15.2141 0.953125C14.8969 0.953125 14.625 1.31562 14.625 1.72343Z" fill="#058FA2"/>
<path d="M8.91563 23.3375L7.375 24.8781V46.2656C7.375 65.4328 7.46563 67.7891 8.14531 68.9219C9.59531 71.4141 9.68594 71.4141 28.4 71.4141C44.35 71.4141 45.6641 71.3687 45.8 70.6437C45.9359 69.9187 44.7125 69.8281 28.7172 69.7375L11.5438 69.6016L10.3656 68.5141L9.1875 67.4266V46.7188C9.1875 26.4641 9.1875 25.9656 10.1391 24.7875L11.0453 23.6094H39.8188H68.5922L69.6797 24.7422L70.8125 25.8297V46.6281V67.4266L69.6344 68.5141C68.6375 69.4656 67.9578 69.6016 64.65 69.7828C61.3422 69.9187 60.7984 70.0547 60.9344 70.6891C61.0703 71.2781 61.75 71.4141 64.9672 71.4141C69.3172 71.4141 70.7219 70.9156 71.8547 68.9219C72.5344 67.7891 72.625 65.4328 72.625 46.2656V24.8781L71.0844 23.3375L69.5438 21.7969H40H10.4563L8.91563 23.3375Z" fill="#058FA2"/>
<path d="M20.3352 30.225C17.2539 31.1766 14.0368 34.4844 13.0852 37.7016C11.2727 43.7281 13.2664 50.3438 18.4774 55.6C22.0118 59.1797 25.5914 60.9922 30.9383 61.9437C33.2039 62.3062 35.9227 62.9406 36.9649 63.3031C41.6321 64.9344 46.9336 68.7406 52.4618 74.3141C55.2258 77.1234 55.8149 77.5312 57.2649 77.5312C59.2586 77.5312 60.3914 76.3984 60.3914 74.4047C60.3914 73.1359 59.7118 72.1844 55.8602 68.1516C48.7008 60.6297 45.8914 55.3734 44.6227 47.0359C42.8555 35.5719 30.5758 27.0984 20.3352 30.225ZM32.0711 33.3062C39.4118 36.9312 44.2602 45.3141 42.7649 51.8844C41.3602 58.0922 35.7868 61.3094 29.1711 59.6781C23.3711 58.2281 18.4774 54.15 15.8039 48.5312C14.6711 46.0844 14.4446 45.0422 14.3993 42.1422C14.3993 39.1062 14.5352 38.4719 15.7586 36.5234C19.1571 31.0406 25.1383 29.8625 32.0711 33.3062ZM45.7102 57.6844L46.7524 59.8141L45.7555 60.1312C44.2149 60.5844 43.1727 61.7172 43.1727 62.85V63.8469L40.4539 62.6687C38.9586 61.9891 37.7352 61.3547 37.7352 61.2188C37.7352 61.0828 38.5961 60.4937 39.593 59.95C40.7258 59.3156 41.9946 57.9562 42.8555 56.5969C43.6711 55.3281 44.3508 54.6031 44.4414 54.9203C44.5774 55.2828 45.1211 56.5062 45.7102 57.6844ZM52.8696 67.9703C56.9477 72.0484 58.6243 74.0422 58.4883 74.6312C58.1258 76.7156 56.6758 75.8094 50.8305 70.0094C45.4836 64.6625 44.4414 63.2578 45.3024 62.4422C46.118 61.5812 47.5227 62.6234 52.8696 67.9703Z" fill="#058FA2"/>
<path d="M23.3709 34.7563C23.1896 35.2094 23.824 36.161 25.0928 37.475L27.0412 39.4688L24.685 41.825L22.3287 44.1813L20.335 42.2328C19.0209 40.9641 18.0693 40.3297 17.6162 40.511C16.4834 40.9641 16.7553 41.7797 18.7943 43.8641L20.6975 45.8125L19.474 47.0813C17.0725 49.5735 18.5678 51.0235 21.06 48.6672L22.374 47.4438L24.685 49.8L27.0412 52.111L25.8178 53.425C24.5037 54.7844 24.1865 56.2344 25.1834 56.2344C25.5006 56.2344 26.3615 55.6453 27.0865 54.875L28.3553 53.5156L30.5303 55.5547C31.935 56.8688 32.9771 57.5031 33.385 57.3219C34.4725 56.9141 34.2912 56.3703 32.0709 54.0141L30.0771 51.8844L32.4334 49.5281L34.835 47.1719L36.8287 49.211C37.9162 50.3438 39.0943 51.25 39.4115 51.25C40.5443 51.25 39.9553 49.6641 38.0975 47.761L36.1943 45.8125L37.6443 44.3172C38.46 43.5016 39.0943 42.5953 39.0943 42.2781C39.0943 41.2813 37.5537 41.6891 36.149 43.0938L34.7443 44.4531L32.3881 42.0516L30.0318 39.65L31.3912 38.336C32.9318 36.886 33.2037 35.3906 31.935 35.3906C31.4818 35.3906 30.5303 36.025 29.8053 36.75L28.4912 38.1094L26.4068 36.0703C24.1412 33.85 23.7787 33.6688 23.3709 34.7563ZM31.1646 43.5469L33.4303 45.8125L31.0287 48.2141L28.6725 50.5703L26.3162 48.2141L23.9146 45.8125L26.1803 43.5469C27.4037 42.3235 28.5365 41.2813 28.6725 41.2813C28.8084 41.2813 29.9412 42.3235 31.1646 43.5469Z" fill="#FDC114"/>
<path d="M43.1719 33.5781C43.1719 34.4391 43.4891 34.4844 47.7031 34.4844C51.9172 34.4844 52.2344 34.4391 52.2344 33.5781C52.2344 32.7172 51.9172 32.6719 47.7031 32.6719C43.4891 32.6719 43.1719 32.7172 43.1719 33.5781Z" fill="#FDC114"/>
<path d="M54.6821 33.9859C50.4227 35.9344 49.018 41.3719 51.6008 45.7672C53.9571 49.8 60.1649 50.525 63.6993 47.2172C65.6024 45.4953 66.2821 43.9094 66.2821 41.2359C66.2821 35.1188 60.3461 31.4031 54.6821 33.9859ZM60.8446 35.6172C62.4758 36.4328 62.4758 36.6141 61.2071 37.9734C59.8477 39.4234 59.8477 42.55 61.2071 44.4078C62.4305 46.0844 62.2946 46.4922 60.1196 47.1719C58.8508 47.625 58.0352 47.625 56.7211 47.2172C54.5008 46.5375 54.2289 46.0844 55.3618 44.6344C56.0414 43.7734 56.3133 42.7766 56.3133 41.2813C56.3133 39.7859 56.0414 38.7891 55.3618 37.9281C54.3649 36.6594 54.5008 35.9797 56.0414 35.3906C57.5368 34.7563 59.3946 34.8922 60.8446 35.6172ZM54.5008 41.0094C54.5008 42.8219 53.1868 44.8156 52.643 43.9547C52.1899 43.2297 52.0993 39.8766 52.5071 38.7891C52.9602 37.6109 54.5008 39.2875 54.5008 41.0094ZM64.4243 41.2813C64.4243 42.1422 64.243 43.1844 64.0164 43.5469C63.6539 44.1359 63.518 44.1359 62.8383 43.4563C61.7961 42.4141 61.8414 40.1484 62.8836 38.9703C63.6993 38.1094 63.7899 38.1094 64.0618 38.8797C64.243 39.3328 64.4243 40.4203 64.4243 41.2813Z" fill="#FDC114"/>
<path d="M50.9639 51.5671C51.0998 52.2468 51.6889 52.4281 54.2264 52.5187C56.3561 52.6093 57.4889 52.4734 57.7154 52.0656C58.3498 51.0687 57.6701 50.7968 54.2264 50.7968C51.2358 50.7968 50.8279 50.8874 50.9639 51.5671Z" fill="#FDC114"/>
</svg>
