<svg width="120" height="120" viewBox="0 0 120 120" fill="none" xmlns="http://www.w3.org/2000/svg">
<g clip-path="url(#clip0_2_27664)">
<path d="M13.0436 51.7999C13.0436 52.403 12.5546 52.892 11.9515 52.892C11.3484 52.892 10.8594 52.4029 10.8594 51.7999C10.8594 51.1964 11.3484 50.7075 11.9515 50.7075C12.5545 50.7075 13.0436 51.1965 13.0436 51.7999Z" stroke="#058FA2" stroke-width="2.5"/>
<path d="M43.5156 64.6875V76.4062C43.5156 79.5929 40.9211 82.1875 37.7344 82.1875C34.5477 82.1875 31.9531 79.5929 31.9531 76.4062V64.6875C31.9531 61.5008 34.5477 58.9062 37.7344 58.9062C40.9211 58.9062 43.5156 61.5008 43.5156 64.6875Z" stroke="#FDC114" stroke-width="2.5"/>
<path d="M47.1094 89.375H58.8281C62.0148 89.375 64.6094 91.9696 64.6094 95.1562C64.6094 98.3429 62.0148 100.938 58.8281 100.938H47.1094C43.9227 100.938 41.3281 98.3429 41.3281 95.1562C41.3281 91.9696 43.9227 89.375 47.1094 89.375Z" stroke="#FDC114" stroke-width="2.5"/>
<path d="M16.6406 89.375H28.3594C31.5461 89.375 34.1406 91.9696 34.1406 95.1562C34.1406 98.3429 31.5461 100.938 28.3594 100.938H16.6406C13.4539 100.938 10.8594 98.3429 10.8594 95.1562C10.8594 91.9696 13.4539 89.375 16.6406 89.375Z" stroke="#FDC114" stroke-width="2.5"/>
<path d="M64.6063 51.7999C64.6063 52.4029 64.1173 52.892 63.514 52.892C62.9109 52.892 62.4219 52.4029 62.4219 51.7999C62.4219 51.1964 62.9109 50.7075 63.514 50.7075C64.1173 50.7075 64.6063 51.1966 64.6063 51.7999Z" stroke="#058FA2" stroke-width="2.5"/>
<path d="M109.141 11.9531V13.2031H110.391H117.422C118.026 13.2031 118.516 13.6929 118.516 14.2969V23.6719C118.516 30.9969 113.987 37.2872 107.577 39.8908L106.797 40.2074V41.0489V79.9219C106.797 88.2779 99.9967 95.0781 91.6406 95.0781H75.2344H73.9844V96.3281V110.391C73.9844 114.87 70.3384 118.516 65.8594 118.516H9.60938C5.13036 118.516 1.48438 114.87 1.48438 110.391V49.4531C1.48438 44.9741 5.13036 41.3281 9.60938 41.3281H65.8594C70.3384 41.3281 73.9844 44.9741 73.9844 49.4531V82.2656V83.5156H75.2344H89.2969C92.5719 83.5156 95.2344 80.8532 95.2344 77.5781V41.0489V40.2074L94.4547 39.8908C88.0438 37.2872 83.5156 30.9969 83.5156 23.6719V14.2969C83.5156 13.6929 84.0054 13.2031 84.6094 13.2031H91.6406H92.8906V11.9531V2.57812C92.8906 1.97411 93.3804 1.48438 93.9844 1.48438C94.5883 1.48438 95.0781 1.97411 95.0781 2.57812V11.9531V13.2031H96.3281H105.703H106.953V11.9531V2.57812C106.953 1.97411 107.443 1.48438 108.047 1.48438C108.651 1.48438 109.141 1.97411 109.141 2.57812V11.9531ZM73.9844 91.6406V92.8906H75.2344H91.6406C98.7927 92.8906 104.609 87.0739 104.609 79.9219V42.2702V40.8539L103.204 41.0299C101.668 41.2223 100.31 41.2158 98.8273 41.0299L97.4219 40.8538V42.2702V77.5781C97.4219 82.0571 93.7759 85.7031 89.2969 85.7031H75.2344H73.9844V86.9531V91.6406ZM86.9531 15.3906H85.7031V16.6406V23.6719C85.7031 32.1163 92.5712 38.9844 101.016 38.9844C109.46 38.9844 116.328 32.1163 116.328 23.6719V16.6406V15.3906H115.078H86.9531ZM65.8594 116.328C69.1344 116.328 71.7969 113.666 71.7969 110.391V49.4531C71.7969 46.1781 69.1344 43.5156 65.8594 43.5156H9.60938C6.33433 43.5156 3.67188 46.1781 3.67188 49.4531V110.391C3.67188 113.666 6.33433 116.328 9.60938 116.328H65.8594Z" stroke="#058FA2" stroke-width="2.5"/>
<path d="M13.0436 108.042C13.0436 108.645 12.5546 109.134 11.9515 109.134C11.3483 109.134 10.8594 108.645 10.8594 108.042C10.8594 107.439 11.3483 106.95 11.9515 106.95C12.5546 106.95 13.0436 107.439 13.0436 108.042Z" stroke="#058FA2" stroke-width="2.5"/>
<path d="M62.4219 108.042C62.4219 107.439 62.9108 106.95 63.514 106.95C64.1175 106.95 64.6063 107.439 64.6063 108.042C64.6063 108.645 64.1173 109.134 63.514 109.134C62.9108 109.134 62.4219 108.645 62.4219 108.042Z" stroke="#058FA2" stroke-width="2.5"/>
</g>
<defs>
<clipPath id="clip0_2_27664">
<rect width="120" height="120" fill="white"/>
</clipPath>
</defs>
</svg>
