<svg width="72" height="72" viewBox="0 0 72 72" fill="none" xmlns="http://www.w3.org/2000/svg">
<mask id="path-1-inside-1_2_27715" fill="white">
<path d="M19.2669 27.7563H15.47C14.2542 27.7589 13.0889 28.2431 12.2292 29.1028C11.3695 29.9625 10.8854 31.1277 10.8828 32.3435V37.7801C10.8821 37.9906 10.9649 38.1928 11.113 38.3422C11.2612 38.4917 11.4627 38.5763 11.6731 38.5774H19.2669C19.4771 38.5771 19.6786 38.4934 19.8273 38.3447C19.976 38.1961 20.0596 37.9946 20.06 37.7843V28.5467C20.0589 28.3369 19.9749 28.1361 19.8263 27.9881C19.6777 27.84 19.4766 27.7567 19.2669 27.7563ZM18.4723 36.9912H12.4691V32.3435C12.4713 31.5485 12.7882 30.7866 13.3506 30.2245C13.9129 29.6624 14.6749 29.3459 15.47 29.344H18.4723V36.9912Z"/>
</mask>
<path d="M19.2669 27.7563H15.47C14.2542 27.7589 13.0889 28.2431 12.2292 29.1028C11.3695 29.9625 10.8854 31.1277 10.8828 32.3435V37.7801C10.8821 37.9906 10.9649 38.1928 11.113 38.3422C11.2612 38.4917 11.4627 38.5763 11.6731 38.5774H19.2669C19.4771 38.5771 19.6786 38.4934 19.8273 38.3447C19.976 38.1961 20.0596 37.9946 20.06 37.7843V28.5467C20.0589 28.3369 19.9749 28.1361 19.8263 27.9881C19.6777 27.84 19.4766 27.7567 19.2669 27.7563ZM18.4723 36.9912H12.4691V32.3435C12.4713 31.5485 12.7882 30.7866 13.3506 30.2245C13.9129 29.6624 14.6749 29.3459 15.47 29.344H18.4723V36.9912Z" fill="white"/>
<path d="M19.2669 27.7563L19.2844 17.7564L19.2757 17.7563H19.2669V27.7563ZM15.47 27.7563V17.7563H15.4593L15.4486 17.7564L15.47 27.7563ZM10.8828 32.3435L0.88284 32.3221L0.882817 32.3328V32.3435H10.8828ZM10.8828 37.7801L20.8828 37.8156L20.8828 37.7979V37.7801H10.8828ZM11.6731 38.5774L11.6201 48.5773L11.6466 48.5774H11.6731V38.5774ZM19.2669 38.5774V48.5774H19.2757L19.2846 48.5774L19.2669 38.5774ZM20.06 37.7843L30.06 37.802L30.06 37.7932V37.7843H20.06ZM20.06 28.5467H30.06V28.5201L30.0599 28.4936L20.06 28.5467ZM18.4723 36.9912V46.9912H28.4723V36.9912H18.4723ZM12.4691 36.9912H2.46907V46.9912H12.4691V36.9912ZM12.4691 32.3435L2.46911 32.3155L2.46907 32.3295V32.3435H12.4691ZM15.47 29.344V19.344H15.4583L15.4467 19.344L15.47 29.344ZM18.4723 29.344H28.4723V19.344H18.4723V29.344ZM19.2669 17.7563H15.47V37.7563H19.2669V17.7563ZM15.4486 17.7564C11.5881 17.7646 7.88801 19.3019 5.15818 22.0317L19.3003 36.1738C18.2899 37.1843 16.9203 37.7533 15.4914 37.7563L15.4486 17.7564ZM5.15818 22.0317C2.42836 24.7615 0.891098 28.4616 0.88284 32.3221L20.8828 32.3649C20.8797 33.7939 20.3107 35.1634 19.3003 36.1738L5.15818 22.0317ZM0.882817 32.3435V37.7801H20.8828V32.3435H0.882817ZM0.88288 37.7446C0.872718 40.6042 1.99767 43.351 4.01073 45.3819L18.2154 31.3026C19.9321 33.0346 20.8914 35.377 20.8828 37.8156L0.88288 37.7446ZM4.01073 45.3819C6.02385 47.413 8.76058 48.5621 11.6201 48.5773L11.7262 28.5776C14.1647 28.5905 16.4986 29.5705 18.2154 31.3026L4.01073 45.3819ZM11.6731 48.5774H19.2669V28.5774H11.6731V48.5774ZM19.2846 48.5774C22.1407 48.5724 24.8786 47.4356 26.8984 45.4158L12.7562 31.2737C14.4787 29.5512 16.8135 28.5818 19.2492 28.5775L19.2846 48.5774ZM26.8984 45.4158C28.9181 43.3961 30.0549 40.6582 30.06 37.802L10.06 37.7666C10.0643 35.3309 11.0338 32.9961 12.7562 31.2737L26.8984 45.4158ZM30.06 37.7843V28.5467H10.06V37.7843H30.06ZM30.0599 28.4936C30.0447 25.644 28.9034 22.9159 26.8848 20.9044L12.7678 35.0717C11.0464 33.3563 10.073 31.0299 10.0601 28.5997L30.0599 28.4936ZM26.8848 20.9044C24.8662 18.893 22.134 17.7614 19.2844 17.7564L19.2493 37.7563C16.8192 37.7521 14.4893 36.7871 12.7678 35.0717L26.8848 20.9044ZM18.4723 26.9912H12.4691V46.9912H18.4723V26.9912ZM22.4691 36.9912V32.3435H2.46907V36.9912H22.4691ZM22.469 32.3716C22.4639 34.2197 21.7272 35.9907 20.42 37.2972L6.28116 23.1518C3.8493 25.5825 2.47874 28.8772 2.46911 32.3155L22.469 32.3716ZM20.42 37.2972C19.1128 38.6038 17.3415 39.3397 15.4933 39.344L15.4467 19.344C12.0083 19.3521 8.71301 20.7211 6.28116 23.1518L20.42 37.2972ZM15.47 39.344H18.4723V19.344H15.47V39.344ZM8.47235 29.344V36.9912H28.4723V29.344H8.47235Z" fill="#058FA2" mask="url(#path-1-inside-1_2_27715)"/>
<mask id="path-3-inside-2_2_27715" fill="white">
<path d="M19.2661 41.0286H16.8755C16.7661 41.0193 16.656 41.0329 16.5521 41.0684C16.4482 41.104 16.3529 41.1607 16.272 41.2349C16.1912 41.3092 16.1267 41.3995 16.0826 41.5C16.0384 41.6005 16.0156 41.7091 16.0156 41.8189C16.0156 41.9287 16.0384 42.0372 16.0826 42.1378C16.1267 42.2383 16.1912 42.3285 16.272 42.4028C16.3529 42.4771 16.4482 42.5338 16.5521 42.5693C16.656 42.6049 16.7661 42.6184 16.8755 42.6092H19.2661C19.4765 42.6092 19.6782 42.5256 19.8269 42.3769C19.9757 42.2282 20.0592 42.0264 20.0592 41.8161C20.0592 41.6057 19.9757 41.404 19.8269 41.2552C19.6782 41.1065 19.4765 41.0229 19.2661 41.0229V41.0286Z"/>
</mask>
<path d="M19.2661 41.0286H16.8755C16.7661 41.0193 16.656 41.0329 16.5521 41.0684C16.4482 41.104 16.3529 41.1607 16.272 41.2349C16.1912 41.3092 16.1267 41.3995 16.0826 41.5C16.0384 41.6005 16.0156 41.7091 16.0156 41.8189C16.0156 41.9287 16.0384 42.0372 16.0826 42.1378C16.1267 42.2383 16.1912 42.3285 16.272 42.4028C16.3529 42.4771 16.4482 42.5338 16.5521 42.5693C16.656 42.6049 16.7661 42.6184 16.8755 42.6092H19.2661C19.4765 42.6092 19.6782 42.5256 19.8269 42.3769C19.9757 42.2282 20.0592 42.0264 20.0592 41.8161C20.0592 41.6057 19.9757 41.404 19.8269 41.2552C19.6782 41.1065 19.4765 41.0229 19.2661 41.0229V41.0286Z" fill="white"/>
<path d="M19.2661 41.0286V51.0286H29.2661V41.0286H19.2661ZM16.8755 41.0286L16.0341 50.9931L16.454 51.0286H16.8755V41.0286ZM16.8755 42.6092V32.6092H16.454L16.0341 32.6447L16.8755 42.6092ZM19.2661 42.6092V32.6092V42.6092ZM19.2661 41.0229V31.0229H9.26611V41.0229H19.2661ZM19.2661 31.0286H16.8755V51.0286H19.2661V31.0286ZM17.7169 31.064C16.2282 30.9383 14.7297 31.1231 13.3162 31.6065L19.788 50.5304C18.5822 50.9428 17.304 51.1003 16.0341 50.9931L17.7169 31.064ZM13.3162 31.6065C11.9027 32.0899 10.6049 32.8615 9.50499 33.8724L23.0391 48.5975C22.1008 49.4599 20.9938 50.118 19.788 50.5304L13.3162 31.6065ZM9.50499 33.8724C8.40509 34.8833 7.52703 36.1116 6.92639 37.4795L25.2387 45.5205C24.7263 46.6874 23.9773 47.7351 23.0391 48.5975L9.50499 33.8724ZM6.92639 37.4795C6.32577 38.8473 6.01562 40.3249 6.01562 41.8189H26.0156C26.0156 43.0933 25.7511 44.3538 25.2387 45.5205L6.92639 37.4795ZM6.01562 41.8189C6.01562 43.3128 6.32577 44.7905 6.92639 46.1583L25.2387 38.1172C25.7511 39.284 26.0156 40.5445 26.0156 41.8189H6.01562ZM6.92639 46.1583C7.52703 47.5262 8.40509 48.7544 9.50499 49.7654L23.0391 35.0403C23.9773 35.9026 24.7263 36.9504 25.2387 38.1172L6.92639 46.1583ZM9.50499 49.7654C10.6049 50.7763 11.9027 51.5479 13.3162 52.0313L19.788 33.1074C20.9938 33.5197 22.1008 34.1779 23.0391 35.0403L9.50499 49.7654ZM13.3162 52.0313C14.7297 52.5147 16.2282 52.6994 17.7169 52.5737L16.0341 32.6447C17.304 32.5374 18.5822 32.695 19.788 33.1074L13.3162 52.0313ZM16.8755 52.6092H19.2661V32.6092H16.8755V52.6092ZM19.2661 52.6092C22.1286 52.6092 24.8739 51.4721 26.898 49.448L12.7559 35.3058C14.4825 33.5792 16.8243 32.6092 19.2661 32.6092L19.2661 52.6092ZM26.898 49.448C28.9221 47.4238 30.0592 44.6786 30.0592 41.8161H10.0592C10.0592 39.3743 11.0292 37.0325 12.7559 35.3058L26.898 49.448ZM30.0592 41.8161C30.0592 38.9535 28.9221 36.2083 26.898 34.1842L12.7559 48.3263C11.0293 46.5997 10.0592 44.2579 10.0592 41.8161H30.0592ZM26.898 34.1842C24.8739 32.1601 22.1286 31.0229 19.2661 31.0229V51.0229C16.8243 51.0229 14.4825 50.0529 12.7559 48.3263L26.898 34.1842ZM9.26611 41.0229V41.0286H29.2661V41.0229H9.26611Z" fill="#058FA2" mask="url(#path-3-inside-2_2_27715)"/>
<mask id="path-5-inside-3_2_27715" fill="white">
<path d="M66.7798 10.6198C66.7798 10.4094 66.6963 10.2077 66.5475 10.059C66.3988 9.91022 66.1971 9.82666 65.9867 9.82666H23.5911C23.3807 9.82666 23.179 9.91022 23.0303 10.059C22.8815 10.2077 22.798 10.4094 22.798 10.6198V22.279H16.3588C13.4061 22.2824 10.5753 23.4569 8.48755 25.5449C6.39981 27.6329 5.22563 30.4638 5.22266 33.4165V55.9685C5.22303 56.1788 5.30671 56.3803 5.45537 56.5289C5.60403 56.6776 5.80555 56.7613 6.01578 56.7617H9.32469C9.51695 58.2571 10.2475 59.6314 11.3796 60.6272C12.5117 61.6231 13.9678 62.1724 15.4756 62.1724C16.9834 62.1724 18.4396 61.6231 19.5717 60.6272C20.7038 59.6314 21.4343 58.2571 21.6266 56.7617H39.7672C39.9335 58.0554 40.5035 59.2638 41.3962 60.2149C42.2888 61.166 43.4586 61.8114 44.7392 62.0594C46.0198 62.3074 47.346 62.1452 48.5292 61.596C49.7123 61.0468 50.6922 60.1386 51.3294 59.0004C51.9662 60.1388 52.9457 61.0473 54.1287 61.5968C55.3118 62.1462 56.6379 62.3086 57.9185 62.0607C59.1991 61.8129 60.369 61.1675 61.2616 60.2164C62.1542 59.2652 62.7241 58.0568 62.8902 56.7631H65.9839C66.1941 56.7627 66.3957 56.679 66.5443 56.5304C66.693 56.3817 66.7767 56.1802 66.777 55.9699V45.7873L66.7798 10.6198ZM24.3842 11.4129H65.1936V44.9998H24.3842V11.4129ZM15.47 60.5867C14.5572 60.5855 13.6652 60.3139 12.9068 59.806C12.1483 59.2981 11.5575 58.5767 11.2089 57.7331C10.8602 56.8895 10.7695 55.9615 10.9482 55.0663C11.1269 54.1712 11.5669 53.3491 12.2126 52.7039C12.8583 52.0588 13.6808 51.6195 14.5762 51.4417C15.4715 51.2639 16.3994 51.3554 17.2427 51.7048C18.086 52.0542 18.8068 52.6457 19.314 53.4046C19.8212 54.1635 20.0921 55.0557 20.0923 55.9685C20.0909 57.1936 19.6032 58.368 18.7366 59.2339C17.8699 60.0998 16.6951 60.5863 15.47 60.5867ZM45.9097 60.5867C44.9969 60.5855 44.1049 60.3139 43.3465 59.806C42.588 59.2981 41.9972 58.5767 41.6485 57.7331C41.2999 56.8895 41.2092 55.9615 41.3879 55.0663C41.5665 54.1712 42.0065 53.3491 42.6523 52.7039C43.298 52.0588 44.1205 51.6195 45.0158 51.4417C45.9111 51.2639 46.8391 51.3554 47.6824 51.7048C48.5257 52.0542 49.2465 52.6457 49.7537 53.4046C50.2609 54.1635 50.5317 55.0557 50.532 55.9685C50.5305 57.1926 50.0437 58.3662 49.1783 59.2319C48.3128 60.0976 47.1394 60.5848 45.9153 60.5867H45.9097ZM56.7308 60.5867C55.818 60.5855 54.926 60.3139 54.1675 59.806C53.4091 59.2981 52.8182 58.5767 52.4696 57.7331C52.121 56.8895 52.0303 55.9615 52.209 55.0663C52.3876 54.1712 52.8276 53.3491 53.4734 52.7039C54.1191 52.0588 54.9416 51.6195 55.8369 51.4417C56.7322 51.2639 57.6602 51.3554 58.5035 51.7048C59.3468 52.0542 60.0676 52.6457 60.5748 53.4046C61.082 54.1635 61.3528 55.0557 61.3531 55.9685C61.352 57.1928 60.8653 58.3665 59.9998 59.2323C59.1343 60.0981 57.9606 60.5852 56.7364 60.5867H56.7308ZM65.188 55.1768H62.8817C62.7133 53.8856 62.1427 52.6802 61.2508 51.7315C60.3588 50.7829 59.1909 50.1391 57.9125 49.8915C56.6341 49.6439 55.3103 49.8051 54.1286 50.3522C52.947 50.8993 51.9676 51.8045 51.3294 52.9395C50.6923 51.8013 49.7125 50.8931 48.5295 50.3438C47.3465 49.7946 46.0204 49.6323 44.7398 49.8801C43.4592 50.1279 42.2894 50.7731 41.3967 51.724C40.5039 52.675 39.9337 53.8832 39.7672 55.1768H21.6266C21.4343 53.6813 20.7038 52.3071 19.5717 51.3112C18.4396 50.3154 16.9834 49.766 15.4756 49.766C13.9678 49.766 12.5117 50.3154 11.3796 51.3112C10.2475 52.3071 9.51695 53.6813 9.32469 55.1768H6.80891V33.4165C6.81188 30.8845 7.81893 28.4571 9.60919 26.6665C11.3995 24.876 13.8268 23.8686 16.3588 23.8653H22.798V45.7873C22.798 45.9976 22.8815 46.1994 23.0303 46.3481C23.179 46.4968 23.3807 46.5804 23.5911 46.5804H65.1936L65.188 55.1768Z"/>
</mask>
<path d="M66.7798 10.6198C66.7798 10.4094 66.6963 10.2077 66.5475 10.059C66.3988 9.91022 66.1971 9.82666 65.9867 9.82666H23.5911C23.3807 9.82666 23.179 9.91022 23.0303 10.059C22.8815 10.2077 22.798 10.4094 22.798 10.6198V22.279H16.3588C13.4061 22.2824 10.5753 23.4569 8.48755 25.5449C6.39981 27.6329 5.22563 30.4638 5.22266 33.4165V55.9685C5.22303 56.1788 5.30671 56.3803 5.45537 56.5289C5.60403 56.6776 5.80555 56.7613 6.01578 56.7617H9.32469C9.51695 58.2571 10.2475 59.6314 11.3796 60.6272C12.5117 61.6231 13.9678 62.1724 15.4756 62.1724C16.9834 62.1724 18.4396 61.6231 19.5717 60.6272C20.7038 59.6314 21.4343 58.2571 21.6266 56.7617H39.7672C39.9335 58.0554 40.5035 59.2638 41.3962 60.2149C42.2888 61.166 43.4586 61.8114 44.7392 62.0594C46.0198 62.3074 47.346 62.1452 48.5292 61.596C49.7123 61.0468 50.6922 60.1386 51.3294 59.0004C51.9662 60.1388 52.9457 61.0473 54.1287 61.5968C55.3118 62.1462 56.6379 62.3086 57.9185 62.0607C59.1991 61.8129 60.369 61.1675 61.2616 60.2164C62.1542 59.2652 62.7241 58.0568 62.8902 56.7631H65.9839C66.1941 56.7627 66.3957 56.679 66.5443 56.5304C66.693 56.3817 66.7767 56.1802 66.777 55.9699V45.7873L66.7798 10.6198ZM24.3842 11.4129H65.1936V44.9998H24.3842V11.4129ZM15.47 60.5867C14.5572 60.5855 13.6652 60.3139 12.9068 59.806C12.1483 59.2981 11.5575 58.5767 11.2089 57.7331C10.8602 56.8895 10.7695 55.9615 10.9482 55.0663C11.1269 54.1712 11.5669 53.3491 12.2126 52.7039C12.8583 52.0588 13.6808 51.6195 14.5762 51.4417C15.4715 51.2639 16.3994 51.3554 17.2427 51.7048C18.086 52.0542 18.8068 52.6457 19.314 53.4046C19.8212 54.1635 20.0921 55.0557 20.0923 55.9685C20.0909 57.1936 19.6032 58.368 18.7366 59.2339C17.8699 60.0998 16.6951 60.5863 15.47 60.5867ZM45.9097 60.5867C44.9969 60.5855 44.1049 60.3139 43.3465 59.806C42.588 59.2981 41.9972 58.5767 41.6485 57.7331C41.2999 56.8895 41.2092 55.9615 41.3879 55.0663C41.5665 54.1712 42.0065 53.3491 42.6523 52.7039C43.298 52.0588 44.1205 51.6195 45.0158 51.4417C45.9111 51.2639 46.8391 51.3554 47.6824 51.7048C48.5257 52.0542 49.2465 52.6457 49.7537 53.4046C50.2609 54.1635 50.5317 55.0557 50.532 55.9685C50.5305 57.1926 50.0437 58.3662 49.1783 59.2319C48.3128 60.0976 47.1394 60.5848 45.9153 60.5867H45.9097ZM56.7308 60.5867C55.818 60.5855 54.926 60.3139 54.1675 59.806C53.4091 59.2981 52.8182 58.5767 52.4696 57.7331C52.121 56.8895 52.0303 55.9615 52.209 55.0663C52.3876 54.1712 52.8276 53.3491 53.4734 52.7039C54.1191 52.0588 54.9416 51.6195 55.8369 51.4417C56.7322 51.2639 57.6602 51.3554 58.5035 51.7048C59.3468 52.0542 60.0676 52.6457 60.5748 53.4046C61.082 54.1635 61.3528 55.0557 61.3531 55.9685C61.352 57.1928 60.8653 58.3665 59.9998 59.2323C59.1343 60.0981 57.9606 60.5852 56.7364 60.5867H56.7308ZM65.188 55.1768H62.8817C62.7133 53.8856 62.1427 52.6802 61.2508 51.7315C60.3588 50.7829 59.1909 50.1391 57.9125 49.8915C56.6341 49.6439 55.3103 49.8051 54.1286 50.3522C52.947 50.8993 51.9676 51.8045 51.3294 52.9395C50.6923 51.8013 49.7125 50.8931 48.5295 50.3438C47.3465 49.7946 46.0204 49.6323 44.7398 49.8801C43.4592 50.1279 42.2894 50.7731 41.3967 51.724C40.5039 52.675 39.9337 53.8832 39.7672 55.1768H21.6266C21.4343 53.6813 20.7038 52.3071 19.5717 51.3112C18.4396 50.3154 16.9834 49.766 15.4756 49.766C13.9678 49.766 12.5117 50.3154 11.3796 51.3112C10.2475 52.3071 9.51695 53.6813 9.32469 55.1768H6.80891V33.4165C6.81188 30.8845 7.81893 28.4571 9.60919 26.6665C11.3995 24.876 13.8268 23.8686 16.3588 23.8653H22.798V45.7873C22.798 45.9976 22.8815 46.1994 23.0303 46.3481C23.179 46.4968 23.3807 46.5804 23.5911 46.5804H65.1936L65.188 55.1768Z" fill="white"/>
<path d="M66.7798 10.6198L76.7798 10.6206V10.6198H66.7798ZM23.5911 9.82666V-0.17334V9.82666ZM22.798 22.279V32.279H32.798V22.279H22.798ZM16.3588 22.279V12.279L16.3474 12.279L16.3588 22.279ZM5.22266 33.4165L-4.77734 33.4064V33.4165H5.22266ZM5.22266 55.9685H-4.77734V55.9774L-4.77733 55.9862L5.22266 55.9685ZM6.01578 56.7617L5.9981 66.7616L6.00694 66.7617H6.01578V56.7617ZM9.32469 56.7617L19.2431 55.4865L18.1214 46.7617H9.32469V56.7617ZM21.6266 56.7617V46.7617H12.8299L11.7082 55.4865L21.6266 56.7617ZM39.7672 56.7617L49.6856 55.4866L48.5639 46.7617H39.7672V56.7617ZM51.3294 59.0004L60.0567 54.1185L51.333 38.5232L42.6038 54.1154L51.3294 59.0004ZM62.8902 56.7631V46.7631H54.0919L52.9716 55.4897L62.8902 56.7631ZM65.9839 56.7631V66.7631H65.9927L66.0016 66.7631L65.9839 56.7631ZM66.777 55.9699L76.777 55.9876L76.777 55.9788V55.9699H66.777ZM66.777 45.7873L56.777 45.7865V45.7873H66.777ZM24.3842 11.4129V1.41291H14.3842V11.4129H24.3842ZM65.1936 11.4129H75.1936V1.41291H65.1936V11.4129ZM65.1936 44.9998V54.9998H75.1936V44.9998H65.1936ZM24.3842 44.9998H14.3842V54.9998H24.3842V44.9998ZM15.47 60.5867L15.4578 70.5867L15.4654 70.5867L15.473 70.5867L15.47 60.5867ZM20.0923 55.9685L30.0923 55.9807L30.0923 55.9731L30.0923 55.9655L20.0923 55.9685ZM45.9097 60.5867L45.8975 70.5867H45.9097V60.5867ZM50.532 55.9685L60.532 55.9807L60.532 55.9731L60.532 55.9655L50.532 55.9685ZM45.9153 60.5867V70.5867H45.9229L45.9305 70.5866L45.9153 60.5867ZM56.7308 60.5867L56.7186 70.5867H56.7308V60.5867ZM61.3531 55.9685L71.3531 55.9777V55.9655L61.3531 55.9685ZM56.7364 60.5867V70.5867L56.7486 70.5867L56.7364 60.5867ZM65.188 55.1768V65.1768H75.1814L75.188 55.1834L65.188 55.1768ZM62.8817 55.1768L52.9657 56.4699L54.1011 65.1768H62.8817V55.1768ZM51.3294 52.9395L42.6035 57.8241L51.3094 73.3763L60.0457 57.8411L51.3294 52.9395ZM39.7672 55.1768V65.1768H48.5623L49.6853 56.4537L39.7672 55.1768ZM21.6266 55.1768L11.7082 56.452L12.8299 65.1768H21.6266V55.1768ZM15.4756 49.766V59.766V49.766ZM9.32469 55.1768V65.1768H18.1214L19.2431 56.452L9.32469 55.1768ZM6.80891 55.1768H-3.19109V65.1768H6.80891V55.1768ZM6.80891 33.4165L-3.19109 33.4047V33.4165H6.80891ZM16.3588 23.8653V13.8652L16.3455 13.8653L16.3588 23.8653ZM22.798 23.8653H32.798V13.8653H22.798V23.8653ZM22.798 45.7873H12.798H22.798ZM65.1936 46.5804L75.1936 46.587L75.2001 36.5804H65.1936V46.5804ZM76.7798 10.6198C76.7798 7.75726 75.6427 5.01199 73.6186 2.98789L59.4765 17.13C57.7499 15.4034 56.7798 13.0616 56.7798 10.6198H76.7798ZM73.6186 2.98789C71.5945 0.963831 68.8493 -0.17334 65.9867 -0.17334V19.8267C63.5448 19.8267 61.2031 18.8566 59.4765 17.13L73.6186 2.98789ZM65.9867 -0.17334H23.5911V19.8267H65.9867V-0.17334ZM23.5911 -0.17334C20.7286 -0.17334 17.9833 0.96381 15.9592 2.98789L30.1013 17.13C28.3747 18.8566 26.0329 19.8267 23.5911 19.8267V-0.17334ZM15.9592 2.98789C13.9351 5.01199 12.798 7.75726 12.798 10.6198H32.798C32.798 13.0616 31.828 15.4034 30.1013 17.13L15.9592 2.98789ZM12.798 10.6198V22.279H32.798V10.6198H12.798ZM22.798 12.279H16.3588V32.279H22.798V12.279ZM16.3474 12.279C10.7463 12.2854 5.37639 14.5134 1.41603 18.4743L15.5591 32.6155C15.7742 32.4004 16.0659 32.2793 16.3701 32.279L16.3474 12.279ZM1.41603 18.4743C-2.54432 22.4351 -4.77169 27.8053 -4.77734 33.4064L15.2227 33.4266C15.223 33.1223 15.3439 32.8307 15.5591 32.6155L1.41603 18.4743ZM-4.77734 33.4165V55.9685H15.2227V33.4165H-4.77734ZM-4.77733 55.9862C-4.77228 58.8425 -3.6354 61.5803 -1.6157 63.6L12.5264 49.4579C14.2488 51.1803 15.2183 53.5151 15.2226 55.9509L-4.77733 55.9862ZM-1.6157 63.6C0.403962 65.6197 3.14179 66.7566 5.9981 66.7616L6.03346 46.7617C8.4693 46.766 10.8041 47.7355 12.5264 49.4579L-1.6157 63.6ZM6.01578 66.7617H9.32469V46.7617H6.01578V66.7617ZM-0.593679 58.0368C-0.0913877 61.9438 1.81708 65.5339 4.77471 68.1356L17.9844 53.1189C18.6779 53.7288 19.1253 54.5705 19.2431 55.4865L-0.593679 58.0368ZM4.77471 68.1356C7.73235 70.7374 11.5365 72.1724 15.4756 72.1724V52.1724C16.3991 52.1724 17.291 52.5089 17.9844 53.1189L4.77471 68.1356ZM15.4756 72.1724C19.4147 72.1724 23.2189 70.7374 26.1765 68.1356L12.9668 53.1189C13.6602 52.5089 14.5521 52.1724 15.4756 52.1724V72.1724ZM26.1765 68.1356C29.1342 65.5339 31.0426 61.9438 31.5449 58.0368L11.7082 55.4865C11.826 54.5705 12.2734 53.7288 12.9668 53.1189L26.1765 68.1356ZM21.6266 66.7617H39.7672V46.7617H21.6266V66.7617ZM29.8488 58.0367C30.2833 61.4166 31.7725 64.5735 34.1045 67.0583L48.6878 53.3715C49.2346 53.9541 49.5837 54.6942 49.6856 55.4866L29.8488 58.0367ZM34.1045 67.0583C36.4366 69.5431 39.4927 71.2293 42.8383 71.8771L46.6402 52.2417C47.4246 52.3936 48.1411 52.7889 48.6878 53.3715L34.1045 67.0583ZM42.8383 71.8771C46.1839 72.5248 49.6485 72.1012 52.7395 70.6665L44.3189 52.5256C45.0435 52.1892 45.8558 52.0899 46.6402 52.2417L42.8383 71.8771ZM52.7395 70.6665C55.8304 69.2317 58.3903 66.8589 60.055 63.8855L42.6038 54.1154C42.994 53.4182 43.5942 52.8619 44.3189 52.5256L52.7395 70.6665ZM42.602 63.8823C44.2659 66.8568 46.8254 69.2307 49.9164 70.6663L58.3411 52.5273C59.0661 52.864 59.6665 53.4208 60.0567 54.1185L42.602 63.8823ZM49.9164 70.6663C53.0074 72.1019 56.4725 72.5261 59.8186 71.8786L56.0185 52.2429C56.8033 52.091 57.6161 52.1905 58.3411 52.5273L49.9164 70.6663ZM59.8186 71.8786C63.1646 71.231 66.2212 69.5447 68.5535 67.0595L53.9697 53.3733C54.5167 52.7903 55.2337 52.3948 56.0185 52.2429L59.8186 71.8786ZM68.5535 67.0595C70.8857 64.5743 72.3748 61.4168 72.8087 58.0365L52.9716 55.4897C53.0734 54.6968 53.4226 53.9562 53.9697 53.3733L68.5535 67.0595ZM62.8902 66.7631H65.9839V46.7631H62.8902V66.7631ZM66.0016 66.7631C68.8579 66.758 71.5957 65.6211 73.6154 63.6014L59.4733 49.4593C61.1956 47.7369 63.5304 46.7674 65.9662 46.7631L66.0016 66.7631ZM73.6154 63.6014C75.635 61.5818 76.772 58.844 76.777 55.9876L56.777 55.9523C56.7814 53.5164 57.7509 51.1816 59.4733 49.4593L73.6154 63.6014ZM76.777 55.9699V45.7873H56.777V55.9699H76.777ZM76.777 45.7881L76.7798 10.6206L56.7798 10.619L56.777 45.7865L76.777 45.7881ZM24.3842 21.4129H65.1936V1.41291H24.3842V21.4129ZM55.1936 11.4129V44.9998H75.1936V11.4129H55.1936ZM65.1936 34.9998H24.3842V54.9998H65.1936V34.9998ZM34.3842 44.9998V11.4129H14.3842V44.9998H34.3842ZM15.4822 50.5867C16.5465 50.588 17.5866 50.9047 18.471 51.497L7.34252 68.1149C9.7438 69.723 12.5679 70.5831 15.4578 70.5867L15.4822 50.5867ZM18.471 51.497C19.3554 52.0892 20.0444 52.9303 20.4509 53.914L1.96686 61.5522C3.07056 64.2231 4.94126 66.5069 7.34252 68.1149L18.471 51.497ZM20.4509 53.914C20.8573 54.8977 20.9631 55.9798 20.7548 57.0236L1.14161 53.1091C0.575973 55.9432 0.863152 58.8813 1.96686 61.5522L20.4509 53.914ZM20.7548 57.0236C20.5465 58.0674 20.0334 59.026 19.2804 59.7782L5.14476 45.6296C3.10032 47.6722 1.70725 50.275 1.14161 53.1091L20.7548 57.0236ZM19.2804 59.7782C18.5275 60.5305 17.5684 61.0427 16.5244 61.2501L12.6279 41.6333C9.79326 42.1964 7.1892 43.5871 5.14476 45.6296L19.2804 59.7782ZM16.5244 61.2501C15.4805 61.4574 14.3985 61.3507 13.4152 60.9433L21.0702 42.4663C18.4003 41.3601 15.4625 41.0703 12.6279 41.6333L16.5244 61.2501ZM13.4152 60.9433C12.4319 60.5359 11.5914 59.8462 10.9999 58.9613L27.628 47.8479C26.0222 45.4452 23.7401 43.5724 21.0702 42.4663L13.4152 60.9433ZM10.9999 58.9613C10.4085 58.0763 10.0927 57.0359 10.0923 55.9716L30.0923 55.9655C30.0915 53.0755 29.2339 50.2507 27.628 47.8479L10.9999 58.9613ZM10.0924 55.9564C10.0941 54.5319 10.661 53.1664 11.6687 52.1596L25.8044 66.3082C28.5454 63.5697 30.0876 59.8553 30.0923 55.9807L10.0924 55.9564ZM11.6687 52.1596C12.6764 51.1528 14.0425 50.5871 15.467 50.5867L15.473 70.5867C19.3476 70.5855 23.0634 69.0467 25.8044 66.3082L11.6687 52.1596ZM45.9219 50.5867C46.9862 50.588 48.0263 50.9047 48.9107 51.497L37.7822 68.1149C40.1835 69.723 43.0076 70.5831 45.8975 70.5867L45.9219 50.5867ZM48.9107 51.497C49.7951 52.0892 50.4841 52.9304 50.8905 53.914L32.4065 61.5522C33.5102 64.2231 35.3809 66.5069 37.7822 68.1149L48.9107 51.497ZM50.8905 53.914C51.297 54.8977 51.4028 55.9798 51.1945 57.0236L31.5813 53.1091C31.0157 55.9432 31.3029 58.8813 32.4065 61.5522L50.8905 53.914ZM51.1945 57.0236C50.9861 58.0674 50.4731 59.026 49.7201 59.7782L35.5845 45.6296C33.54 47.6722 32.1469 50.275 31.5813 53.1091L51.1945 57.0236ZM49.7201 59.7782C48.9672 60.5305 48.0081 61.0427 46.9641 61.2501L43.0675 41.6333C40.233 42.1964 37.6289 43.5871 35.5845 45.6296L49.7201 59.7782ZM46.9641 61.2501C45.9202 61.4574 44.8381 61.3507 43.8548 60.9433L51.5099 42.4663C48.84 41.3601 45.9021 41.0703 43.0675 41.6333L46.9641 61.2501ZM43.8548 60.9433C42.8715 60.5359 42.0311 59.8462 41.4396 58.9613L58.0677 47.8479C56.4619 45.4452 54.1798 43.5724 51.5099 42.4663L43.8548 60.9433ZM41.4396 58.9613C40.8482 58.0763 40.5324 57.0359 40.532 55.9716L60.532 55.9655C60.5311 53.0755 59.6736 50.2507 58.0677 47.8479L41.4396 58.9613ZM40.532 55.9564C40.5338 54.5331 41.0998 53.1685 42.1061 52.1619L56.2504 66.3019C58.9876 63.5639 60.5273 59.8522 60.532 55.9807L40.532 55.9564ZM42.1061 52.1619C43.1124 51.1553 44.4768 50.5888 45.9001 50.5867L45.9305 70.5866C49.802 70.5808 53.5132 69.0399 56.2504 66.3019L42.1061 52.1619ZM45.9153 50.5867H45.9097V70.5867H45.9153V50.5867ZM56.743 50.5867C57.8073 50.588 58.8474 50.9047 59.7318 51.497L48.6033 68.1149C51.0046 69.723 53.8287 70.5831 56.7186 70.5867L56.743 50.5867ZM59.7318 51.497C60.6162 52.0892 61.3051 52.9303 61.7116 53.914L43.2276 61.5522C44.3313 64.2231 46.202 66.5069 48.6033 68.1149L59.7318 51.497ZM61.7116 53.914C62.1181 54.8977 62.2239 55.9798 62.0156 57.0236L42.4024 53.1091C41.8368 55.9431 42.1239 58.8813 43.2276 61.5522L61.7116 53.914ZM62.0156 57.0236C61.8072 58.0674 61.2942 59.026 60.5412 59.7782L46.4055 45.6296C44.3611 47.6722 42.968 50.275 42.4024 53.1091L62.0156 57.0236ZM60.5412 59.7782C59.7883 60.5305 58.8292 61.0427 57.7852 61.2501L53.8886 41.6333C51.054 42.1964 48.45 43.5871 46.4055 45.6296L60.5412 59.7782ZM57.7852 61.2501C56.7412 61.4574 55.6592 61.3507 54.6759 60.9433L62.331 42.4663C59.6611 41.3601 56.7232 41.0703 53.8886 41.6333L57.7852 61.2501ZM54.6759 60.9433C53.6926 60.5359 52.8522 59.8462 52.2607 58.9613L68.8888 47.8479C67.283 45.4452 65.0009 43.5724 62.331 42.4663L54.6759 60.9433ZM52.2607 58.9613C51.6693 58.0763 51.3535 57.0359 51.3531 55.9716L71.3531 55.9655C71.3522 53.0755 70.4947 50.2507 68.8888 47.8479L52.2607 58.9613ZM51.3531 55.9594C51.3544 54.5352 51.9207 53.1696 52.9276 52.1623L67.0719 66.3023C69.8099 63.5635 71.3496 59.8503 71.3531 55.9777L51.3531 55.9594ZM52.9276 52.1623C53.9346 51.1551 55.3 50.5884 56.7242 50.5867L56.7486 70.5867C60.6213 70.5819 64.3339 69.0411 67.0719 66.3023L52.9276 52.1623ZM56.7364 50.5867H56.7308V70.5867H56.7364V50.5867ZM65.188 45.1768H62.8817V65.1768H65.188V45.1768ZM72.7978 53.8837C72.3578 50.51 70.8669 47.3604 68.5363 44.8817L53.9652 58.5814C53.4186 58 53.0689 57.2613 52.9657 56.4699L72.7978 53.8837ZM68.5363 44.8817C66.2058 42.4029 63.1541 40.7208 59.8139 40.0739L56.0111 59.7091C55.2277 59.5574 54.5119 59.1628 53.9652 58.5814L68.5363 44.8817ZM59.8139 40.0739C56.4737 39.427 53.0146 39.8482 49.9272 41.2776L58.3301 59.4268C57.6059 59.762 56.7946 59.8608 56.0111 59.7091L59.8139 40.0739ZM49.9272 41.2776C46.8397 42.7071 44.2807 45.0723 42.6131 48.0378L60.0457 57.8411C59.6545 58.5367 59.0543 59.0915 58.3301 59.4268L49.9272 41.2776ZM60.0552 48.0549C58.3908 45.0815 55.8312 42.7086 52.7405 41.2737L44.3184 59.4139C43.5938 59.0775 42.9937 58.5212 42.6035 57.8241L60.0552 48.0549ZM52.7405 41.2737C49.6499 39.8388 46.1855 39.4148 42.84 40.0622L46.6396 59.698C45.8553 59.8497 45.0431 59.7503 44.3184 59.4139L52.7405 41.2737ZM42.84 40.0622C39.4945 40.7096 36.4383 42.3953 34.1061 44.8796L48.6873 58.5685C48.1405 59.151 47.4239 59.5462 46.6396 59.698L42.84 40.0622ZM34.1061 44.8796C31.7738 47.3639 30.2842 50.5203 29.849 53.8999L49.6853 56.4537C49.5833 57.2461 49.2341 57.9861 48.6873 58.5685L34.1061 44.8796ZM39.7672 45.1768H21.6266V65.1768H39.7672V45.1768ZM31.5449 53.9017C31.0426 49.9947 29.1342 46.4046 26.1765 43.8029L12.9668 58.8196C12.2734 58.2096 11.826 57.3679 11.7082 56.452L31.5449 53.9017ZM26.1765 43.8029C23.2189 41.2011 19.4147 39.766 15.4756 39.766L15.4756 59.766C14.5521 59.766 13.6602 59.4296 12.9668 58.8196L26.1765 43.8029ZM15.4756 39.766C11.5365 39.766 7.73233 41.2011 4.77471 43.8029L17.9844 58.8196C17.291 59.4296 16.3991 59.766 15.4756 59.766L15.4756 39.766ZM4.77471 43.8029C1.81708 46.4046 -0.0913877 49.9947 -0.593679 53.9017L19.2431 56.452C19.1253 57.3679 18.6779 58.2096 17.9844 58.8196L4.77471 43.8029ZM9.32469 45.1768H6.80891V65.1768H9.32469V45.1768ZM16.8089 55.1768V33.4165H-3.19109V55.1768H16.8089ZM16.8089 33.4283C16.8088 33.5441 16.7627 33.6552 16.6808 33.7371L2.5376 19.596C-1.12482 23.259 -3.185 28.2249 -3.19109 33.4047L16.8089 33.4283ZM16.6808 33.7371C16.5989 33.819 16.4878 33.8651 16.372 33.8652L16.3455 13.8653C11.1657 13.8721 6.20003 15.933 2.5376 19.596L16.6808 33.7371ZM16.3588 33.8653H22.798V13.8653H16.3588V33.8653ZM12.798 23.8653V45.7873H32.798V23.8653H12.798ZM12.798 45.7873C12.798 48.6498 13.9351 51.3951 15.9592 53.4192L30.1013 39.277C31.8279 41.0036 32.798 43.3454 32.798 45.7873H12.798ZM15.9592 53.4192C17.9833 55.4433 20.7286 56.5804 23.5911 56.5804V36.5804C26.0329 36.5804 28.3747 37.5504 30.1013 39.277L15.9592 53.4192ZM23.5911 56.5804H65.1936V36.5804H23.5911V56.5804ZM55.1936 46.5739L55.188 55.1703L75.188 55.1834L75.1936 46.587L55.1936 46.5739Z" fill="#058FA2" mask="url(#path-5-inside-3_2_27715)"/>
<path d="M32.5916 29.167C32.7411 29.3157 32.9433 29.3992 33.1541 29.3992C33.365 29.3992 33.5672 29.3157 33.7166 29.167L34.3663 28.5159V39.9375C34.3663 40.148 34.4498 40.3498 34.5985 40.4988C34.7472 40.6478 34.949 40.7316 35.1594 40.732H52.7362C52.9466 40.7316 53.1484 40.6478 53.2971 40.4988C53.4458 40.3498 53.5293 40.148 53.5293 39.9375V28.5159L54.1804 29.167C54.3296 29.3161 54.5319 29.3998 54.7429 29.3998C54.9538 29.3998 55.1561 29.3161 55.3054 29.167L59.5537 24.9173C59.6278 24.8436 59.6867 24.756 59.7268 24.6594C59.767 24.5629 59.7876 24.4594 59.7876 24.3548C59.7876 24.2503 59.767 24.1467 59.7268 24.0502C59.6867 23.9537 59.6278 23.866 59.5537 23.7923L53.1609 17.3995C53.0461 17.2846 52.8988 17.2076 52.739 17.1787L48.0393 16.3561C47.9191 16.336 47.7959 16.3438 47.6792 16.3788C47.5625 16.4137 47.4554 16.475 47.3661 16.5578C47.2767 16.6407 47.2075 16.7429 47.1638 16.8566C47.1201 16.9703 47.1031 17.0925 47.114 17.2139C47.114 17.2336 47.2715 19.042 46.2801 20.1319C45.757 20.7042 44.9737 20.9953 43.9513 20.9967C42.929 20.9981 42.1443 20.7042 41.6212 20.1319C40.6368 19.042 40.7845 17.2336 40.7873 17.2139C40.7983 17.0925 40.7814 16.9701 40.7377 16.8563C40.6941 16.7424 40.6249 16.6401 40.5355 16.5572C40.4465 16.4739 40.3393 16.4123 40.2224 16.3775C40.1055 16.3426 39.9821 16.3352 39.862 16.3561L35.158 17.183C34.9983 17.212 34.8511 17.289 34.7362 17.4037L28.3434 23.7965C28.2692 23.8703 28.2104 23.9579 28.1702 24.0544C28.13 24.151 28.1094 24.2545 28.1094 24.359C28.1094 24.4636 28.13 24.5671 28.1702 24.6637C28.2104 24.7602 28.2692 24.8478 28.3434 24.9215L32.5916 29.167ZM35.6854 18.7031L39.2179 18.0844C39.2896 18.9562 39.561 20.219 40.4427 21.195C41.2752 22.1147 42.4509 22.583 43.9387 22.5872H43.9696C45.456 22.5872 46.6316 22.1147 47.4641 21.195C48.3459 20.219 48.6173 18.9562 48.689 18.0844L52.2215 18.7031L57.8774 24.3576L54.7471 27.4851L53.2987 26.0395C53.1877 25.9284 53.0462 25.8527 52.8921 25.8221C52.7381 25.7915 52.5784 25.8074 52.4333 25.8676C52.2883 25.9279 52.1644 26.0298 52.0774 26.1606C51.9903 26.2913 51.9441 26.445 51.9445 26.602V39.1486H35.9526V26.6006C35.953 26.4435 35.9067 26.2899 35.8197 26.1592C35.7326 26.0284 35.6087 25.9265 35.4637 25.8662C35.3186 25.806 35.159 25.7901 35.0049 25.8207C34.8509 25.8513 34.7094 25.927 34.5984 26.0381L33.1541 27.4837L30.0266 24.3562L35.6854 18.7031Z" fill="#FDC114"/>
</svg>
