<svg width="86" height="87" viewBox="0 0 86 87" fill="none" xmlns="http://www.w3.org/2000/svg">
<mask id="path-1-outside-1_2982_8493" maskUnits="userSpaceOnUse" x="-0.5" y="0" width="87" height="87" fill="black">
<rect fill="white" x="-0.5" width="87" height="87"/>
<path fill-rule="evenodd" clip-rule="evenodd" d="M28.159 1.24406C27.7559 1.4143 27.0138 1.99769 26.51 2.54035L25.5938 3.52661L25.4879 15.4222L25.3817 27.3178L24.0222 27.32C21.7403 27.3233 19.8146 28.0638 18.4346 29.4679C17.4397 30.4802 16.292 32.7569 13.691 38.8755C11.8038 43.3151 10.22 47.0022 10.1716 47.0686C10.1229 47.1354 8.34307 46.0207 6.21622 44.592C2.22343 41.9099 1.67816 41.6875 0.932076 42.4345C-0.076382 43.4443 0.524588 44.2012 4.40671 46.8088L8.32145 49.4385L7.24666 50.3418C0.269542 56.2051 0.308019 56.117 2.11606 62.0342L3.4239 66.3153L3.4294 74.4266C3.43526 83.359 3.52321 83.792 5.62111 85.2075C6.86189 86.0448 7.05977 86.062 14.1292 85.9523L21.3673 85.8401L22.5644 84.6406C23.6986 83.5043 23.7686 83.2779 23.891 80.3294L24.02 77.2177H43.0377H62.0552L62.0607 79.8778C62.0669 82.9694 62.5015 84.0261 64.2524 85.2075C65.4931 86.0448 65.691 86.062 72.7605 85.9523L79.9985 85.8401L81.1957 84.6414L82.3929 83.4427L82.5812 74.3679C82.7689 65.3298 82.7743 65.278 83.9836 61.5322C85.6989 56.2205 85.6667 56.1515 78.7533 50.3418L77.6786 49.4385L81.5933 46.8088C85.4754 44.2012 86.0764 43.4443 85.0679 42.4345C84.3226 41.6882 83.7766 41.9099 79.8281 44.5623C76.4422 46.8371 75.9665 47.0569 75.6653 46.4885C75.4781 46.1356 73.8961 42.4621 72.1496 38.3251C70.3482 34.0583 68.5471 30.3467 67.9879 29.7482C66.6284 28.2927 64.3982 27.3354 62.3443 27.3259L60.6183 27.3178L60.5121 15.3998L60.4062 3.48185L59.2086 2.28278L58.0107 1.08372L43.4515 1.00887C35.4435 0.967775 28.5621 1.07345 28.159 1.24406ZM28.7819 4.27584C28.1509 4.90766 28.1509 32.1163 28.7819 32.7481C29.4129 33.3799 56.5871 33.3799 57.2181 32.7481C57.8491 32.1163 57.8491 4.90766 57.2181 4.27584C56.5871 3.64402 29.4129 3.64402 28.7819 4.27584ZM37.5411 10.211C37.2483 10.564 37.1523 13.121 37.2212 18.702C37.3095 25.8439 37.3879 26.7308 37.9614 27.0929C38.4279 27.3872 38.7774 27.3875 39.2439 27.094C39.7379 26.7832 39.9101 26.0883 39.993 24.0688L40.1007 21.4473H42.1363C44.6325 21.4473 46.3914 20.6562 47.6927 18.9475C48.4956 17.8937 48.6799 17.2645 48.6799 15.5767C48.6799 13.8889 48.4956 13.2596 47.6927 12.2059C46.2265 10.2811 44.7021 9.70612 41.0655 9.70612C38.8757 9.70612 37.8361 9.85508 37.5411 10.211ZM40.0684 15.5767V18.512H42.1004C44.5457 18.512 45.9316 17.4501 45.9316 15.5767C45.9316 13.7032 44.5457 12.6414 42.1004 12.6414H40.0684V15.5767ZM21.1965 30.9286C19.8729 31.7384 19.9539 31.5861 16.0828 40.5266L12.9845 47.6814L27.9922 47.7771C36.2464 47.83 49.7477 47.83 57.9949 47.7771L72.9899 47.6814L69.6296 39.806C65.872 30.9998 65.2938 30.2531 62.2318 30.2531H60.6846L60.4937 31.949C60.3523 33.2049 60.006 33.942 59.1569 34.7925L58.0107 35.9402L43.4317 36.0437L28.8523 36.1475L27.595 35.2989C26.1083 34.2961 25.4235 33.0849 25.4161 31.4456C25.4106 30.288 25.3652 30.2531 23.8532 30.2546C22.9895 30.2553 21.8063 30.5554 21.1965 30.9286ZM7.52406 53.9317C5.4705 55.6543 3.79035 57.2339 3.79035 57.4419C3.79035 57.6503 4.78452 60.9877 5.99965 64.859C7.93888 71.0367 8.36395 72.0431 9.47575 73.0899L10.7422 74.2824H42.8296C77.9237 74.2824 76.4513 74.3719 77.5803 72.1664C78.1179 71.1167 82.2096 58.1031 82.2096 57.4434C82.2096 57.2342 80.5295 55.6543 78.4759 53.9317L74.7422 50.8001H43H11.2578L7.52406 53.9317ZM27.3088 57.2878C26.6393 57.618 25.6499 58.4682 25.1101 59.177C23.7056 61.0208 23.7078 64.0647 25.1153 65.912C27.0223 68.4158 26.994 68.4118 43 68.4118C59.006 68.4118 58.9777 68.4158 60.8847 65.912C61.6876 64.8583 61.8719 64.229 61.8719 62.5412C61.8719 60.8535 61.6876 60.2242 60.8847 59.1704C58.9759 56.6644 59.0144 56.6696 42.9447 56.6791C30.3452 56.6864 28.3719 56.7631 27.3088 57.2878ZM13.5012 58.4696C11.8701 59.1869 10.936 60.6777 10.936 62.5636C10.936 64.105 11.1068 64.5328 12.1339 65.5613C13.1651 66.5938 13.5854 66.7607 15.1502 66.7607C16.7149 66.7607 17.1352 66.5938 18.1664 65.5613C19.1975 64.5288 19.3643 64.1079 19.3643 62.5412C19.3643 60.9954 19.1931 60.5497 18.2309 59.5858C17.0209 58.3742 14.8713 57.8672 13.5012 58.4696ZM69.2008 58.4696C67.5698 59.1869 66.6357 60.6777 66.6357 62.5636C66.6357 64.105 66.8065 64.5328 67.8336 65.5613C68.8648 66.5938 69.2851 66.7607 70.8498 66.7607C72.4146 66.7607 72.8349 66.5938 73.8661 65.5613C74.8972 64.5288 75.064 64.1079 75.064 62.5412C75.064 60.9954 74.8928 60.5497 73.9305 59.5858C72.7205 58.3742 70.571 57.8672 69.2008 58.4696ZM27.776 60.5067C27.2088 61.0743 26.8764 61.8265 26.8764 62.5412C26.8764 63.256 27.2088 64.0081 27.776 64.5758L28.6753 65.4765H43H57.3247L58.224 64.5758C58.7912 64.0081 59.1236 63.256 59.1236 62.5412C59.1236 61.8265 58.7912 61.0743 58.224 60.5067L57.3247 59.606H43H28.6753L27.776 60.5067ZM14.0655 61.6063C13.0918 62.7808 14.5217 64.5849 15.7914 63.7843C17.0601 62.9841 16.6082 61.0736 15.1502 61.0736C14.7965 61.0736 14.3084 61.3132 14.0655 61.6063ZM69.7652 61.6063C68.7915 62.7808 70.2214 64.5849 71.4911 63.7843C72.7598 62.9841 72.3079 61.0736 70.8498 61.0736C70.4962 61.0736 70.0081 61.3132 69.7652 61.6063ZM79.1927 74.755C79.0447 75.116 78.0553 75.8161 76.994 76.3107C75.2417 77.1278 74.6004 77.2107 70.0253 77.214L64.9867 77.2177V79.7127C64.9867 81.1642 65.1707 82.3918 65.4265 82.6479C66.1051 83.3275 78.6775 83.2625 79.2458 82.5764C79.5251 82.2396 79.6343 80.704 79.5658 78.0817C79.5082 75.8913 79.3404 74.3943 79.1927 74.755ZM6.35547 78.3716C6.35547 80.8659 6.50937 82.3618 6.7952 82.6479C7.41376 83.2673 19.955 83.2673 20.5735 82.6479C20.8293 82.3918 21.0133 81.1642 21.0133 79.7127V77.2177L15.9747 77.2096C11.703 77.2026 10.6861 77.0881 9.29363 76.4556C8.39034 76.0454 7.35953 75.4455 7.00334 75.1226C6.38771 74.5649 6.35547 74.7267 6.35547 78.3716Z"/>
</mask>
<path fill-rule="evenodd" clip-rule="evenodd" d="M28.159 1.24406C27.7559 1.4143 27.0138 1.99769 26.51 2.54035L25.5938 3.52661L25.4879 15.4222L25.3817 27.3178L24.0222 27.32C21.7403 27.3233 19.8146 28.0638 18.4346 29.4679C17.4397 30.4802 16.292 32.7569 13.691 38.8755C11.8038 43.3151 10.22 47.0022 10.1716 47.0686C10.1229 47.1354 8.34307 46.0207 6.21622 44.592C2.22343 41.9099 1.67816 41.6875 0.932076 42.4345C-0.076382 43.4443 0.524588 44.2012 4.40671 46.8088L8.32145 49.4385L7.24666 50.3418C0.269542 56.2051 0.308019 56.117 2.11606 62.0342L3.4239 66.3153L3.4294 74.4266C3.43526 83.359 3.52321 83.792 5.62111 85.2075C6.86189 86.0448 7.05977 86.062 14.1292 85.9523L21.3673 85.8401L22.5644 84.6406C23.6986 83.5043 23.7686 83.2779 23.891 80.3294L24.02 77.2177H43.0377H62.0552L62.0607 79.8778C62.0669 82.9694 62.5015 84.0261 64.2524 85.2075C65.4931 86.0448 65.691 86.062 72.7605 85.9523L79.9985 85.8401L81.1957 84.6414L82.3929 83.4427L82.5812 74.3679C82.7689 65.3298 82.7743 65.278 83.9836 61.5322C85.6989 56.2205 85.6667 56.1515 78.7533 50.3418L77.6786 49.4385L81.5933 46.8088C85.4754 44.2012 86.0764 43.4443 85.0679 42.4345C84.3226 41.6882 83.7766 41.9099 79.8281 44.5623C76.4422 46.8371 75.9665 47.0569 75.6653 46.4885C75.4781 46.1356 73.8961 42.4621 72.1496 38.3251C70.3482 34.0583 68.5471 30.3467 67.9879 29.7482C66.6284 28.2927 64.3982 27.3354 62.3443 27.3259L60.6183 27.3178L60.5121 15.3998L60.4062 3.48185L59.2086 2.28278L58.0107 1.08372L43.4515 1.00887C35.4435 0.967775 28.5621 1.07345 28.159 1.24406ZM28.7819 4.27584C28.1509 4.90766 28.1509 32.1163 28.7819 32.7481C29.4129 33.3799 56.5871 33.3799 57.2181 32.7481C57.8491 32.1163 57.8491 4.90766 57.2181 4.27584C56.5871 3.64402 29.4129 3.64402 28.7819 4.27584ZM37.5411 10.211C37.2483 10.564 37.1523 13.121 37.2212 18.702C37.3095 25.8439 37.3879 26.7308 37.9614 27.0929C38.4279 27.3872 38.7774 27.3875 39.2439 27.094C39.7379 26.7832 39.9101 26.0883 39.993 24.0688L40.1007 21.4473H42.1363C44.6325 21.4473 46.3914 20.6562 47.6927 18.9475C48.4956 17.8937 48.6799 17.2645 48.6799 15.5767C48.6799 13.8889 48.4956 13.2596 47.6927 12.2059C46.2265 10.2811 44.7021 9.70612 41.0655 9.70612C38.8757 9.70612 37.8361 9.85508 37.5411 10.211ZM40.0684 15.5767V18.512H42.1004C44.5457 18.512 45.9316 17.4501 45.9316 15.5767C45.9316 13.7032 44.5457 12.6414 42.1004 12.6414H40.0684V15.5767ZM21.1965 30.9286C19.8729 31.7384 19.9539 31.5861 16.0828 40.5266L12.9845 47.6814L27.9922 47.7771C36.2464 47.83 49.7477 47.83 57.9949 47.7771L72.9899 47.6814L69.6296 39.806C65.872 30.9998 65.2938 30.2531 62.2318 30.2531H60.6846L60.4937 31.949C60.3523 33.2049 60.006 33.942 59.1569 34.7925L58.0107 35.9402L43.4317 36.0437L28.8523 36.1475L27.595 35.2989C26.1083 34.2961 25.4235 33.0849 25.4161 31.4456C25.4106 30.288 25.3652 30.2531 23.8532 30.2546C22.9895 30.2553 21.8063 30.5554 21.1965 30.9286ZM7.52406 53.9317C5.4705 55.6543 3.79035 57.2339 3.79035 57.4419C3.79035 57.6503 4.78452 60.9877 5.99965 64.859C7.93888 71.0367 8.36395 72.0431 9.47575 73.0899L10.7422 74.2824H42.8296C77.9237 74.2824 76.4513 74.3719 77.5803 72.1664C78.1179 71.1167 82.2096 58.1031 82.2096 57.4434C82.2096 57.2342 80.5295 55.6543 78.4759 53.9317L74.7422 50.8001H43H11.2578L7.52406 53.9317ZM27.3088 57.2878C26.6393 57.618 25.6499 58.4682 25.1101 59.177C23.7056 61.0208 23.7078 64.0647 25.1153 65.912C27.0223 68.4158 26.994 68.4118 43 68.4118C59.006 68.4118 58.9777 68.4158 60.8847 65.912C61.6876 64.8583 61.8719 64.229 61.8719 62.5412C61.8719 60.8535 61.6876 60.2242 60.8847 59.1704C58.9759 56.6644 59.0144 56.6696 42.9447 56.6791C30.3452 56.6864 28.3719 56.7631 27.3088 57.2878ZM13.5012 58.4696C11.8701 59.1869 10.936 60.6777 10.936 62.5636C10.936 64.105 11.1068 64.5328 12.1339 65.5613C13.1651 66.5938 13.5854 66.7607 15.1502 66.7607C16.7149 66.7607 17.1352 66.5938 18.1664 65.5613C19.1975 64.5288 19.3643 64.1079 19.3643 62.5412C19.3643 60.9954 19.1931 60.5497 18.2309 59.5858C17.0209 58.3742 14.8713 57.8672 13.5012 58.4696ZM69.2008 58.4696C67.5698 59.1869 66.6357 60.6777 66.6357 62.5636C66.6357 64.105 66.8065 64.5328 67.8336 65.5613C68.8648 66.5938 69.2851 66.7607 70.8498 66.7607C72.4146 66.7607 72.8349 66.5938 73.8661 65.5613C74.8972 64.5288 75.064 64.1079 75.064 62.5412C75.064 60.9954 74.8928 60.5497 73.9305 59.5858C72.7205 58.3742 70.571 57.8672 69.2008 58.4696ZM27.776 60.5067C27.2088 61.0743 26.8764 61.8265 26.8764 62.5412C26.8764 63.256 27.2088 64.0081 27.776 64.5758L28.6753 65.4765H43H57.3247L58.224 64.5758C58.7912 64.0081 59.1236 63.256 59.1236 62.5412C59.1236 61.8265 58.7912 61.0743 58.224 60.5067L57.3247 59.606H43H28.6753L27.776 60.5067ZM14.0655 61.6063C13.0918 62.7808 14.5217 64.5849 15.7914 63.7843C17.0601 62.9841 16.6082 61.0736 15.1502 61.0736C14.7965 61.0736 14.3084 61.3132 14.0655 61.6063ZM69.7652 61.6063C68.7915 62.7808 70.2214 64.5849 71.4911 63.7843C72.7598 62.9841 72.3079 61.0736 70.8498 61.0736C70.4962 61.0736 70.0081 61.3132 69.7652 61.6063ZM79.1927 74.755C79.0447 75.116 78.0553 75.8161 76.994 76.3107C75.2417 77.1278 74.6004 77.2107 70.0253 77.214L64.9867 77.2177V79.7127C64.9867 81.1642 65.1707 82.3918 65.4265 82.6479C66.1051 83.3275 78.6775 83.2625 79.2458 82.5764C79.5251 82.2396 79.6343 80.704 79.5658 78.0817C79.5082 75.8913 79.3404 74.3943 79.1927 74.755ZM6.35547 78.3716C6.35547 80.8659 6.50937 82.3618 6.7952 82.6479C7.41376 83.2673 19.955 83.2673 20.5735 82.6479C20.8293 82.3918 21.0133 81.1642 21.0133 79.7127V77.2177L15.9747 77.2096C11.703 77.2026 10.6861 77.0881 9.29363 76.4556C8.39034 76.0454 7.35953 75.4455 7.00334 75.1226C6.38771 74.5649 6.35547 74.7267 6.35547 78.3716Z" fill="#098FA2"/>
<path fill-rule="evenodd" clip-rule="evenodd" d="M28.159 1.24406C27.7559 1.4143 27.0138 1.99769 26.51 2.54035L25.5938 3.52661L25.4879 15.4222L25.3817 27.3178L24.0222 27.32C21.7403 27.3233 19.8146 28.0638 18.4346 29.4679C17.4397 30.4802 16.292 32.7569 13.691 38.8755C11.8038 43.3151 10.22 47.0022 10.1716 47.0686C10.1229 47.1354 8.34307 46.0207 6.21622 44.592C2.22343 41.9099 1.67816 41.6875 0.932076 42.4345C-0.076382 43.4443 0.524588 44.2012 4.40671 46.8088L8.32145 49.4385L7.24666 50.3418C0.269542 56.2051 0.308019 56.117 2.11606 62.0342L3.4239 66.3153L3.4294 74.4266C3.43526 83.359 3.52321 83.792 5.62111 85.2075C6.86189 86.0448 7.05977 86.062 14.1292 85.9523L21.3673 85.8401L22.5644 84.6406C23.6986 83.5043 23.7686 83.2779 23.891 80.3294L24.02 77.2177H43.0377H62.0552L62.0607 79.8778C62.0669 82.9694 62.5015 84.0261 64.2524 85.2075C65.4931 86.0448 65.691 86.062 72.7605 85.9523L79.9985 85.8401L81.1957 84.6414L82.3929 83.4427L82.5812 74.3679C82.7689 65.3298 82.7743 65.278 83.9836 61.5322C85.6989 56.2205 85.6667 56.1515 78.7533 50.3418L77.6786 49.4385L81.5933 46.8088C85.4754 44.2012 86.0764 43.4443 85.0679 42.4345C84.3226 41.6882 83.7766 41.9099 79.8281 44.5623C76.4422 46.8371 75.9665 47.0569 75.6653 46.4885C75.4781 46.1356 73.8961 42.4621 72.1496 38.3251C70.3482 34.0583 68.5471 30.3467 67.9879 29.7482C66.6284 28.2927 64.3982 27.3354 62.3443 27.3259L60.6183 27.3178L60.5121 15.3998L60.4062 3.48185L59.2086 2.28278L58.0107 1.08372L43.4515 1.00887C35.4435 0.967775 28.5621 1.07345 28.159 1.24406ZM28.7819 4.27584C28.1509 4.90766 28.1509 32.1163 28.7819 32.7481C29.4129 33.3799 56.5871 33.3799 57.2181 32.7481C57.8491 32.1163 57.8491 4.90766 57.2181 4.27584C56.5871 3.64402 29.4129 3.64402 28.7819 4.27584ZM37.5411 10.211C37.2483 10.564 37.1523 13.121 37.2212 18.702C37.3095 25.8439 37.3879 26.7308 37.9614 27.0929C38.4279 27.3872 38.7774 27.3875 39.2439 27.094C39.7379 26.7832 39.9101 26.0883 39.993 24.0688L40.1007 21.4473H42.1363C44.6325 21.4473 46.3914 20.6562 47.6927 18.9475C48.4956 17.8937 48.6799 17.2645 48.6799 15.5767C48.6799 13.8889 48.4956 13.2596 47.6927 12.2059C46.2265 10.2811 44.7021 9.70612 41.0655 9.70612C38.8757 9.70612 37.8361 9.85508 37.5411 10.211ZM40.0684 15.5767V18.512H42.1004C44.5457 18.512 45.9316 17.4501 45.9316 15.5767C45.9316 13.7032 44.5457 12.6414 42.1004 12.6414H40.0684V15.5767ZM21.1965 30.9286C19.8729 31.7384 19.9539 31.5861 16.0828 40.5266L12.9845 47.6814L27.9922 47.7771C36.2464 47.83 49.7477 47.83 57.9949 47.7771L72.9899 47.6814L69.6296 39.806C65.872 30.9998 65.2938 30.2531 62.2318 30.2531H60.6846L60.4937 31.949C60.3523 33.2049 60.006 33.942 59.1569 34.7925L58.0107 35.9402L43.4317 36.0437L28.8523 36.1475L27.595 35.2989C26.1083 34.2961 25.4235 33.0849 25.4161 31.4456C25.4106 30.288 25.3652 30.2531 23.8532 30.2546C22.9895 30.2553 21.8063 30.5554 21.1965 30.9286ZM7.52406 53.9317C5.4705 55.6543 3.79035 57.2339 3.79035 57.4419C3.79035 57.6503 4.78452 60.9877 5.99965 64.859C7.93888 71.0367 8.36395 72.0431 9.47575 73.0899L10.7422 74.2824H42.8296C77.9237 74.2824 76.4513 74.3719 77.5803 72.1664C78.1179 71.1167 82.2096 58.1031 82.2096 57.4434C82.2096 57.2342 80.5295 55.6543 78.4759 53.9317L74.7422 50.8001H43H11.2578L7.52406 53.9317ZM27.3088 57.2878C26.6393 57.618 25.6499 58.4682 25.1101 59.177C23.7056 61.0208 23.7078 64.0647 25.1153 65.912C27.0223 68.4158 26.994 68.4118 43 68.4118C59.006 68.4118 58.9777 68.4158 60.8847 65.912C61.6876 64.8583 61.8719 64.229 61.8719 62.5412C61.8719 60.8535 61.6876 60.2242 60.8847 59.1704C58.9759 56.6644 59.0144 56.6696 42.9447 56.6791C30.3452 56.6864 28.3719 56.7631 27.3088 57.2878ZM13.5012 58.4696C11.8701 59.1869 10.936 60.6777 10.936 62.5636C10.936 64.105 11.1068 64.5328 12.1339 65.5613C13.1651 66.5938 13.5854 66.7607 15.1502 66.7607C16.7149 66.7607 17.1352 66.5938 18.1664 65.5613C19.1975 64.5288 19.3643 64.1079 19.3643 62.5412C19.3643 60.9954 19.1931 60.5497 18.2309 59.5858C17.0209 58.3742 14.8713 57.8672 13.5012 58.4696ZM69.2008 58.4696C67.5698 59.1869 66.6357 60.6777 66.6357 62.5636C66.6357 64.105 66.8065 64.5328 67.8336 65.5613C68.8648 66.5938 69.2851 66.7607 70.8498 66.7607C72.4146 66.7607 72.8349 66.5938 73.8661 65.5613C74.8972 64.5288 75.064 64.1079 75.064 62.5412C75.064 60.9954 74.8928 60.5497 73.9305 59.5858C72.7205 58.3742 70.571 57.8672 69.2008 58.4696ZM27.776 60.5067C27.2088 61.0743 26.8764 61.8265 26.8764 62.5412C26.8764 63.256 27.2088 64.0081 27.776 64.5758L28.6753 65.4765H43H57.3247L58.224 64.5758C58.7912 64.0081 59.1236 63.256 59.1236 62.5412C59.1236 61.8265 58.7912 61.0743 58.224 60.5067L57.3247 59.606H43H28.6753L27.776 60.5067ZM14.0655 61.6063C13.0918 62.7808 14.5217 64.5849 15.7914 63.7843C17.0601 62.9841 16.6082 61.0736 15.1502 61.0736C14.7965 61.0736 14.3084 61.3132 14.0655 61.6063ZM69.7652 61.6063C68.7915 62.7808 70.2214 64.5849 71.4911 63.7843C72.7598 62.9841 72.3079 61.0736 70.8498 61.0736C70.4962 61.0736 70.0081 61.3132 69.7652 61.6063ZM79.1927 74.755C79.0447 75.116 78.0553 75.8161 76.994 76.3107C75.2417 77.1278 74.6004 77.2107 70.0253 77.214L64.9867 77.2177V79.7127C64.9867 81.1642 65.1707 82.3918 65.4265 82.6479C66.1051 83.3275 78.6775 83.2625 79.2458 82.5764C79.5251 82.2396 79.6343 80.704 79.5658 78.0817C79.5082 75.8913 79.3404 74.3943 79.1927 74.755ZM6.35547 78.3716C6.35547 80.8659 6.50937 82.3618 6.7952 82.6479C7.41376 83.2673 19.955 83.2673 20.5735 82.6479C20.8293 82.3918 21.0133 81.1642 21.0133 79.7127V77.2177L15.9747 77.2096C11.703 77.2026 10.6861 77.0881 9.29363 76.4556C8.39034 76.0454 7.35953 75.4455 7.00334 75.1226C6.38771 74.5649 6.35547 74.7267 6.35547 78.3716Z" stroke="#058FA2" stroke-width="0.8" mask="url(#path-1-outside-1_2982_8493)"/>
<path fill-rule="evenodd" clip-rule="evenodd" d="M38.0411 10.211C37.7483 10.564 37.6523 13.121 37.7212 18.702C37.8095 25.8439 37.8879 26.7308 38.4614 27.0929C38.9279 27.3872 39.2774 27.3875 39.7439 27.094C40.2379 26.7832 40.4101 26.0883 40.493 24.0688L40.6007 21.4473H42.6363C45.1325 21.4473 46.8914 20.6562 48.1927 18.9475C48.9956 17.8937 49.1799 17.2645 49.1799 15.5767C49.1799 13.8889 48.9956 13.2596 48.1927 12.2059C46.7265 10.2811 45.2021 9.70612 41.5655 9.70612C39.3757 9.70612 38.3361 9.85508 38.0411 10.211ZM40.5684 15.5767V18.512H42.6004C45.0457 18.512 46.4316 17.4501 46.4316 15.5767C46.4316 13.7032 45.0457 12.6414 42.6004 12.6414H40.5684V15.5767ZM14.0012 58.4696C12.3701 59.1869 11.436 60.6777 11.436 62.5636C11.436 64.105 11.6068 64.5328 12.6339 65.5613C13.6651 66.5938 14.0854 66.7607 15.6502 66.7607C17.2149 66.7607 17.6352 66.5938 18.6664 65.5613C19.6975 64.5288 19.8643 64.1079 19.8643 62.5412C19.8643 60.9954 19.6931 60.5497 18.7309 59.5858C17.5209 58.3742 15.3713 57.8672 14.0012 58.4696ZM69.7008 58.4696C68.0698 59.1869 67.1357 60.6777 67.1357 62.5636C67.1357 64.105 67.3065 64.5328 68.3336 65.5613C69.3648 66.5938 69.7851 66.7607 71.3498 66.7607C72.9146 66.7607 73.3349 66.5938 74.3661 65.5613C75.3972 64.5288 75.564 64.1079 75.564 62.5412C75.564 60.9954 75.3928 60.5497 74.4305 59.5858C73.2205 58.3742 71.071 57.8672 69.7008 58.4696ZM14.5655 61.6063C13.5918 62.7808 15.0217 64.5849 16.2914 63.7843C17.5601 62.9841 17.1082 61.0736 15.6502 61.0736C15.2965 61.0736 14.8084 61.3132 14.5655 61.6063ZM70.2652 61.6063C69.2915 62.7808 70.7214 64.5849 71.9911 63.7843C73.2598 62.9841 72.8079 61.0736 71.3498 61.0736C70.9962 61.0736 70.5081 61.3132 70.2652 61.6063Z" fill="#FDC114"/>
</svg>
