<svg width="58" height="88" viewBox="0 0 58 88" fill="none" xmlns="http://www.w3.org/2000/svg">
<g clip-path="url(#clip0_5103_7755)">
<path fill-rule="evenodd" clip-rule="evenodd" d="M19.1824 2.83603H11.8192H10.2206C8.83963 2.83603 7.72861 3.94746 7.72861 5.30588V27.6844C7.39318 27.8062 7.08557 27.9989 6.82703 28.2524C6.3558 28.7168 6.09236 29.3474 6.09236 30.0045V30.8277H3.63798C2.28316 30.8277 1.18359 31.9342 1.18359 33.2976V79.4015C1.18359 80.7649 2.28316 81.8714 3.63798 81.8714H7.87097C7.77933 82.1298 7.72861 82.4066 7.72861 82.6947V84.3413C7.72861 85.6997 8.838 86.8111 10.2174 86.8111C12.0238 86.8111 14.8872 86.8111 16.6936 86.8111C18.073 86.8111 19.1824 85.6997 19.1824 84.3413V82.6947C19.1824 82.4066 19.1316 82.1298 19.04 81.8714H38.9598C38.8682 82.1298 38.8174 82.4066 38.8174 82.6947V84.3413C38.8174 85.6997 39.9284 86.8111 41.3094 86.8111C43.1191 86.8111 45.9842 86.8111 47.7939 86.8111C49.1749 86.8111 50.2859 85.6997 50.2859 84.3413V82.6947C50.2859 82.4066 50.2353 82.1298 50.1436 81.8714H54.3619C55.7167 81.8714 56.8162 80.7649 56.8162 79.4015V56.3495V33.2976C56.8162 31.9342 55.7167 30.8277 54.3619 30.8277H51.9074V30.0045C51.9074 29.3474 51.6441 28.7168 51.1728 28.2524C50.9143 27.9989 50.6067 27.8062 50.2712 27.6844V5.30588C50.2712 3.94746 49.1619 2.83603 47.7825 2.83603H46.2035H46.1856L38.8174 2.7965V2.01274C38.8174 1.55828 38.451 1.18945 37.9993 1.18945H20.0006C19.5489 1.18945 19.1824 1.55828 19.1824 2.01274V2.83603ZM41.3094 81.8714H47.7939C48.262 81.8714 48.6497 82.2353 48.6497 82.6947V84.3413C48.6497 84.8006 48.262 85.1645 47.7939 85.1645H41.3094C40.8415 85.1645 40.4537 84.8006 40.4537 84.3413V82.6947C40.4537 82.2353 40.8415 81.8714 41.3094 81.8714ZM10.2174 81.8714H16.6936C17.16 81.8714 17.5461 82.2353 17.5461 82.6947V84.3413C17.5461 84.8006 17.16 85.1645 16.6936 85.1645H10.2174C9.75102 85.1645 9.36487 84.8006 9.36487 84.3413V82.6947C9.36487 82.2353 9.75102 81.8714 10.2174 81.8714ZM6.09236 32.4743H3.63798C3.18637 32.4743 2.81984 32.8431 2.81984 33.2976V79.4015C2.81984 79.856 3.18637 80.2248 3.63798 80.2248H54.3619C54.8135 80.2248 55.1799 79.856 55.1799 79.4015V33.2976C55.1799 32.8431 54.8135 32.4743 54.3619 32.4743H51.9074V36.5907C51.9074 37.0452 51.541 37.4139 51.0894 37.4139H6.91049C6.45888 37.4139 6.09236 37.0452 6.09236 36.5907V32.4743ZM49.4188 29.1812H8.55655C8.3373 29.1877 8.12786 29.275 7.97241 29.4282C7.81697 29.5812 7.72861 29.7887 7.72861 30.0045V35.7674H50.2712V30.0045C50.2712 29.7887 50.1828 29.5812 50.0274 29.4282C49.8655 29.27 49.6461 29.1812 49.4188 29.1812ZM46.9987 4.48259H47.7825C48.2488 4.48259 48.6349 4.84648 48.6349 5.30588V27.5345H46.9987V4.48259ZM19.3247 7.77738H12.6406V27.5345H45.3624V7.77573H38.6752C38.3347 8.73238 37.4151 9.42231 36.3288 9.42231H21.6711C20.5847 9.42231 19.6668 8.73404 19.3247 7.77738ZM11.0011 4.48259H10.2206C9.75266 4.48259 9.36487 4.84648 9.36487 5.30588V27.5345H11.0044V7.03642C11.0028 7.00843 11.0011 6.98044 11.0011 6.9541V4.48259ZM20.8186 6.95244V2.83603H37.1812V6.95244C37.1812 7.41184 36.795 7.77573 36.3288 7.77573H21.6711C21.2048 7.77573 20.8186 7.41184 20.8186 6.95244ZM19.1824 4.48259H12.6406V6.13081H19.1824V4.48259ZM45.3624 4.47766L38.8174 4.44307V6.12917H45.3624V4.47766Z" fill="#058FA2" stroke="#058FA2"/>
<path d="M19.709 40.9062H20.9219C20.923 40.9062 20.9251 40.9062 20.9287 40.9072C20.9329 40.9084 20.9425 40.9124 20.957 40.9209C20.9873 40.9386 21.0389 40.9779 21.0957 41.0566C21.2122 41.218 21.3154 41.4919 21.3154 41.8398V73.7871C21.3153 74.1347 21.2121 74.4079 21.0957 74.5693C21.0388 74.6482 20.9873 74.6883 20.957 74.7061C20.9426 74.7145 20.9329 74.7176 20.9287 74.7188C20.925 74.7198 20.923 74.7197 20.9219 74.7197H19.709C19.7078 74.7197 19.7056 74.7197 19.7021 74.7188C19.6977 74.7174 19.6879 74.7143 19.6738 74.7061C19.6435 74.6882 19.5929 74.6479 19.5361 74.5693C19.4197 74.4079 19.3165 74.1347 19.3164 73.7871V41.8398C19.3164 41.4923 19.4197 41.2191 19.5361 41.0576C19.5927 40.9792 19.6435 40.9388 19.6738 40.9209C19.6881 40.9125 19.6977 40.9085 19.7021 40.9072L19.709 40.9062ZM29.4121 40.9062H30.625C30.6262 40.9063 30.6284 40.9063 30.6318 40.9072C30.6363 40.9085 30.646 40.9126 30.6602 40.9209C30.6905 40.9388 30.7413 40.9792 30.7979 41.0576C30.9142 41.2191 31.0175 41.4923 31.0176 41.8398V73.7871C31.0174 74.1347 30.9143 74.408 30.7979 74.5693C30.7409 74.6482 30.6895 74.6883 30.6592 74.7061C30.6448 74.7145 30.635 74.7176 30.6309 74.7188C30.6277 74.7196 30.6261 74.7197 30.625 74.7197H29.4121C29.411 74.7197 29.4089 74.7198 29.4053 74.7188C29.4011 74.7176 29.3914 74.7145 29.377 74.7061C29.3467 74.6883 29.2952 74.6482 29.2383 74.5693C29.1219 74.4079 29.0187 74.1347 29.0186 73.7871V41.8398C29.0186 41.4919 29.1218 41.218 29.2383 41.0566C29.2951 40.9779 29.3467 40.9386 29.377 40.9209C29.3915 40.9124 29.4011 40.9084 29.4053 40.9072C29.4088 40.9062 29.411 40.9062 29.4121 40.9062ZM39.1143 40.9062H40.3271C40.3283 40.9063 40.3305 40.9062 40.334 40.9072C40.3384 40.9085 40.3479 40.9125 40.3623 40.9209C40.3927 40.9388 40.4433 40.9791 40.5 41.0576C40.6164 41.219 40.7197 41.4922 40.7197 41.8398V73.7871C40.7196 74.1347 40.6165 74.4079 40.5 74.5693C40.4432 74.648 40.3926 74.6882 40.3623 74.7061C40.3482 74.7144 40.3384 74.7174 40.334 74.7188C40.3305 74.7197 40.3283 74.7197 40.3271 74.7197H39.1143C39.1131 74.7197 39.1113 74.7198 39.1074 74.7188C39.1032 74.7176 39.0937 74.7146 39.0791 74.7061C39.0489 74.6883 38.9983 74.6481 38.9414 74.5693C38.825 74.408 38.7218 74.1348 38.7217 73.7871V41.8398C38.7217 41.4919 38.8249 41.218 38.9414 41.0566C38.9981 40.9782 39.0489 40.9386 39.0791 40.9209C39.0937 40.9123 39.1032 40.9084 39.1074 40.9072C39.1112 40.9062 39.1131 40.9062 39.1143 40.9062Z" stroke="#FDC114" stroke-width="2"/>
</g>
<defs>
<clipPath id="clip0_5103_7755">
<rect width="58" height="88" fill="white"/>
</clipPath>
</defs>
</svg>
