<svg width="72" height="72" viewBox="0 0 72 72" fill="none" xmlns="http://www.w3.org/2000/svg">
<path d="M65.0099 45.4906H54.6631V37.9H57.9943H58.9943V37.7031H59.0349H61.1162H61.1568V37.9H62.1568H65.0099V45.4906ZM51.7631 28.3094V45.4625H46.3381V28.3094H47.7006H48.7006V27.3094V26.0312H49.4006V27.3094V28.3094H50.4006H51.7631ZM59.5537 8.32499V9.12756L60.3372 9.30128C66.0115 10.5594 70.4662 16.4088 70.4662 23.6531V60.2H41.2756V39.5156V38.5156H40.2756H40.2754H40.2752H40.2751H40.2749H40.2748H40.2746H40.2744H40.2743H40.2741H40.274H40.2738H40.2736H40.2735H40.2733H40.2732H40.273H40.2729H40.2727H40.2726H40.2724H40.2723H40.2721H40.2719H40.2718H40.2716H40.2715H40.2714H40.2712H40.2711H40.2709H40.2708H40.2706H40.2705H40.2703H40.2702H40.27H40.2699H40.2698H40.2696H40.2695H40.2693H40.2692H40.2691H40.2689H40.2688H40.2686H40.2685H40.2684H40.2682H40.2681H40.268H40.2678H40.2677H40.2675H40.2674H40.2673H40.2671H40.267H40.2669H40.2668H40.2666H40.2665H40.2664H40.2662H40.2661H40.266H40.2659H40.2657H40.2656H40.2655H40.2653H40.2652H40.2651H40.265H40.2648H40.2647H40.2646H40.2645H40.2644H40.2642H40.2641H40.264H40.2639H40.2638H40.2636H40.2635H40.2634H40.2633H40.2632H40.263H40.2629H40.2628H40.2627H40.2626H40.2625H40.2623H40.2622H40.2621H40.262H40.2619H40.2618H40.2617H40.2616H40.2614H40.2613H40.2612H40.2611H40.261H40.2609H40.2608H40.2607H40.2606H40.2605H40.2603H40.2602H40.2601H40.26H40.2599H40.2598H40.2597H40.2596H40.2595H40.2594H40.2593H40.2592H40.2591H40.259H40.2589H40.2588H40.2587H40.2586H40.2585H40.2584H40.2583H40.2582H40.2581H40.258H40.2579H40.2578H40.2577H40.2576H40.2575H40.2574H40.2573H40.2572H40.2571H40.257H40.2569H40.2568H40.2567H40.2566H40.2565H40.2564H40.2563H40.2562H40.2561H40.256H40.2559H40.2558H40.2557H40.2556H40.2555H40.2554H40.2554H40.2553H40.2552H40.2551H40.255H40.2549H40.2548H40.2547H40.2546H40.2545H40.2544H40.2543H40.2543H40.2542H40.2541H40.254H40.2539H40.2538H40.2537H40.2536H40.2535H40.2534H40.2534H40.2533H40.2532H40.2531H40.253H40.2529H40.2528H40.2527H40.2527H40.2526H40.2525H40.2524H40.2523H40.2522H40.2521H40.252H40.252H40.2519H40.2518H40.2517H40.2516H40.2515H40.2514H40.2514H40.2513H40.2512H40.2511H40.251H40.2509H40.2509H40.2508H40.2507H40.2506H40.2505H40.2504H40.2504H40.2503H40.2502H40.2501H40.25H40.2499H40.2498H40.2498H40.2497H40.2496H40.2495H40.2494H40.2493H40.2493H40.2492H40.2491H40.249H40.2489H40.2489H40.2488H40.2487H40.2486H40.2485H40.2484H40.2484H40.2483H40.2482H40.2481H40.248H40.2479H40.2479H40.2478H40.2477H40.2476H40.2475H40.2474H40.2474H40.2473H40.2472H40.2471H40.247H40.247H40.2469H40.2468H40.2467H40.2466H40.2465H40.2465H40.2464H40.2463H40.2462H40.2461H40.246H40.246H40.2459H40.2458H40.2457H40.2456H40.2455H40.2455H40.2454H40.2453H40.2452H40.2451H40.245H40.245H40.2449H40.2448H40.2447H40.2446H40.2445H40.2445H40.2444H40.2443H40.2442H40.2441H40.244H40.244H40.2439H40.2438H40.2437H40.2436H40.2435H40.2434H40.2434H40.2433H40.2432H40.2431H40.243H40.2429H40.2428H40.2428H40.2427H40.2426H40.2425H40.2424H40.2423H40.2422H40.2422H40.2421H40.242H40.2419H40.2418H40.2417H40.2416H40.2415H40.2414H40.2414H40.2413H40.2412H40.2411H40.241H40.2409H40.2408H40.2407H40.2406H40.2406H40.2405H40.2404H40.2403H40.2402H40.2401H40.24H40.2399H40.2398H40.2397H40.2396H40.2395H40.2394H40.2394H40.2393H40.2392H40.2391H40.239H40.2389H40.2388H40.2387H40.2386H40.2385H40.2384H40.2383H40.2382H40.2381H40.238H40.2379H40.2378H40.2377H40.2376H40.2375H40.2374H40.2373H40.2372H40.2371H40.237H40.2369H40.2368H40.2367H40.2366H40.2365H40.2364H40.2363H40.2362H40.2361H40.236H40.2359H40.2358H40.2357H40.2356H40.2355H40.2354H40.2353H40.2352H40.2351H40.235H40.2349H40.2348H40.2347H40.2346H40.2344H40.2343H40.2342H40.2341H40.234H40.2339H40.2338H40.2337H40.2336H40.2335H40.2333H40.2332H40.2331H40.233H40.2329H40.2328H40.2327H40.2325H40.2324H40.2323H40.2322H40.2321H40.232H40.2319H40.2317H40.2316H40.2315H40.2314H40.2313H40.2311H40.231H40.2309H40.2308H40.2307H40.2305H40.2304H40.2303H40.2302H40.23H40.2299H40.2298H40.2297H40.2296H40.2294H40.2293H40.2292H40.229H40.2289H40.2288H40.2287H40.2285H40.2284H40.2283H40.2281H40.228H40.2279H40.2277H40.2276H40.2275H40.2274H40.2272H40.2271H40.2269H40.2268H40.2267H40.2265H40.2264H40.2263H40.2261H40.226H40.2258H40.2257H40.2256H40.2254H40.2253H40.2251H40.225H40.2249H40.2247H40.2246H40.2244H40.2243H40.2241H40.224H40.2238H40.2237H40.2235H40.2234H40.2233H40.2231H40.2229H40.2228H40.2226H40.2225H40.2223H40.2222H40.222H40.2219H40.2217H40.2216H40.2214H40.2213H40.2211H40.2209H40.2208H40.2206H40.2205H40.2203H40.2201H40.22H40.2198H40.2197H40.2195H40.2193C40.1089 38.5156 40.0124 38.5273 39.9562 38.535C39.9047 38.5258 39.8301 38.5156 39.7412 38.5156H29.8975C29.1552 38.5156 28.5464 37.9261 28.5351 37.1743L28.7306 33.1801L26.8183 32.7245L23.4996 40.1776L23.2681 40.6973L23.5966 41.1618L29.9521 50.149C30.3367 50.8341 30.726 51.8371 30.6467 52.9615L28.7675 65.6946L28.7662 65.7035L28.7651 65.7124C28.5612 67.2898 27.4483 68.0063 26.5019 68.0224C26.0243 68.0305 25.599 67.8643 25.2979 67.5535C25.0096 67.2558 24.755 66.7413 24.7648 65.8966L26.7239 52.8548L26.7865 52.4377L26.5315 52.1017L20.5971 44.2829L19.3141 42.5925L18.8272 44.6581L19.8006 44.8875L18.8272 44.6582L18.8272 44.6585L18.8269 44.6596L18.8258 44.6642L18.8216 44.6821L18.8051 44.7519L18.7426 45.0171L18.5196 45.9638C18.335 46.7474 18.0889 47.7925 17.8428 48.8385C17.5967 49.8845 17.3505 50.9316 17.1659 51.719C17.0735 52.1126 16.9965 52.4418 16.9425 52.6737C16.9155 52.7894 16.8941 52.8818 16.8794 52.9459L16.8761 52.9603C16.7851 53.1663 16.6988 53.3091 16.6057 53.4152C16.5758 53.4384 16.5405 53.4666 16.5069 53.4933C16.4315 53.5534 16.3425 53.6246 16.2461 53.6986C16.1488 53.7731 16.0535 53.8432 15.9695 53.8993C15.8785 53.9603 15.8393 53.9788 15.8434 53.9772L4.78673 58.5398C3.78912 58.8281 3.08863 58.7333 2.6275 58.522C2.15862 58.3073 1.83784 57.928 1.6712 57.4715C1.32078 56.5116 1.6846 55.4065 2.64091 54.9771L12.8625 50.8491L13.3683 50.6449L13.4704 50.1091L12.4881 49.9219C13.4704 50.1091 13.4704 50.109 13.4704 50.1089L13.4705 50.1085L13.4709 50.1066L13.4723 50.0991L13.4779 50.0697L13.4998 49.9547L13.5833 49.5172L13.883 47.9469C14.1321 46.6423 14.4669 44.8909 14.8096 43.1035C15.4707 39.6559 16.1551 36.1062 16.3165 35.3378C16.3279 35.3126 16.3476 35.2694 16.3793 35.2036C16.4383 35.081 16.5206 34.9162 16.6246 34.7125C16.8322 34.3061 17.1171 33.7625 17.4544 33.1266C18.1286 31.8558 19.0049 30.2304 19.8746 28.6262C20.744 27.0226 21.6057 25.4425 22.2501 24.2631C22.5722 23.6735 22.84 23.1841 23.0273 22.8421L23.2444 22.4457L23.2985 22.3471C24.2724 20.923 25.8512 20.089 27.6047 20.3138L27.613 20.3148L27.6214 20.3158C28.0466 20.363 28.5828 20.5762 29.1123 20.9343C29.6375 21.2894 30.0787 21.7349 30.3432 22.1581L30.3817 22.2197L30.4287 22.2751C31.028 22.9814 31.26 23.9425 31.26 24.6094V34.5937V35.5937H32.26H39.6568H39.6572H39.6575H39.6578H39.6581H39.6585H39.6588H39.6591H39.6595H39.6598H39.6602H39.6605H39.6608H39.6612H39.6615H39.6618H39.6622H39.6625H39.6629H39.6632H39.6635H39.6639H39.6642H39.6646H39.6649H39.6653H39.6656H39.666H39.6663H39.6666H39.667H39.6673H39.6677H39.668H39.6684H39.6687H39.6691H39.6694H39.6698H39.6702H39.6705H39.6709H39.6712H39.6716H39.6719H39.6723H39.6726H39.673H39.6734H39.6737H39.6741H39.6744H39.6748H39.6752H39.6755H39.6759H39.6763H39.6766H39.677H39.6773H39.6777H39.6781H39.6784H39.6788H39.6792H39.6796H39.6799H39.6803H39.6807H39.681H39.6814H39.6818H39.6821H39.6825H39.6829H39.6833H39.6836H39.684H39.6844H39.6848H39.6851H39.6855H39.6859H39.6863H39.6867H39.687H39.6874H39.6878H39.6882H39.6886H39.6889H39.6893H39.6897H39.6901H39.6905H39.6909H39.6912H39.6916H39.692H39.6924H39.6928H39.6932H39.6936H39.694H39.6943H39.6947H39.6951H39.6955H39.6959H39.6963H39.6967H39.6971H39.6975H39.6979H39.6983H39.6987H39.6991H39.6995H39.6999H39.7003H39.7006H39.701H39.7014H39.7018H39.7022H39.7026H39.703H39.7034H39.7038H39.7043H39.7047H39.7051H39.7055H39.7059H39.7063H39.7067H39.7071H39.7075H39.7079H39.7083H39.7087H39.7091H39.7095H39.7099H39.7103H39.7107H39.7112H39.7116H39.712H39.7124H39.7128H39.7132H39.7136H39.714H39.7145H39.7149H39.7153H39.7157H39.7161H39.7165H39.7169H39.7174H39.7178H39.7182H39.7186H39.719H39.7194H39.7199H39.7203H39.7207H39.7211H39.7215H39.722H39.7224H39.7228H39.7232H39.7237H39.7241H39.7245H39.7249H39.7254H39.7258H39.7262H39.7266H39.7271H39.7275H39.7279H39.7283H39.7288H39.7292H39.7296H39.7301H39.7305H39.7309H39.7313H39.7318H39.7322H39.7326H39.7331H39.7335H39.7339H39.7344H39.7348H39.7352H39.7357H39.7361H39.7365H39.737H39.7374H39.7379H39.7383H39.7387H39.7392H39.7396H39.74H39.7405H39.7409H39.7414H39.7418H39.7422H39.7427H39.7431H39.7436H39.744H39.7444H39.7449H39.7453H39.7458H39.7462H39.7467H39.7471H39.7476H39.748H39.7484H39.7489H39.7493H39.7498H39.7502H39.7507H39.7511H39.7516H39.752H39.7525H39.7529H39.7534H39.7538H39.7543H39.7547H39.7552H39.7556H39.7561H39.7565H39.757H39.7574H39.7579H39.7583H39.7588H39.7592H39.7597H39.7601H39.7606H39.761H39.7615H39.762H39.7624H39.7629H39.7633H39.7638H39.7642H39.7647H39.7652H39.7656H39.7661H39.7665H39.767H39.7674H39.7679H39.7684H39.7688H39.7693H39.7697H39.7702H39.7707H39.7711H39.7716H39.772H39.7725H39.773H39.7734H39.7739H39.7744H39.7748H39.7753H39.7758H39.7762H39.7767H39.7771H39.7776H39.7781H39.7785H39.779H39.7795H39.7799H39.7804H39.7809H39.7813H39.7818H39.7823H39.7827H39.7832H39.7837H39.7842H39.7846H39.7851H39.7856H39.786H39.7865H39.787H39.7874H39.7879H39.7884H39.7889H39.7893H39.7898H39.7903H39.7907H39.7912H39.7917H39.7922H39.7926H39.7931H39.7936H39.7941H39.7945H39.795H39.7955H39.796H39.7964H39.7969H39.7974H39.7979H39.7983H39.7988H39.7993H39.7998H39.8002H39.8007H39.8012H39.8017H39.8021H39.8026H39.8031H39.8036H39.8041H39.8045H39.805H39.8055H39.806H39.8065H39.8069H39.8074H39.8079H39.8084H39.8089H39.8093H39.8098H39.8103H39.8108H39.8113H39.8117H39.8122H39.8127H39.8132H39.8137H39.8142H39.8146H39.8151H39.8156H39.8161H39.8166H39.817H39.8175H39.818H39.8185H39.819H39.8195H39.82H39.8204H39.8209H39.8214H39.8219H39.8224H39.8229H39.8233H39.8238H39.8243H39.8248H39.8253H39.8258H39.8263H39.8267H39.8272H39.8277H39.8282H39.8287H39.8292H39.8297H39.8302H39.8306H39.8311H39.8316H39.8321H39.8326H39.8331H39.8336H39.8341H39.8345H39.835H39.8355H39.836H39.8365H39.837H39.8375H39.838H39.8385H39.839H39.8394H39.8399H39.8404H39.8409H39.8414H39.8419H39.8424H39.8429H39.8434H39.8439H39.8443H39.8448H39.8453H39.8458H39.8463H39.8468H39.8473H39.8478H39.8483H39.8488H39.8493H39.8497H39.8502H39.8507H39.8512H39.8517H39.8522H39.8527H39.8532H39.8537H39.8542H39.8547H39.8552H39.8557H39.8561H39.8566H39.8571H39.8576H39.8581H39.8586H39.8591H39.8596H39.8601H39.8606H39.8611H39.8616H39.8621H39.8626H39.863H39.8635H39.864H39.8645H39.865H39.8655H39.866H39.8665H39.867H39.8675H39.868H39.8685H39.869H39.8695H39.87H39.8705H39.8709H39.8714H39.8719H39.8724H39.8729H39.8734H39.8739H39.8744H39.8749H39.8754H39.8759H39.8764H39.8769H39.8774H39.8779H39.8784H39.8789H39.8794H39.8798H39.8803H39.8808H39.8813H39.8818H39.9099C39.97 35.5937 40.0061 35.594 40.0373 35.5957C40.0435 35.5961 40.0483 35.5964 40.0518 35.5967L41.2756 35.9026V34.6219V23.6531C41.2756 16.437 45.7303 10.587 51.3773 9.3292L52.1599 9.1549V8.35312C52.1599 6.52588 53.5036 5.01635 55.2598 4.72735L56.0381 4.59928V4.60577L56.7955 4.79514C58.3859 5.19273 59.5537 6.629 59.5537 8.32499ZM69.0474 59.8094H70.0466L70.0474 58.8102L70.0756 23.6539V23.6531C70.0756 15.9946 64.8687 9.46249 58.0787 9.46249H53.6631C46.8731 9.46249 41.6662 15.9946 41.6662 23.6531V58.8094V59.8094H42.6662H69.0474ZM63.9162 65.925C63.9162 64.7617 64.8466 63.8312 66.0099 63.8312C67.1733 63.8312 68.1037 64.7617 68.1037 65.925C68.1037 67.0883 67.1733 68.0187 66.0099 68.0187C64.8466 68.0187 63.9162 67.0883 63.9162 65.925ZM32.8225 10.5344C35.1108 10.5344 36.9412 12.3648 36.9412 14.6531C36.9412 16.9415 35.1108 18.7719 32.8225 18.7719C30.5341 18.7719 28.7037 16.9415 28.7037 14.6531C28.7037 12.3648 30.5341 10.5344 32.8225 10.5344ZM43.6381 65.925C43.6381 64.7617 44.5685 63.8312 45.7318 63.8312C46.8952 63.8312 47.8256 64.7617 47.8256 65.925C47.8256 67.0883 46.8952 68.0187 45.7318 68.0187C44.5685 68.0187 43.6381 67.0883 43.6381 65.925ZM46.7318 49.9094H65.0099V55.7H46.7318V49.9094Z" stroke="#058FA2" stroke-width="2"/>
</svg>
