<svg width="120" height="120" viewBox="0 0 120 120" fill="none" xmlns="http://www.w3.org/2000/svg">
<path d="M88.125 112.438H31.875C29.3251 112.438 27.25 110.362 27.25 107.812V12.1875C27.25 9.6376 29.3251 7.5625 31.875 7.5625H88.125C90.6749 7.5625 92.75 9.6376 92.75 12.1875V107.812C92.75 110.362 90.6749 112.438 88.125 112.438ZM31.875 9.3125C30.2887 9.3125 29 10.6012 29 12.1875V107.812C29 109.399 30.2887 110.688 31.875 110.688H88.125C89.7113 110.688 91 109.399 91 107.812V12.1875C91 10.6012 89.7113 9.3125 88.125 9.3125H31.875Z" stroke="#058FA2" stroke-width="2"/>
<path d="M29.125 60.875V59.125H90.875V60.875H29.125Z" stroke="#058FA2" stroke-width="2"/>
<path d="M84.375 79.625C83.8923 79.625 83.5 79.2327 83.5 78.75V69.375C83.5 68.8923 83.8923 68.5 84.375 68.5C84.8577 68.5 85.25 68.8923 85.25 69.375V78.75C85.25 79.2327 84.8577 79.625 84.375 79.625Z" stroke="#FDC114" stroke-width="2"/>
<path d="M60 45.875C59.5173 45.875 59.125 45.4827 59.125 45V20.625C59.125 20.1423 59.5173 19.75 60 19.75C60.4827 19.75 60.875 20.1423 60.875 20.625V45C60.875 45.4827 60.4827 45.875 60 45.875Z" stroke="#FDC114" stroke-width="2"/>
<path d="M70.1187 39.6639L70.119 39.6641C70.2574 39.7441 70.4065 39.7812 70.5543 39.7812C70.8597 39.7812 71.1521 39.6235 71.314 39.3436C71.5554 38.9245 71.4123 38.3906 70.9937 38.1485L70.1187 39.6639ZM70.1187 39.6639L49.0084 27.4766C49.0083 27.4766 49.0083 27.4766 49.0083 27.4766C49.0082 27.4765 49.0081 27.4765 49.008 27.4764C48.5894 27.2343 48.4464 26.7004 48.6877 26.2814C48.9305 25.8623 49.4625 25.719 49.8836 25.9613C49.8837 25.9614 49.8838 25.9614 49.8839 25.9615L70.9934 38.1483L70.1187 39.6639Z" stroke="#FDC114" stroke-width="2"/>
<path d="M49.0077 38.1487L49.008 38.1485L70.1186 25.961C70.5373 25.7193 71.0713 25.8621 71.3142 26.2817C71.5556 26.7013 71.4116 27.2354 70.994 27.4762L70.9937 27.4764L49.8831 39.6639L49.8828 39.6641C49.7444 39.7441 49.5952 39.7812 49.4474 39.7812C49.142 39.7812 48.8496 39.6235 48.6878 39.3436C48.446 38.924 48.59 38.3896 49.0077 38.1487Z" stroke="#FDC114" stroke-width="2"/>
</svg>
