<svg width="143" height="125" viewBox="0 0 143 125" fill="none" xmlns="http://www.w3.org/2000/svg">
<path d="M40.4625 25.5756C39.1219 27.426 36.8062 32.1546 35.7906 35.2385C34.0437 40.5427 33.7594 47.0395 35.1406 51.6447L35.6687 53.4539H32.825C28.3969 53.4539 28.4375 53.4128 28.4375 59.4161C28.4375 63.8569 28.3562 64.5559 27.7875 64.5559C26.4875 64.5559 24.375 65.9128 23.5625 67.2286C22.7906 68.5033 22.75 69.2434 22.75 83.9227C22.75 98.5608 22.7906 99.3832 23.5625 100.658C24.0094 101.398 24.9437 102.344 25.675 102.796C26.975 103.577 27.7875 103.618 59.7187 103.618C90.8375 103.618 92.5031 103.577 93.8437 102.837C96.5656 101.357 96.8906 100.288 97.0125 91.2418L97.1344 83.1826L100.709 86.7599C104.975 91.0362 108.672 93.1743 111.231 92.8454C112.572 92.6398 116.472 90.5839 123.744 86.2664C127.359 84.0872 127.766 82.5658 126.303 75.7812C123.581 63.0756 116.106 48.8898 105.666 36.5954C99.6937 29.5641 97.825 28.125 95.0625 28.495C94.25 28.5773 91.0812 30.0987 88.0344 31.8256C85.0281 33.5526 82.3469 34.9506 82.1437 34.9506C81.9 34.9506 81.25 35.5263 80.6812 36.1842C79.6656 37.4177 79.5844 37.4589 77.9187 36.9654C75.2781 36.2664 71.4594 36.801 66.0969 38.6513C57.7687 41.5707 53.4625 41.2829 49.5219 37.5411C47.2062 35.3618 44.9719 31.1266 44.2812 27.6727C43.9969 26.3569 43.5906 25.0411 43.3875 24.7533C42.6562 23.8898 41.5187 24.2187 40.4625 25.5756ZM41.8437 31.3322C41.8437 32.5247 44.2812 36.9654 46.0281 38.898C47.0437 40.0493 49.0344 41.6118 50.4562 42.3931C52.9344 43.75 53.1781 43.7911 57.4844 43.7911C61.6687 43.7911 62.2781 43.6678 66.8281 42.0641C69.5094 41.1184 72.4344 40.2549 73.3281 40.0904C74.8719 39.8437 78.1625 40.3372 78.6906 40.8717C78.8125 40.995 79.0562 42.6398 79.2594 44.4901C79.5437 47.574 80.5187 52.1793 81.0875 53.0839C81.2094 53.2895 72.2719 53.4128 60.2469 53.3717L39.2031 53.2483L38.4312 50.9868C37.4562 48.0263 37.4156 41.8585 38.35 38.4457C39.6906 33.5937 41.8437 29.2352 41.8437 31.3322ZM99.3281 34.6217C108.672 44.3256 117.528 58.5937 121.225 69.9013C122.891 75 124.028 80.4276 123.744 81.6612C123.581 82.2779 122.403 83.1826 120.087 84.4572C118.219 85.4852 116.553 86.3487 116.431 86.3487C116.309 86.3487 116.187 85.4441 116.187 84.3339C116.187 72.0395 102.334 46.0115 91.3656 37.6645C89.9437 36.5543 88.7656 35.6085 88.7656 35.4852C88.7656 35.1974 95.2656 31.7023 95.875 31.6612C96.2 31.6612 97.7437 33.0181 99.3281 34.6217ZM88.4812 39.7615C94.8187 44.1612 104.081 57.5658 108.753 69.0789C113.141 79.8931 114.237 88.4868 111.272 89.4326C110.175 89.8026 106.803 87.8701 104.081 85.3207C93.6406 75.5345 82.4687 53.4128 82.4687 42.4753C82.4687 37.4177 84.0937 36.6776 88.4812 39.7615ZM82.4687 57.5247C82.6719 57.977 82.875 58.4293 82.875 58.5526C82.875 58.676 71.3781 58.7993 57.2812 58.7993C32.7437 58.7993 31.6875 58.7582 31.6875 58.0592C31.6875 57.648 31.8094 57.1546 31.9719 57.0312C32.0938 56.8668 43.4281 56.7434 57.1187 56.7434C81.3312 56.7434 82.0625 56.7845 82.4687 57.5247ZM84.825 62.9934C86.3687 64.5559 86.2469 64.5559 58.5 64.5559H31.6875V63.5279V62.5H58.0125C77.9594 62.5 84.4594 62.6233 84.825 62.9934ZM89.2937 71.4227C90.4312 73.4375 91.8125 75.6579 92.3812 76.4391L93.4375 77.8783V88.4457C93.4375 98.9309 93.4375 99.0543 92.5437 99.671C91.7312 100.247 87.9531 100.329 59.7187 100.329C28.1531 100.329 27.7875 100.329 26.8937 99.5066C26 98.6431 26 98.5608 26 84.0872C26 70.0247 26.0406 69.449 26.8125 68.6677C27.625 67.8454 28.1531 67.8454 57.4437 67.8454H87.2625L89.2937 71.4227Z" fill="#058FA2"/>
<path d="M28.6011 77.0149C28.5198 77.3027 28.4792 80.6744 28.5198 84.4984C28.6417 91.4474 28.6417 91.4885 29.5761 91.6119C31.5261 91.8997 31.6886 91.2829 31.6886 84.1283C31.6886 79.482 31.5261 77.3027 31.2011 76.9737C30.5511 76.3158 28.8855 76.357 28.6011 77.0149Z" fill="#058FA2"/>
</svg>
