<svg width="79" height="60" viewBox="0 0 79 60" fill="none" xmlns="http://www.w3.org/2000/svg">
<path d="M39.4994 7.7627C27.4108 7.7627 17.5742 17.5961 17.5742 29.6879C17.5742 41.7796 27.4077 51.613 39.4994 51.613C51.5911 51.613 61.4245 41.7765 61.4245 29.6879C61.4245 17.5993 51.588 7.7627 39.4994 7.7627ZM39.4994 49.8042C28.4068 49.8042 19.383 40.7789 19.383 29.6847C19.383 24.3495 21.5024 19.2329 25.275 15.4603C29.0475 11.6878 34.1642 9.56839 39.4994 9.56839C44.8346 9.56839 49.9512 11.6878 53.7238 15.4603C57.4963 19.2329 59.6157 24.3495 59.6157 29.6847C59.6157 40.7804 50.5919 49.8058 39.4994 49.8058V49.8042Z" fill="#058FA2" stroke="#058FA2"/>
<path d="M39.4991 14.6982C36.5349 14.6982 33.6372 15.5772 31.1726 17.2241C28.7079 18.8709 26.7869 21.2116 25.6526 23.9502C24.5182 26.6888 24.2214 29.7023 24.7997 32.6096C25.378 35.5168 26.8054 38.1873 28.9014 40.2834C30.9975 42.3794 33.668 43.8068 36.5752 44.3851C39.4825 44.9634 42.496 44.6666 45.2346 43.5322C47.9732 42.3979 50.3139 40.4769 51.9607 38.0122C53.6076 35.5475 54.4866 32.6499 54.4866 29.6857C54.4824 25.712 52.9021 21.9023 50.0923 19.0925C47.2825 16.2827 43.4728 14.7024 39.4991 14.6982ZM39.4991 42.8674C36.892 42.8674 34.3435 42.0943 32.1758 40.6459C30.008 39.1974 28.3185 37.1387 27.3208 34.7301C26.3231 32.3214 26.0621 29.671 26.5707 27.114C27.0793 24.557 28.3348 22.2083 30.1783 20.3648C32.0218 18.5213 34.3705 17.2658 36.9275 16.7572C39.4845 16.2486 42.1349 16.5096 44.5436 17.5073C46.9522 18.505 49.0109 20.1946 50.4593 22.3623C51.9078 24.53 52.6809 27.0786 52.6809 29.6857C52.6767 33.1804 51.2866 36.5308 48.8154 39.002C46.3443 41.4731 42.9939 42.8632 39.4991 42.8674Z" fill="#FDC114" stroke="#FDC114"/>
<path d="M78.0016 10.6298C78.0016 5.08747 74.243 0.577148 69.6355 0.577148C65.0281 0.577148 61.2695 5.08747 61.2695 10.6298C61.2695 15.7979 64.5473 20.0263 68.7304 20.5745V24.1357C67.6666 24.3459 66.7085 24.9183 66.0195 25.7556C65.3304 26.5929 64.9529 27.6431 64.9514 28.7275V54.1184C64.94 54.7404 65.0527 55.3585 65.2829 55.9365C65.5131 56.5145 65.8561 57.0408 66.292 57.4847C66.7278 57.9286 67.2478 58.2812 67.8215 58.5219C68.3952 58.7626 69.0111 58.8866 69.6332 58.8866C70.2553 58.8866 70.8712 58.7626 71.4449 58.5219C72.0186 58.2812 72.5386 57.9286 72.9744 57.4847C73.4103 57.0408 73.7533 56.5145 73.9835 55.9365C74.2137 55.3585 74.3264 54.7404 74.315 54.1184V28.7275C74.3135 27.6431 73.936 26.5929 73.2469 25.7556C72.5579 24.9183 71.5998 24.3459 70.536 24.1357V20.576C74.7222 20.0263 78.0016 15.8026 78.0016 10.6298ZM63.0768 10.6298C63.0768 6.08819 66.0179 2.38284 69.6355 2.38284C73.2532 2.38284 76.1959 6.08193 76.1959 10.6298C76.1959 15.1777 73.2516 18.8815 69.6355 18.8815C66.0195 18.8815 63.0768 15.1777 63.0768 10.6298ZM72.5109 28.7275V54.1184C72.5198 54.5017 72.452 54.883 72.3115 55.2398C72.171 55.5966 71.9606 55.9216 71.6926 56.1959C71.4247 56.4702 71.1046 56.6881 70.7512 56.837C70.3978 56.9858 70.0182 57.0624 69.6348 57.0624C69.2513 57.0624 68.8717 56.9858 68.5183 56.837C68.1649 56.6881 67.8449 56.4702 67.5769 56.1959C67.3089 55.9216 67.0985 55.5966 66.958 55.2398C66.8175 54.883 66.7497 54.5017 66.7587 54.1184V28.7275C66.7497 28.3441 66.8175 27.9629 66.958 27.6061C67.0985 27.2493 67.3089 26.9243 67.5769 26.65C67.8449 26.3757 68.1649 26.1577 68.5183 26.0089C68.8717 25.8601 69.2513 25.7835 69.6348 25.7835C70.0182 25.7835 70.3978 25.8601 70.7512 26.0089C71.1046 26.1577 71.4247 26.3757 71.6926 26.65C71.9606 26.9243 72.171 27.2493 72.3115 27.6061C72.452 27.9629 72.5198 28.3441 72.5109 28.7275Z" fill="#058FA2" stroke="#058FA2"/>
<path d="M14.2874 0.576673C14.0479 0.577087 13.8183 0.672423 13.6489 0.841797C13.4796 1.01117 13.3842 1.24077 13.3838 1.4803V10.4446C13.383 11.3843 13.01 12.2854 12.3464 12.9508C11.6827 13.6161 10.7826 13.9916 9.84289 13.9949H9.00347V1.4803C9.00854 1.35858 8.98894 1.23708 8.94586 1.12312C8.90277 1.00916 8.83708 0.905091 8.75275 0.817168C8.66841 0.729245 8.56716 0.659284 8.4551 0.611492C8.34303 0.563699 8.22245 0.539062 8.10062 0.539063C7.97879 0.539062 7.85821 0.563699 7.74615 0.611492C7.63408 0.659284 7.53283 0.729245 7.4485 0.817168C7.36416 0.905091 7.29847 1.00916 7.25539 1.12312C7.2123 1.23708 7.1927 1.35858 7.19777 1.4803V13.9949H6.35835C5.41686 13.994 4.51415 13.6198 3.84827 12.9542C3.18238 12.2886 2.80772 11.3861 2.80648 10.4446V1.4803C2.81155 1.35858 2.79195 1.23708 2.74886 1.12312C2.70578 1.00916 2.64009 0.905091 2.55575 0.817168C2.47142 0.729245 2.37017 0.659284 2.2581 0.611492C2.14604 0.563699 2.02546 0.539062 1.90363 0.539063C1.7818 0.539062 1.66122 0.563699 1.54916 0.611492C1.43709 0.659284 1.33584 0.729245 1.25151 0.817168C1.16717 0.905091 1.10148 1.00916 1.0584 1.12312C1.01531 1.23708 0.995712 1.35858 1.00078 1.4803V10.4446C1.00286 11.8647 1.56803 13.2261 2.57236 14.2301C3.5767 15.2341 4.93822 15.7989 6.35835 15.8006H7.19777V24.1353C6.13384 24.3451 5.17563 24.9175 4.48652 25.7548C3.79741 26.5922 3.42006 27.6426 3.41882 28.727V54.1179C3.40744 54.7399 3.52013 55.358 3.7503 55.936C3.98048 56.514 4.32352 57.0403 4.75939 57.4842C5.19527 57.9281 5.71523 58.2808 6.28891 58.5215C6.86259 58.7622 7.47849 58.8861 8.10062 58.8861C8.72275 58.8861 9.33865 58.7622 9.91233 58.5215C10.486 58.2808 11.006 57.9281 11.4418 57.4842C11.8777 57.0403 12.2208 56.514 12.4509 55.936C12.6811 55.358 12.7938 54.7399 12.7824 54.1179V28.727C12.7809 27.6427 12.4034 26.5924 11.7144 25.7551C11.0253 24.9179 10.0673 24.3454 9.00347 24.1353V15.8006H9.84289C11.2627 15.7989 12.6239 15.234 13.6278 14.2299C14.6316 13.2258 15.1961 11.8644 15.1973 10.4446V1.4803C15.1971 1.36117 15.1734 1.24324 15.1275 1.13329C15.0816 1.02334 15.0145 0.92353 14.93 0.839579C14.8455 0.755628 14.7452 0.68919 14.6349 0.644075C14.5247 0.598959 14.4066 0.576055 14.2874 0.576673ZM10.9752 28.727V54.1179C10.9752 54.8805 10.6722 55.6119 10.133 56.1511C9.59377 56.6903 8.86242 56.9932 8.09984 56.9932C7.33725 56.9932 6.6059 56.6903 6.06667 56.1511C5.52744 55.6119 5.22451 54.8805 5.22451 54.1179V28.727C5.22451 27.9644 5.52744 27.2331 6.06667 26.6938C6.6059 26.1546 7.33725 25.8517 8.09984 25.8517C8.86242 25.8517 9.59377 26.1546 10.133 26.6938C10.6722 27.2331 10.9752 27.9644 10.9752 28.727Z" fill="#058FA2" stroke="#058FA2"/>
</svg>
