<svg width="142" height="142" viewBox="0 0 142 142" fill="none" xmlns="http://www.w3.org/2000/svg">
<path d="M64.4759 21.0281C63.0257 22.5991 63.207 24.4723 64.9593 25.8621C65.8053 26.5268 66.47 27.4936 66.47 27.977C66.47 28.7625 64.9593 28.9438 56.6206 29.1251C46.8317 29.3064 46.7713 29.3064 42.6019 31.3608C33.2359 36.0136 26.71 45.1379 24.5347 56.8C23.87 60.2442 23.6283 60.7276 22.4198 60.7276C21.6342 60.7276 20.7278 61.1506 20.3653 61.6945C19.5193 63.0238 22.8427 68.4017 25.0785 69.3685C26.1057 69.8519 31.0002 70.0936 39.3389 70.0936H52.0887L51.6657 72.0272C50.6385 77.0425 49.9134 78.7949 47.3151 82.6017C45.1398 85.7438 44.2938 87.6774 43.6896 90.88C43.2666 93.1762 42.7832 95.1702 42.6623 95.3515C42.5415 95.4723 41.6955 95.1098 40.8496 94.5659C40.0036 93.9617 38.8555 93.72 38.1304 93.9617C36.4385 94.5055 31.3023 101.454 31.7253 102.663C31.9066 103.328 30.3959 105.563 27.4955 109.068C25.0181 112.089 22.9636 114.869 22.9636 115.231C22.9636 117.165 25.0785 115.594 29.3083 110.579L33.961 105.14L37.3449 107.98C49.6717 118.374 53.4785 121.757 53.4181 122.362C53.3576 122.724 51.4844 125.323 49.1883 128.042C46.8921 130.821 45.0189 133.359 45.0189 133.722C45.0189 135.595 46.8317 134.266 51.001 129.431C54.2036 125.685 56.1372 123.933 57.2853 123.691C58.4334 123.449 59.944 122.12 61.8776 119.643C64.4759 116.319 64.7176 115.775 64.1134 114.446C63.7508 113.66 63.207 112.996 62.8444 112.996C60.9108 112.996 63.2674 110.82 71.0019 105.503C75.8359 102.24 80.1262 98.977 80.5491 98.2519C80.9721 97.5268 82.7244 93.9617 84.4164 90.3362C87.0147 84.777 87.6793 82.6017 88.4649 77.1634C89.0087 73.5983 89.4317 70.5166 89.4317 70.3957C89.4317 70.2144 94.9908 70.0936 101.819 70.0936C109.856 70.0936 114.69 69.8519 115.717 69.3685C117.953 68.4017 121.276 63.0238 120.43 61.6945C120.067 61.1506 119.161 60.7276 118.376 60.7276C117.107 60.7276 116.865 60.3047 116.502 57.8272C114.931 46.6485 107.741 36.074 98.6164 31.6025L94.024 29.3064L84.1747 29.1251C75.8359 28.9438 74.3253 28.7625 74.3253 27.977C74.3253 27.4936 74.99 26.5268 75.8359 25.8621C77.5883 24.4723 77.7696 22.3574 76.2589 20.9676C74.567 19.457 65.8657 19.5174 64.4759 21.0281ZM74.9296 23.2638C74.9296 23.9889 74.0232 24.1702 70.3976 24.1702C66.7721 24.1702 65.8657 23.9889 65.8657 23.2638C65.8657 22.5387 66.7721 22.3574 70.3976 22.3574C74.0232 22.3574 74.9296 22.5387 74.9296 23.2638ZM71.9083 27.7957C71.9083 28.7021 71.4853 29.0042 70.3976 29.0042C69.31 29.0042 68.887 28.7021 68.887 27.7957C68.887 26.8893 69.31 26.5872 70.3976 26.5872C71.4853 26.5872 71.9083 26.8893 71.9083 27.7957ZM97.7704 33.7174C104.659 37.2825 109.856 43.8085 112.696 52.2681C113.602 54.8059 114.206 57.7064 114.085 58.6732L113.904 60.4255H70.3976H26.8913L26.71 58.6732C26.4683 56.2561 29.1874 48.28 31.6044 44.5336C35.4717 38.5515 41.333 33.7779 47.1338 31.9651C47.9798 31.7234 58.8564 31.5421 71.304 31.6025L93.9636 31.7234L97.7704 33.7174ZM117.469 63.3259C117.59 63.5676 117.046 64.6553 116.261 65.743L114.75 67.6766H70.3976H26.0453L24.5347 65.743C23.7491 64.6553 23.2053 63.5676 23.3261 63.3259C23.7491 62.7217 117.046 62.7217 117.469 63.3259ZM59.4606 76.8613C59.2793 80.6076 59.0376 84.0519 58.8564 84.4749C58.4334 85.8647 59.7627 88.2213 61.7568 89.4902C63.3279 90.457 64.4759 90.6383 67.2555 90.457C70.7602 90.2757 70.8206 90.2153 75.3525 85.623C79.824 81.2119 80.0657 80.8493 81.5159 75.7132C83.0266 70.5166 83.1474 70.3957 85.081 70.2144C87.3168 69.9727 87.2564 69.6102 86.1083 77.2238C84.9602 85.0187 79.9449 96.137 76.3193 98.9166C72.2104 102.119 60.5483 109.974 59.944 109.974C59.5815 109.974 56.0164 107.195 52.0283 103.871C46.8317 99.5208 44.7772 97.4664 44.9585 96.7413C45.1398 96.1974 45.5627 94.0221 45.8649 91.9072C46.3483 88.8255 47.1338 87.1336 49.43 83.6289C51.7261 80.3055 52.693 78.1906 53.4181 74.6859L54.4453 70.0936H57.1644H59.8232L59.4606 76.8613ZM73.721 75.0485C72.6334 79.8825 70.5185 85.8647 69.31 87.4357C68.3432 88.7047 63.63 88.4025 62.2402 87.0127C60.9108 85.6834 60.9108 84.0519 61.9985 73.2357L62.3006 70.0936H68.5849H74.8087L73.721 75.0485ZM80.3679 70.6979C80.3679 71.0604 79.824 73.2962 79.1593 75.6528C78.3134 78.674 77.3466 80.6076 76.0172 81.9974C73.7815 84.2936 73.4189 84.2332 74.3253 81.8162C74.6879 80.8493 75.413 78.1906 75.8964 75.834C76.3798 73.5379 76.8632 71.2417 77.0444 70.8187C77.3466 69.9727 80.3679 69.7915 80.3679 70.6979ZM51.2427 106.228L62.2402 115.534L59.7627 118.494C57.6479 121.032 57.1644 121.334 56.2581 120.67C52.8138 118.192 34.4444 102.421 34.4444 101.938C34.4444 100.729 38.7951 96.0766 39.4598 96.4996C39.8827 96.7413 45.1398 101.092 51.2427 106.228Z" fill="#058FA2"/>
<path d="M76.5 23.5C76.5 24.0039 76.1936 24.705 75.1939 25.3714C74.2082 26.0286 72.7313 26.5 71 26.5C69.2687 26.5 67.7918 26.0286 66.8061 25.3714C65.8064 24.705 65.5 24.0039 65.5 23.5C65.5 22.9961 65.8064 22.295 66.8061 21.6286C67.7918 20.9714 69.2687 20.5 71 20.5C72.7313 20.5 74.2082 20.9714 75.1939 21.6286C76.1936 22.295 76.5 22.9961 76.5 23.5Z" stroke="#FDC114" stroke-width="4"/>
</svg>
