<svg width="138" height="138" viewBox="0 0 138 138" fill="none" xmlns="http://www.w3.org/2000/svg">
<mask id="path-1-outside-1_2982_8341" maskUnits="userSpaceOnUse" x="0" y="-0.0488281" width="138" height="138" fill="black">
<rect fill="white" y="-0.0488281" width="138" height="138"/>
<path d="M31.2978 1.18015C20.9618 2.48464 12.1741 7.85526 6.62251 16.2512C2.77266 22.0659 0.805891 29.1157 1.01512 36.2904C1.09881 39.163 1.41963 41.6055 2.8424 50.2373C7.1944 76.6324 10.4724 99.2528 11.5046 109.98C12.1601 116.961 12.5089 118.806 13.6666 121.734C14.9499 124.94 16.5819 127.48 18.9392 129.922C21.2687 132.309 23.5841 133.933 26.4855 135.182C32.0092 137.541 38.5651 137.541 44.0888 135.182C46.9343 133.961 49.0127 132.517 51.3979 130.116C55.0943 126.411 57.4516 121.748 58.3583 116.364C58.4838 115.67 58.6791 113.921 58.7907 112.478C59.4184 105.054 61.0643 92.6748 63.882 74.2455C64.9421 67.3067 66.7554 55.9271 67.9829 48.4332C68.3177 46.4071 68.6803 44.2283 68.778 43.5761C68.9593 42.4381 68.9593 42.4104 69.0709 42.9516C69.4615 44.9083 73.4648 70.0822 74.9015 79.7132C77.3007 95.7973 78.57 105.512 79.1558 112.339C79.4209 115.476 79.5743 116.544 80.0207 118.376C82.0293 126.633 88.083 133.405 95.6432 135.848C98.1819 136.667 99.786 136.903 102.799 136.889C105.854 136.889 107.165 136.681 109.885 135.779C116.385 133.614 121.727 128.382 124.35 121.568C125.354 118.987 125.828 116.711 126.163 112.811C127.098 101.973 130.529 78.0202 135.16 49.8904C136.513 41.661 136.848 39.1214 136.931 36.332C137.336 22.6626 130.027 10.3948 117.961 4.52464C114.056 2.62342 110.792 1.67974 106.328 1.16628C104.026 0.888724 99.9255 0.971985 97.6379 1.31892C86.6463 3.01199 77.4262 9.47892 72.4047 19.0128C71.0098 21.6773 69.7405 25.1189 69.1825 27.8251L69.0012 28.6577L68.4851 26.701C67.7737 23.981 67.0762 22.0797 65.8906 19.7206C63.5333 14.9744 60.1716 10.9499 56.0149 7.85526C51.2863 4.34423 46.2229 2.22096 40.3087 1.31892C38.2721 0.99974 33.3203 0.930349 31.2978 1.18015ZM39.5415 3.13689C52.5138 4.71893 63.2682 14.1418 66.588 26.8397C67.3971 29.9344 67.5645 31.4332 67.5784 35.3189C67.5784 39.2879 67.5784 39.2602 66.1835 47.8087C64.3283 59.1606 63.6867 63.2128 62.1384 73.1908C61.7897 75.3973 61.4968 77.2153 61.4828 77.2291C61.4549 77.2569 60.8551 76.8544 60.1577 76.341C55.8336 73.2463 50.812 70.8455 45.8184 69.4855C37.505 67.2095 29.0939 67.6397 20.8502 70.7344C17.4328 72.025 13.1645 74.301 10.291 76.3965C9.14722 77.2291 9.06353 77.2708 9.00774 76.9793C8.96589 76.8128 8.81245 75.8275 8.65902 74.8006C7.89184 69.7908 6.27379 59.4936 5.08815 52.2495C3.42825 42.0495 3.07953 39.5932 2.95399 37.3728C2.24261 24.8553 8.17081 13.545 18.7021 7.34178C24.979 3.65035 32.0231 2.22097 39.5415 3.13689ZM106.886 3.13689C114.069 3.98342 120.96 7.41117 126.065 12.6846C131.491 18.2912 134.644 25.6602 135.007 33.5842C135.174 37.4144 134.965 39.4544 133.347 49.3353C132.035 57.3426 131.059 63.4626 129.999 70.2904C129.469 73.8014 128.995 76.8128 128.953 76.9793C128.883 77.2846 128.827 77.2569 127.865 76.563C119.677 70.5818 109.634 67.4871 100.442 68.1255C91.9887 68.7083 84.4703 71.4977 77.2449 76.7295C76.7985 77.0487 76.4358 77.2846 76.4358 77.243C76.4358 77.1597 74.497 64.6283 73.9948 61.5475C73.7995 60.3263 73.5206 58.55 73.3671 57.5785C73.2137 56.621 72.7115 53.5401 72.2512 50.7091C70.689 41.314 70.4239 39.3018 70.3402 36.4291C70.2566 33.4455 70.41 31.3083 70.9261 28.7826C73.1718 17.7083 80.6065 8.90995 91.082 4.95485C96.0756 3.0675 101.223 2.47076 106.886 3.13689ZM38.7882 70.0822C41.9546 70.4014 45.3162 71.1508 48.385 72.2471C50.1007 72.8577 55.1222 75.2308 55.7638 75.7442L56.0847 75.994L55.5965 80.0879C54.6758 87.7899 53.825 96.7965 53.0717 106.858C52.4161 115.656 52.3325 116.267 51.5234 118.598C48.9429 126.092 42.5823 130.866 35.2034 130.866C30.7398 130.866 26.6529 129.103 23.4028 125.759C21.3524 123.65 19.9575 121.374 19.0369 118.612C18.1581 115.961 18.172 116.059 17.363 105.47C16.5819 95.3532 15.9124 88.2479 14.9778 80.2267C14.5593 76.7018 14.5035 75.994 14.6709 75.8414C15.2149 75.314 19.539 73.2185 21.7987 72.3859C24.7558 71.2895 28.5359 70.4014 31.521 70.0961C33.2227 69.9295 37.1144 69.9157 38.7882 70.0822ZM106.23 70.0961C111.559 70.6234 116.957 72.3026 121.867 74.981C123.68 75.9663 123.555 75.6887 123.234 78.1312C122.327 85.0561 121.141 97.6569 120.305 109.217C119.9 114.907 119.719 116.156 118.965 118.432C118.115 121.013 116.762 123.386 115.074 125.232C111.684 128.965 107.5 130.866 102.715 130.866C94.7505 130.866 88.0691 125.301 85.9349 116.919C85.5443 115.351 85.4049 114.143 85.084 109.564C84.3029 98.6006 83.3265 88.1091 82.2943 79.4495L81.8758 75.9802L82.1827 75.7442C82.7965 75.2724 86.6184 73.3989 88.3201 72.7328C91.891 71.3312 95.4061 70.4569 98.963 70.0961C100.623 69.9295 104.501 69.9295 106.23 70.0961ZM12.746 77.5344C12.7878 77.7565 13.0808 80.1434 13.3876 82.8495C14.2385 90.4267 15.2847 102.292 15.8984 111.16C16.2611 116.419 16.819 118.834 18.451 122.054C20.2225 125.565 22.9565 128.507 26.2484 130.408C28.0059 131.435 30.6561 132.309 32.9158 132.601C34.8129 132.864 35.9567 132.864 37.756 132.587C39.8623 132.281 41.4106 131.796 43.3076 130.866C48.0362 128.534 51.7048 124.191 53.3926 118.931C54.2016 116.405 54.3132 115.642 54.8153 108.87C55.5686 98.7116 56.4194 89.2748 57.2006 82.572C57.354 81.2397 57.5493 79.5467 57.633 78.7973C57.7167 78.0618 57.8282 77.3818 57.884 77.2846C57.9677 77.1597 58.2607 77.2985 58.9581 77.7842C60.4088 78.8112 61.2178 79.5189 61.162 79.6993C61.1201 79.7965 60.5622 83.585 59.9206 88.123C58.2467 99.7524 57.3261 107.288 56.7681 113.866C56.0289 122.498 51.2444 129.714 43.9632 133.17C39.3462 135.362 33.7807 135.681 28.801 134.044C21.5197 131.643 15.8705 125.051 14.2246 117.002C14.0711 116.239 13.82 114.254 13.6666 112.589C12.9692 105.054 11.9509 97.074 9.92835 83.1687L9.38435 79.5189L9.74702 79.1859C10.2213 78.7557 12.4252 77.1597 12.5647 77.1597C12.6205 77.1597 12.7041 77.3263 12.746 77.5344ZM80.2299 78.0757C81.1226 85.0699 82.2943 97.3099 83.0475 107.69C83.2428 110.327 83.4381 112.978 83.4939 113.588C83.8844 118.654 85.9768 123.469 89.3105 126.925C92.0863 129.825 95.2527 131.601 99.0746 132.42C100.958 132.809 104.25 132.85 106.007 132.49C113.944 130.838 119.761 124.774 121.476 116.336C121.658 115.476 121.909 113.075 122.118 110.161C122.899 99.5442 123.875 88.8308 124.768 81.1148C125.187 77.4789 125.228 77.1597 125.396 77.1597C125.466 77.1597 126.163 77.6455 126.958 78.2283C127.739 78.825 128.437 79.3385 128.492 79.3801C128.534 79.4218 128.116 82.6414 127.558 86.5271C125.926 97.8095 125.117 104.082 124.559 109.841C123.931 116.489 123.666 118.029 122.662 120.707C121.504 123.83 119.788 126.453 117.306 128.937C114.878 131.352 112.675 132.781 109.634 133.877C104.082 135.89 97.7355 135.348 92.5745 132.434C87.8459 129.77 84.2053 125.245 82.378 119.764C81.7085 117.752 81.3597 115.892 81.1087 112.922C80.5507 106.427 78.4165 89.8299 77.0635 81.3924C76.7288 79.3385 76.6451 79.5328 78.3608 78.2699C79.1837 77.6593 79.923 77.1875 79.9928 77.2014C80.0765 77.2291 80.1741 77.6177 80.2299 78.0757Z"/>
</mask>
<path d="M31.2978 1.18015C20.9618 2.48464 12.1741 7.85526 6.62251 16.2512C2.77266 22.0659 0.805891 29.1157 1.01512 36.2904C1.09881 39.163 1.41963 41.6055 2.8424 50.2373C7.1944 76.6324 10.4724 99.2528 11.5046 109.98C12.1601 116.961 12.5089 118.806 13.6666 121.734C14.9499 124.94 16.5819 127.48 18.9392 129.922C21.2687 132.309 23.5841 133.933 26.4855 135.182C32.0092 137.541 38.5651 137.541 44.0888 135.182C46.9343 133.961 49.0127 132.517 51.3979 130.116C55.0943 126.411 57.4516 121.748 58.3583 116.364C58.4838 115.67 58.6791 113.921 58.7907 112.478C59.4184 105.054 61.0643 92.6748 63.882 74.2455C64.9421 67.3067 66.7554 55.9271 67.9829 48.4332C68.3177 46.4071 68.6803 44.2283 68.778 43.5761C68.9593 42.4381 68.9593 42.4104 69.0709 42.9516C69.4615 44.9083 73.4648 70.0822 74.9015 79.7132C77.3007 95.7973 78.57 105.512 79.1558 112.339C79.4209 115.476 79.5743 116.544 80.0207 118.376C82.0293 126.633 88.083 133.405 95.6432 135.848C98.1819 136.667 99.786 136.903 102.799 136.889C105.854 136.889 107.165 136.681 109.885 135.779C116.385 133.614 121.727 128.382 124.35 121.568C125.354 118.987 125.828 116.711 126.163 112.811C127.098 101.973 130.529 78.0202 135.16 49.8904C136.513 41.661 136.848 39.1214 136.931 36.332C137.336 22.6626 130.027 10.3948 117.961 4.52464C114.056 2.62342 110.792 1.67974 106.328 1.16628C104.026 0.888724 99.9255 0.971985 97.6379 1.31892C86.6463 3.01199 77.4262 9.47892 72.4047 19.0128C71.0098 21.6773 69.7405 25.1189 69.1825 27.8251L69.0012 28.6577L68.4851 26.701C67.7737 23.981 67.0762 22.0797 65.8906 19.7206C63.5333 14.9744 60.1716 10.9499 56.0149 7.85526C51.2863 4.34423 46.2229 2.22096 40.3087 1.31892C38.2721 0.99974 33.3203 0.930349 31.2978 1.18015ZM39.5415 3.13689C52.5138 4.71893 63.2682 14.1418 66.588 26.8397C67.3971 29.9344 67.5645 31.4332 67.5784 35.3189C67.5784 39.2879 67.5784 39.2602 66.1835 47.8087C64.3283 59.1606 63.6867 63.2128 62.1384 73.1908C61.7897 75.3973 61.4968 77.2153 61.4828 77.2291C61.4549 77.2569 60.8551 76.8544 60.1577 76.341C55.8336 73.2463 50.812 70.8455 45.8184 69.4855C37.505 67.2095 29.0939 67.6397 20.8502 70.7344C17.4328 72.025 13.1645 74.301 10.291 76.3965C9.14722 77.2291 9.06353 77.2708 9.00774 76.9793C8.96589 76.8128 8.81245 75.8275 8.65902 74.8006C7.89184 69.7908 6.27379 59.4936 5.08815 52.2495C3.42825 42.0495 3.07953 39.5932 2.95399 37.3728C2.24261 24.8553 8.17081 13.545 18.7021 7.34178C24.979 3.65035 32.0231 2.22097 39.5415 3.13689ZM106.886 3.13689C114.069 3.98342 120.96 7.41117 126.065 12.6846C131.491 18.2912 134.644 25.6602 135.007 33.5842C135.174 37.4144 134.965 39.4544 133.347 49.3353C132.035 57.3426 131.059 63.4626 129.999 70.2904C129.469 73.8014 128.995 76.8128 128.953 76.9793C128.883 77.2846 128.827 77.2569 127.865 76.563C119.677 70.5818 109.634 67.4871 100.442 68.1255C91.9887 68.7083 84.4703 71.4977 77.2449 76.7295C76.7985 77.0487 76.4358 77.2846 76.4358 77.243C76.4358 77.1597 74.497 64.6283 73.9948 61.5475C73.7995 60.3263 73.5206 58.55 73.3671 57.5785C73.2137 56.621 72.7115 53.5401 72.2512 50.7091C70.689 41.314 70.4239 39.3018 70.3402 36.4291C70.2566 33.4455 70.41 31.3083 70.9261 28.7826C73.1718 17.7083 80.6065 8.90995 91.082 4.95485C96.0756 3.0675 101.223 2.47076 106.886 3.13689ZM38.7882 70.0822C41.9546 70.4014 45.3162 71.1508 48.385 72.2471C50.1007 72.8577 55.1222 75.2308 55.7638 75.7442L56.0847 75.994L55.5965 80.0879C54.6758 87.7899 53.825 96.7965 53.0717 106.858C52.4161 115.656 52.3325 116.267 51.5234 118.598C48.9429 126.092 42.5823 130.866 35.2034 130.866C30.7398 130.866 26.6529 129.103 23.4028 125.759C21.3524 123.65 19.9575 121.374 19.0369 118.612C18.1581 115.961 18.172 116.059 17.363 105.47C16.5819 95.3532 15.9124 88.2479 14.9778 80.2267C14.5593 76.7018 14.5035 75.994 14.6709 75.8414C15.2149 75.314 19.539 73.2185 21.7987 72.3859C24.7558 71.2895 28.5359 70.4014 31.521 70.0961C33.2227 69.9295 37.1144 69.9157 38.7882 70.0822ZM106.23 70.0961C111.559 70.6234 116.957 72.3026 121.867 74.981C123.68 75.9663 123.555 75.6887 123.234 78.1312C122.327 85.0561 121.141 97.6569 120.305 109.217C119.9 114.907 119.719 116.156 118.965 118.432C118.115 121.013 116.762 123.386 115.074 125.232C111.684 128.965 107.5 130.866 102.715 130.866C94.7505 130.866 88.0691 125.301 85.9349 116.919C85.5443 115.351 85.4049 114.143 85.084 109.564C84.3029 98.6006 83.3265 88.1091 82.2943 79.4495L81.8758 75.9802L82.1827 75.7442C82.7965 75.2724 86.6184 73.3989 88.3201 72.7328C91.891 71.3312 95.4061 70.4569 98.963 70.0961C100.623 69.9295 104.501 69.9295 106.23 70.0961ZM12.746 77.5344C12.7878 77.7565 13.0808 80.1434 13.3876 82.8495C14.2385 90.4267 15.2847 102.292 15.8984 111.16C16.2611 116.419 16.819 118.834 18.451 122.054C20.2225 125.565 22.9565 128.507 26.2484 130.408C28.0059 131.435 30.6561 132.309 32.9158 132.601C34.8129 132.864 35.9567 132.864 37.756 132.587C39.8623 132.281 41.4106 131.796 43.3076 130.866C48.0362 128.534 51.7048 124.191 53.3926 118.931C54.2016 116.405 54.3132 115.642 54.8153 108.87C55.5686 98.7116 56.4194 89.2748 57.2006 82.572C57.354 81.2397 57.5493 79.5467 57.633 78.7973C57.7167 78.0618 57.8282 77.3818 57.884 77.2846C57.9677 77.1597 58.2607 77.2985 58.9581 77.7842C60.4088 78.8112 61.2178 79.5189 61.162 79.6993C61.1201 79.7965 60.5622 83.585 59.9206 88.123C58.2467 99.7524 57.3261 107.288 56.7681 113.866C56.0289 122.498 51.2444 129.714 43.9632 133.17C39.3462 135.362 33.7807 135.681 28.801 134.044C21.5197 131.643 15.8705 125.051 14.2246 117.002C14.0711 116.239 13.82 114.254 13.6666 112.589C12.9692 105.054 11.9509 97.074 9.92835 83.1687L9.38435 79.5189L9.74702 79.1859C10.2213 78.7557 12.4252 77.1597 12.5647 77.1597C12.6205 77.1597 12.7041 77.3263 12.746 77.5344ZM80.2299 78.0757C81.1226 85.0699 82.2943 97.3099 83.0475 107.69C83.2428 110.327 83.4381 112.978 83.4939 113.588C83.8844 118.654 85.9768 123.469 89.3105 126.925C92.0863 129.825 95.2527 131.601 99.0746 132.42C100.958 132.809 104.25 132.85 106.007 132.49C113.944 130.838 119.761 124.774 121.476 116.336C121.658 115.476 121.909 113.075 122.118 110.161C122.899 99.5442 123.875 88.8308 124.768 81.1148C125.187 77.4789 125.228 77.1597 125.396 77.1597C125.466 77.1597 126.163 77.6455 126.958 78.2283C127.739 78.825 128.437 79.3385 128.492 79.3801C128.534 79.4218 128.116 82.6414 127.558 86.5271C125.926 97.8095 125.117 104.082 124.559 109.841C123.931 116.489 123.666 118.029 122.662 120.707C121.504 123.83 119.788 126.453 117.306 128.937C114.878 131.352 112.675 132.781 109.634 133.877C104.082 135.89 97.7355 135.348 92.5745 132.434C87.8459 129.77 84.2053 125.245 82.378 119.764C81.7085 117.752 81.3597 115.892 81.1087 112.922C80.5507 106.427 78.4165 89.8299 77.0635 81.3924C76.7288 79.3385 76.6451 79.5328 78.3608 78.2699C79.1837 77.6593 79.923 77.1875 79.9928 77.2014C80.0765 77.2291 80.1741 77.6177 80.2299 78.0757Z" fill="#058FA2"/>
<path d="M31.2978 1.18015C20.9618 2.48464 12.1741 7.85526 6.62251 16.2512C2.77266 22.0659 0.805891 29.1157 1.01512 36.2904C1.09881 39.163 1.41963 41.6055 2.8424 50.2373C7.1944 76.6324 10.4724 99.2528 11.5046 109.98C12.1601 116.961 12.5089 118.806 13.6666 121.734C14.9499 124.94 16.5819 127.48 18.9392 129.922C21.2687 132.309 23.5841 133.933 26.4855 135.182C32.0092 137.541 38.5651 137.541 44.0888 135.182C46.9343 133.961 49.0127 132.517 51.3979 130.116C55.0943 126.411 57.4516 121.748 58.3583 116.364C58.4838 115.67 58.6791 113.921 58.7907 112.478C59.4184 105.054 61.0643 92.6748 63.882 74.2455C64.9421 67.3067 66.7554 55.9271 67.9829 48.4332C68.3177 46.4071 68.6803 44.2283 68.778 43.5761C68.9593 42.4381 68.9593 42.4104 69.0709 42.9516C69.4615 44.9083 73.4648 70.0822 74.9015 79.7132C77.3007 95.7973 78.57 105.512 79.1558 112.339C79.4209 115.476 79.5743 116.544 80.0207 118.376C82.0293 126.633 88.083 133.405 95.6432 135.848C98.1819 136.667 99.786 136.903 102.799 136.889C105.854 136.889 107.165 136.681 109.885 135.779C116.385 133.614 121.727 128.382 124.35 121.568C125.354 118.987 125.828 116.711 126.163 112.811C127.098 101.973 130.529 78.0202 135.16 49.8904C136.513 41.661 136.848 39.1214 136.931 36.332C137.336 22.6626 130.027 10.3948 117.961 4.52464C114.056 2.62342 110.792 1.67974 106.328 1.16628C104.026 0.888724 99.9255 0.971985 97.6379 1.31892C86.6463 3.01199 77.4262 9.47892 72.4047 19.0128C71.0098 21.6773 69.7405 25.1189 69.1825 27.8251L69.0012 28.6577L68.4851 26.701C67.7737 23.981 67.0762 22.0797 65.8906 19.7206C63.5333 14.9744 60.1716 10.9499 56.0149 7.85526C51.2863 4.34423 46.2229 2.22096 40.3087 1.31892C38.2721 0.99974 33.3203 0.930349 31.2978 1.18015ZM39.5415 3.13689C52.5138 4.71893 63.2682 14.1418 66.588 26.8397C67.3971 29.9344 67.5645 31.4332 67.5784 35.3189C67.5784 39.2879 67.5784 39.2602 66.1835 47.8087C64.3283 59.1606 63.6867 63.2128 62.1384 73.1908C61.7897 75.3973 61.4968 77.2153 61.4828 77.2291C61.4549 77.2569 60.8551 76.8544 60.1577 76.341C55.8336 73.2463 50.812 70.8455 45.8184 69.4855C37.505 67.2095 29.0939 67.6397 20.8502 70.7344C17.4328 72.025 13.1645 74.301 10.291 76.3965C9.14722 77.2291 9.06353 77.2708 9.00774 76.9793C8.96589 76.8128 8.81245 75.8275 8.65902 74.8006C7.89184 69.7908 6.27379 59.4936 5.08815 52.2495C3.42825 42.0495 3.07953 39.5932 2.95399 37.3728C2.24261 24.8553 8.17081 13.545 18.7021 7.34178C24.979 3.65035 32.0231 2.22097 39.5415 3.13689ZM106.886 3.13689C114.069 3.98342 120.96 7.41117 126.065 12.6846C131.491 18.2912 134.644 25.6602 135.007 33.5842C135.174 37.4144 134.965 39.4544 133.347 49.3353C132.035 57.3426 131.059 63.4626 129.999 70.2904C129.469 73.8014 128.995 76.8128 128.953 76.9793C128.883 77.2846 128.827 77.2569 127.865 76.563C119.677 70.5818 109.634 67.4871 100.442 68.1255C91.9887 68.7083 84.4703 71.4977 77.2449 76.7295C76.7985 77.0487 76.4358 77.2846 76.4358 77.243C76.4358 77.1597 74.497 64.6283 73.9948 61.5475C73.7995 60.3263 73.5206 58.55 73.3671 57.5785C73.2137 56.621 72.7115 53.5401 72.2512 50.7091C70.689 41.314 70.4239 39.3018 70.3402 36.4291C70.2566 33.4455 70.41 31.3083 70.9261 28.7826C73.1718 17.7083 80.6065 8.90995 91.082 4.95485C96.0756 3.0675 101.223 2.47076 106.886 3.13689ZM38.7882 70.0822C41.9546 70.4014 45.3162 71.1508 48.385 72.2471C50.1007 72.8577 55.1222 75.2308 55.7638 75.7442L56.0847 75.994L55.5965 80.0879C54.6758 87.7899 53.825 96.7965 53.0717 106.858C52.4161 115.656 52.3325 116.267 51.5234 118.598C48.9429 126.092 42.5823 130.866 35.2034 130.866C30.7398 130.866 26.6529 129.103 23.4028 125.759C21.3524 123.65 19.9575 121.374 19.0369 118.612C18.1581 115.961 18.172 116.059 17.363 105.47C16.5819 95.3532 15.9124 88.2479 14.9778 80.2267C14.5593 76.7018 14.5035 75.994 14.6709 75.8414C15.2149 75.314 19.539 73.2185 21.7987 72.3859C24.7558 71.2895 28.5359 70.4014 31.521 70.0961C33.2227 69.9295 37.1144 69.9157 38.7882 70.0822ZM106.23 70.0961C111.559 70.6234 116.957 72.3026 121.867 74.981C123.68 75.9663 123.555 75.6887 123.234 78.1312C122.327 85.0561 121.141 97.6569 120.305 109.217C119.9 114.907 119.719 116.156 118.965 118.432C118.115 121.013 116.762 123.386 115.074 125.232C111.684 128.965 107.5 130.866 102.715 130.866C94.7505 130.866 88.0691 125.301 85.9349 116.919C85.5443 115.351 85.4049 114.143 85.084 109.564C84.3029 98.6006 83.3265 88.1091 82.2943 79.4495L81.8758 75.9802L82.1827 75.7442C82.7965 75.2724 86.6184 73.3989 88.3201 72.7328C91.891 71.3312 95.4061 70.4569 98.963 70.0961C100.623 69.9295 104.501 69.9295 106.23 70.0961ZM12.746 77.5344C12.7878 77.7565 13.0808 80.1434 13.3876 82.8495C14.2385 90.4267 15.2847 102.292 15.8984 111.16C16.2611 116.419 16.819 118.834 18.451 122.054C20.2225 125.565 22.9565 128.507 26.2484 130.408C28.0059 131.435 30.6561 132.309 32.9158 132.601C34.8129 132.864 35.9567 132.864 37.756 132.587C39.8623 132.281 41.4106 131.796 43.3076 130.866C48.0362 128.534 51.7048 124.191 53.3926 118.931C54.2016 116.405 54.3132 115.642 54.8153 108.87C55.5686 98.7116 56.4194 89.2748 57.2006 82.572C57.354 81.2397 57.5493 79.5467 57.633 78.7973C57.7167 78.0618 57.8282 77.3818 57.884 77.2846C57.9677 77.1597 58.2607 77.2985 58.9581 77.7842C60.4088 78.8112 61.2178 79.5189 61.162 79.6993C61.1201 79.7965 60.5622 83.585 59.9206 88.123C58.2467 99.7524 57.3261 107.288 56.7681 113.866C56.0289 122.498 51.2444 129.714 43.9632 133.17C39.3462 135.362 33.7807 135.681 28.801 134.044C21.5197 131.643 15.8705 125.051 14.2246 117.002C14.0711 116.239 13.82 114.254 13.6666 112.589C12.9692 105.054 11.9509 97.074 9.92835 83.1687L9.38435 79.5189L9.74702 79.1859C10.2213 78.7557 12.4252 77.1597 12.5647 77.1597C12.6205 77.1597 12.7041 77.3263 12.746 77.5344ZM80.2299 78.0757C81.1226 85.0699 82.2943 97.3099 83.0475 107.69C83.2428 110.327 83.4381 112.978 83.4939 113.588C83.8844 118.654 85.9768 123.469 89.3105 126.925C92.0863 129.825 95.2527 131.601 99.0746 132.42C100.958 132.809 104.25 132.85 106.007 132.49C113.944 130.838 119.761 124.774 121.476 116.336C121.658 115.476 121.909 113.075 122.118 110.161C122.899 99.5442 123.875 88.8308 124.768 81.1148C125.187 77.4789 125.228 77.1597 125.396 77.1597C125.466 77.1597 126.163 77.6455 126.958 78.2283C127.739 78.825 128.437 79.3385 128.492 79.3801C128.534 79.4218 128.116 82.6414 127.558 86.5271C125.926 97.8095 125.117 104.082 124.559 109.841C123.931 116.489 123.666 118.029 122.662 120.707C121.504 123.83 119.788 126.453 117.306 128.937C114.878 131.352 112.675 132.781 109.634 133.877C104.082 135.89 97.7355 135.348 92.5745 132.434C87.8459 129.77 84.2053 125.245 82.378 119.764C81.7085 117.752 81.3597 115.892 81.1087 112.922C80.5507 106.427 78.4165 89.8299 77.0635 81.3924C76.7288 79.3385 76.6451 79.5328 78.3608 78.2699C79.1837 77.6593 79.923 77.1875 79.9928 77.2014C80.0765 77.2291 80.1741 77.6177 80.2299 78.0757Z" stroke="#058FA2" stroke-width="2" mask="url(#path-1-outside-1_2982_8341)"/>
<path d="M32.3308 43.1295L32.3308 43.1295L32.3336 43.129C35.0438 42.7153 38.7228 42.9302 41.803 43.6787L41.8047 43.6791C45.3405 44.5515 49.8977 46.4732 52.7942 48.3518C53.2007 48.6127 53.5101 48.8134 53.696 49.0233C53.8064 49.148 53.8842 49.2848 53.9276 49.4453C53.9672 49.5913 53.9716 49.7351 53.9716 49.8543C53.9716 50.1744 53.9113 50.4882 53.7425 50.7464C53.5631 51.0207 53.2928 51.1831 52.9809 51.2356C52.6864 51.2851 52.3715 51.2352 52.0618 51.1333C51.7479 51.03 51.4076 50.8626 51.0475 50.641C49.8739 49.9216 47.1251 48.5607 45.7831 48.0294L45.7814 48.0288C39.5166 45.5219 34.9029 45.1533 29.5477 46.6852C26.7857 47.4782 22.8377 49.1951 20.4767 50.6152C19.7763 51.0416 19.0986 51.3042 18.5401 51.2411C18.2357 51.2067 17.9518 51.0723 17.7545 50.8097C17.5665 50.5594 17.5 50.2492 17.5 49.9376C17.5 49.7283 17.5333 49.5095 17.6507 49.2857C17.7635 49.0708 17.9348 48.8878 18.1491 48.7126C18.5641 48.3734 19.2584 47.9724 20.3554 47.3752L20.3559 47.3749C24.3591 45.2012 28.5 43.7365 32.3308 43.1295Z" fill="#FDD304" stroke="#FDD304"/>
<path d="M27.1821 54.6973L27.1845 54.697C30.22 54.3047 34.3501 54.5082 37.8093 55.2197L37.8108 55.22C41.7848 56.05 46.9123 57.88 50.1699 59.6683C50.6299 59.9182 50.9709 60.1057 51.1764 60.3021C51.2989 60.4192 51.3926 60.5546 51.4463 60.7224C51.4951 60.8751 51.5 61.0242 51.5 61.1404C51.5 61.463 51.4271 61.7803 51.2293 62.0364C51.0252 62.3006 50.7352 62.4388 50.4236 62.4832C49.842 62.566 49.1133 62.3357 48.3316 61.9286C47.004 61.2396 43.898 59.9381 42.3787 59.4289L42.3772 59.4284C35.293 57.0289 30.0582 56.672 23.9848 58.1425C20.8594 58.902 16.3983 60.5443 13.729 61.9033C12.9376 62.3112 12.2053 62.5431 11.6248 62.4876C11.3193 62.4583 11.0196 62.345 10.8 62.0975C10.5819 61.8517 10.5 61.5378 10.5 61.2199C10.5 61.0049 10.5413 60.7804 10.6804 60.556C10.8107 60.3458 11.0045 60.1723 11.2405 60.009C11.7025 59.6893 12.4781 59.3097 13.7164 58.7391L13.7169 58.7389C18.2233 56.6677 22.8798 55.2743 27.1821 54.6973Z" fill="#FDD304" stroke="#FDD304"/>
<path d="M87.7631 47.3651L87.7648 47.3642C91.3397 45.3679 96.0968 43.6806 99.7758 43.1292C100.721 42.9837 102.252 42.9397 103.749 42.9745C105.246 43.0094 106.769 43.1244 107.693 43.3142L107.693 43.3142C111.53 44.103 115.933 45.8167 119.479 47.8968L119.479 47.8969C120.204 48.3229 120.723 48.6649 121.035 48.998C121.199 49.1732 121.328 49.3693 121.391 49.5988C121.455 49.8312 121.438 50.0528 121.384 50.258C121.317 50.5188 121.196 50.763 120.992 50.9485C120.784 51.139 120.527 51.2332 120.256 51.252C119.747 51.2872 119.165 51.06 118.564 50.6998L118.562 50.6983C116.38 49.3739 113.068 47.8769 110.438 47.0275L110.437 47.0271C104.969 45.2457 100.688 45.3362 94.8271 47.3707C93.0438 47.9986 89.6586 49.5658 87.9997 50.5476C87.684 50.7375 87.3526 50.9098 87.068 51.0365C86.9259 51.0998 86.7891 51.1545 86.6678 51.1943C86.5623 51.229 86.4169 51.2705 86.2789 51.2705C85.8985 51.2705 85.5489 51.1261 85.2959 50.8601C85.0442 50.5955 84.9141 50.2385 84.9141 49.8546C84.9141 49.6734 84.9388 49.4701 85.0539 49.2569C85.1623 49.0565 85.3285 48.8888 85.5325 48.7271C85.9297 48.4126 86.6191 48.0096 87.7631 47.3651Z" fill="#FDD304" stroke="#FDD304"/>
<path d="M88.7058 58.7042L88.7073 58.7035C92.725 56.7952 98.0692 55.1836 102.195 54.6577C103.246 54.5198 104.961 54.4775 106.645 54.5108C108.33 54.5441 110.034 54.6542 111.063 54.8339L111.063 54.8339C115.369 55.5869 120.316 57.2242 124.302 59.2129L124.302 59.213C125.117 59.6205 125.695 59.9445 126.041 60.2593C126.221 60.4235 126.374 60.6154 126.45 60.8508C126.528 61.0935 126.507 61.3253 126.442 61.5335C126.363 61.7996 126.219 62.0377 125.995 62.2117C125.771 62.3856 125.504 62.4663 125.229 62.4825C124.7 62.5137 124.072 62.3118 123.396 61.9669L123.396 61.9669L123.393 61.9657C120.93 60.6937 117.193 59.2568 114.222 58.4408L114.221 58.4405C108.035 56.7259 103.182 56.8142 96.5575 58.7703C94.5421 59.3739 90.7231 60.8779 88.8497 61.8211C88.4969 62.0015 88.1271 62.1651 87.8108 62.2848C87.6526 62.3447 87.5024 62.3957 87.3707 62.4325C87.2523 62.4656 87.1059 62.5 86.974 62.5C86.5861 62.5 86.2186 62.3761 85.9416 62.1284C85.6605 61.877 85.5 61.5211 85.5 61.1226C85.5 60.9356 85.531 60.725 85.6678 60.5097C85.7924 60.3135 85.9796 60.1543 86.2037 60.0034C86.6457 59.7056 87.4157 59.3224 88.7058 58.7042Z" fill="#FDD304" stroke="#FDD304"/>
</svg>
