<svg width="113" height="113" viewBox="0 0 113 113" fill="none" xmlns="http://www.w3.org/2000/svg">
<path d="M28.4765 0.79097C28.307 1.18647 28.2505 3.05096 28.3635 4.85897C28.533 7.68397 28.7025 8.24896 29.8325 8.75746C30.567 9.03996 31.245 9.83096 31.358 10.4525C31.81 12.43 35.0305 33.9565 35.0305 34.804C35.0305 35.3125 34.409 35.595 33.053 35.595C25.3125 35.595 12.3175 42.3185 10.1705 47.46C9.49254 49.042 9.60554 49.4375 12.035 52.997C13.4475 55.144 16.329 59.89 18.363 63.619L22.0355 70.399L20.6795 73.224C17.346 80.1735 17.12 85.9365 20.058 92.999C22.8265 99.6095 22.657 101.078 18.9845 104.977C17.346 106.728 17.2895 106.898 18.137 108.367C19.493 110.796 24.578 111.983 34.183 112.096C43.2795 112.152 49.664 110.966 51.133 108.875C52.263 107.237 52.2065 107.124 50.342 104.977C46.613 100.626 46.2175 100.852 58.5345 100.852H69.4955V104.073C69.4955 108.762 70.5125 109.327 79.1005 109.327C83.112 109.327 86.05 109.045 86.7845 108.649C88.536 107.632 88.7055 105.203 88.7055 83.959C88.7055 66.444 88.649 65.1445 87.5755 63.4495C87.0105 62.4325 85.824 61.246 85.033 60.681C83.677 59.777 83.6205 59.4945 83.6205 54.466C83.6205 49.946 83.8465 48.703 85.0895 45.9345C85.9935 43.9005 86.615 41.5275 86.6715 39.776C86.728 37.29 87.0105 36.5555 89.1575 34.013L91.6435 31.075H96.333C102.266 31.075 102.831 30.51 102.831 24.5775C102.831 18.08 102.774 18.08 92.4345 18.08H83.8465L84.4115 13.786C84.92 10.1135 85.259 9.32247 86.3325 8.87047C87.519 8.30547 87.632 7.96647 87.4625 4.29397L87.293 0.282463L58.026 0.112968C33.6745 -3.05176e-05 28.759 0.112968 28.4765 0.79097ZM84.7505 4.51997V6.21497H57.913H31.0755V4.51997V2.82497H57.913H84.7505V4.51997ZM81.6995 12.2605C81.4735 14.012 81.191 16.046 81.0215 16.7805L80.6825 18.08H68.083C57.348 18.08 55.314 18.193 54.5795 18.984C53.9015 19.6055 53.6755 21.018 53.6755 24.5775C53.6755 30.7925 53.958 31.075 60.399 31.075H65.3145L68.083 33.9C70.569 36.4425 70.8515 36.951 70.682 38.9285C70.569 40.454 71.0775 42.4315 72.264 45.087C73.7895 48.59 74.0155 49.6635 74.0155 54.4095C74.0155 59.551 73.959 59.777 72.5465 60.7375C70.3995 62.15 69.4955 64.862 69.4955 69.947V74.4105L67.6875 74.806C63.902 75.5405 57.687 75.823 53.506 75.484C49.3815 75.0885 49.212 74.9755 48.873 73.3935C48.647 72.4895 48.2515 71.642 47.969 71.416C47.178 70.9075 57.009 53.11 58.9865 51.4715C59.495 51.0195 59.8905 49.8895 59.8905 48.8725C59.8905 47.347 59.3255 46.4995 56.783 44.183C51.924 39.776 46.274 36.951 40.1155 35.934L38.138 35.595L36.1605 22.3175L34.1265 9.03996H58.0825H82.095L81.6995 12.2605ZM100.006 24.5775V28.25H97.4065C94.751 28.25 94.638 28.024 96.5025 25.877C96.9545 25.312 97.1805 24.521 96.9545 24.0125C96.672 23.278 94.4685 23.165 78.705 23.278C61.8115 23.4475 60.738 23.504 60.5685 24.4645C60.4555 25.086 60.9075 26.1595 61.642 26.894L62.885 28.25H59.721H56.5005V24.5775V20.905H78.253H100.006V24.5775ZM90.909 27.5155C90.1745 28.4195 88.5925 30.171 87.3495 31.4705L85.0895 33.9H78.5355H71.9815L68.422 29.945L64.919 25.99H78.592H92.265L90.909 27.5155ZM83.677 38.2505C83.79 40.906 83.564 41.9795 82.1515 45.313C80.965 48.1945 80.7955 49.4375 80.7955 55.8785C80.7955 62.0935 80.6825 63.2235 79.8915 63.506C79.383 63.732 78.479 63.732 77.914 63.5625C76.9535 63.2235 76.8405 62.5455 76.8405 55.8785C76.8405 48.929 76.7275 48.251 75.1455 44.635C73.4505 40.7365 73.168 39.2675 73.7895 37.629C74.072 36.8945 75.089 36.725 78.8745 36.725H83.6205L83.677 38.2505ZM40.7935 39.0415C44.8615 39.889 51.133 43.053 54.4665 45.9345L57.1785 48.364L54.6925 52.2625C53.28 54.466 50.3985 59.3815 48.308 63.28C46.2175 67.1785 43.8445 71.416 43.11 72.7155L41.754 75.145H34.861H27.968L22.9395 65.8225C20.171 60.681 16.781 54.805 15.4815 52.7145C14.1255 50.6805 12.9955 48.816 12.9955 48.5335C12.9955 47.686 18.0805 43.6745 21.3575 41.923C27.29 38.759 34.3525 37.6855 40.7935 39.0415ZM85.0895 65.088C85.937 66.67 85.9935 69.043 85.7675 86.2755C85.6545 96.8975 85.4285 105.768 85.259 105.881C84.6375 106.502 78.479 106.898 75.4845 106.559L72.3205 106.163V86.106C72.3205 73.5065 72.5465 65.653 72.8855 64.975C73.4505 63.9015 73.507 63.9015 74.5805 64.975C76.8405 67.235 82.208 67.009 83.338 64.523C83.6205 63.845 83.9595 63.28 84.016 63.28C84.0725 63.28 84.581 64.071 85.0895 65.088ZM34.974 77.97H43.9575L44.6355 76.275C45.031 75.3145 45.5395 74.58 45.7655 74.58C46.4435 74.58 47.9125 79.3825 48.3645 82.7725C48.647 85.1455 48.3645 86.6145 46.613 91.8125C44.24 98.988 44.1835 101.53 46.5565 105.09C47.3475 106.333 47.743 107.463 47.4605 107.632C46.3305 108.31 38.138 109.61 34.748 109.61C31.358 109.61 23.1655 108.367 22.0355 107.632C21.753 107.463 22.2615 106.107 23.1655 104.694C25.482 101.022 25.4255 98.2535 22.8265 91.8125C20.962 87.349 20.7925 86.3885 21.0185 83.1115C21.188 81.021 21.866 78.1395 22.544 76.5575L23.8435 73.7325L24.917 75.823L25.9905 77.97H34.974ZM69.4955 87.2925V97.18L67.97 97.5755C65.9925 98.1405 48.8165 98.1405 48.308 97.632C48.082 97.406 48.534 95.372 49.3815 93.1685C51.133 88.4225 51.7545 83.733 50.9635 80.5125L50.455 78.2525L56.1615 78.422C59.3255 78.535 63.2805 78.3655 64.9755 78.083C66.6705 77.8005 68.422 77.518 68.8175 77.4615C69.326 77.405 69.4955 79.7215 69.4955 87.2925Z" fill="#058FA2"/>
</svg>
