<svg width="94" height="113" viewBox="0 0 94 113" fill="none" xmlns="http://www.w3.org/2000/svg">
<path d="M18.664 0.716263C18.4945 1.11176 18.438 2.97626 18.551 4.78426C18.7205 7.60926 18.89 8.17426 20.02 8.68275C20.7545 8.96526 21.4325 9.75626 21.5455 10.3778C21.9975 12.3553 25.218 33.8818 25.218 34.7293C25.218 35.2378 24.5965 35.5203 23.2405 35.5203C15.5 35.5203 2.50504 42.2438 0.358039 47.3853C-0.319961 48.9673 -0.206961 49.3628 2.22254 52.9223C3.63504 55.0693 6.51654 59.8153 8.55054 63.5443L12.223 70.3243L10.867 73.1493C7.53354 80.0988 7.30754 85.8618 10.2455 92.9243C13.014 99.5348 12.8445 101.004 9.17204 104.902C7.53354 106.654 7.47704 106.823 8.32454 108.292C9.68054 110.722 14.7655 111.908 24.3705 112.021C33.467 112.078 39.8515 110.891 41.3205 108.801C42.4505 107.162 42.394 107.049 40.5295 104.902C36.8005 100.552 36.405 100.778 48.722 100.778H59.683V103.998C59.683 108.688 60.7 109.253 69.288 109.253C73.2995 109.253 76.2375 108.97 76.972 108.575C78.7235 107.558 78.893 105.128 78.893 83.8843C78.893 66.3693 78.8365 65.0698 77.763 63.3748C77.198 62.3578 76.0115 61.1713 75.2205 60.6063C73.8645 59.7023 73.808 59.4198 73.808 54.3913C73.808 49.8713 74.034 48.6283 75.277 45.8598C76.181 43.8258 76.8025 41.4528 76.859 39.7013C76.9155 37.2153 77.198 36.4808 79.345 33.9383L81.831 31.0003H86.5205C92.453 31.0003 93.018 30.4353 93.018 24.5028C93.018 18.0053 92.9615 18.0053 82.622 18.0053H74.034L74.599 13.7113C75.1075 10.0388 75.4465 9.24776 76.52 8.79576C77.7065 8.23076 77.8195 7.89176 77.65 4.21926L77.4805 0.207756L48.2135 0.0382614C23.862 -0.0747375 18.9465 0.0382614 18.664 0.716263ZM74.938 4.44526V6.14026H48.1005H21.263V4.44526V2.75026H48.1005H74.938V4.44526ZM71.887 12.1858C71.661 13.9373 71.3785 15.9713 71.209 16.7058L70.87 18.0053H58.2705C47.5355 18.0053 45.5015 18.1183 44.767 18.9093C44.089 19.5308 43.863 20.9433 43.863 24.5028C43.863 30.7178 44.1455 31.0003 50.5865 31.0003H55.502L58.2705 33.8253C60.7565 36.3678 61.039 36.8763 60.8695 38.8538C60.7565 40.3793 61.265 42.3568 62.4515 45.0123C63.977 48.5153 64.203 49.5888 64.203 54.3348C64.203 59.4763 64.1465 59.7023 62.734 60.6628C60.587 62.0753 59.683 64.7873 59.683 69.8723V74.3358L57.875 74.7313C54.0895 75.4658 47.8745 75.7483 43.6935 75.4093C39.569 75.0138 39.3995 74.9008 39.0605 73.3188C38.8345 72.4148 38.439 71.5673 38.1565 71.3413C37.3655 70.8328 47.1965 53.0353 49.174 51.3968C49.6825 50.9448 50.078 49.8148 50.078 48.7978C50.078 47.2723 49.513 46.4248 46.9705 44.1083C42.1115 39.7013 36.4615 36.8763 30.303 35.8593L28.3255 35.5203L26.348 22.2428L24.314 8.96526H48.27H72.2825L71.887 12.1858ZM90.193 24.5028V28.1753H87.594C84.9385 28.1753 84.8255 27.9493 86.69 25.8023C87.142 25.2373 87.368 24.4463 87.142 23.9378C86.8595 23.2033 84.656 23.0903 68.8925 23.2033C51.999 23.3728 50.9255 23.4293 50.756 24.3898C50.643 25.0113 51.095 26.0848 51.8295 26.8193L53.0725 28.1753H49.9085H46.688V24.5028V20.8303H68.4405H90.193V24.5028ZM81.0965 27.4408C80.362 28.3448 78.78 30.0963 77.537 31.3958L75.277 33.8253H68.723H62.169L58.6095 29.8703L55.1065 25.9153H68.7795H82.4525L81.0965 27.4408ZM73.8645 38.1758C73.9775 40.8313 73.7515 41.9048 72.339 45.2383C71.1525 48.1198 70.983 49.3628 70.983 55.8038C70.983 62.0188 70.87 63.1488 70.079 63.4313C69.5705 63.6573 68.6665 63.6573 68.1015 63.4878C67.141 63.1488 67.028 62.4708 67.028 55.8038C67.028 48.8543 66.915 48.1763 65.333 44.5603C63.638 40.6618 63.3555 39.1928 63.977 37.5543C64.2595 36.8198 65.2765 36.6503 69.062 36.6503H73.808L73.8645 38.1758ZM30.981 38.9668C35.049 39.8143 41.3205 42.9783 44.654 45.8598L47.366 48.2893L44.88 52.1878C43.4675 54.3913 40.586 59.3068 38.4955 63.2053C36.405 67.1038 34.032 71.3413 33.2975 72.6408L31.9415 75.0703H25.0485H18.1555L13.127 65.7478C10.3585 60.6063 6.96854 54.7303 5.66904 52.6398C4.31304 50.6058 3.18304 48.7413 3.18304 48.4588C3.18304 47.6113 8.26804 43.5998 11.545 41.8483C17.4775 38.6843 24.54 37.6108 30.981 38.9668ZM75.277 65.0133C76.1245 66.5953 76.181 68.9683 75.955 86.2008C75.842 96.8228 75.616 105.693 75.4465 105.806C74.825 106.428 68.6665 106.823 65.672 106.484L62.508 106.089V86.0313C62.508 73.4318 62.734 65.5783 63.073 64.9003C63.638 63.8268 63.6945 63.8268 64.768 64.9003C67.028 67.1603 72.3955 66.9343 73.5255 64.4483C73.808 63.7703 74.147 63.2053 74.2035 63.2053C74.26 63.2053 74.7685 63.9963 75.277 65.0133ZM25.1615 77.8953H34.145L34.823 76.2003C35.2185 75.2398 35.727 74.5053 35.953 74.5053C36.631 74.5053 38.1 79.3078 38.552 82.6978C38.8345 85.0708 38.552 86.5398 36.8005 91.7378C34.4275 98.9133 34.371 101.456 36.744 105.015C37.535 106.258 37.9305 107.388 37.648 107.558C36.518 108.236 28.3255 109.535 24.9355 109.535C21.5455 109.535 13.353 108.292 12.223 107.558C11.9405 107.388 12.449 106.032 13.353 104.62C15.6695 100.947 15.613 98.1788 13.014 91.7378C11.1495 87.2743 10.98 86.3138 11.206 83.0368C11.3755 80.9463 12.0535 78.0648 12.7315 76.4828L14.031 73.6578L15.1045 75.7483L16.178 77.8953H25.1615ZM59.683 87.2178V97.1053L58.1575 97.5008C56.18 98.0658 39.004 98.0658 38.4955 97.5573C38.2695 97.3313 38.7215 95.2973 39.569 93.0938C41.3205 88.3478 41.942 83.6583 41.151 80.4378L40.6425 78.1778L46.349 78.3473C49.513 78.4603 53.468 78.2908 55.163 78.0083C56.858 77.7258 58.6095 77.4433 59.005 77.3868C59.5135 77.3303 59.683 79.6468 59.683 87.2178Z" fill="#058FA2"/>
<path fill-rule="evenodd" clip-rule="evenodd" d="M46.0575 18.1861C44.3694 18.4483 44.1354 19.1335 44.0284 24.1218C43.8806 31.022 44.0463 31.1831 51.3023 31.1858L55.4391 31.1877L58.0662 33.9436C59.5114 35.4594 60.6976 36.9467 60.7024 37.2483C60.7544 40.4917 61.0244 41.7567 62.3987 45.1899L63.8694 48.8637L63.9786 54.1752L64.088 59.4869L62.6535 60.917C59.5652 63.996 59.4101 65.4095 59.536 89.3915C59.6236 106.127 59.6661 107.356 60.1853 108.157C61.2624 109.818 62.3203 110.034 69.2054 109.996C72.633 109.977 75.8386 109.834 76.3286 109.676C78.7885 108.887 79.001 106.685 78.8755 83.2937C78.7673 63.1946 78.9317 64.4018 75.9149 61.5376L74.1605 59.8721L73.9584 57.2883C73.6407 53.2256 74.1429 49.3372 75.4124 46.0337C76.0939 44.26 76.6572 42.0651 76.9217 40.1521C77.1537 38.4736 77.471 36.8698 77.6267 36.5882C77.7826 36.3067 78.7901 34.9897 79.8656 33.6617L81.8212 31.247L86.2434 31.1403C92.7203 30.9845 92.9796 30.7244 92.9993 24.3665C93.0091 21.1698 92.9163 20.3192 92.4844 19.653C91.3742 17.9395 91.7508 17.965 68.3792 18.0151C56.5447 18.0404 46.4998 18.1175 46.0575 18.1861ZM46.7099 24.5784V28.1136H49.7814H52.8527L51.9137 27.0321C50.8348 25.7892 50.4259 24.5402 50.9312 24.0293C51.5592 23.3942 55.5008 23.2331 70.8856 23.2141C84.2945 23.1972 86.1753 23.2528 86.7817 23.6823C87.5803 24.2479 87.4676 24.9506 86.3373 26.4517C85.2098 27.9491 85.3645 28.1136 87.9011 28.1136H90.181V24.5784V21.0431H68.4454H46.7099V24.5784ZM55.7154 26.346C55.8394 26.5575 57.3746 28.3555 59.1268 30.3423L62.3133 33.9544H68.7567H75.2002L77.6188 31.2645C78.9493 29.7853 80.5575 27.9866 81.1928 27.2682L82.348 25.9617H68.9188C58.258 25.9617 55.5364 26.041 55.7154 26.346ZM66.6288 37.006C64.7632 37.161 64.4604 37.2747 64.1108 37.9507C63.5387 39.0568 63.8545 40.619 65.4742 44.6977L66.8847 48.2489L67.0875 55.4731C67.1991 59.4463 67.3939 62.9391 67.5204 63.2352C67.8065 63.9041 69.8739 63.9791 70.3986 63.3397C70.6324 63.055 70.84 60.3369 71.0039 55.4239L71.2528 47.9415L72.4059 45.0211C73.3428 42.6485 73.5854 41.5963 73.6994 39.4109L73.8398 36.721L71.2945 36.7755C69.8949 36.8053 67.7952 36.9089 66.6288 37.006ZM73.6118 64.8106C72.6439 66.3357 71.2461 66.8958 68.6911 66.7811C66.7926 66.6963 66.3181 66.5503 65.0857 65.672C64.3054 65.1156 63.5961 64.7319 63.5095 64.8196C62.9793 65.3554 62.8079 69.6905 62.6252 87.1833L62.4206 106.751L64.4437 106.97C67.5085 107.302 74.5858 107.026 75.0506 106.557C75.3248 106.28 75.4945 104.314 75.634 99.8022C75.9289 90.267 75.9161 68.0861 75.6151 66.7756C75.4704 66.1448 75.0974 65.2281 74.7865 64.739L74.2213 63.85L73.6118 64.8106Z" fill="#FDD304"/>
</svg>
