<svg width="99" height="95" viewBox="0 0 99 95" fill="none" xmlns="http://www.w3.org/2000/svg">
<path d="M21.6667 16.526C20.5 16.9878 19.3667 18.1094 18.6333 19.5278C18.0667 20.6163 18 21.5069 18 26.9167C18 32.5573 18.0667 33.25 18.7 34.5694C19.7333 36.6476 21.4333 37.6372 24.2667 37.8681L26.5333 38L31.0333 44.7951C36.5667 53.1736 37.6333 54.526 39.4333 55.3837C40.8333 56.0434 41.4 56.0764 54.7667 56.0764C70.2 56.0764 69.9667 56.1094 72.1 53.9323C72.8 53.2396 75.5333 49.3472 78.2333 45.2899L83.1 37.934L84.8 37.901C85.7333 37.901 87 37.7031 87.6 37.4722C89.1333 36.9444 90.9333 35.0972 91.3333 33.6788C91.5 33.0191 91.6667 29.9514 91.6667 26.8837C91.6333 19.6267 91.1667 18.2743 88.2667 16.7899C87.0667 16.1962 85.8 16.1632 54.7667 16.1962C34.1667 16.1962 22.2 16.3281 21.6667 16.526ZM87.5667 19.1319C89.1333 20.0556 89.4 21.375 89.2667 27.7413C89.1667 32.6892 89.1 33.316 88.5 33.9757C86.9667 35.658 87.9 35.625 54.6333 35.625C20.6 35.625 22.1333 35.724 20.9 33.6788C20.4333 32.8872 20.3333 31.7986 20.3333 26.9826C20.3333 21.8698 20.4 21.1771 21 20.1875C21.3667 19.5937 22 18.967 22.4333 18.8021C22.8333 18.6371 36.8333 18.5052 54.8333 18.5052C85.6667 18.4722 86.5333 18.5052 87.5667 19.1319ZM37.2667 44.0365C40.3 50.1059 40.5 50.3368 42 50.1389C42.6333 50.0729 43.3333 49.1823 43.3333 48.4566C43.3333 48.1597 42.3 45.7187 41 43.0799C39.7333 40.408 38.6667 38.1649 38.6667 38.066C38.6667 38 39.9333 37.934 41.5 37.934C43.0667 37.934 44.3333 38.033 44.3333 38.1649C44.3333 39.3194 46.3667 49.3142 46.7 49.6771C47.3333 50.4358 48.9 50.2378 49.5 49.3472C49.9667 48.6545 49.9333 48.1267 49.0667 43.2448L48.1333 37.934H50.5667H53V43.3437C53 46.3125 53.1 49.0174 53.2 49.3142C53.5667 50.2049 54.9667 50.5677 55.8667 49.974C56.6667 49.4792 56.6667 49.3802 56.6667 43.7066V37.934H59.2C61.6667 37.934 61.7333 37.967 61.5667 38.6597C61.4667 39.0885 61.0333 41.4306 60.6333 43.9045C59.7333 49.1163 59.9 50.1389 61.6333 50.1389C62.1667 50.1389 62.8 49.908 63.0333 49.6111C63.3 49.3142 63.9667 46.6094 64.5 43.5747L65.5333 38.099L68.4333 38L71.3667 37.901L70.3333 39.9462C67.6667 45.125 66.3333 48.2917 66.5333 48.8854C66.6333 49.2153 67.0667 49.7101 67.5 50.0069C68.8667 50.8976 69.4667 50.1719 72.6667 43.8715L75.6667 37.934H77.8667C79.6333 37.934 80.0333 38.033 79.9 38.3958C79.4667 39.5174 71 51.7222 70.0333 52.6128L68.9667 53.6024L55.1333 53.7014C41.7 53.8003 41.2333 53.7674 40.1667 53.1076C39 52.4149 37.7 50.6337 32.5667 42.783L29.3667 37.934H31.7667H34.1667L37.2667 44.0365Z" fill="#058FA2"/>
<path d="M45.2317 62.7393C44.3984 63.1682 44.5317 63.9598 45.8317 65.939C47.8317 69.0397 47.6984 71.6456 45.465 74.8782C42.6317 78.9685 41.7984 82.2011 42.6317 86.1265C43.165 88.5675 45.165 91.7671 46.0984 91.6352C47.4317 91.4373 47.5317 90.5796 46.3984 88.8314C43.9984 85.1369 44.1984 80.7168 46.9317 76.9893C49.3317 73.7567 50.165 70.59 49.365 67.7862C48.965 66.2689 46.865 62.8383 46.2317 62.5744C45.9984 62.4755 45.5317 62.5414 45.2317 62.7393Z" fill="#FDC114"/>
<path d="M54.2333 62.7396C53.4 63.1684 53.5333 63.8281 54.8667 66.0052C56.9667 69.3368 56.8 71.5139 54.1333 75.3403C51.9667 78.5069 51.5 79.8594 51.5 83.2899C51.5 86.4896 51.8 87.5781 53.4333 90.151C54.4667 91.8333 55.4 92.0972 56.1 91.0087C56.3667 90.5798 56.2 90.085 55.4 88.8646C52.9667 85.1041 53.2667 80.5191 56.1667 76.6927C58 74.2517 58.5 72.8663 58.5 70.0955C58.5 67.3576 58 65.9722 56.2333 63.5972C55.4333 62.5087 54.9667 62.3107 54.2333 62.7396Z" fill="#FDC114"/>
<path d="M62.7648 63.2344C62.6648 63.5312 62.7981 64.158 63.0981 64.6198C66.0315 69.1719 65.9981 71.6128 62.8648 75.8351C59.7648 80.0243 59.5648 85.7639 62.3648 90.0851C63.4648 91.8003 64.3981 92.1302 65.0981 91.0087C65.3648 90.5799 65.1981 90.0851 64.3981 88.8646C63.0981 86.8194 62.5648 84.4774 62.8315 82.1354C63.0981 80.0903 63.4648 79.2656 65.5315 76.1979C68.4315 71.8437 68.3315 67.7535 65.2315 63.5972C64.4648 62.5746 63.0981 62.3437 62.7648 63.2344Z" fill="#FDC114"/>
</svg>
