<svg width="72" height="72" viewBox="0 0 72 72" fill="none" xmlns="http://www.w3.org/2000/svg">
<g clip-path="url(#clip0_5105_7818)">
<path d="M61.1723 53.8407C61.3477 53.8542 61.5231 53.861 61.6985 53.861C62.7328 53.8601 63.7564 53.6511 64.7082 53.2464C65.66 52.8417 66.5207 52.2496 67.2389 51.5053C67.9571 50.7611 68.5182 49.8799 68.8888 48.9143C69.2594 47.9487 69.4319 46.9184 69.396 45.8847L69.3847 45.5024L69.0024 45.4552C67.4277 45.257 65.8301 45.5504 64.4285 46.2951C63.0268 47.0398 61.8896 48.1994 61.1723 49.6154V46.9169L61.2241 46.6155C61.3728 45.7534 61.3327 44.8692 61.1065 44.0241C60.8803 43.179 60.4735 42.393 59.914 41.7204C59.3545 41.0478 58.6557 40.5046 57.8659 40.1284C57.076 39.7521 56.2139 39.5517 55.3391 39.541H54.9568L54.8916 39.9188C54.7497 40.7393 54.7789 41.5802 54.9772 42.3889C55.1756 43.1976 55.5389 43.9565 56.0443 44.6182C56.5498 45.2799 57.1865 45.83 57.9145 46.2341C58.6425 46.6382 59.4462 46.8875 60.2751 46.9663V59.2759C59.3162 56.9556 57.5728 55.0459 55.3492 53.8803C53.1256 52.7146 50.5632 52.3672 48.1094 52.8985L47.7339 52.9795L47.7541 53.3617C47.833 54.8738 48.2313 56.3519 48.9228 57.6989C49.6143 59.0458 50.5834 60.2309 51.7662 61.1761C52.9489 62.1214 54.3185 62.8053 55.7848 63.1828C57.2511 63.5603 58.7807 63.6229 60.2729 63.3664V67.4141H37.5022V53.8407C37.6776 53.8542 37.853 53.861 38.0284 53.861C39.0626 53.8601 40.0862 53.6511 41.038 53.2464C41.9898 52.8417 42.8505 52.2496 43.5687 51.5053C44.2869 50.7611 44.848 49.8799 45.2186 48.9143C45.5892 47.9487 45.7617 46.9184 45.7258 45.8847L45.7123 45.5024L45.3323 45.4552C43.7575 45.257 42.1599 45.5504 40.7583 46.2951C39.3566 47.0398 38.2194 48.1994 37.5022 49.6154V46.9169L37.5539 46.6155C37.7027 45.7532 37.6625 44.8689 37.4362 44.0236C37.2099 43.1783 36.8028 42.3922 36.243 41.7195C35.6833 41.0469 34.9842 40.5038 34.1941 40.1277C33.404 39.7515 32.5417 39.5514 31.6667 39.541H31.2844L31.2192 39.9188C31.0773 40.7393 31.1064 41.5802 31.3048 42.3889C31.5031 43.1976 31.8664 43.9565 32.3719 44.6182C32.8773 45.2799 33.514 45.83 34.2421 46.2341C34.9701 46.6382 35.7738 46.8875 36.6027 46.9663V59.2759C35.6434 56.9555 33.8995 55.0457 31.6755 53.8801C29.4515 52.7144 26.8888 52.367 24.4348 52.8985L24.0615 52.9795L24.0817 53.3617C24.1605 54.874 24.5588 56.3524 25.2505 57.6995C25.9422 59.0466 26.9114 60.2318 28.0945 61.1771C29.2775 62.1224 30.6474 62.8062 32.1139 63.1836C33.5805 63.5609 35.1103 63.6232 36.6027 63.3664V67.4141H13.4407V53.8407C13.6161 53.8542 13.7915 53.861 13.9669 53.861C15.0012 53.8601 16.0247 53.6511 16.9765 53.2464C17.9284 52.8417 18.789 52.2496 19.5072 51.5053C20.2255 50.7611 20.7866 49.8799 21.1572 48.9143C21.5277 47.9487 21.7002 46.9184 21.6643 45.8847L21.6508 45.5024L21.2708 45.4552C19.696 45.257 18.0985 45.5504 16.6968 46.2951C15.2952 47.0398 14.1579 48.1994 13.4407 49.6154V46.9169L13.4924 46.6155C13.6412 45.7532 13.601 44.8689 13.3747 44.0236C13.1484 43.1783 12.7413 42.3922 12.1816 41.7195C11.6218 41.0469 10.9228 40.5038 10.1327 40.1277C9.34256 39.7515 8.48023 39.5514 7.60522 39.541H7.22294L7.15772 39.9188C7.01582 40.7393 7.04496 41.5802 7.24332 42.3889C7.44167 43.1976 7.80496 43.9565 8.31041 44.6182C8.81586 45.2799 9.45256 45.83 10.1806 46.2341C10.9086 46.6382 11.7123 46.8875 12.5412 46.9663V59.2759C11.5819 56.9555 9.83803 55.0457 7.61405 53.8801C5.39007 52.7144 2.82732 52.367 0.373289 52.8985L0 52.9795L0.0202378 53.3617C0.0990127 54.874 0.497358 56.3524 1.18902 57.6995C1.88069 59.0466 2.84997 60.2318 4.033 61.1771C5.21603 62.1224 6.58594 62.8062 8.05247 63.1836C9.519 63.5609 11.0488 63.6232 12.5412 63.3664V67.4141H2.42189V68.3136H70.8374V67.4141H61.1679L61.1723 53.8407ZM63.3604 48.1604C64.0419 47.5129 64.8506 47.014 65.7352 46.6954C66.6197 46.3768 67.5608 46.2455 68.4987 46.3097C68.4777 47.2287 68.2708 48.1339 67.8904 48.9707C67.5101 49.8075 66.9642 50.5586 66.2856 51.1788C65.6071 51.7989 64.81 52.2751 63.9424 52.5788C63.0748 52.8825 62.1547 53.0073 61.2376 52.9457C61.2588 52.0476 61.4573 51.1625 61.8216 50.3413C62.1859 49.5201 62.7088 48.7789 63.3604 48.1604ZM52.3573 60.488C51.3176 59.6628 50.4556 58.6357 49.8234 57.4686C49.1911 56.3015 48.8016 55.0185 48.6784 53.6968C50.0144 53.4648 51.384 53.5117 52.701 53.8346C54.018 54.1575 55.2539 54.7494 56.3311 55.5731C57.4082 56.3968 58.3033 57.4345 58.96 58.6209C59.6167 59.8073 60.0208 61.1167 60.1469 62.4669C58.7824 62.7058 57.3828 62.6529 56.0401 62.3119C54.6975 61.9708 53.4423 61.3492 52.3573 60.488ZM56.8323 44.1644C55.9964 43.1204 55.5989 41.7924 55.7237 40.4608C57.0797 40.5813 58.3326 41.2347 59.2077 42.2776C60.0828 43.3204 60.5087 44.6677 60.392 46.0241L60.3583 46.0668C59.6729 46.0028 59.0075 45.8013 58.4017 45.4745C57.7959 45.1476 57.2621 44.7021 56.8323 44.1644ZM39.6902 48.1604C40.3717 47.5127 41.1804 47.0138 42.0649 46.6952C42.9495 46.3766 43.8906 46.2453 44.8285 46.3097C44.8075 47.2281 44.6008 48.1327 44.2208 48.969C43.8409 49.8054 43.2956 50.5562 42.6178 51.1762C41.94 51.7962 41.1437 52.2726 40.2769 52.5767C39.4101 52.8808 38.4907 53.0064 37.5741 52.9457C37.594 52.048 37.7912 51.163 38.1543 50.3418C38.5175 49.5205 39.0394 48.7792 39.6902 48.1604ZM28.6849 60.488C27.6458 59.6623 26.7845 58.6351 26.1527 57.468C25.5208 56.301 25.1315 55.0182 25.0082 53.6968C26.3442 53.4651 27.7136 53.5123 29.0305 53.8353C30.3473 54.1584 31.5832 54.7503 32.6602 55.574C33.7373 56.3976 34.6324 57.4352 35.2892 58.6214C35.946 59.8076 36.3503 61.1169 36.4767 62.4669C35.1119 62.7057 33.7119 62.6528 32.3689 62.3117C31.0259 61.9706 29.7704 61.3491 28.6849 60.488ZM33.1621 44.1644C32.3254 43.1208 31.9277 41.7925 32.0535 40.4608C33.4095 40.5813 34.6624 41.2347 35.5375 42.2776C36.4126 43.3204 36.8385 44.6677 36.7218 46.0241C36.7094 46.0374 36.6981 46.0517 36.6881 46.0668C36.0027 46.0031 35.3372 45.8017 34.7313 45.4748C34.1255 45.1479 33.5918 44.7023 33.1621 44.1644ZM15.622 48.1604C16.3035 47.5129 17.1122 47.014 17.9968 46.6954C18.8813 46.3768 19.8224 46.2455 20.7603 46.3097C20.7392 47.2275 20.5327 48.1315 20.1532 48.9673C19.7737 49.8032 19.229 50.5537 18.5519 51.1736C17.8748 51.7935 17.0794 52.2701 16.2134 52.5746C15.3474 52.8792 14.4287 53.0054 13.5126 52.9457C13.5325 52.048 13.7297 51.163 14.0929 50.3418C14.456 49.5205 14.978 48.7792 15.6287 48.1604H15.622ZM4.6234 60.488C3.58437 59.6623 2.72304 58.6351 2.0912 57.468C1.45937 56.301 1.07007 55.0182 0.946717 53.6968C2.28269 53.4651 3.65214 53.5123 4.96901 53.8353C6.28588 54.1584 7.52168 54.7503 8.59876 55.574C9.67584 56.3976 10.5709 57.4352 11.2277 58.6214C11.8845 59.8076 12.2888 61.1169 12.4153 62.4669C11.0504 62.7057 9.65042 62.6528 8.30745 62.3117C6.96448 61.9706 5.70893 61.3491 4.6234 60.488ZM9.10063 44.1644C8.2639 43.1208 7.86628 41.7925 7.992 40.4608C9.34804 40.5813 10.6009 41.2347 11.476 42.2776C12.3511 43.3204 12.777 44.6677 12.6604 46.0241C12.6479 46.0374 12.6366 46.0517 12.6266 46.0668C11.9412 46.0031 11.2757 45.8017 10.6698 45.4748C10.064 45.1479 9.5303 44.7023 9.10063 44.1644Z" stroke="#058FA2" stroke-width="1.4"/>
<mask id="path-2-inside-1_5105_7818" fill="white">
<path d="M66.9481 22.3609L66.1055 22.6758L67.5003 26.4084L68.3429 26.0936L66.9481 22.3609Z"/>
</mask>
<path d="M66.9481 22.3609L66.1055 22.6758L67.5003 26.4084L68.3429 26.0936L66.9481 22.3609Z" fill="#FDD304"/>
<path d="M66.1055 22.6758L65.0553 19.8656L62.2451 20.9157L63.2953 23.7259L66.1055 22.6758ZM66.9481 22.3609L69.7583 21.3108L68.7081 18.5006L65.8979 19.5507L66.9481 22.3609ZM68.3429 26.0936L69.393 28.9038L72.2032 27.8536L71.1531 25.0434L68.3429 26.0936ZM67.5003 26.4084L64.6901 27.4586L65.7402 30.2688L68.5504 29.2186L67.5003 26.4084ZM66.1055 22.6758L67.1556 25.486L67.9982 25.1711L66.9481 22.3609L65.8979 19.5507L65.0553 19.8656L66.1055 22.6758ZM66.9481 22.3609L64.1379 23.4111L65.5327 27.1437L68.3429 26.0936L71.1531 25.0434L69.7583 21.3108L66.9481 22.3609ZM68.3429 26.0936L67.2928 23.2834L66.4502 23.5982L67.5003 26.4084L68.5504 29.2186L69.393 28.9038L68.3429 26.0936ZM67.5003 26.4084L70.3105 25.3583L68.9157 21.6256L66.1055 22.6758L63.2953 23.7259L64.6901 27.4586L67.5003 26.4084Z" fill="#FDD304" mask="url(#path-2-inside-1_5105_7818)"/>
<mask id="path-4-inside-2_5105_7818" fill="white">
<path d="M69.741 29.814L68.8984 30.1289L69.8824 32.762L70.725 32.4471L69.741 29.814Z"/>
</mask>
<path d="M69.741 29.814L68.8984 30.1289L69.8824 32.762L70.725 32.4471L69.741 29.814Z" fill="#FDD304"/>
<path d="M68.8984 30.1289L67.8483 27.3187L65.0381 28.3688L66.0882 31.179L68.8984 30.1289ZM69.741 29.814L72.5512 28.7639L71.5011 25.9537L68.6909 27.0038L69.741 29.814ZM70.725 32.4471L71.7751 35.2573L74.5853 34.2072L73.5352 31.397L70.725 32.4471ZM69.8824 32.762L67.0722 33.8121L68.1223 36.6223L70.9325 35.5722L69.8824 32.762ZM68.8984 30.1289L69.9486 32.9391L70.7912 32.6242L69.741 29.814L68.6909 27.0038L67.8483 27.3187L68.8984 30.1289ZM69.741 29.814L66.9308 30.8642L67.9148 33.4973L70.725 32.4471L73.5352 31.397L72.5512 28.7639L69.741 29.814ZM70.725 32.4471L69.6748 29.6369L68.8323 29.9518L69.8824 32.762L70.9325 35.5722L71.7751 35.2573L70.725 32.4471ZM69.8824 32.762L72.6926 31.7119L71.7086 29.0788L68.8984 30.1289L66.0882 31.179L67.0722 33.8121L69.8824 32.762Z" fill="#FDD304" mask="url(#path-4-inside-2_5105_7818)"/>
<mask id="path-6-inside-3_5105_7818" fill="white">
<path d="M52.409 22.3572L51.5664 22.6719L52.9606 26.4048L53.8032 26.0901L52.409 22.3572Z"/>
</mask>
<path d="M52.409 22.3572L51.5664 22.6719L52.9606 26.4048L53.8032 26.0901L52.409 22.3572Z" fill="#FDD304"/>
<path d="M51.5664 22.6719L50.5168 19.8615L47.7064 20.9111L48.756 23.7215L51.5664 22.6719ZM52.409 22.3572L55.2194 21.3075L54.1698 18.4971L51.3594 19.5468L52.409 22.3572ZM53.8032 26.0901L54.8529 28.9004L57.6633 27.8508L56.6136 25.0404L53.8032 26.0901ZM52.9606 26.4048L50.1502 27.4544L51.1999 30.2648L54.0102 29.2152L52.9606 26.4048ZM51.5664 22.6719L52.616 25.4823L53.4587 25.1675L52.409 22.3572L51.3594 19.5468L50.5168 19.8615L51.5664 22.6719ZM52.409 22.3572L49.5987 23.4068L50.9929 27.1397L53.8032 26.0901L56.6136 25.0404L55.2194 21.3075L52.409 22.3572ZM53.8032 26.0901L52.7536 23.2797L51.911 23.5944L52.9606 26.4048L54.0102 29.2152L54.8529 28.9004L53.8032 26.0901ZM52.9606 26.4048L55.771 25.3551L54.3768 21.6222L51.5664 22.6719L48.756 23.7215L50.1502 27.4544L52.9606 26.4048Z" fill="#FDD304" mask="url(#path-6-inside-3_5105_7818)"/>
<mask id="path-8-inside-4_5105_7818" fill="white">
<path d="M55.1981 29.818L54.3555 30.1328L55.3394 32.7659L56.182 32.451L55.1981 29.818Z"/>
</mask>
<path d="M55.1981 29.818L54.3555 30.1328L55.3394 32.7659L56.182 32.451L55.1981 29.818Z" fill="#FDD304"/>
<path d="M54.3555 30.1328L53.3053 27.3226L50.4951 28.3727L51.5453 31.1829L54.3555 30.1328ZM55.1981 29.818L58.0083 28.7678L56.9581 25.9576L54.1479 27.0078L55.1981 29.818ZM56.182 32.451L57.2321 35.2612L60.0423 34.2111L58.9922 31.4009L56.182 32.451ZM55.3394 32.7659L52.5292 33.816L53.5793 36.6262L56.3895 35.5761L55.3394 32.7659ZM54.3555 30.1328L55.4056 32.943L56.2482 32.6282L55.1981 29.818L54.1479 27.0078L53.3053 27.3226L54.3555 30.1328ZM55.1981 29.818L52.3879 30.8681L53.3718 33.5012L56.182 32.451L58.9922 31.4009L58.0083 28.7678L55.1981 29.818ZM56.182 32.451L55.1319 29.6408L54.2893 29.9557L55.3394 32.7659L56.3895 35.5761L57.2321 35.2612L56.182 32.451ZM55.3394 32.7659L58.1496 31.7158L57.1657 29.0827L54.3555 30.1328L51.5453 31.1829L52.5292 33.816L55.3394 32.7659Z" fill="#FDD304" mask="url(#path-8-inside-4_5105_7818)"/>
<mask id="path-10-inside-5_5105_7818" fill="white">
<path d="M38.3152 22.3531L37.4727 22.668L38.8675 26.4006L39.7101 26.0858L38.3152 22.3531Z"/>
</mask>
<path d="M38.3152 22.3531L37.4727 22.668L38.8675 26.4006L39.7101 26.0858L38.3152 22.3531Z" fill="#FDD304"/>
<path d="M37.4727 22.668L36.4225 19.8578L33.6123 20.9079L34.6625 23.7181L37.4727 22.668ZM38.3152 22.3531L41.1254 21.303L40.0753 18.4928L37.2651 19.5429L38.3152 22.3531ZM39.7101 26.0858L40.7602 28.896L43.5704 27.8458L42.5203 25.0356L39.7101 26.0858ZM38.8675 26.4006L36.0573 27.4508L37.1074 30.261L39.9176 29.2108L38.8675 26.4006ZM37.4727 22.668L38.5228 25.4782L39.3654 25.1633L38.3152 22.3531L37.2651 19.5429L36.4225 19.8578L37.4727 22.668ZM38.3152 22.3531L35.505 23.4032L36.8999 27.1359L39.7101 26.0858L42.5203 25.0356L41.1254 21.303L38.3152 22.3531ZM39.7101 26.0858L38.66 23.2756L37.8174 23.5904L38.8675 26.4006L39.9176 29.2108L40.7602 28.896L39.7101 26.0858ZM38.8675 26.4006L41.6777 25.3505L40.2829 21.6178L37.4727 22.668L34.6625 23.7181L36.0573 27.4508L38.8675 26.4006Z" fill="#FDD304" mask="url(#path-10-inside-5_5105_7818)"/>
<mask id="path-12-inside-6_5105_7818" fill="white">
<path d="M41.1004 29.8277L40.2578 30.1426L41.2418 32.7757L42.0843 32.4608L41.1004 29.8277Z"/>
</mask>
<path d="M41.1004 29.8277L40.2578 30.1426L41.2418 32.7757L42.0843 32.4608L41.1004 29.8277Z" fill="#FDD304"/>
<path d="M40.2578 30.1426L39.2077 27.3324L36.3975 28.3825L37.4476 31.1927L40.2578 30.1426ZM41.1004 29.8277L43.9106 28.7776L42.8605 25.9674L40.0503 27.0175L41.1004 29.8277ZM42.0843 32.4608L43.1345 35.271L45.9447 34.2209L44.8945 31.4107L42.0843 32.4608ZM41.2418 32.7757L38.4316 33.8258L39.4817 36.636L42.2919 35.5859L41.2418 32.7757ZM40.2578 30.1426L41.3079 32.9528L42.1505 32.6379L41.1004 29.8277L40.0503 27.0175L39.2077 27.3324L40.2578 30.1426ZM41.1004 29.8277L38.2902 30.8778L39.2741 33.5109L42.0843 32.4608L44.8945 31.4107L43.9106 28.7776L41.1004 29.8277ZM42.0843 32.4608L41.0342 29.6506L40.1916 29.9655L41.2418 32.7757L42.2919 35.5859L43.1345 35.271L42.0843 32.4608ZM41.2418 32.7757L44.052 31.7255L43.068 29.0924L40.2578 30.1426L37.4476 31.1927L38.4316 33.8258L41.2418 32.7757Z" fill="#FDD304" mask="url(#path-12-inside-6_5105_7818)"/>
<mask id="path-14-inside-7_5105_7818" fill="white">
<path d="M23.7723 22.357L22.9297 22.6719L24.3245 26.4045L25.1671 26.0897L23.7723 22.357Z"/>
</mask>
<path d="M23.7723 22.357L22.9297 22.6719L24.3245 26.4045L25.1671 26.0897L23.7723 22.357Z" fill="#FDD304"/>
<path d="M22.9297 22.6719L21.8796 19.8617L19.0694 20.9118L20.1195 23.722L22.9297 22.6719ZM23.7723 22.357L26.5825 21.3069L25.5323 18.4967L22.7221 19.5468L23.7723 22.357ZM25.1671 26.0897L26.2172 28.8999L29.0274 27.8497L27.9773 25.0395L25.1671 26.0897ZM24.3245 26.4045L21.5143 27.4547L22.5645 30.2649L25.3747 29.2147L24.3245 26.4045ZM22.9297 22.6719L23.9798 25.4821L24.8224 25.1672L23.7723 22.357L22.7221 19.5468L21.8796 19.8617L22.9297 22.6719ZM23.7723 22.357L20.9621 23.4071L22.3569 27.1398L25.1671 26.0897L27.9773 25.0395L26.5825 21.3069L23.7723 22.357ZM25.1671 26.0897L24.117 23.2795L23.2744 23.5943L24.3245 26.4045L25.3747 29.2147L26.2172 28.8999L25.1671 26.0897ZM24.3245 26.4045L27.1347 25.3544L25.7399 21.6217L22.9297 22.6719L20.1195 23.722L21.5143 27.4547L24.3245 26.4045Z" fill="#FDD304" mask="url(#path-14-inside-7_5105_7818)"/>
<mask id="path-16-inside-8_5105_7818" fill="white">
<path d="M26.5574 29.8258L25.7148 30.1406L26.6988 32.7737L27.5414 32.4588L26.5574 29.8258Z"/>
</mask>
<path d="M26.5574 29.8258L25.7148 30.1406L26.6988 32.7737L27.5414 32.4588L26.5574 29.8258Z" fill="#FDD304"/>
<path d="M25.7148 30.1406L24.6647 27.3304L21.8545 28.3806L22.9046 31.1908L25.7148 30.1406ZM26.5574 29.8258L29.3676 28.7756L28.3175 25.9654L25.5073 27.0156L26.5574 29.8258ZM27.5414 32.4588L28.5915 35.269L31.4017 34.2189L30.3516 31.4087L27.5414 32.4588ZM26.6988 32.7737L23.8886 33.8238L24.9387 36.634L27.7489 35.5839L26.6988 32.7737ZM25.7148 30.1406L26.765 32.9508L27.6076 32.636L26.5574 29.8258L25.5073 27.0156L24.6647 27.3304L25.7148 30.1406ZM26.5574 29.8258L23.7472 30.8759L24.7312 33.509L27.5414 32.4588L30.3516 31.4087L29.3676 28.7756L26.5574 29.8258ZM27.5414 32.4588L26.4912 29.6486L25.6487 29.9635L26.6988 32.7737L27.7489 35.5839L28.5915 35.269L27.5414 32.4588ZM26.6988 32.7737L29.509 31.7236L28.525 29.0905L25.7148 30.1406L22.9046 31.1908L23.8886 33.8238L26.6988 32.7737Z" fill="#FDD304" mask="url(#path-16-inside-8_5105_7818)"/>
<mask id="path-18-inside-9_5105_7818" fill="white">
<path d="M9.23327 22.3572L8.39062 22.6719L9.78481 26.4048L10.6275 26.0901L9.23327 22.3572Z"/>
</mask>
<path d="M9.23327 22.3572L8.39062 22.6719L9.78481 26.4048L10.6275 26.0901L9.23327 22.3572Z" fill="#FDD304"/>
<path d="M8.39062 22.6719L7.34098 19.8615L4.5306 20.9111L5.58024 23.7215L8.39062 22.6719ZM9.23327 22.3572L12.0436 21.3075L10.994 18.4971L8.18362 19.5468L9.23327 22.3572ZM10.6275 26.0901L11.6771 28.9004L14.4875 27.8508L13.4378 25.0404L10.6275 26.0901ZM9.78481 26.4048L6.97443 27.4544L8.02407 30.2648L10.8345 29.2152L9.78481 26.4048ZM8.39062 22.6719L9.44027 25.4823L10.2829 25.1675L9.23327 22.3572L8.18362 19.5468L7.34098 19.8615L8.39062 22.6719ZM9.23327 22.3572L6.42288 23.4068L7.81707 27.1397L10.6275 26.0901L13.4378 25.0404L12.0436 21.3075L9.23327 22.3572ZM10.6275 26.0901L9.57781 23.2797L8.73517 23.5944L9.78481 26.4048L10.8345 29.2152L11.6771 28.9004L10.6275 26.0901ZM9.78481 26.4048L12.5952 25.3551L11.201 21.6222L8.39062 22.6719L5.58024 23.7215L6.97443 27.4544L9.78481 26.4048Z" fill="#FDD304" mask="url(#path-18-inside-9_5105_7818)"/>
<mask id="path-20-inside-10_5105_7818" fill="white">
<path d="M12.0184 29.8219L11.1758 30.1367L12.1597 32.7698L13.0023 32.4549L12.0184 29.8219Z"/>
</mask>
<path d="M12.0184 29.8219L11.1758 30.1367L12.1597 32.7698L13.0023 32.4549L12.0184 29.8219Z" fill="#FDD304"/>
<path d="M11.1758 30.1367L10.1256 27.3265L7.31545 28.3767L8.36558 31.1869L11.1758 30.1367ZM12.0184 29.8219L14.8286 28.7717L13.7784 25.9615L10.9682 27.0117L12.0184 29.8219ZM13.0023 32.4549L14.0524 35.2651L16.8626 34.215L15.8125 31.4048L13.0023 32.4549ZM12.1597 32.7698L9.34953 33.8199L10.3997 36.6301L13.2099 35.58L12.1597 32.7698ZM11.1758 30.1367L12.2259 32.9469L13.0685 32.6321L12.0184 29.8219L10.9682 27.0117L10.1256 27.3265L11.1758 30.1367ZM12.0184 29.8219L9.20817 30.872L10.1921 33.5051L13.0023 32.4549L15.8125 31.4048L14.8286 28.7717L12.0184 29.8219ZM13.0023 32.4549L11.9522 29.6447L11.1096 29.9596L12.1597 32.7698L13.2099 35.58L14.0524 35.2651L13.0023 32.4549ZM12.1597 32.7698L14.9699 31.7197L13.986 29.0866L11.1758 30.1367L8.36558 31.1869L9.34953 33.8199L12.1597 32.7698Z" fill="#FDD304" mask="url(#path-20-inside-10_5105_7818)"/>
<mask id="path-22-inside-11_5105_7818" fill="white">
<path d="M3.54599 29.8218L2.5625 32.4551L3.40514 32.7698L4.38863 30.1365L3.54599 29.8218Z"/>
</mask>
<path d="M3.54599 29.8218L2.5625 32.4551L3.40514 32.7698L4.38863 30.1365L3.54599 29.8218Z" fill="#FDD304"/>
<path d="M2.5625 32.4551L-0.247883 31.4054L-1.29752 34.2158L1.51286 35.2655L2.5625 32.4551ZM3.54599 29.8218L4.59563 27.0114L1.78524 25.9618L0.735602 28.7722L3.54599 29.8218ZM4.38863 30.1365L7.19901 31.1862L8.24865 28.3758L5.43827 27.3262L4.38863 30.1365ZM3.40514 32.7698L2.3555 35.5802L5.16588 36.6298L6.21552 33.8194L3.40514 32.7698ZM2.5625 32.4551L5.37288 33.5047L6.35637 30.8715L3.54599 29.8218L0.735602 28.7722L-0.247883 31.4054L2.5625 32.4551ZM3.54599 29.8218L2.49634 32.6322L3.33899 32.9469L4.38863 30.1365L5.43827 27.3262L4.59563 27.0114L3.54599 29.8218ZM4.38863 30.1365L1.57824 29.0869L0.594758 31.7202L3.40514 32.7698L6.21552 33.8194L7.19901 31.1862L4.38863 30.1365ZM3.40514 32.7698L4.45478 29.9594L3.61214 29.6447L2.5625 32.4551L1.51286 35.2655L2.3555 35.5802L3.40514 32.7698Z" fill="#FDD304" mask="url(#path-22-inside-11_5105_7818)"/>
<mask id="path-24-inside-12_5105_7818" fill="white">
<path d="M6.33625 22.3591L4.94141 26.0918L5.78399 26.4067L7.17883 22.674L6.33625 22.3591Z"/>
</mask>
<path d="M6.33625 22.3591L4.94141 26.0918L5.78399 26.4067L7.17883 22.674L6.33625 22.3591Z" fill="#FDD304"/>
<path d="M4.94141 26.0918L2.13121 25.0417L1.08107 27.8519L3.89127 28.902L4.94141 26.0918ZM6.33625 22.3591L7.38638 19.5489L4.57618 18.4988L3.52605 21.309L6.33625 22.3591ZM7.17883 22.674L9.98903 23.7241L11.0392 20.9139L8.22897 19.8638L7.17883 22.674ZM5.78399 26.4067L4.73386 29.2169L7.54406 30.267L8.59419 27.4568L5.78399 26.4067ZM4.94141 26.0918L7.75161 27.1419L9.14645 23.4093L6.33625 22.3591L3.52605 21.309L2.13121 25.0417L4.94141 26.0918ZM6.33625 22.3591L5.28612 25.1693L6.1287 25.4842L7.17883 22.674L8.22897 19.8638L7.38638 19.5489L6.33625 22.3591ZM7.17883 22.674L4.36863 21.6239L2.97379 25.3565L5.78399 26.4067L8.59419 27.4568L9.98903 23.7241L7.17883 22.674ZM5.78399 26.4067L6.83412 23.5965L5.99154 23.2816L4.94141 26.0918L3.89127 28.902L4.73386 29.2169L5.78399 26.4067Z" fill="#FDD304" mask="url(#path-24-inside-12_5105_7818)"/>
<mask id="path-26-inside-13_5105_7818" fill="white">
<path d="M61.5616 29.8238L60.5781 32.457L61.4208 32.7717L62.4043 30.1385L61.5616 29.8238Z"/>
</mask>
<path d="M61.5616 29.8238L60.5781 32.457L61.4208 32.7717L62.4043 30.1385L61.5616 29.8238Z" fill="#FDD304"/>
<path d="M60.5781 32.457L57.7677 31.4074L56.7181 34.2178L59.5285 35.2674L60.5781 32.457ZM61.5616 29.8238L62.6113 27.0134L59.8009 25.9638L58.7512 28.7741L61.5616 29.8238ZM62.4043 30.1385L65.2146 31.1881L66.2643 28.3778L63.4539 27.3281L62.4043 30.1385ZM61.4208 32.7717L60.3711 35.5821L63.1815 36.6318L64.2311 33.8214L61.4208 32.7717ZM60.5781 32.457L63.3885 33.5067L64.372 30.8734L61.5616 29.8238L58.7512 28.7741L57.7677 31.4074L60.5781 32.457ZM61.5616 29.8238L60.512 32.6342L61.3546 32.9489L62.4043 30.1385L63.4539 27.3281L62.6113 27.0134L61.5616 29.8238ZM62.4043 30.1385L59.5939 29.0889L58.6104 31.7221L61.4208 32.7717L64.2311 33.8214L65.2146 31.1881L62.4043 30.1385ZM61.4208 32.7717L62.4704 29.9614L61.6278 29.6466L60.5781 32.457L59.5285 35.2674L60.3711 35.5821L61.4208 32.7717Z" fill="#FDD304" mask="url(#path-26-inside-13_5105_7818)"/>
<mask id="path-28-inside-14_5105_7818" fill="white">
<path d="M64.3519 22.3591L62.957 26.0918L63.7996 26.4067L65.1945 22.674L64.3519 22.3591Z"/>
</mask>
<path d="M64.3519 22.3591L62.957 26.0918L63.7996 26.4067L65.1945 22.674L64.3519 22.3591Z" fill="#FDD304"/>
<path d="M62.957 26.0918L60.1468 25.0417L59.0967 27.8519L61.9069 28.902L62.957 26.0918ZM64.3519 22.3591L65.402 19.5489L62.5918 18.4988L61.5417 21.309L64.3519 22.3591ZM65.1945 22.674L68.0047 23.7241L69.0548 20.9139L66.2446 19.8638L65.1945 22.674ZM63.7996 26.4067L62.7495 29.2169L65.5597 30.267L66.6098 27.4568L63.7996 26.4067ZM62.957 26.0918L65.7672 27.1419L67.1621 23.4093L64.3519 22.3591L61.5417 21.309L60.1468 25.0417L62.957 26.0918ZM64.3519 22.3591L63.3017 25.1693L64.1443 25.4842L65.1945 22.674L66.2446 19.8638L65.402 19.5489L64.3519 22.3591ZM65.1945 22.674L62.3843 21.6239L60.9894 25.3565L63.7996 26.4067L66.6098 27.4568L68.0047 23.7241L65.1945 22.674ZM63.7996 26.4067L64.8497 23.5965L64.0072 23.2816L62.957 26.0918L61.9069 28.902L62.7495 29.2169L63.7996 26.4067Z" fill="#FDD304" mask="url(#path-28-inside-14_5105_7818)"/>
<mask id="path-30-inside-15_5105_7818" fill="white">
<path d="M47.4722 29.8259L46.4883 32.459L47.3309 32.7738L48.3148 30.1408L47.4722 29.8259Z"/>
</mask>
<path d="M47.4722 29.8259L46.4883 32.459L47.3309 32.7738L48.3148 30.1408L47.4722 29.8259Z" fill="#FDD304"/>
<path d="M46.4883 32.459L43.6781 31.4089L42.6279 34.2191L45.4381 35.2692L46.4883 32.459ZM47.4722 29.8259L48.5224 27.0157L45.7122 25.9656L44.662 28.7758L47.4722 29.8259ZM48.3148 30.1408L51.125 31.1909L52.1751 28.3807L49.3649 27.3306L48.3148 30.1408ZM47.3309 32.7738L46.2807 35.584L49.0909 36.6342L50.1411 33.824L47.3309 32.7738ZM46.4883 32.459L49.2985 33.5091L50.2824 30.876L47.4722 29.8259L44.662 28.7758L43.6781 31.4089L46.4883 32.459ZM47.4722 29.8259L46.4221 32.6361L47.2647 32.951L48.3148 30.1408L49.3649 27.3306L48.5224 27.0157L47.4722 29.8259ZM48.3148 30.1408L45.5046 29.0906L44.5207 31.7237L47.3309 32.7738L50.1411 33.824L51.125 31.1909L48.3148 30.1408ZM47.3309 32.7738L48.381 29.9636L47.5384 29.6488L46.4883 32.459L45.4381 35.2692L46.2807 35.584L47.3309 32.7738Z" fill="#FDD304" mask="url(#path-30-inside-15_5105_7818)"/>
<mask id="path-32-inside-16_5105_7818" fill="white">
<path d="M50.262 22.363L48.8672 26.0957L49.7098 26.4106L51.1046 22.6779L50.262 22.363Z"/>
</mask>
<path d="M50.262 22.363L48.8672 26.0957L49.7098 26.4106L51.1046 22.6779L50.262 22.363Z" fill="#FDD304"/>
<path d="M48.8672 26.0957L46.057 25.0456L45.0069 27.8558L47.8171 28.9059L48.8672 26.0957ZM50.262 22.363L51.3122 19.5528L48.502 18.5027L47.4518 21.3129L50.262 22.363ZM51.1046 22.6779L53.9148 23.728L54.9649 20.9178L52.1547 19.8677L51.1046 22.6779ZM49.7098 26.4106L48.6596 29.2208L51.4698 30.2709L52.52 27.4607L49.7098 26.4106ZM48.8672 26.0957L51.6774 27.1458L53.0722 23.4132L50.262 22.363L47.4518 21.3129L46.057 25.0456L48.8672 26.0957ZM50.262 22.363L49.2119 25.1732L50.0545 25.4881L51.1046 22.6779L52.1547 19.8677L51.3122 19.5528L50.262 22.363ZM51.1046 22.6779L48.2944 21.6278L46.8996 25.3604L49.7098 26.4106L52.52 27.4607L53.9148 23.728L51.1046 22.6779ZM49.7098 26.4106L50.7599 23.6004L49.9173 23.2855L48.8672 26.0957L47.8171 28.9059L48.6596 29.2208L49.7098 26.4106Z" fill="#FDD304" mask="url(#path-32-inside-16_5105_7818)"/>
<mask id="path-34-inside-17_5105_7818" fill="white">
<path d="M32.9293 29.8279L31.9453 32.4609L32.7879 32.7758L33.7718 30.1427L32.9293 29.8279Z"/>
</mask>
<path d="M32.9293 29.8279L31.9453 32.4609L32.7879 32.7758L33.7718 30.1427L32.9293 29.8279Z" fill="#FDD304"/>
<path d="M31.9453 32.4609L29.1351 31.4108L28.085 34.221L30.8952 35.2711L31.9453 32.4609ZM32.9293 29.8279L33.9794 27.0177L31.1692 25.9675L30.1191 28.7777L32.9293 29.8279ZM33.7718 30.1427L36.582 31.1929L37.6322 28.3827L34.822 27.3325L33.7718 30.1427ZM32.7879 32.7758L31.7378 35.586L34.548 36.6361L35.5981 33.8259L32.7879 32.7758ZM31.9453 32.4609L34.7555 33.5111L35.7395 30.878L32.9293 29.8279L30.1191 28.7777L29.1351 31.4108L31.9453 32.4609ZM32.9293 29.8279L31.8791 32.6381L32.7217 32.9529L33.7718 30.1427L34.822 27.3325L33.9794 27.0177L32.9293 29.8279ZM33.7718 30.1427L30.9616 29.0926L29.9777 31.7257L32.7879 32.7758L35.5981 33.8259L36.582 31.1929L33.7718 30.1427ZM32.7879 32.7758L33.838 29.9656L32.9954 29.6507L31.9453 32.4609L30.8952 35.2711L31.7378 35.586L32.7879 32.7758Z" fill="#FDD304" mask="url(#path-34-inside-17_5105_7818)"/>
<mask id="path-36-inside-18_5105_7818" fill="white">
<path d="M35.7191 22.363L34.3242 26.0957L35.1668 26.4106L36.5616 22.6779L35.7191 22.363Z"/>
</mask>
<path d="M35.7191 22.363L34.3242 26.0957L35.1668 26.4106L36.5616 22.6779L35.7191 22.363Z" fill="#FDD304"/>
<path d="M34.3242 26.0957L31.514 25.0456L30.4639 27.8558L33.2741 28.9059L34.3242 26.0957ZM35.7191 22.363L36.7692 19.5528L33.959 18.5027L32.9089 21.3129L35.7191 22.363ZM36.5616 22.6779L39.3718 23.728L40.422 20.9178L37.6118 19.8677L36.5616 22.6779ZM35.1668 26.4106L34.1167 29.2208L36.9269 30.2709L37.977 27.4607L35.1668 26.4106ZM34.3242 26.0957L37.1344 27.1458L38.5293 23.4132L35.7191 22.363L32.9089 21.3129L31.514 25.0456L34.3242 26.0957ZM35.7191 22.363L34.6689 25.1732L35.5115 25.4881L36.5616 22.6779L37.6118 19.8677L36.7692 19.5528L35.7191 22.363ZM36.5616 22.6779L33.7514 21.6278L32.3566 25.3604L35.1668 26.4106L37.977 27.4607L39.3718 23.728L36.5616 22.6779ZM35.1668 26.4106L36.2169 23.6004L35.3744 23.2855L34.3242 26.0957L33.2741 28.9059L34.1167 29.2208L35.1668 26.4106Z" fill="#FDD304" mask="url(#path-36-inside-18_5105_7818)"/>
<mask id="path-38-inside-19_5105_7818" fill="white">
<path d="M18.3941 29.8279L17.4102 32.4609L18.2527 32.7758L19.2367 30.1427L18.3941 29.8279Z"/>
</mask>
<path d="M18.3941 29.8279L17.4102 32.4609L18.2527 32.7758L19.2367 30.1427L18.3941 29.8279Z" fill="#FDD304"/>
<path d="M17.4102 32.4609L14.6 31.4108L13.5498 34.221L16.36 35.2711L17.4102 32.4609ZM18.3941 29.8279L19.4442 27.0177L16.634 25.9675L15.5839 28.7777L18.3941 29.8279ZM19.2367 30.1427L22.0469 31.1929L23.097 28.3827L20.2868 27.3325L19.2367 30.1427ZM18.2527 32.7758L17.2026 35.586L20.0128 36.6361L21.0629 33.8259L18.2527 32.7758ZM17.4102 32.4609L20.2204 33.5111L21.2043 30.878L18.3941 29.8279L15.5839 28.7777L14.6 31.4108L17.4102 32.4609ZM18.3941 29.8279L17.344 32.6381L18.1866 32.9529L19.2367 30.1427L20.2868 27.3325L19.4442 27.0177L18.3941 29.8279ZM19.2367 30.1427L16.4265 29.0926L15.4425 31.7257L18.2527 32.7758L21.0629 33.8259L22.0469 31.1929L19.2367 30.1427ZM18.2527 32.7758L19.3029 29.9656L18.4603 29.6507L17.4102 32.4609L16.36 35.2711L17.2026 35.586L18.2527 32.7758Z" fill="#FDD304" mask="url(#path-38-inside-19_5105_7818)"/>
<mask id="path-40-inside-20_5105_7818" fill="white">
<path d="M21.1722 22.3533L19.7773 26.0859L20.6199 26.4008L22.0148 22.6681L21.1722 22.3533Z"/>
</mask>
<path d="M21.1722 22.3533L19.7773 26.0859L20.6199 26.4008L22.0148 22.6681L21.1722 22.3533Z" fill="#FDD304"/>
<path d="M19.7773 26.0859L16.9671 25.0358L15.917 27.846L18.7272 28.8961L19.7773 26.0859ZM21.1722 22.3533L22.2223 19.5431L19.4121 18.4929L18.362 21.3031L21.1722 22.3533ZM22.0148 22.6681L24.825 23.7183L25.8751 20.9081L23.0649 19.8579L22.0148 22.6681ZM20.6199 26.4008L19.5698 29.211L22.38 30.2611L23.4301 27.4509L20.6199 26.4008ZM19.7773 26.0859L22.5875 27.1361L23.9824 23.4034L21.1722 22.3533L18.362 21.3031L16.9671 25.0358L19.7773 26.0859ZM21.1722 22.3533L20.1221 25.1635L20.9646 25.4783L22.0148 22.6681L23.0649 19.8579L22.2223 19.5431L21.1722 22.3533ZM22.0148 22.6681L19.2046 21.618L17.8097 25.3507L20.6199 26.4008L23.4301 27.4509L24.825 23.7183L22.0148 22.6681ZM20.6199 26.4008L21.6701 23.5906L20.8275 23.2757L19.7773 26.0859L18.7272 28.8961L19.5698 29.211L20.6199 26.4008Z" fill="#FDD304" mask="url(#path-40-inside-20_5105_7818)"/>
<path d="M69.6834 9.97264H54.7135L51.3225 4H22.6263L19.2352 9.97489H4.26541C3.65149 9.97608 3.06304 10.2205 2.62893 10.6546C2.19482 11.0887 1.95041 11.6772 1.94922 12.2911V16.7886H6.19033L6.99088 18.9361L7.78019 18.6415L8.5695 18.9361L9.37229 16.7886H20.7307L21.5335 18.9361L22.3767 18.6213L21.7021 16.7886H23.265L22.5904 18.6213L23.4336 18.9361L24.2364 16.7886H35.2957L36.0985 18.9361L36.9418 18.6213L36.2672 16.7886H37.7986L37.1104 18.6168L37.9537 18.9316L38.7565 16.7841H49.3661L50.1666 18.9316L51.0099 18.6168L50.3353 16.7841H52.3456L51.671 18.6168L52.512 18.9316L53.3148 16.7841H63.9064L64.7092 18.9316L65.5525 18.6168L64.8666 16.7841H66.4295L65.7436 18.6168L66.5869 18.9316L67.3897 16.7841H71.9996V12.2866C71.9978 11.6731 71.7531 11.0852 71.3191 10.6516C70.885 10.2179 70.2969 9.97383 69.6834 9.97264ZM23.1503 4.89949H50.8097L53.6724 9.94566H20.2877L23.1503 4.89949ZM4.26092 10.8744H69.6834C69.9812 10.8738 70.2717 10.9669 70.5138 11.1404C70.7559 11.3139 70.9374 11.5591 71.0326 11.8413H2.92067C3.01525 11.5594 3.19587 11.3143 3.43711 11.1404C3.67835 10.9665 3.96805 10.8727 4.26541 10.8721L4.26092 10.8744ZM7.77569 18.4841L7.14605 16.7953H8.40759L7.77569 18.4841ZM71.0956 15.8958H2.84871V12.7476H71.1001L71.0956 15.8958Z" stroke="#058FA2"/>
<rect x="1" y="66" width="72" height="3" rx="1.5" fill="#FDD304"/>
</g>
<defs>
<clipPath id="clip0_5105_7818">
<rect width="72" height="72" fill="white"/>
</clipPath>
</defs>
</svg>
