<svg width="72" height="72" viewBox="0 0 72 72" fill="none" xmlns="http://www.w3.org/2000/svg">
<mask id="path-1-inside-1_2_27784" fill="white">
<path d="M61.1723 53.8407C61.3477 53.8542 61.5231 53.8609 61.6985 53.8609C62.7328 53.86 63.7564 53.651 64.7082 53.2463C65.66 52.8416 66.5207 52.2495 67.2389 51.5053C67.9571 50.761 68.5182 49.8799 68.8888 48.9142C69.2594 47.9486 69.4319 46.9183 69.396 45.8846L69.3847 45.5024L69.0024 45.4551C67.4277 45.257 65.8301 45.5503 64.4285 46.295C63.0268 47.0397 61.8896 48.1994 61.1723 49.6153V46.9168L61.2241 46.6155C61.3728 45.7533 61.3327 44.8692 61.1065 44.024C60.8803 43.1789 60.4735 42.3929 59.914 41.7203C59.3545 41.0477 58.6557 40.5046 57.8659 40.1283C57.076 39.752 56.2139 39.5516 55.3391 39.541H54.9568L54.8916 39.9187C54.7497 40.7392 54.7789 41.5802 54.9772 42.3888C55.1756 43.1975 55.5389 43.9565 56.0443 44.6182C56.5498 45.2798 57.1865 45.83 57.9145 46.234C58.6425 46.6381 59.4462 46.8874 60.2751 46.9663V59.2759C59.3162 56.9556 57.5728 55.0459 55.3492 53.8802C53.1256 52.7146 50.5632 52.3671 48.1094 52.8984L47.7339 52.9794L47.7541 53.3617C47.833 54.8737 48.2312 56.3519 48.9228 57.6988C49.6143 59.0457 50.5834 60.2308 51.7662 61.1761C52.9489 62.1213 54.3185 62.8052 55.7848 63.1827C57.2511 63.5603 58.7807 63.6228 60.2729 63.3663V67.414H37.5022V53.8407C37.6776 53.8542 37.853 53.8609 38.0284 53.8609C39.0626 53.86 40.0862 53.651 41.038 53.2463C41.9898 52.8416 42.8505 52.2495 43.5687 51.5053C44.2869 50.761 44.848 49.8799 45.2186 48.9142C45.5892 47.9486 45.7617 46.9183 45.7258 45.8846L45.7123 45.5024L45.3323 45.4551C43.7575 45.257 42.1599 45.5503 40.7583 46.295C39.3566 47.0397 38.2194 48.1994 37.5022 49.6153V46.9168L37.5539 46.6155C37.7027 45.7532 37.6625 44.8688 37.4362 44.0235C37.2099 43.1782 36.8028 42.3921 36.243 41.7195C35.6833 41.0468 34.9842 40.5037 34.1941 40.1276C33.404 39.7515 32.5417 39.5513 31.6667 39.541H31.2844L31.2192 39.9187C31.0773 40.7392 31.1064 41.5802 31.3048 42.3888C31.5031 43.1975 31.8664 43.9565 32.3719 44.6182C32.8773 45.2798 33.514 45.83 34.2421 46.234C34.9701 46.6381 35.7738 46.8874 36.6027 46.9663V59.2759C35.6434 56.9554 33.8995 55.0456 31.6755 53.88C29.4515 52.7144 26.8888 52.367 24.4348 52.8984L24.0615 52.9794L24.0817 53.3617C24.1605 54.8739 24.5588 56.3523 25.2505 57.6994C25.9422 59.0465 26.9114 60.2318 28.0945 61.177C29.2775 62.1223 30.6474 62.8062 32.1139 63.1835C33.5805 63.5609 35.1103 63.6232 36.6027 63.3663V67.414H13.4407V53.8407C13.6161 53.8542 13.7915 53.8609 13.9669 53.8609C15.0012 53.86 16.0247 53.651 16.9765 53.2463C17.9284 52.8416 18.789 52.2495 19.5072 51.5053C20.2255 50.761 20.7866 49.8799 21.1572 48.9142C21.5277 47.9486 21.7002 46.9183 21.6643 45.8846L21.6508 45.5024L21.2708 45.4551C19.696 45.257 18.0985 45.5503 16.6968 46.295C15.2952 47.0397 14.1579 48.1994 13.4407 49.6153V46.9168L13.4924 46.6155C13.6412 45.7532 13.601 44.8688 13.3747 44.0235C13.1484 43.1782 12.7413 42.3921 12.1816 41.7195C11.6218 41.0468 10.9228 40.5037 10.1327 40.1276C9.34256 39.7515 8.48023 39.5513 7.60522 39.541H7.22294L7.15772 39.9187C7.01582 40.7392 7.04496 41.5802 7.24332 42.3888C7.44167 43.1975 7.80496 43.9565 8.31041 44.6182C8.81586 45.2798 9.45256 45.83 10.1806 46.234C10.9086 46.6381 11.7123 46.8874 12.5412 46.9663V59.2759C11.5819 56.9554 9.83803 55.0456 7.61405 53.88C5.39007 52.7144 2.82732 52.367 0.373289 52.8984L0 52.9794L0.0202378 53.3617C0.0990127 54.8739 0.497358 56.3523 1.18902 57.6994C1.88069 59.0465 2.84997 60.2318 4.033 61.177C5.21603 62.1223 6.58594 62.8062 8.05247 63.1835C9.519 63.5609 11.0488 63.6232 12.5412 63.3663V67.414H2.42189V68.3135H70.8374V67.414H61.1679L61.1723 53.8407ZM63.3604 48.1604C64.0419 47.5128 64.8506 47.0139 65.7352 46.6953C66.6197 46.3767 67.5608 46.2454 68.4987 46.3096C68.4777 47.2286 68.2708 48.1338 67.8904 48.9706C67.5101 49.8075 66.9642 50.5586 66.2856 51.1787C65.6071 51.7988 64.81 52.2751 63.9424 52.5788C63.0748 52.8824 62.1547 53.0072 61.2376 52.9457C61.2588 52.0475 61.4573 51.1624 61.8216 50.3412C62.1859 49.52 62.7088 48.7789 63.3604 48.1604ZM52.3573 60.4879C51.3176 59.6628 50.4556 58.6357 49.8234 57.4685C49.1911 56.3014 48.8016 55.0184 48.6784 53.6967C50.0144 53.4647 51.384 53.5116 52.701 53.8345C54.018 54.1574 55.2539 54.7494 56.3311 55.5731C57.4082 56.3968 58.3033 57.4345 58.96 58.6209C59.6167 59.8072 60.0208 61.1167 60.1469 62.4668C58.7824 62.7057 57.3828 62.6529 56.0401 62.3118C54.6975 61.9707 53.4423 61.3491 52.3573 60.4879ZM56.8323 44.1644C55.9964 43.1203 55.5989 41.7923 55.7237 40.4607C57.0797 40.5813 58.3326 41.2346 59.2077 42.2775C60.0828 43.3204 60.5087 44.6677 60.392 46.0241L60.3583 46.0668C59.6729 46.0027 59.0075 45.8013 58.4017 45.4744C57.7959 45.1476 57.2621 44.702 56.8323 44.1644ZM39.6902 48.1604C40.3717 47.5127 41.1804 47.0137 42.0649 46.6951C42.9495 46.3765 43.8906 46.2453 44.8285 46.3096C44.8075 47.228 44.6008 48.1326 44.2208 48.969C43.8409 49.8053 43.2956 50.5561 42.6178 51.1761C41.94 51.7961 41.1437 52.2726 40.2769 52.5767C39.4101 52.8808 38.4907 53.0063 37.5741 52.9457C37.594 52.0479 37.7912 51.163 38.1543 50.3417C38.5175 49.5205 39.0394 48.7791 39.6902 48.1604ZM28.6849 60.4879C27.6458 59.6623 26.7845 58.635 26.1527 57.468C25.5208 56.3009 25.1315 55.0181 25.0082 53.6967C26.3442 53.4651 27.7136 53.5122 29.0305 53.8353C30.3473 54.1583 31.5832 54.7503 32.6602 55.5739C33.7373 56.3976 34.6324 57.4351 35.2892 58.6213C35.946 59.8075 36.3503 61.1168 36.4767 62.4668C35.1119 62.7056 33.7119 62.6527 32.3689 62.3117C31.0259 61.9706 29.7704 61.349 28.6849 60.4879ZM33.1621 44.1644C32.3254 43.1207 31.9277 41.7924 32.0535 40.4607C33.4095 40.5813 34.6624 41.2346 35.5375 42.2775C36.4126 43.3204 36.8385 44.6677 36.7218 46.0241C36.7094 46.0373 36.6981 46.0516 36.6881 46.0668C36.0027 46.003 35.3372 45.8016 34.7313 45.4748C34.1255 45.1479 33.5918 44.7022 33.1621 44.1644ZM15.622 48.1604C16.3035 47.5128 17.1122 47.0139 17.9968 46.6953C18.8813 46.3767 19.8224 46.2454 20.7603 46.3096C20.7392 47.2274 20.5327 48.1314 20.1532 48.9673C19.7737 49.8032 19.229 50.5536 18.5519 51.1735C17.8748 51.7935 17.0794 52.27 16.2134 52.5746C15.3474 52.8791 14.4287 53.0054 13.5126 52.9457C13.5325 52.0479 13.7297 51.163 14.0929 50.3417C14.456 49.5205 14.978 48.7791 15.6287 48.1604H15.622ZM4.6234 60.4879C3.58437 59.6623 2.72304 58.635 2.0912 57.468C1.45937 56.3009 1.07007 55.0181 0.946717 53.6967C2.28269 53.4651 3.65214 53.5122 4.96901 53.8353C6.28588 54.1583 7.52168 54.7503 8.59876 55.5739C9.67584 56.3976 10.5709 57.4351 11.2277 58.6213C11.8845 59.8075 12.2888 61.1168 12.4153 62.4668C11.0504 62.7056 9.65042 62.6527 8.30745 62.3117C6.96448 61.9706 5.70893 61.349 4.6234 60.4879ZM9.10063 44.1644C8.2639 43.1207 7.86628 41.7924 7.992 40.4607C9.34804 40.5813 10.6009 41.2346 11.476 42.2775C12.3511 43.3204 12.777 44.6677 12.6604 46.0241C12.6479 46.0373 12.6366 46.0516 12.6266 46.0668C11.9412 46.003 11.2757 45.8016 10.6698 45.4748C10.064 45.1479 9.5303 44.7022 9.10063 44.1644Z"/>
</mask>
<path d="M61.1723 53.8407C61.3477 53.8542 61.5231 53.8609 61.6985 53.8609C62.7328 53.86 63.7564 53.651 64.7082 53.2463C65.66 52.8416 66.5207 52.2495 67.2389 51.5053C67.9571 50.761 68.5182 49.8799 68.8888 48.9142C69.2594 47.9486 69.4319 46.9183 69.396 45.8846L69.3847 45.5024L69.0024 45.4551C67.4277 45.257 65.8301 45.5503 64.4285 46.295C63.0268 47.0397 61.8896 48.1994 61.1723 49.6153V46.9168L61.2241 46.6155C61.3728 45.7533 61.3327 44.8692 61.1065 44.024C60.8803 43.1789 60.4735 42.3929 59.914 41.7203C59.3545 41.0477 58.6557 40.5046 57.8659 40.1283C57.076 39.752 56.2139 39.5516 55.3391 39.541H54.9568L54.8916 39.9187C54.7497 40.7392 54.7789 41.5802 54.9772 42.3888C55.1756 43.1975 55.5389 43.9565 56.0443 44.6182C56.5498 45.2798 57.1865 45.83 57.9145 46.234C58.6425 46.6381 59.4462 46.8874 60.2751 46.9663V59.2759C59.3162 56.9556 57.5728 55.0459 55.3492 53.8802C53.1256 52.7146 50.5632 52.3671 48.1094 52.8984L47.7339 52.9794L47.7541 53.3617C47.833 54.8737 48.2312 56.3519 48.9228 57.6988C49.6143 59.0457 50.5834 60.2308 51.7662 61.1761C52.9489 62.1213 54.3185 62.8052 55.7848 63.1827C57.2511 63.5603 58.7807 63.6228 60.2729 63.3663V67.414H37.5022V53.8407C37.6776 53.8542 37.853 53.8609 38.0284 53.8609C39.0626 53.86 40.0862 53.651 41.038 53.2463C41.9898 52.8416 42.8505 52.2495 43.5687 51.5053C44.2869 50.761 44.848 49.8799 45.2186 48.9142C45.5892 47.9486 45.7617 46.9183 45.7258 45.8846L45.7123 45.5024L45.3323 45.4551C43.7575 45.257 42.1599 45.5503 40.7583 46.295C39.3566 47.0397 38.2194 48.1994 37.5022 49.6153V46.9168L37.5539 46.6155C37.7027 45.7532 37.6625 44.8688 37.4362 44.0235C37.2099 43.1782 36.8028 42.3921 36.243 41.7195C35.6833 41.0468 34.9842 40.5037 34.1941 40.1276C33.404 39.7515 32.5417 39.5513 31.6667 39.541H31.2844L31.2192 39.9187C31.0773 40.7392 31.1064 41.5802 31.3048 42.3888C31.5031 43.1975 31.8664 43.9565 32.3719 44.6182C32.8773 45.2798 33.514 45.83 34.2421 46.234C34.9701 46.6381 35.7738 46.8874 36.6027 46.9663V59.2759C35.6434 56.9554 33.8995 55.0456 31.6755 53.88C29.4515 52.7144 26.8888 52.367 24.4348 52.8984L24.0615 52.9794L24.0817 53.3617C24.1605 54.8739 24.5588 56.3523 25.2505 57.6994C25.9422 59.0465 26.9114 60.2318 28.0945 61.177C29.2775 62.1223 30.6474 62.8062 32.1139 63.1835C33.5805 63.5609 35.1103 63.6232 36.6027 63.3663V67.414H13.4407V53.8407C13.6161 53.8542 13.7915 53.8609 13.9669 53.8609C15.0012 53.86 16.0247 53.651 16.9765 53.2463C17.9284 52.8416 18.789 52.2495 19.5072 51.5053C20.2255 50.761 20.7866 49.8799 21.1572 48.9142C21.5277 47.9486 21.7002 46.9183 21.6643 45.8846L21.6508 45.5024L21.2708 45.4551C19.696 45.257 18.0985 45.5503 16.6968 46.295C15.2952 47.0397 14.1579 48.1994 13.4407 49.6153V46.9168L13.4924 46.6155C13.6412 45.7532 13.601 44.8688 13.3747 44.0235C13.1484 43.1782 12.7413 42.3921 12.1816 41.7195C11.6218 41.0468 10.9228 40.5037 10.1327 40.1276C9.34256 39.7515 8.48023 39.5513 7.60522 39.541H7.22294L7.15772 39.9187C7.01582 40.7392 7.04496 41.5802 7.24332 42.3888C7.44167 43.1975 7.80496 43.9565 8.31041 44.6182C8.81586 45.2798 9.45256 45.83 10.1806 46.234C10.9086 46.6381 11.7123 46.8874 12.5412 46.9663V59.2759C11.5819 56.9554 9.83803 55.0456 7.61405 53.88C5.39007 52.7144 2.82732 52.367 0.373289 52.8984L0 52.9794L0.0202378 53.3617C0.0990127 54.8739 0.497358 56.3523 1.18902 57.6994C1.88069 59.0465 2.84997 60.2318 4.033 61.177C5.21603 62.1223 6.58594 62.8062 8.05247 63.1835C9.519 63.5609 11.0488 63.6232 12.5412 63.3663V67.414H2.42189V68.3135H70.8374V67.414H61.1679L61.1723 53.8407ZM63.3604 48.1604C64.0419 47.5128 64.8506 47.0139 65.7352 46.6953C66.6197 46.3767 67.5608 46.2454 68.4987 46.3096C68.4777 47.2286 68.2708 48.1338 67.8904 48.9706C67.5101 49.8075 66.9642 50.5586 66.2856 51.1787C65.6071 51.7988 64.81 52.2751 63.9424 52.5788C63.0748 52.8824 62.1547 53.0072 61.2376 52.9457C61.2588 52.0475 61.4573 51.1624 61.8216 50.3412C62.1859 49.52 62.7088 48.7789 63.3604 48.1604ZM52.3573 60.4879C51.3176 59.6628 50.4556 58.6357 49.8234 57.4685C49.1911 56.3014 48.8016 55.0184 48.6784 53.6967C50.0144 53.4647 51.384 53.5116 52.701 53.8345C54.018 54.1574 55.2539 54.7494 56.3311 55.5731C57.4082 56.3968 58.3033 57.4345 58.96 58.6209C59.6167 59.8072 60.0208 61.1167 60.1469 62.4668C58.7824 62.7057 57.3828 62.6529 56.0401 62.3118C54.6975 61.9707 53.4423 61.3491 52.3573 60.4879ZM56.8323 44.1644C55.9964 43.1203 55.5989 41.7923 55.7237 40.4607C57.0797 40.5813 58.3326 41.2346 59.2077 42.2775C60.0828 43.3204 60.5087 44.6677 60.392 46.0241L60.3583 46.0668C59.6729 46.0027 59.0075 45.8013 58.4017 45.4744C57.7959 45.1476 57.2621 44.702 56.8323 44.1644ZM39.6902 48.1604C40.3717 47.5127 41.1804 47.0137 42.0649 46.6951C42.9495 46.3765 43.8906 46.2453 44.8285 46.3096C44.8075 47.228 44.6008 48.1326 44.2208 48.969C43.8409 49.8053 43.2956 50.5561 42.6178 51.1761C41.94 51.7961 41.1437 52.2726 40.2769 52.5767C39.4101 52.8808 38.4907 53.0063 37.5741 52.9457C37.594 52.0479 37.7912 51.163 38.1543 50.3417C38.5175 49.5205 39.0394 48.7791 39.6902 48.1604ZM28.6849 60.4879C27.6458 59.6623 26.7845 58.635 26.1527 57.468C25.5208 56.3009 25.1315 55.0181 25.0082 53.6967C26.3442 53.4651 27.7136 53.5122 29.0305 53.8353C30.3473 54.1583 31.5832 54.7503 32.6602 55.5739C33.7373 56.3976 34.6324 57.4351 35.2892 58.6213C35.946 59.8075 36.3503 61.1168 36.4767 62.4668C35.1119 62.7056 33.7119 62.6527 32.3689 62.3117C31.0259 61.9706 29.7704 61.349 28.6849 60.4879ZM33.1621 44.1644C32.3254 43.1207 31.9277 41.7924 32.0535 40.4607C33.4095 40.5813 34.6624 41.2346 35.5375 42.2775C36.4126 43.3204 36.8385 44.6677 36.7218 46.0241C36.7094 46.0373 36.6981 46.0516 36.6881 46.0668C36.0027 46.003 35.3372 45.8016 34.7313 45.4748C34.1255 45.1479 33.5918 44.7022 33.1621 44.1644ZM15.622 48.1604C16.3035 47.5128 17.1122 47.0139 17.9968 46.6953C18.8813 46.3767 19.8224 46.2454 20.7603 46.3096C20.7392 47.2274 20.5327 48.1314 20.1532 48.9673C19.7737 49.8032 19.229 50.5536 18.5519 51.1735C17.8748 51.7935 17.0794 52.27 16.2134 52.5746C15.3474 52.8791 14.4287 53.0054 13.5126 52.9457C13.5325 52.0479 13.7297 51.163 14.0929 50.3417C14.456 49.5205 14.978 48.7791 15.6287 48.1604H15.622ZM4.6234 60.4879C3.58437 59.6623 2.72304 58.635 2.0912 57.468C1.45937 56.3009 1.07007 55.0181 0.946717 53.6967C2.28269 53.4651 3.65214 53.5122 4.96901 53.8353C6.28588 54.1583 7.52168 54.7503 8.59876 55.5739C9.67584 56.3976 10.5709 57.4351 11.2277 58.6213C11.8845 59.8075 12.2888 61.1168 12.4153 62.4668C11.0504 62.7056 9.65042 62.6527 8.30745 62.3117C6.96448 61.9706 5.70893 61.349 4.6234 60.4879ZM9.10063 44.1644C8.2639 43.1207 7.86628 41.7924 7.992 40.4607C9.34804 40.5813 10.6009 41.2346 11.476 42.2775C12.3511 43.3204 12.777 44.6677 12.6604 46.0241C12.6479 46.0373 12.6366 46.0516 12.6266 46.0668C11.9412 46.003 11.2757 45.8016 10.6698 45.4748C10.064 45.1479 9.5303 44.7022 9.10063 44.1644Z" stroke="#058FA2" stroke-width="6" mask="url(#path-1-inside-1_2_27784)"/>
<mask id="path-2-inside-2_2_27784" fill="white">
<path d="M66.9481 22.3613L66.1055 22.6762L67.5003 26.4089L68.3429 26.094L66.9481 22.3613Z"/>
</mask>
<path d="M66.1055 22.6762L65.0553 19.866L62.2451 20.9161L63.2953 23.7263L66.1055 22.6762ZM66.9481 22.3613L69.7583 21.3112L68.7081 18.501L65.8979 19.5511L66.9481 22.3613ZM68.3429 26.094L69.393 28.9042L72.2032 27.8541L71.1531 25.0439L68.3429 26.094ZM67.5003 26.4089L64.6901 27.459L65.7402 30.2692L68.5504 29.2191L67.5003 26.4089ZM67.1556 25.4864L67.9982 25.1715L65.8979 19.5511L65.0553 19.866L67.1556 25.4864ZM64.1379 23.4115L65.5327 27.1441L71.1531 25.0439L69.7583 21.3112L64.1379 23.4115ZM67.2928 23.2838L66.4502 23.5987L68.5504 29.2191L69.393 28.9042L67.2928 23.2838ZM70.3105 25.3587L68.9157 21.6261L63.2953 23.7263L64.6901 27.459L70.3105 25.3587Z" fill="#058FA2" mask="url(#path-2-inside-2_2_27784)"/>
<mask id="path-4-inside-3_2_27784" fill="white">
<path d="M69.741 29.8134L68.8984 30.1283L69.8824 32.7614L70.725 32.4465L69.741 29.8134Z"/>
</mask>
<path d="M68.8984 30.1283L67.8483 27.3181L65.0381 28.3682L66.0882 31.1784L68.8984 30.1283ZM69.741 29.8134L72.5512 28.7633L71.5011 25.9531L68.6909 27.0032L69.741 29.8134ZM70.725 32.4465L71.7751 35.2567L74.5853 34.2066L73.5352 31.3964L70.725 32.4465ZM69.8824 32.7614L67.0722 33.8115L68.1223 36.6217L70.9325 35.5716L69.8824 32.7614ZM69.9486 32.9385L70.7912 32.6236L68.6909 27.0032L67.8483 27.3181L69.9486 32.9385ZM66.9308 30.8636L67.9148 33.4966L73.5352 31.3964L72.5512 28.7633L66.9308 30.8636ZM69.6748 29.6363L68.8323 29.9512L70.9325 35.5716L71.7751 35.2567L69.6748 29.6363ZM72.6926 31.7112L71.7086 29.0782L66.0882 31.1784L67.0722 33.8115L72.6926 31.7112Z" fill="#058FA2" mask="url(#path-4-inside-3_2_27784)"/>
<mask id="path-6-inside-4_2_27784" fill="white">
<path d="M52.409 22.3576L51.5664 22.6723L52.9606 26.4052L53.8032 26.0905L52.409 22.3576Z"/>
</mask>
<path d="M51.5664 22.6723L50.5168 19.8619L47.7064 20.9116L48.756 23.7219L51.5664 22.6723ZM52.409 22.3576L55.2194 21.3079L54.1698 18.4976L51.3594 19.5472L52.409 22.3576ZM53.8032 26.0905L54.8529 28.9009L57.6633 27.8512L56.6136 25.0408L53.8032 26.0905ZM52.9606 26.4052L50.1502 27.4548L51.1999 30.2652L54.0102 29.2156L52.9606 26.4052ZM52.616 25.4827L53.4587 25.168L51.3594 19.5472L50.5168 19.8619L52.616 25.4827ZM49.5987 23.4072L50.9929 27.1401L56.6136 25.0408L55.2194 21.3079L49.5987 23.4072ZM52.7536 23.2801L51.911 23.5948L54.0102 29.2156L54.8529 28.9009L52.7536 23.2801ZM55.771 25.3556L54.3768 21.6227L48.756 23.7219L50.1502 27.4548L55.771 25.3556Z" fill="#058FA2" mask="url(#path-6-inside-4_2_27784)"/>
<mask id="path-8-inside-5_2_27784" fill="white">
<path d="M55.1981 29.8189L54.3555 30.1337L55.3394 32.7668L56.182 32.4519L55.1981 29.8189Z"/>
</mask>
<path d="M54.3555 30.1337L53.3053 27.3235L50.4951 28.3737L51.5453 31.1839L54.3555 30.1337ZM55.1981 29.8189L58.0083 28.7687L56.9581 25.9585L54.1479 27.0087L55.1981 29.8189ZM56.182 32.4519L57.2321 35.2621L60.0423 34.212L58.9922 31.4018L56.182 32.4519ZM55.3394 32.7668L52.5292 33.8169L53.5793 36.6271L56.3895 35.577L55.3394 32.7668ZM55.4056 32.9439L56.2482 32.6291L54.1479 27.0087L53.3053 27.3235L55.4056 32.9439ZM52.3879 30.869L53.3718 33.5021L58.9922 31.4018L58.0083 28.7687L52.3879 30.869ZM55.1319 29.6417L54.2893 29.9566L56.3895 35.577L57.2321 35.2621L55.1319 29.6417ZM58.1496 31.7167L57.1657 29.0836L51.5453 31.1839L52.5292 33.8169L58.1496 31.7167Z" fill="#058FA2" mask="url(#path-8-inside-5_2_27784)"/>
<mask id="path-10-inside-6_2_27784" fill="white">
<path d="M38.3152 22.3535L37.4727 22.6684L38.8675 26.4011L39.7101 26.0862L38.3152 22.3535Z"/>
</mask>
<path d="M37.4727 22.6684L36.4225 19.8582L33.6123 20.9083L34.6625 23.7185L37.4727 22.6684ZM38.3152 22.3535L41.1254 21.3034L40.0753 18.4932L37.2651 19.5433L38.3152 22.3535ZM39.7101 26.0862L40.7602 28.8964L43.5704 27.8463L42.5203 25.0361L39.7101 26.0862ZM38.8675 26.4011L36.0573 27.4512L37.1074 30.2614L39.9176 29.2113L38.8675 26.4011ZM38.5228 25.4786L39.3654 25.1637L37.2651 19.5433L36.4225 19.8582L38.5228 25.4786ZM35.505 23.4037L36.8999 27.1363L42.5203 25.0361L41.1254 21.3034L35.505 23.4037ZM38.66 23.276L37.8174 23.5909L39.9176 29.2113L40.7602 28.8964L38.66 23.276ZM41.6777 25.3509L40.2829 21.6183L34.6625 23.7185L36.0573 27.4512L41.6777 25.3509Z" fill="#058FA2" mask="url(#path-10-inside-6_2_27784)"/>
<mask id="path-12-inside-7_2_27784" fill="white">
<path d="M41.1004 29.8275L40.2578 30.1423L41.2418 32.7754L42.0843 32.4606L41.1004 29.8275Z"/>
</mask>
<path d="M40.2578 30.1423L39.2077 27.3321L36.3975 28.3823L37.4476 31.1925L40.2578 30.1423ZM41.1004 29.8275L43.9106 28.7773L42.8605 25.9671L40.0503 27.0173L41.1004 29.8275ZM42.0843 32.4606L43.1345 35.2708L45.9447 34.2206L44.8945 31.4104L42.0843 32.4606ZM41.2418 32.7754L38.4316 33.8255L39.4817 36.6357L42.2919 35.5856L41.2418 32.7754ZM41.3079 32.9525L42.1505 32.6377L40.0503 27.0173L39.2077 27.3321L41.3079 32.9525ZM38.2902 30.8776L39.2741 33.5107L44.8945 31.4104L43.9106 28.7773L38.2902 30.8776ZM41.0342 29.6504L40.1916 29.9652L42.2919 35.5856L43.1345 35.2708L41.0342 29.6504ZM44.052 31.7253L43.068 29.0922L37.4476 31.1925L38.4316 33.8255L44.052 31.7253Z" fill="#058FA2" mask="url(#path-12-inside-7_2_27784)"/>
<mask id="path-14-inside-8_2_27784" fill="white">
<path d="M23.7723 22.3566L22.9297 22.6715L24.3245 26.4042L25.1671 26.0893L23.7723 22.3566Z"/>
</mask>
<path d="M22.9297 22.6715L21.8796 19.8613L19.0694 20.9114L20.1195 23.7216L22.9297 22.6715ZM23.7723 22.3566L26.5825 21.3065L25.5323 18.4963L22.7221 19.5464L23.7723 22.3566ZM25.1671 26.0893L26.2172 28.8995L29.0274 27.8494L27.9773 25.0392L25.1671 26.0893ZM24.3245 26.4042L21.5143 27.4543L22.5645 30.2645L25.3747 29.2144L24.3245 26.4042ZM23.9798 25.4817L24.8224 25.1668L22.7221 19.5464L21.8796 19.8613L23.9798 25.4817ZM20.9621 23.4068L22.3569 27.1394L27.9773 25.0392L26.5825 21.3065L20.9621 23.4068ZM24.117 23.2791L23.2744 23.594L25.3747 29.2144L26.2172 28.8995L24.117 23.2791ZM27.1347 25.354L25.7399 21.6214L20.1195 23.7216L21.5143 27.4543L27.1347 25.354Z" fill="#058FA2" mask="url(#path-14-inside-8_2_27784)"/>
<mask id="path-16-inside-9_2_27784" fill="white">
<path d="M26.5574 29.8259L25.7148 30.1407L26.6988 32.7738L27.5414 32.459L26.5574 29.8259Z"/>
</mask>
<path d="M25.7148 30.1407L24.6647 27.3305L21.8545 28.3807L22.9046 31.1909L25.7148 30.1407ZM26.5574 29.8259L29.3676 28.7758L28.3175 25.9656L25.5073 27.0157L26.5574 29.8259ZM27.5414 32.459L28.5915 35.2692L31.4017 34.219L30.3516 31.4088L27.5414 32.459ZM26.6988 32.7738L23.8886 33.824L24.9387 36.6342L27.7489 35.584L26.6988 32.7738ZM26.765 32.9509L27.6076 32.6361L25.5073 27.0157L24.6647 27.3305L26.765 32.9509ZM23.7472 30.876L24.7312 33.5091L30.3516 31.4088L29.3676 28.7758L23.7472 30.876ZM26.4912 29.6488L25.6487 29.9636L27.7489 35.584L28.5915 35.2692L26.4912 29.6488ZM29.509 31.7237L28.525 29.0906L22.9046 31.1909L23.8886 33.824L29.509 31.7237Z" fill="#058FA2" mask="url(#path-16-inside-9_2_27784)"/>
<mask id="path-18-inside-10_2_27784" fill="white">
<path d="M9.23327 22.3568L8.39062 22.6715L9.78481 26.4044L10.6275 26.0897L9.23327 22.3568Z"/>
</mask>
<path d="M8.39062 22.6715L7.34098 19.8611L4.5306 20.9108L5.58024 23.7211L8.39062 22.6715ZM9.23327 22.3568L12.0436 21.3072L10.994 18.4968L8.18362 19.5464L9.23327 22.3568ZM10.6275 26.0897L11.6771 28.9001L14.4875 27.8504L13.4378 25.0401L10.6275 26.0897ZM9.78481 26.4044L6.97443 27.454L8.02407 30.2644L10.8345 29.2148L9.78481 26.4044ZM9.44027 25.4819L10.2829 25.1672L8.18362 19.5464L7.34098 19.8611L9.44027 25.4819ZM6.42288 23.4064L7.81707 27.1393L13.4378 25.0401L12.0436 21.3072L6.42288 23.4064ZM9.57781 23.2793L8.73517 23.594L10.8345 29.2148L11.6771 28.9001L9.57781 23.2793ZM12.5952 25.3548L11.201 21.6219L5.58024 23.7211L6.97443 27.454L12.5952 25.3548Z" fill="#058FA2" mask="url(#path-18-inside-10_2_27784)"/>
<mask id="path-20-inside-11_2_27784" fill="white">
<path d="M12.0184 29.8212L11.1758 30.1361L12.1597 32.7692L13.0023 32.4543L12.0184 29.8212Z"/>
</mask>
<path d="M11.1758 30.1361L10.1256 27.3259L7.31545 28.376L8.36558 31.1862L11.1758 30.1361ZM12.0184 29.8212L14.8286 28.7711L13.7784 25.9609L10.9682 27.011L12.0184 29.8212ZM13.0023 32.4543L14.0524 35.2645L16.8626 34.2144L15.8125 31.4042L13.0023 32.4543ZM12.1597 32.7692L9.34953 33.8193L10.3997 36.6295L13.2099 35.5794L12.1597 32.7692ZM12.2259 32.9463L13.0685 32.6314L10.9682 27.011L10.1256 27.3259L12.2259 32.9463ZM9.20817 30.8714L10.1921 33.5045L15.8125 31.4042L14.8286 28.7711L9.20817 30.8714ZM11.9522 29.6441L11.1096 29.959L13.2099 35.5794L14.0524 35.2645L11.9522 29.6441ZM14.9699 31.7191L13.986 29.086L8.36558 31.1862L9.34953 33.8193L14.9699 31.7191Z" fill="#058FA2" mask="url(#path-20-inside-11_2_27784)"/>
<mask id="path-22-inside-12_2_27784" fill="white">
<path d="M3.54599 29.8226L2.5625 32.4559L3.40514 32.7706L4.38863 30.1373L3.54599 29.8226Z"/>
</mask>
<path d="M2.5625 32.4559L-0.247883 31.4062L-1.29752 34.2166L1.51286 35.2663L2.5625 32.4559ZM3.54599 29.8226L4.59563 27.0122L1.78524 25.9626L0.735602 28.773L3.54599 29.8226ZM4.38863 30.1373L7.19901 31.187L8.24865 28.3766L5.43827 27.327L4.38863 30.1373ZM3.40514 32.7706L2.3555 35.581L5.16588 36.6306L6.21552 33.8202L3.40514 32.7706ZM5.37288 33.5055L6.35637 30.8723L0.735602 28.773L-0.247883 31.4062L5.37288 33.5055ZM2.49634 32.633L3.33899 32.9477L5.43827 27.327L4.59563 27.0122L2.49634 32.633ZM1.57824 29.0877L0.594758 31.7209L6.21552 33.8202L7.19901 31.187L1.57824 29.0877ZM4.45478 29.9602L3.61214 29.6455L1.51286 35.2663L2.3555 35.581L4.45478 29.9602Z" fill="#058FA2" mask="url(#path-22-inside-12_2_27784)"/>
<mask id="path-24-inside-13_2_27784" fill="white">
<path d="M6.33625 22.3588L4.94141 26.0915L5.78399 26.4064L7.17883 22.6737L6.33625 22.3588Z"/>
</mask>
<path d="M4.94141 26.0915L2.13121 25.0414L1.08107 27.8516L3.89127 28.9017L4.94141 26.0915ZM6.33625 22.3588L7.38638 19.5486L4.57618 18.4985L3.52605 21.3087L6.33625 22.3588ZM7.17883 22.6737L9.98903 23.7238L11.0392 20.9136L8.22896 19.8635L7.17883 22.6737ZM5.78399 26.4064L4.73386 29.2166L7.54406 30.2667L8.59419 27.4565L5.78399 26.4064ZM7.75161 27.1416L9.14645 23.409L3.52605 21.3087L2.13121 25.0414L7.75161 27.1416ZM5.28612 25.169L6.1287 25.4839L8.22896 19.8635L7.38638 19.5486L5.28612 25.169ZM4.36863 21.6236L2.97379 25.3562L8.59419 27.4565L9.98903 23.7238L4.36863 21.6236ZM6.83412 23.5962L5.99154 23.2813L3.89127 28.9017L4.73386 29.2166L6.83412 23.5962Z" fill="#058FA2" mask="url(#path-24-inside-13_2_27784)"/>
<mask id="path-26-inside-14_2_27784" fill="white">
<path d="M61.5616 29.8242L60.5781 32.4575L61.4208 32.7722L62.4043 30.1389L61.5616 29.8242Z"/>
</mask>
<path d="M60.5781 32.4575L57.7677 31.4078L56.7181 34.2182L59.5285 35.2678L60.5781 32.4575ZM61.5616 29.8242L62.6113 27.0138L59.8009 25.9642L58.7512 28.7746L61.5616 29.8242ZM62.4043 30.1389L65.2146 31.1886L66.2643 28.3782L63.4539 27.3285L62.4043 30.1389ZM61.4208 32.7722L60.3711 35.5826L63.1815 36.6322L64.2311 33.8218L61.4208 32.7722ZM63.3885 33.5071L64.372 30.8738L58.7512 28.7746L57.7677 31.4078L63.3885 33.5071ZM60.512 32.6346L61.3546 32.9493L63.4539 27.3285L62.6113 27.0138L60.512 32.6346ZM59.5939 29.0893L58.6104 31.7225L64.2311 33.8218L65.2146 31.1886L59.5939 29.0893ZM62.4704 29.9618L61.6278 29.6471L59.5285 35.2678L60.3711 35.5826L62.4704 29.9618Z" fill="#058FA2" mask="url(#path-26-inside-14_2_27784)"/>
<mask id="path-28-inside-15_2_27784" fill="white">
<path d="M64.3519 22.3596L62.957 26.0923L63.7996 26.4071L65.1945 22.6745L64.3519 22.3596Z"/>
</mask>
<path d="M62.957 26.0923L60.1468 25.0422L59.0967 27.8524L61.9069 28.9025L62.957 26.0923ZM64.3519 22.3596L65.402 19.5494L62.5918 18.4993L61.5417 21.3095L64.3519 22.3596ZM65.1945 22.6745L68.0047 23.7246L69.0548 20.9144L66.2446 19.8643L65.1945 22.6745ZM63.7996 26.4071L62.7495 29.2173L65.5597 30.2675L66.6098 27.4573L63.7996 26.4071ZM65.7672 27.1424L67.1621 23.4098L61.5417 21.3095L60.1468 25.0422L65.7672 27.1424ZM63.3017 25.1698L64.1443 25.4847L66.2446 19.8643L65.402 19.5494L63.3017 25.1698ZM62.3843 21.6244L60.9894 25.357L66.6098 27.4573L68.0047 23.7246L62.3843 21.6244ZM64.8497 23.5969L64.0072 23.2821L61.9069 28.9025L62.7495 29.2173L64.8497 23.5969Z" fill="#058FA2" mask="url(#path-28-inside-15_2_27784)"/>
<mask id="path-30-inside-16_2_27784" fill="white">
<path d="M47.4722 29.8259L46.4883 32.459L47.3309 32.7738L48.3148 30.1408L47.4722 29.8259Z"/>
</mask>
<path d="M46.4883 32.459L43.6781 31.4089L42.6279 34.2191L45.4381 35.2692L46.4883 32.459ZM47.4722 29.8259L48.5224 27.0157L45.7122 25.9656L44.662 28.7758L47.4722 29.8259ZM48.3148 30.1408L51.125 31.1909L52.1751 28.3807L49.3649 27.3306L48.3148 30.1408ZM47.3309 32.7738L46.2807 35.584L49.0909 36.6342L50.1411 33.824L47.3309 32.7738ZM49.2985 33.5091L50.2824 30.876L44.662 28.7758L43.6781 31.4089L49.2985 33.5091ZM46.4221 32.6361L47.2647 32.951L49.3649 27.3306L48.5224 27.0157L46.4221 32.6361ZM45.5046 29.0906L44.5207 31.7237L50.1411 33.824L51.125 31.1909L45.5046 29.0906ZM48.381 29.9636L47.5384 29.6488L45.4381 35.2692L46.2807 35.584L48.381 29.9636Z" fill="#058FA2" mask="url(#path-30-inside-16_2_27784)"/>
<mask id="path-32-inside-17_2_27784" fill="white">
<path d="M50.262 22.3635L48.8672 26.0962L49.7098 26.4111L51.1046 22.6784L50.262 22.3635Z"/>
</mask>
<path d="M48.8672 26.0962L46.057 25.0461L45.0069 27.8563L47.8171 28.9064L48.8672 26.0962ZM50.262 22.3635L51.3122 19.5533L48.502 18.5032L47.4518 21.3134L50.262 22.3635ZM51.1046 22.6784L53.9148 23.7285L54.9649 20.9183L52.1547 19.8682L51.1046 22.6784ZM49.7098 26.4111L48.6596 29.2213L51.4698 30.2714L52.52 27.4612L49.7098 26.4111ZM51.6774 27.1463L53.0722 23.4137L47.4518 21.3134L46.057 25.0461L51.6774 27.1463ZM49.2119 25.1737L50.0545 25.4886L52.1547 19.8682L51.3122 19.5533L49.2119 25.1737ZM48.2944 21.6283L46.8996 25.3609L52.52 27.4612L53.9148 23.7285L48.2944 21.6283ZM50.7599 23.6009L49.9173 23.286L47.8171 28.9064L48.6596 29.2213L50.7599 23.6009Z" fill="#058FA2" mask="url(#path-32-inside-17_2_27784)"/>
<mask id="path-34-inside-18_2_27784" fill="white">
<path d="M32.9293 29.8275L31.9453 32.4606L32.7879 32.7754L33.7718 30.1424L32.9293 29.8275Z"/>
</mask>
<path d="M31.9453 32.4606L29.1351 31.4104L28.085 34.2206L30.8952 35.2708L31.9453 32.4606ZM32.9293 29.8275L33.9794 27.0173L31.1692 25.9672L30.1191 28.7774L32.9293 29.8275ZM33.7718 30.1424L36.582 31.1925L37.6322 28.3823L34.822 27.3322L33.7718 30.1424ZM32.7879 32.7754L31.7378 35.5856L34.548 36.6358L35.5981 33.8256L32.7879 32.7754ZM34.7555 33.5107L35.7395 30.8776L30.1191 28.7774L29.1351 31.4104L34.7555 33.5107ZM31.8791 32.6377L32.7217 32.9526L34.822 27.3322L33.9794 27.0173L31.8791 32.6377ZM30.9616 29.0922L29.9777 31.7253L35.5981 33.8256L36.582 31.1925L30.9616 29.0922ZM33.838 29.9652L32.9954 29.6504L30.8952 35.2708L31.7378 35.5856L33.838 29.9652Z" fill="#058FA2" mask="url(#path-34-inside-18_2_27784)"/>
<mask id="path-36-inside-19_2_27784" fill="white">
<path d="M35.7191 22.3627L34.3242 26.0954L35.1668 26.4103L36.5616 22.6776L35.7191 22.3627Z"/>
</mask>
<path d="M34.3242 26.0954L31.514 25.0453L30.4639 27.8555L33.2741 28.9056L34.3242 26.0954ZM35.7191 22.3627L36.7692 19.5525L33.959 18.5024L32.9089 21.3126L35.7191 22.3627ZM36.5616 22.6776L39.3718 23.7277L40.422 20.9175L37.6118 19.8674L36.5616 22.6776ZM35.1668 26.4103L34.1167 29.2205L36.9269 30.2706L37.977 27.4604L35.1668 26.4103ZM37.1344 27.1455L38.5293 23.4129L32.9089 21.3126L31.514 25.0453L37.1344 27.1455ZM34.6689 25.1729L35.5115 25.4878L37.6118 19.8674L36.7692 19.5525L34.6689 25.1729ZM33.7514 21.6275L32.3566 25.3601L37.977 27.4604L39.3718 23.7277L33.7514 21.6275ZM36.2169 23.6001L35.3744 23.2852L33.2741 28.9056L34.1167 29.2205L36.2169 23.6001Z" fill="#058FA2" mask="url(#path-36-inside-19_2_27784)"/>
<mask id="path-38-inside-20_2_27784" fill="white">
<path d="M18.3941 29.8275L17.4102 32.4606L18.2527 32.7754L19.2367 30.1424L18.3941 29.8275Z"/>
</mask>
<path d="M17.4102 32.4606L14.6 31.4104L13.5498 34.2206L16.36 35.2708L17.4102 32.4606ZM18.3941 29.8275L19.4442 27.0173L16.634 25.9672L15.5839 28.7774L18.3941 29.8275ZM19.2367 30.1424L22.0469 31.1925L23.097 28.3823L20.2868 27.3322L19.2367 30.1424ZM18.2527 32.7754L17.2026 35.5856L20.0128 36.6358L21.0629 33.8256L18.2527 32.7754ZM20.2204 33.5107L21.2043 30.8776L15.5839 28.7774L14.6 31.4104L20.2204 33.5107ZM17.344 32.6377L18.1866 32.9526L20.2868 27.3322L19.4442 27.0173L17.344 32.6377ZM16.4265 29.0922L15.4425 31.7253L21.0629 33.8256L22.0469 31.1925L16.4265 29.0922ZM19.3029 29.9652L18.4603 29.6504L16.36 35.2708L17.2026 35.5856L19.3029 29.9652Z" fill="#058FA2" mask="url(#path-38-inside-20_2_27784)"/>
<mask id="path-40-inside-21_2_27784" fill="white">
<path d="M21.1722 22.3533L19.7773 26.086L20.6199 26.4009L22.0148 22.6682L21.1722 22.3533Z"/>
</mask>
<path d="M19.7773 26.086L16.9671 25.0359L15.917 27.8461L18.7272 28.8962L19.7773 26.086ZM21.1722 22.3533L22.2223 19.5431L19.4121 18.493L18.362 21.3032L21.1722 22.3533ZM22.0148 22.6682L24.825 23.7183L25.8751 20.9081L23.0649 19.858L22.0148 22.6682ZM20.6199 26.4009L19.5698 29.2111L22.38 30.2612L23.4301 27.451L20.6199 26.4009ZM22.5875 27.1361L23.9824 23.4035L18.362 21.3032L16.9671 25.0359L22.5875 27.1361ZM20.1221 25.1635L20.9646 25.4784L23.0649 19.858L22.2223 19.5431L20.1221 25.1635ZM19.2046 21.6181L17.8097 25.3507L23.4301 27.451L24.825 23.7183L19.2046 21.6181ZM21.6701 23.5907L20.8275 23.2758L18.7272 28.8962L19.5698 29.2111L21.6701 23.5907Z" fill="#058FA2" mask="url(#path-40-inside-21_2_27784)"/>
<mask id="path-42-inside-22_2_27784" fill="white">
<path d="M69.6834 9.97264H54.7135L51.3225 4H22.6263L19.2352 9.97489H4.26541C3.65149 9.97608 3.06304 10.2205 2.62893 10.6546C2.19482 11.0887 1.95041 11.6772 1.94922 12.2911V16.7886H6.19033L6.99088 18.9361L7.78019 18.6415L8.5695 18.9361L9.37229 16.7886H20.7307L21.5335 18.9361L22.3767 18.6213L21.7021 16.7886H23.265L22.5904 18.6213L23.4336 18.9361L24.2364 16.7886H35.2957L36.0985 18.9361L36.9418 18.6213L36.2672 16.7886H37.7986L37.1104 18.6168L37.9537 18.9316L38.7565 16.7841H49.3661L50.1666 18.9316L51.0099 18.6168L50.3353 16.7841H52.3456L51.671 18.6168L52.512 18.9316L53.3148 16.7841H63.9064L64.7092 18.9316L65.5525 18.6168L64.8666 16.7841H66.4295L65.7436 18.6168L66.5869 18.9316L67.3897 16.7841H71.9996V12.2866C71.9978 11.6731 71.7531 11.0852 71.3191 10.6516C70.885 10.2179 70.2969 9.97383 69.6834 9.97264ZM23.1503 4.89949H50.8097L53.6724 9.94566H20.2877L23.1503 4.89949ZM4.26092 10.8744H69.6834C69.9812 10.8738 70.2717 10.9669 70.5138 11.1404C70.7559 11.3139 70.9374 11.5591 71.0326 11.8413H2.92067C3.01525 11.5594 3.19587 11.3143 3.43711 11.1404C3.67835 10.9665 3.96805 10.8727 4.26541 10.8721L4.26092 10.8744ZM7.77569 18.4841L7.14605 16.7953H8.40759L7.77569 18.4841ZM71.0956 15.8958H2.84871V12.7476H71.1001L71.0956 15.8958Z"/>
</mask>
<path d="M69.6834 9.97264L69.6892 6.97264H69.6834V9.97264ZM54.7135 9.97264L52.1047 11.4539L52.967 12.9726H54.7135V9.97264ZM51.3225 4L53.9313 2.51878L53.069 1H51.3225V4ZM22.6263 4V1H20.8795L20.0173 2.5192L22.6263 4ZM19.2352 9.97489V12.9749H20.9821L21.8443 11.4557L19.2352 9.97489ZM4.26541 9.97489V6.97489L4.25961 6.9749L4.26541 9.97489ZM1.94922 12.2911L-1.05078 12.2853V12.2911H1.94922ZM1.94922 16.7886H-1.05078V19.7886H1.94922V16.7886ZM6.19033 16.7886L9.00137 15.7407L8.27367 13.7886H6.19033V16.7886ZM6.99088 18.9361L4.17984 19.984L5.22814 22.7961L8.03986 21.7467L6.99088 18.9361ZM7.78019 18.6415L8.82916 15.8309L7.78019 15.4394L6.73121 15.8309L7.78019 18.6415ZM8.5695 18.9361L7.52052 21.7467L10.3297 22.7952L11.3796 19.9866L8.5695 18.9361ZM9.37229 16.7886V13.7886H7.29099L6.56222 15.7381L9.37229 16.7886ZM20.7307 16.7886L23.5407 15.7381L22.812 13.7886H20.7307V16.7886ZM21.5335 18.9361L18.7234 19.9866L19.7734 22.7954L22.5827 21.7466L21.5335 18.9361ZM22.3767 18.6213L23.426 21.4318L26.2236 20.3874L25.1921 17.585L22.3767 18.6213ZM21.7021 16.7886V13.7886H17.401L18.8868 17.8249L21.7021 16.7886ZM23.265 16.7886L26.0803 17.8249L27.5661 13.7886H23.265V16.7886ZM22.5904 18.6213L19.775 17.585L18.7435 20.3874L21.5411 21.4318L22.5904 18.6213ZM23.4336 18.9361L22.3844 21.7466L25.1937 22.7954L26.2437 19.9866L23.4336 18.9361ZM24.2364 16.7886V13.7886H22.1551L21.4264 15.7381L24.2364 16.7886ZM35.2957 16.7886L38.1058 15.7381L37.377 13.7886H35.2957V16.7886ZM36.0985 18.9361L33.2884 19.9866L34.3385 22.7954L37.1478 21.7466L36.0985 18.9361ZM36.9418 18.6213L37.991 21.4318L40.7887 20.3874L39.7571 17.585L36.9418 18.6213ZM36.2672 16.7886V13.7886H31.9661L33.4518 17.8249L36.2672 16.7886ZM37.7986 16.7886L40.6063 17.8453L42.1332 13.7886H37.7986V16.7886ZM37.1104 18.6168L34.3027 17.56L33.2431 20.3752L36.0612 21.4273L37.1104 18.6168ZM37.9537 18.9316L36.9045 21.7421L39.7138 22.7909L40.7638 19.9821L37.9537 18.9316ZM38.7565 16.7841V13.7841H36.6752L35.9464 15.7336L38.7565 16.7841ZM49.3661 16.7841L52.1771 15.7362L51.4494 13.7841H49.3661V16.7841ZM50.1666 18.9316L47.3556 19.9795L48.404 22.7919L51.2159 21.7421L50.1666 18.9316ZM51.0099 18.6168L52.0591 21.4273L54.8568 20.3829L53.8252 17.5805L51.0099 18.6168ZM50.3353 16.7841V13.7841H46.0342L47.5199 17.8204L50.3353 16.7841ZM52.3456 16.7841L55.1609 17.8204L56.6467 13.7841H52.3456V16.7841ZM51.671 18.6168L48.8557 17.5805L47.825 20.3804L50.6193 21.4264L51.671 18.6168ZM52.512 18.9316L51.4603 21.7412L54.2712 22.7934L55.3221 19.9821L52.512 18.9316ZM53.3148 16.7841V13.7841H51.2335L50.5048 15.7336L53.3148 16.7841ZM63.9064 16.7841L66.7165 15.7336L65.9877 13.7841H63.9064V16.7841ZM64.7092 18.9316L61.8991 19.9821L62.9491 22.7909L65.7584 21.7421L64.7092 18.9316ZM65.5525 18.6168L66.6017 21.4273L69.4145 20.3772L68.3621 17.5653L65.5525 18.6168ZM64.8666 16.7841V13.7841H60.5407L62.0569 17.8356L64.8666 16.7841ZM66.4295 16.7841L69.2392 17.8355L70.7553 13.7841H66.4295V16.7841ZM65.7436 18.6168L62.9339 17.5653L61.8816 20.3772L64.6943 21.4273L65.7436 18.6168ZM66.5869 18.9316L65.5376 21.7421L68.3469 22.7909L69.3969 19.9821L66.5869 18.9316ZM67.3897 16.7841V13.7841H65.3084L64.5796 15.7336L67.3897 16.7841ZM71.9996 16.7841V19.7841H74.9996V16.7841H71.9996ZM71.9996 12.2866H74.9996L74.9996 12.2779L71.9996 12.2866ZM23.1503 4.89949V1.89949H21.4031L20.5409 3.41922L23.1503 4.89949ZM50.8097 4.89949L53.4191 3.41922L52.557 1.89949H50.8097V4.89949ZM53.6724 9.94566V12.9457H58.8234L56.2817 8.46539L53.6724 9.94566ZM20.2877 9.94566L17.6783 8.46539L15.1367 12.9457H20.2877V9.94566ZM4.26092 10.8744L2.91805 8.19172L4.26092 13.8744V10.8744ZM69.6834 10.8744V13.8744L69.6888 13.8744L69.6834 10.8744ZM71.0326 11.8413V14.8413H75.2106L73.8753 10.8825L71.0326 11.8413ZM2.92067 11.8413L0.0764366 10.8872L-1.24998 14.8413H2.92067V11.8413ZM4.26541 10.8721L5.60828 13.5548L4.25979 7.87214L4.26541 10.8721ZM7.77569 18.4841L4.96471 19.5321L7.77069 27.0582L10.5854 19.5354L7.77569 18.4841ZM7.14605 16.7953V13.7953H2.82581L4.33506 17.8433L7.14605 16.7953ZM8.40759 16.7953L11.2173 17.8466L12.7332 13.7953H8.40759V16.7953ZM71.0956 15.8958V18.8958H74.0913L74.0956 15.9001L71.0956 15.8958ZM2.84871 15.8958H-0.151287V18.8958H2.84871V15.8958ZM2.84871 12.7476V9.74758H-0.151287V12.7476H2.84871ZM71.1001 12.7476L74.1001 12.7519L74.1044 9.74758H71.1001V12.7476ZM69.6834 6.97264H54.7135V12.9726H69.6834V6.97264ZM57.3224 8.49142L53.9313 2.51878L48.7136 5.48122L52.1047 11.4539L57.3224 8.49142ZM51.3225 1H22.6263V7H51.3225V1ZM20.0173 2.5192L16.6262 8.49409L21.8443 11.4557L25.2354 5.4808L20.0173 2.5192ZM19.2352 6.97489H4.26541V12.9749H19.2352V6.97489ZM4.25961 6.9749C2.85205 6.97762 1.50291 7.53798 0.507609 8.53328L4.75025 12.7759C4.62317 12.903 4.45092 12.9745 4.27122 12.9749L4.25961 6.9749ZM0.507609 8.53328C-0.487691 9.52858 -1.04805 10.8777 -1.05078 12.2853L4.94921 12.2969C4.94887 12.4766 4.87732 12.6488 4.75025 12.7759L0.507609 8.53328ZM-1.05078 12.2911V16.7886H4.94922V12.2911H-1.05078ZM1.94922 19.7886H6.19033V13.7886H1.94922V19.7886ZM3.37929 17.8364L4.17984 19.984L9.80192 17.8882L9.00137 15.7407L3.37929 17.8364ZM8.03986 21.7467L8.82917 21.4521L6.73121 15.8309L5.9419 16.1255L8.03986 21.7467ZM6.73121 21.4521L7.52052 21.7467L9.61847 16.1255L8.82916 15.8309L6.73121 21.4521ZM11.3796 19.9866L12.1824 17.839L6.56222 15.7381L5.75942 17.8856L11.3796 19.9866ZM9.37229 19.7886H20.7307V13.7886H9.37229V19.7886ZM17.9206 17.839L18.7234 19.9866L24.3435 17.8856L23.5407 15.7381L17.9206 17.839ZM22.5827 21.7466L23.426 21.4318L21.3275 15.8108L20.4842 16.1256L22.5827 21.7466ZM25.1921 17.585L24.5174 15.7522L18.8868 17.8249L19.5614 19.6576L25.1921 17.585ZM21.7021 19.7886H23.265V13.7886H21.7021V19.7886ZM20.4497 15.7522L19.775 17.585L25.4057 19.6576L26.0803 17.8249L20.4497 15.7522ZM21.5411 21.4318L22.3844 21.7466L24.4829 16.1256L23.6396 15.8108L21.5411 21.4318ZM26.2437 19.9866L27.0465 17.839L21.4264 15.7381L20.6236 17.8856L26.2437 19.9866ZM24.2364 19.7886H35.2957V13.7886H24.2364V19.7886ZM32.4856 17.839L33.2884 19.9866L38.9086 17.8856L38.1058 15.7381L32.4856 17.839ZM37.1478 21.7466L37.991 21.4318L35.8925 15.8108L35.0493 16.1256L37.1478 21.7466ZM39.7571 17.585L39.0825 15.7522L33.4518 17.8249L34.1265 19.6576L39.7571 17.585ZM36.2672 19.7886H37.7986V13.7886H36.2672V19.7886ZM34.9908 15.7318L34.3027 17.56L39.9182 19.6736L40.6063 17.8453L34.9908 15.7318ZM36.0612 21.4273L36.9045 21.7421L39.003 16.1211L38.1597 15.8063L36.0612 21.4273ZM40.7638 19.9821L41.5666 17.8345L35.9464 15.7336L35.1436 17.8811L40.7638 19.9821ZM38.7565 19.7841H49.3661V13.7841H38.7565V19.7841ZM46.555 17.8319L47.3556 19.9795L52.9776 17.8837L52.1771 15.7362L46.555 17.8319ZM51.2159 21.7421L52.0591 21.4273L49.9606 15.8063L49.1173 16.1211L51.2159 21.7421ZM53.8252 17.5805L53.1506 15.7477L47.5199 17.8204L48.1946 19.6531L53.8252 17.5805ZM50.3353 19.7841H52.3456V13.7841H50.3353V19.7841ZM49.5303 15.7477L48.8557 17.5805L54.4863 19.6531L55.1609 17.8204L49.5303 15.7477ZM50.6193 21.4264L51.4603 21.7412L53.5638 16.122L52.7227 15.8072L50.6193 21.4264ZM55.3221 19.9821L56.1249 17.8345L50.5048 15.7336L49.702 17.8811L55.3221 19.9821ZM53.3148 19.7841H63.9064V13.7841H53.3148V19.7841ZM61.0963 17.8345L61.8991 19.9821L67.5192 17.8811L66.7165 15.7336L61.0963 17.8345ZM65.7584 21.7421L66.6017 21.4273L64.5032 15.8063L63.6599 16.1211L65.7584 21.7421ZM68.3621 17.5653L67.6763 15.7326L62.0569 17.8356L62.7428 19.6683L68.3621 17.5653ZM64.8666 19.7841H66.4295V13.7841H64.8666V19.7841ZM63.6198 15.7326L62.9339 17.5653L68.5533 19.6683L69.2392 17.8355L63.6198 15.7326ZM64.6943 21.4273L65.5376 21.7421L67.6361 16.1211L66.7928 15.8063L64.6943 21.4273ZM69.3969 19.9821L70.1997 17.8345L64.5796 15.7336L63.7768 17.8811L69.3969 19.9821ZM67.3897 19.7841H71.9996V13.7841H67.3897V19.7841ZM74.9996 16.7841V12.2866H68.9996V16.7841H74.9996ZM74.9996 12.2779C74.9955 10.8712 74.4345 9.52338 73.4394 8.52921L69.1988 12.7739C69.0717 12.647 69.0001 12.4749 68.9996 12.2953L74.9996 12.2779ZM73.4394 8.52921C72.4442 7.53503 71.0959 6.97537 69.6892 6.97265L69.6776 12.9726C69.498 12.9723 69.3258 12.9008 69.1988 12.7739L73.4394 8.52921ZM23.1503 7.89949H50.8097V1.89949H23.1503V7.89949ZM48.2004 6.37976L51.063 11.4259L56.2817 8.46539L53.4191 3.41922L48.2004 6.37976ZM53.6724 6.94566H20.2877V12.9457H53.6724V6.94566ZM22.897 11.4259L25.7597 6.37976L20.5409 3.41922L17.6783 8.46539L22.897 11.4259ZM4.26092 13.8744H69.6834V7.87439H4.26092V13.8744ZM69.6888 13.8744C69.3579 13.875 69.0352 13.7716 68.7663 13.5789L72.2614 8.70196C71.5082 8.1622 70.6045 7.8727 69.6779 7.87439L69.6888 13.8744ZM68.7663 13.5789C68.4974 13.3861 68.2958 13.1138 68.19 12.8002L73.8753 10.8825C73.5791 10.0044 73.0145 9.24169 72.2614 8.70196L68.7663 13.5789ZM71.0326 8.84134H2.92067V14.8413H71.0326V8.84134ZM5.76491 12.7954C5.65985 13.1086 5.45919 13.381 5.1912 13.5741L1.68302 8.70663C0.932547 9.24752 0.370645 10.0102 0.0764366 10.8872L5.76491 12.7954ZM5.1912 13.5741C4.92322 13.7673 4.60139 13.8715 4.27104 13.8721L4.25979 7.87214C3.3347 7.87388 2.43348 8.16574 1.68302 8.70663L5.1912 13.5741ZM2.92255 8.18947L2.91805 8.19172L5.60379 13.5571L5.60828 13.5548L2.92255 8.18947ZM10.5867 17.4361L9.95703 15.7473L4.33506 17.8433L4.96471 19.5321L10.5867 17.4361ZM7.14605 19.7953H8.40759V13.7953H7.14605V19.7953ZM5.59783 15.744L4.96594 17.4328L10.5854 19.5354L11.2173 17.8466L5.59783 15.744ZM71.0956 12.8958H2.84871V18.8958H71.0956V12.8958ZM5.84871 15.8958V12.7476H-0.151287V15.8958H5.84871ZM2.84871 15.7476H71.1001V9.74758H2.84871V15.7476ZM68.1001 12.7433L68.0956 15.8915L74.0956 15.9001L74.1001 12.7519L68.1001 12.7433Z" fill="#058FA2" mask="url(#path-42-inside-22_2_27784)"/>
</svg>
