<svg width="82" height="74" viewBox="0 0 82 74" fill="none" xmlns="http://www.w3.org/2000/svg">
<path d="M68.84 56.1269C69.034 56.1418 69.228 56.1493 69.422 56.1493C70.566 56.1483 71.6981 55.9171 72.7509 55.4695C73.8037 55.0219 74.7556 54.367 75.55 53.5438C76.3444 52.7206 76.965 51.746 77.3749 50.678C77.7848 49.6099 77.9756 48.4703 77.9358 47.327L77.9234 46.9042L77.5006 46.852C75.7588 46.6328 73.9918 46.9572 72.4415 47.7809C70.8912 48.6046 69.6333 49.8873 68.84 51.4534V48.4687L68.8972 48.1354C69.0617 47.1818 69.0174 46.2039 68.7672 45.2691C68.517 44.3343 68.067 43.465 67.4482 42.7211C66.8293 41.9771 66.0564 41.3764 65.1828 40.9602C64.3092 40.544 63.3557 40.3224 62.3881 40.3105H61.9653L61.8932 40.7284C61.7362 41.6359 61.7684 42.566 61.9878 43.4605C62.2072 44.3549 62.609 45.1944 63.1681 45.9262C63.7271 46.6581 64.4314 47.2666 65.2366 47.7135C66.0419 48.1604 66.9308 48.4362 67.8476 48.5234V62.1385C66.787 59.5722 64.8587 57.4599 62.3992 56.1706C59.9398 54.8814 57.1056 54.497 54.3916 55.0847L53.9763 55.1743L53.9987 55.5971C54.0858 57.2695 54.5264 58.9044 55.2912 60.3942C56.0561 61.884 57.128 63.1948 58.4362 64.2403C59.7444 65.2858 61.2593 66.0422 62.8811 66.4598C64.5028 66.8774 66.1947 66.9466 67.8451 66.6628V71.1399H42.6593V56.1269C42.8533 56.1418 43.0474 56.1493 43.2414 56.1493C44.3853 56.1483 45.5174 55.9171 46.5702 55.4695C47.623 55.0219 48.5749 54.367 49.3693 53.5438C50.1637 52.7206 50.7843 51.746 51.1942 50.678C51.6041 49.6099 51.7949 48.4703 51.7552 47.327L51.7403 46.9042L51.3199 46.852C49.5781 46.6328 47.8111 46.9572 46.2608 47.7809C44.7105 48.6046 43.4526 49.8873 42.6593 51.4534V48.4687L42.7166 48.1354C42.8811 47.1816 42.8367 46.2035 42.5864 45.2685C42.3361 44.3336 41.8858 43.4641 41.2667 42.7201C40.6476 41.9762 39.8744 41.3754 39.0005 40.9594C38.1266 40.5434 37.1728 40.322 36.205 40.3105H35.7821L35.71 40.7284C35.5531 41.6359 35.5853 42.566 35.8047 43.4605C36.0241 44.3549 36.4259 45.1944 36.9849 45.9262C37.544 46.6581 38.2482 47.2666 39.0535 47.7135C39.8587 48.1604 40.7476 48.4362 41.6644 48.5234V62.1385C40.6034 59.572 38.6746 57.4596 36.2147 56.1704C33.7549 54.8811 30.9203 54.4969 28.206 55.0847L27.7931 55.1743L27.8155 55.5971C27.9026 57.2697 28.3432 58.9049 29.1083 60.3949C29.8733 61.8849 30.9454 63.1958 32.2539 64.2414C33.5624 65.2869 35.0776 66.0433 36.6996 66.4607C38.3217 66.878 40.0138 66.9469 41.6644 66.6628V71.1399H16.0459V56.1269C16.2399 56.1418 16.4339 56.1493 16.6279 56.1493C17.7719 56.1483 18.904 55.9171 19.9568 55.4695C21.0095 55.0219 21.9615 54.367 22.7559 53.5438C23.5503 52.7206 24.1709 51.746 24.5808 50.678C24.9907 49.6099 25.1814 48.4703 25.1417 47.327L25.1268 46.9042L24.7065 46.852C22.9647 46.6328 21.1977 46.9572 19.6474 47.7809C18.0971 48.6046 16.8392 49.8873 16.0459 51.4534V48.4687L16.1031 48.1354C16.2677 47.1816 16.2233 46.2035 15.9729 45.2685C15.7226 44.3336 15.2724 43.4641 14.6533 42.7201C14.0342 41.9762 13.2609 41.3754 12.387 40.9594C11.5131 40.5434 10.5593 40.322 9.59152 40.3105H9.16869L9.09656 40.7284C8.93961 41.6359 8.97184 42.566 9.19124 43.4605C9.41063 44.3549 9.81245 45.1944 10.3715 45.9262C10.9306 46.6581 11.6348 47.2666 12.44 47.7135C13.2453 48.1604 14.1342 48.4362 15.051 48.5234V62.1385C13.99 59.572 12.0611 57.4596 9.60129 56.1704C7.14143 54.8811 4.30688 54.4969 1.59257 55.0847L1.17969 55.1743L1.20207 55.5971C1.2892 57.2697 1.7298 58.9049 2.49482 60.3949C3.25984 61.8849 4.33193 63.1958 5.64043 64.2414C6.94893 65.2869 8.46414 66.0433 10.0862 66.4607C11.7083 66.878 13.4004 66.9469 15.051 66.6628V71.1399H3.85844V72.1348H79.5302V71.1399H68.835L68.8375 63.6334L68.84 56.1269ZM71.2601 49.8441C72.014 49.1279 72.9084 48.5761 73.8868 48.2237C74.8651 47.8713 75.906 47.7261 76.9434 47.7971C76.9202 48.8136 76.6913 49.8148 76.2706 50.7404C75.8499 51.6659 75.2461 52.4967 74.4956 53.1826C73.7451 53.8685 72.8635 54.3952 71.9039 54.7311C70.9443 55.067 69.9266 55.2051 68.9121 55.137C68.9356 54.1436 69.1551 53.1646 69.5581 52.2563C69.961 51.348 70.5394 50.5282 71.2601 49.8441ZM59.09 63.4792C57.94 62.5665 56.9867 61.4305 56.2873 60.1396C55.588 58.8486 55.1572 57.4295 55.0209 55.9677C56.4986 55.7111 58.0135 55.763 59.4701 56.1201C60.9268 56.4773 62.2939 57.132 63.4853 58.043C64.6767 58.9541 65.6667 60.1019 66.393 61.4141C67.1194 62.7263 67.5663 64.1746 67.7058 65.6679C66.1966 65.9322 64.6485 65.8737 63.1635 65.4965C61.6784 65.1192 60.2902 64.4317 59.09 63.4792ZM64.0396 45.4243C63.1151 44.2695 62.6754 42.8007 62.8134 41.3278C64.3133 41.4612 65.6991 42.1839 66.667 43.3373C67.6349 44.4908 68.106 45.981 67.9769 47.4813L67.9396 47.5285C67.1816 47.4577 66.4455 47.2348 65.7755 46.8733C65.1054 46.5118 64.5151 46.019 64.0396 45.4243ZM45.0794 49.8441C45.8332 49.1278 46.7277 48.5759 47.706 48.2235C48.6844 47.8711 49.7253 47.7259 50.7628 47.7971C50.7395 48.8129 50.5108 49.8134 50.0906 50.7385C49.6704 51.6635 49.0672 52.494 48.3175 53.1797C47.5679 53.8655 46.6871 54.3925 45.7284 54.7288C44.7697 55.0652 43.7528 55.204 42.7389 55.137C42.7609 54.144 42.979 53.1652 43.3807 52.2569C43.7824 51.3485 44.3597 50.5285 45.0794 49.8441ZM32.9069 63.4792C31.7577 62.566 30.805 61.4298 30.1061 60.1389C29.4073 58.8481 28.9767 57.4292 28.8403 55.9677C30.3179 55.7114 31.8326 55.7636 33.2892 56.1209C34.7457 56.4782 36.1126 57.133 37.3039 58.044C38.4952 58.955 39.4852 60.1026 40.2116 61.4146C40.9381 62.7266 41.3853 64.1747 41.5252 65.6679C40.0155 65.9321 38.4671 65.8736 36.9817 65.4963C35.4963 65.1191 34.1076 64.4316 32.9069 63.4792ZM37.859 45.4243C36.9335 44.27 36.4937 42.8008 36.6328 41.3278C38.1326 41.4612 39.5184 42.1839 40.4863 43.3373C41.4542 44.4908 41.9253 45.981 41.7963 47.4813C41.7825 47.4959 41.77 47.5117 41.759 47.5285C41.0008 47.458 40.2647 47.2352 39.5946 46.8737C38.9245 46.5122 38.3342 46.0192 37.859 45.4243ZM18.4585 49.8441C19.2124 49.1279 20.1069 48.5761 21.0852 48.2237C22.0635 47.8713 23.1044 47.7261 24.1419 47.7971C24.1185 48.8122 23.8901 49.8121 23.4703 50.7366C23.0505 51.6612 22.4481 52.4912 21.6992 53.1769C20.9504 53.8626 20.0705 54.3897 19.1127 54.7265C18.1548 55.0634 17.1387 55.203 16.1255 55.137C16.1475 54.144 16.3656 53.1652 16.7673 52.2569C17.1689 51.3485 17.7462 50.5285 18.466 49.8441H18.4585ZM6.29345 63.4792C5.14422 62.566 4.19154 61.4298 3.49269 60.1389C2.79383 58.8481 2.36325 57.4292 2.22681 55.9677C3.70448 55.7114 5.21918 55.7636 6.67571 56.1209C8.13225 56.4782 9.49913 57.133 10.6904 58.044C11.8818 58.955 12.8718 60.1026 13.5982 61.4146C14.3247 62.7266 14.7719 64.1747 14.9117 65.6679C13.4021 65.9321 11.8536 65.8736 10.3682 65.4963C8.88282 65.1191 7.49411 64.4316 6.29345 63.4792ZM11.2455 45.4243C10.3201 44.27 9.88027 42.8008 10.0193 41.3278C11.5192 41.4612 12.905 42.1839 13.8729 43.3373C14.8408 44.4908 15.3119 45.981 15.1828 47.4813C15.169 47.4959 15.1566 47.5117 15.1455 47.5285C14.3874 47.458 13.6513 47.2352 12.9812 46.8737C12.3111 46.5122 11.7208 46.0192 11.2455 45.4243Z" stroke="#058FA2" stroke-width="1.4"/>
<mask id="path-2-inside-1_2982_8400" fill="white">
<path d="M75.2288 21.309L74.2969 21.6572L75.8397 25.7858L76.7716 25.4375L75.2288 21.309Z"/>
</mask>
<path d="M75.2288 21.309L74.2969 21.6572L75.8397 25.7858L76.7716 25.4375L75.2288 21.309Z" fill="#FDD304"/>
<path d="M74.2969 21.6572L73.2467 18.847L70.4365 19.8972L71.4867 22.7074L74.2969 21.6572ZM75.2288 21.309L78.039 20.2588L76.9889 17.4486L74.1787 18.4988L75.2288 21.309ZM76.7716 25.4375L77.8217 28.2477L80.6319 27.1976L79.5818 24.3874L76.7716 25.4375ZM75.8397 25.7858L73.0295 26.8359L74.0796 29.6461L76.8898 28.596L75.8397 25.7858ZM75.347 24.4674L76.279 24.1192L74.1787 18.4988L73.2467 18.847L75.347 24.4674ZM72.4186 22.3591L73.9614 26.4876L79.5818 24.3874L78.039 20.2588L72.4186 22.3591ZM75.7215 22.6273L74.7895 22.9756L76.8898 28.596L77.8217 28.2477L75.7215 22.6273ZM78.6499 24.7356L77.1071 20.6071L71.4867 22.7074L73.0295 26.8359L78.6499 24.7356Z" fill="#FDD304" mask="url(#path-2-inside-1_2982_8400)"/>
<mask id="path-4-inside-2_2982_8400" fill="white">
<path d="M78.3187 29.5512L77.3867 29.8994L78.475 32.8118L79.407 32.4635L78.3187 29.5512Z"/>
</mask>
<path d="M78.3187 29.5512L77.3867 29.8994L78.475 32.8118L79.407 32.4635L78.3187 29.5512Z" fill="#FDD304"/>
<path d="M77.3867 29.8994L76.3366 27.0892L73.5264 28.1393L74.5765 30.9495L77.3867 29.8994ZM78.3187 29.5512L81.1289 28.501L80.0787 25.6908L77.2685 26.741L78.3187 29.5512ZM79.407 32.4635L80.4571 35.2737L83.2673 34.2236L82.2172 31.4134L79.407 32.4635ZM78.475 32.8118L75.6648 33.8619L76.715 36.6721L79.5252 35.622L78.475 32.8118ZM78.4369 32.7096L79.3688 32.3614L77.2685 26.741L76.3366 27.0892L78.4369 32.7096ZM75.5085 30.6013L76.5968 33.5136L82.2172 31.4134L81.1289 28.501L75.5085 30.6013ZM78.3568 29.6533L77.4249 30.0016L79.5252 35.622L80.4571 35.2737L78.3568 29.6533ZM81.2852 31.7616L80.1969 28.8493L74.5765 30.9495L75.6648 33.8619L81.2852 31.7616Z" fill="#FDD304" mask="url(#path-4-inside-2_2982_8400)"/>
<mask id="path-6-inside-3_2982_8400" fill="white">
<path d="M59.1469 21.3047L58.2148 21.6528L59.7569 25.7816L60.6889 25.4336L59.1469 21.3047Z"/>
</mask>
<path d="M59.1469 21.3047L58.2148 21.6528L59.7569 25.7816L60.6889 25.4336L59.1469 21.3047Z" fill="#FDD304"/>
<path d="M58.2148 21.6528L57.1652 18.8424L54.3548 19.8921L55.4045 22.7025L58.2148 21.6528ZM59.1469 21.3047L61.9572 20.2551L60.9076 17.4447L58.0972 18.4944L59.1469 21.3047ZM60.6889 25.4336L61.7386 28.2439L64.5489 27.1943L63.4993 24.3839L60.6889 25.4336ZM59.7569 25.7816L56.9465 26.8313L57.9962 29.6417L60.8065 28.592L59.7569 25.7816ZM59.2645 24.4632L60.1965 24.1151L58.0972 18.4944L57.1652 18.8424L59.2645 24.4632ZM56.3365 22.3544L57.8785 26.4832L63.4993 24.3839L61.9572 20.2551L56.3365 22.3544ZM59.6393 22.6232L58.7073 22.9713L60.8065 28.592L61.7386 28.2439L59.6393 22.6232ZM62.5673 24.732L61.0252 20.6032L55.4045 22.7025L56.9465 26.8313L62.5673 24.732Z" fill="#FDD304" mask="url(#path-6-inside-3_2982_8400)"/>
<mask id="path-8-inside-4_2982_8400" fill="white">
<path d="M62.2327 29.5575L61.3008 29.9058L62.3891 32.8181L63.321 32.4699L62.2327 29.5575Z"/>
</mask>
<path d="M62.2327 29.5575L61.3008 29.9058L62.3891 32.8181L63.321 32.4699L62.2327 29.5575Z" fill="#FDD304"/>
<path d="M61.3008 29.9058L60.2506 27.0956L57.4404 28.1457L58.4906 30.9559L61.3008 29.9058ZM62.2327 29.5575L65.0429 28.5074L63.9928 25.6972L61.1826 26.7473L62.2327 29.5575ZM63.321 32.4699L64.3712 35.2801L67.1814 34.2299L66.1312 31.4197L63.321 32.4699ZM62.3891 32.8181L59.5789 33.8682L60.629 36.6784L63.4392 35.6283L62.3891 32.8181ZM62.3509 32.716L63.2829 32.3677L61.1826 26.7473L60.2506 27.0956L62.3509 32.716ZM59.4225 30.6076L60.5108 33.52L66.1312 31.4197L65.0429 28.5074L59.4225 30.6076ZM62.2709 29.6597L61.339 30.0079L63.4392 35.6283L64.3712 35.2801L62.2709 29.6597ZM65.1993 31.768L64.111 28.8556L58.4906 30.9559L59.5789 33.8682L65.1993 31.768Z" fill="#FDD304" mask="url(#path-8-inside-4_2982_8400)"/>
<mask id="path-10-inside-5_2982_8400" fill="white">
<path d="M43.557 21.3002L42.625 21.6484L44.1678 25.777L45.0997 25.4287L43.557 21.3002Z"/>
</mask>
<path d="M43.557 21.3002L42.625 21.6484L44.1678 25.777L45.0997 25.4287L43.557 21.3002Z" fill="#FDD304"/>
<path d="M42.625 21.6484L41.5749 18.8382L38.7647 19.8884L39.8148 22.6986L42.625 21.6484ZM43.557 21.3002L46.3672 20.25L45.317 17.4398L42.5068 18.49L43.557 21.3002ZM45.0997 25.4287L46.1499 28.2389L48.9601 27.1888L47.9099 24.3786L45.0997 25.4287ZM44.1678 25.777L41.3576 26.8271L42.4077 29.6373L45.2179 28.5872L44.1678 25.777ZM43.6751 24.4586L44.6071 24.1104L42.5068 18.49L41.5749 18.8382L43.6751 24.4586ZM40.7468 22.3503L42.2895 26.4789L47.9099 24.3786L46.3672 20.25L40.7468 22.3503ZM44.0496 22.6185L43.1176 22.9668L45.2179 28.5872L46.1499 28.2389L44.0496 22.6185ZM46.978 24.7269L45.4352 20.5983L39.8148 22.6986L41.3576 26.8271L46.978 24.7269Z" fill="#FDD304" mask="url(#path-10-inside-5_2982_8400)"/>
<mask id="path-12-inside-6_2982_8400" fill="white">
<path d="M46.639 29.5663L45.707 29.9146L46.7953 32.8269L47.7273 32.4786L46.639 29.5663Z"/>
</mask>
<path d="M46.639 29.5663L45.707 29.9146L46.7953 32.8269L47.7273 32.4786L46.639 29.5663Z" fill="#FDD304"/>
<path d="M45.707 29.9146L44.6569 27.1044L41.8467 28.1545L42.8968 30.9647L45.707 29.9146ZM46.639 29.5663L49.4492 28.5162L48.3991 25.706L45.5889 26.7561L46.639 29.5663ZM47.7273 32.4786L48.7774 35.2888L51.5876 34.2387L50.5375 31.4285L47.7273 32.4786ZM46.7953 32.8269L43.9851 33.877L45.0353 36.6872L47.8455 35.6371L46.7953 32.8269ZM46.7572 32.7248L47.6891 32.3765L45.5889 26.7561L44.6569 27.1044L46.7572 32.7248ZM43.8288 30.6164L44.9171 33.5288L50.5375 31.4285L49.4492 28.5162L43.8288 30.6164ZM46.6772 29.6684L45.7452 30.0167L47.8455 35.6371L48.7774 35.2888L46.6772 29.6684ZM49.6055 31.7768L48.5172 28.8644L42.8968 30.9647L43.9851 33.877L49.6055 31.7768Z" fill="#FDD304" mask="url(#path-12-inside-6_2982_8400)"/>
<mask id="path-14-inside-7_2982_8400" fill="white">
<path d="M27.4749 21.3036L26.543 21.6519L28.0857 25.7804L29.0177 25.4321L27.4749 21.3036Z"/>
</mask>
<path d="M27.4749 21.3036L26.543 21.6519L28.0857 25.7804L29.0177 25.4321L27.4749 21.3036Z" fill="#FDD304"/>
<path d="M26.543 21.6519L25.4928 18.8417L22.6826 19.8918L23.7328 22.702L26.543 21.6519ZM27.4749 21.3036L30.2851 20.2535L29.235 17.4433L26.4248 18.4934L27.4749 21.3036ZM29.0177 25.4321L30.0678 28.2423L32.878 27.1922L31.8279 24.382L29.0177 25.4321ZM28.0857 25.7804L25.2755 26.8305L26.3257 29.6407L29.1359 28.5906L28.0857 25.7804ZM27.5931 24.4621L28.5251 24.1138L26.4248 18.4934L25.4928 18.8417L27.5931 24.4621ZM24.6647 22.3537L26.2075 26.4823L31.8279 24.382L30.2851 20.2535L24.6647 22.3537ZM27.9676 22.6219L27.0356 22.9702L29.1359 28.5906L30.0678 28.2423L27.9676 22.6219ZM30.8959 24.7303L29.3532 20.6017L23.7328 22.702L25.2755 26.8305L30.8959 24.7303Z" fill="#FDD304" mask="url(#path-14-inside-7_2982_8400)"/>
<mask id="path-16-inside-8_2982_8400" fill="white">
<path d="M30.553 29.5648L29.6211 29.9131L30.7094 32.8254L31.6413 32.4772L30.553 29.5648Z"/>
</mask>
<path d="M30.553 29.5648L29.6211 29.9131L30.7094 32.8254L31.6413 32.4772L30.553 29.5648Z" fill="#FDD304"/>
<path d="M29.6211 29.9131L28.571 27.1029L25.7608 28.153L26.8109 30.9632L29.6211 29.9131ZM30.553 29.5648L33.3632 28.5147L32.3131 25.7045L29.5029 26.7546L30.553 29.5648ZM31.6413 32.4772L32.6915 35.2874L35.5017 34.2372L34.4515 31.427L31.6413 32.4772ZM30.7094 32.8254L27.8992 33.8756L28.9493 36.6858L31.7595 35.6356L30.7094 32.8254ZM30.6712 32.7233L31.6032 32.375L29.5029 26.7546L28.571 27.1029L30.6712 32.7233ZM27.7428 30.615L28.8311 33.5273L34.4515 31.427L33.3632 28.5147L27.7428 30.615ZM30.5912 29.667L29.6593 30.0152L31.7595 35.6356L32.6915 35.2874L30.5912 29.667ZM33.5196 31.7753L32.4313 28.863L26.8109 30.9632L27.8992 33.8756L33.5196 31.7753Z" fill="#FDD304" mask="url(#path-16-inside-8_2982_8400)"/>
<mask id="path-18-inside-9_2982_8400" fill="white">
<path d="M11.3929 21.3038L10.4609 21.6519L12.003 25.7807L12.935 25.4326L11.3929 21.3038Z"/>
</mask>
<path d="M11.3929 21.3038L10.4609 21.6519L12.003 25.7807L12.935 25.4326L11.3929 21.3038Z" fill="#FDD304"/>
<path d="M10.4609 21.6519L9.4113 18.8415L6.60091 19.8911L7.65055 22.7015L10.4609 21.6519ZM11.3929 21.3038L14.2033 20.2541L13.1537 17.4437L10.3433 18.4934L11.3929 21.3038ZM12.935 25.4326L13.9846 28.243L16.795 27.1933L15.7454 24.3829L12.935 25.4326ZM12.003 25.7807L9.19261 26.8303L10.2423 29.6407L13.0526 28.5911L12.003 25.7807ZM11.5106 24.4622L12.4426 24.1141L10.3433 18.4934L9.4113 18.8415L11.5106 24.4622ZM8.58257 22.3534L10.1246 26.4822L15.7454 24.3829L14.2033 20.2541L8.58257 22.3534ZM11.8854 22.6222L10.9534 22.9703L13.0526 28.5911L13.9846 28.243L11.8854 22.6222ZM14.8134 24.731L13.2713 20.6022L7.65055 22.7015L9.19261 26.8303L14.8134 24.731Z" fill="#FDD304" mask="url(#path-18-inside-9_2982_8400)"/>
<mask id="path-20-inside-10_2982_8400" fill="white">
<path d="M14.471 29.5599L13.5391 29.9082L14.6274 32.8206L15.5593 32.4723L14.471 29.5599Z"/>
</mask>
<path d="M14.471 29.5599L13.5391 29.9082L14.6274 32.8206L15.5593 32.4723L14.471 29.5599Z" fill="#FDD304"/>
<path d="M13.5391 29.9082L12.4889 27.098L9.67873 28.1481L10.7289 30.9583L13.5391 29.9082ZM14.471 29.5599L17.2812 28.5098L16.2311 25.6996L13.4209 26.7497L14.471 29.5599ZM15.5593 32.4723L16.6094 35.2825L19.4196 34.2324L18.3695 31.4222L15.5593 32.4723ZM14.6274 32.8206L11.8172 33.8707L12.8673 36.6809L15.6775 35.6308L14.6274 32.8206ZM14.5892 32.7184L15.5211 32.3701L13.4209 26.7497L12.4889 27.098L14.5892 32.7184ZM11.6608 30.6101L12.7491 33.5224L18.3695 31.4222L17.2812 28.5098L11.6608 30.6101ZM14.5092 29.6621L13.5772 30.0104L15.6775 35.6308L16.6094 35.2825L14.5092 29.6621ZM17.4376 31.7704L16.3493 28.8581L10.7289 30.9583L11.8172 33.8707L17.4376 31.7704Z" fill="#FDD304" mask="url(#path-20-inside-10_2982_8400)"/>
<mask id="path-22-inside-11_2982_8400" fill="white">
<path d="M5.10342 29.5616L4.01562 32.4741L4.94764 32.8222L6.03543 29.9097L5.10342 29.5616Z"/>
</mask>
<path d="M5.10342 29.5616L4.01562 32.4741L4.94764 32.8222L6.03543 29.9097L5.10342 29.5616Z" fill="#FDD304"/>
<path d="M4.01562 32.4741L1.20524 31.4245L0.155601 34.2349L2.96598 35.2845L4.01562 32.4741ZM5.10342 29.5616L6.15306 26.7512L3.34268 25.7016L2.29304 28.5119L5.10342 29.5616ZM6.03543 29.9097L8.84581 30.9593L9.89546 28.1489L7.08507 27.0993L6.03543 29.9097ZM4.94764 32.8222L3.898 35.6326L6.70838 36.6822L7.75802 33.8719L4.94764 32.8222ZM6.82601 33.5238L7.9138 30.6112L2.29304 28.5119L1.20524 31.4245L6.82601 33.5238ZM4.05378 32.372L4.98579 32.7201L7.08507 27.0993L6.15306 26.7512L4.05378 32.372ZM3.22505 28.86L2.13725 31.7726L7.75802 33.8719L8.84581 30.9593L3.22505 28.86ZM5.99728 30.0118L5.06527 29.6637L2.96598 35.2845L3.898 35.6326L5.99728 30.0118Z" fill="#FDD304" mask="url(#path-22-inside-11_2982_8400)"/>
<mask id="path-24-inside-12_2982_8400" fill="white">
<path d="M8.18731 21.306L6.64453 25.4346L7.57648 25.7828L9.11926 21.6543L8.18731 21.306Z"/>
</mask>
<path d="M8.18731 21.306L6.64453 25.4346L7.57648 25.7828L9.11926 21.6543L8.18731 21.306Z" fill="#FDD304"/>
<path d="M6.64453 25.4346L3.83433 24.3844L2.7842 27.1946L5.5944 28.2448L6.64453 25.4346ZM8.18731 21.306L9.23744 18.4958L6.42724 17.4457L5.37711 20.2559L8.18731 21.306ZM9.11926 21.6543L11.9295 22.7044L12.9796 19.8942L10.1694 18.8441L9.11926 21.6543ZM7.57648 25.7828L6.52635 28.593L9.33655 29.6432L10.3867 26.833L7.57648 25.7828ZM9.45473 26.4847L10.9975 22.3562L5.37711 20.2559L3.83433 24.3844L9.45473 26.4847ZM7.13718 24.1162L8.06913 24.4645L10.1694 18.8441L9.23744 18.4958L7.13718 24.1162ZM6.30906 20.6041L4.76628 24.7327L10.3867 26.833L11.9295 22.7044L6.30906 20.6041ZM8.62661 22.9726L7.69466 22.6244L5.5944 28.2448L6.52635 28.593L8.62661 22.9726Z" fill="#FDD304" mask="url(#path-24-inside-12_2982_8400)"/>
<mask id="path-26-inside-13_2982_8400" fill="white">
<path d="M69.2714 29.563L68.1836 32.4756L69.1156 32.8237L70.2034 29.9111L69.2714 29.563Z"/>
</mask>
<path d="M69.2714 29.563L68.1836 32.4756L69.1156 32.8237L70.2034 29.9111L69.2714 29.563Z" fill="#FDD304"/>
<path d="M68.1836 32.4756L65.3732 31.4259L64.3236 34.2363L67.134 35.286L68.1836 32.4756ZM69.2714 29.563L70.321 26.7527L67.5106 25.703L66.461 28.5134L69.2714 29.563ZM70.2034 29.9111L73.0138 30.9608L74.0634 28.1504L71.253 27.1008L70.2034 29.9111ZM69.1156 32.8237L68.066 35.6341L70.8763 36.6837L71.926 33.8733L69.1156 32.8237ZM70.994 33.5252L72.0818 30.6127L66.461 28.5134L65.3732 31.4259L70.994 33.5252ZM68.2217 32.3734L69.1538 32.7215L71.253 27.1008L70.321 26.7527L68.2217 32.3734ZM67.393 28.8615L66.3052 31.774L71.926 33.8733L73.0138 30.9608L67.393 28.8615ZM70.1652 30.0133L69.2332 29.6652L67.134 35.286L68.066 35.6341L70.1652 30.0133Z" fill="#FDD304" mask="url(#path-26-inside-13_2982_8400)"/>
<mask id="path-28-inside-14_2982_8400" fill="white">
<path d="M72.3553 21.307L70.8125 25.4355L71.7445 25.7838L73.2872 21.6553L72.3553 21.307Z"/>
</mask>
<path d="M72.3553 21.307L70.8125 25.4355L71.7445 25.7838L73.2872 21.6553L72.3553 21.307Z" fill="#FDD304"/>
<path d="M70.8125 25.4355L68.0023 24.3854L66.9522 27.1956L69.7624 28.2457L70.8125 25.4355ZM72.3553 21.307L73.4054 18.4968L70.5952 17.4467L69.5451 20.2569L72.3553 21.307ZM73.2872 21.6553L76.0974 22.7054L77.1476 19.8952L74.3374 18.8451L73.2872 21.6553ZM71.7445 25.7838L70.6943 28.594L73.5045 29.6441L74.5547 26.8339L71.7445 25.7838ZM73.6227 26.4857L75.1655 22.3571L69.5451 20.2569L68.0023 24.3854L73.6227 26.4857ZM71.3051 24.1172L72.2371 24.4655L74.3374 18.8451L73.4054 18.4968L71.3051 24.1172ZM70.477 20.6051L68.9343 24.7337L74.5547 26.8339L76.0974 22.7054L70.477 20.6051ZM72.7946 22.9736L71.8626 22.6253L69.7624 28.2457L70.6943 28.594L72.7946 22.9736Z" fill="#FDD304" mask="url(#path-28-inside-14_2982_8400)"/>
<mask id="path-30-inside-15_2982_8400" fill="white">
<path d="M53.686 29.5652L52.5977 32.4775L53.5296 32.8258L54.6179 29.9134L53.686 29.5652Z"/>
</mask>
<path d="M53.686 29.5652L52.5977 32.4775L53.5296 32.8258L54.6179 29.9134L53.686 29.5652Z" fill="#FDD304"/>
<path d="M52.5977 32.4775L49.7875 31.4274L48.7373 34.2376L51.5475 35.2877L52.5977 32.4775ZM53.686 29.5652L54.7361 26.755L51.9259 25.7049L50.8758 28.5151L53.686 29.5652ZM54.6179 29.9134L57.4281 30.9636L58.4782 28.1534L55.668 27.1032L54.6179 29.9134ZM53.5296 32.8258L52.4795 35.636L55.2897 36.6861L56.3398 33.8759L53.5296 32.8258ZM55.4079 33.5277L56.4962 30.6153L50.8758 28.5151L49.7875 31.4274L55.4079 33.5277ZM52.6358 32.3754L53.5678 32.7236L55.668 27.1032L54.7361 26.755L52.6358 32.3754ZM51.8077 28.8633L50.7194 31.7757L56.3398 33.8759L57.4281 30.9636L51.8077 28.8633ZM54.5797 30.0156L53.6478 29.6673L51.5475 35.2877L52.4795 35.636L54.5797 30.0156Z" fill="#FDD304" mask="url(#path-30-inside-15_2982_8400)"/>
<mask id="path-32-inside-16_2982_8400" fill="white">
<path d="M56.7732 21.3114L55.2305 25.4399L56.1624 25.7882L57.7052 21.6597L56.7732 21.3114Z"/>
</mask>
<path d="M56.7732 21.3114L55.2305 25.4399L56.1624 25.7882L57.7052 21.6597L56.7732 21.3114Z" fill="#FDD304"/>
<path d="M55.2305 25.4399L52.4203 24.3898L51.3701 27.2L54.1803 28.2501L55.2305 25.4399ZM56.7732 21.3114L57.8234 18.5012L55.0132 17.4511L53.963 20.2613L56.7732 21.3114ZM57.7052 21.6597L60.5154 22.7098L61.5655 19.8996L58.7553 18.8495L57.7052 21.6597ZM56.1624 25.7882L55.1123 28.5984L57.9225 29.6485L58.9726 26.8383L56.1624 25.7882ZM58.0407 26.4901L59.5834 22.3615L53.963 20.2613L52.4203 24.3898L58.0407 26.4901ZM55.7231 24.1216L56.6551 24.4699L58.7553 18.8495L57.8234 18.5012L55.7231 24.1216ZM54.895 20.6095L53.3522 24.7381L58.9726 26.8383L60.5154 22.7098L54.895 20.6095ZM57.2126 22.978L56.2806 22.6297L54.1803 28.2501L55.1123 28.5984L57.2126 22.978Z" fill="#FDD304" mask="url(#path-32-inside-16_2982_8400)"/>
<mask id="path-34-inside-17_2982_8400" fill="white">
<path d="M37.6 29.5667L36.5117 32.479L37.4437 32.8273L38.532 29.9149L37.6 29.5667Z"/>
</mask>
<path d="M37.6 29.5667L36.5117 32.479L37.4437 32.8273L38.532 29.9149L37.6 29.5667Z" fill="#FDD304"/>
<path d="M36.5117 32.479L33.7015 31.4289L32.6514 34.2391L35.4616 35.2892L36.5117 32.479ZM37.6 29.5667L38.6502 26.7565L35.84 25.7063L34.7898 28.5165L37.6 29.5667ZM38.532 29.9149L41.3422 30.965L42.3923 28.1548L39.5821 27.1047L38.532 29.9149ZM37.4437 32.8273L36.3935 35.6375L39.2037 36.6876L40.2539 33.8774L37.4437 32.8273ZM39.3219 33.5291L40.4102 30.6168L34.7898 28.5165L33.7015 31.4289L39.3219 33.5291ZM36.5499 32.3769L37.4818 32.7251L39.5821 27.1047L38.6502 26.7565L36.5499 32.3769ZM35.7218 28.8648L34.6335 31.7771L40.2539 33.8774L41.3422 30.965L35.7218 28.8648ZM38.4938 30.0171L37.5619 29.6688L35.4616 35.2892L36.3935 35.6375L38.4938 30.0171Z" fill="#FDD304" mask="url(#path-34-inside-17_2982_8400)"/>
<mask id="path-36-inside-18_2982_8400" fill="white">
<path d="M40.6873 21.3099L39.1445 25.4385L40.0765 25.7867L41.6193 21.6582L40.6873 21.3099Z"/>
</mask>
<path d="M40.6873 21.3099L39.1445 25.4385L40.0765 25.7867L41.6193 21.6582L40.6873 21.3099Z" fill="#FDD304"/>
<path d="M39.1445 25.4385L36.3343 24.3883L35.2842 27.1985L38.0944 28.2487L39.1445 25.4385ZM40.6873 21.3099L41.7374 18.4997L38.9272 17.4496L37.8771 20.2598L40.6873 21.3099ZM41.6193 21.6582L44.4295 22.7083L45.4796 19.8981L42.6694 18.848L41.6193 21.6582ZM40.0765 25.7867L39.0264 28.5969L41.8366 29.6471L42.8867 26.8369L40.0765 25.7867ZM41.9547 26.4886L43.4975 22.3601L37.8771 20.2598L36.3343 24.3883L41.9547 26.4886ZM39.6372 24.1201L40.5691 24.4684L42.6694 18.848L41.7374 18.4997L39.6372 24.1201ZM38.8091 20.6081L37.2663 24.7366L42.8867 26.8369L44.4295 22.7083L38.8091 20.6081ZM41.1266 22.9765L40.1947 22.6283L38.0944 28.2487L39.0264 28.5969L41.1266 22.9765Z" fill="#FDD304" mask="url(#path-36-inside-18_2982_8400)"/>
<mask id="path-38-inside-19_2982_8400" fill="white">
<path d="M21.5258 29.5667L20.4375 32.479L21.3695 32.8273L22.4578 29.9149L21.5258 29.5667Z"/>
</mask>
<path d="M21.5258 29.5667L20.4375 32.479L21.3695 32.8273L22.4578 29.9149L21.5258 29.5667Z" fill="#FDD304"/>
<path d="M20.4375 32.479L17.6273 31.4289L16.5772 34.2391L19.3874 35.2892L20.4375 32.479ZM21.5258 29.5667L22.5759 26.7565L19.7657 25.7063L18.7156 28.5165L21.5258 29.5667ZM22.4578 29.9149L25.268 30.965L26.3181 28.1548L23.5079 27.1047L22.4578 29.9149ZM21.3695 32.8273L20.3193 35.6375L23.1295 36.6876L24.1797 33.8774L21.3695 32.8273ZM23.2477 33.5291L24.336 30.6168L18.7156 28.5165L17.6273 31.4289L23.2477 33.5291ZM20.4757 32.3769L21.4076 32.7251L23.5079 27.1047L22.5759 26.7565L20.4757 32.3769ZM19.6476 28.8648L18.5593 31.7771L24.1797 33.8774L25.268 30.965L19.6476 28.8648ZM22.4196 30.0171L21.4876 29.6688L19.3874 35.2892L20.3193 35.6375L22.4196 30.0171Z" fill="#FDD304" mask="url(#path-38-inside-19_2982_8400)"/>
<mask id="path-40-inside-20_2982_8400" fill="white">
<path d="M24.5975 21.2997L23.0547 25.4282L23.9866 25.7765L25.5294 21.6479L24.5975 21.2997Z"/>
</mask>
<path d="M24.5975 21.2997L23.0547 25.4282L23.9866 25.7765L25.5294 21.6479L24.5975 21.2997Z" fill="#FDD304"/>
<path d="M23.0547 25.4282L20.2445 24.3781L19.1944 27.1883L22.0046 28.2384L23.0547 25.4282ZM24.5975 21.2997L25.6476 18.4895L22.8374 17.4393L21.7873 20.2495L24.5975 21.2997ZM25.5294 21.6479L28.3396 22.6981L29.3897 19.8879L26.5795 18.8377L25.5294 21.6479ZM23.9866 25.7765L22.9365 28.5867L25.7467 29.6368L26.7968 26.8266L23.9866 25.7765ZM25.8649 26.4784L27.4077 22.3498L21.7873 20.2495L20.2445 24.3781L25.8649 26.4784ZM23.5473 24.1099L24.4793 24.4581L26.5795 18.8377L25.6476 18.4895L23.5473 24.1099ZM22.7192 20.5978L21.1764 24.7263L26.7968 26.8266L28.3396 22.6981L22.7192 20.5978ZM25.0368 22.9663L24.1048 22.618L22.0046 28.2384L22.9365 28.5867L25.0368 22.9663Z" fill="#FDD304" mask="url(#path-40-inside-20_2982_8400)"/>
<path d="M78.254 7.6061H61.6965L57.9457 1H26.2061L22.4553 7.60859H5.89779C5.21875 7.60991 4.5679 7.88024 4.08774 8.36039C3.60758 8.84055 3.33725 9.4914 3.33594 10.1704V15.1449H8.02687L8.91232 17.5202L9.78534 17.1944L10.6584 17.5202L11.5463 15.1449H24.1093L24.9973 17.5202L25.93 17.172L25.1838 15.1449H26.9125L26.1663 17.172L27.099 17.5202L27.9869 15.1449H40.2192L41.1071 17.5202L42.0398 17.172L41.2937 15.1449H42.9875L42.2264 17.167L43.1591 17.5153L44.047 15.1399H55.7818L56.6673 17.5153L57.6 17.167L56.8538 15.1399H59.0774L58.3312 17.167L59.2615 17.5153L60.1494 15.1399H71.8643L72.7523 17.5153L73.685 17.167L72.9264 15.1399H74.655L73.8964 17.167L74.8291 17.5153L75.717 15.1399H80.8159V10.1655C80.8139 9.48686 80.5433 8.83664 80.0632 8.35703C79.5831 7.87741 78.9326 7.60741 78.254 7.6061ZM26.7856 1.9949H57.3786L60.5449 7.57626H23.6194L26.7856 1.9949ZM5.89282 8.60349H78.254C78.5835 8.60289 78.9048 8.70581 79.1726 8.89772C79.4403 9.08963 79.6411 9.36083 79.7464 9.673H4.41042C4.51503 9.36117 4.71481 9.09001 4.98163 8.8977C5.24846 8.70539 5.56889 8.60161 5.89779 8.601L5.89282 8.60349ZM9.78037 17.0203L9.08394 15.1524H10.4793L9.78037 17.0203ZM79.816 14.1575H4.33083V10.6754H79.821L79.816 14.1575Z" stroke="#058FA2"/>
<rect x="3.39453" y="70.6816" width="76.3182" height="3.31818" rx="1.65909" fill="#FDD304"/>
</svg>
