<svg width="111" height="103" viewBox="0 0 111 103" fill="none" xmlns="http://www.w3.org/2000/svg">
<path d="M32.4536 13.8753C31.8604 14.4286 31.7757 16.046 31.7757 24.7286C31.7757 30.9852 31.9452 35.284 32.1994 35.7947C32.623 36.5609 33.1738 36.6034 41.3081 36.6034H49.9933V38.3059V40.0084H39.5711C33.2162 40.0084 28.8524 40.1786 28.344 40.434C27.6238 40.8596 27.5391 41.3704 27.5391 46.3501C27.5391 50.6914 27.6662 51.9257 28.1746 52.3514C28.683 52.777 28.9372 52.777 29.4456 52.3514C29.9539 51.9257 30.081 50.7766 30.081 47.2014V42.5621L49.4849 42.6472L68.8463 42.7749L68.9734 61.6724C69.0581 76.1861 69.1852 80.6976 69.6089 80.953C69.8631 81.1233 75.5826 81.2935 82.2765 81.2935H94.4356L94.5627 85.8476C94.6898 90.4443 94.6898 90.4443 95.749 90.4443H96.8081L96.9352 65.6307L97.02 40.7745L95.749 40.3063L94.478 39.8381V32.5175C94.478 26.8567 94.3509 25.1117 93.8849 24.7286C93.5036 24.3881 90.6227 24.2605 84.4795 24.3456L75.6249 24.4733L75.4978 32.2195L75.4131 40.0084H63.9742H52.5352V38.3059V36.6034H61.2204C69.27 36.6034 69.9055 36.5609 70.2868 35.7947C70.5833 35.284 70.7104 30.9852 70.6257 24.5158C70.541 15.7055 70.4562 13.9604 69.9055 13.62C69.5242 13.3646 61.8559 13.1943 51.1795 13.1943C35.2921 13.1943 33.0467 13.2795 32.4536 13.8753ZM68.1261 24.984L68.2108 34.0497H51.2643H34.3177V24.8989V15.7481L51.1795 15.8332L67.999 15.9609L68.1261 24.984ZM83.4627 33.4113V40.0084H80.7089H77.9551V33.4113V26.8142H80.7089H83.4627V33.4113ZM91.936 33.4113V40.0084H88.9704H86.0047V33.4113V26.8142H88.9704H91.936V33.4113ZM94.478 60.6509V78.7398L82.9543 78.6547L71.3883 78.527V74.6964V70.8658L78.5906 70.653L85.7929 70.4402V69.3762V68.3121L78.5059 68.1844L71.1765 68.0993V62.9919V57.8844H78.0822C81.8528 57.8844 85.1997 57.7142 85.4963 57.5014C85.8352 57.2886 86.0047 56.7778 85.92 56.3522C85.7929 55.6286 85.1997 55.5435 78.5906 55.3307L71.3883 55.1179L71.2612 49.4146C71.2188 46.265 71.2612 43.4133 71.3459 43.1154C71.5154 42.6898 74.015 42.5621 83.0391 42.5621H94.478V60.6509Z" fill="#058FA2"/>
<path d="M79.7367 35.7096C78.6775 36.348 79.3554 37.6674 80.7535 37.7951C82.3634 37.9654 83.0836 36.7311 81.9397 35.8798C81.05 35.2414 80.4993 35.1989 79.7367 35.7096Z" fill="#058FA2"/>
<path d="M87.7004 35.9648C86.8954 36.9438 87.5309 37.8801 88.9714 37.8801C89.7339 37.8801 90.3694 37.6248 90.4965 37.2417C90.8355 36.433 89.9458 35.3264 88.9714 35.3264C88.5477 35.3264 87.9969 35.6243 87.7004 35.9648Z" fill="#058FA2"/>
<path d="M12.9235 23.4942C12.288 24.005 11.4831 25.0265 11.1865 25.8351C10.6357 27.112 10.7205 28.0484 12.4998 36.9438C13.559 42.2641 14.7453 47.0736 15.0842 47.5843C15.4655 48.1376 16.567 48.9463 17.5838 49.4145C19.3208 50.1806 19.4479 50.3934 20.3376 53.245L21.2273 56.2669L20.38 57.2033C17.4144 60.3955 18.3888 65.0773 22.456 67.1203C24.0659 67.9715 24.9979 68.0992 29.3193 68.0992H34.3186V75.2496V82.3574L29.6582 85.6773C27.1163 87.4649 24.9979 89.2099 24.9979 89.5504C24.9979 89.8484 25.2521 90.3591 25.5911 90.6145C26.1418 91.0827 27.4552 90.3165 33.5136 86.0178C34.2762 85.4645 34.3186 85.5496 34.3186 87.5926C34.3186 89.8909 35.1235 91.2529 36.225 90.8273C36.6911 90.6145 36.8605 89.8909 36.8605 88.0608C36.8605 86.6988 36.9876 85.5496 37.1995 85.5496C37.3689 85.5496 39.106 86.6988 41.0972 88.1033C44.656 90.6996 46.2659 91.1678 46.5201 89.7207C46.6048 89.2525 45.1644 87.9756 41.775 85.5496L36.8605 82.1021V75.0793V68.0992H42.7071C47.9182 68.0992 48.7231 68.0141 50.4178 67.1203C52.7056 65.9711 53.8071 64.524 54.1037 62.2682C54.4002 59.9698 53.2987 57.6715 51.138 56.2669L49.401 55.1178L36.4792 55.0326L23.5151 54.9475L22.7949 52.9046C21.8628 50.1806 21.8628 49.2442 22.8796 48.3079C24.659 46.6905 24.6166 45.3285 22.6678 35.369C21.651 30.219 20.6342 25.6223 20.38 25.1541C18.9819 22.5579 15.1689 21.7066 12.9235 23.4942ZM17.7956 25.75C18.6853 26.8141 22.0747 44.5198 21.6086 45.7116C21.2273 46.7331 20.38 47.2438 19.109 47.2438C17.3296 47.2438 16.9483 46.35 15.0418 36.6459C13.2624 27.8355 13.1777 27.0694 13.7708 26.1331C14.5334 24.9413 16.9483 24.7285 17.7956 25.75ZM50.3754 58.9058C52.4514 60.9062 52.0701 63.6302 49.5705 64.907C47.7487 65.8434 25.125 65.8434 23.3033 64.907C20.8884 63.6302 20.4224 60.8636 22.3712 59.076C23.0067 58.4802 23.8117 57.8843 24.1506 57.7566C24.4895 57.6289 30.2514 57.5438 36.9453 57.5864L49.1044 57.6715L50.3754 58.9058Z" fill="#FDC114"/>
<path d="M28.0478 71.1637C27.2429 71.9723 27.37 81.4637 28.1749 82.1447C28.6833 82.5703 28.9375 82.5703 29.4459 82.1447C29.9543 81.719 30.0814 80.5273 30.0814 76.6542C30.0814 72.0575 29.7848 70.6529 28.8104 70.6529C28.6833 70.6529 28.3444 70.8657 28.0478 71.1637Z" fill="#058FA2"/>
</svg>
