<svg width="72" height="72" viewBox="0 0 72 72" fill="none" xmlns="http://www.w3.org/2000/svg">
<mask id="path-1-inside-1_2_27780" fill="white">
<path d="M6.74909 12.6C6.85388 12.6003 6.9577 12.5799 7.05459 12.54C7.15149 12.5001 7.23956 12.4415 7.31376 12.3675C7.38796 12.2935 7.44683 12.2056 7.487 12.1088C7.52717 12.012 7.54784 11.9083 7.54784 11.8035C7.53422 11.1837 7.64452 10.5674 7.87229 9.99083C8.10006 9.41424 8.4407 8.88895 8.87422 8.44579C9.30775 8.00262 9.82542 7.65052 10.3969 7.41013C10.9683 7.16974 11.582 7.04591 12.202 7.04591C12.8219 7.04591 13.4356 7.16974 14.0071 7.41013C14.5785 7.65052 15.0962 8.00262 15.5297 8.44579C15.9632 8.88895 16.3039 9.41424 16.5316 9.99083C16.7594 10.5674 16.8697 11.1837 16.8561 11.8035V47.133C16.8503 47.2413 16.8667 47.3497 16.9042 47.4514C16.9417 47.5532 16.9995 47.6463 17.0741 47.725C17.1488 47.8037 17.2386 47.8664 17.3383 47.9092C17.4379 47.952 17.5453 47.9741 17.6537 47.9741C17.7622 47.9741 17.8695 47.952 17.9692 47.9092C18.0688 47.8664 18.1587 47.8037 18.2333 47.725C18.3079 47.6463 18.3658 47.5532 18.4032 47.4514C18.4407 47.3497 18.4571 47.2413 18.4513 47.133V40.4235H42.9741V47.133C42.9683 47.2413 42.9847 47.3497 43.0222 47.4514C43.0597 47.5532 43.1175 47.6463 43.1921 47.725C43.2668 47.8037 43.3566 47.8664 43.4563 47.9092C43.5559 47.952 43.6633 47.9741 43.7717 47.9741C43.8802 47.9741 43.9875 47.952 44.0872 47.9092C44.1868 47.8664 44.2767 47.8037 44.3513 47.725C44.4259 47.6463 44.4838 47.5532 44.5212 47.4514C44.5587 47.3497 44.5751 47.2413 44.5693 47.133V11.7945C44.5693 10.1368 43.9108 8.54692 42.7386 7.37473C41.5664 6.20253 39.9766 5.544 38.3188 5.544C36.6611 5.544 35.0713 6.20253 33.8991 7.37473C32.7269 8.54692 32.0683 10.1368 32.0683 11.7945C32.0792 11.9987 32.168 12.191 32.3164 12.3317C32.4647 12.4724 32.6615 12.5509 32.866 12.5509C33.0705 12.5509 33.2672 12.4724 33.4156 12.3317C33.564 12.191 33.6527 11.9987 33.6636 11.7945C33.6636 11.1832 33.784 10.5778 34.018 10.013C34.2519 9.44821 34.5948 8.93502 35.0271 8.50274C35.4594 8.07046 35.9726 7.72756 36.5374 7.49361C37.1022 7.25966 37.7075 7.13925 38.3188 7.13925C38.9302 7.13925 39.5355 7.25966 40.1003 7.49361C40.6651 7.72756 41.1783 8.07046 41.6106 8.50274C42.0429 8.93502 42.3858 9.44821 42.6197 10.013C42.8537 10.5778 42.9741 11.1832 42.9741 11.7945V25.9403H18.4491V11.7945C18.4649 10.9638 18.3149 10.1384 18.0079 9.36636C17.7009 8.59435 17.2431 7.89129 16.6612 7.29827C16.0793 6.70525 15.3851 6.23419 14.619 5.91262C13.853 5.59104 13.0305 5.42542 12.1997 5.42542C11.3689 5.42542 10.5464 5.59104 9.78039 5.91262C9.01434 6.23419 8.32009 6.70525 7.73822 7.29827C7.15635 7.89129 6.69854 8.59435 6.39156 9.36636C6.08458 10.1384 5.93458 10.9638 5.95034 11.7945C5.94885 11.9001 5.96843 12.005 6.00796 12.1029C6.04749 12.2009 6.10616 12.29 6.18054 12.365C6.25492 12.44 6.34351 12.4994 6.44114 12.5398C6.53877 12.5801 6.64346 12.6006 6.74909 12.6ZM18.4491 27.5445H42.9741V38.8372H18.4491V27.5445Z"/>
</mask>
<path d="M6.74909 12.6L6.75474 10.6L6.74615 10.6L6.73756 10.6L6.74909 12.6ZM7.54784 11.8035L9.54784 11.8035L9.54784 11.7815L9.54736 11.7595L7.54784 11.8035ZM16.8561 11.8035L14.8566 11.7595L14.8561 11.7815V11.8035H16.8561ZM16.8561 47.133L18.8533 47.2391L18.8561 47.1861V47.133H16.8561ZM17.6537 47.9741V49.9741V47.9741ZM18.4513 47.133H16.4513V47.1861L16.4542 47.2391L18.4513 47.133ZM18.4513 40.4235V38.4235H16.4513V40.4235H18.4513ZM42.9741 40.4235H44.9741V38.4235H42.9741V40.4235ZM42.9741 47.133L44.9713 47.2391L44.9741 47.1861V47.133H42.9741ZM44.5693 47.133H42.5693V47.1861L42.5722 47.2391L44.5693 47.133ZM44.5693 11.7945H46.5693H44.5693ZM32.0683 11.7945H30.0683V11.8476L30.0712 11.9006L32.0683 11.7945ZM32.866 12.5509V10.5509V12.5509ZM33.6636 11.7945L35.6608 11.9006L35.6636 11.8476V11.7945H33.6636ZM38.3188 7.13925V5.13925V7.13925ZM42.9741 11.7945H40.9741H42.9741ZM42.9741 25.9403V27.9403H44.9741V25.9403H42.9741ZM18.4491 25.9403H16.4491V27.9403H18.4491V25.9403ZM18.4491 11.7945L16.4495 11.7566L16.4491 11.7755V11.7945H18.4491ZM12.1997 5.42542V7.42542V5.42542ZM5.95034 11.7945L7.95014 11.8229L7.95061 11.7897L7.94998 11.7566L5.95034 11.7945ZM18.4491 27.5445V25.5445H16.4491V27.5445H18.4491ZM42.9741 27.5445H44.9741V25.5445H42.9741V27.5445ZM42.9741 38.8372V40.8372H44.9741V38.8372H42.9741ZM18.4491 38.8372H16.4491V40.8372H18.4491V38.8372ZM6.74344 14.6C7.11135 14.601 7.47584 14.5295 7.81604 14.3894L6.29314 10.6906C6.43955 10.6304 6.59641 10.5996 6.75474 10.6L6.74344 14.6ZM7.81604 14.3894C8.15624 14.2493 8.46546 14.0435 8.72598 13.7837L5.90154 10.9513C6.01366 10.8395 6.14674 10.7509 6.29314 10.6906L7.81604 14.3894ZM8.72598 13.7837C8.98649 13.5239 9.19319 13.2153 9.33422 12.8755L5.63978 11.3422C5.70047 11.1959 5.78943 11.0631 5.90154 10.9513L8.72598 13.7837ZM9.33422 12.8755C9.47525 12.5357 9.54785 12.1714 9.54784 11.8035L5.54784 11.8035C5.54784 11.6452 5.57908 11.4884 5.63978 11.3422L9.33422 12.8755ZM9.54736 11.7595C9.53959 11.406 9.6025 11.0545 9.73242 10.7256L6.01216 9.25603C5.68654 10.0803 5.52884 10.9614 5.54833 11.8475L9.54736 11.7595ZM9.73242 10.7256C9.86233 10.3968 10.0566 10.0971 10.3039 9.84437L7.44455 7.0472C6.82477 7.68076 6.33779 8.43172 6.01216 9.25603L9.73242 10.7256ZM10.3039 9.84437C10.5512 9.5916 10.8464 9.39076 11.1724 9.25365L9.62136 5.5666C8.80441 5.91027 8.06433 6.41365 7.44455 7.0472L10.3039 9.84437ZM11.1724 9.25365C11.4983 9.11654 11.8484 9.04591 12.202 9.04591V5.04591C11.3157 5.04591 10.4383 5.22294 9.62136 5.5666L11.1724 9.25365ZM12.202 9.04591C12.5556 9.04591 12.9056 9.11654 13.2316 9.25365L14.7826 5.5666C13.9656 5.22294 13.0883 5.04591 12.202 5.04591V9.04591ZM13.2316 9.25365C13.5575 9.39076 13.8528 9.5916 14.1 9.84437L16.9594 7.0472C16.3396 6.41365 15.5995 5.91027 14.7826 5.5666L13.2316 9.25365ZM14.1 9.84437C14.3473 10.0971 14.5416 10.3968 14.6715 10.7256L18.3918 9.25603C18.0662 8.43172 17.5792 7.68076 16.9594 7.0472L14.1 9.84437ZM14.6715 10.7256C14.8014 11.0545 14.8644 11.406 14.8566 11.7595L18.8556 11.8475C18.8751 10.9614 18.7174 10.0803 18.3918 9.25603L14.6715 10.7256ZM14.8561 11.8035V47.133H18.8561V11.8035H14.8561ZM14.8589 47.0269C14.8387 47.4064 14.8961 47.786 15.0274 48.1427L18.7809 46.7602C18.8373 46.9133 18.8619 47.0762 18.8533 47.2391L14.8589 47.0269ZM15.0274 48.1427C15.1588 48.4993 15.3614 48.8254 15.6229 49.1012L18.5254 46.3488C18.6376 46.4672 18.7246 46.6071 18.7809 46.7602L15.0274 48.1427ZM15.6229 49.1012C15.8844 49.3769 16.1993 49.5966 16.5485 49.7466L18.1281 46.0718C18.278 46.1362 18.4131 46.2305 18.5254 46.3488L15.6229 49.1012ZM16.5485 49.7466C16.8976 49.8967 17.2737 49.9741 17.6537 49.9741V45.9741C17.8168 45.9741 17.9782 46.0074 18.1281 46.0718L16.5485 49.7466ZM17.6537 49.9741C18.0338 49.9741 18.4098 49.8967 18.759 49.7466L17.1793 46.0718C17.3292 46.0074 17.4906 45.9741 17.6537 45.9741V49.9741ZM18.759 49.7466C19.1081 49.5966 19.4231 49.3769 19.6846 49.1012L16.7821 46.3488C16.8943 46.2304 17.0295 46.1362 17.1793 46.0718L18.759 49.7466ZM19.6846 49.1012C19.946 48.8254 20.1487 48.4993 20.28 48.1427L16.5265 46.7602C16.5829 46.6071 16.6698 46.4672 16.7821 46.3488L19.6846 49.1012ZM20.28 48.1427C20.4114 47.786 20.4687 47.4064 20.4485 47.0269L16.4542 47.2391C16.4455 47.0762 16.4701 46.9133 16.5265 46.7602L20.28 48.1427ZM20.4513 47.133V40.4235H16.4513V47.133H20.4513ZM18.4513 42.4235H42.9741V38.4235H18.4513V42.4235ZM40.9741 40.4235V47.133H44.9741V40.4235H40.9741ZM40.9769 47.0269C40.9567 47.4064 41.0141 47.786 41.1454 48.1427L44.8989 46.7602C44.9553 46.9133 44.9799 47.0762 44.9713 47.2391L40.9769 47.0269ZM41.1454 48.1427C41.2768 48.4993 41.4794 48.8254 41.7409 49.1012L44.6434 46.3488C44.7556 46.4672 44.8426 46.6072 44.8989 46.7602L41.1454 48.1427ZM41.7409 49.1012C42.0024 49.3769 42.3173 49.5966 42.6665 49.7466L44.2461 46.0718C44.396 46.1362 44.5311 46.2305 44.6434 46.3488L41.7409 49.1012ZM42.6665 49.7466C43.0156 49.8967 43.3917 49.9741 43.7717 49.9741V45.9741C43.9348 45.9741 44.0962 46.0073 44.2461 46.0718L42.6665 49.7466ZM43.7717 49.9741C44.1518 49.9741 44.5278 49.8967 44.877 49.7466L43.2973 46.0718C43.4472 46.0074 43.6086 45.9741 43.7717 45.9741V49.9741ZM44.877 49.7466C45.2261 49.5966 45.5411 49.3769 45.8026 49.1012L42.9001 46.3488C43.0123 46.2305 43.1475 46.1362 43.2973 46.0718L44.877 49.7466ZM45.8026 49.1012C46.064 48.8254 46.2666 48.4993 46.398 48.1427L42.6445 46.7602C42.7009 46.6071 42.7878 46.4671 42.9001 46.3488L45.8026 49.1012ZM46.398 48.1427C46.5294 47.786 46.5867 47.4064 46.5665 47.0269L42.5722 47.2391C42.5635 47.0762 42.5881 46.9133 42.6445 46.7602L46.398 48.1427ZM46.5693 47.133V11.7945H42.5693V47.133H46.5693ZM46.5693 11.7945C46.5693 9.60633 45.7001 7.50778 44.1528 5.96052L41.3244 8.78894C42.1215 9.58607 42.5693 10.6672 42.5693 11.7945H46.5693ZM44.1528 5.96052C42.6056 4.41325 40.507 3.544 38.3188 3.544V7.544C39.4461 7.544 40.5273 7.99182 41.3244 8.78894L44.1528 5.96052ZM38.3188 3.544C36.1307 3.544 34.0321 4.41325 32.4849 5.96052L35.3133 8.78894C36.1104 7.99182 37.1915 7.544 38.3188 7.544V3.544ZM32.4849 5.96052C30.9376 7.50778 30.0683 9.60633 30.0683 11.7945H34.0683C34.0683 10.6672 34.5162 9.58606 35.3133 8.78894L32.4849 5.96052ZM30.0712 11.9006C30.1092 12.6162 30.4202 13.2899 30.9402 13.783L33.6925 10.8805C33.9157 11.0921 34.0492 11.3813 34.0655 11.6884L30.0712 11.9006ZM30.9402 13.783C31.4601 14.276 32.1494 14.5509 32.866 14.5509V10.5509C33.1735 10.5509 33.4694 10.6688 33.6925 10.8805L30.9402 13.783ZM32.866 14.5509C33.5825 14.5509 34.2718 14.276 34.7918 13.783L32.0394 10.8805C32.2626 10.6688 32.5584 10.5509 32.866 10.5509V14.5509ZM34.7918 13.783C35.3117 13.2899 35.6228 12.6162 35.6608 11.9006L31.6664 11.6884C31.6827 11.3813 31.8162 11.0921 32.0394 10.8805L34.7918 13.783ZM35.6636 11.7945C35.6636 11.4458 35.7323 11.1005 35.8657 10.7784L32.1702 9.24765C31.8357 10.0551 31.6636 10.9205 31.6636 11.7945H35.6636ZM35.8657 10.7784C35.9992 10.4562 36.1947 10.1635 36.4413 9.91695L33.6129 7.08853C32.9949 7.70652 32.5047 8.44019 32.1702 9.24765L35.8657 10.7784ZM36.4413 9.91695C36.6879 9.67039 36.9806 9.47481 37.3027 9.34137L35.772 5.64585C34.9645 5.98031 34.2309 6.47053 33.6129 7.08853L36.4413 9.91695ZM37.3027 9.34137C37.6249 9.20793 37.9701 9.13925 38.3188 9.13925V5.13925C37.4449 5.13925 36.5794 5.31139 35.772 5.64585L37.3027 9.34137ZM38.3188 9.13925C38.6675 9.13925 39.0128 9.20793 39.335 9.34137L40.8657 5.64585C40.0582 5.31139 39.1928 5.13925 38.3188 5.13925V9.13925ZM39.335 9.34137C39.6571 9.47481 39.9498 9.67039 40.1964 9.91695L43.0248 7.08853C42.4068 6.47053 41.6732 5.98031 40.8657 5.64585L39.335 9.34137ZM40.1964 9.91695C40.443 10.1635 40.6385 10.4562 40.772 10.7784L44.4675 9.24765C44.133 8.44019 43.6428 7.70652 43.0248 7.08853L40.1964 9.91695ZM40.772 10.7784C40.9054 11.1005 40.9741 11.4458 40.9741 11.7945L44.9741 11.7945C44.9741 10.9205 44.8019 10.0551 44.4675 9.24765L40.772 10.7784ZM40.9741 11.7945V25.9403H44.9741V11.7945H40.9741ZM42.9741 23.9403H18.4491V27.9403H42.9741V23.9403ZM20.4491 25.9403V11.7945H16.4491V25.9403H20.4491ZM20.4487 11.8324C20.4695 10.736 20.2716 9.6464 19.8663 8.62737L16.1494 10.1054C16.3582 10.6304 16.4602 11.1917 16.4495 11.7566L20.4487 11.8324ZM19.8663 8.62737C19.4611 7.60833 18.8568 6.6803 18.0888 5.89754L15.2337 8.699C15.6293 9.10227 15.9407 9.58037 16.1494 10.1054L19.8663 8.62737ZM18.0888 5.89754C17.3207 5.11477 16.4043 4.49298 15.3932 4.06851L13.8449 7.75672C14.3659 7.9754 14.838 8.29574 15.2337 8.699L18.0888 5.89754ZM15.3932 4.06851C14.382 3.64404 13.2964 3.42542 12.1997 3.42542V7.42542C12.7647 7.42542 13.324 7.53805 13.8449 7.75672L15.3932 4.06851ZM12.1997 3.42542C11.1031 3.42542 10.0174 3.64404 9.00627 4.06851L10.5545 7.75672C11.0754 7.53805 11.6347 7.42542 12.1997 7.42542V3.42542ZM9.00627 4.06851C7.99511 4.49298 7.07871 5.11477 6.31065 5.89754L9.16578 8.699C9.56147 8.29574 10.0336 7.9754 10.5545 7.75672L9.00627 4.06851ZM6.31065 5.89754C5.5426 6.6803 4.9383 7.60833 4.5331 8.62737L8.25002 10.1054C8.45878 9.58037 8.7701 9.10227 9.16578 8.699L6.31065 5.89754ZM4.5331 8.62737C4.12789 9.6464 3.9299 10.736 3.9507 11.8324L7.94998 11.7566C7.93927 11.1917 8.04127 10.6303 8.25002 10.1054L4.5331 8.62737ZM3.95054 11.7661C3.94527 12.1377 4.01419 12.5067 4.15324 12.8513L7.86268 11.3546C7.92268 11.5033 7.95242 11.6625 7.95014 11.8229L3.95054 11.7661ZM4.15324 12.8513C4.2923 13.1959 4.49871 13.5094 4.76038 13.7733L7.60069 10.9568C7.71361 11.0706 7.80267 11.2059 7.86268 11.3546L4.15324 12.8513ZM4.76038 13.7733C5.02206 14.0372 5.33375 14.2462 5.67721 14.3881L7.20507 10.6914C7.35328 10.7527 7.48777 10.8429 7.60069 10.9568L4.76038 13.7733ZM5.67721 14.3881C6.02068 14.5301 6.389 14.6021 6.76063 14.6L6.73756 10.6C6.89792 10.5991 7.05685 10.6302 7.20507 10.6914L5.67721 14.3881ZM18.4491 29.5445H42.9741V25.5445H18.4491V29.5445ZM40.9741 27.5445V38.8372H44.9741V27.5445H40.9741ZM42.9741 36.8372H18.4491V40.8372H42.9741V36.8372ZM20.4491 38.8372V27.5445H16.4491V38.8372H20.4491Z" fill="#058FA2" mask="url(#path-1-inside-1_2_27780)"/>
<path d="M67.4986 55.5998C65.9853 55.5145 64.5245 55.0157 63.2751 54.1575C62.0258 53.2994 61.0359 52.1149 60.4133 50.733M67.4986 55.5998L43.0636 50.733C43.1668 50.5943 43.301 50.4817 43.4555 50.4041C43.61 50.3264 43.7805 50.286 43.9534 50.286C44.1263 50.286 44.2968 50.3264 44.4514 50.4041C44.6059 50.4817 44.7401 50.5943 44.8433 50.733M67.4986 55.5998C67.7028 55.6106 67.8951 55.6994 68.0358 55.8478C68.1765 55.9962 68.2549 56.1929 68.2549 56.3974C68.2549 56.6019 68.1765 56.7986 68.0358 56.947C67.8951 57.0954 67.7028 57.1842 67.4986 57.195V55.5998ZM60.4133 50.733C60.3925 50.6971 60.3684 50.6632 60.3413 50.6318C60.3135 50.5818 60.2803 50.535 60.2423 50.4923M60.4133 50.733L59.9971 50.9747L60.4133 50.733ZM60.2423 50.4923C60.1982 50.4533 60.1499 50.4193 60.0983 50.391C60.0821 50.3819 60.0677 50.3705 60.0533 50.3591C60.0357 50.3451 60.0181 50.3312 59.9971 50.3213M60.2423 50.4923L59.9971 50.7106V50.5757V50.571V50.3213M60.2423 50.4923L59.9971 50.7695V50.823L59.7495 50.8474L59.7974 50.7455L59.9568 50.4069L59.9813 50.3548L59.9971 50.3213M59.9971 50.3213H59.9813C59.9451 50.3109 59.9083 50.3026 59.8711 50.2965C59.7059 50.2505 59.5302 50.2608 59.3716 50.3258H59.3603M59.3603 50.3258C59.3448 50.3329 59.3325 50.3432 59.32 50.3536C59.3089 50.3629 59.2976 50.3724 59.2838 50.3798M59.3603 50.3258L59.3716 50.3502L59.46 50.5419L59.6063 50.8588L51.9654 56.194C53.3468 56.1587 54.6973 55.7759 55.8922 55.0806C56.0987 54.9605 56.2994 54.8317 56.4938 54.6947C57.4392 54.0283 58.2358 53.1683 58.8288 52.169L59.3603 51.2733V50.9672L58.9508 50.742M59.3603 50.3258V50.5188L59.2838 50.3798M59.2838 50.3798C59.2238 50.4128 59.1679 50.4528 59.1173 50.499M59.2838 50.3798L59.3603 50.5219V50.7125L59.1173 50.499M59.1173 50.499C59.0805 50.5409 59.0488 50.587 59.0228 50.6363C58.9955 50.6692 58.9714 50.7046 58.9508 50.742M59.1173 50.499L59.3603 50.7652V50.8142V50.9163V50.9261L58.9508 50.742M58.9508 50.742C58.3339 52.1146 57.3537 53.2926 56.1161 54.1487C54.8785 55.0048 53.4305 55.5066 51.9286 55.5998C50.4153 55.5145 48.9545 55.0157 47.7051 54.1575C46.4558 53.2994 45.4659 52.1149 44.8433 50.733M44.8433 50.733L44.3553 51.0962L43.688 50.8668M44.8433 50.733L44.2904 50.9822L44.2216 50.8614L43.9541 50.3918L43.9534 50.393L43.688 50.8668M43.688 50.8668L43.6224 50.9839L43.688 50.8668ZM40.6069 54.6841C41.6277 53.9672 42.4768 53.0289 43.0889 51.9363L43.5572 51.1004L36.0436 55.5908C34.53 55.5057 33.0688 55.0069 31.8191 54.1488C30.5694 53.2906 29.5791 52.1061 28.9561 50.724M40.6069 54.6841C40.4481 54.7956 40.2851 54.9017 40.1182 55.0022C38.8962 55.7384 37.506 56.1485 36.0808 56.1936C36.0679 56.194 36.055 56.1944 36.0421 56.1947C36.0313 56.1945 36.0205 56.1942 36.0097 56.1939C34.6206 56.1549 33.2628 55.7703 32.0593 55.0744C31.8503 54.9535 31.647 54.824 31.4501 54.6861C30.4982 54.0198 29.6934 53.1608 29.0896 52.162L28.5398 51.2525V51.0911C28.5507 51.0812 28.5594 51.0729 28.5657 51.0668C28.5812 51.0517 28.5938 51.0386 28.5971 51.0351L28.5975 51.0348C28.5997 51.0325 28.6003 51.0318 28.5999 51.0323C28.5991 51.0331 28.5946 51.0378 28.5902 51.0422L28.5892 51.0431C28.5832 51.0492 28.5662 51.0662 28.5398 51.0887V50.954L28.9561 50.724M40.6069 54.6841L40.7995 54.9624C40.6334 55.0773 40.464 55.1865 40.2915 55.2899C39.0228 56.0504 37.5875 56.4972 36.1053 56.5889L36.0565 56.5919L36.0436 57.195M40.6069 54.6841L40.7995 54.9624C41.8766 54.217 42.7796 53.254 43.4529 52.1402C43.6174 51.868 43.7683 51.5868 43.9046 51.2976C43.9197 51.29 43.9365 51.286 43.9534 51.286C43.9705 51.286 43.9873 51.29 44.0025 51.2976L44.0025 51.2975L44.0025 51.2976C44.0025 51.2977 44.0026 51.2977 44.0026 51.2977C44.1397 51.5878 44.2915 51.8698 44.4569 52.1428C45.1373 53.2649 46.0502 54.234 47.139 54.9818C47.3052 55.096 47.4747 55.2045 47.6473 55.3072C48.9286 56.0698 50.3777 56.514 51.8723 56.5982L51.9174 56.6007L43.3595 53.3631C42.6287 54.3653 41.7031 55.2149 40.6343 55.8588C39.246 56.6952 37.6638 57.1557 36.0436 57.195M28.9561 50.724C28.936 50.6877 28.9118 50.6537 28.8841 50.6228M28.9561 50.724L28.5849 50.8914L28.5398 50.9117L28.8841 50.6228M27.6668 50.4923C27.6322 50.532 27.6028 50.5758 27.5791 50.6228C27.5483 50.6569 27.5218 50.6947 27.5003 50.7353M27.6668 50.4923L27.9121 50.7452L27.9986 50.8345L28.1031 50.9423L28.0735 50.992L27.9121 50.9197L27.9048 50.9164L27.5003 50.7353M27.6668 50.4923L27.9121 50.7059L28.1091 50.8776L28.1305 50.8962L28.5398 50.3123H28.5263C28.4873 50.3008 28.4474 50.2925 28.4071 50.2875C28.2432 50.2422 28.0689 50.2533 27.9121 50.319C27.8984 50.319 27.8881 50.3298 27.8775 50.3408C27.8707 50.3479 27.8638 50.3551 27.8558 50.3595C27.7862 50.3936 27.7224 50.4384 27.6668 50.4923ZM27.5003 50.7353L27.9121 50.9538L27.9952 50.9979L28.0521 51.0281M27.5003 50.7353C26.8846 52.1102 25.9043 53.2904 24.6656 54.1479C23.427 55.0054 21.9772 55.5075 20.4736 55.5998L28.0521 51.0281M28.0521 51.0281L28.0439 51.0418L28.0269 51.0703L28.0075 51.1031C28.004 51.0974 28.0007 51.0916 27.9976 51.0857L28.0071 51.1038L27.9121 51.2636L27.3742 52.1683C26.7811 53.1659 25.9854 54.0246 25.0413 54.6906C24.8458 54.8284 24.6439 54.9581 24.4362 55.079C23.2415 55.7742 21.8912 56.1575 20.51 56.1939L28.0521 51.0281ZM36.0436 57.195L36.0289 56.5915L24.9392 55.9433C25.9818 55.3365 26.8925 54.5333 27.6225 53.5817C27.5383 53.4553 27.4568 53.3269 27.378 53.1966L28.2338 52.6793L29.0934 53.1903C29.0154 53.3214 28.9347 53.4506 28.8511 53.5778C29.5905 54.53 30.5092 55.3332 31.5587 55.9401C32.9241 56.7296 34.4668 57.1613 36.0436 57.195ZM28.8841 50.6228C28.8573 50.5715 28.824 50.5238 28.7851 50.481L28.8841 50.6228Z" stroke="#058FA2" stroke-width="2"/>
<mask id="path-4-inside-2_2_27780" fill="white">
<path d="M67.4986 64.8607C65.9853 64.7755 64.5245 64.2766 63.2751 63.4185C62.0258 62.5603 61.0359 61.3758 60.4133 59.994C60.3548 59.9148 60.2978 59.8345 60.2423 59.7532C60.1987 59.7169 60.1521 59.6846 60.1028 59.6565C60.0694 59.6292 60.034 59.6044 59.9971 59.5822H59.9813C59.9399 59.5708 59.8978 59.5618 59.8553 59.5552C59.7959 59.5375 59.7348 59.5262 59.6731 59.5215H59.6551C59.5576 59.5243 59.4616 59.5448 59.3716 59.5822H59.3603C59.3361 59.5982 59.3129 59.6155 59.2906 59.634C59.2272 59.6658 59.1688 59.7067 59.1173 59.7555C59.0812 59.7966 59.0502 59.8419 59.0251 59.8905C58.9965 59.9237 58.9716 59.9599 58.9508 59.9985C58.3339 61.3711 57.3537 62.549 56.1161 63.4051C54.8785 64.2613 53.4305 64.763 51.9286 64.8562C50.4153 64.771 48.9545 64.2721 47.7051 63.414C46.4558 62.5558 45.4659 61.3713 44.8433 59.9895C44.7401 59.8508 44.6059 59.7381 44.4514 59.6605C44.2968 59.5829 44.1263 59.5425 43.9534 59.5425C43.7805 59.5425 43.61 59.5829 43.4555 59.6605C43.301 59.7381 43.1668 59.8508 43.0636 59.9895C42.4474 61.3622 41.4677 62.5403 40.2304 63.3965C38.9932 64.2527 37.5453 64.7544 36.0436 64.8472C34.53 64.7621 33.0688 64.2633 31.8191 63.4052C30.5694 62.5471 29.5791 61.3625 28.9561 59.9805C28.9362 59.9452 28.9128 59.9121 28.8863 59.8815C28.858 59.8299 28.8241 59.7816 28.7851 59.7375C28.7424 59.7006 28.6956 59.6689 28.6456 59.643C28.6127 59.615 28.5773 59.5901 28.5398 59.5687H28.5263C28.4814 59.5555 28.4355 59.5457 28.3891 59.5395C28.2302 59.5013 28.0634 59.5139 27.9121 59.5755C27.8939 59.587 27.8766 59.5998 27.8603 59.6137C27.7888 59.6498 27.7228 59.696 27.6646 59.751C27.6322 59.7889 27.6043 59.8305 27.5813 59.8747C27.551 59.9113 27.5239 59.9505 27.5003 59.9917C26.8852 61.3675 25.9052 62.5486 24.6665 63.4069C23.4278 64.2653 21.9777 64.768 20.4736 64.8607C18.9601 64.7754 17.4989 64.2765 16.2493 63.4184C14.9996 62.5603 14.0093 61.3758 13.3861 59.994C13.3079 59.8236 13.1719 59.6865 13.0021 59.607C12.8324 59.5274 12.64 59.5107 12.4591 59.5597C12.2747 59.5073 12.0775 59.5241 11.9047 59.607C11.7319 59.6899 11.5953 59.8331 11.5208 60.0097C10.9029 61.381 9.92233 62.5576 8.6848 63.4125C7.44727 64.2674 5.9998 64.7681 4.49856 64.8607C4.29434 64.8716 4.10207 64.9603 3.96135 65.1087C3.82063 65.2571 3.74219 65.4538 3.74219 65.6583C3.74219 65.8628 3.82063 66.0596 3.96135 66.208C4.10207 66.3564 4.29434 66.4451 4.49856 66.456C6.1319 66.4154 7.72619 65.9481 9.12307 65.1007C10.5199 64.2533 11.6708 63.0551 12.4613 61.6252C13.2652 63.0544 14.426 64.2507 15.8303 65.0974C17.2346 65.944 18.8344 66.4121 20.4736 66.456C22.0443 66.4252 23.5813 65.9944 24.9392 65.2042C26.297 64.414 27.431 63.2907 28.2338 61.9402C29.0497 63.2899 30.1934 64.4116 31.5587 65.2011C32.9241 65.9905 34.4668 66.4222 36.0436 66.456C37.663 66.4175 39.2445 65.9584 40.6327 65.1236C42.0209 64.2889 43.168 63.1073 43.9613 61.695C44.7676 63.1069 45.9245 64.2869 47.3202 65.121C48.7159 65.955 50.3032 66.4148 51.9286 66.456C53.4996 66.4265 55.037 65.9962 56.3951 65.2059C57.7532 64.4156 58.887 63.2915 59.6888 61.9402C60.505 63.2896 61.6488 64.4111 63.0141 65.2005C64.3793 65.9899 65.9219 66.4218 67.4986 66.456C67.7028 66.4451 67.8951 66.3564 68.0358 66.208C68.1765 66.0596 68.2549 65.8628 68.2549 65.6583C68.2549 65.4538 68.1765 65.2571 68.0358 65.1087C67.8951 64.9603 67.7028 64.8716 67.4986 64.8607Z"/>
</mask>
<path d="M67.4986 64.8607L67.3861 66.8576L67.3924 66.8579L67.4986 64.8607ZM60.4133 59.994L62.2368 59.1724L62.1488 58.9771L62.0214 58.8048L60.4133 59.994ZM60.2423 59.7532L61.8947 58.6265L61.737 58.3952L61.5219 58.2161L60.2423 59.7532ZM60.1028 59.6565L58.839 61.2066L58.9675 61.3114L59.1116 61.3936L60.1028 59.6565ZM59.9971 59.5822L61.0259 57.8671L60.5509 57.5822H59.9971V59.5822ZM59.9813 59.5822L59.452 61.5109L59.7119 61.5822H59.9813V59.5822ZM59.8553 59.5552L59.2823 61.4714L59.413 61.5105L59.5478 61.5314L59.8553 59.5552ZM59.6731 59.5215L59.8242 57.5272L59.7487 57.5215H59.6731V59.5215ZM59.6551 59.5215V57.5215H59.6265L59.5979 57.5223L59.6551 59.5215ZM59.3716 59.5822V61.5822H59.7703L60.1386 61.4293L59.3716 59.5822ZM59.3603 59.5822V57.5822H58.7592L58.2577 57.9136L59.3603 59.5822ZM59.2906 59.634L60.1883 61.4212L60.3922 61.3187L60.5678 61.173L59.2906 59.634ZM59.1173 59.7555L57.7428 58.3026L57.6758 58.3661L57.6148 58.4354L59.1173 59.7555ZM59.0251 59.8905L60.5423 61.1935L60.6939 61.017L60.8009 60.8105L59.0251 59.8905ZM58.9508 59.9985L57.1909 59.0484L57.1564 59.1123L57.1266 59.1786L58.9508 59.9985ZM51.9286 64.8562L51.8161 66.8531L51.9343 66.8597L52.0524 66.8524L51.9286 64.8562ZM44.8433 59.9895L46.6668 59.1679L46.5775 58.9698L46.4478 58.7954L44.8433 59.9895ZM43.9534 59.5425V57.5425V59.5425ZM43.0636 59.9895L41.4591 58.7954L41.3285 58.9709L41.2389 59.1705L43.0636 59.9895ZM36.0436 64.8472L35.9313 66.8441L36.0492 66.8507L36.167 66.8434L36.0436 64.8472ZM28.9561 59.9805L30.7794 59.1585L30.7423 59.0764L30.6981 58.9979L28.9561 59.9805ZM28.8863 59.8815L27.1325 60.8429L27.2351 61.0299L27.3748 61.1912L28.8863 59.8815ZM28.7851 59.7375L30.2831 58.4124L30.1938 58.3114L30.0917 58.2233L28.7851 59.7375ZM28.6456 59.643L27.3478 61.1647L27.5214 61.3128L27.724 61.418L28.6456 59.643ZM28.5398 59.5687L29.5304 57.8313L29.0699 57.5687H28.5398V59.5687ZM28.5263 59.5687L27.9629 61.4877L28.2388 61.5687H28.5263V59.5687ZM28.3891 59.5395L27.9214 61.484L28.0203 61.5078L28.1211 61.5214L28.3891 59.5395ZM27.9121 59.5755L27.1578 57.7231L26.9923 57.7905L26.8413 57.8862L27.9121 59.5755ZM27.8603 59.6137L28.7608 61.3995L28.9771 61.2905L29.1611 61.133L27.8603 59.6137ZM27.6646 59.751L26.2926 58.2958L26.2127 58.3711L26.1415 58.4547L27.6646 59.751ZM27.5813 59.8747L29.1227 61.1492L29.2581 60.9854L29.356 60.7969L27.5813 59.8747ZM27.5003 59.9917L25.7649 58.9976L25.7152 59.0843L25.6745 59.1754L27.5003 59.9917ZM20.4736 64.8607L20.361 66.8575L20.4788 66.8642L20.5966 66.8569L20.4736 64.8607ZM13.3861 59.994L15.2093 59.1717L15.204 59.1602L13.3861 59.994ZM12.4591 59.5597L11.912 61.4835L12.4461 61.6353L12.9821 61.4901L12.4591 59.5597ZM11.5208 60.0097L13.3443 60.8313L13.3541 60.8094L13.3635 60.7873L11.5208 60.0097ZM4.49856 64.8607L4.60467 66.8579L4.61317 66.8574L4.62166 66.8569L4.49856 64.8607ZM3.74219 65.6583H5.74219H3.74219ZM4.49856 66.456L4.39245 68.4531L4.47031 68.4573L4.54825 68.4553L4.49856 66.456ZM12.4613 61.6252L14.2044 60.6447L12.4462 57.5189L10.711 60.6576L12.4613 61.6252ZM20.4736 66.456L20.4201 68.4553L20.4664 68.4565L20.5127 68.4556L20.4736 66.456ZM28.2338 61.9402L29.9454 60.9056L28.2195 58.0505L26.5147 60.9182L28.2338 61.9402ZM36.0436 66.456L36.0007 68.4555L36.0459 68.4565L36.091 68.4554L36.0436 66.456ZM43.9613 61.695L45.6981 60.7032L43.947 57.6365L42.2175 60.7155L43.9613 61.695ZM51.9286 66.456L51.878 68.4553L51.922 68.4564L51.9661 68.4556L51.9286 66.456ZM59.6888 61.9402L61.4001 60.9051L59.6724 58.0487L57.9688 60.9196L59.6888 61.9402ZM67.4986 66.456L67.4552 68.4555L67.53 68.4571L67.6047 68.4531L67.4986 66.456ZM67.6111 62.8639C66.4632 62.7992 65.3551 62.4208 64.4075 61.7699L62.1428 65.067C63.6938 66.1324 65.5074 66.7517 67.3861 66.8576L67.6111 62.8639ZM64.4075 61.7699C63.4599 61.119 62.709 60.2205 62.2368 59.1724L58.5899 60.8156C59.3629 62.5311 60.5918 64.0017 62.1428 65.067L64.4075 61.7699ZM62.0214 58.8048C61.978 58.7462 61.9358 58.6867 61.8947 58.6265L58.5899 60.8799C58.6597 60.9824 58.7315 61.0834 58.8052 61.1831L62.0214 58.8048ZM61.5219 58.2161C61.3882 58.1048 61.245 58.0055 61.094 57.9194L59.1116 61.3936C59.0591 61.3636 59.0093 61.329 58.9627 61.2903L61.5219 58.2161ZM61.3666 58.1064C61.2589 58.0185 61.145 57.9386 61.0259 57.8671L58.9683 61.2973C58.9231 61.2702 58.8799 61.2399 58.839 61.2066L61.3666 58.1064ZM59.9971 57.5822H59.9813V61.5822H59.9971V57.5822ZM60.5106 57.6535C60.3962 57.6221 60.2801 57.5973 60.1628 57.579L59.5478 61.5314C59.5155 61.5264 59.4835 61.5195 59.452 61.5109L60.5106 57.6535ZM60.4283 57.6391C60.2315 57.5802 60.029 57.5427 59.8242 57.5272L59.5219 61.5157C59.4407 61.5096 59.3604 61.4947 59.2823 61.4714L60.4283 57.6391ZM59.6731 57.5215H59.6551V61.5215H59.6731V57.5215ZM59.5979 57.5223C59.2565 57.532 58.9199 57.6042 58.6045 57.7351L60.1386 61.4293C60.0032 61.4855 59.8587 61.5165 59.7122 61.5207L59.5979 57.5223ZM59.3716 57.5822H59.3603V61.5822H59.3716V57.5822ZM58.2577 57.9136C58.1731 57.9695 58.0915 58.03 58.0133 58.0949L60.5678 61.173C60.5342 61.2009 60.4992 61.2269 60.4629 61.2508L58.2577 57.9136ZM58.3928 57.8468C58.155 57.9662 57.936 58.1198 57.7428 58.3026L60.4918 61.2083C60.4016 61.2937 60.2993 61.3654 60.1883 61.4212L58.3928 57.8468ZM57.6148 58.4354C57.4718 58.5982 57.349 58.7779 57.2493 58.9704L60.8009 60.8105C60.7514 60.9059 60.6906 60.9949 60.6198 61.0755L57.6148 58.4354ZM57.5078 58.5875C57.3859 58.7294 57.2797 58.8839 57.1909 59.0484L60.7107 60.9485C60.6636 61.0359 60.6071 61.118 60.5423 61.1935L57.5078 58.5875ZM57.1266 59.1786C56.6591 60.2188 55.9162 61.1115 54.9783 61.7603L57.2539 65.0499C58.7912 63.9865 60.0087 62.5233 60.775 60.8184L57.1266 59.1786ZM54.9783 61.7603C54.0403 62.4092 52.943 62.7894 51.8047 62.8601L52.0524 66.8524C53.9181 66.7366 55.7166 66.1134 57.2539 65.0499L54.9783 61.7603ZM52.0411 62.8594C50.8932 62.7947 49.7851 62.4163 48.8375 61.7654L46.5728 65.0625C48.1238 66.1279 49.9374 66.7472 51.8161 66.8531L52.0411 62.8594ZM48.8375 61.7654C47.8899 61.1145 47.139 60.216 46.6668 59.1679L43.0199 60.8111C43.7929 62.5266 45.0218 63.9972 46.5728 65.0625L48.8375 61.7654ZM46.4478 58.7954C46.1584 58.4066 45.7822 58.0909 45.3491 57.8733L43.5536 61.4477C43.4295 61.3853 43.3217 61.2949 43.2388 61.1835L46.4478 58.7954ZM45.3491 57.8733C44.916 57.6558 44.4381 57.5425 43.9534 57.5425V61.5425C43.8146 61.5425 43.6777 61.51 43.5536 61.4477L45.3491 57.8733ZM43.9534 57.5425C43.4688 57.5425 42.9908 57.6558 42.5578 57.8733L44.3533 61.4477C44.2292 61.51 44.0923 61.5425 43.9534 61.5425V57.5425ZM42.5578 57.8733C42.1247 58.0909 41.7484 58.4066 41.4591 58.7954L44.668 61.1835C44.5851 61.2949 44.4773 61.3853 44.3533 61.4477L42.5578 57.8733ZM41.2389 59.1705C40.7721 60.2105 40.0298 61.1032 39.0924 61.7519L41.3685 65.0411C42.9056 63.9775 44.1227 62.5138 44.8882 60.8084L41.2389 59.1705ZM39.0924 61.7519C38.1549 62.4006 37.058 62.7807 35.9201 62.851L36.167 66.8434C38.0327 66.728 39.8314 66.1048 41.3685 65.0411L39.0924 61.7519ZM36.1558 62.8504C35.0077 62.7858 33.8992 62.4075 32.9512 61.7565L30.6869 65.0539C32.2383 66.1192 34.0523 66.7384 35.9313 66.8441L36.1558 62.8504ZM32.9512 61.7565C32.0032 61.1055 31.252 60.2069 30.7794 59.1585L27.1328 60.8024C27.9062 62.5181 29.1355 63.9886 30.6869 65.0539L32.9512 61.7565ZM30.6981 58.9979C30.6125 58.8462 30.5119 58.7034 30.3978 58.5718L27.3748 61.1912C27.3137 61.1207 27.2599 61.0442 27.2141 60.963L30.6981 58.9979ZM30.6401 58.9201C30.5403 58.7381 30.4206 58.5679 30.2831 58.4124L27.287 61.0625C27.2275 60.9952 27.1757 60.9216 27.1325 60.8429L30.6401 58.9201ZM30.0917 58.2233C29.9313 58.0848 29.7552 57.9656 29.5671 57.8679L27.724 61.418C27.636 61.3723 27.5535 61.3164 27.4784 61.2516L30.0917 58.2233ZM29.9433 58.1212C29.8151 58.0118 29.6768 57.9147 29.5304 57.8313L27.5492 61.3062C27.4778 61.2655 27.4104 61.2181 27.3478 61.1647L29.9433 58.1212ZM28.5398 57.5687H28.5263V61.5687H28.5398V57.5687ZM29.0897 57.6497C28.948 57.6081 28.8034 57.5773 28.657 57.5575L28.1211 61.5214C28.0676 61.5142 28.0147 61.5029 27.9629 61.4877L29.0897 57.6497ZM28.8567 57.5949C28.291 57.4588 27.6968 57.5037 27.1578 57.7231L28.6663 61.4278C28.43 61.524 28.1695 61.5437 27.9214 61.484L28.8567 57.5949ZM26.8413 57.8862C26.7425 57.9489 26.6484 58.0185 26.5596 58.0945L29.1611 61.133C29.1049 61.181 29.0453 61.2251 28.9828 61.2647L26.8413 57.8862ZM26.9599 57.8279C26.7161 57.9508 26.4913 58.1084 26.2926 58.2958L29.0366 61.2062C28.9544 61.2836 28.8615 61.3488 28.7608 61.3995L26.9599 57.8279ZM26.1415 58.4547C26.0115 58.6075 25.8991 58.7745 25.8066 58.9526L29.356 60.7969C29.3095 60.8864 29.253 60.9704 29.1876 61.0473L26.1415 58.4547ZM26.0399 58.6003C25.9371 58.7246 25.8451 58.8576 25.7649 58.9976L29.2357 60.9858C29.2028 61.0434 29.1649 61.098 29.1227 61.1492L26.0399 58.6003ZM25.6745 59.1754C25.2085 60.2178 24.4659 61.1127 23.5274 61.763L25.8056 65.0508C27.3445 63.9845 28.562 62.5172 29.3261 60.808L25.6745 59.1754ZM23.5274 61.763C22.5889 62.4133 21.4902 62.7943 20.3506 62.8645L20.5966 66.8569C22.4652 66.7418 24.2667 66.1172 25.8056 65.0508L23.5274 61.763ZM20.5862 62.8639C19.4379 62.7991 18.3295 62.4207 17.3814 61.7697L15.1172 65.0671C16.6684 66.1323 18.4822 66.7516 20.361 66.8575L20.5862 62.8639ZM17.3814 61.7697C16.4334 61.1187 15.682 60.2201 15.2092 59.1717L11.5629 60.8162C12.3365 62.5316 13.5659 64.0019 15.1172 65.0671L17.3814 61.7697ZM15.204 59.1602C14.9285 58.5595 14.4489 58.0761 13.8506 57.7958L12.1537 61.4181C11.8948 61.2968 11.6874 61.0876 11.5682 60.8278L15.204 59.1602ZM13.8506 57.7958C13.2522 57.5155 12.5738 57.4565 11.936 57.6293L12.9821 61.4901C12.7061 61.5649 12.4126 61.5394 12.1537 61.4181L13.8506 57.7958ZM13.0061 57.636C12.3522 57.45 11.6528 57.5097 11.0398 57.8037L12.7696 61.4103C12.5022 61.5385 12.1972 61.5645 11.912 61.4835L13.0061 57.636ZM11.0398 57.8037C10.4268 58.0977 9.94249 58.6057 9.67816 59.2321L13.3635 60.7873C13.2482 61.0605 13.0369 61.2821 12.7696 61.4103L11.0398 57.8037ZM9.69736 59.1881C9.22909 60.2274 8.48593 61.1191 7.54805 61.767L9.82155 65.0581C11.3587 63.9962 12.5768 62.5347 13.3443 60.8313L9.69736 59.1881ZM7.54805 61.767C6.61018 62.4149 5.5132 62.7943 4.37546 62.8645L4.62166 66.8569C6.48641 66.7419 8.28437 66.1199 9.82155 65.0581L7.54805 61.767ZM4.39245 62.8635C3.67688 62.9016 3.00316 63.2126 2.5101 63.7325L5.41259 66.4849C5.20097 66.7081 4.9118 66.8416 4.60467 66.8579L4.39245 62.8635ZM2.5101 63.7325C2.01704 64.2525 1.74219 64.9418 1.74219 65.6583H5.74219C5.74219 65.9659 5.62422 66.2617 5.41259 66.4849L2.5101 63.7325ZM1.74219 65.6583C1.74219 66.3749 2.01703 67.0642 2.5101 67.5841L5.41259 64.8318C5.62422 65.0549 5.74219 65.3508 5.74219 65.6583H1.74219ZM2.5101 67.5841C3.00318 68.1041 3.67691 68.4151 4.39245 68.4531L4.60467 64.4588C4.91178 64.4751 5.20095 64.6086 5.41259 64.8318L2.5101 67.5841ZM4.54825 68.4553C6.53043 68.4061 8.46522 67.8391 10.1604 66.8106L8.0857 63.3908C6.98716 64.0572 5.73336 64.4247 4.44886 64.4566L4.54825 68.4553ZM10.1604 66.8106C11.8556 65.7822 13.2523 64.3281 14.2116 62.5929L10.711 60.6576C10.0893 61.782 9.18425 62.7243 8.0857 63.3908L10.1604 66.8106ZM10.7182 62.6058C11.6916 64.3363 13.0972 65.7849 14.7976 66.8101L16.8629 63.3846C15.7548 62.7165 14.8388 61.7725 14.2044 60.6447L10.7182 62.6058ZM14.7976 66.8101C16.498 67.8354 18.4352 68.4022 20.4201 68.4553L20.527 64.4567C19.2335 64.4221 17.9711 64.0527 16.8629 63.3846L14.7976 66.8101ZM20.5127 68.4556C22.4235 68.4182 24.2932 67.8941 25.9451 66.9328L23.9333 63.4756C22.8693 64.0947 21.6651 64.4322 20.4344 64.4563L20.5127 68.4556ZM25.9451 66.9328C27.5969 65.9716 28.9763 64.605 29.953 62.9622L26.5147 60.9182C25.8856 61.9763 24.9972 62.8565 23.9333 63.4756L25.9451 66.9328ZM26.5222 62.9749C27.5124 64.613 28.9005 65.9743 30.5576 66.9325L32.5599 63.4697C31.4863 62.8489 30.5869 61.9669 29.9454 60.9056L26.5222 62.9749ZM30.5576 66.9325C32.2147 67.8906 34.087 68.4145 36.0007 68.4555L36.0864 64.4564C34.8465 64.4299 33.6335 64.0904 32.5599 63.4697L30.5576 66.9325ZM36.091 68.4554C38.0574 68.4087 39.9777 67.8512 41.6633 66.8376L39.6021 63.4096C38.5113 64.0655 37.2686 64.4263 35.9961 64.4565L36.091 68.4554ZM41.6633 66.8376C43.349 65.8241 44.7418 64.3893 45.7051 62.6744L42.2175 60.7155C41.5942 61.8253 40.6929 62.7537 39.6021 63.4096L41.6633 66.8376ZM42.2245 62.6867C43.2014 64.3975 44.6031 65.8273 46.2942 66.8378L48.3461 63.4042C47.2458 62.7466 46.3337 61.8163 45.6981 60.7032L42.2245 62.6867ZM46.2942 66.8378C47.9853 67.8484 49.9086 68.4055 51.878 68.4553L51.9792 64.4566C50.6978 64.4242 49.4464 64.0617 48.3461 63.4042L46.2942 66.8378ZM51.9661 68.4556C53.8777 68.4197 55.7485 67.8961 57.401 66.9345L55.3892 63.4773C54.3256 64.0962 53.1214 64.4332 51.891 64.4563L51.9661 68.4556ZM57.401 66.9345C59.0536 65.9729 60.4331 64.6051 61.4088 62.9608L57.9688 60.9196C57.3408 61.9779 56.4529 62.8583 55.3892 63.4773L57.401 66.9345ZM57.9775 62.9753C58.968 64.6129 60.3561 65.9739 62.0129 66.9319L64.0152 63.4691C62.9415 62.8483 62.042 61.9664 61.4001 60.9051L57.9775 62.9753ZM62.0129 66.9319C63.6698 67.8899 65.5418 68.414 67.4552 68.4555L67.5419 64.4564C66.302 64.4295 65.0889 64.0899 64.0152 63.4691L62.0129 66.9319ZM67.6047 68.4531C68.3202 68.4151 68.9939 68.1041 69.487 67.5841L66.5845 64.8318C66.7962 64.6086 67.0853 64.4751 67.3924 64.4588L67.6047 68.4531ZM69.487 67.5841C69.9801 67.0642 70.2549 66.3749 70.2549 65.6583H66.2549C66.2549 65.3508 66.3729 65.055 66.5845 64.8318L69.487 67.5841ZM70.2549 65.6583C70.2549 64.9418 69.9801 64.2525 69.487 63.7325L66.5845 66.4849C66.3729 66.2617 66.2549 65.9659 66.2549 65.6583H70.2549ZM69.487 63.7325C68.9939 63.2126 68.3202 62.9016 67.6047 62.8635L67.3924 66.8579C67.0853 66.8416 66.7962 66.7081 66.5845 66.4849L69.487 63.7325Z" fill="#058FA2" mask="url(#path-4-inside-2_2_27780)"/>
</svg>
