<svg width="120" height="120" viewBox="0 0 120 120" fill="none" xmlns="http://www.w3.org/2000/svg">
<mask id="path-1-inside-1_2_27645" fill="white">
<path d="M6.25 54.2976H11.37V106.798C11.37 107.485 11.93 108.048 12.62 108.048C13.31 108.048 13.87 107.485 13.87 106.798V54.2976H31.8425V65.0776C31.8425 65.7701 32.4025 66.3276 33.0925 66.3276H86.9025C87.59 66.3276 88.1525 65.7701 88.1525 65.0776V54.2976H106.125V106.798C106.125 107.485 106.683 108.048 107.375 108.048C108.062 108.048 108.625 107.485 108.625 106.798V54.2976H113.75C114.438 54.2976 115 53.7376 115 53.0476C115 52.3576 114.438 51.7976 113.75 51.7976H86.91H70.0925C67.9725 50.2201 66.395 48.0676 65.4825 45.6076H74.8975C79.7225 45.6076 83.6475 41.6826 83.6475 36.8576V20.7026C83.6475 15.8776 79.7225 11.9526 74.8975 11.9526H45.105C40.28 11.9526 36.355 15.8776 36.355 20.7026V36.8551C36.355 41.6801 40.28 45.6051 45.105 45.6051H54.52C53.61 48.0651 52.03 50.2176 49.9125 51.7951H33.0975H6.25C5.56 51.7951 5 52.3551 5 53.0451C5 53.7351 5.5625 54.2976 6.25 54.2976ZM38.855 36.8576V20.7026C38.855 17.2576 41.66 14.4526 45.105 14.4526H74.8975C78.345 14.4526 81.1475 17.2576 81.1475 20.7026V36.8551C81.1475 40.3001 78.345 43.1051 74.8975 43.1051H45.105C41.66 43.1076 38.855 40.3026 38.855 36.8576ZM57.145 45.6076H62.855C63.5625 47.9201 64.755 50.0351 66.385 51.7976H53.615C55.245 50.0326 56.4375 47.9201 57.145 45.6076ZM85.66 54.2976V63.8276H34.3475V54.2976H85.66Z"/>
</mask>
<path d="M11.37 54.2976H14.37V51.2976H11.37V54.2976ZM13.87 54.2976V51.2976H10.87V54.2976H13.87ZM31.8425 54.2976H34.8425V51.2976H31.8425V54.2976ZM88.1525 54.2976V51.2976H85.1525V54.2976H88.1525ZM106.125 54.2976H109.125V51.2976H106.125V54.2976ZM108.625 54.2976V51.2976H105.625V54.2976H108.625ZM70.0925 51.7976L68.3016 54.2044L69.0988 54.7976H70.0925V51.7976ZM65.4825 45.6076V42.6076H61.17L62.6698 46.651L65.4825 45.6076ZM54.52 45.6051L57.3337 46.646L58.8284 42.6051H54.52V45.6051ZM49.9125 51.7951V54.7951H50.9071L51.7048 54.2009L49.9125 51.7951ZM45.105 43.1051V40.1051L45.1028 40.1051L45.105 43.1051ZM57.145 45.6076V42.6076H54.9256L54.2763 44.73L57.145 45.6076ZM62.855 45.6076L65.7237 44.73L65.0744 42.6076H62.855V45.6076ZM66.385 51.7976V54.7976H73.2458L68.5875 49.7607L66.385 51.7976ZM53.615 51.7976L51.4111 49.7623L46.7608 54.7976H53.615V51.7976ZM85.66 54.2976H88.66V51.2976H85.66V54.2976ZM85.66 63.8276V66.8276H88.66V63.8276H85.66ZM34.3475 63.8276H31.3475V66.8276H34.3475V63.8276ZM34.3475 54.2976V51.2976H31.3475V54.2976H34.3475ZM6.25 57.2976H11.37V51.2976H6.25V57.2976ZM8.37 54.2976V106.798H14.37V54.2976H8.37ZM8.37 106.798C8.37 109.138 10.2692 111.048 12.62 111.048V105.048C13.5908 105.048 14.37 105.832 14.37 106.798H8.37ZM12.62 111.048C14.9708 111.048 16.87 109.138 16.87 106.798H10.87C10.87 105.832 11.6492 105.048 12.62 105.048V111.048ZM16.87 106.798V54.2976H10.87V106.798H16.87ZM13.87 57.2976H31.8425V51.2976H13.87V57.2976ZM28.8425 54.2976V65.0776H34.8425V54.2976H28.8425ZM28.8425 65.0776C28.8425 67.4309 30.7496 69.3276 33.0925 69.3276V63.3276C34.0554 63.3276 34.8425 64.1094 34.8425 65.0776H28.8425ZM33.0925 69.3276H86.9025V63.3276H33.0925V69.3276ZM86.9025 69.3276C89.239 69.3276 91.1525 67.4348 91.1525 65.0776H85.1525C85.1525 64.1055 85.941 63.3276 86.9025 63.3276V69.3276ZM91.1525 65.0776V54.2976H85.1525V65.0776H91.1525ZM88.1525 57.2976H106.125V51.2976H88.1525V57.2976ZM103.125 54.2976V106.798H109.125V54.2976H103.125ZM103.125 106.798C103.125 109.134 105.018 111.048 107.375 111.048V105.048C108.347 105.048 109.125 105.836 109.125 106.798H103.125ZM107.375 111.048C109.719 111.048 111.625 109.142 111.625 106.798H105.625C105.625 105.828 106.406 105.048 107.375 105.048V111.048ZM111.625 106.798V54.2976H105.625V106.798H111.625ZM108.625 57.2976H113.75V51.2976H108.625V57.2976ZM113.75 57.2976C116.09 57.2976 118 55.3984 118 53.0476H112C112 52.0769 112.785 51.2976 113.75 51.2976V57.2976ZM118 53.0476C118 50.6969 116.09 48.7976 113.75 48.7976V54.7976C112.785 54.7976 112 54.0184 112 53.0476H118ZM113.75 48.7976H86.91V54.7976H113.75V48.7976ZM86.91 48.7976H70.0925V54.7976H86.91V48.7976ZM71.8834 49.3908C70.2452 48.1718 69.0133 46.5003 68.2952 44.5643L62.6698 46.651C63.7767 49.635 65.6998 52.2684 68.3016 54.2044L71.8834 49.3908ZM65.4825 48.6076H74.8975V42.6076H65.4825V48.6076ZM74.8975 48.6076C81.3794 48.6076 86.6475 43.3395 86.6475 36.8576H80.6475C80.6475 40.0258 78.0656 42.6076 74.8975 42.6076V48.6076ZM86.6475 36.8576V20.7026H80.6475V36.8576H86.6475ZM86.6475 20.7026C86.6475 14.2208 81.3794 8.95264 74.8975 8.95264V14.9526C78.0656 14.9526 80.6475 17.5345 80.6475 20.7026H86.6475ZM74.8975 8.95264H45.105V14.9526H74.8975V8.95264ZM45.105 8.95264C38.6231 8.95264 33.355 14.2208 33.355 20.7026H39.355C39.355 17.5345 41.9369 14.9526 45.105 14.9526V8.95264ZM33.355 20.7026V36.8551H39.355V20.7026H33.355ZM33.355 36.8551C33.355 43.337 38.6231 48.6051 45.105 48.6051V42.6051C41.9369 42.6051 39.355 40.0233 39.355 36.8551H33.355ZM45.105 48.6051H54.52V42.6051H45.105V48.6051ZM51.7063 44.5643C50.9914 46.4969 49.7583 48.169 48.1202 49.3894L51.7048 54.2009C54.3017 52.2663 56.2286 49.6334 57.3337 46.646L51.7063 44.5643ZM49.9125 48.7951H33.0975V54.7951H49.9125V48.7951ZM33.0975 48.7951H6.25V54.7951H33.0975V48.7951ZM6.25 48.7951C3.90315 48.7951 2 50.6983 2 53.0451H8C8 54.012 7.21685 54.7951 6.25 54.7951V48.7951ZM2 53.0451C2 55.3881 3.90175 57.2976 6.25 57.2976V51.2976C7.22325 51.2976 8 52.0822 8 53.0451H2ZM41.855 36.8576V20.7026H35.855V36.8576H41.855ZM41.855 20.7026C41.855 18.9145 43.3169 17.4526 45.105 17.4526V11.4526C40.0031 11.4526 35.855 15.6008 35.855 20.7026H41.855ZM45.105 17.4526H74.8975V11.4526H45.105V17.4526ZM74.8975 17.4526C76.6874 17.4526 78.1475 18.9137 78.1475 20.7026H84.1475C84.1475 15.6016 80.0026 11.4526 74.8975 11.4526V17.4526ZM78.1475 20.7026V36.8551H84.1475V20.7026H78.1475ZM78.1475 36.8551C78.1475 38.6441 76.6874 40.1051 74.8975 40.1051V46.1051C80.0026 46.1051 84.1475 41.9562 84.1475 36.8551H78.1475ZM74.8975 40.1051H45.105V46.1051H74.8975V40.1051ZM45.1028 40.1051C43.3168 40.1064 41.855 38.6462 41.855 36.8576H35.855C35.855 41.9591 40.0032 46.1088 45.1072 46.1051L45.1028 40.1051ZM57.145 48.6076H62.855V42.6076H57.145V48.6076ZM59.9863 46.4853C60.8202 49.2112 62.2334 51.727 64.1825 53.8346L68.5875 49.7607C67.2766 48.3433 66.3048 46.6291 65.7237 44.73L59.9863 46.4853ZM66.385 48.7976H53.615V54.7976H66.385V48.7976ZM55.8189 53.833C57.766 51.7246 59.1794 49.2125 60.0137 46.4853L54.2763 44.73C53.6956 46.6278 52.724 48.3406 51.4111 49.7623L55.8189 53.833ZM82.66 54.2976V63.8276H88.66V54.2976H82.66ZM85.66 60.8276H34.3475V66.8276H85.66V60.8276ZM37.3475 63.8276V54.2976H31.3475V63.8276H37.3475ZM34.3475 57.2976H85.66V51.2976H34.3475V57.2976Z" fill="#058FA2" mask="url(#path-1-inside-1_2_27645)"/>
<path d="M46.043 62.8799H73.9605C74.648 62.8799 75.2105 62.3174 75.2105 61.6299C75.2105 60.9374 74.648 60.3799 73.9605 60.3799H46.043C45.353 60.3799 44.793 60.9399 44.793 61.6299C44.793 62.3199 45.353 62.8799 46.043 62.8799Z" fill="#FDC114"/>
</svg>
