<svg width="81" height="81" viewBox="0 0 81 81" fill="none" xmlns="http://www.w3.org/2000/svg">
<g clip-path="url(#clip0_5105_7811)">
<mask id="path-1-inside-1_5105_7811" fill="white">
<path d="M18.1914 73.0918H76.261V56.3574H18.1914V73.0918ZM19.6136 57.78H74.8389V71.6697H19.6136V57.78Z"/>
</mask>
<path d="M18.1914 73.0918H13.1914V78.0918H18.1914V73.0918ZM76.261 73.0918V78.0918H81.261V73.0918H76.261ZM76.261 56.3574H81.261V51.3574H76.261V56.3574ZM18.1914 56.3574V51.3574H13.1914V56.3574H18.1914ZM19.6136 57.78V52.78H14.6136V57.78H19.6136ZM74.8389 57.78H79.8389V52.78H74.8389V57.78ZM74.8389 71.6697V76.6697H79.8389V71.6697H74.8389ZM19.6136 71.6697H14.6136V76.6697H19.6136V71.6697ZM18.1914 73.0918V78.0918H76.261V73.0918V68.0918H18.1914V73.0918ZM76.261 73.0918H81.261V56.3574H76.261H71.261V73.0918H76.261ZM76.261 56.3574V51.3574H18.1914V56.3574V61.3574H76.261V56.3574ZM18.1914 56.3574H13.1914V73.0918H18.1914H23.1914V56.3574H18.1914ZM19.6136 57.78V62.78H74.8389V57.78V52.78H19.6136V57.78ZM74.8389 57.78H69.8389V71.6697H74.8389H79.8389V57.78H74.8389ZM74.8389 71.6697V66.6697H19.6136V71.6697V76.6697H74.8389V71.6697ZM19.6136 71.6697H24.6136V57.78H19.6136H14.6136V71.6697H19.6136Z" fill="#058FA2" mask="url(#path-1-inside-1_5105_7811)"/>
<path d="M78.9942 3.16992H15.4553C14.3491 3.16992 13.4492 4.07004 13.4492 5.17598V51.0323C13.4492 51.2352 13.48 51.4313 13.5365 51.616H13.4492V77.8316H81V51.616H80.9129C80.9692 51.4311 81 51.2352 81 51.0323V39.606V25.7003V5.17598C81 4.07004 80.1001 3.16992 78.9942 3.16992ZM14.8714 5.17598C14.8714 4.85401 15.1333 4.59209 15.4553 4.59209H46.0288V11.7946H14.8714V5.17598ZM24.1432 17.9573C24.8402 17.9573 25.4073 18.5244 25.4073 19.2215V34.816C25.4073 34.8433 25.3852 34.8654 25.3579 34.8654H22.9284C22.9011 34.8654 22.879 34.8431 22.879 34.816V19.2215C22.879 18.5244 23.4461 17.9573 24.1432 17.9573ZM14.8714 13.2168H23.1808V16.7165C22.1742 17.1044 21.4568 18.0796 21.4568 19.2215V34.816C21.4568 35.6274 22.1168 36.2876 22.9284 36.2876H25.3579C26.1694 36.2876 26.8295 35.6274 26.8295 34.816V19.2215C26.8295 17.8973 25.8656 16.7967 24.6032 16.5774V13.2168H35.309V16.6373C34.1793 16.9549 33.348 17.9917 33.348 19.2215V34.816C33.348 35.6274 34.0081 36.2876 34.8195 36.2876H37.2491C38.0605 36.2876 38.7206 35.6274 38.7206 34.816V19.2215C38.7206 17.9816 37.875 16.9381 36.7312 16.63V13.2168H46.029V25.7003L46.0282 39.606L46.029 51.616H39.9854C40.1321 51.3035 40.2167 50.9559 40.2167 50.5883C40.2167 50.2284 40.1359 49.8877 39.9948 49.5801H40.5309C41.8711 49.5801 42.9615 48.4896 42.9615 47.1496C42.9615 45.8096 41.8711 44.7191 40.5309 44.7191H39.7094C39.8505 44.4113 39.9312 44.0708 39.9312 43.7109C39.9312 42.3707 38.8407 41.2804 37.5007 41.2804H22.1351C20.7949 41.2804 19.7046 42.3707 19.7046 43.7109C19.7046 45.0509 20.7949 46.1414 22.1351 46.1414H22.9566C22.8156 46.449 22.7348 46.7897 22.7348 47.1496C22.7348 47.5095 22.8156 47.8502 22.9566 48.1578H22.4206C21.0804 48.1578 19.99 49.2483 19.99 50.5883C19.99 50.9559 20.0746 51.3035 20.2211 51.616H15.4553C15.1333 51.616 14.8714 51.3543 14.8714 51.0323V13.2168ZM36.0341 17.9573C36.7312 17.9573 37.2983 18.5244 37.2983 19.2215V34.816C37.2983 34.8433 37.2761 34.8654 37.2489 34.8654H34.8193C34.7921 34.8654 34.7699 34.8431 34.7699 34.816V19.2215C34.7699 18.5244 35.337 17.9573 36.0341 17.9573ZM37.7861 48.1579H25.1652C24.6091 48.1579 24.157 47.7056 24.157 47.1498C24.157 46.5938 24.6093 46.1416 25.1652 46.1416H37.5007H40.5307C41.0868 46.1416 41.5389 46.5938 41.5389 47.1498C41.5389 47.7056 41.0866 48.1579 40.5307 48.1579H37.7861ZM38.7945 50.5883C38.7945 51.1441 38.3422 51.5965 37.7863 51.5965H22.4208C21.8647 51.5965 21.4126 51.1441 21.4126 50.5883C21.4126 50.0325 21.8649 49.5801 22.4208 49.5801H25.1655H37.7865C38.3422 49.5801 38.7945 50.0325 38.7945 50.5883ZM22.1351 44.7191C21.5791 44.7191 21.127 44.2667 21.127 43.7109C21.127 43.1551 21.5793 42.7025 22.1351 42.7025H37.5007C38.0565 42.7025 38.5089 43.1551 38.5089 43.7109C38.5089 44.2667 38.0565 44.7191 37.5007 44.7191H25.1652H22.1351ZM79.5778 76.4094H14.8714V53.0386H15.4553H78.9942H79.5778V76.4094ZM79.5778 51.0323C79.5778 51.3543 79.3161 51.616 78.9942 51.616H47.451V39.606H79.5776L79.5778 51.0323ZM79.5778 38.1838H47.451V27.1225H79.5776L79.5778 38.1838ZM79.5778 25.7003H47.451V4.59209H78.994C79.3159 4.59209 79.5776 4.85401 79.5776 5.17598L79.5778 25.7003Z" stroke="#058FA2" stroke-width="1.6" stroke-miterlimit="3.8637"/>
<mask id="path-4-inside-2_5105_7811" fill="white">
<path d="M50.135 64.0117H43.6562V65.4341H50.135V64.0117Z"/>
</mask>
<path d="M43.6562 64.0117V59.0117H38.6562V64.0117H43.6562ZM50.135 64.0117H55.135V59.0117H50.135V64.0117ZM50.135 65.4341V70.4341H55.135V65.4341H50.135ZM43.6562 65.4341H38.6562V70.4341H43.6562V65.4341ZM43.6562 64.0117V69.0117H50.135V64.0117V59.0117H43.6562V64.0117ZM50.135 64.0117H45.135V65.4341H50.135H55.135V64.0117H50.135ZM50.135 65.4341V60.4341H43.6562V65.4341V70.4341H50.135V65.4341ZM43.6562 65.4341H48.6562V64.0117H43.6562H38.6562V65.4341H43.6562Z" fill="#058FA2" mask="url(#path-4-inside-2_5105_7811)"/>
<rect x="18.8828" y="57.1074" width="56.6817" height="15.4796" stroke="#FDC114" stroke-width="2"/>
</g>
<defs>
<clipPath id="clip0_5105_7811">
<rect width="81" height="81" fill="white"/>
</clipPath>
</defs>
</svg>
