<svg width="74" height="81" viewBox="0 0 74 81" fill="none" xmlns="http://www.w3.org/2000/svg">
<path d="M6.11328 74.9841H67.5572V57.2773H6.11328V74.9841ZM7.61809 58.7826H66.0524V73.4793H7.61809V58.7826Z" stroke="#FDC114" stroke-width="2" stroke-miterlimit="3.8637"/>
<path d="M70.4473 1H3.21637C2.04596 1 1.09375 1.95242 1.09375 3.12262V51.6435C1.09375 51.8582 1.12635 52.0657 1.18613 52.2611H1.09375V80H72.5697V52.2611H72.4775C72.5371 52.0655 72.5697 51.8582 72.5697 51.6435V39.5532V24.8395V3.12262C72.5697 1.95242 71.6175 1 70.4473 1ZM2.59856 3.12262C2.59856 2.78195 2.8757 2.50481 3.21637 2.50481H35.5664V10.1258H2.59856V3.12262ZM12.4091 16.6467C13.1466 16.6467 13.7467 17.2467 13.7467 17.9843V34.4849C13.7467 34.5138 13.7233 34.5372 13.6944 34.5372H11.1237C11.0949 34.5372 11.0715 34.5136 11.0715 34.4849V17.9843C11.0715 17.2467 11.6715 16.6467 12.4091 16.6467ZM2.59856 11.6306H11.3908V15.3337C10.3258 15.7442 9.56666 16.7761 9.56666 17.9843V34.4849C9.56666 35.3435 10.2649 36.042 11.1237 36.042H13.6944C14.553 36.042 15.2515 35.3435 15.2515 34.4849V17.9843C15.2515 16.5831 14.2316 15.4186 12.8958 15.1866V11.6306H24.2237V15.2499C23.0284 15.586 22.1488 16.683 22.1488 17.9843V34.4849C22.1488 35.3435 22.8472 36.042 23.7058 36.042H26.2765C27.1351 36.042 27.8336 35.3435 27.8336 34.4849V17.9843C27.8336 16.6724 26.9389 15.5682 25.7285 15.2422V11.6306H35.5666V24.8395L35.5658 39.5532L35.5666 52.2611H29.1718C29.3271 51.9305 29.4166 51.5627 29.4166 51.1737C29.4166 50.7929 29.3311 50.4324 29.1819 50.107H29.7491C31.1672 50.107 32.3209 48.9531 32.3209 47.5352C32.3209 46.1173 31.1672 44.9634 29.7491 44.9634H28.8799C29.0291 44.6378 29.1146 44.2775 29.1146 43.8967C29.1146 42.4786 27.9607 41.3249 26.5428 41.3249H10.2844C8.8663 41.3249 7.71262 42.4786 7.71262 43.8967C7.71262 45.3146 8.8663 46.4685 10.2844 46.4685H11.1536C11.0044 46.7939 10.9189 47.1544 10.9189 47.5352C10.9189 47.916 11.0044 48.2765 11.1536 48.6019H10.5864C9.16831 48.6019 8.01462 49.7558 8.01462 51.1737C8.01462 51.5627 8.10407 51.9305 8.25915 52.2611H3.21637C2.8757 52.2611 2.59856 51.9842 2.59856 51.6435V11.6306ZM24.991 16.6467C25.7285 16.6467 26.3286 17.2467 26.3286 17.9843V34.4849C26.3286 34.5138 26.3052 34.5372 26.2763 34.5372H23.7056C23.6768 34.5372 23.6534 34.5136 23.6534 34.4849V17.9843C23.6534 17.2467 24.2534 16.6467 24.991 16.6467ZM26.8448 48.6021H13.4905C12.9021 48.6021 12.4237 48.1235 12.4237 47.5354C12.4237 46.9471 12.9023 46.4687 13.4905 46.4687H26.5428H29.7489C30.3372 46.4687 30.8156 46.9471 30.8156 47.5354C30.8156 48.1235 30.337 48.6021 29.7489 48.6021H26.8448ZM27.9118 51.1737C27.9118 51.7618 27.4331 52.2404 26.845 52.2404H10.5866C9.99825 52.2404 9.51985 51.7618 9.51985 51.1737C9.51985 50.5856 9.99846 50.107 10.5866 50.107H13.4909H26.8452C27.4331 50.107 27.9118 50.5856 27.9118 51.1737ZM10.2844 44.9634C9.69604 44.9634 9.21763 44.4848 9.21763 43.8967C9.21763 43.3086 9.69625 42.8297 10.2844 42.8297H26.5428C27.1309 42.8297 27.6095 43.3086 27.6095 43.8967C27.6095 44.4848 27.1309 44.9634 26.5428 44.9634H13.4905H10.2844ZM71.0649 78.4952H2.59856V53.7664H3.21637H70.4473H71.0649V78.4952ZM71.0649 51.6435C71.0649 51.9842 70.788 52.2611 70.4473 52.2611H37.0712V39.5532H71.0647L71.0649 51.6435ZM71.0649 38.0484H37.0712V26.3443H71.0647L71.0649 38.0484ZM71.0649 24.8395H37.0712V2.50481H70.4471C70.7878 2.50481 71.0647 2.78195 71.0647 3.12262L71.0649 24.8395Z" stroke="#058FA2" stroke-width="2" stroke-miterlimit="3.8637"/>
<path d="M39.9138 65.3779H33.0586V66.883H39.9138V65.3779Z" stroke="#FDC114" stroke-width="2" stroke-miterlimit="3.8637"/>
<rect x="6" y="57" width="62" height="18" stroke="#FDC114" stroke-width="2"/>
</svg>
