<svg width="81" height="81" viewBox="0 0 81 81" fill="none" xmlns="http://www.w3.org/2000/svg">
<mask id="path-1-inside-1_2_27693" fill="white">
<path d="M17.2461 66.6026H63.7559V53.1995H17.2461V66.6026ZM18.3852 54.3388H62.6169V65.4635H18.3852V54.3388Z"/>
</mask>
<path d="M17.2461 66.6026H15.2461V68.6026H17.2461V66.6026ZM63.7559 66.6026V68.6026H65.7559V66.6026H63.7559ZM63.7559 53.1995H65.7559V51.1995H63.7559V53.1995ZM17.2461 53.1995V51.1995H15.2461V53.1995H17.2461ZM18.3852 54.3388V52.3388H16.3852V54.3388H18.3852ZM62.6169 54.3388H64.6169V52.3388H62.6169V54.3388ZM62.6169 65.4635V67.4635H64.6169V65.4635H62.6169ZM18.3852 65.4635H16.3852V67.4635H18.3852V65.4635ZM17.2461 68.6026H63.7559V64.6026H17.2461V68.6026ZM65.7559 66.6026V53.1995H61.7559V66.6026H65.7559ZM63.7559 51.1995H17.2461V55.1995H63.7559V51.1995ZM15.2461 53.1995V66.6026H19.2461V53.1995H15.2461ZM18.3852 56.3388H62.6169V52.3388H18.3852V56.3388ZM60.6169 54.3388V65.4635H64.6169V54.3388H60.6169ZM62.6169 63.4635H18.3852V67.4635H62.6169V63.4635ZM20.3852 65.4635V54.3388H16.3852V65.4635H20.3852Z" fill="#058FA2" mask="url(#path-1-inside-1_2_27693)"/>
<mask id="path-3-inside-2_2_27693" fill="white">
<path d="M65.9462 10.6006H15.0559C14.17 10.6006 13.4492 11.3215 13.4492 12.2073V48.9351C13.4492 49.0976 13.4739 49.2547 13.5191 49.4026H13.4492V70.3995H67.5528V49.4026H67.483C67.5281 49.2545 67.5528 49.0976 67.5528 48.9351V39.7834V28.6459V12.2073C67.5528 11.3215 66.832 10.6006 65.9462 10.6006ZM14.5883 12.2073C14.5883 11.9494 14.7981 11.7396 15.0559 11.7396H39.5432V17.5084H14.5883V12.2073ZM22.0143 22.4443C22.5726 22.4443 23.0268 22.8985 23.0268 23.4568V35.9469C23.0268 35.9688 23.0091 35.9865 22.9873 35.9865H21.0414C21.0196 35.9865 21.0018 35.9686 21.0018 35.9469V23.4568C21.0018 22.8985 21.456 22.4443 22.0143 22.4443ZM14.5883 18.6474H21.2436V21.4505C20.4374 21.7612 19.8628 22.5422 19.8628 23.4568V35.9469C19.8628 36.5968 20.3913 37.1256 21.0414 37.1256H22.9873C23.6372 37.1256 24.1659 36.5968 24.1659 35.9469V23.4568C24.1659 22.3962 23.3939 21.5147 22.3828 21.3391V18.6474H30.9574V21.387C30.0526 21.6414 29.3868 22.4718 29.3868 23.4568V35.9469C29.3868 36.5968 29.9155 37.1256 30.5654 37.1256H32.5113C33.1612 37.1256 33.6899 36.5968 33.6899 35.9469V23.4568C33.6899 22.4638 33.0126 21.628 32.0965 21.3812V18.6474H39.5434V28.6459L39.5428 39.7834L39.5434 49.4026H34.7029C34.8204 49.1523 34.8881 48.8739 34.8881 48.5795C34.8881 48.2912 34.8234 48.0183 34.7105 47.772H35.1398C36.2132 47.772 37.0865 46.8986 37.0865 45.8253C37.0865 44.7521 36.2132 43.8786 35.1398 43.8786H34.4819C34.5948 43.6321 34.6595 43.3594 34.6595 43.0712C34.6595 41.9977 33.7861 41.1245 32.7128 41.1245H20.406C19.3326 41.1245 18.4594 41.9977 18.4594 43.0712C18.4594 44.1444 19.3326 45.0178 20.406 45.0178H21.064C20.9511 45.2642 20.8864 45.5371 20.8864 45.8253C20.8864 46.1136 20.9511 46.3865 21.064 46.6328H20.6346C19.5612 46.6328 18.688 47.5062 18.688 48.5795C18.688 48.8739 18.7557 49.1523 18.8731 49.4026H15.0559C14.7981 49.4026 14.5883 49.193 14.5883 48.9351V18.6474ZM31.5382 22.4443C32.0965 22.4443 32.5507 22.8985 32.5507 23.4568V35.9469C32.5507 35.9688 32.5329 35.9865 32.5111 35.9865H30.5652C30.5434 35.9865 30.5257 35.9686 30.5257 35.9469V23.4568C30.5257 22.8985 30.9799 22.4443 31.5382 22.4443ZM32.9414 46.6329H22.8329C22.3875 46.6329 22.0254 46.2706 22.0254 45.8255C22.0254 45.3801 22.3877 45.018 22.8329 45.018H32.7128H35.1397C35.585 45.018 35.9471 45.3801 35.9471 45.8255C35.9471 46.2706 35.5848 46.6329 35.1397 46.6329H32.9414ZM33.7491 48.5795C33.7491 49.0247 33.3868 49.3869 32.9416 49.3869H20.6348C20.1895 49.3869 19.8273 49.0247 19.8273 48.5795C19.8273 48.1343 20.1896 47.772 20.6348 47.772H22.8332H32.9417C33.3868 47.772 33.7491 48.1343 33.7491 48.5795ZM20.406 43.8786C19.9607 43.8786 19.5986 43.5163 19.5986 43.0712C19.5986 42.626 19.9609 42.2635 20.406 42.2635H32.7128C33.158 42.2635 33.5203 42.626 33.5203 43.0712C33.5203 43.5163 33.158 43.8786 32.7128 43.8786H22.8329H20.406ZM66.4137 69.2604H14.5883V50.542H15.0559H65.9462H66.4137V69.2604ZM66.4137 48.9351C66.4137 49.193 66.2041 49.4026 65.9462 49.4026H40.6823V39.7834H66.4136L66.4137 48.9351ZM66.4137 38.6443H40.6823V29.7849H66.4136L66.4137 38.6443ZM66.4137 28.6459H40.6823V11.7396H65.9461C66.204 11.7396 66.4136 11.9494 66.4136 12.2073L66.4137 28.6459Z"/>
</mask>
<path d="M65.9462 10.6006H15.0559C14.17 10.6006 13.4492 11.3215 13.4492 12.2073V48.9351C13.4492 49.0976 13.4739 49.2547 13.5191 49.4026H13.4492V70.3995H67.5528V49.4026H67.483C67.5281 49.2545 67.5528 49.0976 67.5528 48.9351V39.7834V28.6459V12.2073C67.5528 11.3215 66.832 10.6006 65.9462 10.6006ZM14.5883 12.2073C14.5883 11.9494 14.7981 11.7396 15.0559 11.7396H39.5432V17.5084H14.5883V12.2073ZM22.0143 22.4443C22.5726 22.4443 23.0268 22.8985 23.0268 23.4568V35.9469C23.0268 35.9688 23.0091 35.9865 22.9873 35.9865H21.0414C21.0196 35.9865 21.0018 35.9686 21.0018 35.9469V23.4568C21.0018 22.8985 21.456 22.4443 22.0143 22.4443ZM14.5883 18.6474H21.2436V21.4505C20.4374 21.7612 19.8628 22.5422 19.8628 23.4568V35.9469C19.8628 36.5968 20.3913 37.1256 21.0414 37.1256H22.9873C23.6372 37.1256 24.1659 36.5968 24.1659 35.9469V23.4568C24.1659 22.3962 23.3939 21.5147 22.3828 21.3391V18.6474H30.9574V21.387C30.0526 21.6414 29.3868 22.4718 29.3868 23.4568V35.9469C29.3868 36.5968 29.9155 37.1256 30.5654 37.1256H32.5113C33.1612 37.1256 33.6899 36.5968 33.6899 35.9469V23.4568C33.6899 22.4638 33.0126 21.628 32.0965 21.3812V18.6474H39.5434V28.6459L39.5428 39.7834L39.5434 49.4026H34.7029C34.8204 49.1523 34.8881 48.8739 34.8881 48.5795C34.8881 48.2912 34.8234 48.0183 34.7105 47.772H35.1398C36.2132 47.772 37.0865 46.8986 37.0865 45.8253C37.0865 44.7521 36.2132 43.8786 35.1398 43.8786H34.4819C34.5948 43.6321 34.6595 43.3594 34.6595 43.0712C34.6595 41.9977 33.7861 41.1245 32.7128 41.1245H20.406C19.3326 41.1245 18.4594 41.9977 18.4594 43.0712C18.4594 44.1444 19.3326 45.0178 20.406 45.0178H21.064C20.9511 45.2642 20.8864 45.5371 20.8864 45.8253C20.8864 46.1136 20.9511 46.3865 21.064 46.6328H20.6346C19.5612 46.6328 18.688 47.5062 18.688 48.5795C18.688 48.8739 18.7557 49.1523 18.8731 49.4026H15.0559C14.7981 49.4026 14.5883 49.193 14.5883 48.9351V18.6474ZM31.5382 22.4443C32.0965 22.4443 32.5507 22.8985 32.5507 23.4568V35.9469C32.5507 35.9688 32.5329 35.9865 32.5111 35.9865H30.5652C30.5434 35.9865 30.5257 35.9686 30.5257 35.9469V23.4568C30.5257 22.8985 30.9799 22.4443 31.5382 22.4443ZM32.9414 46.6329H22.8329C22.3875 46.6329 22.0254 46.2706 22.0254 45.8255C22.0254 45.3801 22.3877 45.018 22.8329 45.018H32.7128H35.1397C35.585 45.018 35.9471 45.3801 35.9471 45.8255C35.9471 46.2706 35.5848 46.6329 35.1397 46.6329H32.9414ZM33.7491 48.5795C33.7491 49.0247 33.3868 49.3869 32.9416 49.3869H20.6348C20.1895 49.3869 19.8273 49.0247 19.8273 48.5795C19.8273 48.1343 20.1896 47.772 20.6348 47.772H22.8332H32.9417C33.3868 47.772 33.7491 48.1343 33.7491 48.5795ZM20.406 43.8786C19.9607 43.8786 19.5986 43.5163 19.5986 43.0712C19.5986 42.626 19.9609 42.2635 20.406 42.2635H32.7128C33.158 42.2635 33.5203 42.626 33.5203 43.0712C33.5203 43.5163 33.158 43.8786 32.7128 43.8786H22.8329H20.406ZM66.4137 69.2604H14.5883V50.542H15.0559H65.9462H66.4137V69.2604ZM66.4137 48.9351C66.4137 49.193 66.2041 49.4026 65.9462 49.4026H40.6823V39.7834H66.4136L66.4137 48.9351ZM66.4137 38.6443H40.6823V29.7849H66.4136L66.4137 38.6443ZM66.4137 28.6459H40.6823V11.7396H65.9461C66.204 11.7396 66.4136 11.9494 66.4136 12.2073L66.4137 28.6459Z" stroke="#058FA2" stroke-width="4" stroke-miterlimit="3.8637" mask="url(#path-3-inside-2_2_27693)"/>
<mask id="path-4-inside-3_2_27693" fill="white">
<path d="M42.8336 59.3313H37.6445V60.4705H42.8336V59.3313Z"/>
</mask>
<path d="M37.6445 59.3313V57.3313H35.6445V59.3313H37.6445ZM42.8336 59.3313H44.8336V57.3313H42.8336V59.3313ZM42.8336 60.4705V62.4705H44.8336V60.4705H42.8336ZM37.6445 60.4705H35.6445V62.4705H37.6445V60.4705ZM37.6445 61.3313H42.8336V57.3313H37.6445V61.3313ZM40.8336 59.3313V60.4705H44.8336V59.3313H40.8336ZM42.8336 58.4705H37.6445V62.4705H42.8336V58.4705ZM39.6445 60.4705V59.3313H35.6445V60.4705H39.6445Z" fill="#058FA2" mask="url(#path-4-inside-3_2_27693)"/>
<rect x="17.5" y="53.5" width="46" height="13" stroke="#FDC114"/>
</svg>
