<svg width="111" height="111" viewBox="0 0 111 111" fill="none" xmlns="http://www.w3.org/2000/svg">
<path d="M55.5 109C85.0472 109 109 85.0472 109 55.5C109 25.9528 85.0472 2 55.5 2C25.9528 2 2 25.9528 2 55.5C2 85.0472 25.9528 109 55.5 109Z" stroke="#058FA2" stroke-width="4" stroke-miterlimit="10" stroke-linecap="round" stroke-linejoin="round"/>
<path d="M58.25 35V62.5061" stroke="#FDC114" stroke-width="4" stroke-miterlimit="10" stroke-linecap="round" stroke-linejoin="round"/>
<path d="M38 63.0039L58.5008 62.5039" stroke="#FDC114" stroke-width="4" stroke-miterlimit="10" stroke-linecap="round" stroke-linejoin="round"/>
<path d="M56.5 101C56.5 100.172 55.8284 99.5 55 99.5C54.1716 99.5 53.5 100.172 53.5 101H56.5ZM55 108.5H56.5V101H55H53.5V108.5H55Z" fill="#058FA2"/>
<path d="M10.5 59.5C11.3284 59.5 12 58.8284 12 58C12 57.1716 11.3284 56.5 10.5 56.5V59.5ZM3 58V59.5H10.5V58V56.5H3V58Z" fill="#058FA2"/>
<path d="M53.5 10.5C53.5 11.3284 54.1716 12 55 12C55.8284 12 56.5 11.3284 56.5 10.5H53.5ZM55 3L53.5 3V10.5H55H56.5V3L55 3Z" fill="#058FA2"/>
<path d="M100 56.5C99.1716 56.5 98.5 57.1716 98.5 58C98.5 58.8284 99.1716 59.5 100 59.5V56.5ZM107.5 58V56.5L100 56.5V58V59.5L107.5 59.5V58Z" fill="#058FA2"/>
</svg>
