<svg width="38" height="25" viewBox="0 0 38 25" fill="none" xmlns="http://www.w3.org/2000/svg">
<path d="M23.2225 16.1214C23.461 16.3193 23.614 16.7468 23.5555 17.0573L23.272 18.7761C23.2225 19.0866 23.398 19.208 23.668 19.0461L25.1529 18.1642C25.4183 17.9977 25.8683 17.9932 26.1383 18.1417L27.6636 18.9606C27.9426 19.1091 28.1136 18.9786 28.0461 18.6681L27.6861 16.9673C27.6231 16.6613 27.7581 16.2249 27.9831 16.0179L29.1934 14.8525C29.4229 14.6365 29.3554 14.4205 29.045 14.3845L27.3441 14.1821C27.0292 14.1506 26.6602 13.8851 26.5207 13.6061L25.7648 12.1168C25.6253 11.8423 25.4048 11.8423 25.2743 12.1258L24.5949 13.6466C24.4644 13.9391 24.109 14.2136 23.794 14.263L22.0932 14.5375C21.7872 14.5825 21.7242 14.803 21.9627 15.01L23.2225 16.1214ZM31.2857 6.55083C31.5242 6.74881 31.6772 7.17626 31.6187 7.48673L31.3352 9.20556C31.2857 9.51603 31.4612 9.63752 31.7312 9.47553L33.216 8.59362C33.4815 8.42714 33.9315 8.42264 34.2014 8.57112L35.7268 9.39004C36.0058 9.53852 36.1767 9.40804 36.1092 9.09757L35.7493 7.39674C35.6863 7.09077 35.8213 6.65432 36.0463 6.44734L37.2566 5.28195C37.4861 5.06598 37.4186 4.85 37.1082 4.814L35.4073 4.61152C35.0924 4.58002 34.7234 4.31455 34.5839 4.03558L33.828 2.54623C33.6885 2.27176 33.468 2.27176 33.3375 2.55523L32.6581 4.07608C32.5276 4.36855 32.1721 4.64302 31.8572 4.69251L30.1563 4.96699C29.8504 5.01648 29.7874 5.23246 30.0259 5.43944L31.2857 6.55083ZM16.4552 24.2115C17.1257 24.0721 18.822 23.5906 18.741 22.6637C18.6465 21.5388 16.2483 21.3093 15.4338 21.0754C8.80601 19.2036 7.50114 9.24605 12.3741 4.805C13.1076 4.13457 13.931 3.56763 14.7229 2.97369C15.1909 2.62272 16.7297 2.10977 16.5857 1.34035C16.3652 0.417944 13.7285 0.417944 13.0581 0.422443C10.5428 0.431442 8.01858 0.998385 5.78231 2.16827C2.53814 3.8646 0.405352 7.41024 0.0903833 10.9829C-0.224585 14.5285 0.193873 17.5342 2.79011 20.162C6.55173 23.9641 11.2808 25.3004 16.4552 24.2115Z" fill="#FCC21B"/>
</svg>
