<svg width="77" height="79" viewBox="0 0 77 79" fill="none" xmlns="http://www.w3.org/2000/svg">
<mask id="path-1-outside-1_2426_4017" maskUnits="userSpaceOnUse" x="-0.0507812" y="0" width="77" height="79" fill="black">
<rect fill="white" x="-0.0507812" width="77" height="79"/>
<path fill-rule="evenodd" clip-rule="evenodd" d="M4.78693 1.33425C3.52753 1.79466 2.13003 3.13355 1.51403 4.47028L0.949219 5.69563V39.4927V73.2898L1.50974 74.506C2.16528 75.9284 3.65231 77.306 4.95861 77.7012C6.27468 78.0996 53.0001 78.0996 54.3162 77.7012C55.6225 77.306 57.1095 75.9284 57.7651 74.506C58.3225 73.2968 58.3258 73.2379 58.328 64.2146L58.3303 55.1395L57.7351 54.7454C57.1864 54.3822 57.0938 54.382 56.5526 54.7401L55.9656 55.1286L55.8978 64.2522C55.8325 73.0445 55.8123 73.4 55.337 74.0543C55.0658 74.4276 54.4764 74.9231 54.0274 75.1555C53.2623 75.5515 51.7088 75.5741 29.3571 75.5163C5.65367 75.4552 5.49913 75.4516 4.83122 74.9566C4.46143 74.6826 3.97162 74.0872 3.74279 73.6336C3.35228 72.86 3.32633 70.7362 3.32633 39.4927C3.32633 8.2493 3.35228 6.12549 3.74279 5.35189C3.97162 4.89821 4.46143 4.30286 4.83122 4.02887C5.49913 3.53382 5.65367 3.53022 29.3571 3.46912C51.7088 3.41138 53.2623 3.434 54.0274 3.82994C54.4764 4.06231 55.0658 4.5576 55.337 4.93093C55.8013 5.57007 55.8342 5.97684 55.9006 11.9218L55.9709 18.234L53.9647 22.9098C52.8611 25.4815 50.2713 31.5366 48.2097 36.3656C46.1479 41.1946 43.0231 48.5013 41.2658 52.6026L38.0707 60.0596L38.14 65.6726L38.2096 71.2856L38.9873 71.987C39.5661 72.5092 40.0035 72.6884 40.6991 72.6884C41.7627 72.6884 42.0599 72.4578 46.812 67.9441L49.6998 65.2014L53.172 57.098C56.8578 48.4957 61.2089 38.3176 67.7423 23.0151C69.9454 17.8554 71.7794 13.5921 71.8177 13.5411C71.9048 13.4259 73.3316 14.0121 73.3316 14.1632C73.3316 14.2238 71.4029 18.7995 69.0455 24.3317C66.6882 29.8636 64.7595 34.6045 64.7595 34.8672C64.7595 35.5292 65.3205 35.9338 66.1117 35.8417C66.7501 35.7676 66.9782 35.2959 71.5034 24.699C75.3168 15.7689 76.1902 13.5238 76.0302 13.0634C75.8914 12.6646 75.3918 12.3114 74.367 11.8881C73.1545 11.3873 72.879 11.1664 72.7683 10.6072C72.6947 10.2355 72.4237 9.81744 72.1661 9.67816C71.7051 9.42895 71.707 9.40249 72.2765 7.98614C72.9656 6.27271 73.0018 5.07598 72.4039 3.77124C71.2565 1.26737 68.687 0.322256 66.257 1.51057C65.0831 2.08476 64.3185 3.01688 63.6634 4.67234C63.3591 5.44137 63.0717 5.81447 62.7831 5.81495C61.9326 5.81687 61.0049 6.5313 60.5312 7.55002C60.2672 8.11772 59.6907 9.44819 59.2502 10.5066L58.4494 12.431L58.3296 8.82277C58.2258 5.70261 58.1384 5.07983 57.6829 4.21794C57.0169 2.95819 55.5108 1.64576 54.3162 1.28421C52.9627 0.874557 5.91417 0.922186 4.78693 1.33425ZM67.1885 3.66276C66.578 3.91028 65.2878 6.46467 65.6255 6.75766C65.9255 7.01793 69.3263 8.49899 69.4158 8.40854C69.6877 8.13408 70.4742 5.91044 70.4742 5.4166C70.4742 5.0743 70.1754 4.51478 69.7782 4.11354C69.0529 3.38083 68.2352 3.23843 67.1885 3.66276ZM16.4013 7.80813C15.6533 8.38834 15.4695 9.15833 15.4695 11.712C15.4695 14.2209 15.4836 14.2861 16.1655 14.9753L16.8615 15.6784H24.1369H31.4123L31.8023 15.077C32.1636 14.5199 32.1636 14.4314 31.8023 13.8743L31.4123 13.2729H24.6315H17.8507V11.5891V9.90524H29.5183H41.186V11.5891V13.2729H38.4532C35.8008 13.2729 35.7089 13.2907 35.3303 13.8743C34.969 14.4314 34.969 14.5199 35.3303 15.077C35.7146 15.6695 35.7679 15.6784 38.9477 15.6784H42.1751L42.8712 14.9753C43.5531 14.2861 43.5672 14.2209 43.5672 11.712C43.5672 9.15833 43.3833 8.38834 42.6354 7.80813C42.0894 7.38477 16.9473 7.38477 16.4013 7.80813ZM62.4674 9.09892C62.2712 9.57328 60.5536 13.6022 58.6508 18.0519C53.5904 29.8855 53.5642 29.9478 53.6283 30.0045C53.784 30.1426 60.5105 32.9979 60.6803 32.9979C60.7875 32.9979 61.4154 31.7261 62.0754 30.1715C62.7357 28.6168 64.7959 23.7895 66.6539 19.444C68.5117 15.0984 69.9816 11.4924 69.9202 11.4301C69.8585 11.368 68.2367 10.624 66.316 9.77678L62.8241 8.23655L62.4674 9.09892ZM52.4153 32.6972C52.2958 32.9289 51.0195 35.8785 49.5789 39.2522C48.1385 42.6259 45.6007 48.5638 43.9393 52.4475C42.278 56.3314 40.9853 59.5788 41.0665 59.6639C41.3901 60.0031 47.9826 62.7615 48.1276 62.6184C48.2128 62.5342 49.4834 59.6507 50.9509 56.2109C52.4186 52.771 55.0065 46.7205 56.7019 42.7652C58.6466 38.2282 59.7012 35.4893 59.5585 35.3452C59.3826 35.1674 52.9068 32.2763 52.6846 32.2763C52.6558 32.2763 52.5346 32.4656 52.4153 32.6972ZM13.6436 62.0805C12.2878 62.4319 10.777 63.5098 10.0186 64.6661C9.1535 65.9856 9.06587 66.9781 9.77022 67.4765C10.4834 67.9812 11.1408 67.7019 11.6599 66.674C12.5559 64.9 14.2189 64.0239 16.0365 64.3683C16.4794 64.4523 17.5242 65.0419 18.3581 65.6789C20.3195 67.1765 20.5678 67.3014 22.1875 67.6037C24.5439 68.0439 26.5164 67.1467 28.1251 64.9033C28.8933 63.8319 28.9719 63.2702 28.4299 62.7228C27.9027 62.1902 27.2036 62.2534 26.7181 62.8774C26.4902 63.1704 25.9145 63.8199 25.4389 64.3207C24.6565 65.1444 24.4565 65.2314 23.3435 65.2314C21.9967 65.2314 21.091 64.848 19.6365 63.6623C19.1127 63.2354 18.3186 62.6982 17.8716 62.4687C16.9435 61.9922 14.7578 61.7916 13.6436 62.0805ZM40.4717 66.2167C40.4717 68.7803 40.5591 70.2928 40.7041 70.2428C41.2405 70.0576 46.4396 64.9106 46.2617 64.7405C46.1548 64.6383 45.4245 64.2818 44.6387 63.9486C43.8529 63.6154 42.594 63.0655 41.8408 62.7266L40.4717 62.1103V66.2167Z"/>
</mask>
<path fill-rule="evenodd" clip-rule="evenodd" d="M4.78693 1.33425C3.52753 1.79466 2.13003 3.13355 1.51403 4.47028L0.949219 5.69563V39.4927V73.2898L1.50974 74.506C2.16528 75.9284 3.65231 77.306 4.95861 77.7012C6.27468 78.0996 53.0001 78.0996 54.3162 77.7012C55.6225 77.306 57.1095 75.9284 57.7651 74.506C58.3225 73.2968 58.3258 73.2379 58.328 64.2146L58.3303 55.1395L57.7351 54.7454C57.1864 54.3822 57.0938 54.382 56.5526 54.7401L55.9656 55.1286L55.8978 64.2522C55.8325 73.0445 55.8123 73.4 55.337 74.0543C55.0658 74.4276 54.4764 74.9231 54.0274 75.1555C53.2623 75.5515 51.7088 75.5741 29.3571 75.5163C5.65367 75.4552 5.49913 75.4516 4.83122 74.9566C4.46143 74.6826 3.97162 74.0872 3.74279 73.6336C3.35228 72.86 3.32633 70.7362 3.32633 39.4927C3.32633 8.2493 3.35228 6.12549 3.74279 5.35189C3.97162 4.89821 4.46143 4.30286 4.83122 4.02887C5.49913 3.53382 5.65367 3.53022 29.3571 3.46912C51.7088 3.41138 53.2623 3.434 54.0274 3.82994C54.4764 4.06231 55.0658 4.5576 55.337 4.93093C55.8013 5.57007 55.8342 5.97684 55.9006 11.9218L55.9709 18.234L53.9647 22.9098C52.8611 25.4815 50.2713 31.5366 48.2097 36.3656C46.1479 41.1946 43.0231 48.5013 41.2658 52.6026L38.0707 60.0596L38.14 65.6726L38.2096 71.2856L38.9873 71.987C39.5661 72.5092 40.0035 72.6884 40.6991 72.6884C41.7627 72.6884 42.0599 72.4578 46.812 67.9441L49.6998 65.2014L53.172 57.098C56.8578 48.4957 61.2089 38.3176 67.7423 23.0151C69.9454 17.8554 71.7794 13.5921 71.8177 13.5411C71.9048 13.4259 73.3316 14.0121 73.3316 14.1632C73.3316 14.2238 71.4029 18.7995 69.0455 24.3317C66.6882 29.8636 64.7595 34.6045 64.7595 34.8672C64.7595 35.5292 65.3205 35.9338 66.1117 35.8417C66.7501 35.7676 66.9782 35.2959 71.5034 24.699C75.3168 15.7689 76.1902 13.5238 76.0302 13.0634C75.8914 12.6646 75.3918 12.3114 74.367 11.8881C73.1545 11.3873 72.879 11.1664 72.7683 10.6072C72.6947 10.2355 72.4237 9.81744 72.1661 9.67816C71.7051 9.42895 71.707 9.40249 72.2765 7.98614C72.9656 6.27271 73.0018 5.07598 72.4039 3.77124C71.2565 1.26737 68.687 0.322256 66.257 1.51057C65.0831 2.08476 64.3185 3.01688 63.6634 4.67234C63.3591 5.44137 63.0717 5.81447 62.7831 5.81495C61.9326 5.81687 61.0049 6.5313 60.5312 7.55002C60.2672 8.11772 59.6907 9.44819 59.2502 10.5066L58.4494 12.431L58.3296 8.82277C58.2258 5.70261 58.1384 5.07983 57.6829 4.21794C57.0169 2.95819 55.5108 1.64576 54.3162 1.28421C52.9627 0.874557 5.91417 0.922186 4.78693 1.33425ZM67.1885 3.66276C66.578 3.91028 65.2878 6.46467 65.6255 6.75766C65.9255 7.01793 69.3263 8.49899 69.4158 8.40854C69.6877 8.13408 70.4742 5.91044 70.4742 5.4166C70.4742 5.0743 70.1754 4.51478 69.7782 4.11354C69.0529 3.38083 68.2352 3.23843 67.1885 3.66276ZM16.4013 7.80813C15.6533 8.38834 15.4695 9.15833 15.4695 11.712C15.4695 14.2209 15.4836 14.2861 16.1655 14.9753L16.8615 15.6784H24.1369H31.4123L31.8023 15.077C32.1636 14.5199 32.1636 14.4314 31.8023 13.8743L31.4123 13.2729H24.6315H17.8507V11.5891V9.90524H29.5183H41.186V11.5891V13.2729H38.4532C35.8008 13.2729 35.7089 13.2907 35.3303 13.8743C34.969 14.4314 34.969 14.5199 35.3303 15.077C35.7146 15.6695 35.7679 15.6784 38.9477 15.6784H42.1751L42.8712 14.9753C43.5531 14.2861 43.5672 14.2209 43.5672 11.712C43.5672 9.15833 43.3833 8.38834 42.6354 7.80813C42.0894 7.38477 16.9473 7.38477 16.4013 7.80813ZM62.4674 9.09892C62.2712 9.57328 60.5536 13.6022 58.6508 18.0519C53.5904 29.8855 53.5642 29.9478 53.6283 30.0045C53.784 30.1426 60.5105 32.9979 60.6803 32.9979C60.7875 32.9979 61.4154 31.7261 62.0754 30.1715C62.7357 28.6168 64.7959 23.7895 66.6539 19.444C68.5117 15.0984 69.9816 11.4924 69.9202 11.4301C69.8585 11.368 68.2367 10.624 66.316 9.77678L62.8241 8.23655L62.4674 9.09892ZM52.4153 32.6972C52.2958 32.9289 51.0195 35.8785 49.5789 39.2522C48.1385 42.6259 45.6007 48.5638 43.9393 52.4475C42.278 56.3314 40.9853 59.5788 41.0665 59.6639C41.3901 60.0031 47.9826 62.7615 48.1276 62.6184C48.2128 62.5342 49.4834 59.6507 50.9509 56.2109C52.4186 52.771 55.0065 46.7205 56.7019 42.7652C58.6466 38.2282 59.7012 35.4893 59.5585 35.3452C59.3826 35.1674 52.9068 32.2763 52.6846 32.2763C52.6558 32.2763 52.5346 32.4656 52.4153 32.6972ZM13.6436 62.0805C12.2878 62.4319 10.777 63.5098 10.0186 64.6661C9.1535 65.9856 9.06587 66.9781 9.77022 67.4765C10.4834 67.9812 11.1408 67.7019 11.6599 66.674C12.5559 64.9 14.2189 64.0239 16.0365 64.3683C16.4794 64.4523 17.5242 65.0419 18.3581 65.6789C20.3195 67.1765 20.5678 67.3014 22.1875 67.6037C24.5439 68.0439 26.5164 67.1467 28.1251 64.9033C28.8933 63.8319 28.9719 63.2702 28.4299 62.7228C27.9027 62.1902 27.2036 62.2534 26.7181 62.8774C26.4902 63.1704 25.9145 63.8199 25.4389 64.3207C24.6565 65.1444 24.4565 65.2314 23.3435 65.2314C21.9967 65.2314 21.091 64.848 19.6365 63.6623C19.1127 63.2354 18.3186 62.6982 17.8716 62.4687C16.9435 61.9922 14.7578 61.7916 13.6436 62.0805ZM40.4717 66.2167C40.4717 68.7803 40.5591 70.2928 40.7041 70.2428C41.2405 70.0576 46.4396 64.9106 46.2617 64.7405C46.1548 64.6383 45.4245 64.2818 44.6387 63.9486C43.8529 63.6154 42.594 63.0655 41.8408 62.7266L40.4717 62.1103V66.2167Z" fill="white"/>
<path d="M10.5734 20.9868L10.4989 20.9201L10.4989 20.9201L10.5734 20.9868ZM10.4862 22.1294L10.5737 22.0809L10.5736 22.0808L10.4862 22.1294ZM10.8446 22.7746L10.7572 22.8232L10.7857 22.8746H10.8446V22.7746ZM11.0258 27.9461L11.0635 28.0388L11.0635 28.0388L11.0258 27.9461ZM10.4643 29.6211L10.5527 29.5743L10.5527 29.5743L10.4643 29.6211ZM10.5662 35.7642L10.4823 35.7098L10.4823 35.7098L10.5662 35.7642ZM10.5662 36.967L10.4823 37.0214L10.4823 37.0214L10.5662 36.967ZM40.2743 35.561L40.2068 35.6348L40.2068 35.6348L40.2743 35.561ZM10.9563 35.1629V35.0629H10.9019L10.8724 35.1084L10.9563 35.1629ZM10.6084 42.9946L10.6795 43.065L10.6795 43.065L10.6084 42.9946ZM10.7072 44.5443L10.6361 44.6146L10.7072 44.5443ZM26.7864 44.537L26.8609 44.6038L26.8609 44.6038L26.7864 44.537ZM10.4989 20.9201C10.3 21.1422 10.1693 21.3054 10.1544 21.5001C10.147 21.5983 10.1692 21.696 10.2113 21.8028C10.253 21.9089 10.3169 22.0307 10.3988 22.178L10.5736 22.0808C10.4917 21.9335 10.4337 21.822 10.3974 21.7296C10.3614 21.6381 10.3495 21.5722 10.3539 21.5153C10.3627 21.3997 10.4394 21.2864 10.6479 21.0535L10.4989 20.9201ZM10.3988 22.178L10.7572 22.8232L10.932 22.726L10.5737 22.0809L10.3988 22.178ZM10.8446 22.8746H29.6374V22.6746H10.8446V22.8746ZM29.6374 22.8746H48.4302V22.6746H29.6374V22.8746ZM48.7759 20.9201C48.7198 20.8575 48.6609 20.7929 48.565 20.737C48.4702 20.6818 48.3455 20.6382 48.1591 20.6022C47.7886 20.5305 47.1477 20.4838 45.9511 20.4526C43.5539 20.39 38.8969 20.3894 29.6374 20.3894V20.5894C38.8988 20.5894 43.5521 20.59 45.9459 20.6525C47.1447 20.6838 47.7694 20.7305 48.1211 20.7985C48.2958 20.8323 48.3963 20.8702 48.4642 20.9098C48.531 20.9487 48.5722 20.9924 48.6269 21.0536L48.7759 20.9201ZM29.6374 20.3894C20.3779 20.3894 15.7209 20.39 13.3237 20.4526C12.1271 20.4838 11.4862 20.5305 11.1157 20.6022C10.9293 20.6382 10.8046 20.6818 10.7098 20.737C10.6139 20.7929 10.555 20.8575 10.4989 20.9201L10.6479 21.0536C10.7026 20.9924 10.7438 20.9487 10.8106 20.9098C10.8785 20.8702 10.979 20.8323 11.1537 20.7985C11.5054 20.7305 12.1301 20.6838 13.3289 20.6525C15.7227 20.59 20.376 20.5894 29.6374 20.5894V20.3894ZM10.9881 27.8535C10.2846 28.1399 10.0098 28.9771 10.376 29.6679L10.5527 29.5743C10.2373 28.9792 10.4788 28.2768 11.0635 28.0388L10.9881 27.8535ZM10.376 29.6679C10.4092 29.7306 10.4483 29.802 10.5333 29.8631C10.6151 29.922 10.7309 29.9656 10.9073 30.0011C11.2591 30.0719 11.8952 30.1179 13.1 30.1488C15.5144 30.2105 20.245 30.2113 29.6374 30.2113V30.0113C20.2431 30.0113 15.5162 30.0105 13.1051 29.9488C11.8972 29.9179 11.2787 29.8718 10.9468 29.8051C10.7813 29.7718 10.698 29.7353 10.6501 29.7008C10.6052 29.6685 10.584 29.6333 10.5527 29.5743L10.376 29.6679ZM48.2103 27.8393C48.1876 27.8306 48.1578 27.8249 48.1291 27.8205C48.0978 27.8157 48.0589 27.8112 48.0132 27.8069C47.9216 27.7983 47.7984 27.7901 47.6464 27.7822C47.3423 27.7665 46.919 27.7519 46.3942 27.7386C45.3443 27.7118 43.8852 27.6898 42.1538 27.6723C38.6909 27.6375 34.137 27.6211 29.5845 27.6227C25.032 27.6244 20.4806 27.6441 17.0229 27.6815C15.2941 27.7002 13.8383 27.7233 12.7923 27.7507C12.2694 27.7645 11.8483 27.7793 11.5464 27.7953C11.3956 27.8033 11.2735 27.8116 11.1831 27.8203C11.1379 27.8246 11.0996 27.8292 11.0689 27.834C11.041 27.8384 11.011 27.8442 10.9881 27.8535L11.0635 28.0388C11.0628 28.0391 11.072 28.036 11.0999 28.0316C11.1251 28.0276 11.159 28.0235 11.2022 28.0194C11.2885 28.0111 11.4072 28.003 11.557 27.995C11.8562 27.9792 12.2752 27.9644 12.7976 27.9507C13.842 27.9232 15.2966 27.9001 17.0251 27.8815C20.4819 27.8441 25.0325 27.8244 29.5845 27.8227C34.1366 27.8211 38.6898 27.8375 42.1518 27.8723C43.8829 27.8898 45.3408 27.9118 46.3891 27.9385C46.9134 27.9518 47.3346 27.9663 47.6361 27.9819C47.787 27.9898 47.9069 27.9978 47.9944 28.0061C48.0383 28.0102 48.073 28.0143 48.0988 28.0182C48.1117 28.0202 48.1217 28.022 48.129 28.0236C48.137 28.0254 48.1395 28.0264 48.1386 28.026L48.2103 27.8393ZM10.4823 35.7098C10.3921 35.8489 10.321 35.964 10.2727 36.066C10.2238 36.1693 10.1953 36.2651 10.1953 36.3656C10.1953 36.4661 10.2238 36.5619 10.2727 36.6651C10.321 36.7672 10.3921 36.8823 10.4823 37.0214L10.6501 36.9126C10.5597 36.7731 10.4954 36.6682 10.4534 36.5796C10.412 36.4922 10.3953 36.4265 10.3953 36.3656C10.3953 36.3047 10.412 36.239 10.4534 36.1516C10.4954 36.063 10.5597 35.9581 10.6501 35.8186L10.4823 35.7098ZM10.4823 37.0214L10.8724 37.6228L11.0402 37.5139L10.6501 36.9126L10.4823 37.0214ZM40.3902 37.1951C40.6549 36.8996 40.7974 36.6074 40.7896 36.3129C40.7818 36.0171 40.6231 35.7444 40.3418 35.4872L40.2068 35.6348C40.4657 35.8716 40.5838 36.0967 40.5897 36.3182C40.5956 36.5409 40.4887 36.7854 40.2412 37.0617L40.3902 37.1951ZM40.3418 35.4872C40.2194 35.3752 40.0329 35.3021 39.6396 35.2473C39.2441 35.1922 38.6203 35.1536 37.6043 35.1265C35.5708 35.072 31.9487 35.0629 25.3975 35.0629V35.2629C31.95 35.2629 35.5688 35.2721 37.599 35.3264C38.6148 35.3536 39.2286 35.392 39.612 35.4454C39.9977 35.4991 40.1317 35.566 40.2068 35.6348L40.3418 35.4872ZM25.3975 35.0629H10.9563V35.2629H25.3975V35.0629ZM10.8724 35.1084L10.4823 35.7098L10.6501 35.8186L11.0402 35.2173L10.8724 35.1084ZM10.5373 42.9243C10.2747 43.1895 10.1348 43.4583 10.1533 43.7495C10.1716 44.0366 10.3428 44.3183 10.6361 44.6146L10.7783 44.4739C10.4972 44.19 10.3666 43.9519 10.3529 43.7367C10.3395 43.5257 10.4372 43.3097 10.6795 43.065L10.5373 42.9243ZM10.6361 44.6146C10.7576 44.7373 10.8776 44.8361 11.1068 44.9091C11.3288 44.9799 11.6515 45.0261 12.1773 45.0575C13.2307 45.1203 15.1354 45.1253 18.7662 45.1253V44.9253C15.1317 44.9253 13.235 44.9202 12.1892 44.8578C11.6656 44.8265 11.3642 44.7812 11.1676 44.7186C10.9782 44.6582 10.8849 44.5816 10.7783 44.4739L10.6361 44.6146ZM18.7662 45.1253C22.4233 45.1253 24.3269 45.1211 25.3683 45.0577C25.888 45.0261 26.2028 44.9793 26.4164 44.9068C26.6383 44.8315 26.7486 44.7291 26.8609 44.6038L26.712 44.4703C26.6131 44.5806 26.5302 44.657 26.3521 44.7174C26.1658 44.7807 25.8741 44.8266 25.3562 44.8581C24.3226 44.921 22.4272 44.9253 18.7662 44.9253V45.1253ZM26.8609 44.6038C27.0385 44.4055 27.1507 44.2326 27.1874 44.033C27.2239 43.8343 27.1826 43.6252 27.0909 43.3616L26.902 43.4273C26.9905 43.6818 27.0176 43.8504 26.9907 43.9968C26.964 44.1422 26.8811 44.2815 26.712 44.4703L26.8609 44.6038ZM18.878 42.5769C15.4091 42.549 13.4221 42.5445 12.261 42.5892C11.681 42.6114 11.3017 42.6461 11.0448 42.6976C10.7869 42.7494 10.6401 42.8204 10.5373 42.9243L10.6795 43.065C10.7425 43.0012 10.8448 42.9417 11.0841 42.8937C11.3244 42.8455 11.6903 42.8112 12.2686 42.789C13.4241 42.7446 15.4056 42.749 18.8764 42.7769L18.878 42.5769ZM4.78693 1.33425L4.71826 1.1464L4.71826 1.1464L4.78693 1.33425ZM1.51403 4.47028L1.69566 4.554L1.69567 4.55398L1.51403 4.47028ZM0.949219 5.69563L0.767585 5.61191L0.749219 5.65176V5.69563H0.949219ZM0.949219 73.2898H0.749219V73.3337L0.767581 73.3735L0.949219 73.2898ZM1.50974 74.506L1.69138 74.4223H1.69138L1.50974 74.506ZM4.95861 77.7012L5.01655 77.5098L5.01653 77.5098L4.95861 77.7012ZM54.3162 77.7012L54.2583 77.5098L54.2582 77.5098L54.3162 77.7012ZM57.7651 74.506L57.5834 74.4223L57.5834 74.4223L57.7651 74.506ZM58.328 64.2146L58.128 64.2146V64.2146L58.328 64.2146ZM58.3303 55.1395L58.5303 55.1395L58.5304 55.032L58.4407 54.9727L58.3303 55.1395ZM57.7351 54.7454L57.6246 54.9122L57.6247 54.9122L57.7351 54.7454ZM56.5526 54.7401L56.4422 54.5734L56.4422 54.5734L56.5526 54.7401ZM55.9656 55.1286L55.8552 54.9619L55.7664 55.0206L55.7656 55.1271L55.9656 55.1286ZM55.8978 64.2522L55.6978 64.2507V64.2507L55.8978 64.2522ZM55.337 74.0543L55.4988 74.1718H55.4988L55.337 74.0543ZM54.0274 75.1555L53.9354 74.9779H53.9354L54.0274 75.1555ZM29.3571 75.5163L29.3577 75.3163H29.3577L29.3571 75.5163ZM4.83122 74.9566L4.95031 74.7959L4.95028 74.7959L4.83122 74.9566ZM3.74279 73.6336L3.92136 73.5435L3.92133 73.5434L3.74279 73.6336ZM3.74279 5.35189L3.92133 5.44202L3.92136 5.44196L3.74279 5.35189ZM4.83122 4.02887L4.95028 4.18957L4.95031 4.18955L4.83122 4.02887ZM29.3571 3.46912L29.3577 3.66912H29.3577L29.3571 3.46912ZM54.0274 3.82994L53.9354 4.00756L53.9354 4.00757L54.0274 3.82994ZM55.337 4.93093L55.1752 5.04848V5.04848L55.337 4.93093ZM55.9006 11.9218L56.1006 11.9195V11.9195L55.9006 11.9218ZM55.9709 18.234L56.1547 18.3128L56.1713 18.274L56.1708 18.2318L55.9709 18.234ZM53.9647 22.9098L54.1485 22.9887L54.1485 22.9886L53.9647 22.9098ZM48.2097 36.3656L48.3937 36.4441L48.3937 36.4441L48.2097 36.3656ZM41.2658 52.6026L41.0819 52.5239L41.2658 52.6026ZM38.0707 60.0596L37.8869 59.9809L37.8702 60.0198L37.8708 60.0621L38.0707 60.0596ZM38.14 65.6726L37.9401 65.6751V65.6751L38.14 65.6726ZM38.2096 71.2856L38.0096 71.288L38.0107 71.3755L38.0756 71.4341L38.2096 71.2856ZM38.9873 71.987L39.1212 71.8385L39.1212 71.8385L38.9873 71.987ZM46.812 67.9441L46.6742 67.7991L46.6742 67.7991L46.812 67.9441ZM49.6998 65.2014L49.8376 65.3464L49.8674 65.318L49.8837 65.2801L49.6998 65.2014ZM53.172 57.098L53.3559 57.1768L53.172 57.098ZM67.7423 23.0151L67.5584 22.9366V22.9366L67.7423 23.0151ZM71.8177 13.5411L71.6582 13.4205L71.6578 13.4209L71.8177 13.5411ZM69.0455 24.3317L69.2295 24.4101V24.4101L69.0455 24.3317ZM66.1117 35.8417L66.0887 35.643L66.0886 35.643L66.1117 35.8417ZM71.5034 24.699L71.3195 24.6204L71.5034 24.699ZM76.0302 13.0634L76.2191 12.9977L76.2191 12.9977L76.0302 13.0634ZM74.367 11.8881L74.4433 11.7032L74.4433 11.7032L74.367 11.8881ZM72.7683 10.6072L72.9644 10.5683L72.7683 10.6072ZM72.1661 9.67816L72.071 9.8541L72.1661 9.67816ZM72.2765 7.98614L72.091 7.91151V7.91152L72.2765 7.98614ZM72.4039 3.77124L72.5858 3.68792V3.68792L72.4039 3.77124ZM66.257 1.51057L66.1691 1.3309L66.1691 1.33091L66.257 1.51057ZM63.6634 4.67234L63.8494 4.74593L63.8494 4.74593L63.6634 4.67234ZM62.7831 5.81495L62.7828 5.61495H62.7827L62.7831 5.81495ZM60.5312 7.55002L60.7126 7.63438L60.7126 7.63434L60.5312 7.55002ZM59.2502 10.5066L59.0655 10.4298L59.0655 10.4298L59.2502 10.5066ZM58.4494 12.431L58.2495 12.4376L58.6341 12.5078L58.4494 12.431ZM58.3296 8.82277L58.5295 8.81613V8.81612L58.3296 8.82277ZM57.6829 4.21794L57.8597 4.12449L57.8597 4.12447L57.6829 4.21794ZM54.3162 1.28421L54.2583 1.47564L54.2583 1.47564L54.3162 1.28421ZM67.1885 3.66276L67.1133 3.47741L67.1133 3.47741L67.1885 3.66276ZM65.6255 6.75766L65.4944 6.90871L65.4944 6.90873L65.6255 6.75766ZM69.4158 8.40854L69.2737 8.26778L69.2737 8.26784L69.4158 8.40854ZM69.7782 4.11354L69.9204 3.97284L69.7782 4.11354ZM16.4013 7.80813L16.2787 7.65008L16.2787 7.65011L16.4013 7.80813ZM16.1655 14.9753L16.0234 15.116L16.0234 15.116L16.1655 14.9753ZM16.8615 15.6784L16.7194 15.8191L16.7781 15.8784H16.8615V15.6784ZM31.4123 15.6784V15.8784H31.521L31.5801 15.7872L31.4123 15.6784ZM31.8023 15.077L31.9701 15.1859L31.9702 15.1858L31.8023 15.077ZM31.8023 13.8743L31.9702 13.7655L31.9701 13.7655L31.8023 13.8743ZM31.4123 13.2729L31.5801 13.1641L31.521 13.0729H31.4123V13.2729ZM17.8507 13.2729H17.6507V13.4729H17.8507V13.2729ZM17.8507 9.90524V9.70524H17.6507V9.90524H17.8507ZM41.186 9.90524H41.386V9.70524H41.186V9.90524ZM41.186 13.2729V13.4729H41.386V13.2729H41.186ZM35.3303 13.8743L35.1625 13.7654L35.1625 13.7655L35.3303 13.8743ZM35.3303 15.077L35.1625 15.1858L35.1625 15.1859L35.3303 15.077ZM42.1751 15.6784V15.8784H42.2586L42.3173 15.8191L42.1751 15.6784ZM42.8712 14.9753L43.0133 15.116L43.0133 15.116L42.8712 14.9753ZM42.6354 7.80813L42.758 7.65011L42.758 7.65008L42.6354 7.80813ZM62.4674 9.09892L62.2826 9.02247V9.02247L62.4674 9.09892ZM58.6508 18.0519L58.8347 18.1305V18.1305L58.6508 18.0519ZM53.6283 30.0045L53.761 29.8549L53.7609 29.8548L53.6283 30.0045ZM62.0754 30.1715L61.8913 30.0933L61.8913 30.0933L62.0754 30.1715ZM66.6539 19.444L66.8378 19.5226L66.8378 19.5226L66.6539 19.444ZM69.9202 11.4301L70.0626 11.2896L70.062 11.2891L69.9202 11.4301ZM66.316 9.77678L66.3967 9.5938V9.59379L66.316 9.77678ZM62.8241 8.23655L62.9048 8.05356L62.7175 7.97095L62.6393 8.16011L62.8241 8.23655ZM52.4153 32.6972L52.593 32.7889L52.5931 32.7888L52.4153 32.6972ZM49.5789 39.2522L49.3949 39.1736L49.3949 39.1736L49.5789 39.2522ZM43.9393 52.4475L43.7555 52.3688V52.3688L43.9393 52.4475ZM41.0665 59.6639L40.9217 59.802L40.9218 59.802L41.0665 59.6639ZM48.1276 62.6184L48.2681 62.7607L48.2681 62.7607L48.1276 62.6184ZM50.9509 56.2109L50.7669 56.1324L50.7669 56.1324L50.9509 56.2109ZM56.7019 42.7652L56.8857 42.8439L56.7019 42.7652ZM59.5585 35.3452L59.4164 35.4859L59.5585 35.3452ZM13.6436 62.0805L13.6938 62.2741L13.6938 62.2741L13.6436 62.0805ZM10.0186 64.6661L9.85133 64.5565L9.85132 64.5565L10.0186 64.6661ZM9.77022 67.4765L9.88575 67.3132H9.88574L9.77022 67.4765ZM11.6599 66.674L11.4814 66.5838L11.4814 66.5838L11.6599 66.674ZM16.0365 64.3683L16.0737 64.1718H16.0737L16.0365 64.3683ZM18.3581 65.6789L18.2367 65.8378L18.2367 65.8378L18.3581 65.6789ZM22.1875 67.6037L22.2242 67.4071L22.2242 67.4071L22.1875 67.6037ZM28.1251 64.9033L28.2877 65.0199L28.2877 65.0199L28.1251 64.9033ZM28.4299 62.7228L28.5721 62.5821L28.4299 62.7228ZM26.7181 62.8774L26.5603 62.7546L26.5602 62.7546L26.7181 62.8774ZM25.4389 64.3207L25.5839 64.4585L25.584 64.4584L25.4389 64.3207ZM19.6365 63.6623L19.7629 63.5073L19.7629 63.5073L19.6365 63.6623ZM17.8716 62.4687L17.963 62.2908L17.963 62.2908L17.8716 62.4687ZM40.7041 70.2428L40.7693 70.4319L40.7693 70.4318L40.7041 70.2428ZM46.2617 64.7405L46.1235 64.885L46.1235 64.885L46.2617 64.7405ZM41.8408 62.7266L41.7587 62.909L41.7588 62.909L41.8408 62.7266ZM40.4717 62.1103L40.5538 61.9279L40.2717 61.801V62.1103H40.4717ZM4.71826 1.1464C4.05561 1.38866 3.36846 1.85663 2.77084 2.42923C2.17259 3.00244 1.65281 3.69126 1.33239 4.38657L1.69567 4.55398C1.99125 3.91257 2.47823 3.26357 3.04758 2.71805C3.61756 2.17193 4.25886 1.74025 4.8556 1.52209L4.71826 1.1464ZM1.3324 4.38656L0.767585 5.61191L1.13085 5.77935L1.69566 4.554L1.3324 4.38656ZM0.749219 5.69563V39.4927H1.14922V5.69563H0.749219ZM0.749219 39.4927V73.2898H1.14922V39.4927H0.749219ZM0.767581 73.3735L1.32811 74.5897L1.69138 74.4223L1.13086 73.2061L0.767581 73.3735ZM1.32811 74.5897C1.66866 75.3287 2.22149 76.0493 2.85422 76.6355C3.4859 77.2207 4.21 77.6837 4.9007 77.8927L5.01653 77.5098C4.40093 77.3236 3.72836 76.9001 3.12606 76.3421C2.52481 75.7851 2.00636 75.1058 1.69138 74.4223L1.32811 74.5897ZM4.90067 77.8927C4.96457 77.912 5.07069 77.9253 5.19396 77.9366C5.32476 77.9486 5.49631 77.96 5.70485 77.971C6.12227 77.9929 6.69432 78.0132 7.39801 78.0319C8.80575 78.0693 10.7453 78.1004 13.0387 78.1253C17.6258 78.1751 23.6318 78.2 29.6374 78.2C35.643 78.2 41.649 78.1751 46.2361 78.1253C48.5295 78.1004 50.4691 78.0693 51.8768 78.0319C52.5805 78.0132 53.1525 77.9929 53.5699 77.971C53.7785 77.96 53.95 77.9486 54.0808 77.9366C54.2041 77.9253 54.3102 77.912 54.3741 77.8927L54.2582 77.5098C54.2399 77.5154 54.1751 77.5262 54.0443 77.5383C53.921 77.5496 53.7553 77.5607 53.549 77.5715C53.1367 77.5932 52.5687 77.6134 51.8662 77.632C50.4616 77.6693 48.5245 77.7004 46.2318 77.7253C41.6466 77.7751 35.6422 77.8 29.6374 77.8C23.6326 77.8 17.6282 77.7751 13.043 77.7253C10.7503 77.7004 8.81324 77.6693 7.40863 77.632C6.70615 77.6134 6.13811 77.5932 5.72583 77.5715C5.51953 77.5607 5.35385 77.5496 5.23055 77.5383C5.09974 77.5262 5.03491 77.5154 5.01655 77.5098L4.90067 77.8927ZM54.3741 77.8927C55.0648 77.6837 55.7889 77.2207 56.4206 76.6355C57.0533 76.0493 57.6061 75.3287 57.9467 74.5897L57.5834 74.4223C57.2684 75.1058 56.75 75.7851 56.1487 76.3421C55.5464 76.9001 54.8739 77.3236 54.2583 77.5098L54.3741 77.8927ZM57.9467 74.5898C58.086 74.2876 58.1982 74.0418 58.282 73.705C58.3652 73.3704 58.4188 72.9532 58.4544 72.3015C58.5256 71.0007 58.5269 68.7225 58.528 64.2147L58.128 64.2146C58.1269 68.73 58.1254 70.9929 58.055 72.2797C58.0199 72.9218 57.968 73.3099 57.8938 73.6085C57.8201 73.9048 57.7228 74.1199 57.5834 74.4223L57.9467 74.5898ZM58.528 64.2147L58.5303 55.1395L58.1303 55.1394L58.128 64.2146L58.528 64.2147ZM58.4407 54.9727L57.8454 54.5787L57.6247 54.9122L58.22 55.3062L58.4407 54.9727ZM57.8455 54.5787C57.7085 54.488 57.5897 54.4129 57.4819 54.3609C57.3717 54.3077 57.2616 54.2728 57.1419 54.2723C56.9108 54.2713 56.7003 54.4025 56.4422 54.5734L56.6629 54.9069C56.946 54.7196 57.0525 54.6719 57.1402 54.6723C57.1799 54.6724 57.2296 54.6833 57.308 54.7211C57.3888 54.7601 57.4873 54.8213 57.6246 54.9122L57.8455 54.5787ZM56.4422 54.5734L55.8552 54.9619L56.076 55.2954L56.663 54.9069L56.4422 54.5734ZM55.7656 55.1271L55.6978 64.2507L56.0977 64.2536L56.1656 55.1301L55.7656 55.1271ZM55.6978 64.2507C55.6651 68.65 55.6437 70.9302 55.5715 72.1936C55.5353 72.8262 55.4869 73.1897 55.4226 73.4318C55.3613 73.6629 55.2851 73.7854 55.1752 73.9367L55.4988 74.1718C55.6265 73.996 55.7311 73.8287 55.8092 73.5344C55.8845 73.251 55.9344 72.8535 55.9708 72.2164C56.0438 70.9403 56.0651 68.6466 56.0977 64.2536L55.6978 64.2507ZM55.1752 73.9367C54.924 74.2825 54.3596 74.7584 53.9354 74.9779L54.1193 75.3331C54.5933 75.0879 55.2076 74.5727 55.4988 74.1718L55.1752 73.9367ZM53.9354 74.9779C53.7773 75.0597 53.5663 75.132 52.9743 75.1879C52.3806 75.244 51.4234 75.2821 49.7843 75.3061C46.5085 75.354 40.5345 75.3452 29.3577 75.3163L29.3566 75.7163C40.5315 75.7452 46.51 75.754 49.7901 75.706C51.429 75.6821 52.4006 75.6439 53.0119 75.5862C53.6248 75.5283 53.8948 75.4493 54.1193 75.3331L53.9354 74.9779ZM29.3577 75.3163C17.5044 75.2858 11.5428 75.2696 8.46041 75.1992C6.91644 75.164 6.10582 75.1153 5.64117 75.0465C5.41053 75.0123 5.2749 74.9745 5.18142 74.9356C5.09067 74.8979 5.03143 74.856 4.95031 74.7959L4.71213 75.1173C4.79799 75.1809 4.88968 75.2475 5.02782 75.3049C5.16323 75.3612 5.33443 75.4054 5.58257 75.4421C6.07548 75.5151 6.9102 75.564 8.45128 75.5991C11.539 75.6696 17.5064 75.6858 29.3566 75.7163L29.3577 75.3163ZM4.95028 74.7959C4.60808 74.5423 4.13762 73.9722 3.92136 73.5435L3.56422 73.7236C3.80562 74.2022 4.31477 74.8228 4.71216 75.1173L4.95028 74.7959ZM3.92133 73.5434C3.84309 73.3884 3.76964 73.1457 3.71246 72.3519C3.65559 71.5625 3.61576 70.2537 3.58811 67.9869C3.53282 63.4554 3.52633 55.1152 3.52633 39.4927H3.12633C3.12633 55.1137 3.13281 63.4571 3.18814 67.9918C3.21578 70.258 3.25566 71.5779 3.31349 72.3807C3.371 73.179 3.44724 73.4919 3.56425 73.7237L3.92133 73.5434ZM3.52633 39.4927C3.52633 23.8703 3.53282 15.5301 3.58811 10.9986C3.61576 8.73173 3.65559 7.4229 3.71246 6.63352C3.76964 5.8397 3.84309 5.59701 3.92133 5.44202L3.56425 5.26176C3.44724 5.49357 3.371 5.80645 3.31349 6.60478C3.25566 7.40755 3.21578 8.72743 3.18814 10.9937C3.13281 15.5283 3.12633 23.8717 3.12633 39.4927H3.52633ZM3.92136 5.44196C4.13762 5.01321 4.60808 4.44311 4.95028 4.18957L4.71216 3.86817C4.31477 4.1626 3.80562 4.78322 3.56422 5.26182L3.92136 5.44196ZM4.95031 4.18955C5.03143 4.12942 5.09067 4.0876 5.18142 4.04986C5.2749 4.01098 5.41053 3.97315 5.64117 3.93899C6.10582 3.87018 6.91644 3.82145 8.46041 3.78621C11.5428 3.71585 17.5044 3.69967 29.3577 3.66912L29.3566 3.26912C17.5064 3.29966 11.539 3.31583 8.45128 3.38631C6.9102 3.42149 6.07548 3.47031 5.58257 3.54331C5.33443 3.58006 5.16323 3.62421 5.02782 3.68053C4.88968 3.73798 4.79799 3.80456 4.71213 3.86819L4.95031 4.18955ZM29.3577 3.66912C40.5345 3.64025 46.5085 3.63148 49.7843 3.67938C51.4234 3.70334 52.3806 3.74145 52.9743 3.79752C53.5663 3.85343 53.7773 3.92574 53.9354 4.00756L54.1193 3.65232C53.8948 3.53616 53.6248 3.45718 53.0119 3.39929C52.4006 3.34156 51.429 3.30338 49.7901 3.27942C46.51 3.23146 40.5315 3.24025 29.3566 3.26912L29.3577 3.66912ZM53.9354 4.00757C54.3596 4.22704 54.924 4.70272 55.1752 5.04848L55.4988 4.81338C55.2075 4.41247 54.5933 3.89757 54.1193 3.65231L53.9354 4.00757ZM55.1752 5.04848C55.2838 5.19798 55.3601 5.32364 55.4208 5.51683C55.4835 5.71639 55.5318 5.99541 55.5687 6.45275C55.6425 7.36871 55.6674 8.94773 55.7006 11.924L56.1006 11.9195C56.0674 8.95087 56.0426 7.35404 55.9674 6.4206C55.9297 5.95324 55.8785 5.63917 55.8024 5.39692C55.7243 5.14831 55.6223 4.98345 55.4988 4.81338L55.1752 5.04848ZM55.7006 11.924L55.7709 18.2362L56.1708 18.2318L56.1006 11.9195L55.7006 11.924ZM55.7871 18.1551L53.7809 22.8309L54.1485 22.9886L56.1547 18.3128L55.7871 18.1551ZM53.7809 22.8309C52.6772 25.4028 50.0874 31.458 48.0258 36.2871L48.3937 36.4441C50.4552 31.6151 53.0449 25.5602 54.1485 22.9887L53.7809 22.8309ZM48.0258 36.2871C45.964 41.116 42.8392 48.4226 41.0819 52.5239L41.4496 52.6814C43.2069 48.58 46.3318 41.2732 48.3937 36.4441L48.0258 36.2871ZM41.0819 52.5239L37.8869 59.9809L38.2546 60.1384L41.4496 52.6814L41.0819 52.5239ZM37.8708 60.0621L37.9401 65.6751L38.34 65.6701L38.2707 60.0572L37.8708 60.0621ZM37.9401 65.6751L38.0096 71.288L38.4096 71.2831L38.34 65.6701L37.9401 65.6751ZM38.0756 71.4341L38.8533 72.1355L39.1212 71.8385L38.3435 71.1371L38.0756 71.4341ZM38.8533 72.1355C39.1524 72.4054 39.4259 72.5967 39.7236 72.7186C40.0227 72.8412 40.3332 72.8884 40.6991 72.8884V72.4884C40.3694 72.4884 40.1135 72.4461 39.8752 72.3485C39.6356 72.2503 39.401 72.0909 39.1212 71.8385L38.8533 72.1355ZM40.6991 72.8884C40.9732 72.8884 41.2189 72.8738 41.5034 72.7697C41.7834 72.6672 42.0878 72.483 42.495 72.1669C43.3063 71.5373 44.5778 70.342 46.9497 68.0891L46.6742 67.7991C44.2941 70.0599 43.041 71.2368 42.2497 71.8509C41.8557 72.1567 41.5893 72.3123 41.3659 72.3941C41.147 72.4742 40.9567 72.4884 40.6991 72.4884V72.8884ZM46.9497 68.0891L49.8376 65.3464L49.5621 65.0564L46.6742 67.7991L46.9497 68.0891ZM49.8837 65.2801L53.3559 57.1768L52.9882 57.0192L49.516 65.1226L49.8837 65.2801ZM53.3559 57.1768C57.0417 48.5744 61.3929 38.3962 67.9263 23.0937L67.5584 22.9366C61.025 38.2391 56.674 48.4171 52.9882 57.0192L53.3559 57.1768ZM67.9263 23.0937C69.0278 20.5139 70.0369 18.1583 70.7755 16.4414C71.1448 15.5829 71.4464 14.8842 71.658 14.397C71.7638 14.1534 71.847 13.963 71.9049 13.8321C71.9338 13.7665 71.9562 13.7164 71.9718 13.6822C71.9797 13.6649 71.9854 13.6526 71.9892 13.6446C71.9901 13.6427 71.9909 13.6412 71.9914 13.6401C71.992 13.639 71.9922 13.6385 71.9922 13.6385C71.9922 13.6385 71.992 13.6388 71.9918 13.6393C71.9915 13.6398 71.991 13.6407 71.9903 13.642C71.9902 13.6422 71.9854 13.6509 71.9776 13.6613L71.6578 13.4209C71.6494 13.4321 71.6438 13.4422 71.6426 13.4442C71.6403 13.4483 71.6384 13.452 71.637 13.4547C71.6341 13.4601 71.6312 13.466 71.6285 13.4717C71.623 13.4832 71.616 13.4983 71.6078 13.5163C71.5913 13.5527 71.5681 13.6044 71.539 13.6704C71.4806 13.8025 71.397 13.9938 71.2911 14.2377C71.0792 14.7255 70.7774 15.4247 70.4081 16.2833C69.6693 18.0007 68.66 20.3566 67.5584 22.9366L67.9263 23.0937ZM71.9772 13.6618C71.9536 13.693 71.9259 13.7087 71.9089 13.716C71.8921 13.7232 71.8793 13.7252 71.8751 13.7258C71.8674 13.7268 71.869 13.7255 71.8855 13.7273C71.9169 13.7308 71.9676 13.7415 72.0368 13.761C72.1729 13.7993 72.3517 13.8635 72.5313 13.9373C72.7109 14.0111 72.8846 14.0917 73.0109 14.1613C73.0749 14.1965 73.1207 14.2256 73.1479 14.2467C73.162 14.2575 73.1647 14.2614 73.1619 14.2581C73.1604 14.2562 73.1542 14.2486 73.1478 14.2355C73.1415 14.2227 73.1316 14.1975 73.1316 14.1632H73.5316C73.5316 14.0812 73.4875 14.0239 73.4692 14.002C73.4456 13.9736 73.4175 13.9494 73.3924 13.9301C73.3413 13.8906 73.2749 13.85 73.2038 13.8109C73.0599 13.7316 72.8714 13.6446 72.6834 13.5673C72.4954 13.4901 72.3012 13.4199 72.1452 13.376C72.0684 13.3543 71.9934 13.3369 71.93 13.3298C71.8991 13.3264 71.8612 13.3242 71.823 13.3292C71.7939 13.333 71.7138 13.347 71.6582 13.4205L71.9772 13.6618ZM73.1316 14.1632C73.1316 14.1393 73.1363 14.121 73.1363 14.1207C73.1374 14.1159 73.1384 14.1127 73.1386 14.1122C73.139 14.1108 73.1388 14.1116 73.1373 14.1158C73.1346 14.1235 73.1299 14.1362 73.1227 14.1547C73.1087 14.1913 73.0873 14.245 73.0588 14.3156C73.0018 14.4564 72.9175 14.6611 72.8087 14.9229C72.5913 15.4464 72.2767 16.1965 71.8883 17.1179C71.1116 18.9606 70.0402 21.4874 68.8616 24.2533L69.2295 24.4101C70.4083 21.6438 71.4799 19.1166 72.2569 17.2733C72.6454 16.3517 72.9603 15.6008 73.1781 15.0764C73.287 14.8142 73.3719 14.6082 73.4296 14.4656C73.4583 14.3945 73.4807 14.3383 73.496 14.2984C73.5036 14.2788 73.51 14.2617 73.5147 14.2482C73.517 14.2417 73.5196 14.2341 73.5219 14.2265C73.523 14.2228 73.5246 14.217 73.5262 14.2102C73.5267 14.2078 73.5316 14.1881 73.5316 14.1632H73.1316ZM68.8616 24.2533C67.6826 27.0199 66.6106 29.5892 65.8332 31.5C65.4446 32.4553 65.1293 33.2469 64.9109 33.8166C64.8018 34.1012 64.7164 34.3319 64.658 34.5005C64.6288 34.5846 64.6057 34.6553 64.5897 34.7105C64.5817 34.738 64.5748 34.7637 64.5698 34.7864C64.5656 34.8053 64.5595 34.8359 64.5595 34.8672H64.9595C64.9595 34.8822 64.9571 34.8876 64.9604 34.8727C64.9628 34.8618 64.967 34.8453 64.9737 34.8223C64.9871 34.7764 65.0077 34.7129 65.0359 34.6314C65.0922 34.4689 65.1759 34.2429 65.2844 33.9597C65.5014 33.3937 65.8155 32.6051 66.2038 31.6508C66.9801 29.7425 68.0512 27.1753 69.2295 24.4101L68.8616 24.2533ZM64.5595 34.8672C64.5595 35.2599 64.7286 35.588 65.0219 35.7995C65.3108 36.0077 65.7022 36.0907 66.1348 36.0403L66.0886 35.643C65.73 35.6848 65.4452 35.6115 65.2558 35.475C65.0709 35.3417 64.9595 35.1365 64.9595 34.8672H64.5595ZM66.1348 36.0403C66.2269 36.0297 66.3281 36.0099 66.4353 35.9527C66.5412 35.8961 66.6394 35.8103 66.7413 35.6869C66.9404 35.4459 67.1793 35.0285 67.53 34.3035C68.2351 32.8463 69.4259 30.0732 71.6873 24.7775L71.3195 24.6204C69.0557 29.9217 67.8698 32.6829 67.17 34.1293C66.8183 34.8561 66.5976 35.2328 66.4329 35.4322C66.353 35.529 66.2933 35.575 66.2468 35.5998C66.2017 35.6239 66.1561 35.6352 66.0887 35.643L66.1348 36.0403ZM71.6873 24.7775C73.5938 20.3131 74.7668 17.5162 75.4432 15.7776C75.7811 14.909 75.9973 14.299 76.1189 13.875C76.1796 13.6633 76.2185 13.4921 76.2364 13.3551C76.2536 13.2229 76.2546 13.0999 76.2191 12.9977L75.8413 13.1291C75.8458 13.142 75.8545 13.1898 75.8397 13.3034C75.8255 13.4122 75.7926 13.5618 75.7344 13.7648C75.6181 14.1703 75.4075 14.766 75.0704 15.6325C74.3968 17.364 73.2264 20.1548 71.3195 24.6204L71.6873 24.7775ZM76.2191 12.9977C76.1306 12.7434 75.9344 12.5252 75.6463 12.3216C75.358 12.1179 74.961 11.9171 74.4433 11.7032L74.2906 12.0729C74.7978 12.2824 75.163 12.4699 75.4154 12.6483C75.668 12.8268 75.791 12.9845 75.8413 13.1291L76.2191 12.9977ZM74.4433 11.7032C73.8342 11.4516 73.4883 11.2807 73.2795 11.1135C73.0889 10.9607 73.0125 10.8112 72.9644 10.5683L72.5721 10.646C72.6347 10.9624 72.7514 11.2029 73.0294 11.4256C73.2892 11.6338 73.6873 11.8237 74.2906 12.0729L74.4433 11.7032ZM72.9644 10.5683C72.9219 10.3534 72.8244 10.1325 72.704 9.94673C72.5855 9.76399 72.4311 9.59411 72.2612 9.50222L72.071 9.8541C72.1586 9.90149 72.2685 10.0103 72.3684 10.1643C72.4662 10.3153 72.541 10.4893 72.5721 10.646L72.9644 10.5683ZM72.2612 9.50222C72.1375 9.43535 72.0838 9.40222 72.0549 9.37126C72.0431 9.35865 72.0303 9.34502 72.0344 9.28288C72.0395 9.20567 72.0698 9.08473 72.1426 8.87999C72.214 8.67913 72.3192 8.41615 72.4621 8.06076L72.091 7.91152C71.9491 8.2643 71.8405 8.53577 71.7657 8.746C71.6924 8.95236 71.6443 9.11918 71.6353 9.25678C71.6253 9.40944 71.6629 9.53768 71.7626 9.64438C71.8452 9.73273 71.9642 9.79636 72.071 9.8541L72.2612 9.50222ZM72.4621 8.06077C72.8118 7.19114 73.0014 6.43946 73.0228 5.73148C73.0443 5.02057 72.8959 4.36475 72.5858 3.68792L72.2221 3.85456C72.5099 4.48247 72.6424 5.07738 72.623 5.71939C72.6035 6.36431 72.4303 7.06771 72.091 7.91151L72.4621 8.06077ZM72.5858 3.68792C71.992 2.3923 71.0247 1.48947 69.8804 1.06863C68.7358 0.647667 67.4293 0.714625 66.1691 1.3309L66.3448 1.69023C67.5146 1.1182 68.7078 1.06356 69.7424 1.44404C70.7772 1.82466 71.6684 2.64632 72.2221 3.85457L72.5858 3.68792ZM66.1691 1.33091C64.9363 1.93388 64.1441 2.91393 63.4775 4.59875L63.8494 4.74593C64.4928 3.11983 65.2298 2.23563 66.3449 1.69023L66.1691 1.33091ZM63.4775 4.59875C63.3279 4.97673 63.1881 5.24215 63.0589 5.40979C62.9266 5.58156 62.8341 5.61486 62.7828 5.61495L62.7834 6.01495C63.0207 6.01455 63.2162 5.86107 63.3758 5.65391C63.5386 5.44263 63.6946 5.13698 63.8494 4.74593L63.4775 4.59875ZM62.7827 5.61495C61.8287 5.6171 60.8438 6.40334 60.3499 7.46571L60.7126 7.63434C61.1659 6.65926 62.0364 6.01664 62.7836 6.01495L62.7827 5.61495ZM60.3499 7.46567C60.0841 8.03709 59.5064 9.37052 59.0655 10.4298L59.4348 10.5835C59.875 9.52587 60.4503 8.19835 60.7126 7.63438L60.3499 7.46567ZM59.0655 10.4298L58.2648 12.3542L58.6341 12.5078L59.4348 10.5834L59.0655 10.4298ZM58.6493 12.4244L58.5295 8.81613L58.1297 8.8294L58.2495 12.4376L58.6493 12.4244ZM58.5295 8.81612C58.4261 5.70702 58.3407 5.03462 57.8597 4.12449L57.5061 4.3114C57.9361 5.12503 58.0256 5.69821 58.1297 8.82942L58.5295 8.81612ZM57.8597 4.12447C57.5126 3.4679 56.952 2.80624 56.3292 2.26347C55.7075 1.72177 55.0078 1.28457 54.3741 1.09279L54.2583 1.47564C54.8192 1.6454 55.4698 2.04518 56.0664 2.56503C56.6617 3.0838 57.1872 3.70823 57.5061 4.31142L57.8597 4.12447ZM54.3741 1.09279C54.3092 1.07314 54.2019 1.05958 54.0767 1.04799C53.9441 1.03573 53.7706 1.0241 53.5598 1.01301C53.138 0.990823 52.5606 0.970479 51.8509 0.951913C50.431 0.914773 48.4765 0.884626 46.1668 0.861271C41.5471 0.814557 35.5031 0.794982 29.4665 0.801086C23.43 0.80719 17.4001 0.838975 12.8087 0.894997C10.5131 0.923007 8.5762 0.957085 7.17755 0.997069C6.47843 1.01706 5.91242 1.03855 5.50283 1.06159C5.29824 1.0731 5.13081 1.08509 5.00453 1.09767C4.94149 1.10395 4.88679 1.11056 4.84189 1.11764C4.80071 1.12414 4.75541 1.13282 4.71826 1.1464L4.85559 1.52209C4.85367 1.52279 4.86603 1.51878 4.90422 1.51275C4.93868 1.50732 4.98509 1.50159 5.04417 1.4957C5.16213 1.48395 5.32303 1.47234 5.52529 1.46096C5.92939 1.43823 6.49109 1.41686 7.18898 1.39691C8.58435 1.35701 10.5187 1.32297 12.8135 1.29497C17.403 1.23897 23.4313 1.20719 29.4669 1.20109C35.5026 1.19498 41.545 1.21456 46.1628 1.26125C48.4718 1.2846 50.4238 1.31472 51.8404 1.35178C52.5489 1.37031 53.1222 1.39055 53.5388 1.41246C53.7473 1.42343 53.9148 1.43473 54.0398 1.44629C54.1721 1.45853 54.2386 1.46968 54.2583 1.47564L54.3741 1.09279ZM67.1133 3.47741C66.9992 3.52367 66.8894 3.61365 66.79 3.71417C66.6874 3.81795 66.5816 3.94789 66.4771 4.09241C66.268 4.38172 66.0548 4.74285 65.8729 5.103C65.6914 5.46244 65.537 5.82888 65.4494 6.12927C65.4059 6.27833 65.376 6.42072 65.3708 6.54226C65.3664 6.64822 65.3772 6.80695 65.4944 6.90871L65.7566 6.6066C65.7894 6.63511 65.7667 6.64993 65.7705 6.55914C65.7737 6.48395 65.7939 6.37677 65.8334 6.24129C65.9118 5.9726 66.0548 5.63004 66.2299 5.28332C66.4047 4.9373 66.6073 4.59512 66.8013 4.32671C66.8984 4.19237 66.9909 4.07984 67.0744 3.99541C67.1611 3.90772 67.2251 3.86372 67.2636 3.8481L67.1133 3.47741ZM65.4944 6.90873C65.5519 6.95855 65.6586 7.02028 65.7765 7.08336C65.902 7.15054 66.0627 7.2308 66.2451 7.31842C66.6104 7.49382 67.0688 7.70157 67.5197 7.89798C67.9706 8.09433 68.4162 8.28029 68.7558 8.41184C68.925 8.4774 69.071 8.53065 69.1792 8.56491C69.2324 8.58177 69.282 8.59581 69.3228 8.60393C69.3423 8.60781 69.3679 8.61201 69.3944 8.61247C69.4076 8.6127 69.4283 8.61221 69.4521 8.60699C69.4732 8.60235 69.5182 8.58945 69.558 8.54924L69.2737 8.26784C69.3107 8.23046 69.3512 8.21962 69.3663 8.21629C69.3841 8.21239 69.3973 8.21246 69.4014 8.21253C69.4098 8.21268 69.4112 8.21367 69.4008 8.2116C69.3818 8.20783 69.3489 8.19908 69.2999 8.18358C69.2038 8.15315 69.0671 8.10349 68.9002 8.03885C68.5676 7.91001 68.1275 7.7264 67.6795 7.53126C67.2315 7.33617 66.7779 7.13051 66.4183 6.95784C66.2383 6.87142 66.0835 6.79398 65.9652 6.7307C65.8393 6.66331 65.7741 6.62183 65.7566 6.60658L65.4944 6.90873ZM69.5579 8.5493C69.6139 8.49278 69.6674 8.40531 69.7154 8.31645C69.7664 8.22191 69.8218 8.10527 69.879 7.97518C69.9935 7.71462 70.1191 7.39066 70.2356 7.06153C70.352 6.73231 70.4604 6.39489 70.5399 6.1071C70.6168 5.82859 70.6742 5.5714 70.6742 5.4166H70.2742C70.2742 5.50871 70.2333 5.71467 70.1543 6.00056C70.0779 6.27718 69.9726 6.60542 69.8585 6.92814C69.7443 7.25096 69.6223 7.56523 69.5128 7.81424C69.458 7.93892 69.4074 8.04489 69.3634 8.12642C69.3163 8.21363 69.2857 8.25569 69.2737 8.26778L69.5579 8.5493ZM70.6742 5.4166C70.6742 5.19711 70.582 4.93707 70.4516 4.69294C70.3184 4.44356 70.133 4.18761 69.9204 3.97284L69.6361 4.25424C69.8207 4.44071 69.9833 4.66514 70.0988 4.8814C70.2171 5.10291 70.2742 5.29378 70.2742 5.4166H70.6742ZM69.9204 3.97284C69.5349 3.58348 69.1133 3.33992 68.6382 3.25722C68.1651 3.17486 67.6602 3.25574 67.1133 3.47741L67.2636 3.84811C67.7636 3.64544 68.1909 3.58537 68.5696 3.6513C68.9464 3.7169 69.2962 3.9109 69.6361 4.25424L69.9204 3.97284ZM16.2787 7.65011C15.8667 7.96967 15.6098 8.34756 15.4604 8.97358C15.3148 9.58354 15.2695 10.4364 15.2695 11.712H15.6695C15.6695 10.4339 15.7161 9.62496 15.8495 9.06645C15.9789 8.52401 16.1879 8.2268 16.5238 7.96616L16.2787 7.65011ZM15.2695 11.712C15.2695 12.9543 15.2718 13.6255 15.3662 14.0678C15.4679 14.5445 15.6795 14.7684 16.0234 15.116L16.3077 14.8346C15.9696 14.493 15.8332 14.3397 15.7574 13.9843C15.6742 13.5945 15.6695 12.9786 15.6695 11.712H15.2695ZM16.0234 15.116L16.7194 15.8191L17.0037 15.5377L16.3077 14.8346L16.0234 15.116ZM16.8615 15.8784H24.1369V15.4784H16.8615V15.8784ZM24.1369 15.8784H31.4123V15.4784H24.1369V15.8784ZM31.5801 15.7872L31.9701 15.1859L31.6345 14.9682L31.2445 15.5696L31.5801 15.7872ZM31.9702 15.1858C32.0602 15.0469 32.1348 14.9268 32.1863 14.818C32.239 14.7068 32.2733 14.596 32.2733 14.4757C32.2733 14.3553 32.239 14.2446 32.1863 14.1333C32.1348 14.0245 32.0602 13.9044 31.9702 13.7655L31.6345 13.9831C31.7251 14.1227 31.786 14.2226 31.8248 14.3045C31.8624 14.384 31.8733 14.4346 31.8733 14.4757C31.8733 14.5167 31.8624 14.5674 31.8248 14.6468C31.786 14.7287 31.7251 14.8286 31.6345 14.9682L31.9702 15.1858ZM31.9701 13.7655L31.5801 13.1641L31.2445 13.3817L31.6345 13.9831L31.9701 13.7655ZM31.4123 13.0729H24.6315V13.4729H31.4123V13.0729ZM24.6315 13.0729H17.8507V13.4729H24.6315V13.0729ZM18.0507 13.2729V11.5891H17.6507V13.2729H18.0507ZM18.0507 11.5891V9.90524H17.6507V11.5891H18.0507ZM17.8507 10.1052H29.5183V9.70524H17.8507V10.1052ZM29.5183 10.1052H41.186V9.70524H29.5183V10.1052ZM40.986 9.90524V11.5891H41.386V9.90524H40.986ZM40.986 11.5891V13.2729H41.386V11.5891H40.986ZM41.186 13.0729H38.4532V13.4729H41.186V13.0729ZM38.4532 13.0729C37.1387 13.0729 36.427 13.0764 36.0012 13.1584C35.7793 13.2011 35.6155 13.2681 35.479 13.3788C35.3479 13.485 35.2559 13.6214 35.1625 13.7654L35.4981 13.9831C35.5939 13.8354 35.6554 13.7507 35.7309 13.6895C35.801 13.6327 35.8969 13.5858 36.0769 13.5512C36.4548 13.4784 37.1153 13.4729 38.4532 13.4729V13.0729ZM35.1625 13.7655C35.0724 13.9044 34.9978 14.0245 34.9463 14.1333C34.8936 14.2446 34.8594 14.3553 34.8594 14.4757C34.8594 14.596 34.8936 14.7068 34.9463 14.818C34.9978 14.9268 35.0724 15.0469 35.1625 15.1858L35.4981 14.9682C35.4075 14.8286 35.3466 14.7287 35.3078 14.6468C35.2702 14.5674 35.2594 14.5167 35.2594 14.4757C35.2594 14.4346 35.2702 14.384 35.3078 14.3045C35.3466 14.2226 35.4075 14.1227 35.4981 13.9831L35.1625 13.7655ZM35.1625 15.1859C35.2561 15.3301 35.3484 15.471 35.4881 15.5791C35.6327 15.6911 35.8106 15.7561 36.0579 15.7972C36.5377 15.877 37.3689 15.8784 38.9477 15.8784V15.4784C37.3468 15.4784 36.5614 15.4754 36.1235 15.4026C35.9119 15.3674 35.8057 15.3191 35.7329 15.2628C35.6551 15.2026 35.5966 15.1202 35.4981 14.9682L35.1625 15.1859ZM38.9477 15.8784H42.1751V15.4784H38.9477V15.8784ZM42.3173 15.8191L43.0133 15.116L42.729 14.8346L42.033 15.5377L42.3173 15.8191ZM43.0133 15.116C43.3572 14.7684 43.5688 14.5445 43.6705 14.0678C43.7648 13.6255 43.7672 12.9543 43.7672 11.712H43.3672C43.3672 12.9786 43.3625 13.5945 43.2793 13.9843C43.2035 14.3397 43.0671 14.493 42.729 14.8346L43.0133 15.116ZM43.7672 11.712C43.7672 10.4364 43.7219 9.58354 43.5763 8.97358C43.4269 8.34756 43.17 7.96967 42.758 7.65011L42.5128 7.96616C42.8488 8.2268 43.0578 8.52401 43.1872 9.06645C43.3205 9.62496 43.3672 10.4339 43.3672 11.712H43.7672ZM42.758 7.65008C42.72 7.62066 42.677 7.60567 42.6521 7.59783C42.6218 7.58831 42.5876 7.58034 42.552 7.57338C42.4803 7.5594 42.3877 7.54669 42.2783 7.53487C42.0587 7.51114 41.7561 7.48941 41.3845 7.4695C40.6405 7.42964 39.609 7.39651 38.3871 7.37004C35.9428 7.31707 32.7302 7.29061 29.5183 7.29061C26.3065 7.29061 23.0939 7.31707 20.6496 7.37004C19.4277 7.39651 18.3962 7.42964 17.6522 7.4695C17.2806 7.48941 16.978 7.51114 16.7584 7.53487C16.649 7.54669 16.5564 7.5594 16.4847 7.57338C16.449 7.58034 16.4149 7.58831 16.3846 7.59783C16.3597 7.60567 16.3166 7.62066 16.2787 7.65008L16.5238 7.96618C16.5029 7.98237 16.4889 7.98434 16.5047 7.97936C16.5152 7.97607 16.5334 7.97143 16.5613 7.96598C16.6168 7.95516 16.6965 7.94389 16.8013 7.93255C17.0102 7.90998 17.3044 7.88871 17.6736 7.86893C18.4112 7.82941 19.4377 7.79639 20.6582 7.76994C23.0987 7.71706 26.3082 7.69061 29.5183 7.69061C32.7285 7.69061 35.938 7.71706 38.3784 7.76994C39.599 7.79639 40.6255 7.82941 41.3631 7.86893C41.7323 7.88871 42.0264 7.90998 42.2353 7.93255C42.3402 7.94389 42.4199 7.95516 42.4754 7.96598C42.5033 7.97143 42.5215 7.97607 42.5319 7.97936C42.5478 7.98434 42.5337 7.98237 42.5129 7.96618L42.758 7.65008ZM62.2826 9.02247C62.0869 9.4954 60.3701 13.5227 58.467 17.9733L58.8347 18.1305C60.7371 13.6818 62.4554 9.65116 62.6522 9.17536L62.2826 9.02247ZM58.467 17.9733C55.9369 23.8896 54.6649 26.8644 54.0335 28.367C53.7184 29.1168 53.561 29.5044 53.4865 29.7085C53.4509 29.8061 53.4281 29.8775 53.4203 29.9308C53.4163 29.9579 53.4122 30.0031 53.4282 30.0525C53.4474 30.1116 53.4849 30.1447 53.4956 30.1542L53.7609 29.8548C53.7637 29.8573 53.7939 29.8832 53.8088 29.9294C53.815 29.9485 53.8164 29.9644 53.8167 29.9742C53.8169 29.9835 53.816 29.9892 53.816 29.9892C53.8159 29.9895 53.8163 29.9869 53.818 29.9803C53.8195 29.9739 53.822 29.9649 53.8257 29.9526C53.8332 29.9279 53.8448 29.8935 53.8623 29.8456C53.9328 29.6523 54.0862 29.274 54.4023 28.522C55.033 27.0209 56.3043 24.0478 58.8347 18.1305L58.467 17.9733ZM53.4956 30.1542C53.5204 30.1762 53.5526 30.1935 53.5658 30.2008C53.5867 30.2122 53.6129 30.2255 53.6429 30.2403C53.7032 30.27 53.7855 30.3087 53.8857 30.3546C54.0864 30.4466 54.3638 30.57 54.6917 30.7137C55.3478 31.0012 56.2093 31.3714 57.0709 31.7371C57.9324 32.1028 58.7948 32.4644 59.4527 32.7346C59.7815 32.8697 60.06 32.9823 60.2621 33.0612C60.363 33.1006 60.4462 33.1322 60.5076 33.1542C60.538 33.165 60.5651 33.1743 60.5872 33.181C60.5981 33.1843 60.61 33.1877 60.6216 33.1905C60.6282 33.192 60.6523 33.1979 60.6803 33.1979V32.7979C60.6943 32.7979 60.7046 32.7995 60.7073 32.8C60.7113 32.8006 60.7136 32.8012 60.7136 32.8012C60.7136 32.8012 60.7108 32.8005 60.704 32.7984C60.6906 32.7944 60.6703 32.7875 60.6421 32.7775C60.5863 32.7575 60.5074 32.7276 60.4077 32.6887C60.2089 32.611 59.9328 32.4994 59.6047 32.3646C58.9487 32.0952 58.0879 31.7343 57.2272 31.3689C56.3664 31.0035 55.5065 30.634 54.8522 30.3473C54.525 30.2039 54.25 30.0816 54.0524 29.991C53.9534 29.9456 53.875 29.9088 53.8196 29.8815C53.7918 29.8678 53.7713 29.8572 53.7576 29.8497C53.7363 29.8381 53.7459 29.8415 53.761 29.8549L53.4956 30.1542ZM60.6803 33.1979C60.7313 33.1979 60.7699 33.1798 60.7901 33.1684C60.812 33.1561 60.8292 33.1419 60.841 33.1311C60.8647 33.1096 60.8858 33.0842 60.9032 33.0612C60.9391 33.0139 60.9797 32.9502 61.0232 32.8762C61.111 32.7265 61.2226 32.5139 61.3499 32.2562C61.6049 31.7397 61.9284 31.0294 62.2595 30.2496L61.8913 30.0933C61.5624 30.8682 61.242 31.5712 60.9912 32.0792C60.8655 32.3337 60.7588 32.5363 60.6782 32.6737C60.6374 32.7431 60.6062 32.7909 60.5847 32.8193C60.5734 32.8341 60.5693 32.8376 60.5717 32.8354C60.5729 32.8343 60.5804 32.8275 60.5936 32.82C60.6052 32.8135 60.636 32.7979 60.6803 32.7979V33.1979ZM62.2595 30.2496C62.9197 28.6952 64.9798 23.8681 66.8378 19.5226L66.47 19.3653C64.612 23.7108 62.5517 28.5384 61.8913 30.0933L62.2595 30.2496ZM66.8378 19.5226C67.767 17.3491 68.5994 15.3601 69.1919 13.9063C69.4881 13.1796 69.7248 12.5856 69.8838 12.1687C69.9632 11.9607 70.024 11.7947 70.0632 11.6777C70.0827 11.6199 70.0981 11.5701 70.1078 11.5318C70.1125 11.5136 70.1175 11.4915 70.1201 11.4696C70.1213 11.4594 70.123 11.4411 70.1213 11.4195C70.1205 11.4094 70.1164 11.3443 70.0626 11.2896L69.7777 11.5705C69.7258 11.5178 69.7229 11.4564 69.7226 11.4516C69.7213 11.4355 69.7227 11.4243 69.7228 11.4228C69.7233 11.4185 69.7234 11.4207 69.7202 11.4334C69.7142 11.4569 69.7026 11.4952 69.684 11.5504C69.6474 11.6596 69.5889 11.8195 69.5101 12.0262C69.3527 12.4388 69.1173 13.0295 68.8215 13.7553C68.2301 15.2065 67.3986 17.1933 66.47 19.3653L66.8378 19.5226ZM70.062 11.2891C70.0445 11.2715 70.0261 11.2594 70.0199 11.2553C70.0103 11.249 70.0001 11.2429 69.9905 11.2373C69.9709 11.226 69.9464 11.2129 69.9183 11.1983C69.8617 11.1691 69.7837 11.1306 69.6878 11.0845C69.4954 10.992 69.2256 10.8661 68.8986 10.7161C68.2442 10.4159 67.3577 10.0177 66.3967 9.5938L66.2353 9.95977C67.195 10.3831 68.0797 10.7805 68.7318 11.0796C69.058 11.2293 69.3253 11.354 69.5144 11.4449C69.6092 11.4905 69.683 11.527 69.7345 11.5536C69.7604 11.567 69.7788 11.577 69.7908 11.5839C69.7936 11.5855 69.7958 11.5868 69.7974 11.5878C69.7991 11.5888 69.7998 11.5893 69.7998 11.5893C69.7997 11.5892 69.7993 11.589 69.7987 11.5885C69.7981 11.5881 69.797 11.5873 69.7955 11.5862C69.7935 11.5847 69.7867 11.5795 69.7783 11.571L70.062 11.2891ZM66.3967 9.59379L62.9048 8.05356L62.7434 8.41954L66.2353 9.95977L66.3967 9.59379ZM62.6393 8.16011L62.2826 9.02247L62.6522 9.17536L63.0089 8.31299L62.6393 8.16011ZM52.2376 32.6055C52.1136 32.8457 50.8327 35.8066 49.3949 39.1736L49.7628 39.3307C51.2063 35.9504 52.4779 33.012 52.593 32.7889L52.2376 32.6055ZM49.3949 39.1736C47.9546 42.5473 45.4168 48.4852 43.7555 52.3688L44.1232 52.5261C45.7846 48.6424 48.3224 42.7045 49.7628 39.3307L49.3949 39.1736ZM43.7555 52.3688C42.9243 54.3118 42.1851 56.0963 41.6636 57.4063C41.403 58.061 41.1962 58.5987 41.0593 58.9789C40.9911 59.1685 40.9391 59.3219 40.9066 59.4321C40.8906 59.4865 40.8777 59.5355 40.8704 59.5753C40.8669 59.5944 40.8632 59.6189 40.8629 59.6441C40.8627 59.6566 40.8632 59.6762 40.8679 59.6987C40.872 59.7181 40.8837 59.762 40.9217 59.802L41.2112 59.5259C41.2467 59.5632 41.2565 59.6029 41.2594 59.6165C41.2629 59.6333 41.2629 59.6457 41.2628 59.6494C41.2627 59.6571 41.2619 59.6581 41.2638 59.6477C41.2673 59.6287 41.2755 59.5955 41.2903 59.5453C41.3194 59.4465 41.3682 59.3019 41.4357 59.1144C41.5703 58.7404 41.7752 58.2075 42.0353 57.5542C42.5552 56.2482 43.293 54.467 44.1232 52.5261L43.7555 52.3688ZM40.9218 59.802C40.9642 59.8464 41.033 59.8899 41.0963 59.9271C41.1673 59.9688 41.2588 60.0178 41.3662 60.0724C41.5813 60.1819 41.8689 60.3182 42.2028 60.4707C42.8712 60.7759 43.7322 61.1489 44.5868 61.5065C45.4413 61.8641 46.2914 62.207 46.9377 62.4518C47.2605 62.5741 47.535 62.6729 47.7348 62.7369C47.8339 62.7686 47.9193 62.7933 47.9848 62.8078C48.0167 62.8148 48.0511 62.8211 48.0832 62.8231C48.0988 62.824 48.1217 62.8245 48.147 62.8206C48.1668 62.8175 48.2211 62.807 48.2681 62.7607L47.9871 62.476C48.0295 62.4341 48.0761 62.4268 48.0852 62.4254C48.0932 62.4241 48.0992 62.4238 48.1023 62.4238C48.1056 62.4237 48.1076 62.4238 48.1078 62.4238C48.108 62.4238 48.1051 62.4236 48.098 62.4225C48.0913 62.4214 48.0824 62.4197 48.071 62.4172C48.0239 62.4068 47.9525 62.3866 47.8568 62.3559C47.667 62.2952 47.4002 62.1993 47.0794 62.0778C46.4389 61.8351 45.5934 61.4941 44.7412 61.1375C43.8891 60.781 43.0322 60.4097 42.369 60.1069C42.0371 59.9553 41.7554 59.8216 41.5475 59.7159C41.4434 59.6629 41.3599 59.618 41.2988 59.5821C41.2298 59.5416 41.2092 59.5239 41.2112 59.5259L40.9218 59.802ZM48.2681 62.7607C48.29 62.7391 48.3049 62.7143 48.3093 62.7073C48.3171 62.6946 48.3252 62.6802 48.3332 62.6653C48.3494 62.6352 48.3695 62.5955 48.3928 62.5478C48.4397 62.4519 48.5029 62.3172 48.5801 62.1488C48.7347 61.8115 48.9479 61.3346 49.2039 60.7536C49.716 59.5914 50.4009 58.0098 51.1349 56.2893L50.7669 56.1324C50.0334 57.8518 49.3492 59.4319 48.8379 60.5923C48.5821 61.1727 48.3699 61.6475 48.2165 61.982C48.1397 62.1495 48.0782 62.2807 48.0335 62.3721C48.011 62.418 47.9937 62.4522 47.9812 62.4753C47.9749 62.487 47.9708 62.494 47.9687 62.4974C47.9632 62.5064 47.9705 62.4924 47.987 62.4761L48.2681 62.7607ZM51.1349 56.2894C52.6026 52.8496 55.1904 46.7992 56.8857 42.8439L56.518 42.6864C54.8226 46.6418 52.2347 52.6924 50.7669 56.1324L51.1349 56.2894ZM56.8857 42.8439C57.8584 40.5746 58.6094 38.753 59.0996 37.4797C59.3445 36.8436 59.5255 36.3413 59.6367 35.9872C59.6919 35.8111 59.7317 35.6661 59.7528 35.5575C59.7632 35.5041 59.7707 35.4515 59.7713 35.4049C59.7716 35.3817 59.7703 35.3528 59.7636 35.3228C59.7575 35.2951 59.7424 35.2467 59.7007 35.2045L59.4164 35.4859C59.3836 35.4527 59.3751 35.4184 59.3732 35.4098C59.3708 35.3988 59.3714 35.3941 59.3713 35.3999C59.3712 35.4115 59.3688 35.437 59.3602 35.4811C59.3434 35.5676 59.3089 35.6957 59.255 35.8674C59.1477 36.2092 58.9703 36.7022 58.7263 37.336C58.2387 38.6024 57.49 40.4187 56.518 42.6864L56.8857 42.8439ZM59.7007 35.2045C59.6758 35.1794 59.6441 35.1598 59.6285 35.1503C59.6067 35.1369 59.58 35.1218 59.55 35.1055C59.4896 35.0729 59.4084 35.0314 59.3104 34.983C59.114 34.8859 58.8441 34.7576 58.526 34.6094C57.8893 34.3127 57.0554 33.9342 56.2204 33.5614C55.3855 33.1887 54.5486 32.8213 53.9062 32.5469C53.5852 32.4097 53.3116 32.2954 53.1108 32.2151C53.0106 32.1751 52.9268 32.1428 52.8635 32.1203C52.8321 32.1092 52.8035 32.0996 52.7794 32.0926C52.7648 32.0883 52.7247 32.0763 52.6846 32.0763V32.4763C52.6585 32.4763 52.6445 32.4699 52.6674 32.4766C52.6808 32.4805 52.7012 32.4872 52.7295 32.4972C52.7856 32.5172 52.8638 32.5472 52.9623 32.5866C53.1588 32.6651 53.429 32.778 53.7491 32.9147C54.3889 33.188 55.2236 33.5544 56.0574 33.9267C56.8911 34.2989 57.723 34.6765 58.357 34.972C58.6742 35.1198 58.9408 35.2465 59.1331 35.3416C59.2295 35.3892 59.3056 35.4281 59.3596 35.4573C59.3867 35.472 59.4064 35.4832 59.4194 35.4912C59.4387 35.5031 59.4302 35.4999 59.4164 35.4859L59.7007 35.2045ZM52.6846 32.0763C52.632 32.0763 52.5937 32.0963 52.5782 32.1052C52.5595 32.116 52.5453 32.1277 52.5365 32.1357C52.5185 32.1517 52.5032 32.1695 52.4916 32.1837C52.4676 32.2134 52.4415 32.2514 52.4154 32.2921C52.3625 32.3748 52.2993 32.4857 52.2375 32.6057L52.5931 32.7888C52.6507 32.6771 52.7077 32.5775 52.7524 32.5077C52.7751 32.4721 52.7921 32.4483 52.8027 32.4352C52.8084 32.4281 52.8082 32.4293 52.8029 32.434C52.8003 32.4363 52.7918 32.4438 52.7782 32.4517C52.7676 32.4577 52.7337 32.4763 52.6846 32.4763V32.0763ZM13.5935 61.8869C12.1902 62.2506 10.6373 63.358 9.85133 64.5565L10.1858 64.7758C10.9166 63.6616 12.3854 62.6132 13.6938 62.2741L13.5935 61.8869ZM9.85132 64.5565C9.41066 65.2286 9.1528 65.8391 9.10664 66.3616C9.05936 66.8967 9.23588 67.3434 9.65469 67.6397L9.88574 67.3132C9.60021 67.1112 9.46837 66.8124 9.50508 66.3968C9.54292 65.9686 9.7614 65.4231 10.1858 64.7758L9.85132 64.5565ZM9.65469 67.6397C10.052 67.9209 10.4678 68.0032 10.866 67.834C11.2482 67.6717 11.5702 67.2952 11.8384 66.7642L11.4814 66.5838C11.2305 67.0806 10.9643 67.3577 10.7097 67.4659C10.4711 67.5672 10.2015 67.5367 9.88575 67.3132L9.65469 67.6397ZM11.8384 66.7642C12.6984 65.0615 14.278 64.2386 15.9992 64.5648L16.0737 64.1718C14.1599 63.8091 12.4135 64.7384 11.4814 66.5838L11.8384 66.7642ZM15.9992 64.5648C16.185 64.6001 16.5313 64.7528 16.9524 64.9904C17.3654 65.2235 17.8273 65.5251 18.2367 65.8378L18.4795 65.5199C18.055 65.1956 17.5776 64.8839 17.149 64.642C16.7284 64.4047 16.3309 64.2206 16.0737 64.1718L15.9992 64.5648ZM18.2367 65.8378C19.2132 66.5835 19.7813 67.0019 20.3111 67.2682C20.8484 67.5383 21.3403 67.649 22.1508 67.8003L22.2242 67.4071C21.415 67.2561 20.9728 67.1532 20.4907 66.9108C20.0011 66.6647 19.4643 66.2719 18.4795 65.5199L18.2367 65.8378ZM22.1507 67.8003C23.3649 68.0272 24.4894 67.9104 25.5195 67.4419C26.5477 66.9743 27.4684 66.1624 28.2877 65.0199L27.9626 64.7868C27.1732 65.8876 26.3033 66.646 25.3539 67.0778C24.4064 67.5087 23.3664 67.6205 22.2242 67.4071L22.1507 67.8003ZM28.2877 65.0199C28.6743 64.4806 28.9118 64.0385 28.9669 63.6443C29.0254 63.2258 28.876 62.8891 28.5721 62.5821L28.2878 62.8635C28.5258 63.1039 28.6081 63.3218 28.5707 63.5889C28.53 63.8802 28.3441 64.2546 27.9626 64.7868L28.2877 65.0199ZM28.5721 62.5821C28.2734 62.2803 27.9103 62.1338 27.5404 62.1672C27.1725 62.2005 26.8293 62.4088 26.5603 62.7546L26.8759 63.0002C27.0924 62.7221 27.3416 62.5868 27.5764 62.5656C27.8092 62.5445 28.0593 62.6326 28.2878 62.8635L28.5721 62.5821ZM26.5602 62.7546C26.3385 63.0398 25.7681 63.6836 25.2939 64.183L25.584 64.4584C26.0609 63.9562 26.642 63.3011 26.876 63.0002L26.5602 62.7546ZM25.2939 64.183C24.8998 64.5978 24.6799 64.7953 24.4354 64.9015C24.1917 65.0075 23.9036 65.0314 23.3435 65.0314V65.4314C23.8964 65.4314 24.2648 65.4119 24.5949 65.2684C24.9243 65.1252 25.1956 64.8672 25.5839 64.4585L25.2939 64.183ZM23.3435 65.0314C22.6916 65.0314 22.1558 64.9391 21.6084 64.7073C21.057 64.474 20.4839 64.0951 19.7629 63.5073L19.5102 63.8174C20.2435 64.4152 20.8506 64.8209 21.4524 65.0757C22.0582 65.3321 22.6487 65.4314 23.3435 65.4314V65.0314ZM19.7629 63.5073C19.2317 63.0743 18.4258 62.5285 17.963 62.2908L17.7803 62.6467C18.2113 62.868 18.9937 63.3964 19.5102 63.8174L19.7629 63.5073ZM17.963 62.2908C17.4645 62.0349 16.6554 61.8628 15.8457 61.7884C15.034 61.7139 14.1827 61.7341 13.5934 61.8869L13.6938 62.2741C14.2187 62.138 15.0174 62.1141 15.8091 62.1867C16.6028 62.2596 17.3506 62.4261 17.7803 62.6467L17.963 62.2908ZM40.2717 66.2167C40.2717 67.4999 40.2935 68.5234 40.3338 69.2214C40.3539 69.5692 40.3789 69.8421 40.4092 70.0276C40.424 70.1179 40.4419 70.2001 40.4662 70.2622C40.4774 70.2908 40.4973 70.3351 40.5334 70.3726C40.5761 70.417 40.6628 70.4686 40.7693 70.4319L40.6388 70.0537C40.7272 70.0232 40.7963 70.0689 40.8218 70.0954C40.8406 70.115 40.8438 70.1294 40.8387 70.1164C40.8304 70.0953 40.8178 70.0476 40.804 69.9631C40.7771 69.7989 40.7531 69.5429 40.7332 69.1983C40.6935 68.5117 40.6717 67.4971 40.6717 66.2167H40.2717ZM40.7693 70.4318C40.833 70.4098 40.9058 70.3629 40.9726 70.3154C41.0455 70.2637 41.1329 70.1955 41.2312 70.1147C41.4282 69.9527 41.6775 69.7331 41.9586 69.4765C42.5213 68.9629 43.2179 68.2949 43.8915 67.6281C44.5649 66.9614 45.2171 66.294 45.6907 65.7817C45.9269 65.5261 46.1213 65.3062 46.252 65.1433C46.3165 65.0628 46.3702 64.9904 46.4057 64.9317C46.4225 64.9038 46.4419 64.8684 46.4537 64.8308C46.4595 64.8122 46.4674 64.7814 46.466 64.7445C46.4645 64.7053 46.4514 64.6452 46.3999 64.5959L46.1235 64.885C46.0775 64.8411 46.0674 64.7887 46.0663 64.7597C46.0653 64.7328 46.0709 64.7145 46.0721 64.7107C46.0747 64.7025 46.0749 64.7057 46.0633 64.7249C46.0419 64.7603 46.0016 64.8161 45.9399 64.893C45.8182 65.0448 45.6314 65.2564 45.3969 65.5102C44.9289 66.0165 44.2812 66.6794 43.6101 67.3438C42.939 68.0082 42.2464 68.6722 41.689 69.1811C41.41 69.4358 41.1665 69.65 40.9772 69.8057C40.8824 69.8836 40.8032 69.9452 40.7411 69.9893C40.71 70.0113 40.685 70.0277 40.6656 70.0392C40.6446 70.0517 40.6368 70.0544 40.6388 70.0537L40.7693 70.4318ZM46.3999 64.5959C46.351 64.5492 46.261 64.4957 46.1703 64.4455C46.0704 64.3902 45.9412 64.324 45.7925 64.2514C45.4947 64.1061 45.1124 63.9322 44.7168 63.7645L44.5606 64.1327C44.9508 64.2981 45.3265 64.4691 45.6171 64.6109C45.7625 64.6819 45.885 64.7448 45.9767 64.7955C46.0226 64.8209 46.0591 64.8423 46.0862 64.8595C46.1163 64.8787 46.1252 64.8867 46.1235 64.885L46.3999 64.5959ZM44.7168 63.7645C43.9323 63.4319 42.6747 62.8825 41.9229 62.5442L41.7588 62.909C42.5133 63.2485 43.7735 63.799 44.5606 64.1327L44.7168 63.7645ZM41.9229 62.5442L40.5538 61.9279L40.3896 62.2927L41.7587 62.909L41.9229 62.5442ZM40.2717 62.1103V66.2167H40.6717V62.1103H40.2717Z" fill="white" mask="url(#path-1-outside-1_2426_4017)"/>
<path d="M10.457 43.7773H28.9941" stroke="#FDC114" stroke-width="3" stroke-linecap="round"/>
<path d="M11.4062 36.1729H39.9248" stroke="#FDC114" stroke-width="3" stroke-linecap="round"/>
<path d="M11.4062 28.5684L46.5791 28.5684" stroke="#FDC114" stroke-width="3" stroke-linecap="round"/>
<path d="M11.4062 21.9141L46.5791 21.9141" stroke="#FDC114" stroke-width="3" stroke-linecap="round"/>
</svg>
