<svg width="143" height="135" viewBox="0 0 143 135" fill="none" xmlns="http://www.w3.org/2000/svg">
<path fill-rule="evenodd" clip-rule="evenodd" d="M99.3642 0.391849C98.0789 0.807922 98.029 0.918185 97.9029 3.60758C97.825 5.26756 97.9903 6.80092 98.3126 7.40306C98.7351 8.19386 98.7403 8.59313 98.3354 9.24222C97.6611 10.3233 97.6723 14.1377 98.356 16.045C98.7863 17.2454 98.7863 17.5818 98.356 17.7265C97.6564 17.9621 97.6318 22.9855 98.3229 24.5034C98.7089 25.3515 98.7089 25.7309 98.3229 26.1173C97.6525 26.7883 97.674 31.8303 98.3522 32.917C98.7769 33.598 98.7769 33.9468 98.3522 34.6278C97.6762 35.7111 97.6585 39.8416 98.3229 41.3013C98.7089 42.1494 98.7089 42.5289 98.3229 42.9152C97.7058 43.5329 97.6426 49.1189 98.2485 49.4936C98.4851 49.64 98.6788 50.15 98.6788 50.6264C98.6788 51.1032 98.9692 51.7841 99.3242 52.1395C99.6792 52.4948 99.9697 52.9656 99.9697 53.1853C99.9697 53.4144 97.1077 53.5854 93.2746 53.5854H86.5799L84.9749 52.2945C83.6117 51.1979 82.6444 50.8908 78.5458 50.2542L73.7212 49.5052V43.5622V37.6191L75.7798 36.7043C77.0887 36.1228 78.3809 35.0822 79.3298 33.8456L80.8212 31.9018L80.9443 23.6842C81.0183 18.721 80.8974 15.2111 80.6379 14.8209C80.2898 14.2967 78.788 14.1494 72.685 14.0395C67.786 13.9517 64.8531 14.0697 64.2778 14.3777C63.4335 14.8299 63.3939 15.2201 63.3939 23.1186V31.3858L64.7924 33.4433C65.5614 34.5753 66.5295 35.6098 66.9439 35.7425C67.3583 35.8756 67.697 36.1495 67.697 36.3515C67.697 36.5536 68.2779 36.8469 68.9879 37.0028L70.2788 37.2866V43.4976V49.7089H69.0158C67.1673 49.7089 61.6792 50.9171 60.0462 51.6833C59.2703 52.0477 58.4127 52.7024 58.1408 53.1379C57.8688 53.5738 57.439 53.8688 57.1855 53.7939C56.9316 53.7189 56.2139 53.5462 55.5904 53.4101C54.5452 53.1827 54.457 52.991 54.457 50.9537C54.457 48.347 54 47.9103 51.453 48.0834C49.7951 48.1958 49.4207 47.9835 49.5735 47.0161C49.6965 46.2387 48.3746 38.5521 47.9917 37.816C47.7584 37.3689 47.2124 36.2762 46.7769 35.3876C46.3419 34.499 45.8367 33.7724 45.6538 33.7724C45.4709 33.7724 45.3212 33.5751 45.3212 33.3339C45.3212 32.9024 43.4206 30.9357 41.374 29.2499C40.7987 28.7761 39.5637 28.0279 38.6291 27.5869C37.6949 27.1463 36.5873 26.6087 36.1678 26.3929C35.7487 26.1771 34.5382 25.8817 33.4784 25.7361L31.5515 25.4716V21.5245C31.5515 17.3604 31.2314 16.5437 29.5984 16.5437C28.2244 16.5437 27.6125 18.3588 27.7222 22.1103L27.8173 25.3696L25.6262 25.802C24.421 26.0402 23.2927 26.3804 23.1184 26.5579C22.9446 26.7354 22.4472 26.8809 22.013 26.8809C21.5792 26.8809 21.2242 27.0537 21.2242 27.2651C21.2242 27.4762 20.7401 27.7708 20.1485 27.9194C19.5568 28.068 19.0727 28.3798 19.0727 28.612C19.0727 28.8446 18.8016 29.0345 18.4703 29.0345C17.6523 29.0345 13.8957 33.2146 12.8333 35.3075C12.36 36.24 11.8565 37.0997 11.7141 37.2181C11.5717 37.3366 11.3432 37.9181 11.2064 38.5103C11.0691 39.1025 10.7545 40.3624 10.5067 41.31C10.2593 42.2575 10.0523 44.1475 10.0467 45.5094L10.0364 47.9861H8.5019C5.86629 47.9861 5.30303 48.5576 5.30303 51.2315C5.30303 53.5712 5.29485 53.5854 3.98372 53.5854C1.10844 53.5854 1 53.8343 1 60.4398V66.4022L2.25562 66.923C2.94669 67.2094 4.1567 67.3985 4.94502 67.3434C5.73376 67.2882 7.20196 67.2714 8.20757 67.3059L10.0364 67.3683V92.9292C10.0364 117.145 10.0777 118.528 10.8234 119.203C11.4413 119.763 12.5033 119.916 15.7719 119.916H19.9333V126.496C19.9333 134.813 20.0228 134.991 24.2295 134.991C26.8853 134.991 27.2739 134.879 28.048 133.894C28.5222 133.29 29.0317 132.176 29.1801 131.417C29.3286 130.658 29.6022 129.65 29.7881 129.176C30.6354 127.018 31.5515 123.812 31.5515 123.006C31.5515 122.519 31.7451 122 31.9818 121.854C32.2185 121.708 32.4121 121.212 32.4121 120.752C32.4121 119.93 33.0993 119.916 71.9307 119.916H111.45L111.949 121.013C112.224 121.616 112.448 122.477 112.448 122.926C112.448 123.374 112.62 123.848 112.83 123.977C113.04 124.107 113.343 124.918 113.505 125.779C113.666 126.64 113.958 127.659 114.152 128.045C114.347 128.43 114.842 129.905 115.252 131.321C115.662 132.738 116.312 134.137 116.697 134.43C117.84 135.301 122.476 135.137 123.57 134.187C124.445 133.427 124.497 133.006 124.497 126.649V119.916L128.477 119.902C131.103 119.893 132.714 119.694 133.211 119.316C133.913 118.783 133.964 117.016 133.964 93.0563C133.964 72.8178 134.078 67.3584 134.501 67.3223C134.798 67.2968 136.425 67.3132 138.119 67.3584C143.062 67.4911 143 67.5807 143 60.2925C143 55.0507 142.896 54.0682 142.319 53.8468C141.945 53.703 138.169 53.5854 133.928 53.5854C129.688 53.5854 126.218 53.5044 126.218 53.4058C126.218 53.3071 126.605 52.3217 127.079 51.2164C128.091 48.8531 128.312 43.0259 127.401 42.6917C126.971 42.5341 126.971 42.3803 127.401 41.9237C128.074 41.21 128.132 34.9987 127.472 34.3379C127.135 34.0007 127.135 33.7888 127.472 33.5803C127.747 33.4097 127.939 31.8329 127.939 29.7413C127.939 27.7596 127.733 25.9851 127.472 25.7236C127.135 25.3864 127.135 25.1744 127.472 24.966C128.124 24.5624 128.082 18.1507 127.423 17.4913C127.022 17.0895 127.022 16.8594 127.423 16.4576C128.056 15.8244 128.129 9.38953 127.508 9.00533C127.219 8.82701 127.219 8.47081 127.508 7.93155C127.745 7.48791 127.939 5.67115 127.939 3.89487C127.939 0.926799 127.861 0.639512 126.971 0.347916C125.476 -0.141809 100.894 -0.103045 99.3642 0.391849ZM101.893 4.07362C101.495 4.7184 102.09 7.64211 102.699 8.02932C102.973 8.20419 107.792 8.34978 113.408 8.35365L123.62 8.36011L123.859 7.391C123.99 6.8582 124.139 5.84042 124.19 5.12973L124.282 3.83758L113.231 3.72258C105.656 3.64376 102.091 3.75446 101.893 4.07362ZM101.899 14.2825C102.068 15.4075 102.428 16.4727 102.701 16.6493C102.974 16.8259 107.74 16.9228 113.291 16.8646L123.386 16.7591L123.993 15.1603C125.131 12.1672 125.396 12.2366 112.843 12.2366H101.593L101.899 14.2825ZM66.8363 24.0813C66.8363 27.5162 67.0089 30.3267 67.2202 30.3267C67.431 30.3267 67.7133 30.7647 67.8476 31.3001C68.1789 32.6211 70.2628 33.7724 72.3231 33.7724C73.6838 33.7724 74.3305 33.4701 75.5917 32.2442L77.1636 30.716V24.276V17.8359H72H66.8363V24.0813ZM101.87 22.6599C102.029 23.6553 102.368 24.7213 102.623 25.0289C102.98 25.4591 105.416 25.5888 113.131 25.5888C124.328 25.5888 123.67 25.7736 124.292 22.4583L124.593 20.8509H113.087H101.581L101.87 22.6599ZM25.3121 29.7198C21.9949 30.9228 20.6894 31.7179 18.7061 33.7414C17.6058 34.8638 16.506 36.0569 16.2616 36.3925C15.1355 37.9396 14.2791 41.2768 14.2043 44.4115L14.1242 47.7707L29.7227 47.8836L45.3212 47.9968V44.5399C45.3212 42.6387 45.137 40.7461 44.9116 40.3348C44.6865 39.9235 44.1731 38.8118 43.7712 37.8642C43.3689 36.9166 41.908 35.0443 40.5246 33.7031C36.2775 29.5858 30.1233 27.9741 25.3121 29.7198ZM101.899 31.0804C102.067 32.2055 102.294 33.2719 102.403 33.4494C102.513 33.6268 107.31 33.7724 113.063 33.7724H123.524L124.057 31.8682C124.35 30.8207 124.461 29.7547 124.303 29.4993C124.109 29.1861 120.362 29.0345 112.804 29.0345H101.593L101.899 31.0804ZM101.898 39.6874C102.067 40.8168 102.428 41.8832 102.701 42.0573C102.974 42.2313 107.675 42.3764 113.149 42.3803C120.655 42.385 123.212 42.2528 123.552 41.8419C123.801 41.5421 124.067 40.5248 124.143 39.5806L124.282 37.8642L112.936 37.7492L101.591 37.6342L101.898 39.6874ZM112.717 46.1628L101.583 46.2778L101.864 48.036C102.17 49.9514 102.974 51.2367 104.678 52.5331C105.668 53.286 106.514 53.37 113.094 53.37C119.74 53.37 120.514 53.2912 121.556 52.5086C122.187 52.0348 122.985 51.1626 123.33 50.5704C124.089 49.2644 124.653 46.3847 124.188 46.1891C124.003 46.1116 118.841 46.0995 112.717 46.1628ZM8.82721 52.6163C8.96276 53.3201 10.3643 53.3773 29.9439 53.482C50.6983 53.5923 50.9151 53.5845 50.9151 52.7283C50.9151 51.8729 50.6617 51.8625 29.7989 51.8625C9.91975 51.8625 8.6908 51.9069 8.82721 52.6163ZM4.87273 60.4769V63.4919H23.8061C34.2194 63.4919 42.7394 63.3988 42.7394 63.2851C42.7394 63.171 41.5195 61.8142 40.0289 60.2701L37.3184 57.4618H21.0956H4.87273V60.4769ZM42.7394 57.6346C42.7394 57.7297 44.6271 59.7438 46.9348 62.1101C49.2425 64.4765 52.651 68.0329 54.509 70.0129C61.2334 77.1788 66.9956 82.8741 67.5197 82.8741C67.8144 82.8741 68.1281 83.0917 68.2163 83.357C68.3157 83.6555 69.6867 83.8545 71.802 83.8781C76.2927 83.9285 77.0096 83.4543 84.6939 75.3487C94.0651 65.4633 95.5354 63.9265 98.8173 60.5845L101.885 57.4618H72.312C56.0469 57.4618 42.7394 57.5398 42.7394 57.6346ZM104.488 59.9174C103.305 61.2168 102.181 62.5529 101.992 62.8859C101.699 63.4027 104.437 63.4919 120.603 63.4919H139.558V60.4769V57.4618L123.098 57.5084L106.639 57.5549L104.488 59.9174ZM14.0653 67.5837C13.9749 67.8206 13.9508 78.7716 14.0124 91.9192L14.1242 115.824L72.3227 115.933L130.521 116.042V91.7155V67.3886L114.353 67.271C105.461 67.206 97.8982 67.3141 97.5471 67.5113C96.9554 67.843 91.2255 73.6482 88.5473 76.6287C83.4065 82.3504 79.7725 85.6915 77.5991 86.6942C74.963 87.9101 70.1105 88.4773 69.2981 87.6641C69.033 87.3988 68.4151 87.1813 67.9259 87.1813C66.5954 87.1813 63.9791 85.2306 60.828 81.8891C59.2811 80.2481 55.401 76.2751 52.206 73.0603L46.397 67.2146L30.3135 67.1836C19.9596 67.1637 14.1716 67.3063 14.0653 67.5837ZM23.8061 125.766C23.8061 130.255 23.9313 131.575 24.3439 131.439C25.06 131.202 25.751 129.725 26.6112 126.592C27.0015 125.171 27.5949 123.277 27.9301 122.384C28.2653 121.491 28.5394 120.57 28.5394 120.338C28.5394 120.106 27.4744 119.916 26.1727 119.916H23.8061V125.766ZM115.891 120.542C115.891 120.886 116.072 121.613 116.292 122.157C116.513 122.701 117.022 124.309 117.424 125.73C118.465 129.413 119.434 131.583 119.957 131.409C120.234 131.317 120.456 129.062 120.529 125.587L120.649 119.916H118.27C116.477 119.916 115.891 120.07 115.891 120.542Z" fill="#058FA2"/>
<mask id="path-2-outside-1_2871_5136" maskUnits="userSpaceOnUse" x="0.105469" y="12.3691" width="107" height="77" fill="black">
<rect fill="white" x="0.105469" y="12.3691" width="107" height="77"/>
<path fill-rule="evenodd" clip-rule="evenodd" d="M64.6736 13.562C64.3821 13.6867 64.0396 14.0658 63.9127 14.4043C63.7781 14.7637 63.6821 18.2945 63.6821 22.886V30.7523L64.6423 32.2473C65.5105 33.5994 66.0588 34.1842 67.9842 35.8113C68.3181 36.0935 69.0144 36.3969 69.5316 36.4855L70.4722 36.6467V43.1581V49.6694H69.0455C67.4787 49.6694 63.8998 50.3467 61.5106 51.0954C60.4188 51.4374 59.6408 51.8849 58.7923 52.6588L57.6035 53.7432L56.3293 53.4748C55.6283 53.3273 54.9554 53.0786 54.8341 52.9225C54.7126 52.7664 54.555 51.837 54.4838 50.8571C54.4126 49.8773 54.2839 48.8937 54.1977 48.6713C53.9884 48.1321 52.6128 47.6936 51.7402 47.8882C51.3541 47.9741 50.7437 47.9787 50.3833 47.8984C49.7357 47.7542 49.7233 47.7176 49.3231 44.7323C48.6802 39.9381 48.1662 37.8601 47.0908 35.7061C46.5504 34.6239 45.9004 33.5578 45.6466 33.3374C45.3926 33.1167 45.1849 32.8184 45.1849 32.674C45.1849 32.2471 41.6629 28.9021 40.2679 28.004C38.0389 26.569 35.2878 25.4481 33.2577 25.1481L31.3706 24.869V21.1321C31.3706 19.0769 31.2671 17.1194 31.1406 16.7818C30.8803 16.0875 30.0271 15.6678 29.279 15.8664C28.2841 16.1303 27.9959 17.2053 27.8641 21.1473L27.7414 24.8113L25.8682 25.2255C24.838 25.4533 23.6034 25.8087 23.1246 26.0153C22.6458 26.2218 22.04 26.3909 21.7783 26.3909C21.5165 26.3909 21.3025 26.5016 21.3025 26.637C21.3025 26.7721 20.8284 27.089 20.2489 27.341C19.6694 27.5931 19.1952 27.9085 19.1952 28.042C19.1952 28.1755 18.8496 28.4313 18.427 28.6104C17.264 29.1033 14.3277 32.4735 12.8156 35.0507C11.1124 37.9537 10.3142 40.8911 10.1258 44.9491L9.99745 47.711L8.23179 47.8259C6.6771 47.9271 6.40128 48.0174 5.92339 48.5808C5.46401 49.1229 5.38089 49.4846 5.38089 50.9438C5.38089 51.9624 5.26124 52.8208 5.08821 53.0441C4.9023 53.2838 4.29986 53.4596 3.43728 53.5256C1.67654 53.6608 1.34242 54.0126 1.2099 55.8699L1.10547 57.3338L8.68696 57.1851C12.8568 57.1034 21.0646 56.9689 26.9266 56.8863L37.5847 56.7362L41.4316 61.2197C45.4792 65.9371 48.1814 68.8225 58.2392 79.1658C64.572 85.6783 66.1384 87.0114 67.9392 87.4209C68.5115 87.551 69.2893 87.8211 69.6674 88.0211C70.5253 88.4751 71.8103 88.4843 74.0222 88.0525C78.6694 87.1453 80.3234 85.8401 89.5816 75.7726C91.9373 73.2107 94.8582 70.161 96.0725 68.9952C97.1256 67.984 100.787 63.5406 104.06 59.5365C107.318 55.5499 106.326 53.0387 101.18 53.2066C99.9665 53.2462 98.6094 53.3003 97.1055 53.3707C91.1274 53.6508 88.1229 53.8612 88.0719 53.7066C86.1055 52.9532 87.7003 53.47 87.3413 53.47C86.9297 53.47 86.2437 53.1102 85.4816 52.4947C83.7969 51.1339 82.6288 50.7493 77.8898 49.9956L73.7501 49.3371V43.2111V37.0848L75.2632 36.3888C77.2749 35.4633 78.2461 34.6792 79.7519 32.7647L81.0085 31.167V23.3452C81.0085 19.0434 80.942 15.1858 80.8605 14.7727C80.7791 14.3599 80.4894 13.8924 80.2167 13.7338C79.5957 13.3727 65.4817 13.2166 64.6736 13.562ZM66.9654 22.8872L66.9708 28.885L67.7264 30.4214C68.3843 31.7592 68.6442 32.0431 69.7379 32.6186C70.7138 33.1322 71.3158 33.2794 72.4371 33.2794C74.0725 33.2794 74.4284 33.0949 76.2672 31.2934L77.4964 30.0888V23.4891V16.8894H72.2282H66.96L66.9654 22.8872ZM26.3365 28.6594C25.5639 28.8563 23.9307 29.5102 22.7073 30.1124C20.7811 31.0608 20.1927 31.5072 18.3156 33.444C17.1233 34.6742 15.9315 36.1111 15.6669 36.637C14.7917 38.3777 14.2469 41.0756 14.1104 44.3453L13.9807 47.4537L21.0747 47.6114C24.9764 47.6981 32.0594 47.7692 36.8146 47.7692H45.4603L45.3811 44.028L45.302 40.2868L44.1779 37.957C43.2294 35.9907 42.7363 35.3051 41.017 33.5626C38.7065 31.2205 36.7806 29.9815 34.0632 29.0891C31.7063 28.3149 28.4077 28.1313 26.3365 28.6594ZM9.83168 51.7835C8.7064 51.936 8.27862 52.5422 9.05714 52.8809C10.0572 53.3161 46.7944 53.6684 49.7507 53.271C50.802 53.1299 50.9214 53.0532 50.9214 52.5199C50.9214 51.9866 50.802 51.9099 49.7507 51.7688C48.2988 51.5735 11.2798 51.5873 9.83168 51.7835ZM42.9161 57.4575C42.4412 57.7637 66.8999 83.3996 67.6667 83.3996C67.8374 83.3996 68.1804 83.5868 68.4295 83.8153C68.8121 84.1669 69.3572 84.231 71.9599 84.231C76.9398 84.231 76.7228 84.3928 88.3514 71.9979C91.967 68.1438 96.6077 63.2537 98.6637 61.1306L102.402 57.2706L72.7984 57.2742C56.5164 57.2763 43.0692 57.3587 42.9161 57.4575Z"/>
</mask>
<path fill-rule="evenodd" clip-rule="evenodd" d="M64.6736 13.562C64.3821 13.6867 64.0396 14.0658 63.9127 14.4043C63.7781 14.7637 63.6821 18.2945 63.6821 22.886V30.7523L64.6423 32.2473C65.5105 33.5994 66.0588 34.1842 67.9842 35.8113C68.3181 36.0935 69.0144 36.3969 69.5316 36.4855L70.4722 36.6467V43.1581V49.6694H69.0455C67.4787 49.6694 63.8998 50.3467 61.5106 51.0954C60.4188 51.4374 59.6408 51.8849 58.7923 52.6588L57.6035 53.7432L56.3293 53.4748C55.6283 53.3273 54.9554 53.0786 54.8341 52.9225C54.7126 52.7664 54.555 51.837 54.4838 50.8571C54.4126 49.8773 54.2839 48.8937 54.1977 48.6713C53.9884 48.1321 52.6128 47.6936 51.7402 47.8882C51.3541 47.9741 50.7437 47.9787 50.3833 47.8984C49.7357 47.7542 49.7233 47.7176 49.3231 44.7323C48.6802 39.9381 48.1662 37.8601 47.0908 35.7061C46.5504 34.6239 45.9004 33.5578 45.6466 33.3374C45.3926 33.1167 45.1849 32.8184 45.1849 32.674C45.1849 32.2471 41.6629 28.9021 40.2679 28.004C38.0389 26.569 35.2878 25.4481 33.2577 25.1481L31.3706 24.869V21.1321C31.3706 19.0769 31.2671 17.1194 31.1406 16.7818C30.8803 16.0875 30.0271 15.6678 29.279 15.8664C28.2841 16.1303 27.9959 17.2053 27.8641 21.1473L27.7414 24.8113L25.8682 25.2255C24.838 25.4533 23.6034 25.8087 23.1246 26.0153C22.6458 26.2218 22.04 26.3909 21.7783 26.3909C21.5165 26.3909 21.3025 26.5016 21.3025 26.637C21.3025 26.7721 20.8284 27.089 20.2489 27.341C19.6694 27.5931 19.1952 27.9085 19.1952 28.042C19.1952 28.1755 18.8496 28.4313 18.427 28.6104C17.264 29.1033 14.3277 32.4735 12.8156 35.0507C11.1124 37.9537 10.3142 40.8911 10.1258 44.9491L9.99745 47.711L8.23179 47.8259C6.6771 47.9271 6.40128 48.0174 5.92339 48.5808C5.46401 49.1229 5.38089 49.4846 5.38089 50.9438C5.38089 51.9624 5.26124 52.8208 5.08821 53.0441C4.9023 53.2838 4.29986 53.4596 3.43728 53.5256C1.67654 53.6608 1.34242 54.0126 1.2099 55.8699L1.10547 57.3338L8.68696 57.1851C12.8568 57.1034 21.0646 56.9689 26.9266 56.8863L37.5847 56.7362L41.4316 61.2197C45.4792 65.9371 48.1814 68.8225 58.2392 79.1658C64.572 85.6783 66.1384 87.0114 67.9392 87.4209C68.5115 87.551 69.2893 87.8211 69.6674 88.0211C70.5253 88.4751 71.8103 88.4843 74.0222 88.0525C78.6694 87.1453 80.3234 85.8401 89.5816 75.7726C91.9373 73.2107 94.8582 70.161 96.0725 68.9952C97.1256 67.984 100.787 63.5406 104.06 59.5365C107.318 55.5499 106.326 53.0387 101.18 53.2066C99.9665 53.2462 98.6094 53.3003 97.1055 53.3707C91.1274 53.6508 88.1229 53.8612 88.0719 53.7066C86.1055 52.9532 87.7003 53.47 87.3413 53.47C86.9297 53.47 86.2437 53.1102 85.4816 52.4947C83.7969 51.1339 82.6288 50.7493 77.8898 49.9956L73.7501 49.3371V43.2111V37.0848L75.2632 36.3888C77.2749 35.4633 78.2461 34.6792 79.7519 32.7647L81.0085 31.167V23.3452C81.0085 19.0434 80.942 15.1858 80.8605 14.7727C80.7791 14.3599 80.4894 13.8924 80.2167 13.7338C79.5957 13.3727 65.4817 13.2166 64.6736 13.562ZM66.9654 22.8872L66.9708 28.885L67.7264 30.4214C68.3843 31.7592 68.6442 32.0431 69.7379 32.6186C70.7138 33.1322 71.3158 33.2794 72.4371 33.2794C74.0725 33.2794 74.4284 33.0949 76.2672 31.2934L77.4964 30.0888V23.4891V16.8894H72.2282H66.96L66.9654 22.8872ZM26.3365 28.6594C25.5639 28.8563 23.9307 29.5102 22.7073 30.1124C20.7811 31.0608 20.1927 31.5072 18.3156 33.444C17.1233 34.6742 15.9315 36.1111 15.6669 36.637C14.7917 38.3777 14.2469 41.0756 14.1104 44.3453L13.9807 47.4537L21.0747 47.6114C24.9764 47.6981 32.0594 47.7692 36.8146 47.7692H45.4603L45.3811 44.028L45.302 40.2868L44.1779 37.957C43.2294 35.9907 42.7363 35.3051 41.017 33.5626C38.7065 31.2205 36.7806 29.9815 34.0632 29.0891C31.7063 28.3149 28.4077 28.1313 26.3365 28.6594ZM9.83168 51.7835C8.7064 51.936 8.27862 52.5422 9.05714 52.8809C10.0572 53.3161 46.7944 53.6684 49.7507 53.271C50.802 53.1299 50.9214 53.0532 50.9214 52.5199C50.9214 51.9866 50.802 51.9099 49.7507 51.7688C48.2988 51.5735 11.2798 51.5873 9.83168 51.7835ZM42.9161 57.4575C42.4412 57.7637 66.8999 83.3996 67.6667 83.3996C67.8374 83.3996 68.1804 83.5868 68.4295 83.8153C68.8121 84.1669 69.3572 84.231 71.9599 84.231C76.9398 84.231 76.7228 84.3928 88.3514 71.9979C91.967 68.1438 96.6077 63.2537 98.6637 61.1306L102.402 57.2706L72.7984 57.2742C56.5164 57.2763 43.0692 57.3587 42.9161 57.4575Z" fill="#FDD304"/>
<path fill-rule="evenodd" clip-rule="evenodd" d="M64.6736 13.562C64.3821 13.6867 64.0396 14.0658 63.9127 14.4043C63.7781 14.7637 63.6821 18.2945 63.6821 22.886V30.7523L64.6423 32.2473C65.5105 33.5994 66.0588 34.1842 67.9842 35.8113C68.3181 36.0935 69.0144 36.3969 69.5316 36.4855L70.4722 36.6467V43.1581V49.6694H69.0455C67.4787 49.6694 63.8998 50.3467 61.5106 51.0954C60.4188 51.4374 59.6408 51.8849 58.7923 52.6588L57.6035 53.7432L56.3293 53.4748C55.6283 53.3273 54.9554 53.0786 54.8341 52.9225C54.7126 52.7664 54.555 51.837 54.4838 50.8571C54.4126 49.8773 54.2839 48.8937 54.1977 48.6713C53.9884 48.1321 52.6128 47.6936 51.7402 47.8882C51.3541 47.9741 50.7437 47.9787 50.3833 47.8984C49.7357 47.7542 49.7233 47.7176 49.3231 44.7323C48.6802 39.9381 48.1662 37.8601 47.0908 35.7061C46.5504 34.6239 45.9004 33.5578 45.6466 33.3374C45.3926 33.1167 45.1849 32.8184 45.1849 32.674C45.1849 32.2471 41.6629 28.9021 40.2679 28.004C38.0389 26.569 35.2878 25.4481 33.2577 25.1481L31.3706 24.869V21.1321C31.3706 19.0769 31.2671 17.1194 31.1406 16.7818C30.8803 16.0875 30.0271 15.6678 29.279 15.8664C28.2841 16.1303 27.9959 17.2053 27.8641 21.1473L27.7414 24.8113L25.8682 25.2255C24.838 25.4533 23.6034 25.8087 23.1246 26.0153C22.6458 26.2218 22.04 26.3909 21.7783 26.3909C21.5165 26.3909 21.3025 26.5016 21.3025 26.637C21.3025 26.7721 20.8284 27.089 20.2489 27.341C19.6694 27.5931 19.1952 27.9085 19.1952 28.042C19.1952 28.1755 18.8496 28.4313 18.427 28.6104C17.264 29.1033 14.3277 32.4735 12.8156 35.0507C11.1124 37.9537 10.3142 40.8911 10.1258 44.9491L9.99745 47.711L8.23179 47.8259C6.6771 47.9271 6.40128 48.0174 5.92339 48.5808C5.46401 49.1229 5.38089 49.4846 5.38089 50.9438C5.38089 51.9624 5.26124 52.8208 5.08821 53.0441C4.9023 53.2838 4.29986 53.4596 3.43728 53.5256C1.67654 53.6608 1.34242 54.0126 1.2099 55.8699L1.10547 57.3338L8.68696 57.1851C12.8568 57.1034 21.0646 56.9689 26.9266 56.8863L37.5847 56.7362L41.4316 61.2197C45.4792 65.9371 48.1814 68.8225 58.2392 79.1658C64.572 85.6783 66.1384 87.0114 67.9392 87.4209C68.5115 87.551 69.2893 87.8211 69.6674 88.0211C70.5253 88.4751 71.8103 88.4843 74.0222 88.0525C78.6694 87.1453 80.3234 85.8401 89.5816 75.7726C91.9373 73.2107 94.8582 70.161 96.0725 68.9952C97.1256 67.984 100.787 63.5406 104.06 59.5365C107.318 55.5499 106.326 53.0387 101.18 53.2066C99.9665 53.2462 98.6094 53.3003 97.1055 53.3707C91.1274 53.6508 88.1229 53.8612 88.0719 53.7066C86.1055 52.9532 87.7003 53.47 87.3413 53.47C86.9297 53.47 86.2437 53.1102 85.4816 52.4947C83.7969 51.1339 82.6288 50.7493 77.8898 49.9956L73.7501 49.3371V43.2111V37.0848L75.2632 36.3888C77.2749 35.4633 78.2461 34.6792 79.7519 32.7647L81.0085 31.167V23.3452C81.0085 19.0434 80.942 15.1858 80.8605 14.7727C80.7791 14.3599 80.4894 13.8924 80.2167 13.7338C79.5957 13.3727 65.4817 13.2166 64.6736 13.562ZM66.9654 22.8872L66.9708 28.885L67.7264 30.4214C68.3843 31.7592 68.6442 32.0431 69.7379 32.6186C70.7138 33.1322 71.3158 33.2794 72.4371 33.2794C74.0725 33.2794 74.4284 33.0949 76.2672 31.2934L77.4964 30.0888V23.4891V16.8894H72.2282H66.96L66.9654 22.8872ZM26.3365 28.6594C25.5639 28.8563 23.9307 29.5102 22.7073 30.1124C20.7811 31.0608 20.1927 31.5072 18.3156 33.444C17.1233 34.6742 15.9315 36.1111 15.6669 36.637C14.7917 38.3777 14.2469 41.0756 14.1104 44.3453L13.9807 47.4537L21.0747 47.6114C24.9764 47.6981 32.0594 47.7692 36.8146 47.7692H45.4603L45.3811 44.028L45.302 40.2868L44.1779 37.957C43.2294 35.9907 42.7363 35.3051 41.017 33.5626C38.7065 31.2205 36.7806 29.9815 34.0632 29.0891C31.7063 28.3149 28.4077 28.1313 26.3365 28.6594ZM9.83168 51.7835C8.7064 51.936 8.27862 52.5422 9.05714 52.8809C10.0572 53.3161 46.7944 53.6684 49.7507 53.271C50.802 53.1299 50.9214 53.0532 50.9214 52.5199C50.9214 51.9866 50.802 51.9099 49.7507 51.7688C48.2988 51.5735 11.2798 51.5873 9.83168 51.7835ZM42.9161 57.4575C42.4412 57.7637 66.8999 83.3996 67.6667 83.3996C67.8374 83.3996 68.1804 83.5868 68.4295 83.8153C68.8121 84.1669 69.3572 84.231 71.9599 84.231C76.9398 84.231 76.7228 84.3928 88.3514 71.9979C91.967 68.1438 96.6077 63.2537 98.6637 61.1306L102.402 57.2706L72.7984 57.2742C56.5164 57.2763 43.0692 57.3587 42.9161 57.4575Z" stroke="#FDD304" stroke-width="0.6" mask="url(#path-2-outside-1_2871_5136)"/>
</svg>
