<svg width="71" height="71" viewBox="0 0 71 71" fill="none" xmlns="http://www.w3.org/2000/svg">
<path fill-rule="evenodd" clip-rule="evenodd" d="M14.255 0.32297C13.4842 0.850119 13.2863 1.40195 13.2863 3.02443V4.44782H9.9246C6.1553 4.44782 5.57347 4.53753 4.01288 5.35903C2.32483 6.24764 1.0445 7.76115 0.391808 9.63972L0.00373678 10.7564L0.00179919 37.682L0 64.6078L0.344475 65.7002C0.79358 67.1243 1.77649 68.5326 2.92534 69.3978C3.99946 70.2066 4.2566 70.3402 5.4467 70.7073L6.39556 71H35.4376H64.4797L65.5818 70.6512C67.807 69.9469 69.7702 68.0297 70.441 65.9056C70.6037 65.3903 70.7958 64.8604 70.8678 64.728C71.049 64.395 71.0415 10.4063 70.8603 10.6871C70.7517 10.8555 70.7258 10.8364 70.724 10.5863C70.7207 10.102 70.0845 8.52872 69.6161 7.84683C68.932 6.85063 67.8795 5.9024 66.8657 5.3686C65.2853 4.53669 64.7131 4.44782 60.9357 4.44782H57.574V3.02443C57.574 1.90553 57.5192 1.49789 57.3177 1.11799C56.5261 -0.374441 54.3872 -0.372223 53.5985 1.12201C53.3326 1.62559 53.2836 1.93062 53.2836 3.08308V4.44782H48.7857H44.2877L44.2869 3.23463C44.2859 1.69394 44.1326 1.15404 43.5294 0.568381C43.1163 0.167266 42.9282 0.0900373 42.2478 0.0423416C41.5823 -0.00424491 41.3705 0.0405392 40.9661 0.313403C40.1937 0.834867 39.9978 1.38378 39.9976 3.02665L39.9973 4.44782H35.4302H30.863L30.8627 3.02665C30.8626 1.38378 30.6666 0.834867 29.8942 0.313403C29.4898 0.0405392 29.2781 -0.00424491 28.6125 0.0423416C27.9321 0.0900373 27.744 0.167266 27.3309 0.568381C26.7278 1.15404 26.5744 1.69394 26.5735 3.23463L26.5726 4.44782H22.0747H17.5767V3.09071C17.5767 1.46933 17.2689 0.682074 16.4717 0.263905C15.7937 -0.0915946 14.8235 -0.0658057 14.255 0.32297ZM6.16388 9.03104C5.41902 9.40332 4.90348 9.92395 4.53216 10.6788C4.24193 11.269 4.21799 11.5255 4.17356 14.5346L4.12609 17.7583H35.4302H66.7342L66.6815 14.5346C66.6237 11.0078 66.575 10.7603 65.7552 9.82496C65.5165 9.55251 65.0423 9.19826 64.7014 9.03784C64.1265 8.76706 63.8471 8.74598 60.8279 8.74598H57.574L57.5737 10.0978C57.5736 11.6571 57.367 12.2292 56.6243 12.7261C55.8843 13.2212 55.3267 13.2646 54.5649 12.8861C53.5934 12.4033 53.2836 11.7138 53.2836 10.0338V8.74598H48.8013H44.3191L44.2618 10.1671C44.1955 11.8088 44.0004 12.3021 43.2283 12.7802C42.5568 13.196 41.5347 13.212 41.0002 12.8154C40.1681 12.198 39.9973 11.7493 39.9973 10.1813V8.74598H35.4302H30.863V10.1813C30.863 11.7493 30.6922 12.198 29.8602 12.8154C29.3881 13.1657 28.3481 13.1894 27.7278 12.8639C26.9347 12.4478 26.6533 11.7788 26.5938 10.1677L26.5412 8.74598H22.059H17.5767V10.0338C17.5767 11.7138 17.2669 12.4033 16.2954 12.8861C15.5336 13.2646 14.976 13.2212 14.236 12.7261C13.4934 12.2292 13.2867 11.6571 13.2866 10.0978L13.2863 8.74598L9.99933 8.75153C7.00908 8.75652 6.66281 8.78175 6.16388 9.03104ZM0.0678156 37.7239C0.0678156 52.6323 0.0840082 58.7311 0.103799 51.277C0.12359 43.8227 0.12359 31.625 0.103799 24.1708C0.0840082 16.7166 0.0678156 22.8155 0.0678156 37.7239ZM4.18394 43.0966C4.21771 62.1719 4.24221 64.1831 4.44607 64.6322C4.78487 65.3786 5.47202 66.0908 6.19945 66.4498L6.85076 66.7712H35.4302C61.5154 66.7712 64.0528 66.7515 64.5041 66.5459C65.2491 66.2064 65.96 65.518 66.3184 64.7893L66.6392 64.1368L66.6764 43.0966L66.7136 22.0564H35.4302H4.14671L4.18394 43.0966ZM11.4394 29.0491C10.7364 29.3048 10.2696 29.7616 10.0926 30.3671C10.0006 30.6819 9.96377 32.6539 9.99117 35.8075C10.0324 40.5851 10.0439 40.7677 10.3253 41.1455C10.4854 41.3607 10.8279 41.6616 11.0865 41.8141C11.5328 42.0775 11.8052 42.0914 16.5387 42.0914C22.0698 42.0914 22.0547 42.0938 22.7211 41.1576L23.0434 40.7049V35.5055V30.3061L22.7211 29.8534C22.0614 28.9267 22.0388 28.9231 16.7463 28.8876C12.9443 28.8621 11.8632 28.8949 11.4394 29.0491ZM49.2223 29.0491C48.5194 29.3048 48.0526 29.7616 47.8756 30.3671C47.7835 30.6819 47.7467 32.6539 47.7741 35.8075C47.8154 40.5851 47.8269 40.7677 48.1082 41.1455C48.2683 41.3607 48.6109 41.6616 48.8694 41.8141C49.3158 42.0775 49.5881 42.0914 54.3216 42.0914C59.0552 42.0914 59.3275 42.0775 59.7739 41.8141C60.0324 41.6616 60.3749 41.3607 60.5351 41.1454C60.8192 40.7635 60.8264 40.6243 60.8264 35.5055C60.8264 30.3867 60.8192 30.2475 60.5351 29.8656C60.3749 29.6503 60.0324 29.3494 59.7739 29.1969C59.3317 28.936 59.0232 28.9177 54.5292 28.8876C50.7273 28.8621 49.6461 28.8949 49.2223 29.0491ZM39.3053 30.39C39.115 30.4646 37.8059 31.6779 36.3963 33.0863L33.8332 35.6468L32.9364 34.7339C31.8697 33.6483 31.4884 33.4256 30.6969 33.4263C29.1878 33.4276 28.1475 35.1267 28.8467 36.4483C29.1437 37.0097 32.6727 40.4613 33.121 40.6286C33.7029 40.846 34.2737 40.8057 34.8475 40.5065C35.3482 40.2454 41.5348 34.1115 41.9853 33.4295C42.328 32.9107 42.2833 31.7716 41.8976 31.1932C41.3513 30.3739 40.2314 30.027 39.3053 30.39ZM14.2551 35.5055V37.8626H16.5387H18.8223V35.5055V33.1484H16.5387H14.2551V35.5055ZM52.0381 35.5055V37.8626H54.3216H56.6052V35.5055V33.1484H54.3216H52.0381V35.5055ZM11.1306 47.0135C10.7816 47.1882 10.4516 47.5004 10.2656 47.8322C9.97235 48.3549 9.96474 48.4933 9.96474 53.3221C9.96474 58.1108 9.97456 58.2931 10.2579 58.7982C10.4191 59.0856 10.7856 59.4528 11.0725 59.6143C11.5767 59.8981 11.7587 59.908 16.5387 59.908C21.3659 59.908 21.4961 59.9008 22.0212 59.6052C22.3672 59.4102 22.6595 59.0944 22.8408 58.719C23.1108 58.1603 23.1211 57.926 23.083 53.1392C23.045 48.3415 23.0321 48.1274 22.7581 47.76C22.6011 47.5495 22.3008 47.2486 22.0907 47.0914C21.7238 46.8167 21.5125 46.804 16.7017 46.7682C11.9012 46.7326 11.6715 46.7427 11.1306 47.0135ZM30.09 46.9307C29.5454 47.1715 29.1045 47.7338 28.919 48.4236C28.8265 48.768 28.7885 50.6697 28.8148 53.6396C28.8536 58.0225 28.8735 58.3427 29.133 58.7842C29.2852 59.0432 29.5856 59.3864 29.8005 59.5468C30.1817 59.8314 30.3206 59.8386 35.4302 59.8386C40.5397 59.8386 40.6787 59.8314 41.0598 59.5468C41.2748 59.3864 41.5751 59.0432 41.7273 58.7842C41.9903 58.3371 42.0041 58.0642 42.0041 53.3221C42.0041 48.58 41.9903 48.3071 41.7273 47.8599C41.5751 47.6009 41.2748 47.2578 41.06 47.0974C40.6816 46.8145 40.5119 46.8045 35.5932 46.7738C31.5571 46.7484 30.4295 46.7806 30.09 46.9307ZM49.0625 46.932C48.5534 47.1585 48.0917 47.6468 47.8954 48.1664C47.8011 48.4155 47.7477 50.2933 47.7477 53.3566C47.7477 57.8733 47.764 58.1904 48.0245 58.7294C48.2009 59.0945 48.4964 59.4122 48.8391 59.6052C49.3642 59.9008 49.4947 59.908 54.3114 59.908C58.9838 59.908 59.2748 59.8931 59.792 59.6289C60.1437 59.4492 60.4376 59.1547 60.617 58.8024C60.8808 58.2842 60.8956 57.9926 60.8956 53.3118C60.8956 48.4864 60.8884 48.3556 60.5933 47.8296C60.4007 47.4863 60.0836 47.1903 59.7192 47.0135C59.1801 46.752 58.8708 46.7365 54.3125 46.7416C50.5929 46.7457 49.3819 46.7897 49.0625 46.932ZM14.2551 53.3221V55.6098H16.5387H18.8223V53.3221V51.0343H16.5387H14.2551V53.3221ZM33.0774 53.3221V55.6098H35.4302H37.783V53.3221V51.0343H35.4302H33.0774V53.3221ZM52.0381 53.3221V55.6098H54.3216H56.6052V53.3221V51.0343H54.3216H52.0381V53.3221Z" fill="#43AFAD"/>
</svg>
