<svg width="97" height="83" viewBox="0 0 97 83" fill="none" xmlns="http://www.w3.org/2000/svg">
<path fill-rule="evenodd" clip-rule="evenodd" d="M11.9459 29.5789C8.36202 38.2164 0 59.5676 0 60.0813C0 61.1792 10.5115 63.9872 12.9227 63.5336C14.0797 63.3161 15.8048 63.3097 16.7566 63.519C18.3061 63.8607 18.4422 64.0647 18.0573 65.4705C17.8212 66.334 17.8648 67.7375 18.1544 68.5893C18.6945 70.1764 21.5481 71.8206 22.6156 71.1595C22.9412 70.9577 23.6011 71.5565 24.0825 72.49C25.0582 74.3809 26.0344 74.912 28.5374 74.912C29.4706 74.912 30.234 75.154 30.234 75.4502C30.234 75.7464 30.9114 76.7959 31.7393 77.7825C32.7702 79.0116 33.7656 79.5766 34.8982 79.5766C35.9924 79.5766 36.6663 79.9392 36.8907 80.6494C37.4105 82.2913 39.7315 83.2825 41.9607 82.8143C44.3696 82.3076 45.9173 82.3076 50.1001 82.8131C52.9909 83.1624 53.4834 83.0708 54.1066 82.0703C54.6991 81.1193 55.2893 80.9753 57.6586 81.2033C60.775 81.5036 62.4152 80.5847 63.0111 78.2046C63.2896 77.0915 63.6501 76.9481 65.6874 77.1429C68.4864 77.4111 70.747 76.1522 71.2784 74.0299C71.5708 72.8608 72.004 72.5798 73.5116 72.5798C75.7943 72.5798 77.8764 70.5606 78.4328 67.8074C78.7741 66.1212 79.0811 65.8501 80.8358 65.681C81.9428 65.5749 83.201 65.1941 83.6325 64.835C84.0639 64.4758 86.1582 63.7382 88.2862 63.196C97.6157 60.8182 97.2401 60.985 96.8406 59.388C96.2197 56.9076 84.8645 28.593 84.243 27.9755C83.3598 27.0986 72.6779 32.8686 72.6779 34.2224C72.6779 35.964 66.27 35.627 59.7482 33.5432C56.6166 32.542 51.8083 31.5613 48.2581 31.1987C42.9235 30.6541 41.0159 30.7351 33.1411 31.8383L24.1291 33.1012L19.1393 30.3923C16.395 28.9026 13.8303 27.684 13.4408 27.684C13.0506 27.684 12.3779 28.5364 11.9459 29.5789ZM8.63181 44.784L3.01875 58.8778L6.30611 59.9011C8.11434 60.4643 10.1168 60.8579 10.7563 60.7757C13.2983 60.4503 22.0063 39.9184 21.4039 35.6713C21.2772 34.7804 20.1579 33.8248 17.7334 32.5397L14.2449 30.6897L8.63181 44.784ZM79.2009 32.7047C75.0518 35.0498 75.0024 35.2218 76.7106 41.3976C78.9125 49.3582 84.6377 60.9185 86.3779 60.9185C86.8471 60.9185 88.7717 60.4888 90.6549 59.9641L94.0783 59.0096L92.7143 55.4453C91.9637 53.4851 89.4298 47.1069 87.0832 41.2711L82.8161 30.6617L79.2009 32.7047ZM31.5073 34.6778C27.8903 35.2527 24.7733 35.8812 24.5802 36.0748C24.3872 36.2684 23.6255 38.8216 22.8871 41.7492C22.1493 44.6767 20.0957 50.0963 18.323 53.7924C16.5508 57.489 15.1693 60.5553 15.2542 60.6066C15.3385 60.6579 16.4066 60.992 17.627 61.3494C19.5533 61.9138 20.119 61.838 21.9144 60.7757C23.6145 59.7699 24.2738 59.6615 25.6123 60.1681C26.5082 60.5075 28.3955 60.6544 29.8066 60.4952C32.0736 60.2387 32.6184 60.4229 34.5022 62.0812C35.7924 63.2176 36.989 63.8204 37.5361 63.61C38.0326 63.4187 39.3228 63.6327 40.4025 64.0852C42.8317 65.1032 44.4091 67.9112 43.8881 70.2901C43.6823 71.2288 43.7474 71.9967 44.0323 71.9967C44.3172 71.9967 45.1231 72.532 45.8225 73.1856C46.7598 74.0608 47.0953 75.0514 47.0953 76.9411C47.0953 79.8343 47.1511 79.8984 50.1524 80.4634C53.4101 81.0762 53.0066 79.6354 48.5488 74.7377C46.4702 72.4538 44.7696 70.2621 44.7696 69.8674C44.7696 67.8535 46.5214 68.8628 51.4658 73.7255C56.0689 78.2524 57.1597 79.0489 58.5377 78.8897C60.279 78.6891 60.8151 77.5434 60.2406 75.2496C60.0592 74.5243 57.0167 71.3507 53.4799 68.1969C47.5406 62.9015 46.2615 61.0993 48.0255 60.5104C48.3767 60.3926 51.9089 63.2263 55.8747 66.8075C59.8401 70.3881 63.671 73.7051 64.3885 74.1791C66.27 75.4222 68.6079 74.7091 68.6079 72.8929C68.6079 70.9396 67.0317 69.2762 59.3051 63.0765C52.9781 57.9997 51.499 56.1584 53.4909 55.8383C53.9706 55.7614 58.4185 58.9653 63.3751 62.9581C68.3317 66.9509 72.8046 70.2242 73.3145 70.2324C74.6146 70.2534 76.1664 68.3707 76.1664 66.7719C76.1664 64.2945 73.9239 61.7541 67.6236 57.0937C64.1815 54.5474 59.5406 51.0811 57.3109 49.3914C53.2293 46.2977 49.6582 44.7362 48.0657 45.349C47.5924 45.5309 47.0371 46.4452 46.8325 47.3804C46.3976 49.3652 43.4439 52.4157 41.0979 53.3032C35.8546 55.2856 31.2218 51.6817 33.965 47.7547C34.4179 47.1058 35.1842 45.0552 35.668 43.1975C36.6744 39.333 37.5233 38.2217 41.5642 35.4813L44.4632 33.5146L41.2735 33.5741C39.5187 33.6067 35.1238 34.1035 31.5073 34.6778ZM43.8649 37.1587C39.7199 39.9061 39.1699 40.4886 38.5012 42.8436C38.0913 44.2867 37.2355 46.5017 36.5988 47.7658C35.5767 49.7943 35.5418 50.1657 36.3011 50.9266C37.0175 51.6455 37.5477 51.6729 39.4804 51.0922C41.9933 50.3371 44.0294 48.2054 44.5259 45.8102C45.1277 42.9089 45.5603 42.5859 48.5977 42.7736C50.1692 42.8704 52.2583 43.2861 53.2397 43.6972C55.8387 44.7864 75.4344 59.595 76.8909 61.5716C77.8258 62.8392 78.6055 63.2508 80.073 63.2508C81.2242 63.2508 82.1475 62.9103 82.3371 62.4153C82.5126 61.9558 81.2463 58.742 79.5224 55.2727C77.799 51.8041 75.628 46.4073 74.6983 43.2809L73.0081 37.596H68.5288C65.0374 37.596 62.9588 37.21 59.1075 35.8468C51.6821 33.219 49.5303 33.4038 43.8649 37.1587ZM22.0673 63.7709C20.0073 65.8373 19.8928 68.0995 21.8353 68.3782C24.1825 68.7153 26.5257 64.1784 24.7622 62.7109C24.0104 62.0852 23.5796 62.2549 22.0673 63.7709ZM29.5404 63.063C28.999 63.2065 28.2479 64.291 27.8711 65.4734C27.4943 66.6565 26.9565 67.8727 26.6751 68.1777C25.671 69.2657 26.1059 71.8994 27.3554 72.2976C28.927 72.7979 31.0212 71.3746 32.8975 68.5316C34.122 66.6763 34.2784 66.0419 33.7551 65.0612C33.201 64.0228 31.2521 62.5348 30.7084 62.7354C30.6073 62.7727 30.0817 62.9202 29.5404 63.063ZM36.6296 66.9958C36.6296 67.4523 35.6796 69.0738 34.5191 70.5985C32.7725 72.8929 32.4969 73.62 32.9202 74.81C33.7661 77.1889 35.1674 77.6944 37.0448 76.2997C40.5851 73.6695 42.4392 68.7269 40.5833 66.8658C39.5903 65.8699 36.6296 65.9673 36.6296 66.9958ZM40.881 76.2974C39.0298 78.0104 38.7699 78.5212 39.3054 79.3999C40.2234 80.9059 41.97 80.9806 43.4724 79.5766C44.9486 78.1976 45.1702 75.9715 43.9335 74.9424C43.2584 74.3803 42.6712 74.6409 40.881 76.2974Z" fill="white"/>
<path d="M39 2L42.5 22.5" stroke="#FDC114" stroke-width="3" stroke-linecap="round"/>
<path d="M54 22.5L57.5 2" stroke="#FDC114" stroke-width="3" stroke-linecap="round"/>
<path d="M23 14.1953L30.5001 24.5802" stroke="#FDC114" stroke-width="3" stroke-linecap="round"/>
<path d="M65 24.5781L72.5001 14.1932" stroke="#FDC114" stroke-width="3" stroke-linecap="round"/>
</svg>
