<svg width="15" height="19" viewBox="0 0 15 19" fill="none" xmlns="http://www.w3.org/2000/svg">
<path fill-rule="evenodd" clip-rule="evenodd" d="M6.44468 0.052539C3.41052 0.44565 0.955278 2.39768 0.215751 5.00474C-0.212529 6.51452 0.00617348 8.24594 0.788557 9.54024C1.55316 10.8052 7.369 19 7.50211 19C7.52513 19 7.84497 18.5859 8.21279 18.0799C8.58061 17.5739 9.14046 16.8054 9.45695 16.3723C11.2496 13.9186 13.6968 10.4083 14.214 9.54864C14.7377 8.67824 14.9981 7.71365 15 6.63752C15.0014 5.84046 14.9157 5.31294 14.6758 4.6419C13.8444 2.31594 11.6849 0.606026 8.95078 0.108779C8.29956 -0.00966206 7.12757 -0.0359422 6.44468 0.052539ZM6.68016 3.79073C5.51241 4.0613 4.57544 4.90719 4.29881 5.9405C4.11643 6.62186 4.19955 7.22428 4.56672 7.88154C4.88015 8.44265 5.42287 8.93419 6.02264 9.20026C6.37233 9.3554 7.1075 9.51453 7.46961 9.51344C8.75751 9.50955 9.97465 8.81943 10.503 7.79342C11.3464 6.15556 10.2901 4.23349 8.30145 3.78756C7.86598 3.68991 7.10891 3.69136 6.68016 3.79073Z" fill="#6EC4C2"/>
</svg>
