<svg width="19" height="18" viewBox="0 0 19 18" fill="none" xmlns="http://www.w3.org/2000/svg">
<path d="M14.2335 17.5191C14.2953 17.7179 14.1757 17.9256 13.9651 17.9841C13.9279 17.9946 13.8907 17.9999 13.8535 17.9999C13.6817 17.9999 13.5242 17.8941 13.4743 17.7306C12.9747 16.1226 11.3407 14.9999 9.49917 14.9999C7.65769 14.9999 6.02363 16.1226 5.52407 17.7306C5.46311 17.9301 5.24144 18.0426 5.03322 17.9849C4.82263 17.9264 4.70309 17.7186 4.76484 17.5199C5.36178 15.5946 7.30855 14.2506 9.49838 14.2506C11.6882 14.2506 13.6358 15.5946 14.2319 17.5199L14.2335 17.5191ZM18.9837 10.7692C18.3867 8.84394 16.44 7.49995 14.2501 7.49995C14.0316 7.49995 13.8543 7.66795 13.8543 7.87494C13.8543 8.08194 14.0316 8.24994 14.2501 8.24994C16.0908 8.24994 17.7257 9.37268 18.2252 10.9807C18.2751 11.1449 18.4335 11.2499 18.6045 11.2499C18.6417 11.2499 18.6789 11.2447 18.7161 11.2342C18.9267 11.1757 19.0454 10.9679 18.9837 10.7692ZM5.14564 7.87494C5.14564 7.66795 4.9683 7.49995 4.7498 7.49995C2.55918 7.49995 0.612398 8.84394 0.016252 10.7692C-0.0455003 10.9679 0.0740457 11.1757 0.284637 11.2342C0.321846 11.2447 0.359056 11.2499 0.396266 11.2499C0.568063 11.2499 0.725611 11.1442 0.775487 10.9807C1.27505 9.37268 2.90911 8.24994 4.75059 8.24994C4.9691 8.24994 5.14564 8.08194 5.14564 7.87494ZM9.49997 6.74995C11.2464 6.74995 12.6667 8.09544 12.6667 9.74993C12.6667 11.4044 11.2464 12.7499 9.49997 12.7499C7.75349 12.7499 6.33319 11.4044 6.33319 9.74993C6.33319 8.09544 7.75349 6.74995 9.49997 6.74995ZM7.12488 9.74993C7.12488 10.9904 8.1905 11.9999 9.49997 11.9999C10.8094 11.9999 11.8751 10.9904 11.8751 9.74993C11.8751 8.50944 10.8094 7.49995 9.49997 7.49995C8.1905 7.49995 7.12488 8.50944 7.12488 9.74993ZM11.0834 2.99998C11.0834 1.34549 12.5037 0 14.2501 0C15.9966 0 17.4169 1.34549 17.4169 2.99998C17.4169 4.65447 15.9966 5.99996 14.2501 5.99996C12.5037 5.99996 11.0834 4.65447 11.0834 2.99998ZM11.8751 2.99998C11.8751 4.24047 12.9407 5.24996 14.2501 5.24996C15.5596 5.24996 16.6252 4.24047 16.6252 2.99998C16.6252 1.75949 15.5596 0.749995 14.2501 0.749995C12.9407 0.749995 11.8751 1.75949 11.8751 2.99998ZM1.58302 2.99998C1.58302 1.34549 3.00332 0 4.7498 0C6.49627 0 7.91658 1.34549 7.91658 2.99998C7.91658 4.65447 6.49627 5.99996 4.7498 5.99996C3.00332 5.99996 1.58302 4.65447 1.58302 2.99998ZM2.37471 2.99998C2.37471 4.24047 3.44033 5.24996 4.7498 5.24996C6.05926 5.24996 7.12488 4.24047 7.12488 2.99998C7.12488 1.75949 6.05926 0.749995 4.7498 0.749995C3.44033 0.749995 2.37471 1.75949 2.37471 2.99998Z" fill="#6EC4C2"/>
</svg>
