<svg width="23" height="15" viewBox="0 0 23 15" fill="none" xmlns="http://www.w3.org/2000/svg">
<path fill-rule="evenodd" clip-rule="evenodd" d="M21.9294 0.0947794C21.4674 0.220499 20.8979 0.68576 20.6584 1.13331C20.2933 1.81536 20.2603 2.13351 20.2589 4.98441C20.2577 7.52072 20.2628 7.61852 20.3991 7.68302C20.4769 7.7198 20.9705 7.74992 21.496 7.74992H22.4515V10.9524V14.1549L22.272 14.3135C22.0221 14.5345 21.5895 14.5314 21.405 14.3074C21.2821 14.1582 21.273 13.9598 21.279 11.5686C21.2846 9.28817 21.2719 8.97881 21.1685 8.88741C21.1042 8.8306 21.0086 8.78412 20.9561 8.78412C20.7019 8.78412 20.6899 8.92406 20.7116 11.6381C20.7325 14.2518 20.7365 14.3154 20.8912 14.5287C21.3513 15.1625 22.3113 15.156 22.847 14.5155L23 14.3327L22.9747 7.21149C22.9559 1.92221 22.9277 0.0781675 22.865 0.0428754C22.734 -0.0308113 22.3031 -0.00695997 21.9294 0.0947794ZM0.10418 0.622286C-0.0123883 0.725318 -0.0186044 0.898288 0.0246152 2.85629C0.0758058 5.17768 0.0965745 5.29053 0.523943 5.56983L0.73207 5.70583V9.97694C0.73207 14.0097 0.739602 14.2606 0.867506 14.4733C1.06795 14.8067 1.41334 14.9893 1.84349 14.9893C2.28527 14.9893 2.56404 14.8674 2.83074 14.5575L3.03565 14.3195L3.01181 10.0248L2.98804 5.73013L3.20414 5.52808C3.62368 5.13592 3.61886 5.1643 3.64372 2.93928C3.65637 1.80438 3.64803 0.810058 3.62522 0.729778C3.57542 0.554481 3.3259 0.469547 3.1784 0.577751C3.09196 0.64116 3.07221 0.900162 3.07221 1.97276V3.28994H2.59687H2.12153V1.9778C2.12153 0.663136 2.09396 0.510528 1.85614 0.510528C1.80678 0.510528 1.71464 0.556226 1.65138 0.612073C1.55463 0.697653 1.53649 0.916968 1.53649 2.00178V3.28994H1.06115H0.585811V1.9778C0.585811 0.663136 0.558241 0.510528 0.320424 0.510528C0.271061 0.510528 0.173726 0.560815 0.10418 0.622286ZM22.0866 0.602507C21.695 0.702113 21.2582 1.13176 21.0583 1.61402C20.8899 2.02014 20.8855 2.08833 20.8599 4.63117L20.8337 7.23282L21.6243 7.23289H22.415L22.3957 4.30804C22.3851 2.69935 22.3686 1.19291 22.3591 0.96034L22.3418 0.537546L22.0866 0.602507ZM10.474 1.12342C9.6769 1.25845 9.16975 1.4 8.51429 1.67032C5.45017 2.93385 3.58229 5.81158 3.95079 8.70081C4.2281 10.8746 5.49017 12.7077 7.51103 13.8721C8.28371 14.3172 8.89815 14.5625 9.78726 14.7809C10.4335 14.9396 10.609 14.9547 11.8112 14.9558C13.2556 14.9571 13.7804 14.8736 14.8865 14.4667C16.0686 14.0317 17.3492 13.1475 18.1552 12.2099C18.6061 11.6853 19.2532 10.523 19.4507 9.88315C20.1675 7.55983 19.4714 5.05428 17.6104 3.25911C16.66 2.34235 15.1908 1.57123 13.7738 1.24546C12.8771 1.03933 11.3121 0.981412 10.474 1.12342ZM10.5314 1.6466C6.30015 2.32438 3.61403 6.10141 4.76114 9.76028C5.50794 12.1422 7.87119 14.0168 10.6216 14.4089C11.3533 14.5133 12.9637 14.4582 13.6029 14.3069C15.7065 13.8091 17.4235 12.576 18.3852 10.8722C19.7489 8.45628 19.2226 5.49169 17.0824 3.53369C15.3835 1.97954 12.9068 1.26607 10.5314 1.6466ZM11.0068 2.87949C10.4345 2.96029 9.85344 3.12796 9.25166 3.3858C5.60037 4.95054 4.83398 9.25682 7.76647 11.7311C8.32913 12.2058 8.78801 12.4877 9.38424 12.7248C10.2935 13.0865 10.629 13.1447 11.8112 13.146C12.7598 13.147 12.9818 13.1267 13.4535 12.9958C15.6733 12.3796 17.1996 10.8486 17.5947 8.84159C18.0241 6.6602 16.7321 4.42691 14.4613 3.42542C14.0495 3.24379 13.5151 3.04949 13.2738 2.99358C12.8356 2.89203 11.4217 2.82093 11.0068 2.87949ZM10.9529 3.41689C8.99322 3.73368 7.39717 4.95442 6.80913 6.58645C5.9922 8.85367 7.22385 11.2958 9.67676 12.2726C11.5595 13.0223 13.8712 12.6791 15.3916 11.4242C16.1756 10.777 16.6671 10.0495 16.9347 9.13963C17.1083 8.54943 17.1112 7.48743 16.9406 6.90964C16.4648 5.29713 15.102 4.04898 13.2738 3.55114C12.6989 3.39459 11.5147 3.32607 10.9529 3.41689ZM0.585811 4.22925C0.585811 4.75275 0.706548 5.01796 1.05033 5.24975L1.31711 5.42957V9.8094C1.31711 14.1278 1.31923 14.1913 1.46622 14.3307C1.72751 14.5787 2.20314 14.5117 2.38472 14.2013C2.48272 14.0338 2.49054 13.4938 2.44974 9.733C2.42421 7.38026 2.43036 5.42556 2.46348 5.38917C2.49661 5.35278 2.61259 5.27308 2.72119 5.212C2.96091 5.07729 3.07126 4.76219 3.07177 4.21102L3.07221 3.80704H1.82901H0.585811V4.22925ZM9.76305 5.57494C9.34226 5.74817 8.96894 6.09508 8.74787 6.51852C8.62786 6.7483 8.59415 6.94034 8.59386 7.39578C8.59349 7.92697 8.61528 8.01804 8.83855 8.41886C8.98086 8.67443 9.25699 9.01546 9.49737 9.23258C9.92423 9.61814 10.9867 10.273 11.5413 10.4924L11.8565 10.6171L12.2726 10.4374C13.3877 9.95581 14.4168 9.13847 14.8048 8.42616C15.1016 7.88133 15.1461 7.16243 14.9164 6.624C14.431 5.48626 13.0531 5.06566 12.0572 5.75127L11.7914 5.93426L11.655 5.79878C11.2691 5.41522 10.4007 5.31251 9.76305 5.57494ZM9.93395 6.0711C9.24815 6.39131 8.96411 7.26036 9.29217 8.03523C9.54161 8.6246 10.4588 9.4027 11.4383 9.85601L11.8394 10.0416L12.1909 9.89117C13.1247 9.49158 13.9226 8.82956 14.2767 8.1607C14.4753 7.78567 14.4954 7.69253 14.4634 7.29746C14.4014 6.53054 13.9295 6.0135 13.2382 5.95475C12.7639 5.91448 12.4068 6.07581 12.0799 6.47779L11.8188 6.79911L11.7053 6.64695C11.1992 5.96865 10.5827 5.7682 9.93395 6.0711Z" fill="#058FA2"/>
</svg>
