<svg width="160" height="107" viewBox="0 0 160 107" fill="none" xmlns="http://www.w3.org/2000/svg">
<path fill-rule="evenodd" clip-rule="evenodd" d="M92.2596 0.533534C91.8498 0.944269 91.6864 4.00851 91.6864 11.2878C91.6864 20.9185 91.737 21.4944 92.6256 21.9712C93.399 22.3858 93.699 22.269 94.3258 21.3106C95.4107 19.6514 95.1881 1.13097 94.075 0.426782C93.1401 -0.164428 92.9447 -0.152939 92.2596 0.533534ZM68.0891 7.42268C67.9075 7.89613 69.7176 11.5267 72.8753 17.0228C77.588 25.225 78.0437 25.8507 79.207 25.7157C80.118 25.6099 80.4524 25.3012 80.4318 24.585C80.4166 24.0431 78.1956 19.7883 75.497 15.1304C71.3748 8.01533 70.4136 6.66105 69.4854 6.66105C68.8778 6.66105 68.2491 7.00381 68.0891 7.42268ZM110.992 14.8667C108.387 19.4063 106.115 23.4758 105.942 23.9095C105.485 25.0556 106.2 25.9177 107.452 25.7315C108.303 25.6056 109.621 23.6922 113.5 16.9534C116.228 12.2141 118.399 8.01341 118.326 7.61848C118.252 7.22354 117.637 6.83578 116.959 6.75632C115.825 6.62371 115.348 7.27332 110.992 14.8667ZM87.5183 26.0676C81.63 27.6569 76.8036 31.0682 73.5623 35.9329C70.6324 40.3289 69.5523 44.4281 69.8208 50.1305C70.0878 55.8047 71.2544 59.1069 74.5187 63.4282L76.8389 66.5001H66.8651C61.3795 66.5001 56.5512 66.3694 56.1356 66.2095C55.4678 65.9529 55.3799 64.108 55.3799 50.3804C55.3799 40.7052 55.5643 34.4967 55.8686 33.9271C56.8316 32.1242 58.2653 31.8001 66.3674 31.5541L74.2497 31.3147V30.118V28.9212L65.8567 28.791C57.8052 28.6655 57.3987 28.7048 55.8686 29.7484C54.991 30.3463 53.8239 31.444 53.2741 32.1869C52.3124 33.4867 52.2694 34.1583 52.1371 50.0377L52 66.5379L53.4145 67.9549C54.4344 68.9769 55.2877 69.3724 56.4743 69.3724C58.0388 69.3724 58.1334 69.4691 58.3818 71.3246C58.8815 75.0585 61.3528 76.3218 67.4652 75.9676C71.0466 75.7598 71.3939 75.6435 72.657 74.2265C73.6062 73.1623 74.0108 72.1992 74.0108 71.0052V69.302L77.952 69.4925C80.8919 69.6347 82.659 70.0162 84.9066 70.9942C90.3192 73.349 97.0755 73.1762 103.046 70.5304C105.64 69.381 105.776 69.3724 121.603 69.3724H137.547V71.0402C137.547 72.1953 137.963 73.1748 138.901 74.2265C140.164 75.6435 140.512 75.7598 144.093 75.9676C150.205 76.3218 152.677 75.0585 153.176 71.3246C153.426 69.4624 153.515 69.3724 155.11 69.3724C156.409 69.3724 157.141 68.9903 158.391 67.6629L160 65.9534V49.9223C160 39.3566 159.837 33.9922 159.522 34.187C159.26 34.3498 159.045 34.1545 159.045 33.7533C159.045 32.7092 156.418 29.8547 154.867 29.2127C153.936 28.8278 147.471 28.7053 132.77 28.7948L111.989 28.9212V30.118V31.3147L132.531 31.5541C153.983 31.804 154.589 31.8662 155.69 33.9271C155.959 34.4302 156.178 36.2565 156.178 37.9851V41.1283H147.087C139.11 41.1283 137.958 41.2246 137.695 41.9115C137.53 42.3424 137.614 43.0422 137.881 43.4673C138.295 44.1251 139.689 44.2591 147.273 44.3702L156.178 44.5004V45.926V47.3516H147.619C142.911 47.3516 138.719 47.4823 138.303 47.6422C137.887 47.8021 137.547 48.2975 137.547 48.7432C137.547 50.525 138.444 50.7026 147.436 50.7026H156.178V52.1282V53.5538L147.273 53.684C139.689 53.7951 138.295 53.9291 137.881 54.5869C137.614 55.012 137.53 55.7118 137.695 56.1427C137.958 56.8296 139.11 56.9258 147.087 56.9258H156.178V61.4224C156.178 65.0812 156.037 65.973 155.423 66.2095C155.007 66.3694 144.471 66.5001 132.009 66.5001H109.351L111.39 63.9868C113.997 60.7737 115.857 56.5974 116.511 52.4867C117.051 49.0932 116.666 47.3516 115.375 47.3516C114.335 47.3516 113.809 48.3866 113.463 51.1138C112.097 61.8685 103.71 69.3724 93.0541 69.3724C80.7099 69.3724 70.9224 57.8742 73.0521 45.8748C75.2711 33.3742 87.3965 25.8804 99.3647 29.6134C105.057 31.3885 109.09 35.0406 111.824 40.8962C113.409 44.2907 113.701 44.6177 114.775 44.2045C116.161 43.6717 116.07 42.3821 114.398 38.8554C109.638 28.8096 97.9531 23.2513 87.5183 26.0676ZM88.7862 32.1783C83.8189 33.5896 79.6966 37.1617 77.4194 42.0283C76.3507 44.3118 76.1606 45.3716 76.1606 49.0371C76.1606 52.942 76.3091 53.6586 77.7131 56.5161C79.5571 60.2692 82.5605 63.2123 86.3479 64.9768C88.6113 66.0314 89.7292 66.2392 93.1195 66.2358C98.5388 66.2301 102.077 64.6796 105.754 60.7C109.041 57.1413 110.317 53.8779 110.317 49.0271C110.317 44.1763 109.041 40.9129 105.754 37.3542C101.4 32.6422 94.5298 30.5464 88.7862 32.1783ZM52.2503 50.4632C52.2503 59.4151 52.3148 63.0098 52.3936 58.451C52.472 53.8922 52.472 46.5679 52.3932 42.1748C52.3143 37.7817 52.2503 41.5113 52.2503 50.4632ZM88.6758 35.5671C82.7048 37.797 79.2958 42.6942 79.2762 49.0702C79.2504 57.4151 86.0001 63.6991 94.2742 63.0337C101.753 62.432 107.185 56.5386 107.185 49.0271C107.185 43.3821 104.407 38.9445 99.1971 36.2684C96.6403 34.9553 91.2727 34.5973 88.6758 35.5671ZM61.5902 70.7573C61.5902 72.4917 62.1835 72.7234 66.6287 72.7234C69.7109 72.7234 70.2225 72.5979 70.6869 71.7286C71.7469 69.7429 71.0323 69.3724 66.1433 69.3724H61.5902V70.7573ZM140.601 70.0531C140.458 70.4274 140.579 71.1814 140.871 71.7286C141.336 72.5979 141.847 72.7234 144.929 72.7234C149.375 72.7234 149.968 72.4917 149.968 70.7573V69.3724H145.415C141.919 69.3724 140.801 69.5303 140.601 70.0531ZM72.8753 81.0314C67.7308 89.9862 67.2702 91.3931 69.4854 91.3931C70.4136 91.3931 71.3748 90.0388 75.497 82.9238C78.1956 78.2659 80.4166 74.0111 80.4318 73.4692C80.4524 72.753 80.118 72.4443 79.207 72.3385C78.0437 72.2035 77.588 72.8291 72.8753 81.0314ZM105.876 72.8837C105.589 73.6315 106.213 74.8642 111.939 84.8597C115.388 90.8795 115.817 91.4309 116.951 91.2983C117.633 91.2189 118.252 90.8306 118.326 90.4357C118.399 90.0408 116.228 85.8401 113.501 81.1008C109.339 73.8699 108.348 72.4605 107.341 72.3385C106.627 72.2518 106.033 72.473 105.876 72.8837ZM92.5224 76.1122C91.7676 76.553 91.6864 77.5919 91.6864 86.8104C91.6864 97.4254 91.8923 98.5369 93.7286 97.8308C94.867 97.3928 95.017 96.0874 95.0237 86.5395C95.0295 78.7341 94.9258 77.4918 94.1944 76.6201C93.548 75.8493 93.1687 75.7344 92.5224 76.1122Z" fill="#058FA2"/>
<path fill-rule="evenodd" clip-rule="evenodd" d="M20.5062 40.3375C19.4789 43.922 19.6958 46.8992 21.3756 52.2757L22.5071 55.8968L21.579 56.4887C20.7725 57.0026 20.5824 57.2378 20.1301 58.2805C19.7154 59.2363 19.6444 59.6739 19.7812 60.4301C20.0914 62.1462 21.7789 63.6425 23.4189 63.6558C23.824 63.659 24.8584 63.4442 25.7175 63.1784L27.2796 62.695L28.996 66.9361C29.94 69.2687 33.5031 78.1248 36.9139 86.6162C41.4861 97.9995 43.234 102.117 43.5672 102.29C44.23 102.635 55.9737 98.8362 56.3165 98.1663C56.4849 97.8371 56.2797 96.4797 55.6167 93.5397C55.1006 91.2511 52.9926 81.9302 50.9321 72.826L47.1858 56.2734L48.1686 55.931C49.5197 55.4608 49.9923 55.0799 50.5543 54.0081C51.7928 51.647 50.5036 48.8993 47.9106 48.3737C47.4052 48.2713 46.839 48.2528 46.6525 48.3328C46.377 48.4509 46.0753 47.7766 45.0553 44.7646C43.2544 39.4463 41.7092 36.9451 38.7304 34.528C33.7187 30.4607 27.008 30.8734 23.0832 35.4902C22.1532 36.5839 20.9138 38.9155 20.5062 40.3375ZM23.0552 40.1572C21.8103 43.728 22.06 47.0747 24.0096 52.9476L24.7711 55.2418L34.3186 52.158L43.8659 49.0744L42.8016 45.7375C41.6548 42.1413 40.7589 40.1871 39.5668 38.6813C37.1555 35.6354 33.4673 33.8038 30.3367 34.0978C27.0669 34.4048 24.2407 36.7564 23.0552 40.1572ZM22.1116 60.1437C22.2022 60.5734 22.4285 60.8398 22.9136 61.088C23.5602 61.4188 24.1189 61.2625 35.8976 57.4554C47.0364 53.8551 48.2349 53.421 48.5085 52.8863C48.9029 52.1155 48.6298 51.2785 47.8547 50.8819C47.3102 50.6033 46.1445 50.9353 34.8658 54.582C21.6537 58.8537 21.8237 58.7794 22.1116 60.1437ZM30.8874 65.3185C31.574 67.0109 34.9671 75.4405 38.4277 84.0512L44.7197 99.7066L49.2923 98.2307C53.5313 96.8623 53.8598 96.719 53.7943 96.267C53.7553 95.9989 51.7431 87.0451 49.3227 76.3695L44.9218 56.9596L37.3299 59.4863C33.1543 60.8758 29.7156 62.0643 29.6884 62.1273C29.6612 62.1901 30.2007 63.6263 30.8874 65.3185ZM36.3096 66.779C35.9116 69.1697 37.6004 71.995 39.6527 72.3727C40.1462 72.4634 40.881 72.3754 41.4232 72.1607C42.3024 71.8125 42.3788 71.7288 42.909 70.5299C43.345 69.5445 43.4428 69.0424 43.3538 68.2496C43.2005 66.8843 42.4866 65.5484 41.4514 64.6888C40.6929 64.0588 40.4845 63.9741 39.5686 63.9221C39.0023 63.89 38.2838 64.0089 37.9723 64.1862C37.3139 64.5613 36.4559 65.8989 36.3096 66.779ZM38.6755 67.3421C38.5981 68.3753 39.1893 69.5925 39.9061 69.8754C40.6753 70.1788 41.0732 69.6673 40.9782 68.4962C40.8116 66.4391 38.8179 65.4396 38.6755 67.3421Z" fill="#058FA2"/>
<path fill-rule="evenodd" clip-rule="evenodd" d="M92.2596 0.533534C91.8498 0.944269 91.6864 4.00851 91.6864 11.2878C91.6864 20.9185 91.737 21.4944 92.6256 21.9712C93.399 22.3858 93.699 22.269 94.3258 21.3106C95.4107 19.6514 95.1881 1.13097 94.075 0.426782C93.1401 -0.164428 92.9447 -0.152939 92.2596 0.533534ZM68.0891 7.42268C67.9075 7.89613 69.7176 11.5267 72.8753 17.0228C77.588 25.225 78.0437 25.8507 79.207 25.7157C80.118 25.6099 80.4524 25.3012 80.4318 24.585C80.4166 24.0431 78.1956 19.7883 75.497 15.1304C71.3748 8.01533 70.4136 6.66105 69.4854 6.66105C68.8778 6.66105 68.2491 7.00381 68.0891 7.42268ZM110.992 14.8667C108.387 19.4063 106.115 23.4758 105.942 23.9095C105.485 25.0556 106.2 25.9177 107.452 25.7315C108.303 25.6056 109.621 23.6922 113.5 16.9534C116.228 12.2141 118.399 8.01341 118.326 7.61848C118.252 7.22354 117.637 6.83578 116.959 6.75632C115.825 6.62371 115.348 7.27332 110.992 14.8667ZM88.7862 32.1783C83.8189 33.5896 79.6966 37.1617 77.4194 42.0283C76.3507 44.3118 76.1606 45.3716 76.1606 49.0371C76.1606 52.942 76.3091 53.6586 77.7131 56.5161C79.5571 60.2692 82.5605 63.2123 86.3479 64.9768C88.6113 66.0314 89.7292 66.2392 93.1195 66.2358C98.5388 66.2301 102.077 64.6796 105.754 60.7C109.041 57.1413 110.317 53.8779 110.317 49.0271C110.317 44.1763 109.041 40.9129 105.754 37.3542C101.4 32.6422 94.5298 30.5464 88.7862 32.1783ZM52.2503 50.4632C52.2503 59.4151 52.3148 63.0098 52.3936 58.451C52.472 53.8922 52.472 46.5679 52.3932 42.1748C52.3143 37.7817 52.2503 41.5113 52.2503 50.4632ZM88.6758 35.5671C82.7048 37.797 79.2958 42.6942 79.2762 49.0702C79.2504 57.4151 86.0001 63.6991 94.2742 63.0337C101.753 62.432 107.185 56.5386 107.185 49.0271C107.185 43.3821 104.407 38.9445 99.1971 36.2684C96.6403 34.9553 91.2727 34.5973 88.6758 35.5671ZM72.8753 81.0314C67.7308 89.9862 67.2702 91.3931 69.4854 91.3931C70.4136 91.3931 71.3748 90.0388 75.497 82.9238C78.1956 78.2659 80.4166 74.0111 80.4318 73.4692C80.4524 72.753 80.118 72.4443 79.207 72.3385C78.0437 72.2035 77.588 72.8291 72.8753 81.0314ZM105.876 72.8837C105.589 73.6315 106.213 74.8642 111.939 84.8597C115.388 90.8795 115.817 91.4309 116.951 91.2983C117.633 91.2189 118.252 90.8306 118.326 90.4357C118.399 90.0408 116.228 85.8401 113.501 81.1008C109.339 73.8699 108.348 72.4605 107.341 72.3385C106.627 72.2518 106.033 72.473 105.876 72.8837ZM92.5224 76.1122C91.7676 76.553 91.6864 77.5919 91.6864 86.8104C91.6864 97.4254 91.8923 98.5369 93.7286 97.8308C94.867 97.3928 95.017 96.0874 95.0237 86.5395C95.0295 78.7341 94.9258 77.4918 94.1944 76.6201C93.5481 75.8493 93.1687 75.7345 92.5224 76.1122Z" fill="#FDD304"/>
<path fill-rule="evenodd" clip-rule="evenodd" d="M36.3096 66.779C35.9116 69.1697 37.6004 71.995 39.6527 72.3727C40.1462 72.4634 40.881 72.3754 41.4232 72.1607C42.3024 71.8125 42.3788 71.7288 42.909 70.5299C43.345 69.5445 43.4428 69.0424 43.3538 68.2496C43.2005 66.8843 42.4866 65.5484 41.4514 64.6888C40.6929 64.0588 40.4845 63.9741 39.5686 63.9221C39.0023 63.89 38.2838 64.0089 37.9723 64.1862C37.3139 64.5613 36.4559 65.8989 36.3096 66.779ZM38.6755 67.3421C38.5981 68.3753 39.1893 69.5925 39.9061 69.8754C40.6753 70.1788 41.0732 69.6673 40.9782 68.4962C40.8116 66.4391 38.8179 65.4396 38.6755 67.3421Z" fill="#FDD304"/>
<rect x="19.7989" y="58.2372" width="30.7476" height="5.37578" rx="2.68789" transform="rotate(-17.92 19.7989 58.2372)" stroke="#FDD304" stroke-width="3"/>
</svg>
