<svg width="80" height="78" viewBox="0 0 80 78" fill="none" xmlns="http://www.w3.org/2000/svg">
<path fill-rule="evenodd" clip-rule="evenodd" d="M18.0878 0.362779C16.7262 0.910302 16.5669 1.78908 16.5669 8.75145V15.4304L17.4957 16.159C18.7148 17.1162 20.7634 17.1162 21.9825 16.159L22.9113 15.4304V8.80314C22.9113 5.15826 22.8126 1.9199 22.6924 1.60693C22.2085 0.349065 19.7645 -0.311338 18.0878 0.362779ZM47.0551 0.414824C45.5459 1.23839 45.469 1.63154 45.469 8.53166C45.469 15.1019 45.4768 15.1695 46.3343 16.0247C46.9896 16.6787 47.5662 16.8852 48.7135 16.8767C51.8152 16.8539 52.1659 15.9797 52.1659 8.26863V2.06443L51.1356 1.03655C50.031 -0.0655331 48.3927 -0.315206 47.0551 0.414824ZM2.82537 7.49007C-0.179044 9.07497 0.00106576 7.14334 0.00247562 37.8057C0.00353301 64.2098 0.0211563 64.9174 0.704233 66.0346C1.08948 66.6651 1.92129 67.495 2.55326 67.8793C3.65472 68.5496 4.35824 68.5784 19.6887 68.5795C34.7756 68.5809 35.6613 68.5461 35.4234 67.9655C35.2846 67.6268 35.0223 66.8356 34.8404 66.2072L34.5095 65.0644H19.7617C6.23723 65.0644 4.95143 65.0134 4.26237 64.449C3.51126 63.8339 3.51091 63.8216 3.60643 46.4268L3.70195 29.02L34.2783 28.93L64.8546 28.8403V30.5588V32.2773L66.4206 32.6705C67.2817 32.8871 68.1621 33.064 68.3771 33.064C68.6573 33.064 68.7377 29.8379 68.6616 21.6673L68.5555 10.2706L67.4646 8.91989C66.0325 7.1465 64.7104 6.73367 60.3857 6.70975C56.4857 6.6883 55.6905 7.01253 55.6905 8.62415C55.6905 10.2312 56.4878 10.5582 60.4033 10.5582C62.7377 10.5582 64.1578 10.707 64.4316 10.9802C64.7323 11.2802 64.8546 13.4182 64.8546 18.3649V25.3276H34.1902H3.52571V18.623C3.52571 14.674 3.67551 11.6392 3.89051 11.2383C4.21725 10.6293 4.65995 10.5582 8.12009 10.5582C11.515 10.5582 12.0705 10.4728 12.6898 9.85493C13.5819 8.9649 13.5819 8.2834 12.6898 7.39337C12.0716 6.77657 11.515 6.69006 8.16309 6.69006C4.86684 6.69006 4.13301 6.80013 2.82537 7.49007ZM26.7884 7.39337C26.4007 7.78018 26.0835 8.33403 26.0835 8.62415C26.0835 8.91426 26.4007 9.46811 26.7884 9.85493C27.4433 10.5083 27.9632 10.5582 34.1355 10.5582C40.1228 10.5582 40.8352 10.4949 41.361 9.91506C42.0963 9.10486 42.109 7.95917 41.3907 7.24251C40.9261 6.77938 39.7602 6.69006 34.1651 6.69006C27.9632 6.69006 27.4436 6.73964 26.7884 7.39337ZM8.60614 34.2473C8.50005 34.5226 8.46339 35.3582 8.52472 36.104L8.63645 37.4596H13.2185H17.8005V35.7014V33.9431L13.2996 33.8447C9.66318 33.7652 8.76158 33.8425 8.60614 34.2473ZM22.5588 35.7014V37.6355H27.1031C31.9862 37.6355 32.0754 37.6007 32.0754 35.7014C32.0754 33.8021 31.9862 33.7673 27.1031 33.7673H22.5588V35.7014ZM36.5189 34.3236C36.4012 34.6295 36.3049 35.2495 36.3049 35.7014C36.3049 37.5338 36.5027 37.6355 40.0672 37.6355C43.1378 37.6355 43.5037 37.5602 44.6996 36.6825C45.4137 36.1585 46.0449 35.7024 46.1031 35.669C46.1609 35.636 46.1042 35.1943 45.9766 34.6879L45.745 33.7673H41.2391C37.455 33.7673 36.6986 33.8566 36.5189 34.3236ZM56.3954 37.8781C50.3908 38.88 44.6746 43.1575 41.9176 48.7125C39.2766 54.0334 38.9065 58.8559 40.7241 64.2584C43.4082 72.2359 50.2925 77.4896 58.6865 77.9668C70.2491 78.6244 80 69.4231 80 57.8555C80 48.5212 73.4931 40.2999 64.4154 38.1644C62.3591 37.6808 58.4218 37.5402 56.3954 37.8781ZM8.60614 44.4452C8.50005 44.7206 8.46339 45.5561 8.52472 46.3019L8.63645 47.6576H13.2185H17.8005V45.8993V44.141L13.2996 44.0426C9.66318 43.9631 8.76158 44.0405 8.60614 44.4452ZM22.8038 44.1896C22.6691 44.3242 22.5588 45.2034 22.5588 46.144V47.8538L27.229 47.7557L31.8991 47.6576V45.8993V44.141L27.4739 44.0433C25.0402 43.9891 22.9384 44.0552 22.8038 44.1896ZM61.9764 53.6905L57.5156 58.141L55.4258 56.1521C54.2764 55.0581 53.182 54.1631 52.9941 54.1631C52.6022 54.1631 49.3461 57.8351 49.3461 58.2775C49.3461 58.4385 51.1705 60.3853 53.4005 62.6038L57.4549 66.6376L63.9745 60.1402C67.5601 56.5667 70.494 53.5129 70.494 53.3543C70.494 53.016 66.968 49.24 66.6522 49.24C66.5341 49.24 64.4299 51.2427 61.9764 53.6905ZM8.70518 54.3875C8.57054 54.5222 8.46022 55.3967 8.46022 56.3318V58.0313H13.2368H18.0138L17.907 56.1851L17.8005 54.339L13.3753 54.2412C10.9416 54.187 8.83982 54.2532 8.70518 54.3875ZM22.8038 54.3875C22.6691 54.5222 22.5588 55.4013 22.5588 56.342V58.0517L27.229 57.9536L31.8991 57.8555V56.0972V54.339L27.4739 54.2412C25.0402 54.187 22.9384 54.2532 22.8038 54.3875Z" fill="#43AFAD"/>
<circle cx="61" cy="57" r="15" fill="#43AFAD"/>
<path d="M67.918 67H63.4297L60.5352 61.5273C60.4258 61.3242 60.3125 60.9492 60.1953 60.4023H60.1484C60.0938 60.6602 59.9648 61.0508 59.7617 61.5742L56.8555 67H52.3438L57.6992 58.5977L52.8008 50.1953H57.4062L59.8086 55.2344C59.9961 55.6328 60.1641 56.1055 60.3125 56.6523H60.3594C60.4531 56.3242 60.6289 55.8359 60.8867 55.1875L63.5586 50.1953H67.7773L62.7383 58.5273L67.918 67Z" fill="#FFCC09"/>
</svg>
