<svg width="124" height="124" viewBox="0 0 124 124" fill="none" xmlns="http://www.w3.org/2000/svg">
<path fill-rule="evenodd" clip-rule="evenodd" d="M82.543 0.285347C80.9345 0.880653 80.0017 2.07243 77.5863 6.61565L75.5369 10.4714L70.6603 11.1536C65.0853 11.9338 63.5329 12.9314 63.5329 15.7342C63.5329 17.2577 64.2298 18.2944 67.2916 21.3286L71.0503 25.0538L70.131 30.4617L69.2117 35.8696L70.5731 37.3127C72.4305 39.2811 73.9242 39.1365 79.2464 36.4719L83.8084 34.1881L87.8704 36.4597C92.429 39.0094 94.6061 39.3003 96.3241 37.5896C97.6738 36.2457 97.7511 34.9839 96.826 29.407L96.1567 25.3722L100.047 21.2662C104.017 17.0758 104.638 15.5272 103.138 13.5611C102.114 12.2183 100.051 11.5 95.8651 11.0283C93.9421 10.8114 92.1064 10.4679 91.7861 10.2644C91.4658 10.061 90.2695 8.0424 89.1288 5.77895C86.5014 0.56813 85.0498 -0.642887 82.543 0.285347ZM82.084 11.7262C80.161 15.505 79.5784 15.9306 75.2974 16.6816L71.7067 17.3113L74.4407 19.8465L77.1747 22.3811L76.8292 26.487C76.6389 28.7452 76.568 30.5929 76.6711 30.5929C76.7747 30.5929 78.378 29.9008 80.2342 29.0548L83.6088 27.5161L86.7591 29.0548C88.4911 29.9008 90.0557 30.5929 90.2355 30.5929C90.4147 30.5929 90.3801 28.9067 90.1588 26.8456L89.7559 23.0988L92.4677 20.2121C95.0658 17.446 95.1232 17.3102 93.8484 16.9702C93.117 16.7749 91.9377 16.6117 91.228 16.6076C88.7576 16.5924 87.039 15.2712 85.3057 12.0544L83.5631 8.82021L82.084 11.7262ZM16.1456 14.0543C15.478 14.8992 14.9317 15.9131 14.9317 16.3079C14.9317 16.7026 15.478 17.7166 16.1456 18.5614L17.3588 20.0978H30.4917C42.8435 20.0978 43.6937 20.0284 44.7951 18.9317C45.4392 18.2903 45.9662 17.1096 45.9662 16.3079C45.9662 15.5062 45.4392 14.3255 44.7951 13.6841C43.6937 12.5874 42.8435 12.518 30.4917 12.518H17.3588L16.1456 14.0543ZM50.6425 13.5733C48.0678 15.6496 49.6705 20.0978 52.9929 20.0978C56.289 20.0978 57.8823 15.2928 55.2046 13.4258C53.5029 12.2387 52.2475 12.2795 50.6425 13.5733ZM34.2551 25.1407C30.1761 26.7978 30.3998 31.6488 34.6041 32.6995C35.3946 32.8972 37.7831 32.9485 39.911 32.8138C43.0701 32.6132 43.9812 32.3217 44.8736 31.2243C46.2502 29.5317 46.2578 28.165 44.8993 26.4951C44.0011 25.3902 43.1479 25.1524 39.4829 24.9838C37.0909 24.8736 34.7382 24.9442 34.2551 25.1407ZM50.8849 25.7914C48.4507 27.41 48.8524 31.3287 51.5571 32.3526C54.1014 33.3158 56.4805 31.5993 56.4975 28.7883C56.5127 26.1949 53.055 24.3489 50.8849 25.7914ZM6.74152 38.0339C4.65986 38.4001 2.19584 40.2985 1.01594 42.446C0.0819783 44.1456 0 47.265 0 81.0277C0 116.923 0.0269378 117.807 1.19161 119.781C4.50294 125.393 12.5906 125.41 15.5975 119.811C16.3458 118.417 16.6884 116.569 16.6884 113.925C16.6884 107.576 12.2487 108.14 62.1897 108.14C100.914 108.14 105.632 108.238 106.314 109.057C106.735 109.562 107.237 111.989 107.43 114.451C107.624 116.912 108.12 119.531 108.532 120.27C110.45 123.707 116.461 124.984 120.157 122.74C124.029 120.39 124.023 120.429 123.996 93.5694C123.97 68.3899 123.822 66.6045 121.369 61.8159C119.281 57.7414 114.279 53.1032 109.634 50.9353L105.4 48.9593L84.3202 48.7722C62.2845 48.5769 60.4037 48.7395 57.3904 51.0998C54.0065 53.7498 53.6054 55.7759 53.5914 70.2854C53.5785 83.2824 53.5615 83.4644 52.2235 84.7162C50.9013 85.9523 50.4803 85.9838 35.2154 85.9838H19.5629L18.1259 84.5524L16.6884 83.1215V63.4852C16.6884 44.5654 16.6439 43.7771 15.4605 41.8716C13.6979 39.031 10.0938 37.445 6.74152 38.0339ZM6.85102 44.703C5.83566 45.714 5.83566 116.341 6.85102 117.352C7.90619 118.403 9.54341 118.196 10.2268 116.925C10.5599 116.304 10.8328 114.112 10.8328 112.055C10.8328 107.704 12.1755 105.171 15.519 103.216C17.5363 102.036 18.2313 102.018 62.069 102.018C105.519 102.018 106.618 102.045 108.559 103.184C111.98 105.19 112.935 107.037 113.285 112.322C113.526 115.969 113.833 117.204 114.623 117.697C115.368 118.163 115.927 118.162 116.672 117.694C117.621 117.097 117.697 115.266 117.697 92.9164V68.7834L116.168 65.5375C114.452 61.894 111.238 58.4947 107.742 56.6254C105.486 55.4191 104.606 55.3666 83.8108 55.2004C64.5184 55.0459 62.1095 55.1287 61.1667 55.9782C60.2181 56.8324 60.0922 58.3216 59.9189 70.7274C59.7081 85.8887 59.5482 86.645 55.9148 89.6891C52.8928 92.2214 50.5564 92.4954 33.7445 92.2937C16.3347 92.0843 15.8809 91.9893 12.7663 87.9259L11.1256 85.7855L10.8328 65.6233C10.6718 54.534 10.3269 45.1333 10.0663 44.7321C9.46553 43.8074 7.76566 43.7923 6.85102 44.703ZM31.2225 50.0363C26.8033 51.2665 22.4374 55.201 20.7685 59.4568C19.639 62.3377 19.848 67.8669 21.1983 70.8242C25.7305 80.7496 38.337 83.1408 45.9844 75.526C51.5261 70.0079 52.1339 62.0188 47.4957 55.6646C43.9338 50.7849 37.0652 48.4095 31.2225 50.0363ZM30.5907 56.9613C28.0587 58.4224 26.0526 62.0024 26.0667 65.032C26.0801 67.7724 28.2713 71.3542 30.7324 72.6585C37.0763 76.0198 44.2019 71.7804 44.2072 64.6425C44.2125 57.6056 36.7589 53.4011 30.5907 56.9613Z" fill="#058FA2"/>
<path fill-rule="evenodd" clip-rule="evenodd" d="M82.543 0.285347C80.9345 0.880653 80.0017 2.07243 77.5863 6.61565L75.5369 10.4714L70.6603 11.1536C65.0853 11.9338 63.5329 12.9314 63.5329 15.7342C63.5329 17.2577 64.2298 18.2944 67.2916 21.3286L71.0503 25.0538L70.131 30.4617L69.2117 35.8696L70.5731 37.3127C72.4305 39.2811 73.9242 39.1365 79.2464 36.4719L83.8084 34.1881L87.8704 36.4597C92.429 39.0094 94.6061 39.3003 96.3241 37.5896C97.6738 36.2457 97.7511 34.9839 96.826 29.407L96.1567 25.3722L100.047 21.2662C104.017 17.0758 104.638 15.5272 103.138 13.5611C102.114 12.2183 100.051 11.5 95.8651 11.0283C93.9421 10.8114 92.1064 10.4679 91.7861 10.2644C91.4658 10.061 90.2695 8.0424 89.1288 5.77895C86.5014 0.56813 85.0498 -0.642887 82.543 0.285347ZM82.084 11.7262C80.161 15.505 79.5784 15.9306 75.2974 16.6816L71.7067 17.3113L74.4407 19.8465L77.1747 22.3811L76.8292 26.487C76.6389 28.7452 76.568 30.5929 76.6711 30.5929C76.7747 30.5929 78.378 29.9008 80.2342 29.0548L83.6088 27.5161L86.7591 29.0548C88.4911 29.9008 90.0557 30.5929 90.2355 30.5929C90.4147 30.5929 90.3801 28.9067 90.1588 26.8456L89.7559 23.0988L92.4677 20.2121C95.0658 17.446 95.1232 17.3102 93.8484 16.9702C93.117 16.7749 91.9377 16.6117 91.228 16.6076C88.7576 16.5924 87.039 15.2712 85.3057 12.0544L83.5631 8.82021L82.084 11.7262ZM16.1456 14.0543C15.478 14.8992 14.9317 15.9131 14.9317 16.3079C14.9317 16.7026 15.478 17.7166 16.1456 18.5614L17.3588 20.0978H30.4917C42.8435 20.0978 43.6937 20.0284 44.7951 18.9317C45.4392 18.2903 45.9662 17.1096 45.9662 16.3079C45.9662 15.5062 45.4392 14.3255 44.7951 13.6841C43.6937 12.5874 42.8435 12.518 30.4917 12.518H17.3588L16.1456 14.0543ZM50.6425 13.5733C48.0678 15.6496 49.6705 20.0978 52.9929 20.0978C56.289 20.0978 57.8823 15.2928 55.2046 13.4258C53.5029 12.2387 52.2475 12.2795 50.6425 13.5733ZM34.2551 25.1407C30.1761 26.7978 30.3998 31.6488 34.6041 32.6995C35.3946 32.8972 37.7831 32.9485 39.911 32.8138C43.0701 32.6132 43.9812 32.3217 44.8736 31.2243C46.2502 29.5317 46.2578 28.165 44.8993 26.4951C44.0011 25.3902 43.1479 25.1524 39.4829 24.9838C37.0909 24.8736 34.7382 24.9442 34.2551 25.1407ZM50.8849 25.7914C48.4507 27.41 48.8524 31.3287 51.5571 32.3526C54.1014 33.3158 56.4805 31.5993 56.4975 28.7883C56.5127 26.1949 53.055 24.3489 50.8849 25.7914ZM31.2225 50.0363C26.8033 51.2665 22.4374 55.201 20.7685 59.4568C19.639 62.3377 19.848 67.8669 21.1983 70.8242C25.7305 80.7496 38.337 83.1408 45.9844 75.526C51.5261 70.0079 52.1339 62.0188 47.4957 55.6646C43.9338 50.7849 37.0652 48.4095 31.2225 50.0363ZM30.5907 56.9613C28.0587 58.4224 26.0526 62.0024 26.0667 65.032C26.0801 67.7724 28.2713 71.3542 30.7324 72.6585C37.0763 76.0198 44.2019 71.7804 44.2072 64.6425C44.2125 57.6056 36.7589 53.4011 30.5907 56.9613Z" fill="#FDD304"/>
</svg>
