<svg width="81" height="87" viewBox="0 0 81 87" fill="none" xmlns="http://www.w3.org/2000/svg">
<path fill-rule="evenodd" clip-rule="evenodd" d="M39.1869 0.151017C38.5616 0.341718 33.0196 3.86127 22.525 10.7324C17.173 14.2364 5.81471 21.527 5.10583 21.9132C3.83868 22.6034 3.50696 23.4427 3.50696 25.9574C3.50696 28.31 3.84054 29.2211 4.93719 29.8633C5.30644 30.0795 5.66475 30.3389 5.73325 30.4398C5.80192 30.5406 5.85948 33.7175 5.86116 37.4994C5.86436 44.1716 5.87496 44.3946 6.21998 45.011C6.65353 45.7859 6.72085 44.9584 5.19216 57.6254C4.15576 66.2129 4.05377 67.3259 4.25439 67.8492C4.58477 68.7107 5.14403 69.192 5.97191 69.3272L6.70469 69.4469V70.5264V71.6057H5.62537C3.43426 71.6057 1.59034 73.2406 1.14502 75.5783C1.02401 76.2128 0.973182 77.6856 1.01374 79.3815C1.06861 81.6799 1.13845 82.2892 1.42524 82.9744C1.91937 84.1548 2.58231 84.9365 3.57092 85.5047L4.43262 86H40.5333H76.634L77.4755 85.5128C78.4715 84.9363 79.0607 84.2839 79.6028 83.1578C79.9807 82.3726 80 82.1592 80 78.757V75.1813L79.5057 74.2091C78.9829 73.1812 77.8959 72.1816 76.9034 71.8162C76.5887 71.7005 75.8125 71.6057 75.1783 71.6057H74.0253V70.5297V69.4535L74.7049 69.3543C75.5878 69.2252 76.1612 68.8033 76.4975 68.035C76.7563 67.4433 76.7109 66.9362 75.4663 56.5236L74.1641 45.631L74.5997 44.932L75.0351 44.2328V37.3047V30.3765L75.5834 30.1794C76.2928 29.9243 77.0308 29.1718 77.3259 28.4024C77.6889 27.4558 77.634 24.2181 77.239 23.2703C76.9164 22.4965 76.2777 21.8829 75.54 21.6385C75.1787 21.5188 67.1793 16.4756 59.9721 11.824C58.7688 11.0472 55.7393 9.10813 53.2401 7.51467C40.482 -0.619126 41.8152 0.176505 40.6814 0.0210094C40.276 -0.0345509 39.6034 0.0239432 39.1869 0.151017ZM39.271 3.0385C38.581 3.44704 37.7649 3.97624 21.2353 14.7342C15.9439 18.178 11.4944 21.0459 11.3476 21.1073C11.2007 21.1687 11.0805 21.2927 11.0805 21.3827C11.0805 21.4766 14.7036 21.5465 19.5772 21.5465H28.0738L27.9689 20.4538C27.6572 17.204 29.3236 13.909 32.0075 12.4683C34.584 11.0852 37.737 11.3815 39.9417 13.2137L40.5333 13.7051L41.1249 13.2137C42.03 12.4614 43.3904 11.8486 44.5328 11.6784C49.3626 10.9587 53.3951 15.0142 53.1285 20.3234L53.0718 21.4548L61.5641 21.5023C66.7562 21.5314 69.9938 21.4841 69.895 21.3807C69.8063 21.2876 67.7645 19.9547 65.3578 18.4184C62.9511 16.8823 59.9216 14.9456 58.6257 14.1146C45.2735 5.55209 40.878 2.79792 40.4491 2.72531C40.1255 2.67066 39.7026 2.78307 39.271 3.0385ZM34.2614 14.4113C31.3102 15.1688 29.7787 18.4081 30.745 21.8492C30.9389 22.54 31.3841 23.6407 31.7342 24.2953C32.6999 26.1011 35.3496 28.8923 37.7493 30.6314C40.4697 32.6031 40.5984 32.6044 43.2332 30.6859C48.2381 27.0416 50.8635 22.9703 50.5912 19.2753C50.4434 17.2694 49.3252 15.5238 47.6947 14.7536C45.6985 13.8108 43.9655 14.2021 41.8383 16.0757C41.5027 16.3713 41.1521 16.4828 40.558 16.4828C39.8453 16.4828 39.6051 16.3722 38.6927 15.6252C37.1669 14.3754 35.8291 14.009 34.2614 14.4113ZM6.24186 24.235C6.09561 24.2994 6.03148 24.8262 6.03148 25.9625V27.5976H18.403H30.7743L30.1158 26.5432C29.7534 25.9634 29.3222 25.1795 29.1576 24.8012L28.8582 24.1136L17.6552 24.1281C11.4935 24.136 6.35765 24.1842 6.24186 24.235ZM52.012 24.6923C51.8544 25.0106 51.4039 25.7945 51.0112 26.4343L50.297 27.5976H62.6661H75.0351V25.9669C75.0351 24.649 74.9841 24.3149 74.7689 24.2249C74.6224 24.1637 69.5067 24.1136 63.4008 24.1136H52.2988L52.012 24.6923ZM8.2194 36.6946V43.0413L8.85053 42.9128C9.76879 42.7259 12.0375 41.8452 13.0725 41.2737C16.7247 39.2573 19.7095 35.925 21.663 31.6828C21.952 31.0553 22.1884 30.4983 22.1884 30.4451C22.1884 30.3917 19.0454 30.3481 15.2039 30.3481H8.2194V36.6946ZM24.5975 31.1274C24.1138 32.4693 22.8904 34.9187 22.0149 36.2984C21.164 37.6397 19.2105 39.9622 18.1706 40.8691L17.6031 41.3642L17.8023 42.5033C17.9119 43.1297 18.6785 47.402 19.5059 51.997C20.3334 56.5921 21.0103 60.7007 21.0103 61.1268C21.0103 62.108 20.5455 63.1064 19.7019 63.9367C18.7795 64.8448 17.7475 65.2368 16.4842 65.1592C15.5954 65.1048 15.4559 65.1396 15.456 65.4165C15.4562 65.5927 15.1913 66.0566 14.8673 66.4472L14.2783 67.1576V69.3816V71.6057H20.842H27.4058V70.5972V69.5886L26.7746 69.5806C25.3466 69.5624 23.9603 68.6317 23.3891 67.3081C23.0488 66.5189 23.0299 66.2026 23.0299 61.2594C23.0299 58.0461 23.0981 55.8451 23.2077 55.5271C23.5291 54.5936 24.2569 53.6199 24.9772 53.1601L25.6859 52.7075L25.7547 50.742C25.8088 49.1971 25.8998 48.6175 26.1804 48.0333C26.6476 47.0603 27.4563 46.2143 28.4063 45.7042L29.1729 45.2925H40.1967C51.0622 45.2925 51.2314 45.298 51.9778 45.6796C52.3943 45.8925 53.0063 46.3573 53.3378 46.7127C54.3243 47.77 54.5744 48.5273 54.6418 50.6615L54.7016 52.5463L55.5007 52.9875C55.9401 53.2303 56.531 53.7158 56.8138 54.0666C57.729 55.2024 57.7842 55.6157 57.7842 61.3371C57.7842 66.3372 57.7685 66.5948 57.4218 67.2966C56.7719 68.6126 55.8061 69.3086 54.2999 69.5467L53.4084 69.6877V70.6008V71.514H59.9721H66.5359L66.5835 69.3299L66.6311 67.146L66.0475 66.6218C65.7036 66.313 65.4419 65.8969 65.4108 65.6094C65.3586 65.1288 65.3401 65.122 64.2062 65.1678C63.2525 65.2064 62.9009 65.1325 62.1595 64.7371C60.6933 63.9556 59.7242 62.4883 59.7207 61.0447C59.7202 60.8334 60.4767 56.4601 61.4018 51.3262C62.327 46.1923 63.0844 41.8511 63.0849 41.6789C63.0854 41.5069 62.3798 40.6221 61.5173 39.713C60.6548 38.8037 59.4997 37.3809 58.9507 36.5514C57.9843 35.0911 56.017 31.0968 56.017 30.5949C56.017 30.3948 55.2418 30.3481 51.9212 30.3481H47.8255L46.746 31.2957C45.4007 32.4766 43.1144 34.1143 42.267 34.5037C41.8955 34.6746 41.1506 34.799 40.4904 34.8004C39.5423 34.8024 39.1788 34.7058 38.3025 34.2193C37.2312 33.6245 34.7516 31.7633 33.8167 30.8523L33.2992 30.3481H29.089H24.8786L24.5975 31.1274ZM59.1468 31.6775C61.1753 36.1025 64.4868 39.7092 68.1777 41.5133C69.3726 42.0975 71.8556 43.0004 72.2669 43.0004C72.4749 43.0004 72.5106 42.0751 72.5106 36.6743V30.3481H65.5239H58.5373L59.1468 31.6775ZM14.7349 43.4755C14.2724 43.7487 14.2672 43.7713 14.3639 45.0727C14.5326 47.3378 15.2881 60.428 15.2881 61.0822C15.2881 61.9703 15.7768 62.4373 16.7057 62.4373C17.6636 62.4373 18.4858 61.7519 18.4858 60.9532C18.4858 60.6592 18.0788 58.1704 17.5815 55.4226C17.0842 52.6749 16.3867 48.7972 16.0316 46.8053C15.6765 44.8134 15.3451 43.1871 15.295 43.1911C15.2448 43.1952 14.9929 43.3231 14.7349 43.4755ZM65.3763 43.5061C65.3281 43.6818 64.5935 47.688 63.7439 52.4086C62.0796 61.6551 62.0894 61.528 62.9946 62.1742C63.2311 62.3431 63.7377 62.4758 64.1234 62.47C65.4441 62.4502 65.3663 62.8517 65.9401 53.0968C66.2215 48.3124 66.4517 44.2506 66.4517 44.0705C66.4517 43.8907 66.2294 43.618 65.9578 43.4651C65.5043 43.2096 65.4566 43.2129 65.3763 43.5061ZM10.4915 45.2327C9.84351 45.4361 9.2654 45.6565 9.20666 45.7225C9.02843 45.9231 6.63804 66.46 6.77554 66.6084C6.84606 66.6843 7.45986 66.7285 8.13963 66.7065C9.56127 66.6605 10.8989 66.2041 12.1247 65.3472L12.9675 64.7578L12.8756 63.9186C12.8251 63.4568 12.573 58.9741 12.3155 53.9566C12.058 48.9391 11.8074 44.8407 11.7584 44.8486C11.7096 44.8566 11.1394 45.0296 10.4915 45.2327ZM68.9079 46.063C68.6985 48.572 67.9478 63.5586 67.9984 64.2182C68.041 64.774 68.1733 64.9909 68.7238 65.4081C69.6562 66.1148 71.4627 66.6911 72.8403 66.7211C73.4753 66.7351 74.032 66.7052 74.0773 66.6548C74.1227 66.6043 73.602 61.9422 72.9202 56.2945C72.2384 50.6468 71.678 45.9411 71.6748 45.8373C71.6716 45.7337 71.1578 45.4993 70.533 45.3165C69.9083 45.1337 69.3103 44.9465 69.2045 44.9005C69.0769 44.8447 68.9769 45.2366 68.9079 46.063ZM29.4952 48.2104C28.5068 48.6822 28.2466 49.2767 28.2528 51.0475L28.2586 52.6272L29.1315 53.1773C29.7235 53.5503 30.1686 54.0177 30.5143 54.6288C30.9946 55.4782 31.027 55.6537 31.0705 57.6544C31.0961 58.8226 31.1544 59.9641 31.2 60.1911L31.2831 60.6037H35.153H39.023L38.9787 54.3233L38.9344 48.043L34.4744 48.0029C31.0302 47.9717 29.8961 48.019 29.4952 48.2104ZM41.5431 54.2808V60.6103L45.5403 60.5611L49.5374 60.512L49.6307 58.1282C49.682 56.8171 49.8192 55.4969 49.9353 55.1943C50.1953 54.517 51.222 53.3341 51.8719 52.9626C52.3545 52.687 52.355 52.6848 52.2802 51.19C52.1917 49.4219 51.8829 48.6681 51.0762 48.2511C50.5848 47.997 49.8144 47.9513 46.0198 47.9513H41.5431V54.2808ZM25.9676 55.7362C25.7404 55.9837 25.5535 56.3343 25.5523 56.5155C25.5467 57.3916 25.5434 65.5034 25.5486 65.7838C25.5518 65.9602 25.7059 66.2697 25.8911 66.4714C26.2223 66.8323 26.452 66.8381 40.3726 66.8381H54.5176L54.9386 66.3795L55.3595 65.9209L55.3097 61.0458L55.2597 56.1706L54.7874 55.7283C54.1248 55.1076 53.181 55.1254 52.5897 55.7694C52.1624 56.2351 52.1458 56.331 52.1387 58.3824C52.1283 61.3822 51.7752 62.3108 50.3789 63.0093C49.7513 63.3234 49.0726 63.3461 40.365 63.3461C31.6152 63.3461 30.9807 63.3245 30.3344 63.0049C29.955 62.8171 29.4628 62.3856 29.2404 62.0462C28.8756 61.4888 28.8278 61.1886 28.7483 58.9534C28.6584 56.4236 28.5147 55.8216 27.9179 55.4736C27.3255 55.1281 26.4128 55.251 25.9676 55.7362ZM11.0805 68.8598C10.8491 68.9472 10.338 69.1089 9.94449 69.2192L9.22921 69.4194V70.5126V71.6057H10.4915H11.7537V70.1387C11.7537 69.3319 11.6968 68.6784 11.6275 68.6863C11.5582 68.6942 11.3119 68.7723 11.0805 68.8598ZM69.0109 70.0781L69.0604 71.514L70.2888 71.5681L71.5173 71.6222L71.4669 70.4811L71.4166 69.34L70.5751 69.1295C70.1123 69.0136 69.5599 68.8566 69.3475 68.7805C68.9646 68.643 68.9619 68.6531 69.0109 70.0781ZM29.9303 70.5972V71.6057H40.4491H50.968V70.5972V69.5886H40.4491H29.9303V70.5972ZM4.4757 74.678C3.66096 75.2283 3.50696 75.8814 3.5073 78.7847C3.50747 81.811 3.69378 82.4804 4.68507 83.0199C5.2403 83.3221 7.30553 83.3406 40.6174 83.3403C75.3747 83.3399 75.9697 83.3338 76.4995 82.9818C77.4253 82.3669 77.5596 81.8434 77.5596 78.852C77.5596 75.8288 77.3895 75.1043 76.5714 74.6433C76.1132 74.3854 72.4569 74.3567 40.4996 74.3611C7.31428 74.3655 4.90673 74.3868 4.4757 74.678Z" fill="#058FA2"/>
<path d="M23.4579 67.5776L23.502 67.5541L23.4579 67.5776C23.7037 68.0389 24.2306 68.5074 24.8212 68.8601C25.4119 69.2128 26.0767 69.4558 26.6042 69.4564C26.7894 69.4567 26.929 69.4637 27.0354 69.4872C27.1404 69.5104 27.2086 69.5487 27.2562 69.6088C27.3049 69.6704 27.337 69.761 27.356 69.8992C27.375 70.0371 27.3803 70.2163 27.3803 70.4502V71.4432L15.736 71.5315C10.0731 71.5745 7.14127 71.6017 5.52282 71.6946C4.71387 71.7411 4.22937 71.8042 3.89474 71.8951C3.55723 71.9868 3.37302 72.1068 3.16491 72.2619L3.19479 72.3019L3.1649 72.2619C2.69183 72.6145 2.0042 73.4349 1.63253 74.0873L1.67597 74.112L1.63252 74.0873C1.33802 74.6044 1.16761 75.0148 1.07115 75.6689C0.975147 76.3199 0.952328 77.2126 0.950076 78.6939C0.947223 80.6739 1.02366 81.9222 1.31271 82.8494C1.6031 83.7809 2.10699 84.3851 2.94722 85.0807L4.10435 86.0385L4.11822 86.05H4.13623H40.4556H76.7749H76.7892L76.8013 86.0425L77.8223 85.4087C78.7162 84.8539 79.276 84.2418 79.6099 83.2267C79.9422 82.2164 80.05 80.8088 80.05 78.6656C80.05 76.6169 79.9775 75.3724 79.6629 74.4622C79.3467 73.5471 78.7873 72.9736 77.8303 72.2612C77.6221 72.1062 77.4377 71.9864 77.0975 71.8947C76.7601 71.8039 76.2702 71.7409 75.4507 71.6945C73.8111 71.6016 70.8373 71.5745 65.091 71.5315L53.2836 71.4436L53.3714 70.5423L53.3216 70.5374L53.3714 70.5423C53.4127 70.1181 53.4697 69.8908 53.6327 69.7377C53.7149 69.6606 53.8271 69.5994 53.9864 69.5439C54.1458 69.4883 54.3492 69.4394 54.6115 69.3851C55.2787 69.2469 55.8171 69.0229 56.2682 68.6784C56.7193 68.3339 57.08 67.8709 57.395 67.259C57.4319 67.1875 57.4649 67.083 57.4951 66.9527C57.5254 66.8216 57.5534 66.6613 57.5793 66.4761C57.6311 66.1059 57.6745 65.634 57.7096 65.0934C57.7797 64.0122 57.8165 62.6538 57.8196 61.2794C57.8227 59.905 57.7919 58.5139 57.7268 57.3673C57.6943 56.7941 57.6531 56.2815 57.6032 55.8624C57.5534 55.4445 57.4945 55.1161 57.4255 54.9133L57.3782 54.9294L57.4255 54.9133C57.2011 54.2545 56.6331 53.5652 55.9563 53.1257C55.435 52.7871 55.1726 52.5924 55.0094 52.2325C54.9271 52.051 54.8692 51.8253 54.8194 51.5143C54.7696 51.2033 54.7284 50.8101 54.6781 50.2944C54.5578 49.0598 54.3401 48.128 53.9677 47.3951C53.5945 46.6607 53.0676 46.1289 52.3346 45.6919C51.857 45.4071 51.4256 45.2563 49.8338 45.1643C48.243 45.0724 45.4846 45.0388 40.3479 44.9934C34.9933 44.9461 32.2441 44.9254 30.7045 44.9946C29.9348 45.0291 29.464 45.0862 29.1198 45.1747C28.7738 45.2637 28.5573 45.3841 28.297 45.5406L28.3228 45.5834L28.297 45.5406C27.475 46.0347 26.8906 46.6008 26.4826 47.3598C26.0751 48.1177 25.8455 49.0643 25.7262 50.3162C25.6307 51.3176 25.5553 51.8793 25.3761 52.3218C25.1978 52.762 24.9155 53.0873 24.3936 53.6114C23.8462 54.161 23.5514 54.4796 23.3704 54.9879C23.1911 55.492 23.1244 56.1814 23.0175 57.4691C22.8752 59.1851 22.8664 61.4871 22.952 63.4701C22.9947 64.4617 23.0611 65.3743 23.1463 66.0947C23.1888 66.4548 23.2362 66.7676 23.2878 67.0184C23.3391 67.2678 23.3955 67.4606 23.4579 67.5776ZM28.9109 52.8985L28.8878 52.9429L28.9109 52.8985C28.5765 52.7249 28.3723 52.5671 28.2498 52.364C28.1273 52.1609 28.0822 51.9052 28.0829 51.5254C28.0843 50.72 28.222 49.9456 28.4482 49.3303C28.6756 48.712 28.9881 48.2654 29.3311 48.0992C29.34 48.0948 29.3485 48.0905 29.3563 48.086C29.5658 48.0984 29.9215 48.1068 30.5002 48.1042L30.5003 48.1042L38.9496 48.0503L38.9423 48.9685L38.9418 48.9685L38.9428 48.976C38.9929 49.3246 39.0288 50.2186 39.0457 51.3816C39.0626 52.5429 39.0607 53.9688 39.0358 55.3787L38.9465 60.4581H35.0905H31.2322L31.0637 57.7862C30.969 56.2866 30.8017 55.2567 30.4723 54.5058C30.1414 53.7514 29.6482 53.2815 28.9109 52.8985ZM41.599 47.9255L45.9986 48.05H46C46.6442 48.05 47.2727 48.0467 47.8558 48.0436C48.391 48.0408 48.888 48.0382 49.324 48.0385C49.7782 48.0388 50.163 48.0424 50.4509 48.0523C50.5948 48.0572 50.7139 48.0637 50.8049 48.0721C50.8981 48.0807 50.956 48.0908 50.982 48.1008C51.3337 48.2363 51.6671 48.6137 51.9132 49.1433C52.1585 49.6712 52.3134 50.3425 52.3134 51.0529C52.3134 51.5834 52.2678 51.9431 52.115 52.2829C51.9617 52.6238 51.6985 52.9493 51.2533 53.4073C50.6502 54.0276 50.2429 54.6731 49.9857 55.4946C49.7289 56.3147 49.6224 57.3079 49.617 58.6224L49.61 60.3073H47.451C46.2344 60.3073 44.4077 60.3945 43.3904 60.5012L43.3956 60.5509L43.3904 60.5012L41.599 60.6894V54.2157V47.9255ZM25.6826 66.0856L25.6384 66.1091L25.6826 66.0856C25.6642 66.0512 25.644 65.9858 25.6236 65.8873C25.6034 65.7904 25.5839 65.6658 25.5653 65.5164C25.5281 65.2176 25.4948 64.822 25.467 64.3542C25.4113 63.4187 25.3775 62.1968 25.3775 60.8873C25.3775 58.534 25.4126 57.1976 25.5789 56.4016C25.6618 56.0048 25.7764 55.7478 25.9312 55.5671C26.0857 55.3868 26.2844 55.2774 26.546 55.1835C26.9194 55.0494 27.1244 54.9974 27.307 55.0414C27.4902 55.0856 27.66 55.2286 27.9536 55.5234C28.156 55.7267 28.306 56.0258 28.4256 56.5429C28.5453 57.0602 28.6333 57.7901 28.7157 58.85C28.808 60.0353 28.8897 60.7662 29.025 61.2769C29.1612 61.7915 29.3522 62.084 29.6599 62.393L30.3715 63.1077L30.3862 63.1224H30.407H40.3171H50.2269H50.2455L50.2596 63.1102L51.095 62.3886C51.4784 62.0574 51.6978 61.8169 51.8285 61.3827C51.9573 60.9546 51.9995 60.3389 52.0426 59.2605C52.1075 57.6395 52.1734 56.7209 52.3345 56.1639C52.4145 55.8872 52.517 55.7038 52.6515 55.5687C52.7863 55.4331 52.9571 55.3423 53.1812 55.2567C53.4731 55.1452 53.7037 55.1017 53.925 55.1266C54.1464 55.1516 54.3642 55.2457 54.6294 55.4201C54.805 55.5357 54.9286 55.6222 55.0216 55.7627C55.1148 55.9035 55.1804 56.1035 55.2251 56.4512C55.3147 57.1481 55.3173 58.4106 55.3173 60.9072C55.3173 62.6741 55.2902 63.9654 55.2316 64.8461C55.2023 65.2866 55.1653 65.623 55.1202 65.8643C55.0977 65.985 55.0734 66.0806 55.0475 66.153C55.0213 66.2265 54.9951 66.2715 54.9714 66.2952C54.9628 66.3039 54.9414 66.3172 54.8988 66.3321C54.8576 66.3466 54.8016 66.3609 54.729 66.3749C54.5841 66.4029 54.3782 66.4285 54.1033 66.4518C53.5538 66.4983 52.7336 66.5351 51.5845 66.5633C49.2867 66.6199 45.6776 66.6425 40.2979 66.6425C33.358 66.6425 29.7697 66.6378 27.8785 66.5625C26.9318 66.5248 26.4151 66.4696 26.1171 66.3901C25.9688 66.3505 25.8782 66.3058 25.8164 66.257C25.7552 66.2086 25.7187 66.1535 25.6826 66.0856ZM5.43606 74.4996L5.43065 74.4499L5.43607 74.4996C5.51015 74.4915 5.82889 74.4835 6.37302 74.4759C6.91524 74.4684 7.67777 74.4613 8.63589 74.4547C10.5521 74.4416 13.2503 74.4305 16.5326 74.422C23.097 74.4051 31.9971 74.3985 41.6484 74.4064C58.8372 74.4206 67.6127 74.4308 72.1434 74.5092C74.4095 74.5484 75.6112 74.6047 76.2722 74.6866C76.603 74.7275 76.7941 74.7745 76.9144 74.8269C77.0311 74.8777 77.0816 74.9337 77.1301 75.0003C77.2746 75.1988 77.3804 75.5635 77.4487 76.1798C77.5167 76.7935 77.5468 77.6478 77.5468 78.8173C77.5468 80.2479 77.5281 81.0774 77.4445 81.6154C77.4028 81.8836 77.3453 82.0767 77.2672 82.2345C77.1894 82.3919 77.0898 82.5165 76.9606 82.6463C76.8884 82.7187 76.8214 82.7796 76.7253 82.8331C76.6288 82.8868 76.5004 82.9344 76.3052 82.976C75.9133 83.0596 75.2608 83.1173 74.0743 83.1573C71.703 83.2372 67.2134 83.2462 58.4464 83.2569C43.449 83.2753 30.0535 83.2615 20.357 83.2238C15.5087 83.2049 11.5853 83.18 8.84892 83.1502C7.48068 83.1353 6.40937 83.1192 5.66762 83.1019C5.2967 83.0933 5.00848 83.0844 4.80686 83.0753C4.70599 83.0707 4.62722 83.0661 4.57078 83.0614C4.54252 83.0591 4.52037 83.0568 4.50408 83.0546C4.49593 83.0535 4.48968 83.0525 4.4851 83.0515C4.48094 83.0507 4.47931 83.0502 4.47931 83.0502L4.47952 83.0503C4.13913 82.9191 3.87861 82.5244 3.70478 81.7993C3.53169 81.0772 3.44846 80.0434 3.44846 78.6617C3.44846 77.8348 3.47013 77.1714 3.52866 76.6385C3.58723 76.1053 3.6824 75.7059 3.82751 75.4051C3.97189 75.1059 4.16605 74.9036 4.42571 74.764C4.68694 74.6236 5.01722 74.5452 5.43606 74.4996ZM40.4976 71.4694H29.8835V70.4635V69.4576H40.4976H51.1118V70.4635V71.4694H40.4976Z" fill="#FDD304" stroke="#FDD304" stroke-width="0.1"/>
<rect x="2.5" y="73.5" width="76" height="11" rx="3.5" stroke="#058FA2" stroke-width="3"/>
</svg>
