<svg width="99" height="88" viewBox="0 0 99 88" fill="none" xmlns="http://www.w3.org/2000/svg">
<path fill-rule="evenodd" clip-rule="evenodd" d="M47.4751 1.53166C44.0629 4.9158 37.0667 7.5467 28.5102 8.66385C26.4004 8.93939 24.5237 9.31479 24.3395 9.49848C23.6534 10.1825 23.2898 18.5616 23.696 24.3366C24.6605 38.0551 28.3246 47.5457 34.974 53.5503C37.8379 56.1367 42.4403 58.3926 46.4987 59.1994C49.417 59.7793 49.6868 59.7786 52.5992 59.1809C56.3292 58.4155 58.4414 57.5586 61.4875 55.5745C68.5127 50.9994 72.9661 42.4614 74.878 29.9031C75.503 25.7964 75.6604 12.9111 75.1136 10.5941C74.7863 9.20693 74.824 9.22016 68.7448 8.36221C61.3786 7.3223 55.0324 4.88066 51.919 1.88862C50.9503 0.957608 49.9408 0.112879 49.6756 0.0112888C49.3989 -0.0944762 48.4619 0.552987 47.4751 1.53166ZM47.9427 5.07688C44.5846 7.78293 37.2527 10.4271 30.65 11.3135C28.5936 11.5898 27.2323 11.9467 26.957 12.2828C26.6444 12.6641 26.5229 14.5432 26.5278 18.9234C26.5526 41.1706 34.0004 54.3112 47.8191 56.4891C50.3571 56.8892 53.8927 56.1207 57.5334 54.3773C64.9844 50.8095 69.918 42.3918 71.6743 30.2511C72.4092 25.1695 72.6939 19.4376 72.4088 15.4655C72.1799 12.2762 72.0951 11.968 71.4115 11.8396C71.0004 11.7623 69.0152 11.4343 67 11.1111C60.553 10.076 54.6817 7.89218 51.1789 5.22648C50.2807 4.54283 49.4903 3.98374 49.4226 3.98374C49.3545 3.98374 48.6887 4.47569 47.9427 5.07688ZM47.7884 8.3549C45.4274 10.7892 39.2585 13.0976 33.7498 13.608C30.0512 13.9507 29.9615 14.0864 29.748 19.6645C29.0839 37.0151 35.1108 49.0083 45.9027 51.8108C51.3014 53.2129 56.7109 51.5123 61.2802 46.9776C65.1972 43.0897 67.619 37.4386 68.7468 29.5552C69.2452 26.0737 69.0815 14.9635 68.5242 14.4089C68.3068 14.1929 66.8935 13.8683 65.3836 13.6873C59.0315 12.9275 53.2186 10.7684 51.0097 8.34829C50.3906 7.66986 49.6833 7.11494 49.4376 7.11494C49.1919 7.11494 48.45 7.673 47.7884 8.3549ZM48.4979 11.7136C46.1968 13.5715 40.1337 15.7953 35.9427 16.3189C32.5288 16.7455 32.8017 16.2507 32.8035 22.0115C32.8076 37.3467 37.7496 46.8423 46.8982 49.0929C48.9557 49.5991 49.5852 49.6207 51.4029 49.2463C61.1305 47.243 66.302 37.4855 66.302 21.134C66.302 16.3169 66.6248 16.7921 63.0368 16.3266C58.7391 15.7692 53.7134 14.0025 50.8624 12.0466L49.3608 11.0168L48.4979 11.7136ZM51.8154 24.5265L46.4292 29.8565L44.1823 27.7054C42.1632 25.7724 41.7881 25.5542 40.4826 25.5542C38.4241 25.5542 36.9896 26.9956 36.9896 29.0636C36.9896 30.4873 37.1455 30.6964 41.4217 35.0049C43.8592 37.4612 46.1187 39.4707 46.4432 39.4707C47.1038 39.4707 60.979 25.6607 61.7098 24.2757C62.7887 22.2313 61.2226 19.7344 58.6456 19.3896L57.2016 19.1965L51.8154 24.5265ZM52.6969 27.8084C48.5582 31.9436 47.0849 33.2083 46.4062 33.2083C45.7728 33.2083 44.8293 32.5142 43.0963 30.7729C41.7633 29.4335 40.5454 28.3375 40.3902 28.3375C40.2352 28.3375 40.006 28.603 39.8814 28.9273C39.7125 29.3656 40.5447 30.3457 43.1201 32.7424L46.5859 35.9676L52.9554 29.6328C56.4583 26.1488 59.2719 23.1404 59.2077 22.9477C58.8745 21.9492 57.6353 22.8743 52.6969 27.8084ZM92.663 32.4182C91.5118 32.7097 90.3704 33.6098 89.8298 34.6518C89.5468 35.1973 88.8399 37.64 88.2592 40.0796C86.9733 45.4791 86.0231 48.737 85.1259 50.8244L84.4482 52.4005L83.2726 51.6761C82.6263 51.2778 81.6611 50.9518 81.1282 50.9518C80.2192 50.9518 75.7923 53.1332 70.3932 56.2418C66.4329 58.5223 64.7792 60.646 63.2982 65.3543C62.7723 67.0253 62.4572 67.4873 61.5984 67.8471C61.0188 68.0895 59.2486 69.6131 57.6653 71.2326C55.0234 73.9345 54.7864 74.2925 54.7864 75.5801C54.7864 76.9362 54.9717 77.1617 60.2825 82.269C63.3052 85.1762 66.1262 87.6888 66.5508 87.853C67.932 88.3867 69.3108 87.5249 72.2106 84.3144C74.4492 81.8369 75.026 80.9779 75.026 80.1238C75.026 78.752 76.97 75.5589 78.9291 73.7132C79.7572 72.9328 81.5536 71.4848 82.9205 70.4947C87.1774 67.4122 89.3612 64.6491 92.1647 58.7979C95.1871 52.4895 99.3589 38.7644 98.9753 36.3896C98.6993 34.6793 97.8419 33.583 96.198 32.8388C94.7481 32.1827 93.9629 32.0891 92.663 32.4182ZM2.26823 33.2041C1.04059 34.0092 0 35.7783 0 37.059C0 38.2756 2.50657 47.3217 4.06781 51.7391C7.67778 61.9538 11.2522 67.2685 17.2734 71.3745C21.1776 74.0371 24.0781 77.8359 24.0781 80.287C24.0781 81.5276 24.3423 81.9239 26.957 84.6039C28.5406 86.2265 30.1967 87.694 30.6378 87.8641C32.0249 88.3999 33.4557 87.4021 39.0037 82.0307C45.5935 75.6511 45.5132 75.9701 41.6133 71.6309C40.126 69.9759 38.376 68.3644 37.7252 68.0495C36.7338 67.5705 36.4169 67.1098 35.7773 65.2161C33.8905 59.6301 32.6977 58.4096 25.0751 54.2629C18.8455 50.8742 17.227 50.4466 15.7314 51.7958C15.2927 52.1917 14.8726 52.334 14.7051 52.1437C13.9538 51.2903 12.7495 47.5843 11.3055 41.681C10.4325 38.1114 9.47107 34.815 9.16922 34.3557C7.93461 32.4773 4.30021 31.8706 2.26823 33.2041ZM3.63963 36.0184C2.99546 36.7281 3.00453 36.8238 4.15016 41.324C5.92985 48.315 7.8547 53.8294 10.1222 58.4319C12.5548 63.3694 14.5198 65.7237 18.8556 68.8967C22.1843 71.3328 23.941 73.1026 25.185 75.2739C25.632 76.0536 26.0954 76.6537 26.2155 76.6075C26.3355 76.5612 28.1306 74.9037 30.2048 72.9245L33.9763 69.326L33.5806 67.8512C32.6569 64.408 31.6275 62.2881 30.2051 60.8996C28.5594 59.2933 18.8368 53.9664 17.8845 54.1491C17.5526 54.2128 17.226 54.5527 17.1579 54.9041C16.8892 56.295 20.9563 59.3511 25.5943 61.2437C27.151 61.879 28.6184 62.6632 28.855 62.9857C29.3428 63.6509 28.9653 64.6595 28.1054 64.9886C27.3116 65.2923 21.8563 62.8893 18.969 60.9636C13.4865 57.3078 11.3216 53.5354 8.73407 43.13C7.80096 39.3775 6.8483 36.0796 6.61659 35.8013C6.00417 35.0655 4.39827 35.1827 3.63963 36.0184ZM92.5315 35.7487C92.3242 35.9975 91.5865 38.6201 90.8928 41.5763C88.7191 50.8352 87.3812 54.0423 84.2381 57.5277C82.2327 59.7515 78.3481 62.3507 74.8777 63.7915C71.5731 65.1629 70.3151 65.1344 70.3151 63.6885C70.3151 63.1353 70.5506 62.5612 70.8385 62.4127C71.1264 62.2638 73.0331 61.3522 75.0756 60.3861C80.536 57.8042 83.5842 54.7614 81.5072 53.9668C81.0623 53.7966 72.4891 58.2294 70.0809 59.8747C68.3616 61.0492 67.261 62.795 66.0075 66.3357L64.9613 69.2905L67.2892 71.5186C68.5696 72.7439 70.3412 74.4219 71.2265 75.2475L72.8359 76.748L73.7349 75.2193C74.735 73.5173 78.2085 70.2275 81.6443 67.7277C87.0218 63.8148 90.7316 56.788 94.5722 43.2393C96.1512 37.6689 96.2908 36.1906 95.2886 35.6559C94.3565 35.1587 92.9841 35.205 92.5315 35.7487ZM31.7856 75.467L26.8624 80.3256L29.1998 82.674L31.5371 85.022L36.27 80.4296C38.8729 77.9038 41.0375 75.7568 41.0797 75.6584C41.1223 75.5599 40.156 74.3836 38.9329 73.0442L36.7087 70.6088L31.7856 75.467ZM60.0948 72.9697C58.9024 74.169 57.9271 75.3289 57.9271 75.547C57.9271 75.7652 60.0815 77.9925 62.7148 80.4964L67.5025 85.0495L69.6939 82.8838C70.8992 81.6929 71.8854 80.5545 71.8854 80.3541C71.8854 80.0299 66.7749 74.8857 63.4971 71.91L62.2625 70.7893L60.0948 72.9697Z" fill="#249DAE"/>
<path fill-rule="evenodd" clip-rule="evenodd" d="M47.7884 8.3549C45.4274 10.7892 39.2585 13.0976 33.7498 13.608C30.0512 13.9507 29.9615 14.0864 29.748 19.6645C29.0839 37.0151 35.1108 49.0083 45.9026 51.8108C51.3014 53.2129 56.7109 51.5123 61.2802 46.9776C65.1972 43.0897 67.619 37.4386 68.7468 29.5552C69.2451 26.0737 69.0815 14.9635 68.5242 14.4089C68.3068 14.1929 66.8935 13.8683 65.3836 13.6873C59.0315 12.9275 53.2186 10.7684 51.0097 8.34829C50.3906 7.66986 49.6833 7.11494 49.4376 7.11494C49.1919 7.11494 48.45 7.673 47.7884 8.3549ZM48.4978 11.7136C46.1968 13.5715 40.1337 15.7953 35.9427 16.3189C32.5288 16.7455 32.8017 16.2507 32.8035 22.0115C32.8076 37.3467 37.7496 46.8422 46.8982 49.0929C48.9557 49.5991 49.5852 49.6207 51.4029 49.2463C61.1305 47.243 66.302 37.4855 66.302 21.134C66.302 16.3169 66.6248 16.7921 63.0368 16.3266C58.7391 15.7692 53.7134 14.0025 50.8624 12.0466L49.3608 11.0168L48.4978 11.7136ZM51.8154 24.5265L46.4292 29.8565L44.1823 27.7054C42.1632 25.7724 41.7881 25.5542 40.4826 25.5542C38.4241 25.5542 36.9896 26.9956 36.9896 29.0636C36.9896 30.4873 37.1455 30.6964 41.4217 35.0049C43.8591 37.4612 46.1187 39.4707 46.4432 39.4707C47.1038 39.4707 60.979 25.6607 61.7098 24.2757C62.7887 22.2313 61.2226 19.7344 58.6456 19.3896L57.2016 19.1965L51.8154 24.5265ZM52.6969 27.8084C48.5582 31.9436 47.0849 33.2083 46.4062 33.2083C45.7728 33.2083 44.8293 32.5142 43.0963 30.7729C41.7633 29.4335 40.5454 28.3375 40.3902 28.3375C40.2352 28.3375 40.006 28.603 39.8814 28.9273C39.7125 29.3656 40.5447 30.3457 43.1201 32.7424L46.5859 35.9676L52.9554 29.6328C56.4583 26.1488 59.2719 23.1404 59.2077 22.9477C58.8745 21.9492 57.6353 22.8743 52.6969 27.8084Z" fill="#FDD304"/>
</svg>
