<svg width="128" height="119" viewBox="0 0 128 119" fill="none" xmlns="http://www.w3.org/2000/svg">
<path fill-rule="evenodd" clip-rule="evenodd" d="M18.6805 0.567894C18.1597 0.950016 17.5846 2.87905 16.62 7.47733C15.054 14.9439 15.0832 14.6239 15.8865 15.4302C16.4269 15.9721 18.0615 16.0594 27.6858 16.0594C35.0628 16.0594 39.137 15.9092 39.6797 15.618C40.4033 15.2295 40.4719 14.9287 40.2516 13.1146C39.764 9.09514 37.6496 1.05856 36.9437 0.540658C35.9388 -0.196749 19.6894 -0.172316 18.6805 0.567894ZM20.715 6.74673C20.3878 8.23356 19.9999 10.036 19.853 10.7522L19.586 12.054H27.7991C34.1062 12.054 36.0106 11.9378 36.0058 11.5533C36.001 11.1235 35.7101 9.74923 34.607 4.94427C34.4031 4.05466 34.3153 4.04304 27.855 4.04304H21.3096L20.715 6.74673ZM16.2716 19.6487C14.7879 21.2942 16.3866 26.2738 19.3605 29.2691C21.767 31.6928 23.9915 32.5988 27.6311 32.6381C32.5845 32.6918 36.1447 30.4891 38.3875 25.9842C40.0174 22.7105 40.0956 19.8722 38.5747 19.1769C37.1081 18.506 36.3446 19.1461 35.8079 21.4953C34.6753 26.452 31.9033 28.8926 27.4343 28.8681C25.5367 28.8577 22.9882 27.7578 21.7638 26.4208C20.6376 25.1915 19.6495 22.8175 19.6495 21.3415C19.6495 20.1238 18.5995 18.8633 17.5846 18.8633C17.2518 18.8633 16.6608 19.2166 16.2716 19.6487ZM62.9574 31.3075C58.2658 32.0945 53.5199 34.5595 50.2981 37.8824L48.6543 39.5776L47.022 38.4785C43.3697 36.0179 42.5978 35.9049 28.4923 35.7692C20.0589 35.6878 14.8413 35.7996 13.439 36.092C8.32913 37.1567 3.90172 40.6546 1.54794 45.4868C-0.453848 49.5972 -0.484577 51.5507 1.28455 62.1223C1.70877 64.6558 2.61708 70.694 3.3031 75.5407C4.15394 81.5489 4.75017 84.5758 5.17799 85.0536C5.68562 85.6208 6.47859 85.7546 9.33521 85.7546H12.8651V101.487C12.8651 115.078 12.9497 117.341 13.4865 118.11C14.1074 119 14.1098 119 27.592 119C40.1483 119 41.1216 118.95 41.7366 118.267C42.3001 117.643 42.3971 116.467 42.3971 110.253V102.971L61.9884 103.075L81.5797 103.178L82.3882 105.655C83.5152 109.104 86.4201 112.321 89.879 113.95C92.1469 115.017 92.918 115.174 95.874 115.17C98.6883 115.166 99.6521 114.986 101.532 114.113C105.581 112.234 108.4 108.994 109.651 104.781L110.127 103.178L115.903 102.978C121.473 102.785 121.748 102.735 123.632 101.566C124.843 100.814 126.043 99.6083 126.792 98.3911L128 96.4288V88.5881V80.7478L126.729 78.0549C123.925 72.114 119.361 68.9813 111.946 67.9078C106.539 67.1248 105.314 66.7338 103.637 65.2562C101.59 63.4526 100.815 61.9044 99.7039 57.3955C98.1272 50.9996 96.4115 47.7527 92.8234 44.3721C91.0199 42.6734 86.1536 39.7093 85.1495 39.6981C84.8486 39.6945 83.4238 38.5858 81.9844 37.2344C78.8388 34.2807 74.9473 32.3156 70.5858 31.4781C67.1952 30.8272 65.982 30.8 62.9574 31.3075ZM61.9521 35.4567C50.0738 38.7628 44.4001 51.1718 49.6456 62.3723C51.9232 67.2353 57.7625 71.5264 63.5033 72.5562C73.5769 74.3631 83.4282 67.1067 85.181 56.5888C86.1256 50.9202 84.0125 44.5972 79.7802 40.4275C75.0503 35.768 67.9483 33.7877 61.9521 35.4567ZM12.4145 40.2829C8.05895 41.8915 4.7386 45.8842 3.88576 50.5385C3.71735 51.457 4.28325 56.3537 5.45974 64.1571C6.46981 70.8587 7.39169 77.0627 7.50822 77.9439C8.037 81.949 7.88017 81.7491 10.5021 81.7491H12.8651V69.4215C12.8651 58.912 12.9569 56.9621 13.4865 56.2035C14.2407 55.1224 15.3071 55.0603 16.1954 56.0456C16.7972 56.7129 16.8559 59.363 16.8559 85.8864V114.995H21.2458H25.6357V99.0347C25.6357 84.0819 25.6816 83.0333 26.3656 82.412C27.3142 81.5505 28.1463 81.5729 28.966 82.4817C29.5571 83.1374 29.6265 84.8806 29.6265 99.1044V114.995H34.0164H38.4063V85.8167C38.4063 58.0584 38.4418 56.6064 39.1362 55.9759C40.0848 55.1144 40.9169 55.1368 41.7366 56.0456C42.3213 56.6941 42.3971 58.2078 42.3971 69.2637V81.7491H44.3745C46.2945 81.7491 46.358 81.7115 46.5691 80.4474C47.8861 72.551 48.3833 69.3141 48.3833 68.6352C48.3833 68.1906 47.7484 66.7687 46.9726 65.4753C45.3838 62.8277 44.5677 60.3768 43.9499 56.3981C43.4475 53.1605 43.9731 49.2828 45.4525 45.3122L46.4174 42.7218L45.5047 42.0125C45.0027 41.6223 43.6426 40.9406 42.4817 40.4972C40.515 39.7466 39.4706 39.6937 27.1171 39.7197C17.1093 39.7414 13.508 39.8792 12.4145 40.2829ZM61.3762 45.3887C60.861 46.1265 60.7548 47.7359 60.7548 54.8015C60.7548 62.7901 60.8047 63.374 61.553 64.1251C61.992 64.5657 62.6205 64.9262 62.9498 64.9262C63.279 64.9262 63.9076 64.5657 64.3466 64.1251C65.0194 63.4497 65.1447 62.79 65.1447 59.9193V56.5147H68.3769C70.5183 56.5147 72.0648 56.2976 72.9599 55.8714C77.0198 53.9376 77.116 47.2268 73.1128 45.2C72.0217 44.6473 70.7019 44.4995 66.8636 44.4991C62.2869 44.4983 61.9605 44.5511 61.3762 45.3887ZM87.8433 46.0083C88.7057 47.6257 89.5501 53.1381 89.2943 55.4789C88.4467 63.2278 84.0915 70.1241 77.7485 73.7598C70.9637 77.6487 60.6124 77.3539 54.3017 73.0913C52.1203 71.6181 51.576 71.6401 51.576 73.2011C51.576 75.5126 49.8503 84.3967 49.2741 85.0536C48.7864 85.6092 48.009 85.7546 45.5279 85.7546H42.3971V92.3636V98.9726H61.8986H81.4001L82.3016 96.4692C84.4762 90.4294 88.93 87.0043 95.0758 86.6458C101.707 86.2585 107.231 89.9515 109.321 96.1676L110.196 98.7724L115.093 98.8853C120.514 99.0107 121.679 98.7247 123.219 96.8874C124.186 95.7334 124.209 95.5548 124.209 88.9994C124.209 81.484 123.889 79.9823 121.632 76.8889C119.65 74.1724 116.629 72.5826 112.113 71.8789C106.666 71.0305 103.947 70.235 102.078 68.9441C98.8483 66.7142 97.3749 64.091 95.8428 57.8457C94.5853 52.7199 93.3701 50.3771 90.4249 47.4022C88.3309 45.2865 87.1058 44.6252 87.8433 46.0083ZM65.1447 50.7636V53.825L67.4726 53.5807C68.7528 53.4465 70.083 53.2278 70.429 53.0944C71.2786 52.7672 72.0628 50.7592 71.7395 49.7374C71.2291 48.1232 70.3962 47.7026 67.7104 47.7026H65.1447V50.7636ZM94.0158 90.5992C89.0493 91.5213 85.5266 95.6321 85.5066 100.528C85.4887 104.962 87.2027 107.995 90.8855 110.047C92.8577 111.145 93.7022 111.379 95.6744 111.376C99.8716 111.369 103.421 109.229 105.165 105.653C108.983 97.8263 102.469 89.0291 94.0158 90.5992Z" fill="#058FA2"/>
<path fill-rule="evenodd" clip-rule="evenodd" d="M18.6805 0.567894C18.1597 0.950016 17.5846 2.87905 16.62 7.47733C15.054 14.9439 15.0832 14.6239 15.8865 15.4302C16.4269 15.9721 18.0615 16.0594 27.6858 16.0594C35.0628 16.0594 39.137 15.9092 39.6797 15.618C40.4033 15.2295 40.4719 14.9287 40.2516 13.1146C39.764 9.09514 37.6496 1.05856 36.9437 0.540658C35.9388 -0.196749 19.6894 -0.172316 18.6805 0.567894ZM20.715 6.74673C20.3878 8.23356 19.9999 10.036 19.853 10.7522L19.586 12.054H27.7991C34.1062 12.054 36.0106 11.9378 36.0058 11.5533C36.001 11.1235 35.7101 9.74923 34.607 4.94427C34.4031 4.05466 34.3153 4.04304 27.855 4.04304H21.3096L20.715 6.74673ZM61.3762 45.3887C60.861 46.1265 60.7548 47.7359 60.7548 54.8015C60.7548 62.7901 60.8047 63.374 61.553 64.1251C61.992 64.5657 62.6205 64.9262 62.9498 64.9262C63.279 64.9262 63.9076 64.5657 64.3466 64.1251C65.0194 63.4497 65.1447 62.79 65.1447 59.9193V56.5147H68.3769C70.5183 56.5147 72.0648 56.2976 72.9599 55.8714C77.0198 53.9376 77.116 47.2268 73.1128 45.2C72.0217 44.6473 70.7019 44.4995 66.8636 44.4991C62.2869 44.4983 61.9605 44.5511 61.3762 45.3887ZM65.1447 50.7636V53.825L67.4726 53.5807C68.7528 53.4465 70.083 53.2278 70.429 53.0944C71.2786 52.7672 72.0628 50.7592 71.7395 49.7374C71.2291 48.1232 70.3962 47.7026 67.7104 47.7026H65.1447V50.7636Z" fill="#FDD304"/>
</svg>
